# OBJ generated by ONSHAPE BY PTC INC, 1.215 Units = meters
mtllib _1346K511_Rotary_Shaft.mtl
g 1346K511_Rotary Shaft
usemtl 0.752941_0.752941_0.752941_0.000000_0.000000
o mesh1321
v 0 0 0.2286 
v 0.00378767 0.000411933 0.2286 
v 0.00372092 0.000819037 0.2286 
v 0.00361056 0.00121654 0.2286 
v 0.00345786 0.00159978 0.2286 
v 0.00326463 0.00196426 0.2286 
v 0.00303311 0.00230571 0.2286 
v 0.00276604 0.00262013 0.2286 
v 0.00246654 0.00290384 0.2286 
v 0.00213812 0.0031535 0.2286 
v 0.00178464 0.00336618 0.2286 
v 0.00141023 0.0035394 0.2286 
v 0.00101928 0.00367113 0.2286 
v 0.000616389 0.00375981 0.2286 
v 0.000206269 0.00380441 0.2286 
v -0.000206269 0.00380441 0.2286 
v -0.000616389 0.00375981 0.2286 
v -0.00101928 0.00367113 0.2286 
v -0.00141023 0.0035394 0.2286 
v -0.00178464 0.00336618 0.2286 
v -0.00213812 0.0031535 0.2286 
v -0.00246654 0.00290384 0.2286 
v -0.00276604 0.00262013 0.2286 
v -0.00303311 0.00230571 0.2286 
v -0.00326463 0.00196426 0.2286 
v -0.00345786 0.00159978 0.2286 
v -0.00361056 0.00121654 0.2286 
v -0.00372092 0.000819037 0.2286 
v -0.00378767 0.000411933 0.2286 
v -0.00381 0 0.2286 
v -0.00378767 -0.000411933 0.2286 
v -0.00372092 -0.000819037 0.2286 
v -0.00361056 -0.00121654 0.2286 
v -0.00345786 -0.00159978 0.2286 
v -0.00326463 -0.00196426 0.2286 
v -0.00303311 -0.00230571 0.2286 
v -0.00276604 -0.00262013 0.2286 
v -0.00246654 -0.00290384 0.2286 
v -0.00213812 -0.0031535 0.2286 
v -0.00178464 -0.00336618 0.2286 
v -0.00141023 -0.0035394 0.2286 
v -0.00101928 -0.00367113 0.2286 
v -0.000616389 -0.00375981 0.2286 
v -0.000206269 -0.00380441 0.2286 
v 0.000206269 -0.00380441 0.2286 
v 0.000616389 -0.00375981 0.2286 
v 0.00101928 -0.00367113 0.2286 
v 0.00141023 -0.0035394 0.2286 
v 0.00178464 -0.00336618 0.2286 
v 0.00213812 -0.0031535 0.2286 
v 0.00246654 -0.00290384 0.2286 
v 0.00276604 -0.00262013 0.2286 
v 0.00303311 -0.00230571 0.2286 
v 0.00326463 -0.00196426 0.2286 
v 0.00345786 -0.00159978 0.2286 
v 0.00361056 -0.00121654 0.2286 
v 0.00372092 -0.000819037 0.2286 
v 0.00378767 -0.000411933 0.2286 
v 0.00381 1.39977e-18 0.2286 
vn 0 0 1 
vn 0 0 1 
vn 0 0 1 
vn 0 0 1 
vn 0 0 1 
vn 0 0 1 
vn 0 0 1 
vn 0 0 1 
vn 0 0 1 
vn 0 0 1 
vn 0 0 1 
vn 0 0 1 
vn 0 0 1 
vn 0 0 1 
vn 0 0 1 
vn 0 0 1 
vn 0 0 1 
vn 0 0 1 
vn 0 0 1 
vn 0 0 1 
vn 0 0 1 
vn 0 0 1 
vn 0 0 1 
vn 0 0 1 
vn 0 0 1 
vn 0 0 1 
vn 0 0 1 
vn 0 0 1 
vn 0 0 1 
vn 0 0 1 
vn 0 0 1 
vn 0 0 1 
vn 0 0 1 
vn 0 0 1 
vn 0 0 1 
vn 0 0 1 
vn 0 0 1 
vn 0 0 1 
vn 0 0 1 
vn 0 0 1 
vn 0 0 1 
vn 0 0 1 
vn 0 0 1 
vn 0 0 1 
vn 0 0 1 
vn 0 0 1 
vn 0 0 1 
vn 0 0 1 
vn 0 0 1 
vn 0 0 1 
vn 0 0 1 
vn 0 0 1 
vn 0 0 1 
vn 0 0 1 
vn 0 0 1 
vn 0 0 1 
vn 0 0 1 
vn 0 0 1 
vn 0 0 1 
f 1//1 2//2 3//3 
f 3//3 4//4 1//1 
f 4//4 5//5 1//1 
f 5//5 6//6 1//1 
f 6//6 7//7 1//1 
f 7//7 8//8 1//1 
f 8//8 9//9 1//1 
f 9//9 10//10 1//1 
f 10//10 11//11 1//1 
f 11//11 12//12 1//1 
f 12//12 13//13 1//1 
f 13//13 14//14 1//1 
f 14//14 15//15 1//1 
f 15//15 16//16 1//1 
f 16//16 17//17 1//1 
f 17//17 18//18 1//1 
f 18//18 19//19 1//1 
f 19//19 20//20 1//1 
f 20//20 21//21 1//1 
f 21//21 22//22 1//1 
f 22//22 23//23 1//1 
f 23//23 24//24 1//1 
f 24//24 25//25 1//1 
f 25//25 26//26 1//1 
f 26//26 27//27 1//1 
f 27//27 28//28 1//1 
f 28//28 29//29 1//1 
f 29//29 30//30 1//1 
f 30//30 31//31 1//1 
f 31//31 32//32 1//1 
f 32//32 33//33 1//1 
f 33//33 34//34 1//1 
f 34//34 35//35 1//1 
f 35//35 36//36 1//1 
f 36//36 37//37 1//1 
f 37//37 38//38 1//1 
f 38//38 39//39 1//1 
f 39//39 40//40 1//1 
f 40//40 41//41 1//1 
f 41//41 42//42 1//1 
f 42//42 43//43 1//1 
f 43//43 44//44 1//1 
f 44//44 45//45 1//1 
f 45//45 46//46 1//1 
f 46//46 47//47 1//1 
f 47//47 48//48 1//1 
f 48//48 49//49 1//1 
f 49//49 50//50 1//1 
f 50//50 51//51 1//1 
f 51//51 52//52 1//1 
f 52//52 53//53 1//1 
f 53//53 54//54 1//1 
f 54//54 55//55 1//1 
f 55//55 56//56 1//1 
f 56//56 57//57 1//1 
f 57//57 58//58 1//1 
f 58//58 59//59 1//1 
f 59//59 2//2 1//1 
o mesh1322
v -0.0047625 -1.16648e-18 0.227648 
v -0.00381 0 0.2286 
v -0.00378767 0.000411933 0.2286 
v -0.00473458 0.000514917 0.227648 
v -0.00372092 0.000819037 0.2286 
v -0.00465116 0.0010238 0.227648 
v -0.00361056 0.00121654 0.2286 
v -0.0045132 0.00152067 0.227648 
v -0.00345786 0.00159978 0.2286 
v -0.00432233 0.00199972 0.227648 
v -0.00326463 0.00196426 0.2286 
v -0.00408078 0.00245533 0.227648 
v -0.00303311 0.00230571 0.2286 
v -0.00379139 0.00288214 0.227648 
v -0.00276604 0.00262013 0.2286 
v -0.00345755 0.00327517 0.227648 
v -0.00246654 0.00290384 0.2286 
v -0.00308318 0.0036298 0.227648 
v -0.00213812 0.0031535 0.2286 
v -0.00267265 0.00394187 0.227648 
v -0.00178464 0.00336618 0.2286 
v -0.0022308 0.00420773 0.227648 
v -0.00141023 0.0035394 0.2286 
v -0.00176278 0.00442425 0.227648 
v -0.00101928 0.00367113 0.2286 
v -0.0012741 0.00458891 0.227648 
v -0.000616389 0.00375981 0.2286 
v -0.000770487 0.00469976 0.227648 
v -0.000206269 0.00380441 0.2286 
v -0.000257837 0.00475552 0.227648 
v 0.000206269 0.00380441 0.2286 
v 0.000257837 0.00475552 0.227648 
v 0.000616389 0.00375981 0.2286 
v 0.000770487 0.00469976 0.227648 
v 0.00101928 0.00367113 0.2286 
v 0.0012741 0.00458891 0.227648 
v 0.00141023 0.0035394 0.2286 
v 0.00176278 0.00442425 0.227648 
v 0.00178464 0.00336618 0.2286 
v 0.0022308 0.00420773 0.227648 
v 0.00213812 0.0031535 0.2286 
v 0.00267265 0.00394187 0.227648 
v 0.00246654 0.00290384 0.2286 
v 0.00308318 0.0036298 0.227648 
v 0.00276604 0.00262013 0.2286 
v 0.00345755 0.00327517 0.227648 
v 0.00303311 0.00230571 0.2286 
v 0.00379139 0.00288214 0.227648 
v 0.00326463 0.00196426 0.2286 
v 0.00408078 0.00245533 0.227648 
v 0.00345786 0.00159978 0.2286 
v 0.00432233 0.00199972 0.227648 
v 0.00361056 0.00121654 0.2286 
v 0.0045132 0.00152067 0.227648 
v 0.00372092 0.000819037 0.2286 
v 0.00465116 0.0010238 0.227648 
v 0.00378767 0.000411933 0.2286 
v 0.00473458 0.000514917 0.227648 
v 0.00381 1.39977e-18 0.2286 
v 0.0047625 5.83238e-19 0.227648 
v 0.00378767 -0.000411933 0.2286 
v 0.00473458 -0.000514917 0.227648 
v 0.00372092 -0.000819037 0.2286 
v 0.00465116 -0.0010238 0.227648 
v 0.00361056 -0.00121654 0.2286 
v 0.0045132 -0.00152067 0.227648 
v 0.00345786 -0.00159978 0.2286 
v 0.00432233 -0.00199972 0.227648 
v 0.00326463 -0.00196426 0.2286 
v 0.00408078 -0.00245533 0.227648 
v 0.00303311 -0.00230571 0.2286 
v 0.00379139 -0.00288214 0.227648 
v 0.00276604 -0.00262013 0.2286 
v 0.00345755 -0.00327517 0.227648 
v 0.00246654 -0.00290384 0.2286 
v 0.00308318 -0.0036298 0.227648 
v 0.00213812 -0.0031535 0.2286 
v 0.00267265 -0.00394187 0.227648 
v 0.00178464 -0.00336618 0.2286 
v 0.0022308 -0.00420773 0.227648 
v 0.00141023 -0.0035394 0.2286 
v 0.00176278 -0.00442425 0.227648 
v 0.00101928 -0.00367113 0.2286 
v 0.0012741 -0.00458891 0.227648 
v 0.000616389 -0.00375981 0.2286 
v 0.000770487 -0.00469976 0.227648 
v 0.000206269 -0.00380441 0.2286 
v 0.000257837 -0.00475552 0.227648 
v -0.000206269 -0.00380441 0.2286 
v -0.000257837 -0.00475552 0.227648 
v -0.000616389 -0.00375981 0.2286 
v -0.000770487 -0.00469976 0.227648 
v -0.00101928 -0.00367113 0.2286 
v -0.0012741 -0.00458891 0.227648 
v -0.00141023 -0.0035394 0.2286 
v -0.00176278 -0.00442425 0.227648 
v -0.00178464 -0.00336618 0.2286 
v -0.0022308 -0.00420773 0.227648 
v -0.00213812 -0.0031535 0.2286 
v -0.00267265 -0.00394187 0.227648 
v -0.00246654 -0.00290384 0.2286 
v -0.00308318 -0.0036298 0.227648 
v -0.00276604 -0.00262013 0.2286 
v -0.00345755 -0.00327517 0.227648 
v -0.00303311 -0.00230571 0.2286 
v -0.00379139 -0.00288214 0.227648 
v -0.00326463 -0.00196426 0.2286 
v -0.00408078 -0.00245533 0.227648 
v -0.00345786 -0.00159978 0.2286 
v -0.00432233 -0.00199972 0.227648 
v -0.00361056 -0.00121654 0.2286 
v -0.0045132 -0.00152067 0.227648 
v -0.00372092 -0.000819037 0.2286 
v -0.00465116 -0.0010238 0.227648 
v -0.00378767 -0.000411933 0.2286 
v -0.00473458 -0.000514917 0.227648 
vn -0.707107 0 0.707107 
vn -0.707107 0 0.707107 
vn -0.702962 0.0764517 0.707107 
vn -0.702962 0.0764517 0.707107 
vn -0.690575 0.152007 0.707107 
vn -0.690575 0.152007 0.707107 
vn -0.670092 0.22578 0.707107 
vn -0.670092 0.22578 0.707107 
vn -0.641753 0.296906 0.707107 
vn -0.641753 0.296906 0.707107 
vn -0.60589 0.364552 0.707107 
vn -0.60589 0.364552 0.707107 
vn -0.562923 0.427923 0.707107 
vn -0.562923 0.427923 0.707107 
vn -0.513356 0.486277 0.707107 
vn -0.513356 0.486277 0.707107 
vn -0.457771 0.53893 0.707107 
vn -0.457771 0.53893 0.707107 
vn -0.396819 0.585265 0.707107 
vn -0.396819 0.585265 0.707107 
vn -0.331215 0.624737 0.707107 
vn -0.331215 0.624737 0.707107 
vn -0.261727 0.656886 0.707107 
vn -0.261727 0.656886 0.707107 
vn -0.189171 0.681333 0.707107 
vn -0.189171 0.681333 0.707107 
vn -0.114397 0.697792 0.707107 
vn -0.114397 0.697792 0.707107 
vn -0.038282 0.70607 0.707107 
vn -0.038282 0.70607 0.707107 
vn 0.038282 0.70607 0.707107 
vn 0.038282 0.70607 0.707107 
vn 0.114397 0.697792 0.707107 
vn 0.114397 0.697792 0.707107 
vn 0.189171 0.681333 0.707107 
vn 0.189171 0.681333 0.707107 
vn 0.261727 0.656886 0.707107 
vn 0.261727 0.656886 0.707107 
vn 0.331215 0.624737 0.707107 
vn 0.331215 0.624737 0.707107 
vn 0.396819 0.585265 0.707107 
vn 0.396819 0.585265 0.707107 
vn 0.457771 0.53893 0.707107 
vn 0.457771 0.53893 0.707107 
vn 0.513356 0.486277 0.707107 
vn 0.513356 0.486277 0.707107 
vn 0.562923 0.427923 0.707107 
vn 0.562923 0.427923 0.707107 
vn 0.60589 0.364552 0.707107 
vn 0.60589 0.364552 0.707107 
vn 0.641753 0.296906 0.707107 
vn 0.641753 0.296906 0.707107 
vn 0.670092 0.22578 0.707107 
vn 0.670092 0.22578 0.707107 
vn 0.690575 0.152007 0.707107 
vn 0.690575 0.152007 0.707107 
vn 0.702962 0.0764517 0.707107 
vn 0.702962 0.0764517 0.707107 
vn 0.707107 -1.47196e-16 0.707107 
vn 0.707107 -1.47196e-16 0.707107 
vn 0.702962 -0.0764517 0.707107 
vn 0.702962 -0.0764517 0.707107 
vn 0.690575 -0.152007 0.707107 
vn 0.690575 -0.152007 0.707107 
vn 0.670092 -0.22578 0.707107 
vn 0.670092 -0.22578 0.707107 
vn 0.641753 -0.296906 0.707107 
vn 0.641753 -0.296906 0.707107 
vn 0.60589 -0.364552 0.707107 
vn 0.60589 -0.364552 0.707107 
vn 0.562923 -0.427923 0.707107 
vn 0.562923 -0.427923 0.707107 
vn 0.513356 -0.486277 0.707107 
vn 0.513356 -0.486277 0.707107 
vn 0.457771 -0.53893 0.707107 
vn 0.457771 -0.53893 0.707107 
vn 0.396819 -0.585265 0.707107 
vn 0.396819 -0.585265 0.707107 
vn 0.331215 -0.624737 0.707107 
vn 0.331215 -0.624737 0.707107 
vn 0.261727 -0.656886 0.707107 
vn 0.261727 -0.656886 0.707107 
vn 0.189171 -0.681333 0.707107 
vn 0.189171 -0.681333 0.707107 
vn 0.114397 -0.697792 0.707107 
vn 0.114397 -0.697792 0.707107 
vn 0.038282 -0.70607 0.707107 
vn 0.038282 -0.70607 0.707107 
vn -0.038282 -0.70607 0.707107 
vn -0.038282 -0.70607 0.707107 
vn -0.114397 -0.697792 0.707107 
vn -0.114397 -0.697792 0.707107 
vn -0.189171 -0.681333 0.707107 
vn -0.189171 -0.681333 0.707107 
vn -0.261727 -0.656886 0.707107 
vn -0.261727 -0.656886 0.707107 
vn -0.331215 -0.624737 0.707107 
vn -0.331215 -0.624737 0.707107 
vn -0.396819 -0.585265 0.707107 
vn -0.396819 -0.585265 0.707107 
vn -0.457771 -0.53893 0.707107 
vn -0.457771 -0.53893 0.707107 
vn -0.513356 -0.486277 0.707107 
vn -0.513356 -0.486277 0.707107 
vn -0.562923 -0.427923 0.707107 
vn -0.562923 -0.427923 0.707107 
vn -0.60589 -0.364552 0.707107 
vn -0.60589 -0.364552 0.707107 
vn -0.641753 -0.296906 0.707107 
vn -0.641753 -0.296906 0.707107 
vn -0.670092 -0.22578 0.707107 
vn -0.670092 -0.22578 0.707107 
vn -0.690575 -0.152007 0.707107 
vn -0.690575 -0.152007 0.707107 
vn -0.702962 -0.0764517 0.707107 
vn -0.702962 -0.0764517 0.707107 
f 60//60 61//61 62//62 
f 63//63 62//62 64//64 
f 65//65 64//64 66//66 
f 67//67 66//66 68//68 
f 69//69 68//68 70//70 
f 71//71 70//70 72//72 
f 73//73 72//72 74//74 
f 75//75 74//74 76//76 
f 77//77 76//76 78//78 
f 79//79 78//78 80//80 
f 81//81 80//80 82//82 
f 83//83 82//82 84//84 
f 85//85 84//84 86//86 
f 87//87 86//86 88//88 
f 89//89 88//88 90//90 
f 91//91 90//90 92//92 
f 93//93 92//92 94//94 
f 95//95 94//94 96//96 
f 97//97 96//96 98//98 
f 99//99 98//98 100//100 
f 101//101 100//100 102//102 
f 103//103 102//102 104//104 
f 105//105 104//104 106//106 
f 107//107 106//106 108//108 
f 109//109 108//108 110//110 
f 111//111 110//110 112//112 
f 113//113 112//112 114//114 
f 115//115 114//114 116//116 
f 117//117 116//116 118//118 
f 119//119 118//118 120//120 
f 121//121 120//120 122//122 
f 123//123 122//122 124//124 
f 125//125 124//124 126//126 
f 127//127 126//126 128//128 
f 129//129 128//128 130//130 
f 131//131 130//130 132//132 
f 133//133 132//132 134//134 
f 135//135 134//134 136//136 
f 137//137 136//136 138//138 
f 139//139 138//138 140//140 
f 141//141 140//140 142//142 
f 143//143 142//142 144//144 
f 145//145 144//144 146//146 
f 147//147 146//146 148//148 
f 149//149 148//148 150//150 
f 151//151 150//150 152//152 
f 153//153 152//152 154//154 
f 155//155 154//154 156//156 
f 157//157 156//156 158//158 
f 159//159 158//158 160//160 
f 161//161 160//160 162//162 
f 163//163 162//162 164//164 
f 165//165 164//164 166//166 
f 167//167 166//166 168//168 
f 169//169 168//168 170//170 
f 171//171 170//170 172//172 
f 173//173 172//172 174//174 
f 175//175 174//174 61//61 
f 61//61 60//60 175//175 
f 174//174 175//175 173//173 
f 172//172 173//173 171//171 
f 170//170 171//171 169//169 
f 168//168 169//169 167//167 
f 166//166 167//167 165//165 
f 164//164 165//165 163//163 
f 162//162 163//163 161//161 
f 160//160 161//161 159//159 
f 158//158 159//159 157//157 
f 156//156 157//157 155//155 
f 154//154 155//155 153//153 
f 152//152 153//153 151//151 
f 150//150 151//151 149//149 
f 148//148 149//149 147//147 
f 146//146 147//147 145//145 
f 144//144 145//145 143//143 
f 142//142 143//143 141//141 
f 140//140 141//141 139//139 
f 138//138 139//139 137//137 
f 136//136 137//137 135//135 
f 134//134 135//135 133//133 
f 132//132 133//133 131//131 
f 130//130 131//131 129//129 
f 128//128 129//129 127//127 
f 126//126 127//127 125//125 
f 124//124 125//125 123//123 
f 122//122 123//123 121//121 
f 120//120 121//121 119//119 
f 118//118 119//119 117//117 
f 116//116 117//117 115//115 
f 114//114 115//115 113//113 
f 112//112 113//113 111//111 
f 110//110 111//111 109//109 
f 108//108 109//109 107//107 
f 106//106 107//107 105//105 
f 104//104 105//105 103//103 
f 102//102 103//103 101//101 
f 100//100 101//101 99//99 
f 98//98 99//99 97//97 
f 96//96 97//97 95//95 
f 94//94 95//95 93//93 
f 92//92 93//93 91//91 
f 90//90 91//91 89//89 
f 88//88 89//89 87//87 
f 86//86 87//87 85//85 
f 84//84 85//85 83//83 
f 82//82 83//83 81//81 
f 80//80 81//81 79//79 
f 78//78 79//79 77//77 
f 76//76 77//77 75//75 
f 74//74 75//75 73//73 
f 72//72 73//73 71//71 
f 70//70 71//71 69//69 
f 68//68 69//69 67//67 
f 66//66 67//67 65//65 
f 64//64 65//65 63//63 
f 62//62 63//63 60//60 
o mesh1323
v -0.0047625 -3.64671e-18 -0.227648 
v -0.0047625 -1.16648e-18 0.227648 
v -0.00473458 0.000514917 0.227648 
v -0.00473458 0.000514917 -0.227648 
v -0.00465116 0.0010238 0.227648 
v -0.00465116 0.0010238 -0.227648 
v -0.0045132 0.00152067 0.227648 
v -0.0045132 0.00152067 -0.227648 
v -0.00432233 0.00199972 0.227648 
v -0.00432233 0.00199972 -0.227648 
v -0.00408078 0.00245533 0.227648 
v -0.00408078 0.00245533 -0.227648 
v -0.00379139 0.00288214 0.227648 
v -0.00379139 0.00288214 -0.227648 
v -0.00345755 0.00327517 0.227648 
v -0.00345755 0.00327517 -0.227648 
v -0.00308318 0.0036298 0.227648 
v -0.00308318 0.0036298 -0.227648 
v -0.00267265 0.00394187 0.227648 
v -0.00267265 0.00394187 -0.227648 
v -0.0022308 0.00420773 0.227648 
v -0.0022308 0.00420773 -0.227648 
v -0.00176278 0.00442425 0.227648 
v -0.00176278 0.00442425 -0.227648 
v -0.0012741 0.00458891 0.227648 
v -0.0012741 0.00458891 -0.227648 
v -0.000770487 0.00469976 0.227648 
v -0.000770487 0.00469976 -0.227648 
v -0.000257837 0.00475552 0.227648 
v -0.000257837 0.00475552 -0.227648 
v 0.000257837 0.00475552 0.227648 
v 0.000257837 0.00475552 -0.227648 
v 0.000770487 0.00469976 0.227648 
v 0.000770487 0.00469976 -0.227648 
v 0.0012741 0.00458891 0.227648 
v 0.0012741 0.00458891 -0.227648 
v 0.00176278 0.00442425 0.227648 
v 0.00176278 0.00442425 -0.227648 
v 0.0022308 0.00420773 0.227648 
v 0.0022308 0.00420773 -0.227648 
v 0.00267265 0.00394187 0.227648 
v 0.00267265 0.00394187 -0.227648 
v 0.00308318 0.0036298 0.227648 
v 0.00308318 0.0036298 -0.227648 
v 0.00345755 0.00327517 0.227648 
v 0.00345755 0.00327517 -0.227648 
v 0.00379139 0.00288214 0.227648 
v 0.00379139 0.00288214 -0.227648 
v 0.00408078 0.00245533 0.227648 
v 0.00408078 0.00245533 -0.227648 
v 0.00432233 0.00199972 0.227648 
v 0.00432233 0.00199972 -0.227648 
v 0.0045132 0.00152067 0.227648 
v 0.0045132 0.00152067 -0.227648 
v 0.00465116 0.0010238 0.227648 
v 0.00465116 0.0010238 -0.227648 
v 0.00473458 0.000514917 0.227648 
v 0.00473458 0.000514917 -0.227648 
v 0.0047625 5.83238e-19 0.227648 
v 0.0047625 0 -0.227648 
v 0.00473458 -0.000514917 0.227648 
v 0.00473458 -0.000514917 -0.227648 
v 0.00465116 -0.0010238 0.227648 
v 0.00465116 -0.0010238 -0.227648 
v 0.0045132 -0.00152067 0.227648 
v 0.0045132 -0.00152067 -0.227648 
v 0.00432233 -0.00199972 0.227648 
v 0.00432233 -0.00199972 -0.227648 
v 0.00408078 -0.00245533 0.227648 
v 0.00408078 -0.00245533 -0.227648 
v 0.00379139 -0.00288214 0.227648 
v 0.00379139 -0.00288214 -0.227648 
v 0.00345755 -0.00327517 0.227648 
v 0.00345755 -0.00327517 -0.227648 
v 0.00308318 -0.0036298 0.227648 
v 0.00308318 -0.0036298 -0.227648 
v 0.00267265 -0.00394187 0.227648 
v 0.00267265 -0.00394187 -0.227648 
v 0.0022308 -0.00420773 0.227648 
v 0.0022308 -0.00420773 -0.227648 
v 0.00176278 -0.00442425 0.227648 
v 0.00176278 -0.00442425 -0.227648 
v 0.0012741 -0.00458891 0.227648 
v 0.0012741 -0.00458891 -0.227648 
v 0.000770487 -0.00469976 0.227648 
v 0.000770487 -0.00469976 -0.227648 
v 0.000257837 -0.00475552 0.227648 
v 0.000257837 -0.00475552 -0.227648 
v -0.000257837 -0.00475552 0.227648 
v -0.000257837 -0.00475552 -0.227648 
v -0.000770487 -0.00469976 0.227648 
v -0.000770487 -0.00469976 -0.227648 
v -0.0012741 -0.00458891 0.227648 
v -0.0012741 -0.00458891 -0.227648 
v -0.00176278 -0.00442425 0.227648 
v -0.00176278 -0.00442425 -0.227648 
v -0.0022308 -0.00420773 0.227648 
v -0.0022308 -0.00420773 -0.227648 
v -0.00267265 -0.00394187 0.227648 
v -0.00267265 -0.00394187 -0.227648 
v -0.00308318 -0.0036298 0.227648 
v -0.00308318 -0.0036298 -0.227648 
v -0.00345755 -0.00327517 0.227648 
v -0.00345755 -0.00327517 -0.227648 
v -0.00379139 -0.00288214 0.227648 
v -0.00379139 -0.00288214 -0.227648 
v -0.00408078 -0.00245533 0.227648 
v -0.00408078 -0.00245533 -0.227648 
v -0.00432233 -0.00199972 0.227648 
v -0.00432233 -0.00199972 -0.227648 
v -0.0045132 -0.00152067 0.227648 
v -0.0045132 -0.00152067 -0.227648 
v -0.00465116 -0.0010238 0.227648 
v -0.00465116 -0.0010238 -0.227648 
v -0.00473458 -0.000514917 0.227648 
v -0.00473458 -0.000514917 -0.227648 
vn -1 0 0 
vn -1 0 0 
vn -0.994138 0.108119 0 
vn -0.994138 0.108119 0 
vn -0.976621 0.21497 0 
vn -0.976621 0.21497 0 
vn -0.947653 0.319302 0 
vn -0.947653 0.319302 0 
vn -0.907575 0.419889 0 
vn -0.907575 0.419889 0 
vn -0.856857 0.515554 0 
vn -0.856857 0.515554 0 
vn -0.796093 0.605174 0 
vn -0.796093 0.605174 0 
vn -0.725995 0.687699 0 
vn -0.725995 0.687699 0 
vn -0.647386 0.762162 0 
vn -0.647386 0.762162 0 
vn -0.561187 0.827689 0 
vn -0.561187 0.827689 0 
vn -0.468408 0.883512 0 
vn -0.468408 0.883512 0 
vn -0.370138 0.928977 0 
vn -0.370138 0.928977 0 
vn -0.267528 0.96355 0 
vn -0.267528 0.96355 0 
vn -0.161782 0.986827 0 
vn -0.161782 0.986827 0 
vn -0.0541389 0.998533 0 
vn -0.0541389 0.998533 0 
vn 0.0541389 0.998533 0 
vn 0.0541389 0.998533 0 
vn 0.161782 0.986827 0 
vn 0.161782 0.986827 0 
vn 0.267528 0.96355 0 
vn 0.267528 0.96355 0 
vn 0.370138 0.928977 0 
vn 0.370138 0.928977 0 
vn 0.468408 0.883512 0 
vn 0.468408 0.883512 0 
vn 0.561187 0.827689 0 
vn 0.561187 0.827689 0 
vn 0.647386 0.762162 0 
vn 0.647386 0.762162 0 
vn 0.725995 0.687699 0 
vn 0.725995 0.687699 0 
vn 0.796093 0.605174 0 
vn 0.796093 0.605174 0 
vn 0.856857 0.515554 0 
vn 0.856857 0.515554 0 
vn 0.907575 0.419889 0 
vn 0.907575 0.419889 0 
vn 0.947653 0.319302 0 
vn 0.947653 0.319302 0 
vn 0.976621 0.21497 0 
vn 0.976621 0.21497 0 
vn 0.994138 0.108119 0 
vn 0.994138 0.108119 0 
vn 1 1.22465e-16 0 
vn 1 1.22465e-16 0 
vn 0.994138 -0.108119 0 
vn 0.994138 -0.108119 0 
vn 0.976621 -0.21497 0 
vn 0.976621 -0.21497 0 
vn 0.947653 -0.319302 0 
vn 0.947653 -0.319302 0 
vn 0.907575 -0.419889 0 
vn 0.907575 -0.419889 0 
vn 0.856857 -0.515554 0 
vn 0.856857 -0.515554 0 
vn 0.796093 -0.605174 0 
vn 0.796093 -0.605174 0 
vn 0.725995 -0.687699 0 
vn 0.725995 -0.687699 0 
vn 0.647386 -0.762162 0 
vn 0.647386 -0.762162 0 
vn 0.561187 -0.827689 0 
vn 0.561187 -0.827689 0 
vn 0.468408 -0.883512 0 
vn 0.468408 -0.883512 0 
vn 0.370138 -0.928977 0 
vn 0.370138 -0.928977 0 
vn 0.267528 -0.96355 0 
vn 0.267528 -0.96355 0 
vn 0.161782 -0.986827 0 
vn 0.161782 -0.986827 0 
vn 0.0541389 -0.998533 0 
vn 0.0541389 -0.998533 0 
vn -0.0541389 -0.998533 0 
vn -0.0541389 -0.998533 0 
vn -0.161782 -0.986827 0 
vn -0.161782 -0.986827 0 
vn -0.267528 -0.96355 0 
vn -0.267528 -0.96355 0 
vn -0.370138 -0.928977 0 
vn -0.370138 -0.928977 0 
vn -0.468408 -0.883512 0 
vn -0.468408 -0.883512 0 
vn -0.561187 -0.827689 0 
vn -0.561187 -0.827689 0 
vn -0.647386 -0.762162 0 
vn -0.647386 -0.762162 0 
vn -0.725995 -0.687699 0 
vn -0.725995 -0.687699 0 
vn -0.796093 -0.605174 0 
vn -0.796093 -0.605174 0 
vn -0.856857 -0.515554 0 
vn -0.856857 -0.515554 0 
vn -0.907575 -0.419889 0 
vn -0.907575 -0.419889 0 
vn -0.947653 -0.319302 0 
vn -0.947653 -0.319302 0 
vn -0.976621 -0.21497 0 
vn -0.976621 -0.21497 0 
vn -0.994138 -0.108119 0 
vn -0.994138 -0.108119 0 
f 176//176 177//177 178//178 
f 179//179 178//178 180//180 
f 181//181 180//180 182//182 
f 183//183 182//182 184//184 
f 185//185 184//184 186//186 
f 187//187 186//186 188//188 
f 189//189 188//188 190//190 
f 191//191 190//190 192//192 
f 193//193 192//192 194//194 
f 195//195 194//194 196//196 
f 197//197 196//196 198//198 
f 199//199 198//198 200//200 
f 201//201 200//200 202//202 
f 203//203 202//202 204//204 
f 205//205 204//204 206//206 
f 207//207 206//206 208//208 
f 209//209 208//208 210//210 
f 211//211 210//210 212//212 
f 213//213 212//212 214//214 
f 215//215 214//214 216//216 
f 217//217 216//216 218//218 
f 219//219 218//218 220//220 
f 221//221 220//220 222//222 
f 223//223 222//222 224//224 
f 225//225 224//224 226//226 
f 227//227 226//226 228//228 
f 229//229 228//228 230//230 
f 231//231 230//230 232//232 
f 233//233 232//232 234//234 
f 235//235 234//234 236//236 
f 237//237 236//236 238//238 
f 239//239 238//238 240//240 
f 241//241 240//240 242//242 
f 243//243 242//242 244//244 
f 245//245 244//244 246//246 
f 247//247 246//246 248//248 
f 249//249 248//248 250//250 
f 251//251 250//250 252//252 
f 253//253 252//252 254//254 
f 255//255 254//254 256//256 
f 257//257 256//256 258//258 
f 259//259 258//258 260//260 
f 261//261 260//260 262//262 
f 263//263 262//262 264//264 
f 265//265 264//264 266//266 
f 267//267 266//266 268//268 
f 269//269 268//268 270//270 
f 271//271 270//270 272//272 
f 273//273 272//272 274//274 
f 275//275 274//274 276//276 
f 277//277 276//276 278//278 
f 279//279 278//278 280//280 
f 281//281 280//280 282//282 
f 283//283 282//282 284//284 
f 285//285 284//284 286//286 
f 287//287 286//286 288//288 
f 289//289 288//288 290//290 
f 291//291 290//290 177//177 
f 177//177 176//176 291//291 
f 290//290 291//291 289//289 
f 288//288 289//289 287//287 
f 286//286 287//287 285//285 
f 284//284 285//285 283//283 
f 282//282 283//283 281//281 
f 280//280 281//281 279//279 
f 278//278 279//279 277//277 
f 276//276 277//277 275//275 
f 274//274 275//275 273//273 
f 272//272 273//273 271//271 
f 270//270 271//271 269//269 
f 268//268 269//269 267//267 
f 266//266 267//267 265//265 
f 264//264 265//265 263//263 
f 262//262 263//263 261//261 
f 260//260 261//261 259//259 
f 258//258 259//259 257//257 
f 256//256 257//257 255//255 
f 254//254 255//255 253//253 
f 252//252 253//253 251//251 
f 250//250 251//251 249//249 
f 248//248 249//249 247//247 
f 246//246 247//247 245//245 
f 244//244 245//245 243//243 
f 242//242 243//243 241//241 
f 240//240 241//241 239//239 
f 238//238 239//239 237//237 
f 236//236 237//237 235//235 
f 234//234 235//235 233//233 
f 232//232 233//233 231//231 
f 230//230 231//231 229//229 
f 228//228 229//229 227//227 
f 226//226 227//227 225//225 
f 224//224 225//225 223//223 
f 222//222 223//223 221//221 
f 220//220 221//221 219//219 
f 218//218 219//219 217//217 
f 216//216 217//217 215//215 
f 214//214 215//215 213//213 
f 212//212 213//213 211//211 
f 210//210 211//211 209//209 
f 208//208 209//209 207//207 
f 206//206 207//207 205//205 
f 204//204 205//205 203//203 
f 202//202 203//203 201//201 
f 200//200 201//201 199//199 
f 198//198 199//199 197//197 
f 196//196 197//197 195//195 
f 194//194 195//195 193//193 
f 192//192 193//193 191//191 
f 190//190 191//191 189//189 
f 188//188 189//189 187//187 
f 186//186 187//187 185//185 
f 184//184 185//185 183//183 
f 182//182 183//183 181//181 
f 180//180 181//181 179//179 
f 178//178 179//179 176//176 
o mesh1324
v 0.0047625 0 -0.227648 
v 0.00381 -9.33181e-19 -0.2286 
v 0.00378767 0.000411933 -0.2286 
v 0.00473458 0.000514917 -0.227648 
v 0.00372092 0.000819037 -0.2286 
v 0.00465116 0.0010238 -0.227648 
v 0.00361056 0.00121654 -0.2286 
v 0.0045132 0.00152067 -0.227648 
v 0.00345786 0.00159978 -0.2286 
v 0.00432233 0.00199972 -0.227648 
v 0.00326463 0.00196426 -0.2286 
v 0.00408078 0.00245533 -0.227648 
v 0.00303311 0.00230571 -0.2286 
v 0.00379139 0.00288214 -0.227648 
v 0.00276604 0.00262013 -0.2286 
v 0.00345755 0.00327517 -0.227648 
v 0.00246654 0.00290384 -0.2286 
v 0.00308318 0.0036298 -0.227648 
v 0.00213812 0.0031535 -0.2286 
v 0.00267265 0.00394187 -0.227648 
v 0.00178464 0.00336618 -0.2286 
v 0.0022308 0.00420773 -0.227648 
v 0.00141023 0.0035394 -0.2286 
v 0.00176278 0.00442425 -0.227648 
v 0.00101928 0.00367113 -0.2286 
v 0.0012741 0.00458891 -0.227648 
v 0.000616389 0.00375981 -0.2286 
v 0.000770487 0.00469976 -0.227648 
v 0.000206269 0.00380441 -0.2286 
v 0.000257837 0.00475552 -0.227648 
v -0.000206269 0.00380441 -0.2286 
v -0.000257837 0.00475552 -0.227648 
v -0.000616389 0.00375981 -0.2286 
v -0.000770487 0.00469976 -0.227648 
v -0.00101928 0.00367113 -0.2286 
v -0.0012741 0.00458891 -0.227648 
v -0.00141023 0.0035394 -0.2286 
v -0.00176278 0.00442425 -0.227648 
v -0.00178464 0.00336618 -0.2286 
v -0.0022308 0.00420773 -0.227648 
v -0.00213812 0.0031535 -0.2286 
v -0.00267265 0.00394187 -0.227648 
v -0.00246654 0.00290384 -0.2286 
v -0.00308318 0.0036298 -0.227648 
v -0.00276604 0.00262013 -0.2286 
v -0.00345755 0.00327517 -0.227648 
v -0.00303311 0.00230571 -0.2286 
v -0.00379139 0.00288214 -0.227648 
v -0.00326463 0.00196426 -0.2286 
v -0.00408078 0.00245533 -0.227648 
v -0.00345786 0.00159978 -0.2286 
v -0.00432233 0.00199972 -0.227648 
v -0.00361056 0.00121654 -0.2286 
v -0.0045132 0.00152067 -0.227648 
v -0.00372092 0.000819037 -0.2286 
v -0.00465116 0.0010238 -0.227648 
v -0.00378767 0.000411933 -0.2286 
v -0.00473458 0.000514917 -0.227648 
v -0.00381 -2.91737e-18 -0.2286 
v -0.0047625 -3.64671e-18 -0.227648 
v -0.00378767 -0.000411933 -0.2286 
v -0.00473458 -0.000514917 -0.227648 
v -0.00372092 -0.000819037 -0.2286 
v -0.00465116 -0.0010238 -0.227648 
v -0.00361056 -0.00121654 -0.2286 
v -0.0045132 -0.00152067 -0.227648 
v -0.00345786 -0.00159978 -0.2286 
v -0.00432233 -0.00199972 -0.227648 
v -0.00326463 -0.00196426 -0.2286 
v -0.00408078 -0.00245533 -0.227648 
v -0.00303311 -0.00230571 -0.2286 
v -0.00379139 -0.00288214 -0.227648 
v -0.00276604 -0.00262013 -0.2286 
v -0.00345755 -0.00327517 -0.227648 
v -0.00246654 -0.00290384 -0.2286 
v -0.00308318 -0.0036298 -0.227648 
v -0.00213812 -0.0031535 -0.2286 
v -0.00267265 -0.00394187 -0.227648 
v -0.00178464 -0.00336618 -0.2286 
v -0.0022308 -0.00420773 -0.227648 
v -0.00141023 -0.0035394 -0.2286 
v -0.00176278 -0.00442425 -0.227648 
v -0.00101928 -0.00367113 -0.2286 
v -0.0012741 -0.00458891 -0.227648 
v -0.000616389 -0.00375981 -0.2286 
v -0.000770487 -0.00469976 -0.227648 
v -0.000206269 -0.00380441 -0.2286 
v -0.000257837 -0.00475552 -0.227648 
v 0.000206269 -0.00380441 -0.2286 
v 0.000257837 -0.00475552 -0.227648 
v 0.000616389 -0.00375981 -0.2286 
v 0.000770487 -0.00469976 -0.227648 
v 0.00101928 -0.00367113 -0.2286 
v 0.0012741 -0.00458891 -0.227648 
v 0.00141023 -0.0035394 -0.2286 
v 0.00176278 -0.00442425 -0.227648 
v 0.00178464 -0.00336618 -0.2286 
v 0.0022308 -0.00420773 -0.227648 
v 0.00213812 -0.0031535 -0.2286 
v 0.00267265 -0.00394187 -0.227648 
v 0.00246654 -0.00290384 -0.2286 
v 0.00308318 -0.0036298 -0.227648 
v 0.00276604 -0.00262013 -0.2286 
v 0.00345755 -0.00327517 -0.227648 
v 0.00303311 -0.00230571 -0.2286 
v 0.00379139 -0.00288214 -0.227648 
v 0.00326463 -0.00196426 -0.2286 
v 0.00408078 -0.00245533 -0.227648 
v 0.00345786 -0.00159978 -0.2286 
v 0.00432233 -0.00199972 -0.227648 
v 0.00361056 -0.00121654 -0.2286 
v 0.0045132 -0.00152067 -0.227648 
v 0.00372092 -0.000819037 -0.2286 
v 0.00465116 -0.0010238 -0.227648 
v 0.00378767 -0.000411933 -0.2286 
v 0.00473458 -0.000514917 -0.227648 
vn 0.707107 0 -0.707107 
vn 0.707107 0 -0.707107 
vn 0.702962 0.0764517 -0.707107 
vn 0.702962 0.0764517 -0.707107 
vn 0.690575 0.152007 -0.707107 
vn 0.690575 0.152007 -0.707107 
vn 0.670092 0.22578 -0.707107 
vn 0.670092 0.22578 -0.707107 
vn 0.641753 0.296906 -0.707107 
vn 0.641753 0.296906 -0.707107 
vn 0.60589 0.364552 -0.707107 
vn 0.60589 0.364552 -0.707107 
vn 0.562923 0.427923 -0.707107 
vn 0.562923 0.427923 -0.707107 
vn 0.513356 0.486277 -0.707107 
vn 0.513356 0.486277 -0.707107 
vn 0.457771 0.53893 -0.707107 
vn 0.457771 0.53893 -0.707107 
vn 0.396819 0.585265 -0.707107 
vn 0.396819 0.585265 -0.707107 
vn 0.331215 0.624737 -0.707107 
vn 0.331215 0.624737 -0.707107 
vn 0.261727 0.656886 -0.707107 
vn 0.261727 0.656886 -0.707107 
vn 0.189171 0.681333 -0.707107 
vn 0.189171 0.681333 -0.707107 
vn 0.114397 0.697792 -0.707107 
vn 0.114397 0.697792 -0.707107 
vn 0.038282 0.70607 -0.707107 
vn 0.038282 0.70607 -0.707107 
vn -0.038282 0.70607 -0.707107 
vn -0.038282 0.70607 -0.707107 
vn -0.114397 0.697792 -0.707107 
vn -0.114397 0.697792 -0.707107 
vn -0.189171 0.681333 -0.707107 
vn -0.189171 0.681333 -0.707107 
vn -0.261727 0.656886 -0.707107 
vn -0.261727 0.656886 -0.707107 
vn -0.331215 0.624737 -0.707107 
vn -0.331215 0.624737 -0.707107 
vn -0.396819 0.585265 -0.707107 
vn -0.396819 0.585265 -0.707107 
vn -0.457771 0.53893 -0.707107 
vn -0.457771 0.53893 -0.707107 
vn -0.513356 0.486277 -0.707107 
vn -0.513356 0.486277 -0.707107 
vn -0.562923 0.427923 -0.707107 
vn -0.562923 0.427923 -0.707107 
vn -0.60589 0.364552 -0.707107 
vn -0.60589 0.364552 -0.707107 
vn -0.641753 0.296906 -0.707107 
vn -0.641753 0.296906 -0.707107 
vn -0.670092 0.22578 -0.707107 
vn -0.670092 0.22578 -0.707107 
vn -0.690575 0.152007 -0.707107 
vn -0.690575 0.152007 -0.707107 
vn -0.702962 0.0764517 -0.707107 
vn -0.702962 0.0764517 -0.707107 
vn -0.707107 -1.47196e-16 -0.707107 
vn -0.707107 -1.47196e-16 -0.707107 
vn -0.702962 -0.0764517 -0.707107 
vn -0.702962 -0.0764517 -0.707107 
vn -0.690575 -0.152007 -0.707107 
vn -0.690575 -0.152007 -0.707107 
vn -0.670092 -0.22578 -0.707107 
vn -0.670092 -0.22578 -0.707107 
vn -0.641753 -0.296906 -0.707107 
vn -0.641753 -0.296906 -0.707107 
vn -0.60589 -0.364552 -0.707107 
vn -0.60589 -0.364552 -0.707107 
vn -0.562923 -0.427923 -0.707107 
vn -0.562923 -0.427923 -0.707107 
vn -0.513356 -0.486277 -0.707107 
vn -0.513356 -0.486277 -0.707107 
vn -0.457771 -0.53893 -0.707107 
vn -0.457771 -0.53893 -0.707107 
vn -0.396819 -0.585265 -0.707107 
vn -0.396819 -0.585265 -0.707107 
vn -0.331215 -0.624737 -0.707107 
vn -0.331215 -0.624737 -0.707107 
vn -0.261727 -0.656886 -0.707107 
vn -0.261727 -0.656886 -0.707107 
vn -0.189171 -0.681333 -0.707107 
vn -0.189171 -0.681333 -0.707107 
vn -0.114397 -0.697792 -0.707107 
vn -0.114397 -0.697792 -0.707107 
vn -0.038282 -0.70607 -0.707107 
vn -0.038282 -0.70607 -0.707107 
vn 0.038282 -0.70607 -0.707107 
vn 0.038282 -0.70607 -0.707107 
vn 0.114397 -0.697792 -0.707107 
vn 0.114397 -0.697792 -0.707107 
vn 0.189171 -0.681333 -0.707107 
vn 0.189171 -0.681333 -0.707107 
vn 0.261727 -0.656886 -0.707107 
vn 0.261727 -0.656886 -0.707107 
vn 0.331215 -0.624737 -0.707107 
vn 0.331215 -0.624737 -0.707107 
vn 0.396819 -0.585265 -0.707107 
vn 0.396819 -0.585265 -0.707107 
vn 0.457771 -0.53893 -0.707107 
vn 0.457771 -0.53893 -0.707107 
vn 0.513356 -0.486277 -0.707107 
vn 0.513356 -0.486277 -0.707107 
vn 0.562923 -0.427923 -0.707107 
vn 0.562923 -0.427923 -0.707107 
vn 0.60589 -0.364552 -0.707107 
vn 0.60589 -0.364552 -0.707107 
vn 0.641753 -0.296906 -0.707107 
vn 0.641753 -0.296906 -0.707107 
vn 0.670092 -0.22578 -0.707107 
vn 0.670092 -0.22578 -0.707107 
vn 0.690575 -0.152007 -0.707107 
vn 0.690575 -0.152007 -0.707107 
vn 0.702962 -0.0764517 -0.707107 
vn 0.702962 -0.0764517 -0.707107 
f 292//292 293//293 294//294 
f 295//295 294//294 296//296 
f 297//297 296//296 298//298 
f 299//299 298//298 300//300 
f 301//301 300//300 302//302 
f 303//303 302//302 304//304 
f 305//305 304//304 306//306 
f 307//307 306//306 308//308 
f 309//309 308//308 310//310 
f 311//311 310//310 312//312 
f 313//313 312//312 314//314 
f 315//315 314//314 316//316 
f 317//317 316//316 318//318 
f 319//319 318//318 320//320 
f 321//321 320//320 322//322 
f 323//323 322//322 324//324 
f 325//325 324//324 326//326 
f 327//327 326//326 328//328 
f 329//329 328//328 330//330 
f 331//331 330//330 332//332 
f 333//333 332//332 334//334 
f 335//335 334//334 336//336 
f 337//337 336//336 338//338 
f 339//339 338//338 340//340 
f 341//341 340//340 342//342 
f 343//343 342//342 344//344 
f 345//345 344//344 346//346 
f 347//347 346//346 348//348 
f 349//349 348//348 350//350 
f 351//351 350//350 352//352 
f 353//353 352//352 354//354 
f 355//355 354//354 356//356 
f 357//357 356//356 358//358 
f 359//359 358//358 360//360 
f 361//361 360//360 362//362 
f 363//363 362//362 364//364 
f 365//365 364//364 366//366 
f 367//367 366//366 368//368 
f 369//369 368//368 370//370 
f 371//371 370//370 372//372 
f 373//373 372//372 374//374 
f 375//375 374//374 376//376 
f 377//377 376//376 378//378 
f 379//379 378//378 380//380 
f 381//381 380//380 382//382 
f 383//383 382//382 384//384 
f 385//385 384//384 386//386 
f 387//387 386//386 388//388 
f 389//389 388//388 390//390 
f 391//391 390//390 392//392 
f 393//393 392//392 394//394 
f 395//395 394//394 396//396 
f 397//397 396//396 398//398 
f 399//399 398//398 400//400 
f 401//401 400//400 402//402 
f 403//403 402//402 404//404 
f 405//405 404//404 406//406 
f 407//407 406//406 293//293 
f 293//293 292//292 407//407 
f 406//406 407//407 405//405 
f 404//404 405//405 403//403 
f 402//402 403//403 401//401 
f 400//400 401//401 399//399 
f 398//398 399//399 397//397 
f 396//396 397//397 395//395 
f 394//394 395//395 393//393 
f 392//392 393//393 391//391 
f 390//390 391//391 389//389 
f 388//388 389//389 387//387 
f 386//386 387//387 385//385 
f 384//384 385//385 383//383 
f 382//382 383//383 381//381 
f 380//380 381//381 379//379 
f 378//378 379//379 377//377 
f 376//376 377//377 375//375 
f 374//374 375//375 373//373 
f 372//372 373//373 371//371 
f 370//370 371//371 369//369 
f 368//368 369//369 367//367 
f 366//366 367//367 365//365 
f 364//364 365//365 363//363 
f 362//362 363//363 361//361 
f 360//360 361//361 359//359 
f 358//358 359//359 357//357 
f 356//356 357//357 355//355 
f 354//354 355//355 353//353 
f 352//352 353//353 351//351 
f 350//350 351//351 349//349 
f 348//348 349//349 347//347 
f 346//346 347//347 345//345 
f 344//344 345//345 343//343 
f 342//342 343//343 341//341 
f 340//340 341//341 339//339 
f 338//338 339//339 337//337 
f 336//336 337//337 335//335 
f 334//334 335//335 333//333 
f 332//332 333//333 331//331 
f 330//330 331//331 329//329 
f 328//328 329//329 327//327 
f 326//326 327//327 325//325 
f 324//324 325//325 323//323 
f 322//322 323//323 321//321 
f 320//320 321//321 319//319 
f 318//318 319//319 317//317 
f 316//316 317//317 315//315 
f 314//314 315//315 313//313 
f 312//312 313//313 311//311 
f 310//310 311//311 309//309 
f 308//308 309//309 307//307 
f 306//306 307//307 305//305 
f 304//304 305//305 303//303 
f 302//302 303//303 301//301 
f 300//300 301//301 299//299 
f 298//298 299//299 297//297 
f 296//296 297//297 295//295 
f 294//294 295//295 292//292 
o mesh1325
v 0 0 -0.2286 
v 0.00378767 -0.000411933 -0.2286 
v 0.00372092 -0.000819037 -0.2286 
v 0.00361056 -0.00121654 -0.2286 
v 0.00345786 -0.00159978 -0.2286 
v 0.00326463 -0.00196426 -0.2286 
v 0.00303311 -0.00230571 -0.2286 
v 0.00276604 -0.00262013 -0.2286 
v 0.00246654 -0.00290384 -0.2286 
v 0.00213812 -0.0031535 -0.2286 
v 0.00178464 -0.00336618 -0.2286 
v 0.00141023 -0.0035394 -0.2286 
v 0.00101928 -0.00367113 -0.2286 
v 0.000616389 -0.00375981 -0.2286 
v 0.000206269 -0.00380441 -0.2286 
v -0.000206269 -0.00380441 -0.2286 
v -0.000616389 -0.00375981 -0.2286 
v -0.00101928 -0.00367113 -0.2286 
v -0.00141023 -0.0035394 -0.2286 
v -0.00178464 -0.00336618 -0.2286 
v -0.00213812 -0.0031535 -0.2286 
v -0.00246654 -0.00290384 -0.2286 
v -0.00276604 -0.00262013 -0.2286 
v -0.00303311 -0.00230571 -0.2286 
v -0.00326463 -0.00196426 -0.2286 
v -0.00345786 -0.00159978 -0.2286 
v -0.00361056 -0.00121654 -0.2286 
v -0.00372092 -0.000819037 -0.2286 
v -0.00378767 -0.000411933 -0.2286 
v -0.00381 -2.91737e-18 -0.2286 
v -0.00378767 0.000411933 -0.2286 
v -0.00372092 0.000819037 -0.2286 
v -0.00361056 0.00121654 -0.2286 
v -0.00345786 0.00159978 -0.2286 
v -0.00326463 0.00196426 -0.2286 
v -0.00303311 0.00230571 -0.2286 
v -0.00276604 0.00262013 -0.2286 
v -0.00246654 0.00290384 -0.2286 
v -0.00213812 0.0031535 -0.2286 
v -0.00178464 0.00336618 -0.2286 
v -0.00141023 0.0035394 -0.2286 
v -0.00101928 0.00367113 -0.2286 
v -0.000616389 0.00375981 -0.2286 
v -0.000206269 0.00380441 -0.2286 
v 0.000206269 0.00380441 -0.2286 
v 0.000616389 0.00375981 -0.2286 
v 0.00101928 0.00367113 -0.2286 
v 0.00141023 0.0035394 -0.2286 
v 0.00178464 0.00336618 -0.2286 
v 0.00213812 0.0031535 -0.2286 
v 0.00246654 0.00290384 -0.2286 
v 0.00276604 0.00262013 -0.2286 
v 0.00303311 0.00230571 -0.2286 
v 0.00326463 0.00196426 -0.2286 
v 0.00345786 0.00159978 -0.2286 
v 0.00361056 0.00121654 -0.2286 
v 0.00372092 0.000819037 -0.2286 
v 0.00378767 0.000411933 -0.2286 
v 0.00381 -9.33181e-19 -0.2286 
vn 0 0 -1 
vn 0 0 -1 
vn 0 0 -1 
vn 0 0 -1 
vn 0 0 -1 
vn 0 0 -1 
vn 0 0 -1 
vn 0 0 -1 
vn 0 0 -1 
vn 0 0 -1 
vn 0 0 -1 
vn 0 0 -1 
vn 0 0 -1 
vn 0 0 -1 
vn 0 0 -1 
vn 0 0 -1 
vn 0 0 -1 
vn 0 0 -1 
vn 0 0 -1 
vn 0 0 -1 
vn 0 0 -1 
vn 0 0 -1 
vn 0 0 -1 
vn 0 0 -1 
vn 0 0 -1 
vn 0 0 -1 
vn 0 0 -1 
vn 0 0 -1 
vn 0 0 -1 
vn 0 0 -1 
vn 0 0 -1 
vn 0 0 -1 
vn 0 0 -1 
vn 0 0 -1 
vn 0 0 -1 
vn 0 0 -1 
vn 0 0 -1 
vn 0 0 -1 
vn 0 0 -1 
vn 0 0 -1 
vn 0 0 -1 
vn 0 0 -1 
vn 0 0 -1 
vn 0 0 -1 
vn 0 0 -1 
vn 0 0 -1 
vn 0 0 -1 
vn 0 0 -1 
vn 0 0 -1 
vn 0 0 -1 
vn 0 0 -1 
vn 0 0 -1 
vn 0 0 -1 
vn 0 0 -1 
vn 0 0 -1 
vn 0 0 -1 
vn 0 0 -1 
vn 0 0 -1 
vn 0 0 -1 
f 408//408 409//409 410//410 
f 410//410 411//411 408//408 
f 411//411 412//412 408//408 
f 412//412 413//413 408//408 
f 413//413 414//414 408//408 
f 414//414 415//415 408//408 
f 415//415 416//416 408//408 
f 416//416 417//417 408//408 
f 417//417 418//418 408//408 
f 418//418 419//419 408//408 
f 419//419 420//420 408//408 
f 420//420 421//421 408//408 
f 421//421 422//422 408//408 
f 422//422 423//423 408//408 
f 423//423 424//424 408//408 
f 424//424 425//425 408//408 
f 425//425 426//426 408//408 
f 426//426 427//427 408//408 
f 427//427 428//428 408//408 
f 428//428 429//429 408//408 
f 429//429 430//430 408//408 
f 430//430 431//431 408//408 
f 431//431 432//432 408//408 
f 432//432 433//433 408//408 
f 433//433 434//434 408//408 
f 434//434 435//435 408//408 
f 435//435 436//436 408//408 
f 436//436 437//437 408//408 
f 437//437 438//438 408//408 
f 438//438 439//439 408//408 
f 439//439 440//440 408//408 
f 440//440 441//441 408//408 
f 441//441 442//442 408//408 
f 442//442 443//443 408//408 
f 443//443 444//444 408//408 
f 444//444 445//445 408//408 
f 445//445 446//446 408//408 
f 446//446 447//447 408//408 
f 447//447 448//448 408//408 
f 448//448 449//449 408//408 
f 449//449 450//450 408//408 
f 450//450 451//451 408//408 
f 451//451 452//452 408//408 
f 452//452 453//453 408//408 
f 453//453 454//454 408//408 
f 454//454 455//455 408//408 
f 455//455 456//456 408//408 
f 456//456 457//457 408//408 
f 457//457 458//458 408//408 
f 458//458 459//459 408//408 
f 459//459 460//460 408//408 
f 460//460 461//461 408//408 
f 461//461 462//462 408//408 
f 462//462 463//463 408//408 
f 463//463 464//464 408//408 
f 464//464 465//465 408//408 
f 465//465 466//466 408//408 
f 466//466 409//409 408//408 
