# OBJ generated by ONSHAPE BY PTC INC, 1.215 Units = meters
mtllib _2025_Drivetrain_Tensioner_Forward_Pin_R2.mtl
g 2025_Drivetrain_Tensioner_Forward Pin_R2
usemtl 0.752941_0.752941_0.752941_0.000000_0.000000
o mesh17738
v 0 0 -0.072 
v 0.0035789 -0.000389228 -0.072 
v 0.00351583 -0.000773894 -0.072 
v 0.00341155 -0.00114949 -0.072 
v 0.00326727 -0.0015116 -0.072 
v 0.00308469 -0.00185599 -0.072 
v 0.00286594 -0.00217863 -0.072 
v 0.00261358 -0.00247572 -0.072 
v 0.00233059 -0.00274378 -0.072 
v 0.00202027 -0.00297968 -0.072 
v 0.00168627 -0.00318064 -0.072 
v 0.0013325 -0.00334432 -0.072 
v 0.000963102 -0.00346878 -0.072 
v 0.000582415 -0.00355258 -0.072 
v 0.0001949 -0.00359472 -0.072 
v -0.0001949 -0.00359472 -0.072 
v -0.000582415 -0.00355258 -0.072 
v -0.000963102 -0.00346878 -0.072 
v -0.0013325 -0.00334432 -0.072 
v -0.00168627 -0.00318064 -0.072 
v -0.00202027 -0.00297968 -0.072 
v -0.00233059 -0.00274378 -0.072 
v -0.00261358 -0.00247572 -0.072 
v -0.00286594 -0.00217863 -0.072 
v -0.00308469 -0.00185599 -0.072 
v -0.00326727 -0.0015116 -0.072 
v -0.00341155 -0.00114949 -0.072 
v -0.00351583 -0.000773894 -0.072 
v -0.0035789 -0.000389228 -0.072 
v -0.0036 -2.75657e-18 -0.072 
v -0.0035789 0.000389228 -0.072 
v -0.00351583 0.000773894 -0.072 
v -0.00341155 0.00114949 -0.072 
v -0.00326727 0.0015116 -0.072 
v -0.00308469 0.00185599 -0.072 
v -0.00286594 0.00217863 -0.072 
v -0.00261358 0.00247572 -0.072 
v -0.00233059 0.00274378 -0.072 
v -0.00202027 0.00297968 -0.072 
v -0.00168627 0.00318064 -0.072 
v -0.0013325 0.00334432 -0.072 
v -0.000963102 0.00346878 -0.072 
v -0.000582415 0.00355258 -0.072 
v -0.0001949 0.00359472 -0.072 
v 0.0001949 0.00359472 -0.072 
v 0.000582415 0.00355258 -0.072 
v 0.000963102 0.00346878 -0.072 
v 0.0013325 0.00334432 -0.072 
v 0.00168627 0.00318064 -0.072 
v 0.00202027 0.00297968 -0.072 
v 0.00233059 0.00274378 -0.072 
v 0.00261358 0.00247572 -0.072 
v 0.00286594 0.00217863 -0.072 
v 0.00308469 0.00185599 -0.072 
v 0.00326727 0.0015116 -0.072 
v 0.00341155 0.00114949 -0.072 
v 0.00351583 0.000773894 -0.072 
v 0.0035789 0.000389228 -0.072 
v 0.0036 -8.81746e-19 -0.072 
vn 0 0 -1 
vn 0 0 -1 
vn 0 0 -1 
vn 0 0 -1 
vn 0 0 -1 
vn 0 0 -1 
vn 0 0 -1 
vn 0 0 -1 
vn 0 0 -1 
vn 0 0 -1 
vn 0 0 -1 
vn 0 0 -1 
vn 0 0 -1 
vn 0 0 -1 
vn 0 0 -1 
vn 0 0 -1 
vn 0 0 -1 
vn 0 0 -1 
vn 0 0 -1 
vn 0 0 -1 
vn 0 0 -1 
vn 0 0 -1 
vn 0 0 -1 
vn 0 0 -1 
vn 0 0 -1 
vn 0 0 -1 
vn 0 0 -1 
vn 0 0 -1 
vn 0 0 -1 
vn 0 0 -1 
vn 0 0 -1 
vn 0 0 -1 
vn 0 0 -1 
vn 0 0 -1 
vn 0 0 -1 
vn 0 0 -1 
vn 0 0 -1 
vn 0 0 -1 
vn 0 0 -1 
vn 0 0 -1 
vn 0 0 -1 
vn 0 0 -1 
vn 0 0 -1 
vn 0 0 -1 
vn 0 0 -1 
vn 0 0 -1 
vn 0 0 -1 
vn 0 0 -1 
vn 0 0 -1 
vn 0 0 -1 
vn 0 0 -1 
vn 0 0 -1 
vn 0 0 -1 
vn 0 0 -1 
vn 0 0 -1 
vn 0 0 -1 
vn 0 0 -1 
vn 0 0 -1 
vn 0 0 -1 
f 1//1 2//2 3//3 
f 3//3 4//4 1//1 
f 4//4 5//5 1//1 
f 5//5 6//6 1//1 
f 6//6 7//7 1//1 
f 7//7 8//8 1//1 
f 8//8 9//9 1//1 
f 9//9 10//10 1//1 
f 10//10 11//11 1//1 
f 11//11 12//12 1//1 
f 12//12 13//13 1//1 
f 13//13 14//14 1//1 
f 14//14 15//15 1//1 
f 15//15 16//16 1//1 
f 16//16 17//17 1//1 
f 17//17 18//18 1//1 
f 18//18 19//19 1//1 
f 19//19 20//20 1//1 
f 20//20 21//21 1//1 
f 21//21 22//22 1//1 
f 22//22 23//23 1//1 
f 23//23 24//24 1//1 
f 24//24 25//25 1//1 
f 25//25 26//26 1//1 
f 26//26 27//27 1//1 
f 27//27 28//28 1//1 
f 28//28 29//29 1//1 
f 29//29 30//30 1//1 
f 30//30 31//31 1//1 
f 31//31 32//32 1//1 
f 32//32 33//33 1//1 
f 33//33 34//34 1//1 
f 34//34 35//35 1//1 
f 35//35 36//36 1//1 
f 36//36 37//37 1//1 
f 37//37 38//38 1//1 
f 38//38 39//39 1//1 
f 39//39 40//40 1//1 
f 40//40 41//41 1//1 
f 41//41 42//42 1//1 
f 42//42 43//43 1//1 
f 43//43 44//44 1//1 
f 44//44 45//45 1//1 
f 45//45 46//46 1//1 
f 46//46 47//47 1//1 
f 47//47 48//48 1//1 
f 48//48 49//49 1//1 
f 49//49 50//50 1//1 
f 50//50 51//51 1//1 
f 51//51 52//52 1//1 
f 52//52 53//53 1//1 
f 53//53 54//54 1//1 
f 54//54 55//55 1//1 
f 55//55 56//56 1//1 
f 56//56 57//57 1//1 
f 57//57 58//58 1//1 
f 58//58 59//59 1//1 
f 59//59 2//2 1//1 
o mesh17739
v 0.004 0 -0.0716 
v 0.0036 -8.81746e-19 -0.072 
v 0.0035789 0.000389228 -0.072 
v 0.00397655 0.000432476 -0.0716 
v 0.00351583 0.000773894 -0.072 
v 0.00390648 0.000859882 -0.0716 
v 0.00341155 0.00114949 -0.072 
v 0.00379061 0.00127721 -0.0716 
v 0.00326727 0.0015116 -0.072 
v 0.0036303 0.00167956 -0.0716 
v 0.00308469 0.00185599 -0.072 
v 0.00342743 0.00206222 -0.0716 
v 0.00286594 0.00217863 -0.072 
v 0.00318437 0.0024207 -0.0716 
v 0.00261358 0.00247572 -0.072 
v 0.00290398 0.0027508 -0.0716 
v 0.00233059 0.00274378 -0.072 
v 0.00258955 0.00304865 -0.0716 
v 0.00202027 0.00297968 -0.072 
v 0.00224475 0.00331076 -0.0716 
v 0.00168627 0.00318064 -0.072 
v 0.00187363 0.00353405 -0.0716 
v 0.0013325 0.00334432 -0.072 
v 0.00148055 0.00371591 -0.0716 
v 0.000963102 0.00346878 -0.072 
v 0.00107011 0.0038542 -0.0716 
v 0.000582415 0.00355258 -0.072 
v 0.000647128 0.00394731 -0.0716 
v 0.0001949 0.00359472 -0.072 
v 0.000216556 0.00399413 -0.0716 
v -0.0001949 0.00359472 -0.072 
v -0.000216556 0.00399413 -0.0716 
v -0.000582415 0.00355258 -0.072 
v -0.000647128 0.00394731 -0.0716 
v -0.000963102 0.00346878 -0.072 
v -0.00107011 0.0038542 -0.0716 
v -0.0013325 0.00334432 -0.072 
v -0.00148055 0.00371591 -0.0716 
v -0.00168627 0.00318064 -0.072 
v -0.00187363 0.00353405 -0.0716 
v -0.00202027 0.00297968 -0.072 
v -0.00224475 0.00331076 -0.0716 
v -0.00233059 0.00274378 -0.072 
v -0.00258955 0.00304865 -0.0716 
v -0.00261358 0.00247572 -0.072 
v -0.00290398 0.0027508 -0.0716 
v -0.00286594 0.00217863 -0.072 
v -0.00318437 0.0024207 -0.0716 
v -0.00308469 0.00185599 -0.072 
v -0.00342743 0.00206222 -0.0716 
v -0.00326727 0.0015116 -0.072 
v -0.0036303 0.00167956 -0.0716 
v -0.00341155 0.00114949 -0.072 
v -0.00379061 0.00127721 -0.0716 
v -0.00351583 0.000773894 -0.072 
v -0.00390648 0.000859882 -0.0716 
v -0.0035789 0.000389228 -0.072 
v -0.00397655 0.000432476 -0.0716 
v -0.0036 -2.75657e-18 -0.072 
v -0.004 -3.06285e-18 -0.0716 
v -0.0035789 -0.000389228 -0.072 
v -0.00397655 -0.000432476 -0.0716 
v -0.00351583 -0.000773894 -0.072 
v -0.00390648 -0.000859882 -0.0716 
v -0.00341155 -0.00114949 -0.072 
v -0.00379061 -0.00127721 -0.0716 
v -0.00326727 -0.0015116 -0.072 
v -0.0036303 -0.00167956 -0.0716 
v -0.00308469 -0.00185599 -0.072 
v -0.00342743 -0.00206222 -0.0716 
v -0.00286594 -0.00217863 -0.072 
v -0.00318437 -0.0024207 -0.0716 
v -0.00261358 -0.00247572 -0.072 
v -0.00290398 -0.0027508 -0.0716 
v -0.00233059 -0.00274378 -0.072 
v -0.00258955 -0.00304865 -0.0716 
v -0.00202027 -0.00297968 -0.072 
v -0.00224475 -0.00331076 -0.0716 
v -0.00168627 -0.00318064 -0.072 
v -0.00187363 -0.00353405 -0.0716 
v -0.0013325 -0.00334432 -0.072 
v -0.00148055 -0.00371591 -0.0716 
v -0.000963102 -0.00346878 -0.072 
v -0.00107011 -0.0038542 -0.0716 
v -0.000582415 -0.00355258 -0.072 
v -0.000647128 -0.00394731 -0.0716 
v -0.0001949 -0.00359472 -0.072 
v -0.000216556 -0.00399413 -0.0716 
v 0.0001949 -0.00359472 -0.072 
v 0.000216556 -0.00399413 -0.0716 
v 0.000582415 -0.00355258 -0.072 
v 0.000647128 -0.00394731 -0.0716 
v 0.000963102 -0.00346878 -0.072 
v 0.00107011 -0.0038542 -0.0716 
v 0.0013325 -0.00334432 -0.072 
v 0.00148055 -0.00371591 -0.0716 
v 0.00168627 -0.00318064 -0.072 
v 0.00187363 -0.00353405 -0.0716 
v 0.00202027 -0.00297968 -0.072 
v 0.00224475 -0.00331076 -0.0716 
v 0.00233059 -0.00274378 -0.072 
v 0.00258955 -0.00304865 -0.0716 
v 0.00261358 -0.00247572 -0.072 
v 0.00290398 -0.0027508 -0.0716 
v 0.00286594 -0.00217863 -0.072 
v 0.00318437 -0.0024207 -0.0716 
v 0.00308469 -0.00185599 -0.072 
v 0.00342743 -0.00206222 -0.0716 
v 0.00326727 -0.0015116 -0.072 
v 0.0036303 -0.00167956 -0.0716 
v 0.00341155 -0.00114949 -0.072 
v 0.00379061 -0.00127721 -0.0716 
v 0.00351583 -0.000773894 -0.072 
v 0.00390648 -0.000859882 -0.0716 
v 0.0035789 -0.000389228 -0.072 
v 0.00397655 -0.000432476 -0.0716 
vn 0.707107 0 -0.707107 
vn 0.707107 0 -0.707107 
vn 0.702962 0.0764517 -0.707107 
vn 0.702962 0.0764517 -0.707107 
vn 0.690575 0.152007 -0.707107 
vn 0.690575 0.152007 -0.707107 
vn 0.670092 0.22578 -0.707107 
vn 0.670092 0.22578 -0.707107 
vn 0.641753 0.296906 -0.707107 
vn 0.641753 0.296906 -0.707107 
vn 0.60589 0.364552 -0.707107 
vn 0.60589 0.364552 -0.707107 
vn 0.562923 0.427923 -0.707107 
vn 0.562923 0.427923 -0.707107 
vn 0.513356 0.486277 -0.707107 
vn 0.513356 0.486277 -0.707107 
vn 0.457771 0.53893 -0.707107 
vn 0.457771 0.53893 -0.707107 
vn 0.396819 0.585265 -0.707107 
vn 0.396819 0.585265 -0.707107 
vn 0.331215 0.624737 -0.707107 
vn 0.331215 0.624737 -0.707107 
vn 0.261727 0.656886 -0.707107 
vn 0.261727 0.656886 -0.707107 
vn 0.189171 0.681333 -0.707107 
vn 0.189171 0.681333 -0.707107 
vn 0.114397 0.697792 -0.707107 
vn 0.114397 0.697792 -0.707107 
vn 0.038282 0.70607 -0.707107 
vn 0.038282 0.70607 -0.707107 
vn -0.038282 0.70607 -0.707107 
vn -0.038282 0.70607 -0.707107 
vn -0.114397 0.697792 -0.707107 
vn -0.114397 0.697792 -0.707107 
vn -0.189171 0.681333 -0.707107 
vn -0.189171 0.681333 -0.707107 
vn -0.261727 0.656886 -0.707107 
vn -0.261727 0.656886 -0.707107 
vn -0.331215 0.624737 -0.707107 
vn -0.331215 0.624737 -0.707107 
vn -0.396819 0.585265 -0.707107 
vn -0.396819 0.585265 -0.707107 
vn -0.457771 0.53893 -0.707107 
vn -0.457771 0.53893 -0.707107 
vn -0.513356 0.486277 -0.707107 
vn -0.513356 0.486277 -0.707107 
vn -0.562923 0.427923 -0.707107 
vn -0.562923 0.427923 -0.707107 
vn -0.60589 0.364552 -0.707107 
vn -0.60589 0.364552 -0.707107 
vn -0.641753 0.296906 -0.707107 
vn -0.641753 0.296906 -0.707107 
vn -0.670092 0.22578 -0.707107 
vn -0.670092 0.22578 -0.707107 
vn -0.690575 0.152007 -0.707107 
vn -0.690575 0.152007 -0.707107 
vn -0.702962 0.0764517 -0.707107 
vn -0.702962 0.0764517 -0.707107 
vn -0.707107 -1.47196e-16 -0.707107 
vn -0.707107 -1.47196e-16 -0.707107 
vn -0.702962 -0.0764517 -0.707107 
vn -0.702962 -0.0764517 -0.707107 
vn -0.690575 -0.152007 -0.707107 
vn -0.690575 -0.152007 -0.707107 
vn -0.670092 -0.22578 -0.707107 
vn -0.670092 -0.22578 -0.707107 
vn -0.641753 -0.296906 -0.707107 
vn -0.641753 -0.296906 -0.707107 
vn -0.60589 -0.364552 -0.707107 
vn -0.60589 -0.364552 -0.707107 
vn -0.562923 -0.427923 -0.707107 
vn -0.562923 -0.427923 -0.707107 
vn -0.513356 -0.486277 -0.707107 
vn -0.513356 -0.486277 -0.707107 
vn -0.457771 -0.53893 -0.707107 
vn -0.457771 -0.53893 -0.707107 
vn -0.396819 -0.585265 -0.707107 
vn -0.396819 -0.585265 -0.707107 
vn -0.331215 -0.624737 -0.707107 
vn -0.331215 -0.624737 -0.707107 
vn -0.261727 -0.656886 -0.707107 
vn -0.261727 -0.656886 -0.707107 
vn -0.189171 -0.681333 -0.707107 
vn -0.189171 -0.681333 -0.707107 
vn -0.114397 -0.697792 -0.707107 
vn -0.114397 -0.697792 -0.707107 
vn -0.038282 -0.70607 -0.707107 
vn -0.038282 -0.70607 -0.707107 
vn 0.038282 -0.70607 -0.707107 
vn 0.038282 -0.70607 -0.707107 
vn 0.114397 -0.697792 -0.707107 
vn 0.114397 -0.697792 -0.707107 
vn 0.189171 -0.681333 -0.707107 
vn 0.189171 -0.681333 -0.707107 
vn 0.261727 -0.656886 -0.707107 
vn 0.261727 -0.656886 -0.707107 
vn 0.331215 -0.624737 -0.707107 
vn 0.331215 -0.624737 -0.707107 
vn 0.396819 -0.585265 -0.707107 
vn 0.396819 -0.585265 -0.707107 
vn 0.457771 -0.53893 -0.707107 
vn 0.457771 -0.53893 -0.707107 
vn 0.513356 -0.486277 -0.707107 
vn 0.513356 -0.486277 -0.707107 
vn 0.562923 -0.427923 -0.707107 
vn 0.562923 -0.427923 -0.707107 
vn 0.60589 -0.364552 -0.707107 
vn 0.60589 -0.364552 -0.707107 
vn 0.641753 -0.296906 -0.707107 
vn 0.641753 -0.296906 -0.707107 
vn 0.670092 -0.22578 -0.707107 
vn 0.670092 -0.22578 -0.707107 
vn 0.690575 -0.152007 -0.707107 
vn 0.690575 -0.152007 -0.707107 
vn 0.702962 -0.0764517 -0.707107 
vn 0.702962 -0.0764517 -0.707107 
f 60//60 61//61 62//62 
f 63//63 62//62 64//64 
f 65//65 64//64 66//66 
f 67//67 66//66 68//68 
f 69//69 68//68 70//70 
f 71//71 70//70 72//72 
f 73//73 72//72 74//74 
f 75//75 74//74 76//76 
f 77//77 76//76 78//78 
f 79//79 78//78 80//80 
f 81//81 80//80 82//82 
f 83//83 82//82 84//84 
f 85//85 84//84 86//86 
f 87//87 86//86 88//88 
f 89//89 88//88 90//90 
f 91//91 90//90 92//92 
f 93//93 92//92 94//94 
f 95//95 94//94 96//96 
f 97//97 96//96 98//98 
f 99//99 98//98 100//100 
f 101//101 100//100 102//102 
f 103//103 102//102 104//104 
f 105//105 104//104 106//106 
f 107//107 106//106 108//108 
f 109//109 108//108 110//110 
f 111//111 110//110 112//112 
f 113//113 112//112 114//114 
f 115//115 114//114 116//116 
f 117//117 116//116 118//118 
f 119//119 118//118 120//120 
f 121//121 120//120 122//122 
f 123//123 122//122 124//124 
f 125//125 124//124 126//126 
f 127//127 126//126 128//128 
f 129//129 128//128 130//130 
f 131//131 130//130 132//132 
f 133//133 132//132 134//134 
f 135//135 134//134 136//136 
f 137//137 136//136 138//138 
f 139//139 138//138 140//140 
f 141//141 140//140 142//142 
f 143//143 142//142 144//144 
f 145//145 144//144 146//146 
f 147//147 146//146 148//148 
f 149//149 148//148 150//150 
f 151//151 150//150 152//152 
f 153//153 152//152 154//154 
f 155//155 154//154 156//156 
f 157//157 156//156 158//158 
f 159//159 158//158 160//160 
f 161//161 160//160 162//162 
f 163//163 162//162 164//164 
f 165//165 164//164 166//166 
f 167//167 166//166 168//168 
f 169//169 168//168 170//170 
f 171//171 170//170 172//172 
f 173//173 172//172 174//174 
f 175//175 174//174 61//61 
f 61//61 60//60 175//175 
f 174//174 175//175 173//173 
f 172//172 173//173 171//171 
f 170//170 171//171 169//169 
f 168//168 169//169 167//167 
f 166//166 167//167 165//165 
f 164//164 165//165 163//163 
f 162//162 163//163 161//161 
f 160//160 161//161 159//159 
f 158//158 159//159 157//157 
f 156//156 157//157 155//155 
f 154//154 155//155 153//153 
f 152//152 153//153 151//151 
f 150//150 151//151 149//149 
f 148//148 149//149 147//147 
f 146//146 147//147 145//145 
f 144//144 145//145 143//143 
f 142//142 143//143 141//141 
f 140//140 141//141 139//139 
f 138//138 139//139 137//137 
f 136//136 137//137 135//135 
f 134//134 135//135 133//133 
f 132//132 133//133 131//131 
f 130//130 131//131 129//129 
f 128//128 129//129 127//127 
f 126//126 127//127 125//125 
f 124//124 125//125 123//123 
f 122//122 123//123 121//121 
f 120//120 121//121 119//119 
f 118//118 119//119 117//117 
f 116//116 117//117 115//115 
f 114//114 115//115 113//113 
f 112//112 113//113 111//111 
f 110//110 111//111 109//109 
f 108//108 109//109 107//107 
f 106//106 107//107 105//105 
f 104//104 105//105 103//103 
f 102//102 103//103 101//101 
f 100//100 101//101 99//99 
f 98//98 99//99 97//97 
f 96//96 97//97 95//95 
f 94//94 95//95 93//93 
f 92//92 93//93 91//91 
f 90//90 91//91 89//89 
f 88//88 89//89 87//87 
f 86//86 87//87 85//85 
f 84//84 85//85 83//83 
f 82//82 83//83 81//81 
f 80//80 81//81 79//79 
f 78//78 79//79 77//77 
f 76//76 77//77 75//75 
f 74//74 75//75 73//73 
f 72//72 73//73 71//71 
f 70//70 71//71 69//69 
f 68//68 69//69 67//67 
f 66//66 67//67 65//65 
f 64//64 65//65 63//63 
f 62//62 63//63 60//60 
o mesh17740
v -0.00379061 0.00127721 -0.0716 
v -0.00379061 0.00127721 0.072 
v -0.0036303 0.00167956 0.072 
v -0.0036303 0.00167956 -0.0716 
v -0.00342743 0.00206222 0.072 
v -0.00342743 0.00206222 -0.0716 
v -0.00318437 0.0024207 0.072 
v -0.00318437 0.0024207 -0.0716 
v -0.00290398 0.0027508 0.072 
v -0.00290398 0.0027508 -0.0716 
v -0.00258955 0.00304865 0.072 
v -0.00258955 0.00304865 -0.0716 
v -0.00224475 0.00331076 0.072 
v -0.00224475 0.00331076 -0.0716 
v -0.00187363 0.00353405 0.072 
v -0.00187363 0.00353405 -0.0716 
v -0.00148055 0.00371591 0.072 
v -0.00148055 0.00371591 -0.0716 
v -0.00107011 0.0038542 0.072 
v -0.00107011 0.0038542 -0.0716 
v -0.000647128 0.00394731 0.072 
v -0.000647128 0.00394731 -0.0716 
v -0.000216556 0.00399413 0.072 
v -0.000216556 0.00399413 -0.0716 
v 0.000216556 0.00399413 0.072 
v 0.000216556 0.00399413 -0.0716 
v 0.000647128 0.00394731 0.072 
v 0.000647128 0.00394731 -0.0716 
v 0.00107011 0.0038542 0.072 
v 0.00107011 0.0038542 -0.0716 
v 0.00148055 0.00371591 0.072 
v 0.00148055 0.00371591 -0.0716 
v 0.00187363 0.00353405 0.072 
v 0.00187363 0.00353405 -0.0716 
v 0.00224475 0.00331076 0.072 
v 0.00224475 0.00331076 -0.0716 
v 0.00258955 0.00304865 0.072 
v 0.00258955 0.00304865 -0.0716 
v 0.00290398 0.0027508 0.072 
v 0.00290398 0.0027508 -0.0716 
v 0.00318437 0.0024207 0.072 
v 0.00318437 0.0024207 -0.0716 
v 0.00342743 0.00206222 0.072 
v 0.00342743 0.00206222 -0.0716 
v 0.0036303 0.00167956 0.072 
v 0.0036303 0.00167956 -0.0716 
v 0.00379061 0.00127721 0.072 
v 0.00379061 -0.00127721 -0.0716 
v 0.00379061 -0.00127721 0.072 
v 0.0036303 -0.00167956 0.072 
v 0.0036303 -0.00167956 -0.0716 
v 0.00342743 -0.00206222 0.072 
v 0.00342743 -0.00206222 -0.0716 
v 0.00318437 -0.0024207 0.072 
v 0.00318437 -0.0024207 -0.0716 
v 0.00290398 -0.0027508 0.072 
v 0.00290398 -0.0027508 -0.0716 
v 0.00258955 -0.00304865 0.072 
v 0.00258955 -0.00304865 -0.0716 
v 0.00224475 -0.00331076 0.072 
v 0.00224475 -0.00331076 -0.0716 
v 0.00187363 -0.00353405 0.072 
v 0.00187363 -0.00353405 -0.0716 
v 0.00148055 -0.00371591 0.072 
v 0.00148055 -0.00371591 -0.0716 
v 0.00107011 -0.0038542 0.072 
v 0.00107011 -0.0038542 -0.0716 
v 0.000647128 -0.00394731 0.072 
v 0.000647128 -0.00394731 -0.0716 
v 0.000216556 -0.00399413 0.072 
v 0.000216556 -0.00399413 -0.0716 
v -0.000216556 -0.00399413 0.072 
v -0.000216556 -0.00399413 -0.0716 
v -0.000647128 -0.00394731 0.072 
v -0.000647128 -0.00394731 -0.0716 
v -0.00107011 -0.0038542 0.072 
v -0.00107011 -0.0038542 -0.0716 
v -0.00148055 -0.00371591 0.072 
v -0.00148055 -0.00371591 -0.0716 
v -0.00187363 -0.00353405 0.072 
v -0.00187363 -0.00353405 -0.0716 
v -0.00224475 -0.00331076 0.072 
v -0.00224475 -0.00331076 -0.0716 
v -0.00258955 -0.00304865 0.072 
v -0.00258955 -0.00304865 -0.0716 
v -0.00290398 -0.0027508 0.072 
v -0.00290398 -0.0027508 -0.0716 
v -0.00318437 -0.0024207 0.072 
v -0.00318437 -0.0024207 -0.0716 
v -0.00342743 -0.00206222 0.072 
v -0.00342743 -0.00206222 -0.0716 
v -0.0036303 -0.00167956 0.072 
v -0.0036303 -0.00167956 -0.0716 
v -0.00379061 -0.00127721 0.072 
v -0.00397655 -0.000432476 0.072 
v -0.00398282 -0.00037032 -0.0685711 
v -0.00397784 -0.000419738 -0.0685928 
v -0.00399422 -0.00021497 -0.0685234 
v -0.00399105 -0.000267392 -0.0685364 
v -0.00399673 -0.0001618 -0.0685132 
v -0.00398724 -0.000319302 -0.0685523 
v -0.00399854 -0.000108119 -0.0685059 
v -0.00399963 -5.43175e-05 -0.0685015 
v -0.004 0 0.072 
v -0.004 4.64508e-18 -0.0685 
v -0.00390648 -0.000859882 0.072 
v -0.00397655 -0.000432476 -0.0685984 
v -0.00396664 -0.000515554 -0.0686431 
v -0.00395396 -0.000605174 -0.0687039 
v -0.00394044 -0.000687699 -0.068774 
v -0.00392672 -0.000762162 -0.0688526 
v -0.00391343 -0.000827689 -0.0689388 
v -0.00379061 -0.00127721 -0.0716 
v -0.00390139 -0.000882357 -0.0699678 
v -0.00390648 -0.000859882 -0.0700105 
v -0.00389568 -0.000907551 -0.0699199 
v -0.00388612 -0.000947675 -0.0698192 
v -0.00389063 -0.000928977 -0.0698701 
v -0.00388221 -0.00096355 -0.0697675 
v -0.00387895 -0.000976601 -0.0697151 
v -0.00387636 -0.000986827 -0.0696618 
v -0.00387449 -0.000994132 -0.0696082 
v -0.00387336 -0.000998533 -0.0695541 
v -0.00387449 -0.000994144 -0.0693919 
v -0.00387336 -0.000998533 -0.0694459 
v -0.00387636 -0.000986827 -0.0693382 
v -0.00390121 -0.000883512 -0.0690316 
v -0.00389568 -0.000907584 -0.0690801 
v -0.00389063 -0.000928977 -0.0691299 
v -0.00388613 -0.000947607 -0.0691806 
v -0.00388221 -0.00096355 -0.0692325 
v -0.00387894 -0.000976641 -0.0692851 
v -0.00387298 -0.001 -0.0694999 
v -0.00390638 -0.00085986 -0.0689923 
v -0.00390648 -0.000859882 -0.0716 
v -0.00396664 -0.000515554 -0.0703569 
v -0.00397642 -0.000432461 -0.0704009 
v -0.00395396 -0.000605174 -0.0702961 
v -0.00394044 -0.000687699 -0.070226 
v -0.00392672 -0.000762162 -0.0701474 
v -0.00391343 -0.000827689 -0.0700612 
v -0.004 -3.06285e-18 -0.0716 
v -0.00397655 -0.000432476 -0.0716 
v -0.00399854 -0.000108119 -0.0704941 
v -0.00399964 -5.40117e-05 -0.0704985 
v -0.00398285 -0.000370057 -0.070429 
v -0.00398724 -0.000319302 -0.0704477 
v -0.0039779 -0.000419889 -0.0704076 
v -0.00399104 -0.000267599 -0.0704635 
v -0.00399422 -0.00021497 -0.0704766 
v -0.00399672 -0.000161949 -0.0704868 
v -0.00397655 0.000432476 -0.0716 
v -0.00398284 0.000370133 -0.070429 
v -0.00397784 0.000419738 -0.0704072 
v -0.00399103 0.000267679 -0.0704635 
v -0.00398724 0.000319302 -0.0704477 
v -0.00399422 0.00021497 -0.0704766 
v -0.00399963 5.41071e-05 -0.0704985 
v -0.00399854 0.000108119 -0.0704941 
v -0.00399673 0.000161626 -0.0704869 
v -0.004 0 -0.0705 
v -0.00390648 0.000859882 -0.0716 
v -0.00397655 0.000432476 -0.0704016 
v -0.00396664 0.000515554 -0.0703569 
v -0.00395396 0.000605174 -0.0702961 
v -0.00394044 0.000687699 -0.070226 
v -0.00392672 0.000762162 -0.0701474 
v -0.00391343 0.000827689 -0.0700612 
v -0.00390648 0.000859882 0.072 
v -0.00389568 0.000907552 -0.0690801 
v -0.00390139 0.000882357 -0.0690322 
v -0.00388614 0.000947595 -0.0691805 
v -0.00389063 0.000928977 -0.0691299 
v -0.00388221 0.00096355 -0.0692325 
v -0.00387894 0.000976646 -0.0692851 
v -0.00387636 0.000986827 -0.0693382 
v -0.00387449 0.000994134 -0.0693918 
v -0.00387336 0.000998533 -0.0694459 
v -0.00387298 0.001 -0.0694998 
v -0.00387336 0.000998533 -0.0695541 
v -0.00390121 0.000883512 -0.0699684 
v -0.0038957 0.000907495 -0.0699201 
v -0.00389063 0.000928977 -0.0698701 
v -0.00388611 0.000947703 -0.0698192 
v -0.00388221 0.00096355 -0.0697675 
v -0.00387894 0.00097662 -0.069715 
v -0.00387636 0.000986827 -0.0696618 
v -0.0038745 0.00099412 -0.0696083 
v -0.00390638 0.00085986 -0.0700077 
v -0.00397655 0.000432476 0.072 
v -0.00395396 0.000605174 -0.0687039 
v -0.00396664 0.000515554 -0.0686431 
v -0.00394044 0.000687699 -0.068774 
v -0.00392672 0.000762162 -0.0688526 
v -0.00390648 0.000859882 -0.0689895 
v -0.00391343 0.000827689 -0.0689388 
v -0.00399673 0.000161759 -0.0685132 
v -0.00399854 0.000108119 -0.0685059 
v -0.0039779 0.000419889 -0.0685924 
v -0.00398283 0.000370256 -0.0685711 
v -0.00398724 0.000319302 -0.0685523 
v -0.00399104 0.000267527 -0.0685364 
v -0.00399422 0.00021497 -0.0685234 
v -0.00399963 5.42755e-05 -0.0685015 
v -0.00397642 0.000432461 -0.0685991 
v 0.00397655 -0.000432476 -0.0716 
v 0.00398282 -0.00037032 -0.0704289 
v 0.00397784 -0.000419738 -0.0704072 
v 0.00399422 -0.00021497 -0.0704766 
v 0.00399105 -0.000267392 -0.0704636 
v 0.00399673 -0.0001618 -0.0704868 
v 0.00398724 -0.000319302 -0.0704477 
v 0.004 0 -0.0716 
v 0.00399963 -5.43175e-05 -0.0704985 
v 0.00399854 -0.000108119 -0.0704941 
v 0.004 -8.39193e-18 -0.0705 
v 0.00390648 -0.000859882 -0.0716 
v 0.00397655 -0.000432476 -0.0704016 
v 0.00396664 -0.000515554 -0.0703569 
v 0.00395396 -0.000605174 -0.0702961 
v 0.00394044 -0.000687699 -0.070226 
v 0.00392672 -0.000762162 -0.0701474 
v 0.00391343 -0.000827689 -0.0700612 
v 0.00390648 -0.000859882 0.072 
v 0.00389568 -0.000907551 -0.0690801 
v 0.00390139 -0.000882357 -0.0690322 
v 0.00388612 -0.000947675 -0.0691808 
v 0.00389063 -0.000928977 -0.0691299 
v 0.00388221 -0.00096355 -0.0692325 
v 0.00387895 -0.000976601 -0.0692849 
v 0.00387636 -0.000986827 -0.0693382 
v 0.00387449 -0.000994132 -0.0693918 
v 0.00387336 -0.000998533 -0.0694459 
v 0.00387449 -0.000994144 -0.0696081 
v 0.00387336 -0.000998533 -0.0695541 
v 0.00390121 -0.000883512 -0.0699684 
v 0.00389568 -0.000907584 -0.0699199 
v 0.00389063 -0.000928977 -0.0698701 
v 0.00388613 -0.000947607 -0.0698194 
v 0.00388221 -0.00096355 -0.0697675 
v 0.00387894 -0.000976641 -0.0697149 
v 0.00387636 -0.000986827 -0.0696618 
v 0.00387298 -0.001 -0.0695001 
v 0.00390638 -0.00085986 -0.0700077 
v 0.00397655 -0.000432476 0.072 
v 0.00395396 -0.000605174 -0.0687039 
v 0.00396664 -0.000515554 -0.0686431 
v 0.00394044 -0.000687699 -0.068774 
v 0.00392672 -0.000762162 -0.0688526 
v 0.00390648 -0.000859882 -0.0689895 
v 0.00391343 -0.000827689 -0.0689388 
v 0.004 1.46958e-18 0.072 
v 0.00399854 -0.000108119 -0.0685059 
v 0.00399964 -5.40117e-05 -0.0685015 
v 0.00398285 -0.000370057 -0.068571 
v 0.00398724 -0.000319302 -0.0685523 
v 0.0039779 -0.000419889 -0.0685924 
v 0.00399104 -0.000267599 -0.0685365 
v 0.00399422 -0.00021497 -0.0685234 
v 0.00399672 -0.000161949 -0.0685132 
v 0.00397642 -0.000432461 -0.0685991 
v 0.00397655 0.000432476 0.072 
v 0.00398284 0.000370133 -0.068571 
v 0.00397784 0.000419738 -0.0685928 
v 0.00399103 0.000267679 -0.0685365 
v 0.00398724 0.000319302 -0.0685523 
v 0.00399422 0.00021497 -0.0685234 
v 0.00399854 0.000108119 -0.0685059 
v 0.00399673 0.000161626 -0.0685131 
v 0.00399963 5.41071e-05 -0.0685015 
v 0.004 4.89859e-19 -0.0685 
v 0.00390648 0.000859882 0.072 
v 0.00397655 0.000432476 -0.0685984 
v 0.00396664 0.000515554 -0.0686431 
v 0.00395396 0.000605174 -0.0687039 
v 0.00394044 0.000687699 -0.068774 
v 0.00392672 0.000762162 -0.0688526 
v 0.00391343 0.000827689 -0.0689388 
v 0.00379061 0.00127721 -0.0716 
v 0.00390139 0.000882357 -0.0699678 
v 0.00390648 0.000859882 -0.0700105 
v 0.00389568 0.000907552 -0.0699199 
v 0.00388614 0.000947595 -0.0698195 
v 0.00389063 0.000928977 -0.0698701 
v 0.00388221 0.00096355 -0.0697675 
v 0.00387894 0.000976646 -0.0697149 
v 0.00387636 0.000986827 -0.0696618 
v 0.00387449 0.000994134 -0.0696082 
v 0.00387336 0.000998533 -0.0695541 
v 0.00387336 0.000998533 -0.0694459 
v 0.00387298 0.001 -0.0695002 
v 0.00387636 0.000986827 -0.0693382 
v 0.0038745 0.00099412 -0.0693917 
v 0.00390121 0.000883512 -0.0690316 
v 0.0038957 0.000907495 -0.0690799 
v 0.00389063 0.000928977 -0.0691299 
v 0.00388611 0.000947703 -0.0691808 
v 0.00388221 0.00096355 -0.0692325 
v 0.00387894 0.00097662 -0.069285 
v 0.00390638 0.00085986 -0.0689923 
v 0.00390648 0.000859882 -0.0716 
v 0.00396664 0.000515554 -0.0703569 
v 0.00397642 0.000432461 -0.0704009 
v 0.00395396 0.000605174 -0.0702961 
v 0.00394044 0.000687699 -0.070226 
v 0.00392672 0.000762162 -0.0701474 
v 0.00391343 0.000827689 -0.0700612 
v 0.00397655 0.000432476 -0.0716 
v 0.00399854 0.000108119 -0.0704941 
v 0.0039779 0.000419889 -0.0704076 
v 0.00398283 0.000370256 -0.0704289 
v 0.00398724 0.000319302 -0.0704477 
v 0.00399104 0.000267527 -0.0704636 
v 0.00399422 0.00021497 -0.0704766 
v 0.00399673 0.000161759 -0.0704868 
v 0.00399963 5.42755e-05 -0.0704985 
vn -0.947653 0.319302 0 
vn -0.947653 0.319302 0 
vn -0.907575 0.419889 0 
vn -0.907575 0.419889 0 
vn -0.856857 0.515554 0 
vn -0.856857 0.515554 0 
vn -0.796093 0.605174 0 
vn -0.796093 0.605174 0 
vn -0.725995 0.687699 0 
vn -0.725995 0.687699 0 
vn -0.647386 0.762162 0 
vn -0.647386 0.762162 0 
vn -0.561187 0.827689 0 
vn -0.561187 0.827689 0 
vn -0.468408 0.883512 0 
vn -0.468408 0.883512 0 
vn -0.370138 0.928977 0 
vn -0.370138 0.928977 0 
vn -0.267528 0.96355 0 
vn -0.267528 0.96355 0 
vn -0.161782 0.986827 0 
vn -0.161782 0.986827 0 
vn -0.0541389 0.998533 0 
vn -0.0541389 0.998533 0 
vn 0.0541389 0.998533 0 
vn 0.0541389 0.998533 0 
vn 0.161782 0.986827 0 
vn 0.161782 0.986827 0 
vn 0.267528 0.96355 0 
vn 0.267528 0.96355 0 
vn 0.370138 0.928977 0 
vn 0.370138 0.928977 0 
vn 0.468408 0.883512 0 
vn 0.468408 0.883512 0 
vn 0.561187 0.827689 0 
vn 0.561187 0.827689 0 
vn 0.647386 0.762162 0 
vn 0.647386 0.762162 0 
vn 0.725995 0.687699 0 
vn 0.725995 0.687699 0 
vn 0.796093 0.605174 0 
vn 0.796093 0.605174 0 
vn 0.856857 0.515554 0 
vn 0.856857 0.515554 0 
vn 0.907575 0.419889 0 
vn 0.907575 0.419889 0 
vn 0.947653 0.319302 0 
vn 0.947653 -0.319302 0 
vn 0.947653 -0.319302 0 
vn 0.907575 -0.419889 0 
vn 0.907575 -0.419889 0 
vn 0.856857 -0.515554 0 
vn 0.856857 -0.515554 0 
vn 0.796093 -0.605174 0 
vn 0.796093 -0.605174 0 
vn 0.725995 -0.687699 0 
vn 0.725995 -0.687699 0 
vn 0.647386 -0.762162 0 
vn 0.647386 -0.762162 0 
vn 0.561187 -0.827689 0 
vn 0.561187 -0.827689 0 
vn 0.468408 -0.883512 0 
vn 0.468408 -0.883512 0 
vn 0.370138 -0.928977 0 
vn 0.370138 -0.928977 0 
vn 0.267528 -0.96355 0 
vn 0.267528 -0.96355 0 
vn 0.161782 -0.986827 0 
vn 0.161782 -0.986827 0 
vn 0.0541389 -0.998533 0 
vn 0.0541389 -0.998533 0 
vn -0.0541389 -0.998533 0 
vn -0.0541389 -0.998533 0 
vn -0.161782 -0.986827 0 
vn -0.161782 -0.986827 0 
vn -0.267528 -0.96355 0 
vn -0.267528 -0.96355 0 
vn -0.370138 -0.928977 0 
vn -0.370138 -0.928977 0 
vn -0.468408 -0.883512 0 
vn -0.468408 -0.883512 0 
vn -0.561187 -0.827689 0 
vn -0.561187 -0.827689 0 
vn -0.647386 -0.762162 0 
vn -0.647386 -0.762162 0 
vn -0.725995 -0.687699 0 
vn -0.725995 -0.687699 0 
vn -0.796093 -0.605174 0 
vn -0.796093 -0.605174 0 
vn -0.856857 -0.515554 0 
vn -0.856857 -0.515554 0 
vn -0.907575 -0.419889 0 
vn -0.907575 -0.419889 0 
vn -0.947653 -0.319302 0 
vn -0.994138 -0.108119 0 
vn -0.995705 -0.0925799 0 
vn -0.994479 -0.104937 0 
vn -0.998555 -0.0537426 0 
vn -0.997763 -0.066848 0 
vn -0.999182 -0.0404501 0 
vn -0.996809 -0.0798254 0 
vn -0.999635 -0.0270298 0 
vn -0.999908 -0.0135794 0 
vn -1 0 0 
vn -1 0 0 
vn -0.976621 -0.21497 0 
vn -0.994138 -0.108119 0 
vn -0.991659 -0.128888 0 
vn -0.988489 -0.151294 0 
vn -0.98511 -0.171925 0 
vn -0.981679 -0.190541 0 
vn -0.978357 -0.206922 0 
vn -0.947653 -0.319302 0 
vn -0.975366 -0.220593 0 
vn -0.976621 -0.21497 0 
vn -0.973921 -0.226888 0 
vn -0.971529 -0.236919 0 
vn -0.972658 -0.232244 0 
vn -0.970553 -0.240887 0 
vn -0.969737 -0.24415 0 
vn -0.96909 -0.246707 0 
vn -0.968623 -0.248533 0 
vn -0.96834 -0.249633 0 
vn -0.968623 -0.248536 0 
vn -0.96834 -0.249633 0 
vn -0.96909 -0.246707 0 
vn -0.975301 -0.220878 0 
vn -0.973919 -0.226896 0 
vn -0.972658 -0.232244 0 
vn -0.971534 -0.236902 0 
vn -0.970553 -0.240887 0 
vn -0.969735 -0.24416 0 
vn -0.968246 -0.25 0 
vn -0.976621 -0.21497 0 
vn -0.976621 -0.21497 0 
vn -0.991659 -0.128888 0 
vn -0.994138 -0.108119 0 
vn -0.988489 -0.151294 0 
vn -0.98511 -0.171925 0 
vn -0.981679 -0.190541 0 
vn -0.978357 -0.206922 0 
vn -1 0 0 
vn -0.994138 -0.108119 0 
vn -0.999635 -0.0270298 0 
vn -0.999909 -0.0135029 0 
vn -0.995711 -0.0925141 0 
vn -0.996809 -0.0798254 0 
vn -0.994475 -0.104972 0 
vn -0.99776 -0.0668998 0 
vn -0.998555 -0.0537426 0 
vn -0.99918 -0.0404873 0 
vn -0.994138 0.108119 0 
vn -0.99571 0.0925332 0 
vn -0.994479 0.104937 0 
vn -0.997758 0.0669198 0 
vn -0.996809 0.0798254 0 
vn -0.998555 0.0537426 0 
vn -0.999909 0.0135268 0 
vn -0.999635 0.0270298 0 
vn -0.999183 0.0404066 0 
vn -1 0 0 
vn -0.976621 0.21497 0 
vn -0.994138 0.108119 0 
vn -0.991659 0.128888 0 
vn -0.988489 0.151294 0 
vn -0.98511 0.171925 0 
vn -0.981679 0.190541 0 
vn -0.978357 0.206922 0 
vn -0.976621 0.21497 0 
vn -0.973921 0.226888 0 
vn -0.975366 0.220593 0 
vn -0.971534 0.236899 0 
vn -0.972658 0.232244 0 
vn -0.970553 0.240887 0 
vn -0.969735 0.244162 0 
vn -0.96909 0.246707 0 
vn -0.968623 0.248533 0 
vn -0.96834 0.249633 0 
vn -0.968246 0.25 0 
vn -0.96834 0.249633 0 
vn -0.975301 0.220878 0 
vn -0.973924 0.226874 0 
vn -0.972658 0.232244 0 
vn -0.971528 0.236926 0 
vn -0.970553 0.240887 0 
vn -0.969736 0.244155 0 
vn -0.96909 0.246707 0 
vn -0.968624 0.24853 0 
vn -0.976621 0.21497 0 
vn -0.994138 0.108119 0 
vn -0.988489 0.151294 0 
vn -0.991659 0.128888 0 
vn -0.98511 0.171925 0 
vn -0.981679 0.190541 0 
vn -0.976621 0.21497 0 
vn -0.978357 0.206922 0 
vn -0.999182 0.0404398 0 
vn -0.999635 0.0270298 0 
vn -0.994475 0.104972 0 
vn -0.995707 0.0925639 0 
vn -0.996809 0.0798254 0 
vn -0.997761 0.0668816 0 
vn -0.998555 0.0537426 0 
vn -0.999908 0.0135689 0 
vn -0.994138 0.108119 0 
vn 0.994138 -0.108119 0 
vn 0.995705 -0.0925799 0 
vn 0.994479 -0.104937 0 
vn 0.998555 -0.0537426 0 
vn 0.997763 -0.066848 0 
vn 0.999182 -0.0404501 0 
vn 0.996809 -0.0798254 0 
vn 1 1.22465e-16 0 
vn 0.999908 -0.0135794 0 
vn 0.999635 -0.0270298 0 
vn 1 -2.09798e-15 0 
vn 0.976621 -0.21497 0 
vn 0.994138 -0.108119 0 
vn 0.991659 -0.128888 0 
vn 0.988489 -0.151294 0 
vn 0.98511 -0.171925 0 
vn 0.981679 -0.190541 0 
vn 0.978357 -0.206922 0 
vn 0.976621 -0.21497 0 
vn 0.973921 -0.226888 0 
vn 0.975366 -0.220593 0 
vn 0.971529 -0.236919 0 
vn 0.972658 -0.232244 0 
vn 0.970553 -0.240887 0 
vn 0.969737 -0.24415 0 
vn 0.96909 -0.246707 0 
vn 0.968623 -0.248533 0 
vn 0.96834 -0.249633 0 
vn 0.968623 -0.248536 0 
vn 0.96834 -0.249633 0 
vn 0.975301 -0.220878 0 
vn 0.973919 -0.226896 0 
vn 0.972658 -0.232244 0 
vn 0.971534 -0.236902 0 
vn 0.970553 -0.240887 0 
vn 0.969735 -0.24416 0 
vn 0.96909 -0.246707 0 
vn 0.968246 -0.25 0 
vn 0.976621 -0.21497 0 
vn 0.994138 -0.108119 0 
vn 0.988489 -0.151294 0 
vn 0.991659 -0.128888 0 
vn 0.98511 -0.171925 0 
vn 0.981679 -0.190541 0 
vn 0.976621 -0.21497 0 
vn 0.978357 -0.206922 0 
vn 1 1.22465e-16 0 
vn 0.999635 -0.0270298 0 
vn 0.999909 -0.0135029 0 
vn 0.995711 -0.0925141 0 
vn 0.996809 -0.0798254 0 
vn 0.994475 -0.104972 0 
vn 0.99776 -0.0668998 0 
vn 0.998555 -0.0537426 0 
vn 0.99918 -0.0404873 0 
vn 0.994138 -0.108119 0 
vn 0.994138 0.108119 0 
vn 0.99571 0.0925332 0 
vn 0.994479 0.104937 0 
vn 0.997758 0.0669198 0 
vn 0.996809 0.0798254 0 
vn 0.998555 0.0537426 0 
vn 0.999635 0.0270298 0 
vn 0.999183 0.0404066 0 
vn 0.999909 0.0135268 0 
vn 1 1.22465e-16 0 
vn 0.976621 0.21497 0 
vn 0.994138 0.108119 0 
vn 0.991659 0.128888 0 
vn 0.988489 0.151294 0 
vn 0.98511 0.171925 0 
vn 0.981679 0.190541 0 
vn 0.978357 0.206922 0 
vn 0.947653 0.319302 0 
vn 0.975366 0.220593 0 
vn 0.976621 0.21497 0 
vn 0.973921 0.226888 0 
vn 0.971534 0.236899 0 
vn 0.972658 0.232244 0 
vn 0.970553 0.240887 0 
vn 0.969735 0.244162 0 
vn 0.96909 0.246707 0 
vn 0.968623 0.248533 0 
vn 0.96834 0.249633 0 
vn 0.96834 0.249633 0 
vn 0.968246 0.25 0 
vn 0.96909 0.246707 0 
vn 0.968624 0.24853 0 
vn 0.975301 0.220878 0 
vn 0.973924 0.226874 0 
vn 0.972658 0.232244 0 
vn 0.971528 0.236926 0 
vn 0.970553 0.240887 0 
vn 0.969736 0.244155 0 
vn 0.976621 0.21497 0 
vn 0.976621 0.21497 0 
vn 0.991659 0.128888 0 
vn 0.994138 0.108119 0 
vn 0.988489 0.151294 0 
vn 0.98511 0.171925 0 
vn 0.981679 0.190541 0 
vn 0.978357 0.206922 0 
vn 0.994138 0.108119 0 
vn 0.999635 0.0270298 0 
vn 0.994475 0.104972 0 
vn 0.995707 0.0925639 0 
vn 0.996809 0.0798254 0 
vn 0.997761 0.0668816 0 
vn 0.998555 0.0537426 0 
vn 0.999182 0.0404398 0 
vn 0.999908 0.0135689 0 
f 176//176 177//177 178//178 
f 179//179 178//178 180//180 
f 181//181 180//180 182//182 
f 183//183 182//182 184//184 
f 185//185 184//184 186//186 
f 187//187 186//186 188//188 
f 189//189 188//188 190//190 
f 191//191 190//190 192//192 
f 193//193 192//192 194//194 
f 195//195 194//194 196//196 
f 197//197 196//196 198//198 
f 199//199 198//198 200//200 
f 201//201 200//200 202//202 
f 203//203 202//202 204//204 
f 205//205 204//204 206//206 
f 207//207 206//206 208//208 
f 209//209 208//208 210//210 
f 211//211 210//210 212//212 
f 213//213 212//212 214//214 
f 215//215 214//214 216//216 
f 217//217 216//216 218//218 
f 219//219 218//218 220//220 
f 221//221 220//220 222//222 
f 223//223 224//224 225//225 
f 226//226 225//225 227//227 
f 228//228 227//227 229//229 
f 230//230 229//229 231//231 
f 232//232 231//231 233//233 
f 234//234 233//233 235//235 
f 236//236 235//235 237//237 
f 238//238 237//237 239//239 
f 240//240 239//239 241//241 
f 242//242 241//241 243//243 
f 244//244 243//243 245//245 
f 246//246 245//245 247//247 
f 248//248 247//247 249//249 
f 250//250 249//249 251//251 
f 252//252 251//251 253//253 
f 254//254 253//253 255//255 
f 256//256 255//255 257//257 
f 258//258 257//257 259//259 
f 260//260 259//259 261//261 
f 262//262 261//261 263//263 
f 264//264 263//263 265//265 
f 266//266 265//265 267//267 
f 268//268 267//267 269//269 
f 270//270 271//271 272//272 
f 270//270 273//273 274//274 
f 270//270 275//275 273//273 
f 274//274 276//276 270//270 
f 270//270 277//277 275//275 
f 270//270 278//278 277//277 
f 270//270 279//279 280//280 
f 280//280 278//278 270//270 
f 276//276 271//271 270//270 
f 281//281 270//270 282//282 
f 282//282 283//283 281//281 
f 283//283 284//284 281//281 
f 284//284 285//285 281//281 
f 285//285 286//286 281//281 
f 286//286 287//287 281//281 
f 288//288 289//289 290//290 
f 288//288 291//291 289//289 
f 288//288 292//292 293//293 
f 288//288 294//294 292//292 
f 288//288 295//295 294//294 
f 288//288 296//296 295//295 
f 288//288 297//297 296//296 
f 288//288 298//298 297//297 
f 288//288 299//299 300//300 
f 269//269 301//301 299//299 
f 269//269 302//302 303//303 
f 303//303 304//304 269//269 
f 304//304 305//305 269//269 
f 305//305 306//306 269//269 
f 306//306 307//307 269//269 
f 307//307 301//301 269//269 
f 299//299 288//288 269//269 
f 300//300 308//308 288//288 
f 308//308 298//298 288//288 
f 293//293 291//291 288//288 
f 269//269 281//281 309//309 
f 309//309 302//302 269//269 
f 310//310 311//311 312//312 
f 310//310 313//313 311//311 
f 310//310 314//314 313//313 
f 310//310 315//315 314//314 
f 310//310 290//290 316//316 
f 316//316 315//315 310//310 
f 317//317 318//318 319//319 
f 319//319 320//320 317//317 
f 318//318 321//321 322//322 
f 318//318 323//323 321//321 
f 322//322 324//324 318//318 
f 324//324 325//325 318//318 
f 325//325 326//326 318//318 
f 326//326 319//319 318//318 
f 318//318 312//312 323//323 
f 327//327 328//328 329//329 
f 327//327 330//330 331//331 
f 327//327 332//332 330//330 
f 317//317 333//333 334//334 
f 334//334 327//327 317//317 
f 334//334 335//335 327//327 
f 335//335 332//332 327//327 
f 317//317 336//336 333//333 
f 331//331 328//328 327//327 
f 337//337 327//327 338//338 
f 338//338 339//339 337//337 
f 339//339 340//340 337//337 
f 340//340 341//341 337//337 
f 341//341 342//342 337//337 
f 342//342 343//343 337//337 
f 344//344 345//345 346//346 
f 344//344 347//347 348//348 
f 344//344 349//349 347//347 
f 344//344 350//350 349//349 
f 344//344 351//351 350//350 
f 344//344 352//352 351//351 
f 344//344 353//353 352//352 
f 344//344 354//354 353//353 
f 176//176 355//355 354//354 
f 354//354 344//344 176//176 
f 344//344 177//177 176//176 
f 176//176 356//356 357//357 
f 357//357 358//358 176//176 
f 358//358 359//359 176//176 
f 359//359 360//360 176//176 
f 360//360 361//361 176//176 
f 361//361 362//362 176//176 
f 362//362 363//363 176//176 
f 363//363 355//355 176//176 
f 348//348 345//345 344//344 
f 176//176 337//337 364//364 
f 364//364 356//356 176//176 
f 365//365 366//366 367//367 
f 365//365 368//368 366//366 
f 365//365 369//369 368//368 
f 344//344 370//370 371//371 
f 371//371 365//365 344//344 
f 371//371 369//369 365//365 
f 279//279 372//372 373//373 
f 279//279 374//374 375//375 
f 375//375 376//376 279//279 
f 376//376 377//377 279//279 
f 377//377 378//378 279//279 
f 378//378 372//372 279//279 
f 373//373 379//379 279//279 
f 365//365 380//380 374//374 
f 374//374 279//279 365//365 
f 381//381 382//382 383//383 
f 381//381 384//384 385//385 
f 381//381 386//386 384//384 
f 385//385 387//387 381//381 
f 388//388 389//389 390//390 
f 390//390 381//381 388//388 
f 390//390 386//386 381//381 
f 388//388 391//391 389//389 
f 387//387 382//382 381//381 
f 392//392 381//381 393//393 
f 393//393 394//394 392//392 
f 394//394 395//395 392//392 
f 395//395 396//396 392//392 
f 396//396 397//397 392//392 
f 397//397 398//398 392//392 
f 399//399 400//400 401//401 
f 399//399 402//402 403//403 
f 399//399 404//404 402//402 
f 399//399 405//405 404//404 
f 399//399 406//406 405//405 
f 399//399 407//407 406//406 
f 224//224 408//408 407//407 
f 224//224 223//223 408//408 
f 407//407 399//399 224//224 
f 223//223 409//409 410//410 
f 223//223 411//411 412//412 
f 412//412 413//413 223//223 
f 413//413 414//414 223//223 
f 414//414 415//415 223//223 
f 415//415 416//416 223//223 
f 416//416 417//417 223//223 
f 417//417 409//409 223//223 
f 410//410 418//418 223//223 
f 418//418 408//408 223//223 
f 403//403 400//400 399//399 
f 223//223 392//392 419//419 
f 419//419 411//411 223//223 
f 420//420 421//421 422//422 
f 420//420 423//423 421//421 
f 420//420 424//424 423//423 
f 399//399 425//425 426//426 
f 426//426 420//420 399//399 
f 426//426 424//424 420//420 
f 427//427 428//428 429//429 
f 427//427 430//430 431//431 
f 427//427 432//432 430//430 
f 431//431 433//433 427//427 
f 433//433 434//434 427//427 
f 434//434 435//435 427//427 
f 435//435 428//428 427//427 
f 420//420 436//436 432//432 
f 432//432 427//427 420//420 
f 437//437 438//438 439//439 
f 437//437 440//440 441//441 
f 437//437 442//442 440//440 
f 437//437 443//443 444//444 
f 437//437 445//445 443//443 
f 444//444 442//442 437//437 
f 437//437 427//427 446//446 
f 446//446 445//445 437//437 
f 441//441 438//438 437//437 
f 447//447 437//437 448//448 
f 448//448 449//449 447//447 
f 449//449 450//450 447//447 
f 450//450 451//451 447//447 
f 451//451 452//452 447//447 
f 452//452 453//453 447//447 
f 454//454 455//455 456//456 
f 454//454 457//457 455//455 
f 454//454 458//458 459//459 
f 454//454 460//460 458//458 
f 454//454 461//461 460//460 
f 454//454 462//462 461//461 
f 454//454 463//463 462//462 
f 454//454 464//464 463//463 
f 454//454 465//465 466//466 
f 466//466 464//464 454//454 
f 222//222 467//467 468//468 
f 222//222 469//469 470//470 
f 470//470 471//471 222//222 
f 471//471 472//472 222//222 
f 472//472 473//473 222//222 
f 473//473 474//474 222//222 
f 474//474 467//467 222//222 
f 468//468 454//454 222//222 
f 468//468 465//465 454//454 
f 459//459 457//457 454//454 
f 222//222 447//447 475//475 
f 475//475 469//469 222//222 
f 476//476 477//477 478//478 
f 476//476 479//479 477//477 
f 476//476 480//480 479//479 
f 476//476 481//481 480//480 
f 476//476 456//456 482//482 
f 482//482 481//481 476//476 
f 388//388 483//483 484//484 
f 483//483 485//485 486//486 
f 486//486 487//487 483//483 
f 487//487 488//488 483//483 
f 488//488 489//489 483//483 
f 489//489 490//490 483//483 
f 490//490 484//484 483//483 
f 484//484 491//491 388//388 
f 483//483 478//478 485//485 
f 491//491 391//391 388//388 
f 478//478 483//483 476//476 
f 456//456 476//476 454//454 
f 453//453 475//475 447//447 
f 439//439 448//448 437//437 
f 429//429 446//446 427//427 
f 422//422 436//436 420//420 
f 401//401 425//425 399//399 
f 398//398 419//419 392//392 
f 383//383 393//393 381//381 
f 379//379 280//280 279//279 
f 367//367 380//380 365//365 
f 346//346 370//370 344//344 
f 343//343 364//364 337//337 
f 329//329 338//338 327//327 
f 320//320 336//336 317//317 
f 312//312 318//318 310//310 
f 290//290 310//310 288//288 
f 287//287 309//309 281//281 
f 272//272 282//282 270//270 
f 269//269 288//288 268//268 
f 267//267 268//268 266//266 
f 265//265 266//266 264//264 
f 263//263 264//264 262//262 
f 261//261 262//262 260//260 
f 259//259 260//260 258//258 
f 257//257 258//258 256//256 
f 255//255 256//256 254//254 
f 253//253 254//254 252//252 
f 251//251 252//252 250//250 
f 249//249 250//250 248//248 
f 247//247 248//248 246//246 
f 245//245 246//246 244//244 
f 243//243 244//244 242//242 
f 241//241 242//242 240//240 
f 239//239 240//240 238//238 
f 237//237 238//238 236//236 
f 235//235 236//236 234//234 
f 233//233 234//234 232//232 
f 231//231 232//232 230//230 
f 229//229 230//230 228//228 
f 227//227 228//228 226//226 
f 225//225 226//226 223//223 
f 222//222 454//454 221//221 
f 220//220 221//221 219//219 
f 218//218 219//219 217//217 
f 216//216 217//217 215//215 
f 214//214 215//215 213//213 
f 212//212 213//213 211//211 
f 210//210 211//211 209//209 
f 208//208 209//209 207//207 
f 206//206 207//207 205//205 
f 204//204 205//205 203//203 
f 202//202 203//203 201//201 
f 200//200 201//201 199//199 
f 198//198 199//199 197//197 
f 196//196 197//197 195//195 
f 194//194 195//195 193//193 
f 192//192 193//193 191//191 
f 190//190 191//191 189//189 
f 188//188 189//189 187//187 
f 186//186 187//187 185//185 
f 184//184 185//185 183//183 
f 182//182 183//183 181//181 
f 180//180 181//181 179//179 
f 178//178 179//179 176//176 
o mesh17741
v 0.00399963 5.41071e-05 -0.0685015 
v -0.00399963 5.42755e-05 -0.0685015 
v -0.00399854 0.000108119 -0.0685059 
v 0.00399854 0.000108119 -0.0685059 
v 0.004 4.89859e-19 -0.0685 
v -0.004 4.64508e-18 -0.0685 
v 0.00399673 0.000161626 -0.0685131 
v -0.00399673 0.000161759 -0.0685132 
v -0.00399422 0.00021497 -0.0685234 
v 0.00399422 0.00021497 -0.0685234 
v -0.00399104 0.000267527 -0.0685364 
v -0.00398724 0.000319302 -0.0685523 
v 0.00398724 0.000319302 -0.0685523 
v 0.00399103 0.000267679 -0.0685365 
v -0.00398283 0.000370256 -0.0685711 
v -0.0039779 0.000419889 -0.0685924 
v 0.00397784 0.000419738 -0.0685928 
v 0.00398284 0.000370133 -0.068571 
v 0.00397655 0.000432476 -0.0685984 
v -0.00397642 0.000432461 -0.0685991 
v 0.00396664 0.000515554 -0.0686431 
v -0.00396664 0.000515554 -0.0686431 
v -0.00395396 0.000605174 -0.0687039 
v 0.00395396 0.000605174 -0.0687039 
v -0.00394044 0.000687699 -0.068774 
v 0.00394044 0.000687699 -0.068774 
v -0.00392672 0.000762162 -0.0688526 
v 0.00392672 0.000762162 -0.0688526 
v -0.00391343 0.000827689 -0.0689388 
v 0.00391343 0.000827689 -0.0689388 
v -0.00390648 0.000859882 -0.0689895 
v -0.00390139 0.000882357 -0.0690322 
v 0.00390121 0.000883512 -0.0690316 
v 0.00390638 0.00085986 -0.0689923 
v -0.00389568 0.000907552 -0.0690801 
v -0.00389063 0.000928977 -0.0691299 
v 0.00389063 0.000928977 -0.0691299 
v 0.0038957 0.000907495 -0.0690799 
v 0.00388611 0.000947703 -0.0691808 
v -0.00388614 0.000947595 -0.0691805 
v -0.00388221 0.00096355 -0.0692325 
v 0.00388221 0.00096355 -0.0692325 
v -0.00387894 0.000976646 -0.0692851 
v -0.00387636 0.000986827 -0.0693382 
v 0.00387636 0.000986827 -0.0693382 
v 0.00387894 0.00097662 -0.069285 
v -0.00387449 0.000994134 -0.0693918 
v -0.00387336 0.000998533 -0.0694459 
v 0.00387336 0.000998533 -0.0694459 
v 0.0038745 0.00099412 -0.0693917 
v -0.00387336 0.000998533 -0.0695541 
v 0.00387336 0.000998533 -0.0695541 
v 0.00387298 0.001 -0.0695002 
v -0.00387298 0.001 -0.0694998 
v 0.00387449 0.000994134 -0.0696082 
v -0.0038745 0.00099412 -0.0696083 
v -0.00387636 0.000986827 -0.0696618 
v 0.00387636 0.000986827 -0.0696618 
v 0.00387894 0.000976646 -0.0697149 
v -0.00387894 0.00097662 -0.069715 
v -0.00388221 0.00096355 -0.0697675 
v 0.00388221 0.00096355 -0.0697675 
v -0.00388611 0.000947703 -0.0698192 
v 0.00388614 0.000947595 -0.0698195 
v 0.00389063 0.000928977 -0.0698701 
v 0.00389568 0.000907552 -0.0699199 
v -0.00389063 0.000928977 -0.0698701 
v -0.0038957 0.000907495 -0.0699201 
v -0.00390121 0.000883512 -0.0699684 
v 0.00390139 0.000882357 -0.0699678 
v 0.00390648 0.000859882 -0.0700105 
v -0.00390638 0.00085986 -0.0700077 
v -0.00391343 0.000827689 -0.0700612 
v 0.00391343 0.000827689 -0.0700612 
v 0.00392672 0.000762162 -0.0701474 
v -0.00394044 0.000687699 -0.070226 
v 0.00394044 0.000687699 -0.070226 
v 0.00395396 0.000605174 -0.0702961 
v -0.00396664 0.000515554 -0.0703569 
v 0.00396664 0.000515554 -0.0703569 
v -0.00397655 0.000432476 -0.0704016 
v 0.0039779 0.000419889 -0.0704076 
v 0.00397642 0.000432461 -0.0704009 
v -0.00397784 0.000419738 -0.0704072 
v 0.00398283 0.000370256 -0.0704289 
v -0.00398284 0.000370133 -0.070429 
v -0.00398724 0.000319302 -0.0704477 
v 0.00398724 0.000319302 -0.0704477 
v 0.00399104 0.000267527 -0.0704636 
v -0.00399103 0.000267679 -0.0704635 
v 0.00399422 0.00021497 -0.0704766 
v -0.00399673 0.000161626 -0.0704869 
v 0.00399673 0.000161759 -0.0704868 
v -0.00399422 0.00021497 -0.0704766 
v -0.00399854 0.000108119 -0.0704941 
v 0.00399854 0.000108119 -0.0704941 
v -0.00399963 5.41071e-05 -0.0704985 
v 0.00399963 5.42755e-05 -0.0704985 
v -0.004 0 -0.0705 
v 0.004 -8.39193e-18 -0.0705 
v -0.00399964 -5.40117e-05 -0.0704985 
v -0.00399854 -0.000108119 -0.0704941 
v 0.00399854 -0.000108119 -0.0704941 
v 0.00399963 -5.43175e-05 -0.0704985 
v 0.00399673 -0.0001618 -0.0704868 
v -0.00399672 -0.000161949 -0.0704868 
v -0.00399422 -0.00021497 -0.0704766 
v 0.00399422 -0.00021497 -0.0704766 
v 0.00399105 -0.000267392 -0.0704636 
v -0.00399104 -0.000267599 -0.0704635 
v -0.00398724 -0.000319302 -0.0704477 
v 0.00398724 -0.000319302 -0.0704477 
v -0.00398285 -0.000370057 -0.070429 
v -0.0039779 -0.000419889 -0.0704076 
v 0.00397784 -0.000419738 -0.0704072 
v 0.00398282 -0.00037032 -0.0704289 
v 0.00397655 -0.000432476 -0.0704016 
v -0.00397642 -0.000432461 -0.0704009 
v 0.00396664 -0.000515554 -0.0703569 
v -0.00396664 -0.000515554 -0.0703569 
v -0.00395396 -0.000605174 -0.0702961 
v 0.00395396 -0.000605174 -0.0702961 
v -0.00394044 -0.000687699 -0.070226 
v 0.00394044 -0.000687699 -0.070226 
v -0.00392672 -0.000762162 -0.0701474 
v -0.00391343 -0.000827689 -0.0700612 
v 0.00391343 -0.000827689 -0.0700612 
v -0.00390648 -0.000859882 -0.0700105 
v -0.00390139 -0.000882357 -0.0699678 
v 0.00390121 -0.000883512 -0.0699684 
v 0.00390638 -0.00085986 -0.0700077 
v 0.00389568 -0.000907584 -0.0699199 
v -0.00389568 -0.000907551 -0.0699199 
v -0.00389063 -0.000928977 -0.0698701 
v 0.00389063 -0.000928977 -0.0698701 
v -0.00388612 -0.000947675 -0.0698192 
v -0.00388221 -0.00096355 -0.0697675 
v 0.00388221 -0.00096355 -0.0697675 
v 0.00388613 -0.000947607 -0.0698194 
v 0.00387894 -0.000976641 -0.0697149 
v -0.00387895 -0.000976601 -0.0697151 
v -0.00387636 -0.000986827 -0.0696618 
v 0.00387636 -0.000986827 -0.0696618 
v 0.00387449 -0.000994144 -0.0696081 
v -0.00387449 -0.000994132 -0.0696082 
v -0.00387336 -0.000998533 -0.0695541 
v 0.00387336 -0.000998533 -0.0695541 
v -0.00387298 -0.001 -0.0694999 
v 0.00387298 -0.001 -0.0695001 
v 0.00387336 -0.000998533 -0.0694459 
v -0.00387336 -0.000998533 -0.0694459 
v -0.00387449 -0.000994144 -0.0693919 
v 0.00387449 -0.000994132 -0.0693918 
v 0.00387636 -0.000986827 -0.0693382 
v -0.00387894 -0.000976641 -0.0692851 
v 0.00387895 -0.000976601 -0.0692849 
v 0.00388221 -0.00096355 -0.0692325 
v -0.00387636 -0.000986827 -0.0693382 
v 0.00388612 -0.000947675 -0.0691808 
v -0.00388221 -0.00096355 -0.0692325 
v -0.00388613 -0.000947607 -0.0691806 
v -0.00389063 -0.000928977 -0.0691299 
v 0.00389063 -0.000928977 -0.0691299 
v -0.00389568 -0.000907584 -0.0690801 
v 0.00389568 -0.000907551 -0.0690801 
v -0.00390121 -0.000883512 -0.0690316 
v 0.00390139 -0.000882357 -0.0690322 
v 0.00390648 -0.000859882 -0.0689895 
v -0.00390638 -0.00085986 -0.0689923 
v -0.00391343 -0.000827689 -0.0689388 
v 0.00391343 -0.000827689 -0.0689388 
v 0.00392672 -0.000762162 -0.0688526 
v -0.00394044 -0.000687699 -0.068774 
v 0.00394044 -0.000687699 -0.068774 
v -0.00395396 -0.000605174 -0.0687039 
v 0.00395396 -0.000605174 -0.0687039 
v 0.00396664 -0.000515554 -0.0686431 
v -0.00397655 -0.000432476 -0.0685984 
v 0.0039779 -0.000419889 -0.0685924 
v 0.00397642 -0.000432461 -0.0685991 
v -0.00396664 -0.000515554 -0.0686431 
v -0.00397784 -0.000419738 -0.0685928 
v 0.00398285 -0.000370057 -0.068571 
v -0.00398282 -0.00037032 -0.0685711 
v -0.00398724 -0.000319302 -0.0685523 
v 0.00398724 -0.000319302 -0.0685523 
v -0.00399105 -0.000267392 -0.0685364 
v 0.00399104 -0.000267599 -0.0685365 
v -0.00399422 -0.00021497 -0.0685234 
v 0.00399422 -0.00021497 -0.0685234 
v -0.00399673 -0.0001618 -0.0685132 
v 0.00399672 -0.000161949 -0.0685132 
v -0.00399854 -0.000108119 -0.0685059 
v 0.00399854 -0.000108119 -0.0685059 
v 0.00399964 -5.40117e-05 -0.0685015 
v -0.00399963 -5.43175e-05 -0.0685015 
v -0.00392672 -0.000762162 -0.0688526 
v 0.00392672 -0.000762162 -0.0701474 
v -0.00395396 0.000605174 -0.0702961 
v -0.00392672 0.000762162 -0.0701474 
vn 0 -0.0541071 -0.998535 
vn 0 -0.0542755 -0.998526 
vn 0 -0.108119 -0.994138 
vn 0 -0.108119 -0.994138 
vn 0 -5.66554e-16 -1 
vn 0 -5.66554e-16 -1 
vn 0 -0.161626 -0.986852 
vn 0 -0.161759 -0.98683 
vn 0 -0.21497 -0.976621 
vn 0 -0.21497 -0.976621 
vn 0 -0.267527 -0.963551 
vn 0 -0.319302 -0.947653 
vn 0 -0.319302 -0.947653 
vn 0 -0.267679 -0.963508 
vn 0 -0.370256 -0.92893 
vn 0 -0.419889 -0.907575 
vn 0 -0.419896 -0.907572 
vn 0 -0.370133 -0.928979 
vn 0 -0.432476 -0.901645 
vn 0 -0.43275 -0.901514 
vn 0 -0.515554 -0.856857 
vn 0 -0.515554 -0.856857 
vn 0 -0.605174 -0.796093 
vn 0 -0.605174 -0.796093 
vn 0 -0.687699 -0.725995 
vn 0 -0.687699 -0.725995 
vn 0 -0.762162 -0.647386 
vn 0 -0.762162 -0.647386 
vn 0 -0.827689 -0.561187 
vn 0 -0.827689 -0.561187 
vn 0 -0.859882 -0.510493 
vn 0 -0.88351 -0.468412 
vn 0 -0.883512 -0.468408 
vn 0 -0.861094 -0.508446 
vn 0 -0.907552 -0.419939 
vn 0 -0.928977 -0.370138 
vn 0 -0.928977 -0.370138 
vn 0 -0.907495 -0.420063 
vn 0 -0.947703 -0.319153 
vn 0 -0.947595 -0.319474 
vn 0 -0.96355 -0.267528 
vn 0 -0.96355 -0.267528 
vn 0 -0.976646 -0.214853 
vn 0 -0.986827 -0.161782 
vn 0 -0.986827 -0.161782 
vn 0 -0.97662 -0.214974 
vn 0 -0.994134 -0.108158 
vn 0 -0.998533 -0.0541389 
vn 0 -0.998533 -0.0541389 
vn 0 -0.99412 -0.108282 
vn 0 -0.998533 0.0541389 
vn 0 -0.998533 0.0541389 
vn 0 -1 0.000175184 
vn 0 -1 -0.000175184 
vn 0 -0.994134 0.108158 
vn 0 -0.99412 0.108282 
vn 0 -0.986827 0.161782 
vn 0 -0.986827 0.161782 
vn 0 -0.976646 0.214853 
vn 0 -0.97662 0.214974 
vn 0 -0.96355 0.267528 
vn 0 -0.96355 0.267528 
vn 0 -0.947703 0.319153 
vn 0 -0.947595 0.319474 
vn 0 -0.928977 0.370138 
vn 0 -0.907552 0.419939 
vn 0 -0.928977 0.370138 
vn 0 -0.907495 0.420063 
vn 0 -0.883512 0.468408 
vn 0 -0.88351 0.468412 
vn 0 -0.859882 0.510493 
vn 0 -0.861094 0.508446 
vn 0 -0.827689 0.561187 
vn 0 -0.827689 0.561187 
vn 0 -0.762162 0.647386 
vn 0 -0.687699 0.725995 
vn 0 -0.687699 0.725995 
vn 0 -0.605174 0.796093 
vn 0 -0.515554 0.856857 
vn 0 -0.515554 0.856857 
vn 0 -0.432476 0.901645 
vn 0 -0.419889 0.907575 
vn 0 -0.43275 0.901514 
vn 0 -0.419896 0.907572 
vn 0 -0.370256 0.92893 
vn 0 -0.370133 0.928979 
vn 0 -0.319302 0.947653 
vn 0 -0.319302 0.947653 
vn 0 -0.267527 0.963551 
vn 0 -0.267679 0.963508 
vn 0 -0.21497 0.976621 
vn 0 -0.161626 0.986852 
vn 0 -0.161759 0.98683 
vn 0 -0.21497 0.976621 
vn 0 -0.108119 0.994138 
vn 0 -0.108119 0.994138 
vn 0 -0.0541071 0.998535 
vn 0 -0.0542755 0.998526 
vn 0 1.13311e-15 1 
vn 0 1.13311e-15 1 
vn 0 0.0540117 0.99854 
vn 0 0.108119 0.994138 
vn 0 0.108119 0.994138 
vn 0 0.0543175 0.998524 
vn 0 0.1618 0.986824 
vn 0 0.161949 0.986799 
vn 0 0.21497 0.976621 
vn 0 0.21497 0.976621 
vn 0 0.267392 0.963588 
vn 0 0.267599 0.96353 
vn 0 0.319302 0.947653 
vn 0 0.319302 0.947653 
vn 0 0.370057 0.929009 
vn 0 0.419889 0.907575 
vn 0 0.419896 0.907572 
vn 0 0.37032 0.928904 
vn 0 0.432476 0.901645 
vn 0 0.43275 0.901514 
vn 0 0.515554 0.856857 
vn 0 0.515554 0.856857 
vn 0 0.605174 0.796093 
vn 0 0.605174 0.796093 
vn 0 0.687699 0.725995 
vn 0 0.687699 0.725995 
vn 0 0.762162 0.647386 
vn 0 0.827689 0.561187 
vn 0 0.827689 0.561187 
vn 0 0.859882 0.510493 
vn 0 0.88351 0.468412 
vn 0 0.883512 0.468408 
vn 0 0.861094 0.508446 
vn 0 0.907584 0.419871 
vn 0 0.907551 0.419942 
vn 0 0.928977 0.370138 
vn 0 0.928977 0.370138 
vn 0 0.947675 0.319236 
vn 0 0.96355 0.267528 
vn 0 0.96355 0.267528 
vn 0 0.947607 0.319437 
vn 0 0.976641 0.214878 
vn 0 0.976601 0.215061 
vn 0 0.986827 0.161782 
vn 0 0.986827 0.161782 
vn 0 0.994144 0.108064 
vn 0 0.994132 0.108175 
vn 0 0.998533 0.0541389 
vn 0 0.998533 0.0541389 
vn 0 1 -0.000103632 
vn 0 1 0.000103632 
vn 0 0.998533 -0.0541389 
vn 0 0.998533 -0.0541389 
vn 0 0.994144 -0.108064 
vn 0 0.994132 -0.108175 
vn 0 0.986827 -0.161782 
vn 0 0.976641 -0.214878 
vn 0 0.976601 -0.215061 
vn 0 0.96355 -0.267528 
vn 0 0.986827 -0.161782 
vn 0 0.947675 -0.319236 
vn 0 0.96355 -0.267528 
vn 0 0.947607 -0.319437 
vn 0 0.928977 -0.370138 
vn 0 0.928977 -0.370138 
vn 0 0.907584 -0.419871 
vn 0 0.907551 -0.419942 
vn 0 0.883512 -0.468408 
vn 0 0.88351 -0.468412 
vn 0 0.859882 -0.510493 
vn 0 0.861094 -0.508446 
vn 0 0.827689 -0.561187 
vn 0 0.827689 -0.561187 
vn 0 0.762162 -0.647386 
vn 0 0.687699 -0.725995 
vn 0 0.687699 -0.725995 
vn 0 0.605174 -0.796093 
vn 0 0.605174 -0.796093 
vn 0 0.515554 -0.856857 
vn 0 0.432476 -0.901645 
vn 0 0.419889 -0.907575 
vn 0 0.43275 -0.901514 
vn 0 0.515554 -0.856857 
vn 0 0.419896 -0.907572 
vn 0 0.370057 -0.929009 
vn 0 0.37032 -0.928904 
vn 0 0.319302 -0.947653 
vn 0 0.319302 -0.947653 
vn 0 0.267392 -0.963588 
vn 0 0.267599 -0.96353 
vn 0 0.21497 -0.976621 
vn 0 0.21497 -0.976621 
vn 0 0.1618 -0.986824 
vn 0 0.161949 -0.986799 
vn 0 0.108119 -0.994138 
vn 0 0.108119 -0.994138 
vn 0 0.0540117 -0.99854 
vn 0 0.0543175 -0.998524 
vn 0 0.762162 -0.647386 
vn 0 0.762162 0.647386 
vn 0 -0.605174 0.796093 
vn 0 -0.762162 0.647386 
f 492//492 493//493 494//494 
f 494//494 495//495 492//492 
f 496//496 497//497 493//493 
f 498//498 499//499 500//500 
f 500//500 501//501 498//498 
f 495//495 494//494 499//499 
f 502//502 503//503 504//504 
f 505//505 500//500 502//502 
f 504//504 505//505 502//502 
f 506//506 507//507 508//508 
f 508//508 509//509 506//506 
f 504//504 503//503 506//506 
f 510//510 507//507 511//511 
f 511//511 512//512 510//510 
f 510//510 508//508 507//507 
f 513//513 514//514 515//515 
f 514//514 516//516 517//517 
f 516//516 518//518 519//519 
f 518//518 520//520 521//521 
f 522//522 523//523 524//524 
f 524//524 525//525 522//522 
f 521//521 520//520 522//522 
f 526//526 527//527 528//528 
f 528//528 529//529 526//526 
f 524//524 523//523 526//526 
f 530//530 531//531 532//532 
f 530//530 527//527 531//531 
f 532//532 533//533 530//530 
f 534//534 535//535 536//536 
f 536//536 537//537 534//534 
f 533//533 532//532 534//534 
f 538//538 539//539 540//540 
f 540//540 541//541 538//538 
f 536//536 535//535 538//538 
f 542//542 543//543 544//544 
f 540//540 539//539 545//545 
f 545//545 544//544 540//540 
f 546//546 543//543 542//542 
f 542//542 547//547 546//546 
f 548//548 549//549 546//546 
f 550//550 549//549 548//548 
f 548//548 551//551 550//550 
f 552//552 553//553 550//550 
f 554//554 555//555 553//553 
f 554//554 556//556 555//555 
f 553//553 552//552 554//554 
f 557//557 556//556 558//558 
f 558//558 559//559 557//557 
f 560//560 561//561 557//557 
f 562//562 561//561 560//560 
f 560//560 563//563 562//562 
f 564//564 565//565 562//562 
f 566//566 565//565 564//564 
f 567//567 568//568 566//566 
f 569//569 568//568 567//567 
f 570//570 571//571 569//569 
f 572//572 573//573 574//574 
f 574//574 570//570 572//572 
f 572//572 575//575 573//573 
f 576//576 573//573 575//575 
f 575//575 577//577 576//576 
f 578//578 579//579 576//576 
f 580//580 579//579 578//578 
f 581//581 582//582 580//580 
f 578//578 581//581 580//580 
f 583//583 584//584 582//582 
f 582//582 585//585 583//583 
f 586//586 587//587 584//584 
f 588//588 589//589 587//587 
f 587//587 586//586 588//588 
f 590//590 591//591 589//589 
f 592//592 593//593 594//594 
f 595//595 590//590 592//592 
f 594//594 595//595 592//592 
f 596//596 597//597 598//598 
f 598//598 599//599 596//596 
f 594//594 593//593 597//597 
f 600//600 601//601 602//602 
f 602//602 603//603 600//600 
f 599//599 598//598 601//601 
f 604//604 605//605 606//606 
f 606//606 607//607 604//604 
f 603//603 602//602 604//604 
f 608//608 605//605 609//609 
f 609//609 610//610 608//608 
f 608//608 606//606 605//605 
f 610//610 611//611 612//612 
f 613//613 612//612 614//614 
f 615//615 614//614 616//616 
f 616//616 617//617 618//618 
f 619//619 620//620 621//621 
f 621//621 622//622 619//619 
f 618//618 617//617 619//619 
f 623//623 624//624 625//625 
f 625//625 626//626 623//623 
f 621//621 620//620 624//624 
f 627//627 628//628 629//629 
f 629//629 630//630 627//627 
f 626//626 625//625 627//627 
f 631//631 632//632 633//633 
f 631//631 628//628 632//632 
f 633//633 634//634 631//631 
f 635//635 636//636 637//637 
f 635//635 633//633 636//636 
f 637//637 638//638 635//635 
f 637//637 639//639 640//640 
f 641//641 640//640 639//639 
f 639//639 642//642 641//641 
f 643//643 644//644 641//641 
f 643//643 645//645 644//644 
f 641//641 642//642 643//643 
f 646//646 647//647 645//645 
f 646//646 648//648 647//647 
f 645//645 649//649 646//646 
f 650//650 648//648 651//651 
f 651//651 652//652 650//650 
f 653//653 654//654 650//650 
f 655//655 656//656 654//654 
f 654//654 653//653 655//655 
f 657//657 658//658 656//656 
f 659//659 658//658 657//657 
f 657//657 660//660 659//659 
f 661//661 662//662 659//659 
f 663//663 662//662 661//661 
f 664//664 665//665 663//663 
f 666//666 667//667 665//665 
f 668//668 667//667 666//666 
f 669//669 670//670 671//671 
f 671//671 672//672 669//669 
f 669//669 673//673 670//670 
f 674//674 670//670 673//673 
f 673//673 675//675 674//674 
f 676//676 677//677 674//674 
f 678//678 679//679 677//677 
f 677//677 676//676 678//678 
f 680//680 681//681 679//679 
f 682//682 683//683 681//681 
f 681//681 680//680 682//682 
f 684//684 685//685 683//683 
f 686//686 685//685 684//684 
f 687//687 496//496 686//686 
f 684//684 687//687 686//686 
f 687//687 497//497 496//496 
f 682//682 684//684 683//683 
f 678//678 680//680 679//679 
f 675//675 676//676 674//674 
f 671//671 668//668 672//672 
f 666//666 672//672 668//668 
f 665//665 664//664 666//666 
f 663//663 688//688 664//664 
f 661//661 688//688 663//663 
f 660//660 661//661 659//659 
f 655//655 657//657 656//656 
f 652//652 653//653 650//650 
f 646//646 651//651 648//648 
f 643//643 649//649 645//645 
f 640//640 638//638 637//637 
f 635//635 634//634 633//633 
f 631//631 629//629 628//628 
f 630//630 626//626 627//627 
f 623//623 621//621 624//624 
f 622//622 618//618 619//619 
f 618//618 689//689 616//616 
f 616//616 689//689 615//615 
f 614//614 615//615 613//613 
f 612//612 613//613 610//610 
f 609//609 611//611 610//610 
f 607//607 603//603 604//604 
f 600//600 599//599 601//601 
f 596//596 594//594 597//597 
f 595//595 591//591 590//590 
f 588//588 590//590 589//589 
f 583//583 586//586 584//584 
f 581//581 585//585 582//582 
f 577//577 578//578 576//576 
f 574//574 571//571 570//570 
f 569//569 690//690 570//570 
f 567//567 690//690 569//569 
f 566//566 691//691 567//567 
f 564//564 691//691 566//566 
f 563//563 564//564 562//562 
f 559//559 560//560 557//557 
f 554//554 558//558 556//556 
f 551//551 552//552 550//550 
f 547//547 548//548 546//546 
f 544//544 545//545 542//542 
f 541//541 536//536 538//538 
f 537//537 533//533 534//534 
f 530//530 528//528 527//527 
f 529//529 524//524 526//526 
f 525//525 521//521 522//522 
f 521//521 519//519 518//518 
f 519//519 517//517 516//516 
f 517//517 515//515 514//514 
f 515//515 512//512 513//513 
f 511//511 513//513 512//512 
f 509//509 504//504 506//506 
f 505//505 501//501 500//500 
f 498//498 495//495 499//499 
f 492//492 496//496 493//493 
o mesh17742
v 0.00281045 0.00530107 0.072 
v 0.00187363 0.00353405 0.072 
v 0.00148055 0.00371591 0.072 
v 0.00336712 0.00496613 0.072 
v 0.00224475 0.00331076 0.072 
v 0.00388432 0.00457297 0.072 
v 0.00258955 0.00304865 0.072 
v 0.00435597 0.0041262 0.072 
v 0.00290398 0.0027508 0.072 
v 0.00477656 0.00363105 0.072 
v 0.00318437 0.0024207 0.072 
v 0.00514114 0.00309332 0.072 
v 0.00342743 0.00206222 0.072 
v 0.00514114 -0.00309332 0.072 
v 0.00342743 -0.00206222 0.072 
v 0.0036303 -0.00167956 0.072 
v 0.00477656 -0.00363105 0.072 
v 0.00318437 -0.0024207 0.072 
v 0.00160517 0.0057813 0.072 
v 0.00107011 0.0038542 0.072 
v 0.000647128 0.00394731 0.072 
v 0.00222083 0.00557386 0.072 
v 0.00544545 0.00251933 0.072 
v 0.0036303 0.00167956 0.072 
v 0.00596483 0.000648714 0.072 
v 0.00397655 0.000432476 0.072 
v 0.00390648 0.000859882 0.072 
v 0.006 7.34788e-19 0.072 
v 0.004 1.46958e-18 0.072 
v 0.00568592 -0.00191581 0.072 
v 0.00379061 -0.00127721 0.072 
v 0.00390648 -0.000859882 0.072 
v 0.00544545 -0.00251933 0.072 
v 0.00435597 -0.0041262 0.072 
v 0.00290398 -0.0027508 0.072 
v 0.000324833 -0.0059912 0.072 
v 0.000216556 -0.00399413 0.072 
v 0.000647128 -0.00394731 0.072 
v -0.000324833 -0.0059912 0.072 
v -0.000216556 -0.00399413 0.072 
v -0.00388432 0.00457297 0.072 
v -0.00258955 0.00304865 0.072 
v -0.00290398 0.0027508 0.072 
v -0.00336712 0.00496613 0.072 
v -0.00224475 0.00331076 0.072 
v 0.00568592 0.00191581 0.072 
v 0.00379061 0.00127721 0.072 
v 0.00585972 0.00128982 0.072 
v 0.00596483 -0.000648714 0.072 
v 0.00397655 -0.000432476 0.072 
v 0.00388432 -0.00457297 0.072 
v 0.00258955 -0.00304865 0.072 
v 0.00336712 -0.00496613 0.072 
v 0.00224475 -0.00331076 0.072 
v -0.000970692 -0.00592096 0.072 
v -0.000647128 -0.00394731 0.072 
v -0.00160517 -0.0057813 0.072 
v -0.00222083 -0.00557386 0.072 
v -0.00148055 -0.00371591 0.072 
v -0.00281045 -0.00530107 0.072 
v -0.00187363 -0.00353405 0.072 
v -0.00568592 0.00191581 0.072 
v -0.00379061 0.00127721 0.072 
v -0.00390648 0.000859882 0.072 
v -0.00544545 0.00251933 0.072 
v -0.0036303 0.00167956 0.072 
v -0.00435597 0.0041262 0.072 
v -0.00318437 0.0024207 0.072 
v 0.00585972 -0.00128982 0.072 
v 0.00281045 -0.00530107 0.072 
v 0.00187363 -0.00353405 0.072 
v 0.00222083 -0.00557386 0.072 
v 0.00148055 -0.00371591 0.072 
v -0.00107011 -0.0038542 0.072 
v -0.00336712 -0.00496613 0.072 
v -0.00224475 -0.00331076 0.072 
v -0.00435597 -0.0041262 0.072 
v -0.00290398 -0.0027508 0.072 
v -0.00258955 -0.00304865 0.072 
v -0.00477656 -0.00363105 0.072 
v -0.00318437 -0.0024207 0.072 
v -0.00568592 -0.00191581 0.072 
v -0.00379061 -0.00127721 0.072 
v -0.0036303 -0.00167956 0.072 
v -0.00585972 -0.00128982 0.072 
v -0.00390648 -0.000859882 0.072 
v -0.00514114 0.00309332 0.072 
v -0.00342743 0.00206222 0.072 
v -0.00477656 0.00363105 0.072 
v -0.00222083 0.00557386 0.072 
v -0.00148055 0.00371591 0.072 
v -0.00187363 0.00353405 0.072 
v -0.00160517 0.0057813 0.072 
v -0.00107011 0.0038542 0.072 
v -0.00388432 -0.00457297 0.072 
v -0.00544545 -0.00251933 0.072 
v -0.00342743 -0.00206222 0.072 
v -0.006 0 0.072 
v -0.00596483 0.000648714 0.072 
v -0.00397655 0.000432476 0.072 
v -0.00585972 0.00128982 0.072 
v -0.00281045 0.00530107 0.072 
v 0.00160517 -0.0057813 0.072 
v 0.00107011 -0.0038542 0.072 
v 0.000970692 -0.00592096 0.072 
v -0.00514114 -0.00309332 0.072 
v -0.000970692 0.00592096 0.072 
v -0.000647128 0.00394731 0.072 
v -0.000324833 0.0059912 0.072 
v -0.000216556 0.00399413 0.072 
v 0.000324833 0.0059912 0.072 
v 0.000216556 0.00399413 0.072 
v 0.000970692 0.00592096 0.072 
v -0.00596483 -0.000648714 0.072 
v -0.00397655 -0.000432476 0.072 
v -0.004 0 0.072 
vn 0 0 -1 
vn 0 0 -1 
vn 0 0 -1 
vn 0 0 -1 
vn 0 0 -1 
vn 0 0 -1 
vn 0 0 -1 
vn 0 0 -1 
vn 0 0 -1 
vn 0 0 -1 
vn 0 0 -1 
vn 0 0 -1 
vn 0 0 -1 
vn 0 0 -1 
vn 0 0 -1 
vn 0 0 -1 
vn 0 0 -1 
vn 0 0 -1 
vn 0 0 -1 
vn 0 0 -1 
vn 0 0 -1 
vn 0 0 -1 
vn 0 0 -1 
vn 0 0 -1 
vn 0 0 -1 
vn 0 0 -1 
vn 0 0 -1 
vn 0 0 -1 
vn 0 0 -1 
vn 0 0 -1 
vn 0 0 -1 
vn 0 0 -1 
vn 0 0 -1 
vn 0 0 -1 
vn 0 0 -1 
vn 0 0 -1 
vn 0 0 -1 
vn 0 0 -1 
vn 0 0 -1 
vn 0 0 -1 
vn 0 0 -1 
vn 0 0 -1 
vn 0 0 -1 
vn 0 0 -1 
vn 0 0 -1 
vn 0 0 -1 
vn 0 0 -1 
vn 0 0 -1 
vn 0 0 -1 
vn 0 0 -1 
vn 0 0 -1 
vn 0 0 -1 
vn 0 0 -1 
vn 0 0 -1 
vn 0 0 -1 
vn 0 0 -1 
vn 0 0 -1 
vn 0 0 -1 
vn 0 0 -1 
vn 0 0 -1 
vn 0 0 -1 
vn 0 0 -1 
vn 0 0 -1 
vn 0 0 -1 
vn 0 0 -1 
vn 0 0 -1 
vn 0 0 -1 
vn 0 0 -1 
vn 0 0 -1 
vn 0 0 -1 
vn 0 0 -1 
vn 0 0 -1 
vn 0 0 -1 
vn 0 0 -1 
vn 0 0 -1 
vn 0 0 -1 
vn 0 0 -1 
vn 0 0 -1 
vn 0 0 -1 
vn 0 0 -1 
vn 0 0 -1 
vn 0 0 -1 
vn 0 0 -1 
vn 0 0 -1 
vn 0 0 -1 
vn 0 0 -1 
vn 0 0 -1 
vn 0 0 -1 
vn 0 0 -1 
vn 0 0 -1 
vn 0 0 -1 
vn 0 0 -1 
vn 0 0 -1 
vn 0 0 -1 
vn 0 0 -1 
vn 0 0 -1 
vn 0 0 -1 
vn 0 0 -1 
vn 0 0 -1 
vn 0 0 -1 
vn 0 0 -1 
vn 0 0 -1 
vn 0 0 -1 
vn 0 0 -1 
vn 0 0 -1 
vn 0 0 -1 
vn 0 0 -1 
vn 0 0 -1 
vn 0 0 -1 
vn 0 0 -1 
vn 0 0 -1 
vn 0 0 -1 
vn 0 0 -1 
vn 0 0 -1 
vn 0 0 -1 
vn 0 0 -1 
f 692//692 693//693 694//694 
f 692//692 695//695 696//696 
f 697//697 698//698 696//696 
f 697//697 699//699 700//700 
f 696//696 693//693 692//692 
f 700//700 698//698 697//697 
f 701//701 702//702 700//700 
f 701//701 703//703 704//704 
f 696//696 695//695 697//697 
f 704//704 702//702 701//701 
f 705//705 706//706 707//707 
f 705//705 708//708 709//709 
f 710//710 711//711 712//712 
f 710//710 713//713 694//694 
f 700//700 699//699 701//701 
f 703//703 714//714 715//715 
f 716//716 717//717 718//718 
f 719//719 720//720 717//717 
f 721//721 722//722 723//723 
f 721//721 724//724 707//707 
f 709//709 706//706 705//705 
f 725//725 726//726 709//709 
f 727//727 728//728 729//729 
f 730//730 731//731 728//728 
f 732//732 733//733 734//734 
f 732//732 735//735 736//736 
f 694//694 711//711 710//710 
f 715//715 704//704 703//703 
f 737//737 738//738 715//715 
f 737//737 739//739 718//718 
f 717//717 716//716 719//719 
f 740//740 741//741 720//720 
f 707//707 722//722 721//721 
f 709//709 708//708 725//725 
f 742//742 743//743 726//726 
f 742//742 744//744 745//745 
f 728//728 727//727 730//730 
f 730//730 746//746 747//747 
f 748//748 749//749 750//750 
f 749//749 751//751 752//752 
f 753//753 754//754 755//755 
f 753//753 756//756 757//757 
f 758//758 734//734 759//759 
f 736//736 733//733 732//732 
f 694//694 713//713 692//692 
f 718//718 738//738 737//737 
f 720//720 719//719 740//740 
f 740//740 760//760 723//723 
f 707//707 724//724 705//705 
f 745//745 743//743 742//742 
f 761//761 762//762 745//745 
f 761//761 763//763 764//764 
f 747//747 731//731 730//730 
f 746//746 748//748 765//765 
f 752//752 750//750 749//749 
f 751//751 766//766 767//767 
f 768//768 769//769 770//770 
f 768//768 771//771 772//772 
f 773//773 774//774 775//775 
f 773//773 776//776 777//777 
f 757//757 754//754 753//753 
f 756//756 778//778 779//779 
f 780//780 759//759 779//779 
f 734//734 758//758 732//732 
f 781//781 782//782 783//783 
f 781//781 784//784 785//785 
f 715//715 714//714 737//737 
f 723//723 741//741 740//740 
f 726//726 725//725 742//742 
f 764//764 762//762 761//761 
f 765//765 747//747 746//746 
f 767//767 752//752 751//751 
f 786//786 770//770 767//767 
f 772//772 769//769 768//768 
f 787//787 775//775 788//788 
f 777//777 774//774 773//773 
f 789//789 790//790 791//791 
f 790//790 792//792 755//755 
f 779//779 757//757 756//756 
f 759//759 780//780 758//758 
f 793//793 783//783 736//736 
f 785//785 782//782 781//781 
f 718//718 739//739 716//716 
f 745//745 744//744 761//761 
f 794//794 795//795 764//764 
f 794//794 796//796 729//729 
f 750//750 765//765 748//748 
f 770//770 786//786 768//768 
f 797//797 788//788 772//772 
f 775//775 787//787 773//773 
f 755//755 791//791 790//790 
f 779//779 778//778 780//780 
f 783//783 793//793 781//781 
f 784//784 798//798 799//799 
f 800//800 801//801 799//799 
f 800//800 802//802 803//803 
f 723//723 760//760 721//721 
f 729//729 795//795 794//794 
f 767//767 766//766 786//786 
f 788//788 797//797 787//787 
f 755//755 792//792 753//753 
f 799//799 785//785 784//784 
f 803//803 801//801 800//800 
f 802//802 804//804 712//712 
f 764//764 763//763 794//794 
f 772//772 771//771 797//797 
f 805//805 806//806 777//777 
f 805//805 789//789 807//807 
f 736//736 735//735 793//793 
f 712//712 803//803 802//802 
f 729//729 796//796 727//727 
f 807//807 806//806 805//805 
f 799//799 798//798 800//800 
f 777//777 776//776 805//805 
f 712//712 804//804 710//710 
f 791//791 807//807 789//789 
o mesh17743
v -0.006 0 0.072 
v -0.006 0 0.075 
v -0.00596483 0.000648714 0.075 
v -0.00596483 0.000648714 0.072 
v -0.00585972 0.00128982 0.075 
v -0.00585972 0.00128982 0.072 
v -0.00568592 0.00191581 0.075 
v -0.00568592 0.00191581 0.072 
v -0.00544545 0.00251933 0.075 
v -0.00544545 0.00251933 0.072 
v -0.00514114 0.00309332 0.075 
v -0.00514114 0.00309332 0.072 
v -0.00477656 0.00363105 0.075 
v -0.00477656 0.00363105 0.072 
v -0.00435597 0.0041262 0.075 
v -0.00435597 0.0041262 0.072 
v -0.00388432 0.00457297 0.075 
v -0.00388432 0.00457297 0.072 
v -0.00336712 0.00496613 0.075 
v -0.00336712 0.00496613 0.072 
v -0.00281045 0.00530107 0.075 
v -0.00281045 0.00530107 0.072 
v -0.00222083 0.00557386 0.075 
v -0.00222083 0.00557386 0.072 
v -0.00160517 0.0057813 0.075 
v -0.00160517 0.0057813 0.072 
v -0.000970692 0.00592096 0.075 
v -0.000970692 0.00592096 0.072 
v -0.000324833 0.0059912 0.075 
v -0.000324833 0.0059912 0.072 
v 0.000324833 0.0059912 0.075 
v 0.000324833 0.0059912 0.072 
v 0.000970692 0.00592096 0.075 
v 0.000970692 0.00592096 0.072 
v 0.00160517 0.0057813 0.075 
v 0.00160517 0.0057813 0.072 
v 0.00222083 0.00557386 0.075 
v 0.00222083 0.00557386 0.072 
v 0.00281045 0.00530107 0.075 
v 0.00281045 0.00530107 0.072 
v 0.00336712 0.00496613 0.075 
v 0.00336712 0.00496613 0.072 
v 0.00388432 0.00457297 0.075 
v 0.00388432 0.00457297 0.072 
v 0.00435597 0.0041262 0.075 
v 0.00435597 0.0041262 0.072 
v 0.00477656 0.00363105 0.075 
v 0.00477656 0.00363105 0.072 
v 0.00514114 0.00309332 0.075 
v 0.00514114 0.00309332 0.072 
v 0.00544545 0.00251933 0.075 
v 0.00544545 0.00251933 0.072 
v 0.00568592 0.00191581 0.075 
v 0.00568592 0.00191581 0.072 
v 0.00585972 0.00128982 0.075 
v 0.00585972 0.00128982 0.072 
v 0.00596483 0.000648714 0.075 
v 0.00596483 0.000648714 0.072 
v 0.006 2.20436e-18 0.075 
v 0.006 7.34788e-19 0.072 
v 0.00596483 -0.000648714 0.075 
v 0.00596483 -0.000648714 0.072 
v 0.00585972 -0.00128982 0.075 
v 0.00585972 -0.00128982 0.072 
v 0.00568592 -0.00191581 0.075 
v 0.00568592 -0.00191581 0.072 
v 0.00544545 -0.00251933 0.075 
v 0.00544545 -0.00251933 0.072 
v 0.00514114 -0.00309332 0.075 
v 0.00514114 -0.00309332 0.072 
v 0.00477656 -0.00363105 0.075 
v 0.00477656 -0.00363105 0.072 
v 0.00435597 -0.0041262 0.075 
v 0.00435597 -0.0041262 0.072 
v 0.00388432 -0.00457297 0.075 
v 0.00388432 -0.00457297 0.072 
v 0.00336712 -0.00496613 0.075 
v 0.00336712 -0.00496613 0.072 
v 0.00281045 -0.00530107 0.075 
v 0.00281045 -0.00530107 0.072 
v 0.00222083 -0.00557386 0.075 
v 0.00222083 -0.00557386 0.072 
v 0.00160517 -0.0057813 0.075 
v 0.00160517 -0.0057813 0.072 
v 0.000970692 -0.00592096 0.075 
v 0.000970692 -0.00592096 0.072 
v 0.000324833 -0.0059912 0.075 
v 0.000324833 -0.0059912 0.072 
v -0.000324833 -0.0059912 0.075 
v -0.000324833 -0.0059912 0.072 
v -0.000970692 -0.00592096 0.075 
v -0.000970692 -0.00592096 0.072 
v -0.00160517 -0.0057813 0.075 
v -0.00160517 -0.0057813 0.072 
v -0.00222083 -0.00557386 0.075 
v -0.00222083 -0.00557386 0.072 
v -0.00281045 -0.00530107 0.075 
v -0.00281045 -0.00530107 0.072 
v -0.00336712 -0.00496613 0.075 
v -0.00336712 -0.00496613 0.072 
v -0.00388432 -0.00457297 0.075 
v -0.00388432 -0.00457297 0.072 
v -0.00435597 -0.0041262 0.075 
v -0.00435597 -0.0041262 0.072 
v -0.00477656 -0.00363105 0.075 
v -0.00477656 -0.00363105 0.072 
v -0.00514114 -0.00309332 0.075 
v -0.00514114 -0.00309332 0.072 
v -0.00544545 -0.00251933 0.075 
v -0.00544545 -0.00251933 0.072 
v -0.00568592 -0.00191581 0.075 
v -0.00568592 -0.00191581 0.072 
v -0.00585972 -0.00128982 0.075 
v -0.00585972 -0.00128982 0.072 
v -0.00596483 -0.000648714 0.075 
v -0.00596483 -0.000648714 0.072 
vn -1 0 0 
vn -1 0 0 
vn -0.994138 0.108119 0 
vn -0.994138 0.108119 0 
vn -0.976621 0.21497 0 
vn -0.976621 0.21497 0 
vn -0.947653 0.319302 0 
vn -0.947653 0.319302 0 
vn -0.907575 0.419889 0 
vn -0.907575 0.419889 0 
vn -0.856857 0.515554 0 
vn -0.856857 0.515554 0 
vn -0.796093 0.605174 0 
vn -0.796093 0.605174 0 
vn -0.725995 0.687699 0 
vn -0.725995 0.687699 0 
vn -0.647386 0.762162 0 
vn -0.647386 0.762162 0 
vn -0.561187 0.827689 0 
vn -0.561187 0.827689 0 
vn -0.468408 0.883512 0 
vn -0.468408 0.883512 0 
vn -0.370138 0.928977 0 
vn -0.370138 0.928977 0 
vn -0.267528 0.96355 0 
vn -0.267528 0.96355 0 
vn -0.161782 0.986827 0 
vn -0.161782 0.986827 0 
vn -0.0541389 0.998533 0 
vn -0.0541389 0.998533 0 
vn 0.0541389 0.998533 0 
vn 0.0541389 0.998533 0 
vn 0.161782 0.986827 0 
vn 0.161782 0.986827 0 
vn 0.267528 0.96355 0 
vn 0.267528 0.96355 0 
vn 0.370138 0.928977 0 
vn 0.370138 0.928977 0 
vn 0.468408 0.883512 0 
vn 0.468408 0.883512 0 
vn 0.561187 0.827689 0 
vn 0.561187 0.827689 0 
vn 0.647386 0.762162 0 
vn 0.647386 0.762162 0 
vn 0.725995 0.687699 0 
vn 0.725995 0.687699 0 
vn 0.796093 0.605174 0 
vn 0.796093 0.605174 0 
vn 0.856857 0.515554 0 
vn 0.856857 0.515554 0 
vn 0.907575 0.419889 0 
vn 0.907575 0.419889 0 
vn 0.947653 0.319302 0 
vn 0.947653 0.319302 0 
vn 0.976621 0.21497 0 
vn 0.976621 0.21497 0 
vn 0.994138 0.108119 0 
vn 0.994138 0.108119 0 
vn 1 1.22465e-16 0 
vn 1 1.22465e-16 0 
vn 0.994138 -0.108119 0 
vn 0.994138 -0.108119 0 
vn 0.976621 -0.21497 0 
vn 0.976621 -0.21497 0 
vn 0.947653 -0.319302 0 
vn 0.947653 -0.319302 0 
vn 0.907575 -0.419889 0 
vn 0.907575 -0.419889 0 
vn 0.856857 -0.515554 0 
vn 0.856857 -0.515554 0 
vn 0.796093 -0.605174 0 
vn 0.796093 -0.605174 0 
vn 0.725995 -0.687699 0 
vn 0.725995 -0.687699 0 
vn 0.647386 -0.762162 0 
vn 0.647386 -0.762162 0 
vn 0.561187 -0.827689 0 
vn 0.561187 -0.827689 0 
vn 0.468408 -0.883512 0 
vn 0.468408 -0.883512 0 
vn 0.370138 -0.928977 0 
vn 0.370138 -0.928977 0 
vn 0.267528 -0.96355 0 
vn 0.267528 -0.96355 0 
vn 0.161782 -0.986827 0 
vn 0.161782 -0.986827 0 
vn 0.0541389 -0.998533 0 
vn 0.0541389 -0.998533 0 
vn -0.0541389 -0.998533 0 
vn -0.0541389 -0.998533 0 
vn -0.161782 -0.986827 0 
vn -0.161782 -0.986827 0 
vn -0.267528 -0.96355 0 
vn -0.267528 -0.96355 0 
vn -0.370138 -0.928977 0 
vn -0.370138 -0.928977 0 
vn -0.468408 -0.883512 0 
vn -0.468408 -0.883512 0 
vn -0.561187 -0.827689 0 
vn -0.561187 -0.827689 0 
vn -0.647386 -0.762162 0 
vn -0.647386 -0.762162 0 
vn -0.725995 -0.687699 0 
vn -0.725995 -0.687699 0 
vn -0.796093 -0.605174 0 
vn -0.796093 -0.605174 0 
vn -0.856857 -0.515554 0 
vn -0.856857 -0.515554 0 
vn -0.907575 -0.419889 0 
vn -0.907575 -0.419889 0 
vn -0.947653 -0.319302 0 
vn -0.947653 -0.319302 0 
vn -0.976621 -0.21497 0 
vn -0.976621 -0.21497 0 
vn -0.994138 -0.108119 0 
vn -0.994138 -0.108119 0 
f 808//808 809//809 810//810 
f 811//811 810//810 812//812 
f 813//813 812//812 814//814 
f 815//815 814//814 816//816 
f 817//817 816//816 818//818 
f 819//819 818//818 820//820 
f 821//821 820//820 822//822 
f 823//823 822//822 824//824 
f 825//825 824//824 826//826 
f 827//827 826//826 828//828 
f 829//829 828//828 830//830 
f 831//831 830//830 832//832 
f 833//833 832//832 834//834 
f 835//835 834//834 836//836 
f 837//837 836//836 838//838 
f 839//839 838//838 840//840 
f 841//841 840//840 842//842 
f 843//843 842//842 844//844 
f 845//845 844//844 846//846 
f 847//847 846//846 848//848 
f 849//849 848//848 850//850 
f 851//851 850//850 852//852 
f 853//853 852//852 854//854 
f 855//855 854//854 856//856 
f 857//857 856//856 858//858 
f 859//859 858//858 860//860 
f 861//861 860//860 862//862 
f 863//863 862//862 864//864 
f 865//865 864//864 866//866 
f 867//867 866//866 868//868 
f 869//869 868//868 870//870 
f 871//871 870//870 872//872 
f 873//873 872//872 874//874 
f 875//875 874//874 876//876 
f 877//877 876//876 878//878 
f 879//879 878//878 880//880 
f 881//881 880//880 882//882 
f 883//883 882//882 884//884 
f 885//885 884//884 886//886 
f 887//887 886//886 888//888 
f 889//889 888//888 890//890 
f 891//891 890//890 892//892 
f 893//893 892//892 894//894 
f 895//895 894//894 896//896 
f 897//897 896//896 898//898 
f 899//899 898//898 900//900 
f 901//901 900//900 902//902 
f 903//903 902//902 904//904 
f 905//905 904//904 906//906 
f 907//907 906//906 908//908 
f 909//909 908//908 910//910 
f 911//911 910//910 912//912 
f 913//913 912//912 914//914 
f 915//915 914//914 916//916 
f 917//917 916//916 918//918 
f 919//919 918//918 920//920 
f 921//921 920//920 922//922 
f 923//923 922//922 809//809 
f 809//809 808//808 923//923 
f 922//922 923//923 921//921 
f 920//920 921//921 919//919 
f 918//918 919//919 917//917 
f 916//916 917//917 915//915 
f 914//914 915//915 913//913 
f 912//912 913//913 911//911 
f 910//910 911//911 909//909 
f 908//908 909//909 907//907 
f 906//906 907//907 905//905 
f 904//904 905//905 903//903 
f 902//902 903//903 901//901 
f 900//900 901//901 899//899 
f 898//898 899//899 897//897 
f 896//896 897//897 895//895 
f 894//894 895//895 893//893 
f 892//892 893//893 891//891 
f 890//890 891//891 889//889 
f 888//888 889//889 887//887 
f 886//886 887//887 885//885 
f 884//884 885//885 883//883 
f 882//882 883//883 881//881 
f 880//880 881//881 879//879 
f 878//878 879//879 877//877 
f 876//876 877//877 875//875 
f 874//874 875//875 873//873 
f 872//872 873//873 871//871 
f 870//870 871//871 869//869 
f 868//868 869//869 867//867 
f 866//866 867//867 865//865 
f 864//864 865//865 863//863 
f 862//862 863//863 861//861 
f 860//860 861//861 859//859 
f 858//858 859//859 857//857 
f 856//856 857//857 855//855 
f 854//854 855//855 853//853 
f 852//852 853//853 851//851 
f 850//850 851//851 849//849 
f 848//848 849//849 847//847 
f 846//846 847//847 845//845 
f 844//844 845//845 843//843 
f 842//842 843//843 841//841 
f 840//840 841//841 839//839 
f 838//838 839//839 837//837 
f 836//836 837//837 835//835 
f 834//834 835//835 833//833 
f 832//832 833//833 831//831 
f 830//830 831//831 829//829 
f 828//828 829//829 827//827 
f 826//826 827//827 825//825 
f 824//824 825//825 823//823 
f 822//822 823//823 821//821 
f 820//820 821//821 819//819 
f 818//818 819//819 817//817 
f 816//816 817//817 815//815 
f 814//814 815//815 813//813 
f 812//812 813//813 811//811 
f 810//810 811//811 808//808 
o mesh17744
v 0 0 0.075 
v 0.00596483 0.000648714 0.075 
v 0.00585972 0.00128982 0.075 
v 0.00568592 0.00191581 0.075 
v 0.00544545 0.00251933 0.075 
v 0.00514114 0.00309332 0.075 
v 0.00477656 0.00363105 0.075 
v 0.00435597 0.0041262 0.075 
v 0.00388432 0.00457297 0.075 
v 0.00336712 0.00496613 0.075 
v 0.00281045 0.00530107 0.075 
v 0.00222083 0.00557386 0.075 
v 0.00160517 0.0057813 0.075 
v 0.000970692 0.00592096 0.075 
v 0.000324833 0.0059912 0.075 
v -0.000324833 0.0059912 0.075 
v -0.000970692 0.00592096 0.075 
v -0.00160517 0.0057813 0.075 
v -0.00222083 0.00557386 0.075 
v -0.00281045 0.00530107 0.075 
v -0.00336712 0.00496613 0.075 
v -0.00388432 0.00457297 0.075 
v -0.00435597 0.0041262 0.075 
v -0.00477656 0.00363105 0.075 
v -0.00514114 0.00309332 0.075 
v -0.00544545 0.00251933 0.075 
v -0.00568592 0.00191581 0.075 
v -0.00585972 0.00128982 0.075 
v -0.00596483 0.000648714 0.075 
v -0.006 0 0.075 
v -0.00596483 -0.000648714 0.075 
v -0.00585972 -0.00128982 0.075 
v -0.00568592 -0.00191581 0.075 
v -0.00544545 -0.00251933 0.075 
v -0.00514114 -0.00309332 0.075 
v -0.00477656 -0.00363105 0.075 
v -0.00435597 -0.0041262 0.075 
v -0.00388432 -0.00457297 0.075 
v -0.00336712 -0.00496613 0.075 
v -0.00281045 -0.00530107 0.075 
v -0.00222083 -0.00557386 0.075 
v -0.00160517 -0.0057813 0.075 
v -0.000970692 -0.00592096 0.075 
v -0.000324833 -0.0059912 0.075 
v 0.000324833 -0.0059912 0.075 
v 0.000970692 -0.00592096 0.075 
v 0.00160517 -0.0057813 0.075 
v 0.00222083 -0.00557386 0.075 
v 0.00281045 -0.00530107 0.075 
v 0.00336712 -0.00496613 0.075 
v 0.00388432 -0.00457297 0.075 
v 0.00435597 -0.0041262 0.075 
v 0.00477656 -0.00363105 0.075 
v 0.00514114 -0.00309332 0.075 
v 0.00544545 -0.00251933 0.075 
v 0.00568592 -0.00191581 0.075 
v 0.00585972 -0.00128982 0.075 
v 0.00596483 -0.000648714 0.075 
v 0.006 2.20436e-18 0.075 
vn 0 0 1 
vn 0 0 1 
vn 0 0 1 
vn 0 0 1 
vn 0 0 1 
vn 0 0 1 
vn 0 0 1 
vn 0 0 1 
vn 0 0 1 
vn 0 0 1 
vn 0 0 1 
vn 0 0 1 
vn 0 0 1 
vn 0 0 1 
vn 0 0 1 
vn 0 0 1 
vn 0 0 1 
vn 0 0 1 
vn 0 0 1 
vn 0 0 1 
vn 0 0 1 
vn 0 0 1 
vn 0 0 1 
vn 0 0 1 
vn 0 0 1 
vn 0 0 1 
vn 0 0 1 
vn 0 0 1 
vn 0 0 1 
vn 0 0 1 
vn 0 0 1 
vn 0 0 1 
vn 0 0 1 
vn 0 0 1 
vn 0 0 1 
vn 0 0 1 
vn 0 0 1 
vn 0 0 1 
vn 0 0 1 
vn 0 0 1 
vn 0 0 1 
vn 0 0 1 
vn 0 0 1 
vn 0 0 1 
vn 0 0 1 
vn 0 0 1 
vn 0 0 1 
vn 0 0 1 
vn 0 0 1 
vn 0 0 1 
vn 0 0 1 
vn 0 0 1 
vn 0 0 1 
vn 0 0 1 
vn 0 0 1 
vn 0 0 1 
vn 0 0 1 
vn 0 0 1 
vn 0 0 1 
f 924//924 925//925 926//926 
f 926//926 927//927 924//924 
f 927//927 928//928 924//924 
f 928//928 929//929 924//924 
f 929//929 930//930 924//924 
f 930//930 931//931 924//924 
f 931//931 932//932 924//924 
f 932//932 933//933 924//924 
f 933//933 934//934 924//924 
f 934//934 935//935 924//924 
f 935//935 936//936 924//924 
f 936//936 937//937 924//924 
f 937//937 938//938 924//924 
f 938//938 939//939 924//924 
f 939//939 940//940 924//924 
f 940//940 941//941 924//924 
f 941//941 942//942 924//924 
f 942//942 943//943 924//924 
f 943//943 944//944 924//924 
f 944//944 945//945 924//924 
f 945//945 946//946 924//924 
f 946//946 947//947 924//924 
f 947//947 948//948 924//924 
f 948//948 949//949 924//924 
f 949//949 950//950 924//924 
f 950//950 951//951 924//924 
f 951//951 952//952 924//924 
f 952//952 953//953 924//924 
f 953//953 954//954 924//924 
f 954//954 955//955 924//924 
f 955//955 956//956 924//924 
f 956//956 957//957 924//924 
f 957//957 958//958 924//924 
f 958//958 959//959 924//924 
f 959//959 960//960 924//924 
f 960//960 961//961 924//924 
f 961//961 962//962 924//924 
f 962//962 963//963 924//924 
f 963//963 964//964 924//924 
f 964//964 965//965 924//924 
f 965//965 966//966 924//924 
f 966//966 967//967 924//924 
f 967//967 968//968 924//924 
f 968//968 969//969 924//924 
f 969//969 970//970 924//924 
f 970//970 971//971 924//924 
f 971//971 972//972 924//924 
f 972//972 973//973 924//924 
f 973//973 974//974 924//924 
f 974//974 975//975 924//924 
f 975//975 976//976 924//924 
f 976//976 977//977 924//924 
f 977//977 978//978 924//924 
f 978//978 979//979 924//924 
f 979//979 980//980 924//924 
f 980//980 981//981 924//924 
f 981//981 982//982 924//924 
f 982//982 925//925 924//924 
