# OBJ generated by ONSHAPE BY PTC INC, 1.215 Units = meters
mtllib _2025_DriveTrain_UBracket_R1.mtl
g 2025_DriveTrain_UBracket_R1
usemtl 0.796078_0.823529_0.937255_0.000000_0.000000
o mesh16371
v 0.0762 0.0183634 -0.0888628 
v 0.0762 0.01905 -0.0889 
v 0.06985 0.01905 -0.0889 
v 0.0762 0.0176849 -0.0887515 
v 0.06985 0.0183634 -0.0888628 
v 0.0762 0.0170224 -0.0885676 
v 0.06985 0.0176849 -0.0887515 
v 0.0762 0.0163837 -0.0883131 
v 0.06985 0.0170224 -0.0885676 
v 0.0762 0.0157762 -0.087991 
v 0.06985 0.0163837 -0.0883131 
v 0.0762 0.0152071 -0.0876052 
v 0.06985 0.0157762 -0.087991 
v 0.0762 0.0146831 -0.0871601 
v 0.06985 0.0152071 -0.0876052 
v 0.0762 0.0142103 -0.0866609 
v 0.06985 0.0146831 -0.0871601 
v 0.0762 0.0137942 -0.0861135 
v 0.06985 0.0142103 -0.0866609 
v 0.0762 0.0134397 -0.0855244 
v 0.06985 0.0137942 -0.0861135 
v 0.0762 0.013151 -0.0849004 
v 0.06985 0.0134397 -0.0855244 
v 0.0762 0.0129315 -0.0842488 
v 0.06985 0.013151 -0.0849004 
v 0.0762 0.0127837 -0.0835773 
v 0.06985 0.0129315 -0.0842488 
v 0.0762 0.0127093 -0.0828938 
v 0.06985 0.0127837 -0.0835773 
v 0.0762 0.0127093 -0.0822062 
v 0.06985 0.0127093 -0.0828938 
v 0.0762 0.0127837 -0.0815227 
v 0.06985 0.0127093 -0.0822062 
v 0.0762 0.0129315 -0.0808512 
v 0.06985 0.0127837 -0.0815227 
v 0.0762 0.013151 -0.0801996 
v 0.06985 0.0129315 -0.0808512 
v 0.0762 0.0134397 -0.0795756 
v 0.06985 0.013151 -0.0801996 
v 0.0762 0.0137942 -0.0789865 
v 0.06985 0.0134397 -0.0795756 
v 0.0762 0.0142103 -0.0784391 
v 0.06985 0.0137942 -0.0789865 
v 0.0762 0.0146831 -0.0779399 
v 0.06985 0.0142103 -0.0784391 
v 0.0762 0.0152071 -0.0774948 
v 0.06985 0.0146831 -0.0779399 
v 0.0762 0.0157762 -0.077109 
v 0.06985 0.0152071 -0.0774948 
v 0.0762 0.0163837 -0.0767869 
v 0.06985 0.0157762 -0.077109 
v 0.0762 0.0170224 -0.0765324 
v 0.06985 0.0163837 -0.0767869 
v 0.0762 0.0176849 -0.0763485 
v 0.06985 0.0170224 -0.0765324 
v 0.0762 0.0183634 -0.0762372 
v 0.06985 0.0176849 -0.0763485 
v 0.0762 0.01905 -0.0762 
v 0.06985 0.0183634 -0.0762372 
v 0.0762 0.0197366 -0.0762372 
v 0.06985 0.01905 -0.0762 
v 0.0762 0.0204151 -0.0763485 
v 0.06985 0.0197366 -0.0762372 
v 0.0762 0.0210776 -0.0765324 
v 0.06985 0.0204151 -0.0763485 
v 0.0762 0.0217163 -0.0767869 
v 0.06985 0.0210776 -0.0765324 
v 0.0762 0.0223238 -0.077109 
v 0.06985 0.0217163 -0.0767869 
v 0.0762 0.0228929 -0.0774948 
v 0.06985 0.0223238 -0.077109 
v 0.0762 0.0234169 -0.0779399 
v 0.06985 0.0228929 -0.0774948 
v 0.0762 0.0238897 -0.0784391 
v 0.06985 0.0234169 -0.0779399 
v 0.0762 0.0243058 -0.0789865 
v 0.06985 0.0238897 -0.0784391 
v 0.0762 0.0246603 -0.0795756 
v 0.06985 0.0243058 -0.0789865 
v 0.0762 0.024949 -0.0801996 
v 0.06985 0.0246603 -0.0795756 
v 0.0762 0.0251685 -0.0808512 
v 0.06985 0.024949 -0.0801996 
v 0.0762 0.0253163 -0.0815227 
v 0.06985 0.0251685 -0.0808512 
v 0.0762 0.0253907 -0.0822062 
v 0.06985 0.0253163 -0.0815227 
v 0.0762 0.0253907 -0.0828938 
v 0.06985 0.0253907 -0.0822062 
v 0.0762 0.0253163 -0.0835773 
v 0.06985 0.0253907 -0.0828938 
v 0.0762 0.0251685 -0.0842488 
v 0.06985 0.0253163 -0.0835773 
v 0.0762 0.024949 -0.0849004 
v 0.06985 0.0251685 -0.0842488 
v 0.0762 0.0246603 -0.0855244 
v 0.06985 0.024949 -0.0849004 
v 0.0762 0.0243058 -0.0861135 
v 0.06985 0.0246603 -0.0855244 
v 0.0762 0.0238897 -0.0866609 
v 0.06985 0.0243058 -0.0861135 
v 0.0762 0.0234169 -0.0871601 
v 0.06985 0.0238897 -0.0866609 
v 0.0762 0.0228929 -0.0876052 
v 0.06985 0.0234169 -0.0871601 
v 0.0762 0.0223238 -0.087991 
v 0.06985 0.0228929 -0.0876052 
v 0.0762 0.0217163 -0.0883131 
v 0.06985 0.0223238 -0.087991 
v 0.0762 0.0210776 -0.0885676 
v 0.06985 0.0217163 -0.0883131 
v 0.0762 0.0204151 -0.0887515 
v 0.06985 0.0210776 -0.0885676 
v 0.0762 0.0197366 -0.0888628 
v 0.06985 0.0204151 -0.0887515 
v 0.06985 0.0197366 -0.0888628 
vn 0 0.108119 0.994138 
vn 0 2.44929e-16 1 
vn 0 2.44929e-16 1 
vn 0 0.21497 0.976621 
vn 0 0.108119 0.994138 
vn 0 0.319302 0.947653 
vn 0 0.21497 0.976621 
vn 0 0.419889 0.907575 
vn 0 0.319302 0.947653 
vn 0 0.515554 0.856857 
vn 0 0.419889 0.907575 
vn 0 0.605174 0.796093 
vn 0 0.515554 0.856857 
vn 0 0.687699 0.725995 
vn 0 0.605174 0.796093 
vn 0 0.762162 0.647386 
vn 0 0.687699 0.725995 
vn 0 0.827689 0.561187 
vn 0 0.762162 0.647386 
vn 0 0.883512 0.468408 
vn 0 0.827689 0.561187 
vn 0 0.928977 0.370138 
vn 0 0.883512 0.468408 
vn 0 0.96355 0.267528 
vn 0 0.928977 0.370138 
vn 0 0.986827 0.161782 
vn 0 0.96355 0.267528 
vn 0 0.998533 0.0541389 
vn 0 0.986827 0.161782 
vn 0 0.998533 -0.0541389 
vn 0 0.998533 0.0541389 
vn 0 0.986827 -0.161782 
vn 0 0.998533 -0.0541389 
vn 0 0.96355 -0.267528 
vn 0 0.986827 -0.161782 
vn 0 0.928977 -0.370138 
vn 0 0.96355 -0.267528 
vn 0 0.883512 -0.468408 
vn 0 0.928977 -0.370138 
vn 0 0.827689 -0.561187 
vn 0 0.883512 -0.468408 
vn 0 0.762162 -0.647386 
vn 0 0.827689 -0.561187 
vn 0 0.687699 -0.725995 
vn 0 0.762162 -0.647386 
vn 0 0.605174 -0.796093 
vn 0 0.687699 -0.725995 
vn 0 0.515554 -0.856857 
vn 0 0.605174 -0.796093 
vn 0 0.419889 -0.907575 
vn 0 0.515554 -0.856857 
vn 0 0.319302 -0.947653 
vn 0 0.419889 -0.907575 
vn 0 0.21497 -0.976621 
vn 0 0.319302 -0.947653 
vn 0 0.108119 -0.994138 
vn 0 0.21497 -0.976621 
vn 0 -1.22465e-16 -1 
vn 0 0.108119 -0.994138 
vn 0 -0.108119 -0.994138 
vn 0 -1.22465e-16 -1 
vn 0 -0.21497 -0.976621 
vn 0 -0.108119 -0.994138 
vn 0 -0.319302 -0.947653 
vn 0 -0.21497 -0.976621 
vn 0 -0.419889 -0.907575 
vn 0 -0.319302 -0.947653 
vn 0 -0.515554 -0.856857 
vn 0 -0.419889 -0.907575 
vn 0 -0.605174 -0.796093 
vn 0 -0.515554 -0.856857 
vn 0 -0.687699 -0.725995 
vn 0 -0.605174 -0.796093 
vn 0 -0.762162 -0.647386 
vn 0 -0.687699 -0.725995 
vn 0 -0.827689 -0.561187 
vn 0 -0.762162 -0.647386 
vn 0 -0.883512 -0.468408 
vn 0 -0.827689 -0.561187 
vn 0 -0.928977 -0.370138 
vn 0 -0.883512 -0.468408 
vn 0 -0.96355 -0.267528 
vn 0 -0.928977 -0.370138 
vn 0 -0.986827 -0.161782 
vn 0 -0.96355 -0.267528 
vn 0 -0.998533 -0.0541389 
vn 0 -0.986827 -0.161782 
vn 0 -0.998533 0.0541389 
vn 0 -0.998533 -0.0541389 
vn 0 -0.986827 0.161782 
vn 0 -0.998533 0.0541389 
vn 0 -0.96355 0.267528 
vn 0 -0.986827 0.161782 
vn 0 -0.928977 0.370138 
vn 0 -0.96355 0.267528 
vn 0 -0.883512 0.468408 
vn 0 -0.928977 0.370138 
vn 0 -0.827689 0.561187 
vn 0 -0.883512 0.468408 
vn 0 -0.762162 0.647386 
vn 0 -0.827689 0.561187 
vn 0 -0.687699 0.725995 
vn 0 -0.762162 0.647386 
vn 0 -0.605174 0.796093 
vn 0 -0.687699 0.725995 
vn 0 -0.515554 0.856857 
vn 0 -0.605174 0.796093 
vn 0 -0.419889 0.907575 
vn 0 -0.515554 0.856857 
vn 0 -0.319302 0.947653 
vn 0 -0.419889 0.907575 
vn 0 -0.21497 0.976621 
vn 0 -0.319302 0.947653 
vn 0 -0.108119 0.994138 
vn 0 -0.21497 0.976621 
vn 0 -0.108119 0.994138 
f 1//1 2//2 3//3 
f 4//4 1//1 5//5 
f 6//6 4//4 7//7 
f 8//8 6//6 9//9 
f 10//10 8//8 11//11 
f 12//12 10//10 13//13 
f 14//14 12//12 15//15 
f 16//16 14//14 17//17 
f 18//18 16//16 19//19 
f 20//20 18//18 21//21 
f 22//22 20//20 23//23 
f 24//24 22//22 25//25 
f 26//26 24//24 27//27 
f 28//28 26//26 29//29 
f 30//30 28//28 31//31 
f 32//32 30//30 33//33 
f 34//34 32//32 35//35 
f 36//36 34//34 37//37 
f 38//38 36//36 39//39 
f 40//40 38//38 41//41 
f 42//42 40//40 43//43 
f 44//44 42//42 45//45 
f 46//46 44//44 47//47 
f 48//48 46//46 49//49 
f 50//50 48//48 51//51 
f 52//52 50//50 53//53 
f 54//54 52//52 55//55 
f 56//56 54//54 57//57 
f 58//58 56//56 59//59 
f 60//60 58//58 61//61 
f 62//62 60//60 63//63 
f 64//64 62//62 65//65 
f 66//66 64//64 67//67 
f 68//68 66//66 69//69 
f 70//70 68//68 71//71 
f 72//72 70//70 73//73 
f 74//74 72//72 75//75 
f 76//76 74//74 77//77 
f 78//78 76//76 79//79 
f 80//80 78//78 81//81 
f 82//82 80//80 83//83 
f 84//84 82//82 85//85 
f 86//86 84//84 87//87 
f 88//88 86//86 89//89 
f 90//90 88//88 91//91 
f 92//92 90//90 93//93 
f 94//94 92//92 95//95 
f 96//96 94//94 97//97 
f 98//98 96//96 99//99 
f 100//100 98//98 101//101 
f 102//102 100//100 103//103 
f 104//104 102//102 105//105 
f 106//106 104//104 107//107 
f 108//108 106//106 109//109 
f 110//110 108//108 111//111 
f 112//112 110//110 113//113 
f 114//114 112//112 115//115 
f 2//2 114//114 116//116 
f 116//116 3//3 2//2 
f 115//115 116//116 114//114 
f 113//113 115//115 112//112 
f 111//111 113//113 110//110 
f 109//109 111//111 108//108 
f 107//107 109//109 106//106 
f 105//105 107//107 104//104 
f 103//103 105//105 102//102 
f 101//101 103//103 100//100 
f 99//99 101//101 98//98 
f 97//97 99//99 96//96 
f 95//95 97//97 94//94 
f 93//93 95//95 92//92 
f 91//91 93//93 90//90 
f 89//89 91//91 88//88 
f 87//87 89//89 86//86 
f 85//85 87//87 84//84 
f 83//83 85//85 82//82 
f 81//81 83//83 80//80 
f 79//79 81//81 78//78 
f 77//77 79//79 76//76 
f 75//75 77//77 74//74 
f 73//73 75//75 72//72 
f 71//71 73//73 70//70 
f 69//69 71//71 68//68 
f 67//67 69//69 66//66 
f 65//65 67//67 64//64 
f 63//63 65//65 62//62 
f 61//61 63//63 60//60 
f 59//59 61//61 58//58 
f 57//57 59//59 56//56 
f 55//55 57//57 54//54 
f 53//53 55//55 52//52 
f 51//51 53//53 50//50 
f 49//49 51//51 48//48 
f 47//47 49//49 46//46 
f 45//45 47//47 44//44 
f 43//43 45//45 42//42 
f 41//41 43//43 40//40 
f 39//39 41//41 38//38 
f 37//37 39//39 36//36 
f 35//35 37//37 34//34 
f 33//33 35//35 32//32 
f 31//31 33//33 30//30 
f 29//29 31//31 28//28 
f 27//27 29//29 26//26 
f 25//25 27//27 24//24 
f 23//23 25//25 22//22 
f 21//21 23//23 20//20 
f 19//19 21//21 18//18 
f 17//17 19//19 16//16 
f 15//15 17//17 14//14 
f 13//13 15//15 12//12 
f 11//11 13//13 10//10 
f 9//9 11//11 8//8 
f 7//7 9//9 6//6 
f 5//5 7//7 4//4 
f 3//3 5//5 1//1 
o mesh16372
v 0.0762 0.0204151 -0.0763485 
v 0.0762 0.0381 0 
v 0.0762 0.0230441 -0.0205166 
v 0.0762 0 0 
v 0.0762 0.0150559 -0.0200834 
v 0.0762 0.0151027 -0.0196529 
v 0.0762 0.0151027 -0.0209471 
v 0.0762 0.0150559 -0.0205166 
v 0.0762 0.0230441 -0.0200834 
v 0.0762 0.01905 -0.0762 
v 0.0762 0.0197366 -0.0762372 
v 0.0762 0.0199099 -0.0163935 
v 0.0762 0.0203272 -0.0165094 
v 0.0762 0.0157392 -0.0180553 
v 0.0762 0.0160014 -0.0177105 
v 0.0762 0.0151958 -0.0192299 
v 0.0762 0.0381 -0.1016 
v 0.0762 0.0238897 -0.0866609 
v 0.0762 0.0234169 -0.0871601 
v 0.0762 0.0251685 -0.0842488 
v 0.0762 0.024949 -0.0849004 
v 0.0762 0.0229973 -0.0196529 
v 0.0762 0.0211122 -0.0168726 
v 0.0762 0.0214707 -0.0171156 
v 0.0762 0.0194825 -0.0163234 
v 0.0762 0.0177728 -0.0165094 
v 0.0762 0.0181901 -0.0163935 
v 0.0762 0.0162992 -0.017396 
v 0.0762 0.0153341 -0.0188194 
v 0.0762 0.015516 -0.0184264 
v 0.0762 0.0151958 -0.0213701 
v 0.0762 0 -0.1016 
v 0.0762 0.0153341 -0.0217806 
v 0.0762 0.0181901 -0.0242065 
v 0.0762 0.0127093 -0.0822062 
v 0.0762 0.0243058 -0.0861135 
v 0.0762 0.0246603 -0.0855244 
v 0.0762 0.0246603 -0.0795756 
v 0.0762 0.024949 -0.0801996 
v 0.0762 0.0229042 -0.0192299 
v 0.0762 0.0176849 -0.0763485 
v 0.0762 0.0183634 -0.0762372 
v 0.0762 0.0223608 -0.0180553 
v 0.0762 0.022584 -0.0184264 
v 0.0762 0.0218008 -0.017396 
v 0.0762 0.0207296 -0.0166697 
v 0.0762 0.0173704 -0.0166697 
v 0.0762 0.0166293 -0.0171156 
v 0.0762 0.0169878 -0.0168726 
v 0.0762 0.0160014 -0.0228895 
v 0.0762 0.0157392 -0.0225447 
v 0.0762 0.0127093 -0.0828938 
v 0.0762 0.0134397 -0.0855244 
v 0.0762 0.013151 -0.0849004 
v 0.0762 0.0253907 -0.0822062 
v 0.0762 0.0253907 -0.0828938 
v 0.0762 0.0251685 -0.0808512 
v 0.0762 0.0253163 -0.0815227 
v 0.0762 0.0243058 -0.0789865 
v 0.0762 0.0220986 -0.0177105 
v 0.0762 0.015516 -0.0221736 
v 0.0762 0.0166293 -0.0234844 
v 0.0762 0.0162992 -0.023204 
v 0.0762 0.0177728 -0.0240906 
v 0.0762 0.0127837 -0.0835773 
v 0.0762 0.0129315 -0.0842488 
v 0.0762 0.0142103 -0.0866609 
v 0.0762 0.0137942 -0.0861135 
v 0.0762 0.0163837 -0.0883131 
v 0.0762 0.0157762 -0.087991 
v 0.0762 0.01905 -0.0243 
v 0.0762 0.0127837 -0.0815227 
v 0.0762 0.0129315 -0.0808512 
v 0.0762 0.0253163 -0.0835773 
v 0.0762 0.0227659 -0.0188194 
v 0.0762 0.0186175 -0.0163234 
v 0.0762 0.01905 -0.0163 
v 0.0762 0.0186175 -0.0242766 
v 0.0762 0.0152071 -0.0876052 
v 0.0762 0.0134397 -0.0795756 
v 0.0762 0.0137942 -0.0789865 
v 0.0762 0.013151 -0.0801996 
v 0.0762 0.0203272 -0.0240906 
v 0.0762 0.0199099 -0.0242065 
v 0.0762 0.0211122 -0.0237274 
v 0.0762 0.0207296 -0.0239303 
v 0.0762 0.0218008 -0.023204 
v 0.0762 0.0214707 -0.0234844 
v 0.0762 0.0238897 -0.0784391 
v 0.0762 0.0173704 -0.0239303 
v 0.0762 0.0169878 -0.0237274 
v 0.0762 0.0146831 -0.0871601 
v 0.0762 0.0142103 -0.0784391 
v 0.0762 0.0146831 -0.0779399 
v 0.0762 0.0220986 -0.0228895 
v 0.0762 0.0229973 -0.0209471 
v 0.0762 0.0228929 -0.0876052 
v 0.0762 0.0223238 -0.087991 
v 0.0762 0.0228929 -0.0774948 
v 0.0762 0.0234169 -0.0779399 
v 0.0762 0.0170224 -0.0765324 
v 0.0762 0.0157762 -0.077109 
v 0.0762 0.0163837 -0.0767869 
v 0.0762 0.022584 -0.0221736 
v 0.0762 0.0223608 -0.0225447 
v 0.0762 0.0229042 -0.0213701 
v 0.0762 0.0223238 -0.077109 
v 0.0762 0.0210776 -0.0765324 
v 0.0762 0.0152071 -0.0774948 
v 0.0762 0.0227659 -0.0217806 
v 0.0762 0.0217163 -0.0767869 
v 0.0762 0.0176849 -0.0887515 
v 0.0762 0.0170224 -0.0885676 
v 0.0762 0.0217163 -0.0883131 
v 0.0762 0.0210776 -0.0885676 
v 0.0762 0.0194825 -0.0242766 
v 0.0762 0.01905 -0.0889 
v 0.0762 0.0204151 -0.0887515 
v 0.0762 0.0197366 -0.0888628 
v 0.0762 0.0183634 -0.0888628 
vn 1 0 0 
vn 1 0 0 
vn 1 0 0 
vn 1 0 0 
vn 1 0 0 
vn 1 0 0 
vn 1 0 0 
vn 1 0 0 
vn 1 0 0 
vn 1 0 0 
vn 1 0 0 
vn 1 0 0 
vn 1 0 0 
vn 1 0 0 
vn 1 0 0 
vn 1 0 0 
vn 1 0 0 
vn 1 0 0 
vn 1 0 0 
vn 1 0 0 
vn 1 0 0 
vn 1 0 0 
vn 1 0 0 
vn 1 0 0 
vn 1 0 0 
vn 1 0 0 
vn 1 0 0 
vn 1 0 0 
vn 1 0 0 
vn 1 0 0 
vn 1 0 0 
vn 1 0 0 
vn 1 0 0 
vn 1 0 0 
vn 1 0 0 
vn 1 0 0 
vn 1 0 0 
vn 1 0 0 
vn 1 0 0 
vn 1 0 0 
vn 1 0 0 
vn 1 0 0 
vn 1 0 0 
vn 1 0 0 
vn 1 0 0 
vn 1 0 0 
vn 1 0 0 
vn 1 0 0 
vn 1 0 0 
vn 1 0 0 
vn 1 0 0 
vn 1 0 0 
vn 1 0 0 
vn 1 0 0 
vn 1 0 0 
vn 1 0 0 
vn 1 0 0 
vn 1 0 0 
vn 1 0 0 
vn 1 0 0 
vn 1 0 0 
vn 1 0 0 
vn 1 0 0 
vn 1 0 0 
vn 1 0 0 
vn 1 0 0 
vn 1 0 0 
vn 1 0 0 
vn 1 0 0 
vn 1 0 0 
vn 1 0 0 
vn 1 0 0 
vn 1 0 0 
vn 1 0 0 
vn 1 0 0 
vn 1 0 0 
vn 1 0 0 
vn 1 0 0 
vn 1 0 0 
vn 1 0 0 
vn 1 0 0 
vn 1 0 0 
vn 1 0 0 
vn 1 0 0 
vn 1 0 0 
vn 1 0 0 
vn 1 0 0 
vn 1 0 0 
vn 1 0 0 
vn 1 0 0 
vn 1 0 0 
vn 1 0 0 
vn 1 0 0 
vn 1 0 0 
vn 1 0 0 
vn 1 0 0 
vn 1 0 0 
vn 1 0 0 
vn 1 0 0 
vn 1 0 0 
vn 1 0 0 
vn 1 0 0 
vn 1 0 0 
vn 1 0 0 
vn 1 0 0 
vn 1 0 0 
vn 1 0 0 
vn 1 0 0 
vn 1 0 0 
vn 1 0 0 
vn 1 0 0 
vn 1 0 0 
vn 1 0 0 
vn 1 0 0 
vn 1 0 0 
vn 1 0 0 
vn 1 0 0 
vn 1 0 0 
vn 1 0 0 
vn 1 0 0 
f 117//117 118//118 119//119 
f 120//120 121//121 122//122 
f 120//120 123//123 124//124 
f 118//118 125//125 119//119 
f 124//124 121//121 120//120 
f 119//119 126//126 127//127 
f 118//118 128//128 129//129 
f 120//120 130//130 131//131 
f 122//122 132//132 120//120 
f 133//133 134//134 135//135 
f 133//133 136//136 137//137 
f 118//118 138//138 125//125 
f 118//118 139//139 140//140 
f 118//118 141//141 128//128 
f 120//120 142//142 143//143 
f 131//131 144//144 120//120 
f 120//120 145//145 146//146 
f 120//120 147//147 123//123 
f 148//148 149//149 147//147 
f 150//150 148//148 151//151 
f 133//133 152//152 134//134 
f 137//137 153//153 133//133 
f 118//118 154//154 155//155 
f 118//118 156//156 138//138 
f 119//119 157//157 158//158 
f 118//118 159//159 160//160 
f 140//140 161//161 118//118 
f 129//129 162//162 118//118 
f 120//120 163//163 142//142 
f 120//120 164//164 165//165 
f 146//146 130//130 120//120 
f 147//147 120//120 148//148 
f 148//148 166//166 167//167 
f 148//148 168//168 151//151 
f 148//148 169//169 170//170 
f 153//153 152//152 133//133 
f 133//133 171//171 172//172 
f 118//118 173//173 174//174 
f 118//118 175//175 154//154 
f 158//158 126//126 119//119 
f 118//118 176//176 159//159 
f 162//162 139//139 118//118 
f 165//165 163//163 120//120 
f 132//132 145//145 120//120 
f 167//167 177//177 148//148 
f 148//148 178//178 179//179 
f 148//148 150//150 180//180 
f 148//148 181//181 168//168 
f 170//170 182//182 148//148 
f 148//148 183//183 184//184 
f 148//148 185//185 186//186 
f 187//187 188//188 189//189 
f 133//133 190//190 136//136 
f 133//133 174//174 171//171 
f 155//155 173//173 118//118 
f 118//118 191//191 156//156 
f 161//161 176//176 118//118 
f 120//120 192//192 193//193 
f 144//144 164//164 120//120 
f 179//179 166//166 148//148 
f 151//151 194//194 150//150 
f 184//184 169//169 148//148 
f 186//186 195//195 148//148 
f 187//187 196//196 197//197 
f 189//189 198//198 187//187 
f 157//157 199//199 200//200 
f 157//157 201//201 202//202 
f 157//157 203//203 204//204 
f 172//172 190//190 133//133 
f 118//118 205//205 175//175 
f 160//160 191//191 118//118 
f 193//193 118//118 120//120 
f 177//177 149//149 148//148 
f 148//148 206//206 207//207 
f 182//182 181//181 148//148 
f 195//195 208//208 148//148 
f 187//187 209//209 210//210 
f 198//198 196//196 187//187 
f 202//202 199//199 157//157 
f 157//157 211//211 203//203 
f 157//157 119//119 212//212 
f 133//133 213//213 214//214 
f 174//174 133//133 118//118 
f 118//118 215//215 216//216 
f 193//193 141//141 118//118 
f 207//207 178//178 148//148 
f 208//208 183//183 148//148 
f 194//194 151//151 188//188 
f 187//187 217//217 157//157 
f 187//187 218//218 219//219 
f 197//197 209//209 187//187 
f 204//204 201//201 157//157 
f 157//157 220//220 221//221 
f 212//212 222//222 157//157 
f 135//135 213//213 133//133 
f 118//118 223//223 215//215 
f 118//118 117//117 224//224 
f 143//143 192//192 120//120 
f 188//188 187//187 194//194 
f 219//219 217//217 187//187 
f 210//210 225//225 187//187 
f 221//221 211//211 157//157 
f 222//222 226//226 157//157 
f 216//216 205//205 118//118 
f 224//224 227//227 118//118 
f 180//180 206//206 148//148 
f 148//148 228//228 229//229 
f 225//225 218//218 187//187 
f 226//226 220//220 157//157 
f 133//133 230//230 231//231 
f 227//227 223//223 118//118 
f 229//229 185//185 148//148 
f 200//200 232//232 157//157 
f 148//148 133//133 233//233 
f 133//133 234//234 235//235 
f 214//214 230//230 133//133 
f 157//157 232//232 187//187 
f 233//233 236//236 148//148 
f 231//231 234//234 133//133 
f 236//236 228//228 148//148 
f 119//119 127//127 117//117 
f 235//235 233//233 133//133 
o mesh16373
v 0.0762 0.0381 -0.1016 
v 0.0762 0 -0.1016 
v 0.06985 0 -0.1016 
v 0.06985 0.0381 -0.1016 
vn 0 0 -1 
vn 0 0 -1 
vn 0 0 -1 
vn 0 0 -1 
f 237//237 238//238 239//239 
f 239//239 240//240 237//237 
o mesh16374
v 0.0762 0.0186175 -0.0242766 
v 0.0762 0.01905 -0.0243 
v 0.06985 0.01905 -0.0243 
v 0.0762 0.0181901 -0.0242065 
v 0.06985 0.0186175 -0.0242766 
v 0.0762 0.0177728 -0.0240906 
v 0.06985 0.0181901 -0.0242065 
v 0.0762 0.0173704 -0.0239303 
v 0.06985 0.0177728 -0.0240906 
v 0.0762 0.0169878 -0.0237274 
v 0.06985 0.0173704 -0.0239303 
v 0.0762 0.0166293 -0.0234844 
v 0.06985 0.0169878 -0.0237274 
v 0.0762 0.0162992 -0.023204 
v 0.06985 0.0166293 -0.0234844 
v 0.0762 0.0160014 -0.0228895 
v 0.06985 0.0162992 -0.023204 
v 0.0762 0.0157392 -0.0225447 
v 0.06985 0.0160014 -0.0228895 
v 0.0762 0.015516 -0.0221736 
v 0.06985 0.0157392 -0.0225447 
v 0.0762 0.0153341 -0.0217806 
v 0.06985 0.015516 -0.0221736 
v 0.0762 0.0151958 -0.0213701 
v 0.06985 0.0153341 -0.0217806 
v 0.0762 0.0151027 -0.0209471 
v 0.06985 0.0151958 -0.0213701 
v 0.0762 0.0150559 -0.0205166 
v 0.06985 0.0151027 -0.0209471 
v 0.0762 0.0150559 -0.0200834 
v 0.06985 0.0150559 -0.0205166 
v 0.0762 0.0151027 -0.0196529 
v 0.06985 0.0150559 -0.0200834 
v 0.0762 0.0151958 -0.0192299 
v 0.06985 0.0151027 -0.0196529 
v 0.0762 0.0153341 -0.0188194 
v 0.06985 0.0151958 -0.0192299 
v 0.0762 0.015516 -0.0184264 
v 0.06985 0.0153341 -0.0188194 
v 0.0762 0.0157392 -0.0180553 
v 0.06985 0.015516 -0.0184264 
v 0.0762 0.0160014 -0.0177105 
v 0.06985 0.0157392 -0.0180553 
v 0.0762 0.0162992 -0.017396 
v 0.06985 0.0160014 -0.0177105 
v 0.0762 0.0166293 -0.0171156 
v 0.06985 0.0162992 -0.017396 
v 0.0762 0.0169878 -0.0168726 
v 0.06985 0.0166293 -0.0171156 
v 0.0762 0.0173704 -0.0166697 
v 0.06985 0.0169878 -0.0168726 
v 0.0762 0.0177728 -0.0165094 
v 0.06985 0.0173704 -0.0166697 
v 0.0762 0.0181901 -0.0163935 
v 0.06985 0.0177728 -0.0165094 
v 0.0762 0.0186175 -0.0163234 
v 0.06985 0.0181901 -0.0163935 
v 0.0762 0.01905 -0.0163 
v 0.06985 0.0186175 -0.0163234 
v 0.0762 0.0194825 -0.0163234 
v 0.06985 0.01905 -0.0163 
v 0.0762 0.0199099 -0.0163935 
v 0.06985 0.0194825 -0.0163234 
v 0.0762 0.0203272 -0.0165094 
v 0.06985 0.0199099 -0.0163935 
v 0.0762 0.0207296 -0.0166697 
v 0.06985 0.0203272 -0.0165094 
v 0.0762 0.0211122 -0.0168726 
v 0.06985 0.0207296 -0.0166697 
v 0.0762 0.0214707 -0.0171156 
v 0.06985 0.0211122 -0.0168726 
v 0.0762 0.0218008 -0.017396 
v 0.06985 0.0214707 -0.0171156 
v 0.0762 0.0220986 -0.0177105 
v 0.06985 0.0218008 -0.017396 
v 0.0762 0.0223608 -0.0180553 
v 0.06985 0.0220986 -0.0177105 
v 0.0762 0.022584 -0.0184264 
v 0.06985 0.0223608 -0.0180553 
v 0.0762 0.0227659 -0.0188194 
v 0.06985 0.022584 -0.0184264 
v 0.0762 0.0229042 -0.0192299 
v 0.06985 0.0227659 -0.0188194 
v 0.0762 0.0229973 -0.0196529 
v 0.06985 0.0229042 -0.0192299 
v 0.0762 0.0230441 -0.0200834 
v 0.06985 0.0229973 -0.0196529 
v 0.0762 0.0230441 -0.0205166 
v 0.06985 0.0230441 -0.0200834 
v 0.0762 0.0229973 -0.0209471 
v 0.06985 0.0230441 -0.0205166 
v 0.0762 0.0229042 -0.0213701 
v 0.06985 0.0229973 -0.0209471 
v 0.0762 0.0227659 -0.0217806 
v 0.06985 0.0229042 -0.0213701 
v 0.0762 0.022584 -0.0221736 
v 0.06985 0.0227659 -0.0217806 
v 0.0762 0.0223608 -0.0225447 
v 0.06985 0.022584 -0.0221736 
v 0.0762 0.0220986 -0.0228895 
v 0.06985 0.0223608 -0.0225447 
v 0.0762 0.0218008 -0.023204 
v 0.06985 0.0220986 -0.0228895 
v 0.0762 0.0214707 -0.0234844 
v 0.06985 0.0218008 -0.023204 
v 0.0762 0.0211122 -0.0237274 
v 0.06985 0.0214707 -0.0234844 
v 0.0762 0.0207296 -0.0239303 
v 0.06985 0.0211122 -0.0237274 
v 0.0762 0.0203272 -0.0240906 
v 0.06985 0.0207296 -0.0239303 
v 0.0762 0.0199099 -0.0242065 
v 0.06985 0.0203272 -0.0240906 
v 0.0762 0.0194825 -0.0242766 
v 0.06985 0.0199099 -0.0242065 
v 0.06985 0.0194825 -0.0242766 
vn 0 0.108119 0.994138 
vn 0 2.44929e-16 1 
vn 0 2.44929e-16 1 
vn 0 0.21497 0.976621 
vn 0 0.108119 0.994138 
vn 0 0.319302 0.947653 
vn 0 0.21497 0.976621 
vn 0 0.419889 0.907575 
vn 0 0.319302 0.947653 
vn 0 0.515554 0.856857 
vn 0 0.419889 0.907575 
vn 0 0.605174 0.796093 
vn 0 0.515554 0.856857 
vn 0 0.687699 0.725995 
vn 0 0.605174 0.796093 
vn 0 0.762162 0.647386 
vn 0 0.687699 0.725995 
vn 0 0.827689 0.561187 
vn 0 0.762162 0.647386 
vn 0 0.883512 0.468408 
vn 0 0.827689 0.561187 
vn 0 0.928977 0.370138 
vn 0 0.883512 0.468408 
vn 0 0.96355 0.267528 
vn 0 0.928977 0.370138 
vn 0 0.986827 0.161782 
vn 0 0.96355 0.267528 
vn 0 0.998533 0.0541389 
vn 0 0.986827 0.161782 
vn 0 0.998533 -0.0541389 
vn 0 0.998533 0.0541389 
vn 0 0.986827 -0.161782 
vn 0 0.998533 -0.0541389 
vn 0 0.96355 -0.267528 
vn 0 0.986827 -0.161782 
vn 0 0.928977 -0.370138 
vn 0 0.96355 -0.267528 
vn 0 0.883512 -0.468408 
vn 0 0.928977 -0.370138 
vn 0 0.827689 -0.561187 
vn 0 0.883512 -0.468408 
vn 0 0.762162 -0.647386 
vn 0 0.827689 -0.561187 
vn 0 0.687699 -0.725995 
vn 0 0.762162 -0.647386 
vn 0 0.605174 -0.796093 
vn 0 0.687699 -0.725995 
vn 0 0.515554 -0.856857 
vn 0 0.605174 -0.796093 
vn 0 0.419889 -0.907575 
vn 0 0.515554 -0.856857 
vn 0 0.319302 -0.947653 
vn 0 0.419889 -0.907575 
vn 0 0.21497 -0.976621 
vn 0 0.319302 -0.947653 
vn 0 0.108119 -0.994138 
vn 0 0.21497 -0.976621 
vn 0 -1.22465e-16 -1 
vn 0 0.108119 -0.994138 
vn 0 -0.108119 -0.994138 
vn 0 -1.22465e-16 -1 
vn 0 -0.21497 -0.976621 
vn 0 -0.108119 -0.994138 
vn 0 -0.319302 -0.947653 
vn 0 -0.21497 -0.976621 
vn 0 -0.419889 -0.907575 
vn 0 -0.319302 -0.947653 
vn 0 -0.515554 -0.856857 
vn 0 -0.419889 -0.907575 
vn 0 -0.605174 -0.796093 
vn 0 -0.515554 -0.856857 
vn 0 -0.687699 -0.725995 
vn 0 -0.605174 -0.796093 
vn 0 -0.762162 -0.647386 
vn 0 -0.687699 -0.725995 
vn 0 -0.827689 -0.561187 
vn 0 -0.762162 -0.647386 
vn 0 -0.883512 -0.468408 
vn 0 -0.827689 -0.561187 
vn 0 -0.928977 -0.370138 
vn 0 -0.883512 -0.468408 
vn 0 -0.96355 -0.267528 
vn 0 -0.928977 -0.370138 
vn 0 -0.986827 -0.161782 
vn 0 -0.96355 -0.267528 
vn 0 -0.998533 -0.0541389 
vn 0 -0.986827 -0.161782 
vn 0 -0.998533 0.0541389 
vn 0 -0.998533 -0.0541389 
vn 0 -0.986827 0.161782 
vn 0 -0.998533 0.0541389 
vn 0 -0.96355 0.267528 
vn 0 -0.986827 0.161782 
vn 0 -0.928977 0.370138 
vn 0 -0.96355 0.267528 
vn 0 -0.883512 0.468408 
vn 0 -0.928977 0.370138 
vn 0 -0.827689 0.561187 
vn 0 -0.883512 0.468408 
vn 0 -0.762162 0.647386 
vn 0 -0.827689 0.561187 
vn 0 -0.687699 0.725995 
vn 0 -0.762162 0.647386 
vn 0 -0.605174 0.796093 
vn 0 -0.687699 0.725995 
vn 0 -0.515554 0.856857 
vn 0 -0.605174 0.796093 
vn 0 -0.419889 0.907575 
vn 0 -0.515554 0.856857 
vn 0 -0.319302 0.947653 
vn 0 -0.419889 0.907575 
vn 0 -0.21497 0.976621 
vn 0 -0.319302 0.947653 
vn 0 -0.108119 0.994138 
vn 0 -0.21497 0.976621 
vn 0 -0.108119 0.994138 
f 241//241 242//242 243//243 
f 244//244 241//241 245//245 
f 246//246 244//244 247//247 
f 248//248 246//246 249//249 
f 250//250 248//248 251//251 
f 252//252 250//250 253//253 
f 254//254 252//252 255//255 
f 256//256 254//254 257//257 
f 258//258 256//256 259//259 
f 260//260 258//258 261//261 
f 262//262 260//260 263//263 
f 264//264 262//262 265//265 
f 266//266 264//264 267//267 
f 268//268 266//266 269//269 
f 270//270 268//268 271//271 
f 272//272 270//270 273//273 
f 274//274 272//272 275//275 
f 276//276 274//274 277//277 
f 278//278 276//276 279//279 
f 280//280 278//278 281//281 
f 282//282 280//280 283//283 
f 284//284 282//282 285//285 
f 286//286 284//284 287//287 
f 288//288 286//286 289//289 
f 290//290 288//288 291//291 
f 292//292 290//290 293//293 
f 294//294 292//292 295//295 
f 296//296 294//294 297//297 
f 298//298 296//296 299//299 
f 300//300 298//298 301//301 
f 302//302 300//300 303//303 
f 304//304 302//302 305//305 
f 306//306 304//304 307//307 
f 308//308 306//306 309//309 
f 310//310 308//308 311//311 
f 312//312 310//310 313//313 
f 314//314 312//312 315//315 
f 316//316 314//314 317//317 
f 318//318 316//316 319//319 
f 320//320 318//318 321//321 
f 322//322 320//320 323//323 
f 324//324 322//322 325//325 
f 326//326 324//324 327//327 
f 328//328 326//326 329//329 
f 330//330 328//328 331//331 
f 332//332 330//330 333//333 
f 334//334 332//332 335//335 
f 336//336 334//334 337//337 
f 338//338 336//336 339//339 
f 340//340 338//338 341//341 
f 342//342 340//340 343//343 
f 344//344 342//342 345//345 
f 346//346 344//344 347//347 
f 348//348 346//346 349//349 
f 350//350 348//348 351//351 
f 352//352 350//350 353//353 
f 354//354 352//352 355//355 
f 242//242 354//354 356//356 
f 356//356 243//243 242//242 
f 355//355 356//356 354//354 
f 353//353 355//355 352//352 
f 351//351 353//353 350//350 
f 349//349 351//351 348//348 
f 347//347 349//349 346//346 
f 345//345 347//347 344//344 
f 343//343 345//345 342//342 
f 341//341 343//343 340//340 
f 339//339 341//341 338//338 
f 337//337 339//339 336//336 
f 335//335 337//337 334//334 
f 333//333 335//335 332//332 
f 331//331 333//333 330//330 
f 329//329 331//331 328//328 
f 327//327 329//329 326//326 
f 325//325 327//327 324//324 
f 323//323 325//325 322//322 
f 321//321 323//323 320//320 
f 319//319 321//321 318//318 
f 317//317 319//319 316//316 
f 315//315 317//317 314//314 
f 313//313 315//315 312//312 
f 311//311 313//313 310//310 
f 309//309 311//311 308//308 
f 307//307 309//309 306//306 
f 305//305 307//307 304//304 
f 303//303 305//305 302//302 
f 301//301 303//303 300//300 
f 299//299 301//301 298//298 
f 297//297 299//299 296//296 
f 295//295 297//297 294//294 
f 293//293 295//295 292//292 
f 291//291 293//293 290//290 
f 289//289 291//291 288//288 
f 287//287 289//289 286//286 
f 285//285 287//287 284//284 
f 283//283 285//285 282//282 
f 281//281 283//283 280//280 
f 279//279 281//281 278//278 
f 277//277 279//279 276//276 
f 275//275 277//277 274//274 
f 273//273 275//275 272//272 
f 271//271 273//273 270//270 
f 269//269 271//271 268//268 
f 267//267 269//269 266//266 
f 265//265 267//267 264//264 
f 263//263 265//265 262//262 
f 261//261 263//263 260//260 
f 259//259 261//261 258//258 
f 257//257 259//259 256//256 
f 255//255 257//257 254//254 
f 253//253 255//255 252//252 
f 251//251 253//253 250//250 
f 249//249 251//251 248//248 
f 247//247 249//249 246//246 
f 245//245 247//247 244//244 
f 243//243 245//245 241//241 
o mesh16375
v 0.06985 0.0199099 -0.0242065 
v 0.06985 0.0381 -0.1016 
v 0.06985 0.0253907 -0.0822062 
v 0.06985 0.0253907 -0.0828938 
v 0.06985 0.0246603 -0.0855244 
v 0.06985 0.024949 -0.0849004 
v 0.06985 0.0381 -0.00635 
v 0.06985 0.0230441 -0.0205166 
v 0.06985 0.0230441 -0.0200834 
v 0.06985 0.0194825 -0.0242766 
v 0.06985 0.0243058 -0.0861135 
v 0.06985 0.0228929 -0.0876052 
v 0.06985 0.0234169 -0.0871601 
v 0.06985 0.0207296 -0.0166697 
v 0.06985 0.0203272 -0.0165094 
v 0.06985 0.0229973 -0.0209471 
v 0.06985 0.0203272 -0.0240906 
v 0.06985 0.0207296 -0.0239303 
v 0.06985 0.0253163 -0.0835773 
v 0.06985 0.0251685 -0.0842488 
v 0.06985 0.0238897 -0.0866609 
v 0.06985 0.0199099 -0.0163935 
v 0.06985 0.0218008 -0.017396 
v 0.06985 0.0214707 -0.0171156 
v 0.06985 0.0229973 -0.0196529 
v 0.06985 0.0211122 -0.0237274 
v 0.06985 0.0214707 -0.0234844 
v 0.06985 0.0211122 -0.0168726 
v 0.06985 0.0220986 -0.0177105 
v 0.06985 0.0227659 -0.0188194 
v 0.06985 0.022584 -0.0184264 
v 0.06985 0.0229042 -0.0213701 
v 0.06985 0.0220986 -0.0228895 
v 0.06985 0.0223608 -0.0225447 
v 0.06985 0.0218008 -0.023204 
v 0.06985 0.0251685 -0.0808512 
v 0.06985 0.024949 -0.0801996 
v 0.06985 0 -0.1016 
v 0.06985 0.0129315 -0.0842488 
v 0.06985 0.013151 -0.0849004 
v 0.06985 0 -0.00635 
v 0.06985 0.013151 -0.0801996 
v 0.06985 0.0129315 -0.0808512 
v 0.06985 0.0137942 -0.0789865 
v 0.06985 0.0134397 -0.0795756 
v 0.06985 0.0176849 -0.0763485 
v 0.06985 0.0150559 -0.0205166 
v 0.06985 0.0223608 -0.0180553 
v 0.06985 0.0229042 -0.0192299 
v 0.06985 0.0227659 -0.0217806 
v 0.06985 0.022584 -0.0221736 
v 0.06985 0.0210776 -0.0765324 
v 0.06985 0.0204151 -0.0763485 
v 0.06985 0.0253163 -0.0815227 
v 0.06985 0.0152071 -0.0876052 
v 0.06985 0.0157762 -0.087991 
v 0.06985 0.0134397 -0.0855244 
v 0.06985 0.0137942 -0.0861135 
v 0.06985 0.0127837 -0.0835773 
v 0.06985 0.0127093 -0.0822062 
v 0.06985 0.0127093 -0.0828938 
v 0.06985 0.0142103 -0.0784391 
v 0.06985 0.0150559 -0.0200834 
v 0.06985 0.0217163 -0.0883131 
v 0.06985 0.0223238 -0.087991 
v 0.06985 0.0217163 -0.0767869 
v 0.06985 0.0238897 -0.0784391 
v 0.06985 0.0234169 -0.0779399 
v 0.06985 0.0246603 -0.0795756 
v 0.06985 0.0243058 -0.0789865 
v 0.06985 0.0146831 -0.0871601 
v 0.06985 0.0127837 -0.0815227 
v 0.06985 0.0152071 -0.0774948 
v 0.06985 0.0146831 -0.0779399 
v 0.06985 0.01905 -0.0762 
v 0.06985 0.0183634 -0.0762372 
v 0.06985 0.0151958 -0.0192299 
v 0.06985 0.0151027 -0.0196529 
v 0.06985 0.0162992 -0.017396 
v 0.06985 0.0160014 -0.0177105 
v 0.06985 0.0223238 -0.077109 
v 0.06985 0.0228929 -0.0774948 
v 0.06985 0.0151027 -0.0209471 
v 0.06985 0.0142103 -0.0866609 
v 0.06985 0.0157392 -0.0180553 
v 0.06985 0.015516 -0.0184264 
v 0.06985 0.0166293 -0.0171156 
v 0.06985 0.0186175 -0.0163234 
v 0.06985 0.0181901 -0.0163935 
v 0.06985 0.0186175 -0.0242766 
v 0.06985 0.01905 -0.0243 
v 0.06985 0.0160014 -0.0228895 
v 0.06985 0.0162992 -0.023204 
v 0.06985 0.015516 -0.0221736 
v 0.06985 0.0157392 -0.0225447 
v 0.06985 0.0151958 -0.0213701 
v 0.06985 0.0157762 -0.077109 
v 0.06985 0.0170224 -0.0765324 
v 0.06985 0.0163837 -0.0767869 
v 0.06985 0.0153341 -0.0188194 
v 0.06985 0.0173704 -0.0166697 
v 0.06985 0.0169878 -0.0168726 
v 0.06985 0.0177728 -0.0165094 
v 0.06985 0.0194825 -0.0163234 
v 0.06985 0.0173704 -0.0239303 
v 0.06985 0.0177728 -0.0240906 
v 0.06985 0.0153341 -0.0217806 
v 0.06985 0.0181901 -0.0242065 
v 0.06985 0.0166293 -0.0234844 
v 0.06985 0.0169878 -0.0237274 
v 0.06985 0.01905 -0.0889 
v 0.06985 0.0163837 -0.0883131 
v 0.06985 0.0170224 -0.0885676 
v 0.06985 0.01905 -0.0163 
v 0.06985 0.0197366 -0.0888628 
v 0.06985 0.0176849 -0.0887515 
v 0.06985 0.0183634 -0.0888628 
v 0.06985 0.0204151 -0.0887515 
v 0.06985 0.0210776 -0.0885676 
v 0.06985 0.0197366 -0.0762372 
vn -1 0 0 
vn -1 0 0 
vn -1 0 0 
vn -1 0 0 
vn -1 0 0 
vn -1 0 0 
vn -1 0 0 
vn -1 0 0 
vn -1 0 0 
vn -1 0 0 
vn -1 0 0 
vn -1 0 0 
vn -1 0 0 
vn -1 0 0 
vn -1 0 0 
vn -1 0 0 
vn -1 0 0 
vn -1 0 0 
vn -1 0 0 
vn -1 0 0 
vn -1 0 0 
vn -1 0 0 
vn -1 0 0 
vn -1 0 0 
vn -1 0 0 
vn -1 0 0 
vn -1 0 0 
vn -1 0 0 
vn -1 0 0 
vn -1 0 0 
vn -1 0 0 
vn -1 0 0 
vn -1 0 0 
vn -1 0 0 
vn -1 0 0 
vn -1 0 0 
vn -1 0 0 
vn -1 0 0 
vn -1 0 0 
vn -1 0 0 
vn -1 0 0 
vn -1 0 0 
vn -1 0 0 
vn -1 0 0 
vn -1 0 0 
vn -1 0 0 
vn -1 0 0 
vn -1 0 0 
vn -1 0 0 
vn -1 0 0 
vn -1 0 0 
vn -1 0 0 
vn -1 0 0 
vn -1 0 0 
vn -1 0 0 
vn -1 0 0 
vn -1 0 0 
vn -1 0 0 
vn -1 0 0 
vn -1 0 0 
vn -1 0 0 
vn -1 0 0 
vn -1 0 0 
vn -1 0 0 
vn -1 0 0 
vn -1 0 0 
vn -1 0 0 
vn -1 0 0 
vn -1 0 0 
vn -1 0 0 
vn -1 0 0 
vn -1 0 0 
vn -1 0 0 
vn -1 0 0 
vn -1 0 0 
vn -1 0 0 
vn -1 0 0 
vn -1 0 0 
vn -1 0 0 
vn -1 0 0 
vn -1 0 0 
vn -1 0 0 
vn -1 0 0 
vn -1 0 0 
vn -1 0 0 
vn -1 0 0 
vn -1 0 0 
vn -1 0 0 
vn -1 0 0 
vn -1 0 0 
vn -1 0 0 
vn -1 0 0 
vn -1 0 0 
vn -1 0 0 
vn -1 0 0 
vn -1 0 0 
vn -1 0 0 
vn -1 0 0 
vn -1 0 0 
vn -1 0 0 
vn -1 0 0 
vn -1 0 0 
vn -1 0 0 
vn -1 0 0 
vn -1 0 0 
vn -1 0 0 
vn -1 0 0 
vn -1 0 0 
vn -1 0 0 
vn -1 0 0 
vn -1 0 0 
vn -1 0 0 
vn -1 0 0 
vn -1 0 0 
vn -1 0 0 
vn -1 0 0 
vn -1 0 0 
vn -1 0 0 
vn -1 0 0 
vn -1 0 0 
f 357//357 358//358 359//359 
f 358//358 360//360 359//359 
f 358//358 361//361 362//362 
f 363//363 364//364 365//365 
f 359//359 366//366 357//357 
f 358//358 367//367 361//361 
f 358//358 368//368 369//369 
f 363//363 370//370 371//371 
f 363//363 372//372 364//364 
f 358//358 373//373 374//374 
f 358//358 375//375 360//360 
f 362//362 376//376 358//358 
f 369//369 377//377 358//358 
f 371//371 378//378 363//363 
f 363//363 379//379 380//380 
f 365//365 381//381 363//363 
f 358//358 382//382 383//383 
f 357//357 373//373 358//358 
f 377//377 367//367 358//358 
f 363//363 384//384 370//370 
f 363//363 385//385 379//379 
f 363//363 386//386 387//387 
f 363//363 388//388 372//372 
f 358//358 389//389 390//390 
f 383//383 391//391 358//358 
f 376//376 375//375 358//358 
f 366//366 392//392 393//393 
f 394//394 395//395 396//396 
f 397//397 398//398 399//399 
f 397//397 400//400 401//401 
f 402//402 397//397 403//403 
f 380//380 384//384 363//363 
f 387//387 404//404 363//363 
f 381//381 405//405 363//363 
f 358//358 406//406 388//388 
f 390//390 407//407 358//358 
f 374//374 382//382 358//358 
f 366//366 408//408 409//409 
f 366//366 410//410 392//392 
f 394//394 411//411 412//412 
f 394//394 413//413 414//414 
f 394//394 415//415 395//395 
f 394//394 416//416 417//417 
f 399//399 394//394 397//397 
f 397//397 418//418 400//400 
f 397//397 419//419 403//403 
f 404//404 385//385 363//363 
f 388//388 363//363 358//358 
f 391//391 389//389 358//358 
f 358//358 420//420 421//421 
f 366//366 422//422 408//408 
f 366//366 423//423 424//424 
f 366//366 425//425 426//426 
f 366//366 359//359 410//410 
f 394//394 427//427 411//411 
f 396//396 413//413 394//394 
f 394//394 428//428 416//416 
f 401//401 398//398 397//397 
f 397//397 429//429 430//430 
f 403//403 431//431 432//432 
f 397//397 433//433 434//434 
f 397//397 435//435 436//436 
f 405//405 386//386 363//363 
f 421//421 368//368 358//358 
f 366//366 437//437 422//422 
f 424//424 438//438 366//366 
f 393//393 425//425 366//366 
f 409//409 403//403 439//439 
f 394//394 440//440 427//427 
f 417//417 415//415 394//394 
f 430//430 418//418 397//397 
f 434//434 419//419 397//397 
f 397//397 441//441 442//442 
f 397//397 443//443 435//435 
f 397//397 444//444 445//445 
f 407//407 406//406 358//358 
f 409//409 446//446 447//447 
f 426//426 423//423 366//366 
f 409//409 448//448 449//449 
f 409//409 450//450 451//451 
f 439//439 452//452 409//409 
f 414//414 440//440 394//394 
f 397//397 453//453 429//429 
f 397//397 454//454 455//455 
f 397//397 456//456 433//433 
f 436//436 441//441 397//397 
f 397//397 457//457 458//458 
f 445//445 459//459 397//397 
f 378//378 460//460 363//363 
f 438//438 437//437 366//366 
f 409//409 461//461 462//462 
f 451//451 448//448 409//409 
f 452//452 463//463 409//409 
f 399//399 428//428 394//394 
f 397//397 402//402 454//454 
f 442//442 456//456 397//397 
f 459//459 457//457 397//397 
f 409//409 447//447 366//366 
f 462//462 464//464 409//409 
f 409//409 465//465 466//466 
f 463//463 450//450 409//409 
f 358//358 394//394 467//467 
f 394//394 468//468 469//469 
f 455//455 453//453 397//397 
f 458//458 443//443 397//397 
f 397//397 363//363 470//470 
f 464//464 446//446 409//409 
f 449//449 465//465 409//409 
f 467//467 471//471 358//358 
f 394//394 472//472 473//473 
f 412//412 468//468 394//394 
f 470//470 444//444 397//397 
f 466//466 461//461 409//409 
f 358//358 474//474 475//475 
f 473//473 467//467 394//394 
f 403//403 432//432 402//402 
f 475//475 420//420 358//358 
f 469//469 472//472 394//394 
f 403//403 409//409 476//476 
f 471//471 474//474 358//358 
f 460//460 470//470 363//363 
f 476//476 431//431 403//403 
o mesh16376
v 0 0.0381 -0.1016 
v 0 0.0381 0 
v 0.00635 0.0381 -0.00635 
v 0.0762 0.0381 0 
v 0.06985 0.0381 -0.00635 
v 0.0762 0.0381 -0.1016 
v 0.06985 0.0381 -0.1016 
v 0.00635 0.0381 -0.1016 
vn 0 1 0 
vn 0 1 0 
vn 0 1 0 
vn 0 1 0 
vn 0 1 0 
vn 0 1 0 
vn 0 1 0 
vn 0 1 0 
f 477//477 478//478 479//479 
f 478//478 480//480 481//481 
f 481//481 479//479 478//478 
f 482//482 483//483 481//481 
f 481//481 480//480 482//482 
f 479//479 484//484 477//477 
o mesh16377
v 0.0762 0 -0.1016 
v 0.0762 0 0 
v 0.06985 0 -0.00635 
v 0 0 0 
v 0.00635 0 -0.00635 
v 0 0 -0.1016 
v 0.00635 0 -0.1016 
v 0.06985 0 -0.1016 
vn 0 -1 0 
vn 0 -1 0 
vn 0 -1 0 
vn 0 -1 0 
vn 0 -1 0 
vn 0 -1 0 
vn 0 -1 0 
vn 0 -1 0 
f 485//485 486//486 487//487 
f 488//488 489//489 487//487 
f 487//487 486//486 488//488 
f 490//490 491//491 489//489 
f 489//489 488//488 490//490 
f 487//487 492//492 485//485 
o mesh16378
v 0.00635 0.0381 -0.1016 
v 0.00635 0 -0.1016 
v 0 0 -0.1016 
v 0 0.0381 -0.1016 
vn 0 0 -1 
vn 0 0 -1 
vn 0 0 -1 
vn 0 0 -1 
f 493//493 494//494 495//495 
f 495//495 496//496 493//493 
o mesh16379
v 0 0.0199099 -0.0242065 
v 0 0.0381 -0.1016 
v 0 0.0253907 -0.0822062 
v 0 0.0253907 -0.0828938 
v 0 0.0246603 -0.0855244 
v 0 0.024949 -0.0849004 
v 0 0.0381 0 
v 0 0.0230441 -0.0205166 
v 0 0.0230441 -0.0200834 
v 0 0.0194825 -0.0242766 
v 0 0.0243058 -0.0861135 
v 0 0.0228929 -0.0876052 
v 0 0.0234169 -0.0871601 
v 0 0.0207296 -0.0166697 
v 0 0.0203272 -0.0165094 
v 0 0.0229973 -0.0209471 
v 0 0.0203272 -0.0240906 
v 0 0.0207296 -0.0239303 
v 0 0.0253163 -0.0835773 
v 0 0.0251685 -0.0842488 
v 0 0.0238897 -0.0866609 
v 0 0.0199099 -0.0163935 
v 0 0.0218008 -0.017396 
v 0 0.0214707 -0.0171156 
v 0 0.0229973 -0.0196529 
v 0 0.0211122 -0.0237274 
v 0 0.0214707 -0.0234844 
v 0 0.0211122 -0.0168726 
v 0 0.0220986 -0.0177105 
v 0 0.0227659 -0.0188194 
v 0 0.022584 -0.0184264 
v 0 0.0229042 -0.0213701 
v 0 0.0220986 -0.0228895 
v 0 0.0223608 -0.0225447 
v 0 0.0218008 -0.023204 
v 0 0.0251685 -0.0808512 
v 0 0.024949 -0.0801996 
v 0 0 -0.1016 
v 0 0.0129315 -0.0842488 
v 0 0.013151 -0.0849004 
v 0 0 0 
v 0 0.013151 -0.0801996 
v 0 0.0129315 -0.0808512 
v 0 0.0137942 -0.0789865 
v 0 0.0134397 -0.0795756 
v 0 0.0176849 -0.0763485 
v 0 0.0150559 -0.0205166 
v 0 0.0223608 -0.0180553 
v 0 0.0229042 -0.0192299 
v 0 0.0227659 -0.0217806 
v 0 0.022584 -0.0221736 
v 0 0.0210776 -0.0765324 
v 0 0.0204151 -0.0763485 
v 0 0.0253163 -0.0815227 
v 0 0.0152071 -0.0876052 
v 0 0.0157762 -0.087991 
v 0 0.0134397 -0.0855244 
v 0 0.0137942 -0.0861135 
v 0 0.0127837 -0.0835773 
v 0 0.0127093 -0.0822062 
v 0 0.0127093 -0.0828938 
v 0 0.0142103 -0.0784391 
v 0 0.0150559 -0.0200834 
v 0 0.0217163 -0.0883131 
v 0 0.0223238 -0.087991 
v 0 0.0217163 -0.0767869 
v 0 0.0238897 -0.0784391 
v 0 0.0234169 -0.0779399 
v 0 0.0246603 -0.0795756 
v 0 0.0243058 -0.0789865 
v 0 0.0146831 -0.0871601 
v 0 0.0127837 -0.0815227 
v 0 0.0152071 -0.0774948 
v 0 0.0146831 -0.0779399 
v 0 0.01905 -0.0762 
v 0 0.0183634 -0.0762372 
v 0 0.0151958 -0.0192299 
v 0 0.0151027 -0.0196529 
v 0 0.0162992 -0.017396 
v 0 0.0160014 -0.0177105 
v 0 0.0223238 -0.077109 
v 0 0.0228929 -0.0774948 
v 0 0.0151027 -0.0209471 
v 0 0.0142103 -0.0866609 
v 0 0.0157392 -0.0180553 
v 0 0.015516 -0.0184264 
v 0 0.0166293 -0.0171156 
v 0 0.0186175 -0.0163234 
v 0 0.0181901 -0.0163935 
v 0 0.0186175 -0.0242766 
v 0 0.01905 -0.0243 
v 0 0.0160014 -0.0228895 
v 0 0.0162992 -0.023204 
v 0 0.015516 -0.0221736 
v 0 0.0157392 -0.0225447 
v 0 0.0151958 -0.0213701 
v 0 0.0157762 -0.077109 
v 0 0.0170224 -0.0765324 
v 0 0.0163837 -0.0767869 
v 0 0.0153341 -0.0188194 
v 0 0.0173704 -0.0166697 
v 0 0.0169878 -0.0168726 
v 0 0.0177728 -0.0165094 
v 0 0.0194825 -0.0163234 
v 0 0.0173704 -0.0239303 
v 0 0.0177728 -0.0240906 
v 0 0.0153341 -0.0217806 
v 0 0.0181901 -0.0242065 
v 0 0.0166293 -0.0234844 
v 0 0.0169878 -0.0237274 
v 0 0.01905 -0.0889 
v 0 0.0163837 -0.0883131 
v 0 0.0170224 -0.0885676 
v 0 0.01905 -0.0163 
v 0 0.0197366 -0.0888628 
v 0 0.0176849 -0.0887515 
v 0 0.0183634 -0.0888628 
v 0 0.0204151 -0.0887515 
v 0 0.0210776 -0.0885676 
v 0 0.0197366 -0.0762372 
vn -1 0 0 
vn -1 0 0 
vn -1 0 0 
vn -1 0 0 
vn -1 0 0 
vn -1 0 0 
vn -1 0 0 
vn -1 0 0 
vn -1 0 0 
vn -1 0 0 
vn -1 0 0 
vn -1 0 0 
vn -1 0 0 
vn -1 0 0 
vn -1 0 0 
vn -1 0 0 
vn -1 0 0 
vn -1 0 0 
vn -1 0 0 
vn -1 0 0 
vn -1 0 0 
vn -1 0 0 
vn -1 0 0 
vn -1 0 0 
vn -1 0 0 
vn -1 0 0 
vn -1 0 0 
vn -1 0 0 
vn -1 0 0 
vn -1 0 0 
vn -1 0 0 
vn -1 0 0 
vn -1 0 0 
vn -1 0 0 
vn -1 0 0 
vn -1 0 0 
vn -1 0 0 
vn -1 0 0 
vn -1 0 0 
vn -1 0 0 
vn -1 0 0 
vn -1 0 0 
vn -1 0 0 
vn -1 0 0 
vn -1 0 0 
vn -1 0 0 
vn -1 0 0 
vn -1 0 0 
vn -1 0 0 
vn -1 0 0 
vn -1 0 0 
vn -1 0 0 
vn -1 0 0 
vn -1 0 0 
vn -1 0 0 
vn -1 0 0 
vn -1 0 0 
vn -1 0 0 
vn -1 0 0 
vn -1 0 0 
vn -1 0 0 
vn -1 0 0 
vn -1 0 0 
vn -1 0 0 
vn -1 0 0 
vn -1 0 0 
vn -1 0 0 
vn -1 0 0 
vn -1 0 0 
vn -1 0 0 
vn -1 0 0 
vn -1 0 0 
vn -1 0 0 
vn -1 0 0 
vn -1 0 0 
vn -1 0 0 
vn -1 0 0 
vn -1 0 0 
vn -1 0 0 
vn -1 0 0 
vn -1 0 0 
vn -1 0 0 
vn -1 0 0 
vn -1 0 0 
vn -1 0 0 
vn -1 0 0 
vn -1 0 0 
vn -1 0 0 
vn -1 0 0 
vn -1 0 0 
vn -1 0 0 
vn -1 0 0 
vn -1 0 0 
vn -1 0 0 
vn -1 0 0 
vn -1 0 0 
vn -1 0 0 
vn -1 0 0 
vn -1 0 0 
vn -1 0 0 
vn -1 0 0 
vn -1 0 0 
vn -1 0 0 
vn -1 0 0 
vn -1 0 0 
vn -1 0 0 
vn -1 0 0 
vn -1 0 0 
vn -1 0 0 
vn -1 0 0 
vn -1 0 0 
vn -1 0 0 
vn -1 0 0 
vn -1 0 0 
vn -1 0 0 
vn -1 0 0 
vn -1 0 0 
vn -1 0 0 
vn -1 0 0 
vn -1 0 0 
f 497//497 498//498 499//499 
f 498//498 500//500 499//499 
f 498//498 501//501 502//502 
f 503//503 504//504 505//505 
f 499//499 506//506 497//497 
f 498//498 507//507 501//501 
f 498//498 508//508 509//509 
f 503//503 510//510 511//511 
f 503//503 512//512 504//504 
f 498//498 513//513 514//514 
f 498//498 515//515 500//500 
f 502//502 516//516 498//498 
f 509//509 517//517 498//498 
f 511//511 518//518 503//503 
f 503//503 519//519 520//520 
f 505//505 521//521 503//503 
f 498//498 522//522 523//523 
f 497//497 513//513 498//498 
f 517//517 507//507 498//498 
f 503//503 524//524 510//510 
f 503//503 525//525 519//519 
f 503//503 526//526 527//527 
f 503//503 528//528 512//512 
f 498//498 529//529 530//530 
f 523//523 531//531 498//498 
f 516//516 515//515 498//498 
f 506//506 532//532 533//533 
f 534//534 535//535 536//536 
f 537//537 538//538 539//539 
f 537//537 540//540 541//541 
f 542//542 537//537 543//543 
f 520//520 524//524 503//503 
f 527//527 544//544 503//503 
f 521//521 545//545 503//503 
f 498//498 546//546 528//528 
f 530//530 547//547 498//498 
f 514//514 522//522 498//498 
f 506//506 548//548 549//549 
f 506//506 550//550 532//532 
f 534//534 551//551 552//552 
f 534//534 553//553 554//554 
f 534//534 555//555 535//535 
f 534//534 556//556 557//557 
f 539//539 534//534 537//537 
f 537//537 558//558 540//540 
f 537//537 559//559 543//543 
f 544//544 525//525 503//503 
f 528//528 503//503 498//498 
f 531//531 529//529 498//498 
f 498//498 560//560 561//561 
f 506//506 562//562 548//548 
f 506//506 563//563 564//564 
f 506//506 565//565 566//566 
f 506//506 499//499 550//550 
f 534//534 567//567 551//551 
f 536//536 553//553 534//534 
f 534//534 568//568 556//556 
f 541//541 538//538 537//537 
f 537//537 569//569 570//570 
f 543//543 571//571 572//572 
f 537//537 573//573 574//574 
f 537//537 575//575 576//576 
f 545//545 526//526 503//503 
f 561//561 508//508 498//498 
f 506//506 577//577 562//562 
f 564//564 578//578 506//506 
f 533//533 565//565 506//506 
f 549//549 543//543 579//579 
f 534//534 580//580 567//567 
f 557//557 555//555 534//534 
f 570//570 558//558 537//537 
f 574//574 559//559 537//537 
f 537//537 581//581 582//582 
f 537//537 583//583 575//575 
f 537//537 584//584 585//585 
f 547//547 546//546 498//498 
f 549//549 586//586 587//587 
f 566//566 563//563 506//506 
f 549//549 588//588 589//589 
f 549//549 590//590 591//591 
f 579//579 592//592 549//549 
f 554//554 580//580 534//534 
f 537//537 593//593 569//569 
f 537//537 594//594 595//595 
f 537//537 596//596 573//573 
f 576//576 581//581 537//537 
f 537//537 597//597 598//598 
f 585//585 599//599 537//537 
f 518//518 600//600 503//503 
f 578//578 577//577 506//506 
f 549//549 601//601 602//602 
f 591//591 588//588 549//549 
f 592//592 603//603 549//549 
f 539//539 568//568 534//534 
f 537//537 542//542 594//594 
f 582//582 596//596 537//537 
f 599//599 597//597 537//537 
f 549//549 587//587 506//506 
f 602//602 604//604 549//549 
f 549//549 605//605 606//606 
f 603//603 590//590 549//549 
f 498//498 534//534 607//607 
f 534//534 608//608 609//609 
f 595//595 593//593 537//537 
f 598//598 583//583 537//537 
f 537//537 503//503 610//610 
f 604//604 586//586 549//549 
f 589//589 605//605 549//549 
f 607//607 611//611 498//498 
f 534//534 612//612 613//613 
f 552//552 608//608 534//534 
f 610//610 584//584 537//537 
f 606//606 601//601 549//549 
f 498//498 614//614 615//615 
f 613//613 607//607 534//534 
f 543//543 572//572 542//542 
f 615//615 560//560 498//498 
f 609//609 612//612 534//534 
f 543//543 549//549 616//616 
f 611//611 614//614 498//498 
f 600//600 610//610 503//503 
f 616//616 571//571 543//543 
o mesh16380
v 0.00635 0.0204151 -0.0763485 
v 0.00635 0.0381 -0.00635 
v 0.00635 0.0230441 -0.0205166 
v 0.00635 0 -0.00635 
v 0.00635 0.0150559 -0.0200834 
v 0.00635 0.0151027 -0.0196529 
v 0.00635 0.0151027 -0.0209471 
v 0.00635 0.0150559 -0.0205166 
v 0.00635 0.0230441 -0.0200834 
v 0.00635 0.01905 -0.0762 
v 0.00635 0.0197366 -0.0762372 
v 0.00635 0.0199099 -0.0163935 
v 0.00635 0.0203272 -0.0165094 
v 0.00635 0.0157392 -0.0180553 
v 0.00635 0.0160014 -0.0177105 
v 0.00635 0.0151958 -0.0192299 
v 0.00635 0.0381 -0.1016 
v 0.00635 0.0238897 -0.0866609 
v 0.00635 0.0234169 -0.0871601 
v 0.00635 0.0251685 -0.0842488 
v 0.00635 0.024949 -0.0849004 
v 0.00635 0.0229973 -0.0196529 
v 0.00635 0.0211122 -0.0168726 
v 0.00635 0.0214707 -0.0171156 
v 0.00635 0.0194825 -0.0163234 
v 0.00635 0.0177728 -0.0165094 
v 0.00635 0.0181901 -0.0163935 
v 0.00635 0.0162992 -0.017396 
v 0.00635 0.0153341 -0.0188194 
v 0.00635 0.015516 -0.0184264 
v 0.00635 0.0151958 -0.0213701 
v 0.00635 0 -0.1016 
v 0.00635 0.0153341 -0.0217806 
v 0.00635 0.0181901 -0.0242065 
v 0.00635 0.0127093 -0.0822062 
v 0.00635 0.0243058 -0.0861135 
v 0.00635 0.0246603 -0.0855244 
v 0.00635 0.0246603 -0.0795756 
v 0.00635 0.024949 -0.0801996 
v 0.00635 0.0229042 -0.0192299 
v 0.00635 0.0176849 -0.0763485 
v 0.00635 0.0183634 -0.0762372 
v 0.00635 0.0223608 -0.0180553 
v 0.00635 0.022584 -0.0184264 
v 0.00635 0.0218008 -0.017396 
v 0.00635 0.0207296 -0.0166697 
v 0.00635 0.0173704 -0.0166697 
v 0.00635 0.0166293 -0.0171156 
v 0.00635 0.0169878 -0.0168726 
v 0.00635 0.0160014 -0.0228895 
v 0.00635 0.0157392 -0.0225447 
v 0.00635 0.0127093 -0.0828938 
v 0.00635 0.0134397 -0.0855244 
v 0.00635 0.013151 -0.0849004 
v 0.00635 0.0253907 -0.0822062 
v 0.00635 0.0253907 -0.0828938 
v 0.00635 0.0251685 -0.0808512 
v 0.00635 0.0253163 -0.0815227 
v 0.00635 0.0243058 -0.0789865 
v 0.00635 0.0220986 -0.0177105 
v 0.00635 0.015516 -0.0221736 
v 0.00635 0.0166293 -0.0234844 
v 0.00635 0.0162992 -0.023204 
v 0.00635 0.0177728 -0.0240906 
v 0.00635 0.0127837 -0.0835773 
v 0.00635 0.0129315 -0.0842488 
v 0.00635 0.0142103 -0.0866609 
v 0.00635 0.0137942 -0.0861135 
v 0.00635 0.0163837 -0.0883131 
v 0.00635 0.0157762 -0.087991 
v 0.00635 0.01905 -0.0243 
v 0.00635 0.0127837 -0.0815227 
v 0.00635 0.0129315 -0.0808512 
v 0.00635 0.0253163 -0.0835773 
v 0.00635 0.0227659 -0.0188194 
v 0.00635 0.01905 -0.0163 
v 0.00635 0.0186175 -0.0242766 
v 0.00635 0.0152071 -0.0876052 
v 0.00635 0.0134397 -0.0795756 
v 0.00635 0.0137942 -0.0789865 
v 0.00635 0.013151 -0.0801996 
v 0.00635 0.0203272 -0.0240906 
v 0.00635 0.0199099 -0.0242065 
v 0.00635 0.0211122 -0.0237274 
v 0.00635 0.0207296 -0.0239303 
v 0.00635 0.0218008 -0.023204 
v 0.00635 0.0214707 -0.0234844 
v 0.00635 0.0238897 -0.0784391 
v 0.00635 0.0186175 -0.0163234 
v 0.00635 0.0173704 -0.0239303 
v 0.00635 0.0169878 -0.0237274 
v 0.00635 0.0146831 -0.0871601 
v 0.00635 0.0142103 -0.0784391 
v 0.00635 0.0146831 -0.0779399 
v 0.00635 0.0220986 -0.0228895 
v 0.00635 0.0229973 -0.0209471 
v 0.00635 0.0228929 -0.0876052 
v 0.00635 0.0223238 -0.087991 
v 0.00635 0.0228929 -0.0774948 
v 0.00635 0.0234169 -0.0779399 
v 0.00635 0.0170224 -0.0765324 
v 0.00635 0.0157762 -0.077109 
v 0.00635 0.0163837 -0.0767869 
v 0.00635 0.022584 -0.0221736 
v 0.00635 0.0223608 -0.0225447 
v 0.00635 0.0229042 -0.0213701 
v 0.00635 0.0223238 -0.077109 
v 0.00635 0.0210776 -0.0765324 
v 0.00635 0.0152071 -0.0774948 
v 0.00635 0.0227659 -0.0217806 
v 0.00635 0.0217163 -0.0767869 
v 0.00635 0.0176849 -0.0887515 
v 0.00635 0.0170224 -0.0885676 
v 0.00635 0.0217163 -0.0883131 
v 0.00635 0.0210776 -0.0885676 
v 0.00635 0.0194825 -0.0242766 
v 0.00635 0.01905 -0.0889 
v 0.00635 0.0204151 -0.0887515 
v 0.00635 0.0197366 -0.0888628 
v 0.00635 0.0183634 -0.0888628 
vn 1 0 0 
vn 1 0 0 
vn 1 0 0 
vn 1 0 0 
vn 1 0 0 
vn 1 0 0 
vn 1 0 0 
vn 1 0 0 
vn 1 0 0 
vn 1 0 0 
vn 1 0 0 
vn 1 0 0 
vn 1 0 0 
vn 1 0 0 
vn 1 0 0 
vn 1 0 0 
vn 1 0 0 
vn 1 0 0 
vn 1 0 0 
vn 1 0 0 
vn 1 0 0 
vn 1 0 0 
vn 1 0 0 
vn 1 0 0 
vn 1 0 0 
vn 1 0 0 
vn 1 0 0 
vn 1 0 0 
vn 1 0 0 
vn 1 0 0 
vn 1 0 0 
vn 1 0 0 
vn 1 0 0 
vn 1 0 0 
vn 1 0 0 
vn 1 0 0 
vn 1 0 0 
vn 1 0 0 
vn 1 0 0 
vn 1 0 0 
vn 1 0 0 
vn 1 0 0 
vn 1 0 0 
vn 1 0 0 
vn 1 0 0 
vn 1 0 0 
vn 1 0 0 
vn 1 0 0 
vn 1 0 0 
vn 1 0 0 
vn 1 0 0 
vn 1 0 0 
vn 1 0 0 
vn 1 0 0 
vn 1 0 0 
vn 1 0 0 
vn 1 0 0 
vn 1 0 0 
vn 1 0 0 
vn 1 0 0 
vn 1 0 0 
vn 1 0 0 
vn 1 0 0 
vn 1 0 0 
vn 1 0 0 
vn 1 0 0 
vn 1 0 0 
vn 1 0 0 
vn 1 0 0 
vn 1 0 0 
vn 1 0 0 
vn 1 0 0 
vn 1 0 0 
vn 1 0 0 
vn 1 0 0 
vn 1 0 0 
vn 1 0 0 
vn 1 0 0 
vn 1 0 0 
vn 1 0 0 
vn 1 0 0 
vn 1 0 0 
vn 1 0 0 
vn 1 0 0 
vn 1 0 0 
vn 1 0 0 
vn 1 0 0 
vn 1 0 0 
vn 1 0 0 
vn 1 0 0 
vn 1 0 0 
vn 1 0 0 
vn 1 0 0 
vn 1 0 0 
vn 1 0 0 
vn 1 0 0 
vn 1 0 0 
vn 1 0 0 
vn 1 0 0 
vn 1 0 0 
vn 1 0 0 
vn 1 0 0 
vn 1 0 0 
vn 1 0 0 
vn 1 0 0 
vn 1 0 0 
vn 1 0 0 
vn 1 0 0 
vn 1 0 0 
vn 1 0 0 
vn 1 0 0 
vn 1 0 0 
vn 1 0 0 
vn 1 0 0 
vn 1 0 0 
vn 1 0 0 
vn 1 0 0 
vn 1 0 0 
vn 1 0 0 
vn 1 0 0 
f 617//617 618//618 619//619 
f 620//620 621//621 622//622 
f 620//620 623//623 624//624 
f 618//618 625//625 619//619 
f 624//624 621//621 620//620 
f 619//619 626//626 627//627 
f 618//618 628//628 629//629 
f 620//620 630//630 631//631 
f 622//622 632//632 620//620 
f 633//633 634//634 635//635 
f 633//633 636//636 637//637 
f 618//618 638//638 625//625 
f 618//618 639//639 640//640 
f 618//618 641//641 628//628 
f 620//620 642//642 643//643 
f 631//631 644//644 620//620 
f 620//620 645//645 646//646 
f 620//620 647//647 623//623 
f 648//648 649//649 647//647 
f 650//650 648//648 651//651 
f 633//633 652//652 634//634 
f 637//637 653//653 633//633 
f 618//618 654//654 655//655 
f 618//618 656//656 638//638 
f 619//619 657//657 658//658 
f 618//618 659//659 660//660 
f 640//640 661//661 618//618 
f 629//629 662//662 618//618 
f 620//620 663//663 642//642 
f 620//620 664//664 665//665 
f 646//646 630//630 620//620 
f 647//647 620//620 648//648 
f 648//648 666//666 667//667 
f 648//648 668//668 651//651 
f 648//648 669//669 670//670 
f 653//653 652//652 633//633 
f 633//633 671//671 672//672 
f 618//618 673//673 674//674 
f 618//618 675//675 654//654 
f 658//658 626//626 619//619 
f 618//618 676//676 659//659 
f 662//662 639//639 618//618 
f 665//665 663//663 620//620 
f 632//632 645//645 620//620 
f 667//667 677//677 648//648 
f 648//648 678//678 679//679 
f 648//648 650//650 680//680 
f 648//648 681//681 668//668 
f 670//670 682//682 648//648 
f 648//648 683//683 684//684 
f 648//648 685//685 686//686 
f 687//687 688//688 689//689 
f 633//633 690//690 636//636 
f 633//633 674//674 671//671 
f 655//655 673//673 618//618 
f 618//618 691//691 656//656 
f 661//661 676//676 618//618 
f 618//618 620//620 692//692 
f 644//644 664//664 620//620 
f 679//679 666//666 648//648 
f 651//651 693//693 650//650 
f 684//684 669//669 648//648 
f 686//686 694//694 648//648 
f 687//687 695//695 696//696 
f 689//689 697//697 687//687 
f 657//657 698//698 699//699 
f 657//657 700//700 701//701 
f 657//657 702//702 703//703 
f 672//672 690//690 633//633 
f 618//618 704//704 675//675 
f 660//660 691//691 618//618 
f 620//620 705//705 692//692 
f 677//677 649//649 648//648 
f 648//648 706//706 707//707 
f 682//682 681//681 648//648 
f 694//694 708//708 648//648 
f 687//687 709//709 710//710 
f 697//697 695//695 687//687 
f 701//701 698//698 657//657 
f 657//657 711//711 702//702 
f 657//657 619//619 712//712 
f 633//633 713//713 714//714 
f 674//674 633//633 618//618 
f 618//618 715//715 716//716 
f 692//692 641//641 618//618 
f 707//707 678//678 648//648 
f 708//708 683//683 648//648 
f 693//693 651//651 688//688 
f 687//687 717//717 657//657 
f 687//687 718//718 719//719 
f 696//696 709//709 687//687 
f 703//703 700//700 657//657 
f 657//657 720//720 721//721 
f 712//712 722//722 657//657 
f 635//635 713//713 633//633 
f 618//618 723//723 715//715 
f 618//618 617//617 724//724 
f 643//643 705//705 620//620 
f 688//688 687//687 693//693 
f 719//719 717//717 687//687 
f 710//710 725//725 687//687 
f 721//721 711//711 657//657 
f 722//722 726//726 657//657 
f 716//716 704//704 618//618 
f 724//724 727//727 618//618 
f 680//680 706//706 648//648 
f 648//648 728//728 729//729 
f 725//725 718//718 687//687 
f 726//726 720//720 657//657 
f 633//633 730//730 731//731 
f 727//727 723//723 618//618 
f 729//729 685//685 648//648 
f 699//699 732//732 657//657 
f 648//648 633//633 733//733 
f 633//633 734//734 735//735 
f 714//714 730//730 633//633 
f 657//657 732//732 687//687 
f 733//733 736//736 648//648 
f 731//731 734//734 633//633 
f 736//736 728//728 648//648 
f 619//619 627//627 617//617 
f 735//735 733//733 633//633 
o mesh16381
v 0.00635 0.0183634 -0.0888628 
v 0.00635 0.01905 -0.0889 
v 0 0.01905 -0.0889 
v 0.00635 0.0176849 -0.0887515 
v 0 0.0183634 -0.0888628 
v 0.00635 0.0170224 -0.0885676 
v 0 0.0176849 -0.0887515 
v 0.00635 0.0163837 -0.0883131 
v 0 0.0170224 -0.0885676 
v 0.00635 0.0157762 -0.087991 
v 0 0.0163837 -0.0883131 
v 0.00635 0.0152071 -0.0876052 
v 0 0.0157762 -0.087991 
v 0.00635 0.0146831 -0.0871601 
v 0 0.0152071 -0.0876052 
v 0.00635 0.0142103 -0.0866609 
v 0 0.0146831 -0.0871601 
v 0.00635 0.0137942 -0.0861135 
v 0 0.0142103 -0.0866609 
v 0.00635 0.0134397 -0.0855244 
v 0 0.0137942 -0.0861135 
v 0.00635 0.013151 -0.0849004 
v 0 0.0134397 -0.0855244 
v 0.00635 0.0129315 -0.0842488 
v 0 0.013151 -0.0849004 
v 0.00635 0.0127837 -0.0835773 
v 0 0.0129315 -0.0842488 
v 0.00635 0.0127093 -0.0828938 
v 0 0.0127837 -0.0835773 
v 0.00635 0.0127093 -0.0822062 
v 0 0.0127093 -0.0828938 
v 0.00635 0.0127837 -0.0815227 
v 0 0.0127093 -0.0822062 
v 0.00635 0.0129315 -0.0808512 
v 0 0.0127837 -0.0815227 
v 0.00635 0.013151 -0.0801996 
v 0 0.0129315 -0.0808512 
v 0.00635 0.0134397 -0.0795756 
v 0 0.013151 -0.0801996 
v 0.00635 0.0137942 -0.0789865 
v 0 0.0134397 -0.0795756 
v 0.00635 0.0142103 -0.0784391 
v 0 0.0137942 -0.0789865 
v 0.00635 0.0146831 -0.0779399 
v 0 0.0142103 -0.0784391 
v 0.00635 0.0152071 -0.0774948 
v 0 0.0146831 -0.0779399 
v 0.00635 0.0157762 -0.077109 
v 0 0.0152071 -0.0774948 
v 0.00635 0.0163837 -0.0767869 
v 0 0.0157762 -0.077109 
v 0.00635 0.0170224 -0.0765324 
v 0 0.0163837 -0.0767869 
v 0.00635 0.0176849 -0.0763485 
v 0 0.0170224 -0.0765324 
v 0.00635 0.0183634 -0.0762372 
v 0 0.0176849 -0.0763485 
v 0.00635 0.01905 -0.0762 
v 0 0.0183634 -0.0762372 
v 0.00635 0.0197366 -0.0762372 
v 0 0.01905 -0.0762 
v 0.00635 0.0204151 -0.0763485 
v 0 0.0197366 -0.0762372 
v 0.00635 0.0210776 -0.0765324 
v 0 0.0204151 -0.0763485 
v 0.00635 0.0217163 -0.0767869 
v 0 0.0210776 -0.0765324 
v 0.00635 0.0223238 -0.077109 
v 0 0.0217163 -0.0767869 
v 0.00635 0.0228929 -0.0774948 
v 0 0.0223238 -0.077109 
v 0.00635 0.0234169 -0.0779399 
v 0 0.0228929 -0.0774948 
v 0.00635 0.0238897 -0.0784391 
v 0 0.0234169 -0.0779399 
v 0.00635 0.0243058 -0.0789865 
v 0 0.0238897 -0.0784391 
v 0.00635 0.0246603 -0.0795756 
v 0 0.0243058 -0.0789865 
v 0.00635 0.024949 -0.0801996 
v 0 0.0246603 -0.0795756 
v 0.00635 0.0251685 -0.0808512 
v 0 0.024949 -0.0801996 
v 0.00635 0.0253163 -0.0815227 
v 0 0.0251685 -0.0808512 
v 0.00635 0.0253907 -0.0822062 
v 0 0.0253163 -0.0815227 
v 0.00635 0.0253907 -0.0828938 
v 0 0.0253907 -0.0822062 
v 0.00635 0.0253163 -0.0835773 
v 0 0.0253907 -0.0828938 
v 0.00635 0.0251685 -0.0842488 
v 0 0.0253163 -0.0835773 
v 0.00635 0.024949 -0.0849004 
v 0 0.0251685 -0.0842488 
v 0.00635 0.0246603 -0.0855244 
v 0 0.024949 -0.0849004 
v 0.00635 0.0243058 -0.0861135 
v 0 0.0246603 -0.0855244 
v 0.00635 0.0238897 -0.0866609 
v 0 0.0243058 -0.0861135 
v 0.00635 0.0234169 -0.0871601 
v 0 0.0238897 -0.0866609 
v 0.00635 0.0228929 -0.0876052 
v 0 0.0234169 -0.0871601 
v 0.00635 0.0223238 -0.087991 
v 0 0.0228929 -0.0876052 
v 0.00635 0.0217163 -0.0883131 
v 0 0.0223238 -0.087991 
v 0.00635 0.0210776 -0.0885676 
v 0 0.0217163 -0.0883131 
v 0.00635 0.0204151 -0.0887515 
v 0 0.0210776 -0.0885676 
v 0.00635 0.0197366 -0.0888628 
v 0 0.0204151 -0.0887515 
v 0 0.0197366 -0.0888628 
vn 0 0.108119 0.994138 
vn 0 2.44929e-16 1 
vn 0 2.44929e-16 1 
vn 0 0.21497 0.976621 
vn 0 0.108119 0.994138 
vn 0 0.319302 0.947653 
vn 0 0.21497 0.976621 
vn 0 0.419889 0.907575 
vn 0 0.319302 0.947653 
vn 0 0.515554 0.856857 
vn 0 0.419889 0.907575 
vn 0 0.605174 0.796093 
vn 0 0.515554 0.856857 
vn 0 0.687699 0.725995 
vn 0 0.605174 0.796093 
vn 0 0.762162 0.647386 
vn 0 0.687699 0.725995 
vn 0 0.827689 0.561187 
vn 0 0.762162 0.647386 
vn 0 0.883512 0.468408 
vn 0 0.827689 0.561187 
vn 0 0.928977 0.370138 
vn 0 0.883512 0.468408 
vn 0 0.96355 0.267528 
vn 0 0.928977 0.370138 
vn 0 0.986827 0.161782 
vn 0 0.96355 0.267528 
vn 0 0.998533 0.0541389 
vn 0 0.986827 0.161782 
vn 0 0.998533 -0.0541389 
vn 0 0.998533 0.0541389 
vn 0 0.986827 -0.161782 
vn 0 0.998533 -0.0541389 
vn 0 0.96355 -0.267528 
vn 0 0.986827 -0.161782 
vn 0 0.928977 -0.370138 
vn 0 0.96355 -0.267528 
vn 0 0.883512 -0.468408 
vn 0 0.928977 -0.370138 
vn 0 0.827689 -0.561187 
vn 0 0.883512 -0.468408 
vn 0 0.762162 -0.647386 
vn 0 0.827689 -0.561187 
vn 0 0.687699 -0.725995 
vn 0 0.762162 -0.647386 
vn 0 0.605174 -0.796093 
vn 0 0.687699 -0.725995 
vn 0 0.515554 -0.856857 
vn 0 0.605174 -0.796093 
vn 0 0.419889 -0.907575 
vn 0 0.515554 -0.856857 
vn 0 0.319302 -0.947653 
vn 0 0.419889 -0.907575 
vn 0 0.21497 -0.976621 
vn 0 0.319302 -0.947653 
vn 0 0.108119 -0.994138 
vn 0 0.21497 -0.976621 
vn 0 -1.22465e-16 -1 
vn 0 0.108119 -0.994138 
vn 0 -0.108119 -0.994138 
vn 0 -1.22465e-16 -1 
vn 0 -0.21497 -0.976621 
vn 0 -0.108119 -0.994138 
vn 0 -0.319302 -0.947653 
vn 0 -0.21497 -0.976621 
vn 0 -0.419889 -0.907575 
vn 0 -0.319302 -0.947653 
vn 0 -0.515554 -0.856857 
vn 0 -0.419889 -0.907575 
vn 0 -0.605174 -0.796093 
vn 0 -0.515554 -0.856857 
vn 0 -0.687699 -0.725995 
vn 0 -0.605174 -0.796093 
vn 0 -0.762162 -0.647386 
vn 0 -0.687699 -0.725995 
vn 0 -0.827689 -0.561187 
vn 0 -0.762162 -0.647386 
vn 0 -0.883512 -0.468408 
vn 0 -0.827689 -0.561187 
vn 0 -0.928977 -0.370138 
vn 0 -0.883512 -0.468408 
vn 0 -0.96355 -0.267528 
vn 0 -0.928977 -0.370138 
vn 0 -0.986827 -0.161782 
vn 0 -0.96355 -0.267528 
vn 0 -0.998533 -0.0541389 
vn 0 -0.986827 -0.161782 
vn 0 -0.998533 0.0541389 
vn 0 -0.998533 -0.0541389 
vn 0 -0.986827 0.161782 
vn 0 -0.998533 0.0541389 
vn 0 -0.96355 0.267528 
vn 0 -0.986827 0.161782 
vn 0 -0.928977 0.370138 
vn 0 -0.96355 0.267528 
vn 0 -0.883512 0.468408 
vn 0 -0.928977 0.370138 
vn 0 -0.827689 0.561187 
vn 0 -0.883512 0.468408 
vn 0 -0.762162 0.647386 
vn 0 -0.827689 0.561187 
vn 0 -0.687699 0.725995 
vn 0 -0.762162 0.647386 
vn 0 -0.605174 0.796093 
vn 0 -0.687699 0.725995 
vn 0 -0.515554 0.856857 
vn 0 -0.605174 0.796093 
vn 0 -0.419889 0.907575 
vn 0 -0.515554 0.856857 
vn 0 -0.319302 0.947653 
vn 0 -0.419889 0.907575 
vn 0 -0.21497 0.976621 
vn 0 -0.319302 0.947653 
vn 0 -0.108119 0.994138 
vn 0 -0.21497 0.976621 
vn 0 -0.108119 0.994138 
f 737//737 738//738 739//739 
f 740//740 737//737 741//741 
f 742//742 740//740 743//743 
f 744//744 742//742 745//745 
f 746//746 744//744 747//747 
f 748//748 746//746 749//749 
f 750//750 748//748 751//751 
f 752//752 750//750 753//753 
f 754//754 752//752 755//755 
f 756//756 754//754 757//757 
f 758//758 756//756 759//759 
f 760//760 758//758 761//761 
f 762//762 760//760 763//763 
f 764//764 762//762 765//765 
f 766//766 764//764 767//767 
f 768//768 766//766 769//769 
f 770//770 768//768 771//771 
f 772//772 770//770 773//773 
f 774//774 772//772 775//775 
f 776//776 774//774 777//777 
f 778//778 776//776 779//779 
f 780//780 778//778 781//781 
f 782//782 780//780 783//783 
f 784//784 782//782 785//785 
f 786//786 784//784 787//787 
f 788//788 786//786 789//789 
f 790//790 788//788 791//791 
f 792//792 790//790 793//793 
f 794//794 792//792 795//795 
f 796//796 794//794 797//797 
f 798//798 796//796 799//799 
f 800//800 798//798 801//801 
f 802//802 800//800 803//803 
f 804//804 802//802 805//805 
f 806//806 804//804 807//807 
f 808//808 806//806 809//809 
f 810//810 808//808 811//811 
f 812//812 810//810 813//813 
f 814//814 812//812 815//815 
f 816//816 814//814 817//817 
f 818//818 816//816 819//819 
f 820//820 818//818 821//821 
f 822//822 820//820 823//823 
f 824//824 822//822 825//825 
f 826//826 824//824 827//827 
f 828//828 826//826 829//829 
f 830//830 828//828 831//831 
f 832//832 830//830 833//833 
f 834//834 832//832 835//835 
f 836//836 834//834 837//837 
f 838//838 836//836 839//839 
f 840//840 838//838 841//841 
f 842//842 840//840 843//843 
f 844//844 842//842 845//845 
f 846//846 844//844 847//847 
f 848//848 846//846 849//849 
f 850//850 848//848 851//851 
f 738//738 850//850 852//852 
f 852//852 739//739 738//738 
f 851//851 852//852 850//850 
f 849//849 851//851 848//848 
f 847//847 849//849 846//846 
f 845//845 847//847 844//844 
f 843//843 845//845 842//842 
f 841//841 843//843 840//840 
f 839//839 841//841 838//838 
f 837//837 839//839 836//836 
f 835//835 837//837 834//834 
f 833//833 835//835 832//832 
f 831//831 833//833 830//830 
f 829//829 831//831 828//828 
f 827//827 829//829 826//826 
f 825//825 827//827 824//824 
f 823//823 825//825 822//822 
f 821//821 823//823 820//820 
f 819//819 821//821 818//818 
f 817//817 819//819 816//816 
f 815//815 817//817 814//814 
f 813//813 815//815 812//812 
f 811//811 813//813 810//810 
f 809//809 811//811 808//808 
f 807//807 809//809 806//806 
f 805//805 807//807 804//804 
f 803//803 805//805 802//802 
f 801//801 803//803 800//800 
f 799//799 801//801 798//798 
f 797//797 799//799 796//796 
f 795//795 797//797 794//794 
f 793//793 795//795 792//792 
f 791//791 793//793 790//790 
f 789//789 791//791 788//788 
f 787//787 789//789 786//786 
f 785//785 787//787 784//784 
f 783//783 785//785 782//782 
f 781//781 783//783 780//780 
f 779//779 781//781 778//778 
f 777//777 779//779 776//776 
f 775//775 777//777 774//774 
f 773//773 775//775 772//772 
f 771//771 773//773 770//770 
f 769//769 771//771 768//768 
f 767//767 769//769 766//766 
f 765//765 767//767 764//764 
f 763//763 765//765 762//762 
f 761//761 763//763 760//760 
f 759//759 761//761 758//758 
f 757//757 759//759 756//756 
f 755//755 757//757 754//754 
f 753//753 755//755 752//752 
f 751//751 753//753 750//750 
f 749//749 751//751 748//748 
f 747//747 749//749 746//746 
f 745//745 747//747 744//744 
f 743//743 745//745 742//742 
f 741//741 743//743 740//740 
f 739//739 741//741 737//737 
o mesh16382
v 0.00635 0.0186175 -0.0242766 
v 0.00635 0.01905 -0.0243 
v 0 0.01905 -0.0243 
v 0.00635 0.0181901 -0.0242065 
v 0 0.0186175 -0.0242766 
v 0.00635 0.0177728 -0.0240906 
v 0 0.0181901 -0.0242065 
v 0.00635 0.0173704 -0.0239303 
v 0 0.0177728 -0.0240906 
v 0.00635 0.0169878 -0.0237274 
v 0 0.0173704 -0.0239303 
v 0.00635 0.0166293 -0.0234844 
v 0 0.0169878 -0.0237274 
v 0.00635 0.0162992 -0.023204 
v 0 0.0166293 -0.0234844 
v 0.00635 0.0160014 -0.0228895 
v 0 0.0162992 -0.023204 
v 0.00635 0.0157392 -0.0225447 
v 0 0.0160014 -0.0228895 
v 0.00635 0.015516 -0.0221736 
v 0 0.0157392 -0.0225447 
v 0.00635 0.0153341 -0.0217806 
v 0 0.015516 -0.0221736 
v 0.00635 0.0151958 -0.0213701 
v 0 0.0153341 -0.0217806 
v 0.00635 0.0151027 -0.0209471 
v 0 0.0151958 -0.0213701 
v 0.00635 0.0150559 -0.0205166 
v 0 0.0151027 -0.0209471 
v 0.00635 0.0150559 -0.0200834 
v 0 0.0150559 -0.0205166 
v 0.00635 0.0151027 -0.0196529 
v 0 0.0150559 -0.0200834 
v 0.00635 0.0151958 -0.0192299 
v 0 0.0151027 -0.0196529 
v 0.00635 0.0153341 -0.0188194 
v 0 0.0151958 -0.0192299 
v 0.00635 0.015516 -0.0184264 
v 0 0.0153341 -0.0188194 
v 0.00635 0.0157392 -0.0180553 
v 0 0.015516 -0.0184264 
v 0.00635 0.0160014 -0.0177105 
v 0 0.0157392 -0.0180553 
v 0.00635 0.0162992 -0.017396 
v 0 0.0160014 -0.0177105 
v 0.00635 0.0166293 -0.0171156 
v 0 0.0162992 -0.017396 
v 0.00635 0.0169878 -0.0168726 
v 0 0.0166293 -0.0171156 
v 0.00635 0.0173704 -0.0166697 
v 0 0.0169878 -0.0168726 
v 0.00635 0.0177728 -0.0165094 
v 0 0.0173704 -0.0166697 
v 0.00635 0.0181901 -0.0163935 
v 0 0.0177728 -0.0165094 
v 0.00635 0.0186175 -0.0163234 
v 0 0.0181901 -0.0163935 
v 0.00635 0.01905 -0.0163 
v 0 0.0186175 -0.0163234 
v 0.00635 0.0194825 -0.0163234 
v 0 0.01905 -0.0163 
v 0.00635 0.0199099 -0.0163935 
v 0 0.0194825 -0.0163234 
v 0.00635 0.0203272 -0.0165094 
v 0 0.0199099 -0.0163935 
v 0.00635 0.0207296 -0.0166697 
v 0 0.0203272 -0.0165094 
v 0.00635 0.0211122 -0.0168726 
v 0 0.0207296 -0.0166697 
v 0.00635 0.0214707 -0.0171156 
v 0 0.0211122 -0.0168726 
v 0.00635 0.0218008 -0.017396 
v 0 0.0214707 -0.0171156 
v 0.00635 0.0220986 -0.0177105 
v 0 0.0218008 -0.017396 
v 0.00635 0.0223608 -0.0180553 
v 0 0.0220986 -0.0177105 
v 0.00635 0.022584 -0.0184264 
v 0 0.0223608 -0.0180553 
v 0.00635 0.0227659 -0.0188194 
v 0 0.022584 -0.0184264 
v 0.00635 0.0229042 -0.0192299 
v 0 0.0227659 -0.0188194 
v 0.00635 0.0229973 -0.0196529 
v 0 0.0229042 -0.0192299 
v 0.00635 0.0230441 -0.0200834 
v 0 0.0229973 -0.0196529 
v 0.00635 0.0230441 -0.0205166 
v 0 0.0230441 -0.0200834 
v 0.00635 0.0229973 -0.0209471 
v 0 0.0230441 -0.0205166 
v 0.00635 0.0229042 -0.0213701 
v 0 0.0229973 -0.0209471 
v 0.00635 0.0227659 -0.0217806 
v 0 0.0229042 -0.0213701 
v 0.00635 0.022584 -0.0221736 
v 0 0.0227659 -0.0217806 
v 0.00635 0.0223608 -0.0225447 
v 0 0.022584 -0.0221736 
v 0.00635 0.0220986 -0.0228895 
v 0 0.0223608 -0.0225447 
v 0.00635 0.0218008 -0.023204 
v 0 0.0220986 -0.0228895 
v 0.00635 0.0214707 -0.0234844 
v 0 0.0218008 -0.023204 
v 0.00635 0.0211122 -0.0237274 
v 0 0.0214707 -0.0234844 
v 0.00635 0.0207296 -0.0239303 
v 0 0.0211122 -0.0237274 
v 0.00635 0.0203272 -0.0240906 
v 0 0.0207296 -0.0239303 
v 0.00635 0.0199099 -0.0242065 
v 0 0.0203272 -0.0240906 
v 0.00635 0.0194825 -0.0242766 
v 0 0.0199099 -0.0242065 
v 0 0.0194825 -0.0242766 
vn 0 0.108119 0.994138 
vn 0 2.44929e-16 1 
vn 0 2.44929e-16 1 
vn 0 0.21497 0.976621 
vn 0 0.108119 0.994138 
vn 0 0.319302 0.947653 
vn 0 0.21497 0.976621 
vn 0 0.419889 0.907575 
vn 0 0.319302 0.947653 
vn 0 0.515554 0.856857 
vn 0 0.419889 0.907575 
vn 0 0.605174 0.796093 
vn 0 0.515554 0.856857 
vn 0 0.687699 0.725995 
vn 0 0.605174 0.796093 
vn 0 0.762162 0.647386 
vn 0 0.687699 0.725995 
vn 0 0.827689 0.561187 
vn 0 0.762162 0.647386 
vn 0 0.883512 0.468408 
vn 0 0.827689 0.561187 
vn 0 0.928977 0.370138 
vn 0 0.883512 0.468408 
vn 0 0.96355 0.267528 
vn 0 0.928977 0.370138 
vn 0 0.986827 0.161782 
vn 0 0.96355 0.267528 
vn 0 0.998533 0.0541389 
vn 0 0.986827 0.161782 
vn 0 0.998533 -0.0541389 
vn 0 0.998533 0.0541389 
vn 0 0.986827 -0.161782 
vn 0 0.998533 -0.0541389 
vn 0 0.96355 -0.267528 
vn 0 0.986827 -0.161782 
vn 0 0.928977 -0.370138 
vn 0 0.96355 -0.267528 
vn 0 0.883512 -0.468408 
vn 0 0.928977 -0.370138 
vn 0 0.827689 -0.561187 
vn 0 0.883512 -0.468408 
vn 0 0.762162 -0.647386 
vn 0 0.827689 -0.561187 
vn 0 0.687699 -0.725995 
vn 0 0.762162 -0.647386 
vn 0 0.605174 -0.796093 
vn 0 0.687699 -0.725995 
vn 0 0.515554 -0.856857 
vn 0 0.605174 -0.796093 
vn 0 0.419889 -0.907575 
vn 0 0.515554 -0.856857 
vn 0 0.319302 -0.947653 
vn 0 0.419889 -0.907575 
vn 0 0.21497 -0.976621 
vn 0 0.319302 -0.947653 
vn 0 0.108119 -0.994138 
vn 0 0.21497 -0.976621 
vn 0 -1.22465e-16 -1 
vn 0 0.108119 -0.994138 
vn 0 -0.108119 -0.994138 
vn 0 -1.22465e-16 -1 
vn 0 -0.21497 -0.976621 
vn 0 -0.108119 -0.994138 
vn 0 -0.319302 -0.947653 
vn 0 -0.21497 -0.976621 
vn 0 -0.419889 -0.907575 
vn 0 -0.319302 -0.947653 
vn 0 -0.515554 -0.856857 
vn 0 -0.419889 -0.907575 
vn 0 -0.605174 -0.796093 
vn 0 -0.515554 -0.856857 
vn 0 -0.687699 -0.725995 
vn 0 -0.605174 -0.796093 
vn 0 -0.762162 -0.647386 
vn 0 -0.687699 -0.725995 
vn 0 -0.827689 -0.561187 
vn 0 -0.762162 -0.647386 
vn 0 -0.883512 -0.468408 
vn 0 -0.827689 -0.561187 
vn 0 -0.928977 -0.370138 
vn 0 -0.883512 -0.468408 
vn 0 -0.96355 -0.267528 
vn 0 -0.928977 -0.370138 
vn 0 -0.986827 -0.161782 
vn 0 -0.96355 -0.267528 
vn 0 -0.998533 -0.0541389 
vn 0 -0.986827 -0.161782 
vn 0 -0.998533 0.0541389 
vn 0 -0.998533 -0.0541389 
vn 0 -0.986827 0.161782 
vn 0 -0.998533 0.0541389 
vn 0 -0.96355 0.267528 
vn 0 -0.986827 0.161782 
vn 0 -0.928977 0.370138 
vn 0 -0.96355 0.267528 
vn 0 -0.883512 0.468408 
vn 0 -0.928977 0.370138 
vn 0 -0.827689 0.561187 
vn 0 -0.883512 0.468408 
vn 0 -0.762162 0.647386 
vn 0 -0.827689 0.561187 
vn 0 -0.687699 0.725995 
vn 0 -0.762162 0.647386 
vn 0 -0.605174 0.796093 
vn 0 -0.687699 0.725995 
vn 0 -0.515554 0.856857 
vn 0 -0.605174 0.796093 
vn 0 -0.419889 0.907575 
vn 0 -0.515554 0.856857 
vn 0 -0.319302 0.947653 
vn 0 -0.419889 0.907575 
vn 0 -0.21497 0.976621 
vn 0 -0.319302 0.947653 
vn 0 -0.108119 0.994138 
vn 0 -0.21497 0.976621 
vn 0 -0.108119 0.994138 
f 853//853 854//854 855//855 
f 856//856 853//853 857//857 
f 858//858 856//856 859//859 
f 860//860 858//858 861//861 
f 862//862 860//860 863//863 
f 864//864 862//862 865//865 
f 866//866 864//864 867//867 
f 868//868 866//866 869//869 
f 870//870 868//868 871//871 
f 872//872 870//870 873//873 
f 874//874 872//872 875//875 
f 876//876 874//874 877//877 
f 878//878 876//876 879//879 
f 880//880 878//878 881//881 
f 882//882 880//880 883//883 
f 884//884 882//882 885//885 
f 886//886 884//884 887//887 
f 888//888 886//886 889//889 
f 890//890 888//888 891//891 
f 892//892 890//890 893//893 
f 894//894 892//892 895//895 
f 896//896 894//894 897//897 
f 898//898 896//896 899//899 
f 900//900 898//898 901//901 
f 902//902 900//900 903//903 
f 904//904 902//902 905//905 
f 906//906 904//904 907//907 
f 908//908 906//906 909//909 
f 910//910 908//908 911//911 
f 912//912 910//910 913//913 
f 914//914 912//912 915//915 
f 916//916 914//914 917//917 
f 918//918 916//916 919//919 
f 920//920 918//918 921//921 
f 922//922 920//920 923//923 
f 924//924 922//922 925//925 
f 926//926 924//924 927//927 
f 928//928 926//926 929//929 
f 930//930 928//928 931//931 
f 932//932 930//930 933//933 
f 934//934 932//932 935//935 
f 936//936 934//934 937//937 
f 938//938 936//936 939//939 
f 940//940 938//938 941//941 
f 942//942 940//940 943//943 
f 944//944 942//942 945//945 
f 946//946 944//944 947//947 
f 948//948 946//946 949//949 
f 950//950 948//948 951//951 
f 952//952 950//950 953//953 
f 954//954 952//952 955//955 
f 956//956 954//954 957//957 
f 958//958 956//956 959//959 
f 960//960 958//958 961//961 
f 962//962 960//960 963//963 
f 964//964 962//962 965//965 
f 966//966 964//964 967//967 
f 854//854 966//966 968//968 
f 968//968 855//855 854//854 
f 967//967 968//968 966//966 
f 965//965 967//967 964//964 
f 963//963 965//965 962//962 
f 961//961 963//963 960//960 
f 959//959 961//961 958//958 
f 957//957 959//959 956//956 
f 955//955 957//957 954//954 
f 953//953 955//955 952//952 
f 951//951 953//953 950//950 
f 949//949 951//951 948//948 
f 947//947 949//949 946//946 
f 945//945 947//947 944//944 
f 943//943 945//945 942//942 
f 941//941 943//943 940//940 
f 939//939 941//941 938//938 
f 937//937 939//939 936//936 
f 935//935 937//937 934//934 
f 933//933 935//935 932//932 
f 931//931 933//933 930//930 
f 929//929 931//931 928//928 
f 927//927 929//929 926//926 
f 925//925 927//927 924//924 
f 923//923 925//925 922//922 
f 921//921 923//923 920//920 
f 919//919 921//921 918//918 
f 917//917 919//919 916//916 
f 915//915 917//917 914//914 
f 913//913 915//915 912//912 
f 911//911 913//913 910//910 
f 909//909 911//911 908//908 
f 907//907 909//909 906//906 
f 905//905 907//907 904//904 
f 903//903 905//905 902//902 
f 901//901 903//903 900//900 
f 899//899 901//901 898//898 
f 897//897 899//899 896//896 
f 895//895 897//897 894//894 
f 893//893 895//895 892//892 
f 891//891 893//893 890//890 
f 889//889 891//891 888//888 
f 887//887 889//889 886//886 
f 885//885 887//887 884//884 
f 883//883 885//885 882//882 
f 881//881 883//883 880//880 
f 879//879 881//881 878//878 
f 877//877 879//879 876//876 
f 875//875 877//877 874//874 
f 873//873 875//875 872//872 
f 871//871 873//873 870//870 
f 869//869 871//871 868//868 
f 867//867 869//869 866//866 
f 865//865 867//867 864//864 
f 863//863 865//865 862//862 
f 861//861 863//863 860//860 
f 859//859 861//861 858//858 
f 857//857 859//859 856//856 
f 855//855 857//857 853//853 
o mesh16383
v 0.0762 0 0 
v 0.0762 0.0381 0 
v 0.0536 0.0298 3.30872e-24 
v 0 0.0381 0 
v 0.0226 0.0298 3.30872e-24 
v 0 0 0 
v 0.0226 0.0083 0 
v 0.0536 0.0083 3.30872e-24 
vn 0 0 1 
vn 0 0 1 
vn 0 0 1 
vn 0 0 1 
vn 0 0 1 
vn 0 0 1 
vn 0 0 1 
vn 0 0 1 
f 969//969 970//970 971//971 
f 970//970 972//972 973//973 
f 973//973 971//971 970//970 
f 972//972 974//974 975//975 
f 975//975 973//973 972//972 
f 974//974 969//969 976//976 
f 976//976 975//975 974//974 
f 971//971 976//976 969//969 
o mesh16384
v 0.00635 0.0381 -0.00635 
v 0.06985 0.0381 -0.00635 
v 0.0536 0.0298 -0.00635 
v 0.06985 0 -0.00635 
v 0.0536 0.0083 -0.00635 
v 0.00635 0 -0.00635 
v 0.0226 0.0083 -0.00635 
v 0.0226 0.0298 -0.00635 
vn 0 0 -1 
vn 0 0 -1 
vn 0 0 -1 
vn 0 0 -1 
vn 0 0 -1 
vn 0 0 -1 
vn 0 0 -1 
vn 0 0 -1 
f 977//977 978//978 979//979 
f 978//978 980//980 981//981 
f 980//980 982//982 983//983 
f 982//982 977//977 984//984 
f 981//981 979//979 978//978 
f 984//984 983//983 982//982 
f 983//983 981//981 980//980 
f 979//979 984//984 977//977 
o mesh16385
v 0.0536 0.0083 -0.00635 
v 0.0536 0.0083 3.30872e-24 
v 0.0536 0.0298 3.30872e-24 
v 0.0536 0.0298 -0.00635 
vn -1 0 0 
vn -1 0 0 
vn -1 0 0 
vn -1 0 0 
f 985//985 986//986 987//987 
f 987//987 988//988 985//985 
o mesh16386
v 0.0536 0.0298 -0.00635 
v 0.0536 0.0298 3.30872e-24 
v 0.0226 0.0298 3.30872e-24 
v 0.0226 0.0298 -0.00635 
vn 0 -1 0 
vn 0 -1 0 
vn 0 -1 0 
vn 0 -1 0 
f 989//989 990//990 991//991 
f 991//991 992//992 989//989 
o mesh16387
v 0.0226 0.0298 -0.00635 
v 0.0226 0.0298 3.30872e-24 
v 0.0226 0.0083 0 
v 0.0226 0.0083 -0.00635 
vn 1 0 0 
vn 1 0 0 
vn 1 0 0 
vn 1 0 0 
f 993//993 994//994 995//995 
f 995//995 996//996 993//993 
o mesh16388
v 0.0226 0.0083 -0.00635 
v 0.0226 0.0083 0 
v 0.0536 0.0083 3.30872e-24 
v 0.0536 0.0083 -0.00635 
vn 0 1 0 
vn 0 1 0 
vn 0 1 0 
vn 0 1 0 
f 997//997 998//998 999//999 
f 999//999 1000//1000 997//997 
