# OBJ generated by ONSHAPE BY PTC INC, 1.215 Units = meters
mtllib _2025_Drivetrain_Middle_Bar_R1.mtl
g 2025_Drivetrain_Middle Bar_R1
usemtl 0.250980_0.250980_0.250980_0.000000_0.000000
o mesh17319
v 0.01905 0.35 0.01905 
v 0.01905 0 0.01905 
v 0.01905 0 -0.01905 
v 0.01905 0.35 -0.01905 
vn 1 0 0 
vn 1 0 0 
vn 1 0 0 
vn 1 0 0 
f 1//1 2//2 3//3 
f 3//3 4//4 1//1 
o mesh17320
v 0.01905 0.35 -0.01905 
v 0.01905 0 -0.01905 
v -0.01905 0 -0.01905 
v -0.01905 0.35 -0.01905 
vn 0 0 -1 
vn 0 0 -1 
vn 0 0 -1 
vn 0 0 -1 
f 5//5 6//6 7//7 
f 7//7 8//8 5//5 
o mesh17321
v -0.01905 0.35 -0.01905 
v -0.01905 0 -0.01905 
v -0.01905 0 0.01905 
v -0.01905 0.35 0.01905 
vn -1 0 0 
vn -1 0 0 
vn -1 0 0 
vn -1 0 0 
f 9//9 10//10 11//11 
f 11//11 12//12 9//9 
o mesh17322
v -0.01905 0.35 0.01905 
v -0.01905 0 0.01905 
v 0.01905 0 0.01905 
v 0.01905 0.35 0.01905 
vn 0 0 1 
vn 0 0 1 
vn 0 0 1 
vn 0 0 1 
f 13//13 14//14 15//15 
f 15//15 16//16 13//13 
o mesh17323
v 0.01905 0.35 0.01905 
v 0.01905 0.35 -0.01905 
v 0.015875 0.35 -0.015875 
v -0.01905 0.35 -0.01905 
v -0.015875 0.35 -0.015875 
v -0.01905 0.35 0.01905 
v -0.015875 0.35 0.015875 
v 0.015875 0.35 0.015875 
vn 0 1 0 
vn 0 1 0 
vn 0 1 0 
vn 0 1 0 
vn 0 1 0 
vn 0 1 0 
vn 0 1 0 
vn 0 1 0 
f 17//17 18//18 19//19 
f 18//18 20//20 21//21 
f 21//21 19//19 18//18 
f 20//20 22//22 23//23 
f 23//23 21//21 20//20 
f 22//22 17//17 24//24 
f 24//24 23//23 22//22 
f 19//19 24//24 17//17 
o mesh17324
v 0.01905 0 0.01905 
v -0.01905 0 0.01905 
v -0.015875 0 0.015875 
v -0.01905 0 -0.01905 
v -0.015875 0 -0.015875 
v 0.01905 0 -0.01905 
v 0.015875 0 -0.015875 
v 0.015875 0 0.015875 
vn 0 -1 0 
vn 0 -1 0 
vn 0 -1 0 
vn 0 -1 0 
vn 0 -1 0 
vn 0 -1 0 
vn 0 -1 0 
vn 0 -1 0 
f 25//25 26//26 27//27 
f 26//26 28//28 29//29 
f 29//29 27//27 26//26 
f 28//28 30//30 31//31 
f 30//30 25//25 32//32 
f 31//31 29//29 28//28 
f 27//27 32//32 25//25 
f 32//32 31//31 30//30 
o mesh17325
v 0.015875 0.35 -0.015875 
v 0.015875 0 -0.015875 
v 0.015875 0 0.015875 
v 0.015875 0.35 0.015875 
vn -1 0 2.18548e-16 
vn -1 0 2.18548e-16 
vn -1 0 2.18548e-16 
vn -1 0 2.18548e-16 
f 33//33 34//34 35//35 
f 35//35 36//36 33//33 
o mesh17326
v -0.015875 0.35 -0.015875 
v -0.015875 0 -0.015875 
v 0.015875 0 -0.015875 
v 0.015875 0.35 -0.015875 
vn 0 0 1 
vn 0 0 1 
vn 0 0 1 
vn 0 0 1 
f 37//37 38//38 39//39 
f 39//39 40//40 37//37 
o mesh17327
v -0.015875 0.35 0.015875 
v -0.015875 0 0.015875 
v -0.015875 0 -0.015875 
v -0.015875 0.35 -0.015875 
vn 1 0 -1.09274e-16 
vn 1 0 -1.09274e-16 
vn 1 0 -1.09274e-16 
vn 1 0 -1.09274e-16 
f 41//41 42//42 43//43 
f 43//43 44//44 41//41 
o mesh17328
v 0.015875 0.35 0.015875 
v 0.015875 0 0.015875 
v -0.015875 0 0.015875 
v -0.015875 0.35 0.015875 
vn 0 0 -1 
vn 0 0 -1 
vn 0 0 -1 
vn 0 0 -1 
f 45//45 46//46 47//47 
f 47//47 48//48 45//45 
