# OBJ generated by ONSHAPE BY PTC INC, 1.215 Units = meters
mtllib _2025_Drivetrain_RearCamera_R1_1in__Front_.mtl
g 2025_Drivetrain_RearCamera_R1_1in (Front)
usemtl 0.250980_0.250980_0.250980_0.000000_0.000000
o mesh4236
v 0.0187634 0.3754 -0.0189818 
v 0.0187634 0.3754 0.00641825 
v 0.0187634 0.241533 0.00641825 
v 0.0187634 0.241533 -0.0189818 
vn 1 0 0 
vn 1 0 0 
vn 1 0 0 
vn 1 0 0 
f 1//1 2//2 3//3 
f 3//3 4//4 1//1 
o mesh4237
v -0.00663661 0.3754 -0.0189818 
v 0.0187634 0.3754 -0.0189818 
v 0.0187634 0.241533 -0.0189818 
v -0.00663661 0.226869 -0.0189818 
vn 0 0 -1 
vn 0 0 -1 
vn 0 0 -1 
vn 0 0 -1 
f 5//5 6//6 7//7 
f 7//7 8//8 5//5 
o mesh4238
v -0.00663661 0.3754 0.00641825 
v -0.00663661 0.3754 -0.0189818 
v -0.00663661 0.226869 -0.0189818 
v -0.00663661 0.226869 0.00641825 
vn -1 0 0 
vn -1 0 0 
vn -1 0 0 
vn -1 0 0 
f 9//9 10//10 11//11 
f 11//11 12//12 9//9 
o mesh4239
v -0.00663661 0.3754 0.00641825 
v -0.00663661 0.226869 0.00641825 
v 0.0187634 0.241533 0.00641825 
v 0.0187634 0.3754 0.00641825 
vn 0 0 1 
vn 0 0 1 
vn 0 0 1 
vn 0 0 1 
f 13//13 14//14 15//15 
f 15//15 16//16 13//13 
o mesh4240
v -0.00663661 0.3754 0.00641825 
v 0.0187634 0.3754 0.00641825 
v 0.0155122 0.3754 0.00316705 
v 0.0187634 0.3754 -0.0189818 
v 0.0155122 0.3754 -0.0157306 
v -0.00663661 0.3754 -0.0189818 
v -0.00338541 0.3754 -0.0157306 
v -0.00338541 0.3754 0.00316705 
vn 0 1 0 
vn 0 1 0 
vn 0 1 0 
vn 0 1 0 
vn 0 1 0 
vn 0 1 0 
vn 0 1 0 
vn 0 1 0 
f 17//17 18//18 19//19 
f 18//18 20//20 21//21 
f 21//21 19//19 18//18 
f 22//22 23//23 21//21 
f 21//21 20//20 22//22 
f 22//22 17//17 24//24 
f 24//24 23//23 22//22 
f 19//19 24//24 17//17 
o mesh4241
v -0.00663661 0.226869 0.00641825 
v -0.00338541 0.228746 0.00316705 
v 0.0155122 0.239656 0.00316705 
v -0.00663661 0.226869 -0.0189818 
v -0.00338541 0.228746 -0.0157306 
v 0.0187634 0.241533 -0.0189818 
v 0.0155122 0.239656 -0.0157306 
v 0.0187634 0.241533 0.00641825 
vn 0.5 -0.866025 0 
vn 0.5 -0.866025 0 
vn 0.5 -0.866025 0 
vn 0.5 -0.866025 0 
vn 0.5 -0.866025 0 
vn 0.5 -0.866025 0 
vn 0.5 -0.866025 0 
vn 0.5 -0.866025 0 
f 25//25 26//26 27//27 
f 25//25 28//28 29//29 
f 28//28 30//30 31//31 
f 32//32 27//27 31//31 
f 29//29 26//26 25//25 
f 31//31 30//30 32//32 
f 31//31 29//29 28//28 
f 27//27 32//32 25//25 
o mesh4242
v -0.00338541 0.3754 -0.0157306 
v -0.00338541 0.3754 0.00316705 
v -0.00338541 0.228746 0.00316705 
v -0.00338541 0.228746 -0.0157306 
vn 1 0 0 
vn 1 0 0 
vn 1 0 0 
vn 1 0 0 
f 33//33 34//34 35//35 
f 35//35 36//36 33//33 
o mesh4243
v -0.00338541 0.3754 -0.0157306 
v -0.00338541 0.228746 -0.0157306 
v 0.0155122 0.239656 -0.0157306 
v 0.0155122 0.3754 -0.0157306 
vn 0 0 1 
vn 0 0 1 
vn 0 0 1 
vn 0 0 1 
f 37//37 38//38 39//39 
f 39//39 40//40 37//37 
o mesh4244
v 0.0155122 0.3754 0.00316705 
v 0.0155122 0.3754 -0.0157306 
v 0.0155122 0.239656 -0.0157306 
v 0.0155122 0.239656 0.00316705 
vn -1 0 0 
vn -1 0 0 
vn -1 0 0 
vn -1 0 0 
f 41//41 42//42 43//43 
f 43//43 44//44 41//41 
o mesh4245
v -0.00338541 0.3754 0.00316705 
v 0.0155122 0.3754 0.00316705 
v 0.0155122 0.239656 0.00316705 
v -0.00338541 0.228746 0.00316705 
vn 0 0 -1 
vn 0 0 -1 
vn 0 0 -1 
vn 0 0 -1 
f 45//45 46//46 47//47 
f 47//47 48//48 45//45 
