# OBJ generated by ONSHAPE BY PTC INC, 1.215 Units = meters
mtllib _2025_Hopper_Hatch_R4.mtl
g 2025_Hopper_Hatch_R4
usemtl 0.866667_0.909804_1.000000_0.000000_0.000000
o mesh1331
v -0.0262903 0.363268 -0.337947 
v -0.0262669 0.3637 -0.337947 
v -0.0262669 0.3637 -0.34 
v -0.0263604 0.36284 -0.337947 
v -0.0262903 0.363268 -0.34 
v -0.0264763 0.362423 -0.337947 
v -0.0263604 0.36284 -0.34 
v -0.0266366 0.36202 -0.337947 
v -0.0264763 0.362423 -0.34 
v -0.0268395 0.361638 -0.337947 
v -0.0266366 0.36202 -0.34 
v -0.0270825 0.361279 -0.337947 
v -0.0268395 0.361638 -0.34 
v -0.0273629 0.360949 -0.337947 
v -0.0270825 0.361279 -0.34 
v -0.0276773 0.360651 -0.337947 
v -0.0273629 0.360949 -0.34 
v -0.0280221 0.360389 -0.337947 
v -0.0276773 0.360651 -0.34 
v -0.0283933 0.360166 -0.337947 
v -0.0280221 0.360389 -0.34 
v -0.0287863 0.359984 -0.337947 
v -0.0283933 0.360166 -0.34 
v -0.0291968 0.359846 -0.337947 
v -0.0287863 0.359984 -0.34 
v -0.0296198 0.359753 -0.337947 
v -0.0291968 0.359846 -0.34 
v -0.0300503 0.359706 -0.337947 
v -0.0296198 0.359753 -0.34 
v -0.0304834 0.359706 -0.337947 
v -0.0300503 0.359706 -0.34 
v -0.030914 0.359753 -0.337947 
v -0.0304834 0.359706 -0.34 
v -0.031337 0.359846 -0.337947 
v -0.030914 0.359753 -0.34 
v -0.0317474 0.359984 -0.337947 
v -0.031337 0.359846 -0.34 
v -0.0321405 0.360166 -0.337947 
v -0.0317474 0.359984 -0.34 
v -0.0325116 0.360389 -0.337947 
v -0.0321405 0.360166 -0.34 
v -0.0328564 0.360651 -0.337947 
v -0.0325116 0.360389 -0.34 
v -0.0331709 0.360949 -0.337947 
v -0.0328564 0.360651 -0.34 
v -0.0334513 0.361279 -0.337947 
v -0.0331709 0.360949 -0.34 
v -0.0336943 0.361638 -0.337947 
v -0.0334513 0.361279 -0.34 
v -0.0338972 0.36202 -0.337947 
v -0.0336943 0.361638 -0.34 
v -0.0340575 0.362423 -0.337947 
v -0.0338972 0.36202 -0.34 
v -0.0341734 0.36284 -0.337947 
v -0.0340575 0.362423 -0.34 
v -0.0342434 0.363268 -0.337947 
v -0.0341734 0.36284 -0.34 
v -0.0342669 0.3637 -0.337947 
v -0.0342434 0.363268 -0.34 
v -0.0342434 0.364132 -0.337947 
v -0.0342669 0.3637 -0.34 
v -0.0341734 0.36456 -0.337947 
v -0.0342434 0.364132 -0.34 
v -0.0340575 0.364977 -0.337947 
v -0.0341734 0.36456 -0.34 
v -0.0338972 0.36538 -0.337947 
v -0.0340575 0.364977 -0.34 
v -0.0336943 0.365762 -0.337947 
v -0.0338972 0.36538 -0.34 
v -0.0334513 0.366121 -0.337947 
v -0.0336943 0.365762 -0.34 
v -0.0331709 0.366451 -0.337947 
v -0.0334513 0.366121 -0.34 
v -0.0328564 0.366749 -0.337947 
v -0.0331709 0.366451 -0.34 
v -0.0325116 0.367011 -0.337947 
v -0.0328564 0.366749 -0.34 
v -0.0321405 0.367234 -0.337947 
v -0.0325116 0.367011 -0.34 
v -0.0317474 0.367416 -0.337947 
v -0.0321405 0.367234 -0.34 
v -0.031337 0.367554 -0.337947 
v -0.0317474 0.367416 -0.34 
v -0.030914 0.367647 -0.337947 
v -0.031337 0.367554 -0.34 
v -0.0304834 0.367694 -0.337947 
v -0.030914 0.367647 -0.34 
v -0.0300503 0.367694 -0.337947 
v -0.0304834 0.367694 -0.34 
v -0.0296198 0.367647 -0.337947 
v -0.0300503 0.367694 -0.34 
v -0.0291968 0.367554 -0.337947 
v -0.0296198 0.367647 -0.34 
v -0.0287863 0.367416 -0.337947 
v -0.0291968 0.367554 -0.34 
v -0.0283933 0.367234 -0.337947 
v -0.0287863 0.367416 -0.34 
v -0.0280221 0.367011 -0.337947 
v -0.0283933 0.367234 -0.34 
v -0.0276773 0.366749 -0.337947 
v -0.0280221 0.367011 -0.34 
v -0.0273629 0.366451 -0.337947 
v -0.0276773 0.366749 -0.34 
v -0.0270825 0.366121 -0.337947 
v -0.0273629 0.366451 -0.34 
v -0.0268395 0.365762 -0.337947 
v -0.0270825 0.366121 -0.34 
v -0.0266366 0.36538 -0.337947 
v -0.0268395 0.365762 -0.34 
v -0.0264763 0.364977 -0.337947 
v -0.0266366 0.36538 -0.34 
v -0.0263604 0.36456 -0.337947 
v -0.0264763 0.364977 -0.34 
v -0.0262903 0.364132 -0.337947 
v -0.0263604 0.36456 -0.34 
v -0.0262903 0.364132 -0.34 
vn -0.994138 0.108119 0 
vn -1 2.44929e-16 0 
vn -1 2.44929e-16 0 
vn -0.976621 0.21497 0 
vn -0.994138 0.108119 0 
vn -0.947653 0.319302 0 
vn -0.976621 0.21497 0 
vn -0.907575 0.419889 0 
vn -0.947653 0.319302 0 
vn -0.856857 0.515554 0 
vn -0.907575 0.419889 0 
vn -0.796093 0.605174 0 
vn -0.856857 0.515554 0 
vn -0.725995 0.687699 0 
vn -0.796093 0.605174 0 
vn -0.647386 0.762162 0 
vn -0.725995 0.687699 0 
vn -0.561187 0.827689 0 
vn -0.647386 0.762162 0 
vn -0.468408 0.883512 0 
vn -0.561187 0.827689 0 
vn -0.370138 0.928977 0 
vn -0.468408 0.883512 0 
vn -0.267528 0.96355 0 
vn -0.370138 0.928977 0 
vn -0.161782 0.986827 0 
vn -0.267528 0.96355 0 
vn -0.0541389 0.998533 0 
vn -0.161782 0.986827 0 
vn 0.0541389 0.998533 0 
vn -0.0541389 0.998533 0 
vn 0.161782 0.986827 0 
vn 0.0541389 0.998533 0 
vn 0.267528 0.96355 0 
vn 0.161782 0.986827 0 
vn 0.370138 0.928977 0 
vn 0.267528 0.96355 0 
vn 0.468408 0.883512 0 
vn 0.370138 0.928977 0 
vn 0.561187 0.827689 0 
vn 0.468408 0.883512 0 
vn 0.647386 0.762162 0 
vn 0.561187 0.827689 0 
vn 0.725995 0.687699 0 
vn 0.647386 0.762162 0 
vn 0.796093 0.605174 0 
vn 0.725995 0.687699 0 
vn 0.856857 0.515554 0 
vn 0.796093 0.605174 0 
vn 0.907575 0.419889 0 
vn 0.856857 0.515554 0 
vn 0.947653 0.319302 0 
vn 0.907575 0.419889 0 
vn 0.976621 0.21497 0 
vn 0.947653 0.319302 0 
vn 0.994138 0.108119 0 
vn 0.976621 0.21497 0 
vn 1 -1.22465e-16 0 
vn 0.994138 0.108119 0 
vn 0.994138 -0.108119 0 
vn 1 -1.22465e-16 0 
vn 0.976621 -0.21497 0 
vn 0.994138 -0.108119 0 
vn 0.947653 -0.319302 0 
vn 0.976621 -0.21497 0 
vn 0.907575 -0.419889 0 
vn 0.947653 -0.319302 0 
vn 0.856857 -0.515554 0 
vn 0.907575 -0.419889 0 
vn 0.796093 -0.605174 0 
vn 0.856857 -0.515554 0 
vn 0.725995 -0.687699 0 
vn 0.796093 -0.605174 0 
vn 0.647386 -0.762162 0 
vn 0.725995 -0.687699 0 
vn 0.561187 -0.827689 0 
vn 0.647386 -0.762162 0 
vn 0.468408 -0.883512 0 
vn 0.561187 -0.827689 0 
vn 0.370138 -0.928977 0 
vn 0.468408 -0.883512 0 
vn 0.267528 -0.96355 0 
vn 0.370138 -0.928977 0 
vn 0.161782 -0.986827 0 
vn 0.267528 -0.96355 0 
vn 0.0541389 -0.998533 0 
vn 0.161782 -0.986827 0 
vn -0.0541389 -0.998533 0 
vn 0.0541389 -0.998533 0 
vn -0.161782 -0.986827 0 
vn -0.0541389 -0.998533 0 
vn -0.267528 -0.96355 0 
vn -0.161782 -0.986827 0 
vn -0.370138 -0.928977 0 
vn -0.267528 -0.96355 0 
vn -0.468408 -0.883512 0 
vn -0.370138 -0.928977 0 
vn -0.561187 -0.827689 0 
vn -0.468408 -0.883512 0 
vn -0.647386 -0.762162 0 
vn -0.561187 -0.827689 0 
vn -0.725995 -0.687699 0 
vn -0.647386 -0.762162 0 
vn -0.796093 -0.605174 0 
vn -0.725995 -0.687699 0 
vn -0.856857 -0.515554 0 
vn -0.796093 -0.605174 0 
vn -0.907575 -0.419889 0 
vn -0.856857 -0.515554 0 
vn -0.947653 -0.319302 0 
vn -0.907575 -0.419889 0 
vn -0.976621 -0.21497 0 
vn -0.947653 -0.319302 0 
vn -0.994138 -0.108119 0 
vn -0.976621 -0.21497 0 
vn -0.994138 -0.108119 0 
f 1//1 2//2 3//3 
f 4//4 1//1 5//5 
f 6//6 4//4 7//7 
f 8//8 6//6 9//9 
f 10//10 8//8 11//11 
f 12//12 10//10 13//13 
f 14//14 12//12 15//15 
f 16//16 14//14 17//17 
f 18//18 16//16 19//19 
f 20//20 18//18 21//21 
f 22//22 20//20 23//23 
f 24//24 22//22 25//25 
f 26//26 24//24 27//27 
f 28//28 26//26 29//29 
f 30//30 28//28 31//31 
f 32//32 30//30 33//33 
f 34//34 32//32 35//35 
f 36//36 34//34 37//37 
f 38//38 36//36 39//39 
f 40//40 38//38 41//41 
f 42//42 40//40 43//43 
f 44//44 42//42 45//45 
f 46//46 44//44 47//47 
f 48//48 46//46 49//49 
f 50//50 48//48 51//51 
f 52//52 50//50 53//53 
f 54//54 52//52 55//55 
f 56//56 54//54 57//57 
f 58//58 56//56 59//59 
f 60//60 58//58 61//61 
f 62//62 60//60 63//63 
f 64//64 62//62 65//65 
f 66//66 64//64 67//67 
f 68//68 66//66 69//69 
f 70//70 68//68 71//71 
f 72//72 70//70 73//73 
f 74//74 72//72 75//75 
f 76//76 74//74 77//77 
f 78//78 76//76 79//79 
f 80//80 78//78 81//81 
f 82//82 80//80 83//83 
f 84//84 82//82 85//85 
f 86//86 84//84 87//87 
f 88//88 86//86 89//89 
f 90//90 88//88 91//91 
f 92//92 90//90 93//93 
f 94//94 92//92 95//95 
f 96//96 94//94 97//97 
f 98//98 96//96 99//99 
f 100//100 98//98 101//101 
f 102//102 100//100 103//103 
f 104//104 102//102 105//105 
f 106//106 104//104 107//107 
f 108//108 106//106 109//109 
f 110//110 108//108 111//111 
f 112//112 110//110 113//113 
f 114//114 112//112 115//115 
f 2//2 114//114 116//116 
f 116//116 3//3 2//2 
f 115//115 116//116 114//114 
f 113//113 115//115 112//112 
f 111//111 113//113 110//110 
f 109//109 111//111 108//108 
f 107//107 109//109 106//106 
f 105//105 107//107 104//104 
f 103//103 105//105 102//102 
f 101//101 103//103 100//100 
f 99//99 101//101 98//98 
f 97//97 99//99 96//96 
f 95//95 97//97 94//94 
f 93//93 95//95 92//92 
f 91//91 93//93 90//90 
f 89//89 91//91 88//88 
f 87//87 89//89 86//86 
f 85//85 87//87 84//84 
f 83//83 85//85 82//82 
f 81//81 83//83 80//80 
f 79//79 81//81 78//78 
f 77//77 79//79 76//76 
f 75//75 77//77 74//74 
f 73//73 75//75 72//72 
f 71//71 73//73 70//70 
f 69//69 71//71 68//68 
f 67//67 69//69 66//66 
f 65//65 67//67 64//64 
f 63//63 65//65 62//62 
f 61//61 63//63 60//60 
f 59//59 61//61 58//58 
f 57//57 59//59 56//56 
f 55//55 57//57 54//54 
f 53//53 55//55 52//52 
f 51//51 53//53 50//50 
f 49//49 51//51 48//48 
f 47//47 49//49 46//46 
f 45//45 47//47 44//44 
f 43//43 45//45 42//42 
f 41//41 43//43 40//40 
f 39//39 41//41 38//38 
f 37//37 39//39 36//36 
f 35//35 37//37 34//34 
f 33//33 35//35 32//32 
f 31//31 33//33 30//30 
f 29//29 31//31 28//28 
f 27//27 29//29 26//26 
f 25//25 27//27 24//24 
f 23//23 25//25 22//22 
f 21//21 23//23 20//20 
f 19//19 21//21 18//18 
f 17//17 19//19 16//16 
f 15//15 17//17 14//14 
f 13//13 15//15 12//12 
f 11//11 13//13 10//10 
f 9//9 11//11 8//8 
f 7//7 9//9 6//6 
f 5//5 7//7 4//4 
f 3//3 5//5 1//1 
o mesh1332
v -0.00278917 0.3891 -0.34 
v -0.00278917 0.3383 -0.34 
v -0.0262669 0.3637 -0.34 
v -0.0262903 0.364132 -0.34 
v -0.0263604 0.36456 -0.34 
v -0.0262903 0.363268 -0.34 
v -0.0264763 0.362423 -0.34 
v -0.0263604 0.36284 -0.34 
v -0.0264763 0.364977 -0.34 
v -0.0266366 0.36538 -0.34 
v -0.0268395 0.361638 -0.34 
v -0.0266366 0.36202 -0.34 
v -0.0268395 0.365762 -0.34 
v -0.0270825 0.366121 -0.34 
v -0.0273629 0.360949 -0.34 
v -0.0270825 0.361279 -0.34 
v -0.0282146 0.3383 -0.34 
v -0.0287863 0.359984 -0.34 
v -0.0283933 0.360166 -0.34 
v -0.0280221 0.360389 -0.34 
v -0.0291968 0.359846 -0.34 
v -0.0487636 0.34877 -0.34 
v -0.0334513 0.361279 -0.34 
v -0.0331709 0.360949 -0.34 
v -0.0502116 0.351 -0.34 
v -0.0336943 0.361638 -0.34 
v -0.0514186 0.353369 -0.34 
v -0.0338972 0.36202 -0.34 
v -0.0523714 0.355851 -0.34 
v -0.0340575 0.362423 -0.34 
v -0.0530595 0.358419 -0.34 
v -0.0341734 0.36284 -0.34 
v -0.0534754 0.361045 -0.34 
v -0.0342434 0.363268 -0.34 
v -0.0534754 0.366355 -0.34 
v -0.0530595 0.368981 -0.34 
v -0.0341734 0.36456 -0.34 
v -0.0523714 0.371549 -0.34 
v -0.0340575 0.364977 -0.34 
v -0.0514186 0.374031 -0.34 
v -0.0338972 0.36538 -0.34 
v -0.0502116 0.3764 -0.34 
v -0.0336943 0.365762 -0.34 
v -0.0487636 0.37863 -0.34 
v -0.0334513 0.366121 -0.34 
v -0.0470905 0.380696 -0.34 
v -0.0331709 0.366451 -0.34 
v -0.0452105 0.382576 -0.34 
v -0.0431443 0.384249 -0.34 
v -0.0325116 0.367011 -0.34 
v -0.0409146 0.385697 -0.34 
v -0.0321405 0.367234 -0.34 
v -0.0282146 0.3891 -0.34 
v -0.0283933 0.367234 -0.34 
v -0.0276773 0.360651 -0.34 
v -0.0536146 0.3637 -0.34 
v -0.0342669 0.3637 -0.34 
v -0.0342434 0.364132 -0.34 
v -0.0328564 0.366749 -0.34 
v -0.0385457 0.386904 -0.34 
v -0.0317474 0.367416 -0.34 
v -0.0360636 0.387857 -0.34 
v -0.031337 0.367554 -0.34 
v -0.0334955 0.388545 -0.34 
v -0.030914 0.367647 -0.34 
v -0.0308696 0.388961 -0.34 
v -0.0304834 0.367694 -0.34 
v -0.0287863 0.367416 -0.34 
v -0.0273629 0.366451 -0.34 
v -0.0276773 0.366749 -0.34 
v -0.0300503 0.359706 -0.34 
v -0.0296198 0.359753 -0.34 
v -0.0308696 0.338439 -0.34 
v -0.0304834 0.359706 -0.34 
v -0.0334955 0.338855 -0.34 
v -0.030914 0.359753 -0.34 
v -0.0360636 0.339543 -0.34 
v -0.031337 0.359846 -0.34 
v -0.0385457 0.340496 -0.34 
v -0.0317474 0.359984 -0.34 
v -0.0409146 0.341703 -0.34 
v -0.0321405 0.360166 -0.34 
v -0.0452105 0.344824 -0.34 
v -0.0328564 0.360651 -0.34 
v -0.0325116 0.360389 -0.34 
v -0.0470905 0.346704 -0.34 
v -0.0300503 0.367694 -0.34 
v -0.0280221 0.367011 -0.34 
v -0.0431443 0.343151 -0.34 
v -0.0291968 0.367554 -0.34 
v -0.0296198 0.367647 -0.34 
vn 3.22977e-15 4.41162e-31 -1 
vn 3.22977e-15 4.41162e-31 -1 
vn 3.22977e-15 4.41162e-31 -1 
vn 3.22977e-15 4.41162e-31 -1 
vn 3.22977e-15 4.41162e-31 -1 
vn 3.22977e-15 4.41162e-31 -1 
vn 3.22977e-15 4.41162e-31 -1 
vn 3.22977e-15 4.41162e-31 -1 
vn 3.22977e-15 4.41162e-31 -1 
vn 3.22977e-15 4.41162e-31 -1 
vn 3.22977e-15 4.41162e-31 -1 
vn 3.22977e-15 4.41162e-31 -1 
vn 3.22977e-15 4.41162e-31 -1 
vn 3.22977e-15 4.41162e-31 -1 
vn 3.22977e-15 4.41162e-31 -1 
vn 3.22977e-15 4.41162e-31 -1 
vn 3.22977e-15 4.41162e-31 -1 
vn 3.22977e-15 4.41162e-31 -1 
vn 3.22977e-15 4.41162e-31 -1 
vn 3.22977e-15 4.41162e-31 -1 
vn 3.22977e-15 4.41162e-31 -1 
vn 3.22977e-15 4.41162e-31 -1 
vn 3.22977e-15 4.41162e-31 -1 
vn 3.22977e-15 4.41162e-31 -1 
vn 3.22977e-15 4.41162e-31 -1 
vn 3.22977e-15 4.41162e-31 -1 
vn 3.22977e-15 4.41162e-31 -1 
vn 3.22977e-15 4.41162e-31 -1 
vn 3.22977e-15 4.41162e-31 -1 
vn 3.22977e-15 4.41162e-31 -1 
vn 3.22977e-15 4.41162e-31 -1 
vn 3.22977e-15 4.41162e-31 -1 
vn 3.22977e-15 4.41162e-31 -1 
vn 3.22977e-15 4.41162e-31 -1 
vn 3.22977e-15 4.41162e-31 -1 
vn 3.22977e-15 4.41162e-31 -1 
vn 3.22977e-15 4.41162e-31 -1 
vn 3.22977e-15 4.41162e-31 -1 
vn 3.22977e-15 4.41162e-31 -1 
vn 3.22977e-15 4.41162e-31 -1 
vn 3.22977e-15 4.41162e-31 -1 
vn 3.22977e-15 4.41162e-31 -1 
vn 3.22977e-15 4.41162e-31 -1 
vn 3.22977e-15 4.41162e-31 -1 
vn 3.22977e-15 4.41162e-31 -1 
vn 3.22977e-15 4.41162e-31 -1 
vn 3.22977e-15 4.41162e-31 -1 
vn 3.22977e-15 4.41162e-31 -1 
vn 3.22977e-15 4.41162e-31 -1 
vn 3.22977e-15 4.41162e-31 -1 
vn 3.22977e-15 4.41162e-31 -1 
vn 3.22977e-15 4.41162e-31 -1 
vn 3.22977e-15 4.41162e-31 -1 
vn 3.22977e-15 4.41162e-31 -1 
vn 3.22977e-15 4.41162e-31 -1 
vn 3.22977e-15 4.41162e-31 -1 
vn 3.22977e-15 4.41162e-31 -1 
vn 3.22977e-15 4.41162e-31 -1 
vn 3.22977e-15 4.41162e-31 -1 
vn 3.22977e-15 4.41162e-31 -1 
vn 3.22977e-15 4.41162e-31 -1 
vn 3.22977e-15 4.41162e-31 -1 
vn 3.22977e-15 4.41162e-31 -1 
vn 3.22977e-15 4.41162e-31 -1 
vn 3.22977e-15 4.41162e-31 -1 
vn 3.22977e-15 4.41162e-31 -1 
vn 3.22977e-15 4.41162e-31 -1 
vn 3.22977e-15 4.41162e-31 -1 
vn 3.22977e-15 4.41162e-31 -1 
vn 3.22977e-15 4.41162e-31 -1 
vn 3.22977e-15 4.41162e-31 -1 
vn 3.22977e-15 4.41162e-31 -1 
vn 3.22977e-15 4.41162e-31 -1 
vn 3.22977e-15 4.41162e-31 -1 
vn 3.22977e-15 4.41162e-31 -1 
vn 3.22977e-15 4.41162e-31 -1 
vn 3.22977e-15 4.41162e-31 -1 
vn 3.22977e-15 4.41162e-31 -1 
vn 3.22977e-15 4.41162e-31 -1 
vn 3.22977e-15 4.41162e-31 -1 
vn 3.22977e-15 4.41162e-31 -1 
vn 3.22977e-15 4.41162e-31 -1 
vn 3.22977e-15 4.41162e-31 -1 
vn 3.22977e-15 4.41162e-31 -1 
vn 3.22977e-15 4.41162e-31 -1 
vn 3.22977e-15 4.41162e-31 -1 
vn 3.22977e-15 4.41162e-31 -1 
vn 3.22977e-15 4.41162e-31 -1 
vn 3.22977e-15 4.41162e-31 -1 
vn 3.22977e-15 4.41162e-31 -1 
vn 3.22977e-15 4.41162e-31 -1 
f 117//117 118//118 119//119 
f 117//117 120//120 121//121 
f 118//118 122//122 119//119 
f 119//119 120//120 117//117 
f 118//118 123//123 124//124 
f 117//117 125//125 126//126 
f 124//124 122//122 118//118 
f 121//121 125//125 117//117 
f 118//118 127//127 128//128 
f 117//117 129//129 130//130 
f 128//128 123//123 118//118 
f 126//126 129//129 117//117 
f 118//118 131//131 132//132 
f 133//133 134//134 135//135 
f 132//132 127//127 118//118 
f 118//118 135//135 136//136 
f 133//133 137//137 134//134 
f 138//138 139//139 140//140 
f 141//141 142//142 139//139 
f 143//143 144//144 142//142 
f 145//145 146//146 144//144 
f 147//147 148//148 146//146 
f 149//149 150//150 148//148 
f 151//151 152//152 153//153 
f 152//152 154//154 155//155 
f 154//154 156//156 157//157 
f 156//156 158//158 159//159 
f 158//158 160//160 161//161 
f 160//160 162//162 163//163 
f 164//164 165//165 166//166 
f 165//165 167//167 168//168 
f 169//169 117//117 170//170 
f 118//118 171//171 131//131 
f 135//135 118//118 133//133 
f 139//139 138//138 141//141 
f 144//144 143//143 145//145 
f 148//148 147//147 149//149 
f 172//172 173//173 150//150 
f 172//172 151//151 174//174 
f 155//155 153//153 152//152 
f 159//159 157//157 156//156 
f 163//163 161//161 160//160 
f 162//162 164//164 175//175 
f 168//168 166//166 165//165 
f 167//167 176//176 177//177 
f 176//176 178//178 179//179 
f 178//178 180//180 181//181 
f 180//180 182//182 183//183 
f 170//170 184//184 169//169 
f 117//117 185//185 186//186 
f 136//136 171//171 118//118 
f 133//133 187//187 188//188 
f 189//189 190//190 187//187 
f 191//191 192//192 190//190 
f 193//193 194//194 192//192 
f 195//195 196//196 194//194 
f 197//197 198//198 196//196 
f 199//199 200//200 201//201 
f 202//202 140//140 200//200 
f 142//142 141//141 143//143 
f 150//150 149//149 172//172 
f 153//153 174//174 151//151 
f 161//161 159//159 158//158 
f 166//166 175//175 164//164 
f 179//179 177//177 176//176 
f 183//183 181//181 180//180 
f 182//182 169//169 203//203 
f 117//117 204//204 170//170 
f 130//130 185//185 117//117 
f 187//187 133//133 189//189 
f 192//192 191//191 193//193 
f 196//196 195//195 197//197 
f 205//205 201//201 198//198 
f 200//200 199//199 202//202 
f 146//146 145//145 147//147 
f 157//157 155//155 154//154 
f 177//177 168//168 167//167 
f 203//203 183//183 182//182 
f 169//169 206//206 207//207 
f 186//186 204//204 117//117 
f 190//190 189//189 191//191 
f 198//198 197//197 205//205 
f 140//140 202//202 138//138 
f 175//175 163//163 162//162 
f 207//207 203//203 169//169 
f 188//188 137//137 133//133 
f 201//201 205//205 199//199 
f 181//181 179//179 178//178 
f 194//194 193//193 195//195 
f 184//184 206//206 169//169 
f 174//174 173//173 172//172 
o mesh1333
v -0.0536146 0.3637 -0.337947 
v -0.0536146 0.3637 -0.34 
v -0.0534754 0.361045 -0.34 
v -0.0534754 0.361045 -0.337947 
v -0.0530595 0.358419 -0.34 
v -0.0530595 0.358419 -0.337947 
v -0.0523714 0.355851 -0.34 
v -0.0523714 0.355851 -0.337947 
v -0.0514186 0.353369 -0.34 
v -0.0514186 0.353369 -0.337947 
v -0.0502116 0.351 -0.34 
v -0.0502116 0.351 -0.337947 
v -0.0487636 0.34877 -0.34 
v -0.0487636 0.34877 -0.337947 
v -0.0470905 0.346704 -0.34 
v -0.0470905 0.346704 -0.337947 
v -0.0452105 0.344824 -0.34 
v -0.0452105 0.344824 -0.337947 
v -0.0431443 0.343151 -0.34 
v -0.0431443 0.343151 -0.337947 
v -0.0409146 0.341703 -0.34 
v -0.0409146 0.341703 -0.337947 
v -0.0385457 0.340496 -0.34 
v -0.0385457 0.340496 -0.337947 
v -0.0360636 0.339543 -0.34 
v -0.0360636 0.339543 -0.337947 
v -0.0334955 0.338855 -0.34 
v -0.0334955 0.338855 -0.337947 
v -0.0308696 0.338439 -0.34 
v -0.0308696 0.338439 -0.337947 
v -0.0282146 0.3383 -0.34 
v -0.0282146 0.3383 -0.337947 
vn -1 1.22465e-16 -3.49148e-15 
vn -1 1.22465e-16 -3.49148e-15 
vn -0.994522 -0.104528 -3.47235e-15 
vn -0.994522 -0.104528 -3.47235e-15 
vn -0.978148 -0.207912 -3.41518e-15 
vn -0.978148 -0.207912 -3.41518e-15 
vn -0.951057 -0.309017 -3.3206e-15 
vn -0.951057 -0.309017 -3.3206e-15 
vn -0.913545 -0.406737 -3.18963e-15 
vn -0.913545 -0.406737 -3.18963e-15 
vn -0.866025 -0.5 -3.02371e-15 
vn -0.866025 -0.5 -3.02371e-15 
vn -0.809017 -0.587785 -2.82467e-15 
vn -0.809017 -0.587785 -2.82467e-15 
vn -0.743145 -0.669131 -2.59468e-15 
vn -0.743145 -0.669131 -2.59468e-15 
vn -0.669131 -0.743145 -2.33626e-15 
vn -0.669131 -0.743145 -2.33626e-15 
vn -0.587785 -0.809017 -2.05224e-15 
vn -0.587785 -0.809017 -2.05224e-15 
vn -0.5 -0.866025 -1.74574e-15 
vn -0.5 -0.866025 -1.74574e-15 
vn -0.406737 -0.913545 -1.42011e-15 
vn -0.406737 -0.913545 -1.42011e-15 
vn -0.309017 -0.951057 -1.07893e-15 
vn -0.309017 -0.951057 -1.07893e-15 
vn -0.207912 -0.978148 -7.2592e-16 
vn -0.207912 -0.978148 -7.2592e-16 
vn -0.104528 -0.994522 -3.64959e-16 
vn -0.104528 -0.994522 -3.64959e-16 
vn -1.83697e-16 -1 -6.41375e-31 
vn -1.83697e-16 -1 -6.41375e-31 
f 208//208 209//209 210//210 
f 211//211 210//210 212//212 
f 213//213 212//212 214//214 
f 215//215 214//214 216//216 
f 217//217 216//216 218//218 
f 219//219 218//218 220//220 
f 221//221 220//220 222//222 
f 223//223 222//222 224//224 
f 225//225 224//224 226//226 
f 227//227 226//226 228//228 
f 229//229 228//228 230//230 
f 231//231 230//230 232//232 
f 233//233 232//232 234//234 
f 235//235 234//234 236//236 
f 237//237 236//236 238//238 
f 238//238 239//239 237//237 
f 236//236 237//237 235//235 
f 234//234 235//235 233//233 
f 232//232 233//233 231//231 
f 230//230 231//231 229//229 
f 228//228 229//229 227//227 
f 226//226 227//227 225//225 
f 224//224 225//225 223//223 
f 222//222 223//223 221//221 
f 220//220 221//221 219//219 
f 218//218 219//219 217//217 
f 216//216 217//217 215//215 
f 214//214 215//215 213//213 
f 212//212 213//213 211//211 
f 210//210 211//211 208//208 
o mesh1334
v -0.0282146 0.3891 -0.337947 
v -0.0282146 0.3891 -0.34 
v -0.0308696 0.388961 -0.34 
v -0.0308696 0.388961 -0.337947 
v -0.0334955 0.388545 -0.34 
v -0.0334955 0.388545 -0.337947 
v -0.0360636 0.387857 -0.34 
v -0.0360636 0.387857 -0.337947 
v -0.0385457 0.386904 -0.34 
v -0.0385457 0.386904 -0.337947 
v -0.0409146 0.385697 -0.34 
v -0.0409146 0.385697 -0.337947 
v -0.0431443 0.384249 -0.34 
v -0.0431443 0.384249 -0.337947 
v -0.0452105 0.382576 -0.34 
v -0.0452105 0.382576 -0.337947 
v -0.0470905 0.380696 -0.34 
v -0.0470905 0.380696 -0.337947 
v -0.0487636 0.37863 -0.34 
v -0.0487636 0.37863 -0.337947 
v -0.0502116 0.3764 -0.34 
v -0.0502116 0.3764 -0.337947 
v -0.0514186 0.374031 -0.34 
v -0.0514186 0.374031 -0.337947 
v -0.0523714 0.371549 -0.34 
v -0.0523714 0.371549 -0.337947 
v -0.0530595 0.368981 -0.34 
v -0.0530595 0.368981 -0.337947 
v -0.0534754 0.366355 -0.34 
v -0.0534754 0.366355 -0.337947 
v -0.0536146 0.3637 -0.34 
v -0.0536146 0.3637 -0.337947 
vn 6.12323e-17 1 2.13792e-31 
vn 6.12323e-17 1 2.13792e-31 
vn -0.104528 0.994522 -3.64959e-16 
vn -0.104528 0.994522 -3.64959e-16 
vn -0.207912 0.978148 -7.2592e-16 
vn -0.207912 0.978148 -7.2592e-16 
vn -0.309017 0.951057 -1.07893e-15 
vn -0.309017 0.951057 -1.07893e-15 
vn -0.406737 0.913545 -1.42011e-15 
vn -0.406737 0.913545 -1.42011e-15 
vn -0.5 0.866025 -1.74574e-15 
vn -0.5 0.866025 -1.74574e-15 
vn -0.587785 0.809017 -2.05224e-15 
vn -0.587785 0.809017 -2.05224e-15 
vn -0.669131 0.743145 -2.33626e-15 
vn -0.669131 0.743145 -2.33626e-15 
vn -0.743145 0.669131 -2.59468e-15 
vn -0.743145 0.669131 -2.59468e-15 
vn -0.809017 0.587785 -2.82467e-15 
vn -0.809017 0.587785 -2.82467e-15 
vn -0.866025 0.5 -3.02371e-15 
vn -0.866025 0.5 -3.02371e-15 
vn -0.913545 0.406737 -3.18963e-15 
vn -0.913545 0.406737 -3.18963e-15 
vn -0.951057 0.309017 -3.3206e-15 
vn -0.951057 0.309017 -3.3206e-15 
vn -0.978148 0.207912 -3.41518e-15 
vn -0.978148 0.207912 -3.41518e-15 
vn -0.994522 0.104528 -3.47235e-15 
vn -0.994522 0.104528 -3.47235e-15 
vn -1 1.22465e-16 -3.49148e-15 
vn -1 1.22465e-16 -3.49148e-15 
f 240//240 241//241 242//242 
f 243//243 242//242 244//244 
f 245//245 244//244 246//246 
f 247//247 246//246 248//248 
f 249//249 248//248 250//250 
f 251//251 250//250 252//252 
f 253//253 252//252 254//254 
f 255//255 254//254 256//256 
f 257//257 256//256 258//258 
f 259//259 258//258 260//260 
f 261//261 260//260 262//262 
f 263//263 262//262 264//264 
f 265//265 264//264 266//266 
f 267//267 266//266 268//268 
f 269//269 268//268 270//270 
f 270//270 271//271 269//269 
f 268//268 269//269 267//267 
f 266//266 267//267 265//265 
f 264//264 265//265 263//263 
f 262//262 263//263 261//261 
f 260//260 261//261 259//259 
f 258//258 259//259 257//257 
f 256//256 257//257 255//255 
f 254//254 255//255 253//253 
f 252//252 253//253 251//251 
f 250//250 251//251 249//249 
f 248//248 249//249 247//247 
f 246//246 247//247 245//245 
f 244//244 245//245 243//243 
f 242//242 243//243 240//240 
o mesh1335
v -0.0530595 0.368981 -0.337947 
v -0.0341734 0.36456 -0.337947 
v -0.0340575 0.364977 -0.337947 
v -0.0534754 0.366355 -0.337947 
v -0.0342434 0.364132 -0.337947 
v -0.0536146 0.3637 -0.337947 
v -0.0342669 0.3637 -0.337947 
v -0.0534754 0.361045 -0.337947 
v -0.0342434 0.363268 -0.337947 
v -0.0487636 0.37863 -0.337947 
v -0.0334513 0.366121 -0.337947 
v -0.0331709 0.366451 -0.337947 
v -0.0502116 0.3764 -0.337947 
v -0.0336943 0.365762 -0.337947 
v -0.0514186 0.374031 -0.337947 
v -0.0338972 0.36538 -0.337947 
v -0.0523714 0.371549 -0.337947 
v -0.0530595 0.358419 -0.337947 
v -0.0341734 0.36284 -0.337947 
v -0.0523714 0.355851 -0.337947 
v -0.0340575 0.362423 -0.337947 
v -0.0431443 0.384249 -0.337947 
v -0.0325116 0.367011 -0.337947 
v -0.0321405 0.367234 -0.337947 
v -0.0452105 0.382576 -0.337947 
v -0.0328564 0.366749 -0.337947 
v -0.0514186 0.353369 -0.337947 
v -0.0338972 0.36202 -0.337947 
v -0.0502116 0.351 -0.337947 
v -0.0336943 0.361638 -0.337947 
v -0.0487636 0.34877 -0.337947 
v -0.0334513 0.361279 -0.337947 
v -0.0470905 0.346704 -0.337947 
v -0.0331709 0.360949 -0.337947 
v -0.0385457 0.386904 -0.337947 
v -0.0317474 0.367416 -0.337947 
v -0.031337 0.367554 -0.337947 
v -0.0409146 0.385697 -0.337947 
v -0.0470905 0.380696 -0.337947 
v -0.00278917 0.3383 -0.337947 
v -0.0262903 0.363268 -0.337947 
v -0.0263604 0.36284 -0.337947 
v -0.00278917 0.3891 -0.337947 
v -0.0262669 0.3637 -0.337947 
v -0.0264763 0.362423 -0.337947 
v -0.0266366 0.36202 -0.337947 
v -0.0264763 0.364977 -0.337947 
v -0.0263604 0.36456 -0.337947 
v -0.0452105 0.344824 -0.337947 
v -0.0328564 0.360651 -0.337947 
v -0.0431443 0.343151 -0.337947 
v -0.0325116 0.360389 -0.337947 
v -0.0409146 0.341703 -0.337947 
v -0.0385457 0.340496 -0.337947 
v -0.0317474 0.359984 -0.337947 
v -0.0360636 0.339543 -0.337947 
v -0.031337 0.359846 -0.337947 
v -0.0282146 0.3383 -0.337947 
v -0.0283933 0.360166 -0.337947 
v -0.0268395 0.361638 -0.337947 
v -0.0270825 0.361279 -0.337947 
v -0.0262903 0.364132 -0.337947 
v -0.0268395 0.365762 -0.337947 
v -0.0266366 0.36538 -0.337947 
v -0.0282146 0.3891 -0.337947 
v -0.0300503 0.367694 -0.337947 
v -0.0296198 0.367647 -0.337947 
v -0.0308696 0.388961 -0.337947 
v -0.0304834 0.367694 -0.337947 
v -0.0334955 0.388545 -0.337947 
v -0.030914 0.367647 -0.337947 
v -0.0360636 0.387857 -0.337947 
v -0.0321405 0.360166 -0.337947 
v -0.0334955 0.338855 -0.337947 
v -0.030914 0.359753 -0.337947 
v -0.0308696 0.338439 -0.337947 
v -0.0304834 0.359706 -0.337947 
v -0.0300503 0.359706 -0.337947 
v -0.0291968 0.359846 -0.337947 
v -0.0296198 0.359753 -0.337947 
v -0.0287863 0.359984 -0.337947 
v -0.0276773 0.360651 -0.337947 
v -0.0280221 0.360389 -0.337947 
v -0.0273629 0.366451 -0.337947 
v -0.0270825 0.366121 -0.337947 
v -0.0287863 0.367416 -0.337947 
v -0.0283933 0.367234 -0.337947 
v -0.0273629 0.360949 -0.337947 
v -0.0280221 0.367011 -0.337947 
v -0.0276773 0.366749 -0.337947 
v -0.0291968 0.367554 -0.337947 
vn -3.22977e-15 -4.41162e-31 1 
vn -3.22977e-15 -4.41162e-31 1 
vn -3.22977e-15 -4.41162e-31 1 
vn -3.22977e-15 -4.41162e-31 1 
vn -3.22977e-15 -4.41162e-31 1 
vn -3.22977e-15 -4.41162e-31 1 
vn -3.22977e-15 -4.41162e-31 1 
vn -3.22977e-15 -4.41162e-31 1 
vn -3.22977e-15 -4.41162e-31 1 
vn -3.22977e-15 -4.41162e-31 1 
vn -3.22977e-15 -4.41162e-31 1 
vn -3.22977e-15 -4.41162e-31 1 
vn -3.22977e-15 -4.41162e-31 1 
vn -3.22977e-15 -4.41162e-31 1 
vn -3.22977e-15 -4.41162e-31 1 
vn -3.22977e-15 -4.41162e-31 1 
vn -3.22977e-15 -4.41162e-31 1 
vn -3.22977e-15 -4.41162e-31 1 
vn -3.22977e-15 -4.41162e-31 1 
vn -3.22977e-15 -4.41162e-31 1 
vn -3.22977e-15 -4.41162e-31 1 
vn -3.22977e-15 -4.41162e-31 1 
vn -3.22977e-15 -4.41162e-31 1 
vn -3.22977e-15 -4.41162e-31 1 
vn -3.22977e-15 -4.41162e-31 1 
vn -3.22977e-15 -4.41162e-31 1 
vn -3.22977e-15 -4.41162e-31 1 
vn -3.22977e-15 -4.41162e-31 1 
vn -3.22977e-15 -4.41162e-31 1 
vn -3.22977e-15 -4.41162e-31 1 
vn -3.22977e-15 -4.41162e-31 1 
vn -3.22977e-15 -4.41162e-31 1 
vn -3.22977e-15 -4.41162e-31 1 
vn -3.22977e-15 -4.41162e-31 1 
vn -3.22977e-15 -4.41162e-31 1 
vn -3.22977e-15 -4.41162e-31 1 
vn -3.22977e-15 -4.41162e-31 1 
vn -3.22977e-15 -4.41162e-31 1 
vn -3.22977e-15 -4.41162e-31 1 
vn -3.22977e-15 -4.41162e-31 1 
vn -3.22977e-15 -4.41162e-31 1 
vn -3.22977e-15 -4.41162e-31 1 
vn -3.22977e-15 -4.41162e-31 1 
vn -3.22977e-15 -4.41162e-31 1 
vn -3.22977e-15 -4.41162e-31 1 
vn -3.22977e-15 -4.41162e-31 1 
vn -3.22977e-15 -4.41162e-31 1 
vn -3.22977e-15 -4.41162e-31 1 
vn -3.22977e-15 -4.41162e-31 1 
vn -3.22977e-15 -4.41162e-31 1 
vn -3.22977e-15 -4.41162e-31 1 
vn -3.22977e-15 -4.41162e-31 1 
vn -3.22977e-15 -4.41162e-31 1 
vn -3.22977e-15 -4.41162e-31 1 
vn -3.22977e-15 -4.41162e-31 1 
vn -3.22977e-15 -4.41162e-31 1 
vn -3.22977e-15 -4.41162e-31 1 
vn -3.22977e-15 -4.41162e-31 1 
vn -3.22977e-15 -4.41162e-31 1 
vn -3.22977e-15 -4.41162e-31 1 
vn -3.22977e-15 -4.41162e-31 1 
vn -3.22977e-15 -4.41162e-31 1 
vn -3.22977e-15 -4.41162e-31 1 
vn -3.22977e-15 -4.41162e-31 1 
vn -3.22977e-15 -4.41162e-31 1 
vn -3.22977e-15 -4.41162e-31 1 
vn -3.22977e-15 -4.41162e-31 1 
vn -3.22977e-15 -4.41162e-31 1 
vn -3.22977e-15 -4.41162e-31 1 
vn -3.22977e-15 -4.41162e-31 1 
vn -3.22977e-15 -4.41162e-31 1 
vn -3.22977e-15 -4.41162e-31 1 
vn -3.22977e-15 -4.41162e-31 1 
vn -3.22977e-15 -4.41162e-31 1 
vn -3.22977e-15 -4.41162e-31 1 
vn -3.22977e-15 -4.41162e-31 1 
vn -3.22977e-15 -4.41162e-31 1 
vn -3.22977e-15 -4.41162e-31 1 
vn -3.22977e-15 -4.41162e-31 1 
vn -3.22977e-15 -4.41162e-31 1 
vn -3.22977e-15 -4.41162e-31 1 
vn -3.22977e-15 -4.41162e-31 1 
vn -3.22977e-15 -4.41162e-31 1 
vn -3.22977e-15 -4.41162e-31 1 
vn -3.22977e-15 -4.41162e-31 1 
vn -3.22977e-15 -4.41162e-31 1 
vn -3.22977e-15 -4.41162e-31 1 
vn -3.22977e-15 -4.41162e-31 1 
vn -3.22977e-15 -4.41162e-31 1 
vn -3.22977e-15 -4.41162e-31 1 
vn -3.22977e-15 -4.41162e-31 1 
f 272//272 273//273 274//274 
f 275//275 276//276 273//273 
f 277//277 278//278 276//276 
f 277//277 279//279 280//280 
f 281//281 282//282 283//283 
f 284//284 285//285 282//282 
f 286//286 287//287 285//285 
f 288//288 274//274 287//287 
f 273//273 272//272 275//275 
f 280//280 278//278 277//277 
f 279//279 289//289 290//290 
f 289//289 291//291 292//292 
f 293//293 294//294 295//295 
f 296//296 297//297 294//294 
f 282//282 281//281 284//284 
f 287//287 286//286 288//288 
f 276//276 275//275 277//277 
f 292//292 290//290 289//289 
f 291//291 298//298 299//299 
f 298//298 300//300 301//301 
f 300//300 302//302 303//303 
f 302//302 304//304 305//305 
f 306//306 307//307 308//308 
f 309//309 295//295 307//307 
f 294//294 293//293 296//296 
f 310//310 283//283 297//297 
f 285//285 284//284 286//286 
f 290//290 280//280 279//279 
f 301//301 299//299 298//298 
f 305//305 303//303 302//302 
f 311//311 312//312 313//313 
f 311//311 314//314 315//315 
f 307//307 306//306 309//309 
f 297//297 296//296 310//310 
f 274//274 288//288 272//272 
f 303//303 301//301 300//300 
f 311//311 316//316 317//317 
f 315//315 312//312 311//311 
f 314//314 318//318 319//319 
f 295//295 309//309 293//293 
f 299//299 292//292 291//291 
f 304//304 320//320 321//321 
f 320//320 322//322 323//323 
f 324//324 325//325 326//326 
f 325//325 327//327 328//328 
f 329//329 311//311 330//330 
f 311//311 331//331 332//332 
f 313//313 316//316 311//311 
f 319//319 333//333 314//314 
f 314//314 334//334 335//335 
f 336//336 337//337 338//338 
f 339//339 340//340 337//337 
f 341//341 342//342 340//340 
f 343//343 308//308 342//342 
f 283//283 310//310 281//281 
f 323//323 321//321 320//320 
f 322//322 324//324 344//344 
f 328//328 326//326 325//325 
f 327//327 345//345 346//346 
f 345//345 347//347 348//348 
f 347//347 329//329 349//349 
f 329//329 350//350 351//351 
f 330//330 352//352 329//329 
f 311//311 353//353 354//354 
f 317//317 331//331 311//311 
f 335//335 318//318 314//314 
f 314//314 355//355 356//356 
f 336//336 357//357 358//358 
f 337//337 336//336 339//339 
f 342//342 341//341 343//343 
f 321//321 305//305 304//304 
f 326//326 344//344 324//324 
f 348//348 346//346 345//345 
f 351//351 349//349 329//329 
f 354//354 330//330 311//311 
f 332//332 359//359 311//311 
f 356//356 334//334 314//314 
f 314//314 360//360 361//361 
f 336//336 362//362 357//357 
f 340//340 339//339 341//341 
f 344//344 323//323 322//322 
f 349//349 348//348 347//347 
f 359//359 353//353 311//311 
f 361//361 355//355 314//314 
f 358//358 314//314 336//336 
f 308//308 343//343 306//306 
f 352//352 350//350 329//329 
f 358//358 360//360 314//314 
f 346//346 328//328 327//327 
f 338//338 362//362 336//336 
f 333//333 315//315 314//314 
o mesh1336
v -0.0282146 0.3891 -0.34 
v -0.0282146 0.3891 -0.337947 
v -0.00278917 0.3891 -0.337947 
v -0.00278917 0.3891 -0.34 
vn 0 1 0 
vn 0 1 0 
vn 0 1 0 
vn 0 1 0 
f 363//363 364//364 365//365 
f 365//365 366//366 363//363 
o mesh1337
v -6.09501e-05 0.3891 -0.337791 
v -0.00206867 0.3891 -0.337364 
v -0.00205661 0.3891 -0.337288 
v -0.000136512 0.3891 -0.338073 
v -0.00208863 0.3891 -0.337438 
v -0.000241137 0.3891 -0.338345 
v -0.00211626 0.3891 -0.33751 
v -0.000373678 0.3891 -0.338605 
v -0.00215126 0.3891 -0.337579 
v -0.00139459 0.3891 -0.339626 
v -0.00242087 0.3891 -0.337849 
v -0.00235621 0.3891 -0.337807 
v -0.00165471 0.3891 -0.339759 
v -0.00248957 0.3891 -0.337884 
v -0.000532685 0.3891 -0.33885 
v -0.00219325 0.3891 -0.337644 
v -0.000716414 0.3891 -0.339077 
v -0.00224177 0.3891 -0.337704 
v -0.00114974 0.3891 -0.339467 
v -0.00229629 0.3891 -0.337758 
v -0.000922852 0.3891 -0.339284 
v -0.00192727 0.3891 -0.339863 
v -0.00256155 0.3891 -0.337911 
v -0.00220927 0.3891 -0.339939 
v -0.00263603 0.3891 -0.337931 
v -0.00249763 0.3891 -0.339985 
v -0.00271218 0.3891 -0.337943 
v 0 0.3891 -0.337211 
v -1.52794e-05 0.3891 -0.337502 
v -0.00278917 0.3891 -0.34 
v -0.00278917 0.3891 -0.337947 
v -0.00205257 0.3891 -0.337211 
vn 0 1 0 
vn 0 1 0 
vn 0 1 0 
vn 0 1 0 
vn 0 1 0 
vn 0 1 0 
vn 0 1 0 
vn 0 1 0 
vn 0 1 0 
vn 0 1 0 
vn 0 1 0 
vn 0 1 0 
vn 0 1 0 
vn 0 1 0 
vn 0 1 0 
vn 0 1 0 
vn 0 1 0 
vn 0 1 0 
vn 0 1 0 
vn 0 1 0 
vn 0 1 0 
vn 0 1 0 
vn 0 1 0 
vn 0 1 0 
vn 0 1 0 
vn 0 1 0 
vn 0 1 0 
vn 0 1 0 
vn 0 1 0 
vn 0 1 0 
vn 0 1 0 
vn 0 1 0 
f 367//367 368//368 369//369 
f 370//370 371//371 368//368 
f 372//372 373//373 371//371 
f 372//372 374//374 375//375 
f 376//376 377//377 378//378 
f 376//376 379//379 380//380 
f 368//368 367//367 370//370 
f 375//375 373//373 372//372 
f 381//381 382//382 375//375 
f 381//381 383//383 384//384 
f 385//385 378//378 386//386 
f 380//380 377//377 376//376 
f 371//371 370//370 372//372 
f 384//384 382//382 381//381 
f 387//387 386//386 384//384 
f 378//378 385//385 376//376 
f 375//375 374//374 381//381 
f 386//386 387//387 385//385 
f 384//384 383//383 387//387 
f 388//388 389//389 380//380 
f 390//390 391//391 389//389 
f 392//392 393//393 391//391 
f 394//394 395//395 369//369 
f 380//380 379//379 388//388 
f 391//391 390//390 392//392 
f 392//392 396//396 397//397 
f 369//369 395//395 367//367 
f 397//397 393//393 392//392 
f 389//389 388//388 390//390 
f 369//369 398//398 394//394 
o mesh1338
v -0.00278917 0.3383 -0.337947 
v -0.0282146 0.3383 -0.337947 
v -0.0282146 0.3383 -0.34 
v -0.00278917 0.3383 -0.34 
vn 0 -1 0 
vn 0 -1 0 
vn 0 -1 0 
vn 0 -1 0 
f 399//399 400//400 401//401 
f 401//401 402//402 399//399 
o mesh1339
v -0.000241137 0.3383 -0.338345 
v -0.00211626 0.3383 -0.33751 
v -0.00215126 0.3383 -0.337579 
v -0.000136512 0.3383 -0.338073 
v -0.00208863 0.3383 -0.337438 
v -6.09501e-05 0.3383 -0.337791 
v -0.00206867 0.3383 -0.337364 
v -1.52794e-05 0.3383 -0.337502 
v -0.00205661 0.3383 -0.337288 
v -0.00139459 0.3383 -0.339626 
v -0.00242087 0.3383 -0.337849 
v -0.00248957 0.3383 -0.337884 
v -0.00114974 0.3383 -0.339467 
v -0.00235621 0.3383 -0.337807 
v -0.000532685 0.3383 -0.33885 
v -0.00219325 0.3383 -0.337644 
v -0.00224177 0.3383 -0.337704 
v -0.000373678 0.3383 -0.338605 
v -0.000922852 0.3383 -0.339284 
v -0.00229629 0.3383 -0.337758 
v -0.000716414 0.3383 -0.339077 
v 8.41341e-17 0.3383 -0.337211 
v -0.00205257 0.3383 -0.337211 
v -0.00249763 0.3383 -0.339985 
v -0.00220927 0.3383 -0.339939 
v -0.00263603 0.3383 -0.337931 
v -0.00192727 0.3383 -0.339863 
v -0.00256155 0.3383 -0.337911 
v -0.00271218 0.3383 -0.337943 
v -0.00278917 0.3383 -0.337947 
v -0.00165471 0.3383 -0.339759 
v -0.00278917 0.3383 -0.34 
vn 0 -1 0 
vn 0 -1 0 
vn 0 -1 0 
vn 0 -1 0 
vn 0 -1 0 
vn 0 -1 0 
vn 0 -1 0 
vn 0 -1 0 
vn 0 -1 0 
vn 0 -1 0 
vn 0 -1 0 
vn 0 -1 0 
vn 0 -1 0 
vn 0 -1 0 
vn 0 -1 0 
vn 0 -1 0 
vn 0 -1 0 
vn 0 -1 0 
vn 0 -1 0 
vn 0 -1 0 
vn 0 -1 0 
vn 0 -1 0 
vn 0 -1 0 
vn 0 -1 0 
vn 0 -1 0 
vn 0 -1 0 
vn 0 -1 0 
vn 0 -1 0 
vn 0 -1 0 
vn 0 -1 0 
vn 0 -1 0 
vn 0 -1 0 
f 403//403 404//404 405//405 
f 403//403 406//406 407//407 
f 406//406 408//408 409//409 
f 408//408 410//410 411//411 
f 412//412 413//413 414//414 
f 412//412 415//415 416//416 
f 417//417 418//418 419//419 
f 417//417 420//420 405//405 
f 407//407 404//404 403//403 
f 411//411 409//409 408//408 
f 416//416 413//413 412//412 
f 415//415 421//421 422//422 
f 405//405 418//418 417//417 
f 409//409 407//407 406//406 
f 422//422 416//416 415//415 
f 421//421 423//423 419//419 
f 405//405 420//420 403//403 
f 424//424 425//425 411//411 
f 426//426 427//427 428//428 
f 427//427 429//429 430//430 
f 419//419 422//422 421//421 
f 411//411 410//410 424//424 
f 426//426 431//431 432//432 
f 430//430 428//428 427//427 
f 429//429 433//433 414//414 
f 419//419 423//423 417//417 
f 428//428 431//431 426//426 
f 414//414 433//433 412//412 
f 414//414 430//430 429//429 
f 432//432 434//434 426//426 
o mesh1340
v -0.00278917 0.3383 -0.34 
v -0.00278917 0.3891 -0.34 
v -0.00249763 0.3891 -0.339985 
v -0.00249763 0.3383 -0.339985 
v -0.00220927 0.3891 -0.339939 
v -0.00220927 0.3383 -0.339939 
v -0.00192727 0.3891 -0.339863 
v -0.00192727 0.3383 -0.339863 
v -0.00165471 0.3891 -0.339759 
v -0.00165471 0.3383 -0.339759 
v -0.00139459 0.3891 -0.339626 
v -0.00139459 0.3383 -0.339626 
v -0.00114974 0.3891 -0.339467 
v -0.00114974 0.3383 -0.339467 
v -0.000922852 0.3891 -0.339284 
v -0.000922852 0.3383 -0.339284 
v -0.000716414 0.3891 -0.339077 
v -0.000716414 0.3383 -0.339077 
v -0.000532685 0.3891 -0.33885 
v -0.000532685 0.3383 -0.33885 
v -0.000373678 0.3891 -0.338605 
v -0.000373678 0.3383 -0.338605 
v -0.000241137 0.3891 -0.338345 
v -0.000241137 0.3383 -0.338345 
v -0.000136512 0.3891 -0.338073 
v -0.000136512 0.3383 -0.338073 
v -6.09501e-05 0.3891 -0.337791 
v -6.09501e-05 0.3383 -0.337791 
v -1.52794e-05 0.3891 -0.337502 
v -1.52794e-05 0.3383 -0.337502 
v 0 0.3891 -0.337211 
v 8.41341e-17 0.3383 -0.337211 
vn -1.21112e-15 -1.42612e-30 -1 
vn -1.21112e-15 -1.42612e-30 -1 
vn 0.104528 1.23084e-16 -0.994522 
vn 0.104528 1.23084e-16 -0.994522 
vn 0.207912 2.4482e-16 -0.978148 
vn 0.207912 2.4482e-16 -0.978148 
vn 0.309017 3.63874e-16 -0.951057 
vn 0.309017 3.63874e-16 -0.951057 
vn 0.406737 4.78941e-16 -0.913545 
vn 0.406737 4.78941e-16 -0.913545 
vn 0.5 5.8876e-16 -0.866025 
vn 0.5 5.8876e-16 -0.866025 
vn 0.587785 6.92129e-16 -0.809017 
vn 0.587785 6.92129e-16 -0.809017 
vn 0.669131 7.87915e-16 -0.743145 
vn 0.669131 7.87915e-16 -0.743145 
vn 0.743145 8.75068e-16 -0.669131 
vn 0.743145 8.75068e-16 -0.669131 
vn 0.809017 9.52634e-16 -0.587785 
vn 0.809017 9.52634e-16 -0.587785 
vn 0.866025 1.01976e-15 -0.5 
vn 0.866025 1.01976e-15 -0.5 
vn 0.913545 1.07572e-15 -0.406737 
vn 0.913545 1.07572e-15 -0.406737 
vn 0.951057 1.11989e-15 -0.309017 
vn 0.951057 1.11989e-15 -0.309017 
vn 0.978148 1.15179e-15 -0.207912 
vn 0.978148 1.15179e-15 -0.207912 
vn 0.994522 1.17107e-15 -0.104528 
vn 0.994522 1.17107e-15 -0.104528 
vn 1 1.17752e-15 5.99142e-17 
vn 1 1.17752e-15 5.99142e-17 
f 435//435 436//436 437//437 
f 438//438 437//437 439//439 
f 440//440 439//439 441//441 
f 442//442 441//441 443//443 
f 444//444 443//443 445//445 
f 446//446 445//445 447//447 
f 448//448 447//447 449//449 
f 450//450 449//449 451//451 
f 452//452 451//451 453//453 
f 454//454 453//453 455//455 
f 456//456 455//455 457//457 
f 458//458 457//457 459//459 
f 460//460 459//459 461//461 
f 462//462 461//461 463//463 
f 464//464 463//463 465//465 
f 465//465 466//466 464//464 
f 463//463 464//464 462//462 
f 461//461 462//462 460//460 
f 459//459 460//460 458//458 
f 457//457 458//458 456//456 
f 455//455 456//456 454//454 
f 453//453 454//454 452//452 
f 451//451 452//452 450//450 
f 449//449 450//450 448//448 
f 447//447 448//448 446//446 
f 445//445 446//446 444//444 
f 443//443 444//444 442//442 
f 441//441 442//442 440//440 
f 439//439 440//440 438//438 
f 437//437 438//438 435//435 
o mesh1341
v -0.00205661 0.3383 -0.337288 
v -0.00205257 0.3383 -0.337211 
v -0.00205257 0.3891 -0.337211 
v -0.00206867 0.3383 -0.337364 
v -0.00205661 0.3891 -0.337288 
v -0.00208863 0.3383 -0.337438 
v -0.00206867 0.3891 -0.337364 
v -0.00211626 0.3383 -0.33751 
v -0.00208863 0.3891 -0.337438 
v -0.00215126 0.3383 -0.337579 
v -0.00211626 0.3891 -0.33751 
v -0.00219325 0.3383 -0.337644 
v -0.00215126 0.3891 -0.337579 
v -0.00224177 0.3383 -0.337704 
v -0.00219325 0.3891 -0.337644 
v -0.00229629 0.3383 -0.337758 
v -0.00224177 0.3891 -0.337704 
v -0.00235621 0.3383 -0.337807 
v -0.00229629 0.3891 -0.337758 
v -0.00242087 0.3383 -0.337849 
v -0.00235621 0.3891 -0.337807 
v -0.00248957 0.3383 -0.337884 
v -0.00242087 0.3891 -0.337849 
v -0.00256155 0.3383 -0.337911 
v -0.00248957 0.3891 -0.337884 
v -0.00263603 0.3383 -0.337931 
v -0.00256155 0.3891 -0.337911 
v -0.00271218 0.3383 -0.337943 
v -0.00263603 0.3891 -0.337931 
v -0.00278917 0.3383 -0.337947 
v -0.00271218 0.3891 -0.337943 
v -0.00278917 0.3891 -0.337947 
vn -0.994522 -1.17107e-15 0.104528 
vn -1 -1.17752e-15 -5.99142e-17 
vn -1 -1.17752e-15 -5.99142e-17 
vn -0.978148 -1.15179e-15 0.207912 
vn -0.994522 -1.17107e-15 0.104528 
vn -0.951057 -1.11989e-15 0.309017 
vn -0.978148 -1.15179e-15 0.207912 
vn -0.913545 -1.07572e-15 0.406737 
vn -0.951057 -1.11989e-15 0.309017 
vn -0.866025 -1.01976e-15 0.5 
vn -0.913545 -1.07572e-15 0.406737 
vn -0.809017 -9.52634e-16 0.587785 
vn -0.866025 -1.01976e-15 0.5 
vn -0.743145 -8.75068e-16 0.669131 
vn -0.809017 -9.52634e-16 0.587785 
vn -0.669131 -7.87915e-16 0.743145 
vn -0.743145 -8.75068e-16 0.669131 
vn -0.587785 -6.92129e-16 0.809017 
vn -0.669131 -7.87915e-16 0.743145 
vn -0.5 -5.8876e-16 0.866025 
vn -0.587785 -6.92129e-16 0.809017 
vn -0.406737 -4.78941e-16 0.913545 
vn -0.5 -5.8876e-16 0.866025 
vn -0.309017 -3.63874e-16 0.951057 
vn -0.406737 -4.78941e-16 0.913545 
vn -0.207912 -2.4482e-16 0.978148 
vn -0.309017 -3.63874e-16 0.951057 
vn -0.104528 -1.23084e-16 0.994522 
vn -0.207912 -2.4482e-16 0.978148 
vn 3.87566e-15 4.56367e-30 1 
vn -0.104528 -1.23084e-16 0.994522 
vn 3.87566e-15 4.56367e-30 1 
f 467//467 468//468 469//469 
f 470//470 467//467 471//471 
f 472//472 470//470 473//473 
f 474//474 472//472 475//475 
f 476//476 474//474 477//477 
f 478//478 476//476 479//479 
f 480//480 478//478 481//481 
f 482//482 480//480 483//483 
f 484//484 482//482 485//485 
f 486//486 484//484 487//487 
f 488//488 486//486 489//489 
f 490//490 488//488 491//491 
f 492//492 490//490 493//493 
f 494//494 492//492 495//495 
f 496//496 494//494 497//497 
f 497//497 498//498 496//496 
f 495//495 497//497 494//494 
f 493//493 495//495 492//492 
f 491//491 493//493 490//490 
f 489//489 491//491 488//488 
f 487//487 489//489 486//486 
f 485//485 487//487 484//484 
f 483//483 485//485 482//482 
f 481//481 483//483 480//480 
f 479//479 481//481 478//478 
f 477//477 479//479 476//476 
f 475//475 477//477 474//474 
f 473//473 475//475 472//472 
f 471//471 473//473 470//470 
f 469//469 471//471 467//467 
o mesh1342
v 7.37257e-18 0.3891 -0.00278917 
v 0 0.3891 -0.337211 
v -0.00205257 0.3891 -0.337211 
v -0.00205257 0.3891 -0.00278917 
vn 0 1 1.63268e-16 
vn 0 1 1.63268e-16 
vn 0 1 1.63268e-16 
vn 0 1 1.63268e-16 
f 499//499 500//500 501//501 
f 501//501 502//502 499//499 
o mesh1343
v -0.00205257 0.3383 -0.337211 
v 8.41341e-17 0.3383 -0.337211 
v 0 0.3383 -0.336185 
v -0.00205257 0.3383 -0.336185 
vn 0 -1 0 
vn 0 -1 0 
vn 0 -1 0 
vn 0 -1 0 
f 503//503 504//504 505//505 
f 505//505 506//506 503//503 
o mesh1344
v -0.00205257 0.337274 -0.336185 
v -0.00205257 0.3383 -0.336185 
v 0 0.3383 -0.336185 
v 0 0.337274 -0.336185 
vn 6.12323e-17 0 -1 
vn 6.12323e-17 0 -1 
vn 6.12323e-17 0 -1 
vn 6.12323e-17 0 -1 
f 507//507 508//508 509//509 
f 509//509 510//510 507//507 
o mesh1345
v 0 0.337274 -0.34 
v -0.00205257 0.337274 -0.34 
v -0.00205257 0.337274 -0.336185 
v 0 0.337274 -0.336185 
vn 0 1 0 
vn 0 1 0 
vn 0 1 0 
vn 0 1 0 
f 511//511 512//512 513//513 
f 513//513 514//514 511//511 
o mesh1346
v 0 0 -0.34 
v -0.00205257 0 -0.34 
v -0.00205257 0.337274 -0.34 
v 0 0.337274 -0.34 
vn 6.12323e-17 0 -1 
vn 6.12323e-17 0 -1 
vn 6.12323e-17 0 -1 
vn 6.12323e-17 0 -1 
f 515//515 516//516 517//517 
f 517//517 518//518 515//515 
o mesh1347
v -0.00205257 0 -0.34 
v 0 0 -0.34 
v 0 0 0 
v -0.00205257 0 0 
vn 0 -1 0 
vn 0 -1 0 
vn 0 -1 0 
vn 0 -1 0 
f 519//519 520//520 521//521 
f 521//521 522//522 519//519 
o mesh1348
v -0.00205257 0 0 
v 0 0 0 
v 0 0.337274 0 
v -0.00205257 0.337274 0 
vn 0 0 1 
vn 0 0 1 
vn 0 0 1 
vn 0 0 1 
f 523//523 524//524 525//525 
f 525//525 526//526 523//523 
o mesh1349
v -0.00205257 0.337274 -0.00381546 
v -0.00205257 0.337274 0 
v 0 0.337274 0 
v 0 0.337274 -0.00381546 
vn 0 1 0 
vn 0 1 0 
vn 0 1 0 
vn 0 1 0 
f 527//527 528//528 529//529 
f 529//529 530//530 527//527 
o mesh1350
v -0.00205257 0.3383 -0.00381546 
v -0.00205257 0.337274 -0.00381546 
v 0 0.337274 -0.00381546 
v 0 0.3383 -0.00381546 
vn 0 0 1 
vn 0 0 1 
vn 0 0 1 
vn 0 0 1 
f 531//531 532//532 533//533 
f 533//533 534//534 531//531 
o mesh1351
v -0.00205257 0.337274 -0.00381546 
v -0.00205257 0.3383 -0.00381546 
v -0.00205257 0.3383 -0.336185 
v -0.00205257 0.3891 -0.337211 
v -0.00205257 0.3383 -0.337211 
v -0.00205257 0.3891 -0.00278917 
v -0.00205257 0.337274 -0.336185 
v -0.00205257 0 0 
v -0.00205257 0.337274 0 
v -0.00205257 0 -0.34 
v -0.00205257 0.3383 -0.00278917 
v -0.00205257 0.337274 -0.34 
vn -1 0 0 
vn -1 0 0 
vn -1 0 0 
vn -1 0 0 
vn -1 0 0 
vn -1 0 0 
vn -1 0 0 
vn -1 0 0 
vn -1 0 0 
vn -1 0 0 
vn -1 0 0 
vn -1 0 0 
f 535//535 536//536 537//537 
f 538//538 539//539 537//537 
f 540//540 538//538 536//536 
f 537//537 536//536 538//538 
f 537//537 541//541 535//535 
f 542//542 543//543 535//535 
f 544//544 542//542 541//541 
f 535//535 541//541 542//542 
f 536//536 545//545 540//540 
f 541//541 546//546 544//544 
o mesh1352
v 0 0 0 
v 0 0.337274 -0.336185 
v 0 0.337274 -0.00381546 
v 0 0.3383 -0.00381546 
v 0 0.3383 -0.336185 
v 7.37257e-18 0.3891 -0.00278917 
v 0 0.3383 -0.00278917 
v 0 0.3891 -0.337211 
v 0 0.337274 0 
v 0 0 -0.34 
v 0 0.337274 -0.34 
v 8.41341e-17 0.3383 -0.337211 
vn 1 0 0 
vn 1 0 0 
vn 1 0 0 
vn 1 0 0 
vn 1 0 0 
vn 1 0 0 
vn 1 0 0 
vn 1 0 0 
vn 1 0 0 
vn 1 0 0 
vn 1 0 0 
vn 1 0 0 
f 547//547 548//548 549//549 
f 550//550 549//549 548//548 
f 548//548 551//551 550//550 
f 552//552 553//553 550//550 
f 554//554 552//552 551//551 
f 550//550 551//551 552//552 
f 549//549 555//555 547//547 
f 556//556 557//557 548//548 
f 548//548 547//547 556//556 
f 551//551 558//558 554//554 
o mesh1353
v -0.00205257 0.3383 -0.00278917 
v -0.00205257 0.3383 -0.00381546 
v 0 0.3383 -0.00381546 
v 0 0.3383 -0.00278917 
vn 0 -1 0 
vn 0 -1 0 
vn 0 -1 0 
vn 0 -1 0 
f 559//559 560//560 561//561 
f 561//561 562//562 559//559 
o mesh1354
v -6.09501e-05 0.3383 -0.00220927 
v -0.00206867 0.3383 -0.00263603 
v -0.00205661 0.3383 -0.00271218 
v -0.000136512 0.3383 -0.00192727 
v -0.00208863 0.3383 -0.00256155 
v -0.000241137 0.3383 -0.00165471 
v -0.00211626 0.3383 -0.00248957 
v -0.000373678 0.3383 -0.00139459 
v -0.00215126 0.3383 -0.00242087 
v -0.000532685 0.3383 -0.00114974 
v -0.00219325 0.3383 -0.00235621 
v -0.000716414 0.3383 -0.000922852 
v -0.00224177 0.3383 -0.00229629 
v 0 0.3383 -0.00278917 
v -1.52794e-05 0.3383 -0.00249763 
v -0.00192727 0.3383 -0.000136512 
v -0.00256155 0.3383 -0.00208863 
v -0.00248957 0.3383 -0.00211626 
v -0.00220927 0.3383 -6.09501e-05 
v -0.00263603 0.3383 -0.00206867 
v -0.00249763 0.3383 -1.52794e-05 
v -0.00271218 0.3383 -0.00205661 
v -0.00278917 0.3383 2.1684e-18 
v -0.00278917 0.3383 -0.00205257 
v -0.000922852 0.3383 -0.000716414 
v -0.00229629 0.3383 -0.00224177 
v -0.00114974 0.3383 -0.000532685 
v -0.00235621 0.3383 -0.00219325 
v -0.00139459 0.3383 -0.000373678 
v -0.00242087 0.3383 -0.00215126 
v -0.00165471 0.3383 -0.000241137 
v -0.00205257 0.3383 -0.00278917 
vn 0 -1 0 
vn 0 -1 0 
vn 0 -1 0 
vn 0 -1 0 
vn 0 -1 0 
vn 0 -1 0 
vn 0 -1 0 
vn 0 -1 0 
vn 0 -1 0 
vn 0 -1 0 
vn 0 -1 0 
vn 0 -1 0 
vn 0 -1 0 
vn 0 -1 0 
vn 0 -1 0 
vn 0 -1 0 
vn 0 -1 0 
vn 0 -1 0 
vn 0 -1 0 
vn 0 -1 0 
vn 0 -1 0 
vn 0 -1 0 
vn 0 -1 0 
vn 0 -1 0 
vn 0 -1 0 
vn 0 -1 0 
vn 0 -1 0 
vn 0 -1 0 
vn 0 -1 0 
vn 0 -1 0 
vn 0 -1 0 
vn 0 -1 0 
f 563//563 564//564 565//565 
f 563//563 566//566 567//567 
f 568//568 569//569 567//567 
f 570//570 571//571 569//569 
f 572//572 573//573 571//571 
f 572//572 574//574 575//575 
f 576//576 577//577 565//565 
f 567//567 564//564 563//563 
f 569//569 568//568 570//570 
f 575//575 573//573 572//572 
f 578//578 579//579 580//580 
f 581//581 582//582 579//579 
f 583//583 584//584 582//582 
f 585//585 586//586 584//584 
f 565//565 577//577 563//563 
f 571//571 570//570 572//572 
f 587//587 588//588 575//575 
f 587//587 589//589 590//590 
f 591//591 592//592 590//590 
f 593//593 580//580 592//592 
f 579//579 578//578 581//581 
f 584//584 583//583 585//585 
f 567//567 566//566 568//568 
f 590//590 588//588 587//587 
f 592//592 591//591 593//593 
f 582//582 581//581 583//583 
f 575//575 574//574 587//587 
f 580//580 593//593 578//578 
f 590//590 589//589 591//591 
f 565//565 594//594 576//576 
o mesh1355
v -0.000532685 0.3891 -0.00114974 
v -0.00219325 0.3891 -0.00235621 
v -0.00224177 0.3891 -0.00229629 
v -0.000373678 0.3891 -0.00139459 
v -0.00215126 0.3891 -0.00242087 
v -0.000241137 0.3891 -0.00165471 
v -0.00211626 0.3891 -0.00248957 
v -0.000136512 0.3891 -0.00192727 
v -0.00208863 0.3891 -0.00256155 
v -6.09501e-05 0.3891 -0.00220927 
v -0.00206867 0.3891 -0.00263603 
v -1.52794e-05 0.3891 -0.00249763 
v -0.00205661 0.3891 -0.00271218 
v -0.00278917 0.3891 2.21775e-18 
v -0.00249763 0.3891 -1.52794e-05 
v -0.00271218 0.3891 -0.00205661 
v -0.00220927 0.3891 -6.09501e-05 
v -0.00263603 0.3891 -0.00206867 
v -0.00192727 0.3891 -0.000136512 
v -0.00256155 0.3891 -0.00208863 
v -0.00165471 0.3891 -0.000241137 
v -0.00248957 0.3891 -0.00211626 
v 7.37257e-18 0.3891 -0.00278917 
v -0.00205257 0.3891 -0.00278917 
v -0.00139459 0.3891 -0.000373678 
v -0.00242087 0.3891 -0.00215126 
v -0.00114974 0.3891 -0.000532685 
v -0.00235621 0.3891 -0.00219325 
v -0.000922852 0.3891 -0.000716414 
v -0.00229629 0.3891 -0.00224177 
v -0.000716414 0.3891 -0.000922852 
v -0.00278917 0.3891 -0.00205257 
vn 0 1 0 
vn 0 1 0 
vn 0 1 0 
vn 0 1 0 
vn 0 1 0 
vn 0 1 0 
vn 0 1 0 
vn 0 1 0 
vn 0 1 0 
vn 0 1 0 
vn 0 1 0 
vn 0 1 0 
vn 0 1 0 
vn 0 1 0 
vn 0 1 0 
vn 0 1 0 
vn 0 1 0 
vn 0 1 0 
vn 0 1 0 
vn 0 1 0 
vn 0 1 0 
vn 0 1 0 
vn 0 1 0 
vn 0 1 0 
vn 0 1 0 
vn 0 1 0 
vn 0 1 0 
vn 0 1 0 
vn 0 1 0 
vn 0 1 0 
vn 0 1 0 
vn 0 1 0 
f 595//595 596//596 597//597 
f 595//595 598//598 599//599 
f 598//598 600//600 601//601 
f 600//600 602//602 603//603 
f 604//604 605//605 603//603 
f 604//604 606//606 607//607 
f 608//608 609//609 610//610 
f 609//609 611//611 612//612 
f 611//611 613//613 614//614 
f 613//613 615//615 616//616 
f 599//599 596//596 595//595 
f 603//603 601//601 600//600 
f 607//607 605//605 604//604 
f 617//617 618//618 607//607 
f 612//612 610//610 609//609 
f 616//616 614//614 613//613 
f 615//615 619//619 620//620 
f 619//619 621//621 622//622 
f 623//623 624//624 622//622 
f 623//623 625//625 597//597 
f 601//601 599//599 598//598 
f 607//607 606//606 617//617 
f 614//614 612//612 611//611 
f 622//622 620//620 619//619 
f 597//597 624//624 623//623 
f 603//603 602//602 604//604 
f 620//620 616//616 615//615 
f 597//597 625//625 595//595 
f 622//622 621//621 623//623 
f 610//610 626//626 608//608 
o mesh1356
v -0.00278917 0.3891 2.21775e-18 
v -0.00278917 0.3383 2.1684e-18 
v -0.00249763 0.3383 -1.52794e-05 
v -0.00249763 0.3891 -1.52794e-05 
v -0.00220927 0.3383 -6.09501e-05 
v -0.00220927 0.3891 -6.09501e-05 
v -0.00192727 0.3383 -0.000136512 
v -0.00192727 0.3891 -0.000136512 
v -0.00165471 0.3383 -0.000241137 
v -0.00165471 0.3891 -0.000241137 
v -0.00139459 0.3383 -0.000373678 
v -0.00139459 0.3891 -0.000373678 
v -0.00114974 0.3383 -0.000532685 
v -0.00114974 0.3891 -0.000532685 
v -0.000922852 0.3383 -0.000716414 
v -0.000922852 0.3891 -0.000716414 
v -0.000716414 0.3383 -0.000922852 
v -0.000716414 0.3891 -0.000922852 
v -0.000532685 0.3383 -0.00114974 
v -0.000532685 0.3891 -0.00114974 
v -0.000373678 0.3383 -0.00139459 
v -0.000373678 0.3891 -0.00139459 
v -0.000241137 0.3383 -0.00165471 
v -0.000241137 0.3891 -0.00165471 
v -0.000136512 0.3383 -0.00192727 
v -0.000136512 0.3891 -0.00192727 
v -6.09501e-05 0.3383 -0.00220927 
v -6.09501e-05 0.3891 -0.00220927 
v -1.52794e-05 0.3383 -0.00249763 
v -1.52794e-05 0.3891 -0.00249763 
v 0 0.3383 -0.00278917 
v 7.37257e-18 0.3891 -0.00278917 
vn -1.83759e-15 0 1 
vn -1.83759e-15 0 1 
vn 0.104528 0 0.994522 
vn 0.104528 0 0.994522 
vn 0.207912 0 0.978148 
vn 0.207912 0 0.978148 
vn 0.309017 0 0.951057 
vn 0.309017 0 0.951057 
vn 0.406737 0 0.913545 
vn 0.406737 0 0.913545 
vn 0.5 0 0.866025 
vn 0.5 0 0.866025 
vn 0.587785 0 0.809017 
vn 0.587785 0 0.809017 
vn 0.669131 0 0.743145 
vn 0.669131 0 0.743145 
vn 0.743145 0 0.669131 
vn 0.743145 0 0.669131 
vn 0.809017 0 0.587785 
vn 0.809017 0 0.587785 
vn 0.866025 0 0.5 
vn 0.866025 0 0.5 
vn 0.913545 0 0.406737 
vn 0.913545 0 0.406737 
vn 0.951057 0 0.309017 
vn 0.951057 0 0.309017 
vn 0.978148 0 0.207912 
vn 0.978148 0 0.207912 
vn 0.994522 0 0.104528 
vn 0.994522 0 0.104528 
vn 1 0 -9.95799e-17 
vn 1 0 -9.95799e-17 
f 627//627 628//628 629//629 
f 630//630 629//629 631//631 
f 632//632 631//631 633//633 
f 634//634 633//633 635//635 
f 636//636 635//635 637//637 
f 638//638 637//637 639//639 
f 640//640 639//639 641//641 
f 642//642 641//641 643//643 
f 644//644 643//643 645//645 
f 646//646 645//645 647//647 
f 648//648 647//647 649//649 
f 650//650 649//649 651//651 
f 652//652 651//651 653//653 
f 654//654 653//653 655//655 
f 656//656 655//655 657//657 
f 657//657 658//658 656//656 
f 655//655 656//656 654//654 
f 653//653 654//654 652//652 
f 651//651 652//652 650//650 
f 649//649 650//650 648//648 
f 647//647 648//648 646//646 
f 645//645 646//646 644//644 
f 643//643 644//644 642//642 
f 641//641 642//642 640//640 
f 639//639 640//640 638//638 
f 637//637 638//638 636//636 
f 635//635 636//636 634//634 
f 633//633 634//634 632//632 
f 631//631 632//632 630//630 
f 629//629 630//630 627//627 
o mesh1357
v -0.00205661 0.3891 -0.00271218 
v -0.00205257 0.3891 -0.00278917 
v -0.00205257 0.3383 -0.00278917 
v -0.00206867 0.3891 -0.00263603 
v -0.00205661 0.3383 -0.00271218 
v -0.00208863 0.3891 -0.00256155 
v -0.00206867 0.3383 -0.00263603 
v -0.00211626 0.3891 -0.00248957 
v -0.00208863 0.3383 -0.00256155 
v -0.00215126 0.3891 -0.00242087 
v -0.00211626 0.3383 -0.00248957 
v -0.00219325 0.3891 -0.00235621 
v -0.00215126 0.3383 -0.00242087 
v -0.00224177 0.3891 -0.00229629 
v -0.00219325 0.3383 -0.00235621 
v -0.00229629 0.3891 -0.00224177 
v -0.00224177 0.3383 -0.00229629 
v -0.00235621 0.3891 -0.00219325 
v -0.00229629 0.3383 -0.00224177 
v -0.00242087 0.3891 -0.00215126 
v -0.00235621 0.3383 -0.00219325 
v -0.00248957 0.3891 -0.00211626 
v -0.00242087 0.3383 -0.00215126 
v -0.00256155 0.3891 -0.00208863 
v -0.00248957 0.3383 -0.00211626 
v -0.00263603 0.3891 -0.00206867 
v -0.00256155 0.3383 -0.00208863 
v -0.00271218 0.3891 -0.00205661 
v -0.00263603 0.3383 -0.00206867 
v -0.00278917 0.3891 -0.00205257 
v -0.00271218 0.3383 -0.00205661 
v -0.00278917 0.3383 -0.00205257 
vn -0.994522 0 -0.104528 
vn -1 0 9.95799e-17 
vn -1 0 9.95799e-17 
vn -0.978148 0 -0.207912 
vn -0.994522 0 -0.104528 
vn -0.951057 0 -0.309017 
vn -0.978148 0 -0.207912 
vn -0.913545 0 -0.406737 
vn -0.951057 0 -0.309017 
vn -0.866025 0 -0.5 
vn -0.913545 0 -0.406737 
vn -0.809017 0 -0.587785 
vn -0.866025 0 -0.5 
vn -0.743145 0 -0.669131 
vn -0.809017 0 -0.587785 
vn -0.669131 0 -0.743145 
vn -0.743145 0 -0.669131 
vn -0.587785 0 -0.809017 
vn -0.669131 0 -0.743145 
vn -0.5 0 -0.866025 
vn -0.587785 0 -0.809017 
vn -0.406737 0 -0.913545 
vn -0.5 0 -0.866025 
vn -0.309017 0 -0.951057 
vn -0.406737 0 -0.913545 
vn -0.207912 0 -0.978148 
vn -0.309017 0 -0.951057 
vn -0.104528 0 -0.994522 
vn -0.207912 0 -0.978148 
vn 6.27848e-15 0 -1 
vn -0.104528 0 -0.994522 
vn 6.27848e-15 0 -1 
f 659//659 660//660 661//661 
f 662//662 659//659 663//663 
f 664//664 662//662 665//665 
f 666//666 664//664 667//667 
f 668//668 666//666 669//669 
f 670//670 668//668 671//671 
f 672//672 670//670 673//673 
f 674//674 672//672 675//675 
f 676//676 674//674 677//677 
f 678//678 676//676 679//679 
f 680//680 678//678 681//681 
f 682//682 680//680 683//683 
f 684//684 682//682 685//685 
f 686//686 684//684 687//687 
f 688//688 686//686 689//689 
f 689//689 690//690 688//688 
f 687//687 689//689 686//686 
f 685//685 687//687 684//684 
f 683//683 685//685 682//682 
f 681//681 683//683 680//680 
f 679//679 681//681 678//678 
f 677//677 679//679 676//676 
f 675//675 677//677 674//674 
f 673//673 675//675 672//672 
f 671//671 673//673 670//670 
f 669//669 671//671 668//668 
f 667//667 669//669 666//666 
f 665//665 667//667 664//664 
f 663//663 665//665 662//662 
f 661//661 663//663 659//659 
o mesh1358
v -0.0282146 0.3891 -0.00205257 
v -0.0282146 0.3891 9.11381e-17 
v -0.00278917 0.3891 2.21775e-18 
v -0.00278917 0.3891 -0.00205257 
vn 0 1 0 
vn 0 1 0 
vn 0 1 0 
vn 0 1 0 
f 691//691 692//692 693//693 
f 693//693 694//694 691//691 
o mesh1359
v -0.0282146 0.3383 -0.00205257 
v -0.00278917 0.3383 -0.00205257 
v -0.00278917 0.3383 2.1684e-18 
v -0.0282146 0.3383 9.11381e-17 
vn 0 -1 0 
vn 0 -1 0 
vn 0 -1 0 
vn 0 -1 0 
f 695//695 696//696 697//697 
f 697//697 698//698 695//695 
o mesh1360
v -0.0536146 0.3637 -0.00205257 
v -0.0536146 0.3637 1.79822e-16 
v -0.0534754 0.366355 1.79336e-16 
v -0.0534754 0.366355 -0.00205257 
v -0.0530595 0.368981 1.77884e-16 
v -0.0530595 0.368981 -0.00205257 
v -0.0523714 0.371549 1.75481e-16 
v -0.0523714 0.371549 -0.00205257 
v -0.0514186 0.374031 1.72155e-16 
v -0.0514186 0.374031 -0.00205257 
v -0.0502116 0.3764 1.6794e-16 
v -0.0502116 0.3764 -0.00205257 
v -0.0487636 0.37863 1.62885e-16 
v -0.0487636 0.37863 -0.00205257 
v -0.0470905 0.380696 1.57043e-16 
v -0.0470905 0.380696 -0.00205257 
v -0.0452105 0.382576 1.50479e-16 
v -0.0452105 0.382576 -0.00205257 
v -0.0431443 0.384249 1.43265e-16 
v -0.0431443 0.384249 -0.00205257 
v -0.0409146 0.385697 1.3548e-16 
v -0.0409146 0.385697 -0.00205257 
v -0.0385457 0.386904 1.27209e-16 
v -0.0385457 0.386904 -0.00205257 
v -0.0360636 0.387857 1.18543e-16 
v -0.0360636 0.387857 -0.00205257 
v -0.0334955 0.388545 1.09576e-16 
v -0.0334955 0.388545 -0.00205257 
v -0.0308696 0.388961 1.00408e-16 
v -0.0308696 0.388961 -0.00205257 
v -0.0282146 0.3891 9.11381e-17 
v -0.0282146 0.3891 -0.00205257 
vn -1 0 3.49148e-15 
vn -1 0 3.49148e-15 
vn -0.994522 0.104528 3.47235e-15 
vn -0.994522 0.104528 3.47235e-15 
vn -0.978148 0.207912 3.41518e-15 
vn -0.978148 0.207912 3.41518e-15 
vn -0.951057 0.309017 3.3206e-15 
vn -0.951057 0.309017 3.3206e-15 
vn -0.913545 0.406737 3.18963e-15 
vn -0.913545 0.406737 3.18963e-15 
vn -0.866025 0.5 3.02371e-15 
vn -0.866025 0.5 3.02371e-15 
vn -0.809017 0.587785 2.82467e-15 
vn -0.809017 0.587785 2.82467e-15 
vn -0.743145 0.669131 2.59468e-15 
vn -0.743145 0.669131 2.59468e-15 
vn -0.669131 0.743145 2.33626e-15 
vn -0.669131 0.743145 2.33626e-15 
vn -0.587785 0.809017 2.05224e-15 
vn -0.587785 0.809017 2.05224e-15 
vn -0.5 0.866025 1.74574e-15 
vn -0.5 0.866025 1.74574e-15 
vn -0.406737 0.913545 1.42011e-15 
vn -0.406737 0.913545 1.42011e-15 
vn -0.309017 0.951057 1.07893e-15 
vn -0.309017 0.951057 1.07893e-15 
vn -0.207912 0.978148 7.2592e-16 
vn -0.207912 0.978148 7.2592e-16 
vn -0.104528 0.994522 3.64959e-16 
vn -0.104528 0.994522 3.64959e-16 
vn -6.12323e-17 1 2.13792e-31 
vn -6.12323e-17 1 2.13792e-31 
f 699//699 700//700 701//701 
f 702//702 701//701 703//703 
f 704//704 703//703 705//705 
f 706//706 705//705 707//707 
f 708//708 707//707 709//709 
f 710//710 709//709 711//711 
f 712//712 711//711 713//713 
f 714//714 713//713 715//715 
f 716//716 715//715 717//717 
f 718//718 717//717 719//719 
f 720//720 719//719 721//721 
f 722//722 721//721 723//723 
f 724//724 723//723 725//725 
f 726//726 725//725 727//727 
f 728//728 727//727 729//729 
f 729//729 730//730 728//728 
f 727//727 728//728 726//726 
f 725//725 726//726 724//724 
f 723//723 724//724 722//722 
f 721//721 722//722 720//720 
f 719//719 720//720 718//718 
f 717//717 718//718 716//716 
f 715//715 716//716 714//714 
f 713//713 714//714 712//712 
f 711//711 712//712 710//710 
f 709//709 710//710 708//708 
f 707//707 708//708 706//706 
f 705//705 706//706 704//704 
f 703//703 704//704 702//702 
f 701//701 702//702 699//699 
o mesh1361
v -0.0282146 0.3383 -0.00205257 
v -0.0282146 0.3383 9.11381e-17 
v -0.0308696 0.338439 1.00408e-16 
v -0.0308696 0.338439 -0.00205257 
v -0.0334955 0.338855 1.09576e-16 
v -0.0334955 0.338855 -0.00205257 
v -0.0360636 0.339543 1.18543e-16 
v -0.0360636 0.339543 -0.00205257 
v -0.0385457 0.340496 1.27209e-16 
v -0.0385457 0.340496 -0.00205257 
v -0.0409146 0.341703 1.3548e-16 
v -0.0409146 0.341703 -0.00205257 
v -0.0431443 0.343151 1.43265e-16 
v -0.0431443 0.343151 -0.00205257 
v -0.0452105 0.344824 1.50479e-16 
v -0.0452105 0.344824 -0.00205257 
v -0.0470905 0.346704 1.57043e-16 
v -0.0470905 0.346704 -0.00205257 
v -0.0487636 0.34877 1.62885e-16 
v -0.0487636 0.34877 -0.00205257 
v -0.0502116 0.351 1.6794e-16 
v -0.0502116 0.351 -0.00205257 
v -0.0514186 0.353369 1.72155e-16 
v -0.0514186 0.353369 -0.00205257 
v -0.0523714 0.355851 1.75481e-16 
v -0.0523714 0.355851 -0.00205257 
v -0.0530595 0.358419 1.77884e-16 
v -0.0530595 0.358419 -0.00205257 
v -0.0534754 0.361045 1.79336e-16 
v -0.0534754 0.361045 -0.00205257 
v -0.0536146 0.3637 1.79822e-16 
v -0.0536146 0.3637 -0.00205257 
vn 1.83697e-16 -1 -6.41375e-31 
vn 1.83697e-16 -1 -6.41375e-31 
vn -0.104528 -0.994522 3.64959e-16 
vn -0.104528 -0.994522 3.64959e-16 
vn -0.207912 -0.978148 7.2592e-16 
vn -0.207912 -0.978148 7.2592e-16 
vn -0.309017 -0.951057 1.07893e-15 
vn -0.309017 -0.951057 1.07893e-15 
vn -0.406737 -0.913545 1.42011e-15 
vn -0.406737 -0.913545 1.42011e-15 
vn -0.5 -0.866025 1.74574e-15 
vn -0.5 -0.866025 1.74574e-15 
vn -0.587785 -0.809017 2.05224e-15 
vn -0.587785 -0.809017 2.05224e-15 
vn -0.669131 -0.743145 2.33626e-15 
vn -0.669131 -0.743145 2.33626e-15 
vn -0.743145 -0.669131 2.59468e-15 
vn -0.743145 -0.669131 2.59468e-15 
vn -0.809017 -0.587785 2.82467e-15 
vn -0.809017 -0.587785 2.82467e-15 
vn -0.866025 -0.5 3.02371e-15 
vn -0.866025 -0.5 3.02371e-15 
vn -0.913545 -0.406737 3.18963e-15 
vn -0.913545 -0.406737 3.18963e-15 
vn -0.951057 -0.309017 3.3206e-15 
vn -0.951057 -0.309017 3.3206e-15 
vn -0.978148 -0.207912 3.41518e-15 
vn -0.978148 -0.207912 3.41518e-15 
vn -0.994522 -0.104528 3.47235e-15 
vn -0.994522 -0.104528 3.47235e-15 
vn -1 -2.44929e-16 3.49148e-15 
vn -1 -2.44929e-16 3.49148e-15 
f 731//731 732//732 733//733 
f 734//734 733//733 735//735 
f 736//736 735//735 737//737 
f 738//738 737//737 739//739 
f 740//740 739//739 741//741 
f 742//742 741//741 743//743 
f 744//744 743//743 745//745 
f 746//746 745//745 747//747 
f 748//748 747//747 749//749 
f 750//750 749//749 751//751 
f 752//752 751//751 753//753 
f 754//754 753//753 755//755 
f 756//756 755//755 757//757 
f 758//758 757//757 759//759 
f 760//760 759//759 761//761 
f 761//761 762//762 760//760 
f 759//759 760//760 758//758 
f 757//757 758//758 756//756 
f 755//755 756//756 754//754 
f 753//753 754//754 752//752 
f 751//751 752//752 750//750 
f 749//749 750//750 748//748 
f 747//747 748//748 746//746 
f 745//745 746//746 744//744 
f 743//743 744//744 742//742 
f 741//741 742//742 740//740 
f 739//739 740//740 738//738 
f 737//737 738//738 736//736 
f 735//735 736//736 734//734 
f 733//733 734//734 731//731 
o mesh1362
v -0.0530595 0.368981 1.77884e-16 
v -0.0341734 0.36456 1.11022e-16 
v -0.0340575 0.364977 1.11022e-16 
v -0.0534754 0.366355 1.79336e-16 
v -0.0342434 0.364132 1.11022e-16 
v -0.0536146 0.3637 1.79822e-16 
v -0.0342669 0.3637 1.11022e-16 
v -0.0534754 0.361045 1.79336e-16 
v -0.0342434 0.363268 1.11022e-16 
v -0.0487636 0.37863 1.62885e-16 
v -0.0334513 0.366121 1.11022e-16 
v -0.0331709 0.366451 1.11022e-16 
v -0.0502116 0.3764 1.6794e-16 
v -0.0336943 0.365762 1.11022e-16 
v -0.0514186 0.374031 1.72155e-16 
v -0.0338972 0.36538 1.11022e-16 
v -0.0523714 0.371549 1.75481e-16 
v -0.0530595 0.358419 1.77884e-16 
v -0.0341734 0.36284 1.11022e-16 
v -0.0523714 0.355851 1.75481e-16 
v -0.0340575 0.362423 1.11022e-16 
v -0.0431443 0.384249 1.43265e-16 
v -0.0325116 0.367011 1.11022e-16 
v -0.0321405 0.367234 1.11022e-16 
v -0.0452105 0.382576 1.50479e-16 
v -0.0328564 0.366749 1.11022e-16 
v -0.0514186 0.353369 1.72155e-16 
v -0.0338972 0.36202 1.11022e-16 
v -0.0502116 0.351 1.6794e-16 
v -0.0336943 0.361638 1.11022e-16 
v -0.0487636 0.34877 1.62885e-16 
v -0.0334513 0.361279 1.11022e-16 
v -0.0470905 0.346704 1.57043e-16 
v -0.0331709 0.360949 1.11022e-16 
v -0.0385457 0.386904 1.27209e-16 
v -0.0317474 0.367416 1.11022e-16 
v -0.031337 0.367554 1.11022e-16 
v -0.0409146 0.385697 1.3548e-16 
v -0.0470905 0.380696 1.57043e-16 
v -0.00278917 0.3383 2.1684e-18 
v -0.0262903 0.363268 1.11022e-16 
v -0.0263604 0.36284 1.11022e-16 
v -0.00278917 0.3891 2.21775e-18 
v -0.0262669 0.3637 1.11022e-16 
v -0.0264763 0.362423 1.11022e-16 
v -0.0266366 0.36202 1.11022e-16 
v -0.0264763 0.364977 1.11022e-16 
v -0.0263604 0.36456 1.11022e-16 
v -0.0452105 0.344824 1.50479e-16 
v -0.0328564 0.360651 1.11022e-16 
v -0.0431443 0.343151 1.43265e-16 
v -0.0325116 0.360389 1.11022e-16 
v -0.0409146 0.341703 1.3548e-16 
v -0.0385457 0.340496 1.27209e-16 
v -0.0317474 0.359984 1.11022e-16 
v -0.0360636 0.339543 1.18543e-16 
v -0.031337 0.359846 1.11022e-16 
v -0.0282146 0.3383 9.11381e-17 
v -0.0283933 0.360166 1.11022e-16 
v -0.0268395 0.361638 1.11022e-16 
v -0.0270825 0.361279 1.11022e-16 
v -0.0262903 0.364132 1.11022e-16 
v -0.0268395 0.365762 1.11022e-16 
v -0.0266366 0.36538 1.11022e-16 
v -0.0282146 0.3891 9.11381e-17 
v -0.0300503 0.367694 1.11022e-16 
v -0.0296198 0.367647 1.11022e-16 
v -0.0308696 0.388961 1.00408e-16 
v -0.0304834 0.367694 1.11022e-16 
v -0.0334955 0.388545 1.09576e-16 
v -0.030914 0.367647 1.11022e-16 
v -0.0360636 0.387857 1.18543e-16 
v -0.0321405 0.360166 1.11022e-16 
v -0.0334955 0.338855 1.09576e-16 
v -0.030914 0.359753 1.11022e-16 
v -0.0308696 0.338439 1.00408e-16 
v -0.0304834 0.359706 1.11022e-16 
v -0.0300503 0.359706 1.11022e-16 
v -0.0291968 0.359846 1.11022e-16 
v -0.0296198 0.359753 1.11022e-16 
v -0.0287863 0.359984 1.11022e-16 
v -0.0276773 0.360651 1.11022e-16 
v -0.0280221 0.360389 1.11022e-16 
v -0.0273629 0.366451 1.11022e-16 
v -0.0270825 0.366121 1.11022e-16 
v -0.0287863 0.367416 1.11022e-16 
v -0.0283933 0.367234 1.11022e-16 
v -0.0273629 0.360949 1.11022e-16 
v -0.0280221 0.367011 1.11022e-16 
v -0.0276773 0.366749 1.11022e-16 
v -0.0291968 0.367554 1.11022e-16 
vn 3.49148e-15 1.43763e-32 1 
vn 3.49148e-15 1.43763e-32 1 
vn 3.49148e-15 1.43763e-32 1 
vn 3.49148e-15 1.43763e-32 1 
vn 3.49148e-15 1.43763e-32 1 
vn 3.49148e-15 1.43763e-32 1 
vn 3.49148e-15 1.43763e-32 1 
vn 3.49148e-15 1.43763e-32 1 
vn 3.49148e-15 1.43763e-32 1 
vn 3.49148e-15 1.43763e-32 1 
vn 3.49148e-15 1.43763e-32 1 
vn 3.49148e-15 1.43763e-32 1 
vn 3.49148e-15 1.43763e-32 1 
vn 3.49148e-15 1.43763e-32 1 
vn 3.49148e-15 1.43763e-32 1 
vn 3.49148e-15 1.43763e-32 1 
vn 3.49148e-15 1.43763e-32 1 
vn 3.49148e-15 1.43763e-32 1 
vn 3.49148e-15 1.43763e-32 1 
vn 3.49148e-15 1.43763e-32 1 
vn 3.49148e-15 1.43763e-32 1 
vn 3.49148e-15 1.43763e-32 1 
vn 3.49148e-15 1.43763e-32 1 
vn 3.49148e-15 1.43763e-32 1 
vn 3.49148e-15 1.43763e-32 1 
vn 3.49148e-15 1.43763e-32 1 
vn 3.49148e-15 1.43763e-32 1 
vn 3.49148e-15 1.43763e-32 1 
vn 3.49148e-15 1.43763e-32 1 
vn 3.49148e-15 1.43763e-32 1 
vn 3.49148e-15 1.43763e-32 1 
vn 3.49148e-15 1.43763e-32 1 
vn 3.49148e-15 1.43763e-32 1 
vn 3.49148e-15 1.43763e-32 1 
vn 3.49148e-15 1.43763e-32 1 
vn 3.49148e-15 1.43763e-32 1 
vn 3.49148e-15 1.43763e-32 1 
vn 3.49148e-15 1.43763e-32 1 
vn 3.49148e-15 1.43763e-32 1 
vn 3.49148e-15 1.43763e-32 1 
vn 3.49148e-15 1.43763e-32 1 
vn 3.49148e-15 1.43763e-32 1 
vn 3.49148e-15 1.43763e-32 1 
vn 3.49148e-15 1.43763e-32 1 
vn 3.49148e-15 1.43763e-32 1 
vn 3.49148e-15 1.43763e-32 1 
vn 3.49148e-15 1.43763e-32 1 
vn 3.49148e-15 1.43763e-32 1 
vn 3.49148e-15 1.43763e-32 1 
vn 3.49148e-15 1.43763e-32 1 
vn 3.49148e-15 1.43763e-32 1 
vn 3.49148e-15 1.43763e-32 1 
vn 3.49148e-15 1.43763e-32 1 
vn 3.49148e-15 1.43763e-32 1 
vn 3.49148e-15 1.43763e-32 1 
vn 3.49148e-15 1.43763e-32 1 
vn 3.49148e-15 1.43763e-32 1 
vn 3.49148e-15 1.43763e-32 1 
vn 3.49148e-15 1.43763e-32 1 
vn 3.49148e-15 1.43763e-32 1 
vn 3.49148e-15 1.43763e-32 1 
vn 3.49148e-15 1.43763e-32 1 
vn 3.49148e-15 1.43763e-32 1 
vn 3.49148e-15 1.43763e-32 1 
vn 3.49148e-15 1.43763e-32 1 
vn 3.49148e-15 1.43763e-32 1 
vn 3.49148e-15 1.43763e-32 1 
vn 3.49148e-15 1.43763e-32 1 
vn 3.49148e-15 1.43763e-32 1 
vn 3.49148e-15 1.43763e-32 1 
vn 3.49148e-15 1.43763e-32 1 
vn 3.49148e-15 1.43763e-32 1 
vn 3.49148e-15 1.43763e-32 1 
vn 3.49148e-15 1.43763e-32 1 
vn 3.49148e-15 1.43763e-32 1 
vn 3.49148e-15 1.43763e-32 1 
vn 3.49148e-15 1.43763e-32 1 
vn 3.49148e-15 1.43763e-32 1 
vn 3.49148e-15 1.43763e-32 1 
vn 3.49148e-15 1.43763e-32 1 
vn 3.49148e-15 1.43763e-32 1 
vn 3.49148e-15 1.43763e-32 1 
vn 3.49148e-15 1.43763e-32 1 
vn 3.49148e-15 1.43763e-32 1 
vn 3.49148e-15 1.43763e-32 1 
vn 3.49148e-15 1.43763e-32 1 
vn 3.49148e-15 1.43763e-32 1 
vn 3.49148e-15 1.43763e-32 1 
vn 3.49148e-15 1.43763e-32 1 
vn 3.49148e-15 1.43763e-32 1 
vn 3.49148e-15 1.43763e-32 1 
f 763//763 764//764 765//765 
f 766//766 767//767 764//764 
f 768//768 769//769 767//767 
f 768//768 770//770 771//771 
f 772//772 773//773 774//774 
f 775//775 776//776 773//773 
f 777//777 778//778 776//776 
f 779//779 765//765 778//778 
f 764//764 763//763 766//766 
f 771//771 769//769 768//768 
f 770//770 780//780 781//781 
f 780//780 782//782 783//783 
f 784//784 785//785 786//786 
f 787//787 788//788 785//785 
f 773//773 772//772 775//775 
f 778//778 777//777 779//779 
f 767//767 766//766 768//768 
f 783//783 781//781 780//780 
f 782//782 789//789 790//790 
f 789//789 791//791 792//792 
f 791//791 793//793 794//794 
f 793//793 795//795 796//796 
f 797//797 798//798 799//799 
f 800//800 786//786 798//798 
f 785//785 784//784 787//787 
f 801//801 774//774 788//788 
f 776//776 775//775 777//777 
f 781//781 771//771 770//770 
f 792//792 790//790 789//789 
f 796//796 794//794 793//793 
f 802//802 803//803 804//804 
f 802//802 805//805 806//806 
f 798//798 797//797 800//800 
f 788//788 787//787 801//801 
f 765//765 779//779 763//763 
f 794//794 792//792 791//791 
f 802//802 807//807 808//808 
f 806//806 803//803 802//802 
f 805//805 809//809 810//810 
f 786//786 800//800 784//784 
f 790//790 783//783 782//782 
f 795//795 811//811 812//812 
f 811//811 813//813 814//814 
f 815//815 816//816 817//817 
f 816//816 818//818 819//819 
f 820//820 802//802 821//821 
f 802//802 822//822 823//823 
f 804//804 807//807 802//802 
f 810//810 824//824 805//805 
f 805//805 825//825 826//826 
f 827//827 828//828 829//829 
f 830//830 831//831 828//828 
f 832//832 833//833 831//831 
f 834//834 799//799 833//833 
f 774//774 801//801 772//772 
f 814//814 812//812 811//811 
f 813//813 815//815 835//835 
f 819//819 817//817 816//816 
f 818//818 836//836 837//837 
f 836//836 838//838 839//839 
f 838//838 820//820 840//840 
f 820//820 841//841 842//842 
f 821//821 843//843 820//820 
f 802//802 844//844 845//845 
f 808//808 822//822 802//802 
f 826//826 809//809 805//805 
f 805//805 846//846 847//847 
f 827//827 848//848 849//849 
f 828//828 827//827 830//830 
f 833//833 832//832 834//834 
f 812//812 796//796 795//795 
f 817//817 835//835 815//815 
f 839//839 837//837 836//836 
f 842//842 840//840 820//820 
f 845//845 821//821 802//802 
f 823//823 850//850 802//802 
f 847//847 825//825 805//805 
f 805//805 851//851 852//852 
f 827//827 853//853 848//848 
f 831//831 830//830 832//832 
f 835//835 814//814 813//813 
f 840//840 839//839 838//838 
f 850//850 844//844 802//802 
f 852//852 846//846 805//805 
f 849//849 805//805 827//827 
f 799//799 834//834 797//797 
f 843//843 841//841 820//820 
f 849//849 851//851 805//805 
f 837//837 819//819 818//818 
f 829//829 853//853 827//827 
f 824//824 806//806 805//805 
o mesh1363
v -0.00278917 0.3383 -0.00205257 
v -0.0262903 0.363268 -0.00205257 
v -0.0262669 0.3637 -0.00205257 
v -0.00278917 0.3891 -0.00205257 
v -0.0262903 0.364132 -0.00205257 
v -0.0263604 0.36456 -0.00205257 
v -0.0264763 0.362423 -0.00205257 
v -0.0263604 0.36284 -0.00205257 
v -0.0264763 0.364977 -0.00205257 
v -0.0266366 0.36538 -0.00205257 
v -0.0268395 0.361638 -0.00205257 
v -0.0266366 0.36202 -0.00205257 
v -0.0268395 0.365762 -0.00205257 
v -0.0270825 0.366121 -0.00205257 
v -0.0273629 0.360949 -0.00205257 
v -0.0270825 0.361279 -0.00205257 
v -0.0282146 0.3383 -0.00205257 
v -0.0287863 0.359984 -0.00205257 
v -0.0283933 0.360166 -0.00205257 
v -0.0280221 0.360389 -0.00205257 
v -0.0291968 0.359846 -0.00205257 
v -0.0487636 0.34877 -0.00205257 
v -0.0334513 0.361279 -0.00205257 
v -0.0331709 0.360949 -0.00205257 
v -0.0502116 0.351 -0.00205257 
v -0.0336943 0.361638 -0.00205257 
v -0.0514186 0.353369 -0.00205257 
v -0.0338972 0.36202 -0.00205257 
v -0.0523714 0.355851 -0.00205257 
v -0.0340575 0.362423 -0.00205257 
v -0.0530595 0.358419 -0.00205257 
v -0.0341734 0.36284 -0.00205257 
v -0.0534754 0.361045 -0.00205257 
v -0.0342434 0.363268 -0.00205257 
v -0.0534754 0.366355 -0.00205257 
v -0.0530595 0.368981 -0.00205257 
v -0.0341734 0.36456 -0.00205257 
v -0.0523714 0.371549 -0.00205257 
v -0.0340575 0.364977 -0.00205257 
v -0.0514186 0.374031 -0.00205257 
v -0.0338972 0.36538 -0.00205257 
v -0.0502116 0.3764 -0.00205257 
v -0.0336943 0.365762 -0.00205257 
v -0.0487636 0.37863 -0.00205257 
v -0.0334513 0.366121 -0.00205257 
v -0.0470905 0.380696 -0.00205257 
v -0.0331709 0.366451 -0.00205257 
v -0.0452105 0.382576 -0.00205257 
v -0.0431443 0.384249 -0.00205257 
v -0.0325116 0.367011 -0.00205257 
v -0.0409146 0.385697 -0.00205257 
v -0.0321405 0.367234 -0.00205257 
v -0.0282146 0.3891 -0.00205257 
v -0.0283933 0.367234 -0.00205257 
v -0.0276773 0.360651 -0.00205257 
v -0.0536146 0.3637 -0.00205257 
v -0.0342669 0.3637 -0.00205257 
v -0.0342434 0.364132 -0.00205257 
v -0.0328564 0.366749 -0.00205257 
v -0.0385457 0.386904 -0.00205257 
v -0.0317474 0.367416 -0.00205257 
v -0.0360636 0.387857 -0.00205257 
v -0.031337 0.367554 -0.00205257 
v -0.0334955 0.388545 -0.00205257 
v -0.030914 0.367647 -0.00205257 
v -0.0308696 0.388961 -0.00205257 
v -0.0304834 0.367694 -0.00205257 
v -0.0287863 0.367416 -0.00205257 
v -0.0273629 0.366451 -0.00205257 
v -0.0276773 0.366749 -0.00205257 
v -0.0300503 0.359706 -0.00205257 
v -0.0296198 0.359753 -0.00205257 
v -0.0308696 0.338439 -0.00205257 
v -0.0304834 0.359706 -0.00205257 
v -0.0334955 0.338855 -0.00205257 
v -0.030914 0.359753 -0.00205257 
v -0.0360636 0.339543 -0.00205257 
v -0.031337 0.359846 -0.00205257 
v -0.0385457 0.340496 -0.00205257 
v -0.0317474 0.359984 -0.00205257 
v -0.0409146 0.341703 -0.00205257 
v -0.0321405 0.360166 -0.00205257 
v -0.0452105 0.344824 -0.00205257 
v -0.0328564 0.360651 -0.00205257 
v -0.0325116 0.360389 -0.00205257 
v -0.0470905 0.346704 -0.00205257 
v -0.0300503 0.367694 -0.00205257 
v -0.0280221 0.367011 -0.00205257 
v -0.0431443 0.343151 -0.00205257 
v -0.0291968 0.367554 -0.00205257 
v -0.0296198 0.367647 -0.00205257 
vn -3.49148e-15 -1.43763e-32 -1 
vn -3.49148e-15 -1.43763e-32 -1 
vn -3.49148e-15 -1.43763e-32 -1 
vn -3.49148e-15 -1.43763e-32 -1 
vn -3.49148e-15 -1.43763e-32 -1 
vn -3.49148e-15 -1.43763e-32 -1 
vn -3.49148e-15 -1.43763e-32 -1 
vn -3.49148e-15 -1.43763e-32 -1 
vn -3.49148e-15 -1.43763e-32 -1 
vn -3.49148e-15 -1.43763e-32 -1 
vn -3.49148e-15 -1.43763e-32 -1 
vn -3.49148e-15 -1.43763e-32 -1 
vn -3.49148e-15 -1.43763e-32 -1 
vn -3.49148e-15 -1.43763e-32 -1 
vn -3.49148e-15 -1.43763e-32 -1 
vn -3.49148e-15 -1.43763e-32 -1 
vn -3.49148e-15 -1.43763e-32 -1 
vn -3.49148e-15 -1.43763e-32 -1 
vn -3.49148e-15 -1.43763e-32 -1 
vn -3.49148e-15 -1.43763e-32 -1 
vn -3.49148e-15 -1.43763e-32 -1 
vn -3.49148e-15 -1.43763e-32 -1 
vn -3.49148e-15 -1.43763e-32 -1 
vn -3.49148e-15 -1.43763e-32 -1 
vn -3.49148e-15 -1.43763e-32 -1 
vn -3.49148e-15 -1.43763e-32 -1 
vn -3.49148e-15 -1.43763e-32 -1 
vn -3.49148e-15 -1.43763e-32 -1 
vn -3.49148e-15 -1.43763e-32 -1 
vn -3.49148e-15 -1.43763e-32 -1 
vn -3.49148e-15 -1.43763e-32 -1 
vn -3.49148e-15 -1.43763e-32 -1 
vn -3.49148e-15 -1.43763e-32 -1 
vn -3.49148e-15 -1.43763e-32 -1 
vn -3.49148e-15 -1.43763e-32 -1 
vn -3.49148e-15 -1.43763e-32 -1 
vn -3.49148e-15 -1.43763e-32 -1 
vn -3.49148e-15 -1.43763e-32 -1 
vn -3.49148e-15 -1.43763e-32 -1 
vn -3.49148e-15 -1.43763e-32 -1 
vn -3.49148e-15 -1.43763e-32 -1 
vn -3.49148e-15 -1.43763e-32 -1 
vn -3.49148e-15 -1.43763e-32 -1 
vn -3.49148e-15 -1.43763e-32 -1 
vn -3.49148e-15 -1.43763e-32 -1 
vn -3.49148e-15 -1.43763e-32 -1 
vn -3.49148e-15 -1.43763e-32 -1 
vn -3.49148e-15 -1.43763e-32 -1 
vn -3.49148e-15 -1.43763e-32 -1 
vn -3.49148e-15 -1.43763e-32 -1 
vn -3.49148e-15 -1.43763e-32 -1 
vn -3.49148e-15 -1.43763e-32 -1 
vn -3.49148e-15 -1.43763e-32 -1 
vn -3.49148e-15 -1.43763e-32 -1 
vn -3.49148e-15 -1.43763e-32 -1 
vn -3.49148e-15 -1.43763e-32 -1 
vn -3.49148e-15 -1.43763e-32 -1 
vn -3.49148e-15 -1.43763e-32 -1 
vn -3.49148e-15 -1.43763e-32 -1 
vn -3.49148e-15 -1.43763e-32 -1 
vn -3.49148e-15 -1.43763e-32 -1 
vn -3.49148e-15 -1.43763e-32 -1 
vn -3.49148e-15 -1.43763e-32 -1 
vn -3.49148e-15 -1.43763e-32 -1 
vn -3.49148e-15 -1.43763e-32 -1 
vn -3.49148e-15 -1.43763e-32 -1 
vn -3.49148e-15 -1.43763e-32 -1 
vn -3.49148e-15 -1.43763e-32 -1 
vn -3.49148e-15 -1.43763e-32 -1 
vn -3.49148e-15 -1.43763e-32 -1 
vn -3.49148e-15 -1.43763e-32 -1 
vn -3.49148e-15 -1.43763e-32 -1 
vn -3.49148e-15 -1.43763e-32 -1 
vn -3.49148e-15 -1.43763e-32 -1 
vn -3.49148e-15 -1.43763e-32 -1 
vn -3.49148e-15 -1.43763e-32 -1 
vn -3.49148e-15 -1.43763e-32 -1 
vn -3.49148e-15 -1.43763e-32 -1 
vn -3.49148e-15 -1.43763e-32 -1 
vn -3.49148e-15 -1.43763e-32 -1 
vn -3.49148e-15 -1.43763e-32 -1 
vn -3.49148e-15 -1.43763e-32 -1 
vn -3.49148e-15 -1.43763e-32 -1 
vn -3.49148e-15 -1.43763e-32 -1 
vn -3.49148e-15 -1.43763e-32 -1 
vn -3.49148e-15 -1.43763e-32 -1 
vn -3.49148e-15 -1.43763e-32 -1 
vn -3.49148e-15 -1.43763e-32 -1 
vn -3.49148e-15 -1.43763e-32 -1 
vn -3.49148e-15 -1.43763e-32 -1 
vn -3.49148e-15 -1.43763e-32 -1 
f 854//854 855//855 856//856 
f 857//857 858//858 859//859 
f 856//856 857//857 854//854 
f 856//856 858//858 857//857 
f 854//854 860//860 861//861 
f 857//857 862//862 863//863 
f 861//861 855//855 854//854 
f 859//859 862//862 857//857 
f 854//854 864//864 865//865 
f 857//857 866//866 867//867 
f 865//865 860//860 854//854 
f 863//863 866//866 857//857 
f 854//854 868//868 869//869 
f 870//870 871//871 872//872 
f 869//869 864//864 854//854 
f 854//854 872//872 873//873 
f 870//870 874//874 871//871 
f 875//875 876//876 877//877 
f 878//878 879//879 876//876 
f 880//880 881//881 879//879 
f 882//882 883//883 881//881 
f 884//884 885//885 883//883 
f 886//886 887//887 885//885 
f 888//888 889//889 890//890 
f 889//889 891//891 892//892 
f 891//891 893//893 894//894 
f 893//893 895//895 896//896 
f 895//895 897//897 898//898 
f 897//897 899//899 900//900 
f 901//901 902//902 903//903 
f 902//902 904//904 905//905 
f 906//906 857//857 907//907 
f 854//854 908//908 868//868 
f 872//872 854//854 870//870 
f 876//876 875//875 878//878 
f 881//881 880//880 882//882 
f 885//885 884//884 886//886 
f 909//909 910//910 887//887 
f 909//909 888//888 911//911 
f 892//892 890//890 889//889 
f 896//896 894//894 893//893 
f 900//900 898//898 897//897 
f 899//899 901//901 912//912 
f 905//905 903//903 902//902 
f 904//904 913//913 914//914 
f 913//913 915//915 916//916 
f 915//915 917//917 918//918 
f 917//917 919//919 920//920 
f 907//907 921//921 906//906 
f 857//857 922//922 923//923 
f 873//873 908//908 854//854 
f 870//870 924//924 925//925 
f 926//926 927//927 924//924 
f 928//928 929//929 927//927 
f 930//930 931//931 929//929 
f 932//932 933//933 931//931 
f 934//934 935//935 933//933 
f 936//936 937//937 938//938 
f 939//939 877//877 937//937 
f 879//879 878//878 880//880 
f 887//887 886//886 909//909 
f 890//890 911//911 888//888 
f 898//898 896//896 895//895 
f 903//903 912//912 901//901 
f 916//916 914//914 913//913 
f 920//920 918//918 917//917 
f 919//919 906//906 940//940 
f 857//857 941//941 907//907 
f 867//867 922//922 857//857 
f 924//924 870//870 926//926 
f 929//929 928//928 930//930 
f 933//933 932//932 934//934 
f 942//942 938//938 935//935 
f 937//937 936//936 939//939 
f 883//883 882//882 884//884 
f 894//894 892//892 891//891 
f 914//914 905//905 904//904 
f 940//940 920//920 919//919 
f 906//906 943//943 944//944 
f 923//923 941//941 857//857 
f 927//927 926//926 928//928 
f 935//935 934//934 942//942 
f 877//877 939//939 875//875 
f 912//912 900//900 899//899 
f 944//944 940//940 906//906 
f 925//925 874//874 870//870 
f 938//938 942//942 936//936 
f 918//918 916//916 915//915 
f 931//931 930//930 932//932 
f 921//921 943//943 906//906 
f 911//911 910//910 909//909 
o mesh1364
v -0.0262903 0.363268 1.11022e-16 
v -0.0262669 0.3637 1.11022e-16 
v -0.0262669 0.3637 -0.00205257 
v -0.0263604 0.36284 1.11022e-16 
v -0.0262903 0.363268 -0.00205257 
v -0.0264763 0.362423 1.11022e-16 
v -0.0263604 0.36284 -0.00205257 
v -0.0266366 0.36202 1.11022e-16 
v -0.0264763 0.362423 -0.00205257 
v -0.0268395 0.361638 1.11022e-16 
v -0.0266366 0.36202 -0.00205257 
v -0.0270825 0.361279 1.11022e-16 
v -0.0268395 0.361638 -0.00205257 
v -0.0273629 0.360949 1.11022e-16 
v -0.0270825 0.361279 -0.00205257 
v -0.0276773 0.360651 1.11022e-16 
v -0.0273629 0.360949 -0.00205257 
v -0.0280221 0.360389 1.11022e-16 
v -0.0276773 0.360651 -0.00205257 
v -0.0283933 0.360166 1.11022e-16 
v -0.0280221 0.360389 -0.00205257 
v -0.0287863 0.359984 1.11022e-16 
v -0.0283933 0.360166 -0.00205257 
v -0.0291968 0.359846 1.11022e-16 
v -0.0287863 0.359984 -0.00205257 
v -0.0296198 0.359753 1.11022e-16 
v -0.0291968 0.359846 -0.00205257 
v -0.0300503 0.359706 1.11022e-16 
v -0.0296198 0.359753 -0.00205257 
v -0.0304834 0.359706 1.11022e-16 
v -0.0300503 0.359706 -0.00205257 
v -0.030914 0.359753 1.11022e-16 
v -0.0304834 0.359706 -0.00205257 
v -0.031337 0.359846 1.11022e-16 
v -0.030914 0.359753 -0.00205257 
v -0.0317474 0.359984 1.11022e-16 
v -0.031337 0.359846 -0.00205257 
v -0.0321405 0.360166 1.11022e-16 
v -0.0317474 0.359984 -0.00205257 
v -0.0325116 0.360389 1.11022e-16 
v -0.0321405 0.360166 -0.00205257 
v -0.0328564 0.360651 1.11022e-16 
v -0.0325116 0.360389 -0.00205257 
v -0.0331709 0.360949 1.11022e-16 
v -0.0328564 0.360651 -0.00205257 
v -0.0334513 0.361279 1.11022e-16 
v -0.0331709 0.360949 -0.00205257 
v -0.0336943 0.361638 1.11022e-16 
v -0.0334513 0.361279 -0.00205257 
v -0.0338972 0.36202 1.11022e-16 
v -0.0336943 0.361638 -0.00205257 
v -0.0340575 0.362423 1.11022e-16 
v -0.0338972 0.36202 -0.00205257 
v -0.0341734 0.36284 1.11022e-16 
v -0.0340575 0.362423 -0.00205257 
v -0.0342434 0.363268 1.11022e-16 
v -0.0341734 0.36284 -0.00205257 
v -0.0342669 0.3637 1.11022e-16 
v -0.0342434 0.363268 -0.00205257 
v -0.0342434 0.364132 1.11022e-16 
v -0.0342669 0.3637 -0.00205257 
v -0.0341734 0.36456 1.11022e-16 
v -0.0342434 0.364132 -0.00205257 
v -0.0340575 0.364977 1.11022e-16 
v -0.0341734 0.36456 -0.00205257 
v -0.0338972 0.36538 1.11022e-16 
v -0.0340575 0.364977 -0.00205257 
v -0.0336943 0.365762 1.11022e-16 
v -0.0338972 0.36538 -0.00205257 
v -0.0334513 0.366121 1.11022e-16 
v -0.0336943 0.365762 -0.00205257 
v -0.0331709 0.366451 1.11022e-16 
v -0.0334513 0.366121 -0.00205257 
v -0.0328564 0.366749 1.11022e-16 
v -0.0331709 0.366451 -0.00205257 
v -0.0325116 0.367011 1.11022e-16 
v -0.0328564 0.366749 -0.00205257 
v -0.0321405 0.367234 1.11022e-16 
v -0.0325116 0.367011 -0.00205257 
v -0.0317474 0.367416 1.11022e-16 
v -0.0321405 0.367234 -0.00205257 
v -0.031337 0.367554 1.11022e-16 
v -0.0317474 0.367416 -0.00205257 
v -0.030914 0.367647 1.11022e-16 
v -0.031337 0.367554 -0.00205257 
v -0.0304834 0.367694 1.11022e-16 
v -0.030914 0.367647 -0.00205257 
v -0.0300503 0.367694 1.11022e-16 
v -0.0304834 0.367694 -0.00205257 
v -0.0296198 0.367647 1.11022e-16 
v -0.0300503 0.367694 -0.00205257 
v -0.0291968 0.367554 1.11022e-16 
v -0.0296198 0.367647 -0.00205257 
v -0.0287863 0.367416 1.11022e-16 
v -0.0291968 0.367554 -0.00205257 
v -0.0283933 0.367234 1.11022e-16 
v -0.0287863 0.367416 -0.00205257 
v -0.0280221 0.367011 1.11022e-16 
v -0.0283933 0.367234 -0.00205257 
v -0.0276773 0.366749 1.11022e-16 
v -0.0280221 0.367011 -0.00205257 
v -0.0273629 0.366451 1.11022e-16 
v -0.0276773 0.366749 -0.00205257 
v -0.0270825 0.366121 1.11022e-16 
v -0.0273629 0.366451 -0.00205257 
v -0.0268395 0.365762 1.11022e-16 
v -0.0270825 0.366121 -0.00205257 
v -0.0266366 0.36538 1.11022e-16 
v -0.0268395 0.365762 -0.00205257 
v -0.0264763 0.364977 1.11022e-16 
v -0.0266366 0.36538 -0.00205257 
v -0.0263604 0.36456 1.11022e-16 
v -0.0264763 0.364977 -0.00205257 
v -0.0262903 0.364132 1.11022e-16 
v -0.0263604 0.36456 -0.00205257 
v -0.0262903 0.364132 -0.00205257 
vn -0.994138 0.108119 0 
vn -1 2.44929e-16 0 
vn -1 2.44929e-16 0 
vn -0.976621 0.21497 0 
vn -0.994138 0.108119 0 
vn -0.947653 0.319302 0 
vn -0.976621 0.21497 0 
vn -0.907575 0.419889 0 
vn -0.947653 0.319302 0 
vn -0.856857 0.515554 0 
vn -0.907575 0.419889 0 
vn -0.796093 0.605174 0 
vn -0.856857 0.515554 0 
vn -0.725995 0.687699 0 
vn -0.796093 0.605174 0 
vn -0.647386 0.762162 0 
vn -0.725995 0.687699 0 
vn -0.561187 0.827689 0 
vn -0.647386 0.762162 0 
vn -0.468408 0.883512 0 
vn -0.561187 0.827689 0 
vn -0.370138 0.928977 0 
vn -0.468408 0.883512 0 
vn -0.267528 0.96355 0 
vn -0.370138 0.928977 0 
vn -0.161782 0.986827 0 
vn -0.267528 0.96355 0 
vn -0.0541389 0.998533 0 
vn -0.161782 0.986827 0 
vn 0.0541389 0.998533 0 
vn -0.0541389 0.998533 0 
vn 0.161782 0.986827 0 
vn 0.0541389 0.998533 0 
vn 0.267528 0.96355 0 
vn 0.161782 0.986827 0 
vn 0.370138 0.928977 0 
vn 0.267528 0.96355 0 
vn 0.468408 0.883512 0 
vn 0.370138 0.928977 0 
vn 0.561187 0.827689 0 
vn 0.468408 0.883512 0 
vn 0.647386 0.762162 0 
vn 0.561187 0.827689 0 
vn 0.725995 0.687699 0 
vn 0.647386 0.762162 0 
vn 0.796093 0.605174 0 
vn 0.725995 0.687699 0 
vn 0.856857 0.515554 0 
vn 0.796093 0.605174 0 
vn 0.907575 0.419889 0 
vn 0.856857 0.515554 0 
vn 0.947653 0.319302 0 
vn 0.907575 0.419889 0 
vn 0.976621 0.21497 0 
vn 0.947653 0.319302 0 
vn 0.994138 0.108119 0 
vn 0.976621 0.21497 0 
vn 1 -1.22465e-16 0 
vn 0.994138 0.108119 0 
vn 0.994138 -0.108119 0 
vn 1 -1.22465e-16 0 
vn 0.976621 -0.21497 0 
vn 0.994138 -0.108119 0 
vn 0.947653 -0.319302 0 
vn 0.976621 -0.21497 0 
vn 0.907575 -0.419889 0 
vn 0.947653 -0.319302 0 
vn 0.856857 -0.515554 0 
vn 0.907575 -0.419889 0 
vn 0.796093 -0.605174 0 
vn 0.856857 -0.515554 0 
vn 0.725995 -0.687699 0 
vn 0.796093 -0.605174 0 
vn 0.647386 -0.762162 0 
vn 0.725995 -0.687699 0 
vn 0.561187 -0.827689 0 
vn 0.647386 -0.762162 0 
vn 0.468408 -0.883512 0 
vn 0.561187 -0.827689 0 
vn 0.370138 -0.928977 0 
vn 0.468408 -0.883512 0 
vn 0.267528 -0.96355 0 
vn 0.370138 -0.928977 0 
vn 0.161782 -0.986827 0 
vn 0.267528 -0.96355 0 
vn 0.0541389 -0.998533 0 
vn 0.161782 -0.986827 0 
vn -0.0541389 -0.998533 0 
vn 0.0541389 -0.998533 0 
vn -0.161782 -0.986827 0 
vn -0.0541389 -0.998533 0 
vn -0.267528 -0.96355 0 
vn -0.161782 -0.986827 0 
vn -0.370138 -0.928977 0 
vn -0.267528 -0.96355 0 
vn -0.468408 -0.883512 0 
vn -0.370138 -0.928977 0 
vn -0.561187 -0.827689 0 
vn -0.468408 -0.883512 0 
vn -0.647386 -0.762162 0 
vn -0.561187 -0.827689 0 
vn -0.725995 -0.687699 0 
vn -0.647386 -0.762162 0 
vn -0.796093 -0.605174 0 
vn -0.725995 -0.687699 0 
vn -0.856857 -0.515554 0 
vn -0.796093 -0.605174 0 
vn -0.907575 -0.419889 0 
vn -0.856857 -0.515554 0 
vn -0.947653 -0.319302 0 
vn -0.907575 -0.419889 0 
vn -0.976621 -0.21497 0 
vn -0.947653 -0.319302 0 
vn -0.994138 -0.108119 0 
vn -0.976621 -0.21497 0 
vn -0.994138 -0.108119 0 
f 945//945 946//946 947//947 
f 948//948 945//945 949//949 
f 950//950 948//948 951//951 
f 952//952 950//950 953//953 
f 954//954 952//952 955//955 
f 956//956 954//954 957//957 
f 958//958 956//956 959//959 
f 960//960 958//958 961//961 
f 962//962 960//960 963//963 
f 964//964 962//962 965//965 
f 966//966 964//964 967//967 
f 968//968 966//966 969//969 
f 970//970 968//968 971//971 
f 972//972 970//970 973//973 
f 974//974 972//972 975//975 
f 976//976 974//974 977//977 
f 978//978 976//976 979//979 
f 980//980 978//978 981//981 
f 982//982 980//980 983//983 
f 984//984 982//982 985//985 
f 986//986 984//984 987//987 
f 988//988 986//986 989//989 
f 990//990 988//988 991//991 
f 992//992 990//990 993//993 
f 994//994 992//992 995//995 
f 996//996 994//994 997//997 
f 998//998 996//996 999//999 
f 1000//1000 998//998 1001//1001 
f 1002//1002 1000//1000 1003//1003 
f 1004//1004 1002//1002 1005//1005 
f 1006//1006 1004//1004 1007//1007 
f 1008//1008 1006//1006 1009//1009 
f 1010//1010 1008//1008 1011//1011 
f 1012//1012 1010//1010 1013//1013 
f 1014//1014 1012//1012 1015//1015 
f 1016//1016 1014//1014 1017//1017 
f 1018//1018 1016//1016 1019//1019 
f 1020//1020 1018//1018 1021//1021 
f 1022//1022 1020//1020 1023//1023 
f 1024//1024 1022//1022 1025//1025 
f 1026//1026 1024//1024 1027//1027 
f 1028//1028 1026//1026 1029//1029 
f 1030//1030 1028//1028 1031//1031 
f 1032//1032 1030//1030 1033//1033 
f 1034//1034 1032//1032 1035//1035 
f 1036//1036 1034//1034 1037//1037 
f 1038//1038 1036//1036 1039//1039 
f 1040//1040 1038//1038 1041//1041 
f 1042//1042 1040//1040 1043//1043 
f 1044//1044 1042//1042 1045//1045 
f 1046//1046 1044//1044 1047//1047 
f 1048//1048 1046//1046 1049//1049 
f 1050//1050 1048//1048 1051//1051 
f 1052//1052 1050//1050 1053//1053 
f 1054//1054 1052//1052 1055//1055 
f 1056//1056 1054//1054 1057//1057 
f 1058//1058 1056//1056 1059//1059 
f 946//946 1058//1058 1060//1060 
f 1060//1060 947//947 946//946 
f 1059//1059 1060//1060 1058//1058 
f 1057//1057 1059//1059 1056//1056 
f 1055//1055 1057//1057 1054//1054 
f 1053//1053 1055//1055 1052//1052 
f 1051//1051 1053//1053 1050//1050 
f 1049//1049 1051//1051 1048//1048 
f 1047//1047 1049//1049 1046//1046 
f 1045//1045 1047//1047 1044//1044 
f 1043//1043 1045//1045 1042//1042 
f 1041//1041 1043//1043 1040//1040 
f 1039//1039 1041//1041 1038//1038 
f 1037//1037 1039//1039 1036//1036 
f 1035//1035 1037//1037 1034//1034 
f 1033//1033 1035//1035 1032//1032 
f 1031//1031 1033//1033 1030//1030 
f 1029//1029 1031//1031 1028//1028 
f 1027//1027 1029//1029 1026//1026 
f 1025//1025 1027//1027 1024//1024 
f 1023//1023 1025//1025 1022//1022 
f 1021//1021 1023//1023 1020//1020 
f 1019//1019 1021//1021 1018//1018 
f 1017//1017 1019//1019 1016//1016 
f 1015//1015 1017//1017 1014//1014 
f 1013//1013 1015//1015 1012//1012 
f 1011//1011 1013//1013 1010//1010 
f 1009//1009 1011//1011 1008//1008 
f 1007//1007 1009//1009 1006//1006 
f 1005//1005 1007//1007 1004//1004 
f 1003//1003 1005//1005 1002//1002 
f 1001//1001 1003//1003 1000//1000 
f 999//999 1001//1001 998//998 
f 997//997 999//999 996//996 
f 995//995 997//997 994//994 
f 993//993 995//995 992//992 
f 991//991 993//993 990//990 
f 989//989 991//991 988//988 
f 987//987 989//989 986//986 
f 985//985 987//987 984//984 
f 983//983 985//985 982//982 
f 981//981 983//983 980//980 
f 979//979 981//981 978//978 
f 977//977 979//979 976//976 
f 975//975 977//977 974//974 
f 973//973 975//975 972//972 
f 971//971 973//973 970//970 
f 969//969 971//971 968//968 
f 967//967 969//969 966//966 
f 965//965 967//967 964//964 
f 963//963 965//965 962//962 
f 961//961 963//963 960//960 
f 959//959 961//961 958//958 
f 957//957 959//959 956//956 
f 955//955 957//957 954//954 
f 953//953 955//955 952//952 
f 951//951 953//953 950//950 
f 949//949 951//951 948//948 
f 947//947 949//949 945//945 
