# OBJ generated by ONSHAPE BY PTC INC, 1.215 Units = meters
mtllib _2025_Lunabotics_Hopper_Latch_Axle.mtl
g 2025_Lunabotics_Hopper_Latch_Axle
usemtl 0.796078_0.823529_0.937255_0.000000_0.000000
o mesh1520
v 0.00403279 8.67362e-19 0.3302 
v 0.00403279 8.67362e-19 0 
v 0.0020164 0.0034925 0 
v 0.0020164 0.0034925 0.3302 
vn 0.866025 0.5 0 
vn 0.866025 0.5 0 
vn 0.866025 0.5 0 
vn 0.866025 0.5 0 
f 1//1 2//2 3//3 
f 3//3 4//4 1//1 
o mesh1521
v 0.0020164 0.0034925 0.3302 
v 0.0020164 0.0034925 0 
v -0.0020164 0.0034925 0 
v -0.0020164 0.0034925 0.3302 
vn 0 1 0 
vn 0 1 0 
vn 0 1 0 
vn 0 1 0 
f 5//5 6//6 7//7 
f 7//7 8//8 5//5 
o mesh1522
v -0.0020164 0.0034925 0.3302 
v -0.0020164 0.0034925 0 
v -0.00403279 -2.27682e-18 0 
v -0.00403279 -2.27682e-18 0.3302 
vn -0.866025 0.5 0 
vn -0.866025 0.5 0 
vn -0.866025 0.5 0 
vn -0.866025 0.5 0 
f 9//9 10//10 11//11 
f 11//11 12//12 9//9 
o mesh1523
v -0.0020164 -0.0034925 0.3302 
v 0.0020164 0.0034925 0.3302 
v -0.0020164 0.0034925 0.3302 
v 0.0020164 -0.0034925 0.3302 
v 0.00403279 8.67362e-19 0.3302 
v -0.00403279 -2.27682e-18 0.3302 
vn 0 0 1 
vn 0 0 1 
vn 0 0 1 
vn 0 0 1 
vn 0 0 1 
vn 0 0 1 
f 13//13 14//14 15//15 
f 14//14 13//13 16//16 
f 16//16 17//17 14//14 
f 15//15 18//18 13//13 
o mesh1524
v -0.0020164 -0.0034925 0 
v -0.00403279 -2.27682e-18 0 
v -0.0020164 0.0034925 0 
v 0.0020164 0.0034925 0 
v 0.00403279 8.67362e-19 0 
v 0.0020164 -0.0034925 0 
vn 0 0 -1 
vn 0 0 -1 
vn 0 0 -1 
vn 0 0 -1 
vn 0 0 -1 
vn 0 0 -1 
f 19//19 20//20 21//21 
f 22//22 23//23 24//24 
f 24//24 19//19 22//22 
f 21//21 22//22 19//19 
o mesh1525
v -0.00403279 -2.27682e-18 0.3302 
v -0.00403279 -2.27682e-18 0 
v -0.0020164 -0.0034925 0 
v -0.0020164 -0.0034925 0.3302 
vn -0.866025 -0.5 0 
vn -0.866025 -0.5 0 
vn -0.866025 -0.5 0 
vn -0.866025 -0.5 0 
f 25//25 26//26 27//27 
f 27//27 28//28 25//25 
o mesh1526
v -0.0020164 -0.0034925 0.3302 
v -0.0020164 -0.0034925 0 
v 0.0020164 -0.0034925 0 
v 0.0020164 -0.0034925 0.3302 
vn 2.15077e-16 -1 0 
vn 2.15077e-16 -1 0 
vn 2.15077e-16 -1 0 
vn 2.15077e-16 -1 0 
f 29//29 30//30 31//31 
f 31//31 32//32 29//29 
o mesh1527
v 0.0020164 -0.0034925 0.3302 
v 0.0020164 -0.0034925 0 
v 0.00403279 8.67362e-19 0 
v 0.00403279 8.67362e-19 0.3302 
vn 0.866025 -0.5 0 
vn 0.866025 -0.5 0 
vn 0.866025 -0.5 0 
vn 0.866025 -0.5 0 
f 33//33 34//34 35//35 
f 35//35 36//36 33//33 
