# OBJ generated by ONSHAPE BY PTC INC, 1.215 Units = meters
mtllib _2025_Hopper_BinSealSides_R1.mtl
g 2025_Hopper_BinSealSides_R1
usemtl 0.752941_0.752941_0.752941_0.000000_0.000000
o mesh1183
v -0.003302 -0.00615156 0.254 
v -0.003302 0.00434667 0.254 
v -0.003302 0.00434667 0 
v -0.003302 -0.00615156 0 
vn -1 0 0 
vn -1 0 0 
vn -1 0 0 
vn -1 0 0 
f 1//1 2//2 3//3 
f 3//3 4//4 1//1 
o mesh1184
v -0.003302 -0.00615156 0.254 
v -0.003302 -0.00615156 0 
v -0.00127 -0.00615156 0 
v -0.00127 -0.00615156 0.254 
vn 4.26851e-16 -1 0 
vn 4.26851e-16 -1 0 
vn 4.26851e-16 -1 0 
vn 4.26851e-16 -1 0 
f 5//5 6//6 7//7 
f 7//7 8//8 5//5 
o mesh1185
v -0.00127 -0.00615156 0.254 
v -0.00127 -0.00615156 0 
v -0.00127 0.00411956 0 
v -0.00127 0.00411956 0.254 
vn 1 -1.2667e-16 0 
vn 1 -1.2667e-16 0 
vn 1 -1.2667e-16 0 
vn 1 -1.2667e-16 0 
f 9//9 10//10 11//11 
f 11//11 12//12 9//9 
o mesh1186
v -0.00127 0.00411956 0.254 
v -0.00127 0.00411956 0 
v 0.00127 0.00411956 0 
v 0.00127 0.00411956 0.254 
vn 4.26851e-16 -1 0 
vn 4.26851e-16 -1 0 
vn 4.26851e-16 -1 0 
vn 4.26851e-16 -1 0 
f 13//13 14//14 15//15 
f 15//15 16//16 13//13 
o mesh1187
v 0.00127 0.00411956 0.254 
v 0.00127 0.00411956 0 
v 0.00127 -0.00061368 0 
v 0.00127 -0.00061368 0.254 
vn -1 9.16245e-17 0 
vn -1 9.16245e-17 0 
vn -1 9.16245e-17 0 
vn -1 9.16245e-17 0 
f 17//17 18//18 19//19 
f 19//19 20//20 17//17 
o mesh1188
v 0.00127 -0.00061368 0.254 
v 0.00127 -0.00061368 0 
v 6.50521e-19 0.00065632 0 
v 6.50521e-19 0.00065632 0.254 
vn 0.707107 0.707107 0 
vn 0.707107 0.707107 0 
vn 0.707107 0.707107 0 
vn 0.707107 0.707107 0 
f 21//21 22//22 23//23 
f 23//23 24//24 21//21 
o mesh1189
v 6.50521e-19 0.00065632 0.254 
v 6.50521e-19 0.00065632 0 
v -0.00071842 -6.21003e-05 0 
v -0.00071842 -6.21003e-05 0.254 
vn -0.707107 0.707107 0 
vn -0.707107 0.707107 0 
vn -0.707107 0.707107 0 
vn -0.707107 0.707107 0 
f 25//25 26//26 27//27 
f 27//27 28//28 25//25 
o mesh1190
v -0.00071842 -6.21003e-05 0.254 
v -0.00071842 -6.21003e-05 0 
v 0.00127 -0.00205052 0 
v 0.00127 -0.00205052 0.254 
vn -0.707107 -0.707107 0 
vn -0.707107 -0.707107 0 
vn -0.707107 -0.707107 0 
vn -0.707107 -0.707107 0 
f 29//29 30//30 31//31 
f 31//31 32//32 29//29 
o mesh1191
v 0.00127 -0.00205052 0.254 
v 0.00127 -0.00205052 0 
v 0.00127 -0.00615156 0 
v 0.00127 -0.00615156 0.254 
vn -1 -1.05749e-15 0 
vn -1 -1.05749e-15 0 
vn -1 -1.05749e-15 0 
vn -1 -1.05749e-15 0 
f 33//33 34//34 35//35 
f 35//35 36//36 33//33 
o mesh1192
v 0.00127 -0.00615156 0.254 
v 0.00127 -0.00615156 0 
v 0.003302 -0.00615156 0 
v 0.003302 -0.00615156 0.254 
vn 0 -1 0 
vn 0 -1 0 
vn 0 -1 0 
vn 0 -1 0 
f 37//37 38//38 39//39 
f 39//39 40//40 37//37 
o mesh1193
v 0.003302 -0.00615156 0 
v 0.003302 0.00434667 0 
v 0.003302 0.00434667 0.254 
v 0.003302 -0.00615156 0.254 
vn 1 0 0 
vn 1 0 0 
vn 1 0 0 
vn 1 0 0 
f 41//41 42//42 43//43 
f 43//43 44//44 41//41 
o mesh1194
v 0.00320569 0.00888821 0 
v 0.00320569 0.00888821 0.254 
v 0.00342637 0.00855117 0.254 
v 0.00342637 0.00855117 0 
v 0.00361175 0.00819351 0.254 
v 0.00361175 0.00819351 0 
v 0.00375991 0.00781889 0.254 
v 0.00375991 0.00781889 0 
v 0.00386933 0.00743119 0.254 
v 0.00386933 0.00743119 0 
v 0.00393889 0.00703439 0.254 
v 0.00393889 0.00703439 0 
v 0.00396786 0.00663258 0.254 
v 0.00396786 0.00663258 0 
v 0.00395595 0.00622991 0.254 
v 0.00395595 0.00622991 0 
v 0.00390328 0.00583051 0.254 
v 0.00390328 0.00583051 0 
v 0.00381039 0.00543852 0.254 
v 0.00381039 0.00543852 0 
v 0.00367824 0.00505796 0.254 
v 0.00367824 0.00505796 0 
v 0.00350819 0.00469275 0.254 
v 0.00350819 0.00469275 0 
v 0.003302 0.00434667 0.254 
v 0.003302 0.00434667 0 
vn 0.807733 0.589548 0 
vn 0.807733 0.589548 0 
vn 0.863338 0.504627 0 
vn 0.863338 0.504627 0 
vn 0.910046 0.414506 0 
vn 0.910046 0.414506 0 
vn 0.947379 0.320115 0 
vn 0.947379 0.320115 0 
vn 0.97495 0.222425 0 
vn 0.97495 0.222425 0 
vn 0.992475 0.122444 0 
vn 0.992475 0.122444 0 
vn 0.999775 0.0212012 0 
vn 0.999775 0.0212012 0 
vn 0.996774 -0.0802601 0 
vn 0.996774 -0.0802601 0 
vn 0.983503 -0.180894 0 
vn 0.983503 -0.180894 0 
vn 0.960098 -0.279665 0 
vn 0.960098 -0.279665 0 
vn 0.9268 -0.375554 0 
vn 0.9268 -0.375554 0 
vn 0.883954 -0.467574 0 
vn 0.883954 -0.467574 0 
vn 0.832 -0.554776 0 
vn 0.832 -0.554776 0 
f 45//45 46//46 47//47 
f 48//48 47//47 49//49 
f 50//50 49//49 51//51 
f 52//52 51//51 53//53 
f 54//54 53//53 55//55 
f 56//56 55//55 57//57 
f 58//58 57//57 59//59 
f 60//60 59//59 61//61 
f 62//62 61//61 63//63 
f 64//64 63//63 65//65 
f 66//66 65//65 67//67 
f 68//68 67//67 69//69 
f 69//69 70//70 68//68 
f 67//67 68//68 66//66 
f 65//65 66//66 64//64 
f 63//63 64//64 62//62 
f 61//61 62//62 60//60 
f 59//59 60//60 58//58 
f 57//57 58//58 56//56 
f 55//55 56//56 54//54 
f 53//53 54//54 52//52 
f 51//51 52//52 50//50 
f 49//49 50//50 48//48 
f 47//47 48//48 45//45 
o mesh1195
v 0.00320569 0.00888821 0.254 
v 0.00320569 0.00888821 0 
v 0.0038553 0.0096892 0 
v 0.0038553 0.0096892 0.254 
vn 0.776682 -0.629893 0 
vn 0.776682 -0.629893 0 
vn 0.776682 -0.629893 0 
vn 0.776682 -0.629893 0 
f 71//71 72//72 73//73 
f 73//73 74//74 71//71 
o mesh1196
v 0.0030662 0.0103292 0 
v 0.0030662 0.0103292 0.254 
v 0.0031031 0.01037 0.254 
v 0.0031031 0.01037 0 
v 0.00314421 0.0104065 0.254 
v 0.00314421 0.0104065 0 
v 0.00318902 0.0104384 0.254 
v 0.00318902 0.0104384 0 
v 0.00323702 0.0104653 0.254 
v 0.00323702 0.0104653 0 
v 0.00328764 0.0104868 0.254 
v 0.00328764 0.0104868 0 
v 0.0033403 0.0105027 0.254 
v 0.0033403 0.0105027 0 
v 0.00339436 0.0105128 0.254 
v 0.00339436 0.0105128 0 
v 0.0034492 0.0105171 0.254 
v 0.0034492 0.0105171 0 
v 0.00350418 0.0105153 0.254 
v 0.00350418 0.0105153 0 
v 0.00355865 0.0105077 0.254 
v 0.00355865 0.0105077 0 
v 0.00361197 0.0104942 0.254 
v 0.00361197 0.0104942 0 
v 0.00366352 0.010475 0.254 
v 0.00366352 0.010475 0 
v 0.00371269 0.0104503 0.254 
v 0.00371269 0.0104503 0 
v 0.00375891 0.0104205 0.254 
v 0.00375891 0.0104205 0 
v 0.00380163 0.0103858 0.254 
v 0.00380163 0.0103858 0 
v 0.00384035 0.0103468 0.254 
v 0.00384035 0.0103468 0 
v 0.00387463 0.0103038 0.254 
v 0.00387463 0.0103038 0 
v 0.00390405 0.0102573 0.254 
v 0.00390405 0.0102573 0 
v 0.00392827 0.0102079 0.254 
v 0.00392827 0.0102079 0 
v 0.00394702 0.0101562 0.254 
v 0.00394702 0.0101562 0 
v 0.00396006 0.0101027 0.254 
v 0.00396006 0.0101027 0 
v 0.00396725 0.0100482 0.254 
v 0.00396725 0.0100482 0 
v 0.0039685 0.00999322 0.254 
v 0.0039685 0.00999322 0 
v 0.0039638 0.00993842 0.254 
v 0.0039638 0.00993842 0 
v 0.0039532 0.00988445 0.254 
v 0.0039532 0.00988445 0 
v 0.00393682 0.00983193 0.254 
v 0.00393682 0.00983193 0 
v 0.00391487 0.0097815 0.254 
v 0.00391487 0.0097815 0 
v 0.00388759 0.00973374 0.254 
v 0.00388759 0.00973374 0 
v 0.0038553 0.0096892 0.254 
v 0.0038553 0.0096892 0 
vn -0.776682 0.629893 0 
vn -0.776682 0.629893 0 
vn -0.704026 0.710175 0 
vn -0.704026 0.710175 0 
vn -0.623115 0.78213 0 
vn -0.623115 0.78213 0 
vn -0.534899 0.844916 0 
vn -0.534899 0.844916 0 
vn -0.440412 0.897796 0 
vn -0.440412 0.897796 0 
vn -0.340762 0.94015 0 
vn -0.340762 0.94015 0 
vn -0.237116 0.971481 0 
vn -0.237116 0.971481 0 
vn -0.130691 0.991423 0 
vn -0.130691 0.991423 0 
vn -0.0227327 0.999742 0 
vn -0.0227327 0.999742 0 
vn 0.0854916 0.996339 0 
vn 0.0854916 0.996339 0 
vn 0.192714 0.981255 0 
vn 0.192714 0.981255 0 
vn 0.297676 0.954667 0 
vn 0.297676 0.954667 0 
vn 0.399149 0.916886 0 
vn 0.399149 0.916886 0 
vn 0.495942 0.868356 0 
vn 0.495942 0.868356 0 
vn 0.58692 0.809645 0 
vn 0.58692 0.809645 0 
vn 0.671018 0.741441 0 
vn 0.671018 0.741441 0 
vn 0.747248 0.664545 0 
vn 0.747248 0.664545 0 
vn 0.814718 0.579858 0 
vn 0.814718 0.579858 0 
vn 0.872636 0.488372 0 
vn 0.872636 0.488372 0 
vn 0.920322 0.391161 0 
vn 0.920322 0.391161 0 
vn 0.957219 0.289363 0 
vn 0.957219 0.289363 0 
vn 0.982894 0.184173 0 
vn 0.982894 0.184173 0 
vn 0.997045 0.0768243 0 
vn 0.997045 0.0768243 0 
vn 0.999506 -0.0314255 0 
vn 0.999506 -0.0314255 0 
vn 0.990249 -0.139307 0 
vn 0.990249 -0.139307 0 
vn 0.969383 -0.245555 0 
vn 0.969383 -0.245555 0 
vn 0.937151 -0.348924 0 
vn 0.937151 -0.348924 0 
vn 0.893932 -0.448203 0 
vn 0.893932 -0.448203 0 
vn 0.840232 -0.542226 0 
vn 0.840232 -0.542226 0 
vn 0.776682 -0.629893 0 
vn 0.776682 -0.629893 0 
f 75//75 76//76 77//77 
f 78//78 77//77 79//79 
f 80//80 79//79 81//81 
f 82//82 81//81 83//83 
f 84//84 83//83 85//85 
f 86//86 85//85 87//87 
f 88//88 87//87 89//89 
f 90//90 89//89 91//91 
f 92//92 91//91 93//93 
f 94//94 93//93 95//95 
f 96//96 95//95 97//97 
f 98//98 97//97 99//99 
f 100//100 99//99 101//101 
f 102//102 101//101 103//103 
f 104//104 103//103 105//105 
f 106//106 105//105 107//107 
f 108//108 107//107 109//109 
f 110//110 109//109 111//111 
f 112//112 111//111 113//113 
f 114//114 113//113 115//115 
f 116//116 115//115 117//117 
f 118//118 117//117 119//119 
f 120//120 119//119 121//121 
f 122//122 121//121 123//123 
f 124//124 123//123 125//125 
f 126//126 125//125 127//127 
f 128//128 127//127 129//129 
f 130//130 129//129 131//131 
f 132//132 131//131 133//133 
f 133//133 134//134 132//132 
f 131//131 132//132 130//130 
f 129//129 130//130 128//128 
f 127//127 128//128 126//126 
f 125//125 126//126 124//124 
f 123//123 124//124 122//122 
f 121//121 122//122 120//120 
f 119//119 120//120 118//118 
f 117//117 118//118 116//116 
f 115//115 116//116 114//114 
f 113//113 114//114 112//112 
f 111//111 112//112 110//110 
f 109//109 110//110 108//108 
f 107//107 108//108 106//106 
f 105//105 106//106 104//104 
f 103//103 104//104 102//102 
f 101//101 102//102 100//100 
f 99//99 100//100 98//98 
f 97//97 98//98 96//96 
f 95//95 96//96 94//94 
f 93//93 94//94 92//92 
f 91//91 92//92 90//90 
f 89//89 90//90 88//88 
f 87//87 88//88 86//86 
f 85//85 86//86 84//84 
f 83//83 84//84 82//82 
f 81//81 82//82 80//80 
f 79//79 80//80 78//78 
f 77//77 78//78 75//75 
o mesh1197
v 0.0030662 0.0103292 0.254 
v 0.0030662 0.0103292 0 
v 0.00249989 0.00963089 0 
v 0.00249989 0.00963089 0.254 
vn -0.776682 0.629893 0 
vn -0.776682 0.629893 0 
vn -0.776682 0.629893 0 
vn -0.776682 0.629893 0 
f 135//135 136//136 137//137 
f 137//137 138//138 135//135 
o mesh1198
v -0.00249989 0.00963089 0 
v -0.00249989 0.00963089 0.254 
v -0.00216361 0.00987556 0.254 
v -0.00216361 0.00987556 0 
v -0.00180358 0.0100837 0.254 
v -0.00180358 0.0100837 0 
v -0.00142374 0.010253 0.254 
v -0.00142374 0.010253 0 
v -0.00102827 0.0103817 0.254 
v -0.00102827 0.0103817 0 
v -0.000621516 0.0104682 0.254 
v -0.000621516 0.0104682 0 
v -0.000207933 0.0105117 0.254 
v -0.000207933 0.0105117 0 
v 0.000207933 0.0105117 0.254 
v 0.000207933 0.0105117 0 
v 0.000621516 0.0104682 0.254 
v 0.000621516 0.0104682 0 
v 0.00102827 0.0103817 0.254 
v 0.00102827 0.0103817 0 
v 0.00142374 0.010253 0.254 
v 0.00142374 0.010253 0 
v 0.00180358 0.0100837 0.254 
v 0.00180358 0.0100837 0 
v 0.00216361 0.00987556 0.254 
v 0.00216361 0.00987556 0 
v 0.00249989 0.00963089 0.254 
v 0.00249989 0.00963089 0 
vn -0.629893 0.776682 0 
vn -0.629893 0.776682 0 
vn -0.545162 0.838331 0 
vn -0.545162 0.838331 0 
vn -0.454445 0.890775 0 
vn -0.454445 0.890775 0 
vn -0.358738 0.933438 0 
vn -0.358738 0.933438 0 
vn -0.259093 0.965852 0 
vn -0.259093 0.965852 0 
vn -0.156602 0.987662 0 
vn -0.156602 0.987662 0 
vn -0.0523926 0.998627 0 
vn -0.0523926 0.998627 0 
vn 0.0523926 0.998627 0 
vn 0.0523926 0.998627 0 
vn 0.156602 0.987662 0 
vn 0.156602 0.987662 0 
vn 0.259093 0.965852 0 
vn 0.259093 0.965852 0 
vn 0.358738 0.933438 0 
vn 0.358738 0.933438 0 
vn 0.454445 0.890775 0 
vn 0.454445 0.890775 0 
vn 0.545162 0.838331 0 
vn 0.545162 0.838331 0 
vn 0.629893 0.776682 0 
vn 0.629893 0.776682 0 
f 139//139 140//140 141//141 
f 142//142 141//141 143//143 
f 144//144 143//143 145//145 
f 146//146 145//145 147//147 
f 148//148 147//147 149//149 
f 150//150 149//149 151//151 
f 152//152 151//151 153//153 
f 154//154 153//153 155//155 
f 156//156 155//155 157//157 
f 158//158 157//157 159//159 
f 160//160 159//159 161//161 
f 162//162 161//161 163//163 
f 164//164 163//163 165//165 
f 165//165 166//166 164//164 
f 163//163 164//164 162//162 
f 161//161 162//162 160//160 
f 159//159 160//160 158//158 
f 157//157 158//158 156//156 
f 155//155 156//156 154//154 
f 153//153 154//154 152//152 
f 151//151 152//152 150//150 
f 149//149 150//150 148//148 
f 147//147 148//148 146//146 
f 145//145 146//146 144//144 
f 143//143 144//144 142//142 
f 141//141 142//142 139//139 
o mesh1199
v -0.00249989 0.00963089 0.254 
v -0.00249989 0.00963089 0 
v -0.0030662 0.0103292 0 
v -0.0030662 0.0103292 0.254 
vn 0.776682 0.629893 0 
vn 0.776682 0.629893 0 
vn 0.776682 0.629893 0 
vn 0.776682 0.629893 0 
f 167//167 168//168 169//169 
f 169//169 170//170 167//167 
o mesh1200
v -0.0038553 0.0096892 0 
v -0.0038553 0.0096892 0.254 
v -0.00388759 0.00973374 0.254 
v -0.00388759 0.00973374 0 
v -0.00391487 0.0097815 0.254 
v -0.00391487 0.0097815 0 
v -0.00393682 0.00983193 0.254 
v -0.00393682 0.00983193 0 
v -0.0039532 0.00988445 0.254 
v -0.0039532 0.00988445 0 
v -0.0039638 0.00993842 0.254 
v -0.0039638 0.00993842 0 
v -0.0039685 0.00999322 0.254 
v -0.0039685 0.00999322 0 
v -0.00396725 0.0100482 0.254 
v -0.00396725 0.0100482 0 
v -0.00396006 0.0101027 0.254 
v -0.00396006 0.0101027 0 
v -0.00394702 0.0101562 0.254 
v -0.00394702 0.0101562 0 
v -0.00392827 0.0102079 0.254 
v -0.00392827 0.0102079 0 
v -0.00390405 0.0102573 0.254 
v -0.00390405 0.0102573 0 
v -0.00387463 0.0103038 0.254 
v -0.00387463 0.0103038 0 
v -0.00384035 0.0103468 0.254 
v -0.00384035 0.0103468 0 
v -0.00380163 0.0103858 0.254 
v -0.00380163 0.0103858 0 
v -0.00375891 0.0104205 0.254 
v -0.00375891 0.0104205 0 
v -0.00371269 0.0104503 0.254 
v -0.00371269 0.0104503 0 
v -0.00366352 0.010475 0.254 
v -0.00366352 0.010475 0 
v -0.00361197 0.0104942 0.254 
v -0.00361197 0.0104942 0 
v -0.00355865 0.0105077 0.254 
v -0.00355865 0.0105077 0 
v -0.00350418 0.0105153 0.254 
v -0.00350418 0.0105153 0 
v -0.0034492 0.0105171 0.254 
v -0.0034492 0.0105171 0 
v -0.00339436 0.0105128 0.254 
v -0.00339436 0.0105128 0 
v -0.0033403 0.0105027 0.254 
v -0.0033403 0.0105027 0 
v -0.00328764 0.0104868 0.254 
v -0.00328764 0.0104868 0 
v -0.00323702 0.0104653 0.254 
v -0.00323702 0.0104653 0 
v -0.00318902 0.0104384 0.254 
v -0.00318902 0.0104384 0 
v -0.00314421 0.0104065 0.254 
v -0.00314421 0.0104065 0 
v -0.0031031 0.01037 0.254 
v -0.0031031 0.01037 0 
v -0.0030662 0.0103292 0.254 
v -0.0030662 0.0103292 0 
vn -0.776682 -0.629893 0 
vn -0.776682 -0.629893 0 
vn -0.840232 -0.542226 0 
vn -0.840232 -0.542226 0 
vn -0.893932 -0.448203 0 
vn -0.893932 -0.448203 0 
vn -0.937151 -0.348924 0 
vn -0.937151 -0.348924 0 
vn -0.969383 -0.245555 0 
vn -0.969383 -0.245555 0 
vn -0.990249 -0.139307 0 
vn -0.990249 -0.139307 0 
vn -0.999506 -0.0314255 0 
vn -0.999506 -0.0314255 0 
vn -0.997045 0.0768243 0 
vn -0.997045 0.0768243 0 
vn -0.982894 0.184173 0 
vn -0.982894 0.184173 0 
vn -0.957219 0.289363 0 
vn -0.957219 0.289363 0 
vn -0.920322 0.391161 0 
vn -0.920322 0.391161 0 
vn -0.872636 0.488372 0 
vn -0.872636 0.488372 0 
vn -0.814718 0.579858 0 
vn -0.814718 0.579858 0 
vn -0.747248 0.664545 0 
vn -0.747248 0.664545 0 
vn -0.671018 0.741441 0 
vn -0.671018 0.741441 0 
vn -0.58692 0.809645 0 
vn -0.58692 0.809645 0 
vn -0.495942 0.868356 0 
vn -0.495942 0.868356 0 
vn -0.399149 0.916886 0 
vn -0.399149 0.916886 0 
vn -0.297676 0.954667 0 
vn -0.297676 0.954667 0 
vn -0.192714 0.981255 0 
vn -0.192714 0.981255 0 
vn -0.0854916 0.996339 0 
vn -0.0854916 0.996339 0 
vn 0.0227327 0.999742 0 
vn 0.0227327 0.999742 0 
vn 0.130691 0.991423 0 
vn 0.130691 0.991423 0 
vn 0.237116 0.971481 0 
vn 0.237116 0.971481 0 
vn 0.340762 0.94015 0 
vn 0.340762 0.94015 0 
vn 0.440412 0.897796 0 
vn 0.440412 0.897796 0 
vn 0.534899 0.844916 0 
vn 0.534899 0.844916 0 
vn 0.623115 0.78213 0 
vn 0.623115 0.78213 0 
vn 0.704026 0.710175 0 
vn 0.704026 0.710175 0 
vn 0.776682 0.629893 0 
vn 0.776682 0.629893 0 
f 171//171 172//172 173//173 
f 174//174 173//173 175//175 
f 176//176 175//175 177//177 
f 178//178 177//177 179//179 
f 180//180 179//179 181//181 
f 182//182 181//181 183//183 
f 184//184 183//183 185//185 
f 186//186 185//185 187//187 
f 188//188 187//187 189//189 
f 190//190 189//189 191//191 
f 192//192 191//191 193//193 
f 194//194 193//193 195//195 
f 196//196 195//195 197//197 
f 198//198 197//197 199//199 
f 200//200 199//199 201//201 
f 202//202 201//201 203//203 
f 204//204 203//203 205//205 
f 206//206 205//205 207//207 
f 208//208 207//207 209//209 
f 210//210 209//209 211//211 
f 212//212 211//211 213//213 
f 214//214 213//213 215//215 
f 216//216 215//215 217//217 
f 218//218 217//217 219//219 
f 220//220 219//219 221//221 
f 222//222 221//221 223//223 
f 224//224 223//223 225//225 
f 226//226 225//225 227//227 
f 228//228 227//227 229//229 
f 229//229 230//230 228//228 
f 227//227 228//228 226//226 
f 225//225 226//226 224//224 
f 223//223 224//224 222//222 
f 221//221 222//222 220//220 
f 219//219 220//220 218//218 
f 217//217 218//218 216//216 
f 215//215 216//216 214//214 
f 213//213 214//214 212//212 
f 211//211 212//212 210//210 
f 209//209 210//210 208//208 
f 207//207 208//208 206//206 
f 205//205 206//206 204//204 
f 203//203 204//204 202//202 
f 201//201 202//202 200//200 
f 199//199 200//200 198//198 
f 197//197 198//198 196//196 
f 195//195 196//196 194//194 
f 193//193 194//194 192//192 
f 191//191 192//192 190//190 
f 189//189 190//190 188//188 
f 187//187 188//188 186//186 
f 185//185 186//186 184//184 
f 183//183 184//184 182//182 
f 181//181 182//182 180//180 
f 179//179 180//180 178//178 
f 177//177 178//178 176//176 
f 175//175 176//176 174//174 
f 173//173 174//174 171//171 
o mesh1201
v -0.0038553 0.0096892 0.254 
v -0.0038553 0.0096892 0 
v -0.00320569 0.00888821 0 
v -0.00320569 0.00888821 0.254 
vn -0.776682 -0.629893 0 
vn -0.776682 -0.629893 0 
vn -0.776682 -0.629893 0 
vn -0.776682 -0.629893 0 
f 231//231 232//232 233//233 
f 233//233 234//234 231//231 
o mesh1202
v -0.003302 0.00434667 0 
v -0.003302 0.00434667 0.254 
v -0.00350819 0.00469275 0.254 
v -0.00350819 0.00469275 0 
v -0.00367824 0.00505796 0.254 
v -0.00367824 0.00505796 0 
v -0.00381039 0.00543852 0.254 
v -0.00381039 0.00543852 0 
v -0.00390328 0.00583051 0.254 
v -0.00390328 0.00583051 0 
v -0.00395595 0.00622991 0.254 
v -0.00395595 0.00622991 0 
v -0.00396786 0.00663258 0.254 
v -0.00396786 0.00663258 0 
v -0.00393889 0.00703439 0.254 
v -0.00393889 0.00703439 0 
v -0.00386933 0.00743119 0.254 
v -0.00386933 0.00743119 0 
v -0.00375991 0.00781889 0.254 
v -0.00375991 0.00781889 0 
v -0.00361175 0.00819351 0.254 
v -0.00361175 0.00819351 0 
v -0.00342637 0.00855117 0.254 
v -0.00342637 0.00855117 0 
v -0.00320569 0.00888821 0.254 
v -0.00320569 0.00888821 0 
vn -0.832 -0.554776 0 
vn -0.832 -0.554776 0 
vn -0.883954 -0.467574 0 
vn -0.883954 -0.467574 0 
vn -0.9268 -0.375554 0 
vn -0.9268 -0.375554 0 
vn -0.960098 -0.279665 0 
vn -0.960098 -0.279665 0 
vn -0.983503 -0.180894 0 
vn -0.983503 -0.180894 0 
vn -0.996774 -0.0802601 0 
vn -0.996774 -0.0802601 0 
vn -0.999775 0.0212012 0 
vn -0.999775 0.0212012 0 
vn -0.992475 0.122444 0 
vn -0.992475 0.122444 0 
vn -0.97495 0.222425 0 
vn -0.97495 0.222425 0 
vn -0.947379 0.320115 0 
vn -0.947379 0.320115 0 
vn -0.910046 0.414506 0 
vn -0.910046 0.414506 0 
vn -0.863338 0.504627 0 
vn -0.863338 0.504627 0 
vn -0.807733 0.589548 0 
vn -0.807733 0.589548 0 
f 235//235 236//236 237//237 
f 238//238 237//237 239//239 
f 240//240 239//239 241//241 
f 242//242 241//241 243//243 
f 244//244 243//243 245//245 
f 246//246 245//245 247//247 
f 248//248 247//247 249//249 
f 250//250 249//249 251//251 
f 252//252 251//251 253//253 
f 254//254 253//253 255//255 
f 256//256 255//255 257//257 
f 258//258 257//257 259//259 
f 259//259 260//260 258//258 
f 257//257 258//258 256//256 
f 255//255 256//256 254//254 
f 253//253 254//254 252//252 
f 251//251 252//252 250//250 
f 249//249 250//250 248//248 
f 247//247 248//248 246//246 
f 245//245 246//246 244//244 
f 243//243 244//244 242//242 
f 241//241 242//242 240//240 
f 239//239 240//240 238//238 
f 237//237 238//238 235//235 
o mesh1203
v -0.00189841 0.00628167 0.254 
v -0.00386933 0.00743119 0.254 
v -0.00393889 0.00703439 0.254 
v -0.00361175 0.00819351 0.254 
v -0.00375991 0.00781889 0.254 
v -0.00320569 0.00888821 0.254 
v -0.00342637 0.00855117 0.254 
v -0.00396725 0.0100482 0.254 
v -0.0039685 0.00999322 0.254 
v -0.0039638 0.00993842 0.254 
v -0.00396786 0.00663258 0.254 
v -0.00188404 0.00625888 0.254 
v -0.00393682 0.00983193 0.254 
v -0.00391487 0.0097815 0.254 
v -0.0039532 0.00988445 0.254 
v -0.00388759 0.00973374 0.254 
v -0.00392827 0.0102079 0.254 
v -0.00394702 0.0101562 0.254 
v -0.00384035 0.0103468 0.254 
v -0.00387463 0.0103038 0.254 
v -0.00375891 0.0104205 0.254 
v -0.00380163 0.0103858 0.254 
v 0.00396725 0.0100482 0.254 
v 0.0039532 0.00988445 0.254 
v 0.0039638 0.00993842 0.254 
v -0.00186733 0.00623774 0.254 
v -0.00127 0.00411956 0.254 
v -0.00184848 0.00621849 0.254 
v -0.00167667 0.00615156 0.254 
v 0.00127 0.00411956 0.254 
v 0.00396786 0.00663258 0.254 
v 0.00191953 0.00633116 0.254 
v 0.00191029 0.00630586 0.254 
v -0.00396006 0.0101027 0.254 
v 0.00249989 0.00963089 0.254 
v 0.00123933 0.00803675 0.254 
v 0.00139095 0.00789612 0.254 
v 0.00180358 0.0100837 0.254 
v 0.00142374 0.010253 0.254 
v 0.00070738 0.00835138 0.254 
v 0.00102827 0.0103817 0.254 
v 0.000511112 0.00841653 0.254 
v 0.0038553 0.0096892 0.254 
v 0.00371269 0.0104503 0.254 
v 0.00366352 0.010475 0.254 
v 0.00380163 0.0103858 0.254 
v 0.00375891 0.0104205 0.254 
v 0.00393682 0.00983193 0.254 
v 0.00167667 0.00615156 0.254 
v 0.00186733 0.00623774 0.254 
v 0.00184848 0.00621849 0.254 
v 0.00192605 0.00635731 0.254 
v -0.00390405 0.0102573 0.254 
v -0.0038553 0.0096892 0.254 
v -0.0031031 0.01037 0.254 
v -0.00314421 0.0104065 0.254 
v 0.00164508 0.00757056 0.254 
v 0.00174468 0.00738933 0.254 
v 0.00152672 0.00774013 0.254 
v 0.000621516 0.0104682 0.254 
v 0.000309017 0.00846038 0.254 
v 0.00390405 0.0102573 0.254 
v 0.00387463 0.0103038 0.254 
v 0.00396006 0.0101027 0.254 
v 0.00394702 0.0101562 0.254 
v 0.00391487 0.0097815 0.254 
v 0.00388759 0.00973374 0.254 
v -0.0018277 0.00620134 0.254 
v -0.00178129 0.00617411 0.254 
v -0.00180522 0.00618649 0.254 
v 0.00170358 0.00615299 0.254 
v 0.0018277 0.00620134 0.254 
v 0.00188404 0.00625888 0.254 
v 0.00189841 0.00628167 0.254 
v -0.00361197 0.0104942 0.254 
v -0.00366352 0.010475 0.254 
v -0.00350418 0.0105153 0.254 
v -0.00355865 0.0105077 0.254 
v -0.00328764 0.0104868 0.254 
v -0.0033403 0.0105027 0.254 
v -0.0030662 0.0103292 0.254 
v 0.00182439 0.00719851 0.254 
v 0.0018833 0.00700028 0.254 
v 0.000207933 0.0105117 0.254 
v 0.000103399 0.00848243 0.254 
v -0.00102827 0.0103817 0.254 
v -0.000511112 0.00841653 0.254 
v -0.000309017 0.00846038 0.254 
v -0.00142374 0.010253 0.254 
v -0.00070738 0.00835138 0.254 
v 0.00328764 0.0104868 0.254 
v 0.00323702 0.0104653 0.254 
v 0.00339436 0.0105128 0.254 
v 0.0033403 0.0105027 0.254 
v 0.00384035 0.0103468 0.254 
v 0.00392827 0.0102079 0.254 
v -0.00173018 0.00615726 0.254 
v -0.00175618 0.00616433 0.254 
v 0.00173018 0.00615726 0.254 
v 0.00180522 0.00618649 0.254 
v -0.00371269 0.0104503 0.254 
v -0.00323702 0.0104653 0.254 
v -0.00318902 0.0104384 0.254 
v 0.00216361 0.00987556 0.254 
v 0.00107358 0.0081604 0.254 
v 0.000895583 0.00826568 0.254 
v -0.000207933 0.0105117 0.254 
v -0.000103399 0.00848243 0.254 
v -0.000621516 0.0104682 0.254 
v -0.00249989 0.00963089 0.254 
v -0.0018833 0.00700028 0.254 
v -0.00182439 0.00719851 0.254 
v -0.00192605 0.00635731 0.254 
v -0.00192976 0.006384 0.254 
v 0.00314421 0.0104065 0.254 
v 0.0031031 0.01037 0.254 
v 0.00350418 0.0105153 0.254 
v 0.0034492 0.0105171 0.254 
v 0.0039685 0.00999322 0.254 
v 0.00193629 0.00659069 0.254 
v 0.00342637 0.00855117 0.254 
v 0.00320569 0.00888821 0.254 
v -0.00170358 0.00615299 0.254 
v 0.00178129 0.00617411 0.254 
v 0.00175618 0.00616433 0.254 
v -0.00339436 0.0105128 0.254 
v -0.0034492 0.0105171 0.254 
v 0.00192075 0.0067969 0.254 
v -0.00164508 0.00757056 0.254 
v -0.00152672 0.00774013 0.254 
v -0.00192075 0.0067969 0.254 
v -0.00193629 0.00659069 0.254 
v 0.00318902 0.0104384 0.254 
v 0.00361197 0.0104942 0.254 
v 0.00355865 0.0105077 0.254 
v 0.00361175 0.00819351 0.254 
v -0.00180358 0.0100837 0.254 
v -0.000895583 0.00826568 0.254 
v -0.00216361 0.00987556 0.254 
v -0.00107358 0.0081604 0.254 
v -0.00123933 0.00803675 0.254 
v -0.00174468 0.00738933 0.254 
v 0.00375991 0.00781889 0.254 
v 0.00393889 0.00703439 0.254 
v 0.00386933 0.00743119 0.254 
v 0.00381039 0.00543852 0.254 
v 0.00390328 0.00583051 0.254 
v 0.00350819 0.00469275 0.254 
v 0.00367824 0.00505796 0.254 
v -0.00191953 0.00633116 0.254 
v -0.00191029 0.00630586 0.254 
v -0.00139095 0.00789612 0.254 
v 0.0030662 0.0103292 0.254 
v 0.00192976 0.006384 0.254 
v -0.00381039 0.00543852 0.254 
v -0.00367824 0.00505796 0.254 
v 0.003302 0.00434667 0.254 
v -0.00390328 0.00583051 0.254 
v -0.00395595 0.00622991 0.254 
v 0.00395595 0.00622991 0.254 
v 0.00127 -0.00061368 0.254 
v 0.003302 -0.00615156 0.254 
v -0.003302 -0.00615156 0.254 
v -0.00127 -0.00615156 0.254 
v -0.00350819 0.00469275 0.254 
v 0.00127 -0.00205052 0.254 
v -0.00071842 -6.21003e-05 0.254 
v -0.003302 0.00434667 0.254 
v 6.50521e-19 0.00065632 0.254 
v 0.00127 -0.00615156 0.254 
vn 0 0 1 
vn 0 0 1 
vn 0 0 1 
vn 0 0 1 
vn 0 0 1 
vn 0 0 1 
vn 0 0 1 
vn 0 0 1 
vn 0 0 1 
vn 0 0 1 
vn 0 0 1 
vn 0 0 1 
vn 0 0 1 
vn 0 0 1 
vn 0 0 1 
vn 0 0 1 
vn 0 0 1 
vn 0 0 1 
vn 0 0 1 
vn 0 0 1 
vn 0 0 1 
vn 0 0 1 
vn 0 0 1 
vn 0 0 1 
vn 0 0 1 
vn 0 0 1 
vn 0 0 1 
vn 0 0 1 
vn 0 0 1 
vn 0 0 1 
vn 0 0 1 
vn 0 0 1 
vn 0 0 1 
vn 0 0 1 
vn 0 0 1 
vn 0 0 1 
vn 0 0 1 
vn 0 0 1 
vn 0 0 1 
vn 0 0 1 
vn 0 0 1 
vn 0 0 1 
vn 0 0 1 
vn 0 0 1 
vn 0 0 1 
vn 0 0 1 
vn 0 0 1 
vn 0 0 1 
vn 0 0 1 
vn 0 0 1 
vn 0 0 1 
vn 0 0 1 
vn 0 0 1 
vn 0 0 1 
vn 0 0 1 
vn 0 0 1 
vn 0 0 1 
vn 0 0 1 
vn 0 0 1 
vn 0 0 1 
vn 0 0 1 
vn 0 0 1 
vn 0 0 1 
vn 0 0 1 
vn 0 0 1 
vn 0 0 1 
vn 0 0 1 
vn 0 0 1 
vn 0 0 1 
vn 0 0 1 
vn 0 0 1 
vn 0 0 1 
vn 0 0 1 
vn 0 0 1 
vn 0 0 1 
vn 0 0 1 
vn 0 0 1 
vn 0 0 1 
vn 0 0 1 
vn 0 0 1 
vn 0 0 1 
vn 0 0 1 
vn 0 0 1 
vn 0 0 1 
vn 0 0 1 
vn 0 0 1 
vn 0 0 1 
vn 0 0 1 
vn 0 0 1 
vn 0 0 1 
vn 0 0 1 
vn 0 0 1 
vn 0 0 1 
vn 0 0 1 
vn 0 0 1 
vn 0 0 1 
vn 0 0 1 
vn 0 0 1 
vn 0 0 1 
vn 0 0 1 
vn 0 0 1 
vn 0 0 1 
vn 0 0 1 
vn 0 0 1 
vn 0 0 1 
vn 0 0 1 
vn 0 0 1 
vn 0 0 1 
vn 0 0 1 
vn 0 0 1 
vn 0 0 1 
vn 0 0 1 
vn 0 0 1 
vn 0 0 1 
vn 0 0 1 
vn 0 0 1 
vn 0 0 1 
vn 0 0 1 
vn 0 0 1 
vn 0 0 1 
vn 0 0 1 
vn 0 0 1 
vn 0 0 1 
vn 0 0 1 
vn 0 0 1 
vn 0 0 1 
vn 0 0 1 
vn 0 0 1 
vn 0 0 1 
vn 0 0 1 
vn 0 0 1 
vn 0 0 1 
vn 0 0 1 
vn 0 0 1 
vn 0 0 1 
vn 0 0 1 
vn 0 0 1 
vn 0 0 1 
vn 0 0 1 
vn 0 0 1 
vn 0 0 1 
vn 0 0 1 
vn 0 0 1 
vn 0 0 1 
vn 0 0 1 
vn 0 0 1 
vn 0 0 1 
vn 0 0 1 
vn 0 0 1 
vn 0 0 1 
vn 0 0 1 
vn 0 0 1 
vn 0 0 1 
vn 0 0 1 
vn 0 0 1 
vn 0 0 1 
vn 0 0 1 
vn 0 0 1 
vn 0 0 1 
vn 0 0 1 
vn 0 0 1 
vn 0 0 1 
vn 0 0 1 
vn 0 0 1 
vn 0 0 1 
vn 0 0 1 
vn 0 0 1 
vn 0 0 1 
vn 0 0 1 
vn 0 0 1 
f 261//261 262//262 263//263 
f 261//261 264//264 265//265 
f 265//265 262//262 261//261 
f 261//261 266//266 267//267 
f 267//267 264//264 261//261 
f 268//268 269//269 270//270 
f 271//271 272//272 261//261 
f 268//268 273//273 274//274 
f 270//270 275//275 268//268 
f 276//276 277//277 278//278 
f 276//276 279//279 280//280 
f 276//276 281//281 282//282 
f 283//283 284//284 285//285 
f 271//271 286//286 272//272 
f 271//271 287//287 288//288 
f 289//289 287//287 290//290 
f 291//291 292//292 293//293 
f 275//275 273//273 268//268 
f 278//278 294//294 276//276 
f 282//282 279//279 276//276 
f 295//295 296//296 297//297 
f 298//298 299//299 300//300 
f 299//299 301//301 302//302 
f 303//303 304//304 305//305 
f 303//303 306//306 307//307 
f 283//283 308//308 284//284 
f 288//288 286//286 271//271 
f 290//290 309//309 289//289 
f 291//291 310//310 311//311 
f 291//291 312//312 292//292 
f 294//294 268//268 276//276 
f 280//280 313//313 276//276 
f 314//314 315//315 316//316 
f 295//295 317//317 318//318 
f 297//297 319//319 295//295 
f 302//302 300//300 299//299 
f 301//301 320//320 321//321 
f 307//307 304//304 303//303 
f 303//303 322//322 323//323 
f 303//303 324//324 325//325 
f 283//283 326//326 308//308 
f 283//283 303//303 327//327 
f 287//287 328//328 288//288 
f 287//287 329//329 330//330 
f 290//290 331//331 309//309 
f 290//290 311//311 332//332 
f 291//291 333//333 310//310 
f 293//293 334//334 291//291 
f 313//313 277//277 276//276 
f 276//276 335//335 336//336 
f 276//276 337//337 338//338 
f 314//314 339//339 340//340 
f 314//314 341//341 315//315 
f 295//295 342//342 343//343 
f 319//319 317//317 295//295 
f 321//321 302//302 301//301 
f 320//320 344//344 345//345 
f 346//346 347//347 348//348 
f 349//349 350//350 347//347 
f 303//303 351//351 352//352 
f 303//303 353//353 354//354 
f 303//303 355//355 306//306 
f 303//303 356//356 322//322 
f 303//303 283//283 324//324 
f 327//327 326//326 283//283 
f 330//330 328//328 287//287 
f 287//287 357//357 358//358 
f 290//290 359//359 331//331 
f 332//332 360//360 290//290 
f 334//334 333//333 291//291 
f 276//276 361//361 281//281 
f 338//338 335//335 276//276 
f 314//314 362//362 339//339 
f 316//316 363//363 314//314 
f 318//318 342//342 295//295 
f 295//295 364//364 365//365 
f 364//364 298//298 366//366 
f 345//345 321//321 320//320 
f 367//367 368//368 345//345 
f 369//369 348//348 368//368 
f 347//347 346//346 349//349 
f 370//370 371//371 372//372 
f 370//370 373//373 374//374 
f 303//303 375//375 376//376 
f 354//354 351//351 303//303 
f 303//303 377//377 378//378 
f 323//323 355//355 303//303 
f 285//285 379//379 283//283 
f 380//380 381//381 382//382 
f 358//358 329//329 287//287 
f 289//289 383//383 287//287 
f 290//290 384//384 385//385 
f 311//311 290//290 291//291 
f 336//336 361//361 276//276 
f 314//314 386//386 387//387 
f 363//363 362//362 314//314 
f 343//343 388//388 295//295 
f 366//366 365//365 364//364 
f 345//345 344//344 367//367 
f 348//348 369//369 346//346 
f 370//370 389//389 390//390 
f 370//370 391//391 371//371 
f 374//374 392//392 370//370 
f 303//303 393//393 375//375 
f 378//378 353//353 303//303 
f 303//303 394//394 395//395 
f 325//325 356//356 303//303 
f 380//380 396//396 381//381 
f 383//383 357//357 287//287 
f 360//360 384//384 290//290 
f 274//274 276//276 268//268 
f 340//340 386//386 314//314 
f 365//365 296//296 295//295 
f 368//368 367//367 369//369 
f 397//397 398//398 350//350 
f 399//399 400//400 398//398 
f 370//370 401//401 400//400 
f 370//370 402//402 389//389 
f 392//392 391//391 370//370 
f 352//352 393//393 303//303 
f 305//305 394//394 303//303 
f 380//380 403//403 396//396 
f 380//380 404//404 405//405 
f 290//290 406//406 407//407 
f 290//290 408//408 409//409 
f 385//385 359//359 290//290 
f 266//266 410//410 373//373 
f 266//266 261//261 411//411 
f 387//387 337//337 314//314 
f 314//314 266//266 370//370 
f 300//300 366//366 298//298 
f 398//398 397//397 399//399 
f 370//370 412//412 401//401 
f 372//372 402//402 370//370 
f 303//303 413//413 295//295 
f 395//395 377//377 303//303 
f 405//405 403//403 380//380 
f 409//409 406//406 290//290 
f 291//291 414//414 312//312 
f 411//411 410//410 266//266 
f 370//370 341//341 314//314 
f 350//350 349//349 397//397 
f 390//390 412//412 370//370 
f 376//376 413//413 303//303 
f 380//380 291//291 404//404 
f 287//287 415//415 416//416 
f 290//290 417//417 408//408 
f 291//291 380//380 414//414 
f 276//276 314//314 337//337 
f 400//400 399//399 370//370 
f 382//382 295//295 380//380 
f 287//287 418//418 415//415 
f 287//287 271//271 419//419 
f 407//407 420//420 290//290 
f 417//417 290//290 421//421 
f 373//373 370//370 266//266 
f 295//295 382//382 303//303 
f 419//419 418//418 287//287 
f 421//421 422//422 417//417 
f 388//388 380//380 295//295 
f 423//423 424//424 287//287 
f 416//416 425//425 287//287 
f 422//422 421//421 426//426 
f 427//427 426//426 421//421 
f 263//263 271//271 261//261 
f 425//425 428//428 287//287 
f 421//421 429//429 427//427 
f 287//287 428//428 423//423 
f 420//420 291//291 290//290 
f 426//426 430//430 422//422 
o mesh1204
v 0.00396725 0.0100482 0 
v 0.0039685 0.00999322 0 
v 0.0039638 0.00993842 0 
v -0.00396725 0.0100482 0 
v -0.0039532 0.00988445 0 
v -0.0039638 0.00993842 0 
v 0.0039532 0.00988445 0 
v 0.00388759 0.00973374 0 
v 0.00371269 0.0104503 0 
v 0.00375891 0.0104205 0 
v 0.00142374 0.010253 0 
v 0.00070738 0.00835138 0 
v 0.000511112 0.00841653 0 
v 0.00180358 0.0100837 0 
v 0.000895583 0.00826568 0 
v -0.00393682 0.00983193 0 
v -0.00388759 0.00973374 0 
v -0.00391487 0.0097815 0 
v 0.00189841 0.00628167 0 
v 0.00375991 0.00781889 0 
v 0.00386933 0.00743119 0 
v 0.00320569 0.00888821 0 
v 0.00342637 0.00855117 0 
v -0.00396786 0.00663258 0 
v -0.00186733 0.00623774 0 
v -0.00184848 0.00621849 0 
v -0.00189841 0.00628167 0 
v -0.00188404 0.00625888 0 
v 0.00393682 0.00983193 0 
v 0.00392827 0.0102079 0 
v 0.00394702 0.0101562 0 
v 0.00384035 0.0103468 0 
v 0.00387463 0.0103038 0 
v 0.00380163 0.0103858 0 
v 0.00361197 0.0104942 0 
v 0.00366352 0.010475 0 
v 0.00102827 0.0103817 0 
v 0.000309017 0.00846038 0 
v 0.00249989 0.00963089 0 
v 0.00152672 0.00774013 0 
v 0.00139095 0.00789612 0 
v -0.0038553 0.0096892 0 
v -0.00384035 0.0103468 0 
v -0.00380163 0.0103858 0 
v -0.00390405 0.0102573 0 
v -0.00387463 0.0103038 0 
v -0.00396006 0.0101027 0 
v -0.00394702 0.0101562 0 
v 0.00393889 0.00703439 0 
v 0.00361175 0.00819351 0 
v -0.00167667 0.00615156 0 
v 0.00167667 0.00615156 0 
v 0.00127 0.00411956 0 
v -0.00191953 0.00633116 0 
v -0.00191029 0.00630586 0 
v -0.00192976 0.006384 0 
v -0.00192605 0.00635731 0 
v 0.00391487 0.0097815 0 
v 0.00396006 0.0101027 0 
v 0.00390405 0.0102573 0 
v -0.00142374 0.010253 0 
v -0.00102827 0.0103817 0 
v -0.000511112 0.00841653 0 
v -0.000621516 0.0104682 0 
v -0.000309017 0.00846038 0 
v 0.000621516 0.0104682 0 
v 0.000103399 0.00848243 0 
v 0.00164508 0.00757056 0 
v -0.00314421 0.0104065 0 
v -0.0031031 0.01037 0 
v 0.00396786 0.00663258 0 
v 0.00184848 0.00621849 0 
v -0.00127 0.00411956 0 
v 0.0038553 0.0096892 0 
v 0.00328764 0.0104868 0 
v 0.0033403 0.0105027 0 
v 0.00318902 0.0104384 0 
v 0.00323702 0.0104653 0 
v -0.000207933 0.0105117 0 
v -0.000103399 0.00848243 0 
v 0.000207933 0.0105117 0 
v 0.00174468 0.00738933 0 
v -0.00318902 0.0104384 0 
v -0.00339436 0.0105128 0 
v -0.0033403 0.0105027 0 
v -0.00392827 0.0102079 0 
v -0.0039685 0.00999322 0 
v 0.00188404 0.00625888 0 
v 0.00186733 0.00623774 0 
v 0.00180522 0.00618649 0 
v 0.0018277 0.00620134 0 
v -0.00170358 0.00615299 0 
v -0.0018277 0.00620134 0 
v -0.00180522 0.00618649 0 
v 0.00350418 0.0105153 0 
v 0.00355865 0.0105077 0 
v 0.00339436 0.0105128 0 
v 0.0034492 0.0105171 0 
v 0.0030662 0.0103292 0 
v 0.0031031 0.01037 0 
v -0.00249989 0.00963089 0 
v -0.00174468 0.00738933 0 
v -0.00182439 0.00719851 0 
v 0.00216361 0.00987556 0 
v 0.00107358 0.0081604 0 
v 0.00123933 0.00803675 0 
v 0.00182439 0.00719851 0 
v 0.00192075 0.0067969 0 
v 0.0018833 0.00700028 0 
v 0.00192605 0.00635731 0 
v 0.00192976 0.006384 0 
v -0.00323702 0.0104653 0 
v -0.00328764 0.0104868 0 
v -0.00361197 0.0104942 0 
v -0.00355865 0.0105077 0 
v -0.00371269 0.0104503 0 
v -0.00366352 0.010475 0 
v 0.00178129 0.00617411 0 
v 0.00170358 0.00615299 0 
v -0.00178129 0.00617411 0 
v -0.00175618 0.00616433 0 
v 0.00314421 0.0104065 0 
v -0.0018833 0.00700028 0 
v -0.00139095 0.00789612 0 
v -0.00152672 0.00774013 0 
v 0.00193629 0.00659069 0 
v -0.00350418 0.0105153 0 
v -0.0034492 0.0105171 0 
v -0.00375891 0.0104205 0 
v -0.00193629 0.00659069 0 
v -0.00386933 0.00743119 0 
v -0.00375991 0.00781889 0 
v 0.00173018 0.00615726 0 
v 0.00175618 0.00616433 0 
v -0.00173018 0.00615726 0 
v -0.00192075 0.0067969 0 
v -0.00164508 0.00757056 0 
v -0.00216361 0.00987556 0 
v -0.00107358 0.0081604 0 
v -0.00180358 0.0100837 0 
v -0.000895583 0.00826568 0 
v -0.00070738 0.00835138 0 
v -0.00342637 0.00855117 0 
v -0.00320569 0.00888821 0 
v -0.00393889 0.00703439 0 
v -0.003302 0.00434667 0 
v -0.00350819 0.00469275 0 
v 0.00191953 0.00633116 0 
v 0.00191029 0.00630586 0 
v -0.00123933 0.00803675 0 
v -0.0030662 0.0103292 0 
v -0.00361175 0.00819351 0 
v -0.00367824 0.00505796 0 
v 0.00381039 0.00543852 0 
v 0.00367824 0.00505796 0 
v 0.00395595 0.00622991 0 
v 0.00390328 0.00583051 0 
v -0.00390328 0.00583051 0 
v -0.00395595 0.00622991 0 
v -0.00381039 0.00543852 0 
v -0.003302 -0.00615156 0 
v 0.00350819 0.00469275 0 
v -0.00127 -0.00615156 0 
v 0.003302 0.00434667 0 
v 0.003302 -0.00615156 0 
v 0.00127 -0.00061368 0 
v -0.00071842 -6.21003e-05 0 
v 6.50521e-19 0.00065632 0 
v 0.00127 -0.00615156 0 
v 0.00127 -0.00205052 0 
vn 0 0 -1 
vn 0 0 -1 
vn 0 0 -1 
vn 0 0 -1 
vn 0 0 -1 
vn 0 0 -1 
vn 0 0 -1 
vn 0 0 -1 
vn 0 0 -1 
vn 0 0 -1 
vn 0 0 -1 
vn 0 0 -1 
vn 0 0 -1 
vn 0 0 -1 
vn 0 0 -1 
vn 0 0 -1 
vn 0 0 -1 
vn 0 0 -1 
vn 0 0 -1 
vn 0 0 -1 
vn 0 0 -1 
vn 0 0 -1 
vn 0 0 -1 
vn 0 0 -1 
vn 0 0 -1 
vn 0 0 -1 
vn 0 0 -1 
vn 0 0 -1 
vn 0 0 -1 
vn 0 0 -1 
vn 0 0 -1 
vn 0 0 -1 
vn 0 0 -1 
vn 0 0 -1 
vn 0 0 -1 
vn 0 0 -1 
vn 0 0 -1 
vn 0 0 -1 
vn 0 0 -1 
vn 0 0 -1 
vn 0 0 -1 
vn 0 0 -1 
vn 0 0 -1 
vn 0 0 -1 
vn 0 0 -1 
vn 0 0 -1 
vn 0 0 -1 
vn 0 0 -1 
vn 0 0 -1 
vn 0 0 -1 
vn 0 0 -1 
vn 0 0 -1 
vn 0 0 -1 
vn 0 0 -1 
vn 0 0 -1 
vn 0 0 -1 
vn 0 0 -1 
vn 0 0 -1 
vn 0 0 -1 
vn 0 0 -1 
vn 0 0 -1 
vn 0 0 -1 
vn 0 0 -1 
vn 0 0 -1 
vn 0 0 -1 
vn 0 0 -1 
vn 0 0 -1 
vn 0 0 -1 
vn 0 0 -1 
vn 0 0 -1 
vn 0 0 -1 
vn 0 0 -1 
vn 0 0 -1 
vn 0 0 -1 
vn 0 0 -1 
vn 0 0 -1 
vn 0 0 -1 
vn 0 0 -1 
vn 0 0 -1 
vn 0 0 -1 
vn 0 0 -1 
vn 0 0 -1 
vn 0 0 -1 
vn 0 0 -1 
vn 0 0 -1 
vn 0 0 -1 
vn 0 0 -1 
vn 0 0 -1 
vn 0 0 -1 
vn 0 0 -1 
vn 0 0 -1 
vn 0 0 -1 
vn 0 0 -1 
vn 0 0 -1 
vn 0 0 -1 
vn 0 0 -1 
vn 0 0 -1 
vn 0 0 -1 
vn 0 0 -1 
vn 0 0 -1 
vn 0 0 -1 
vn 0 0 -1 
vn 0 0 -1 
vn 0 0 -1 
vn 0 0 -1 
vn 0 0 -1 
vn 0 0 -1 
vn 0 0 -1 
vn 0 0 -1 
vn 0 0 -1 
vn 0 0 -1 
vn 0 0 -1 
vn 0 0 -1 
vn 0 0 -1 
vn 0 0 -1 
vn 0 0 -1 
vn 0 0 -1 
vn 0 0 -1 
vn 0 0 -1 
vn 0 0 -1 
vn 0 0 -1 
vn 0 0 -1 
vn 0 0 -1 
vn 0 0 -1 
vn 0 0 -1 
vn 0 0 -1 
vn 0 0 -1 
vn 0 0 -1 
vn 0 0 -1 
vn 0 0 -1 
vn 0 0 -1 
vn 0 0 -1 
vn 0 0 -1 
vn 0 0 -1 
vn 0 0 -1 
vn 0 0 -1 
vn 0 0 -1 
vn 0 0 -1 
vn 0 0 -1 
vn 0 0 -1 
vn 0 0 -1 
vn 0 0 -1 
vn 0 0 -1 
vn 0 0 -1 
vn 0 0 -1 
vn 0 0 -1 
vn 0 0 -1 
vn 0 0 -1 
vn 0 0 -1 
vn 0 0 -1 
vn 0 0 -1 
vn 0 0 -1 
vn 0 0 -1 
vn 0 0 -1 
vn 0 0 -1 
vn 0 0 -1 
vn 0 0 -1 
vn 0 0 -1 
vn 0 0 -1 
vn 0 0 -1 
vn 0 0 -1 
vn 0 0 -1 
vn 0 0 -1 
vn 0 0 -1 
vn 0 0 -1 
vn 0 0 -1 
vn 0 0 -1 
vn 0 0 -1 
vn 0 0 -1 
vn 0 0 -1 
f 431//431 432//432 433//433 
f 434//434 435//435 436//436 
f 433//433 437//437 431//431 
f 438//438 439//439 440//440 
f 441//441 442//442 443//443 
f 444//444 445//445 442//442 
f 434//434 446//446 435//435 
f 434//434 447//447 448//448 
f 449//449 450//450 451//451 
f 449//449 452//452 453//453 
f 454//454 455//455 456//456 
f 454//454 457//457 458//458 
f 437//437 459//459 431//431 
f 438//438 460//460 461//461 
f 438//438 462//462 463//463 
f 440//440 464//464 438//438 
f 438//438 465//465 466//466 
f 467//467 443//443 468//468 
f 442//442 441//441 444//444 
f 469//469 470//470 471//471 
f 472//472 473//473 474//474 
f 472//472 475//475 476//476 
f 472//472 477//477 478//478 
f 448//448 446//446 434//434 
f 451//451 479//479 449//449 
f 453//453 480//480 449//449 
f 481//481 482//482 483//483 
f 458//458 455//455 454//454 
f 454//454 484//484 485//485 
f 454//454 486//486 487//487 
f 459//459 488//488 431//431 
f 461//461 489//489 438//438 
f 463//463 490//490 438//438 
f 466//466 439//439 438//438 
f 491//491 492//492 493//493 
f 492//492 494//494 495//495 
f 496//496 468//468 497//497 
f 443//443 467//467 441//441 
f 469//469 498//498 470//470 
f 472//472 499//499 500//500 
f 476//476 473//473 472//472 
f 472//472 434//434 477//477 
f 434//434 472//472 447//447 
f 480//480 450//450 449//449 
f 501//501 483//483 502//502 
f 483//483 503//503 481//481 
f 456//456 503//503 454//454 
f 487//487 484//484 454//454 
f 489//489 431//431 438//438 
f 464//464 462//462 438//438 
f 504//504 505//505 506//506 
f 504//504 507//507 508//508 
f 495//495 493//493 492//492 
f 494//494 509//509 510//510 
f 509//509 511//511 497//497 
f 468//468 496//496 467//467 
f 469//469 512//512 498//498 
f 472//472 513//513 499//499 
f 472//472 514//514 515//515 
f 472//472 516//516 475//475 
f 436//436 517//517 434//434 
f 501//501 518//518 449//449 
f 502//502 519//519 501//501 
f 483//483 520//520 521//521 
f 503//503 522//522 481//481 
f 503//503 523//523 524//524 
f 485//485 457//457 454//454 
f 490//490 460//460 438//438 
f 438//438 525//525 526//526 
f 504//504 527//527 528//528 
f 508//508 505//505 504//504 
f 504//504 529//529 530//530 
f 531//531 532//532 533//533 
f 510//510 495//495 494//494 
f 497//497 511//511 496//496 
f 534//534 535//535 445//445 
f 469//469 536//536 535//535 
f 469//469 537//537 512//512 
f 469//469 538//538 539//539 
f 469//469 540//540 541//541 
f 472//472 542//542 513//513 
f 515//515 543//543 472//472 
f 472//472 544//544 545//545 
f 472//472 546//546 547//547 
f 478//478 516//516 472//472 
f 519//519 518//518 501//501 
f 483//483 548//548 520//520 
f 482//482 549//549 483//483 
f 503//503 550//550 551//551 
f 456//456 523//523 503//503 
f 526//526 465//465 438//438 
f 506//506 527//527 504//504 
f 530//530 552//552 504//504 
f 533//533 553//553 531//531 
f 531//531 554//554 555//555 
f 497//497 510//510 509//509 
f 535//535 534//534 469//469 
f 539//539 537//537 469//469 
f 541//541 556//556 469//469 
f 543//543 542//542 472//472 
f 472//472 557//557 558//558 
f 547//547 544//544 472//472 
f 474//474 559//559 472//472 
f 560//560 561//561 562//562 
f 521//521 502//502 483//483 
f 483//483 563//563 564//564 
f 503//503 565//565 522//522 
f 524//524 550//550 503//503 
f 488//488 438//438 431//431 
f 552//552 507//507 504//504 
f 553//553 566//566 531//531 
f 555//555 567//567 531//531 
f 531//531 568//568 569//569 
f 568//568 570//570 571//571 
f 570//570 491//491 572//572 
f 445//445 444//444 534//534 
f 556//556 538//538 469//469 
f 558//558 514//514 472//472 
f 559//559 546//546 472//472 
f 560//560 573//573 574//574 
f 560//560 575//575 561//561 
f 503//503 576//576 577//577 
f 564//564 548//548 483//483 
f 551//551 565//565 503//503 
f 452//452 578//578 540//540 
f 452//452 449//449 579//579 
f 528//528 525//525 504//504 
f 504//504 452//452 469//469 
f 567//567 532//532 531//531 
f 569//569 580//580 531//531 
f 572//572 571//571 570//570 
f 471//471 536//536 469//469 
f 472//472 581//581 531//531 
f 545//545 557//557 472//472 
f 560//560 582//582 573//573 
f 560//560 454//454 575//575 
f 577//577 583//583 503//503 
f 549//549 563//563 483//483 
f 579//579 578//578 452//452 
f 469//469 529//529 504//504 
f 580//580 554//554 531//531 
f 493//493 572//572 491//491 
f 500//500 581//581 472//472 
f 562//562 582//582 560//560 
f 483//483 584//584 585//585 
f 483//483 586//586 587//587 
f 503//503 588//588 589//589 
f 583//583 590//590 503//503 
f 454//454 560//560 486//486 
f 438//438 504//504 525//525 
f 571//571 569//569 568//568 
f 574//574 531//531 560//560 
f 587//587 584//584 483//483 
f 590//590 588//588 503//503 
f 591//591 576//576 503//503 
f 540//540 469//469 452//452 
f 531//531 574//574 472//472 
f 585//585 592//592 483//483 
f 503//503 593//593 591//591 
f 566//566 560//560 531//531 
f 594//594 595//595 596//596 
f 483//483 501//501 586//586 
f 479//479 501//501 449//449 
f 592//592 594//594 483//483 
f 597//597 598//598 596//596 
f 595//595 599//599 600//600 
f 596//596 483//483 594//594 
f 600//600 596//596 595//595 
f 596//596 600//600 597//597 
f 589//589 454//454 503//503 
o mesh1205
v -0.00167667 0.00615156 0.254 
v 0.00167667 0.00615156 0.254 
v 0.00167667 0.00615156 0 
v -0.00167667 0.00615156 0 
vn 1.31339e-16 1 0 
vn 1.31339e-16 1 0 
vn 1.31339e-16 1 0 
vn 1.31339e-16 1 0 
f 601//601 602//602 603//603 
f 603//603 604//604 601//601 
o mesh1206
v 0.00170358 0.00615299 0 
v 0.00167667 0.00615156 0 
v 0.00167667 0.00615156 0.254 
v 0.00173018 0.00615726 0 
v 0.00170358 0.00615299 0.254 
v 0.00175618 0.00616433 0 
v 0.00173018 0.00615726 0.254 
v 0.00178129 0.00617411 0 
v 0.00175618 0.00616433 0.254 
v 0.00180522 0.00618649 0 
v 0.00178129 0.00617411 0.254 
v 0.0018277 0.00620134 0 
v 0.00180522 0.00618649 0.254 
v 0.00184848 0.00621849 0 
v 0.0018277 0.00620134 0.254 
v 0.00186733 0.00623774 0 
v 0.00184848 0.00621849 0.254 
v 0.00188404 0.00625888 0 
v 0.00186733 0.00623774 0.254 
v 0.00189841 0.00628167 0 
v 0.00188404 0.00625888 0.254 
v 0.00191029 0.00630586 0 
v 0.00189841 0.00628167 0.254 
v 0.00191953 0.00633116 0 
v 0.00191029 0.00630586 0.254 
v 0.00192605 0.00635731 0 
v 0.00191953 0.00633116 0.254 
v 0.00192976 0.006384 0 
v 0.00192605 0.00635731 0.254 
v 0.00192976 0.006384 0.254 
vn -0.105929 0.994374 0 
vn 1.31339e-16 1 0 
vn 1.31339e-16 1 0 
vn -0.210665 0.977558 0 
vn -0.105929 0.994374 0 
vn -0.313031 0.949743 0 
vn -0.210665 0.977558 0 
vn -0.411875 0.91124 0 
vn -0.313031 0.949743 0 
vn -0.506084 0.862484 0 
vn -0.411875 0.91124 0 
vn -0.594599 0.804023 0 
vn -0.506084 0.862484 0 
vn -0.676422 0.736514 0 
vn -0.594599 0.804023 0 
vn -0.750635 0.660718 0 
vn -0.676422 0.736514 0 
vn -0.8164 0.577487 0 
vn -0.750635 0.660718 0 
vn -0.872979 0.487757 0 
vn -0.8164 0.577487 0 
vn -0.919735 0.39254 0 
vn -0.872979 0.487757 0 
vn -0.956142 0.292905 0 
vn -0.919735 0.39254 0 
vn -0.981789 0.189974 0 
vn -0.956142 0.292905 0 
vn -0.996389 0.0849057 0 
vn -0.981789 0.189974 0 
vn -0.996389 0.0849057 0 
f 605//605 606//606 607//607 
f 608//608 605//605 609//609 
f 610//610 608//608 611//611 
f 612//612 610//610 613//613 
f 614//614 612//612 615//615 
f 616//616 614//614 617//617 
f 618//618 616//616 619//619 
f 620//620 618//618 621//621 
f 622//622 620//620 623//623 
f 624//624 622//622 625//625 
f 626//626 624//624 627//627 
f 628//628 626//626 629//629 
f 630//630 628//628 631//631 
f 632//632 630//630 633//633 
f 633//633 634//634 632//632 
f 631//631 633//633 630//630 
f 629//629 631//631 628//628 
f 627//627 629//629 626//626 
f 625//625 627//627 624//624 
f 623//623 625//625 622//622 
f 621//621 623//623 620//620 
f 619//619 621//621 618//618 
f 617//617 619//619 616//616 
f 615//615 617//617 614//614 
f 613//613 615//615 612//612 
f 611//611 613//613 610//610 
f 609//609 611//611 608//608 
f 607//607 609//609 605//605 
o mesh1207
v 0.00193629 0.00659069 0 
v 0.00192976 0.006384 0 
v 0.00192976 0.006384 0.254 
v 0.00192075 0.0067969 0 
v 0.00193629 0.00659069 0.254 
v 0.0018833 0.00700028 0 
v 0.00192075 0.0067969 0.254 
v 0.00182439 0.00719851 0 
v 0.0018833 0.00700028 0.254 
v 0.00174468 0.00738933 0 
v 0.00182439 0.00719851 0.254 
v 0.00164508 0.00757056 0 
v 0.00174468 0.00738933 0.254 
v 0.00152672 0.00774013 0 
v 0.00164508 0.00757056 0.254 
v 0.00139095 0.00789612 0 
v 0.00152672 0.00774013 0.254 
v 0.00123933 0.00803675 0 
v 0.00139095 0.00789612 0.254 
v 0.00107358 0.0081604 0 
v 0.00123933 0.00803675 0.254 
v 0.000895583 0.00826568 0 
v 0.00107358 0.0081604 0.254 
v 0.00070738 0.00835138 0 
v 0.000895583 0.00826568 0.254 
v 0.000511112 0.00841653 0 
v 0.00070738 0.00835138 0.254 
v 0.000309017 0.00846038 0 
v 0.000511112 0.00841653 0.254 
v 0.000103399 0.00848243 0 
v 0.000309017 0.00846038 0.254 
v -0.000103399 0.00848243 0 
v 0.000103399 0.00848243 0.254 
v -0.000309017 0.00846038 0 
v -0.000103399 0.00848243 0.254 
v -0.000511112 0.00841653 0 
v -0.000309017 0.00846038 0.254 
v -0.00070738 0.00835138 0 
v -0.000511112 0.00841653 0.254 
v -0.000895583 0.00826568 0 
v -0.00070738 0.00835138 0.254 
v -0.00107358 0.0081604 0 
v -0.000895583 0.00826568 0.254 
v -0.00123933 0.00803675 0 
v -0.00107358 0.0081604 0.254 
v -0.00139095 0.00789612 0 
v -0.00123933 0.00803675 0.254 
v -0.00152672 0.00774013 0 
v -0.00139095 0.00789612 0.254 
v -0.00164508 0.00757056 0 
v -0.00152672 0.00774013 0.254 
v -0.00174468 0.00738933 0 
v -0.00164508 0.00757056 0.254 
v -0.00182439 0.00719851 0 
v -0.00174468 0.00738933 0.254 
v -0.0018833 0.00700028 0 
v -0.00182439 0.00719851 0.254 
v -0.00192075 0.0067969 0 
v -0.0018833 0.00700028 0.254 
v -0.00193629 0.00659069 0 
v -0.00192075 0.0067969 0.254 
v -0.00192976 0.006384 0 
v -0.00193629 0.00659069 0.254 
v -0.00192976 0.006384 0.254 
vn -0.999762 -0.0218163 0 
vn -0.996389 0.0849057 0 
vn -0.996389 0.0849057 0 
vn -0.991737 -0.12829 0 
vn -0.999762 -0.0218163 0 
vn -0.972405 -0.2333 0 
vn -0.991737 -0.12829 0 
vn -0.941986 -0.335651 0 
vn -0.972405 -0.2333 0 
vn -0.900828 -0.434175 0 
vn -0.941986 -0.335651 0 
vn -0.8494 -0.527749 0 
vn -0.900828 -0.434175 0 
vn -0.788288 -0.615306 0 
vn -0.8494 -0.527749 0 
vn -0.718189 -0.695849 0 
vn -0.788288 -0.615306 0 
vn -0.639901 -0.768457 0 
vn -0.718189 -0.695849 0 
vn -0.554318 -0.832305 0 
vn -0.639901 -0.768457 0 
vn -0.462415 -0.886663 0 
vn -0.554318 -0.832305 0 
vn -0.365241 -0.930913 0 
vn -0.462415 -0.886663 0 
vn -0.263902 -0.96455 0 
vn -0.365241 -0.930913 0 
vn -0.159554 -0.987189 0 
vn -0.263902 -0.96455 0 
vn -0.0533876 -0.998574 0 
vn -0.159554 -0.987189 0 
vn 0.0533876 -0.998574 0 
vn -0.0533876 -0.998574 0 
vn 0.159554 -0.987189 0 
vn 0.0533876 -0.998574 0 
vn 0.263902 -0.96455 0 
vn 0.159554 -0.987189 0 
vn 0.365241 -0.930913 0 
vn 0.263902 -0.96455 0 
vn 0.462415 -0.886663 0 
vn 0.365241 -0.930913 0 
vn 0.554318 -0.832305 0 
vn 0.462415 -0.886663 0 
vn 0.639901 -0.768457 0 
vn 0.554318 -0.832305 0 
vn 0.718189 -0.695849 0 
vn 0.639901 -0.768457 0 
vn 0.788288 -0.615306 0 
vn 0.718189 -0.695849 0 
vn 0.8494 -0.527749 0 
vn 0.788288 -0.615306 0 
vn 0.900828 -0.434175 0 
vn 0.8494 -0.527749 0 
vn 0.941986 -0.335651 0 
vn 0.900828 -0.434175 0 
vn 0.972405 -0.2333 0 
vn 0.941986 -0.335651 0 
vn 0.991737 -0.12829 0 
vn 0.972405 -0.2333 0 
vn 0.999762 -0.0218163 0 
vn 0.991737 -0.12829 0 
vn 0.996389 0.0849057 0 
vn 0.999762 -0.0218163 0 
vn 0.996389 0.0849057 0 
f 635//635 636//636 637//637 
f 638//638 635//635 639//639 
f 640//640 638//638 641//641 
f 642//642 640//640 643//643 
f 644//644 642//642 645//645 
f 646//646 644//644 647//647 
f 648//648 646//646 649//649 
f 650//650 648//648 651//651 
f 652//652 650//650 653//653 
f 654//654 652//652 655//655 
f 656//656 654//654 657//657 
f 658//658 656//656 659//659 
f 660//660 658//658 661//661 
f 662//662 660//660 663//663 
f 664//664 662//662 665//665 
f 666//666 664//664 667//667 
f 668//668 666//666 669//669 
f 670//670 668//668 671//671 
f 672//672 670//670 673//673 
f 674//674 672//672 675//675 
f 676//676 674//674 677//677 
f 678//678 676//676 679//679 
f 680//680 678//678 681//681 
f 682//682 680//680 683//683 
f 684//684 682//682 685//685 
f 686//686 684//684 687//687 
f 688//688 686//686 689//689 
f 690//690 688//688 691//691 
f 692//692 690//690 693//693 
f 694//694 692//692 695//695 
f 696//696 694//694 697//697 
f 697//697 698//698 696//696 
f 695//695 697//697 694//694 
f 693//693 695//695 692//692 
f 691//691 693//693 690//690 
f 689//689 691//691 688//688 
f 687//687 689//689 686//686 
f 685//685 687//687 684//684 
f 683//683 685//685 682//682 
f 681//681 683//683 680//680 
f 679//679 681//681 678//678 
f 677//677 679//679 676//676 
f 675//675 677//677 674//674 
f 673//673 675//675 672//672 
f 671//671 673//673 670//670 
f 669//669 671//671 668//668 
f 667//667 669//669 666//666 
f 665//665 667//667 664//664 
f 663//663 665//665 662//662 
f 661//661 663//663 660//660 
f 659//659 661//661 658//658 
f 657//657 659//659 656//656 
f 655//655 657//657 654//654 
f 653//653 655//655 652//652 
f 651//651 653//653 650//650 
f 649//649 651//651 648//648 
f 647//647 649//649 646//646 
f 645//645 647//647 644//644 
f 643//643 645//645 642//642 
f 641//641 643//643 640//640 
f 639//639 641//641 638//638 
f 637//637 639//639 635//635 
o mesh1208
v -0.00192605 0.00635731 0 
v -0.00192976 0.006384 0 
v -0.00192976 0.006384 0.254 
v -0.00191953 0.00633116 0 
v -0.00192605 0.00635731 0.254 
v -0.00191029 0.00630586 0 
v -0.00191953 0.00633116 0.254 
v -0.00189841 0.00628167 0 
v -0.00191029 0.00630586 0.254 
v -0.00188404 0.00625888 0 
v -0.00189841 0.00628167 0.254 
v -0.00186733 0.00623774 0 
v -0.00188404 0.00625888 0.254 
v -0.00184848 0.00621849 0 
v -0.00186733 0.00623774 0.254 
v -0.0018277 0.00620134 0 
v -0.00184848 0.00621849 0.254 
v -0.00180522 0.00618649 0 
v -0.0018277 0.00620134 0.254 
v -0.00178129 0.00617411 0 
v -0.00180522 0.00618649 0.254 
v -0.00175618 0.00616433 0 
v -0.00178129 0.00617411 0.254 
v -0.00173018 0.00615726 0 
v -0.00175618 0.00616433 0.254 
v -0.00170358 0.00615299 0 
v -0.00173018 0.00615726 0.254 
v -0.00167667 0.00615156 0 
v -0.00170358 0.00615299 0.254 
v -0.00167667 0.00615156 0.254 
vn 0.981789 0.189974 0 
vn 0.996389 0.0849057 0 
vn 0.996389 0.0849057 0 
vn 0.956142 0.292905 0 
vn 0.981789 0.189974 0 
vn 0.919735 0.39254 0 
vn 0.956142 0.292905 0 
vn 0.872979 0.487757 0 
vn 0.919735 0.39254 0 
vn 0.8164 0.577487 0 
vn 0.872979 0.487757 0 
vn 0.750635 0.660718 0 
vn 0.8164 0.577487 0 
vn 0.676422 0.736514 0 
vn 0.750635 0.660718 0 
vn 0.594599 0.804023 0 
vn 0.676422 0.736514 0 
vn 0.506084 0.862484 0 
vn 0.594599 0.804023 0 
vn 0.411875 0.91124 0 
vn 0.506084 0.862484 0 
vn 0.313031 0.949743 0 
vn 0.411875 0.91124 0 
vn 0.210665 0.977558 0 
vn 0.313031 0.949743 0 
vn 0.105929 0.994374 0 
vn 0.210665 0.977558 0 
vn -1.83697e-16 1 0 
vn 0.105929 0.994374 0 
vn -1.83697e-16 1 0 
f 699//699 700//700 701//701 
f 702//702 699//699 703//703 
f 704//704 702//702 705//705 
f 706//706 704//704 707//707 
f 708//708 706//706 709//709 
f 710//710 708//708 711//711 
f 712//712 710//710 713//713 
f 714//714 712//712 715//715 
f 716//716 714//714 717//717 
f 718//718 716//716 719//719 
f 720//720 718//718 721//721 
f 722//722 720//720 723//723 
f 724//724 722//722 725//725 
f 726//726 724//724 727//727 
f 727//727 728//728 726//726 
f 725//725 727//727 724//724 
f 723//723 725//725 722//722 
f 721//721 723//723 720//720 
f 719//719 721//721 718//718 
f 717//717 719//719 716//716 
f 715//715 717//717 714//714 
f 713//713 715//715 712//712 
f 711//711 713//713 710//710 
f 709//709 711//711 708//708 
f 707//707 709//709 706//706 
f 705//705 707//707 704//704 
f 703//703 705//705 702//702 
f 701//701 703//703 699//699 
