# OBJ generated by ONSHAPE BY PTC INC, 1.215 Units = meters
mtllib _2025_Lunabotics_Hopper_Latch_AxleHolder.mtl
g 2025_Lunabotics_Hopper_Latch_AxleHolder
usemtl 1.000000_0.000000_1.000000_0.000000_0.000000
o mesh1506
v 0.0276007 0.0119311 0 
v 0.027559 0.0127 0 
v 0.027559 0.0127 0.00508 
v 0.0277253 0.0111711 0 
v 0.0276007 0.0119311 0.00508 
v 0.0279313 0.0104291 0 
v 0.0277253 0.0111711 0.00508 
v 0.0282163 0.00971375 0 
v 0.0279313 0.0104291 0.00508 
v 0.028577 0.00903338 0 
v 0.0282163 0.00971375 0.00508 
v 0.0290092 0.008396 0 
v 0.028577 0.00903338 0.00508 
v 0.0295077 0.00780908 0 
v 0.0290092 0.008396 0.00508 
v 0.0300668 0.0072795 0 
v 0.0295077 0.00780908 0.00508 
v 0.0306798 0.00681348 0 
v 0.0300668 0.0072795 0.00508 
v 0.0313397 0.00641646 0 
v 0.0306798 0.00681348 0.00508 
v 0.0320386 0.00609312 0 
v 0.0313397 0.00641646 0.00508 
v 0.0327683 0.00584723 0 
v 0.0320386 0.00609312 0.00508 
v 0.0335204 0.00568169 0 
v 0.0327683 0.00584723 0.00508 
v 0.034286 0.00559843 0 
v 0.0335204 0.00568169 0.00508 
v 0.035056 0.00559843 0 
v 0.034286 0.00559843 0.00508 
v 0.0358216 0.00568169 0 
v 0.035056 0.00559843 0.00508 
v 0.0365737 0.00584723 0 
v 0.0358216 0.00568169 0.00508 
v 0.0373034 0.00609312 0 
v 0.0365737 0.00584723 0.00508 
v 0.0380023 0.00641646 0 
v 0.0373034 0.00609312 0.00508 
v 0.0386622 0.00681348 0 
v 0.0380023 0.00641646 0.00508 
v 0.0392752 0.0072795 0 
v 0.0386622 0.00681348 0.00508 
v 0.0398343 0.00780908 0 
v 0.0392752 0.0072795 0.00508 
v 0.0403328 0.008396 0 
v 0.0398343 0.00780908 0.00508 
v 0.040765 0.00903338 0 
v 0.0403328 0.008396 0.00508 
v 0.0411257 0.00971375 0 
v 0.040765 0.00903338 0.00508 
v 0.0414107 0.0104291 0 
v 0.0411257 0.00971375 0.00508 
v 0.0416167 0.0111711 0 
v 0.0414107 0.0104291 0.00508 
v 0.0417413 0.0119311 0 
v 0.0416167 0.0111711 0.00508 
v 0.041783 0.0127 0 
v 0.0417413 0.0119311 0.00508 
v 0.0417413 0.0134689 0 
v 0.041783 0.0127 0.00508 
v 0.0416167 0.0142289 0 
v 0.0417413 0.0134689 0.00508 
v 0.0414107 0.0149709 0 
v 0.0416167 0.0142289 0.00508 
v 0.0411257 0.0156863 0 
v 0.0414107 0.0149709 0.00508 
v 0.040765 0.0163666 0 
v 0.0411257 0.0156863 0.00508 
v 0.0403328 0.017004 0 
v 0.040765 0.0163666 0.00508 
v 0.0398343 0.0175909 0 
v 0.0403328 0.017004 0.00508 
v 0.0392752 0.0181205 0 
v 0.0398343 0.0175909 0.00508 
v 0.0386622 0.0185865 0 
v 0.0392752 0.0181205 0.00508 
v 0.0380023 0.0189835 0 
v 0.0386622 0.0185865 0.00508 
v 0.0373034 0.0193069 0 
v 0.0380023 0.0189835 0.00508 
v 0.0365737 0.0195528 0 
v 0.0373034 0.0193069 0.00508 
v 0.0358216 0.0197183 0 
v 0.0365737 0.0195528 0.00508 
v 0.035056 0.0198016 0 
v 0.0358216 0.0197183 0.00508 
v 0.034286 0.0198016 0 
v 0.035056 0.0198016 0.00508 
v 0.0335204 0.0197183 0 
v 0.034286 0.0198016 0.00508 
v 0.0327683 0.0195528 0 
v 0.0335204 0.0197183 0.00508 
v 0.0320386 0.0193069 0 
v 0.0327683 0.0195528 0.00508 
v 0.0313397 0.0189835 0 
v 0.0320386 0.0193069 0.00508 
v 0.0306798 0.0185865 0 
v 0.0313397 0.0189835 0.00508 
v 0.0300668 0.0181205 0 
v 0.0306798 0.0185865 0.00508 
v 0.0295077 0.0175909 0 
v 0.0300668 0.0181205 0.00508 
v 0.0290092 0.017004 0 
v 0.0295077 0.0175909 0.00508 
v 0.028577 0.0163666 0 
v 0.0290092 0.017004 0.00508 
v 0.0282163 0.0156863 0 
v 0.028577 0.0163666 0.00508 
v 0.0279313 0.0149709 0 
v 0.0282163 0.0156863 0.00508 
v 0.0277253 0.0142289 0 
v 0.0279313 0.0149709 0.00508 
v 0.0276007 0.0134689 0 
v 0.0277253 0.0142289 0.00508 
v 0.0276007 0.0134689 0.00508 
vn 0.994138 0.108119 0 
vn 1 2.44929e-16 0 
vn 1 2.44929e-16 0 
vn 0.976621 0.21497 0 
vn 0.994138 0.108119 0 
vn 0.947653 0.319302 0 
vn 0.976621 0.21497 0 
vn 0.907575 0.419889 0 
vn 0.947653 0.319302 0 
vn 0.856857 0.515554 0 
vn 0.907575 0.419889 0 
vn 0.796093 0.605174 0 
vn 0.856857 0.515554 0 
vn 0.725995 0.687699 0 
vn 0.796093 0.605174 0 
vn 0.647386 0.762162 0 
vn 0.725995 0.687699 0 
vn 0.561187 0.827689 0 
vn 0.647386 0.762162 0 
vn 0.468408 0.883512 0 
vn 0.561187 0.827689 0 
vn 0.370138 0.928977 0 
vn 0.468408 0.883512 0 
vn 0.267528 0.96355 0 
vn 0.370138 0.928977 0 
vn 0.161782 0.986827 0 
vn 0.267528 0.96355 0 
vn 0.0541389 0.998533 0 
vn 0.161782 0.986827 0 
vn -0.0541389 0.998533 0 
vn 0.0541389 0.998533 0 
vn -0.161782 0.986827 0 
vn -0.0541389 0.998533 0 
vn -0.267528 0.96355 0 
vn -0.161782 0.986827 0 
vn -0.370138 0.928977 0 
vn -0.267528 0.96355 0 
vn -0.468408 0.883512 0 
vn -0.370138 0.928977 0 
vn -0.561187 0.827689 0 
vn -0.468408 0.883512 0 
vn -0.647386 0.762162 0 
vn -0.561187 0.827689 0 
vn -0.725995 0.687699 0 
vn -0.647386 0.762162 0 
vn -0.796093 0.605174 0 
vn -0.725995 0.687699 0 
vn -0.856857 0.515554 0 
vn -0.796093 0.605174 0 
vn -0.907575 0.419889 0 
vn -0.856857 0.515554 0 
vn -0.947653 0.319302 0 
vn -0.907575 0.419889 0 
vn -0.976621 0.21497 0 
vn -0.947653 0.319302 0 
vn -0.994138 0.108119 0 
vn -0.976621 0.21497 0 
vn -1 -1.22465e-16 0 
vn -0.994138 0.108119 0 
vn -0.994138 -0.108119 0 
vn -1 -1.22465e-16 0 
vn -0.976621 -0.21497 0 
vn -0.994138 -0.108119 0 
vn -0.947653 -0.319302 0 
vn -0.976621 -0.21497 0 
vn -0.907575 -0.419889 0 
vn -0.947653 -0.319302 0 
vn -0.856857 -0.515554 0 
vn -0.907575 -0.419889 0 
vn -0.796093 -0.605174 0 
vn -0.856857 -0.515554 0 
vn -0.725995 -0.687699 0 
vn -0.796093 -0.605174 0 
vn -0.647386 -0.762162 0 
vn -0.725995 -0.687699 0 
vn -0.561187 -0.827689 0 
vn -0.647386 -0.762162 0 
vn -0.468408 -0.883512 0 
vn -0.561187 -0.827689 0 
vn -0.370138 -0.928977 0 
vn -0.468408 -0.883512 0 
vn -0.267528 -0.96355 0 
vn -0.370138 -0.928977 0 
vn -0.161782 -0.986827 0 
vn -0.267528 -0.96355 0 
vn -0.0541389 -0.998533 0 
vn -0.161782 -0.986827 0 
vn 0.0541389 -0.998533 0 
vn -0.0541389 -0.998533 0 
vn 0.161782 -0.986827 0 
vn 0.0541389 -0.998533 0 
vn 0.267528 -0.96355 0 
vn 0.161782 -0.986827 0 
vn 0.370138 -0.928977 0 
vn 0.267528 -0.96355 0 
vn 0.468408 -0.883512 0 
vn 0.370138 -0.928977 0 
vn 0.561187 -0.827689 0 
vn 0.468408 -0.883512 0 
vn 0.647386 -0.762162 0 
vn 0.561187 -0.827689 0 
vn 0.725995 -0.687699 0 
vn 0.647386 -0.762162 0 
vn 0.796093 -0.605174 0 
vn 0.725995 -0.687699 0 
vn 0.856857 -0.515554 0 
vn 0.796093 -0.605174 0 
vn 0.907575 -0.419889 0 
vn 0.856857 -0.515554 0 
vn 0.947653 -0.319302 0 
vn 0.907575 -0.419889 0 
vn 0.976621 -0.21497 0 
vn 0.947653 -0.319302 0 
vn 0.994138 -0.108119 0 
vn 0.976621 -0.21497 0 
vn 0.994138 -0.108119 0 
f 1//1 2//2 3//3 
f 4//4 1//1 5//5 
f 6//6 4//4 7//7 
f 8//8 6//6 9//9 
f 10//10 8//8 11//11 
f 12//12 10//10 13//13 
f 14//14 12//12 15//15 
f 16//16 14//14 17//17 
f 18//18 16//16 19//19 
f 20//20 18//18 21//21 
f 22//22 20//20 23//23 
f 24//24 22//22 25//25 
f 26//26 24//24 27//27 
f 28//28 26//26 29//29 
f 30//30 28//28 31//31 
f 32//32 30//30 33//33 
f 34//34 32//32 35//35 
f 36//36 34//34 37//37 
f 38//38 36//36 39//39 
f 40//40 38//38 41//41 
f 42//42 40//40 43//43 
f 44//44 42//42 45//45 
f 46//46 44//44 47//47 
f 48//48 46//46 49//49 
f 50//50 48//48 51//51 
f 52//52 50//50 53//53 
f 54//54 52//52 55//55 
f 56//56 54//54 57//57 
f 58//58 56//56 59//59 
f 60//60 58//58 61//61 
f 62//62 60//60 63//63 
f 64//64 62//62 65//65 
f 66//66 64//64 67//67 
f 68//68 66//66 69//69 
f 70//70 68//68 71//71 
f 72//72 70//70 73//73 
f 74//74 72//72 75//75 
f 76//76 74//74 77//77 
f 78//78 76//76 79//79 
f 80//80 78//78 81//81 
f 82//82 80//80 83//83 
f 84//84 82//82 85//85 
f 86//86 84//84 87//87 
f 88//88 86//86 89//89 
f 90//90 88//88 91//91 
f 92//92 90//90 93//93 
f 94//94 92//92 95//95 
f 96//96 94//94 97//97 
f 98//98 96//96 99//99 
f 100//100 98//98 101//101 
f 102//102 100//100 103//103 
f 104//104 102//102 105//105 
f 106//106 104//104 107//107 
f 108//108 106//106 109//109 
f 110//110 108//108 111//111 
f 112//112 110//110 113//113 
f 114//114 112//112 115//115 
f 2//2 114//114 116//116 
f 116//116 3//3 2//2 
f 115//115 116//116 114//114 
f 113//113 115//115 112//112 
f 111//111 113//113 110//110 
f 109//109 111//111 108//108 
f 107//107 109//109 106//106 
f 105//105 107//107 104//104 
f 103//103 105//105 102//102 
f 101//101 103//103 100//100 
f 99//99 101//101 98//98 
f 97//97 99//99 96//96 
f 95//95 97//97 94//94 
f 93//93 95//95 92//92 
f 91//91 93//93 90//90 
f 89//89 91//91 88//88 
f 87//87 89//89 86//86 
f 85//85 87//87 84//84 
f 83//83 85//85 82//82 
f 81//81 83//83 80//80 
f 79//79 81//81 78//78 
f 77//77 79//79 76//76 
f 75//75 77//77 74//74 
f 73//73 75//75 72//72 
f 71//71 73//73 70//70 
f 69//69 71//71 68//68 
f 67//67 69//69 66//66 
f 65//65 67//67 64//64 
f 63//63 65//65 62//62 
f 61//61 63//63 60//60 
f 59//59 61//61 58//58 
f 57//57 59//59 56//56 
f 55//55 57//57 54//54 
f 53//53 55//55 52//52 
f 51//51 53//53 50//50 
f 49//49 51//51 48//48 
f 47//47 49//49 46//46 
f 45//45 47//47 44//44 
f 43//43 45//45 42//42 
f 41//41 43//43 40//40 
f 39//39 41//41 38//38 
f 37//37 39//39 36//36 
f 35//35 37//37 34//34 
f 33//33 35//35 32//32 
f 31//31 33//33 30//30 
f 29//29 31//31 28//28 
f 27//27 29//29 26//26 
f 25//25 27//27 24//24 
f 23//23 25//25 22//22 
f 21//21 23//23 20//20 
f 19//19 21//21 18//18 
f 17//17 19//19 16//16 
f 15//15 17//17 14//14 
f 13//13 15//15 12//12 
f 11//11 13//13 10//10 
f 9//9 11//11 8//8 
f 7//7 9//9 6//6 
f 5//5 7//7 4//4 
f 3//3 5//5 1//1 
o mesh1507
v 0.0360441 0.0253256 0.00508 
v 0.034671 0.0254 0.00508 
v 0.035056 0.0198016 0.00508 
v 0.0400036 0.00117379 0.00508 
v 0.0380023 0.00641646 0.00508 
v 0.0373034 0.00609312 0.00508 
v 0.0358216 0.0197183 0.00508 
v 0.0374011 0.0251031 0.00508 
v 0.00508 0 0.00508 
v 0.0282163 0.00971375 0.00508 
v 0.0279313 0.0104291 0.00508 
v 0.0290092 0.008396 0.00508 
v 0.028577 0.00903338 0.00508 
v 0.0387261 0.000664805 0.00508 
v 0.0412185 0.00181791 0.00508 
v 0.0386622 0.00681348 0.00508 
v 0.0423567 0.00258962 0.00508 
v 0.0434048 0.00347986 0.00508 
v 0.0392752 0.0072795 0.00508 
v 0.0434048 0.0219201 0.00508 
v 0.0392752 0.0181205 0.00508 
v 0.0398343 0.0175909 0.00508 
v 0.034286 0.0198016 0.00508 
v 0.0313397 0.00641646 0.00508 
v 0.0306798 0.00681348 0.00508 
v 0.034671 1.73472e-18 0.00508 
v 0.0320386 0.00609312 0.00508 
v 0.0360441 7.44479e-05 0.00508 
v 0.035056 0.00559843 0.00508 
v 0.0469081 0.00930239 0.00508 
v 0.0416167 0.0111711 0.00508 
v 0.0414107 0.0104291 0.00508 
v 0.0469081 0.0160976 0.00508 
v 0.046469 0.0174008 0.00508 
v 0.0414107 0.0149709 0.00508 
v 0.0451827 0.0198271 0.00508 
v 0.0403328 0.017004 0.00508 
v 0.040765 0.0163666 0.00508 
v 0.0443505 0.0209218 0.00508 
v 0.0423567 0.0228104 0.00508 
v 0.0386622 0.0185865 0.00508 
v 0.0365737 0.0195528 0.00508 
v 0.0335204 0.0197183 0.00508 
v 0.00508 0.0254 0.00508 
v 0.0300668 0.0181205 0.00508 
v 0.0306798 0.0185865 0.00508 
v 0.0282163 0.0156863 0.00508 
v 0.028577 0.0163666 0.00508 
v 0.0295077 0.00780908 0.00508 
v 0.0300668 0.0072795 0.00508 
v 0.0327683 0.00584723 0.00508 
v 0.034286 0.00559843 0.00508 
v 0.0374011 0.000296919 0.00508 
v 0.0358216 0.00568169 0.00508 
v 0.0365737 0.00584723 0.00508 
v 0.0443505 0.00447819 0.00508 
v 0.0398343 0.00780908 0.00508 
v 0.0451827 0.00557292 0.00508 
v 0.0458916 0.00675121 0.00508 
v 0.040765 0.00903338 0.00508 
v 0.046469 0.00799925 0.00508 
v 0.0416167 0.0142289 0.00508 
v 0.0472037 0.0147546 0.00508 
v 0.0458916 0.0186488 0.00508 
v 0.0412185 0.0235821 0.00508 
v 0.0380023 0.0189835 0.00508 
v 0.0400036 0.0242262 0.00508 
v 0.0387261 0.0247352 0.00508 
v 0.0373034 0.0193069 0.00508 
v 0.0295077 0.0175909 0.00508 
v 0.0290092 0.017004 0.00508 
v 0.0276007 0.0134689 0.00508 
v 0.0277253 0.0142289 0.00508 
v 0.0276007 0.0119311 0.00508 
v 0.027559 0.0127 0.00508 
v 0.0335204 0.00568169 0.00508 
v 0.0403328 0.008396 0.00508 
v 0.0411257 0.00971375 0.00508 
v 0.0472037 0.0106454 0.00508 
v 0.0411257 0.0156863 0.00508 
v 0.0327683 0.0195528 0.00508 
v 0.0313397 0.0189835 0.00508 
v 0.0279313 0.0149709 0.00508 
v 0.0320386 0.0193069 0.00508 
v 0.0277253 0.0111711 0.00508 
v 0.0473524 0.0120124 0.00508 
v 0.0417413 0.0119311 0.00508 
v 0.0473524 0.0133876 0.00508 
v 0.041783 0.0127 0.00508 
v 0.0417413 0.0134689 0.00508 
vn 0 0 1 
vn 0 0 1 
vn 0 0 1 
vn 0 0 1 
vn 0 0 1 
vn 0 0 1 
vn 0 0 1 
vn 0 0 1 
vn 0 0 1 
vn 0 0 1 
vn 0 0 1 
vn 0 0 1 
vn 0 0 1 
vn 0 0 1 
vn 0 0 1 
vn 0 0 1 
vn 0 0 1 
vn 0 0 1 
vn 0 0 1 
vn 0 0 1 
vn 0 0 1 
vn 0 0 1 
vn 0 0 1 
vn 0 0 1 
vn 0 0 1 
vn 0 0 1 
vn 0 0 1 
vn 0 0 1 
vn 0 0 1 
vn 0 0 1 
vn 0 0 1 
vn 0 0 1 
vn 0 0 1 
vn 0 0 1 
vn 0 0 1 
vn 0 0 1 
vn 0 0 1 
vn 0 0 1 
vn 0 0 1 
vn 0 0 1 
vn 0 0 1 
vn 0 0 1 
vn 0 0 1 
vn 0 0 1 
vn 0 0 1 
vn 0 0 1 
vn 0 0 1 
vn 0 0 1 
vn 0 0 1 
vn 0 0 1 
vn 0 0 1 
vn 0 0 1 
vn 0 0 1 
vn 0 0 1 
vn 0 0 1 
vn 0 0 1 
vn 0 0 1 
vn 0 0 1 
vn 0 0 1 
vn 0 0 1 
vn 0 0 1 
vn 0 0 1 
vn 0 0 1 
vn 0 0 1 
vn 0 0 1 
vn 0 0 1 
vn 0 0 1 
vn 0 0 1 
vn 0 0 1 
vn 0 0 1 
vn 0 0 1 
vn 0 0 1 
vn 0 0 1 
vn 0 0 1 
vn 0 0 1 
vn 0 0 1 
vn 0 0 1 
vn 0 0 1 
vn 0 0 1 
vn 0 0 1 
vn 0 0 1 
vn 0 0 1 
vn 0 0 1 
vn 0 0 1 
vn 0 0 1 
vn 0 0 1 
vn 0 0 1 
vn 0 0 1 
vn 0 0 1 
vn 0 0 1 
f 117//117 118//118 119//119 
f 120//120 121//121 122//122 
f 123//123 124//124 117//117 
f 125//125 126//126 127//127 
f 125//125 128//128 129//129 
f 122//122 130//130 120//120 
f 131//131 132//132 121//121 
f 133//133 134//134 135//135 
f 136//136 137//137 138//138 
f 118//118 139//139 119//119 
f 129//129 126//126 125//125 
f 125//125 140//140 141//141 
f 142//142 143//143 140//140 
f 142//142 144//144 145//145 
f 121//121 120//120 131//131 
f 132//132 131//131 133//133 
f 146//146 147//147 148//148 
f 149//149 150//150 151//151 
f 152//152 153//153 154//154 
f 138//138 155//155 136//136 
f 156//156 157//157 137//137 
f 124//124 123//123 158//158 
f 118//118 159//159 139//139 
f 160//160 161//161 162//162 
f 160//160 163//163 164//164 
f 125//125 165//165 128//128 
f 141//141 166//166 125//125 
f 142//142 167//167 143//143 
f 145//145 168//168 142//142 
f 144//144 169//169 170//170 
f 169//169 130//130 171//171 
f 135//135 132//132 133//133 
f 134//134 172//172 173//173 
f 174//174 175//175 176//176 
f 148//148 177//177 146//146 
f 178//178 179//179 149//149 
f 154//154 180//180 152//152 
f 137//137 136//136 156//156 
f 181//181 182//182 157//157 
f 183//183 184//184 185//185 
f 119//119 123//123 117//117 
f 160//160 186//186 161//161 
f 164//164 187//187 160//160 
f 160//160 188//188 189//189 
f 125//125 190//190 191//191 
f 166//166 165//165 125//125 
f 142//142 192//192 167//167 
f 170//170 145//145 144//144 
f 122//122 171//171 130//130 
f 172//172 193//193 173//173 
f 193//193 172//172 174//174 
f 175//175 177//177 194//194 
f 146//146 195//195 147//147 
f 150//150 196//196 151//151 
f 180//180 154//154 196//196 
f 138//138 153//153 155//155 
f 157//157 156//156 181//181 
f 184//184 158//158 185//185 
f 118//118 197//197 159//159 
f 118//118 160//160 198//198 
f 187//187 186//186 160//160 
f 189//189 199//199 160//160 
f 191//191 160//160 125//125 
f 140//140 125//125 142//142 
f 171//171 170//170 169//169 
f 176//176 193//193 174//174 
f 148//148 194//194 177//177 
f 196//196 150//150 180//180 
f 181//181 183//183 182//182 
f 158//158 184//184 124//124 
f 198//198 200//200 118//118 
f 199//199 163//163 160//160 
f 125//125 201//201 190//190 
f 168//168 192//192 142//142 
f 194//194 176//176 175//175 
f 152//152 155//155 153//153 
f 200//200 197//197 118//118 
f 191//191 188//188 160//160 
f 173//173 135//135 134//134 
f 185//185 182//182 183//183 
f 127//127 201//201 125//125 
f 195//195 202//202 203//203 
f 202//202 204//204 205//205 
f 179//179 178//178 206//206 
f 162//162 198//198 160//160 
f 205//205 203//203 202//202 
f 206//206 204//204 179//179 
f 203//203 147//147 195//195 
f 151//151 178//178 149//149 
f 206//206 205//205 204//204 
o mesh1508
v 0.0423567 0.00258962 0 
v 0.0386622 0.00681348 0 
v 0.0392752 0.0072795 0 
v 0.0434048 0.00347986 0 
v 0.0412185 0.00181791 0 
v 0.0400036 0.00117379 0 
v 0.0380023 0.00641646 0 
v 0.0387261 0.000664805 0 
v 0.0373034 0.00609312 0 
v 0.0360441 0.0253256 0 
v 0.0358216 0.0197183 0 
v 0.035056 0.0198016 0 
v 0.0365737 0.00584723 0 
v 0.034671 1.73472e-18 0 
v 0.034286 0.00559843 0 
v 0.035056 0.00559843 0 
v 0.034671 0.0254 0 
v 0.034286 0.0198016 0 
v 0.0443505 0.0209218 0 
v 0.0403328 0.017004 0 
v 0.0398343 0.0175909 0 
v 0.0469081 0.00930239 0 
v 0.046469 0.00799925 0 
v 0.0414107 0.0104291 0 
v 0.0374011 0.000296919 0 
v 0.0358216 0.00568169 0 
v 0.0360441 7.44479e-05 0 
v 0.0335204 0.00568169 0 
v 0.00508 0 0 
v 0.0313397 0.00641646 0 
v 0.0282163 0.00971375 0 
v 0.028577 0.00903338 0 
v 0.0277253 0.0111711 0 
v 0.0279313 0.0104291 0 
v 0.0374011 0.0251031 0 
v 0.0423567 0.0228104 0 
v 0.0434048 0.0219201 0 
v 0.0392752 0.0181205 0 
v 0.0451827 0.0198271 0 
v 0.0458916 0.0186488 0 
v 0.040765 0.0163666 0 
v 0.0469081 0.0160976 0 
v 0.0416167 0.0142289 0 
v 0.0414107 0.0149709 0 
v 0.0416167 0.0111711 0 
v 0.0472037 0.0106454 0 
v 0.0451827 0.00557292 0 
v 0.0403328 0.008396 0 
v 0.040765 0.00903338 0 
v 0.0398343 0.00780908 0 
v 0.0320386 0.00609312 0 
v 0.0300668 0.0072795 0 
v 0.0306798 0.00681348 0 
v 0.0320386 0.0193069 0 
v 0.0313397 0.0189835 0 
v 0.0335204 0.0197183 0 
v 0.0387261 0.0247352 0 
v 0.0365737 0.0195528 0 
v 0.0412185 0.0235821 0 
v 0.0386622 0.0185865 0 
v 0.046469 0.0174008 0 
v 0.0411257 0.00971375 0 
v 0.0458916 0.00675121 0 
v 0.0443505 0.00447819 0 
v 0.0327683 0.00584723 0 
v 0.0295077 0.00780908 0 
v 0.0290092 0.008396 0 
v 0.00508 0.0254 0 
v 0.0279313 0.0149709 0 
v 0.0277253 0.0142289 0 
v 0.0290092 0.017004 0 
v 0.028577 0.0163666 0 
v 0.0306798 0.0185865 0 
v 0.0327683 0.0195528 0 
v 0.0400036 0.0242262 0 
v 0.0380023 0.0189835 0 
v 0.0373034 0.0193069 0 
v 0.0411257 0.0156863 0 
v 0.0472037 0.0147546 0 
v 0.0282163 0.0156863 0 
v 0.0295077 0.0175909 0 
v 0.0300668 0.0181205 0 
v 0.0473524 0.0133876 0 
v 0.0417413 0.0134689 0 
v 0.0473524 0.0120124 0 
v 0.0417413 0.0119311 0 
v 0.041783 0.0127 0 
v 0.027559 0.0127 0 
v 0.0276007 0.0134689 0 
v 0.0276007 0.0119311 0 
vn 0 0 -1 
vn 0 0 -1 
vn 0 0 -1 
vn 0 0 -1 
vn 0 0 -1 
vn 0 0 -1 
vn 0 0 -1 
vn 0 0 -1 
vn 0 0 -1 
vn 0 0 -1 
vn 0 0 -1 
vn 0 0 -1 
vn 0 0 -1 
vn 0 0 -1 
vn 0 0 -1 
vn 0 0 -1 
vn 0 0 -1 
vn 0 0 -1 
vn 0 0 -1 
vn 0 0 -1 
vn 0 0 -1 
vn 0 0 -1 
vn 0 0 -1 
vn 0 0 -1 
vn 0 0 -1 
vn 0 0 -1 
vn 0 0 -1 
vn 0 0 -1 
vn 0 0 -1 
vn 0 0 -1 
vn 0 0 -1 
vn 0 0 -1 
vn 0 0 -1 
vn 0 0 -1 
vn 0 0 -1 
vn 0 0 -1 
vn 0 0 -1 
vn 0 0 -1 
vn 0 0 -1 
vn 0 0 -1 
vn 0 0 -1 
vn 0 0 -1 
vn 0 0 -1 
vn 0 0 -1 
vn 0 0 -1 
vn 0 0 -1 
vn 0 0 -1 
vn 0 0 -1 
vn 0 0 -1 
vn 0 0 -1 
vn 0 0 -1 
vn 0 0 -1 
vn 0 0 -1 
vn 0 0 -1 
vn 0 0 -1 
vn 0 0 -1 
vn 0 0 -1 
vn 0 0 -1 
vn 0 0 -1 
vn 0 0 -1 
vn 0 0 -1 
vn 0 0 -1 
vn 0 0 -1 
vn 0 0 -1 
vn 0 0 -1 
vn 0 0 -1 
vn 0 0 -1 
vn 0 0 -1 
vn 0 0 -1 
vn 0 0 -1 
vn 0 0 -1 
vn 0 0 -1 
vn 0 0 -1 
vn 0 0 -1 
vn 0 0 -1 
vn 0 0 -1 
vn 0 0 -1 
vn 0 0 -1 
vn 0 0 -1 
vn 0 0 -1 
vn 0 0 -1 
vn 0 0 -1 
vn 0 0 -1 
vn 0 0 -1 
vn 0 0 -1 
vn 0 0 -1 
vn 0 0 -1 
vn 0 0 -1 
vn 0 0 -1 
vn 0 0 -1 
f 207//207 208//208 209//209 
f 209//209 210//210 207//207 
f 211//211 212//212 213//213 
f 212//212 214//214 215//215 
f 216//216 217//217 218//218 
f 213//213 208//208 211//211 
f 214//214 219//219 215//215 
f 220//220 221//221 222//222 
f 223//223 218//218 224//224 
f 218//218 223//223 216//216 
f 225//225 226//226 227//227 
f 228//228 229//229 230//230 
f 215//215 213//213 212//212 
f 231//231 232//232 219//219 
f 233//233 222//222 232//232 
f 220//220 234//234 221//221 
f 220//220 235//235 236//236 
f 235//235 237//237 238//238 
f 235//235 239//239 240//240 
f 216//216 241//241 217//217 
f 242//242 243//243 244//244 
f 227//227 243//243 225//225 
f 245//245 246//246 247//247 
f 248//248 249//249 250//250 
f 251//251 252//252 228//228 
f 253//253 254//254 255//255 
f 210//210 209//209 256//256 
f 219//219 214//214 231//231 
f 222//222 233//233 220//220 
f 236//236 257//257 220//220 
f 235//235 258//258 259//259 
f 240//240 237//237 235//235 
f 223//223 260//260 261//261 
f 224//224 262//262 223//223 
f 241//241 263//263 264//264 
f 265//265 242//242 266//266 
f 227//227 244//244 243//243 
f 226//226 225//225 245//245 
f 250//250 267//267 248//248 
f 229//229 268//268 230//230 
f 269//269 255//255 268//268 
f 255//255 269//269 253//253 
f 256//256 270//270 210//210 
f 232//232 231//231 233//233 
f 257//257 271//271 220//220 
f 235//235 272//272 258//258 
f 238//238 273//273 235//235 
f 274//274 275//275 276//276 
f 274//274 277//277 278//278 
f 274//274 261//261 279//279 
f 223//223 280//280 260//260 
f 264//264 217//217 241//241 
f 281//281 282//282 283//283 
f 282//282 281//281 265//265 
f 247//247 226//226 245//245 
f 246//246 267//267 284//284 
f 248//248 285//285 249//249 
f 268//268 229//229 269//269 
f 256//256 254//254 270//270 
f 271//271 234//234 220//220 
f 273//273 272//272 235//235 
f 274//274 286//286 275//275 
f 274//274 287//287 277//277 
f 279//279 288//288 274//274 
f 262//262 280//280 223//223 
f 283//283 263//263 281//281 
f 244//244 266//266 242//242 
f 250//250 284//284 267//267 
f 285//285 289//289 290//290 
f 291//291 292//292 293//293 
f 252//252 251//251 292//292 
f 253//253 270//270 254//254 
f 259//259 236//236 235//235 
f 235//235 274//274 294//294 
f 276//276 295//295 274//274 
f 288//288 287//287 274//274 
f 283//283 264//264 263//263 
f 284//284 247//247 246//246 
f 289//289 293//293 290//290 
f 292//292 291//291 252//252 
f 207//207 211//211 208//208 
f 294//294 296//296 235//235 
f 278//278 286//286 274//274 
f 266//266 282//282 265//265 
f 293//293 289//289 291//291 
f 296//296 239//239 235//235 
f 261//261 274//274 223//223 
f 230//230 251//251 228//228 
f 290//290 249//249 285//285 
f 295//295 294//294 274//274 
o mesh1509
v 0.034671 1.73472e-18 0.00508 
v 0.00508 0 0.00508 
v 0.00508 0 0 
v 0.034671 1.73472e-18 0 
vn 0 -1 0 
vn 0 -1 0 
vn 0 -1 0 
vn 0 -1 0 
f 297//297 298//298 299//299 
f 299//299 300//300 297//297 
o mesh1510
v 0.034671 0.0254 0 
v 0.00508 0.0254 0 
v 0.00508 0.0254 0.00508 
v 0.034671 0.0254 0.00508 
vn 0 1 0 
vn 0 1 0 
vn 0 1 0 
vn 0 1 0 
f 301//301 302//302 303//303 
f 303//303 304//304 301//301 
o mesh1511
v 0.034671 0.0254 0 
v 0.034671 0.0254 0.00508 
v 0.0360441 0.0253256 0.00508 
v 0.0360441 0.0253256 0 
v 0.0374011 0.0251031 0.00508 
v 0.0374011 0.0251031 0 
v 0.0387261 0.0247352 0.00508 
v 0.0387261 0.0247352 0 
v 0.0400036 0.0242262 0.00508 
v 0.0400036 0.0242262 0 
v 0.0412185 0.0235821 0.00508 
v 0.0412185 0.0235821 0 
v 0.0423567 0.0228104 0.00508 
v 0.0423567 0.0228104 0 
v 0.0434048 0.0219201 0.00508 
v 0.0434048 0.0219201 0 
v 0.0443505 0.0209218 0.00508 
v 0.0443505 0.0209218 0 
v 0.0451827 0.0198271 0.00508 
v 0.0451827 0.0198271 0 
v 0.0458916 0.0186488 0.00508 
v 0.0458916 0.0186488 0 
v 0.046469 0.0174008 0.00508 
v 0.046469 0.0174008 0 
v 0.0469081 0.0160976 0.00508 
v 0.0469081 0.0160976 0 
v 0.0472037 0.0147546 0.00508 
v 0.0472037 0.0147546 0 
v 0.0473524 0.0133876 0.00508 
v 0.0473524 0.0133876 0 
v 0.0473524 0.0120124 0.00508 
v 0.0473524 0.0120124 0 
v 0.0472037 0.0106454 0.00508 
v 0.0472037 0.0106454 0 
v 0.0469081 0.00930239 0.00508 
v 0.0469081 0.00930239 0 
v 0.046469 0.00799925 0.00508 
v 0.046469 0.00799925 0 
v 0.0458916 0.00675121 0.00508 
v 0.0458916 0.00675121 0 
v 0.0451827 0.00557292 0.00508 
v 0.0451827 0.00557292 0 
v 0.0443505 0.00447819 0.00508 
v 0.0443505 0.00447819 0 
v 0.0434048 0.00347986 0.00508 
v 0.0434048 0.00347986 0 
v 0.0423567 0.00258962 0.00508 
v 0.0423567 0.00258962 0 
v 0.0412185 0.00181791 0.00508 
v 0.0412185 0.00181791 0 
v 0.0400036 0.00117379 0.00508 
v 0.0400036 0.00117379 0 
v 0.0387261 0.000664805 0.00508 
v 0.0387261 0.000664805 0 
v 0.0374011 0.000296919 0.00508 
v 0.0374011 0.000296919 0 
v 0.0360441 7.44479e-05 0.00508 
v 0.0360441 7.44479e-05 0 
v 0.034671 1.73472e-18 0.00508 
v 0.034671 1.73472e-18 0 
vn 0 1 0 
vn 0 1 0 
vn 0.108119 0.994138 0 
vn 0.108119 0.994138 0 
vn 0.21497 0.976621 0 
vn 0.21497 0.976621 0 
vn 0.319302 0.947653 0 
vn 0.319302 0.947653 0 
vn 0.419889 0.907575 0 
vn 0.419889 0.907575 0 
vn 0.515554 0.856857 0 
vn 0.515554 0.856857 0 
vn 0.605174 0.796093 0 
vn 0.605174 0.796093 0 
vn 0.687699 0.725995 0 
vn 0.687699 0.725995 0 
vn 0.762162 0.647386 0 
vn 0.762162 0.647386 0 
vn 0.827689 0.561187 0 
vn 0.827689 0.561187 0 
vn 0.883512 0.468408 0 
vn 0.883512 0.468408 0 
vn 0.928977 0.370138 0 
vn 0.928977 0.370138 0 
vn 0.96355 0.267528 0 
vn 0.96355 0.267528 0 
vn 0.986827 0.161782 0 
vn 0.986827 0.161782 0 
vn 0.998533 0.0541389 0 
vn 0.998533 0.0541389 0 
vn 0.998533 -0.0541389 0 
vn 0.998533 -0.0541389 0 
vn 0.986827 -0.161782 0 
vn 0.986827 -0.161782 0 
vn 0.96355 -0.267528 0 
vn 0.96355 -0.267528 0 
vn 0.928977 -0.370138 0 
vn 0.928977 -0.370138 0 
vn 0.883512 -0.468408 0 
vn 0.883512 -0.468408 0 
vn 0.827689 -0.561187 0 
vn 0.827689 -0.561187 0 
vn 0.762162 -0.647386 0 
vn 0.762162 -0.647386 0 
vn 0.687699 -0.725995 0 
vn 0.687699 -0.725995 0 
vn 0.605174 -0.796093 0 
vn 0.605174 -0.796093 0 
vn 0.515554 -0.856857 0 
vn 0.515554 -0.856857 0 
vn 0.419889 -0.907575 0 
vn 0.419889 -0.907575 0 
vn 0.319302 -0.947653 0 
vn 0.319302 -0.947653 0 
vn 0.21497 -0.976621 0 
vn 0.21497 -0.976621 0 
vn 0.108119 -0.994138 0 
vn 0.108119 -0.994138 0 
vn 1.83697e-16 -1 0 
vn 1.83697e-16 -1 0 
f 305//305 306//306 307//307 
f 308//308 307//307 309//309 
f 310//310 309//309 311//311 
f 312//312 311//311 313//313 
f 314//314 313//313 315//315 
f 316//316 315//315 317//317 
f 318//318 317//317 319//319 
f 320//320 319//319 321//321 
f 322//322 321//321 323//323 
f 324//324 323//323 325//325 
f 326//326 325//325 327//327 
f 328//328 327//327 329//329 
f 330//330 329//329 331//331 
f 332//332 331//331 333//333 
f 334//334 333//333 335//335 
f 336//336 335//335 337//337 
f 338//338 337//337 339//339 
f 340//340 339//339 341//341 
f 342//342 341//341 343//343 
f 344//344 343//343 345//345 
f 346//346 345//345 347//347 
f 348//348 347//347 349//349 
f 350//350 349//349 351//351 
f 352//352 351//351 353//353 
f 354//354 353//353 355//355 
f 356//356 355//355 357//357 
f 358//358 357//357 359//359 
f 360//360 359//359 361//361 
f 362//362 361//361 363//363 
f 363//363 364//364 362//362 
f 361//361 362//362 360//360 
f 359//359 360//360 358//358 
f 357//357 358//358 356//356 
f 355//355 356//356 354//354 
f 353//353 354//354 352//352 
f 351//351 352//352 350//350 
f 349//349 350//350 348//348 
f 347//347 348//348 346//346 
f 345//345 346//346 344//344 
f 343//343 344//344 342//342 
f 341//341 342//342 340//340 
f 339//339 340//340 338//338 
f 337//337 338//338 336//336 
f 335//335 336//336 334//334 
f 333//333 334//334 332//332 
f 331//331 332//332 330//330 
f 329//329 330//330 328//328 
f 327//327 328//328 326//326 
f 325//325 326//326 324//324 
f 323//323 324//324 322//322 
f 321//321 322//322 320//320 
f 319//319 320//320 318//318 
f 317//317 318//318 316//316 
f 315//315 316//316 314//314 
f 313//313 314//314 312//312 
f 311//311 312//312 310//310 
f 309//309 310//310 308//308 
f 307//307 308//308 305//305 
o mesh1512
v 0.00508 0.041275 0.01524 
v 0.00508 0.0336808 0.00569639 
v 0.00508 0.03402 0.00564077 
v 0.00508 0.0333375 0.005715 
v 0.00508 0 0 
v 0.00508 -0.00575405 0.000234964 
v 0.00508 -0.00601607 1.24045e-05 
v 0.00508 0.0355209 0.00484504 
v 0.00508 0.0357574 0.00459545 
v 0.00508 0.0329942 0.00569639 
v 0.00508 0.0323237 0.0055488 
v 0.00508 0.032655 0.00564077 
v 0.00508 0.0254 0.00508 
v 0.00508 0.0320044 0.00542155 
v 0.00508 0.0314161 0.0050676 
v 0.00508 0.0317006 0.00526052 
v 0.00508 0.0309176 0.00459545 
v 0.00508 0.0311541 0.00484504 
v 0.00508 0.0254 0 
v 0.00508 0.0314161 1.24045e-05 
v 0.00508 0.0311541 0.000234964 
v 0.00508 0.041275 -0.01016 
v 0.00508 0.0323237 -0.000468799 
v 0.00508 0.0320044 -0.000341552 
v 0.00508 -0.015875 -0.01016 
v 0.00508 -0.00660435 -0.000341552 
v 0.00508 -0.00551764 0.000484549 
v 0.00508 0.0343513 -0.000468799 
v 0.00508 0.03402 -0.00056077 
v 0.00508 0.0349744 -0.000180522 
v 0.00508 0.0346706 -0.000341552 
v 0.00508 0.0359654 0.00432177 
v 0.00508 0.0343513 0.0055488 
v 0.00508 0.0346706 0.00542155 
v 0.00508 0.0307096 0.00432177 
v 0.00508 0.0301672 0.00271189 
v 0.00508 0.0302043 0.00305366 
v 0.00508 0.0301672 0.00236811 
v 0.00508 0.0309176 0.000484549 
v 0.00508 -0.00692372 -0.000468799 
v 0.00508 -0.00530959 0.000758231 
v 0.00508 -0.004988 0.00136481 
v 0.00508 -0.00513235 0.0010528 
v 0.00508 -0.00530959 0.00432177 
v 0.00508 -0.00513235 0.0040272 
v 0.00508 0.0336808 -0.000616388 
v 0.00508 0.0352589 1.24045e-05 
v 0.00508 0.0359654 0.000758231 
v 0.00508 0.0357574 0.000484549 
v 0.00508 0.0352589 0.0050676 
v 0.00508 0.0349744 0.00526052 
v 0.00508 0.0305323 0.0040272 
v 0.00508 0.0302782 0.0016906 
v 0.00508 0.0302043 0.00202634 
v 0.00508 0.0307096 0.000758231 
v 0.00508 0.0317006 -0.000180522 
v 0.00508 0.0329942 -0.000616388 
v 0.00508 0.032655 -0.00056077 
v 0.00508 -0.00862003 -0.00056077 
v 0.00508 -0.00895128 -0.000468799 
v 0.00508 -0.00630062 -0.000180522 
v 0.00508 -0.00551764 0.00459545 
v 0.00508 0.0355209 0.000234964 
v 0.00508 0.0305323 0.0010528 
v 0.00508 0.030388 0.00136481 
v 0.00508 0.0333375 -0.000635 
v 0.00508 -0.015875 0.01524 
v 0.00508 -0.00692372 0.0055488 
v 0.00508 -0.00660435 0.00542155 
v 0.00508 -0.0111078 0.00236811 
v 0.00508 -0.00828078 -0.000616388 
v 0.00508 -0.00725497 -0.00056077 
v 0.00508 -0.00759422 -0.000616388 
v 0.00508 -0.00476716 0.00271189 
v 0.00508 -0.00476716 0.00236811 
v 0.00508 -0.004988 0.00371519 
v 0.00508 -0.00487823 0.0033894 
v 0.00508 -0.00575405 0.00484504 
v 0.00508 0.036287 0.00136481 
v 0.00508 0.0361427 0.0010528 
v 0.00508 0.0365078 0.00271189 
v 0.00508 0.0302782 0.0033894 
v 0.00508 0.030388 0.00371519 
v 0.00508 -0.00725497 0.00564077 
v 0.00508 -0.0111078 0.00271189 
v 0.00508 -0.0110707 0.00305366 
v 0.00508 -0.0110707 0.00202634 
v 0.00508 -0.0101209 0.000234964 
v 0.00508 -0.0103574 0.000484549 
v 0.00508 -0.00957438 -0.000180522 
v 0.00508 -0.00985893 1.24045e-05 
v 0.00508 -0.00927065 -0.000341552 
v 0.00508 -0.00480433 0.00202634 
v 0.00508 -0.00487823 0.0016906 
v 0.00508 -0.00480433 0.00305366 
v 0.00508 0.0364707 0.00202634 
v 0.00508 0.0363968 0.0016906 
v 0.00508 0.0365078 0.00236811 
v 0.00508 0.036287 0.00371519 
v 0.00508 0.0363968 0.0033894 
v 0.00508 -0.00759422 0.00569639 
v 0.00508 -0.0105654 0.00432177 
v 0.00508 -0.0103574 0.00459545 
v 0.00508 -0.0109968 0.0033894 
v 0.00508 -0.010887 0.00371519 
v 0.00508 -0.0105654 0.000758231 
v 0.00508 0.0364707 0.00305366 
v 0.00508 0.0361427 0.0040272 
v 0.00508 0 0.00508 
v 0.00508 -0.00601607 0.0050676 
v 0.00508 -0.00630062 0.00526052 
v 0.00508 -0.0079375 0.005715 
v 0.00508 -0.00862003 0.00564077 
v 0.00508 -0.00828078 0.00569639 
v 0.00508 -0.0107427 0.0040272 
v 0.00508 -0.0107427 0.0010528 
v 0.00508 -0.0079375 -0.000635 
v 0.00508 -0.00957438 0.00526052 
v 0.00508 -0.00927065 0.00542155 
v 0.00508 -0.0101209 0.00484504 
v 0.00508 -0.00985893 0.0050676 
v 0.00508 -0.010887 0.00136481 
v 0.00508 -0.0109968 0.0016906 
v 0.00508 -0.00895128 0.0055488 
vn 1 0 0 
vn 1 0 0 
vn 1 0 0 
vn 1 0 0 
vn 1 0 0 
vn 1 0 0 
vn 1 0 0 
vn 1 0 0 
vn 1 0 0 
vn 1 0 0 
vn 1 0 0 
vn 1 0 0 
vn 1 0 0 
vn 1 0 0 
vn 1 0 0 
vn 1 0 0 
vn 1 0 0 
vn 1 0 0 
vn 1 0 0 
vn 1 0 0 
vn 1 0 0 
vn 1 0 0 
vn 1 0 0 
vn 1 0 0 
vn 1 0 0 
vn 1 0 0 
vn 1 0 0 
vn 1 0 0 
vn 1 0 0 
vn 1 0 0 
vn 1 0 0 
vn 1 0 0 
vn 1 0 0 
vn 1 0 0 
vn 1 0 0 
vn 1 0 0 
vn 1 0 0 
vn 1 0 0 
vn 1 0 0 
vn 1 0 0 
vn 1 0 0 
vn 1 0 0 
vn 1 0 0 
vn 1 0 0 
vn 1 0 0 
vn 1 0 0 
vn 1 0 0 
vn 1 0 0 
vn 1 0 0 
vn 1 0 0 
vn 1 0 0 
vn 1 0 0 
vn 1 0 0 
vn 1 0 0 
vn 1 0 0 
vn 1 0 0 
vn 1 0 0 
vn 1 0 0 
vn 1 0 0 
vn 1 0 0 
vn 1 0 0 
vn 1 0 0 
vn 1 0 0 
vn 1 0 0 
vn 1 0 0 
vn 1 0 0 
vn 1 0 0 
vn 1 0 0 
vn 1 0 0 
vn 1 0 0 
vn 1 0 0 
vn 1 0 0 
vn 1 0 0 
vn 1 0 0 
vn 1 0 0 
vn 1 0 0 
vn 1 0 0 
vn 1 0 0 
vn 1 0 0 
vn 1 0 0 
vn 1 0 0 
vn 1 0 0 
vn 1 0 0 
vn 1 0 0 
vn 1 0 0 
vn 1 0 0 
vn 1 0 0 
vn 1 0 0 
vn 1 0 0 
vn 1 0 0 
vn 1 0 0 
vn 1 0 0 
vn 1 0 0 
vn 1 0 0 
vn 1 0 0 
vn 1 0 0 
vn 1 0 0 
vn 1 0 0 
vn 1 0 0 
vn 1 0 0 
vn 1 0 0 
vn 1 0 0 
vn 1 0 0 
vn 1 0 0 
vn 1 0 0 
vn 1 0 0 
vn 1 0 0 
vn 1 0 0 
vn 1 0 0 
vn 1 0 0 
vn 1 0 0 
vn 1 0 0 
vn 1 0 0 
vn 1 0 0 
vn 1 0 0 
vn 1 0 0 
vn 1 0 0 
vn 1 0 0 
vn 1 0 0 
vn 1 0 0 
vn 1 0 0 
vn 1 0 0 
vn 1 0 0 
vn 1 0 0 
f 365//365 366//366 367//367 
f 365//365 368//368 366//366 
f 369//369 370//370 371//371 
f 365//365 372//372 373//373 
f 365//365 374//374 368//368 
f 365//365 375//375 376//376 
f 365//365 377//377 378//378 
f 377//377 379//379 380//380 
f 377//377 381//381 382//382 
f 383//383 384//384 385//385 
f 386//386 387//387 388//388 
f 389//389 369//369 390//390 
f 369//369 391//391 370//370 
f 386//386 392//392 393//393 
f 386//386 394//394 395//395 
f 373//373 396//396 365//365 
f 365//365 397//397 398//398 
f 376//376 374//374 365//365 
f 380//380 378//378 377//377 
f 377//377 399//399 381//381 
f 377//377 400//400 401//401 
f 383//383 402//402 400//400 
f 385//385 403//403 383//383 
f 388//388 383//383 386//386 
f 390//390 404//404 389//389 
f 369//369 405//405 391//391 
f 369//369 406//406 407//407 
f 369//369 408//408 409//409 
f 393//393 410//410 386//386 
f 386//386 411//411 394//394 
f 386//386 412//412 413//413 
f 365//365 414//414 372//372 
f 398//398 415//415 365//365 
f 378//378 375//375 365//365 
f 377//377 416//416 399//399 
f 400//400 377//377 383//383 
f 383//383 417//417 418//418 
f 403//403 419//419 383//383 
f 388//388 420//420 383//383 
f 386//386 421//421 422//422 
f 389//389 423//423 424//424 
f 369//369 425//425 390//390 
f 407//407 405//405 369//369 
f 369//369 426//426 408//408 
f 395//395 392//392 386//386 
f 413//413 427//427 386//386 
f 415//415 414//414 365//365 
f 382//382 379//379 377//377 
f 418//418 402//402 383//383 
f 383//383 428//428 429//429 
f 420//420 384//384 383//383 
f 386//386 430//430 421//421 
f 431//431 432//432 433//433 
f 431//431 389//389 434//434 
f 389//389 435//435 423//423 
f 389//389 436//436 437//437 
f 371//371 425//425 369//369 
f 369//369 438//438 439//439 
f 369//369 440//440 441//441 
f 369//369 442//442 426//426 
f 427//427 411//411 386//386 
f 386//386 443//443 444//444 
f 386//386 365//365 445//445 
f 367//367 397//397 365//365 
f 377//377 446//446 447//447 
f 429//429 417//417 383//383 
f 422//422 387//387 386//386 
f 431//431 448//448 432//432 
f 431//431 449//449 450//450 
f 389//389 451//451 434//434 
f 389//389 452//452 453//453 
f 389//389 454//454 455//455 
f 424//424 456//456 389//389 
f 404//404 436//436 389//389 
f 369//369 457//457 458//458 
f 369//369 459//459 438//438 
f 409//409 440//440 369//369 
f 444//444 412//412 386//386 
f 386//386 460//460 461//461 
f 445//445 462//462 386//386 
f 365//365 463//463 464//464 
f 447//447 416//416 377//377 
f 419//419 428//428 383//383 
f 431//431 465//465 448//448 
f 431//431 466//466 467//467 
f 431//431 468//468 469//469 
f 434//434 449//449 431//431 
f 453//453 470//470 389//389 
f 456//456 454//454 389//389 
f 458//458 406//406 369//369 
f 441//441 459//459 369//369 
f 461//461 443//443 386//386 
f 365//365 471//471 445//445 
f 365//365 472//472 463//463 
f 401//401 446//446 377//377 
f 473//473 474//474 442//442 
f 473//473 433//433 475//475 
f 431//431 476//476 465//465 
f 431//431 477//477 478//478 
f 431//431 479//479 466//466 
f 450//450 468//468 431//431 
f 470//470 480//480 389//389 
f 389//389 481//481 435//435 
f 439//439 457//457 369//369 
f 389//389 386//386 383//383 
f 462//462 460//460 386//386 
f 396//396 472//472 365//365 
f 475//475 474//474 473//473 
f 478//478 476//476 431//431 
f 431//431 482//482 483//483 
f 431//431 484//484 485//485 
f 469//469 479//479 431//431 
f 389//389 486//486 487//487 
f 455//455 452//452 389//389 
f 383//383 369//369 389//389 
f 464//464 471//471 365//365 
f 433//433 473//473 431//431 
f 483//483 488//488 431//431 
f 467//467 484//484 431//431 
f 480//480 486//486 389//389 
f 410//410 430//430 386//386 
f 365//365 431//431 473//473 
f 488//488 477//477 431//431 
f 487//487 451//451 389//389 
f 473//473 377//377 365//365 
f 485//485 482//482 431//431 
f 442//442 369//369 473//473 
f 437//437 481//481 389//389 
o mesh1513
v 0.00508 -0.015875 -0.01016 
v 0 -0.015875 -0.01016 
v 0 0.041275 -0.01016 
v 0.00508 0.041275 -0.01016 
vn 0 0 -1 
vn 0 0 -1 
vn 0 0 -1 
vn 0 0 -1 
f 489//489 490//490 491//491 
f 491//491 492//492 489//489 
o mesh1514
v 0 0.0302782 0.0016906 
v 0 -0.015875 -0.01016 
v 0 -0.00759422 -0.000616388 
v 0 -0.0079375 -0.000635 
v 0 0.0301672 0.00236811 
v 0 0.0302043 0.00202634 
v 0 -0.00828078 -0.000616388 
v 0 -0.00862003 -0.00056077 
v 0 -0.00927065 -0.000341552 
v 0 -0.00895128 -0.000468799 
v 0 0.0302782 0.0033894 
v 0 0.0302043 0.00305366 
v 0 0.0301672 0.00271189 
v 0 -0.0101209 0.000234964 
v 0 -0.00985893 1.24045e-05 
v 0 -0.0105654 0.000758231 
v 0 -0.0103574 0.000484549 
v 0 -0.015875 0.01524 
v 0 -0.0111078 0.00271189 
v 0 -0.00725497 0.00564077 
v 0 -0.00759422 0.00569639 
v 0 0.0305323 0.0040272 
v 0 -0.00601607 0.0050676 
v 0 -0.00630062 0.00526052 
v 0 0.041275 -0.01016 
v 0 0.0336808 -0.000616388 
v 0 0.03402 -0.00056077 
v 0 -0.00957438 -0.000180522 
v 0 -0.0107427 0.0010528 
v 0 -0.0111078 0.00236811 
v 0 -0.0109968 0.0033894 
v 0 -0.0110707 0.00305366 
v 0 -0.00692372 0.0055488 
v 0 -0.00660435 0.00542155 
v 0 -0.00575405 0.00484504 
v 0 0.0355209 0.000234964 
v 0 0.0357574 0.000484549 
v 0 0.0343513 -0.000468799 
v 0 0.0346706 -0.000341552 
v 0 0.0333375 -0.000635 
v 0 0.0323237 -0.000468799 
v 0 0.0309176 0.000484549 
v 0 0.0311541 0.000234964 
v 0 -0.010887 0.00136481 
v 0 -0.0107427 0.0040272 
v 0 -0.010887 0.00371519 
v 0 -0.0101209 0.00484504 
v 0 -0.0103574 0.00459545 
v 0 -0.00551764 0.00459545 
v 0 -0.00513235 0.0040272 
v 0 -0.00530959 0.00432177 
v 0 -0.00476716 0.00271189 
v 0 0.030388 0.00371519 
v 0 -0.00530959 0.000758231 
v 0 -0.00513235 0.0010528 
v 0 -0.00630062 -0.000180522 
v 0 -0.00601607 1.24045e-05 
v 0 -0.00692372 -0.000468799 
v 0 -0.00660435 -0.000341552 
v 0 0.0352589 1.24045e-05 
v 0 0.0349744 -0.000180522 
v 0 0.0329942 -0.000616388 
v 0 0.032655 -0.00056077 
v 0 0.0317006 -0.000180522 
v 0 0.0320044 -0.000341552 
v 0 0.0307096 0.000758231 
v 0 -0.0110707 0.00202634 
v 0 -0.0109968 0.0016906 
v 0 -0.0105654 0.00432177 
v 0 -0.004988 0.00371519 
v 0 -0.00551764 0.000484549 
v 0 -0.00575405 0.000234964 
v 0 -0.00725497 -0.00056077 
v 0 0.0314161 1.24045e-05 
v 0 0.0305323 0.0010528 
v 0 0.030388 0.00136481 
v 0 -0.00957438 0.00526052 
v 0 -0.00985893 0.0050676 
v 0 -0.00480433 0.00305366 
v 0 -0.00487823 0.0033894 
v 0 -0.00476716 0.00236811 
v 0 0.041275 0.01524 
v 0 0.032655 0.00564077 
v 0 0.0323237 0.0055488 
v 0 -0.00480433 0.00202634 
v 0 -0.004988 0.00136481 
v 0 -0.00487823 0.0016906 
v 0 0.0314161 0.0050676 
v 0 0.0311541 0.00484504 
v 0 0.0320044 0.00542155 
v 0 0.0329942 0.00569639 
v 0 0.0309176 0.00459545 
v 0 0.0317006 0.00526052 
v 0 0.0333375 0.005715 
v 0 0.0359654 0.00432177 
v 0 0.0357574 0.00459545 
v 0 0.0307096 0.00432177 
v 0 -0.00895128 0.0055488 
v 0 -0.00927065 0.00542155 
v 0 0.0349744 0.00526052 
v 0 0.0346706 0.00542155 
v 0 0.0361427 0.0040272 
v 0 -0.0079375 0.005715 
v 0 -0.00862003 0.00564077 
v 0 -0.00828078 0.00569639 
v 0 0.0343513 0.0055488 
v 0 0.03402 0.00564077 
v 0 0.0352589 0.0050676 
v 0 0.0355209 0.00484504 
v 0 0.0365078 0.00236811 
v 0 0.036287 0.00136481 
v 0 0.0363968 0.0016906 
v 0 0.0359654 0.000758231 
v 0 0.0361427 0.0010528 
v 0 0.0336808 0.00569639 
v 0 0.0364707 0.00305366 
v 0 0.0363968 0.0033894 
v 0 0.0365078 0.00271189 
v 0 0.036287 0.00371519 
v 0 0.0364707 0.00202634 
vn -1 0 0 
vn -1 0 0 
vn -1 0 0 
vn -1 0 0 
vn -1 0 0 
vn -1 0 0 
vn -1 0 0 
vn -1 0 0 
vn -1 0 0 
vn -1 0 0 
vn -1 0 0 
vn -1 0 0 
vn -1 0 0 
vn -1 0 0 
vn -1 0 0 
vn -1 0 0 
vn -1 0 0 
vn -1 0 0 
vn -1 0 0 
vn -1 0 0 
vn -1 0 0 
vn -1 0 0 
vn -1 0 0 
vn -1 0 0 
vn -1 0 0 
vn -1 0 0 
vn -1 0 0 
vn -1 0 0 
vn -1 0 0 
vn -1 0 0 
vn -1 0 0 
vn -1 0 0 
vn -1 0 0 
vn -1 0 0 
vn -1 0 0 
vn -1 0 0 
vn -1 0 0 
vn -1 0 0 
vn -1 0 0 
vn -1 0 0 
vn -1 0 0 
vn -1 0 0 
vn -1 0 0 
vn -1 0 0 
vn -1 0 0 
vn -1 0 0 
vn -1 0 0 
vn -1 0 0 
vn -1 0 0 
vn -1 0 0 
vn -1 0 0 
vn -1 0 0 
vn -1 0 0 
vn -1 0 0 
vn -1 0 0 
vn -1 0 0 
vn -1 0 0 
vn -1 0 0 
vn -1 0 0 
vn -1 0 0 
vn -1 0 0 
vn -1 0 0 
vn -1 0 0 
vn -1 0 0 
vn -1 0 0 
vn -1 0 0 
vn -1 0 0 
vn -1 0 0 
vn -1 0 0 
vn -1 0 0 
vn -1 0 0 
vn -1 0 0 
vn -1 0 0 
vn -1 0 0 
vn -1 0 0 
vn -1 0 0 
vn -1 0 0 
vn -1 0 0 
vn -1 0 0 
vn -1 0 0 
vn -1 0 0 
vn -1 0 0 
vn -1 0 0 
vn -1 0 0 
vn -1 0 0 
vn -1 0 0 
vn -1 0 0 
vn -1 0 0 
vn -1 0 0 
vn -1 0 0 
vn -1 0 0 
vn -1 0 0 
vn -1 0 0 
vn -1 0 0 
vn -1 0 0 
vn -1 0 0 
vn -1 0 0 
vn -1 0 0 
vn -1 0 0 
vn -1 0 0 
vn -1 0 0 
vn -1 0 0 
vn -1 0 0 
vn -1 0 0 
vn -1 0 0 
vn -1 0 0 
vn -1 0 0 
vn -1 0 0 
vn -1 0 0 
vn -1 0 0 
vn -1 0 0 
vn -1 0 0 
vn -1 0 0 
vn -1 0 0 
vn -1 0 0 
vn -1 0 0 
vn -1 0 0 
vn -1 0 0 
vn -1 0 0 
vn -1 0 0 
f 493//493 494//494 495//495 
f 494//494 496//496 495//495 
f 495//495 497//497 498//498 
f 494//494 499//499 496//496 
f 494//494 500//500 499//499 
f 494//494 501//501 502//502 
f 495//495 503//503 504//504 
f 502//502 500//500 494//494 
f 504//504 505//505 495//495 
f 494//494 506//506 507//507 
f 494//494 508//508 509//509 
f 494//494 510//510 511//511 
f 510//510 512//512 513//513 
f 514//514 515//515 516//516 
f 517//517 518//518 519//519 
f 505//505 497//497 495//495 
f 507//507 520//520 494//494 
f 494//494 521//521 508//508 
f 511//511 522//522 494//494 
f 510//510 523//523 524//524 
f 510//510 525//525 512//512 
f 510//510 514//514 526//526 
f 514//514 527//527 515//515 
f 517//517 528//528 529//529 
f 517//517 530//530 531//531 
f 517//517 532//532 518//518 
f 517//517 494//494 533//533 
f 494//494 534//534 535//535 
f 520//520 501//501 494//494 
f 494//494 536//536 521//521 
f 524//524 511//511 510//510 
f 510//510 537//537 538//538 
f 510//510 539//539 540//540 
f 526//526 525//525 510//510 
f 514//514 541//541 527//527 
f 514//514 542//542 543//543 
f 544//544 545//545 503//503 
f 503//503 546//546 547//547 
f 503//503 548//548 549//549 
f 503//503 550//550 551//551 
f 517//517 552//552 528//528 
f 531//531 553//553 517//517 
f 517//517 554//554 532//532 
f 533//533 555//555 517//517 
f 494//494 556//556 557//557 
f 494//494 558//558 534//534 
f 509//509 506//506 494//494 
f 494//494 559//559 560//560 
f 538//538 523//523 510//510 
f 540//540 561//561 510//510 
f 516//516 526//526 514//514 
f 514//514 562//562 542//542 
f 544//544 514//514 545//545 
f 503//503 563//563 546//546 
f 549//549 564//564 503//503 
f 503//503 565//565 550//550 
f 553//553 552//552 517//517 
f 555//555 554//554 517//517 
f 494//494 566//566 556//556 
f 494//494 567//567 558//558 
f 494//494 493//493 568//568 
f 560//560 536//536 494//494 
f 561//561 537//537 510//510 
f 510//510 569//569 570//570 
f 543//543 541//541 514//514 
f 514//514 571//571 572//572 
f 503//503 573//573 544//544 
f 564//564 563//563 503//503 
f 503//503 495//495 565//565 
f 574//574 575//575 576//576 
f 519//519 530//530 517//517 
f 535//535 566//566 494//494 
f 495//495 498//498 493//493 
f 570//570 539//539 510//510 
f 572//572 562//562 514//514 
f 503//503 577//577 573//573 
f 503//503 578//578 579//579 
f 551//551 548//548 503//503 
f 510//510 580//580 581//581 
f 510//510 576//576 582//582 
f 574//574 583//583 575//575 
f 557//557 533//533 494//494 
f 522//522 559//559 494//494 
f 544//544 571//571 514//514 
f 547//547 578//578 503//503 
f 581//581 584//584 510//510 
f 582//582 585//585 510//510 
f 574//574 586//586 583//583 
f 574//574 587//587 588//588 
f 568//568 567//567 494//494 
f 579//579 577//577 503//503 
f 584//584 589//589 510//510 
f 576//576 510//510 574//574 
f 510//510 590//590 591//591 
f 574//574 592//592 593//593 
f 574//574 594//594 587//587 
f 513//513 595//595 510//510 
f 585//585 580//580 510//510 
f 510//510 596//596 590//590 
f 510//510 595//595 597//597 
f 574//574 598//598 599//599 
f 574//574 600//600 592//592 
f 588//588 601//601 574//574 
f 574//574 517//517 602//602 
f 517//517 603//603 604//604 
f 517//517 605//605 606//606 
f 589//589 514//514 510//510 
f 597//597 596//596 510//510 
f 599//599 607//607 574//574 
f 601//601 600//600 574//574 
f 574//574 608//608 609//609 
f 602//602 610//610 574//574 
f 606//606 603//603 517//517 
f 591//591 569//569 510//510 
f 593//593 598//598 574//574 
f 609//609 611//611 574//574 
f 517//517 612//612 602//602 
f 529//529 605//605 517//517 
f 611//611 594//594 574//574 
f 604//604 612//612 517//517 
f 610//610 608//608 574//574 
f 607//607 586//586 574//574 
o mesh1515
v 0.00508 0.041275 -0.01016 
v 0 0.041275 -0.01016 
v 0 0.041275 0.01524 
v 0.00508 0.041275 0.01524 
vn 0 1 0 
vn 0 1 0 
vn 0 1 0 
vn 0 1 0 
f 613//613 614//614 615//615 
f 615//615 616//616 613//613 
o mesh1516
v 0.00508 0.041275 0.01524 
v 0 0.041275 0.01524 
v 0 -0.015875 0.01524 
v 0.00508 -0.015875 0.01524 
vn 0 3.03539e-17 1 
vn 0 3.03539e-17 1 
vn 0 3.03539e-17 1 
vn 0 3.03539e-17 1 
f 617//617 618//618 619//619 
f 619//619 620//620 617//617 
o mesh1517
v 0.00508 -0.015875 0.01524 
v 0 -0.015875 0.01524 
v 0 -0.015875 -0.01016 
v 0.00508 -0.015875 -0.01016 
vn 0 -1 0 
vn 0 -1 0 
vn 0 -1 0 
vn 0 -1 0 
f 621//621 622//622 623//623 
f 623//623 624//624 621//621 
o mesh1518
v 0 0.0329942 0.00569639 
v 0 0.0333375 0.005715 
v 0.00508 0.0333375 0.005715 
v 0 0.032655 0.00564077 
v 0.00508 0.0329942 0.00569639 
v 0 0.0323237 0.0055488 
v 0.00508 0.032655 0.00564077 
v 0 0.0320044 0.00542155 
v 0.00508 0.0323237 0.0055488 
v 0 0.0317006 0.00526052 
v 0.00508 0.0320044 0.00542155 
v 0 0.0314161 0.0050676 
v 0.00508 0.0317006 0.00526052 
v 0 0.0311541 0.00484504 
v 0.00508 0.0314161 0.0050676 
v 0 0.0309176 0.00459545 
v 0.00508 0.0311541 0.00484504 
v 0 0.0307096 0.00432177 
v 0.00508 0.0309176 0.00459545 
v 0 0.0305323 0.0040272 
v 0.00508 0.0307096 0.00432177 
v 0 0.030388 0.00371519 
v 0.00508 0.0305323 0.0040272 
v 0 0.0302782 0.0033894 
v 0.00508 0.030388 0.00371519 
v 0 0.0302043 0.00305366 
v 0.00508 0.0302782 0.0033894 
v 0 0.0301672 0.00271189 
v 0.00508 0.0302043 0.00305366 
v 0 0.0301672 0.00236811 
v 0.00508 0.0301672 0.00271189 
v 0 0.0302043 0.00202634 
v 0.00508 0.0301672 0.00236811 
v 0 0.0302782 0.0016906 
v 0.00508 0.0302043 0.00202634 
v 0 0.030388 0.00136481 
v 0.00508 0.0302782 0.0016906 
v 0 0.0305323 0.0010528 
v 0.00508 0.030388 0.00136481 
v 0 0.0307096 0.000758231 
v 0.00508 0.0305323 0.0010528 
v 0 0.0309176 0.000484549 
v 0.00508 0.0307096 0.000758231 
v 0 0.0311541 0.000234964 
v 0.00508 0.0309176 0.000484549 
v 0 0.0314161 1.24045e-05 
v 0.00508 0.0311541 0.000234964 
v 0 0.0317006 -0.000180522 
v 0.00508 0.0314161 1.24045e-05 
v 0 0.0320044 -0.000341552 
v 0.00508 0.0317006 -0.000180522 
v 0 0.0323237 -0.000468799 
v 0.00508 0.0320044 -0.000341552 
v 0 0.032655 -0.00056077 
v 0.00508 0.0323237 -0.000468799 
v 0 0.0329942 -0.000616388 
v 0.00508 0.032655 -0.00056077 
v 0 0.0333375 -0.000635 
v 0.00508 0.0329942 -0.000616388 
v 0 0.0336808 -0.000616388 
v 0.00508 0.0333375 -0.000635 
v 0 0.03402 -0.00056077 
v 0.00508 0.0336808 -0.000616388 
v 0 0.0343513 -0.000468799 
v 0.00508 0.03402 -0.00056077 
v 0 0.0346706 -0.000341552 
v 0.00508 0.0343513 -0.000468799 
v 0 0.0349744 -0.000180522 
v 0.00508 0.0346706 -0.000341552 
v 0 0.0352589 1.24045e-05 
v 0.00508 0.0349744 -0.000180522 
v 0 0.0355209 0.000234964 
v 0.00508 0.0352589 1.24045e-05 
v 0 0.0357574 0.000484549 
v 0.00508 0.0355209 0.000234964 
v 0 0.0359654 0.000758231 
v 0.00508 0.0357574 0.000484549 
v 0 0.0361427 0.0010528 
v 0.00508 0.0359654 0.000758231 
v 0 0.036287 0.00136481 
v 0.00508 0.0361427 0.0010528 
v 0 0.0363968 0.0016906 
v 0.00508 0.036287 0.00136481 
v 0 0.0364707 0.00202634 
v 0.00508 0.0363968 0.0016906 
v 0 0.0365078 0.00236811 
v 0.00508 0.0364707 0.00202634 
v 0 0.0365078 0.00271189 
v 0.00508 0.0365078 0.00236811 
v 0 0.0364707 0.00305366 
v 0.00508 0.0365078 0.00271189 
v 0 0.0363968 0.0033894 
v 0.00508 0.0364707 0.00305366 
v 0 0.036287 0.00371519 
v 0.00508 0.0363968 0.0033894 
v 0 0.0361427 0.0040272 
v 0.00508 0.036287 0.00371519 
v 0 0.0359654 0.00432177 
v 0.00508 0.0361427 0.0040272 
v 0 0.0357574 0.00459545 
v 0.00508 0.0359654 0.00432177 
v 0 0.0355209 0.00484504 
v 0.00508 0.0357574 0.00459545 
v 0 0.0352589 0.0050676 
v 0.00508 0.0355209 0.00484504 
v 0 0.0349744 0.00526052 
v 0.00508 0.0352589 0.0050676 
v 0 0.0346706 0.00542155 
v 0.00508 0.0349744 0.00526052 
v 0 0.0343513 0.0055488 
v 0.00508 0.0346706 0.00542155 
v 0 0.03402 0.00564077 
v 0.00508 0.0343513 0.0055488 
v 0 0.0336808 0.00569639 
v 0.00508 0.03402 0.00564077 
v 0.00508 0.0336808 0.00569639 
vn 0 0.108119 -0.994138 
vn 0 2.44929e-16 -1 
vn 0 2.44929e-16 -1 
vn 0 0.21497 -0.976621 
vn 0 0.108119 -0.994138 
vn 0 0.319302 -0.947653 
vn 0 0.21497 -0.976621 
vn 0 0.419889 -0.907575 
vn 0 0.319302 -0.947653 
vn 0 0.515554 -0.856857 
vn 0 0.419889 -0.907575 
vn 0 0.605174 -0.796093 
vn 0 0.515554 -0.856857 
vn 0 0.687699 -0.725995 
vn 0 0.605174 -0.796093 
vn 0 0.762162 -0.647386 
vn 0 0.687699 -0.725995 
vn 0 0.827689 -0.561187 
vn 0 0.762162 -0.647386 
vn 0 0.883512 -0.468408 
vn 0 0.827689 -0.561187 
vn 0 0.928977 -0.370138 
vn 0 0.883512 -0.468408 
vn 0 0.96355 -0.267528 
vn 0 0.928977 -0.370138 
vn 0 0.986827 -0.161782 
vn 0 0.96355 -0.267528 
vn 0 0.998533 -0.0541389 
vn 0 0.986827 -0.161782 
vn 0 0.998533 0.0541389 
vn 0 0.998533 -0.0541389 
vn 0 0.986827 0.161782 
vn 0 0.998533 0.0541389 
vn 0 0.96355 0.267528 
vn 0 0.986827 0.161782 
vn 0 0.928977 0.370138 
vn 0 0.96355 0.267528 
vn 0 0.883512 0.468408 
vn 0 0.928977 0.370138 
vn 0 0.827689 0.561187 
vn 0 0.883512 0.468408 
vn 0 0.762162 0.647386 
vn 0 0.827689 0.561187 
vn 0 0.687699 0.725995 
vn 0 0.762162 0.647386 
vn 0 0.605174 0.796093 
vn 0 0.687699 0.725995 
vn 0 0.515554 0.856857 
vn 0 0.605174 0.796093 
vn 0 0.419889 0.907575 
vn 0 0.515554 0.856857 
vn 0 0.319302 0.947653 
vn 0 0.419889 0.907575 
vn 0 0.21497 0.976621 
vn 0 0.319302 0.947653 
vn 0 0.108119 0.994138 
vn 0 0.21497 0.976621 
vn 0 -1.22465e-16 1 
vn 0 0.108119 0.994138 
vn 0 -0.108119 0.994138 
vn 0 -1.22465e-16 1 
vn 0 -0.21497 0.976621 
vn 0 -0.108119 0.994138 
vn 0 -0.319302 0.947653 
vn 0 -0.21497 0.976621 
vn 0 -0.419889 0.907575 
vn 0 -0.319302 0.947653 
vn 0 -0.515554 0.856857 
vn 0 -0.419889 0.907575 
vn 0 -0.605174 0.796093 
vn 0 -0.515554 0.856857 
vn 0 -0.687699 0.725995 
vn 0 -0.605174 0.796093 
vn 0 -0.762162 0.647386 
vn 0 -0.687699 0.725995 
vn 0 -0.827689 0.561187 
vn 0 -0.762162 0.647386 
vn 0 -0.883512 0.468408 
vn 0 -0.827689 0.561187 
vn 0 -0.928977 0.370138 
vn 0 -0.883512 0.468408 
vn 0 -0.96355 0.267528 
vn 0 -0.928977 0.370138 
vn 0 -0.986827 0.161782 
vn 0 -0.96355 0.267528 
vn 0 -0.998533 0.0541389 
vn 0 -0.986827 0.161782 
vn 0 -0.998533 -0.0541389 
vn 0 -0.998533 0.0541389 
vn 0 -0.986827 -0.161782 
vn 0 -0.998533 -0.0541389 
vn 0 -0.96355 -0.267528 
vn 0 -0.986827 -0.161782 
vn 0 -0.928977 -0.370138 
vn 0 -0.96355 -0.267528 
vn 0 -0.883512 -0.468408 
vn 0 -0.928977 -0.370138 
vn 0 -0.827689 -0.561187 
vn 0 -0.883512 -0.468408 
vn 0 -0.762162 -0.647386 
vn 0 -0.827689 -0.561187 
vn 0 -0.687699 -0.725995 
vn 0 -0.762162 -0.647386 
vn 0 -0.605174 -0.796093 
vn 0 -0.687699 -0.725995 
vn 0 -0.515554 -0.856857 
vn 0 -0.605174 -0.796093 
vn 0 -0.419889 -0.907575 
vn 0 -0.515554 -0.856857 
vn 0 -0.319302 -0.947653 
vn 0 -0.419889 -0.907575 
vn 0 -0.21497 -0.976621 
vn 0 -0.319302 -0.947653 
vn 0 -0.108119 -0.994138 
vn 0 -0.21497 -0.976621 
vn 0 -0.108119 -0.994138 
f 625//625 626//626 627//627 
f 628//628 625//625 629//629 
f 630//630 628//628 631//631 
f 632//632 630//630 633//633 
f 634//634 632//632 635//635 
f 636//636 634//634 637//637 
f 638//638 636//636 639//639 
f 640//640 638//638 641//641 
f 642//642 640//640 643//643 
f 644//644 642//642 645//645 
f 646//646 644//644 647//647 
f 648//648 646//646 649//649 
f 650//650 648//648 651//651 
f 652//652 650//650 653//653 
f 654//654 652//652 655//655 
f 656//656 654//654 657//657 
f 658//658 656//656 659//659 
f 660//660 658//658 661//661 
f 662//662 660//660 663//663 
f 664//664 662//662 665//665 
f 666//666 664//664 667//667 
f 668//668 666//666 669//669 
f 670//670 668//668 671//671 
f 672//672 670//670 673//673 
f 674//674 672//672 675//675 
f 676//676 674//674 677//677 
f 678//678 676//676 679//679 
f 680//680 678//678 681//681 
f 682//682 680//680 683//683 
f 684//684 682//682 685//685 
f 686//686 684//684 687//687 
f 688//688 686//686 689//689 
f 690//690 688//688 691//691 
f 692//692 690//690 693//693 
f 694//694 692//692 695//695 
f 696//696 694//694 697//697 
f 698//698 696//696 699//699 
f 700//700 698//698 701//701 
f 702//702 700//700 703//703 
f 704//704 702//702 705//705 
f 706//706 704//704 707//707 
f 708//708 706//706 709//709 
f 710//710 708//708 711//711 
f 712//712 710//710 713//713 
f 714//714 712//712 715//715 
f 716//716 714//714 717//717 
f 718//718 716//716 719//719 
f 720//720 718//718 721//721 
f 722//722 720//720 723//723 
f 724//724 722//722 725//725 
f 726//726 724//724 727//727 
f 728//728 726//726 729//729 
f 730//730 728//728 731//731 
f 732//732 730//730 733//733 
f 734//734 732//732 735//735 
f 736//736 734//734 737//737 
f 738//738 736//736 739//739 
f 626//626 738//738 740//740 
f 740//740 627//627 626//626 
f 739//739 740//740 738//738 
f 737//737 739//739 736//736 
f 735//735 737//737 734//734 
f 733//733 735//735 732//732 
f 731//731 733//733 730//730 
f 729//729 731//731 728//728 
f 727//727 729//729 726//726 
f 725//725 727//727 724//724 
f 723//723 725//725 722//722 
f 721//721 723//723 720//720 
f 719//719 721//721 718//718 
f 717//717 719//719 716//716 
f 715//715 717//717 714//714 
f 713//713 715//715 712//712 
f 711//711 713//713 710//710 
f 709//709 711//711 708//708 
f 707//707 709//709 706//706 
f 705//705 707//707 704//704 
f 703//703 705//705 702//702 
f 701//701 703//703 700//700 
f 699//699 701//701 698//698 
f 697//697 699//699 696//696 
f 695//695 697//697 694//694 
f 693//693 695//695 692//692 
f 691//691 693//693 690//690 
f 689//689 691//691 688//688 
f 687//687 689//689 686//686 
f 685//685 687//687 684//684 
f 683//683 685//685 682//682 
f 681//681 683//683 680//680 
f 679//679 681//681 678//678 
f 677//677 679//679 676//676 
f 675//675 677//677 674//674 
f 673//673 675//675 672//672 
f 671//671 673//673 670//670 
f 669//669 671//671 668//668 
f 667//667 669//669 666//666 
f 665//665 667//667 664//664 
f 663//663 665//665 662//662 
f 661//661 663//663 660//660 
f 659//659 661//661 658//658 
f 657//657 659//659 656//656 
f 655//655 657//657 654//654 
f 653//653 655//655 652//652 
f 651//651 653//653 650//650 
f 649//649 651//651 648//648 
f 647//647 649//649 646//646 
f 645//645 647//647 644//644 
f 643//643 645//645 642//642 
f 641//641 643//643 640//640 
f 639//639 641//641 638//638 
f 637//637 639//639 636//636 
f 635//635 637//637 634//634 
f 633//633 635//635 632//632 
f 631//631 633//633 630//630 
f 629//629 631//631 628//628 
f 627//627 629//629 625//625 
o mesh1519
v 0 -0.00828078 0.00569639 
v 0 -0.0079375 0.005715 
v 0.00508 -0.0079375 0.005715 
v 0 -0.00862003 0.00564077 
v 0.00508 -0.00828078 0.00569639 
v 0 -0.00895128 0.0055488 
v 0.00508 -0.00862003 0.00564077 
v 0 -0.00927065 0.00542155 
v 0.00508 -0.00895128 0.0055488 
v 0 -0.00957438 0.00526052 
v 0.00508 -0.00927065 0.00542155 
v 0 -0.00985893 0.0050676 
v 0.00508 -0.00957438 0.00526052 
v 0 -0.0101209 0.00484504 
v 0.00508 -0.00985893 0.0050676 
v 0 -0.0103574 0.00459545 
v 0.00508 -0.0101209 0.00484504 
v 0 -0.0105654 0.00432177 
v 0.00508 -0.0103574 0.00459545 
v 0 -0.0107427 0.0040272 
v 0.00508 -0.0105654 0.00432177 
v 0 -0.010887 0.00371519 
v 0.00508 -0.0107427 0.0040272 
v 0 -0.0109968 0.0033894 
v 0.00508 -0.010887 0.00371519 
v 0 -0.0110707 0.00305366 
v 0.00508 -0.0109968 0.0033894 
v 0 -0.0111078 0.00271189 
v 0.00508 -0.0110707 0.00305366 
v 0 -0.0111078 0.00236811 
v 0.00508 -0.0111078 0.00271189 
v 0 -0.0110707 0.00202634 
v 0.00508 -0.0111078 0.00236811 
v 0 -0.0109968 0.0016906 
v 0.00508 -0.0110707 0.00202634 
v 0 -0.010887 0.00136481 
v 0.00508 -0.0109968 0.0016906 
v 0 -0.0107427 0.0010528 
v 0.00508 -0.010887 0.00136481 
v 0 -0.0105654 0.000758231 
v 0.00508 -0.0107427 0.0010528 
v 0 -0.0103574 0.000484549 
v 0.00508 -0.0105654 0.000758231 
v 0 -0.0101209 0.000234964 
v 0.00508 -0.0103574 0.000484549 
v 0 -0.00985893 1.24045e-05 
v 0.00508 -0.0101209 0.000234964 
v 0 -0.00957438 -0.000180522 
v 0.00508 -0.00985893 1.24045e-05 
v 0 -0.00927065 -0.000341552 
v 0.00508 -0.00957438 -0.000180522 
v 0 -0.00895128 -0.000468799 
v 0.00508 -0.00927065 -0.000341552 
v 0 -0.00862003 -0.00056077 
v 0.00508 -0.00895128 -0.000468799 
v 0 -0.00828078 -0.000616388 
v 0.00508 -0.00862003 -0.00056077 
v 0 -0.0079375 -0.000635 
v 0.00508 -0.00828078 -0.000616388 
v 0 -0.00759422 -0.000616388 
v 0.00508 -0.0079375 -0.000635 
v 0 -0.00725497 -0.00056077 
v 0.00508 -0.00759422 -0.000616388 
v 0 -0.00692372 -0.000468799 
v 0.00508 -0.00725497 -0.00056077 
v 0 -0.00660435 -0.000341552 
v 0.00508 -0.00692372 -0.000468799 
v 0 -0.00630062 -0.000180522 
v 0.00508 -0.00660435 -0.000341552 
v 0 -0.00601607 1.24045e-05 
v 0.00508 -0.00630062 -0.000180522 
v 0 -0.00575405 0.000234964 
v 0.00508 -0.00601607 1.24045e-05 
v 0 -0.00551764 0.000484549 
v 0.00508 -0.00575405 0.000234964 
v 0 -0.00530959 0.000758231 
v 0.00508 -0.00551764 0.000484549 
v 0 -0.00513235 0.0010528 
v 0.00508 -0.00530959 0.000758231 
v 0 -0.004988 0.00136481 
v 0.00508 -0.00513235 0.0010528 
v 0 -0.00487823 0.0016906 
v 0.00508 -0.004988 0.00136481 
v 0 -0.00480433 0.00202634 
v 0.00508 -0.00487823 0.0016906 
v 0 -0.00476716 0.00236811 
v 0.00508 -0.00480433 0.00202634 
v 0 -0.00476716 0.00271189 
v 0.00508 -0.00476716 0.00236811 
v 0 -0.00480433 0.00305366 
v 0.00508 -0.00476716 0.00271189 
v 0 -0.00487823 0.0033894 
v 0.00508 -0.00480433 0.00305366 
v 0 -0.004988 0.00371519 
v 0.00508 -0.00487823 0.0033894 
v 0 -0.00513235 0.0040272 
v 0.00508 -0.004988 0.00371519 
v 0 -0.00530959 0.00432177 
v 0.00508 -0.00513235 0.0040272 
v 0 -0.00551764 0.00459545 
v 0.00508 -0.00530959 0.00432177 
v 0 -0.00575405 0.00484504 
v 0.00508 -0.00551764 0.00459545 
v 0 -0.00601607 0.0050676 
v 0.00508 -0.00575405 0.00484504 
v 0 -0.00630062 0.00526052 
v 0.00508 -0.00601607 0.0050676 
v 0 -0.00660435 0.00542155 
v 0.00508 -0.00630062 0.00526052 
v 0 -0.00692372 0.0055488 
v 0.00508 -0.00660435 0.00542155 
v 0 -0.00725497 0.00564077 
v 0.00508 -0.00692372 0.0055488 
v 0 -0.00759422 0.00569639 
v 0.00508 -0.00725497 0.00564077 
v 0.00508 -0.00759422 0.00569639 
vn 0 0.108119 -0.994138 
vn 0 2.44929e-16 -1 
vn 0 2.44929e-16 -1 
vn 0 0.21497 -0.976621 
vn 0 0.108119 -0.994138 
vn 0 0.319302 -0.947653 
vn 0 0.21497 -0.976621 
vn 0 0.419889 -0.907575 
vn 0 0.319302 -0.947653 
vn 0 0.515554 -0.856857 
vn 0 0.419889 -0.907575 
vn 0 0.605174 -0.796093 
vn 0 0.515554 -0.856857 
vn 0 0.687699 -0.725995 
vn 0 0.605174 -0.796093 
vn 0 0.762162 -0.647386 
vn 0 0.687699 -0.725995 
vn 0 0.827689 -0.561187 
vn 0 0.762162 -0.647386 
vn 0 0.883512 -0.468408 
vn 0 0.827689 -0.561187 
vn 0 0.928977 -0.370138 
vn 0 0.883512 -0.468408 
vn 0 0.96355 -0.267528 
vn 0 0.928977 -0.370138 
vn 0 0.986827 -0.161782 
vn 0 0.96355 -0.267528 
vn 0 0.998533 -0.0541389 
vn 0 0.986827 -0.161782 
vn 0 0.998533 0.0541389 
vn 0 0.998533 -0.0541389 
vn 0 0.986827 0.161782 
vn 0 0.998533 0.0541389 
vn 0 0.96355 0.267528 
vn 0 0.986827 0.161782 
vn 0 0.928977 0.370138 
vn 0 0.96355 0.267528 
vn 0 0.883512 0.468408 
vn 0 0.928977 0.370138 
vn 0 0.827689 0.561187 
vn 0 0.883512 0.468408 
vn 0 0.762162 0.647386 
vn 0 0.827689 0.561187 
vn 0 0.687699 0.725995 
vn 0 0.762162 0.647386 
vn 0 0.605174 0.796093 
vn 0 0.687699 0.725995 
vn 0 0.515554 0.856857 
vn 0 0.605174 0.796093 
vn 0 0.419889 0.907575 
vn 0 0.515554 0.856857 
vn 0 0.319302 0.947653 
vn 0 0.419889 0.907575 
vn 0 0.21497 0.976621 
vn 0 0.319302 0.947653 
vn 0 0.108119 0.994138 
vn 0 0.21497 0.976621 
vn 0 -1.22465e-16 1 
vn 0 0.108119 0.994138 
vn 0 -0.108119 0.994138 
vn 0 -1.22465e-16 1 
vn 0 -0.21497 0.976621 
vn 0 -0.108119 0.994138 
vn 0 -0.319302 0.947653 
vn 0 -0.21497 0.976621 
vn 0 -0.419889 0.907575 
vn 0 -0.319302 0.947653 
vn 0 -0.515554 0.856857 
vn 0 -0.419889 0.907575 
vn 0 -0.605174 0.796093 
vn 0 -0.515554 0.856857 
vn 0 -0.687699 0.725995 
vn 0 -0.605174 0.796093 
vn 0 -0.762162 0.647386 
vn 0 -0.687699 0.725995 
vn 0 -0.827689 0.561187 
vn 0 -0.762162 0.647386 
vn 0 -0.883512 0.468408 
vn 0 -0.827689 0.561187 
vn 0 -0.928977 0.370138 
vn 0 -0.883512 0.468408 
vn 0 -0.96355 0.267528 
vn 0 -0.928977 0.370138 
vn 0 -0.986827 0.161782 
vn 0 -0.96355 0.267528 
vn 0 -0.998533 0.0541389 
vn 0 -0.986827 0.161782 
vn 0 -0.998533 -0.0541389 
vn 0 -0.998533 0.0541389 
vn 0 -0.986827 -0.161782 
vn 0 -0.998533 -0.0541389 
vn 0 -0.96355 -0.267528 
vn 0 -0.986827 -0.161782 
vn 0 -0.928977 -0.370138 
vn 0 -0.96355 -0.267528 
vn 0 -0.883512 -0.468408 
vn 0 -0.928977 -0.370138 
vn 0 -0.827689 -0.561187 
vn 0 -0.883512 -0.468408 
vn 0 -0.762162 -0.647386 
vn 0 -0.827689 -0.561187 
vn 0 -0.687699 -0.725995 
vn 0 -0.762162 -0.647386 
vn 0 -0.605174 -0.796093 
vn 0 -0.687699 -0.725995 
vn 0 -0.515554 -0.856857 
vn 0 -0.605174 -0.796093 
vn 0 -0.419889 -0.907575 
vn 0 -0.515554 -0.856857 
vn 0 -0.319302 -0.947653 
vn 0 -0.419889 -0.907575 
vn 0 -0.21497 -0.976621 
vn 0 -0.319302 -0.947653 
vn 0 -0.108119 -0.994138 
vn 0 -0.21497 -0.976621 
vn 0 -0.108119 -0.994138 
f 741//741 742//742 743//743 
f 744//744 741//741 745//745 
f 746//746 744//744 747//747 
f 748//748 746//746 749//749 
f 750//750 748//748 751//751 
f 752//752 750//750 753//753 
f 754//754 752//752 755//755 
f 756//756 754//754 757//757 
f 758//758 756//756 759//759 
f 760//760 758//758 761//761 
f 762//762 760//760 763//763 
f 764//764 762//762 765//765 
f 766//766 764//764 767//767 
f 768//768 766//766 769//769 
f 770//770 768//768 771//771 
f 772//772 770//770 773//773 
f 774//774 772//772 775//775 
f 776//776 774//774 777//777 
f 778//778 776//776 779//779 
f 780//780 778//778 781//781 
f 782//782 780//780 783//783 
f 784//784 782//782 785//785 
f 786//786 784//784 787//787 
f 788//788 786//786 789//789 
f 790//790 788//788 791//791 
f 792//792 790//790 793//793 
f 794//794 792//792 795//795 
f 796//796 794//794 797//797 
f 798//798 796//796 799//799 
f 800//800 798//798 801//801 
f 802//802 800//800 803//803 
f 804//804 802//802 805//805 
f 806//806 804//804 807//807 
f 808//808 806//806 809//809 
f 810//810 808//808 811//811 
f 812//812 810//810 813//813 
f 814//814 812//812 815//815 
f 816//816 814//814 817//817 
f 818//818 816//816 819//819 
f 820//820 818//818 821//821 
f 822//822 820//820 823//823 
f 824//824 822//822 825//825 
f 826//826 824//824 827//827 
f 828//828 826//826 829//829 
f 830//830 828//828 831//831 
f 832//832 830//830 833//833 
f 834//834 832//832 835//835 
f 836//836 834//834 837//837 
f 838//838 836//836 839//839 
f 840//840 838//838 841//841 
f 842//842 840//840 843//843 
f 844//844 842//842 845//845 
f 846//846 844//844 847//847 
f 848//848 846//846 849//849 
f 850//850 848//848 851//851 
f 852//852 850//850 853//853 
f 854//854 852//852 855//855 
f 742//742 854//854 856//856 
f 856//856 743//743 742//742 
f 855//855 856//856 854//854 
f 853//853 855//855 852//852 
f 851//851 853//853 850//850 
f 849//849 851//851 848//848 
f 847//847 849//849 846//846 
f 845//845 847//847 844//844 
f 843//843 845//845 842//842 
f 841//841 843//843 840//840 
f 839//839 841//841 838//838 
f 837//837 839//839 836//836 
f 835//835 837//837 834//834 
f 833//833 835//835 832//832 
f 831//831 833//833 830//830 
f 829//829 831//831 828//828 
f 827//827 829//829 826//826 
f 825//825 827//827 824//824 
f 823//823 825//825 822//822 
f 821//821 823//823 820//820 
f 819//819 821//821 818//818 
f 817//817 819//819 816//816 
f 815//815 817//817 814//814 
f 813//813 815//815 812//812 
f 811//811 813//813 810//810 
f 809//809 811//811 808//808 
f 807//807 809//809 806//806 
f 805//805 807//807 804//804 
f 803//803 805//805 802//802 
f 801//801 803//803 800//800 
f 799//799 801//801 798//798 
f 797//797 799//799 796//796 
f 795//795 797//797 794//794 
f 793//793 795//795 792//792 
f 791//791 793//793 790//790 
f 789//789 791//791 788//788 
f 787//787 789//789 786//786 
f 785//785 787//787 784//784 
f 783//783 785//785 782//782 
f 781//781 783//783 780//780 
f 779//779 781//781 778//778 
f 777//777 779//779 776//776 
f 775//775 777//777 774//774 
f 773//773 775//775 772//772 
f 771//771 773//773 770//770 
f 769//769 771//771 768//768 
f 767//767 769//769 766//766 
f 765//765 767//767 764//764 
f 763//763 765//765 762//762 
f 761//761 763//763 760//760 
f 759//759 761//761 758//758 
f 757//757 759//759 756//756 
f 755//755 757//757 754//754 
f 753//753 755//755 752//752 
f 751//751 753//753 750//750 
f 749//749 751//751 748//748 
f 747//747 749//749 746//746 
f 745//745 747//747 744//744 
f 743//743 745//745 741//741 
