# OBJ generated by ONSHAPE BY PTC INC, 1.215 Units = meters
mtllib _6384K344_Ball_Bearing.mtl
g 6384K344_Ball Bearing
usemtl 0.752941_0.752941_0.752941_0.000000_0.000000
o mesh1453
v 0.00592138 -0.000643989 -0.00285283 
v 0.0059563 -1.45887e-18 -0.00285283 
v 0.0059563 0 -0.00389334 
v 0.00581705 -0.00128043 -0.00285283 
v 0.00592138 -0.000643989 -0.00389334 
v 0.00564451 -0.00190186 -0.00285283 
v 0.00581705 -0.00128043 -0.00389334 
v 0.00540579 -0.00250099 -0.00285283 
v 0.00564451 -0.00190186 -0.00389334 
v 0.0051037 -0.00307079 -0.00285283 
v 0.00540579 -0.00250099 -0.00389334 
v 0.00474177 -0.0036046 -0.00285283 
v 0.0051037 -0.00307079 -0.00389334 
v 0.00432425 -0.00409614 -0.00285283 
v 0.00474177 -0.0036046 -0.00389334 
v 0.00385603 -0.00453967 -0.00285283 
v 0.00432425 -0.00409614 -0.00389334 
v 0.0033426 -0.00492996 -0.00285283 
v 0.00385603 -0.00453967 -0.00389334 
v 0.00278998 -0.00526246 -0.00285283 
v 0.0033426 -0.00492996 -0.00389334 
v 0.00220465 -0.00553326 -0.00285283 
v 0.00278998 -0.00526246 -0.00389334 
v 0.00159348 -0.00573919 -0.00285283 
v 0.00220465 -0.00553326 -0.00389334 
v 0.000963622 -0.00587783 -0.00285283 
v 0.00159348 -0.00573919 -0.00389334 
v 0.000322468 -0.00594756 -0.00285283 
v 0.000963622 -0.00587783 -0.00389334 
v -0.000322468 -0.00594756 -0.00285283 
v 0.000322468 -0.00594756 -0.00389334 
v -0.000963622 -0.00587783 -0.00285283 
v -0.000322468 -0.00594756 -0.00389334 
v -0.00159348 -0.00573919 -0.00285283 
v -0.000963622 -0.00587783 -0.00389334 
v -0.00220465 -0.00553326 -0.00285283 
v -0.00159348 -0.00573919 -0.00389334 
v -0.00278998 -0.00526246 -0.00285283 
v -0.00220465 -0.00553326 -0.00389334 
v -0.0033426 -0.00492996 -0.00285283 
v -0.00278998 -0.00526246 -0.00389334 
v -0.00385603 -0.00453967 -0.00285283 
v -0.0033426 -0.00492996 -0.00389334 
v -0.00432425 -0.00409614 -0.00285283 
v -0.00385603 -0.00453967 -0.00389334 
v -0.00474177 -0.0036046 -0.00285283 
v -0.00432425 -0.00409614 -0.00389334 
v -0.0051037 -0.00307079 -0.00285283 
v -0.00474177 -0.0036046 -0.00389334 
v -0.00540579 -0.00250099 -0.00285283 
v -0.0051037 -0.00307079 -0.00389334 
v -0.00564451 -0.00190186 -0.00285283 
v -0.00540579 -0.00250099 -0.00389334 
v -0.00581705 -0.00128043 -0.00285283 
v -0.00564451 -0.00190186 -0.00389334 
v -0.00592138 -0.000643989 -0.00285283 
v -0.00581705 -0.00128043 -0.00389334 
v -0.0059563 7.29436e-19 -0.00285283 
v -0.00592138 -0.000643989 -0.00389334 
v -0.00592138 0.000643989 -0.00285283 
v -0.0059563 7.29436e-19 -0.00389334 
v -0.00581705 0.00128043 -0.00285283 
v -0.00592138 0.000643989 -0.00389334 
v -0.00564451 0.00190186 -0.00285283 
v -0.00581705 0.00128043 -0.00389334 
v -0.00540579 0.00250099 -0.00285283 
v -0.00564451 0.00190186 -0.00389334 
v -0.0051037 0.00307079 -0.00285283 
v -0.00540579 0.00250099 -0.00389334 
v -0.00474177 0.0036046 -0.00285283 
v -0.0051037 0.00307079 -0.00389334 
v -0.00432425 0.00409614 -0.00285283 
v -0.00474177 0.0036046 -0.00389334 
v -0.00385603 0.00453967 -0.00285283 
v -0.00432425 0.00409614 -0.00389334 
v -0.0033426 0.00492996 -0.00285283 
v -0.00385603 0.00453967 -0.00389334 
v -0.00278998 0.00526246 -0.00285283 
v -0.0033426 0.00492996 -0.00389334 
v -0.00220465 0.00553326 -0.00285283 
v -0.00278998 0.00526246 -0.00389334 
v -0.00159348 0.00573919 -0.00285283 
v -0.00220465 0.00553326 -0.00389334 
v -0.000963622 0.00587783 -0.00285283 
v -0.00159348 0.00573919 -0.00389334 
v -0.000322468 0.00594756 -0.00285283 
v -0.000963622 0.00587783 -0.00389334 
v 0.000322468 0.00594756 -0.00285283 
v -0.000322468 0.00594756 -0.00389334 
v 0.000963622 0.00587783 -0.00285283 
v 0.000322468 0.00594756 -0.00389334 
v 0.00159348 0.00573919 -0.00285283 
v 0.000963622 0.00587783 -0.00389334 
v 0.00220465 0.00553326 -0.00285283 
v 0.00159348 0.00573919 -0.00389334 
v 0.00278998 0.00526246 -0.00285283 
v 0.00220465 0.00553326 -0.00389334 
v 0.0033426 0.00492996 -0.00285283 
v 0.00278998 0.00526246 -0.00389334 
v 0.00385603 0.00453967 -0.00285283 
v 0.0033426 0.00492996 -0.00389334 
v 0.00432425 0.00409614 -0.00285283 
v 0.00385603 0.00453967 -0.00389334 
v 0.00474177 0.0036046 -0.00285283 
v 0.00432425 0.00409614 -0.00389334 
v 0.0051037 0.00307079 -0.00285283 
v 0.00474177 0.0036046 -0.00389334 
v 0.00540579 0.00250099 -0.00285283 
v 0.0051037 0.00307079 -0.00389334 
v 0.00564451 0.00190186 -0.00285283 
v 0.00540579 0.00250099 -0.00389334 
v 0.00581705 0.00128043 -0.00285283 
v 0.00564451 0.00190186 -0.00389334 
v 0.00592138 0.000643989 -0.00285283 
v 0.00581705 0.00128043 -0.00389334 
v 0.00592138 0.000643989 -0.00389334 
vn -0.994138 0.108119 0 
vn -1 2.44929e-16 0 
vn -1 2.44929e-16 0 
vn -0.976621 0.21497 0 
vn -0.994138 0.108119 0 
vn -0.947653 0.319302 0 
vn -0.976621 0.21497 0 
vn -0.907575 0.419889 0 
vn -0.947653 0.319302 0 
vn -0.856857 0.515554 0 
vn -0.907575 0.419889 0 
vn -0.796093 0.605174 0 
vn -0.856857 0.515554 0 
vn -0.725995 0.687699 0 
vn -0.796093 0.605174 0 
vn -0.647386 0.762162 0 
vn -0.725995 0.687699 0 
vn -0.561187 0.827689 0 
vn -0.647386 0.762162 0 
vn -0.468408 0.883512 0 
vn -0.561187 0.827689 0 
vn -0.370138 0.928977 0 
vn -0.468408 0.883512 0 
vn -0.267528 0.96355 0 
vn -0.370138 0.928977 0 
vn -0.161782 0.986827 0 
vn -0.267528 0.96355 0 
vn -0.0541389 0.998533 0 
vn -0.161782 0.986827 0 
vn 0.0541389 0.998533 0 
vn -0.0541389 0.998533 0 
vn 0.161782 0.986827 0 
vn 0.0541389 0.998533 0 
vn 0.267528 0.96355 0 
vn 0.161782 0.986827 0 
vn 0.370138 0.928977 0 
vn 0.267528 0.96355 0 
vn 0.468408 0.883512 0 
vn 0.370138 0.928977 0 
vn 0.561187 0.827689 0 
vn 0.468408 0.883512 0 
vn 0.647386 0.762162 0 
vn 0.561187 0.827689 0 
vn 0.725995 0.687699 0 
vn 0.647386 0.762162 0 
vn 0.796093 0.605174 0 
vn 0.725995 0.687699 0 
vn 0.856857 0.515554 0 
vn 0.796093 0.605174 0 
vn 0.907575 0.419889 0 
vn 0.856857 0.515554 0 
vn 0.947653 0.319302 0 
vn 0.907575 0.419889 0 
vn 0.976621 0.21497 0 
vn 0.947653 0.319302 0 
vn 0.994138 0.108119 0 
vn 0.976621 0.21497 0 
vn 1 -1.22465e-16 0 
vn 0.994138 0.108119 0 
vn 0.994138 -0.108119 0 
vn 1 -1.22465e-16 0 
vn 0.976621 -0.21497 0 
vn 0.994138 -0.108119 0 
vn 0.947653 -0.319302 0 
vn 0.976621 -0.21497 0 
vn 0.907575 -0.419889 0 
vn 0.947653 -0.319302 0 
vn 0.856857 -0.515554 0 
vn 0.907575 -0.419889 0 
vn 0.796093 -0.605174 0 
vn 0.856857 -0.515554 0 
vn 0.725995 -0.687699 0 
vn 0.796093 -0.605174 0 
vn 0.647386 -0.762162 0 
vn 0.725995 -0.687699 0 
vn 0.561187 -0.827689 0 
vn 0.647386 -0.762162 0 
vn 0.468408 -0.883512 0 
vn 0.561187 -0.827689 0 
vn 0.370138 -0.928977 0 
vn 0.468408 -0.883512 0 
vn 0.267528 -0.96355 0 
vn 0.370138 -0.928977 0 
vn 0.161782 -0.986827 0 
vn 0.267528 -0.96355 0 
vn 0.0541389 -0.998533 0 
vn 0.161782 -0.986827 0 
vn -0.0541389 -0.998533 0 
vn 0.0541389 -0.998533 0 
vn -0.161782 -0.986827 0 
vn -0.0541389 -0.998533 0 
vn -0.267528 -0.96355 0 
vn -0.161782 -0.986827 0 
vn -0.370138 -0.928977 0 
vn -0.267528 -0.96355 0 
vn -0.468408 -0.883512 0 
vn -0.370138 -0.928977 0 
vn -0.561187 -0.827689 0 
vn -0.468408 -0.883512 0 
vn -0.647386 -0.762162 0 
vn -0.561187 -0.827689 0 
vn -0.725995 -0.687699 0 
vn -0.647386 -0.762162 0 
vn -0.796093 -0.605174 0 
vn -0.725995 -0.687699 0 
vn -0.856857 -0.515554 0 
vn -0.796093 -0.605174 0 
vn -0.907575 -0.419889 0 
vn -0.856857 -0.515554 0 
vn -0.947653 -0.319302 0 
vn -0.907575 -0.419889 0 
vn -0.976621 -0.21497 0 
vn -0.947653 -0.319302 0 
vn -0.994138 -0.108119 0 
vn -0.976621 -0.21497 0 
vn -0.994138 -0.108119 0 
f 1//1 2//2 3//3 
f 4//4 1//1 5//5 
f 6//6 4//4 7//7 
f 8//8 6//6 9//9 
f 10//10 8//8 11//11 
f 12//12 10//10 13//13 
f 14//14 12//12 15//15 
f 16//16 14//14 17//17 
f 18//18 16//16 19//19 
f 20//20 18//18 21//21 
f 22//22 20//20 23//23 
f 24//24 22//22 25//25 
f 26//26 24//24 27//27 
f 28//28 26//26 29//29 
f 30//30 28//28 31//31 
f 32//32 30//30 33//33 
f 34//34 32//32 35//35 
f 36//36 34//34 37//37 
f 38//38 36//36 39//39 
f 40//40 38//38 41//41 
f 42//42 40//40 43//43 
f 44//44 42//42 45//45 
f 46//46 44//44 47//47 
f 48//48 46//46 49//49 
f 50//50 48//48 51//51 
f 52//52 50//50 53//53 
f 54//54 52//52 55//55 
f 56//56 54//54 57//57 
f 58//58 56//56 59//59 
f 60//60 58//58 61//61 
f 62//62 60//60 63//63 
f 64//64 62//62 65//65 
f 66//66 64//64 67//67 
f 68//68 66//66 69//69 
f 70//70 68//68 71//71 
f 72//72 70//70 73//73 
f 74//74 72//72 75//75 
f 76//76 74//74 77//77 
f 78//78 76//76 79//79 
f 80//80 78//78 81//81 
f 82//82 80//80 83//83 
f 84//84 82//82 85//85 
f 86//86 84//84 87//87 
f 88//88 86//86 89//89 
f 90//90 88//88 91//91 
f 92//92 90//90 93//93 
f 94//94 92//92 95//95 
f 96//96 94//94 97//97 
f 98//98 96//96 99//99 
f 100//100 98//98 101//101 
f 102//102 100//100 103//103 
f 104//104 102//102 105//105 
f 106//106 104//104 107//107 
f 108//108 106//106 109//109 
f 110//110 108//108 111//111 
f 112//112 110//110 113//113 
f 114//114 112//112 115//115 
f 2//2 114//114 116//116 
f 116//116 3//3 2//2 
f 115//115 116//116 114//114 
f 113//113 115//115 112//112 
f 111//111 113//113 110//110 
f 109//109 111//111 108//108 
f 107//107 109//109 106//106 
f 105//105 107//107 104//104 
f 103//103 105//105 102//102 
f 101//101 103//103 100//100 
f 99//99 101//101 98//98 
f 97//97 99//99 96//96 
f 95//95 97//97 94//94 
f 93//93 95//95 92//92 
f 91//91 93//93 90//90 
f 89//89 91//91 88//88 
f 87//87 89//89 86//86 
f 85//85 87//87 84//84 
f 83//83 85//85 82//82 
f 81//81 83//83 80//80 
f 79//79 81//81 78//78 
f 77//77 79//79 76//76 
f 75//75 77//77 74//74 
f 73//73 75//75 72//72 
f 71//71 73//73 70//70 
f 69//69 71//71 68//68 
f 67//67 69//69 66//66 
f 65//65 67//67 64//64 
f 63//63 65//65 62//62 
f 61//61 63//63 60//60 
f 59//59 61//61 58//58 
f 57//57 59//59 56//56 
f 55//55 57//57 54//54 
f 53//53 55//55 52//52 
f 51//51 53//53 50//50 
f 49//49 51//51 48//48 
f 47//47 49//49 46//46 
f 45//45 47//47 44//44 
f 43//43 45//45 42//42 
f 41//41 43//43 40//40 
f 39//39 41//41 38//38 
f 37//37 39//39 36//36 
f 35//35 37//37 34//34 
f 33//33 35//35 32//32 
f 31//31 33//33 30//30 
f 29//29 31//31 28//28 
f 27//27 29//29 26//26 
f 25//25 27//27 24//24 
f 23//23 25//25 22//22 
f 21//21 23//23 20//20 
f 19//19 21//21 18//18 
f 17//17 19//19 16//16 
f 15//15 17//17 14//14 
f 13//13 15//15 12//12 
f 11//11 13//13 10//10 
f 9//9 11//11 8//8 
f 7//7 9//9 6//6 
f 5//5 7//7 4//4 
f 3//3 5//5 1//1 
o mesh1454
v 0.00150805 0.00919868 -0.00285283 
v 0.000963622 0.00587783 -0.00285283 
v 0.00159348 0.00573919 -0.00285283 
v 0.000504654 0.0093078 -0.00285283 
v 0.000322468 0.00594756 -0.00285283 
v 0.00910354 0.00200384 -0.00285283 
v 0.00581705 0.00128043 -0.00285283 
v 0.00592138 0.000643989 -0.00285283 
v 0.00883352 0.00297636 -0.00285283 
v 0.00564451 0.00190186 -0.00285283 
v 0.00603459 0.00710447 -0.00285283 
v 0.00385603 0.00453967 -0.00285283 
v 0.00432425 0.00409614 -0.00285283 
v 0.00523109 0.00771528 -0.00285283 
v 0.0033426 0.00492996 -0.00285283 
v -0.000504654 0.0093078 -0.00285283 
v -0.000322468 0.00594756 -0.00285283 
v 0.00845994 0.00391399 -0.00285283 
v 0.00540579 0.00250099 -0.00285283 
v 0.00436626 0.00823563 -0.00285283 
v 0.00278998 0.00526246 -0.00285283 
v 0.00345023 0.00865943 -0.00285283 
v 0.00220465 0.00553326 -0.00285283 
v 0.00249376 0.00898171 -0.00285283 
v -0.00150805 0.00919868 -0.00285283 
v -0.000963622 0.00587783 -0.00285283 
v -0.00249376 0.00898171 -0.00285283 
v -0.00159348 0.00573919 -0.00285283 
v -0.00345023 0.00865943 -0.00285283 
v -0.00220465 0.00553326 -0.00285283 
v 0.00798717 0.00480572 -0.00285283 
v 0.0051037 0.00307079 -0.00285283 
v 0.00742076 0.00564112 -0.00285283 
v 0.00474177 0.0036046 -0.00285283 
v 0.00676735 0.00641037 -0.00285283 
v -0.00436626 0.00823563 -0.00285283 
v -0.00278998 0.00526246 -0.00285283 
v -0.00523109 0.00771528 -0.00285283 
v -0.0033426 0.00492996 -0.00285283 
v -0.00926683 0.00100783 -0.00285283 
v -0.00592138 0.000643989 -0.00285283 
v -0.00581705 0.00128043 -0.00285283 
v -0.00932147 1.14155e-18 -0.00285283 
v -0.0059563 7.29436e-19 -0.00285283 
v -0.00910354 -0.00200384 -0.00285283 
v -0.00581705 -0.00128043 -0.00285283 
v -0.00592138 -0.000643989 -0.00285283 
v -0.00883352 -0.00297636 -0.00285283 
v -0.00564451 -0.00190186 -0.00285283 
v 0.00932147 0 -0.00285283 
v 0.00926683 0.00100783 -0.00285283 
v -0.00603459 0.00710447 -0.00285283 
v -0.00385603 0.00453967 -0.00285283 
v -0.00676735 0.00641037 -0.00285283 
v -0.00432425 0.00409614 -0.00285283 
v -0.00845994 0.00391399 -0.00285283 
v -0.00540579 0.00250099 -0.00285283 
v -0.0051037 0.00307079 -0.00285283 
v -0.00883352 0.00297636 -0.00285283 
v -0.00564451 0.00190186 -0.00285283 
v -0.00926683 -0.00100783 -0.00285283 
v -0.00845994 -0.00391399 -0.00285283 
v -0.00540579 -0.00250099 -0.00285283 
v -0.00798717 -0.00480572 -0.00285283 
v -0.0051037 -0.00307079 -0.00285283 
v -0.00742076 -0.00564112 -0.00285283 
v -0.00474177 -0.0036046 -0.00285283 
v -0.00742076 0.00564112 -0.00285283 
v -0.00474177 0.0036046 -0.00285283 
v -0.00798717 0.00480572 -0.00285283 
v -0.00910354 0.00200384 -0.00285283 
v -0.00676735 -0.00641037 -0.00285283 
v -0.00432425 -0.00409614 -0.00285283 
v -0.00603459 -0.00710447 -0.00285283 
v -0.00385603 -0.00453967 -0.00285283 
v -0.00523109 -0.00771528 -0.00285283 
v -0.0033426 -0.00492996 -0.00285283 
v 0.00676735 -0.00641037 -0.00285283 
v 0.00432425 -0.00409614 -0.00285283 
v 0.00385603 -0.00453967 -0.00285283 
v 0.00742076 -0.00564112 -0.00285283 
v 0.00474177 -0.0036046 -0.00285283 
v 0.00845994 -0.00391399 -0.00285283 
v 0.00883352 -0.00297636 -0.00285283 
v 0.00564451 -0.00190186 -0.00285283 
v 0.00910354 -0.00200384 -0.00285283 
v 0.00581705 -0.00128043 -0.00285283 
v -0.00436626 -0.00823563 -0.00285283 
v -0.00278998 -0.00526246 -0.00285283 
v -0.00345023 -0.00865943 -0.00285283 
v -0.00220465 -0.00553326 -0.00285283 
v -0.00249376 -0.00898171 -0.00285283 
v -0.00159348 -0.00573919 -0.00285283 
v -0.00150805 -0.00919868 -0.00285283 
v -0.000963622 -0.00587783 -0.00285283 
v 0.00345023 -0.00865943 -0.00285283 
v 0.00220465 -0.00553326 -0.00285283 
v 0.00159348 -0.00573919 -0.00285283 
v 0.00436626 -0.00823563 -0.00285283 
v 0.00278998 -0.00526246 -0.00285283 
v 0.00798717 -0.00480572 -0.00285283 
v 0.0051037 -0.00307079 -0.00285283 
v 0.00540579 -0.00250099 -0.00285283 
v 0.000504654 -0.0093078 -0.00285283 
v 0.000322468 -0.00594756 -0.00285283 
v -0.000322468 -0.00594756 -0.00285283 
v 0.00150805 -0.00919868 -0.00285283 
v 0.000963622 -0.00587783 -0.00285283 
v 0.00249376 -0.00898171 -0.00285283 
v 0.00523109 -0.00771528 -0.00285283 
v 0.0033426 -0.00492996 -0.00285283 
v 0.00603459 -0.00710447 -0.00285283 
v 0.00926683 -0.00100783 -0.00285283 
v 0.00592138 -0.000643989 -0.00285283 
v 0.0059563 -1.45887e-18 -0.00285283 
v -0.000504654 -0.0093078 -0.00285283 
vn 0 0 1 
vn 0 0 1 
vn 0 0 1 
vn 0 0 1 
vn 0 0 1 
vn 0 0 1 
vn 0 0 1 
vn 0 0 1 
vn 0 0 1 
vn 0 0 1 
vn 0 0 1 
vn 0 0 1 
vn 0 0 1 
vn 0 0 1 
vn 0 0 1 
vn 0 0 1 
vn 0 0 1 
vn 0 0 1 
vn 0 0 1 
vn 0 0 1 
vn 0 0 1 
vn 0 0 1 
vn 0 0 1 
vn 0 0 1 
vn 0 0 1 
vn 0 0 1 
vn 0 0 1 
vn 0 0 1 
vn 0 0 1 
vn 0 0 1 
vn 0 0 1 
vn 0 0 1 
vn 0 0 1 
vn 0 0 1 
vn 0 0 1 
vn 0 0 1 
vn 0 0 1 
vn 0 0 1 
vn 0 0 1 
vn 0 0 1 
vn 0 0 1 
vn 0 0 1 
vn 0 0 1 
vn 0 0 1 
vn 0 0 1 
vn 0 0 1 
vn 0 0 1 
vn 0 0 1 
vn 0 0 1 
vn 0 0 1 
vn 0 0 1 
vn 0 0 1 
vn 0 0 1 
vn 0 0 1 
vn 0 0 1 
vn 0 0 1 
vn 0 0 1 
vn 0 0 1 
vn 0 0 1 
vn 0 0 1 
vn 0 0 1 
vn 0 0 1 
vn 0 0 1 
vn 0 0 1 
vn 0 0 1 
vn 0 0 1 
vn 0 0 1 
vn 0 0 1 
vn 0 0 1 
vn 0 0 1 
vn 0 0 1 
vn 0 0 1 
vn 0 0 1 
vn 0 0 1 
vn 0 0 1 
vn 0 0 1 
vn 0 0 1 
vn 0 0 1 
vn 0 0 1 
vn 0 0 1 
vn 0 0 1 
vn 0 0 1 
vn 0 0 1 
vn 0 0 1 
vn 0 0 1 
vn 0 0 1 
vn 0 0 1 
vn 0 0 1 
vn 0 0 1 
vn 0 0 1 
vn 0 0 1 
vn 0 0 1 
vn 0 0 1 
vn 0 0 1 
vn 0 0 1 
vn 0 0 1 
vn 0 0 1 
vn 0 0 1 
vn 0 0 1 
vn 0 0 1 
vn 0 0 1 
vn 0 0 1 
vn 0 0 1 
vn 0 0 1 
vn 0 0 1 
vn 0 0 1 
vn 0 0 1 
vn 0 0 1 
vn 0 0 1 
vn 0 0 1 
vn 0 0 1 
vn 0 0 1 
vn 0 0 1 
vn 0 0 1 
vn 0 0 1 
vn 0 0 1 
f 117//117 118//118 119//119 
f 117//117 120//120 121//121 
f 122//122 123//123 124//124 
f 125//125 126//126 123//123 
f 127//127 128//128 129//129 
f 127//127 130//130 131//131 
f 121//121 118//118 117//117 
f 120//120 132//132 133//133 
f 123//123 122//122 125//125 
f 125//125 134//134 135//135 
f 131//131 128//128 127//127 
f 130//130 136//136 137//137 
f 138//138 139//139 137//137 
f 138//138 140//140 119//119 
f 133//133 121//121 120//120 
f 132//132 141//141 142//142 
f 141//141 143//143 144//144 
f 143//143 145//145 146//146 
f 135//135 126//126 125//125 
f 134//134 147//147 148//148 
f 149//149 150//150 148//148 
f 149//149 151//151 129//129 
f 137//137 131//131 130//130 
f 119//119 139//139 138//138 
f 142//142 133//133 132//132 
f 146//146 144//144 143//143 
f 152//152 153//153 146//146 
f 152//152 154//154 155//155 
f 156//156 157//157 158//158 
f 159//159 160//160 157//157 
f 161//161 162//162 163//163 
f 161//161 164//164 165//165 
f 166//166 167//167 124//124 
f 148//148 135//135 134//134 
f 129//129 150//150 149//149 
f 137//137 136//136 138//138 
f 144//144 142//142 141//141 
f 155//155 153//153 152//152 
f 168//168 169//169 155//155 
f 168//168 170//170 171//171 
f 172//172 173//173 174//174 
f 172//172 175//175 176//176 
f 157//157 156//156 159//159 
f 159//159 177//177 163//163 
f 165//165 162//162 161//161 
f 164//164 178//178 179//179 
f 180//180 181//181 179//179 
f 180//180 182//182 183//183 
f 124//124 167//167 122//122 
f 129//129 151//151 127//127 
f 146//146 145//145 152//152 
f 171//171 169//169 168//168 
f 184//184 185//185 171//171 
f 184//184 186//186 174//174 
f 176//176 173//173 172//172 
f 175//175 187//187 158//158 
f 163//163 160//160 159//159 
f 179//179 165//165 164//164 
f 183//183 181//181 180//180 
f 182//182 188//188 189//189 
f 148//148 147//147 149//149 
f 155//155 154//154 168//168 
f 174//174 185//185 184//184 
f 158//158 176//176 175//175 
f 163//163 177//177 161//161 
f 189//189 183//183 182//182 
f 190//190 191//191 189//189 
f 190//190 192//192 193//193 
f 194//194 195//195 196//196 
f 194//194 197//197 198//198 
f 199//199 200//200 201//201 
f 200//200 202//202 203//203 
f 119//119 140//140 117//117 
f 174//174 186//186 172//172 
f 179//179 178//178 180//180 
f 193//193 191//191 190//190 
f 204//204 205//205 193//193 
f 204//204 206//206 207//207 
f 208//208 209//209 207//207 
f 208//208 210//210 211//211 
f 212//212 213//213 214//214 
f 212//212 215//215 216//216 
f 198//198 195//195 194//194 
f 197//197 217//217 218//218 
f 217//217 199//199 219//219 
f 203//203 201//201 200//200 
f 171//171 170//170 184//184 
f 189//189 188//188 190//190 
f 207//207 205//205 204//204 
f 211//211 209//209 208//208 
f 220//220 221//221 222//222 
f 220//220 223//223 224//224 
f 225//225 214//214 224//224 
f 216//216 213//213 212//212 
f 215//215 226//226 227//227 
f 226//226 228//228 196//196 
f 218//218 198//198 197//197 
f 201//201 219//219 199//199 
f 229//229 230//230 203//203 
f 166//166 231//231 230//230 
f 158//158 187//187 156//156 
f 207//207 206//206 208//208 
f 232//232 222//222 211//211 
f 224//224 221//221 220//220 
f 214//214 225//225 212//212 
f 196//196 227//227 226//226 
f 219//219 218//218 217//217 
f 230//230 229//229 166//166 
f 193//193 192//192 204//204 
f 222//222 232//232 220//220 
f 227//227 216//216 215//215 
f 203//203 202//202 229//229 
f 211//211 210//210 232//232 
f 196//196 228//228 194//194 
f 224//224 223//223 225//225 
f 124//124 231//231 166//166 
o mesh1455
v 0.00932147 0 -0.00285283 
v 0.00932147 -2.2831e-18 -0.00414734 
v 0.00926683 0.00100783 -0.00414734 
v 0.00926683 0.00100783 -0.00285283 
v 0.00910354 0.00200384 -0.00414734 
v 0.00910354 0.00200384 -0.00285283 
v 0.00883352 0.00297636 -0.00414734 
v 0.00883352 0.00297636 -0.00285283 
v 0.00845994 0.00391399 -0.00414734 
v 0.00845994 0.00391399 -0.00285283 
v 0.00798717 0.00480572 -0.00414734 
v 0.00798717 0.00480572 -0.00285283 
v 0.00742076 0.00564112 -0.00414734 
v 0.00742076 0.00564112 -0.00285283 
v 0.00676735 0.00641037 -0.00414734 
v 0.00676735 0.00641037 -0.00285283 
v 0.00603459 0.00710447 -0.00414734 
v 0.00603459 0.00710447 -0.00285283 
v 0.00523109 0.00771528 -0.00414734 
v 0.00523109 0.00771528 -0.00285283 
v 0.00436626 0.00823563 -0.00414734 
v 0.00436626 0.00823563 -0.00285283 
v 0.00345023 0.00865943 -0.00414734 
v 0.00345023 0.00865943 -0.00285283 
v 0.00249376 0.00898171 -0.00414734 
v 0.00249376 0.00898171 -0.00285283 
v 0.00150805 0.00919868 -0.00414734 
v 0.00150805 0.00919868 -0.00285283 
v 0.000504654 0.0093078 -0.00414734 
v 0.000504654 0.0093078 -0.00285283 
v -0.000504654 0.0093078 -0.00414734 
v -0.000504654 0.0093078 -0.00285283 
v -0.00150805 0.00919868 -0.00414734 
v -0.00150805 0.00919868 -0.00285283 
v -0.00249376 0.00898171 -0.00414734 
v -0.00249376 0.00898171 -0.00285283 
v -0.00345023 0.00865943 -0.00414734 
v -0.00345023 0.00865943 -0.00285283 
v -0.00436626 0.00823563 -0.00414734 
v -0.00436626 0.00823563 -0.00285283 
v -0.00523109 0.00771528 -0.00414734 
v -0.00523109 0.00771528 -0.00285283 
v -0.00603459 0.00710447 -0.00414734 
v -0.00603459 0.00710447 -0.00285283 
v -0.00676735 0.00641037 -0.00414734 
v -0.00676735 0.00641037 -0.00285283 
v -0.00742076 0.00564112 -0.00414734 
v -0.00742076 0.00564112 -0.00285283 
v -0.00798717 0.00480572 -0.00414734 
v -0.00798717 0.00480572 -0.00285283 
v -0.00845994 0.00391399 -0.00414734 
v -0.00845994 0.00391399 -0.00285283 
v -0.00883352 0.00297636 -0.00414734 
v -0.00883352 0.00297636 -0.00285283 
v -0.00910354 0.00200384 -0.00414734 
v -0.00910354 0.00200384 -0.00285283 
v -0.00926683 0.00100783 -0.00414734 
v -0.00926683 0.00100783 -0.00285283 
v -0.00932147 1.14155e-18 -0.00414734 
v -0.00932147 1.14155e-18 -0.00285283 
v -0.00926683 -0.00100783 -0.00414734 
v -0.00926683 -0.00100783 -0.00285283 
v -0.00910354 -0.00200384 -0.00414734 
v -0.00910354 -0.00200384 -0.00285283 
v -0.00883352 -0.00297636 -0.00414734 
v -0.00883352 -0.00297636 -0.00285283 
v -0.00845994 -0.00391399 -0.00414734 
v -0.00845994 -0.00391399 -0.00285283 
v -0.00798717 -0.00480572 -0.00414734 
v -0.00798717 -0.00480572 -0.00285283 
v -0.00742076 -0.00564112 -0.00414734 
v -0.00742076 -0.00564112 -0.00285283 
v -0.00676735 -0.00641037 -0.00414734 
v -0.00676735 -0.00641037 -0.00285283 
v -0.00603459 -0.00710447 -0.00414734 
v -0.00603459 -0.00710447 -0.00285283 
v -0.00523109 -0.00771528 -0.00414734 
v -0.00523109 -0.00771528 -0.00285283 
v -0.00436626 -0.00823563 -0.00414734 
v -0.00436626 -0.00823563 -0.00285283 
v -0.00345023 -0.00865943 -0.00414734 
v -0.00345023 -0.00865943 -0.00285283 
v -0.00249376 -0.00898171 -0.00414734 
v -0.00249376 -0.00898171 -0.00285283 
v -0.00150805 -0.00919868 -0.00414734 
v -0.00150805 -0.00919868 -0.00285283 
v -0.000504654 -0.0093078 -0.00414734 
v -0.000504654 -0.0093078 -0.00285283 
v 0.000504654 -0.0093078 -0.00414734 
v 0.000504654 -0.0093078 -0.00285283 
v 0.00150805 -0.00919868 -0.00414734 
v 0.00150805 -0.00919868 -0.00285283 
v 0.00249376 -0.00898171 -0.00414734 
v 0.00249376 -0.00898171 -0.00285283 
v 0.00345023 -0.00865943 -0.00414734 
v 0.00345023 -0.00865943 -0.00285283 
v 0.00436626 -0.00823563 -0.00414734 
v 0.00436626 -0.00823563 -0.00285283 
v 0.00523109 -0.00771528 -0.00414734 
v 0.00523109 -0.00771528 -0.00285283 
v 0.00603459 -0.00710447 -0.00414734 
v 0.00603459 -0.00710447 -0.00285283 
v 0.00676735 -0.00641037 -0.00414734 
v 0.00676735 -0.00641037 -0.00285283 
v 0.00742076 -0.00564112 -0.00414734 
v 0.00742076 -0.00564112 -0.00285283 
v 0.00798717 -0.00480572 -0.00414734 
v 0.00798717 -0.00480572 -0.00285283 
v 0.00845994 -0.00391399 -0.00414734 
v 0.00845994 -0.00391399 -0.00285283 
v 0.00883352 -0.00297636 -0.00414734 
v 0.00883352 -0.00297636 -0.00285283 
v 0.00910354 -0.00200384 -0.00414734 
v 0.00910354 -0.00200384 -0.00285283 
v 0.00926683 -0.00100783 -0.00414734 
v 0.00926683 -0.00100783 -0.00285283 
vn 1 0 0 
vn 1 0 0 
vn 0.994138 0.108119 0 
vn 0.994138 0.108119 0 
vn 0.976621 0.21497 0 
vn 0.976621 0.21497 0 
vn 0.947653 0.319302 0 
vn 0.947653 0.319302 0 
vn 0.907575 0.419889 0 
vn 0.907575 0.419889 0 
vn 0.856857 0.515554 0 
vn 0.856857 0.515554 0 
vn 0.796093 0.605174 0 
vn 0.796093 0.605174 0 
vn 0.725995 0.687699 0 
vn 0.725995 0.687699 0 
vn 0.647386 0.762162 0 
vn 0.647386 0.762162 0 
vn 0.561187 0.827689 0 
vn 0.561187 0.827689 0 
vn 0.468408 0.883512 0 
vn 0.468408 0.883512 0 
vn 0.370138 0.928977 0 
vn 0.370138 0.928977 0 
vn 0.267528 0.96355 0 
vn 0.267528 0.96355 0 
vn 0.161782 0.986827 0 
vn 0.161782 0.986827 0 
vn 0.0541389 0.998533 0 
vn 0.0541389 0.998533 0 
vn -0.0541389 0.998533 0 
vn -0.0541389 0.998533 0 
vn -0.161782 0.986827 0 
vn -0.161782 0.986827 0 
vn -0.267528 0.96355 0 
vn -0.267528 0.96355 0 
vn -0.370138 0.928977 0 
vn -0.370138 0.928977 0 
vn -0.468408 0.883512 0 
vn -0.468408 0.883512 0 
vn -0.561187 0.827689 0 
vn -0.561187 0.827689 0 
vn -0.647386 0.762162 0 
vn -0.647386 0.762162 0 
vn -0.725995 0.687699 0 
vn -0.725995 0.687699 0 
vn -0.796093 0.605174 0 
vn -0.796093 0.605174 0 
vn -0.856857 0.515554 0 
vn -0.856857 0.515554 0 
vn -0.907575 0.419889 0 
vn -0.907575 0.419889 0 
vn -0.947653 0.319302 0 
vn -0.947653 0.319302 0 
vn -0.976621 0.21497 0 
vn -0.976621 0.21497 0 
vn -0.994138 0.108119 0 
vn -0.994138 0.108119 0 
vn -1 1.22465e-16 0 
vn -1 1.22465e-16 0 
vn -0.994138 -0.108119 0 
vn -0.994138 -0.108119 0 
vn -0.976621 -0.21497 0 
vn -0.976621 -0.21497 0 
vn -0.947653 -0.319302 0 
vn -0.947653 -0.319302 0 
vn -0.907575 -0.419889 0 
vn -0.907575 -0.419889 0 
vn -0.856857 -0.515554 0 
vn -0.856857 -0.515554 0 
vn -0.796093 -0.605174 0 
vn -0.796093 -0.605174 0 
vn -0.725995 -0.687699 0 
vn -0.725995 -0.687699 0 
vn -0.647386 -0.762162 0 
vn -0.647386 -0.762162 0 
vn -0.561187 -0.827689 0 
vn -0.561187 -0.827689 0 
vn -0.468408 -0.883512 0 
vn -0.468408 -0.883512 0 
vn -0.370138 -0.928977 0 
vn -0.370138 -0.928977 0 
vn -0.267528 -0.96355 0 
vn -0.267528 -0.96355 0 
vn -0.161782 -0.986827 0 
vn -0.161782 -0.986827 0 
vn -0.0541389 -0.998533 0 
vn -0.0541389 -0.998533 0 
vn 0.0541389 -0.998533 0 
vn 0.0541389 -0.998533 0 
vn 0.161782 -0.986827 0 
vn 0.161782 -0.986827 0 
vn 0.267528 -0.96355 0 
vn 0.267528 -0.96355 0 
vn 0.370138 -0.928977 0 
vn 0.370138 -0.928977 0 
vn 0.468408 -0.883512 0 
vn 0.468408 -0.883512 0 
vn 0.561187 -0.827689 0 
vn 0.561187 -0.827689 0 
vn 0.647386 -0.762162 0 
vn 0.647386 -0.762162 0 
vn 0.725995 -0.687699 0 
vn 0.725995 -0.687699 0 
vn 0.796093 -0.605174 0 
vn 0.796093 -0.605174 0 
vn 0.856857 -0.515554 0 
vn 0.856857 -0.515554 0 
vn 0.907575 -0.419889 0 
vn 0.907575 -0.419889 0 
vn 0.947653 -0.319302 0 
vn 0.947653 -0.319302 0 
vn 0.976621 -0.21497 0 
vn 0.976621 -0.21497 0 
vn 0.994138 -0.108119 0 
vn 0.994138 -0.108119 0 
f 233//233 234//234 235//235 
f 236//236 235//235 237//237 
f 238//238 237//237 239//239 
f 240//240 239//239 241//241 
f 242//242 241//241 243//243 
f 244//244 243//243 245//245 
f 246//246 245//245 247//247 
f 248//248 247//247 249//249 
f 250//250 249//249 251//251 
f 252//252 251//251 253//253 
f 254//254 253//253 255//255 
f 256//256 255//255 257//257 
f 258//258 257//257 259//259 
f 260//260 259//259 261//261 
f 262//262 261//261 263//263 
f 264//264 263//263 265//265 
f 266//266 265//265 267//267 
f 268//268 267//267 269//269 
f 270//270 269//269 271//271 
f 272//272 271//271 273//273 
f 274//274 273//273 275//275 
f 276//276 275//275 277//277 
f 278//278 277//277 279//279 
f 280//280 279//279 281//281 
f 282//282 281//281 283//283 
f 284//284 283//283 285//285 
f 286//286 285//285 287//287 
f 288//288 287//287 289//289 
f 290//290 289//289 291//291 
f 292//292 291//291 293//293 
f 294//294 293//293 295//295 
f 296//296 295//295 297//297 
f 298//298 297//297 299//299 
f 300//300 299//299 301//301 
f 302//302 301//301 303//303 
f 304//304 303//303 305//305 
f 306//306 305//305 307//307 
f 308//308 307//307 309//309 
f 310//310 309//309 311//311 
f 312//312 311//311 313//313 
f 314//314 313//313 315//315 
f 316//316 315//315 317//317 
f 318//318 317//317 319//319 
f 320//320 319//319 321//321 
f 322//322 321//321 323//323 
f 324//324 323//323 325//325 
f 326//326 325//325 327//327 
f 328//328 327//327 329//329 
f 330//330 329//329 331//331 
f 332//332 331//331 333//333 
f 334//334 333//333 335//335 
f 336//336 335//335 337//337 
f 338//338 337//337 339//339 
f 340//340 339//339 341//341 
f 342//342 341//341 343//343 
f 344//344 343//343 345//345 
f 346//346 345//345 347//347 
f 348//348 347//347 234//234 
f 234//234 233//233 348//348 
f 347//347 348//348 346//346 
f 345//345 346//346 344//344 
f 343//343 344//344 342//342 
f 341//341 342//342 340//340 
f 339//339 340//340 338//338 
f 337//337 338//338 336//336 
f 335//335 336//336 334//334 
f 333//333 334//334 332//332 
f 331//331 332//332 330//330 
f 329//329 330//330 328//328 
f 327//327 328//328 326//326 
f 325//325 326//326 324//324 
f 323//323 324//324 322//322 
f 321//321 322//322 320//320 
f 319//319 320//320 318//318 
f 317//317 318//318 316//316 
f 315//315 316//316 314//314 
f 313//313 314//314 312//312 
f 311//311 312//312 310//310 
f 309//309 310//310 308//308 
f 307//307 308//308 306//306 
f 305//305 306//306 304//304 
f 303//303 304//304 302//302 
f 301//301 302//302 300//300 
f 299//299 300//300 298//298 
f 297//297 298//298 296//296 
f 295//295 296//296 294//294 
f 293//293 294//294 292//292 
f 291//291 292//292 290//290 
f 289//289 290//290 288//288 
f 287//287 288//288 286//286 
f 285//285 286//286 284//284 
f 283//283 284//284 282//282 
f 281//281 282//282 280//280 
f 279//279 280//280 278//278 
f 277//277 278//278 276//276 
f 275//275 276//276 274//274 
f 273//273 274//274 272//272 
f 271//271 272//272 270//270 
f 269//269 270//270 268//268 
f 267//267 268//268 266//266 
f 265//265 266//266 264//264 
f 263//263 264//264 262//262 
f 261//261 262//262 260//260 
f 259//259 260//260 258//258 
f 257//257 258//258 256//256 
f 255//255 256//256 254//254 
f 253//253 254//254 252//252 
f 251//251 252//252 250//250 
f 249//249 250//250 248//248 
f 247//247 248//248 246//246 
f 245//245 246//246 244//244 
f 243//243 244//244 242//242 
f 241//241 242//242 240//240 
f 239//239 240//240 238//238 
f 237//237 238//238 236//236 
f 235//235 236//236 233//233 
o mesh1456
v -0.00926683 0.00100783 -0.00414734 
v -0.00639509 0.000695508 -0.00414734 
v -0.0064328 -1.57558e-18 -0.00414734 
v -0.00910354 0.00200384 -0.00414734 
v -0.00628241 0.00138286 -0.00414734 
v -0.00883352 0.00297636 -0.00414734 
v -0.00609607 0.002054 -0.00414734 
v -0.00742076 0.00564112 -0.00414734 
v -0.00512111 0.00389297 -0.00414734 
v -0.00551199 0.00331646 -0.00414734 
v -0.00676735 0.00641037 -0.00414734 
v -0.00467019 0.00442384 -0.00414734 
v -0.00845994 0.00391399 -0.00414734 
v -0.00583825 0.00270106 -0.00414734 
v -0.00798717 0.00480572 -0.00414734 
v -0.00523109 0.00771528 -0.00414734 
v -0.00361001 0.00532436 -0.00414734 
v -0.00416451 0.00490284 -0.00414734 
v -0.00436626 0.00823563 -0.00414734 
v -0.00301318 0.00568346 -0.00414734 
v 0.00926683 -0.00100783 -0.00414734 
v 0.00639509 -0.000695508 -0.00414734 
v 0.0064328 7.87791e-19 -0.00414734 
v 0.00910354 -0.00200384 -0.00414734 
v 0.00628241 -0.00138286 -0.00414734 
v -0.00345023 0.00865943 -0.00414734 
v -0.00238103 0.00597593 -0.00414734 
v 0.00926683 0.00100783 -0.00414734 
v 0.00639509 0.000695508 -0.00414734 
v 0.00628241 0.00138286 -0.00414734 
v 0.00932147 -2.2831e-18 -0.00414734 
v 0.00883352 -0.00297636 -0.00414734 
v 0.00609607 -0.002054 -0.00414734 
v 0.00676735 -0.00641037 -0.00414734 
v 0.00467019 -0.00442384 -0.00414734 
v 0.00512111 -0.00389297 -0.00414734 
v 0.00603459 -0.00710447 -0.00414734 
v 0.00416451 -0.00490284 -0.00414734 
v 0.00523109 -0.00771528 -0.00414734 
v 0.00361001 -0.00532436 -0.00414734 
v 0.00436626 -0.00823563 -0.00414734 
v 0.00301318 -0.00568346 -0.00414734 
v 0.000504654 -0.0093078 -0.00414734 
v -0.000504654 -0.0093078 -0.00414734 
v -0.000348265 -0.00642337 -0.00414734 
v -0.00150805 -0.00919868 -0.00414734 
v -0.00104071 -0.00634806 -0.00414734 
v -0.00742076 -0.00564112 -0.00414734 
v -0.00512111 -0.00389297 -0.00414734 
v -0.00467019 -0.00442384 -0.00414734 
v -0.00798717 -0.00480572 -0.00414734 
v -0.00551199 -0.00331646 -0.00414734 
v -0.00603459 0.00710447 -0.00414734 
v -0.00249376 0.00898171 -0.00414734 
v -0.00172096 0.00619833 -0.00414734 
v -0.00150805 0.00919868 -0.00414734 
v -0.00104071 0.00634806 -0.00414734 
v -0.000504654 0.0093078 -0.00414734 
v -0.000348265 0.00642337 -0.00414734 
v 0.000504654 0.0093078 -0.00414734 
v 0.000348265 0.00642337 -0.00414734 
v 0.00150805 0.00919868 -0.00414734 
v 0.00104071 0.00634806 -0.00414734 
v 0.00436626 0.00823563 -0.00414734 
v 0.00301318 0.00568346 -0.00414734 
v 0.00238103 0.00597593 -0.00414734 
v 0.00523109 0.00771528 -0.00414734 
v 0.00361001 0.00532436 -0.00414734 
v 0.00883352 0.00297636 -0.00414734 
v 0.00609607 0.002054 -0.00414734 
v 0.00583825 0.00270106 -0.00414734 
v 0.00910354 0.00200384 -0.00414734 
v 0.00845994 -0.00391399 -0.00414734 
v 0.00583825 -0.00270106 -0.00414734 
v 0.00798717 -0.00480572 -0.00414734 
v 0.00551199 -0.00331646 -0.00414734 
v 0.00345023 -0.00865943 -0.00414734 
v 0.00238103 -0.00597593 -0.00414734 
v 0.00249376 -0.00898171 -0.00414734 
v 0.00172096 -0.00619833 -0.00414734 
v 0.000348265 -0.00642337 -0.00414734 
v 0.00104071 -0.00634806 -0.00414734 
v -0.00676735 -0.00641037 -0.00414734 
v -0.00416451 -0.00490284 -0.00414734 
v 0.00603459 0.00710447 -0.00414734 
v 0.00416451 0.00490284 -0.00414734 
v 0.00742076 0.00564112 -0.00414734 
v 0.00512111 0.00389297 -0.00414734 
v 0.00467019 0.00442384 -0.00414734 
v 0.00798717 0.00480572 -0.00414734 
v 0.00551199 0.00331646 -0.00414734 
v 0.00845994 0.00391399 -0.00414734 
v 0.00150805 -0.00919868 -0.00414734 
v -0.00436626 -0.00823563 -0.00414734 
v -0.00523109 -0.00771528 -0.00414734 
v -0.00361001 -0.00532436 -0.00414734 
v -0.00603459 -0.00710447 -0.00414734 
v -0.00845994 -0.00391399 -0.00414734 
v -0.00583825 -0.00270106 -0.00414734 
v 0.00249376 0.00898171 -0.00414734 
v 0.00172096 0.00619833 -0.00414734 
v 0.00345023 0.00865943 -0.00414734 
v 0.00676735 0.00641037 -0.00414734 
v 0.00742076 -0.00564112 -0.00414734 
v -0.00883352 -0.00297636 -0.00414734 
v -0.00609607 -0.002054 -0.00414734 
v -0.00910354 -0.00200384 -0.00414734 
v -0.00628241 -0.00138286 -0.00414734 
v -0.00926683 -0.00100783 -0.00414734 
v -0.00639509 -0.000695508 -0.00414734 
v -0.00932147 1.14155e-18 -0.00414734 
v -0.00249376 -0.00898171 -0.00414734 
v -0.00172096 -0.00619833 -0.00414734 
v -0.00345023 -0.00865943 -0.00414734 
v -0.00238103 -0.00597593 -0.00414734 
v -0.00301318 -0.00568346 -0.00414734 
vn 0 0 -1 
vn 0 0 -1 
vn 0 0 -1 
vn 0 0 -1 
vn 0 0 -1 
vn 0 0 -1 
vn 0 0 -1 
vn 0 0 -1 
vn 0 0 -1 
vn 0 0 -1 
vn 0 0 -1 
vn 0 0 -1 
vn 0 0 -1 
vn 0 0 -1 
vn 0 0 -1 
vn 0 0 -1 
vn 0 0 -1 
vn 0 0 -1 
vn 0 0 -1 
vn 0 0 -1 
vn 0 0 -1 
vn 0 0 -1 
vn 0 0 -1 
vn 0 0 -1 
vn 0 0 -1 
vn 0 0 -1 
vn 0 0 -1 
vn 0 0 -1 
vn 0 0 -1 
vn 0 0 -1 
vn 0 0 -1 
vn 0 0 -1 
vn 0 0 -1 
vn 0 0 -1 
vn 0 0 -1 
vn 0 0 -1 
vn 0 0 -1 
vn 0 0 -1 
vn 0 0 -1 
vn 0 0 -1 
vn 0 0 -1 
vn 0 0 -1 
vn 0 0 -1 
vn 0 0 -1 
vn 0 0 -1 
vn 0 0 -1 
vn 0 0 -1 
vn 0 0 -1 
vn 0 0 -1 
vn 0 0 -1 
vn 0 0 -1 
vn 0 0 -1 
vn 0 0 -1 
vn 0 0 -1 
vn 0 0 -1 
vn 0 0 -1 
vn 0 0 -1 
vn 0 0 -1 
vn 0 0 -1 
vn 0 0 -1 
vn 0 0 -1 
vn 0 0 -1 
vn 0 0 -1 
vn 0 0 -1 
vn 0 0 -1 
vn 0 0 -1 
vn 0 0 -1 
vn 0 0 -1 
vn 0 0 -1 
vn 0 0 -1 
vn 0 0 -1 
vn 0 0 -1 
vn 0 0 -1 
vn 0 0 -1 
vn 0 0 -1 
vn 0 0 -1 
vn 0 0 -1 
vn 0 0 -1 
vn 0 0 -1 
vn 0 0 -1 
vn 0 0 -1 
vn 0 0 -1 
vn 0 0 -1 
vn 0 0 -1 
vn 0 0 -1 
vn 0 0 -1 
vn 0 0 -1 
vn 0 0 -1 
vn 0 0 -1 
vn 0 0 -1 
vn 0 0 -1 
vn 0 0 -1 
vn 0 0 -1 
vn 0 0 -1 
vn 0 0 -1 
vn 0 0 -1 
vn 0 0 -1 
vn 0 0 -1 
vn 0 0 -1 
vn 0 0 -1 
vn 0 0 -1 
vn 0 0 -1 
vn 0 0 -1 
vn 0 0 -1 
vn 0 0 -1 
vn 0 0 -1 
vn 0 0 -1 
vn 0 0 -1 
vn 0 0 -1 
vn 0 0 -1 
vn 0 0 -1 
vn 0 0 -1 
vn 0 0 -1 
vn 0 0 -1 
vn 0 0 -1 
vn 0 0 -1 
f 349//349 350//350 351//351 
f 352//352 353//353 350//350 
f 350//350 349//349 352//352 
f 354//354 355//355 353//353 
f 356//356 357//357 358//358 
f 356//356 359//359 360//360 
f 353//353 352//352 354//354 
f 361//361 362//362 355//355 
f 363//363 358//358 362//362 
f 360//360 357//357 356//356 
f 364//364 365//365 366//366 
f 364//364 367//367 368//368 
f 369//369 370//370 371//371 
f 369//369 372//372 373//373 
f 355//355 354//354 361//361 
f 358//358 363//363 356//356 
f 368//368 365//365 364//364 
f 367//367 374//374 375//375 
f 376//376 377//377 378//378 
f 376//376 379//379 371//371 
f 373//373 370//370 369//369 
f 372//372 380//380 381//381 
f 382//382 383//383 384//384 
f 385//385 386//386 383//383 
f 387//387 388//388 386//386 
f 387//387 389//389 390//390 
f 391//391 392//392 393//393 
f 392//392 394//394 395//395 
f 396//396 397//397 398//398 
f 399//399 400//400 397//397 
f 362//362 361//361 363//363 
f 359//359 401//401 366//366 
f 375//375 368//368 367//367 
f 402//402 403//403 375//375 
f 404//404 405//405 403//403 
f 406//406 407//407 405//405 
f 408//408 409//409 407//407 
f 408//408 410//410 411//411 
f 412//412 413//413 414//414 
f 412//412 415//415 416//416 
f 417//417 418//418 419//419 
f 417//417 420//420 378//378 
f 371//371 377//377 376//376 
f 381//381 373//373 372//372 
f 421//421 422//422 381//381 
f 423//423 424//424 422//422 
f 383//383 382//382 385//385 
f 390//390 388//388 387//387 
f 389//389 425//425 426//426 
f 427//427 428//428 426//426 
f 391//391 429//429 430//430 
f 395//395 393//393 392//392 
f 431//431 398//398 432//432 
f 397//397 396//396 399//399 
f 366//366 360//360 359//359 
f 375//375 374//374 402//402 
f 405//405 404//404 406//406 
f 411//411 409//409 408//408 
f 416//416 413//413 412//412 
f 415//415 433//433 434//434 
f 435//435 436//436 437//437 
f 435//435 438//438 439//439 
f 440//440 419//419 439//439 
f 378//378 418//418 417//417 
f 371//371 379//379 369//369 
f 422//422 421//421 423//423 
f 386//386 385//385 387//387 
f 426//426 425//425 427//427 
f 441//441 430//430 428//428 
f 393//393 429//429 391//391 
f 442//442 443//443 444//444 
f 445//445 432//432 444//444 
f 398//398 431//431 396//396 
f 399//399 446//446 447//447 
f 366//366 401//401 364//364 
f 407//407 406//406 408//408 
f 448//448 449//449 411//411 
f 448//448 450//450 414//414 
f 434//434 416//416 415//415 
f 433//433 451//451 437//437 
f 439//439 436//436 435//435 
f 419//419 440//440 417//417 
f 381//381 380//380 421//421 
f 452//452 384//384 424//424 
f 426//426 390//390 389//389 
f 430//430 441//441 391//391 
f 444//444 443//443 445//445 
f 447//447 400//400 399//399 
f 453//453 454//454 447//447 
f 453//453 455//455 456//456 
f 403//403 402//402 404//404 
f 414//414 449//449 448//448 
f 437//437 434//434 433//433 
f 439//439 438//438 440//440 
f 424//424 423//423 452//452 
f 428//428 427//427 441//441 
f 432//432 445//445 431//431 
f 456//456 454//454 453//453 
f 457//457 458//458 456//456 
f 457//457 459//459 351//351 
f 411//411 410//410 448//448 
f 437//437 451//451 435//435 
f 384//384 452//452 382//382 
f 460//460 461//461 395//395 
f 462//462 463//463 461//461 
f 462//462 442//442 464//464 
f 447//447 446//446 453//453 
f 351//351 458//458 457//457 
f 414//414 450//450 412//412 
f 395//395 394//394 460//460 
f 464//464 463//463 462//462 
f 456//456 455//455 457//457 
f 378//378 420//420 376//376 
f 444//444 464//464 442//442 
f 461//461 460//460 462//462 
f 351//351 459//459 349//349 
o mesh1457
v -0.00639509 -0.000695508 -0.00414734 
v -0.0064328 -1.57558e-18 -0.00414734 
v -0.0064328 0 -0.00389334 
v -0.00628241 -0.00138286 -0.00414734 
v -0.00639509 -0.000695508 -0.00389334 
v -0.00609607 -0.002054 -0.00414734 
v -0.00628241 -0.00138286 -0.00389334 
v -0.00583825 -0.00270106 -0.00414734 
v -0.00609607 -0.002054 -0.00389334 
v -0.00551199 -0.00331646 -0.00414734 
v -0.00583825 -0.00270106 -0.00389334 
v -0.00512111 -0.00389297 -0.00414734 
v -0.00551199 -0.00331646 -0.00389334 
v -0.00467019 -0.00442384 -0.00414734 
v -0.00512111 -0.00389297 -0.00389334 
v -0.00416451 -0.00490284 -0.00414734 
v -0.00467019 -0.00442384 -0.00389334 
v -0.00361001 -0.00532436 -0.00414734 
v -0.00416451 -0.00490284 -0.00389334 
v -0.00301318 -0.00568346 -0.00414734 
v -0.00361001 -0.00532436 -0.00389334 
v -0.00238103 -0.00597593 -0.00414734 
v -0.00301318 -0.00568346 -0.00389334 
v -0.00172096 -0.00619833 -0.00414734 
v -0.00238103 -0.00597593 -0.00389334 
v -0.00104071 -0.00634806 -0.00414734 
v -0.00172096 -0.00619833 -0.00389334 
v -0.000348265 -0.00642337 -0.00414734 
v -0.00104071 -0.00634806 -0.00389334 
v 0.000348265 -0.00642337 -0.00414734 
v -0.000348265 -0.00642337 -0.00389334 
v 0.00104071 -0.00634806 -0.00414734 
v 0.000348265 -0.00642337 -0.00389334 
v 0.00172096 -0.00619833 -0.00414734 
v 0.00104071 -0.00634806 -0.00389334 
v 0.00238103 -0.00597593 -0.00414734 
v 0.00172096 -0.00619833 -0.00389334 
v 0.00301318 -0.00568346 -0.00414734 
v 0.00238103 -0.00597593 -0.00389334 
v 0.00361001 -0.00532436 -0.00414734 
v 0.00301318 -0.00568346 -0.00389334 
v 0.00416451 -0.00490284 -0.00414734 
v 0.00361001 -0.00532436 -0.00389334 
v 0.00467019 -0.00442384 -0.00414734 
v 0.00416451 -0.00490284 -0.00389334 
v 0.00512111 -0.00389297 -0.00414734 
v 0.00467019 -0.00442384 -0.00389334 
v 0.00551199 -0.00331646 -0.00414734 
v 0.00512111 -0.00389297 -0.00389334 
v 0.00583825 -0.00270106 -0.00414734 
v 0.00551199 -0.00331646 -0.00389334 
v 0.00609607 -0.002054 -0.00414734 
v 0.00583825 -0.00270106 -0.00389334 
v 0.00628241 -0.00138286 -0.00414734 
v 0.00609607 -0.002054 -0.00389334 
v 0.00639509 -0.000695508 -0.00414734 
v 0.00628241 -0.00138286 -0.00389334 
v 0.0064328 7.87791e-19 -0.00414734 
v 0.00639509 -0.000695508 -0.00389334 
v 0.00639509 0.000695508 -0.00414734 
v 0.0064328 7.87791e-19 -0.00389334 
v 0.00628241 0.00138286 -0.00414734 
v 0.00639509 0.000695508 -0.00389334 
v 0.00609607 0.002054 -0.00414734 
v 0.00628241 0.00138286 -0.00389334 
v 0.00583825 0.00270106 -0.00414734 
v 0.00609607 0.002054 -0.00389334 
v 0.00551199 0.00331646 -0.00414734 
v 0.00583825 0.00270106 -0.00389334 
v 0.00512111 0.00389297 -0.00414734 
v 0.00551199 0.00331646 -0.00389334 
v 0.00467019 0.00442384 -0.00414734 
v 0.00512111 0.00389297 -0.00389334 
v 0.00416451 0.00490284 -0.00414734 
v 0.00467019 0.00442384 -0.00389334 
v 0.00361001 0.00532436 -0.00414734 
v 0.00416451 0.00490284 -0.00389334 
v 0.00301318 0.00568346 -0.00414734 
v 0.00361001 0.00532436 -0.00389334 
v 0.00238103 0.00597593 -0.00414734 
v 0.00301318 0.00568346 -0.00389334 
v 0.00172096 0.00619833 -0.00414734 
v 0.00238103 0.00597593 -0.00389334 
v 0.00104071 0.00634806 -0.00414734 
v 0.00172096 0.00619833 -0.00389334 
v 0.000348265 0.00642337 -0.00414734 
v 0.00104071 0.00634806 -0.00389334 
v -0.000348265 0.00642337 -0.00414734 
v 0.000348265 0.00642337 -0.00389334 
v -0.00104071 0.00634806 -0.00414734 
v -0.000348265 0.00642337 -0.00389334 
v -0.00172096 0.00619833 -0.00414734 
v -0.00104071 0.00634806 -0.00389334 
v -0.00238103 0.00597593 -0.00414734 
v -0.00172096 0.00619833 -0.00389334 
v -0.00301318 0.00568346 -0.00414734 
v -0.00238103 0.00597593 -0.00389334 
v -0.00361001 0.00532436 -0.00414734 
v -0.00301318 0.00568346 -0.00389334 
v -0.00416451 0.00490284 -0.00414734 
v -0.00361001 0.00532436 -0.00389334 
v -0.00467019 0.00442384 -0.00414734 
v -0.00416451 0.00490284 -0.00389334 
v -0.00512111 0.00389297 -0.00414734 
v -0.00467019 0.00442384 -0.00389334 
v -0.00551199 0.00331646 -0.00414734 
v -0.00512111 0.00389297 -0.00389334 
v -0.00583825 0.00270106 -0.00414734 
v -0.00551199 0.00331646 -0.00389334 
v -0.00609607 0.002054 -0.00414734 
v -0.00583825 0.00270106 -0.00389334 
v -0.00628241 0.00138286 -0.00414734 
v -0.00609607 0.002054 -0.00389334 
v -0.00639509 0.000695508 -0.00414734 
v -0.00628241 0.00138286 -0.00389334 
v -0.00639509 0.000695508 -0.00389334 
vn 0.994138 0.108119 0 
vn 1 2.44929e-16 0 
vn 1 2.44929e-16 0 
vn 0.976621 0.21497 0 
vn 0.994138 0.108119 0 
vn 0.947653 0.319302 0 
vn 0.976621 0.21497 0 
vn 0.907575 0.419889 0 
vn 0.947653 0.319302 0 
vn 0.856857 0.515554 0 
vn 0.907575 0.419889 0 
vn 0.796093 0.605174 0 
vn 0.856857 0.515554 0 
vn 0.725995 0.687699 0 
vn 0.796093 0.605174 0 
vn 0.647386 0.762162 0 
vn 0.725995 0.687699 0 
vn 0.561187 0.827689 0 
vn 0.647386 0.762162 0 
vn 0.468408 0.883512 0 
vn 0.561187 0.827689 0 
vn 0.370138 0.928977 0 
vn 0.468408 0.883512 0 
vn 0.267528 0.96355 0 
vn 0.370138 0.928977 0 
vn 0.161782 0.986827 0 
vn 0.267528 0.96355 0 
vn 0.0541389 0.998533 0 
vn 0.161782 0.986827 0 
vn -0.0541389 0.998533 0 
vn 0.0541389 0.998533 0 
vn -0.161782 0.986827 0 
vn -0.0541389 0.998533 0 
vn -0.267528 0.96355 0 
vn -0.161782 0.986827 0 
vn -0.370138 0.928977 0 
vn -0.267528 0.96355 0 
vn -0.468408 0.883512 0 
vn -0.370138 0.928977 0 
vn -0.561187 0.827689 0 
vn -0.468408 0.883512 0 
vn -0.647386 0.762162 0 
vn -0.561187 0.827689 0 
vn -0.725995 0.687699 0 
vn -0.647386 0.762162 0 
vn -0.796093 0.605174 0 
vn -0.725995 0.687699 0 
vn -0.856857 0.515554 0 
vn -0.796093 0.605174 0 
vn -0.907575 0.419889 0 
vn -0.856857 0.515554 0 
vn -0.947653 0.319302 0 
vn -0.907575 0.419889 0 
vn -0.976621 0.21497 0 
vn -0.947653 0.319302 0 
vn -0.994138 0.108119 0 
vn -0.976621 0.21497 0 
vn -1 -1.22465e-16 0 
vn -0.994138 0.108119 0 
vn -0.994138 -0.108119 0 
vn -1 -1.22465e-16 0 
vn -0.976621 -0.21497 0 
vn -0.994138 -0.108119 0 
vn -0.947653 -0.319302 0 
vn -0.976621 -0.21497 0 
vn -0.907575 -0.419889 0 
vn -0.947653 -0.319302 0 
vn -0.856857 -0.515554 0 
vn -0.907575 -0.419889 0 
vn -0.796093 -0.605174 0 
vn -0.856857 -0.515554 0 
vn -0.725995 -0.687699 0 
vn -0.796093 -0.605174 0 
vn -0.647386 -0.762162 0 
vn -0.725995 -0.687699 0 
vn -0.561187 -0.827689 0 
vn -0.647386 -0.762162 0 
vn -0.468408 -0.883512 0 
vn -0.561187 -0.827689 0 
vn -0.370138 -0.928977 0 
vn -0.468408 -0.883512 0 
vn -0.267528 -0.96355 0 
vn -0.370138 -0.928977 0 
vn -0.161782 -0.986827 0 
vn -0.267528 -0.96355 0 
vn -0.0541389 -0.998533 0 
vn -0.161782 -0.986827 0 
vn 0.0541389 -0.998533 0 
vn -0.0541389 -0.998533 0 
vn 0.161782 -0.986827 0 
vn 0.0541389 -0.998533 0 
vn 0.267528 -0.96355 0 
vn 0.161782 -0.986827 0 
vn 0.370138 -0.928977 0 
vn 0.267528 -0.96355 0 
vn 0.468408 -0.883512 0 
vn 0.370138 -0.928977 0 
vn 0.561187 -0.827689 0 
vn 0.468408 -0.883512 0 
vn 0.647386 -0.762162 0 
vn 0.561187 -0.827689 0 
vn 0.725995 -0.687699 0 
vn 0.647386 -0.762162 0 
vn 0.796093 -0.605174 0 
vn 0.725995 -0.687699 0 
vn 0.856857 -0.515554 0 
vn 0.796093 -0.605174 0 
vn 0.907575 -0.419889 0 
vn 0.856857 -0.515554 0 
vn 0.947653 -0.319302 0 
vn 0.907575 -0.419889 0 
vn 0.976621 -0.21497 0 
vn 0.947653 -0.319302 0 
vn 0.994138 -0.108119 0 
vn 0.976621 -0.21497 0 
vn 0.994138 -0.108119 0 
f 465//465 466//466 467//467 
f 468//468 465//465 469//469 
f 470//470 468//468 471//471 
f 472//472 470//470 473//473 
f 474//474 472//472 475//475 
f 476//476 474//474 477//477 
f 478//478 476//476 479//479 
f 480//480 478//478 481//481 
f 482//482 480//480 483//483 
f 484//484 482//482 485//485 
f 486//486 484//484 487//487 
f 488//488 486//486 489//489 
f 490//490 488//488 491//491 
f 492//492 490//490 493//493 
f 494//494 492//492 495//495 
f 496//496 494//494 497//497 
f 498//498 496//496 499//499 
f 500//500 498//498 501//501 
f 502//502 500//500 503//503 
f 504//504 502//502 505//505 
f 506//506 504//504 507//507 
f 508//508 506//506 509//509 
f 510//510 508//508 511//511 
f 512//512 510//510 513//513 
f 514//514 512//512 515//515 
f 516//516 514//514 517//517 
f 518//518 516//516 519//519 
f 520//520 518//518 521//521 
f 522//522 520//520 523//523 
f 524//524 522//522 525//525 
f 526//526 524//524 527//527 
f 528//528 526//526 529//529 
f 530//530 528//528 531//531 
f 532//532 530//530 533//533 
f 534//534 532//532 535//535 
f 536//536 534//534 537//537 
f 538//538 536//536 539//539 
f 540//540 538//538 541//541 
f 542//542 540//540 543//543 
f 544//544 542//542 545//545 
f 546//546 544//544 547//547 
f 548//548 546//546 549//549 
f 550//550 548//548 551//551 
f 552//552 550//550 553//553 
f 554//554 552//552 555//555 
f 556//556 554//554 557//557 
f 558//558 556//556 559//559 
f 560//560 558//558 561//561 
f 562//562 560//560 563//563 
f 564//564 562//562 565//565 
f 566//566 564//564 567//567 
f 568//568 566//566 569//569 
f 570//570 568//568 571//571 
f 572//572 570//570 573//573 
f 574//574 572//572 575//575 
f 576//576 574//574 577//577 
f 578//578 576//576 579//579 
f 466//466 578//578 580//580 
f 580//580 467//467 466//466 
f 579//579 580//580 578//578 
f 577//577 579//579 576//576 
f 575//575 577//577 574//574 
f 573//573 575//575 572//572 
f 571//571 573//573 570//570 
f 569//569 571//571 568//568 
f 567//567 569//569 566//566 
f 565//565 567//567 564//564 
f 563//563 565//565 562//562 
f 561//561 563//563 560//560 
f 559//559 561//561 558//558 
f 557//557 559//559 556//556 
f 555//555 557//557 554//554 
f 553//553 555//555 552//552 
f 551//551 553//553 550//550 
f 549//549 551//551 548//548 
f 547//547 549//549 546//546 
f 545//545 547//547 544//544 
f 543//543 545//545 542//542 
f 541//541 543//543 540//540 
f 539//539 541//541 538//538 
f 537//537 539//539 536//536 
f 535//535 537//537 534//534 
f 533//533 535//535 532//532 
f 531//531 533//533 530//530 
f 529//529 531//531 528//528 
f 527//527 529//529 526//526 
f 525//525 527//527 524//524 
f 523//523 525//525 522//522 
f 521//521 523//523 520//520 
f 519//519 521//521 518//518 
f 517//517 519//519 516//516 
f 515//515 517//517 514//514 
f 513//513 515//515 512//512 
f 511//511 513//513 510//510 
f 509//509 511//511 508//508 
f 507//507 509//509 506//506 
f 505//505 507//507 504//504 
f 503//503 505//505 502//502 
f 501//501 503//503 500//500 
f 499//499 501//501 498//498 
f 497//497 499//499 496//496 
f 495//495 497//497 494//494 
f 493//493 495//495 492//492 
f 491//491 493//493 490//490 
f 489//489 491//491 488//488 
f 487//487 489//489 486//486 
f 485//485 487//487 484//484 
f 483//483 485//485 482//482 
f 481//481 483//483 480//480 
f 479//479 481//481 478//478 
f 477//477 479//479 476//476 
f 475//475 477//477 474//474 
f 473//473 475//475 472//472 
f 471//471 473//473 470//470 
f 469//469 471//471 468//468 
f 467//467 469//469 465//465 
o mesh1458
v -0.000348265 0.00642337 -0.00389334 
v -0.000322468 0.00594756 -0.00389334 
v -0.000963622 0.00587783 -0.00389334 
v 0.000348265 0.00642337 -0.00389334 
v 0.000322468 0.00594756 -0.00389334 
v 0.00104071 0.00634806 -0.00389334 
v 0.000963622 0.00587783 -0.00389334 
v 0.00172096 0.00619833 -0.00389334 
v 0.00159348 0.00573919 -0.00389334 
v 0.00238103 0.00597593 -0.00389334 
v 0.00220465 0.00553326 -0.00389334 
v 0.00301318 0.00568346 -0.00389334 
v 0.00278998 0.00526246 -0.00389334 
v 0.00609607 -0.002054 -0.00389334 
v 0.00564451 -0.00190186 -0.00389334 
v 0.00581705 -0.00128043 -0.00389334 
v 0.00583825 -0.00270106 -0.00389334 
v 0.00540579 -0.00250099 -0.00389334 
v 0.000348265 -0.00642337 -0.00389334 
v 0.000322468 -0.00594756 -0.00389334 
v 0.000963622 -0.00587783 -0.00389334 
v -0.000348265 -0.00642337 -0.00389334 
v -0.000322468 -0.00594756 -0.00389334 
v -0.00104071 -0.00634806 -0.00389334 
v -0.000963622 -0.00587783 -0.00389334 
v -0.00172096 -0.00619833 -0.00389334 
v -0.00159348 -0.00573919 -0.00389334 
v -0.00361001 -0.00532436 -0.00389334 
v -0.00416451 -0.00490284 -0.00389334 
v -0.00385603 -0.00453967 -0.00389334 
v -0.00467019 -0.00442384 -0.00389334 
v -0.00432425 -0.00409614 -0.00389334 
v -0.00628241 0.00138286 -0.00389334 
v -0.00609607 0.002054 -0.00389334 
v -0.00564451 0.00190186 -0.00389334 
v -0.00583825 0.00270106 -0.00389334 
v -0.00540579 0.00250099 -0.00389334 
v -0.00238103 0.00597593 -0.00389334 
v -0.00172096 0.00619833 -0.00389334 
v -0.00159348 0.00573919 -0.00389334 
v -0.00104071 0.00634806 -0.00389334 
v 0.00361001 0.00532436 -0.00389334 
v 0.0033426 0.00492996 -0.00389334 
v 0.00416451 0.00490284 -0.00389334 
v 0.00385603 0.00453967 -0.00389334 
v 0.00467019 0.00442384 -0.00389334 
v 0.00432425 0.00409614 -0.00389334 
v 0.00551199 0.00331646 -0.00389334 
v 0.00583825 0.00270106 -0.00389334 
v 0.00540579 0.00250099 -0.00389334 
v 0.00609607 0.002054 -0.00389334 
v 0.00564451 0.00190186 -0.00389334 
v 0.00628241 0.00138286 -0.00389334 
v 0.00581705 0.00128043 -0.00389334 
v 0.00639509 0.000695508 -0.00389334 
v 0.00592138 0.000643989 -0.00389334 
v 0.0064328 7.87791e-19 -0.00389334 
v 0.0059563 0 -0.00389334 
v 0.00639509 -0.000695508 -0.00389334 
v 0.00592138 -0.000643989 -0.00389334 
v 0.00551199 -0.00331646 -0.00389334 
v 0.0051037 -0.00307079 -0.00389334 
v -0.0033426 -0.00492996 -0.00389334 
v -0.00278998 -0.00526246 -0.00389334 
v -0.00551199 0.00331646 -0.00389334 
v -0.0051037 0.00307079 -0.00389334 
v -0.00512111 0.00389297 -0.00389334 
v -0.00474177 0.0036046 -0.00389334 
v -0.00467019 0.00442384 -0.00389334 
v -0.00432425 0.00409614 -0.00389334 
v -0.00301318 0.00568346 -0.00389334 
v -0.00278998 0.00526246 -0.00389334 
v -0.0033426 0.00492996 -0.00389334 
v -0.00220465 0.00553326 -0.00389334 
v 0.00512111 0.00389297 -0.00389334 
v 0.00474177 0.0036046 -0.00389334 
v 0.0051037 0.00307079 -0.00389334 
v 0.00628241 -0.00138286 -0.00389334 
v 0.00512111 -0.00389297 -0.00389334 
v 0.00474177 -0.0036046 -0.00389334 
v -0.00238103 -0.00597593 -0.00389334 
v -0.00220465 -0.00553326 -0.00389334 
v -0.00301318 -0.00568346 -0.00389334 
v -0.00512111 -0.00389297 -0.00389334 
v -0.00551199 -0.00331646 -0.00389334 
v -0.0051037 -0.00307079 -0.00389334 
v -0.00583825 -0.00270106 -0.00389334 
v -0.00540579 -0.00250099 -0.00389334 
v -0.00628241 -0.00138286 -0.00389334 
v -0.00581705 -0.00128043 -0.00389334 
v -0.00564451 -0.00190186 -0.00389334 
v -0.00639509 -0.000695508 -0.00389334 
v -0.00592138 -0.000643989 -0.00389334 
v -0.00639509 0.000695508 -0.00389334 
v -0.00592138 0.000643989 -0.00389334 
v -0.0059563 7.29436e-19 -0.00389334 
v -0.00581705 0.00128043 -0.00389334 
v -0.00416451 0.00490284 -0.00389334 
v -0.00385603 0.00453967 -0.00389334 
v -0.00361001 0.00532436 -0.00389334 
v 0.00467019 -0.00442384 -0.00389334 
v 0.00432425 -0.00409614 -0.00389334 
v 0.00416451 -0.00490284 -0.00389334 
v 0.00385603 -0.00453967 -0.00389334 
v 0.00361001 -0.00532436 -0.00389334 
v 0.0033426 -0.00492996 -0.00389334 
v -0.00474177 -0.0036046 -0.00389334 
v -0.00609607 -0.002054 -0.00389334 
v 0.00301318 -0.00568346 -0.00389334 
v 0.00278998 -0.00526246 -0.00389334 
v 0.00238103 -0.00597593 -0.00389334 
v 0.00220465 -0.00553326 -0.00389334 
v 0.00172096 -0.00619833 -0.00389334 
v 0.00159348 -0.00573919 -0.00389334 
v 0.00104071 -0.00634806 -0.00389334 
v -0.0064328 0 -0.00389334 
vn 0 0 -1 
vn 0 0 -1 
vn 0 0 -1 
vn 0 0 -1 
vn 0 0 -1 
vn 0 0 -1 
vn 0 0 -1 
vn 0 0 -1 
vn 0 0 -1 
vn 0 0 -1 
vn 0 0 -1 
vn 0 0 -1 
vn 0 0 -1 
vn 0 0 -1 
vn 0 0 -1 
vn 0 0 -1 
vn 0 0 -1 
vn 0 0 -1 
vn 0 0 -1 
vn 0 0 -1 
vn 0 0 -1 
vn 0 0 -1 
vn 0 0 -1 
vn 0 0 -1 
vn 0 0 -1 
vn 0 0 -1 
vn 0 0 -1 
vn 0 0 -1 
vn 0 0 -1 
vn 0 0 -1 
vn 0 0 -1 
vn 0 0 -1 
vn 0 0 -1 
vn 0 0 -1 
vn 0 0 -1 
vn 0 0 -1 
vn 0 0 -1 
vn 0 0 -1 
vn 0 0 -1 
vn 0 0 -1 
vn 0 0 -1 
vn 0 0 -1 
vn 0 0 -1 
vn 0 0 -1 
vn 0 0 -1 
vn 0 0 -1 
vn 0 0 -1 
vn 0 0 -1 
vn 0 0 -1 
vn 0 0 -1 
vn 0 0 -1 
vn 0 0 -1 
vn 0 0 -1 
vn 0 0 -1 
vn 0 0 -1 
vn 0 0 -1 
vn 0 0 -1 
vn 0 0 -1 
vn 0 0 -1 
vn 0 0 -1 
vn 0 0 -1 
vn 0 0 -1 
vn 0 0 -1 
vn 0 0 -1 
vn 0 0 -1 
vn 0 0 -1 
vn 0 0 -1 
vn 0 0 -1 
vn 0 0 -1 
vn 0 0 -1 
vn 0 0 -1 
vn 0 0 -1 
vn 0 0 -1 
vn 0 0 -1 
vn 0 0 -1 
vn 0 0 -1 
vn 0 0 -1 
vn 0 0 -1 
vn 0 0 -1 
vn 0 0 -1 
vn 0 0 -1 
vn 0 0 -1 
vn 0 0 -1 
vn 0 0 -1 
vn 0 0 -1 
vn 0 0 -1 
vn 0 0 -1 
vn 0 0 -1 
vn 0 0 -1 
vn 0 0 -1 
vn 0 0 -1 
vn 0 0 -1 
vn 0 0 -1 
vn 0 0 -1 
vn 0 0 -1 
vn 0 0 -1 
vn 0 0 -1 
vn 0 0 -1 
vn 0 0 -1 
vn 0 0 -1 
vn 0 0 -1 
vn 0 0 -1 
vn 0 0 -1 
vn 0 0 -1 
vn 0 0 -1 
vn 0 0 -1 
vn 0 0 -1 
vn 0 0 -1 
vn 0 0 -1 
vn 0 0 -1 
vn 0 0 -1 
vn 0 0 -1 
vn 0 0 -1 
vn 0 0 -1 
vn 0 0 -1 
vn 0 0 -1 
f 581//581 582//582 583//583 
f 584//584 585//585 582//582 
f 584//584 586//586 587//587 
f 586//586 588//588 589//589 
f 588//588 590//590 591//591 
f 590//590 592//592 593//593 
f 594//594 595//595 596//596 
f 597//597 598//598 595//595 
f 599//599 600//600 601//601 
f 602//602 603//603 600//600 
f 602//602 604//604 605//605 
f 604//604 606//606 607//607 
f 608//608 609//609 610//610 
f 609//609 611//611 612//612 
f 613//613 614//614 615//615 
f 614//614 616//616 617//617 
f 618//618 619//619 620//620 
f 619//619 621//621 583//583 
f 582//582 581//581 584//584 
f 589//589 587//587 586//586 
f 593//593 591//591 590//590 
f 622//622 623//623 593//593 
f 624//624 625//625 623//623 
f 626//626 627//627 625//625 
f 628//628 629//629 630//630 
f 629//629 631//631 632//632 
f 631//631 633//633 634//634 
f 633//633 635//635 636//636 
f 635//635 637//637 638//638 
f 639//639 640//640 638//638 
f 595//595 594//594 597//597 
f 641//641 642//642 598//598 
f 600//600 599//599 602//602 
f 607//607 605//605 604//604 
f 608//608 643//643 644//644 
f 612//612 610//610 609//609 
f 617//617 615//615 614//614 
f 616//616 645//645 646//646 
f 645//645 647//647 648//648 
f 647//647 649//649 650//650 
f 651//651 652//652 653//653 
f 651//651 618//618 654//654 
f 583//583 620//620 619//619 
f 587//587 585//585 584//584 
f 593//593 592//592 622//622 
f 625//625 624//624 626//626 
f 626//626 655//655 656//656 
f 655//655 628//628 657//657 
f 632//632 630//630 629//629 
f 636//636 634//634 633//633 
f 638//638 637//637 639//639 
f 658//658 596//596 640//640 
f 598//598 597//597 641//641 
f 641//641 659//659 660//660 
f 605//605 603//603 602//602 
f 606//606 661//661 662//662 
f 663//663 644//644 662//662 
f 610//610 643//643 608//608 
f 664//664 665//665 666//666 
f 667//667 668//668 666//666 
f 669//669 670//670 671//671 
f 672//672 673//673 670//670 
f 674//674 675//675 676//676 
f 674//674 613//613 677//677 
f 646//646 617//617 616//616 
f 650//650 648//648 647//647 
f 649//649 678//678 679//679 
f 678//678 680//680 653//653 
f 654//654 652//652 651//651 
f 583//583 621//621 581//581 
f 623//623 622//622 624//624 
f 657//657 656//656 655//655 
f 634//634 632//632 631//631 
f 640//640 639//639 658//658 
f 660//660 642//642 641//641 
f 659//659 681//681 682//682 
f 681//681 683//683 684//684 
f 683//683 685//685 686//686 
f 662//662 607//607 606//606 
f 644//644 663//663 608//608 
f 611//611 664//664 687//687 
f 666//666 665//665 667//667 
f 688//688 671//671 668//668 
f 670//670 669//669 672//672 
f 677//677 675//675 674//674 
f 648//648 646//646 645//645 
f 653//653 679//679 678//678 
f 620//620 654//654 618//618 
f 656//656 627//627 626//626 
f 638//638 636//636 635//635 
f 682//682 660//660 659//659 
f 686//686 684//684 683//683 
f 689//689 690//690 686//686 
f 691//691 692//692 690//690 
f 691//691 693//693 694//694 
f 693//693 695//695 601//601 
f 662//662 661//661 663//663 
f 666//666 687//687 664//664 
f 671//671 688//688 669//669 
f 696//696 676//676 673//673 
f 615//615 677//677 613//613 
f 653//653 680//680 651//651 
f 630//630 657//657 628//628 
f 684//684 682//682 681//681 
f 690//690 689//689 691//691 
f 601//601 694//694 693//693 
f 687//687 612//612 611//611 
f 673//673 672//672 696//696 
f 679//679 650//650 649//649 
f 596//596 658//658 594//594 
f 694//694 692//692 691//691 
f 668//668 667//667 688//688 
f 591//591 589//589 588//588 
f 601//601 695//695 599//599 
f 686//686 685//685 689//689 
f 676//676 696//696 674//674 
