# OBJ generated by ONSHAPE BY PTC INC, 1.215 Units = meters
mtllib _6384K344_Ball_Bearing_16.mtl
g 6384K344_Ball Bearing
usemtl 0.752941_0.752941_0.752941_0.000000_0.000000
o mesh1502
v -0.00436626 0.00823563 0.00414734 
v -0.00306973 0.00579012 0.00414734 
v -0.00242571 0.00608807 0.00414734 
v -0.00523109 0.00771528 0.00414734 
v -0.00367775 0.00542428 0.00414734 
v -0.00603459 0.00710447 0.00414734 
v -0.00424266 0.00499485 0.00414734 
v -0.00676735 0.00641037 0.00414734 
v -0.00475783 0.00450686 0.00414734 
v -0.00249376 0.00898171 0.00414734 
v -0.00175325 0.00631465 0.00414734 
v -0.00106024 0.00646719 0.00414734 
v -0.00345023 0.00865943 0.00414734 
v 0.00742076 0.00564112 0.00414734 
v 0.00521722 0.00396602 0.00414734 
v 0.00561544 0.0033787 0.00414734 
v 0.00676735 0.00641037 0.00414734 
v 0.00475783 0.00450686 0.00414734 
v 0.00603459 0.00710447 0.00414734 
v 0.00424266 0.00499485 0.00414734 
v 0.00523109 0.00771528 0.00414734 
v 0.00367775 0.00542428 0.00414734 
v 0.00345023 0.00865943 0.00414734 
v 0.00242571 0.00608807 0.00414734 
v 0.00306973 0.00579012 0.00414734 
v 0.00249376 0.00898171 0.00414734 
v 0.00175325 0.00631465 0.00414734 
v 0.000504654 0.0093078 0.00414734 
v 0.000354801 0.00654391 0.00414734 
v 0.00106024 0.00646719 0.00414734 
v -0.000504654 0.0093078 0.00414734 
v -0.000354801 0.00654391 0.00414734 
v -0.00742076 0.00564112 0.00414734 
v -0.00521722 0.00396602 0.00414734 
v -0.00798717 0.00480572 0.00414734 
v -0.00561544 0.0033787 0.00414734 
v -0.00883352 0.00297636 0.00414734 
v -0.00621047 0.00209255 0.00414734 
v -0.00594782 0.00275175 0.00414734 
v -0.00910354 0.00200384 0.00414734 
v -0.00640031 0.00140881 0.00414734 
v -0.00932147 1.14155e-18 0.00414734 
v -0.00655353 8.02575e-19 0.00414734 
v -0.00651511 0.000708561 0.00414734 
v -0.00926683 -0.00100783 0.00414734 
v -0.00651511 -0.000708561 0.00414734 
v 0.00150805 -0.00919868 0.00414734 
v 0.00106024 -0.00646719 0.00414734 
v 0.000354801 -0.00654391 0.00414734 
v 0.00249376 -0.00898171 0.00414734 
v 0.00175325 -0.00631465 0.00414734 
v 0.00910354 0.00200384 0.00414734 
v 0.00640031 0.00140881 0.00414734 
v 0.00651511 0.000708561 0.00414734 
v 0.00883352 0.00297636 0.00414734 
v 0.00621047 0.00209255 0.00414734 
v 0.00845994 0.00391399 0.00414734 
v 0.00594782 0.00275175 0.00414734 
v 0.00798717 0.00480572 0.00414734 
v 0.00436626 0.00823563 0.00414734 
v -0.00150805 0.00919868 0.00414734 
v -0.00845994 0.00391399 0.00414734 
v -0.00926683 0.00100783 0.00414734 
v -0.00910354 -0.00200384 0.00414734 
v -0.00640031 -0.00140881 0.00414734 
v -0.00883352 -0.00297636 0.00414734 
v -0.00621047 -0.00209255 0.00414734 
v 0.00345023 -0.00865943 0.00414734 
v 0.00242571 -0.00608807 0.00414734 
v 0.00845994 -0.00391399 0.00414734 
v 0.00883352 -0.00297636 0.00414734 
v 0.00621047 -0.00209255 0.00414734 
v 0.00910354 -0.00200384 0.00414734 
v 0.00640031 -0.00140881 0.00414734 
v 0.00150805 0.00919868 0.00414734 
v 0.00436626 -0.00823563 0.00414734 
v 0.00306973 -0.00579012 0.00414734 
v 0.00676735 -0.00641037 0.00414734 
v 0.00475783 -0.00450686 0.00414734 
v 0.00424266 -0.00499485 0.00414734 
v 0.00742076 -0.00564112 0.00414734 
v 0.00521722 -0.00396602 0.00414734 
v 0.00798717 -0.00480572 0.00414734 
v 0.00561544 -0.0033787 0.00414734 
v 0.00594782 -0.00275175 0.00414734 
v 0.00926683 -0.00100783 0.00414734 
v 0.00651511 -0.000708561 0.00414734 
v 0.00932147 0 0.00414734 
v 0.00926683 0.00100783 0.00414734 
v -0.00845994 -0.00391399 0.00414734 
v -0.00594782 -0.00275175 0.00414734 
v -0.00798717 -0.00480572 0.00414734 
v -0.00561544 -0.0033787 0.00414734 
v 0.00523109 -0.00771528 0.00414734 
v 0.00367775 -0.00542428 0.00414734 
v 0.00655353 -1.60515e-18 0.00414734 
v -0.00436626 -0.00823563 0.00414734 
v -0.00306973 -0.00579012 0.00414734 
v -0.00367775 -0.00542428 0.00414734 
v -0.00345023 -0.00865943 0.00414734 
v -0.00242571 -0.00608807 0.00414734 
v 0.00603459 -0.00710447 0.00414734 
v -0.00742076 -0.00564112 0.00414734 
v -0.00521722 -0.00396602 0.00414734 
v -0.00676735 -0.00641037 0.00414734 
v -0.00475783 -0.00450686 0.00414734 
v -0.00603459 -0.00710447 0.00414734 
v -0.00424266 -0.00499485 0.00414734 
v -0.00523109 -0.00771528 0.00414734 
v -0.00249376 -0.00898171 0.00414734 
v -0.00175325 -0.00631465 0.00414734 
v -0.00150805 -0.00919868 0.00414734 
v -0.00106024 -0.00646719 0.00414734 
v -0.000504654 -0.0093078 0.00414734 
v -0.000354801 -0.00654391 0.00414734 
v 0.000504654 -0.0093078 0.00414734 
vn 0 0 1 
vn 0 0 1 
vn 0 0 1 
vn 0 0 1 
vn 0 0 1 
vn 0 0 1 
vn 0 0 1 
vn 0 0 1 
vn 0 0 1 
vn 0 0 1 
vn 0 0 1 
vn 0 0 1 
vn 0 0 1 
vn 0 0 1 
vn 0 0 1 
vn 0 0 1 
vn 0 0 1 
vn 0 0 1 
vn 0 0 1 
vn 0 0 1 
vn 0 0 1 
vn 0 0 1 
vn 0 0 1 
vn 0 0 1 
vn 0 0 1 
vn 0 0 1 
vn 0 0 1 
vn 0 0 1 
vn 0 0 1 
vn 0 0 1 
vn 0 0 1 
vn 0 0 1 
vn 0 0 1 
vn 0 0 1 
vn 0 0 1 
vn 0 0 1 
vn 0 0 1 
vn 0 0 1 
vn 0 0 1 
vn 0 0 1 
vn 0 0 1 
vn 0 0 1 
vn 0 0 1 
vn 0 0 1 
vn 0 0 1 
vn 0 0 1 
vn 0 0 1 
vn 0 0 1 
vn 0 0 1 
vn 0 0 1 
vn 0 0 1 
vn 0 0 1 
vn 0 0 1 
vn 0 0 1 
vn 0 0 1 
vn 0 0 1 
vn 0 0 1 
vn 0 0 1 
vn 0 0 1 
vn 0 0 1 
vn 0 0 1 
vn 0 0 1 
vn 0 0 1 
vn 0 0 1 
vn 0 0 1 
vn 0 0 1 
vn 0 0 1 
vn 0 0 1 
vn 0 0 1 
vn 0 0 1 
vn 0 0 1 
vn 0 0 1 
vn 0 0 1 
vn 0 0 1 
vn 0 0 1 
vn 0 0 1 
vn 0 0 1 
vn 0 0 1 
vn 0 0 1 
vn 0 0 1 
vn 0 0 1 
vn 0 0 1 
vn 0 0 1 
vn 0 0 1 
vn 0 0 1 
vn 0 0 1 
vn 0 0 1 
vn 0 0 1 
vn 0 0 1 
vn 0 0 1 
vn 0 0 1 
vn 0 0 1 
vn 0 0 1 
vn 0 0 1 
vn 0 0 1 
vn 0 0 1 
vn 0 0 1 
vn 0 0 1 
vn 0 0 1 
vn 0 0 1 
vn 0 0 1 
vn 0 0 1 
vn 0 0 1 
vn 0 0 1 
vn 0 0 1 
vn 0 0 1 
vn 0 0 1 
vn 0 0 1 
vn 0 0 1 
vn 0 0 1 
vn 0 0 1 
vn 0 0 1 
vn 0 0 1 
vn 0 0 1 
vn 0 0 1 
vn 0 0 1 
f 1//1 2//2 3//3 
f 1//1 4//4 5//5 
f 6//6 7//7 5//5 
f 6//6 8//8 9//9 
f 10//10 11//11 12//12 
f 10//10 13//13 3//3 
f 5//5 2//2 1//1 
f 9//9 7//7 6//6 
f 14//14 15//15 16//16 
f 17//17 18//18 15//15 
f 19//19 20//20 18//18 
f 19//19 21//21 22//22 
f 23//23 24//24 25//25 
f 23//23 26//26 27//27 
f 28//28 29//29 30//30 
f 28//28 31//31 32//32 
f 3//3 11//11 10//10 
f 5//5 4//4 6//6 
f 33//33 34//34 9//9 
f 33//33 35//35 36//36 
f 37//37 38//38 39//39 
f 37//37 40//40 41//41 
f 42//42 43//43 44//44 
f 42//42 45//45 46//46 
f 47//47 48//48 49//49 
f 47//47 50//50 51//51 
f 52//52 53//53 54//54 
f 52//52 55//55 56//56 
f 57//57 58//58 56//56 
f 57//57 59//59 16//16 
f 15//15 14//14 17//17 
f 22//22 20//20 19//19 
f 21//21 60//60 25//25 
f 27//27 24//24 23//23 
f 32//32 29//29 28//28 
f 31//31 61//61 12//12 
f 3//3 13//13 1//1 
f 36//36 34//34 33//33 
f 62//62 39//39 36//36 
f 41//41 38//38 37//37 
f 63//63 44//44 41//41 
f 46//46 43//43 42//42 
f 64//64 65//65 46//46 
f 64//64 66//66 67//67 
f 51//51 48//48 47//47 
f 50//50 68//68 69//69 
f 70//70 71//71 72//72 
f 73//73 74//74 72//72 
f 56//56 53//53 52//52 
f 16//16 58//58 57//57 
f 18//18 17//17 19//19 
f 25//25 60//60 23//23 
f 75//75 30//30 27//27 
f 12//12 32//32 31//31 
f 9//9 8//8 33//33 
f 39//39 62//62 37//37 
f 44//44 63//63 42//42 
f 67//67 65//65 64//64 
f 69//69 51//51 50//50 
f 68//68 76//76 77//77 
f 78//78 79//79 80//80 
f 78//78 81//81 82//82 
f 81//81 83//83 84//84 
f 83//83 70//70 85//85 
f 72//72 71//71 73//73 
f 86//86 87//87 74//74 
f 88//88 89//89 54//54 
f 56//56 55//55 57//57 
f 25//25 22//22 21//21 
f 30//30 75//75 28//28 
f 36//36 35//35 62//62 
f 46//46 45//45 64//64 
f 90//90 91//91 67//67 
f 90//90 92//92 93//93 
f 77//77 69//69 68//68 
f 76//76 94//94 95//95 
f 82//82 79//79 78//78 
f 85//85 84//84 83//83 
f 74//74 73//73 86//86 
f 88//88 96//96 87//87 
f 54//54 89//89 52//52 
f 27//27 26//26 75//75 
f 41//41 40//40 63//63 
f 93//93 91//91 90//90 
f 97//97 98//98 99//99 
f 97//97 100//100 101//101 
f 95//95 77//77 76//76 
f 94//94 102//102 80//80 
f 84//84 82//82 81//81 
f 87//87 86//86 88//88 
f 16//16 59//59 14//14 
f 67//67 66//66 90//90 
f 103//103 104//104 93//93 
f 103//103 105//105 106//106 
f 107//107 108//108 106//106 
f 107//107 109//109 99//99 
f 101//101 98//98 97//97 
f 100//100 110//110 111//111 
f 80//80 95//95 94//94 
f 72//72 85//85 70//70 
f 12//12 61//61 10//10 
f 106//106 104//104 103//103 
f 99//99 108//108 107//107 
f 111//111 101//101 100//100 
f 112//112 113//113 111//111 
f 112//112 114//114 115//115 
f 116//116 49//49 115//115 
f 80//80 102//102 78//78 
f 93//93 92//92 103//103 
f 99//99 109//109 97//97 
f 115//115 113//113 112//112 
f 49//49 116//116 47//47 
f 106//106 105//105 107//107 
f 115//115 114//114 116//116 
f 111//111 110//110 112//112 
f 54//54 96//96 88//88 
o mesh1503
v 0.00651511 -0.000708561 0.00414734 
v 0.00655353 -1.60515e-18 0.00414734 
v 0.00655353 0 0.00285283 
v 0.00640031 -0.00140881 0.00414734 
v 0.00651511 -0.000708561 0.00285283 
v 0.00621047 -0.00209255 0.00414734 
v 0.00640031 -0.00140881 0.00285283 
v 0.00594782 -0.00275175 0.00414734 
v 0.00621047 -0.00209255 0.00285283 
v 0.00561544 -0.0033787 0.00414734 
v 0.00594782 -0.00275175 0.00285283 
v 0.00521722 -0.00396602 0.00414734 
v 0.00561544 -0.0033787 0.00285283 
v 0.00475783 -0.00450686 0.00414734 
v 0.00521722 -0.00396602 0.00285283 
v 0.00424266 -0.00499485 0.00414734 
v 0.00475783 -0.00450686 0.00285283 
v 0.00367775 -0.00542428 0.00414734 
v 0.00424266 -0.00499485 0.00285283 
v 0.00306973 -0.00579012 0.00414734 
v 0.00367775 -0.00542428 0.00285283 
v 0.00242571 -0.00608807 0.00414734 
v 0.00306973 -0.00579012 0.00285283 
v 0.00175325 -0.00631465 0.00414734 
v 0.00242571 -0.00608807 0.00285283 
v 0.00106024 -0.00646719 0.00414734 
v 0.00175325 -0.00631465 0.00285283 
v 0.000354801 -0.00654391 0.00414734 
v 0.00106024 -0.00646719 0.00285283 
v -0.000354801 -0.00654391 0.00414734 
v 0.000354801 -0.00654391 0.00285283 
v -0.00106024 -0.00646719 0.00414734 
v -0.000354801 -0.00654391 0.00285283 
v -0.00175325 -0.00631465 0.00414734 
v -0.00106024 -0.00646719 0.00285283 
v -0.00242571 -0.00608807 0.00414734 
v -0.00175325 -0.00631465 0.00285283 
v -0.00306973 -0.00579012 0.00414734 
v -0.00242571 -0.00608807 0.00285283 
v -0.00367775 -0.00542428 0.00414734 
v -0.00306973 -0.00579012 0.00285283 
v -0.00424266 -0.00499485 0.00414734 
v -0.00367775 -0.00542428 0.00285283 
v -0.00475783 -0.00450686 0.00414734 
v -0.00424266 -0.00499485 0.00285283 
v -0.00521722 -0.00396602 0.00414734 
v -0.00475783 -0.00450686 0.00285283 
v -0.00561544 -0.0033787 0.00414734 
v -0.00521722 -0.00396602 0.00285283 
v -0.00594782 -0.00275175 0.00414734 
v -0.00561544 -0.0033787 0.00285283 
v -0.00621047 -0.00209255 0.00414734 
v -0.00594782 -0.00275175 0.00285283 
v -0.00640031 -0.00140881 0.00414734 
v -0.00621047 -0.00209255 0.00285283 
v -0.00651511 -0.000708561 0.00414734 
v -0.00640031 -0.00140881 0.00285283 
v -0.00655353 8.02575e-19 0.00414734 
v -0.00651511 -0.000708561 0.00285283 
v -0.00651511 0.000708561 0.00414734 
v -0.00655353 8.02575e-19 0.00285283 
v -0.00640031 0.00140881 0.00414734 
v -0.00651511 0.000708561 0.00285283 
v -0.00621047 0.00209255 0.00414734 
v -0.00640031 0.00140881 0.00285283 
v -0.00594782 0.00275175 0.00414734 
v -0.00621047 0.00209255 0.00285283 
v -0.00561544 0.0033787 0.00414734 
v -0.00594782 0.00275175 0.00285283 
v -0.00521722 0.00396602 0.00414734 
v -0.00561544 0.0033787 0.00285283 
v -0.00475783 0.00450686 0.00414734 
v -0.00521722 0.00396602 0.00285283 
v -0.00424266 0.00499485 0.00414734 
v -0.00475783 0.00450686 0.00285283 
v -0.00367775 0.00542428 0.00414734 
v -0.00424266 0.00499485 0.00285283 
v -0.00306973 0.00579012 0.00414734 
v -0.00367775 0.00542428 0.00285283 
v -0.00242571 0.00608807 0.00414734 
v -0.00306973 0.00579012 0.00285283 
v -0.00175325 0.00631465 0.00414734 
v -0.00242571 0.00608807 0.00285283 
v -0.00106024 0.00646719 0.00414734 
v -0.00175325 0.00631465 0.00285283 
v -0.000354801 0.00654391 0.00414734 
v -0.00106024 0.00646719 0.00285283 
v 0.000354801 0.00654391 0.00414734 
v -0.000354801 0.00654391 0.00285283 
v 0.00106024 0.00646719 0.00414734 
v 0.000354801 0.00654391 0.00285283 
v 0.00175325 0.00631465 0.00414734 
v 0.00106024 0.00646719 0.00285283 
v 0.00242571 0.00608807 0.00414734 
v 0.00175325 0.00631465 0.00285283 
v 0.00306973 0.00579012 0.00414734 
v 0.00242571 0.00608807 0.00285283 
v 0.00367775 0.00542428 0.00414734 
v 0.00306973 0.00579012 0.00285283 
v 0.00424266 0.00499485 0.00414734 
v 0.00367775 0.00542428 0.00285283 
v 0.00475783 0.00450686 0.00414734 
v 0.00424266 0.00499485 0.00285283 
v 0.00521722 0.00396602 0.00414734 
v 0.00475783 0.00450686 0.00285283 
v 0.00561544 0.0033787 0.00414734 
v 0.00521722 0.00396602 0.00285283 
v 0.00594782 0.00275175 0.00414734 
v 0.00561544 0.0033787 0.00285283 
v 0.00621047 0.00209255 0.00414734 
v 0.00594782 0.00275175 0.00285283 
v 0.00640031 0.00140881 0.00414734 
v 0.00621047 0.00209255 0.00285283 
v 0.00651511 0.000708561 0.00414734 
v 0.00640031 0.00140881 0.00285283 
v 0.00651511 0.000708561 0.00285283 
vn -0.994138 0.108119 0 
vn -1 2.44929e-16 0 
vn -1 2.44929e-16 0 
vn -0.976621 0.21497 0 
vn -0.994138 0.108119 0 
vn -0.947653 0.319302 0 
vn -0.976621 0.21497 0 
vn -0.907575 0.419889 0 
vn -0.947653 0.319302 0 
vn -0.856857 0.515554 0 
vn -0.907575 0.419889 0 
vn -0.796093 0.605174 0 
vn -0.856857 0.515554 0 
vn -0.725995 0.687699 0 
vn -0.796093 0.605174 0 
vn -0.647386 0.762162 0 
vn -0.725995 0.687699 0 
vn -0.561187 0.827689 0 
vn -0.647386 0.762162 0 
vn -0.468408 0.883512 0 
vn -0.561187 0.827689 0 
vn -0.370138 0.928977 0 
vn -0.468408 0.883512 0 
vn -0.267528 0.96355 0 
vn -0.370138 0.928977 0 
vn -0.161782 0.986827 0 
vn -0.267528 0.96355 0 
vn -0.0541389 0.998533 0 
vn -0.161782 0.986827 0 
vn 0.0541389 0.998533 0 
vn -0.0541389 0.998533 0 
vn 0.161782 0.986827 0 
vn 0.0541389 0.998533 0 
vn 0.267528 0.96355 0 
vn 0.161782 0.986827 0 
vn 0.370138 0.928977 0 
vn 0.267528 0.96355 0 
vn 0.468408 0.883512 0 
vn 0.370138 0.928977 0 
vn 0.561187 0.827689 0 
vn 0.468408 0.883512 0 
vn 0.647386 0.762162 0 
vn 0.561187 0.827689 0 
vn 0.725995 0.687699 0 
vn 0.647386 0.762162 0 
vn 0.796093 0.605174 0 
vn 0.725995 0.687699 0 
vn 0.856857 0.515554 0 
vn 0.796093 0.605174 0 
vn 0.907575 0.419889 0 
vn 0.856857 0.515554 0 
vn 0.947653 0.319302 0 
vn 0.907575 0.419889 0 
vn 0.976621 0.21497 0 
vn 0.947653 0.319302 0 
vn 0.994138 0.108119 0 
vn 0.976621 0.21497 0 
vn 1 -1.22465e-16 0 
vn 0.994138 0.108119 0 
vn 0.994138 -0.108119 0 
vn 1 -1.22465e-16 0 
vn 0.976621 -0.21497 0 
vn 0.994138 -0.108119 0 
vn 0.947653 -0.319302 0 
vn 0.976621 -0.21497 0 
vn 0.907575 -0.419889 0 
vn 0.947653 -0.319302 0 
vn 0.856857 -0.515554 0 
vn 0.907575 -0.419889 0 
vn 0.796093 -0.605174 0 
vn 0.856857 -0.515554 0 
vn 0.725995 -0.687699 0 
vn 0.796093 -0.605174 0 
vn 0.647386 -0.762162 0 
vn 0.725995 -0.687699 0 
vn 0.561187 -0.827689 0 
vn 0.647386 -0.762162 0 
vn 0.468408 -0.883512 0 
vn 0.561187 -0.827689 0 
vn 0.370138 -0.928977 0 
vn 0.468408 -0.883512 0 
vn 0.267528 -0.96355 0 
vn 0.370138 -0.928977 0 
vn 0.161782 -0.986827 0 
vn 0.267528 -0.96355 0 
vn 0.0541389 -0.998533 0 
vn 0.161782 -0.986827 0 
vn -0.0541389 -0.998533 0 
vn 0.0541389 -0.998533 0 
vn -0.161782 -0.986827 0 
vn -0.0541389 -0.998533 0 
vn -0.267528 -0.96355 0 
vn -0.161782 -0.986827 0 
vn -0.370138 -0.928977 0 
vn -0.267528 -0.96355 0 
vn -0.468408 -0.883512 0 
vn -0.370138 -0.928977 0 
vn -0.561187 -0.827689 0 
vn -0.468408 -0.883512 0 
vn -0.647386 -0.762162 0 
vn -0.561187 -0.827689 0 
vn -0.725995 -0.687699 0 
vn -0.647386 -0.762162 0 
vn -0.796093 -0.605174 0 
vn -0.725995 -0.687699 0 
vn -0.856857 -0.515554 0 
vn -0.796093 -0.605174 0 
vn -0.907575 -0.419889 0 
vn -0.856857 -0.515554 0 
vn -0.947653 -0.319302 0 
vn -0.907575 -0.419889 0 
vn -0.976621 -0.21497 0 
vn -0.947653 -0.319302 0 
vn -0.994138 -0.108119 0 
vn -0.976621 -0.21497 0 
vn -0.994138 -0.108119 0 
f 117//117 118//118 119//119 
f 120//120 117//117 121//121 
f 122//122 120//120 123//123 
f 124//124 122//122 125//125 
f 126//126 124//124 127//127 
f 128//128 126//126 129//129 
f 130//130 128//128 131//131 
f 132//132 130//130 133//133 
f 134//134 132//132 135//135 
f 136//136 134//134 137//137 
f 138//138 136//136 139//139 
f 140//140 138//138 141//141 
f 142//142 140//140 143//143 
f 144//144 142//142 145//145 
f 146//146 144//144 147//147 
f 148//148 146//146 149//149 
f 150//150 148//148 151//151 
f 152//152 150//150 153//153 
f 154//154 152//152 155//155 
f 156//156 154//154 157//157 
f 158//158 156//156 159//159 
f 160//160 158//158 161//161 
f 162//162 160//160 163//163 
f 164//164 162//162 165//165 
f 166//166 164//164 167//167 
f 168//168 166//166 169//169 
f 170//170 168//168 171//171 
f 172//172 170//170 173//173 
f 174//174 172//172 175//175 
f 176//176 174//174 177//177 
f 178//178 176//176 179//179 
f 180//180 178//178 181//181 
f 182//182 180//180 183//183 
f 184//184 182//182 185//185 
f 186//186 184//184 187//187 
f 188//188 186//186 189//189 
f 190//190 188//188 191//191 
f 192//192 190//190 193//193 
f 194//194 192//192 195//195 
f 196//196 194//194 197//197 
f 198//198 196//196 199//199 
f 200//200 198//198 201//201 
f 202//202 200//200 203//203 
f 204//204 202//202 205//205 
f 206//206 204//204 207//207 
f 208//208 206//206 209//209 
f 210//210 208//208 211//211 
f 212//212 210//210 213//213 
f 214//214 212//212 215//215 
f 216//216 214//214 217//217 
f 218//218 216//216 219//219 
f 220//220 218//218 221//221 
f 222//222 220//220 223//223 
f 224//224 222//222 225//225 
f 226//226 224//224 227//227 
f 228//228 226//226 229//229 
f 230//230 228//228 231//231 
f 118//118 230//230 232//232 
f 232//232 119//119 118//118 
f 231//231 232//232 230//230 
f 229//229 231//231 228//228 
f 227//227 229//229 226//226 
f 225//225 227//227 224//224 
f 223//223 225//225 222//222 
f 221//221 223//223 220//220 
f 219//219 221//221 218//218 
f 217//217 219//219 216//216 
f 215//215 217//217 214//214 
f 213//213 215//215 212//212 
f 211//211 213//213 210//210 
f 209//209 211//211 208//208 
f 207//207 209//209 206//206 
f 205//205 207//207 204//204 
f 203//203 205//205 202//202 
f 201//201 203//203 200//200 
f 199//199 201//201 198//198 
f 197//197 199//199 196//196 
f 195//195 197//197 194//194 
f 193//193 195//195 192//192 
f 191//191 193//193 190//190 
f 189//189 191//191 188//188 
f 187//187 189//189 186//186 
f 185//185 187//187 184//184 
f 183//183 185//185 182//182 
f 181//181 183//183 180//180 
f 179//179 181//181 178//178 
f 177//177 179//179 176//176 
f 175//175 177//177 174//174 
f 173//173 175//175 172//172 
f 171//171 173//173 170//170 
f 169//169 171//171 168//168 
f 167//167 169//169 166//166 
f 165//165 167//167 164//164 
f 163//163 165//165 162//162 
f 161//161 163//163 160//160 
f 159//159 161//161 158//158 
f 157//157 159//159 156//156 
f 155//155 157//157 154//154 
f 153//153 155//155 152//152 
f 151//151 153//153 150//150 
f 149//149 151//151 148//148 
f 147//147 149//149 146//146 
f 145//145 147//147 144//144 
f 143//143 145//145 142//142 
f 141//141 143//143 140//140 
f 139//139 141//141 138//138 
f 137//137 139//139 136//136 
f 135//135 137//137 134//134 
f 133//133 135//135 132//132 
f 131//131 133//133 130//130 
f 129//129 131//131 128//128 
f 127//127 129//129 126//126 
f 125//125 127//127 124//124 
f 123//123 125//125 122//122 
f 121//121 123//123 120//120 
f 119//119 121//121 117//117 
o mesh1504
v -0.000504654 0.0093078 0.00285283 
v -0.000354801 0.00654391 0.00285283 
v -0.00106024 0.00646719 0.00285283 
v 0.000504654 0.0093078 0.00285283 
v 0.000354801 0.00654391 0.00285283 
v 0.00150805 0.00919868 0.00285283 
v 0.00106024 0.00646719 0.00285283 
v 0.00345023 0.00865943 0.00285283 
v 0.00242571 0.00608807 0.00285283 
v 0.00175325 0.00631465 0.00285283 
v 0.00436626 0.00823563 0.00285283 
v 0.00306973 0.00579012 0.00285283 
v 0.00932147 -2.2831e-18 0.00285283 
v 0.00655353 0 0.00285283 
v 0.00651511 0.000708561 0.00285283 
v 0.00926683 -0.00100783 0.00285283 
v 0.00651511 -0.000708561 0.00285283 
v -0.00883352 0.00297636 0.00285283 
v -0.00621047 0.00209255 0.00285283 
v -0.00640031 0.00140881 0.00285283 
v -0.00845994 0.00391399 0.00285283 
v -0.00594782 0.00275175 0.00285283 
v 0.00249376 0.00898171 0.00285283 
v 0.00523109 0.00771528 0.00285283 
v 0.00367775 0.00542428 0.00285283 
v 0.00603459 0.00710447 0.00285283 
v 0.00424266 0.00499485 0.00285283 
v 0.00676735 0.00641037 0.00285283 
v 0.00475783 0.00450686 0.00285283 
v 0.00742076 0.00564112 0.00285283 
v 0.00521722 0.00396602 0.00285283 
v 0.00798717 0.00480572 0.00285283 
v 0.00561544 0.0033787 0.00285283 
v 0.00910354 -0.00200384 0.00285283 
v 0.00640031 -0.00140881 0.00285283 
v 0.00883352 -0.00297636 0.00285283 
v 0.00621047 -0.00209255 0.00285283 
v 0.00845994 -0.00391399 0.00285283 
v 0.00594782 -0.00275175 0.00285283 
v -0.00932147 1.14155e-18 0.00285283 
v -0.00926683 0.00100783 0.00285283 
v -0.00651511 0.000708561 0.00285283 
v -0.00910354 0.00200384 0.00285283 
v -0.00798717 0.00480572 0.00285283 
v -0.00561544 0.0033787 0.00285283 
v 0.00845994 0.00391399 0.00285283 
v 0.00594782 0.00275175 0.00285283 
v 0.00883352 0.00297636 0.00285283 
v 0.00621047 0.00209255 0.00285283 
v 0.00910354 0.00200384 0.00285283 
v 0.00640031 0.00140881 0.00285283 
v 0.00926683 0.00100783 0.00285283 
v 0.00798717 -0.00480572 0.00285283 
v 0.00561544 -0.0033787 0.00285283 
v 0.00742076 -0.00564112 0.00285283 
v 0.00521722 -0.00396602 0.00285283 
v 0.00150805 -0.00919868 0.00285283 
v 0.00106024 -0.00646719 0.00285283 
v 0.00175325 -0.00631465 0.00285283 
v 0.000504654 -0.0093078 0.00285283 
v 0.000354801 -0.00654391 0.00285283 
v -0.00742076 0.00564112 0.00285283 
v -0.00521722 0.00396602 0.00285283 
v -0.00676735 0.00641037 0.00285283 
v -0.00475783 0.00450686 0.00285283 
v -0.00603459 0.00710447 0.00285283 
v -0.00424266 0.00499485 0.00285283 
v -0.00523109 0.00771528 0.00285283 
v -0.00367775 0.00542428 0.00285283 
v -0.00436626 0.00823563 0.00285283 
v -0.00306973 0.00579012 0.00285283 
v -0.00345023 0.00865943 0.00285283 
v -0.00242571 0.00608807 0.00285283 
v 0.00676735 -0.00641037 0.00285283 
v 0.00475783 -0.00450686 0.00285283 
v 0.00603459 -0.00710447 0.00285283 
v 0.00424266 -0.00499485 0.00285283 
v 0.00249376 -0.00898171 0.00285283 
v 0.00242571 -0.00608807 0.00285283 
v 0.00523109 -0.00771528 0.00285283 
v 0.00367775 -0.00542428 0.00285283 
v 0.00436626 -0.00823563 0.00285283 
v 0.00306973 -0.00579012 0.00285283 
v 0.00345023 -0.00865943 0.00285283 
v -0.00249376 0.00898171 0.00285283 
v -0.00175325 0.00631465 0.00285283 
v -0.00150805 0.00919868 0.00285283 
v -0.00910354 -0.00200384 0.00285283 
v -0.00640031 -0.00140881 0.00285283 
v -0.00621047 -0.00209255 0.00285283 
v -0.00926683 -0.00100783 0.00285283 
v -0.00651511 -0.000708561 0.00285283 
v -0.00436626 -0.00823563 0.00285283 
v -0.00306973 -0.00579012 0.00285283 
v -0.00242571 -0.00608807 0.00285283 
v -0.00523109 -0.00771528 0.00285283 
v -0.00367775 -0.00542428 0.00285283 
v -0.00845994 -0.00391399 0.00285283 
v -0.00594782 -0.00275175 0.00285283 
v -0.00561544 -0.0033787 0.00285283 
v -0.00883352 -0.00297636 0.00285283 
v -0.00655353 8.02575e-19 0.00285283 
v -0.00345023 -0.00865943 0.00285283 
v -0.00175325 -0.00631465 0.00285283 
v -0.00603459 -0.00710447 0.00285283 
v -0.00424266 -0.00499485 0.00285283 
v -0.00676735 -0.00641037 0.00285283 
v -0.00475783 -0.00450686 0.00285283 
v -0.00742076 -0.00564112 0.00285283 
v -0.00521722 -0.00396602 0.00285283 
v -0.00798717 -0.00480572 0.00285283 
v -0.000504654 -0.0093078 0.00285283 
v -0.000354801 -0.00654391 0.00285283 
v -0.00150805 -0.00919868 0.00285283 
v -0.00106024 -0.00646719 0.00285283 
v -0.00249376 -0.00898171 0.00285283 
vn 0 0 -1 
vn 0 0 -1 
vn 0 0 -1 
vn 0 0 -1 
vn 0 0 -1 
vn 0 0 -1 
vn 0 0 -1 
vn 0 0 -1 
vn 0 0 -1 
vn 0 0 -1 
vn 0 0 -1 
vn 0 0 -1 
vn 0 0 -1 
vn 0 0 -1 
vn 0 0 -1 
vn 0 0 -1 
vn 0 0 -1 
vn 0 0 -1 
vn 0 0 -1 
vn 0 0 -1 
vn 0 0 -1 
vn 0 0 -1 
vn 0 0 -1 
vn 0 0 -1 
vn 0 0 -1 
vn 0 0 -1 
vn 0 0 -1 
vn 0 0 -1 
vn 0 0 -1 
vn 0 0 -1 
vn 0 0 -1 
vn 0 0 -1 
vn 0 0 -1 
vn 0 0 -1 
vn 0 0 -1 
vn 0 0 -1 
vn 0 0 -1 
vn 0 0 -1 
vn 0 0 -1 
vn 0 0 -1 
vn 0 0 -1 
vn 0 0 -1 
vn 0 0 -1 
vn 0 0 -1 
vn 0 0 -1 
vn 0 0 -1 
vn 0 0 -1 
vn 0 0 -1 
vn 0 0 -1 
vn 0 0 -1 
vn 0 0 -1 
vn 0 0 -1 
vn 0 0 -1 
vn 0 0 -1 
vn 0 0 -1 
vn 0 0 -1 
vn 0 0 -1 
vn 0 0 -1 
vn 0 0 -1 
vn 0 0 -1 
vn 0 0 -1 
vn 0 0 -1 
vn 0 0 -1 
vn 0 0 -1 
vn 0 0 -1 
vn 0 0 -1 
vn 0 0 -1 
vn 0 0 -1 
vn 0 0 -1 
vn 0 0 -1 
vn 0 0 -1 
vn 0 0 -1 
vn 0 0 -1 
vn 0 0 -1 
vn 0 0 -1 
vn 0 0 -1 
vn 0 0 -1 
vn 0 0 -1 
vn 0 0 -1 
vn 0 0 -1 
vn 0 0 -1 
vn 0 0 -1 
vn 0 0 -1 
vn 0 0 -1 
vn 0 0 -1 
vn 0 0 -1 
vn 0 0 -1 
vn 0 0 -1 
vn 0 0 -1 
vn 0 0 -1 
vn 0 0 -1 
vn 0 0 -1 
vn 0 0 -1 
vn 0 0 -1 
vn 0 0 -1 
vn 0 0 -1 
vn 0 0 -1 
vn 0 0 -1 
vn 0 0 -1 
vn 0 0 -1 
vn 0 0 -1 
vn 0 0 -1 
vn 0 0 -1 
vn 0 0 -1 
vn 0 0 -1 
vn 0 0 -1 
vn 0 0 -1 
vn 0 0 -1 
vn 0 0 -1 
vn 0 0 -1 
vn 0 0 -1 
vn 0 0 -1 
vn 0 0 -1 
vn 0 0 -1 
vn 0 0 -1 
vn 0 0 -1 
f 233//233 234//234 235//235 
f 236//236 237//237 234//234 
f 234//234 233//233 236//236 
f 236//236 238//238 239//239 
f 240//240 241//241 242//242 
f 240//240 243//243 244//244 
f 245//245 246//246 247//247 
f 248//248 249//249 246//246 
f 250//250 251//251 252//252 
f 250//250 253//253 254//254 
f 239//239 237//237 236//236 
f 238//238 255//255 242//242 
f 244//244 241//241 240//240 
f 256//256 257//257 244//244 
f 258//258 259//259 257//257 
f 258//258 260//260 261//261 
f 260//260 262//262 263//263 
f 262//262 264//264 265//265 
f 246//246 245//245 248//248 
f 248//248 266//266 267//267 
f 266//266 268//268 269//269 
f 270//270 271//271 269//269 
f 272//272 273//273 274//274 
f 273//273 275//275 252//252 
f 254//254 251//251 250//250 
f 253//253 276//276 277//277 
f 242//242 239//239 238//238 
f 244//244 243//243 256//256 
f 261//261 259//259 258//258 
f 265//265 263//263 262//262 
f 278//278 279//279 265//265 
f 278//278 280//280 281//281 
f 282//282 283//283 281//281 
f 282//282 284//284 247//247 
f 267//267 249//249 248//248 
f 269//269 268//268 270//270 
f 285//285 286//286 271//271 
f 287//287 288//288 286//286 
f 289//289 290//290 291//291 
f 289//289 292//292 293//293 
f 252//252 274//274 273//273 
f 277//277 254//254 253//253 
f 294//294 295//295 277//277 
f 294//294 296//296 297//297 
f 298//298 299//299 297//297 
f 298//298 300//300 301//301 
f 300//300 302//302 303//303 
f 302//302 304//304 305//305 
f 242//242 255//255 240//240 
f 263//263 261//261 260//260 
f 281//281 279//279 278//278 
f 247//247 283//283 282//282 
f 269//269 267//267 266//266 
f 286//286 285//285 287//287 
f 306//306 307//307 288//288 
f 306//306 308//308 309//309 
f 310//310 291//291 311//311 
f 293//293 290//290 289//289 
f 252//252 275//275 250//250 
f 297//297 295//295 294//294 
f 301//301 299//299 298//298 
f 305//305 303//303 302//302 
f 257//257 256//256 258//258 
f 281//281 280//280 282//282 
f 271//271 270//270 285//285 
f 309//309 307//307 306//306 
f 312//312 313//313 309//309 
f 314//314 315//315 313//313 
f 316//316 311//311 315//315 
f 291//291 310//310 289//289 
f 277//277 276//276 294//294 
f 303//303 301//301 300//300 
f 317//317 318//318 305//305 
f 317//317 319//319 235//235 
f 265//265 264//264 278//278 
f 288//288 287//287 306//306 
f 313//313 312//312 314//314 
f 311//311 316//316 310//310 
f 320//320 321//321 322//322 
f 320//320 323//323 324//324 
f 297//297 296//296 298//298 
f 235//235 318//318 317//317 
f 247//247 284//284 245//245 
f 315//315 314//314 316//316 
f 325//325 326//326 327//327 
f 325//325 328//328 329//329 
f 330//330 331//331 332//332 
f 330//330 333//333 322//322 
f 324//324 321//321 320//320 
f 272//272 334//334 324//324 
f 305//305 304//304 317//317 
f 309//309 308//308 312//312 
f 335//335 327//327 336//336 
f 329//329 326//326 325//325 
f 337//337 338//338 329//329 
f 337//337 339//339 340//340 
f 341//341 342//342 340//340 
f 341//341 343//343 332//332 
f 322//322 331//331 330//330 
f 324//324 323//323 272//272 
f 235//235 319//319 233//233 
f 292//292 344//344 345//345 
f 346//346 347//347 345//345 
f 346//346 348//348 336//336 
f 327//327 335//335 325//325 
f 340//340 338//338 337//337 
f 332//332 342//342 341//341 
f 322//322 333//333 320//320 
f 345//345 293//293 292//292 
f 336//336 347//347 346//346 
f 329//329 328//328 337//337 
f 332//332 343//343 330//330 
f 345//345 344//344 346//346 
f 340//340 339//339 341//341 
f 336//336 348//348 335//335 
f 274//274 334//334 272//272 
o mesh1505
v 0.00932147 0 0.00414734 
v 0.00932147 -2.2831e-18 0.00285283 
v 0.00926683 0.00100783 0.00285283 
v 0.00926683 0.00100783 0.00414734 
v 0.00910354 0.00200384 0.00285283 
v 0.00910354 0.00200384 0.00414734 
v 0.00883352 0.00297636 0.00285283 
v 0.00883352 0.00297636 0.00414734 
v 0.00845994 0.00391399 0.00285283 
v 0.00845994 0.00391399 0.00414734 
v 0.00798717 0.00480572 0.00285283 
v 0.00798717 0.00480572 0.00414734 
v 0.00742076 0.00564112 0.00285283 
v 0.00742076 0.00564112 0.00414734 
v 0.00676735 0.00641037 0.00285283 
v 0.00676735 0.00641037 0.00414734 
v 0.00603459 0.00710447 0.00285283 
v 0.00603459 0.00710447 0.00414734 
v 0.00523109 0.00771528 0.00285283 
v 0.00523109 0.00771528 0.00414734 
v 0.00436626 0.00823563 0.00285283 
v 0.00436626 0.00823563 0.00414734 
v 0.00345023 0.00865943 0.00285283 
v 0.00345023 0.00865943 0.00414734 
v 0.00249376 0.00898171 0.00285283 
v 0.00249376 0.00898171 0.00414734 
v 0.00150805 0.00919868 0.00285283 
v 0.00150805 0.00919868 0.00414734 
v 0.000504654 0.0093078 0.00285283 
v 0.000504654 0.0093078 0.00414734 
v -0.000504654 0.0093078 0.00285283 
v -0.000504654 0.0093078 0.00414734 
v -0.00150805 0.00919868 0.00285283 
v -0.00150805 0.00919868 0.00414734 
v -0.00249376 0.00898171 0.00285283 
v -0.00249376 0.00898171 0.00414734 
v -0.00345023 0.00865943 0.00285283 
v -0.00345023 0.00865943 0.00414734 
v -0.00436626 0.00823563 0.00285283 
v -0.00436626 0.00823563 0.00414734 
v -0.00523109 0.00771528 0.00285283 
v -0.00523109 0.00771528 0.00414734 
v -0.00603459 0.00710447 0.00285283 
v -0.00603459 0.00710447 0.00414734 
v -0.00676735 0.00641037 0.00285283 
v -0.00676735 0.00641037 0.00414734 
v -0.00742076 0.00564112 0.00285283 
v -0.00742076 0.00564112 0.00414734 
v -0.00798717 0.00480572 0.00285283 
v -0.00798717 0.00480572 0.00414734 
v -0.00845994 0.00391399 0.00285283 
v -0.00845994 0.00391399 0.00414734 
v -0.00883352 0.00297636 0.00285283 
v -0.00883352 0.00297636 0.00414734 
v -0.00910354 0.00200384 0.00285283 
v -0.00910354 0.00200384 0.00414734 
v -0.00926683 0.00100783 0.00285283 
v -0.00926683 0.00100783 0.00414734 
v -0.00932147 1.14155e-18 0.00285283 
v -0.00932147 1.14155e-18 0.00414734 
v -0.00926683 -0.00100783 0.00285283 
v -0.00926683 -0.00100783 0.00414734 
v -0.00910354 -0.00200384 0.00285283 
v -0.00910354 -0.00200384 0.00414734 
v -0.00883352 -0.00297636 0.00285283 
v -0.00883352 -0.00297636 0.00414734 
v -0.00845994 -0.00391399 0.00285283 
v -0.00845994 -0.00391399 0.00414734 
v -0.00798717 -0.00480572 0.00285283 
v -0.00798717 -0.00480572 0.00414734 
v -0.00742076 -0.00564112 0.00285283 
v -0.00742076 -0.00564112 0.00414734 
v -0.00676735 -0.00641037 0.00285283 
v -0.00676735 -0.00641037 0.00414734 
v -0.00603459 -0.00710447 0.00285283 
v -0.00603459 -0.00710447 0.00414734 
v -0.00523109 -0.00771528 0.00285283 
v -0.00523109 -0.00771528 0.00414734 
v -0.00436626 -0.00823563 0.00285283 
v -0.00436626 -0.00823563 0.00414734 
v -0.00345023 -0.00865943 0.00285283 
v -0.00345023 -0.00865943 0.00414734 
v -0.00249376 -0.00898171 0.00285283 
v -0.00249376 -0.00898171 0.00414734 
v -0.00150805 -0.00919868 0.00285283 
v -0.00150805 -0.00919868 0.00414734 
v -0.000504654 -0.0093078 0.00285283 
v -0.000504654 -0.0093078 0.00414734 
v 0.000504654 -0.0093078 0.00285283 
v 0.000504654 -0.0093078 0.00414734 
v 0.00150805 -0.00919868 0.00285283 
v 0.00150805 -0.00919868 0.00414734 
v 0.00249376 -0.00898171 0.00285283 
v 0.00249376 -0.00898171 0.00414734 
v 0.00345023 -0.00865943 0.00285283 
v 0.00345023 -0.00865943 0.00414734 
v 0.00436626 -0.00823563 0.00285283 
v 0.00436626 -0.00823563 0.00414734 
v 0.00523109 -0.00771528 0.00285283 
v 0.00523109 -0.00771528 0.00414734 
v 0.00603459 -0.00710447 0.00285283 
v 0.00603459 -0.00710447 0.00414734 
v 0.00676735 -0.00641037 0.00285283 
v 0.00676735 -0.00641037 0.00414734 
v 0.00742076 -0.00564112 0.00285283 
v 0.00742076 -0.00564112 0.00414734 
v 0.00798717 -0.00480572 0.00285283 
v 0.00798717 -0.00480572 0.00414734 
v 0.00845994 -0.00391399 0.00285283 
v 0.00845994 -0.00391399 0.00414734 
v 0.00883352 -0.00297636 0.00285283 
v 0.00883352 -0.00297636 0.00414734 
v 0.00910354 -0.00200384 0.00285283 
v 0.00910354 -0.00200384 0.00414734 
v 0.00926683 -0.00100783 0.00285283 
v 0.00926683 -0.00100783 0.00414734 
vn 1 0 0 
vn 1 0 0 
vn 0.994138 0.108119 0 
vn 0.994138 0.108119 0 
vn 0.976621 0.21497 0 
vn 0.976621 0.21497 0 
vn 0.947653 0.319302 0 
vn 0.947653 0.319302 0 
vn 0.907575 0.419889 0 
vn 0.907575 0.419889 0 
vn 0.856857 0.515554 0 
vn 0.856857 0.515554 0 
vn 0.796093 0.605174 0 
vn 0.796093 0.605174 0 
vn 0.725995 0.687699 0 
vn 0.725995 0.687699 0 
vn 0.647386 0.762162 0 
vn 0.647386 0.762162 0 
vn 0.561187 0.827689 0 
vn 0.561187 0.827689 0 
vn 0.468408 0.883512 0 
vn 0.468408 0.883512 0 
vn 0.370138 0.928977 0 
vn 0.370138 0.928977 0 
vn 0.267528 0.96355 0 
vn 0.267528 0.96355 0 
vn 0.161782 0.986827 0 
vn 0.161782 0.986827 0 
vn 0.0541389 0.998533 0 
vn 0.0541389 0.998533 0 
vn -0.0541389 0.998533 0 
vn -0.0541389 0.998533 0 
vn -0.161782 0.986827 0 
vn -0.161782 0.986827 0 
vn -0.267528 0.96355 0 
vn -0.267528 0.96355 0 
vn -0.370138 0.928977 0 
vn -0.370138 0.928977 0 
vn -0.468408 0.883512 0 
vn -0.468408 0.883512 0 
vn -0.561187 0.827689 0 
vn -0.561187 0.827689 0 
vn -0.647386 0.762162 0 
vn -0.647386 0.762162 0 
vn -0.725995 0.687699 0 
vn -0.725995 0.687699 0 
vn -0.796093 0.605174 0 
vn -0.796093 0.605174 0 
vn -0.856857 0.515554 0 
vn -0.856857 0.515554 0 
vn -0.907575 0.419889 0 
vn -0.907575 0.419889 0 
vn -0.947653 0.319302 0 
vn -0.947653 0.319302 0 
vn -0.976621 0.21497 0 
vn -0.976621 0.21497 0 
vn -0.994138 0.108119 0 
vn -0.994138 0.108119 0 
vn -1 1.22465e-16 0 
vn -1 1.22465e-16 0 
vn -0.994138 -0.108119 0 
vn -0.994138 -0.108119 0 
vn -0.976621 -0.21497 0 
vn -0.976621 -0.21497 0 
vn -0.947653 -0.319302 0 
vn -0.947653 -0.319302 0 
vn -0.907575 -0.419889 0 
vn -0.907575 -0.419889 0 
vn -0.856857 -0.515554 0 
vn -0.856857 -0.515554 0 
vn -0.796093 -0.605174 0 
vn -0.796093 -0.605174 0 
vn -0.725995 -0.687699 0 
vn -0.725995 -0.687699 0 
vn -0.647386 -0.762162 0 
vn -0.647386 -0.762162 0 
vn -0.561187 -0.827689 0 
vn -0.561187 -0.827689 0 
vn -0.468408 -0.883512 0 
vn -0.468408 -0.883512 0 
vn -0.370138 -0.928977 0 
vn -0.370138 -0.928977 0 
vn -0.267528 -0.96355 0 
vn -0.267528 -0.96355 0 
vn -0.161782 -0.986827 0 
vn -0.161782 -0.986827 0 
vn -0.0541389 -0.998533 0 
vn -0.0541389 -0.998533 0 
vn 0.0541389 -0.998533 0 
vn 0.0541389 -0.998533 0 
vn 0.161782 -0.986827 0 
vn 0.161782 -0.986827 0 
vn 0.267528 -0.96355 0 
vn 0.267528 -0.96355 0 
vn 0.370138 -0.928977 0 
vn 0.370138 -0.928977 0 
vn 0.468408 -0.883512 0 
vn 0.468408 -0.883512 0 
vn 0.561187 -0.827689 0 
vn 0.561187 -0.827689 0 
vn 0.647386 -0.762162 0 
vn 0.647386 -0.762162 0 
vn 0.725995 -0.687699 0 
vn 0.725995 -0.687699 0 
vn 0.796093 -0.605174 0 
vn 0.796093 -0.605174 0 
vn 0.856857 -0.515554 0 
vn 0.856857 -0.515554 0 
vn 0.907575 -0.419889 0 
vn 0.907575 -0.419889 0 
vn 0.947653 -0.319302 0 
vn 0.947653 -0.319302 0 
vn 0.976621 -0.21497 0 
vn 0.976621 -0.21497 0 
vn 0.994138 -0.108119 0 
vn 0.994138 -0.108119 0 
f 349//349 350//350 351//351 
f 352//352 351//351 353//353 
f 354//354 353//353 355//355 
f 356//356 355//355 357//357 
f 358//358 357//357 359//359 
f 360//360 359//359 361//361 
f 362//362 361//361 363//363 
f 364//364 363//363 365//365 
f 366//366 365//365 367//367 
f 368//368 367//367 369//369 
f 370//370 369//369 371//371 
f 372//372 371//371 373//373 
f 374//374 373//373 375//375 
f 376//376 375//375 377//377 
f 378//378 377//377 379//379 
f 380//380 379//379 381//381 
f 382//382 381//381 383//383 
f 384//384 383//383 385//385 
f 386//386 385//385 387//387 
f 388//388 387//387 389//389 
f 390//390 389//389 391//391 
f 392//392 391//391 393//393 
f 394//394 393//393 395//395 
f 396//396 395//395 397//397 
f 398//398 397//397 399//399 
f 400//400 399//399 401//401 
f 402//402 401//401 403//403 
f 404//404 403//403 405//405 
f 406//406 405//405 407//407 
f 408//408 407//407 409//409 
f 410//410 409//409 411//411 
f 412//412 411//411 413//413 
f 414//414 413//413 415//415 
f 416//416 415//415 417//417 
f 418//418 417//417 419//419 
f 420//420 419//419 421//421 
f 422//422 421//421 423//423 
f 424//424 423//423 425//425 
f 426//426 425//425 427//427 
f 428//428 427//427 429//429 
f 430//430 429//429 431//431 
f 432//432 431//431 433//433 
f 434//434 433//433 435//435 
f 436//436 435//435 437//437 
f 438//438 437//437 439//439 
f 440//440 439//439 441//441 
f 442//442 441//441 443//443 
f 444//444 443//443 445//445 
f 446//446 445//445 447//447 
f 448//448 447//447 449//449 
f 450//450 449//449 451//451 
f 452//452 451//451 453//453 
f 454//454 453//453 455//455 
f 456//456 455//455 457//457 
f 458//458 457//457 459//459 
f 460//460 459//459 461//461 
f 462//462 461//461 463//463 
f 464//464 463//463 350//350 
f 350//350 349//349 464//464 
f 463//463 464//464 462//462 
f 461//461 462//462 460//460 
f 459//459 460//460 458//458 
f 457//457 458//458 456//456 
f 455//455 456//456 454//454 
f 453//453 454//454 452//452 
f 451//451 452//452 450//450 
f 449//449 450//450 448//448 
f 447//447 448//448 446//446 
f 445//445 446//446 444//444 
f 443//443 444//444 442//442 
f 441//441 442//442 440//440 
f 439//439 440//440 438//438 
f 437//437 438//438 436//436 
f 435//435 436//436 434//434 
f 433//433 434//434 432//432 
f 431//431 432//432 430//430 
f 429//429 430//430 428//428 
f 427//427 428//428 426//426 
f 425//425 426//426 424//424 
f 423//423 424//424 422//422 
f 421//421 422//422 420//420 
f 419//419 420//420 418//418 
f 417//417 418//418 416//416 
f 415//415 416//416 414//414 
f 413//413 414//414 412//412 
f 411//411 412//412 410//410 
f 409//409 410//410 408//408 
f 407//407 408//408 406//406 
f 405//405 406//406 404//404 
f 403//403 404//404 402//402 
f 401//401 402//402 400//400 
f 399//399 400//400 398//398 
f 397//397 398//398 396//396 
f 395//395 396//396 394//394 
f 393//393 394//394 392//392 
f 391//391 392//392 390//390 
f 389//389 390//390 388//388 
f 387//387 388//388 386//386 
f 385//385 386//386 384//384 
f 383//383 384//384 382//382 
f 381//381 382//382 380//380 
f 379//379 380//380 378//378 
f 377//377 378//378 376//376 
f 375//375 376//376 374//374 
f 373//373 374//374 372//372 
f 371//371 372//372 370//370 
f 369//369 370//370 368//368 
f 367//367 368//368 366//366 
f 365//365 366//366 364//364 
f 363//363 364//364 362//362 
f 361//361 362//362 360//360 
f 359//359 360//360 358//358 
f 357//357 358//358 356//356 
f 355//355 356//356 354//354 
f 353//353 354//354 352//352 
f 351//351 352//352 349//349 
