# OBJ generated by ONSHAPE BY PTC INC, 1.215 Units = meters
mtllib _6804_2Z_1_solid15.mtl
g 6804-2Z-1-solid15
usemtl 0.796078_0.823529_0.937255_0.000000_0.000000
o mesh25856
v -0.0135901 0.0037535 0.065 
v -0.0135901 0.0037535 0.0635796 
v -0.0139162 0.00226215 0.0635796 
v -0.0139162 0.00226215 0.065 
v -0.0140792 0.000744275 0.0635796 
v -0.0140792 0.000744275 0.065 
v -0.0140772 -0.000782321 0.0635796 
v -0.0140772 -0.000782321 0.065 
v -0.0139101 -0.00229975 0.0635796 
v -0.0139101 -0.00229975 0.065 
v -0.0135799 -0.00379021 0.0635796 
v -0.0135799 -0.00379021 0.065 
v -0.0130905 -0.00523623 0.0635796 
v -0.0130905 -0.00523623 0.065 
v -0.0124476 -0.00662087 0.0635796 
v -0.0124476 -0.00662087 0.065 
v -0.0116588 -0.00792788 0.0635796 
v -0.0116588 -0.00792788 0.065 
v -0.0107333 -0.00914195 0.0635796 
v -0.0107333 -0.00914195 0.065 
v -0.00968197 -0.0102488 0.0635796 
v -0.00968197 -0.0102488 0.065 
v -0.00851712 -0.0112356 0.0635796 
v -0.00851712 -0.0112356 0.065 
v -0.00725241 -0.0120906 0.0635796 
v -0.00725241 -0.0120906 0.065 
v -0.00590268 -0.0128038 0.0635796 
v -0.00590268 -0.0128038 0.065 
v -0.00448374 -0.0133669 0.0635796 
v -0.00448374 -0.0133669 0.065 
v -0.00301224 -0.0137734 0.0635796 
v -0.00301224 -0.0137734 0.065 
v -0.00150542 -0.0140183 0.0635796 
v -0.00150542 -0.0140183 0.065 
v 1.90509e-05 -0.0140989 0.0635796 
v 1.90509e-05 -0.0140989 0.065 
v 0.0015433 -0.0140142 0.0635796 
v 0.0015433 -0.0140142 0.065 
v 0.00304945 -0.0137652 0.0635796 
v 0.00304945 -0.0137652 0.065 
v 0.00451985 -0.0133548 0.0635796 
v 0.00451985 -0.0133548 0.065 
v 0.00593726 -0.0127878 0.0635796 
v 0.00593726 -0.0127878 0.065 
v 0.00728506 -0.0120709 0.0635796 
v 0.00728506 -0.0120709 0.065 
v 0.00854745 -0.0112125 0.0635796 
v 0.00854745 -0.0112125 0.065 
v 0.00970963 -0.0102226 0.0635796 
v 0.00970963 -0.0102226 0.065 
v 0.010758 -0.00911291 0.0635796 
v 0.010758 -0.00911291 0.065 
v 0.0116802 -0.00789635 0.0635796 
v 0.0116802 -0.00789635 0.065 
v 0.0124655 -0.00658721 0.0635796 
v 0.0124655 -0.00658721 0.065 
v 0.0131046 -0.00520084 0.0635796 
v 0.0131046 -0.00520084 0.065 
v 0.0135901 -0.0037535 0.0635796 
v 0.0135901 -0.0037535 0.065 
vn -0.963911 0.266226 9.63911e-15 
vn -0.963911 0.266226 9.63911e-15 
vn -0.987044 0.160448 9.88928e-15 
vn -0.987044 0.160448 9.88928e-15 
vn -0.998606 0.0527896 1.00235e-14 
vn -0.998606 0.0527896 1.00235e-14 
vn -0.998459 -0.0554881 1.00402e-14 
vn -0.998459 -0.0554881 1.00402e-14 
vn -0.986607 -0.163115 9.93922e-15 
vn -0.986607 -0.163115 9.93922e-15 
vn -0.963188 -0.26883 9.72169e-15 
vn -0.963188 -0.26883 9.72169e-15 
vn -0.928476 -0.371393 9.39019e-15 
vn -0.928476 -0.371393 9.39019e-15 
vn -0.882878 -0.469602 8.94859e-15 
vn -0.882878 -0.469602 8.94859e-15 
vn -0.82693 -0.562305 8.40208e-15 
vn -0.82693 -0.562305 8.40208e-15 
vn -0.761287 -0.648416 7.75706e-15 
vn -0.761287 -0.648416 7.75706e-15 
vn -0.686718 -0.726924 7.0211e-15 
vn -0.686718 -0.726924 7.0211e-15 
vn -0.604098 -0.79691 6.20282e-15 
vn -0.604098 -0.79691 6.20282e-15 
vn -0.514396 -0.857553 5.31182e-15 
vn -0.514396 -0.857553 5.31182e-15 
vn -0.418662 -0.908142 4.35854e-15 
vn -0.418662 -0.908142 4.35854e-15 
vn -0.318021 -0.948084 3.35416e-15 
vn -0.318021 -0.948084 3.35416e-15 
vn -0.213651 -0.97691 2.31046e-15 
vn -0.213651 -0.97691 2.31046e-15 
vn -0.106776 -0.994283 1.23967e-15 
vn -0.106776 -0.994283 1.23967e-15 
vn 0.00135123 -0.999999 1.54348e-16 
vn 0.00135123 -0.999999 1.54348e-16 
vn 0.109462 -0.993991 -9.32785e-16 
vn 0.109462 -0.993991 -9.32785e-16 
vn 0.21629 -0.976329 -2.00898e-15 
vn 0.21629 -0.976329 -2.00898e-15 
vn 0.320582 -0.947221 -3.06163e-15 
vn 0.320582 -0.947221 -3.06163e-15 
vn 0.421115 -0.907007 -4.07837e-15 
vn 0.421115 -0.907007 -4.07837e-15 
vn 0.516711 -0.85616 -5.04731e-15 
vn 0.516711 -0.85616 -5.04731e-15 
vn 0.606249 -0.795275 -5.95707e-15 
vn 0.606249 -0.795275 -5.95707e-15 
vn 0.68868 -0.725066 -6.79698e-15 
vn 0.68868 -0.725066 -6.79698e-15 
vn 0.763036 -0.646356 -7.55721e-15 
vn 0.763036 -0.646356 -7.55721e-15 
vn 0.828447 -0.560068 -8.22884e-15 
vn 0.828447 -0.560068 -8.22884e-15 
vn 0.884144 -0.467214 -8.80399e-15 
vn 0.884144 -0.467214 -8.80399e-15 
vn 0.929476 -0.368883 -9.27592e-15 
vn 0.929476 -0.368883 -9.27592e-15 
vn 0.963911 -0.266226 -9.63911e-15 
vn 0.963911 -0.266226 -9.63911e-15 
f 1//1 2//2 3//3 
f 4//4 3//3 5//5 
f 6//6 5//5 7//7 
f 8//8 7//7 9//9 
f 10//10 9//9 11//11 
f 12//12 11//11 13//13 
f 14//14 13//13 15//15 
f 16//16 15//15 17//17 
f 18//18 17//17 19//19 
f 20//20 19//19 21//21 
f 22//22 21//21 23//23 
f 24//24 23//23 25//25 
f 26//26 25//25 27//27 
f 28//28 27//27 29//29 
f 30//30 29//29 31//31 
f 32//32 31//31 33//33 
f 34//34 33//33 35//35 
f 36//36 35//35 37//37 
f 38//38 37//37 39//39 
f 40//40 39//39 41//41 
f 42//42 41//41 43//43 
f 44//44 43//43 45//45 
f 46//46 45//45 47//47 
f 48//48 47//47 49//49 
f 50//50 49//49 51//51 
f 52//52 51//51 53//53 
f 54//54 53//53 55//55 
f 56//56 55//55 57//57 
f 58//58 57//57 59//59 
f 59//59 60//60 58//58 
f 57//57 58//58 56//56 
f 55//55 56//56 54//54 
f 53//53 54//54 52//52 
f 51//51 52//52 50//50 
f 49//49 50//50 48//48 
f 47//47 48//48 46//46 
f 45//45 46//46 44//44 
f 43//43 44//44 42//42 
f 41//41 42//42 40//40 
f 39//39 40//40 38//38 
f 37//37 38//38 36//36 
f 35//35 36//36 34//34 
f 33//33 34//34 32//32 
f 31//31 32//32 30//30 
f 29//29 30//30 28//28 
f 27//27 28//28 26//26 
f 25//25 26//26 24//24 
f 23//23 24//24 22//22 
f 21//21 22//22 20//20 
f 19//19 20//20 18//18 
f 17//17 18//18 16//16 
f 15//15 16//16 14//14 
f 13//13 14//14 12//12 
f 11//11 12//12 10//10 
f 9//9 10//10 8//8 
f 7//7 8//8 6//6 
f 5//5 6//6 4//4 
f 3//3 4//4 1//1 
o mesh25857
v 0.0135901 -0.0037535 0.065 
v 0.0135901 -0.0037535 0.0635796 
v 0.0139162 -0.00226215 0.0635796 
v 0.0139162 -0.00226215 0.065 
v 0.0140792 -0.000744275 0.0635796 
v 0.0140792 -0.000744275 0.065 
v 0.0140772 0.000782321 0.0635796 
v 0.0140772 0.000782321 0.065 
v 0.0139101 0.00229975 0.0635796 
v 0.0139101 0.00229975 0.065 
v 0.0135799 0.00379021 0.0635796 
v 0.0135799 0.00379021 0.065 
v 0.0130905 0.00523623 0.0635796 
v 0.0130905 0.00523623 0.065 
v 0.0124476 0.00662087 0.0635796 
v 0.0124476 0.00662087 0.065 
v 0.0116588 0.00792788 0.0635796 
v 0.0116588 0.00792788 0.065 
v 0.0107333 0.00914195 0.0635796 
v 0.0107333 0.00914195 0.065 
v 0.00968197 0.0102488 0.0635796 
v 0.00968197 0.0102488 0.065 
v 0.00851712 0.0112356 0.0635796 
v 0.00851712 0.0112356 0.065 
v 0.00725241 0.0120906 0.0635796 
v 0.00725241 0.0120906 0.065 
v 0.00590268 0.0128038 0.0635796 
v 0.00590268 0.0128038 0.065 
v 0.00448374 0.0133669 0.0635796 
v 0.00448374 0.0133669 0.065 
v 0.00301224 0.0137734 0.0635796 
v 0.00301224 0.0137734 0.065 
v 0.00150542 0.0140183 0.0635796 
v 0.00150542 0.0140183 0.065 
v -1.90509e-05 0.0140989 0.0635796 
v -1.90509e-05 0.0140989 0.065 
v -0.0015433 0.0140142 0.0635796 
v -0.0015433 0.0140142 0.065 
v -0.00304945 0.0137652 0.0635796 
v -0.00304945 0.0137652 0.065 
v -0.00451985 0.0133548 0.0635796 
v -0.00451985 0.0133548 0.065 
v -0.00593726 0.0127878 0.0635796 
v -0.00593726 0.0127878 0.065 
v -0.00728506 0.0120709 0.0635796 
v -0.00728506 0.0120709 0.065 
v -0.00854745 0.0112125 0.0635796 
v -0.00854745 0.0112125 0.065 
v -0.00970963 0.0102226 0.0635796 
v -0.00970963 0.0102226 0.065 
v -0.010758 0.00911291 0.0635796 
v -0.010758 0.00911291 0.065 
v -0.0116802 0.00789635 0.0635796 
v -0.0116802 0.00789635 0.065 
v -0.0124655 0.00658721 0.0635796 
v -0.0124655 0.00658721 0.065 
v -0.0131046 0.00520084 0.0635796 
v -0.0131046 0.00520084 0.065 
v -0.0135901 0.0037535 0.0635796 
v -0.0135901 0.0037535 0.065 
vn 0.963911 -0.266226 -9.63911e-15 
vn 0.963911 -0.266226 -9.63911e-15 
vn 0.987044 -0.160448 -9.88928e-15 
vn 0.987044 -0.160448 -9.88928e-15 
vn 0.998606 -0.0527896 -1.00235e-14 
vn 0.998606 -0.0527896 -1.00235e-14 
vn 0.998459 0.0554881 -1.00402e-14 
vn 0.998459 0.0554881 -1.00402e-14 
vn 0.986607 0.163115 -9.93922e-15 
vn 0.986607 0.163115 -9.93922e-15 
vn 0.963188 0.26883 -9.72169e-15 
vn 0.963188 0.26883 -9.72169e-15 
vn 0.928476 0.371393 -9.39019e-15 
vn 0.928476 0.371393 -9.39019e-15 
vn 0.882878 0.469602 -8.94859e-15 
vn 0.882878 0.469602 -8.94859e-15 
vn 0.82693 0.562305 -8.40208e-15 
vn 0.82693 0.562305 -8.40208e-15 
vn 0.761287 0.648416 -7.75706e-15 
vn 0.761287 0.648416 -7.75706e-15 
vn 0.686718 0.726924 -7.0211e-15 
vn 0.686718 0.726924 -7.0211e-15 
vn 0.604098 0.79691 -6.20282e-15 
vn 0.604098 0.79691 -6.20282e-15 
vn 0.514396 0.857553 -5.31182e-15 
vn 0.514396 0.857553 -5.31182e-15 
vn 0.418662 0.908142 -4.35854e-15 
vn 0.418662 0.908142 -4.35854e-15 
vn 0.318021 0.948084 -3.35416e-15 
vn 0.318021 0.948084 -3.35416e-15 
vn 0.213651 0.97691 -2.31046e-15 
vn 0.213651 0.97691 -2.31046e-15 
vn 0.106776 0.994283 -1.23967e-15 
vn 0.106776 0.994283 -1.23967e-15 
vn -0.00135123 0.999999 -1.54348e-16 
vn -0.00135123 0.999999 -1.54348e-16 
vn -0.109462 0.993991 9.32785e-16 
vn -0.109462 0.993991 9.32785e-16 
vn -0.21629 0.976329 2.00898e-15 
vn -0.21629 0.976329 2.00898e-15 
vn -0.320582 0.947221 3.06163e-15 
vn -0.320582 0.947221 3.06163e-15 
vn -0.421115 0.907007 4.07837e-15 
vn -0.421115 0.907007 4.07837e-15 
vn -0.516711 0.85616 5.04731e-15 
vn -0.516711 0.85616 5.04731e-15 
vn -0.606249 0.795275 5.95707e-15 
vn -0.606249 0.795275 5.95707e-15 
vn -0.68868 0.725066 6.79698e-15 
vn -0.68868 0.725066 6.79698e-15 
vn -0.763036 0.646356 7.55721e-15 
vn -0.763036 0.646356 7.55721e-15 
vn -0.828447 0.560068 8.22884e-15 
vn -0.828447 0.560068 8.22884e-15 
vn -0.884144 0.467214 8.80399e-15 
vn -0.884144 0.467214 8.80399e-15 
vn -0.929476 0.368883 9.27592e-15 
vn -0.929476 0.368883 9.27592e-15 
vn -0.963911 0.266226 9.63911e-15 
vn -0.963911 0.266226 9.63911e-15 
f 61//61 62//62 63//63 
f 64//64 63//63 65//65 
f 66//66 65//65 67//67 
f 68//68 67//67 69//69 
f 70//70 69//69 71//71 
f 72//72 71//71 73//73 
f 74//74 73//73 75//75 
f 76//76 75//75 77//77 
f 78//78 77//77 79//79 
f 80//80 79//79 81//81 
f 82//82 81//81 83//83 
f 84//84 83//83 85//85 
f 86//86 85//85 87//87 
f 88//88 87//87 89//89 
f 90//90 89//89 91//91 
f 92//92 91//91 93//93 
f 94//94 93//93 95//95 
f 96//96 95//95 97//97 
f 98//98 97//97 99//99 
f 100//100 99//99 101//101 
f 102//102 101//101 103//103 
f 104//104 103//103 105//105 
f 106//106 105//105 107//107 
f 108//108 107//107 109//109 
f 110//110 109//109 111//111 
f 112//112 111//111 113//113 
f 114//114 113//113 115//115 
f 116//116 115//115 117//117 
f 118//118 117//117 119//119 
f 119//119 120//120 118//118 
f 117//117 118//118 116//116 
f 115//115 116//116 114//114 
f 113//113 114//114 112//112 
f 111//111 112//112 110//110 
f 109//109 110//110 108//108 
f 107//107 108//108 106//106 
f 105//105 106//106 104//104 
f 103//103 104//104 102//102 
f 101//101 102//102 100//100 
f 99//99 100//100 98//98 
f 97//97 98//98 96//96 
f 95//95 96//96 94//94 
f 93//93 94//94 92//92 
f 91//91 92//92 90//90 
f 89//89 90//90 88//88 
f 87//87 88//88 86//86 
f 85//85 86//86 84//84 
f 83//83 84//84 82//82 
f 81//81 82//82 80//80 
f 79//79 80//80 78//78 
f 77//77 78//78 76//76 
f 75//75 76//76 74//74 
f 73//73 74//74 72//72 
f 71//71 72//72 70//70 
f 69//69 70//70 68//68 
f 67//67 68//68 66//66 
f 65//65 66//66 64//64 
f 63//63 64//64 61//61 
o mesh25858
v 0.0116802 -0.00789635 0.0635796 
v 0.010758 -0.00911291 0.0635796 
v 0.00908097 -0.00769234 0.0635796 
v 0.00970963 -0.0102226 0.0635796 
v 0.00819605 -0.00862908 0.0635796 
v -0.010758 0.00911291 0.0635796 
v -0.00908097 0.00769234 0.0635796 
v -0.00985942 0.00666543 0.0635796 
v -0.00970963 0.0102226 0.0635796 
v -0.00819605 0.00862908 0.0635796 
v 0.0124476 0.00662087 0.0635796 
v 0.0130905 0.00523623 0.0635796 
v 0.0110499 0.00441999 0.0635796 
v 0.0135799 0.00379021 0.0635796 
v 0.011463 0.00319937 0.0635796 
v 0.0124655 -0.00658721 0.0635796 
v 0.00985942 -0.00666543 0.0635796 
v -0.00854745 0.0112125 0.0635796 
v -0.00721503 0.00946464 0.0635796 
v 0.00150542 0.0140183 0.0635796 
v 0.00127075 0.0118331 0.0635796 
v -1.60812e-05 0.0119011 0.0635796 
v 0.00301224 0.0137734 0.0635796 
v 0.00254268 0.0116263 0.0635796 
v 0.00448374 0.0133669 0.0635796 
v 0.0037848 0.0112832 0.0635796 
v 0.00590268 0.0128038 0.0635796 
v 0.00498254 0.0108079 0.0635796 
v 0.0139101 0.00229975 0.0635796 
v 0.0117417 0.00194125 0.0635796 
v 0.0140772 0.000782321 0.0635796 
v 0.0118828 0.000660369 0.0635796 
v 0.0140792 -0.000744275 0.0635796 
v 0.0118845 -0.000628254 0.0635796 
v 0.0135901 -0.0037535 0.0635796 
v 0.0131046 -0.00520084 0.0635796 
v 0.0110618 -0.00439011 0.0635796 
v 0.0105223 -0.00556036 0.0635796 
v 0.00854745 -0.0112125 0.0635796 
v 0.00721503 -0.00946464 0.0635796 
v -0.0124655 0.00658721 0.0635796 
v -0.0105223 0.00556036 0.0635796 
v -0.0110618 0.00439011 0.0635796 
v -0.0116802 0.00789635 0.0635796 
v -0.00728506 0.0120709 0.0635796 
v -0.00614943 0.0101892 0.0635796 
v -0.00593726 0.0127878 0.0635796 
v -0.00501173 0.0107944 0.0635796 
v -0.00451985 0.0133548 0.0635796 
v -0.00381527 0.011273 0.0635796 
v -0.00304945 0.0137652 0.0635796 
v -0.00257409 0.0116194 0.0635796 
v -0.0015433 0.0140142 0.0635796 
v -0.00130272 0.0118296 0.0635796 
v -1.90509e-05 0.0140989 0.0635796 
v 0.00725241 0.0120906 0.0635796 
v 0.00612187 0.0102058 0.0635796 
v 0.00968197 0.0102488 0.0635796 
v 0.0107333 0.00914195 0.0635796 
v 0.00906015 0.00771686 0.0635796 
v 0.0116588 0.00792788 0.0635796 
v 0.00984138 0.00669205 0.0635796 
v 0.0139162 -0.00226215 0.0635796 
v 0.0117469 -0.00190951 0.0635796 
v 0.0114716 -0.00316838 0.0635796 
v 0.00851712 0.0112356 0.0635796 
v 0.00718943 0.00948411 0.0635796 
v 0.0081727 0.0086512 0.0635796 
v 0.0105072 0.00558878 0.0635796 
v 0.00728506 -0.0120709 0.0635796 
v 0.00614943 -0.0101892 0.0635796 
v 0.00593726 -0.0127878 0.0635796 
v 0.00501173 -0.0107944 0.0635796 
v 0.00451985 -0.0133548 0.0635796 
v 0.00381527 -0.011273 0.0635796 
v -0.00448374 -0.0133669 0.0635796 
v -0.0037848 -0.0112832 0.0635796 
v -0.00254268 -0.0116263 0.0635796 
v -0.00590268 -0.0128038 0.0635796 
v -0.00498254 -0.0108079 0.0635796 
v -0.0135901 0.0037535 0.0635796 
v -0.0114716 0.00316838 0.0635796 
v -0.0117469 0.00190951 0.0635796 
v -0.0131046 0.00520084 0.0635796 
v 0.00304945 -0.0137652 0.0635796 
v 0.00257409 -0.0116194 0.0635796 
v 0.0015433 -0.0140142 0.0635796 
v 0.00130272 -0.0118296 0.0635796 
v -0.00725241 -0.0120906 0.0635796 
v -0.00612187 -0.0102058 0.0635796 
v -0.00851712 -0.0112356 0.0635796 
v -0.00718943 -0.00948411 0.0635796 
v -0.00968197 -0.0102488 0.0635796 
v -0.0081727 -0.0086512 0.0635796 
v -0.0139162 0.00226215 0.0635796 
v -0.0118845 0.000628254 0.0635796 
v 1.90509e-05 -0.0140989 0.0635796 
v 1.60812e-05 -0.0119011 0.0635796 
v -0.0107333 -0.00914195 0.0635796 
v -0.00906015 -0.00771686 0.0635796 
v -0.0116588 -0.00792788 0.0635796 
v -0.00984138 -0.00669205 0.0635796 
v -0.0130905 -0.00523623 0.0635796 
v -0.0110499 -0.00441999 0.0635796 
v -0.0105072 -0.00558878 0.0635796 
v -0.0135799 -0.00379021 0.0635796 
v -0.011463 -0.00319937 0.0635796 
v -0.0124476 -0.00662087 0.0635796 
v -0.0139101 -0.00229975 0.0635796 
v -0.0117417 -0.00194125 0.0635796 
v -0.0140772 -0.000782321 0.0635796 
v -0.0118828 -0.000660369 0.0635796 
v -0.00150542 -0.0140183 0.0635796 
v -0.00127075 -0.0118331 0.0635796 
v -0.00301224 -0.0137734 0.0635796 
v -0.0140792 0.000744275 0.0635796 
vn -1e-14 -1.80733e-16 -1 
vn -1e-14 -1.80733e-16 -1 
vn -1e-14 -1.80733e-16 -1 
vn -1e-14 -1.80733e-16 -1 
vn -1e-14 -1.80733e-16 -1 
vn -1e-14 -1.80733e-16 -1 
vn -1e-14 -1.80733e-16 -1 
vn -1e-14 -1.80733e-16 -1 
vn -1e-14 -1.80733e-16 -1 
vn -1e-14 -1.80733e-16 -1 
vn -1e-14 -1.80733e-16 -1 
vn -1e-14 -1.80733e-16 -1 
vn -1e-14 -1.80733e-16 -1 
vn -1e-14 -1.80733e-16 -1 
vn -1e-14 -1.80733e-16 -1 
vn -1e-14 -1.80733e-16 -1 
vn -1e-14 -1.80733e-16 -1 
vn -1e-14 -1.80733e-16 -1 
vn -1e-14 -1.80733e-16 -1 
vn -1e-14 -1.80733e-16 -1 
vn -1e-14 -1.80733e-16 -1 
vn -1e-14 -1.80733e-16 -1 
vn -1e-14 -1.80733e-16 -1 
vn -1e-14 -1.80733e-16 -1 
vn -1e-14 -1.80733e-16 -1 
vn -1e-14 -1.80733e-16 -1 
vn -1e-14 -1.80733e-16 -1 
vn -1e-14 -1.80733e-16 -1 
vn -1e-14 -1.80733e-16 -1 
vn -1e-14 -1.80733e-16 -1 
vn -1e-14 -1.80733e-16 -1 
vn -1e-14 -1.80733e-16 -1 
vn -1e-14 -1.80733e-16 -1 
vn -1e-14 -1.80733e-16 -1 
vn -1e-14 -1.80733e-16 -1 
vn -1e-14 -1.80733e-16 -1 
vn -1e-14 -1.80733e-16 -1 
vn -1e-14 -1.80733e-16 -1 
vn -1e-14 -1.80733e-16 -1 
vn -1e-14 -1.80733e-16 -1 
vn -1e-14 -1.80733e-16 -1 
vn -1e-14 -1.80733e-16 -1 
vn -1e-14 -1.80733e-16 -1 
vn -1e-14 -1.80733e-16 -1 
vn -1e-14 -1.80733e-16 -1 
vn -1e-14 -1.80733e-16 -1 
vn -1e-14 -1.80733e-16 -1 
vn -1e-14 -1.80733e-16 -1 
vn -1e-14 -1.80733e-16 -1 
vn -1e-14 -1.80733e-16 -1 
vn -1e-14 -1.80733e-16 -1 
vn -1e-14 -1.80733e-16 -1 
vn -1e-14 -1.80733e-16 -1 
vn -1e-14 -1.80733e-16 -1 
vn -1e-14 -1.80733e-16 -1 
vn -1e-14 -1.80733e-16 -1 
vn -1e-14 -1.80733e-16 -1 
vn -1e-14 -1.80733e-16 -1 
vn -1e-14 -1.80733e-16 -1 
vn -1e-14 -1.80733e-16 -1 
vn -1e-14 -1.80733e-16 -1 
vn -1e-14 -1.80733e-16 -1 
vn -1e-14 -1.80733e-16 -1 
vn -1e-14 -1.80733e-16 -1 
vn -1e-14 -1.80733e-16 -1 
vn -1e-14 -1.80733e-16 -1 
vn -1e-14 -1.80733e-16 -1 
vn -1e-14 -1.80733e-16 -1 
vn -1e-14 -1.80733e-16 -1 
vn -1e-14 -1.80733e-16 -1 
vn -1e-14 -1.80733e-16 -1 
vn -1e-14 -1.80733e-16 -1 
vn -1e-14 -1.80733e-16 -1 
vn -1e-14 -1.80733e-16 -1 
vn -1e-14 -1.80733e-16 -1 
vn -1e-14 -1.80733e-16 -1 
vn -1e-14 -1.80733e-16 -1 
vn -1e-14 -1.80733e-16 -1 
vn -1e-14 -1.80733e-16 -1 
vn -1e-14 -1.80733e-16 -1 
vn -1e-14 -1.80733e-16 -1 
vn -1e-14 -1.80733e-16 -1 
vn -1e-14 -1.80733e-16 -1 
vn -1e-14 -1.80733e-16 -1 
vn -1e-14 -1.80733e-16 -1 
vn -1e-14 -1.80733e-16 -1 
vn -1e-14 -1.80733e-16 -1 
vn -1e-14 -1.80733e-16 -1 
vn -1e-14 -1.80733e-16 -1 
vn -1e-14 -1.80733e-16 -1 
vn -1e-14 -1.80733e-16 -1 
vn -1e-14 -1.80733e-16 -1 
vn -1e-14 -1.80733e-16 -1 
vn -1e-14 -1.80733e-16 -1 
vn -1e-14 -1.80733e-16 -1 
vn -1e-14 -1.80733e-16 -1 
vn -1e-14 -1.80733e-16 -1 
vn -1e-14 -1.80733e-16 -1 
vn -1e-14 -1.80733e-16 -1 
vn -1e-14 -1.80733e-16 -1 
vn -1e-14 -1.80733e-16 -1 
vn -1e-14 -1.80733e-16 -1 
vn -1e-14 -1.80733e-16 -1 
vn -1e-14 -1.80733e-16 -1 
vn -1e-14 -1.80733e-16 -1 
vn -1e-14 -1.80733e-16 -1 
vn -1e-14 -1.80733e-16 -1 
vn -1e-14 -1.80733e-16 -1 
vn -1e-14 -1.80733e-16 -1 
vn -1e-14 -1.80733e-16 -1 
vn -1e-14 -1.80733e-16 -1 
vn -1e-14 -1.80733e-16 -1 
vn -1e-14 -1.80733e-16 -1 
vn -1e-14 -1.80733e-16 -1 
vn -1e-14 -1.80733e-16 -1 
vn -1e-14 -1.80733e-16 -1 
f 121//121 122//122 123//123 
f 122//122 124//124 125//125 
f 126//126 127//127 128//128 
f 129//129 130//130 127//127 
f 131//131 132//132 133//133 
f 132//132 134//134 135//135 
f 136//136 121//121 137//137 
f 125//125 123//123 122//122 
f 127//127 126//126 129//129 
f 138//138 139//139 130//130 
f 140//140 141//141 142//142 
f 140//140 143//143 144//144 
f 145//145 146//146 144//144 
f 145//145 147//147 148//148 
f 135//135 133//133 132//132 
f 134//134 149//149 150//150 
f 149//149 151//151 152//152 
f 151//151 153//153 154//154 
f 155//155 156//156 157//157 
f 156//156 136//136 158//158 
f 123//123 137//137 121//121 
f 124//124 159//159 160//160 
f 161//161 162//162 163//163 
f 164//164 128//128 162//162 
f 130//130 129//129 138//138 
f 165//165 166//166 139//139 
f 167//167 168//168 166//166 
f 169//169 170//170 168//168 
f 171//171 172//172 170//170 
f 173//173 174//174 172//172 
f 175//175 142//142 174//174 
f 144//144 141//141 140//140 
f 148//148 146//146 145//145 
f 147//147 176//176 177//177 
f 178//178 179//179 180//180 
f 179//179 181//181 182//182 
f 150//150 135//135 134//134 
f 154//154 152//152 151//151 
f 153//153 183//183 184//184 
f 183//183 155//155 185//185 
f 158//158 157//157 156//156 
f 160//160 125//125 124//124 
f 162//162 161//161 164//164 
f 139//139 138//138 165//165 
f 168//168 167//167 169//169 
f 172//172 171//171 173//173 
f 142//142 175//175 140//140 
f 177//177 148//148 147//147 
f 176//176 186//186 187//187 
f 186//186 178//178 188//188 
f 182//182 180//180 179//179 
f 181//181 131//131 189//189 
f 152//152 150//150 149//149 
f 185//185 184//184 183//183 
f 137//137 158//158 136//136 
f 159//159 190//190 191//191 
f 190//190 192//192 193//193 
f 192//192 194//194 195//195 
f 196//196 197//197 198//198 
f 196//196 199//199 200//200 
f 201//201 202//202 203//203 
f 204//204 163//163 202//202 
f 128//128 164//164 126//126 
f 170//170 169//169 171//171 
f 144//144 143//143 145//145 
f 188//188 187//187 186//186 
f 189//189 182//182 181//181 
f 184//184 154//154 153//153 
f 191//191 160//160 159//159 
f 195//195 193//193 192//192 
f 194//194 205//205 206//206 
f 205//205 207//207 208//208 
f 200//200 197//197 196//196 
f 199//199 209//209 210//210 
f 211//211 212//212 210//210 
f 213//213 214//214 212//212 
f 215//215 203//203 216//216 
f 202//202 201//201 204//204 
f 166//166 165//165 167//167 
f 187//187 177//177 176//176 
f 133//133 189//189 131//131 
f 193//193 191//191 190//190 
f 208//208 206//206 205//205 
f 207//207 217//217 218//218 
f 210//210 200//200 199//199 
f 212//212 211//211 213//213 
f 219//219 220//220 214//214 
f 219//219 221//221 222//222 
f 223//223 224//224 225//225 
f 226//226 227//227 224//224 
f 203//203 215//215 201//201 
f 174//174 173//173 175//175 
f 157//157 185//185 155//155 
f 218//218 208//208 207//207 
f 210//210 209//209 211//211 
f 222//222 220//220 219//219 
f 228//228 225//225 222//222 
f 224//224 223//223 226//226 
f 229//229 230//230 227//227 
f 231//231 232//232 230//230 
f 163//163 204//204 161//161 
f 206//206 195//195 194//194 
f 233//233 234//234 218//218 
f 233//233 235//235 198//198 
f 214//214 213//213 219//219 
f 225//225 228//228 223//223 
f 230//230 229//229 231//231 
f 236//236 216//216 232//232 
f 180//180 188//188 178//178 
f 198//198 234//234 233//233 
f 222//222 221//221 228//228 
f 232//232 231//231 236//236 
f 218//218 217//217 233//233 
f 227//227 226//226 229//229 
f 198//198 235//235 196//196 
f 216//216 236//236 215//215 
o mesh25859
v 0.00590268 0.0128038 0.065 
v 0.00498254 0.0108079 0.065 
v 0.00612187 0.0102058 0.065 
v 0.00448374 0.0133669 0.065 
v 0.0037848 0.0112832 0.065 
v -0.00854745 0.0112125 0.065 
v -0.00970963 0.0102226 0.065 
v -0.00819605 0.00862908 0.065 
v -0.010758 0.00911291 0.065 
v -0.00908097 0.00769234 0.065 
v 0.00851712 0.0112356 0.065 
v 0.00718943 0.00948411 0.065 
v 0.0081727 0.0086512 0.065 
v 0.00725241 0.0120906 0.065 
v 0.00301224 0.0137734 0.065 
v 0.00254268 0.0116263 0.065 
v -0.00728506 0.0120709 0.065 
v -0.00721503 0.00946464 0.065 
v 0.00150542 0.0140183 0.065 
v 0.00127075 0.0118331 0.065 
v -1.90509e-05 0.0140989 0.065 
v -1.60812e-05 0.0119011 0.065 
v -0.0015433 0.0140142 0.065 
v -0.00304945 0.0137652 0.065 
v -0.00257409 0.0116194 0.065 
v -0.00451985 0.0133548 0.065 
v -0.00381527 0.011273 0.065 
v -0.00593726 0.0127878 0.065 
v -0.00501173 0.0107944 0.065 
v -0.00614943 0.0101892 0.065 
v -0.0116802 0.00789635 0.065 
v -0.00985942 0.00666543 0.065 
v -0.0124655 0.00658721 0.065 
v -0.0105223 0.00556036 0.065 
v -0.0131046 0.00520084 0.065 
v -0.0110618 0.00439011 0.065 
v 0.0135799 0.00379021 0.065 
v 0.011463 0.00319937 0.065 
v 0.0117417 0.00194125 0.065 
v 0.0130905 0.00523623 0.065 
v 0.0110499 0.00441999 0.065 
v -0.0135901 0.0037535 0.065 
v -0.0114716 0.00316838 0.065 
v -0.0139162 0.00226215 0.065 
v -0.0117469 0.00190951 0.065 
v -0.0140792 0.000744275 0.065 
v -0.0118845 0.000628254 0.065 
v -0.0140772 -0.000782321 0.065 
v -0.0118828 -0.000660369 0.065 
v -0.0107333 -0.00914195 0.065 
v -0.00906015 -0.00771686 0.065 
v -0.00984138 -0.00669205 0.065 
v -0.00968197 -0.0102488 0.065 
v -0.0081727 -0.0086512 0.065 
v -0.00851712 -0.0112356 0.065 
v -0.00718943 -0.00948411 0.065 
v -0.00725241 -0.0120906 0.065 
v -0.00612187 -0.0102058 0.065 
v -0.00590268 -0.0128038 0.065 
v -0.00498254 -0.0108079 0.065 
v -0.00448374 -0.0133669 0.065 
v -0.0037848 -0.0112832 0.065 
v 0.0140772 0.000782321 0.065 
v 0.0118828 0.000660369 0.065 
v 0.0118845 -0.000628254 0.065 
v 0.0139101 0.00229975 0.065 
v 0.0124476 0.00662087 0.065 
v 0.0105072 0.00558878 0.065 
v -0.00130272 0.0118296 0.065 
v -0.0139101 -0.00229975 0.065 
v -0.0117417 -0.00194125 0.065 
v -0.0135799 -0.00379021 0.065 
v -0.011463 -0.00319937 0.065 
v -0.0130905 -0.00523623 0.065 
v -0.0110499 -0.00441999 0.065 
v -0.0124476 -0.00662087 0.065 
v -0.0105072 -0.00558878 0.065 
v -0.00301224 -0.0137734 0.065 
v -0.00254268 -0.0116263 0.065 
v 0.00593726 -0.0127878 0.065 
v 0.00501173 -0.0107944 0.065 
v 0.00381527 -0.011273 0.065 
v 0.00728506 -0.0120709 0.065 
v 0.00614943 -0.0101892 0.065 
v 0.010758 -0.00911291 0.065 
v 0.00908097 -0.00769234 0.065 
v 0.00819605 -0.00862908 0.065 
v 0.0116802 -0.00789635 0.065 
v 0.00985942 -0.00666543 0.065 
v -0.0116588 -0.00792788 0.065 
v 0.00854745 -0.0112125 0.065 
v 0.00721503 -0.00946464 0.065 
v 0.00970963 -0.0102226 0.065 
v 0.0124655 -0.00658721 0.065 
v 0.0105223 -0.00556036 0.065 
v 0.0131046 -0.00520084 0.065 
v 0.0110618 -0.00439011 0.065 
v 0.0116588 0.00792788 0.065 
v 0.00984138 0.00669205 0.065 
v 0.0107333 0.00914195 0.065 
v 0.00906015 0.00771686 0.065 
v 0.00968197 0.0102488 0.065 
v 0.0135901 -0.0037535 0.065 
v 0.0114716 -0.00316838 0.065 
v 0.00304945 -0.0137652 0.065 
v 0.00257409 -0.0116194 0.065 
v 0.00130272 -0.0118296 0.065 
v 0.00451985 -0.0133548 0.065 
v 0.0139162 -0.00226215 0.065 
v 0.0117469 -0.00190951 0.065 
v 0.0140792 -0.000744275 0.065 
v -0.00150542 -0.0140183 0.065 
v -0.00127075 -0.0118331 0.065 
v 1.90509e-05 -0.0140989 0.065 
v 1.60812e-05 -0.0119011 0.065 
v 0.0015433 -0.0140142 0.065 
vn 1e-14 1.80733e-16 1 
vn 1e-14 1.80733e-16 1 
vn 1e-14 1.80733e-16 1 
vn 1e-14 1.80733e-16 1 
vn 1e-14 1.80733e-16 1 
vn 1e-14 1.80733e-16 1 
vn 1e-14 1.80733e-16 1 
vn 1e-14 1.80733e-16 1 
vn 1e-14 1.80733e-16 1 
vn 1e-14 1.80733e-16 1 
vn 1e-14 1.80733e-16 1 
vn 1e-14 1.80733e-16 1 
vn 1e-14 1.80733e-16 1 
vn 1e-14 1.80733e-16 1 
vn 1e-14 1.80733e-16 1 
vn 1e-14 1.80733e-16 1 
vn 1e-14 1.80733e-16 1 
vn 1e-14 1.80733e-16 1 
vn 1e-14 1.80733e-16 1 
vn 1e-14 1.80733e-16 1 
vn 1e-14 1.80733e-16 1 
vn 1e-14 1.80733e-16 1 
vn 1e-14 1.80733e-16 1 
vn 1e-14 1.80733e-16 1 
vn 1e-14 1.80733e-16 1 
vn 1e-14 1.80733e-16 1 
vn 1e-14 1.80733e-16 1 
vn 1e-14 1.80733e-16 1 
vn 1e-14 1.80733e-16 1 
vn 1e-14 1.80733e-16 1 
vn 1e-14 1.80733e-16 1 
vn 1e-14 1.80733e-16 1 
vn 1e-14 1.80733e-16 1 
vn 1e-14 1.80733e-16 1 
vn 1e-14 1.80733e-16 1 
vn 1e-14 1.80733e-16 1 
vn 1e-14 1.80733e-16 1 
vn 1e-14 1.80733e-16 1 
vn 1e-14 1.80733e-16 1 
vn 1e-14 1.80733e-16 1 
vn 1e-14 1.80733e-16 1 
vn 1e-14 1.80733e-16 1 
vn 1e-14 1.80733e-16 1 
vn 1e-14 1.80733e-16 1 
vn 1e-14 1.80733e-16 1 
vn 1e-14 1.80733e-16 1 
vn 1e-14 1.80733e-16 1 
vn 1e-14 1.80733e-16 1 
vn 1e-14 1.80733e-16 1 
vn 1e-14 1.80733e-16 1 
vn 1e-14 1.80733e-16 1 
vn 1e-14 1.80733e-16 1 
vn 1e-14 1.80733e-16 1 
vn 1e-14 1.80733e-16 1 
vn 1e-14 1.80733e-16 1 
vn 1e-14 1.80733e-16 1 
vn 1e-14 1.80733e-16 1 
vn 1e-14 1.80733e-16 1 
vn 1e-14 1.80733e-16 1 
vn 1e-14 1.80733e-16 1 
vn 1e-14 1.80733e-16 1 
vn 1e-14 1.80733e-16 1 
vn 1e-14 1.80733e-16 1 
vn 1e-14 1.80733e-16 1 
vn 1e-14 1.80733e-16 1 
vn 1e-14 1.80733e-16 1 
vn 1e-14 1.80733e-16 1 
vn 1e-14 1.80733e-16 1 
vn 1e-14 1.80733e-16 1 
vn 1e-14 1.80733e-16 1 
vn 1e-14 1.80733e-16 1 
vn 1e-14 1.80733e-16 1 
vn 1e-14 1.80733e-16 1 
vn 1e-14 1.80733e-16 1 
vn 1e-14 1.80733e-16 1 
vn 1e-14 1.80733e-16 1 
vn 1e-14 1.80733e-16 1 
vn 1e-14 1.80733e-16 1 
vn 1e-14 1.80733e-16 1 
vn 1e-14 1.80733e-16 1 
vn 1e-14 1.80733e-16 1 
vn 1e-14 1.80733e-16 1 
vn 1e-14 1.80733e-16 1 
vn 1e-14 1.80733e-16 1 
vn 1e-14 1.80733e-16 1 
vn 1e-14 1.80733e-16 1 
vn 1e-14 1.80733e-16 1 
vn 1e-14 1.80733e-16 1 
vn 1e-14 1.80733e-16 1 
vn 1e-14 1.80733e-16 1 
vn 1e-14 1.80733e-16 1 
vn 1e-14 1.80733e-16 1 
vn 1e-14 1.80733e-16 1 
vn 1e-14 1.80733e-16 1 
vn 1e-14 1.80733e-16 1 
vn 1e-14 1.80733e-16 1 
vn 1e-14 1.80733e-16 1 
vn 1e-14 1.80733e-16 1 
vn 1e-14 1.80733e-16 1 
vn 1e-14 1.80733e-16 1 
vn 1e-14 1.80733e-16 1 
vn 1e-14 1.80733e-16 1 
vn 1e-14 1.80733e-16 1 
vn 1e-14 1.80733e-16 1 
vn 1e-14 1.80733e-16 1 
vn 1e-14 1.80733e-16 1 
vn 1e-14 1.80733e-16 1 
vn 1e-14 1.80733e-16 1 
vn 1e-14 1.80733e-16 1 
vn 1e-14 1.80733e-16 1 
vn 1e-14 1.80733e-16 1 
vn 1e-14 1.80733e-16 1 
vn 1e-14 1.80733e-16 1 
vn 1e-14 1.80733e-16 1 
vn 1e-14 1.80733e-16 1 
vn 1e-14 1.80733e-16 1 
f 237//237 238//238 239//239 
f 240//240 241//241 238//238 
f 242//242 243//243 244//244 
f 243//243 245//245 246//246 
f 247//247 248//248 249//249 
f 250//250 239//239 248//248 
f 238//238 237//237 240//240 
f 240//240 251//251 252//252 
f 253//253 242//242 254//254 
f 246//246 244//244 243//243 
f 248//248 247//247 250//250 
f 252//252 241//241 240//240 
f 251//251 255//255 256//256 
f 255//255 257//257 258//258 
f 259//259 260//260 261//261 
f 260//260 262//262 263//263 
f 262//262 264//264 265//265 
f 264//264 253//253 266//266 
f 244//244 254//254 242//242 
f 245//245 267//267 268//268 
f 267//267 269//269 270//270 
f 269//269 271//271 272//272 
f 273//273 274//274 275//275 
f 276//276 277//277 274//274 
f 239//239 250//250 237//237 
f 258//258 256//256 255//255 
f 263//263 261//261 260//260 
f 266//266 265//265 264//264 
f 268//268 246//246 245//245 
f 272//272 270//270 269//269 
f 271//271 278//278 279//279 
f 278//278 280//280 281//281 
f 280//280 282//282 283//283 
f 282//282 284//284 285//285 
f 286//286 287//287 288//288 
f 286//286 289//289 290//290 
f 289//289 291//291 292//292 
f 291//291 293//293 294//294 
f 295//295 296//296 294//294 
f 295//295 297//297 298//298 
f 299//299 300//300 301//301 
f 302//302 275//275 300//300 
f 274//274 273//273 276//276 
f 303//303 304//304 277//277 
f 256//256 252//252 251//251 
f 257//257 259//259 305//305 
f 265//265 263//263 262//262 
f 270//270 268//268 267//267 
f 281//281 279//279 278//278 
f 285//285 283//283 282//282 
f 284//284 306//306 307//307 
f 306//306 308//308 309//309 
f 308//308 310//310 311//311 
f 310//310 312//312 313//313 
f 290//290 287//287 286//286 
f 294//294 292//292 291//291 
f 298//298 296//296 295//295 
f 297//297 314//314 315//315 
f 316//316 317//317 318//318 
f 319//319 320//320 317//317 
f 321//321 322//322 323//323 
f 324//324 325//325 322//322 
f 300//300 299//299 302//302 
f 277//277 276//276 303//303 
f 305//305 258//258 257//257 
f 254//254 266//266 253//253 
f 283//283 281//281 280//280 
f 309//309 307//307 306//306 
f 313//313 311//311 310//310 
f 312//312 326//326 288//288 
f 292//292 290//290 289//289 
f 315//315 298//298 297//297 
f 317//317 316//316 319//319 
f 327//327 328//328 320//320 
f 329//329 323//323 328//328 
f 322//322 321//321 324//324 
f 330//330 331//331 325//325 
f 332//332 333//333 331//331 
f 275//275 302//302 273//273 
f 334//334 335//335 304//304 
f 336//336 337//337 335//335 
f 338//338 249//249 337//337 
f 261//261 305//305 259//259 
f 307//307 285//285 284//284 
f 288//288 313//313 312//312 
f 294//294 293//293 295//295 
f 320//320 319//319 327//327 
f 323//323 329//329 321//321 
f 331//331 330//330 332//332 
f 339//339 340//340 333//333 
f 304//304 303//303 334//334 
f 337//337 336//336 338//338 
f 279//279 272//272 271//271 
f 288//288 326//326 286//286 
f 341//341 342//342 343//343 
f 344//344 318//318 342//342 
f 328//328 327//327 329//329 
f 333//333 332//332 339//339 
f 345//345 346//346 340//340 
f 347//347 301//301 346//346 
f 335//335 334//334 336//336 
f 311//311 309//309 308//308 
f 348//348 349//349 315//315 
f 348//348 350//350 351//351 
f 352//352 343//343 351//351 
f 342//342 341//341 344//344 
f 325//325 324//324 330//330 
f 346//346 345//345 347//347 
f 249//249 338//338 247//247 
f 351//351 349//349 348//348 
f 343//343 352//352 341//341 
f 340//340 339//339 345//345 
f 315//315 314//314 348//348 
f 318//318 344//344 316//316 
f 351//351 350//350 352//352 
f 301//301 347//347 299//299 
o mesh25860
v -0.0110618 0.00439011 0.065 
v -0.0114716 0.00316838 0.065 
v -0.0114716 0.00316838 0.0635796 
v -0.0105223 0.00556036 0.065 
v -0.0110618 0.00439011 0.0635796 
v -0.00985942 0.00666543 0.065 
v -0.0105223 0.00556036 0.0635796 
v -0.00908097 0.00769234 0.065 
v -0.00985942 0.00666543 0.0635796 
v -0.00819605 0.00862908 0.065 
v -0.00908097 0.00769234 0.0635796 
v -0.00721503 0.00946464 0.065 
v -0.00819605 0.00862908 0.0635796 
v -0.00614943 0.0101892 0.065 
v -0.00721503 0.00946464 0.0635796 
v -0.00501173 0.0107944 0.065 
v -0.00614943 0.0101892 0.0635796 
v -0.00381527 0.011273 0.065 
v -0.00501173 0.0107944 0.0635796 
v -0.00257409 0.0116194 0.065 
v -0.00381527 0.011273 0.0635796 
v -0.00130272 0.0118296 0.065 
v -0.00257409 0.0116194 0.0635796 
v -1.60812e-05 0.0119011 0.065 
v -0.00130272 0.0118296 0.0635796 
v 0.00127075 0.0118331 0.065 
v -1.60812e-05 0.0119011 0.0635796 
v 0.00254268 0.0116263 0.065 
v 0.00127075 0.0118331 0.0635796 
v 0.0037848 0.0112832 0.065 
v 0.00254268 0.0116263 0.0635796 
v 0.00498254 0.0108079 0.065 
v 0.0037848 0.0112832 0.0635796 
v 0.00612187 0.0102058 0.065 
v 0.00498254 0.0108079 0.0635796 
v 0.00718943 0.00948411 0.065 
v 0.00612187 0.0102058 0.0635796 
v 0.0081727 0.0086512 0.065 
v 0.00718943 0.00948411 0.0635796 
v 0.00906015 0.00771686 0.065 
v 0.0081727 0.0086512 0.0635796 
v 0.00984138 0.00669205 0.065 
v 0.00906015 0.00771686 0.0635796 
v 0.0105072 0.00558878 0.065 
v 0.00984138 0.00669205 0.0635796 
v 0.0110499 0.00441999 0.065 
v 0.0105072 0.00558878 0.0635796 
v 0.011463 0.00319937 0.065 
v 0.0110499 0.00441999 0.0635796 
v 0.0117417 0.00194125 0.065 
v 0.011463 0.00319937 0.0635796 
v 0.0118828 0.000660369 0.065 
v 0.0117417 0.00194125 0.0635796 
v 0.0118845 -0.000628254 0.065 
v 0.0118828 0.000660369 0.0635796 
v 0.0117469 -0.00190951 0.065 
v 0.0118845 -0.000628254 0.0635796 
v 0.0114716 -0.00316838 0.065 
v 0.0117469 -0.00190951 0.0635796 
v 0.0114716 -0.00316838 0.0635796 
vn 0.929476 -0.368883 -9.27592e-15 
vn 0.963911 -0.266226 -9.63911e-15 
vn 0.963911 -0.266226 -9.63911e-15 
vn 0.884144 -0.467214 -8.80399e-15 
vn 0.929476 -0.368883 -9.27592e-15 
vn 0.828447 -0.560068 -8.22884e-15 
vn 0.884144 -0.467214 -8.80399e-15 
vn 0.763036 -0.646356 -7.55721e-15 
vn 0.828447 -0.560068 -8.22884e-15 
vn 0.68868 -0.725066 -6.79698e-15 
vn 0.763036 -0.646356 -7.55721e-15 
vn 0.606249 -0.795275 -5.95707e-15 
vn 0.68868 -0.725066 -6.79698e-15 
vn 0.516711 -0.85616 -5.04731e-15 
vn 0.606249 -0.795275 -5.95707e-15 
vn 0.421115 -0.907007 -4.07837e-15 
vn 0.516711 -0.85616 -5.04731e-15 
vn 0.320582 -0.947221 -3.06163e-15 
vn 0.421115 -0.907007 -4.07837e-15 
vn 0.21629 -0.976329 -2.00898e-15 
vn 0.320582 -0.947221 -3.06163e-15 
vn 0.109462 -0.993991 -9.32785e-16 
vn 0.21629 -0.976329 -2.00898e-15 
vn 0.00135123 -0.999999 1.54348e-16 
vn 0.109462 -0.993991 -9.32785e-16 
vn -0.106776 -0.994283 1.23967e-15 
vn 0.00135123 -0.999999 1.54348e-16 
vn -0.213651 -0.97691 2.31046e-15 
vn -0.106776 -0.994283 1.23967e-15 
vn -0.318021 -0.948084 3.35416e-15 
vn -0.213651 -0.97691 2.31046e-15 
vn -0.418662 -0.908142 4.35854e-15 
vn -0.318021 -0.948084 3.35416e-15 
vn -0.514396 -0.857553 5.31182e-15 
vn -0.418662 -0.908142 4.35854e-15 
vn -0.604098 -0.79691 6.20282e-15 
vn -0.514396 -0.857553 5.31182e-15 
vn -0.686718 -0.726924 7.0211e-15 
vn -0.604098 -0.79691 6.20282e-15 
vn -0.761287 -0.648416 7.75706e-15 
vn -0.686718 -0.726924 7.0211e-15 
vn -0.82693 -0.562305 8.40208e-15 
vn -0.761287 -0.648416 7.75706e-15 
vn -0.882878 -0.469602 8.94859e-15 
vn -0.82693 -0.562305 8.40208e-15 
vn -0.928476 -0.371393 9.39019e-15 
vn -0.882878 -0.469602 8.94859e-15 
vn -0.963188 -0.26883 9.72169e-15 
vn -0.928476 -0.371393 9.39019e-15 
vn -0.986607 -0.163115 9.93922e-15 
vn -0.963188 -0.26883 9.72169e-15 
vn -0.998459 -0.0554881 1.00402e-14 
vn -0.986607 -0.163115 9.93922e-15 
vn -0.998606 0.0527896 1.00235e-14 
vn -0.998459 -0.0554881 1.00402e-14 
vn -0.987044 0.160448 9.88928e-15 
vn -0.998606 0.0527896 1.00235e-14 
vn -0.963911 0.266226 9.63911e-15 
vn -0.987044 0.160448 9.88928e-15 
vn -0.963911 0.266226 9.63911e-15 
f 353//353 354//354 355//355 
f 356//356 353//353 357//357 
f 358//358 356//356 359//359 
f 360//360 358//358 361//361 
f 362//362 360//360 363//363 
f 364//364 362//362 365//365 
f 366//366 364//364 367//367 
f 368//368 366//366 369//369 
f 370//370 368//368 371//371 
f 372//372 370//370 373//373 
f 374//374 372//372 375//375 
f 376//376 374//374 377//377 
f 378//378 376//376 379//379 
f 380//380 378//378 381//381 
f 382//382 380//380 383//383 
f 384//384 382//382 385//385 
f 386//386 384//384 387//387 
f 388//388 386//386 389//389 
f 390//390 388//388 391//391 
f 392//392 390//390 393//393 
f 394//394 392//392 395//395 
f 396//396 394//394 397//397 
f 398//398 396//396 399//399 
f 400//400 398//398 401//401 
f 402//402 400//400 403//403 
f 404//404 402//402 405//405 
f 406//406 404//404 407//407 
f 408//408 406//406 409//409 
f 410//410 408//408 411//411 
f 411//411 412//412 410//410 
f 409//409 411//411 408//408 
f 407//407 409//409 406//406 
f 405//405 407//407 404//404 
f 403//403 405//405 402//402 
f 401//401 403//403 400//400 
f 399//399 401//401 398//398 
f 397//397 399//399 396//396 
f 395//395 397//397 394//394 
f 393//393 395//395 392//392 
f 391//391 393//393 390//390 
f 389//389 391//391 388//388 
f 387//387 389//389 386//386 
f 385//385 387//387 384//384 
f 383//383 385//385 382//382 
f 381//381 383//383 380//380 
f 379//379 381//381 378//378 
f 377//377 379//379 376//376 
f 375//375 377//377 374//374 
f 373//373 375//375 372//372 
f 371//371 373//373 370//370 
f 369//369 371//371 368//368 
f 367//367 369//369 366//366 
f 365//365 367//367 364//364 
f 363//363 365//365 362//362 
f 361//361 363//363 360//360 
f 359//359 361//361 358//358 
f 357//357 359//359 356//356 
f 355//355 357//357 353//353 
o mesh25861
v 0.0110618 -0.00439011 0.065 
v 0.0114716 -0.00316838 0.065 
v 0.0114716 -0.00316838 0.0635796 
v 0.0105223 -0.00556036 0.065 
v 0.0110618 -0.00439011 0.0635796 
v 0.00985942 -0.00666543 0.065 
v 0.0105223 -0.00556036 0.0635796 
v 0.00908097 -0.00769234 0.065 
v 0.00985942 -0.00666543 0.0635796 
v 0.00819605 -0.00862908 0.065 
v 0.00908097 -0.00769234 0.0635796 
v 0.00721503 -0.00946464 0.065 
v 0.00819605 -0.00862908 0.0635796 
v 0.00614943 -0.0101892 0.065 
v 0.00721503 -0.00946464 0.0635796 
v 0.00501173 -0.0107944 0.065 
v 0.00614943 -0.0101892 0.0635796 
v 0.00381527 -0.011273 0.065 
v 0.00501173 -0.0107944 0.0635796 
v 0.00257409 -0.0116194 0.065 
v 0.00381527 -0.011273 0.0635796 
v 0.00130272 -0.0118296 0.065 
v 0.00257409 -0.0116194 0.0635796 
v 1.60812e-05 -0.0119011 0.065 
v 0.00130272 -0.0118296 0.0635796 
v -0.00127075 -0.0118331 0.065 
v 1.60812e-05 -0.0119011 0.0635796 
v -0.00254268 -0.0116263 0.065 
v -0.00127075 -0.0118331 0.0635796 
v -0.0037848 -0.0112832 0.065 
v -0.00254268 -0.0116263 0.0635796 
v -0.00498254 -0.0108079 0.065 
v -0.0037848 -0.0112832 0.0635796 
v -0.00612187 -0.0102058 0.065 
v -0.00498254 -0.0108079 0.0635796 
v -0.00718943 -0.00948411 0.065 
v -0.00612187 -0.0102058 0.0635796 
v -0.0081727 -0.0086512 0.065 
v -0.00718943 -0.00948411 0.0635796 
v -0.00906015 -0.00771686 0.065 
v -0.0081727 -0.0086512 0.0635796 
v -0.00984138 -0.00669205 0.065 
v -0.00906015 -0.00771686 0.0635796 
v -0.0105072 -0.00558878 0.065 
v -0.00984138 -0.00669205 0.0635796 
v -0.0110499 -0.00441999 0.065 
v -0.0105072 -0.00558878 0.0635796 
v -0.011463 -0.00319937 0.065 
v -0.0110499 -0.00441999 0.0635796 
v -0.0117417 -0.00194125 0.065 
v -0.011463 -0.00319937 0.0635796 
v -0.0118828 -0.000660369 0.065 
v -0.0117417 -0.00194125 0.0635796 
v -0.0118845 0.000628254 0.065 
v -0.0118828 -0.000660369 0.0635796 
v -0.0117469 0.00190951 0.065 
v -0.0118845 0.000628254 0.0635796 
v -0.0114716 0.00316838 0.065 
v -0.0117469 0.00190951 0.0635796 
v -0.0114716 0.00316838 0.0635796 
vn -0.929476 0.368883 9.27592e-15 
vn -0.963911 0.266226 9.63911e-15 
vn -0.963911 0.266226 9.63911e-15 
vn -0.884144 0.467214 8.80399e-15 
vn -0.929476 0.368883 9.27592e-15 
vn -0.828447 0.560068 8.22884e-15 
vn -0.884144 0.467214 8.80399e-15 
vn -0.763036 0.646356 7.55721e-15 
vn -0.828447 0.560068 8.22884e-15 
vn -0.68868 0.725066 6.79698e-15 
vn -0.763036 0.646356 7.55721e-15 
vn -0.606249 0.795275 5.95707e-15 
vn -0.68868 0.725066 6.79698e-15 
vn -0.516711 0.85616 5.04731e-15 
vn -0.606249 0.795275 5.95707e-15 
vn -0.421115 0.907007 4.07837e-15 
vn -0.516711 0.85616 5.04731e-15 
vn -0.320582 0.947221 3.06163e-15 
vn -0.421115 0.907007 4.07837e-15 
vn -0.21629 0.976329 2.00898e-15 
vn -0.320582 0.947221 3.06163e-15 
vn -0.109462 0.993991 9.32785e-16 
vn -0.21629 0.976329 2.00898e-15 
vn -0.00135123 0.999999 -1.54348e-16 
vn -0.109462 0.993991 9.32785e-16 
vn 0.106776 0.994283 -1.23967e-15 
vn -0.00135123 0.999999 -1.54348e-16 
vn 0.213651 0.97691 -2.31046e-15 
vn 0.106776 0.994283 -1.23967e-15 
vn 0.318021 0.948084 -3.35416e-15 
vn 0.213651 0.97691 -2.31046e-15 
vn 0.418662 0.908142 -4.35854e-15 
vn 0.318021 0.948084 -3.35416e-15 
vn 0.514396 0.857553 -5.31182e-15 
vn 0.418662 0.908142 -4.35854e-15 
vn 0.604098 0.79691 -6.20282e-15 
vn 0.514396 0.857553 -5.31182e-15 
vn 0.686718 0.726924 -7.0211e-15 
vn 0.604098 0.79691 -6.20282e-15 
vn 0.761287 0.648416 -7.75706e-15 
vn 0.686718 0.726924 -7.0211e-15 
vn 0.82693 0.562305 -8.40208e-15 
vn 0.761287 0.648416 -7.75706e-15 
vn 0.882878 0.469602 -8.94859e-15 
vn 0.82693 0.562305 -8.40208e-15 
vn 0.928476 0.371393 -9.39019e-15 
vn 0.882878 0.469602 -8.94859e-15 
vn 0.963188 0.26883 -9.72169e-15 
vn 0.928476 0.371393 -9.39019e-15 
vn 0.986607 0.163115 -9.93922e-15 
vn 0.963188 0.26883 -9.72169e-15 
vn 0.998459 0.0554881 -1.00402e-14 
vn 0.986607 0.163115 -9.93922e-15 
vn 0.998606 -0.0527896 -1.00235e-14 
vn 0.998459 0.0554881 -1.00402e-14 
vn 0.987044 -0.160448 -9.88928e-15 
vn 0.998606 -0.0527896 -1.00235e-14 
vn 0.963911 -0.266226 -9.63911e-15 
vn 0.987044 -0.160448 -9.88928e-15 
vn 0.963911 -0.266226 -9.63911e-15 
f 413//413 414//414 415//415 
f 416//416 413//413 417//417 
f 418//418 416//416 419//419 
f 420//420 418//418 421//421 
f 422//422 420//420 423//423 
f 424//424 422//422 425//425 
f 426//426 424//424 427//427 
f 428//428 426//426 429//429 
f 430//430 428//428 431//431 
f 432//432 430//430 433//433 
f 434//434 432//432 435//435 
f 436//436 434//434 437//437 
f 438//438 436//436 439//439 
f 440//440 438//438 441//441 
f 442//442 440//440 443//443 
f 444//444 442//442 445//445 
f 446//446 444//444 447//447 
f 448//448 446//446 449//449 
f 450//450 448//448 451//451 
f 452//452 450//450 453//453 
f 454//454 452//452 455//455 
f 456//456 454//454 457//457 
f 458//458 456//456 459//459 
f 460//460 458//458 461//461 
f 462//462 460//460 463//463 
f 464//464 462//462 465//465 
f 466//466 464//464 467//467 
f 468//468 466//466 469//469 
f 470//470 468//468 471//471 
f 471//471 472//472 470//470 
f 469//469 471//471 468//468 
f 467//467 469//469 466//466 
f 465//465 467//467 464//464 
f 463//463 465//465 462//462 
f 461//461 463//463 460//460 
f 459//459 461//461 458//458 
f 457//457 459//459 456//456 
f 455//455 457//457 454//454 
f 453//453 455//455 452//452 
f 451//451 453//453 450//450 
f 449//449 451//451 448//448 
f 447//447 449//449 446//446 
f 445//445 447//447 444//444 
f 443//443 445//445 442//442 
f 441//441 443//443 440//440 
f 439//439 441//441 438//438 
f 437//437 439//439 436//436 
f 435//435 437//437 434//434 
f 433//433 435//435 432//432 
f 431//431 433//433 430//430 
f 429//429 431//431 428//428 
f 427//427 429//429 426//426 
f 425//425 427//427 424//424 
f 423//423 425//425 422//422 
f 421//421 423//423 420//420 
f 419//419 421//421 418//418 
f 417//417 419//419 416//416 
f 415//415 417//417 413//413 
