# OBJ generated by ONSHAPE BY PTC INC, 1.215 Units = meters
mtllib _6804_2Z_2_solid15.mtl
g 6804-2Z-2-solid15
usemtl 0.796078_0.823529_0.937255_0.000000_0.000000
o mesh27295
v -0.0140989 5.651e-18 0.05595 
v -0.0140989 5.651e-18 0.0545296 
v -0.0140163 -0.00152436 0.0545296 
v -0.0140163 -0.00152436 0.05595 
v -0.0137693 -0.00303085 0.0545296 
v -0.0137693 -0.00303085 0.05595 
v -0.0133609 -0.0045018 0.0545296 
v -0.0133609 -0.0045018 0.05595 
v -0.0127958 -0.00591997 0.0545296 
v -0.0127958 -0.00591997 0.05595 
v -0.0120807 -0.00726874 0.0545296 
v -0.0120807 -0.00726874 0.05595 
v -0.011224 -0.00853229 0.0545296 
v -0.011224 -0.00853229 0.05595 
v -0.0102357 -0.00969581 0.0545296 
v -0.0102357 -0.00969581 0.05595 
v -0.00912744 -0.0107456 0.0545296 
v -0.00912744 -0.0107456 0.05595 
v -0.00791212 -0.0116695 0.0545296 
v -0.00791212 -0.0116695 0.05595 
v -0.00660404 -0.0124565 0.0545296 
v -0.00660404 -0.0124565 0.05595 
v -0.00521854 -0.0130976 0.0545296 
v -0.00521854 -0.0130976 0.05595 
v -0.00377186 -0.013585 0.0545296 
v -0.00377186 -0.013585 0.05595 
v -0.00228095 -0.0139132 0.0545296 
v -0.00228095 -0.0139132 0.05595 
v -0.000763299 -0.0140782 0.0545296 
v -0.000763299 -0.0140782 0.05595 
v 0.000763299 -0.0140782 0.0545296 
v 0.000763299 -0.0140782 0.05595 
v 0.00228095 -0.0139132 0.0545296 
v 0.00228095 -0.0139132 0.05595 
v 0.00377186 -0.013585 0.0545296 
v 0.00377186 -0.013585 0.05595 
v 0.00521854 -0.0130976 0.0545296 
v 0.00521854 -0.0130976 0.05595 
v 0.00660404 -0.0124565 0.0545296 
v 0.00660404 -0.0124565 0.05595 
v 0.00791212 -0.0116695 0.0545296 
v 0.00791212 -0.0116695 0.05595 
v 0.00912744 -0.0107456 0.0545296 
v 0.00912744 -0.0107456 0.05595 
v 0.0102357 -0.00969581 0.0545296 
v 0.0102357 -0.00969581 0.05595 
v 0.011224 -0.00853229 0.0545296 
v 0.011224 -0.00853229 0.05595 
v 0.0120807 -0.00726874 0.0545296 
v 0.0120807 -0.00726874 0.05595 
v 0.0127958 -0.00591997 0.0545296 
v 0.0127958 -0.00591997 0.05595 
v 0.0133609 -0.0045018 0.0545296 
v 0.0133609 -0.0045018 0.05595 
v 0.0137693 -0.00303085 0.0545296 
v 0.0137693 -0.00303085 0.05595 
v 0.0140163 -0.00152436 0.0545296 
v 0.0140163 -0.00152436 0.05595 
v 0.0140989 -1.30026e-18 0.0545296 
v 0.0140989 -1.04354e-18 0.05595 
vn -1 3.03198e-16 1e-14 
vn -1 3.03198e-16 1e-14 
vn -0.994138 -0.108119 9.96092e-15 
vn -0.994138 -0.108119 9.96092e-15 
vn -0.976621 -0.21497 9.80506e-15 
vn -0.976621 -0.21497 9.80506e-15 
vn -0.947653 -0.319302 9.53424e-15 
vn -0.947653 -0.319302 9.53424e-15 
vn -0.907575 -0.419889 9.15164e-15 
vn -0.907575 -0.419889 9.15164e-15 
vn -0.856857 -0.515554 8.66175e-15 
vn -0.856857 -0.515554 8.66175e-15 
vn -0.796093 -0.605174 8.07031e-15 
vn -0.796093 -0.605174 8.07031e-15 
vn -0.725995 -0.687699 7.38425e-15 
vn -0.725995 -0.687699 7.38425e-15 
vn -0.647386 -0.762162 6.61161e-15 
vn -0.647386 -0.762162 6.61161e-15 
vn -0.561187 -0.827689 5.76146e-15 
vn -0.561187 -0.827689 5.76146e-15 
vn -0.468408 -0.883512 4.84376e-15 
vn -0.468408 -0.883512 4.84376e-15 
vn -0.370138 -0.928977 3.86928e-15 
vn -0.370138 -0.928977 3.86928e-15 
vn -0.267528 -0.96355 2.84943e-15 
vn -0.267528 -0.96355 2.84943e-15 
vn -0.161782 -0.986827 1.79617e-15 
vn -0.161782 -0.986827 1.79617e-15 
vn -0.0541389 -0.998533 7.21857e-16 
vn -0.0541389 -0.998533 7.21857e-16 
vn 0.0541389 -0.998533 -3.60921e-16 
vn 0.0541389 -0.998533 -3.60921e-16 
vn 0.161782 -0.986827 -1.43947e-15 
vn 0.161782 -0.986827 -1.43947e-15 
vn 0.267528 -0.96355 -2.50114e-15 
vn 0.267528 -0.96355 -2.50114e-15 
vn 0.370138 -0.928977 -3.53348e-15 
vn 0.370138 -0.928977 -3.53348e-15 
vn 0.468408 -0.883512 -4.5244e-15 
vn 0.468408 -0.883512 -4.5244e-15 
vn 0.561187 -0.827689 -5.46228e-15 
vn 0.561187 -0.827689 -5.46228e-15 
vn 0.647386 -0.762162 -6.33611e-15 
vn 0.647386 -0.762162 -6.33611e-15 
vn 0.725995 -0.687699 -7.13566e-15 
vn 0.725995 -0.687699 -7.13566e-15 
vn 0.796093 -0.605174 -7.85156e-15 
vn 0.796093 -0.605174 -7.85156e-15 
vn 0.856857 -0.515554 -8.47539e-15 
vn 0.856857 -0.515554 -8.47539e-15 
vn 0.907575 -0.419889 -8.99987e-15 
vn 0.907575 -0.419889 -8.99987e-15 
vn 0.947653 -0.319302 -9.41882e-15 
vn 0.947653 -0.319302 -9.41882e-15 
vn 0.976621 -0.21497 -9.72735e-15 
vn 0.976621 -0.21497 -9.72735e-15 
vn 0.994138 -0.108119 -9.92184e-15 
vn 0.994138 -0.108119 -9.92184e-15 
vn 1 -4.25663e-16 -1e-14 
vn 1 -4.25663e-16 -1e-14 
f 1//1 2//2 3//3 
f 4//4 3//3 5//5 
f 6//6 5//5 7//7 
f 8//8 7//7 9//9 
f 10//10 9//9 11//11 
f 12//12 11//11 13//13 
f 14//14 13//13 15//15 
f 16//16 15//15 17//17 
f 18//18 17//17 19//19 
f 20//20 19//19 21//21 
f 22//22 21//21 23//23 
f 24//24 23//23 25//25 
f 26//26 25//25 27//27 
f 28//28 27//27 29//29 
f 30//30 29//29 31//31 
f 32//32 31//31 33//33 
f 34//34 33//33 35//35 
f 36//36 35//35 37//37 
f 38//38 37//37 39//39 
f 40//40 39//39 41//41 
f 42//42 41//41 43//43 
f 44//44 43//43 45//45 
f 46//46 45//45 47//47 
f 48//48 47//47 49//49 
f 50//50 49//49 51//51 
f 52//52 51//51 53//53 
f 54//54 53//53 55//55 
f 56//56 55//55 57//57 
f 58//58 57//57 59//59 
f 59//59 60//60 58//58 
f 57//57 58//58 56//56 
f 55//55 56//56 54//54 
f 53//53 54//54 52//52 
f 51//51 52//52 50//50 
f 49//49 50//50 48//48 
f 47//47 48//48 46//46 
f 45//45 46//46 44//44 
f 43//43 44//44 42//42 
f 41//41 42//42 40//40 
f 39//39 40//40 38//38 
f 37//37 38//38 36//36 
f 35//35 36//36 34//34 
f 33//33 34//34 32//32 
f 31//31 32//32 30//30 
f 29//29 30//30 28//28 
f 27//27 28//28 26//26 
f 25//25 26//26 24//24 
f 23//23 24//24 22//22 
f 21//21 22//22 20//20 
f 19//19 20//20 18//18 
f 17//17 18//18 16//16 
f 15//15 16//16 14//14 
f 13//13 14//14 12//12 
f 11//11 12//12 10//10 
f 9//9 10//10 8//8 
f 7//7 8//8 6//6 
f 5//5 6//6 4//4 
f 3//3 4//4 1//1 
o mesh27296
v 0.0140989 -1.04354e-18 0.05595 
v 0.0140989 -1.30026e-18 0.0545296 
v 0.0140163 0.00152436 0.0545296 
v 0.0140163 0.00152436 0.05595 
v 0.0137693 0.00303085 0.0545296 
v 0.0137693 0.00303085 0.05595 
v 0.0133609 0.0045018 0.0545296 
v 0.0133609 0.0045018 0.05595 
v 0.0127958 0.00591997 0.0545296 
v 0.0127958 0.00591997 0.05595 
v 0.0120807 0.00726874 0.0545296 
v 0.0120807 0.00726874 0.05595 
v 0.011224 0.00853229 0.0545296 
v 0.011224 0.00853229 0.05595 
v 0.0102357 0.00969581 0.0545296 
v 0.0102357 0.00969581 0.05595 
v 0.00912744 0.0107456 0.0545296 
v 0.00912744 0.0107456 0.05595 
v 0.00791212 0.0116695 0.0545296 
v 0.00791212 0.0116695 0.05595 
v 0.00660404 0.0124565 0.0545296 
v 0.00660404 0.0124565 0.05595 
v 0.00521854 0.0130976 0.0545296 
v 0.00521854 0.0130976 0.05595 
v 0.00377186 0.013585 0.0545296 
v 0.00377186 0.013585 0.05595 
v 0.00228095 0.0139132 0.0545296 
v 0.00228095 0.0139132 0.05595 
v 0.000763299 0.0140782 0.0545296 
v 0.000763299 0.0140782 0.05595 
v -0.000763299 0.0140782 0.0545296 
v -0.000763299 0.0140782 0.05595 
v -0.00228095 0.0139132 0.0545296 
v -0.00228095 0.0139132 0.05595 
v -0.00377186 0.013585 0.0545296 
v -0.00377186 0.013585 0.05595 
v -0.00521854 0.0130976 0.0545296 
v -0.00521854 0.0130976 0.05595 
v -0.00660404 0.0124565 0.0545296 
v -0.00660404 0.0124565 0.05595 
v -0.00791212 0.0116695 0.0545296 
v -0.00791212 0.0116695 0.05595 
v -0.00912744 0.0107456 0.0545296 
v -0.00912744 0.0107456 0.05595 
v -0.0102357 0.00969581 0.0545296 
v -0.0102357 0.00969581 0.05595 
v -0.011224 0.00853229 0.0545296 
v -0.011224 0.00853229 0.05595 
v -0.0120807 0.00726874 0.0545296 
v -0.0120807 0.00726874 0.05595 
v -0.0127958 0.00591997 0.0545296 
v -0.0127958 0.00591997 0.05595 
v -0.0133609 0.0045018 0.0545296 
v -0.0133609 0.0045018 0.05595 
v -0.0137693 0.00303085 0.0545296 
v -0.0137693 0.00303085 0.05595 
v -0.0140163 0.00152436 0.0545296 
v -0.0140163 0.00152436 0.05595 
v -0.0140989 5.651e-18 0.0545296 
v -0.0140989 5.651e-18 0.05595 
vn 1 -4.25663e-16 -1e-14 
vn 1 -4.25663e-16 -1e-14 
vn 0.994138 0.108119 -9.96092e-15 
vn 0.994138 0.108119 -9.96092e-15 
vn 0.976621 0.21497 -9.80506e-15 
vn 0.976621 0.21497 -9.80506e-15 
vn 0.947653 0.319302 -9.53424e-15 
vn 0.947653 0.319302 -9.53424e-15 
vn 0.907575 0.419889 -9.15164e-15 
vn 0.907575 0.419889 -9.15164e-15 
vn 0.856857 0.515554 -8.66175e-15 
vn 0.856857 0.515554 -8.66175e-15 
vn 0.796093 0.605174 -8.07031e-15 
vn 0.796093 0.605174 -8.07031e-15 
vn 0.725995 0.687699 -7.38425e-15 
vn 0.725995 0.687699 -7.38425e-15 
vn 0.647386 0.762162 -6.61161e-15 
vn 0.647386 0.762162 -6.61161e-15 
vn 0.561187 0.827689 -5.76146e-15 
vn 0.561187 0.827689 -5.76146e-15 
vn 0.468408 0.883512 -4.84376e-15 
vn 0.468408 0.883512 -4.84376e-15 
vn 0.370138 0.928977 -3.86928e-15 
vn 0.370138 0.928977 -3.86928e-15 
vn 0.267528 0.96355 -2.84943e-15 
vn 0.267528 0.96355 -2.84943e-15 
vn 0.161782 0.986827 -1.79617e-15 
vn 0.161782 0.986827 -1.79617e-15 
vn 0.0541389 0.998533 -7.21857e-16 
vn 0.0541389 0.998533 -7.21857e-16 
vn -0.0541389 0.998533 3.60921e-16 
vn -0.0541389 0.998533 3.60921e-16 
vn -0.161782 0.986827 1.43947e-15 
vn -0.161782 0.986827 1.43947e-15 
vn -0.267528 0.96355 2.50114e-15 
vn -0.267528 0.96355 2.50114e-15 
vn -0.370138 0.928977 3.53348e-15 
vn -0.370138 0.928977 3.53348e-15 
vn -0.468408 0.883512 4.5244e-15 
vn -0.468408 0.883512 4.5244e-15 
vn -0.561187 0.827689 5.46228e-15 
vn -0.561187 0.827689 5.46228e-15 
vn -0.647386 0.762162 6.33611e-15 
vn -0.647386 0.762162 6.33611e-15 
vn -0.725995 0.687699 7.13566e-15 
vn -0.725995 0.687699 7.13566e-15 
vn -0.796093 0.605174 7.85156e-15 
vn -0.796093 0.605174 7.85156e-15 
vn -0.856857 0.515554 8.47539e-15 
vn -0.856857 0.515554 8.47539e-15 
vn -0.907575 0.419889 8.99987e-15 
vn -0.907575 0.419889 8.99987e-15 
vn -0.947653 0.319302 9.41882e-15 
vn -0.947653 0.319302 9.41882e-15 
vn -0.976621 0.21497 9.72735e-15 
vn -0.976621 0.21497 9.72735e-15 
vn -0.994138 0.108119 9.92184e-15 
vn -0.994138 0.108119 9.92184e-15 
vn -1 3.03198e-16 1e-14 
vn -1 3.03198e-16 1e-14 
f 61//61 62//62 63//63 
f 64//64 63//63 65//65 
f 66//66 65//65 67//67 
f 68//68 67//67 69//69 
f 70//70 69//69 71//71 
f 72//72 71//71 73//73 
f 74//74 73//73 75//75 
f 76//76 75//75 77//77 
f 78//78 77//77 79//79 
f 80//80 79//79 81//81 
f 82//82 81//81 83//83 
f 84//84 83//83 85//85 
f 86//86 85//85 87//87 
f 88//88 87//87 89//89 
f 90//90 89//89 91//91 
f 92//92 91//91 93//93 
f 94//94 93//93 95//95 
f 96//96 95//95 97//97 
f 98//98 97//97 99//99 
f 100//100 99//99 101//101 
f 102//102 101//101 103//103 
f 104//104 103//103 105//105 
f 106//106 105//105 107//107 
f 108//108 107//107 109//109 
f 110//110 109//109 111//111 
f 112//112 111//111 113//113 
f 114//114 113//113 115//115 
f 116//116 115//115 117//117 
f 118//118 117//117 119//119 
f 119//119 120//120 118//118 
f 117//117 118//118 116//116 
f 115//115 116//116 114//114 
f 113//113 114//114 112//112 
f 111//111 112//112 110//110 
f 109//109 110//110 108//108 
f 107//107 108//108 106//106 
f 105//105 106//106 104//104 
f 103//103 104//104 102//102 
f 101//101 102//102 100//100 
f 99//99 100//100 98//98 
f 97//97 98//98 96//96 
f 95//95 96//96 94//94 
f 93//93 94//94 92//92 
f 91//91 92//92 90//90 
f 89//89 90//90 88//88 
f 87//87 88//88 86//86 
f 85//85 86//86 84//84 
f 83//83 84//84 82//82 
f 81//81 82//82 80//80 
f 79//79 80//80 78//78 
f 77//77 78//78 76//76 
f 75//75 76//76 74//74 
f 73//73 74//74 72//72 
f 71//71 72//72 70//70 
f 69//69 70//70 68//68 
f 67//67 68//68 66//66 
f 65//65 66//66 64//64 
f 63//63 64//64 61//61 
o mesh27297
v -0.00228095 0.0139132 0.0545296 
v -0.00192538 0.0117443 0.0545296 
v -0.00318388 0.0114673 0.0545296 
v -0.000763299 0.0140782 0.0545296 
v -0.000644313 0.0118836 0.0545296 
v 0.0140163 -0.00152436 0.0545296 
v 0.0118313 -0.00128674 0.0545296 
v 0.0119011 -9.03042e-19 0.0545296 
v 0.0137693 -0.00303085 0.0545296 
v 0.0116229 -0.00255838 0.0545296 
v 0.0133609 -0.0045018 0.0545296 
v 0.0112781 -0.00380004 0.0545296 
v 0.0127958 -0.00591997 0.0545296 
v 0.0108011 -0.00499714 0.0545296 
v -0.0120807 0.00726874 0.0545296 
v -0.0101975 0.00613566 0.0545296 
v -0.0108011 0.00499714 0.0545296 
v -0.011224 0.00853229 0.0545296 
v -0.00947438 0.00720224 0.0545296 
v -0.00521854 0.0130976 0.0545296 
v -0.00440505 0.0110558 0.0545296 
v -0.00557458 0.0105148 0.0545296 
v -0.00377186 0.013585 0.0545296 
v 0.000763299 0.0140782 0.0545296 
v 0.000644313 0.0118836 0.0545296 
v 0.00228095 0.0139132 0.0545296 
v 0.00192538 0.0117443 0.0545296 
v 0.00377186 0.013585 0.0545296 
v 0.00318388 0.0114673 0.0545296 
v 0.0140163 0.00152436 0.0545296 
v 0.0118313 0.00128674 0.0545296 
v 0.0116229 0.00255838 0.0545296 
v 0.0140989 -1.30026e-18 0.0545296 
v 0.0120807 -0.00726874 0.0545296 
v 0.0101975 -0.00613566 0.0545296 
v 0.011224 -0.00853229 0.0545296 
v 0.00947438 -0.00720224 0.0545296 
v -0.0140163 0.00152436 0.0545296 
v -0.0118313 0.00128674 0.0545296 
v -0.0119011 4.98463e-18 0.0545296 
v -0.0137693 0.00303085 0.0545296 
v -0.0116229 0.00255838 0.0545296 
v -0.0133609 0.0045018 0.0545296 
v -0.0112781 0.00380004 0.0545296 
v -0.0127958 0.00591997 0.0545296 
v -0.0102357 0.00969581 0.0545296 
v -0.00864014 0.00818438 0.0545296 
v -0.00912744 0.0107456 0.0545296 
v -0.00770461 0.00907057 0.0545296 
v -0.00791212 0.0116695 0.0545296 
v -0.00667874 0.00985041 0.0545296 
v -0.00660404 0.0124565 0.0545296 
v 0.00791212 0.0116695 0.0545296 
v 0.00667874 0.00985041 0.0545296 
v 0.00557458 0.0105148 0.0545296 
v 0.00912744 0.0107456 0.0545296 
v 0.00770461 0.00907057 0.0545296 
v 0.0137693 0.00303085 0.0545296 
v 0.0112781 0.00380004 0.0545296 
v 0.00521854 0.0130976 0.0545296 
v 0.00440505 0.0110558 0.0545296 
v 0.00660404 0.0124565 0.0545296 
v 0.0102357 0.00969581 0.0545296 
v 0.00864014 0.00818438 0.0545296 
v 0.0120807 0.00726874 0.0545296 
v 0.0101975 0.00613566 0.0545296 
v 0.00947438 0.00720224 0.0545296 
v 0.0127958 0.00591997 0.0545296 
v 0.0108011 0.00499714 0.0545296 
v 0.0102357 -0.00969581 0.0545296 
v 0.00864014 -0.00818438 0.0545296 
v 0.00912744 -0.0107456 0.0545296 
v 0.00770461 -0.00907057 0.0545296 
v 0.011224 0.00853229 0.0545296 
v 0.0133609 0.0045018 0.0545296 
v 0.00660404 -0.0124565 0.0545296 
v 0.00557458 -0.0105148 0.0545296 
v 0.00667874 -0.00985041 0.0545296 
v 0.00521854 -0.0130976 0.0545296 
v 0.00440505 -0.0110558 0.0545296 
v 0.00377186 -0.013585 0.0545296 
v 0.00318388 -0.0114673 0.0545296 
v 0.00228095 -0.0139132 0.0545296 
v 0.00192538 -0.0117443 0.0545296 
v -0.00912744 -0.0107456 0.0545296 
v -0.00770461 -0.00907057 0.0545296 
v -0.00667874 -0.00985041 0.0545296 
v -0.0102357 -0.00969581 0.0545296 
v -0.00864014 -0.00818438 0.0545296 
v -0.0140163 -0.00152436 0.0545296 
v -0.0118313 -0.00128674 0.0545296 
v -0.0116229 -0.00255838 0.0545296 
v -0.0140989 5.651e-18 0.0545296 
v 0.00791212 -0.0116695 0.0545296 
v 0.000763299 -0.0140782 0.0545296 
v 0.000644313 -0.0118836 0.0545296 
v -0.000763299 -0.0140782 0.0545296 
v -0.000644313 -0.0118836 0.0545296 
v -0.011224 -0.00853229 0.0545296 
v -0.00947438 -0.00720224 0.0545296 
v -0.0127958 -0.00591997 0.0545296 
v -0.0108011 -0.00499714 0.0545296 
v -0.0101975 -0.00613566 0.0545296 
v -0.0133609 -0.0045018 0.0545296 
v -0.0112781 -0.00380004 0.0545296 
v -0.0137693 -0.00303085 0.0545296 
v -0.00228095 -0.0139132 0.0545296 
v -0.00192538 -0.0117443 0.0545296 
v -0.00377186 -0.013585 0.0545296 
v -0.00318388 -0.0114673 0.0545296 
v -0.00521854 -0.0130976 0.0545296 
v -0.00440505 -0.0110558 0.0545296 
v -0.0120807 -0.00726874 0.0545296 
v -0.00660404 -0.0124565 0.0545296 
v -0.00557458 -0.0105148 0.0545296 
v -0.00791212 -0.0116695 0.0545296 
vn -1e-14 -1.80733e-16 -1 
vn -1e-14 -1.80733e-16 -1 
vn -1e-14 -1.80733e-16 -1 
vn -1e-14 -1.80733e-16 -1 
vn -1e-14 -1.80733e-16 -1 
vn -1e-14 -1.80733e-16 -1 
vn -1e-14 -1.80733e-16 -1 
vn -1e-14 -1.80733e-16 -1 
vn -1e-14 -1.80733e-16 -1 
vn -1e-14 -1.80733e-16 -1 
vn -1e-14 -1.80733e-16 -1 
vn -1e-14 -1.80733e-16 -1 
vn -1e-14 -1.80733e-16 -1 
vn -1e-14 -1.80733e-16 -1 
vn -1e-14 -1.80733e-16 -1 
vn -1e-14 -1.80733e-16 -1 
vn -1e-14 -1.80733e-16 -1 
vn -1e-14 -1.80733e-16 -1 
vn -1e-14 -1.80733e-16 -1 
vn -1e-14 -1.80733e-16 -1 
vn -1e-14 -1.80733e-16 -1 
vn -1e-14 -1.80733e-16 -1 
vn -1e-14 -1.80733e-16 -1 
vn -1e-14 -1.80733e-16 -1 
vn -1e-14 -1.80733e-16 -1 
vn -1e-14 -1.80733e-16 -1 
vn -1e-14 -1.80733e-16 -1 
vn -1e-14 -1.80733e-16 -1 
vn -1e-14 -1.80733e-16 -1 
vn -1e-14 -1.80733e-16 -1 
vn -1e-14 -1.80733e-16 -1 
vn -1e-14 -1.80733e-16 -1 
vn -1e-14 -1.80733e-16 -1 
vn -1e-14 -1.80733e-16 -1 
vn -1e-14 -1.80733e-16 -1 
vn -1e-14 -1.80733e-16 -1 
vn -1e-14 -1.80733e-16 -1 
vn -1e-14 -1.80733e-16 -1 
vn -1e-14 -1.80733e-16 -1 
vn -1e-14 -1.80733e-16 -1 
vn -1e-14 -1.80733e-16 -1 
vn -1e-14 -1.80733e-16 -1 
vn -1e-14 -1.80733e-16 -1 
vn -1e-14 -1.80733e-16 -1 
vn -1e-14 -1.80733e-16 -1 
vn -1e-14 -1.80733e-16 -1 
vn -1e-14 -1.80733e-16 -1 
vn -1e-14 -1.80733e-16 -1 
vn -1e-14 -1.80733e-16 -1 
vn -1e-14 -1.80733e-16 -1 
vn -1e-14 -1.80733e-16 -1 
vn -1e-14 -1.80733e-16 -1 
vn -1e-14 -1.80733e-16 -1 
vn -1e-14 -1.80733e-16 -1 
vn -1e-14 -1.80733e-16 -1 
vn -1e-14 -1.80733e-16 -1 
vn -1e-14 -1.80733e-16 -1 
vn -1e-14 -1.80733e-16 -1 
vn -1e-14 -1.80733e-16 -1 
vn -1e-14 -1.80733e-16 -1 
vn -1e-14 -1.80733e-16 -1 
vn -1e-14 -1.80733e-16 -1 
vn -1e-14 -1.80733e-16 -1 
vn -1e-14 -1.80733e-16 -1 
vn -1e-14 -1.80733e-16 -1 
vn -1e-14 -1.80733e-16 -1 
vn -1e-14 -1.80733e-16 -1 
vn -1e-14 -1.80733e-16 -1 
vn -1e-14 -1.80733e-16 -1 
vn -1e-14 -1.80733e-16 -1 
vn -1e-14 -1.80733e-16 -1 
vn -1e-14 -1.80733e-16 -1 
vn -1e-14 -1.80733e-16 -1 
vn -1e-14 -1.80733e-16 -1 
vn -1e-14 -1.80733e-16 -1 
vn -1e-14 -1.80733e-16 -1 
vn -1e-14 -1.80733e-16 -1 
vn -1e-14 -1.80733e-16 -1 
vn -1e-14 -1.80733e-16 -1 
vn -1e-14 -1.80733e-16 -1 
vn -1e-14 -1.80733e-16 -1 
vn -1e-14 -1.80733e-16 -1 
vn -1e-14 -1.80733e-16 -1 
vn -1e-14 -1.80733e-16 -1 
vn -1e-14 -1.80733e-16 -1 
vn -1e-14 -1.80733e-16 -1 
vn -1e-14 -1.80733e-16 -1 
vn -1e-14 -1.80733e-16 -1 
vn -1e-14 -1.80733e-16 -1 
vn -1e-14 -1.80733e-16 -1 
vn -1e-14 -1.80733e-16 -1 
vn -1e-14 -1.80733e-16 -1 
vn -1e-14 -1.80733e-16 -1 
vn -1e-14 -1.80733e-16 -1 
vn -1e-14 -1.80733e-16 -1 
vn -1e-14 -1.80733e-16 -1 
vn -1e-14 -1.80733e-16 -1 
vn -1e-14 -1.80733e-16 -1 
vn -1e-14 -1.80733e-16 -1 
vn -1e-14 -1.80733e-16 -1 
vn -1e-14 -1.80733e-16 -1 
vn -1e-14 -1.80733e-16 -1 
vn -1e-14 -1.80733e-16 -1 
vn -1e-14 -1.80733e-16 -1 
vn -1e-14 -1.80733e-16 -1 
vn -1e-14 -1.80733e-16 -1 
vn -1e-14 -1.80733e-16 -1 
vn -1e-14 -1.80733e-16 -1 
vn -1e-14 -1.80733e-16 -1 
vn -1e-14 -1.80733e-16 -1 
vn -1e-14 -1.80733e-16 -1 
vn -1e-14 -1.80733e-16 -1 
vn -1e-14 -1.80733e-16 -1 
vn -1e-14 -1.80733e-16 -1 
vn -1e-14 -1.80733e-16 -1 
vn -1e-14 -1.80733e-16 -1 
f 121//121 122//122 123//123 
f 121//121 124//124 125//125 
f 126//126 127//127 128//128 
f 126//126 129//129 130//130 
f 129//129 131//131 132//132 
f 133//133 134//134 132//132 
f 135//135 136//136 137//137 
f 135//135 138//138 139//139 
f 140//140 141//141 142//142 
f 140//140 143//143 123//123 
f 125//125 122//122 121//121 
f 124//124 144//144 145//145 
f 146//146 147//147 145//145 
f 146//146 148//148 149//149 
f 150//150 151//151 152//152 
f 150//150 153//153 128//128 
f 130//130 127//127 126//126 
f 132//132 131//131 133//133 
f 154//154 155//155 134//134 
f 156//156 157//157 155//155 
f 158//158 159//159 160//160 
f 158//158 161//161 162//162 
f 163//163 164//164 162//162 
f 163//163 165//165 137//137 
f 139//139 136//136 135//135 
f 138//138 166//166 167//167 
f 168//168 169//169 167//167 
f 168//168 170//170 171//171 
f 172//172 142//142 171//171 
f 123//123 141//141 140//140 
f 145//145 125//125 124//124 
f 149//149 147//147 146//146 
f 173//173 174//174 175//175 
f 173//173 176//176 177//177 
f 178//178 152//152 179//179 
f 128//128 151//151 150//150 
f 132//132 130//130 129//129 
f 155//155 154//154 156//156 
f 162//162 159//159 158//158 
f 137//137 164//164 163//163 
f 167//167 139//139 138//138 
f 171//171 169//169 168//168 
f 142//142 172//172 140//140 
f 145//145 144//144 146//146 
f 180//180 181//181 149//149 
f 180//180 182//182 175//175 
f 177//177 174//174 173//173 
f 176//176 183//183 184//184 
f 185//185 186//186 187//187 
f 185//185 188//188 189//189 
f 152//152 178//178 150//150 
f 134//134 133//133 154//154 
f 190//190 191//191 157//157 
f 190//190 192//192 193//193 
f 162//162 161//161 163//163 
f 167//167 166//166 168//168 
f 123//123 143//143 121//121 
f 175//175 181//181 180//180 
f 184//184 177//177 176//176 
f 183//183 194//194 187//187 
f 189//189 186//186 185//185 
f 188//188 195//195 179//179 
f 128//128 153//153 126//126 
f 193//193 191//191 190//190 
f 196//196 197//197 198//198 
f 196//196 199//199 200//200 
f 199//199 201//201 202//202 
f 201//201 203//203 204//204 
f 205//205 206//206 207//207 
f 208//208 209//209 206//206 
f 210//210 211//211 212//212 
f 210//210 213//213 160//160 
f 137//137 165//165 135//135 
f 149//149 148//148 180//180 
f 187//187 184//184 183//183 
f 179//179 189//189 188//188 
f 157//157 156//156 190//190 
f 214//214 198//198 193//193 
f 200//200 197//197 196//196 
f 204//204 202//202 201//201 
f 215//215 216//216 204//204 
f 215//215 217//217 218//218 
f 206//206 205//205 208//208 
f 208//208 219//219 220//220 
f 221//221 222//222 223//223 
f 224//224 225//225 222//222 
f 226//226 212//212 225//225 
f 160//160 211//211 210//210 
f 171//171 170//170 172//172 
f 187//187 194//194 185//185 
f 193//193 192//192 214//214 
f 202//202 200//200 199//199 
f 218//218 216//216 215//215 
f 227//227 228//228 218//218 
f 229//229 230//230 228//228 
f 229//229 231//231 232//232 
f 220//220 209//209 208//208 
f 219//219 233//233 223//223 
f 222//222 221//221 224//224 
f 212//212 226//226 210//210 
f 175//175 182//182 173//173 
f 198//198 214//214 196//196 
f 218//218 217//217 227//227 
f 232//232 230//230 229//229 
f 234//234 235//235 232//232 
f 234//234 236//236 207//207 
f 223//223 220//220 219//219 
f 225//225 224//224 226//226 
f 179//179 195//195 178//178 
f 228//228 227//227 229//229 
f 207//207 235//235 234//234 
f 223//223 233//233 221//221 
f 204//204 203//203 215//215 
f 207//207 236//236 205//205 
f 232//232 231//231 234//234 
f 160//160 213//213 158//158 
o mesh27298
v -0.00912744 0.0107456 0.05595 
v -0.00770461 0.00907057 0.05595 
v -0.00667874 0.00985041 0.05595 
v -0.0102357 0.00969581 0.05595 
v -0.00864014 0.00818438 0.05595 
v -0.011224 0.00853229 0.05595 
v -0.00947438 0.00720224 0.05595 
v -0.0120807 0.00726874 0.05595 
v -0.0101975 0.00613566 0.05595 
v -0.0140163 -0.00152436 0.05595 
v -0.0118313 -0.00128674 0.05595 
v -0.0119011 4.98463e-18 0.05595 
v -0.0137693 -0.00303085 0.05595 
v -0.0116229 -0.00255838 0.05595 
v 0.00228095 0.0139132 0.05595 
v 0.00192538 0.0117443 0.05595 
v 0.00318388 0.0114673 0.05595 
v 0.000763299 0.0140782 0.05595 
v 0.000644313 0.0118836 0.05595 
v -0.0127958 0.00591997 0.05595 
v -0.0108011 0.00499714 0.05595 
v -0.0133609 0.0045018 0.05595 
v -0.0112781 0.00380004 0.05595 
v -0.0137693 0.00303085 0.05595 
v -0.0116229 0.00255838 0.05595 
v -0.0140163 0.00152436 0.05595 
v -0.0118313 0.00128674 0.05595 
v -0.0140989 5.651e-18 0.05595 
v -0.0133609 -0.0045018 0.05595 
v -0.0112781 -0.00380004 0.05595 
v -0.000763299 0.0140782 0.05595 
v -0.000644313 0.0118836 0.05595 
v -0.00228095 0.0139132 0.05595 
v -0.00192538 0.0117443 0.05595 
v -0.00377186 0.013585 0.05595 
v -0.00318388 0.0114673 0.05595 
v -0.0120807 -0.00726874 0.05595 
v -0.0101975 -0.00613566 0.05595 
v -0.0108011 -0.00499714 0.05595 
v -0.011224 -0.00853229 0.05595 
v -0.00947438 -0.00720224 0.05595 
v 0.0102357 0.00969581 0.05595 
v 0.00864014 0.00818438 0.05595 
v 0.00947438 0.00720224 0.05595 
v 0.00912744 0.0107456 0.05595 
v 0.00770461 0.00907057 0.05595 
v 0.00521854 0.0130976 0.05595 
v 0.00440505 0.0110558 0.05595 
v 0.00557458 0.0105148 0.05595 
v 0.00377186 0.013585 0.05595 
v -0.00521854 0.0130976 0.05595 
v -0.00440505 0.0110558 0.05595 
v -0.00660404 0.0124565 0.05595 
v -0.00557458 0.0105148 0.05595 
v -0.0127958 -0.00591997 0.05595 
v -0.0102357 -0.00969581 0.05595 
v -0.00912744 -0.0107456 0.05595 
v -0.00770461 -0.00907057 0.05595 
v -0.00791212 -0.0116695 0.05595 
v -0.00667874 -0.00985041 0.05595 
v 0.011224 0.00853229 0.05595 
v 0.0101975 0.00613566 0.05595 
v 0.00791212 0.0116695 0.05595 
v 0.00667874 0.00985041 0.05595 
v 0.00660404 0.0124565 0.05595 
v -0.00791212 0.0116695 0.05595 
v -0.00864014 -0.00818438 0.05595 
v 0.00377186 -0.013585 0.05595 
v 0.00318388 -0.0114673 0.05595 
v 0.00192538 -0.0117443 0.05595 
v 0.00521854 -0.0130976 0.05595 
v 0.00440505 -0.0110558 0.05595 
v 0.00660404 -0.0124565 0.05595 
v 0.00557458 -0.0105148 0.05595 
v 0.00791212 -0.0116695 0.05595 
v 0.00667874 -0.00985041 0.05595 
v 0.0127958 0.00591997 0.05595 
v 0.0108011 0.00499714 0.05595 
v 0.0112781 0.00380004 0.05595 
v 0.0120807 0.00726874 0.05595 
v 0.0127958 -0.00591997 0.05595 
v 0.0133609 -0.0045018 0.05595 
v 0.0112781 -0.00380004 0.05595 
v 0.0137693 -0.00303085 0.05595 
v 0.0116229 -0.00255838 0.05595 
v 0.0140163 -0.00152436 0.05595 
v 0.0118313 -0.00128674 0.05595 
v 0.0140989 -1.04354e-18 0.05595 
v 0.0119011 -6.4632e-19 0.05595 
v 0.0140163 0.00152436 0.05595 
v 0.0118313 0.00128674 0.05595 
v 0.0137693 0.00303085 0.05595 
v 0.0116229 0.00255838 0.05595 
v -0.00377186 -0.013585 0.05595 
v -0.00318388 -0.0114673 0.05595 
v -0.00440505 -0.0110558 0.05595 
v -0.00228095 -0.0139132 0.05595 
v -0.00192538 -0.0117443 0.05595 
v 0.00912744 -0.0107456 0.05595 
v 0.00770461 -0.00907057 0.05595 
v 0.0102357 -0.00969581 0.05595 
v 0.00864014 -0.00818438 0.05595 
v 0.011224 -0.00853229 0.05595 
v 0.00947438 -0.00720224 0.05595 
v 0.0120807 -0.00726874 0.05595 
v 0.0101975 -0.00613566 0.05595 
v 0.0108011 -0.00499714 0.05595 
v 0.0133609 0.0045018 0.05595 
v -0.000763299 -0.0140782 0.05595 
v -0.000644313 -0.0118836 0.05595 
v 0.000763299 -0.0140782 0.05595 
v 0.000644313 -0.0118836 0.05595 
v 0.00228095 -0.0139132 0.05595 
v -0.00660404 -0.0124565 0.05595 
v -0.00557458 -0.0105148 0.05595 
v -0.00521854 -0.0130976 0.05595 
vn 1e-14 1.80733e-16 1 
vn 1e-14 1.80733e-16 1 
vn 1e-14 1.80733e-16 1 
vn 1e-14 1.80733e-16 1 
vn 1e-14 1.80733e-16 1 
vn 1e-14 1.80733e-16 1 
vn 1e-14 1.80733e-16 1 
vn 1e-14 1.80733e-16 1 
vn 1e-14 1.80733e-16 1 
vn 1e-14 1.80733e-16 1 
vn 1e-14 1.80733e-16 1 
vn 1e-14 1.80733e-16 1 
vn 1e-14 1.80733e-16 1 
vn 1e-14 1.80733e-16 1 
vn 1e-14 1.80733e-16 1 
vn 1e-14 1.80733e-16 1 
vn 1e-14 1.80733e-16 1 
vn 1e-14 1.80733e-16 1 
vn 1e-14 1.80733e-16 1 
vn 1e-14 1.80733e-16 1 
vn 1e-14 1.80733e-16 1 
vn 1e-14 1.80733e-16 1 
vn 1e-14 1.80733e-16 1 
vn 1e-14 1.80733e-16 1 
vn 1e-14 1.80733e-16 1 
vn 1e-14 1.80733e-16 1 
vn 1e-14 1.80733e-16 1 
vn 1e-14 1.80733e-16 1 
vn 1e-14 1.80733e-16 1 
vn 1e-14 1.80733e-16 1 
vn 1e-14 1.80733e-16 1 
vn 1e-14 1.80733e-16 1 
vn 1e-14 1.80733e-16 1 
vn 1e-14 1.80733e-16 1 
vn 1e-14 1.80733e-16 1 
vn 1e-14 1.80733e-16 1 
vn 1e-14 1.80733e-16 1 
vn 1e-14 1.80733e-16 1 
vn 1e-14 1.80733e-16 1 
vn 1e-14 1.80733e-16 1 
vn 1e-14 1.80733e-16 1 
vn 1e-14 1.80733e-16 1 
vn 1e-14 1.80733e-16 1 
vn 1e-14 1.80733e-16 1 
vn 1e-14 1.80733e-16 1 
vn 1e-14 1.80733e-16 1 
vn 1e-14 1.80733e-16 1 
vn 1e-14 1.80733e-16 1 
vn 1e-14 1.80733e-16 1 
vn 1e-14 1.80733e-16 1 
vn 1e-14 1.80733e-16 1 
vn 1e-14 1.80733e-16 1 
vn 1e-14 1.80733e-16 1 
vn 1e-14 1.80733e-16 1 
vn 1e-14 1.80733e-16 1 
vn 1e-14 1.80733e-16 1 
vn 1e-14 1.80733e-16 1 
vn 1e-14 1.80733e-16 1 
vn 1e-14 1.80733e-16 1 
vn 1e-14 1.80733e-16 1 
vn 1e-14 1.80733e-16 1 
vn 1e-14 1.80733e-16 1 
vn 1e-14 1.80733e-16 1 
vn 1e-14 1.80733e-16 1 
vn 1e-14 1.80733e-16 1 
vn 1e-14 1.80733e-16 1 
vn 1e-14 1.80733e-16 1 
vn 1e-14 1.80733e-16 1 
vn 1e-14 1.80733e-16 1 
vn 1e-14 1.80733e-16 1 
vn 1e-14 1.80733e-16 1 
vn 1e-14 1.80733e-16 1 
vn 1e-14 1.80733e-16 1 
vn 1e-14 1.80733e-16 1 
vn 1e-14 1.80733e-16 1 
vn 1e-14 1.80733e-16 1 
vn 1e-14 1.80733e-16 1 
vn 1e-14 1.80733e-16 1 
vn 1e-14 1.80733e-16 1 
vn 1e-14 1.80733e-16 1 
vn 1e-14 1.80733e-16 1 
vn 1e-14 1.80733e-16 1 
vn 1e-14 1.80733e-16 1 
vn 1e-14 1.80733e-16 1 
vn 1e-14 1.80733e-16 1 
vn 1e-14 1.80733e-16 1 
vn 1e-14 1.80733e-16 1 
vn 1e-14 1.80733e-16 1 
vn 1e-14 1.80733e-16 1 
vn 1e-14 1.80733e-16 1 
vn 1e-14 1.80733e-16 1 
vn 1e-14 1.80733e-16 1 
vn 1e-14 1.80733e-16 1 
vn 1e-14 1.80733e-16 1 
vn 1e-14 1.80733e-16 1 
vn 1e-14 1.80733e-16 1 
vn 1e-14 1.80733e-16 1 
vn 1e-14 1.80733e-16 1 
vn 1e-14 1.80733e-16 1 
vn 1e-14 1.80733e-16 1 
vn 1e-14 1.80733e-16 1 
vn 1e-14 1.80733e-16 1 
vn 1e-14 1.80733e-16 1 
vn 1e-14 1.80733e-16 1 
vn 1e-14 1.80733e-16 1 
vn 1e-14 1.80733e-16 1 
vn 1e-14 1.80733e-16 1 
vn 1e-14 1.80733e-16 1 
vn 1e-14 1.80733e-16 1 
vn 1e-14 1.80733e-16 1 
vn 1e-14 1.80733e-16 1 
vn 1e-14 1.80733e-16 1 
vn 1e-14 1.80733e-16 1 
vn 1e-14 1.80733e-16 1 
vn 1e-14 1.80733e-16 1 
vn 1e-14 1.80733e-16 1 
f 237//237 238//238 239//239 
f 237//237 240//240 241//241 
f 240//240 242//242 243//243 
f 242//242 244//244 245//245 
f 241//241 238//238 237//237 
f 245//245 243//243 242//242 
f 246//246 247//247 248//248 
f 246//246 249//249 250//250 
f 251//251 252//252 253//253 
f 251//251 254//254 255//255 
f 243//243 241//241 240//240 
f 244//244 256//256 257//257 
f 258//258 259//259 257//257 
f 258//258 260//260 261//261 
f 262//262 263//263 261//261 
f 262//262 264//264 248//248 
f 250//250 247//247 246//246 
f 249//249 265//265 266//266 
f 255//255 252//252 251//251 
f 254//254 267//267 268//268 
f 269//269 270//270 268//268 
f 269//269 271//271 272//272 
f 257//257 245//245 244//244 
f 261//261 259//259 258//258 
f 248//248 263//263 262//262 
f 266//266 250//250 249//249 
f 273//273 274//274 275//275 
f 273//273 276//276 277//277 
f 278//278 279//279 280//280 
f 281//281 282//282 279//279 
f 283//283 284//284 285//285 
f 283//283 286//286 253//253 
f 268//268 255//255 254//254 
f 272//272 270//270 269//269 
f 287//287 288//288 272//272 
f 287//287 289//289 290//290 
f 257//257 256//256 258//258 
f 248//248 264//264 246//246 
f 265//265 291//291 275//275 
f 277//277 274//274 273//273 
f 292//292 293//293 294//294 
f 293//293 295//295 296//296 
f 297//297 280//280 298//298 
f 279//279 278//278 281//281 
f 299//299 300//300 282//282 
f 299//299 301//301 285//285 
f 253//253 284//284 283//283 
f 268//268 267//267 269//269 
f 290//290 288//288 287//287 
f 289//289 302//302 239//239 
f 261//261 260//260 262//262 
f 275//275 291//291 273//273 
f 292//292 303//303 277//277 
f 296//296 294//294 293//293 
f 304//304 305//305 306//306 
f 307//307 308//308 305//305 
f 307//307 309//309 310//310 
f 309//309 311//311 312//312 
f 313//313 314//314 315//315 
f 313//313 316//316 298//298 
f 280//280 297//297 278//278 
f 285//285 300//300 299//299 
f 253//253 286//286 251//251 
f 239//239 290//290 289//289 
f 275//275 266//266 265//265 
f 294//294 303//303 292//292 
f 305//305 304//304 307//307 
f 312//312 310//310 309//309 
f 317//317 318//318 319//319 
f 320//320 321//321 319//319 
f 322//322 323//323 321//321 
f 322//322 324//324 325//325 
f 326//326 327//327 325//325 
f 326//326 328//328 329//329 
f 298//298 314//314 313//313 
f 282//282 281//281 299//299 
f 272//272 271//271 287//287 
f 277//277 276//276 292//292 
f 330//330 331//331 332//332 
f 330//330 333//333 334//334 
f 310//310 308//308 307//307 
f 311//311 335//335 336//336 
f 337//337 338//338 336//336 
f 337//337 339//339 340//340 
f 341//341 342//342 340//340 
f 341//341 317//317 343//343 
f 319//319 318//318 320//320 
f 325//325 323//323 322//322 
f 329//329 327//327 326//326 
f 328//328 344//344 315//315 
f 298//298 316//316 297//297 
f 239//239 302//302 237//237 
f 334//334 331//331 330//330 
f 333//333 345//345 346//346 
f 347//347 348//348 346//346 
f 347//347 349//349 306//306 
f 336//336 312//312 311//311 
f 340//340 338//338 337//337 
f 343//343 342//342 341//341 
f 321//321 320//320 322//322 
f 315//315 329//329 328//328 
f 285//285 301//301 283//283 
f 350//350 351//351 296//296 
f 350//350 352//352 332//332 
f 346//346 334//334 333//333 
f 306//306 348//348 347//347 
f 336//336 335//335 337//337 
f 319//319 343//343 317//317 
f 315//315 344//344 313//313 
f 332//332 351//351 350//350 
f 346//346 345//345 347//347 
f 340//340 339//339 341//341 
f 296//296 295//295 350//350 
f 306//306 349//349 304//304 
f 332//332 352//352 330//330 
f 325//325 324//324 326//326 
o mesh27299
v -0.0118313 0.00128674 0.05595 
v -0.0119011 4.98463e-18 0.05595 
v -0.0119011 4.98463e-18 0.0545296 
v -0.0116229 0.00255838 0.05595 
v -0.0118313 0.00128674 0.0545296 
v -0.0112781 0.00380004 0.05595 
v -0.0116229 0.00255838 0.0545296 
v -0.0108011 0.00499714 0.05595 
v -0.0112781 0.00380004 0.0545296 
v -0.0101975 0.00613566 0.05595 
v -0.0108011 0.00499714 0.0545296 
v -0.00947438 0.00720224 0.05595 
v -0.0101975 0.00613566 0.0545296 
v -0.00864014 0.00818438 0.05595 
v -0.00947438 0.00720224 0.0545296 
v -0.00770461 0.00907057 0.05595 
v -0.00864014 0.00818438 0.0545296 
v -0.00667874 0.00985041 0.05595 
v -0.00770461 0.00907057 0.0545296 
v -0.00557458 0.0105148 0.05595 
v -0.00667874 0.00985041 0.0545296 
v -0.00440505 0.0110558 0.05595 
v -0.00557458 0.0105148 0.0545296 
v -0.00318388 0.0114673 0.05595 
v -0.00440505 0.0110558 0.0545296 
v -0.00192538 0.0117443 0.05595 
v -0.00318388 0.0114673 0.0545296 
v -0.000644313 0.0118836 0.05595 
v -0.00192538 0.0117443 0.0545296 
v 0.000644313 0.0118836 0.05595 
v -0.000644313 0.0118836 0.0545296 
v 0.00192538 0.0117443 0.05595 
v 0.000644313 0.0118836 0.0545296 
v 0.00318388 0.0114673 0.05595 
v 0.00192538 0.0117443 0.0545296 
v 0.00440505 0.0110558 0.05595 
v 0.00318388 0.0114673 0.0545296 
v 0.00557458 0.0105148 0.05595 
v 0.00440505 0.0110558 0.0545296 
v 0.00667874 0.00985041 0.05595 
v 0.00557458 0.0105148 0.0545296 
v 0.00770461 0.00907057 0.05595 
v 0.00667874 0.00985041 0.0545296 
v 0.00864014 0.00818438 0.05595 
v 0.00770461 0.00907057 0.0545296 
v 0.00947438 0.00720224 0.05595 
v 0.00864014 0.00818438 0.0545296 
v 0.0101975 0.00613566 0.05595 
v 0.00947438 0.00720224 0.0545296 
v 0.0108011 0.00499714 0.05595 
v 0.0101975 0.00613566 0.0545296 
v 0.0112781 0.00380004 0.05595 
v 0.0108011 0.00499714 0.0545296 
v 0.0116229 0.00255838 0.05595 
v 0.0112781 0.00380004 0.0545296 
v 0.0118313 0.00128674 0.05595 
v 0.0116229 0.00255838 0.0545296 
v 0.0119011 -6.4632e-19 0.05595 
v 0.0118313 0.00128674 0.0545296 
v 0.0119011 -9.03042e-19 0.0545296 
vn 0.994138 -0.108119 -9.92184e-15 
vn 1 -3.03198e-16 -1e-14 
vn 1 -3.03198e-16 -1e-14 
vn 0.976621 -0.21497 -9.72735e-15 
vn 0.994138 -0.108119 -9.92184e-15 
vn 0.947653 -0.319302 -9.41882e-15 
vn 0.976621 -0.21497 -9.72735e-15 
vn 0.907575 -0.419889 -8.99987e-15 
vn 0.947653 -0.319302 -9.41882e-15 
vn 0.856857 -0.515554 -8.47539e-15 
vn 0.907575 -0.419889 -8.99987e-15 
vn 0.796093 -0.605174 -7.85156e-15 
vn 0.856857 -0.515554 -8.47539e-15 
vn 0.725995 -0.687699 -7.13566e-15 
vn 0.796093 -0.605174 -7.85156e-15 
vn 0.647386 -0.762162 -6.33611e-15 
vn 0.725995 -0.687699 -7.13566e-15 
vn 0.561187 -0.827689 -5.46228e-15 
vn 0.647386 -0.762162 -6.33611e-15 
vn 0.468408 -0.883512 -4.5244e-15 
vn 0.561187 -0.827689 -5.46228e-15 
vn 0.370138 -0.928977 -3.53348e-15 
vn 0.468408 -0.883512 -4.5244e-15 
vn 0.267528 -0.96355 -2.50114e-15 
vn 0.370138 -0.928977 -3.53348e-15 
vn 0.161782 -0.986827 -1.43947e-15 
vn 0.267528 -0.96355 -2.50114e-15 
vn 0.0541389 -0.998533 -3.60921e-16 
vn 0.161782 -0.986827 -1.43947e-15 
vn -0.0541389 -0.998533 7.21857e-16 
vn 0.0541389 -0.998533 -3.60921e-16 
vn -0.161782 -0.986827 1.79617e-15 
vn -0.0541389 -0.998533 7.21857e-16 
vn -0.267528 -0.96355 2.84943e-15 
vn -0.161782 -0.986827 1.79617e-15 
vn -0.370138 -0.928977 3.86928e-15 
vn -0.267528 -0.96355 2.84943e-15 
vn -0.468408 -0.883512 4.84376e-15 
vn -0.370138 -0.928977 3.86928e-15 
vn -0.561187 -0.827689 5.76146e-15 
vn -0.468408 -0.883512 4.84376e-15 
vn -0.647386 -0.762162 6.61161e-15 
vn -0.561187 -0.827689 5.76146e-15 
vn -0.725995 -0.687699 7.38425e-15 
vn -0.647386 -0.762162 6.61161e-15 
vn -0.796093 -0.605174 8.07031e-15 
vn -0.725995 -0.687699 7.38425e-15 
vn -0.856857 -0.515554 8.66175e-15 
vn -0.796093 -0.605174 8.07031e-15 
vn -0.907575 -0.419889 9.15164e-15 
vn -0.856857 -0.515554 8.66175e-15 
vn -0.947653 -0.319302 9.53424e-15 
vn -0.907575 -0.419889 9.15164e-15 
vn -0.976621 -0.21497 9.80506e-15 
vn -0.947653 -0.319302 9.53424e-15 
vn -0.994138 -0.108119 9.96092e-15 
vn -0.976621 -0.21497 9.80506e-15 
vn -1 1.80733e-16 1e-14 
vn -0.994138 -0.108119 9.96092e-15 
vn -1 1.80733e-16 1e-14 
f 353//353 354//354 355//355 
f 356//356 353//353 357//357 
f 358//358 356//356 359//359 
f 360//360 358//358 361//361 
f 362//362 360//360 363//363 
f 364//364 362//362 365//365 
f 366//366 364//364 367//367 
f 368//368 366//366 369//369 
f 370//370 368//368 371//371 
f 372//372 370//370 373//373 
f 374//374 372//372 375//375 
f 376//376 374//374 377//377 
f 378//378 376//376 379//379 
f 380//380 378//378 381//381 
f 382//382 380//380 383//383 
f 384//384 382//382 385//385 
f 386//386 384//384 387//387 
f 388//388 386//386 389//389 
f 390//390 388//388 391//391 
f 392//392 390//390 393//393 
f 394//394 392//392 395//395 
f 396//396 394//394 397//397 
f 398//398 396//396 399//399 
f 400//400 398//398 401//401 
f 402//402 400//400 403//403 
f 404//404 402//402 405//405 
f 406//406 404//404 407//407 
f 408//408 406//406 409//409 
f 410//410 408//408 411//411 
f 411//411 412//412 410//410 
f 409//409 411//411 408//408 
f 407//407 409//409 406//406 
f 405//405 407//407 404//404 
f 403//403 405//405 402//402 
f 401//401 403//403 400//400 
f 399//399 401//401 398//398 
f 397//397 399//399 396//396 
f 395//395 397//397 394//394 
f 393//393 395//395 392//392 
f 391//391 393//393 390//390 
f 389//389 391//391 388//388 
f 387//387 389//389 386//386 
f 385//385 387//387 384//384 
f 383//383 385//385 382//382 
f 381//381 383//383 380//380 
f 379//379 381//381 378//378 
f 377//377 379//379 376//376 
f 375//375 377//377 374//374 
f 373//373 375//375 372//372 
f 371//371 373//373 370//370 
f 369//369 371//371 368//368 
f 367//367 369//369 366//366 
f 365//365 367//367 364//364 
f 363//363 365//365 362//362 
f 361//361 363//363 360//360 
f 359//359 361//361 358//358 
f 357//357 359//359 356//356 
f 355//355 357//357 353//353 
o mesh27300
v 0.0118313 -0.00128674 0.05595 
v 0.0119011 -6.4632e-19 0.05595 
v 0.0119011 -9.03042e-19 0.0545296 
v 0.0116229 -0.00255838 0.05595 
v 0.0118313 -0.00128674 0.0545296 
v 0.0112781 -0.00380004 0.05595 
v 0.0116229 -0.00255838 0.0545296 
v 0.0108011 -0.00499714 0.05595 
v 0.0112781 -0.00380004 0.0545296 
v 0.0101975 -0.00613566 0.05595 
v 0.0108011 -0.00499714 0.0545296 
v 0.00947438 -0.00720224 0.05595 
v 0.0101975 -0.00613566 0.0545296 
v 0.00864014 -0.00818438 0.05595 
v 0.00947438 -0.00720224 0.0545296 
v 0.00770461 -0.00907057 0.05595 
v 0.00864014 -0.00818438 0.0545296 
v 0.00667874 -0.00985041 0.05595 
v 0.00770461 -0.00907057 0.0545296 
v 0.00557458 -0.0105148 0.05595 
v 0.00667874 -0.00985041 0.0545296 
v 0.00440505 -0.0110558 0.05595 
v 0.00557458 -0.0105148 0.0545296 
v 0.00318388 -0.0114673 0.05595 
v 0.00440505 -0.0110558 0.0545296 
v 0.00192538 -0.0117443 0.05595 
v 0.00318388 -0.0114673 0.0545296 
v 0.000644313 -0.0118836 0.05595 
v 0.00192538 -0.0117443 0.0545296 
v -0.000644313 -0.0118836 0.05595 
v 0.000644313 -0.0118836 0.0545296 
v -0.00192538 -0.0117443 0.05595 
v -0.000644313 -0.0118836 0.0545296 
v -0.00318388 -0.0114673 0.05595 
v -0.00192538 -0.0117443 0.0545296 
v -0.00440505 -0.0110558 0.05595 
v -0.00318388 -0.0114673 0.0545296 
v -0.00557458 -0.0105148 0.05595 
v -0.00440505 -0.0110558 0.0545296 
v -0.00667874 -0.00985041 0.05595 
v -0.00557458 -0.0105148 0.0545296 
v -0.00770461 -0.00907057 0.05595 
v -0.00667874 -0.00985041 0.0545296 
v -0.00864014 -0.00818438 0.05595 
v -0.00770461 -0.00907057 0.0545296 
v -0.00947438 -0.00720224 0.05595 
v -0.00864014 -0.00818438 0.0545296 
v -0.0101975 -0.00613566 0.05595 
v -0.00947438 -0.00720224 0.0545296 
v -0.0108011 -0.00499714 0.05595 
v -0.0101975 -0.00613566 0.0545296 
v -0.0112781 -0.00380004 0.05595 
v -0.0108011 -0.00499714 0.0545296 
v -0.0116229 -0.00255838 0.05595 
v -0.0112781 -0.00380004 0.0545296 
v -0.0118313 -0.00128674 0.05595 
v -0.0116229 -0.00255838 0.0545296 
v -0.0119011 4.98463e-18 0.05595 
v -0.0118313 -0.00128674 0.0545296 
v -0.0119011 4.98463e-18 0.0545296 
vn -0.994138 0.108119 9.92184e-15 
vn -1 4.25663e-16 1e-14 
vn -1 4.25663e-16 1e-14 
vn -0.976621 0.21497 9.72735e-15 
vn -0.994138 0.108119 9.92184e-15 
vn -0.947653 0.319302 9.41882e-15 
vn -0.976621 0.21497 9.72735e-15 
vn -0.907575 0.419889 8.99987e-15 
vn -0.947653 0.319302 9.41882e-15 
vn -0.856857 0.515554 8.47539e-15 
vn -0.907575 0.419889 8.99987e-15 
vn -0.796093 0.605174 7.85156e-15 
vn -0.856857 0.515554 8.47539e-15 
vn -0.725995 0.687699 7.13566e-15 
vn -0.796093 0.605174 7.85156e-15 
vn -0.647386 0.762162 6.33611e-15 
vn -0.725995 0.687699 7.13566e-15 
vn -0.561187 0.827689 5.46228e-15 
vn -0.647386 0.762162 6.33611e-15 
vn -0.468408 0.883512 4.5244e-15 
vn -0.561187 0.827689 5.46228e-15 
vn -0.370138 0.928977 3.53348e-15 
vn -0.468408 0.883512 4.5244e-15 
vn -0.267528 0.96355 2.50114e-15 
vn -0.370138 0.928977 3.53348e-15 
vn -0.161782 0.986827 1.43947e-15 
vn -0.267528 0.96355 2.50114e-15 
vn -0.0541389 0.998533 3.60921e-16 
vn -0.161782 0.986827 1.43947e-15 
vn 0.0541389 0.998533 -7.21857e-16 
vn -0.0541389 0.998533 3.60921e-16 
vn 0.161782 0.986827 -1.79617e-15 
vn 0.0541389 0.998533 -7.21857e-16 
vn 0.267528 0.96355 -2.84943e-15 
vn 0.161782 0.986827 -1.79617e-15 
vn 0.370138 0.928977 -3.86928e-15 
vn 0.267528 0.96355 -2.84943e-15 
vn 0.468408 0.883512 -4.84376e-15 
vn 0.370138 0.928977 -3.86928e-15 
vn 0.561187 0.827689 -5.76146e-15 
vn 0.468408 0.883512 -4.84376e-15 
vn 0.647386 0.762162 -6.61161e-15 
vn 0.561187 0.827689 -5.76146e-15 
vn 0.725995 0.687699 -7.38425e-15 
vn 0.647386 0.762162 -6.61161e-15 
vn 0.796093 0.605174 -8.07031e-15 
vn 0.725995 0.687699 -7.38425e-15 
vn 0.856857 0.515554 -8.66175e-15 
vn 0.796093 0.605174 -8.07031e-15 
vn 0.907575 0.419889 -9.15164e-15 
vn 0.856857 0.515554 -8.66175e-15 
vn 0.947653 0.319302 -9.53424e-15 
vn 0.907575 0.419889 -9.15164e-15 
vn 0.976621 0.21497 -9.80506e-15 
vn 0.947653 0.319302 -9.53424e-15 
vn 0.994138 0.108119 -9.96092e-15 
vn 0.976621 0.21497 -9.80506e-15 
vn 1 -3.03198e-16 -1e-14 
vn 0.994138 0.108119 -9.96092e-15 
vn 1 -3.03198e-16 -1e-14 
f 413//413 414//414 415//415 
f 416//416 413//413 417//417 
f 418//418 416//416 419//419 
f 420//420 418//418 421//421 
f 422//422 420//420 423//423 
f 424//424 422//422 425//425 
f 426//426 424//424 427//427 
f 428//428 426//426 429//429 
f 430//430 428//428 431//431 
f 432//432 430//430 433//433 
f 434//434 432//432 435//435 
f 436//436 434//434 437//437 
f 438//438 436//436 439//439 
f 440//440 438//438 441//441 
f 442//442 440//440 443//443 
f 444//444 442//442 445//445 
f 446//446 444//444 447//447 
f 448//448 446//446 449//449 
f 450//450 448//448 451//451 
f 452//452 450//450 453//453 
f 454//454 452//452 455//455 
f 456//456 454//454 457//457 
f 458//458 456//456 459//459 
f 460//460 458//458 461//461 
f 462//462 460//460 463//463 
f 464//464 462//462 465//465 
f 466//466 464//464 467//467 
f 468//468 466//466 469//469 
f 470//470 468//468 471//471 
f 471//471 472//472 470//470 
f 469//469 471//471 468//468 
f 467//467 469//469 466//466 
f 465//465 467//467 464//464 
f 463//463 465//465 462//462 
f 461//461 463//463 460//460 
f 459//459 461//461 458//458 
f 457//457 459//459 456//456 
f 455//455 457//457 454//454 
f 453//453 455//455 452//452 
f 451//451 453//453 450//450 
f 449//449 451//451 448//448 
f 447//447 449//449 446//446 
f 445//445 447//447 444//444 
f 443//443 445//445 442//442 
f 441//441 443//443 440//440 
f 439//439 441//441 438//438 
f 437//437 439//439 436//436 
f 435//435 437//437 434//434 
f 433//433 435//435 432//432 
f 431//431 433//433 430//430 
f 429//429 431//431 428//428 
f 427//427 429//429 426//426 
f 425//425 427//427 424//424 
f 423//423 425//425 422//422 
f 421//421 423//423 420//420 
f 419//419 421//421 418//418 
f 417//417 419//419 416//416 
f 415//415 417//417 413//413 
