# OBJ generated by ONSHAPE BY PTC INC, 1.215 Units = meters
mtllib _6804_2Z_2_solid16.mtl
g 6804-2Z-2-solid16
usemtl 0.796078_0.823529_0.937255_0.000000_0.000000
o mesh22698
v -0.0140989 4.70585e-18 0.0507204 
v -0.0140989 4.70585e-18 0.0493 
v -0.0140163 -0.00152436 0.0493 
v -0.0140163 -0.00152436 0.0507204 
v -0.0137693 -0.00303085 0.0493 
v -0.0137693 -0.00303085 0.0507204 
v -0.0133609 -0.0045018 0.0493 
v -0.0133609 -0.0045018 0.0507204 
v -0.0127958 -0.00591997 0.0493 
v -0.0127958 -0.00591997 0.0507204 
v -0.0120807 -0.00726874 0.0493 
v -0.0120807 -0.00726874 0.0507204 
v -0.011224 -0.00853229 0.0493 
v -0.011224 -0.00853229 0.0507204 
v -0.0102357 -0.00969581 0.0493 
v -0.0102357 -0.00969581 0.0507204 
v -0.00912744 -0.0107456 0.0493 
v -0.00912744 -0.0107456 0.0507204 
v -0.00791212 -0.0116695 0.0493 
v -0.00791212 -0.0116695 0.0507204 
v -0.00660404 -0.0124565 0.0493 
v -0.00660404 -0.0124565 0.0507204 
v -0.00521854 -0.0130976 0.0493 
v -0.00521854 -0.0130976 0.0507204 
v -0.00377186 -0.013585 0.0493 
v -0.00377186 -0.013585 0.0507204 
v -0.00228095 -0.0139132 0.0493 
v -0.00228095 -0.0139132 0.0507204 
v -0.000763299 -0.0140782 0.0493 
v -0.000763299 -0.0140782 0.0507204 
v 0.000763299 -0.0140782 0.0493 
v 0.000763299 -0.0140782 0.0507204 
v 0.00228095 -0.0139132 0.0493 
v 0.00228095 -0.0139132 0.0507204 
v 0.00377186 -0.013585 0.0493 
v 0.00377186 -0.013585 0.0507204 
v 0.00521854 -0.0130976 0.0493 
v 0.00521854 -0.0130976 0.0507204 
v 0.00660404 -0.0124565 0.0493 
v 0.00660404 -0.0124565 0.0507204 
v 0.00791212 -0.0116695 0.0493 
v 0.00791212 -0.0116695 0.0507204 
v 0.00912744 -0.0107456 0.0493 
v 0.00912744 -0.0107456 0.0507204 
v 0.0102357 -0.00969581 0.0493 
v 0.0102357 -0.00969581 0.0507204 
v 0.011224 -0.00853229 0.0493 
v 0.011224 -0.00853229 0.0507204 
v 0.0120807 -0.00726874 0.0493 
v 0.0120807 -0.00726874 0.0507204 
v 0.0127958 -0.00591997 0.0493 
v 0.0127958 -0.00591997 0.0507204 
v 0.0133609 -0.0045018 0.0493 
v 0.0133609 -0.0045018 0.0507204 
v 0.0137693 -0.00303085 0.0493 
v 0.0137693 -0.00303085 0.0507204 
v 0.0140163 -0.00152436 0.0493 
v 0.0140163 -0.00152436 0.0507204 
v 0.0140989 -2.24541e-18 0.0493 
v 0.0140989 -1.98869e-18 0.0507204 
vn -1 3.03198e-16 1e-14 
vn -1 3.03198e-16 1e-14 
vn -0.994138 -0.108119 9.96092e-15 
vn -0.994138 -0.108119 9.96092e-15 
vn -0.976621 -0.21497 9.80506e-15 
vn -0.976621 -0.21497 9.80506e-15 
vn -0.947653 -0.319302 9.53424e-15 
vn -0.947653 -0.319302 9.53424e-15 
vn -0.907575 -0.419889 9.15164e-15 
vn -0.907575 -0.419889 9.15164e-15 
vn -0.856857 -0.515554 8.66175e-15 
vn -0.856857 -0.515554 8.66175e-15 
vn -0.796093 -0.605174 8.07031e-15 
vn -0.796093 -0.605174 8.07031e-15 
vn -0.725995 -0.687699 7.38425e-15 
vn -0.725995 -0.687699 7.38425e-15 
vn -0.647386 -0.762162 6.61161e-15 
vn -0.647386 -0.762162 6.61161e-15 
vn -0.561187 -0.827689 5.76146e-15 
vn -0.561187 -0.827689 5.76146e-15 
vn -0.468408 -0.883512 4.84376e-15 
vn -0.468408 -0.883512 4.84376e-15 
vn -0.370138 -0.928977 3.86928e-15 
vn -0.370138 -0.928977 3.86928e-15 
vn -0.267528 -0.96355 2.84943e-15 
vn -0.267528 -0.96355 2.84943e-15 
vn -0.161782 -0.986827 1.79617e-15 
vn -0.161782 -0.986827 1.79617e-15 
vn -0.0541389 -0.998533 7.21857e-16 
vn -0.0541389 -0.998533 7.21857e-16 
vn 0.0541389 -0.998533 -3.60921e-16 
vn 0.0541389 -0.998533 -3.60921e-16 
vn 0.161782 -0.986827 -1.43947e-15 
vn 0.161782 -0.986827 -1.43947e-15 
vn 0.267528 -0.96355 -2.50114e-15 
vn 0.267528 -0.96355 -2.50114e-15 
vn 0.370138 -0.928977 -3.53348e-15 
vn 0.370138 -0.928977 -3.53348e-15 
vn 0.468408 -0.883512 -4.5244e-15 
vn 0.468408 -0.883512 -4.5244e-15 
vn 0.561187 -0.827689 -5.46228e-15 
vn 0.561187 -0.827689 -5.46228e-15 
vn 0.647386 -0.762162 -6.33611e-15 
vn 0.647386 -0.762162 -6.33611e-15 
vn 0.725995 -0.687699 -7.13566e-15 
vn 0.725995 -0.687699 -7.13566e-15 
vn 0.796093 -0.605174 -7.85156e-15 
vn 0.796093 -0.605174 -7.85156e-15 
vn 0.856857 -0.515554 -8.47539e-15 
vn 0.856857 -0.515554 -8.47539e-15 
vn 0.907575 -0.419889 -8.99987e-15 
vn 0.907575 -0.419889 -8.99987e-15 
vn 0.947653 -0.319302 -9.41882e-15 
vn 0.947653 -0.319302 -9.41882e-15 
vn 0.976621 -0.21497 -9.72735e-15 
vn 0.976621 -0.21497 -9.72735e-15 
vn 0.994138 -0.108119 -9.92184e-15 
vn 0.994138 -0.108119 -9.92184e-15 
vn 1 -4.25663e-16 -1e-14 
vn 1 -4.25663e-16 -1e-14 
f 1//1 2//2 3//3 
f 4//4 3//3 5//5 
f 6//6 5//5 7//7 
f 8//8 7//7 9//9 
f 10//10 9//9 11//11 
f 12//12 11//11 13//13 
f 14//14 13//13 15//15 
f 16//16 15//15 17//17 
f 18//18 17//17 19//19 
f 20//20 19//19 21//21 
f 22//22 21//21 23//23 
f 24//24 23//23 25//25 
f 26//26 25//25 27//27 
f 28//28 27//27 29//29 
f 30//30 29//29 31//31 
f 32//32 31//31 33//33 
f 34//34 33//33 35//35 
f 36//36 35//35 37//37 
f 38//38 37//37 39//39 
f 40//40 39//39 41//41 
f 42//42 41//41 43//43 
f 44//44 43//43 45//45 
f 46//46 45//45 47//47 
f 48//48 47//47 49//49 
f 50//50 49//49 51//51 
f 52//52 51//51 53//53 
f 54//54 53//53 55//55 
f 56//56 55//55 57//57 
f 58//58 57//57 59//59 
f 59//59 60//60 58//58 
f 57//57 58//58 56//56 
f 55//55 56//56 54//54 
f 53//53 54//54 52//52 
f 51//51 52//52 50//50 
f 49//49 50//50 48//48 
f 47//47 48//48 46//46 
f 45//45 46//46 44//44 
f 43//43 44//44 42//42 
f 41//41 42//42 40//40 
f 39//39 40//40 38//38 
f 37//37 38//38 36//36 
f 35//35 36//36 34//34 
f 33//33 34//34 32//32 
f 31//31 32//32 30//30 
f 29//29 30//30 28//28 
f 27//27 28//28 26//26 
f 25//25 26//26 24//24 
f 23//23 24//24 22//22 
f 21//21 22//22 20//20 
f 19//19 20//20 18//18 
f 17//17 18//18 16//16 
f 15//15 16//16 14//14 
f 13//13 14//14 12//12 
f 11//11 12//12 10//10 
f 9//9 10//10 8//8 
f 7//7 8//8 6//6 
f 5//5 6//6 4//4 
f 3//3 4//4 1//1 
o mesh22699
v 0.0140989 -1.98869e-18 0.0507204 
v 0.0140989 -2.24541e-18 0.0493 
v 0.0140163 0.00152436 0.0493 
v 0.0140163 0.00152436 0.0507204 
v 0.0137693 0.00303085 0.0493 
v 0.0137693 0.00303085 0.0507204 
v 0.0133609 0.0045018 0.0493 
v 0.0133609 0.0045018 0.0507204 
v 0.0127958 0.00591997 0.0493 
v 0.0127958 0.00591997 0.0507204 
v 0.0120807 0.00726874 0.0493 
v 0.0120807 0.00726874 0.0507204 
v 0.011224 0.00853229 0.0493 
v 0.011224 0.00853229 0.0507204 
v 0.0102357 0.00969581 0.0493 
v 0.0102357 0.00969581 0.0507204 
v 0.00912744 0.0107456 0.0493 
v 0.00912744 0.0107456 0.0507204 
v 0.00791212 0.0116695 0.0493 
v 0.00791212 0.0116695 0.0507204 
v 0.00660404 0.0124565 0.0493 
v 0.00660404 0.0124565 0.0507204 
v 0.00521854 0.0130976 0.0493 
v 0.00521854 0.0130976 0.0507204 
v 0.00377186 0.013585 0.0493 
v 0.00377186 0.013585 0.0507204 
v 0.00228095 0.0139132 0.0493 
v 0.00228095 0.0139132 0.0507204 
v 0.000763299 0.0140782 0.0493 
v 0.000763299 0.0140782 0.0507204 
v -0.000763299 0.0140782 0.0493 
v -0.000763299 0.0140782 0.0507204 
v -0.00228095 0.0139132 0.0493 
v -0.00228095 0.0139132 0.0507204 
v -0.00377186 0.013585 0.0493 
v -0.00377186 0.013585 0.0507204 
v -0.00521854 0.0130976 0.0493 
v -0.00521854 0.0130976 0.0507204 
v -0.00660404 0.0124565 0.0493 
v -0.00660404 0.0124565 0.0507204 
v -0.00791212 0.0116695 0.0493 
v -0.00791212 0.0116695 0.0507204 
v -0.00912744 0.0107456 0.0493 
v -0.00912744 0.0107456 0.0507204 
v -0.0102357 0.00969581 0.0493 
v -0.0102357 0.00969581 0.0507204 
v -0.011224 0.00853229 0.0493 
v -0.011224 0.00853229 0.0507204 
v -0.0120807 0.00726874 0.0493 
v -0.0120807 0.00726874 0.0507204 
v -0.0127958 0.00591997 0.0493 
v -0.0127958 0.00591997 0.0507204 
v -0.0133609 0.0045018 0.0493 
v -0.0133609 0.0045018 0.0507204 
v -0.0137693 0.00303085 0.0493 
v -0.0137693 0.00303085 0.0507204 
v -0.0140163 0.00152436 0.0493 
v -0.0140163 0.00152436 0.0507204 
v -0.0140989 4.70585e-18 0.0493 
v -0.0140989 4.70585e-18 0.0507204 
vn 1 -4.25663e-16 -1e-14 
vn 1 -4.25663e-16 -1e-14 
vn 0.994138 0.108119 -9.96092e-15 
vn 0.994138 0.108119 -9.96092e-15 
vn 0.976621 0.21497 -9.80506e-15 
vn 0.976621 0.21497 -9.80506e-15 
vn 0.947653 0.319302 -9.53424e-15 
vn 0.947653 0.319302 -9.53424e-15 
vn 0.907575 0.419889 -9.15164e-15 
vn 0.907575 0.419889 -9.15164e-15 
vn 0.856857 0.515554 -8.66175e-15 
vn 0.856857 0.515554 -8.66175e-15 
vn 0.796093 0.605174 -8.07031e-15 
vn 0.796093 0.605174 -8.07031e-15 
vn 0.725995 0.687699 -7.38425e-15 
vn 0.725995 0.687699 -7.38425e-15 
vn 0.647386 0.762162 -6.61161e-15 
vn 0.647386 0.762162 -6.61161e-15 
vn 0.561187 0.827689 -5.76146e-15 
vn 0.561187 0.827689 -5.76146e-15 
vn 0.468408 0.883512 -4.84376e-15 
vn 0.468408 0.883512 -4.84376e-15 
vn 0.370138 0.928977 -3.86928e-15 
vn 0.370138 0.928977 -3.86928e-15 
vn 0.267528 0.96355 -2.84943e-15 
vn 0.267528 0.96355 -2.84943e-15 
vn 0.161782 0.986827 -1.79617e-15 
vn 0.161782 0.986827 -1.79617e-15 
vn 0.0541389 0.998533 -7.21857e-16 
vn 0.0541389 0.998533 -7.21857e-16 
vn -0.0541389 0.998533 3.60921e-16 
vn -0.0541389 0.998533 3.60921e-16 
vn -0.161782 0.986827 1.43947e-15 
vn -0.161782 0.986827 1.43947e-15 
vn -0.267528 0.96355 2.50114e-15 
vn -0.267528 0.96355 2.50114e-15 
vn -0.370138 0.928977 3.53348e-15 
vn -0.370138 0.928977 3.53348e-15 
vn -0.468408 0.883512 4.5244e-15 
vn -0.468408 0.883512 4.5244e-15 
vn -0.561187 0.827689 5.46228e-15 
vn -0.561187 0.827689 5.46228e-15 
vn -0.647386 0.762162 6.33611e-15 
vn -0.647386 0.762162 6.33611e-15 
vn -0.725995 0.687699 7.13566e-15 
vn -0.725995 0.687699 7.13566e-15 
vn -0.796093 0.605174 7.85156e-15 
vn -0.796093 0.605174 7.85156e-15 
vn -0.856857 0.515554 8.47539e-15 
vn -0.856857 0.515554 8.47539e-15 
vn -0.907575 0.419889 8.99987e-15 
vn -0.907575 0.419889 8.99987e-15 
vn -0.947653 0.319302 9.41882e-15 
vn -0.947653 0.319302 9.41882e-15 
vn -0.976621 0.21497 9.72735e-15 
vn -0.976621 0.21497 9.72735e-15 
vn -0.994138 0.108119 9.92184e-15 
vn -0.994138 0.108119 9.92184e-15 
vn -1 3.03198e-16 1e-14 
vn -1 3.03198e-16 1e-14 
f 61//61 62//62 63//63 
f 64//64 63//63 65//65 
f 66//66 65//65 67//67 
f 68//68 67//67 69//69 
f 70//70 69//69 71//71 
f 72//72 71//71 73//73 
f 74//74 73//73 75//75 
f 76//76 75//75 77//77 
f 78//78 77//77 79//79 
f 80//80 79//79 81//81 
f 82//82 81//81 83//83 
f 84//84 83//83 85//85 
f 86//86 85//85 87//87 
f 88//88 87//87 89//89 
f 90//90 89//89 91//91 
f 92//92 91//91 93//93 
f 94//94 93//93 95//95 
f 96//96 95//95 97//97 
f 98//98 97//97 99//99 
f 100//100 99//99 101//101 
f 102//102 101//101 103//103 
f 104//104 103//103 105//105 
f 106//106 105//105 107//107 
f 108//108 107//107 109//109 
f 110//110 109//109 111//111 
f 112//112 111//111 113//113 
f 114//114 113//113 115//115 
f 116//116 115//115 117//117 
f 118//118 117//117 119//119 
f 119//119 120//120 118//118 
f 117//117 118//118 116//116 
f 115//115 116//116 114//114 
f 113//113 114//114 112//112 
f 111//111 112//112 110//110 
f 109//109 110//110 108//108 
f 107//107 108//108 106//106 
f 105//105 106//106 104//104 
f 103//103 104//104 102//102 
f 101//101 102//102 100//100 
f 99//99 100//100 98//98 
f 97//97 98//98 96//96 
f 95//95 96//96 94//94 
f 93//93 94//94 92//92 
f 91//91 92//92 90//90 
f 89//89 90//90 88//88 
f 87//87 88//88 86//86 
f 85//85 86//86 84//84 
f 83//83 84//84 82//82 
f 81//81 82//82 80//80 
f 79//79 80//80 78//78 
f 77//77 78//78 76//76 
f 75//75 76//76 74//74 
f 73//73 74//74 72//72 
f 71//71 72//72 70//70 
f 69//69 70//70 68//68 
f 67//67 68//68 66//66 
f 65//65 66//66 64//64 
f 63//63 64//64 61//61 
o mesh22700
v 0.00521854 0.0130976 0.0507204 
v 0.00440505 0.0110558 0.0507204 
v 0.00557458 0.0105148 0.0507204 
v 0.00377186 0.013585 0.0507204 
v 0.00318388 0.0114673 0.0507204 
v 0.00228095 0.0139132 0.0507204 
v 0.00192538 0.0117443 0.0507204 
v 0.000763299 0.0140782 0.0507204 
v 0.000644313 0.0118836 0.0507204 
v 0.0120807 0.00726874 0.0507204 
v 0.0101975 0.00613566 0.0507204 
v 0.0108011 0.00499714 0.0507204 
v 0.011224 0.00853229 0.0507204 
v 0.00947438 0.00720224 0.0507204 
v 0.0102357 0.00969581 0.0507204 
v 0.00864014 0.00818438 0.0507204 
v 0.00912744 0.0107456 0.0507204 
v 0.00770461 0.00907057 0.0507204 
v 0.00791212 0.0116695 0.0507204 
v 0.00667874 0.00985041 0.0507204 
v 0.00660404 0.0124565 0.0507204 
v -0.000763299 0.0140782 0.0507204 
v -0.000644313 0.0118836 0.0507204 
v -0.00228095 0.0139132 0.0507204 
v -0.00192538 0.0117443 0.0507204 
v -0.00377186 0.013585 0.0507204 
v -0.00318388 0.0114673 0.0507204 
v -0.00521854 0.0130976 0.0507204 
v -0.00440505 0.0110558 0.0507204 
v -0.00660404 0.0124565 0.0507204 
v -0.00557458 0.0105148 0.0507204 
v -0.00912744 0.0107456 0.0507204 
v -0.00770461 0.00907057 0.0507204 
v -0.00667874 0.00985041 0.0507204 
v -0.0102357 0.00969581 0.0507204 
v -0.00864014 0.00818438 0.0507204 
v -0.00660404 -0.0124565 0.0507204 
v -0.00557458 -0.0105148 0.0507204 
v -0.00667874 -0.00985041 0.0507204 
v -0.00521854 -0.0130976 0.0507204 
v -0.00440505 -0.0110558 0.0507204 
v 0.00228095 -0.0139132 0.0507204 
v 0.00192538 -0.0117443 0.0507204 
v 0.000644313 -0.0118836 0.0507204 
v 0.00377186 -0.013585 0.0507204 
v 0.00318388 -0.0114673 0.0507204 
v 0.0140163 0.00152436 0.0507204 
v 0.0118313 0.00128674 0.0507204 
v 0.0119011 -1.59148e-18 0.0507204 
v 0.0137693 0.00303085 0.0507204 
v 0.0116229 0.00255838 0.0507204 
v 0.0127958 0.00591997 0.0507204 
v 0.0112781 0.00380004 0.0507204 
v -0.00791212 0.0116695 0.0507204 
v -0.011224 0.00853229 0.0507204 
v -0.00947438 0.00720224 0.0507204 
v -0.0120807 0.00726874 0.0507204 
v -0.0101975 0.00613566 0.0507204 
v -0.0127958 0.00591997 0.0507204 
v -0.0108011 0.00499714 0.0507204 
v -0.0140163 -0.00152436 0.0507204 
v -0.0118313 -0.00128674 0.0507204 
v -0.0119011 4.03948e-18 0.0507204 
v -0.0137693 -0.00303085 0.0507204 
v -0.0116229 -0.00255838 0.0507204 
v -0.00791212 -0.0116695 0.0507204 
v -0.00770461 -0.00907057 0.0507204 
v 0.00521854 -0.0130976 0.0507204 
v 0.00440505 -0.0110558 0.0507204 
v 0.00660404 -0.0124565 0.0507204 
v 0.00557458 -0.0105148 0.0507204 
v 0.00791212 -0.0116695 0.0507204 
v 0.00667874 -0.00985041 0.0507204 
v 0.0133609 0.0045018 0.0507204 
v -0.0140163 0.00152436 0.0507204 
v -0.0118313 0.00128674 0.0507204 
v -0.0116229 0.00255838 0.0507204 
v -0.0140989 4.70585e-18 0.0507204 
v -0.0133609 -0.0045018 0.0507204 
v -0.0112781 -0.00380004 0.0507204 
v -0.011224 -0.00853229 0.0507204 
v -0.00947438 -0.00720224 0.0507204 
v -0.0101975 -0.00613566 0.0507204 
v -0.0102357 -0.00969581 0.0507204 
v -0.00864014 -0.00818438 0.0507204 
v -0.00912744 -0.0107456 0.0507204 
v -0.00228095 -0.0139132 0.0507204 
v -0.000763299 -0.0140782 0.0507204 
v -0.000644313 -0.0118836 0.0507204 
v 0.000763299 -0.0140782 0.0507204 
v 0.0120807 -0.00726874 0.0507204 
v 0.0127958 -0.00591997 0.0507204 
v 0.0108011 -0.00499714 0.0507204 
v 0.0133609 -0.0045018 0.0507204 
v 0.0112781 -0.00380004 0.0507204 
v -0.0133609 0.0045018 0.0507204 
v -0.0112781 0.00380004 0.0507204 
v -0.0137693 0.00303085 0.0507204 
v -0.0127958 -0.00591997 0.0507204 
v -0.0108011 -0.00499714 0.0507204 
v -0.0120807 -0.00726874 0.0507204 
v -0.00377186 -0.013585 0.0507204 
v -0.00318388 -0.0114673 0.0507204 
v -0.00192538 -0.0117443 0.0507204 
v 0.011224 -0.00853229 0.0507204 
v 0.0101975 -0.00613566 0.0507204 
v 0.0102357 -0.00969581 0.0507204 
v 0.00864014 -0.00818438 0.0507204 
v 0.00770461 -0.00907057 0.0507204 
v 0.00947438 -0.00720224 0.0507204 
v 0.0137693 -0.00303085 0.0507204 
v 0.0116229 -0.00255838 0.0507204 
v 0.0140163 -0.00152436 0.0507204 
v 0.0118313 -0.00128674 0.0507204 
v 0.0140989 -1.98869e-18 0.0507204 
v 0.00912744 -0.0107456 0.0507204 
vn 1e-14 1.80733e-16 1 
vn 1e-14 1.80733e-16 1 
vn 1e-14 1.80733e-16 1 
vn 1e-14 1.80733e-16 1 
vn 1e-14 1.80733e-16 1 
vn 1e-14 1.80733e-16 1 
vn 1e-14 1.80733e-16 1 
vn 1e-14 1.80733e-16 1 
vn 1e-14 1.80733e-16 1 
vn 1e-14 1.80733e-16 1 
vn 1e-14 1.80733e-16 1 
vn 1e-14 1.80733e-16 1 
vn 1e-14 1.80733e-16 1 
vn 1e-14 1.80733e-16 1 
vn 1e-14 1.80733e-16 1 
vn 1e-14 1.80733e-16 1 
vn 1e-14 1.80733e-16 1 
vn 1e-14 1.80733e-16 1 
vn 1e-14 1.80733e-16 1 
vn 1e-14 1.80733e-16 1 
vn 1e-14 1.80733e-16 1 
vn 1e-14 1.80733e-16 1 
vn 1e-14 1.80733e-16 1 
vn 1e-14 1.80733e-16 1 
vn 1e-14 1.80733e-16 1 
vn 1e-14 1.80733e-16 1 
vn 1e-14 1.80733e-16 1 
vn 1e-14 1.80733e-16 1 
vn 1e-14 1.80733e-16 1 
vn 1e-14 1.80733e-16 1 
vn 1e-14 1.80733e-16 1 
vn 1e-14 1.80733e-16 1 
vn 1e-14 1.80733e-16 1 
vn 1e-14 1.80733e-16 1 
vn 1e-14 1.80733e-16 1 
vn 1e-14 1.80733e-16 1 
vn 1e-14 1.80733e-16 1 
vn 1e-14 1.80733e-16 1 
vn 1e-14 1.80733e-16 1 
vn 1e-14 1.80733e-16 1 
vn 1e-14 1.80733e-16 1 
vn 1e-14 1.80733e-16 1 
vn 1e-14 1.80733e-16 1 
vn 1e-14 1.80733e-16 1 
vn 1e-14 1.80733e-16 1 
vn 1e-14 1.80733e-16 1 
vn 1e-14 1.80733e-16 1 
vn 1e-14 1.80733e-16 1 
vn 1e-14 1.80733e-16 1 
vn 1e-14 1.80733e-16 1 
vn 1e-14 1.80733e-16 1 
vn 1e-14 1.80733e-16 1 
vn 1e-14 1.80733e-16 1 
vn 1e-14 1.80733e-16 1 
vn 1e-14 1.80733e-16 1 
vn 1e-14 1.80733e-16 1 
vn 1e-14 1.80733e-16 1 
vn 1e-14 1.80733e-16 1 
vn 1e-14 1.80733e-16 1 
vn 1e-14 1.80733e-16 1 
vn 1e-14 1.80733e-16 1 
vn 1e-14 1.80733e-16 1 
vn 1e-14 1.80733e-16 1 
vn 1e-14 1.80733e-16 1 
vn 1e-14 1.80733e-16 1 
vn 1e-14 1.80733e-16 1 
vn 1e-14 1.80733e-16 1 
vn 1e-14 1.80733e-16 1 
vn 1e-14 1.80733e-16 1 
vn 1e-14 1.80733e-16 1 
vn 1e-14 1.80733e-16 1 
vn 1e-14 1.80733e-16 1 
vn 1e-14 1.80733e-16 1 
vn 1e-14 1.80733e-16 1 
vn 1e-14 1.80733e-16 1 
vn 1e-14 1.80733e-16 1 
vn 1e-14 1.80733e-16 1 
vn 1e-14 1.80733e-16 1 
vn 1e-14 1.80733e-16 1 
vn 1e-14 1.80733e-16 1 
vn 1e-14 1.80733e-16 1 
vn 1e-14 1.80733e-16 1 
vn 1e-14 1.80733e-16 1 
vn 1e-14 1.80733e-16 1 
vn 1e-14 1.80733e-16 1 
vn 1e-14 1.80733e-16 1 
vn 1e-14 1.80733e-16 1 
vn 1e-14 1.80733e-16 1 
vn 1e-14 1.80733e-16 1 
vn 1e-14 1.80733e-16 1 
vn 1e-14 1.80733e-16 1 
vn 1e-14 1.80733e-16 1 
vn 1e-14 1.80733e-16 1 
vn 1e-14 1.80733e-16 1 
vn 1e-14 1.80733e-16 1 
vn 1e-14 1.80733e-16 1 
vn 1e-14 1.80733e-16 1 
vn 1e-14 1.80733e-16 1 
vn 1e-14 1.80733e-16 1 
vn 1e-14 1.80733e-16 1 
vn 1e-14 1.80733e-16 1 
vn 1e-14 1.80733e-16 1 
vn 1e-14 1.80733e-16 1 
vn 1e-14 1.80733e-16 1 
vn 1e-14 1.80733e-16 1 
vn 1e-14 1.80733e-16 1 
vn 1e-14 1.80733e-16 1 
vn 1e-14 1.80733e-16 1 
vn 1e-14 1.80733e-16 1 
vn 1e-14 1.80733e-16 1 
vn 1e-14 1.80733e-16 1 
vn 1e-14 1.80733e-16 1 
vn 1e-14 1.80733e-16 1 
vn 1e-14 1.80733e-16 1 
vn 1e-14 1.80733e-16 1 
vn 1e-14 1.80733e-16 1 
f 121//121 122//122 123//123 
f 121//121 124//124 125//125 
f 124//124 126//126 127//127 
f 126//126 128//128 129//129 
f 125//125 122//122 121//121 
f 129//129 127//127 126//126 
f 130//130 131//131 132//132 
f 130//130 133//133 134//134 
f 135//135 136//136 134//134 
f 137//137 138//138 136//136 
f 139//139 140//140 138//138 
f 139//139 141//141 123//123 
f 127//127 125//125 124//124 
f 128//128 142//142 143//143 
f 144//144 145//145 143//143 
f 144//144 146//146 147//147 
f 148//148 149//149 147//147 
f 148//148 150//150 151//151 
f 152//152 153//153 154//154 
f 152//152 155//155 156//156 
f 157//157 158//158 159//159 
f 157//157 160//160 161//161 
f 162//162 163//163 164//164 
f 162//162 165//165 166//166 
f 167//167 168//168 169//169 
f 167//167 170//170 171//171 
f 172//172 132//132 173//173 
f 134//134 131//131 130//130 
f 136//136 135//135 137//137 
f 123//123 140//140 139//139 
f 143//143 129//129 128//128 
f 147//147 145//145 144//144 
f 151//151 149//149 148//148 
f 150//150 174//174 154//154 
f 156//156 153//153 152//152 
f 155//155 175//175 176//176 
f 175//175 177//177 178//178 
f 177//177 179//179 180//180 
f 181//181 182//182 183//183 
f 181//181 184//184 185//185 
f 186//186 159//159 187//187 
f 161//161 158//158 157//157 
f 166//166 163//163 162//162 
f 165//165 188//188 189//189 
f 188//188 190//190 191//191 
f 190//190 192//192 193//193 
f 171//171 168//168 167//167 
f 170//170 194//194 173//173 
f 132//132 172//172 130//130 
f 138//138 137//137 139//139 
f 143//143 142//142 144//144 
f 154//154 151//151 150//150 
f 176//176 156//156 155//155 
f 180//180 178//178 177//177 
f 195//195 196//196 197//197 
f 195//195 198//198 183//183 
f 185//185 182//182 181//181 
f 184//184 199//199 200//200 
f 201//201 202//202 203//203 
f 201//201 204//204 205//205 
f 204//204 206//206 187//187 
f 159//159 186//186 157//157 
f 207//207 208//208 209//209 
f 210//210 164//164 209//209 
f 189//189 166//166 165//165 
f 193//193 191//191 190//190 
f 211//211 212//212 213//213 
f 212//212 214//214 215//215 
f 173//173 171//171 170//170 
f 134//134 133//133 135//135 
f 147//147 146//146 148//148 
f 178//178 176//176 175//175 
f 216//216 217//217 180//180 
f 216//216 218//218 197//197 
f 183//183 196//196 195//195 
f 200//200 185//185 184//184 
f 219//219 220//220 200//200 
f 219//219 221//221 203//203 
f 205//205 202//202 201//201 
f 187//187 206//206 186//186 
f 222//222 223//223 161//161 
f 222//222 207//207 224//224 
f 209//209 208//208 210//210 
f 191//191 189//189 188//188 
f 225//225 211//211 226//226 
f 215//215 213//213 212//212 
f 173//173 194//194 172//172 
f 154//154 174//174 152//152 
f 197//197 217//217 216//216 
f 183//183 198//198 181//181 
f 203//203 220//220 219//219 
f 187//187 205//205 204//204 
f 224//224 223//223 222//222 
f 164//164 210//210 162//162 
f 227//227 228//228 229//229 
f 227//227 225//225 230//230 
f 213//213 226//226 211//211 
f 231//231 232//232 215//215 
f 233//233 234//234 232//232 
f 233//233 235//235 169//169 
f 123//123 141//141 121//121 
f 197//197 218//218 195//195 
f 203//203 221//221 201//201 
f 209//209 224//224 207//207 
f 236//236 229//229 193//193 
f 230//230 228//228 227//227 
f 215//215 214//214 231//231 
f 169//169 234//234 233//233 
f 180//180 179//179 216//216 
f 161//161 160//160 222//222 
f 229//229 236//236 227//227 
f 232//232 231//231 233//233 
f 200//200 199//199 219//219 
f 226//226 230//230 225//225 
f 193//193 192//192 236//236 
f 169//169 235//235 167//167 
o mesh22701
v -0.00228095 0.0139132 0.0493 
v -0.00192538 0.0117443 0.0493 
v -0.00318388 0.0114673 0.0493 
v -0.000763299 0.0140782 0.0493 
v -0.000644313 0.0118836 0.0493 
v -0.0102357 0.00969581 0.0493 
v -0.00912744 0.0107456 0.0493 
v -0.00770461 0.00907057 0.0493 
v -0.00791212 0.0116695 0.0493 
v -0.00667874 0.00985041 0.0493 
v 0.000763299 0.0140782 0.0493 
v 0.000644313 0.0118836 0.0493 
v 0.00228095 0.0139132 0.0493 
v 0.00192538 0.0117443 0.0493 
v 0.00377186 0.013585 0.0493 
v 0.00318388 0.0114673 0.0493 
v 0.0127958 -0.00591997 0.0493 
v 0.0108011 -0.00499714 0.0493 
v 0.0112781 -0.00380004 0.0493 
v 0.0120807 -0.00726874 0.0493 
v 0.0101975 -0.00613566 0.0493 
v 0.00660404 -0.0124565 0.0493 
v 0.00557458 -0.0105148 0.0493 
v 0.00667874 -0.00985041 0.0493 
v 0.00521854 -0.0130976 0.0493 
v 0.00440505 -0.0110558 0.0493 
v -0.0140163 0.00152436 0.0493 
v -0.0118313 0.00128674 0.0493 
v -0.0119011 4.03948e-18 0.0493 
v -0.0137693 0.00303085 0.0493 
v -0.0116229 0.00255838 0.0493 
v -0.0133609 0.0045018 0.0493 
v -0.0112781 0.00380004 0.0493 
v -0.0127958 0.00591997 0.0493 
v -0.0108011 0.00499714 0.0493 
v -0.0120807 0.00726874 0.0493 
v -0.0101975 0.00613566 0.0493 
v -0.011224 0.00853229 0.0493 
v -0.00947438 0.00720224 0.0493 
v -0.00864014 0.00818438 0.0493 
v -0.00521854 0.0130976 0.0493 
v -0.00440505 0.0110558 0.0493 
v -0.00557458 0.0105148 0.0493 
v -0.00377186 0.013585 0.0493 
v 0.00521854 0.0130976 0.0493 
v 0.00440505 0.0110558 0.0493 
v 0.00660404 0.0124565 0.0493 
v 0.00557458 0.0105148 0.0493 
v 0.00791212 0.0116695 0.0493 
v 0.00667874 0.00985041 0.0493 
v 0.00912744 0.0107456 0.0493 
v 0.00770461 0.00907057 0.0493 
v 0.0137693 -0.00303085 0.0493 
v 0.0133609 -0.0045018 0.0493 
v 0.00377186 -0.013585 0.0493 
v 0.00318388 -0.0114673 0.0493 
v 0.00228095 -0.0139132 0.0493 
v 0.00192538 -0.0117443 0.0493 
v 0.000763299 -0.0140782 0.0493 
v 0.000644313 -0.0118836 0.0493 
v -0.00660404 0.0124565 0.0493 
v 0.0102357 0.00969581 0.0493 
v 0.00864014 0.00818438 0.0493 
v 0.0120807 0.00726874 0.0493 
v 0.0101975 0.00613566 0.0493 
v 0.00947438 0.00720224 0.0493 
v 0.0127958 0.00591997 0.0493 
v 0.0108011 0.00499714 0.0493 
v 0.0137693 0.00303085 0.0493 
v 0.0116229 0.00255838 0.0493 
v 0.0112781 0.00380004 0.0493 
v 0.0140163 0.00152436 0.0493 
v 0.0118313 0.00128674 0.0493 
v 0.0140163 -0.00152436 0.0493 
v 0.0118313 -0.00128674 0.0493 
v 0.0119011 -1.8482e-18 0.0493 
v 0.0116229 -0.00255838 0.0493 
v 0.011224 -0.00853229 0.0493 
v 0.00947438 -0.00720224 0.0493 
v -0.00660404 -0.0124565 0.0493 
v -0.00557458 -0.0105148 0.0493 
v -0.00440505 -0.0110558 0.0493 
v -0.00791212 -0.0116695 0.0493 
v -0.00667874 -0.00985041 0.0493 
v -0.011224 -0.00853229 0.0493 
v -0.00947438 -0.00720224 0.0493 
v -0.00864014 -0.00818438 0.0493 
v -0.0120807 -0.00726874 0.0493 
v -0.0101975 -0.00613566 0.0493 
v 0.011224 0.00853229 0.0493 
v 0.0133609 0.0045018 0.0493 
v 0.0140989 -2.24541e-18 0.0493 
v 0.0102357 -0.00969581 0.0493 
v 0.00864014 -0.00818438 0.0493 
v 0.00912744 -0.0107456 0.0493 
v 0.00770461 -0.00907057 0.0493 
v -0.000763299 -0.0140782 0.0493 
v -0.000644313 -0.0118836 0.0493 
v -0.00912744 -0.0107456 0.0493 
v -0.00770461 -0.00907057 0.0493 
v -0.0102357 -0.00969581 0.0493 
v 0.00791212 -0.0116695 0.0493 
v -0.00228095 -0.0139132 0.0493 
v -0.00192538 -0.0117443 0.0493 
v -0.00377186 -0.013585 0.0493 
v -0.00318388 -0.0114673 0.0493 
v -0.00521854 -0.0130976 0.0493 
v -0.0127958 -0.00591997 0.0493 
v -0.0108011 -0.00499714 0.0493 
v -0.0133609 -0.0045018 0.0493 
v -0.0112781 -0.00380004 0.0493 
v -0.0137693 -0.00303085 0.0493 
v -0.0116229 -0.00255838 0.0493 
v -0.0140163 -0.00152436 0.0493 
v -0.0118313 -0.00128674 0.0493 
v -0.0140989 4.70585e-18 0.0493 
vn -1e-14 -1.80733e-16 -1 
vn -1e-14 -1.80733e-16 -1 
vn -1e-14 -1.80733e-16 -1 
vn -1e-14 -1.80733e-16 -1 
vn -1e-14 -1.80733e-16 -1 
vn -1e-14 -1.80733e-16 -1 
vn -1e-14 -1.80733e-16 -1 
vn -1e-14 -1.80733e-16 -1 
vn -1e-14 -1.80733e-16 -1 
vn -1e-14 -1.80733e-16 -1 
vn -1e-14 -1.80733e-16 -1 
vn -1e-14 -1.80733e-16 -1 
vn -1e-14 -1.80733e-16 -1 
vn -1e-14 -1.80733e-16 -1 
vn -1e-14 -1.80733e-16 -1 
vn -1e-14 -1.80733e-16 -1 
vn -1e-14 -1.80733e-16 -1 
vn -1e-14 -1.80733e-16 -1 
vn -1e-14 -1.80733e-16 -1 
vn -1e-14 -1.80733e-16 -1 
vn -1e-14 -1.80733e-16 -1 
vn -1e-14 -1.80733e-16 -1 
vn -1e-14 -1.80733e-16 -1 
vn -1e-14 -1.80733e-16 -1 
vn -1e-14 -1.80733e-16 -1 
vn -1e-14 -1.80733e-16 -1 
vn -1e-14 -1.80733e-16 -1 
vn -1e-14 -1.80733e-16 -1 
vn -1e-14 -1.80733e-16 -1 
vn -1e-14 -1.80733e-16 -1 
vn -1e-14 -1.80733e-16 -1 
vn -1e-14 -1.80733e-16 -1 
vn -1e-14 -1.80733e-16 -1 
vn -1e-14 -1.80733e-16 -1 
vn -1e-14 -1.80733e-16 -1 
vn -1e-14 -1.80733e-16 -1 
vn -1e-14 -1.80733e-16 -1 
vn -1e-14 -1.80733e-16 -1 
vn -1e-14 -1.80733e-16 -1 
vn -1e-14 -1.80733e-16 -1 
vn -1e-14 -1.80733e-16 -1 
vn -1e-14 -1.80733e-16 -1 
vn -1e-14 -1.80733e-16 -1 
vn -1e-14 -1.80733e-16 -1 
vn -1e-14 -1.80733e-16 -1 
vn -1e-14 -1.80733e-16 -1 
vn -1e-14 -1.80733e-16 -1 
vn -1e-14 -1.80733e-16 -1 
vn -1e-14 -1.80733e-16 -1 
vn -1e-14 -1.80733e-16 -1 
vn -1e-14 -1.80733e-16 -1 
vn -1e-14 -1.80733e-16 -1 
vn -1e-14 -1.80733e-16 -1 
vn -1e-14 -1.80733e-16 -1 
vn -1e-14 -1.80733e-16 -1 
vn -1e-14 -1.80733e-16 -1 
vn -1e-14 -1.80733e-16 -1 
vn -1e-14 -1.80733e-16 -1 
vn -1e-14 -1.80733e-16 -1 
vn -1e-14 -1.80733e-16 -1 
vn -1e-14 -1.80733e-16 -1 
vn -1e-14 -1.80733e-16 -1 
vn -1e-14 -1.80733e-16 -1 
vn -1e-14 -1.80733e-16 -1 
vn -1e-14 -1.80733e-16 -1 
vn -1e-14 -1.80733e-16 -1 
vn -1e-14 -1.80733e-16 -1 
vn -1e-14 -1.80733e-16 -1 
vn -1e-14 -1.80733e-16 -1 
vn -1e-14 -1.80733e-16 -1 
vn -1e-14 -1.80733e-16 -1 
vn -1e-14 -1.80733e-16 -1 
vn -1e-14 -1.80733e-16 -1 
vn -1e-14 -1.80733e-16 -1 
vn -1e-14 -1.80733e-16 -1 
vn -1e-14 -1.80733e-16 -1 
vn -1e-14 -1.80733e-16 -1 
vn -1e-14 -1.80733e-16 -1 
vn -1e-14 -1.80733e-16 -1 
vn -1e-14 -1.80733e-16 -1 
vn -1e-14 -1.80733e-16 -1 
vn -1e-14 -1.80733e-16 -1 
vn -1e-14 -1.80733e-16 -1 
vn -1e-14 -1.80733e-16 -1 
vn -1e-14 -1.80733e-16 -1 
vn -1e-14 -1.80733e-16 -1 
vn -1e-14 -1.80733e-16 -1 
vn -1e-14 -1.80733e-16 -1 
vn -1e-14 -1.80733e-16 -1 
vn -1e-14 -1.80733e-16 -1 
vn -1e-14 -1.80733e-16 -1 
vn -1e-14 -1.80733e-16 -1 
vn -1e-14 -1.80733e-16 -1 
vn -1e-14 -1.80733e-16 -1 
vn -1e-14 -1.80733e-16 -1 
vn -1e-14 -1.80733e-16 -1 
vn -1e-14 -1.80733e-16 -1 
vn -1e-14 -1.80733e-16 -1 
vn -1e-14 -1.80733e-16 -1 
vn -1e-14 -1.80733e-16 -1 
vn -1e-14 -1.80733e-16 -1 
vn -1e-14 -1.80733e-16 -1 
vn -1e-14 -1.80733e-16 -1 
vn -1e-14 -1.80733e-16 -1 
vn -1e-14 -1.80733e-16 -1 
vn -1e-14 -1.80733e-16 -1 
vn -1e-14 -1.80733e-16 -1 
vn -1e-14 -1.80733e-16 -1 
vn -1e-14 -1.80733e-16 -1 
vn -1e-14 -1.80733e-16 -1 
vn -1e-14 -1.80733e-16 -1 
vn -1e-14 -1.80733e-16 -1 
vn -1e-14 -1.80733e-16 -1 
vn -1e-14 -1.80733e-16 -1 
vn -1e-14 -1.80733e-16 -1 
vn -1e-14 -1.80733e-16 -1 
f 237//237 238//238 239//239 
f 237//237 240//240 241//241 
f 242//242 243//243 244//244 
f 243//243 245//245 246//246 
f 241//241 238//238 237//237 
f 240//240 247//247 248//248 
f 249//249 250//250 248//248 
f 251//251 252//252 250//250 
f 253//253 254//254 255//255 
f 256//256 257//257 254//254 
f 258//258 259//259 260//260 
f 261//261 262//262 259//259 
f 263//263 264//264 265//265 
f 263//263 266//266 267//267 
f 268//268 269//269 267//267 
f 268//268 270//270 271//271 
f 272//272 273//273 271//271 
f 272//272 274//274 275//275 
f 242//242 276//276 275//275 
f 246//246 244//244 243//243 
f 277//277 278//278 279//279 
f 277//277 280//280 239//239 
f 248//248 241//241 240//240 
f 250//250 249//249 251//251 
f 281//281 282//282 252//252 
f 281//281 283//283 284//284 
f 285//285 286//286 284//284 
f 285//285 287//287 288//288 
f 289//289 290//290 255//255 
f 254//254 253//253 256//256 
f 259//259 258//258 261//261 
f 291//291 292//292 262//262 
f 291//291 293//293 294//294 
f 293//293 295//295 296//296 
f 267//267 264//264 263//263 
f 271//271 269//269 268//268 
f 275//275 273//273 272//272 
f 244//244 276//276 242//242 
f 297//297 279//279 246//246 
f 239//239 278//278 277//277 
f 248//248 247//247 249//249 
f 284//284 282//282 281//281 
f 288//288 286//286 285//285 
f 287//287 298//298 299//299 
f 300//300 301//301 302//302 
f 300//300 303//303 304//304 
f 305//305 306//306 307//307 
f 308//308 309//309 306//306 
f 310//310 311//311 312//312 
f 310//310 289//289 313//313 
f 255//255 290//290 253//253 
f 314//314 315//315 257//257 
f 262//262 261//261 291//291 
f 296//296 294//294 293//293 
f 316//316 317//317 318//318 
f 316//316 319//319 320//320 
f 321//321 322//322 323//323 
f 321//321 324//324 325//325 
f 267//267 266//266 268//268 
f 275//275 274//274 242//242 
f 279//279 297//297 277//277 
f 252//252 251//251 281//281 
f 299//299 288//288 287//287 
f 298//298 326//326 302//302 
f 304//304 301//301 300//300 
f 303//303 327//327 307//307 
f 306//306 305//305 308//308 
f 308//308 328//328 312//312 
f 313//313 311//311 310//310 
f 257//257 256//256 314//314 
f 329//329 330//330 315//315 
f 329//329 331//331 332//332 
f 294//294 292//292 291//291 
f 295//295 333//333 334//334 
f 320//320 317//317 316//316 
f 335//335 336//336 320//320 
f 337//337 323//323 336//336 
f 325//325 322//322 321//321 
f 271//271 270//270 272//272 
f 239//239 280//280 237//237 
f 302//302 299//299 298//298 
f 307//307 304//304 303//303 
f 312//312 309//309 308//308 
f 255//255 313//313 289//289 
f 332//332 330//330 329//329 
f 331//331 338//338 260//260 
f 334//334 296//296 295//295 
f 339//339 340//340 334//334 
f 341//341 342//342 340//340 
f 341//341 343//343 318//318 
f 320//320 319//319 335//335 
f 323//323 337//337 321//321 
f 344//344 345//345 325//325 
f 344//344 346//346 347//347 
f 246//246 245//245 297//297 
f 302//302 326//326 300//300 
f 312//312 328//328 310//310 
f 260//260 332//332 331//331 
f 334//334 333//333 339//339 
f 318//318 342//342 341//341 
f 336//336 335//335 337//337 
f 347//347 345//345 344//344 
f 284//284 283//283 285//285 
f 315//315 314//314 329//329 
f 340//340 339//339 341//341 
f 325//325 324//324 344//344 
f 348//348 349//349 347//347 
f 350//350 351//351 349//349 
f 307//307 327//327 305//305 
f 318//318 343//343 316//316 
f 349//349 348//348 350//350 
f 350//350 352//352 265//265 
f 260//260 338//338 258//258 
f 265//265 351//351 350//350 
f 347//347 346//346 348//348 
f 265//265 352//352 263//263 
o mesh22702
v -0.0118313 0.00128674 0.0507204 
v -0.0119011 4.03948e-18 0.0507204 
v -0.0119011 4.03948e-18 0.0493 
v -0.0116229 0.00255838 0.0507204 
v -0.0118313 0.00128674 0.0493 
v -0.0112781 0.00380004 0.0507204 
v -0.0116229 0.00255838 0.0493 
v -0.0108011 0.00499714 0.0507204 
v -0.0112781 0.00380004 0.0493 
v -0.0101975 0.00613566 0.0507204 
v -0.0108011 0.00499714 0.0493 
v -0.00947438 0.00720224 0.0507204 
v -0.0101975 0.00613566 0.0493 
v -0.00864014 0.00818438 0.0507204 
v -0.00947438 0.00720224 0.0493 
v -0.00770461 0.00907057 0.0507204 
v -0.00864014 0.00818438 0.0493 
v -0.00667874 0.00985041 0.0507204 
v -0.00770461 0.00907057 0.0493 
v -0.00557458 0.0105148 0.0507204 
v -0.00667874 0.00985041 0.0493 
v -0.00440505 0.0110558 0.0507204 
v -0.00557458 0.0105148 0.0493 
v -0.00318388 0.0114673 0.0507204 
v -0.00440505 0.0110558 0.0493 
v -0.00192538 0.0117443 0.0507204 
v -0.00318388 0.0114673 0.0493 
v -0.000644313 0.0118836 0.0507204 
v -0.00192538 0.0117443 0.0493 
v 0.000644313 0.0118836 0.0507204 
v -0.000644313 0.0118836 0.0493 
v 0.00192538 0.0117443 0.0507204 
v 0.000644313 0.0118836 0.0493 
v 0.00318388 0.0114673 0.0507204 
v 0.00192538 0.0117443 0.0493 
v 0.00440505 0.0110558 0.0507204 
v 0.00318388 0.0114673 0.0493 
v 0.00557458 0.0105148 0.0507204 
v 0.00440505 0.0110558 0.0493 
v 0.00667874 0.00985041 0.0507204 
v 0.00557458 0.0105148 0.0493 
v 0.00770461 0.00907057 0.0507204 
v 0.00667874 0.00985041 0.0493 
v 0.00864014 0.00818438 0.0507204 
v 0.00770461 0.00907057 0.0493 
v 0.00947438 0.00720224 0.0507204 
v 0.00864014 0.00818438 0.0493 
v 0.0101975 0.00613566 0.0507204 
v 0.00947438 0.00720224 0.0493 
v 0.0108011 0.00499714 0.0507204 
v 0.0101975 0.00613566 0.0493 
v 0.0112781 0.00380004 0.0507204 
v 0.0108011 0.00499714 0.0493 
v 0.0116229 0.00255838 0.0507204 
v 0.0112781 0.00380004 0.0493 
v 0.0118313 0.00128674 0.0507204 
v 0.0116229 0.00255838 0.0493 
v 0.0119011 -1.59148e-18 0.0507204 
v 0.0118313 0.00128674 0.0493 
v 0.0119011 -1.8482e-18 0.0493 
vn 0.994138 -0.108119 -9.92184e-15 
vn 1 -3.03198e-16 -1e-14 
vn 1 -3.03198e-16 -1e-14 
vn 0.976621 -0.21497 -9.72735e-15 
vn 0.994138 -0.108119 -9.92184e-15 
vn 0.947653 -0.319302 -9.41882e-15 
vn 0.976621 -0.21497 -9.72735e-15 
vn 0.907575 -0.419889 -8.99987e-15 
vn 0.947653 -0.319302 -9.41882e-15 
vn 0.856857 -0.515554 -8.47539e-15 
vn 0.907575 -0.419889 -8.99987e-15 
vn 0.796093 -0.605174 -7.85156e-15 
vn 0.856857 -0.515554 -8.47539e-15 
vn 0.725995 -0.687699 -7.13566e-15 
vn 0.796093 -0.605174 -7.85156e-15 
vn 0.647386 -0.762162 -6.33611e-15 
vn 0.725995 -0.687699 -7.13566e-15 
vn 0.561187 -0.827689 -5.46228e-15 
vn 0.647386 -0.762162 -6.33611e-15 
vn 0.468408 -0.883512 -4.5244e-15 
vn 0.561187 -0.827689 -5.46228e-15 
vn 0.370138 -0.928977 -3.53348e-15 
vn 0.468408 -0.883512 -4.5244e-15 
vn 0.267528 -0.96355 -2.50114e-15 
vn 0.370138 -0.928977 -3.53348e-15 
vn 0.161782 -0.986827 -1.43947e-15 
vn 0.267528 -0.96355 -2.50114e-15 
vn 0.0541389 -0.998533 -3.60921e-16 
vn 0.161782 -0.986827 -1.43947e-15 
vn -0.0541389 -0.998533 7.21857e-16 
vn 0.0541389 -0.998533 -3.60921e-16 
vn -0.161782 -0.986827 1.79617e-15 
vn -0.0541389 -0.998533 7.21857e-16 
vn -0.267528 -0.96355 2.84943e-15 
vn -0.161782 -0.986827 1.79617e-15 
vn -0.370138 -0.928977 3.86928e-15 
vn -0.267528 -0.96355 2.84943e-15 
vn -0.468408 -0.883512 4.84376e-15 
vn -0.370138 -0.928977 3.86928e-15 
vn -0.561187 -0.827689 5.76146e-15 
vn -0.468408 -0.883512 4.84376e-15 
vn -0.647386 -0.762162 6.61161e-15 
vn -0.561187 -0.827689 5.76146e-15 
vn -0.725995 -0.687699 7.38425e-15 
vn -0.647386 -0.762162 6.61161e-15 
vn -0.796093 -0.605174 8.07031e-15 
vn -0.725995 -0.687699 7.38425e-15 
vn -0.856857 -0.515554 8.66175e-15 
vn -0.796093 -0.605174 8.07031e-15 
vn -0.907575 -0.419889 9.15164e-15 
vn -0.856857 -0.515554 8.66175e-15 
vn -0.947653 -0.319302 9.53424e-15 
vn -0.907575 -0.419889 9.15164e-15 
vn -0.976621 -0.21497 9.80506e-15 
vn -0.947653 -0.319302 9.53424e-15 
vn -0.994138 -0.108119 9.96092e-15 
vn -0.976621 -0.21497 9.80506e-15 
vn -1 1.80733e-16 1e-14 
vn -0.994138 -0.108119 9.96092e-15 
vn -1 1.80733e-16 1e-14 
f 353//353 354//354 355//355 
f 356//356 353//353 357//357 
f 358//358 356//356 359//359 
f 360//360 358//358 361//361 
f 362//362 360//360 363//363 
f 364//364 362//362 365//365 
f 366//366 364//364 367//367 
f 368//368 366//366 369//369 
f 370//370 368//368 371//371 
f 372//372 370//370 373//373 
f 374//374 372//372 375//375 
f 376//376 374//374 377//377 
f 378//378 376//376 379//379 
f 380//380 378//378 381//381 
f 382//382 380//380 383//383 
f 384//384 382//382 385//385 
f 386//386 384//384 387//387 
f 388//388 386//386 389//389 
f 390//390 388//388 391//391 
f 392//392 390//390 393//393 
f 394//394 392//392 395//395 
f 396//396 394//394 397//397 
f 398//398 396//396 399//399 
f 400//400 398//398 401//401 
f 402//402 400//400 403//403 
f 404//404 402//402 405//405 
f 406//406 404//404 407//407 
f 408//408 406//406 409//409 
f 410//410 408//408 411//411 
f 411//411 412//412 410//410 
f 409//409 411//411 408//408 
f 407//407 409//409 406//406 
f 405//405 407//407 404//404 
f 403//403 405//405 402//402 
f 401//401 403//403 400//400 
f 399//399 401//401 398//398 
f 397//397 399//399 396//396 
f 395//395 397//397 394//394 
f 393//393 395//395 392//392 
f 391//391 393//393 390//390 
f 389//389 391//391 388//388 
f 387//387 389//389 386//386 
f 385//385 387//387 384//384 
f 383//383 385//385 382//382 
f 381//381 383//383 380//380 
f 379//379 381//381 378//378 
f 377//377 379//379 376//376 
f 375//375 377//377 374//374 
f 373//373 375//375 372//372 
f 371//371 373//373 370//370 
f 369//369 371//371 368//368 
f 367//367 369//369 366//366 
f 365//365 367//367 364//364 
f 363//363 365//365 362//362 
f 361//361 363//363 360//360 
f 359//359 361//361 358//358 
f 357//357 359//359 356//356 
f 355//355 357//357 353//353 
o mesh22703
v 0.0118313 -0.00128674 0.0507204 
v 0.0119011 -1.59148e-18 0.0507204 
v 0.0119011 -1.8482e-18 0.0493 
v 0.0116229 -0.00255838 0.0507204 
v 0.0118313 -0.00128674 0.0493 
v 0.0112781 -0.00380004 0.0507204 
v 0.0116229 -0.00255838 0.0493 
v 0.0108011 -0.00499714 0.0507204 
v 0.0112781 -0.00380004 0.0493 
v 0.0101975 -0.00613566 0.0507204 
v 0.0108011 -0.00499714 0.0493 
v 0.00947438 -0.00720224 0.0507204 
v 0.0101975 -0.00613566 0.0493 
v 0.00864014 -0.00818438 0.0507204 
v 0.00947438 -0.00720224 0.0493 
v 0.00770461 -0.00907057 0.0507204 
v 0.00864014 -0.00818438 0.0493 
v 0.00667874 -0.00985041 0.0507204 
v 0.00770461 -0.00907057 0.0493 
v 0.00557458 -0.0105148 0.0507204 
v 0.00667874 -0.00985041 0.0493 
v 0.00440505 -0.0110558 0.0507204 
v 0.00557458 -0.0105148 0.0493 
v 0.00318388 -0.0114673 0.0507204 
v 0.00440505 -0.0110558 0.0493 
v 0.00192538 -0.0117443 0.0507204 
v 0.00318388 -0.0114673 0.0493 
v 0.000644313 -0.0118836 0.0507204 
v 0.00192538 -0.0117443 0.0493 
v -0.000644313 -0.0118836 0.0507204 
v 0.000644313 -0.0118836 0.0493 
v -0.00192538 -0.0117443 0.0507204 
v -0.000644313 -0.0118836 0.0493 
v -0.00318388 -0.0114673 0.0507204 
v -0.00192538 -0.0117443 0.0493 
v -0.00440505 -0.0110558 0.0507204 
v -0.00318388 -0.0114673 0.0493 
v -0.00557458 -0.0105148 0.0507204 
v -0.00440505 -0.0110558 0.0493 
v -0.00667874 -0.00985041 0.0507204 
v -0.00557458 -0.0105148 0.0493 
v -0.00770461 -0.00907057 0.0507204 
v -0.00667874 -0.00985041 0.0493 
v -0.00864014 -0.00818438 0.0507204 
v -0.00770461 -0.00907057 0.0493 
v -0.00947438 -0.00720224 0.0507204 
v -0.00864014 -0.00818438 0.0493 
v -0.0101975 -0.00613566 0.0507204 
v -0.00947438 -0.00720224 0.0493 
v -0.0108011 -0.00499714 0.0507204 
v -0.0101975 -0.00613566 0.0493 
v -0.0112781 -0.00380004 0.0507204 
v -0.0108011 -0.00499714 0.0493 
v -0.0116229 -0.00255838 0.0507204 
v -0.0112781 -0.00380004 0.0493 
v -0.0118313 -0.00128674 0.0507204 
v -0.0116229 -0.00255838 0.0493 
v -0.0119011 4.03948e-18 0.0507204 
v -0.0118313 -0.00128674 0.0493 
v -0.0119011 4.03948e-18 0.0493 
vn -0.994138 0.108119 9.92184e-15 
vn -1 4.25663e-16 1e-14 
vn -1 4.25663e-16 1e-14 
vn -0.976621 0.21497 9.72735e-15 
vn -0.994138 0.108119 9.92184e-15 
vn -0.947653 0.319302 9.41882e-15 
vn -0.976621 0.21497 9.72735e-15 
vn -0.907575 0.419889 8.99987e-15 
vn -0.947653 0.319302 9.41882e-15 
vn -0.856857 0.515554 8.47539e-15 
vn -0.907575 0.419889 8.99987e-15 
vn -0.796093 0.605174 7.85156e-15 
vn -0.856857 0.515554 8.47539e-15 
vn -0.725995 0.687699 7.13566e-15 
vn -0.796093 0.605174 7.85156e-15 
vn -0.647386 0.762162 6.33611e-15 
vn -0.725995 0.687699 7.13566e-15 
vn -0.561187 0.827689 5.46228e-15 
vn -0.647386 0.762162 6.33611e-15 
vn -0.468408 0.883512 4.5244e-15 
vn -0.561187 0.827689 5.46228e-15 
vn -0.370138 0.928977 3.53348e-15 
vn -0.468408 0.883512 4.5244e-15 
vn -0.267528 0.96355 2.50114e-15 
vn -0.370138 0.928977 3.53348e-15 
vn -0.161782 0.986827 1.43947e-15 
vn -0.267528 0.96355 2.50114e-15 
vn -0.0541389 0.998533 3.60921e-16 
vn -0.161782 0.986827 1.43947e-15 
vn 0.0541389 0.998533 -7.21857e-16 
vn -0.0541389 0.998533 3.60921e-16 
vn 0.161782 0.986827 -1.79617e-15 
vn 0.0541389 0.998533 -7.21857e-16 
vn 0.267528 0.96355 -2.84943e-15 
vn 0.161782 0.986827 -1.79617e-15 
vn 0.370138 0.928977 -3.86928e-15 
vn 0.267528 0.96355 -2.84943e-15 
vn 0.468408 0.883512 -4.84376e-15 
vn 0.370138 0.928977 -3.86928e-15 
vn 0.561187 0.827689 -5.76146e-15 
vn 0.468408 0.883512 -4.84376e-15 
vn 0.647386 0.762162 -6.61161e-15 
vn 0.561187 0.827689 -5.76146e-15 
vn 0.725995 0.687699 -7.38425e-15 
vn 0.647386 0.762162 -6.61161e-15 
vn 0.796093 0.605174 -8.07031e-15 
vn 0.725995 0.687699 -7.38425e-15 
vn 0.856857 0.515554 -8.66175e-15 
vn 0.796093 0.605174 -8.07031e-15 
vn 0.907575 0.419889 -9.15164e-15 
vn 0.856857 0.515554 -8.66175e-15 
vn 0.947653 0.319302 -9.53424e-15 
vn 0.907575 0.419889 -9.15164e-15 
vn 0.976621 0.21497 -9.80506e-15 
vn 0.947653 0.319302 -9.53424e-15 
vn 0.994138 0.108119 -9.96092e-15 
vn 0.976621 0.21497 -9.80506e-15 
vn 1 -3.03198e-16 -1e-14 
vn 0.994138 0.108119 -9.96092e-15 
vn 1 -3.03198e-16 -1e-14 
f 413//413 414//414 415//415 
f 416//416 413//413 417//417 
f 418//418 416//416 419//419 
f 420//420 418//418 421//421 
f 422//422 420//420 423//423 
f 424//424 422//422 425//425 
f 426//426 424//424 427//427 
f 428//428 426//426 429//429 
f 430//430 428//428 431//431 
f 432//432 430//430 433//433 
f 434//434 432//432 435//435 
f 436//436 434//434 437//437 
f 438//438 436//436 439//439 
f 440//440 438//438 441//441 
f 442//442 440//440 443//443 
f 444//444 442//442 445//445 
f 446//446 444//444 447//447 
f 448//448 446//446 449//449 
f 450//450 448//448 451//451 
f 452//452 450//450 453//453 
f 454//454 452//452 455//455 
f 456//456 454//454 457//457 
f 458//458 456//456 459//459 
f 460//460 458//458 461//461 
f 462//462 460//460 463//463 
f 464//464 462//462 465//465 
f 466//466 464//464 467//467 
f 468//468 466//466 469//469 
f 470//470 468//468 471//471 
f 471//471 472//472 470//470 
f 469//469 471//471 468//468 
f 467//467 469//469 466//466 
f 465//465 467//467 464//464 
f 463//463 465//465 462//462 
f 461//461 463//463 460//460 
f 459//459 461//461 458//458 
f 457//457 459//459 456//456 
f 455//455 457//457 454//454 
f 453//453 455//455 452//452 
f 451//451 453//453 450//450 
f 449//449 451//451 448//448 
f 447//447 449//449 446//446 
f 445//445 447//447 444//444 
f 443//443 445//445 442//442 
f 441//441 443//443 440//440 
f 439//439 441//441 438//438 
f 437//437 439//439 436//436 
f 435//435 437//437 434//434 
f 433//433 435//435 432//432 
f 431//431 433//433 430//430 
f 429//429 431//431 428//428 
f 427//427 429//429 426//426 
f 425//425 427//427 424//424 
f 423//423 425//425 422//422 
f 421//421 423//423 420//420 
f 419//419 421//421 418//418 
f 417//417 419//419 416//416 
f 415//415 417//417 413//413 
