# OBJ generated by ONSHAPE BY PTC INC, 1.215 Units = meters
mtllib _8982K371_Multipurpose_6061_Aluminum_90_Degree_Angle.mtl
g 8982K371_Multipurpose 6061 Aluminum 90 Degree Angle
usemtl 0.752941_0.752941_0.752941_0.000000_0.000000
o mesh0
v -0.03175 -0.03175 -0.1524 
v -0.03175 -0.03175 -0.0762 
v -0.03175 -0.028575 -0.0762 
v -0.03175 -0.028575 -0.1524 
vn -1 -2.18548e-15 0 
vn -1 -2.18548e-15 0 
vn -1 -2.18548e-15 0 
vn -1 -2.18548e-15 0 
f 1//1 2//2 3//3 
f 3//3 4//4 1//1 
o mesh1
v 0.03175 -0.03175 -0.1524 
v 0.03175 -0.03175 -0.0762 
v -0.03175 -0.03175 -0.0762 
v -0.03175 -0.03175 -0.1524 
vn 1.09274e-16 -1 0 
vn 1.09274e-16 -1 0 
vn 1.09274e-16 -1 0 
vn 1.09274e-16 -1 0 
f 5//5 6//6 7//7 
f 7//7 8//8 5//5 
o mesh2
v 0.03175 0.03175 -0.1524 
v 0.03175 0.03175 -0.0762 
v 0.03175 -0.03175 -0.0762 
v 0.03175 -0.03175 -0.1524 
vn 1 1.09274e-16 0 
vn 1 1.09274e-16 0 
vn 1 1.09274e-16 0 
vn 1 1.09274e-16 0 
f 9//9 10//10 11//11 
f 11//11 12//12 9//9 
o mesh3
v 0.028575 0.03175 -0.1524 
v 0.028575 0.03175 -0.0762 
v 0.03175 0.03175 -0.0762 
v 0.03175 0.03175 -0.1524 
vn 0 1 0 
vn 0 1 0 
vn 0 1 0 
vn 0 1 0 
f 13//13 14//14 15//15 
f 15//15 16//16 13//13 
o mesh4
v 0.0254 0.028575 -0.1524 
v 0.0254 0.028575 -0.0762 
v 0.0254174 0.0289069 -0.0762 
v 0.0254174 0.0289069 -0.1524 
v 0.0254694 0.0292351 -0.0762 
v 0.0254694 0.0292351 -0.1524 
v 0.0255554 0.0295561 -0.0762 
v 0.0255554 0.0295561 -0.1524 
v 0.0256745 0.0298664 -0.0762 
v 0.0256745 0.0298664 -0.1524 
v 0.0258254 0.0301625 -0.0762 
v 0.0258254 0.0301625 -0.1524 
v 0.0260064 0.0304412 -0.0762 
v 0.0260064 0.0304412 -0.1524 
v 0.0262155 0.0306995 -0.0762 
v 0.0262155 0.0306995 -0.1524 
v 0.0264505 0.0309345 -0.0762 
v 0.0264505 0.0309345 -0.1524 
v 0.0267088 0.0311436 -0.0762 
v 0.0267088 0.0311436 -0.1524 
v 0.0269875 0.0313246 -0.0762 
v 0.0269875 0.0313246 -0.1524 
v 0.0272836 0.0314755 -0.0762 
v 0.0272836 0.0314755 -0.1524 
v 0.0275939 0.0315946 -0.0762 
v 0.0275939 0.0315946 -0.1524 
v 0.0279149 0.0316806 -0.0762 
v 0.0279149 0.0316806 -0.1524 
v 0.0282431 0.0317326 -0.0762 
v 0.0282431 0.0317326 -0.1524 
v 0.028575 0.03175 -0.0762 
v 0.028575 0.03175 -0.1524 
vn -1 0 0 
vn -1 0 0 
vn -0.994522 0.104528 0 
vn -0.994522 0.104528 0 
vn -0.978148 0.207912 0 
vn -0.978148 0.207912 0 
vn -0.951057 0.309017 0 
vn -0.951057 0.309017 0 
vn -0.913545 0.406737 0 
vn -0.913545 0.406737 0 
vn -0.866025 0.5 0 
vn -0.866025 0.5 0 
vn -0.809017 0.587785 0 
vn -0.809017 0.587785 0 
vn -0.743145 0.669131 0 
vn -0.743145 0.669131 0 
vn -0.669131 0.743145 0 
vn -0.669131 0.743145 0 
vn -0.587785 0.809017 0 
vn -0.587785 0.809017 0 
vn -0.5 0.866025 0 
vn -0.5 0.866025 0 
vn -0.406737 0.913545 0 
vn -0.406737 0.913545 0 
vn -0.309017 0.951057 0 
vn -0.309017 0.951057 0 
vn -0.207912 0.978148 0 
vn -0.207912 0.978148 0 
vn -0.104528 0.994522 0 
vn -0.104528 0.994522 0 
vn -6.12323e-17 1 0 
vn -6.12323e-17 1 0 
f 17//17 18//18 19//19 
f 20//20 19//19 21//21 
f 22//22 21//21 23//23 
f 24//24 23//23 25//25 
f 26//26 25//25 27//27 
f 28//28 27//27 29//29 
f 30//30 29//29 31//31 
f 32//32 31//31 33//33 
f 34//34 33//33 35//35 
f 36//36 35//35 37//37 
f 38//38 37//37 39//39 
f 40//40 39//39 41//41 
f 42//42 41//41 43//43 
f 44//44 43//43 45//45 
f 46//46 45//45 47//47 
f 47//47 48//48 46//46 
f 45//45 46//46 44//44 
f 43//43 44//44 42//42 
f 41//41 42//42 40//40 
f 39//39 40//40 38//38 
f 37//37 38//38 36//36 
f 35//35 36//36 34//34 
f 33//33 34//34 32//32 
f 31//31 32//32 30//30 
f 29//29 30//30 28//28 
f 27//27 28//28 26//26 
f 25//25 26//26 24//24 
f 23//23 24//24 22//22 
f 21//21 22//22 20//20 
f 19//19 20//20 17//17 
o mesh5
v 0.0254 -0.01905 -0.1524 
v 0.0254 -0.01905 -0.0762 
v 0.0254 0.028575 -0.0762 
v 0.0254 0.028575 -0.1524 
vn -1 -1.45699e-16 0 
vn -1 -1.45699e-16 0 
vn -1 -1.45699e-16 0 
vn -1 -1.45699e-16 0 
f 49//49 50//50 51//51 
f 51//51 52//52 49//49 
o mesh6
v 0.0254 0.028575 -0.1524 
v 0.0267088 0.0311436 -0.1524 
v 0.0269875 0.0313246 -0.1524 
v 0.0260064 0.0304412 -0.1524 
v 0.0255554 0.0295561 -0.1524 
v 0.0256745 0.0298664 -0.1524 
v 0.0275939 0.0315946 -0.1524 
v 0.0279149 0.0316806 -0.1524 
v 0.0264505 0.0309345 -0.1524 
v 0.0262155 0.0306995 -0.1524 
v 0.0254694 0.0292351 -0.1524 
v 0.0254174 0.0289069 -0.1524 
v 0.0282431 0.0317326 -0.1524 
v -0.0313246 -0.0269875 -0.1524 
v -0.0306995 -0.0262155 -0.1524 
v -0.0304412 -0.0260064 -0.1524 
v -0.0311436 -0.0267088 -0.1524 
v 0.0272836 0.0314755 -0.1524 
v 0.0258254 0.0301625 -0.1524 
v -0.0295561 -0.0255554 -0.1524 
v -0.0292351 -0.0254694 -0.1524 
v -0.0301625 -0.0258254 -0.1524 
v -0.0298664 -0.0256745 -0.1524 
v -0.0309345 -0.0264505 -0.1524 
v -0.0289069 -0.0254174 -0.1524 
v 0.028575 0.03175 -0.1524 
v 0.03175 0.03175 -0.1524 
v 0.03175 -0.03175 -0.1524 
v 0.0254 -0.01905 -0.1524 
v -0.028575 -0.0254 -0.1524 
v -0.0315946 -0.0275939 -0.1524 
v -0.0314755 -0.0272836 -0.1524 
v -0.0317326 -0.0282431 -0.1524 
v -0.0316806 -0.0279149 -0.1524 
v -0.03175 -0.028575 -0.1524 
v 0.0253652 -0.0197138 -0.1524 
v 0.01905 -0.0254 -0.1524 
v 0.0252612 -0.0203702 -0.1524 
v 0.024851 -0.0216328 -0.1524 
v 0.0250892 -0.0210123 -0.1524 
v 0.0241873 -0.0227824 -0.1524 
v 0.0245493 -0.022225 -0.1524 
v 0.023299 -0.023769 -0.1524 
v 0.023769 -0.023299 -0.1524 
v 0.0216328 -0.024851 -0.1524 
v 0.022225 -0.0245493 -0.1524 
v 0.0227824 -0.0241873 -0.1524 
v -0.03175 -0.03175 -0.1524 
v 0.0210123 -0.0250892 -0.1524 
v 0.0197138 -0.0253652 -0.1524 
v 0.0203702 -0.0252612 -0.1524 
vn 0 0 -1 
vn 0 0 -1 
vn 0 0 -1 
vn 0 0 -1 
vn 0 0 -1 
vn 0 0 -1 
vn 0 0 -1 
vn 0 0 -1 
vn 0 0 -1 
vn 0 0 -1 
vn 0 0 -1 
vn 0 0 -1 
vn 0 0 -1 
vn 0 0 -1 
vn 0 0 -1 
vn 0 0 -1 
vn 0 0 -1 
vn 0 0 -1 
vn 0 0 -1 
vn 0 0 -1 
vn 0 0 -1 
vn 0 0 -1 
vn 0 0 -1 
vn 0 0 -1 
vn 0 0 -1 
vn 0 0 -1 
vn 0 0 -1 
vn 0 0 -1 
vn 0 0 -1 
vn 0 0 -1 
vn 0 0 -1 
vn 0 0 -1 
vn 0 0 -1 
vn 0 0 -1 
vn 0 0 -1 
vn 0 0 -1 
vn 0 0 -1 
vn 0 0 -1 
vn 0 0 -1 
vn 0 0 -1 
vn 0 0 -1 
vn 0 0 -1 
vn 0 0 -1 
vn 0 0 -1 
vn 0 0 -1 
vn 0 0 -1 
vn 0 0 -1 
vn 0 0 -1 
vn 0 0 -1 
vn 0 0 -1 
vn 0 0 -1 
f 53//53 54//54 55//55 
f 56//56 57//57 58//58 
f 53//53 59//59 60//60 
f 53//53 61//61 54//54 
f 53//53 56//56 62//62 
f 56//56 63//63 57//57 
f 56//56 53//53 64//64 
f 60//60 65//65 53//53 
f 62//62 61//61 53//53 
f 64//64 63//63 56//56 
f 66//66 67//67 68//68 
f 67//67 66//66 69//69 
f 53//53 70//70 59//59 
f 58//58 71//71 56//56 
f 66//66 72//72 73//73 
f 66//66 74//74 75//75 
f 69//69 76//76 67//67 
f 55//55 70//70 53//53 
f 73//73 77//77 66//66 
f 68//68 74//74 66//66 
f 65//65 78//78 53//53 
f 79//79 80//80 81//81 
f 75//75 72//72 66//66 
f 82//82 83//83 84//84 
f 82//82 85//85 86//86 
f 81//81 53//53 79//79 
f 84//84 66//66 82//82 
f 82//82 87//87 85//85 
f 80//80 88//88 81//81 
f 87//87 82//82 89//89 
f 86//86 83//83 82//82 
f 80//80 90//90 88//88 
f 80//80 91//91 92//92 
f 80//80 93//93 94//94 
f 80//80 95//95 96//96 
f 80//80 97//97 98//98 
f 77//77 82//82 66//66 
f 92//92 90//90 80//80 
f 96//96 93//93 80//80 
f 98//98 99//99 80//80 
f 80//80 100//100 87//87 
f 94//94 91//91 80//80 
f 80//80 101//101 97//97 
f 80//80 102//102 103//103 
f 89//89 80//80 87//87 
f 99//99 95//95 80//80 
f 89//89 102//102 80//80 
f 103//103 101//101 80//80 
f 78//78 79//79 53//53 
o mesh7
v -0.0304412 -0.0260064 -0.0762 
v -0.0295561 -0.0255554 -0.0762 
v -0.0298664 -0.0256745 -0.0762 
v -0.0301625 -0.0258254 -0.0762 
v 0.0260064 0.0304412 -0.0762 
v 0.0258254 0.0301625 -0.0762 
v 0.0256745 0.0298664 -0.0762 
v 0.0254 0.028575 -0.0762 
v 0.0272836 0.0314755 -0.0762 
v 0.0269875 0.0313246 -0.0762 
v -0.0306995 -0.0262155 -0.0762 
v -0.0292351 -0.0254694 -0.0762 
v -0.028575 -0.0254 -0.0762 
v -0.0289069 -0.0254174 -0.0762 
v 0.0254694 0.0292351 -0.0762 
v 0.0254174 0.0289069 -0.0762 
v 0.0255554 0.0295561 -0.0762 
v 0.0264505 0.0309345 -0.0762 
v 0.0262155 0.0306995 -0.0762 
v 0.0267088 0.0311436 -0.0762 
v 0.0282431 0.0317326 -0.0762 
v 0.0279149 0.0316806 -0.0762 
v -0.0315946 -0.0275939 -0.0762 
v -0.0316806 -0.0279149 -0.0762 
v -0.0309345 -0.0264505 -0.0762 
v 0.028575 0.03175 -0.0762 
v -0.0317326 -0.0282431 -0.0762 
v -0.0311436 -0.0267088 -0.0762 
v -0.0313246 -0.0269875 -0.0762 
v 0.0275939 0.0315946 -0.0762 
v -0.0314755 -0.0272836 -0.0762 
v 0.0254 -0.01905 -0.0762 
v -0.03175 -0.028575 -0.0762 
v -0.03175 -0.03175 -0.0762 
v 0.03175 -0.03175 -0.0762 
v 0.01905 -0.0254 -0.0762 
v 0.0241873 -0.0227824 -0.0762 
v 0.023769 -0.023299 -0.0762 
v 0.03175 0.03175 -0.0762 
v 0.0245493 -0.022225 -0.0762 
v 0.0197138 -0.0253652 -0.0762 
v 0.022225 -0.0245493 -0.0762 
v 0.0216328 -0.024851 -0.0762 
v 0.023299 -0.023769 -0.0762 
v 0.0227824 -0.0241873 -0.0762 
v 0.024851 -0.0216328 -0.0762 
v 0.0252612 -0.0203702 -0.0762 
v 0.0250892 -0.0210123 -0.0762 
v 0.0253652 -0.0197138 -0.0762 
v 0.0203702 -0.0252612 -0.0762 
v 0.0210123 -0.0250892 -0.0762 
vn 0 0 1 
vn 0 0 1 
vn 0 0 1 
vn 0 0 1 
vn 0 0 1 
vn 0 0 1 
vn 0 0 1 
vn 0 0 1 
vn 0 0 1 
vn 0 0 1 
vn 0 0 1 
vn 0 0 1 
vn 0 0 1 
vn 0 0 1 
vn 0 0 1 
vn 0 0 1 
vn 0 0 1 
vn 0 0 1 
vn 0 0 1 
vn 0 0 1 
vn 0 0 1 
vn 0 0 1 
vn 0 0 1 
vn 0 0 1 
vn 0 0 1 
vn 0 0 1 
vn 0 0 1 
vn 0 0 1 
vn 0 0 1 
vn 0 0 1 
vn 0 0 1 
vn 0 0 1 
vn 0 0 1 
vn 0 0 1 
vn 0 0 1 
vn 0 0 1 
vn 0 0 1 
vn 0 0 1 
vn 0 0 1 
vn 0 0 1 
vn 0 0 1 
vn 0 0 1 
vn 0 0 1 
vn 0 0 1 
vn 0 0 1 
vn 0 0 1 
vn 0 0 1 
vn 0 0 1 
vn 0 0 1 
vn 0 0 1 
vn 0 0 1 
f 104//104 105//105 106//106 
f 106//106 107//107 104//104 
f 108//108 109//109 110//110 
f 111//111 112//112 113//113 
f 114//114 115//115 105//105 
f 114//114 116//116 117//117 
f 108//108 118//118 119//119 
f 110//110 120//120 108//108 
f 111//111 121//121 122//122 
f 113//113 123//123 111//111 
f 111//111 124//124 125//125 
f 116//116 126//126 127//127 
f 116//116 114//114 128//128 
f 117//117 115//115 114//114 
f 120//120 118//118 108//108 
f 123//123 121//121 111//111 
f 111//111 129//129 124//124 
f 127//127 130//130 116//116 
f 116//116 131//131 132//132 
f 104//104 114//114 105//105 
f 122//122 108//108 111//111 
f 125//125 133//133 111//111 
f 116//116 134//134 126//126 
f 128//128 131//131 116//116 
f 129//129 111//111 135//135 
f 133//133 112//112 111//111 
f 132//132 134//134 116//116 
f 119//119 111//111 108//108 
f 130//130 136//136 116//116 
f 137//137 138//138 139//139 
f 138//138 140//140 141//141 
f 138//138 142//142 129//129 
f 139//139 116//116 137//137 
f 138//138 143//143 140//140 
f 135//135 138//138 129//129 
f 138//138 144//144 139//139 
f 138//138 145//145 146//146 
f 138//138 147//147 148//148 
f 138//138 149//149 143//143 
f 138//138 150//150 151//151 
f 135//135 152//152 138//138 
f 138//138 153//153 144//144 
f 146//146 154//154 138//138 
f 141//141 147//147 138//138 
f 152//152 150//150 138//138 
f 154//154 153//153 138//138 
f 151//151 149//149 138//138 
f 148//148 145//145 138//138 
f 136//136 137//137 116//116 
o mesh8
v 0.0197138 -0.0253652 -0.1524 
v 0.01905 -0.0254 -0.1524 
v 0.01905 -0.0254 -0.0762 
v 0.0203702 -0.0252612 -0.1524 
v 0.0197138 -0.0253652 -0.0762 
v 0.0210123 -0.0250892 -0.1524 
v 0.0203702 -0.0252612 -0.0762 
v 0.0216328 -0.024851 -0.1524 
v 0.0210123 -0.0250892 -0.0762 
v 0.022225 -0.0245493 -0.1524 
v 0.0216328 -0.024851 -0.0762 
v 0.0227824 -0.0241873 -0.1524 
v 0.022225 -0.0245493 -0.0762 
v 0.023299 -0.023769 -0.1524 
v 0.0227824 -0.0241873 -0.0762 
v 0.023769 -0.023299 -0.1524 
v 0.023299 -0.023769 -0.0762 
v 0.0241873 -0.0227824 -0.1524 
v 0.023769 -0.023299 -0.0762 
v 0.0245493 -0.022225 -0.1524 
v 0.0241873 -0.0227824 -0.0762 
v 0.024851 -0.0216328 -0.1524 
v 0.0245493 -0.022225 -0.0762 
v 0.0250892 -0.0210123 -0.1524 
v 0.024851 -0.0216328 -0.0762 
v 0.0252612 -0.0203702 -0.1524 
v 0.0250892 -0.0210123 -0.0762 
v 0.0253652 -0.0197138 -0.1524 
v 0.0252612 -0.0203702 -0.0762 
v 0.0254 -0.01905 -0.1524 
v 0.0253652 -0.0197138 -0.0762 
v 0.0254 -0.01905 -0.0762 
vn -0.104528 0.994522 0 
vn -1.83697e-16 1 0 
vn -1.83697e-16 1 0 
vn -0.207912 0.978148 0 
vn -0.104528 0.994522 0 
vn -0.309017 0.951057 0 
vn -0.207912 0.978148 0 
vn -0.406737 0.913545 0 
vn -0.309017 0.951057 0 
vn -0.5 0.866025 0 
vn -0.406737 0.913545 0 
vn -0.587785 0.809017 0 
vn -0.5 0.866025 0 
vn -0.669131 0.743145 0 
vn -0.587785 0.809017 0 
vn -0.743145 0.669131 0 
vn -0.669131 0.743145 0 
vn -0.809017 0.587785 0 
vn -0.743145 0.669131 0 
vn -0.866025 0.5 0 
vn -0.809017 0.587785 0 
vn -0.913545 0.406737 0 
vn -0.866025 0.5 0 
vn -0.951057 0.309017 0 
vn -0.913545 0.406737 0 
vn -0.978148 0.207912 0 
vn -0.951057 0.309017 0 
vn -0.994522 0.104528 0 
vn -0.978148 0.207912 0 
vn -1 -1.22465e-16 0 
vn -0.994522 0.104528 0 
vn -1 -1.22465e-16 0 
f 155//155 156//156 157//157 
f 158//158 155//155 159//159 
f 160//160 158//158 161//161 
f 162//162 160//160 163//163 
f 164//164 162//162 165//165 
f 166//166 164//164 167//167 
f 168//168 166//166 169//169 
f 170//170 168//168 171//171 
f 172//172 170//170 173//173 
f 174//174 172//172 175//175 
f 176//176 174//174 177//177 
f 178//178 176//176 179//179 
f 180//180 178//178 181//181 
f 182//182 180//180 183//183 
f 184//184 182//182 185//185 
f 185//185 186//186 184//184 
f 183//183 185//185 182//182 
f 181//181 183//183 180//180 
f 179//179 181//181 178//178 
f 177//177 179//179 176//176 
f 175//175 177//177 174//174 
f 173//173 175//175 172//172 
f 171//171 173//173 170//170 
f 169//169 171//171 168//168 
f 167//167 169//169 166//166 
f 165//165 167//167 164//164 
f 163//163 165//165 162//162 
f 161//161 163//163 160//160 
f 159//159 161//161 158//158 
f 157//157 159//159 155//155 
o mesh9
v -0.028575 -0.0254 -0.1524 
v -0.028575 -0.0254 -0.0762 
v 0.01905 -0.0254 -0.0762 
v 0.01905 -0.0254 -0.1524 
vn -1.45699e-16 1 0 
vn -1.45699e-16 1 0 
vn -1.45699e-16 1 0 
vn -1.45699e-16 1 0 
f 187//187 188//188 189//189 
f 189//189 190//190 187//187 
o mesh10
v -0.03175 -0.028575 -0.1524 
v -0.03175 -0.028575 -0.0762 
v -0.0317326 -0.0282431 -0.0762 
v -0.0317326 -0.0282431 -0.1524 
v -0.0316806 -0.0279149 -0.0762 
v -0.0316806 -0.0279149 -0.1524 
v -0.0315946 -0.0275939 -0.0762 
v -0.0315946 -0.0275939 -0.1524 
v -0.0314755 -0.0272836 -0.0762 
v -0.0314755 -0.0272836 -0.1524 
v -0.0313246 -0.0269875 -0.0762 
v -0.0313246 -0.0269875 -0.1524 
v -0.0311436 -0.0267088 -0.0762 
v -0.0311436 -0.0267088 -0.1524 
v -0.0309345 -0.0264505 -0.0762 
v -0.0309345 -0.0264505 -0.1524 
v -0.0306995 -0.0262155 -0.0762 
v -0.0306995 -0.0262155 -0.1524 
v -0.0304412 -0.0260064 -0.0762 
v -0.0304412 -0.0260064 -0.1524 
v -0.0301625 -0.0258254 -0.0762 
v -0.0301625 -0.0258254 -0.1524 
v -0.0298664 -0.0256745 -0.0762 
v -0.0298664 -0.0256745 -0.1524 
v -0.0295561 -0.0255554 -0.0762 
v -0.0295561 -0.0255554 -0.1524 
v -0.0292351 -0.0254694 -0.0762 
v -0.0292351 -0.0254694 -0.1524 
v -0.0289069 -0.0254174 -0.0762 
v -0.0289069 -0.0254174 -0.1524 
v -0.028575 -0.0254 -0.0762 
v -0.028575 -0.0254 -0.1524 
vn -1 0 0 
vn -1 0 0 
vn -0.994522 0.104528 0 
vn -0.994522 0.104528 0 
vn -0.978148 0.207912 0 
vn -0.978148 0.207912 0 
vn -0.951057 0.309017 0 
vn -0.951057 0.309017 0 
vn -0.913545 0.406737 0 
vn -0.913545 0.406737 0 
vn -0.866025 0.5 0 
vn -0.866025 0.5 0 
vn -0.809017 0.587785 0 
vn -0.809017 0.587785 0 
vn -0.743145 0.669131 0 
vn -0.743145 0.669131 0 
vn -0.669131 0.743145 0 
vn -0.669131 0.743145 0 
vn -0.587785 0.809017 0 
vn -0.587785 0.809017 0 
vn -0.5 0.866025 0 
vn -0.5 0.866025 0 
vn -0.406737 0.913545 0 
vn -0.406737 0.913545 0 
vn -0.309017 0.951057 0 
vn -0.309017 0.951057 0 
vn -0.207912 0.978148 0 
vn -0.207912 0.978148 0 
vn -0.104528 0.994522 0 
vn -0.104528 0.994522 0 
vn -6.12323e-17 1 0 
vn -6.12323e-17 1 0 
f 191//191 192//192 193//193 
f 194//194 193//193 195//195 
f 196//196 195//195 197//197 
f 198//198 197//197 199//199 
f 200//200 199//199 201//201 
f 202//202 201//201 203//203 
f 204//204 203//203 205//205 
f 206//206 205//205 207//207 
f 208//208 207//207 209//209 
f 210//210 209//209 211//211 
f 212//212 211//211 213//213 
f 214//214 213//213 215//215 
f 216//216 215//215 217//217 
f 218//218 217//217 219//219 
f 220//220 219//219 221//221 
f 221//221 222//222 220//220 
f 219//219 220//220 218//218 
f 217//217 218//218 216//216 
f 215//215 216//216 214//214 
f 213//213 214//214 212//212 
f 211//211 212//212 210//210 
f 209//209 210//210 208//208 
f 207//207 208//208 206//206 
f 205//205 206//206 204//204 
f 203//203 204//204 202//202 
f 201//201 202//202 200//200 
f 199//199 200//200 198//198 
f 197//197 198//198 196//196 
f 195//195 196//196 194//194 
f 193//193 194//194 191//191 
