# OBJ generated by ONSHAPE BY PTC INC, 1.215 Units = meters
mtllib _90131A627_Abrasion_Resistant_Cushioning_Washer_1.mtl
g 90131A627_Abrasion-Resistant Cushioning Washer
usemtl 0.752941_0.752941_0.752941_0.000000_0.000000
o mesh4282
v -0.0079375 0 -0.0007874 
v -0.0079375 0 -1.9685e-05 
v -0.00789097 0.000858195 -1.9685e-05 
v -0.00789097 0.000858195 -0.0007874 
v -0.00775193 0.00170633 -1.9685e-05 
v -0.00775193 0.00170633 -0.0007874 
v -0.007522 0.00253446 -1.9685e-05 
v -0.007522 0.00253446 -0.0007874 
v -0.00720388 0.00333287 -1.9685e-05 
v -0.00720388 0.00333287 -0.0007874 
v -0.0068013 0.00409221 -1.9685e-05 
v -0.0068013 0.00409221 -0.0007874 
v -0.00631899 0.00480357 -1.9685e-05 
v -0.00631899 0.00480357 -0.0007874 
v -0.00576259 0.00545861 -1.9685e-05 
v -0.00576259 0.00545861 -0.0007874 
v -0.00513863 0.00604966 -1.9685e-05 
v -0.00513863 0.00604966 -0.0007874 
v -0.00445442 0.00656978 -1.9685e-05 
v -0.00445442 0.00656978 -0.0007874 
v -0.00371799 0.00701288 -1.9685e-05 
v -0.00371799 0.00701288 -0.0007874 
v -0.00293797 0.00737375 -1.9685e-05 
v -0.00293797 0.00737375 -0.0007874 
v -0.00212351 0.00764818 -1.9685e-05 
v -0.00212351 0.00764818 -0.0007874 
v -0.00128414 0.00783294 -1.9685e-05 
v -0.00128414 0.00783294 -0.0007874 
v -0.000429728 0.00792586 -1.9685e-05 
v -0.000429728 0.00792586 -0.0007874 
v 0.000429728 0.00792586 -1.9685e-05 
v 0.000429728 0.00792586 -0.0007874 
v 0.00128414 0.00783294 -1.9685e-05 
v 0.00128414 0.00783294 -0.0007874 
v 0.00212351 0.00764818 -1.9685e-05 
v 0.00212351 0.00764818 -0.0007874 
v 0.00293797 0.00737375 -1.9685e-05 
v 0.00293797 0.00737375 -0.0007874 
v 0.00371799 0.00701288 -1.9685e-05 
v 0.00371799 0.00701288 -0.0007874 
v 0.00445442 0.00656978 -1.9685e-05 
v 0.00445442 0.00656978 -0.0007874 
v 0.00513863 0.00604966 -1.9685e-05 
v 0.00513863 0.00604966 -0.0007874 
v 0.00576259 0.00545861 -1.9685e-05 
v 0.00576259 0.00545861 -0.0007874 
v 0.00631899 0.00480357 -1.9685e-05 
v 0.00631899 0.00480357 -0.0007874 
v 0.0068013 0.00409221 -1.9685e-05 
v 0.0068013 0.00409221 -0.0007874 
v 0.00720388 0.00333287 -1.9685e-05 
v 0.00720388 0.00333287 -0.0007874 
v 0.007522 0.00253446 -1.9685e-05 
v 0.007522 0.00253446 -0.0007874 
v 0.00775193 0.00170633 -1.9685e-05 
v 0.00775193 0.00170633 -0.0007874 
v 0.00789097 0.000858195 -1.9685e-05 
v 0.00789097 0.000858195 -0.0007874 
v 0.0079375 2.91619e-18 -1.9685e-05 
v 0.0079375 9.72063e-19 -0.0007874 
v 0.00789097 -0.000858195 -1.9685e-05 
v 0.00789097 -0.000858195 -0.0007874 
v 0.00775193 -0.00170633 -1.9685e-05 
v 0.00775193 -0.00170633 -0.0007874 
v 0.007522 -0.00253446 -1.9685e-05 
v 0.007522 -0.00253446 -0.0007874 
v 0.00720388 -0.00333287 -1.9685e-05 
v 0.00720388 -0.00333287 -0.0007874 
v 0.0068013 -0.00409221 -1.9685e-05 
v 0.0068013 -0.00409221 -0.0007874 
v 0.00631899 -0.00480357 -1.9685e-05 
v 0.00631899 -0.00480357 -0.0007874 
v 0.00576259 -0.00545861 -1.9685e-05 
v 0.00576259 -0.00545861 -0.0007874 
v 0.00513863 -0.00604966 -1.9685e-05 
v 0.00513863 -0.00604966 -0.0007874 
v 0.00445442 -0.00656978 -1.9685e-05 
v 0.00445442 -0.00656978 -0.0007874 
v 0.00371799 -0.00701288 -1.9685e-05 
v 0.00371799 -0.00701288 -0.0007874 
v 0.00293797 -0.00737375 -1.9685e-05 
v 0.00293797 -0.00737375 -0.0007874 
v 0.00212351 -0.00764818 -1.9685e-05 
v 0.00212351 -0.00764818 -0.0007874 
v 0.00128414 -0.00783294 -1.9685e-05 
v 0.00128414 -0.00783294 -0.0007874 
v 0.000429728 -0.00792586 -1.9685e-05 
v 0.000429728 -0.00792586 -0.0007874 
v -0.000429728 -0.00792586 -1.9685e-05 
v -0.000429728 -0.00792586 -0.0007874 
v -0.00128414 -0.00783294 -1.9685e-05 
v -0.00128414 -0.00783294 -0.0007874 
v -0.00212351 -0.00764818 -1.9685e-05 
v -0.00212351 -0.00764818 -0.0007874 
v -0.00293797 -0.00737375 -1.9685e-05 
v -0.00293797 -0.00737375 -0.0007874 
v -0.00371799 -0.00701288 -1.9685e-05 
v -0.00371799 -0.00701288 -0.0007874 
v -0.00445442 -0.00656978 -1.9685e-05 
v -0.00445442 -0.00656978 -0.0007874 
v -0.00513863 -0.00604966 -1.9685e-05 
v -0.00513863 -0.00604966 -0.0007874 
v -0.00576259 -0.00545861 -1.9685e-05 
v -0.00576259 -0.00545861 -0.0007874 
v -0.00631899 -0.00480357 -1.9685e-05 
v -0.00631899 -0.00480357 -0.0007874 
v -0.0068013 -0.00409221 -1.9685e-05 
v -0.0068013 -0.00409221 -0.0007874 
v -0.00720388 -0.00333287 -1.9685e-05 
v -0.00720388 -0.00333287 -0.0007874 
v -0.007522 -0.00253446 -1.9685e-05 
v -0.007522 -0.00253446 -0.0007874 
v -0.00775193 -0.00170633 -1.9685e-05 
v -0.00775193 -0.00170633 -0.0007874 
v -0.00789097 -0.000858195 -1.9685e-05 
v -0.00789097 -0.000858195 -0.0007874 
vn -1 0 0 
vn -1 0 0 
vn -0.994138 0.108119 0 
vn -0.994138 0.108119 0 
vn -0.976621 0.21497 0 
vn -0.976621 0.21497 0 
vn -0.947653 0.319302 0 
vn -0.947653 0.319302 0 
vn -0.907575 0.419889 0 
vn -0.907575 0.419889 0 
vn -0.856857 0.515554 0 
vn -0.856857 0.515554 0 
vn -0.796093 0.605174 0 
vn -0.796093 0.605174 0 
vn -0.725995 0.687699 0 
vn -0.725995 0.687699 0 
vn -0.647386 0.762162 0 
vn -0.647386 0.762162 0 
vn -0.561187 0.827689 0 
vn -0.561187 0.827689 0 
vn -0.468408 0.883512 0 
vn -0.468408 0.883512 0 
vn -0.370138 0.928977 0 
vn -0.370138 0.928977 0 
vn -0.267528 0.96355 0 
vn -0.267528 0.96355 0 
vn -0.161782 0.986827 0 
vn -0.161782 0.986827 0 
vn -0.0541389 0.998533 0 
vn -0.0541389 0.998533 0 
vn 0.0541389 0.998533 0 
vn 0.0541389 0.998533 0 
vn 0.161782 0.986827 0 
vn 0.161782 0.986827 0 
vn 0.267528 0.96355 0 
vn 0.267528 0.96355 0 
vn 0.370138 0.928977 0 
vn 0.370138 0.928977 0 
vn 0.468408 0.883512 0 
vn 0.468408 0.883512 0 
vn 0.561187 0.827689 0 
vn 0.561187 0.827689 0 
vn 0.647386 0.762162 0 
vn 0.647386 0.762162 0 
vn 0.725995 0.687699 0 
vn 0.725995 0.687699 0 
vn 0.796093 0.605174 0 
vn 0.796093 0.605174 0 
vn 0.856857 0.515554 0 
vn 0.856857 0.515554 0 
vn 0.907575 0.419889 0 
vn 0.907575 0.419889 0 
vn 0.947653 0.319302 0 
vn 0.947653 0.319302 0 
vn 0.976621 0.21497 0 
vn 0.976621 0.21497 0 
vn 0.994138 0.108119 0 
vn 0.994138 0.108119 0 
vn 1 1.22465e-16 0 
vn 1 1.22465e-16 0 
vn 0.994138 -0.108119 0 
vn 0.994138 -0.108119 0 
vn 0.976621 -0.21497 0 
vn 0.976621 -0.21497 0 
vn 0.947653 -0.319302 0 
vn 0.947653 -0.319302 0 
vn 0.907575 -0.419889 0 
vn 0.907575 -0.419889 0 
vn 0.856857 -0.515554 0 
vn 0.856857 -0.515554 0 
vn 0.796093 -0.605174 0 
vn 0.796093 -0.605174 0 
vn 0.725995 -0.687699 0 
vn 0.725995 -0.687699 0 
vn 0.647386 -0.762162 0 
vn 0.647386 -0.762162 0 
vn 0.561187 -0.827689 0 
vn 0.561187 -0.827689 0 
vn 0.468408 -0.883512 0 
vn 0.468408 -0.883512 0 
vn 0.370138 -0.928977 0 
vn 0.370138 -0.928977 0 
vn 0.267528 -0.96355 0 
vn 0.267528 -0.96355 0 
vn 0.161782 -0.986827 0 
vn 0.161782 -0.986827 0 
vn 0.0541389 -0.998533 0 
vn 0.0541389 -0.998533 0 
vn -0.0541389 -0.998533 0 
vn -0.0541389 -0.998533 0 
vn -0.161782 -0.986827 0 
vn -0.161782 -0.986827 0 
vn -0.267528 -0.96355 0 
vn -0.267528 -0.96355 0 
vn -0.370138 -0.928977 0 
vn -0.370138 -0.928977 0 
vn -0.468408 -0.883512 0 
vn -0.468408 -0.883512 0 
vn -0.561187 -0.827689 0 
vn -0.561187 -0.827689 0 
vn -0.647386 -0.762162 0 
vn -0.647386 -0.762162 0 
vn -0.725995 -0.687699 0 
vn -0.725995 -0.687699 0 
vn -0.796093 -0.605174 0 
vn -0.796093 -0.605174 0 
vn -0.856857 -0.515554 0 
vn -0.856857 -0.515554 0 
vn -0.907575 -0.419889 0 
vn -0.907575 -0.419889 0 
vn -0.947653 -0.319302 0 
vn -0.947653 -0.319302 0 
vn -0.976621 -0.21497 0 
vn -0.976621 -0.21497 0 
vn -0.994138 -0.108119 0 
vn -0.994138 -0.108119 0 
f 1//1 2//2 3//3 
f 4//4 3//3 5//5 
f 6//6 5//5 7//7 
f 8//8 7//7 9//9 
f 10//10 9//9 11//11 
f 12//12 11//11 13//13 
f 14//14 13//13 15//15 
f 16//16 15//15 17//17 
f 18//18 17//17 19//19 
f 20//20 19//19 21//21 
f 22//22 21//21 23//23 
f 24//24 23//23 25//25 
f 26//26 25//25 27//27 
f 28//28 27//27 29//29 
f 30//30 29//29 31//31 
f 32//32 31//31 33//33 
f 34//34 33//33 35//35 
f 36//36 35//35 37//37 
f 38//38 37//37 39//39 
f 40//40 39//39 41//41 
f 42//42 41//41 43//43 
f 44//44 43//43 45//45 
f 46//46 45//45 47//47 
f 48//48 47//47 49//49 
f 50//50 49//49 51//51 
f 52//52 51//51 53//53 
f 54//54 53//53 55//55 
f 56//56 55//55 57//57 
f 58//58 57//57 59//59 
f 60//60 59//59 61//61 
f 62//62 61//61 63//63 
f 64//64 63//63 65//65 
f 66//66 65//65 67//67 
f 68//68 67//67 69//69 
f 70//70 69//69 71//71 
f 72//72 71//71 73//73 
f 74//74 73//73 75//75 
f 76//76 75//75 77//77 
f 78//78 77//77 79//79 
f 80//80 79//79 81//81 
f 82//82 81//81 83//83 
f 84//84 83//83 85//85 
f 86//86 85//85 87//87 
f 88//88 87//87 89//89 
f 90//90 89//89 91//91 
f 92//92 91//91 93//93 
f 94//94 93//93 95//95 
f 96//96 95//95 97//97 
f 98//98 97//97 99//99 
f 100//100 99//99 101//101 
f 102//102 101//101 103//103 
f 104//104 103//103 105//105 
f 106//106 105//105 107//107 
f 108//108 107//107 109//109 
f 110//110 109//109 111//111 
f 112//112 111//111 113//113 
f 114//114 113//113 115//115 
f 116//116 115//115 2//2 
f 2//2 1//1 116//116 
f 115//115 116//116 114//114 
f 113//113 114//114 112//112 
f 111//111 112//112 110//110 
f 109//109 110//110 108//108 
f 107//107 108//108 106//106 
f 105//105 106//106 104//104 
f 103//103 104//104 102//102 
f 101//101 102//102 100//100 
f 99//99 100//100 98//98 
f 97//97 98//98 96//96 
f 95//95 96//96 94//94 
f 93//93 94//94 92//92 
f 91//91 92//92 90//90 
f 89//89 90//90 88//88 
f 87//87 88//88 86//86 
f 85//85 86//86 84//84 
f 83//83 84//84 82//82 
f 81//81 82//82 80//80 
f 79//79 80//80 78//78 
f 77//77 78//78 76//76 
f 75//75 76//76 74//74 
f 73//73 74//74 72//72 
f 71//71 72//72 70//70 
f 69//69 70//70 68//68 
f 67//67 68//68 66//66 
f 65//65 66//66 64//64 
f 63//63 64//64 62//62 
f 61//61 62//62 60//60 
f 59//59 60//60 58//58 
f 57//57 58//58 56//56 
f 55//55 56//56 54//54 
f 53//53 54//54 52//52 
f 51//51 52//52 50//50 
f 49//49 50//50 48//48 
f 47//47 48//48 46//46 
f 45//45 46//46 44//44 
f 43//43 44//44 42//42 
f 41//41 42//42 40//40 
f 39//39 40//40 38//38 
f 37//37 38//38 36//36 
f 35//35 36//36 34//34 
f 33//33 34//34 32//32 
f 31//31 32//32 30//30 
f 29//29 30//30 28//28 
f 27//27 28//28 26//26 
f 25//25 26//26 24//24 
f 23//23 24//24 22//22 
f 21//21 22//22 20//20 
f 19//19 20//20 18//18 
f 17//17 18//18 16//16 
f 15//15 16//16 14//14 
f 13//13 14//14 12//12 
f 11//11 12//12 10//10 
f 9//9 10//10 8//8 
f 7//7 8//8 6//6 
f 5//5 6//6 4//4 
f 3//3 4//4 1//1 
o mesh4283
v -0.00128414 0.00783294 -0.0007874 
v -0.000577351 0.00352169 -0.0007874 
v -0.000954728 0.00343862 -0.0007874 
v -0.000429728 0.00792586 -0.0007874 
v -0.000193206 0.00356347 -0.0007874 
v 0.00212351 -0.00764818 -0.0007874 
v 0.000954728 -0.00343862 -0.0007874 
v 0.00132091 -0.00331524 -0.0007874 
v 0.00128414 -0.00783294 -0.0007874 
v 0.000577351 -0.00352169 -0.0007874 
v 0.000429728 0.00792586 -0.0007874 
v 0.000193206 0.00356347 -0.0007874 
v 0.00445442 0.00656978 -0.0007874 
v 0.00200271 0.00295377 -0.0007874 
v 0.00167161 0.00315299 -0.0007874 
v 0.00513863 0.00604966 -0.0007874 
v 0.00231033 0.00271993 -0.0007874 
v 0.000429728 -0.00792586 -0.0007874 
v 0.000193206 -0.00356347 -0.0007874 
v -0.00128414 -0.00783294 -0.0007874 
v -0.000577351 -0.00352169 -0.0007874 
v -0.000193206 -0.00356347 -0.0007874 
v -0.00212351 -0.00764818 -0.0007874 
v -0.000954728 -0.00343862 -0.0007874 
v -0.00293797 -0.00737375 -0.0007874 
v -0.00132091 -0.00331524 -0.0007874 
v -0.00371799 -0.00701288 -0.0007874 
v -0.00167161 -0.00315299 -0.0007874 
v -0.00513863 -0.00604966 -0.0007874 
v -0.00231033 -0.00271993 -0.0007874 
v -0.00200271 -0.00295377 -0.0007874 
v -0.00576259 -0.00545861 -0.0007874 
v -0.00259086 -0.00245419 -0.0007874 
v 0.00128414 0.00783294 -0.0007874 
v 0.000577351 0.00352169 -0.0007874 
v 0.00212351 0.00764818 -0.0007874 
v 0.000954728 0.00343862 -0.0007874 
v 0.00293797 0.00737375 -0.0007874 
v 0.00132091 0.00331524 -0.0007874 
v 0.00371799 0.00701288 -0.0007874 
v 0.0068013 0.00409221 -0.0007874 
v 0.00305787 0.00183986 -0.0007874 
v 0.00284102 0.00215969 -0.0007874 
v 0.00720388 0.00333287 -0.0007874 
v 0.00323886 0.00149846 -0.0007874 
v 0.00445442 -0.00656978 -0.0007874 
v 0.00200271 -0.00295377 -0.0007874 
v 0.00231033 -0.00271993 -0.0007874 
v 0.00371799 -0.00701288 -0.0007874 
v 0.00167161 -0.00315299 -0.0007874 
v -0.000429728 -0.00792586 -0.0007874 
v -0.00631899 -0.00480357 -0.0007874 
v -0.00284102 -0.00215969 -0.0007874 
v -0.00631899 0.00480357 -0.0007874 
v -0.00284102 0.00215969 -0.0007874 
v -0.00305787 0.00183986 -0.0007874 
v -0.00576259 0.00545861 -0.0007874 
v -0.00259086 0.00245419 -0.0007874 
v -0.00445442 0.00656978 -0.0007874 
v -0.00200271 0.00295377 -0.0007874 
v -0.00231033 0.00271993 -0.0007874 
v -0.00371799 0.00701288 -0.0007874 
v -0.00167161 0.00315299 -0.0007874 
v -0.00293797 0.00737375 -0.0007874 
v -0.00132091 0.00331524 -0.0007874 
v -0.00212351 0.00764818 -0.0007874 
v 0.00576259 0.00545861 -0.0007874 
v 0.00259086 0.00245419 -0.0007874 
v 0.00631899 0.00480357 -0.0007874 
v 0.00789097 -0.000858195 -0.0007874 
v 0.00354778 -0.000385844 -0.0007874 
v 0.0035687 1.31112e-18 -0.0007874 
v 0.00775193 -0.00170633 -0.0007874 
v 0.00348527 -0.000767165 -0.0007874 
v 0.007522 -0.00253446 -0.0007874 
v 0.00338189 -0.00113949 -0.0007874 
v 0.00720388 -0.00333287 -0.0007874 
v 0.00323886 -0.00149846 -0.0007874 
v 0.00631899 -0.00480357 -0.0007874 
v 0.00284102 -0.00215969 -0.0007874 
v 0.00305787 -0.00183986 -0.0007874 
v 0.00576259 -0.00545861 -0.0007874 
v 0.00259086 -0.00245419 -0.0007874 
v 0.00293797 -0.00737375 -0.0007874 
v -0.00445442 -0.00656978 -0.0007874 
v -0.0068013 0.00409221 -0.0007874 
v -0.00323886 0.00149846 -0.0007874 
v -0.00513863 0.00604966 -0.0007874 
v 0.00789097 0.000858195 -0.0007874 
v 0.00354778 0.000385844 -0.0007874 
v 0.00348527 0.000767165 -0.0007874 
v 0.0079375 9.72063e-19 -0.0007874 
v 0.0068013 -0.00409221 -0.0007874 
v 0.00513863 -0.00604966 -0.0007874 
v -0.0068013 -0.00409221 -0.0007874 
v -0.00305787 -0.00183986 -0.0007874 
v -0.00720388 -0.00333287 -0.0007874 
v -0.00323886 -0.00149846 -0.0007874 
v -0.00789097 0.000858195 -0.0007874 
v -0.00354778 0.000385844 -0.0007874 
v -0.0035687 0 -0.0007874 
v -0.00775193 0.00170633 -0.0007874 
v -0.00348527 0.000767165 -0.0007874 
v -0.007522 0.00253446 -0.0007874 
v -0.00338189 0.00113949 -0.0007874 
v -0.00720388 0.00333287 -0.0007874 
v -0.007522 -0.00253446 -0.0007874 
v -0.00338189 -0.00113949 -0.0007874 
v -0.00775193 -0.00170633 -0.0007874 
v -0.00348527 -0.000767165 -0.0007874 
v 0.007522 0.00253446 -0.0007874 
v 0.00338189 0.00113949 -0.0007874 
v 0.00775193 0.00170633 -0.0007874 
v -0.00789097 -0.000858195 -0.0007874 
v -0.00354778 -0.000385844 -0.0007874 
v -0.0079375 0 -0.0007874 
vn 0 0 -1 
vn 0 0 -1 
vn 0 0 -1 
vn 0 0 -1 
vn 0 0 -1 
vn 0 0 -1 
vn 0 0 -1 
vn 0 0 -1 
vn 0 0 -1 
vn 0 0 -1 
vn 0 0 -1 
vn 0 0 -1 
vn 0 0 -1 
vn 0 0 -1 
vn 0 0 -1 
vn 0 0 -1 
vn 0 0 -1 
vn 0 0 -1 
vn 0 0 -1 
vn 0 0 -1 
vn 0 0 -1 
vn 0 0 -1 
vn 0 0 -1 
vn 0 0 -1 
vn 0 0 -1 
vn 0 0 -1 
vn 0 0 -1 
vn 0 0 -1 
vn 0 0 -1 
vn 0 0 -1 
vn 0 0 -1 
vn 0 0 -1 
vn 0 0 -1 
vn 0 0 -1 
vn 0 0 -1 
vn 0 0 -1 
vn 0 0 -1 
vn 0 0 -1 
vn 0 0 -1 
vn 0 0 -1 
vn 0 0 -1 
vn 0 0 -1 
vn 0 0 -1 
vn 0 0 -1 
vn 0 0 -1 
vn 0 0 -1 
vn 0 0 -1 
vn 0 0 -1 
vn 0 0 -1 
vn 0 0 -1 
vn 0 0 -1 
vn 0 0 -1 
vn 0 0 -1 
vn 0 0 -1 
vn 0 0 -1 
vn 0 0 -1 
vn 0 0 -1 
vn 0 0 -1 
vn 0 0 -1 
vn 0 0 -1 
vn 0 0 -1 
vn 0 0 -1 
vn 0 0 -1 
vn 0 0 -1 
vn 0 0 -1 
vn 0 0 -1 
vn 0 0 -1 
vn 0 0 -1 
vn 0 0 -1 
vn 0 0 -1 
vn 0 0 -1 
vn 0 0 -1 
vn 0 0 -1 
vn 0 0 -1 
vn 0 0 -1 
vn 0 0 -1 
vn 0 0 -1 
vn 0 0 -1 
vn 0 0 -1 
vn 0 0 -1 
vn 0 0 -1 
vn 0 0 -1 
vn 0 0 -1 
vn 0 0 -1 
vn 0 0 -1 
vn 0 0 -1 
vn 0 0 -1 
vn 0 0 -1 
vn 0 0 -1 
vn 0 0 -1 
vn 0 0 -1 
vn 0 0 -1 
vn 0 0 -1 
vn 0 0 -1 
vn 0 0 -1 
vn 0 0 -1 
vn 0 0 -1 
vn 0 0 -1 
vn 0 0 -1 
vn 0 0 -1 
vn 0 0 -1 
vn 0 0 -1 
vn 0 0 -1 
vn 0 0 -1 
vn 0 0 -1 
vn 0 0 -1 
vn 0 0 -1 
vn 0 0 -1 
vn 0 0 -1 
vn 0 0 -1 
vn 0 0 -1 
vn 0 0 -1 
vn 0 0 -1 
vn 0 0 -1 
vn 0 0 -1 
vn 0 0 -1 
f 117//117 118//118 119//119 
f 120//120 121//121 118//118 
f 122//122 123//123 124//124 
f 122//122 125//125 126//126 
f 118//118 117//117 120//120 
f 120//120 127//127 128//128 
f 129//129 130//130 131//131 
f 129//129 132//132 133//133 
f 126//126 123//123 122//122 
f 125//125 134//134 135//135 
f 136//136 137//137 138//138 
f 136//136 139//139 140//140 
f 141//141 142//142 140//140 
f 141//141 143//143 144//144 
f 145//145 146//146 147//147 
f 145//145 148//148 149//149 
f 128//128 121//121 120//120 
f 127//127 150//150 151//151 
f 152//152 153//153 151//151 
f 152//152 154//154 155//155 
f 156//156 131//131 155//155 
f 133//133 130//130 129//129 
f 157//157 158//158 159//159 
f 157//157 160//160 161//161 
f 162//162 163//163 164//164 
f 162//162 165//165 166//166 
f 135//135 126//126 125//125 
f 167//167 138//138 135//135 
f 140//140 137//137 136//136 
f 144//144 142//142 141//141 
f 149//149 146//146 145//145 
f 148//148 168//168 169//169 
f 170//170 171//171 172//172 
f 170//170 173//173 174//174 
f 175//175 176//176 177//177 
f 175//175 178//178 179//179 
f 180//180 181//181 179//179 
f 180//180 182//182 119//119 
f 151//151 128//128 127//127 
f 155//155 153//153 152//152 
f 131//131 156//156 129//129 
f 132//132 183//183 184//184 
f 183//183 185//185 159//159 
f 161//161 158//158 157//157 
f 186//186 187//187 188//188 
f 189//189 190//190 187//187 
f 191//191 192//192 190//190 
f 191//191 193//193 194//194 
f 195//195 196//196 197//197 
f 195//195 198//198 199//199 
f 166//166 163//163 162//162 
f 165//165 200//200 124//124 
f 135//135 134//134 167//167 
f 140//140 139//139 141//141 
f 201//201 147//147 144//144 
f 169//169 149//149 148//148 
f 202//202 172//172 203//203 
f 174//174 171//171 170//170 
f 204//204 177//177 174//174 
f 179//179 176//176 175//175 
f 119//119 181//181 180//180 
f 151//151 150//150 152//152 
f 184//184 133//133 132//132 
f 159//159 185//185 157//157 
f 205//205 206//206 207//207 
f 205//205 208//208 188//188 
f 187//187 186//186 189//189 
f 194//194 192//192 191//191 
f 209//209 197//197 194//194 
f 199//199 196//196 195//195 
f 198//198 210//210 164//164 
f 124//124 166//166 165//165 
f 138//138 167//167 136//136 
f 147//147 201//201 145//145 
f 211//211 212//212 169//169 
f 211//211 213//213 214//214 
f 215//215 216//216 217//217 
f 218//218 219//219 216//216 
f 220//220 221//221 219//219 
f 220//220 222//222 203//203 
f 172//172 202//202 170//170 
f 177//177 204//204 175//175 
f 119//119 182//182 117//117 
f 159//159 184//184 183//183 
f 188//188 206//206 205//205 
f 190//190 189//189 191//191 
f 197//197 209//209 195//195 
f 164//164 210//210 162//162 
f 144//144 143//143 201//201 
f 214//214 212//212 211//211 
f 223//223 224//224 214//214 
f 223//223 225//225 226//226 
f 216//216 215//215 218//218 
f 203//203 221//221 220//220 
f 174//174 173//173 204//204 
f 155//155 154//154 156//156 
f 188//188 208//208 186//186 
f 164//164 199//199 198//198 
f 169//169 168//168 211//211 
f 226//226 224//224 223//223 
f 219//219 218//218 220//220 
f 179//179 178//178 180//180 
f 227//227 228//228 161//161 
f 227//227 229//229 207//207 
f 194//194 193//193 209//209 
f 214//214 213//213 223//223 
f 230//230 231//231 226//226 
f 230//230 232//232 217//217 
f 203//203 222//222 202//202 
f 207//207 228//228 227//227 
f 124//124 200//200 122//122 
f 217//217 231//231 230//230 
f 161//161 160//160 227//227 
f 226//226 225//225 230//230 
f 207//207 229//229 205//205 
f 217//217 232//232 215//215 
o mesh4284
v -0.00354778 -0.000385844 -0.0007874 
v -0.0035687 0 -0.0007874 
v -0.0035687 0 -1.9685e-05 
v -0.00348527 -0.000767165 -0.0007874 
v -0.00354778 -0.000385844 -1.9685e-05 
v -0.00338189 -0.00113949 -0.0007874 
v -0.00348527 -0.000767165 -1.9685e-05 
v -0.00323886 -0.00149846 -0.0007874 
v -0.00338189 -0.00113949 -1.9685e-05 
v -0.00305787 -0.00183986 -0.0007874 
v -0.00323886 -0.00149846 -1.9685e-05 
v -0.00284102 -0.00215969 -0.0007874 
v -0.00305787 -0.00183986 -1.9685e-05 
v -0.00259086 -0.00245419 -0.0007874 
v -0.00284102 -0.00215969 -1.9685e-05 
v -0.00231033 -0.00271993 -0.0007874 
v -0.00259086 -0.00245419 -1.9685e-05 
v -0.00200271 -0.00295377 -0.0007874 
v -0.00231033 -0.00271993 -1.9685e-05 
v -0.00167161 -0.00315299 -0.0007874 
v -0.00200271 -0.00295377 -1.9685e-05 
v -0.00132091 -0.00331524 -0.0007874 
v -0.00167161 -0.00315299 -1.9685e-05 
v -0.000954728 -0.00343862 -0.0007874 
v -0.00132091 -0.00331524 -1.9685e-05 
v -0.000577351 -0.00352169 -0.0007874 
v -0.000954728 -0.00343862 -1.9685e-05 
v -0.000193206 -0.00356347 -0.0007874 
v -0.000577351 -0.00352169 -1.9685e-05 
v 0.000193206 -0.00356347 -0.0007874 
v -0.000193206 -0.00356347 -1.9685e-05 
v 0.000577351 -0.00352169 -0.0007874 
v 0.000193206 -0.00356347 -1.9685e-05 
v 0.000954728 -0.00343862 -0.0007874 
v 0.000577351 -0.00352169 -1.9685e-05 
v 0.00132091 -0.00331524 -0.0007874 
v 0.000954728 -0.00343862 -1.9685e-05 
v 0.00167161 -0.00315299 -0.0007874 
v 0.00132091 -0.00331524 -1.9685e-05 
v 0.00200271 -0.00295377 -0.0007874 
v 0.00167161 -0.00315299 -1.9685e-05 
v 0.00231033 -0.00271993 -0.0007874 
v 0.00200271 -0.00295377 -1.9685e-05 
v 0.00259086 -0.00245419 -0.0007874 
v 0.00231033 -0.00271993 -1.9685e-05 
v 0.00284102 -0.00215969 -0.0007874 
v 0.00259086 -0.00245419 -1.9685e-05 
v 0.00305787 -0.00183986 -0.0007874 
v 0.00284102 -0.00215969 -1.9685e-05 
v 0.00323886 -0.00149846 -0.0007874 
v 0.00305787 -0.00183986 -1.9685e-05 
v 0.00338189 -0.00113949 -0.0007874 
v 0.00323886 -0.00149846 -1.9685e-05 
v 0.00348527 -0.000767165 -0.0007874 
v 0.00338189 -0.00113949 -1.9685e-05 
v 0.00354778 -0.000385844 -0.0007874 
v 0.00348527 -0.000767165 -1.9685e-05 
v 0.0035687 1.31112e-18 -0.0007874 
v 0.00354778 -0.000385844 -1.9685e-05 
v 0.00354778 0.000385844 -0.0007874 
v 0.0035687 4.3704e-19 -1.9685e-05 
v 0.00348527 0.000767165 -0.0007874 
v 0.00354778 0.000385844 -1.9685e-05 
v 0.00338189 0.00113949 -0.0007874 
v 0.00348527 0.000767165 -1.9685e-05 
v 0.00323886 0.00149846 -0.0007874 
v 0.00338189 0.00113949 -1.9685e-05 
v 0.00305787 0.00183986 -0.0007874 
v 0.00323886 0.00149846 -1.9685e-05 
v 0.00284102 0.00215969 -0.0007874 
v 0.00305787 0.00183986 -1.9685e-05 
v 0.00259086 0.00245419 -0.0007874 
v 0.00284102 0.00215969 -1.9685e-05 
v 0.00231033 0.00271993 -0.0007874 
v 0.00259086 0.00245419 -1.9685e-05 
v 0.00200271 0.00295377 -0.0007874 
v 0.00231033 0.00271993 -1.9685e-05 
v 0.00167161 0.00315299 -0.0007874 
v 0.00200271 0.00295377 -1.9685e-05 
v 0.00132091 0.00331524 -0.0007874 
v 0.00167161 0.00315299 -1.9685e-05 
v 0.000954728 0.00343862 -0.0007874 
v 0.00132091 0.00331524 -1.9685e-05 
v 0.000577351 0.00352169 -0.0007874 
v 0.000954728 0.00343862 -1.9685e-05 
v 0.000193206 0.00356347 -0.0007874 
v 0.000577351 0.00352169 -1.9685e-05 
v -0.000193206 0.00356347 -0.0007874 
v 0.000193206 0.00356347 -1.9685e-05 
v -0.000577351 0.00352169 -0.0007874 
v -0.000193206 0.00356347 -1.9685e-05 
v -0.000954728 0.00343862 -0.0007874 
v -0.000577351 0.00352169 -1.9685e-05 
v -0.00132091 0.00331524 -0.0007874 
v -0.000954728 0.00343862 -1.9685e-05 
v -0.00167161 0.00315299 -0.0007874 
v -0.00132091 0.00331524 -1.9685e-05 
v -0.00200271 0.00295377 -0.0007874 
v -0.00167161 0.00315299 -1.9685e-05 
v -0.00231033 0.00271993 -0.0007874 
v -0.00200271 0.00295377 -1.9685e-05 
v -0.00259086 0.00245419 -0.0007874 
v -0.00231033 0.00271993 -1.9685e-05 
v -0.00284102 0.00215969 -0.0007874 
v -0.00259086 0.00245419 -1.9685e-05 
v -0.00305787 0.00183986 -0.0007874 
v -0.00284102 0.00215969 -1.9685e-05 
v -0.00323886 0.00149846 -0.0007874 
v -0.00305787 0.00183986 -1.9685e-05 
v -0.00338189 0.00113949 -0.0007874 
v -0.00323886 0.00149846 -1.9685e-05 
v -0.00348527 0.000767165 -0.0007874 
v -0.00338189 0.00113949 -1.9685e-05 
v -0.00354778 0.000385844 -0.0007874 
v -0.00348527 0.000767165 -1.9685e-05 
v -0.00354778 0.000385844 -1.9685e-05 
vn 0.994138 0.108119 0 
vn 1 2.44929e-16 0 
vn 1 2.44929e-16 0 
vn 0.976621 0.21497 0 
vn 0.994138 0.108119 0 
vn 0.947653 0.319302 0 
vn 0.976621 0.21497 0 
vn 0.907575 0.419889 0 
vn 0.947653 0.319302 0 
vn 0.856857 0.515554 0 
vn 0.907575 0.419889 0 
vn 0.796093 0.605174 0 
vn 0.856857 0.515554 0 
vn 0.725995 0.687699 0 
vn 0.796093 0.605174 0 
vn 0.647386 0.762162 0 
vn 0.725995 0.687699 0 
vn 0.561187 0.827689 0 
vn 0.647386 0.762162 0 
vn 0.468408 0.883512 0 
vn 0.561187 0.827689 0 
vn 0.370138 0.928977 0 
vn 0.468408 0.883512 0 
vn 0.267528 0.96355 0 
vn 0.370138 0.928977 0 
vn 0.161782 0.986827 0 
vn 0.267528 0.96355 0 
vn 0.0541389 0.998533 0 
vn 0.161782 0.986827 0 
vn -0.0541389 0.998533 0 
vn 0.0541389 0.998533 0 
vn -0.161782 0.986827 0 
vn -0.0541389 0.998533 0 
vn -0.267528 0.96355 0 
vn -0.161782 0.986827 0 
vn -0.370138 0.928977 0 
vn -0.267528 0.96355 0 
vn -0.468408 0.883512 0 
vn -0.370138 0.928977 0 
vn -0.561187 0.827689 0 
vn -0.468408 0.883512 0 
vn -0.647386 0.762162 0 
vn -0.561187 0.827689 0 
vn -0.725995 0.687699 0 
vn -0.647386 0.762162 0 
vn -0.796093 0.605174 0 
vn -0.725995 0.687699 0 
vn -0.856857 0.515554 0 
vn -0.796093 0.605174 0 
vn -0.907575 0.419889 0 
vn -0.856857 0.515554 0 
vn -0.947653 0.319302 0 
vn -0.907575 0.419889 0 
vn -0.976621 0.21497 0 
vn -0.947653 0.319302 0 
vn -0.994138 0.108119 0 
vn -0.976621 0.21497 0 
vn -1 -1.22465e-16 0 
vn -0.994138 0.108119 0 
vn -0.994138 -0.108119 0 
vn -1 -1.22465e-16 0 
vn -0.976621 -0.21497 0 
vn -0.994138 -0.108119 0 
vn -0.947653 -0.319302 0 
vn -0.976621 -0.21497 0 
vn -0.907575 -0.419889 0 
vn -0.947653 -0.319302 0 
vn -0.856857 -0.515554 0 
vn -0.907575 -0.419889 0 
vn -0.796093 -0.605174 0 
vn -0.856857 -0.515554 0 
vn -0.725995 -0.687699 0 
vn -0.796093 -0.605174 0 
vn -0.647386 -0.762162 0 
vn -0.725995 -0.687699 0 
vn -0.561187 -0.827689 0 
vn -0.647386 -0.762162 0 
vn -0.468408 -0.883512 0 
vn -0.561187 -0.827689 0 
vn -0.370138 -0.928977 0 
vn -0.468408 -0.883512 0 
vn -0.267528 -0.96355 0 
vn -0.370138 -0.928977 0 
vn -0.161782 -0.986827 0 
vn -0.267528 -0.96355 0 
vn -0.0541389 -0.998533 0 
vn -0.161782 -0.986827 0 
vn 0.0541389 -0.998533 0 
vn -0.0541389 -0.998533 0 
vn 0.161782 -0.986827 0 
vn 0.0541389 -0.998533 0 
vn 0.267528 -0.96355 0 
vn 0.161782 -0.986827 0 
vn 0.370138 -0.928977 0 
vn 0.267528 -0.96355 0 
vn 0.468408 -0.883512 0 
vn 0.370138 -0.928977 0 
vn 0.561187 -0.827689 0 
vn 0.468408 -0.883512 0 
vn 0.647386 -0.762162 0 
vn 0.561187 -0.827689 0 
vn 0.725995 -0.687699 0 
vn 0.647386 -0.762162 0 
vn 0.796093 -0.605174 0 
vn 0.725995 -0.687699 0 
vn 0.856857 -0.515554 0 
vn 0.796093 -0.605174 0 
vn 0.907575 -0.419889 0 
vn 0.856857 -0.515554 0 
vn 0.947653 -0.319302 0 
vn 0.907575 -0.419889 0 
vn 0.976621 -0.21497 0 
vn 0.947653 -0.319302 0 
vn 0.994138 -0.108119 0 
vn 0.976621 -0.21497 0 
vn 0.994138 -0.108119 0 
f 233//233 234//234 235//235 
f 236//236 233//233 237//237 
f 238//238 236//236 239//239 
f 240//240 238//238 241//241 
f 242//242 240//240 243//243 
f 244//244 242//242 245//245 
f 246//246 244//244 247//247 
f 248//248 246//246 249//249 
f 250//250 248//248 251//251 
f 252//252 250//250 253//253 
f 254//254 252//252 255//255 
f 256//256 254//254 257//257 
f 258//258 256//256 259//259 
f 260//260 258//258 261//261 
f 262//262 260//260 263//263 
f 264//264 262//262 265//265 
f 266//266 264//264 267//267 
f 268//268 266//266 269//269 
f 270//270 268//268 271//271 
f 272//272 270//270 273//273 
f 274//274 272//272 275//275 
f 276//276 274//274 277//277 
f 278//278 276//276 279//279 
f 280//280 278//278 281//281 
f 282//282 280//280 283//283 
f 284//284 282//282 285//285 
f 286//286 284//284 287//287 
f 288//288 286//286 289//289 
f 290//290 288//288 291//291 
f 292//292 290//290 293//293 
f 294//294 292//292 295//295 
f 296//296 294//294 297//297 
f 298//298 296//296 299//299 
f 300//300 298//298 301//301 
f 302//302 300//300 303//303 
f 304//304 302//302 305//305 
f 306//306 304//304 307//307 
f 308//308 306//306 309//309 
f 310//310 308//308 311//311 
f 312//312 310//310 313//313 
f 314//314 312//312 315//315 
f 316//316 314//314 317//317 
f 318//318 316//316 319//319 
f 320//320 318//318 321//321 
f 322//322 320//320 323//323 
f 324//324 322//322 325//325 
f 326//326 324//324 327//327 
f 328//328 326//326 329//329 
f 330//330 328//328 331//331 
f 332//332 330//330 333//333 
f 334//334 332//332 335//335 
f 336//336 334//334 337//337 
f 338//338 336//336 339//339 
f 340//340 338//338 341//341 
f 342//342 340//340 343//343 
f 344//344 342//342 345//345 
f 346//346 344//344 347//347 
f 234//234 346//346 348//348 
f 348//348 235//235 234//234 
f 347//347 348//348 346//346 
f 345//345 347//347 344//344 
f 343//343 345//345 342//342 
f 341//341 343//343 340//340 
f 339//339 341//341 338//338 
f 337//337 339//339 336//336 
f 335//335 337//337 334//334 
f 333//333 335//335 332//332 
f 331//331 333//333 330//330 
f 329//329 331//331 328//328 
f 327//327 329//329 326//326 
f 325//325 327//327 324//324 
f 323//323 325//325 322//322 
f 321//321 323//323 320//320 
f 319//319 321//321 318//318 
f 317//317 319//319 316//316 
f 315//315 317//317 314//314 
f 313//313 315//315 312//312 
f 311//311 313//313 310//310 
f 309//309 311//311 308//308 
f 307//307 309//309 306//306 
f 305//305 307//307 304//304 
f 303//303 305//305 302//302 
f 301//301 303//303 300//300 
f 299//299 301//301 298//298 
f 297//297 299//299 296//296 
f 295//295 297//297 294//294 
f 293//293 295//295 292//292 
f 291//291 293//293 290//290 
f 289//289 291//291 288//288 
f 287//287 289//289 286//286 
f 285//285 287//287 284//284 
f 283//283 285//285 282//282 
f 281//281 283//283 280//280 
f 279//279 281//281 278//278 
f 277//277 279//279 276//276 
f 275//275 277//277 274//274 
f 273//273 275//275 272//272 
f 271//271 273//273 270//270 
f 269//269 271//271 268//268 
f 267//267 269//269 266//266 
f 265//265 267//267 264//264 
f 263//263 265//265 262//262 
f 261//261 263//263 260//260 
f 259//259 261//261 258//258 
f 257//257 259//259 256//256 
f 255//255 257//257 254//254 
f 253//253 255//255 252//252 
f 251//251 253//253 250//250 
f 249//249 251//251 248//248 
f 247//247 249//249 246//246 
f 245//245 247//247 244//244 
f 243//243 245//245 242//242 
f 241//241 243//243 240//240 
f 239//239 241//241 238//238 
f 237//237 239//239 236//236 
f 235//235 237//237 233//233 
o mesh4285
v 0.0068013 0.00409221 -1.9685e-05 
v 0.00305787 0.00183986 -1.9685e-05 
v 0.00323886 0.00149846 -1.9685e-05 
v 0.00631899 0.00480357 -1.9685e-05 
v 0.00284102 0.00215969 -1.9685e-05 
v 0.00576259 0.00545861 -1.9685e-05 
v 0.00259086 0.00245419 -1.9685e-05 
v 0.000429728 0.00792586 -1.9685e-05 
v 0.000193206 0.00356347 -1.9685e-05 
v 0.000577351 0.00352169 -1.9685e-05 
v -0.000429728 0.00792586 -1.9685e-05 
v -0.000193206 0.00356347 -1.9685e-05 
v 0.00513863 0.00604966 -1.9685e-05 
v 0.00231033 0.00271993 -1.9685e-05 
v 0.00445442 0.00656978 -1.9685e-05 
v 0.00200271 0.00295377 -1.9685e-05 
v 0.00371799 0.00701288 -1.9685e-05 
v 0.00167161 0.00315299 -1.9685e-05 
v -0.00128414 0.00783294 -1.9685e-05 
v -0.000577351 0.00352169 -1.9685e-05 
v 0.00212351 0.00764818 -1.9685e-05 
v 0.000954728 0.00343862 -1.9685e-05 
v 0.00132091 0.00331524 -1.9685e-05 
v 0.00128414 0.00783294 -1.9685e-05 
v -0.00212351 0.00764818 -1.9685e-05 
v -0.000954728 0.00343862 -1.9685e-05 
v 0.00293797 0.00737375 -1.9685e-05 
v -0.00445442 0.00656978 -1.9685e-05 
v -0.00200271 0.00295377 -1.9685e-05 
v -0.00167161 0.00315299 -1.9685e-05 
v -0.00513863 0.00604966 -1.9685e-05 
v -0.00231033 0.00271993 -1.9685e-05 
v -0.00631899 0.00480357 -1.9685e-05 
v -0.00284102 0.00215969 -1.9685e-05 
v -0.00259086 0.00245419 -1.9685e-05 
v -0.0068013 0.00409221 -1.9685e-05 
v -0.00305787 0.00183986 -1.9685e-05 
v -0.00293797 0.00737375 -1.9685e-05 
v -0.00132091 0.00331524 -1.9685e-05 
v -0.00371799 0.00701288 -1.9685e-05 
v -0.00576259 0.00545861 -1.9685e-05 
v -0.00720388 0.00333287 -1.9685e-05 
v -0.00323886 0.00149846 -1.9685e-05 
v -0.007522 0.00253446 -1.9685e-05 
v -0.00338189 0.00113949 -1.9685e-05 
v -0.00775193 0.00170633 -1.9685e-05 
v -0.00348527 0.000767165 -1.9685e-05 
v -0.00513863 -0.00604966 -1.9685e-05 
v -0.00231033 -0.00271993 -1.9685e-05 
v -0.00259086 -0.00245419 -1.9685e-05 
v -0.00445442 -0.00656978 -1.9685e-05 
v -0.00200271 -0.00295377 -1.9685e-05 
v -0.00293797 -0.00737375 -1.9685e-05 
v -0.00132091 -0.00331524 -1.9685e-05 
v -0.00167161 -0.00315299 -1.9685e-05 
v -0.00212351 -0.00764818 -1.9685e-05 
v -0.000954728 -0.00343862 -1.9685e-05 
v -0.00128414 -0.00783294 -1.9685e-05 
v -0.000577351 -0.00352169 -1.9685e-05 
v -0.000429728 -0.00792586 -1.9685e-05 
v -0.000193206 -0.00356347 -1.9685e-05 
v 0.000429728 -0.00792586 -1.9685e-05 
v 0.000193206 -0.00356347 -1.9685e-05 
v 0.00128414 -0.00783294 -1.9685e-05 
v 0.000577351 -0.00352169 -1.9685e-05 
v 0.00212351 -0.00764818 -1.9685e-05 
v 0.000954728 -0.00343862 -1.9685e-05 
v 0.00293797 -0.00737375 -1.9685e-05 
v 0.00132091 -0.00331524 -1.9685e-05 
v 0.00789097 0.000858195 -1.9685e-05 
v 0.00354778 0.000385844 -1.9685e-05 
v 0.0035687 4.3704e-19 -1.9685e-05 
v 0.00775193 0.00170633 -1.9685e-05 
v 0.00348527 0.000767165 -1.9685e-05 
v 0.007522 0.00253446 -1.9685e-05 
v 0.00338189 0.00113949 -1.9685e-05 
v 0.00720388 0.00333287 -1.9685e-05 
v -0.00789097 0.000858195 -1.9685e-05 
v -0.00354778 0.000385844 -1.9685e-05 
v -0.00576259 -0.00545861 -1.9685e-05 
v -0.00284102 -0.00215969 -1.9685e-05 
v 0.00445442 -0.00656978 -1.9685e-05 
v 0.00200271 -0.00295377 -1.9685e-05 
v 0.00167161 -0.00315299 -1.9685e-05 
v 0.00513863 -0.00604966 -1.9685e-05 
v 0.00231033 -0.00271993 -1.9685e-05 
v -0.0079375 0 -1.9685e-05 
v -0.0035687 0 -1.9685e-05 
v -0.00789097 -0.000858195 -1.9685e-05 
v -0.00354778 -0.000385844 -1.9685e-05 
v -0.00775193 -0.00170633 -1.9685e-05 
v -0.00348527 -0.000767165 -1.9685e-05 
v -0.007522 -0.00253446 -1.9685e-05 
v -0.00338189 -0.00113949 -1.9685e-05 
v -0.00720388 -0.00333287 -1.9685e-05 
v -0.00323886 -0.00149846 -1.9685e-05 
v -0.0068013 -0.00409221 -1.9685e-05 
v -0.00305787 -0.00183986 -1.9685e-05 
v -0.00631899 -0.00480357 -1.9685e-05 
v -0.00371799 -0.00701288 -1.9685e-05 
v 0.00371799 -0.00701288 -1.9685e-05 
v 0.00631899 -0.00480357 -1.9685e-05 
v 0.00284102 -0.00215969 -1.9685e-05 
v 0.00259086 -0.00245419 -1.9685e-05 
v 0.0068013 -0.00409221 -1.9685e-05 
v 0.00305787 -0.00183986 -1.9685e-05 
v 0.007522 -0.00253446 -1.9685e-05 
v 0.00338189 -0.00113949 -1.9685e-05 
v 0.00323886 -0.00149846 -1.9685e-05 
v 0.00775193 -0.00170633 -1.9685e-05 
v 0.00348527 -0.000767165 -1.9685e-05 
v 0.00576259 -0.00545861 -1.9685e-05 
v 0.00720388 -0.00333287 -1.9685e-05 
v 0.00789097 -0.000858195 -1.9685e-05 
v 0.00354778 -0.000385844 -1.9685e-05 
v 0.0079375 2.91619e-18 -1.9685e-05 
vn 0 0 1 
vn 0 0 1 
vn 0 0 1 
vn 0 0 1 
vn 0 0 1 
vn 0 0 1 
vn 0 0 1 
vn 0 0 1 
vn 0 0 1 
vn 0 0 1 
vn 0 0 1 
vn 0 0 1 
vn 0 0 1 
vn 0 0 1 
vn 0 0 1 
vn 0 0 1 
vn 0 0 1 
vn 0 0 1 
vn 0 0 1 
vn 0 0 1 
vn 0 0 1 
vn 0 0 1 
vn 0 0 1 
vn 0 0 1 
vn 0 0 1 
vn 0 0 1 
vn 0 0 1 
vn 0 0 1 
vn 0 0 1 
vn 0 0 1 
vn 0 0 1 
vn 0 0 1 
vn 0 0 1 
vn 0 0 1 
vn 0 0 1 
vn 0 0 1 
vn 0 0 1 
vn 0 0 1 
vn 0 0 1 
vn 0 0 1 
vn 0 0 1 
vn 0 0 1 
vn 0 0 1 
vn 0 0 1 
vn 0 0 1 
vn 0 0 1 
vn 0 0 1 
vn 0 0 1 
vn 0 0 1 
vn 0 0 1 
vn 0 0 1 
vn 0 0 1 
vn 0 0 1 
vn 0 0 1 
vn 0 0 1 
vn 0 0 1 
vn 0 0 1 
vn 0 0 1 
vn 0 0 1 
vn 0 0 1 
vn 0 0 1 
vn 0 0 1 
vn 0 0 1 
vn 0 0 1 
vn 0 0 1 
vn 0 0 1 
vn 0 0 1 
vn 0 0 1 
vn 0 0 1 
vn 0 0 1 
vn 0 0 1 
vn 0 0 1 
vn 0 0 1 
vn 0 0 1 
vn 0 0 1 
vn 0 0 1 
vn 0 0 1 
vn 0 0 1 
vn 0 0 1 
vn 0 0 1 
vn 0 0 1 
vn 0 0 1 
vn 0 0 1 
vn 0 0 1 
vn 0 0 1 
vn 0 0 1 
vn 0 0 1 
vn 0 0 1 
vn 0 0 1 
vn 0 0 1 
vn 0 0 1 
vn 0 0 1 
vn 0 0 1 
vn 0 0 1 
vn 0 0 1 
vn 0 0 1 
vn 0 0 1 
vn 0 0 1 
vn 0 0 1 
vn 0 0 1 
vn 0 0 1 
vn 0 0 1 
vn 0 0 1 
vn 0 0 1 
vn 0 0 1 
vn 0 0 1 
vn 0 0 1 
vn 0 0 1 
vn 0 0 1 
vn 0 0 1 
vn 0 0 1 
vn 0 0 1 
vn 0 0 1 
vn 0 0 1 
vn 0 0 1 
vn 0 0 1 
f 349//349 350//350 351//351 
f 349//349 352//352 353//353 
f 353//353 350//350 349//349 
f 352//352 354//354 355//355 
f 356//356 357//357 358//358 
f 356//356 359//359 360//360 
f 355//355 353//353 352//352 
f 361//361 362//362 355//355 
f 363//363 364//364 362//362 
f 363//363 365//365 366//366 
f 360//360 357//357 356//356 
f 359//359 367//367 368//368 
f 355//355 354//354 361//361 
f 366//366 364//364 363//363 
f 369//369 370//370 371//371 
f 369//369 372//372 358//358 
f 368//368 360//360 359//359 
f 367//367 373//373 374//374 
f 362//362 361//361 363//363 
f 365//365 375//375 371//371 
f 358//358 370//370 369//369 
f 374//374 368//368 367//367 
f 376//376 377//377 378//378 
f 376//376 379//379 380//380 
f 381//381 382//382 383//383 
f 381//381 384//384 385//385 
f 371//371 366//366 365//365 
f 358//358 372//372 356//356 
f 386//386 387//387 374//374 
f 386//386 388//388 378//378 
f 380//380 377//377 376//376 
f 379//379 389//389 383//383 
f 385//385 382//382 381//381 
f 384//384 390//390 391//391 
f 392//392 393//393 391//391 
f 392//392 394//394 395//395 
f 396//396 397//397 398//398 
f 396//396 399//399 400//400 
f 401//401 402//402 403//403 
f 401//401 404//404 405//405 
f 406//406 407//407 405//405 
f 406//406 408//408 409//409 
f 408//408 410//410 411//411 
f 410//410 412//412 413//413 
f 414//414 415//415 413//413 
f 414//414 416//416 417//417 
f 418//418 419//419 420//420 
f 418//418 421//421 422//422 
f 423//423 424//424 422//422 
f 423//423 425//425 351//351 
f 371//371 375//375 369//369 
f 378//378 387//387 386//386 
f 383//383 380//380 379//379 
f 391//391 385//385 384//384 
f 395//395 393//393 392//392 
f 394//394 426//426 427//427 
f 428//428 398//398 429//429 
f 400//400 397//397 396//396 
f 405//405 402//402 401//401 
f 409//409 407//407 406//406 
f 413//413 411//411 410//410 
f 417//417 415//415 414//414 
f 430//430 431//431 432//432 
f 430//430 433//433 434//434 
f 422//422 419//419 418//418 
f 351//351 424//424 423//423 
f 374//374 373//373 386//386 
f 383//383 389//389 381//381 
f 427//427 395//395 394//394 
f 426//426 435//435 436//436 
f 437//437 438//438 436//436 
f 437//437 439//439 440//440 
f 441//441 442//442 440//440 
f 441//441 443//443 444//444 
f 445//445 446//446 444//444 
f 445//445 447//447 429//429 
f 398//398 428//428 396//396 
f 399//399 448//448 403//403 
f 405//405 404//404 406//406 
f 413//413 412//412 414//414 
f 449//449 432//432 417//417 
f 434//434 431//431 430//430 
f 450//450 451//451 452//452 
f 450//450 453//453 454//454 
f 455//455 456//456 457//457 
f 455//455 458//458 459//459 
f 422//422 421//421 423//423 
f 378//378 388//388 376//376 
f 436//436 427//427 426//426 
f 440//440 438//438 437//437 
f 444//444 442//442 441//441 
f 429//429 446//446 445//445 
f 403//403 400//400 399//399 
f 411//411 409//409 408//408 
f 432//432 449//449 430//430 
f 433//433 460//460 452//452 
f 454//454 451//451 450//450 
f 453//453 461//461 457//457 
f 459//459 456//456 455//455 
f 458//458 462//462 463//463 
f 351//351 425//425 349//349 
f 436//436 435//435 437//437 
f 444//444 443//443 445//445 
f 403//403 448//448 401//401 
f 452//452 434//434 433//433 
f 457//457 454//454 453//453 
f 463//463 459//459 458//458 
f 462//462 464//464 420//420 
f 391//391 390//390 392//392 
f 429//429 447//447 428//428 
f 452//452 460//460 450//450 
f 420//420 463//463 462//462 
f 440//440 439//439 441//441 
f 457//457 461//461 455//455 
f 417//417 416//416 449//449 
f 420//420 464//464 418//418 
