# OBJ generated by ONSHAPE BY PTC INC, 1.215 Units = meters
mtllib _90131A627_Abrasion_Resistant_Cushioning_Washer.mtl
g 90131A627_Abrasion-Resistant Cushioning Washer
usemtl 0.752941_0.752941_0.752941_0.000000_0.000000
o mesh4278
v 0.0068013 0.00409221 1.9685e-05 
v 0.00305787 0.00183986 1.9685e-05 
v 0.00323886 0.00149846 1.9685e-05 
v 0.00631899 0.00480357 1.9685e-05 
v 0.00284102 0.00215969 1.9685e-05 
v 0.00576259 0.00545861 1.9685e-05 
v 0.00259086 0.00245419 1.9685e-05 
v 0.000429728 0.00792586 1.9685e-05 
v 0.000193206 0.00356347 1.9685e-05 
v 0.000577351 0.00352169 1.9685e-05 
v -0.000429728 0.00792586 1.9685e-05 
v -0.000193206 0.00356347 1.9685e-05 
v 0.00513863 0.00604966 1.9685e-05 
v 0.00231033 0.00271993 1.9685e-05 
v 0.00445442 0.00656978 1.9685e-05 
v 0.00200271 0.00295377 1.9685e-05 
v 0.00371799 0.00701288 1.9685e-05 
v 0.00167161 0.00315299 1.9685e-05 
v -0.00128414 0.00783294 1.9685e-05 
v -0.000577351 0.00352169 1.9685e-05 
v 0.00212351 0.00764818 1.9685e-05 
v 0.000954728 0.00343862 1.9685e-05 
v 0.00132091 0.00331524 1.9685e-05 
v 0.00128414 0.00783294 1.9685e-05 
v -0.00212351 0.00764818 1.9685e-05 
v -0.000954728 0.00343862 1.9685e-05 
v 0.00293797 0.00737375 1.9685e-05 
v -0.00445442 0.00656978 1.9685e-05 
v -0.00200271 0.00295377 1.9685e-05 
v -0.00167161 0.00315299 1.9685e-05 
v -0.00513863 0.00604966 1.9685e-05 
v -0.00231033 0.00271993 1.9685e-05 
v -0.00631899 0.00480357 1.9685e-05 
v -0.00284102 0.00215969 1.9685e-05 
v -0.00259086 0.00245419 1.9685e-05 
v -0.0068013 0.00409221 1.9685e-05 
v -0.00305787 0.00183986 1.9685e-05 
v -0.00293797 0.00737375 1.9685e-05 
v -0.00132091 0.00331524 1.9685e-05 
v -0.00371799 0.00701288 1.9685e-05 
v -0.00576259 0.00545861 1.9685e-05 
v -0.00720388 0.00333287 1.9685e-05 
v -0.00323886 0.00149846 1.9685e-05 
v -0.007522 0.00253446 1.9685e-05 
v -0.00338189 0.00113949 1.9685e-05 
v -0.00775193 0.00170633 1.9685e-05 
v -0.00348527 0.000767165 1.9685e-05 
v -0.00513863 -0.00604966 1.9685e-05 
v -0.00231033 -0.00271993 1.9685e-05 
v -0.00259086 -0.00245419 1.9685e-05 
v -0.00445442 -0.00656978 1.9685e-05 
v -0.00200271 -0.00295377 1.9685e-05 
v -0.00293797 -0.00737375 1.9685e-05 
v -0.00132091 -0.00331524 1.9685e-05 
v -0.00167161 -0.00315299 1.9685e-05 
v -0.00212351 -0.00764818 1.9685e-05 
v -0.000954728 -0.00343862 1.9685e-05 
v -0.00128414 -0.00783294 1.9685e-05 
v -0.000577351 -0.00352169 1.9685e-05 
v -0.000429728 -0.00792586 1.9685e-05 
v -0.000193206 -0.00356347 1.9685e-05 
v 0.000429728 -0.00792586 1.9685e-05 
v 0.000193206 -0.00356347 1.9685e-05 
v 0.00128414 -0.00783294 1.9685e-05 
v 0.000577351 -0.00352169 1.9685e-05 
v 0.00212351 -0.00764818 1.9685e-05 
v 0.000954728 -0.00343862 1.9685e-05 
v 0.00293797 -0.00737375 1.9685e-05 
v 0.00132091 -0.00331524 1.9685e-05 
v 0.00789097 0.000858195 1.9685e-05 
v 0.00354778 0.000385844 1.9685e-05 
v 0.0035687 4.3704e-19 1.9685e-05 
v 0.00775193 0.00170633 1.9685e-05 
v 0.00348527 0.000767165 1.9685e-05 
v 0.007522 0.00253446 1.9685e-05 
v 0.00338189 0.00113949 1.9685e-05 
v 0.00720388 0.00333287 1.9685e-05 
v -0.00789097 0.000858195 1.9685e-05 
v -0.00354778 0.000385844 1.9685e-05 
v -0.00576259 -0.00545861 1.9685e-05 
v -0.00284102 -0.00215969 1.9685e-05 
v 0.00445442 -0.00656978 1.9685e-05 
v 0.00200271 -0.00295377 1.9685e-05 
v 0.00167161 -0.00315299 1.9685e-05 
v 0.00513863 -0.00604966 1.9685e-05 
v 0.00231033 -0.00271993 1.9685e-05 
v -0.0079375 0 1.9685e-05 
v -0.0035687 0 1.9685e-05 
v -0.00789097 -0.000858195 1.9685e-05 
v -0.00354778 -0.000385844 1.9685e-05 
v -0.00775193 -0.00170633 1.9685e-05 
v -0.00348527 -0.000767165 1.9685e-05 
v -0.007522 -0.00253446 1.9685e-05 
v -0.00338189 -0.00113949 1.9685e-05 
v -0.00720388 -0.00333287 1.9685e-05 
v -0.00323886 -0.00149846 1.9685e-05 
v -0.0068013 -0.00409221 1.9685e-05 
v -0.00305787 -0.00183986 1.9685e-05 
v -0.00631899 -0.00480357 1.9685e-05 
v -0.00371799 -0.00701288 1.9685e-05 
v 0.00371799 -0.00701288 1.9685e-05 
v 0.00631899 -0.00480357 1.9685e-05 
v 0.00284102 -0.00215969 1.9685e-05 
v 0.00259086 -0.00245419 1.9685e-05 
v 0.0068013 -0.00409221 1.9685e-05 
v 0.00305787 -0.00183986 1.9685e-05 
v 0.007522 -0.00253446 1.9685e-05 
v 0.00338189 -0.00113949 1.9685e-05 
v 0.00323886 -0.00149846 1.9685e-05 
v 0.00775193 -0.00170633 1.9685e-05 
v 0.00348527 -0.000767165 1.9685e-05 
v 0.00576259 -0.00545861 1.9685e-05 
v 0.00720388 -0.00333287 1.9685e-05 
v 0.00789097 -0.000858195 1.9685e-05 
v 0.00354778 -0.000385844 1.9685e-05 
v 0.0079375 2.91619e-18 1.9685e-05 
vn 0 0 1 
vn 0 0 1 
vn 0 0 1 
vn 0 0 1 
vn 0 0 1 
vn 0 0 1 
vn 0 0 1 
vn 0 0 1 
vn 0 0 1 
vn 0 0 1 
vn 0 0 1 
vn 0 0 1 
vn 0 0 1 
vn 0 0 1 
vn 0 0 1 
vn 0 0 1 
vn 0 0 1 
vn 0 0 1 
vn 0 0 1 
vn 0 0 1 
vn 0 0 1 
vn 0 0 1 
vn 0 0 1 
vn 0 0 1 
vn 0 0 1 
vn 0 0 1 
vn 0 0 1 
vn 0 0 1 
vn 0 0 1 
vn 0 0 1 
vn 0 0 1 
vn 0 0 1 
vn 0 0 1 
vn 0 0 1 
vn 0 0 1 
vn 0 0 1 
vn 0 0 1 
vn 0 0 1 
vn 0 0 1 
vn 0 0 1 
vn 0 0 1 
vn 0 0 1 
vn 0 0 1 
vn 0 0 1 
vn 0 0 1 
vn 0 0 1 
vn 0 0 1 
vn 0 0 1 
vn 0 0 1 
vn 0 0 1 
vn 0 0 1 
vn 0 0 1 
vn 0 0 1 
vn 0 0 1 
vn 0 0 1 
vn 0 0 1 
vn 0 0 1 
vn 0 0 1 
vn 0 0 1 
vn 0 0 1 
vn 0 0 1 
vn 0 0 1 
vn 0 0 1 
vn 0 0 1 
vn 0 0 1 
vn 0 0 1 
vn 0 0 1 
vn 0 0 1 
vn 0 0 1 
vn 0 0 1 
vn 0 0 1 
vn 0 0 1 
vn 0 0 1 
vn 0 0 1 
vn 0 0 1 
vn 0 0 1 
vn 0 0 1 
vn 0 0 1 
vn 0 0 1 
vn 0 0 1 
vn 0 0 1 
vn 0 0 1 
vn 0 0 1 
vn 0 0 1 
vn 0 0 1 
vn 0 0 1 
vn 0 0 1 
vn 0 0 1 
vn 0 0 1 
vn 0 0 1 
vn 0 0 1 
vn 0 0 1 
vn 0 0 1 
vn 0 0 1 
vn 0 0 1 
vn 0 0 1 
vn 0 0 1 
vn 0 0 1 
vn 0 0 1 
vn 0 0 1 
vn 0 0 1 
vn 0 0 1 
vn 0 0 1 
vn 0 0 1 
vn 0 0 1 
vn 0 0 1 
vn 0 0 1 
vn 0 0 1 
vn 0 0 1 
vn 0 0 1 
vn 0 0 1 
vn 0 0 1 
vn 0 0 1 
vn 0 0 1 
vn 0 0 1 
vn 0 0 1 
f 1//1 2//2 3//3 
f 1//1 4//4 5//5 
f 5//5 2//2 1//1 
f 4//4 6//6 7//7 
f 8//8 9//9 10//10 
f 8//8 11//11 12//12 
f 7//7 5//5 4//4 
f 13//13 14//14 7//7 
f 15//15 16//16 14//14 
f 15//15 17//17 18//18 
f 12//12 9//9 8//8 
f 11//11 19//19 20//20 
f 7//7 6//6 13//13 
f 18//18 16//16 15//15 
f 21//21 22//22 23//23 
f 21//21 24//24 10//10 
f 20//20 12//12 11//11 
f 19//19 25//25 26//26 
f 14//14 13//13 15//15 
f 17//17 27//27 23//23 
f 10//10 22//22 21//21 
f 26//26 20//20 19//19 
f 28//28 29//29 30//30 
f 28//28 31//31 32//32 
f 33//33 34//34 35//35 
f 33//33 36//36 37//37 
f 23//23 18//18 17//17 
f 10//10 24//24 8//8 
f 38//38 39//39 26//26 
f 38//38 40//40 30//30 
f 32//32 29//29 28//28 
f 31//31 41//41 35//35 
f 37//37 34//34 33//33 
f 36//36 42//42 43//43 
f 44//44 45//45 43//43 
f 44//44 46//46 47//47 
f 48//48 49//49 50//50 
f 48//48 51//51 52//52 
f 53//53 54//54 55//55 
f 53//53 56//56 57//57 
f 58//58 59//59 57//57 
f 58//58 60//60 61//61 
f 60//60 62//62 63//63 
f 62//62 64//64 65//65 
f 66//66 67//67 65//65 
f 66//66 68//68 69//69 
f 70//70 71//71 72//72 
f 70//70 73//73 74//74 
f 75//75 76//76 74//74 
f 75//75 77//77 3//3 
f 23//23 27//27 21//21 
f 30//30 39//39 38//38 
f 35//35 32//32 31//31 
f 43//43 37//37 36//36 
f 47//47 45//45 44//44 
f 46//46 78//78 79//79 
f 80//80 50//50 81//81 
f 52//52 49//49 48//48 
f 57//57 54//54 53//53 
f 61//61 59//59 58//58 
f 65//65 63//63 62//62 
f 69//69 67//67 66//66 
f 82//82 83//83 84//84 
f 82//82 85//85 86//86 
f 74//74 71//71 70//70 
f 3//3 76//76 75//75 
f 26//26 25//25 38//38 
f 35//35 41//41 33//33 
f 79//79 47//47 46//46 
f 78//78 87//87 88//88 
f 89//89 90//90 88//88 
f 89//89 91//91 92//92 
f 93//93 94//94 92//92 
f 93//93 95//95 96//96 
f 97//97 98//98 96//96 
f 97//97 99//99 81//81 
f 50//50 80//80 48//48 
f 51//51 100//100 55//55 
f 57//57 56//56 58//58 
f 65//65 64//64 66//66 
f 101//101 84//84 69//69 
f 86//86 83//83 82//82 
f 102//102 103//103 104//104 
f 102//102 105//105 106//106 
f 107//107 108//108 109//109 
f 107//107 110//110 111//111 
f 74//74 73//73 75//75 
f 30//30 40//40 28//28 
f 88//88 79//79 78//78 
f 92//92 90//90 89//89 
f 96//96 94//94 93//93 
f 81//81 98//98 97//97 
f 55//55 52//52 51//51 
f 63//63 61//61 60//60 
f 84//84 101//101 82//82 
f 85//85 112//112 104//104 
f 106//106 103//103 102//102 
f 105//105 113//113 109//109 
f 111//111 108//108 107//107 
f 110//110 114//114 115//115 
f 3//3 77//77 1//1 
f 88//88 87//87 89//89 
f 96//96 95//95 97//97 
f 55//55 100//100 53//53 
f 104//104 86//86 85//85 
f 109//109 106//106 105//105 
f 115//115 111//111 110//110 
f 114//114 116//116 72//72 
f 43//43 42//42 44//44 
f 81//81 99//99 80//80 
f 104//104 112//112 102//102 
f 72//72 115//115 114//114 
f 92//92 91//91 93//93 
f 109//109 113//113 107//107 
f 69//69 68//68 101//101 
f 72//72 116//116 70//70 
o mesh4279
v -0.0079375 0 -1.9685e-05 
v -0.0079375 0 1.9685e-05 
v -0.00789097 0.000858195 1.9685e-05 
v -0.00789097 0.000858195 -1.9685e-05 
v -0.00775193 0.00170633 1.9685e-05 
v -0.00775193 0.00170633 -1.9685e-05 
v -0.007522 0.00253446 1.9685e-05 
v -0.007522 0.00253446 -1.9685e-05 
v -0.00720388 0.00333287 1.9685e-05 
v -0.00720388 0.00333287 -1.9685e-05 
v -0.0068013 0.00409221 1.9685e-05 
v -0.0068013 0.00409221 -1.9685e-05 
v -0.00631899 0.00480357 1.9685e-05 
v -0.00631899 0.00480357 -1.9685e-05 
v -0.00576259 0.00545861 1.9685e-05 
v -0.00576259 0.00545861 -1.9685e-05 
v -0.00513863 0.00604966 1.9685e-05 
v -0.00513863 0.00604966 -1.9685e-05 
v -0.00445442 0.00656978 1.9685e-05 
v -0.00445442 0.00656978 -1.9685e-05 
v -0.00371799 0.00701288 1.9685e-05 
v -0.00371799 0.00701288 -1.9685e-05 
v -0.00293797 0.00737375 1.9685e-05 
v -0.00293797 0.00737375 -1.9685e-05 
v -0.00212351 0.00764818 1.9685e-05 
v -0.00212351 0.00764818 -1.9685e-05 
v -0.00128414 0.00783294 1.9685e-05 
v -0.00128414 0.00783294 -1.9685e-05 
v -0.000429728 0.00792586 1.9685e-05 
v -0.000429728 0.00792586 -1.9685e-05 
v 0.000429728 0.00792586 1.9685e-05 
v 0.000429728 0.00792586 -1.9685e-05 
v 0.00128414 0.00783294 1.9685e-05 
v 0.00128414 0.00783294 -1.9685e-05 
v 0.00212351 0.00764818 1.9685e-05 
v 0.00212351 0.00764818 -1.9685e-05 
v 0.00293797 0.00737375 1.9685e-05 
v 0.00293797 0.00737375 -1.9685e-05 
v 0.00371799 0.00701288 1.9685e-05 
v 0.00371799 0.00701288 -1.9685e-05 
v 0.00445442 0.00656978 1.9685e-05 
v 0.00445442 0.00656978 -1.9685e-05 
v 0.00513863 0.00604966 1.9685e-05 
v 0.00513863 0.00604966 -1.9685e-05 
v 0.00576259 0.00545861 1.9685e-05 
v 0.00576259 0.00545861 -1.9685e-05 
v 0.00631899 0.00480357 1.9685e-05 
v 0.00631899 0.00480357 -1.9685e-05 
v 0.0068013 0.00409221 1.9685e-05 
v 0.0068013 0.00409221 -1.9685e-05 
v 0.00720388 0.00333287 1.9685e-05 
v 0.00720388 0.00333287 -1.9685e-05 
v 0.007522 0.00253446 1.9685e-05 
v 0.007522 0.00253446 -1.9685e-05 
v 0.00775193 0.00170633 1.9685e-05 
v 0.00775193 0.00170633 -1.9685e-05 
v 0.00789097 0.000858195 1.9685e-05 
v 0.00789097 0.000858195 -1.9685e-05 
v 0.0079375 2.91619e-18 1.9685e-05 
v 0.0079375 9.72063e-19 -1.9685e-05 
v 0.00789097 -0.000858195 1.9685e-05 
v 0.00789097 -0.000858195 -1.9685e-05 
v 0.00775193 -0.00170633 1.9685e-05 
v 0.00775193 -0.00170633 -1.9685e-05 
v 0.007522 -0.00253446 1.9685e-05 
v 0.007522 -0.00253446 -1.9685e-05 
v 0.00720388 -0.00333287 1.9685e-05 
v 0.00720388 -0.00333287 -1.9685e-05 
v 0.0068013 -0.00409221 1.9685e-05 
v 0.0068013 -0.00409221 -1.9685e-05 
v 0.00631899 -0.00480357 1.9685e-05 
v 0.00631899 -0.00480357 -1.9685e-05 
v 0.00576259 -0.00545861 1.9685e-05 
v 0.00576259 -0.00545861 -1.9685e-05 
v 0.00513863 -0.00604966 1.9685e-05 
v 0.00513863 -0.00604966 -1.9685e-05 
v 0.00445442 -0.00656978 1.9685e-05 
v 0.00445442 -0.00656978 -1.9685e-05 
v 0.00371799 -0.00701288 1.9685e-05 
v 0.00371799 -0.00701288 -1.9685e-05 
v 0.00293797 -0.00737375 1.9685e-05 
v 0.00293797 -0.00737375 -1.9685e-05 
v 0.00212351 -0.00764818 1.9685e-05 
v 0.00212351 -0.00764818 -1.9685e-05 
v 0.00128414 -0.00783294 1.9685e-05 
v 0.00128414 -0.00783294 -1.9685e-05 
v 0.000429728 -0.00792586 1.9685e-05 
v 0.000429728 -0.00792586 -1.9685e-05 
v -0.000429728 -0.00792586 1.9685e-05 
v -0.000429728 -0.00792586 -1.9685e-05 
v -0.00128414 -0.00783294 1.9685e-05 
v -0.00128414 -0.00783294 -1.9685e-05 
v -0.00212351 -0.00764818 1.9685e-05 
v -0.00212351 -0.00764818 -1.9685e-05 
v -0.00293797 -0.00737375 1.9685e-05 
v -0.00293797 -0.00737375 -1.9685e-05 
v -0.00371799 -0.00701288 1.9685e-05 
v -0.00371799 -0.00701288 -1.9685e-05 
v -0.00445442 -0.00656978 1.9685e-05 
v -0.00445442 -0.00656978 -1.9685e-05 
v -0.00513863 -0.00604966 1.9685e-05 
v -0.00513863 -0.00604966 -1.9685e-05 
v -0.00576259 -0.00545861 1.9685e-05 
v -0.00576259 -0.00545861 -1.9685e-05 
v -0.00631899 -0.00480357 1.9685e-05 
v -0.00631899 -0.00480357 -1.9685e-05 
v -0.0068013 -0.00409221 1.9685e-05 
v -0.0068013 -0.00409221 -1.9685e-05 
v -0.00720388 -0.00333287 1.9685e-05 
v -0.00720388 -0.00333287 -1.9685e-05 
v -0.007522 -0.00253446 1.9685e-05 
v -0.007522 -0.00253446 -1.9685e-05 
v -0.00775193 -0.00170633 1.9685e-05 
v -0.00775193 -0.00170633 -1.9685e-05 
v -0.00789097 -0.000858195 1.9685e-05 
v -0.00789097 -0.000858195 -1.9685e-05 
vn -1 0 0 
vn -1 0 0 
vn -0.994138 0.108119 0 
vn -0.994138 0.108119 0 
vn -0.976621 0.21497 0 
vn -0.976621 0.21497 0 
vn -0.947653 0.319302 0 
vn -0.947653 0.319302 0 
vn -0.907575 0.419889 0 
vn -0.907575 0.419889 0 
vn -0.856857 0.515554 0 
vn -0.856857 0.515554 0 
vn -0.796093 0.605174 0 
vn -0.796093 0.605174 0 
vn -0.725995 0.687699 0 
vn -0.725995 0.687699 0 
vn -0.647386 0.762162 0 
vn -0.647386 0.762162 0 
vn -0.561187 0.827689 0 
vn -0.561187 0.827689 0 
vn -0.468408 0.883512 0 
vn -0.468408 0.883512 0 
vn -0.370138 0.928977 0 
vn -0.370138 0.928977 0 
vn -0.267528 0.96355 0 
vn -0.267528 0.96355 0 
vn -0.161782 0.986827 0 
vn -0.161782 0.986827 0 
vn -0.0541389 0.998533 0 
vn -0.0541389 0.998533 0 
vn 0.0541389 0.998533 0 
vn 0.0541389 0.998533 0 
vn 0.161782 0.986827 0 
vn 0.161782 0.986827 0 
vn 0.267528 0.96355 0 
vn 0.267528 0.96355 0 
vn 0.370138 0.928977 0 
vn 0.370138 0.928977 0 
vn 0.468408 0.883512 0 
vn 0.468408 0.883512 0 
vn 0.561187 0.827689 0 
vn 0.561187 0.827689 0 
vn 0.647386 0.762162 0 
vn 0.647386 0.762162 0 
vn 0.725995 0.687699 0 
vn 0.725995 0.687699 0 
vn 0.796093 0.605174 0 
vn 0.796093 0.605174 0 
vn 0.856857 0.515554 0 
vn 0.856857 0.515554 0 
vn 0.907575 0.419889 0 
vn 0.907575 0.419889 0 
vn 0.947653 0.319302 0 
vn 0.947653 0.319302 0 
vn 0.976621 0.21497 0 
vn 0.976621 0.21497 0 
vn 0.994138 0.108119 0 
vn 0.994138 0.108119 0 
vn 1 1.22465e-16 0 
vn 1 1.22465e-16 0 
vn 0.994138 -0.108119 0 
vn 0.994138 -0.108119 0 
vn 0.976621 -0.21497 0 
vn 0.976621 -0.21497 0 
vn 0.947653 -0.319302 0 
vn 0.947653 -0.319302 0 
vn 0.907575 -0.419889 0 
vn 0.907575 -0.419889 0 
vn 0.856857 -0.515554 0 
vn 0.856857 -0.515554 0 
vn 0.796093 -0.605174 0 
vn 0.796093 -0.605174 0 
vn 0.725995 -0.687699 0 
vn 0.725995 -0.687699 0 
vn 0.647386 -0.762162 0 
vn 0.647386 -0.762162 0 
vn 0.561187 -0.827689 0 
vn 0.561187 -0.827689 0 
vn 0.468408 -0.883512 0 
vn 0.468408 -0.883512 0 
vn 0.370138 -0.928977 0 
vn 0.370138 -0.928977 0 
vn 0.267528 -0.96355 0 
vn 0.267528 -0.96355 0 
vn 0.161782 -0.986827 0 
vn 0.161782 -0.986827 0 
vn 0.0541389 -0.998533 0 
vn 0.0541389 -0.998533 0 
vn -0.0541389 -0.998533 0 
vn -0.0541389 -0.998533 0 
vn -0.161782 -0.986827 0 
vn -0.161782 -0.986827 0 
vn -0.267528 -0.96355 0 
vn -0.267528 -0.96355 0 
vn -0.370138 -0.928977 0 
vn -0.370138 -0.928977 0 
vn -0.468408 -0.883512 0 
vn -0.468408 -0.883512 0 
vn -0.561187 -0.827689 0 
vn -0.561187 -0.827689 0 
vn -0.647386 -0.762162 0 
vn -0.647386 -0.762162 0 
vn -0.725995 -0.687699 0 
vn -0.725995 -0.687699 0 
vn -0.796093 -0.605174 0 
vn -0.796093 -0.605174 0 
vn -0.856857 -0.515554 0 
vn -0.856857 -0.515554 0 
vn -0.907575 -0.419889 0 
vn -0.907575 -0.419889 0 
vn -0.947653 -0.319302 0 
vn -0.947653 -0.319302 0 
vn -0.976621 -0.21497 0 
vn -0.976621 -0.21497 0 
vn -0.994138 -0.108119 0 
vn -0.994138 -0.108119 0 
f 117//117 118//118 119//119 
f 120//120 119//119 121//121 
f 122//122 121//121 123//123 
f 124//124 123//123 125//125 
f 126//126 125//125 127//127 
f 128//128 127//127 129//129 
f 130//130 129//129 131//131 
f 132//132 131//131 133//133 
f 134//134 133//133 135//135 
f 136//136 135//135 137//137 
f 138//138 137//137 139//139 
f 140//140 139//139 141//141 
f 142//142 141//141 143//143 
f 144//144 143//143 145//145 
f 146//146 145//145 147//147 
f 148//148 147//147 149//149 
f 150//150 149//149 151//151 
f 152//152 151//151 153//153 
f 154//154 153//153 155//155 
f 156//156 155//155 157//157 
f 158//158 157//157 159//159 
f 160//160 159//159 161//161 
f 162//162 161//161 163//163 
f 164//164 163//163 165//165 
f 166//166 165//165 167//167 
f 168//168 167//167 169//169 
f 170//170 169//169 171//171 
f 172//172 171//171 173//173 
f 174//174 173//173 175//175 
f 176//176 175//175 177//177 
f 178//178 177//177 179//179 
f 180//180 179//179 181//181 
f 182//182 181//181 183//183 
f 184//184 183//183 185//185 
f 186//186 185//185 187//187 
f 188//188 187//187 189//189 
f 190//190 189//189 191//191 
f 192//192 191//191 193//193 
f 194//194 193//193 195//195 
f 196//196 195//195 197//197 
f 198//198 197//197 199//199 
f 200//200 199//199 201//201 
f 202//202 201//201 203//203 
f 204//204 203//203 205//205 
f 206//206 205//205 207//207 
f 208//208 207//207 209//209 
f 210//210 209//209 211//211 
f 212//212 211//211 213//213 
f 214//214 213//213 215//215 
f 216//216 215//215 217//217 
f 218//218 217//217 219//219 
f 220//220 219//219 221//221 
f 222//222 221//221 223//223 
f 224//224 223//223 225//225 
f 226//226 225//225 227//227 
f 228//228 227//227 229//229 
f 230//230 229//229 231//231 
f 232//232 231//231 118//118 
f 118//118 117//117 232//232 
f 231//231 232//232 230//230 
f 229//229 230//230 228//228 
f 227//227 228//228 226//226 
f 225//225 226//226 224//224 
f 223//223 224//224 222//222 
f 221//221 222//222 220//220 
f 219//219 220//220 218//218 
f 217//217 218//218 216//216 
f 215//215 216//216 214//214 
f 213//213 214//214 212//212 
f 211//211 212//212 210//210 
f 209//209 210//210 208//208 
f 207//207 208//208 206//206 
f 205//205 206//206 204//204 
f 203//203 204//204 202//202 
f 201//201 202//202 200//200 
f 199//199 200//200 198//198 
f 197//197 198//198 196//196 
f 195//195 196//196 194//194 
f 193//193 194//194 192//192 
f 191//191 192//192 190//190 
f 189//189 190//190 188//188 
f 187//187 188//188 186//186 
f 185//185 186//186 184//184 
f 183//183 184//184 182//182 
f 181//181 182//182 180//180 
f 179//179 180//180 178//178 
f 177//177 178//178 176//176 
f 175//175 176//176 174//174 
f 173//173 174//174 172//172 
f 171//171 172//172 170//170 
f 169//169 170//170 168//168 
f 167//167 168//168 166//166 
f 165//165 166//166 164//164 
f 163//163 164//164 162//162 
f 161//161 162//162 160//160 
f 159//159 160//160 158//158 
f 157//157 158//158 156//156 
f 155//155 156//156 154//154 
f 153//153 154//154 152//152 
f 151//151 152//152 150//150 
f 149//149 150//150 148//148 
f 147//147 148//148 146//146 
f 145//145 146//146 144//144 
f 143//143 144//144 142//142 
f 141//141 142//142 140//140 
f 139//139 140//140 138//138 
f 137//137 138//138 136//136 
f 135//135 136//136 134//134 
f 133//133 134//134 132//132 
f 131//131 132//132 130//130 
f 129//129 130//130 128//128 
f 127//127 128//128 126//126 
f 125//125 126//126 124//124 
f 123//123 124//124 122//122 
f 121//121 122//122 120//120 
f 119//119 120//120 117//117 
o mesh4280
v -0.00128414 0.00783294 -1.9685e-05 
v -0.000577351 0.00352169 -1.9685e-05 
v -0.000954728 0.00343862 -1.9685e-05 
v -0.000429728 0.00792586 -1.9685e-05 
v -0.000193206 0.00356347 -1.9685e-05 
v 0.00212351 -0.00764818 -1.9685e-05 
v 0.000954728 -0.00343862 -1.9685e-05 
v 0.00132091 -0.00331524 -1.9685e-05 
v 0.00128414 -0.00783294 -1.9685e-05 
v 0.000577351 -0.00352169 -1.9685e-05 
v 0.000429728 0.00792586 -1.9685e-05 
v 0.000193206 0.00356347 -1.9685e-05 
v 0.00445442 0.00656978 -1.9685e-05 
v 0.00200271 0.00295377 -1.9685e-05 
v 0.00167161 0.00315299 -1.9685e-05 
v 0.00513863 0.00604966 -1.9685e-05 
v 0.00231033 0.00271993 -1.9685e-05 
v 0.000429728 -0.00792586 -1.9685e-05 
v 0.000193206 -0.00356347 -1.9685e-05 
v -0.00128414 -0.00783294 -1.9685e-05 
v -0.000577351 -0.00352169 -1.9685e-05 
v -0.000193206 -0.00356347 -1.9685e-05 
v -0.00212351 -0.00764818 -1.9685e-05 
v -0.000954728 -0.00343862 -1.9685e-05 
v -0.00293797 -0.00737375 -1.9685e-05 
v -0.00132091 -0.00331524 -1.9685e-05 
v -0.00371799 -0.00701288 -1.9685e-05 
v -0.00167161 -0.00315299 -1.9685e-05 
v -0.00513863 -0.00604966 -1.9685e-05 
v -0.00231033 -0.00271993 -1.9685e-05 
v -0.00200271 -0.00295377 -1.9685e-05 
v -0.00576259 -0.00545861 -1.9685e-05 
v -0.00259086 -0.00245419 -1.9685e-05 
v 0.00128414 0.00783294 -1.9685e-05 
v 0.000577351 0.00352169 -1.9685e-05 
v 0.00212351 0.00764818 -1.9685e-05 
v 0.000954728 0.00343862 -1.9685e-05 
v 0.00293797 0.00737375 -1.9685e-05 
v 0.00132091 0.00331524 -1.9685e-05 
v 0.00371799 0.00701288 -1.9685e-05 
v 0.0068013 0.00409221 -1.9685e-05 
v 0.00305787 0.00183986 -1.9685e-05 
v 0.00284102 0.00215969 -1.9685e-05 
v 0.00720388 0.00333287 -1.9685e-05 
v 0.00323886 0.00149846 -1.9685e-05 
v 0.00445442 -0.00656978 -1.9685e-05 
v 0.00200271 -0.00295377 -1.9685e-05 
v 0.00231033 -0.00271993 -1.9685e-05 
v 0.00371799 -0.00701288 -1.9685e-05 
v 0.00167161 -0.00315299 -1.9685e-05 
v -0.000429728 -0.00792586 -1.9685e-05 
v -0.00631899 -0.00480357 -1.9685e-05 
v -0.00284102 -0.00215969 -1.9685e-05 
v -0.00631899 0.00480357 -1.9685e-05 
v -0.00284102 0.00215969 -1.9685e-05 
v -0.00305787 0.00183986 -1.9685e-05 
v -0.00576259 0.00545861 -1.9685e-05 
v -0.00259086 0.00245419 -1.9685e-05 
v -0.00445442 0.00656978 -1.9685e-05 
v -0.00200271 0.00295377 -1.9685e-05 
v -0.00231033 0.00271993 -1.9685e-05 
v -0.00371799 0.00701288 -1.9685e-05 
v -0.00167161 0.00315299 -1.9685e-05 
v -0.00293797 0.00737375 -1.9685e-05 
v -0.00132091 0.00331524 -1.9685e-05 
v -0.00212351 0.00764818 -1.9685e-05 
v 0.00576259 0.00545861 -1.9685e-05 
v 0.00259086 0.00245419 -1.9685e-05 
v 0.00631899 0.00480357 -1.9685e-05 
v 0.00789097 -0.000858195 -1.9685e-05 
v 0.00354778 -0.000385844 -1.9685e-05 
v 0.0035687 1.31112e-18 -1.9685e-05 
v 0.00775193 -0.00170633 -1.9685e-05 
v 0.00348527 -0.000767165 -1.9685e-05 
v 0.007522 -0.00253446 -1.9685e-05 
v 0.00338189 -0.00113949 -1.9685e-05 
v 0.00720388 -0.00333287 -1.9685e-05 
v 0.00323886 -0.00149846 -1.9685e-05 
v 0.00631899 -0.00480357 -1.9685e-05 
v 0.00284102 -0.00215969 -1.9685e-05 
v 0.00305787 -0.00183986 -1.9685e-05 
v 0.00576259 -0.00545861 -1.9685e-05 
v 0.00259086 -0.00245419 -1.9685e-05 
v 0.00293797 -0.00737375 -1.9685e-05 
v -0.00445442 -0.00656978 -1.9685e-05 
v -0.0068013 0.00409221 -1.9685e-05 
v -0.00323886 0.00149846 -1.9685e-05 
v -0.00513863 0.00604966 -1.9685e-05 
v 0.00789097 0.000858195 -1.9685e-05 
v 0.00354778 0.000385844 -1.9685e-05 
v 0.00348527 0.000767165 -1.9685e-05 
v 0.0079375 9.72063e-19 -1.9685e-05 
v 0.0068013 -0.00409221 -1.9685e-05 
v 0.00513863 -0.00604966 -1.9685e-05 
v -0.0068013 -0.00409221 -1.9685e-05 
v -0.00305787 -0.00183986 -1.9685e-05 
v -0.00720388 -0.00333287 -1.9685e-05 
v -0.00323886 -0.00149846 -1.9685e-05 
v -0.00789097 0.000858195 -1.9685e-05 
v -0.00354778 0.000385844 -1.9685e-05 
v -0.0035687 0 -1.9685e-05 
v -0.00775193 0.00170633 -1.9685e-05 
v -0.00348527 0.000767165 -1.9685e-05 
v -0.007522 0.00253446 -1.9685e-05 
v -0.00338189 0.00113949 -1.9685e-05 
v -0.00720388 0.00333287 -1.9685e-05 
v -0.007522 -0.00253446 -1.9685e-05 
v -0.00338189 -0.00113949 -1.9685e-05 
v -0.00775193 -0.00170633 -1.9685e-05 
v -0.00348527 -0.000767165 -1.9685e-05 
v 0.007522 0.00253446 -1.9685e-05 
v 0.00338189 0.00113949 -1.9685e-05 
v 0.00775193 0.00170633 -1.9685e-05 
v -0.00789097 -0.000858195 -1.9685e-05 
v -0.00354778 -0.000385844 -1.9685e-05 
v -0.0079375 0 -1.9685e-05 
vn 0 0 -1 
vn 0 0 -1 
vn 0 0 -1 
vn 0 0 -1 
vn 0 0 -1 
vn 0 0 -1 
vn 0 0 -1 
vn 0 0 -1 
vn 0 0 -1 
vn 0 0 -1 
vn 0 0 -1 
vn 0 0 -1 
vn 0 0 -1 
vn 0 0 -1 
vn 0 0 -1 
vn 0 0 -1 
vn 0 0 -1 
vn 0 0 -1 
vn 0 0 -1 
vn 0 0 -1 
vn 0 0 -1 
vn 0 0 -1 
vn 0 0 -1 
vn 0 0 -1 
vn 0 0 -1 
vn 0 0 -1 
vn 0 0 -1 
vn 0 0 -1 
vn 0 0 -1 
vn 0 0 -1 
vn 0 0 -1 
vn 0 0 -1 
vn 0 0 -1 
vn 0 0 -1 
vn 0 0 -1 
vn 0 0 -1 
vn 0 0 -1 
vn 0 0 -1 
vn 0 0 -1 
vn 0 0 -1 
vn 0 0 -1 
vn 0 0 -1 
vn 0 0 -1 
vn 0 0 -1 
vn 0 0 -1 
vn 0 0 -1 
vn 0 0 -1 
vn 0 0 -1 
vn 0 0 -1 
vn 0 0 -1 
vn 0 0 -1 
vn 0 0 -1 
vn 0 0 -1 
vn 0 0 -1 
vn 0 0 -1 
vn 0 0 -1 
vn 0 0 -1 
vn 0 0 -1 
vn 0 0 -1 
vn 0 0 -1 
vn 0 0 -1 
vn 0 0 -1 
vn 0 0 -1 
vn 0 0 -1 
vn 0 0 -1 
vn 0 0 -1 
vn 0 0 -1 
vn 0 0 -1 
vn 0 0 -1 
vn 0 0 -1 
vn 0 0 -1 
vn 0 0 -1 
vn 0 0 -1 
vn 0 0 -1 
vn 0 0 -1 
vn 0 0 -1 
vn 0 0 -1 
vn 0 0 -1 
vn 0 0 -1 
vn 0 0 -1 
vn 0 0 -1 
vn 0 0 -1 
vn 0 0 -1 
vn 0 0 -1 
vn 0 0 -1 
vn 0 0 -1 
vn 0 0 -1 
vn 0 0 -1 
vn 0 0 -1 
vn 0 0 -1 
vn 0 0 -1 
vn 0 0 -1 
vn 0 0 -1 
vn 0 0 -1 
vn 0 0 -1 
vn 0 0 -1 
vn 0 0 -1 
vn 0 0 -1 
vn 0 0 -1 
vn 0 0 -1 
vn 0 0 -1 
vn 0 0 -1 
vn 0 0 -1 
vn 0 0 -1 
vn 0 0 -1 
vn 0 0 -1 
vn 0 0 -1 
vn 0 0 -1 
vn 0 0 -1 
vn 0 0 -1 
vn 0 0 -1 
vn 0 0 -1 
vn 0 0 -1 
vn 0 0 -1 
vn 0 0 -1 
vn 0 0 -1 
f 233//233 234//234 235//235 
f 236//236 237//237 234//234 
f 238//238 239//239 240//240 
f 238//238 241//241 242//242 
f 234//234 233//233 236//236 
f 236//236 243//243 244//244 
f 245//245 246//246 247//247 
f 245//245 248//248 249//249 
f 242//242 239//239 238//238 
f 241//241 250//250 251//251 
f 252//252 253//253 254//254 
f 252//252 255//255 256//256 
f 257//257 258//258 256//256 
f 257//257 259//259 260//260 
f 261//261 262//262 263//263 
f 261//261 264//264 265//265 
f 244//244 237//237 236//236 
f 243//243 266//266 267//267 
f 268//268 269//269 267//267 
f 268//268 270//270 271//271 
f 272//272 247//247 271//271 
f 249//249 246//246 245//245 
f 273//273 274//274 275//275 
f 273//273 276//276 277//277 
f 278//278 279//279 280//280 
f 278//278 281//281 282//282 
f 251//251 242//242 241//241 
f 283//283 254//254 251//251 
f 256//256 253//253 252//252 
f 260//260 258//258 257//257 
f 265//265 262//262 261//261 
f 264//264 284//284 285//285 
f 286//286 287//287 288//288 
f 286//286 289//289 290//290 
f 291//291 292//292 293//293 
f 291//291 294//294 295//295 
f 296//296 297//297 295//295 
f 296//296 298//298 235//235 
f 267//267 244//244 243//243 
f 271//271 269//269 268//268 
f 247//247 272//272 245//245 
f 248//248 299//299 300//300 
f 299//299 301//301 275//275 
f 277//277 274//274 273//273 
f 302//302 303//303 304//304 
f 305//305 306//306 303//303 
f 307//307 308//308 306//306 
f 307//307 309//309 310//310 
f 311//311 312//312 313//313 
f 311//311 314//314 315//315 
f 282//282 279//279 278//278 
f 281//281 316//316 240//240 
f 251//251 250//250 283//283 
f 256//256 255//255 257//257 
f 317//317 263//263 260//260 
f 285//285 265//265 264//264 
f 318//318 288//288 319//319 
f 290//290 287//287 286//286 
f 320//320 293//293 290//290 
f 295//295 292//292 291//291 
f 235//235 297//297 296//296 
f 267//267 266//266 268//268 
f 300//300 249//249 248//248 
f 275//275 301//301 273//273 
f 321//321 322//322 323//323 
f 321//321 324//324 304//304 
f 303//303 302//302 305//305 
f 310//310 308//308 307//307 
f 325//325 313//313 310//310 
f 315//315 312//312 311//311 
f 314//314 326//326 280//280 
f 240//240 282//282 281//281 
f 254//254 283//283 252//252 
f 263//263 317//317 261//261 
f 327//327 328//328 285//285 
f 327//327 329//329 330//330 
f 331//331 332//332 333//333 
f 334//334 335//335 332//332 
f 336//336 337//337 335//335 
f 336//336 338//338 319//319 
f 288//288 318//318 286//286 
f 293//293 320//320 291//291 
f 235//235 298//298 233//233 
f 275//275 300//300 299//299 
f 304//304 322//322 321//321 
f 306//306 305//305 307//307 
f 313//313 325//325 311//311 
f 280//280 326//326 278//278 
f 260//260 259//259 317//317 
f 330//330 328//328 327//327 
f 339//339 340//340 330//330 
f 339//339 341//341 342//342 
f 332//332 331//331 334//334 
f 319//319 337//337 336//336 
f 290//290 289//289 320//320 
f 271//271 270//270 272//272 
f 304//304 324//324 302//302 
f 280//280 315//315 314//314 
f 285//285 284//284 327//327 
f 342//342 340//340 339//339 
f 335//335 334//334 336//336 
f 295//295 294//294 296//296 
f 343//343 344//344 277//277 
f 343//343 345//345 323//323 
f 310//310 309//309 325//325 
f 330//330 329//329 339//339 
f 346//346 347//347 342//342 
f 346//346 348//348 333//333 
f 319//319 338//338 318//318 
f 323//323 344//344 343//343 
f 240//240 316//316 238//238 
f 333//333 347//347 346//346 
f 277//277 276//276 343//343 
f 342//342 341//341 346//346 
f 323//323 345//345 321//321 
f 333//333 348//348 331//331 
o mesh4281
v -0.00354778 -0.000385844 -1.9685e-05 
v -0.0035687 0 -1.9685e-05 
v -0.0035687 0 1.9685e-05 
v -0.00348527 -0.000767165 -1.9685e-05 
v -0.00354778 -0.000385844 1.9685e-05 
v -0.00338189 -0.00113949 -1.9685e-05 
v -0.00348527 -0.000767165 1.9685e-05 
v -0.00323886 -0.00149846 -1.9685e-05 
v -0.00338189 -0.00113949 1.9685e-05 
v -0.00305787 -0.00183986 -1.9685e-05 
v -0.00323886 -0.00149846 1.9685e-05 
v -0.00284102 -0.00215969 -1.9685e-05 
v -0.00305787 -0.00183986 1.9685e-05 
v -0.00259086 -0.00245419 -1.9685e-05 
v -0.00284102 -0.00215969 1.9685e-05 
v -0.00231033 -0.00271993 -1.9685e-05 
v -0.00259086 -0.00245419 1.9685e-05 
v -0.00200271 -0.00295377 -1.9685e-05 
v -0.00231033 -0.00271993 1.9685e-05 
v -0.00167161 -0.00315299 -1.9685e-05 
v -0.00200271 -0.00295377 1.9685e-05 
v -0.00132091 -0.00331524 -1.9685e-05 
v -0.00167161 -0.00315299 1.9685e-05 
v -0.000954728 -0.00343862 -1.9685e-05 
v -0.00132091 -0.00331524 1.9685e-05 
v -0.000577351 -0.00352169 -1.9685e-05 
v -0.000954728 -0.00343862 1.9685e-05 
v -0.000193206 -0.00356347 -1.9685e-05 
v -0.000577351 -0.00352169 1.9685e-05 
v 0.000193206 -0.00356347 -1.9685e-05 
v -0.000193206 -0.00356347 1.9685e-05 
v 0.000577351 -0.00352169 -1.9685e-05 
v 0.000193206 -0.00356347 1.9685e-05 
v 0.000954728 -0.00343862 -1.9685e-05 
v 0.000577351 -0.00352169 1.9685e-05 
v 0.00132091 -0.00331524 -1.9685e-05 
v 0.000954728 -0.00343862 1.9685e-05 
v 0.00167161 -0.00315299 -1.9685e-05 
v 0.00132091 -0.00331524 1.9685e-05 
v 0.00200271 -0.00295377 -1.9685e-05 
v 0.00167161 -0.00315299 1.9685e-05 
v 0.00231033 -0.00271993 -1.9685e-05 
v 0.00200271 -0.00295377 1.9685e-05 
v 0.00259086 -0.00245419 -1.9685e-05 
v 0.00231033 -0.00271993 1.9685e-05 
v 0.00284102 -0.00215969 -1.9685e-05 
v 0.00259086 -0.00245419 1.9685e-05 
v 0.00305787 -0.00183986 -1.9685e-05 
v 0.00284102 -0.00215969 1.9685e-05 
v 0.00323886 -0.00149846 -1.9685e-05 
v 0.00305787 -0.00183986 1.9685e-05 
v 0.00338189 -0.00113949 -1.9685e-05 
v 0.00323886 -0.00149846 1.9685e-05 
v 0.00348527 -0.000767165 -1.9685e-05 
v 0.00338189 -0.00113949 1.9685e-05 
v 0.00354778 -0.000385844 -1.9685e-05 
v 0.00348527 -0.000767165 1.9685e-05 
v 0.0035687 1.31112e-18 -1.9685e-05 
v 0.00354778 -0.000385844 1.9685e-05 
v 0.00354778 0.000385844 -1.9685e-05 
v 0.0035687 4.3704e-19 1.9685e-05 
v 0.00348527 0.000767165 -1.9685e-05 
v 0.00354778 0.000385844 1.9685e-05 
v 0.00338189 0.00113949 -1.9685e-05 
v 0.00348527 0.000767165 1.9685e-05 
v 0.00323886 0.00149846 -1.9685e-05 
v 0.00338189 0.00113949 1.9685e-05 
v 0.00305787 0.00183986 -1.9685e-05 
v 0.00323886 0.00149846 1.9685e-05 
v 0.00284102 0.00215969 -1.9685e-05 
v 0.00305787 0.00183986 1.9685e-05 
v 0.00259086 0.00245419 -1.9685e-05 
v 0.00284102 0.00215969 1.9685e-05 
v 0.00231033 0.00271993 -1.9685e-05 
v 0.00259086 0.00245419 1.9685e-05 
v 0.00200271 0.00295377 -1.9685e-05 
v 0.00231033 0.00271993 1.9685e-05 
v 0.00167161 0.00315299 -1.9685e-05 
v 0.00200271 0.00295377 1.9685e-05 
v 0.00132091 0.00331524 -1.9685e-05 
v 0.00167161 0.00315299 1.9685e-05 
v 0.000954728 0.00343862 -1.9685e-05 
v 0.00132091 0.00331524 1.9685e-05 
v 0.000577351 0.00352169 -1.9685e-05 
v 0.000954728 0.00343862 1.9685e-05 
v 0.000193206 0.00356347 -1.9685e-05 
v 0.000577351 0.00352169 1.9685e-05 
v -0.000193206 0.00356347 -1.9685e-05 
v 0.000193206 0.00356347 1.9685e-05 
v -0.000577351 0.00352169 -1.9685e-05 
v -0.000193206 0.00356347 1.9685e-05 
v -0.000954728 0.00343862 -1.9685e-05 
v -0.000577351 0.00352169 1.9685e-05 
v -0.00132091 0.00331524 -1.9685e-05 
v -0.000954728 0.00343862 1.9685e-05 
v -0.00167161 0.00315299 -1.9685e-05 
v -0.00132091 0.00331524 1.9685e-05 
v -0.00200271 0.00295377 -1.9685e-05 
v -0.00167161 0.00315299 1.9685e-05 
v -0.00231033 0.00271993 -1.9685e-05 
v -0.00200271 0.00295377 1.9685e-05 
v -0.00259086 0.00245419 -1.9685e-05 
v -0.00231033 0.00271993 1.9685e-05 
v -0.00284102 0.00215969 -1.9685e-05 
v -0.00259086 0.00245419 1.9685e-05 
v -0.00305787 0.00183986 -1.9685e-05 
v -0.00284102 0.00215969 1.9685e-05 
v -0.00323886 0.00149846 -1.9685e-05 
v -0.00305787 0.00183986 1.9685e-05 
v -0.00338189 0.00113949 -1.9685e-05 
v -0.00323886 0.00149846 1.9685e-05 
v -0.00348527 0.000767165 -1.9685e-05 
v -0.00338189 0.00113949 1.9685e-05 
v -0.00354778 0.000385844 -1.9685e-05 
v -0.00348527 0.000767165 1.9685e-05 
v -0.00354778 0.000385844 1.9685e-05 
vn 0.994138 0.108119 0 
vn 1 2.44929e-16 0 
vn 1 2.44929e-16 0 
vn 0.976621 0.21497 0 
vn 0.994138 0.108119 0 
vn 0.947653 0.319302 0 
vn 0.976621 0.21497 0 
vn 0.907575 0.419889 0 
vn 0.947653 0.319302 0 
vn 0.856857 0.515554 0 
vn 0.907575 0.419889 0 
vn 0.796093 0.605174 0 
vn 0.856857 0.515554 0 
vn 0.725995 0.687699 0 
vn 0.796093 0.605174 0 
vn 0.647386 0.762162 0 
vn 0.725995 0.687699 0 
vn 0.561187 0.827689 0 
vn 0.647386 0.762162 0 
vn 0.468408 0.883512 0 
vn 0.561187 0.827689 0 
vn 0.370138 0.928977 0 
vn 0.468408 0.883512 0 
vn 0.267528 0.96355 0 
vn 0.370138 0.928977 0 
vn 0.161782 0.986827 0 
vn 0.267528 0.96355 0 
vn 0.0541389 0.998533 0 
vn 0.161782 0.986827 0 
vn -0.0541389 0.998533 0 
vn 0.0541389 0.998533 0 
vn -0.161782 0.986827 0 
vn -0.0541389 0.998533 0 
vn -0.267528 0.96355 0 
vn -0.161782 0.986827 0 
vn -0.370138 0.928977 0 
vn -0.267528 0.96355 0 
vn -0.468408 0.883512 0 
vn -0.370138 0.928977 0 
vn -0.561187 0.827689 0 
vn -0.468408 0.883512 0 
vn -0.647386 0.762162 0 
vn -0.561187 0.827689 0 
vn -0.725995 0.687699 0 
vn -0.647386 0.762162 0 
vn -0.796093 0.605174 0 
vn -0.725995 0.687699 0 
vn -0.856857 0.515554 0 
vn -0.796093 0.605174 0 
vn -0.907575 0.419889 0 
vn -0.856857 0.515554 0 
vn -0.947653 0.319302 0 
vn -0.907575 0.419889 0 
vn -0.976621 0.21497 0 
vn -0.947653 0.319302 0 
vn -0.994138 0.108119 0 
vn -0.976621 0.21497 0 
vn -1 -1.22465e-16 0 
vn -0.994138 0.108119 0 
vn -0.994138 -0.108119 0 
vn -1 -1.22465e-16 0 
vn -0.976621 -0.21497 0 
vn -0.994138 -0.108119 0 
vn -0.947653 -0.319302 0 
vn -0.976621 -0.21497 0 
vn -0.907575 -0.419889 0 
vn -0.947653 -0.319302 0 
vn -0.856857 -0.515554 0 
vn -0.907575 -0.419889 0 
vn -0.796093 -0.605174 0 
vn -0.856857 -0.515554 0 
vn -0.725995 -0.687699 0 
vn -0.796093 -0.605174 0 
vn -0.647386 -0.762162 0 
vn -0.725995 -0.687699 0 
vn -0.561187 -0.827689 0 
vn -0.647386 -0.762162 0 
vn -0.468408 -0.883512 0 
vn -0.561187 -0.827689 0 
vn -0.370138 -0.928977 0 
vn -0.468408 -0.883512 0 
vn -0.267528 -0.96355 0 
vn -0.370138 -0.928977 0 
vn -0.161782 -0.986827 0 
vn -0.267528 -0.96355 0 
vn -0.0541389 -0.998533 0 
vn -0.161782 -0.986827 0 
vn 0.0541389 -0.998533 0 
vn -0.0541389 -0.998533 0 
vn 0.161782 -0.986827 0 
vn 0.0541389 -0.998533 0 
vn 0.267528 -0.96355 0 
vn 0.161782 -0.986827 0 
vn 0.370138 -0.928977 0 
vn 0.267528 -0.96355 0 
vn 0.468408 -0.883512 0 
vn 0.370138 -0.928977 0 
vn 0.561187 -0.827689 0 
vn 0.468408 -0.883512 0 
vn 0.647386 -0.762162 0 
vn 0.561187 -0.827689 0 
vn 0.725995 -0.687699 0 
vn 0.647386 -0.762162 0 
vn 0.796093 -0.605174 0 
vn 0.725995 -0.687699 0 
vn 0.856857 -0.515554 0 
vn 0.796093 -0.605174 0 
vn 0.907575 -0.419889 0 
vn 0.856857 -0.515554 0 
vn 0.947653 -0.319302 0 
vn 0.907575 -0.419889 0 
vn 0.976621 -0.21497 0 
vn 0.947653 -0.319302 0 
vn 0.994138 -0.108119 0 
vn 0.976621 -0.21497 0 
vn 0.994138 -0.108119 0 
f 349//349 350//350 351//351 
f 352//352 349//349 353//353 
f 354//354 352//352 355//355 
f 356//356 354//354 357//357 
f 358//358 356//356 359//359 
f 360//360 358//358 361//361 
f 362//362 360//360 363//363 
f 364//364 362//362 365//365 
f 366//366 364//364 367//367 
f 368//368 366//366 369//369 
f 370//370 368//368 371//371 
f 372//372 370//370 373//373 
f 374//374 372//372 375//375 
f 376//376 374//374 377//377 
f 378//378 376//376 379//379 
f 380//380 378//378 381//381 
f 382//382 380//380 383//383 
f 384//384 382//382 385//385 
f 386//386 384//384 387//387 
f 388//388 386//386 389//389 
f 390//390 388//388 391//391 
f 392//392 390//390 393//393 
f 394//394 392//392 395//395 
f 396//396 394//394 397//397 
f 398//398 396//396 399//399 
f 400//400 398//398 401//401 
f 402//402 400//400 403//403 
f 404//404 402//402 405//405 
f 406//406 404//404 407//407 
f 408//408 406//406 409//409 
f 410//410 408//408 411//411 
f 412//412 410//410 413//413 
f 414//414 412//412 415//415 
f 416//416 414//414 417//417 
f 418//418 416//416 419//419 
f 420//420 418//418 421//421 
f 422//422 420//420 423//423 
f 424//424 422//422 425//425 
f 426//426 424//424 427//427 
f 428//428 426//426 429//429 
f 430//430 428//428 431//431 
f 432//432 430//430 433//433 
f 434//434 432//432 435//435 
f 436//436 434//434 437//437 
f 438//438 436//436 439//439 
f 440//440 438//438 441//441 
f 442//442 440//440 443//443 
f 444//444 442//442 445//445 
f 446//446 444//444 447//447 
f 448//448 446//446 449//449 
f 450//450 448//448 451//451 
f 452//452 450//450 453//453 
f 454//454 452//452 455//455 
f 456//456 454//454 457//457 
f 458//458 456//456 459//459 
f 460//460 458//458 461//461 
f 462//462 460//460 463//463 
f 350//350 462//462 464//464 
f 464//464 351//351 350//350 
f 463//463 464//464 462//462 
f 461//461 463//463 460//460 
f 459//459 461//461 458//458 
f 457//457 459//459 456//456 
f 455//455 457//457 454//454 
f 453//453 455//455 452//452 
f 451//451 453//453 450//450 
f 449//449 451//451 448//448 
f 447//447 449//449 446//446 
f 445//445 447//447 444//444 
f 443//443 445//445 442//442 
f 441//441 443//443 440//440 
f 439//439 441//441 438//438 
f 437//437 439//439 436//436 
f 435//435 437//437 434//434 
f 433//433 435//435 432//432 
f 431//431 433//433 430//430 
f 429//429 431//431 428//428 
f 427//427 429//429 426//426 
f 425//425 427//427 424//424 
f 423//423 425//425 422//422 
f 421//421 423//423 420//420 
f 419//419 421//421 418//418 
f 417//417 419//419 416//416 
f 415//415 417//417 414//414 
f 413//413 415//415 412//412 
f 411//411 413//413 410//410 
f 409//409 411//411 408//408 
f 407//407 409//409 406//406 
f 405//405 407//407 404//404 
f 403//403 405//405 402//402 
f 401//401 403//403 400//400 
f 399//399 401//401 398//398 
f 397//397 399//399 396//396 
f 395//395 397//397 394//394 
f 393//393 395//395 392//392 
f 391//391 393//393 390//390 
f 389//389 391//391 388//388 
f 387//387 389//389 386//386 
f 385//385 387//387 384//384 
f 383//383 385//385 382//382 
f 381//381 383//383 380//380 
f 379//379 381//381 378//378 
f 377//377 379//379 376//376 
f 375//375 377//377 374//374 
f 373//373 375//375 372//372 
f 371//371 373//373 370//370 
f 369//369 371//371 368//368 
f 367//367 369//369 366//366 
f 365//365 367//367 364//364 
f 363//363 365//365 362//362 
f 361//361 363//363 360//360 
f 359//359 361//361 358//358 
f 357//357 359//359 356//356 
f 355//355 357//357 354//354 
f 353//353 355//355 352//352 
f 351//351 353//353 349//349 
