# OBJ generated by ONSHAPE BY PTC INC, 1.215 Units = meters
mtllib _94645A220_High_Strength_Steel_Nylon_Insert_Locknut_1.mtl
g 94645A220_High-Strength Steel Nylon-Insert Locknut
usemtl 0.752941_0.752941_0.752941_0.000000_0.000000
o mesh68
v 0.00400212 0.00333333 -0.000435257 
v 0.00402572 0.00333333 -9.86017e-19 
v 0.00402572 0.00441617 0 
v 0.0039316 0.00333333 -0.000865411 
v 0.00400212 0.00441617 -0.000435257 
v 0.00381499 0.00333333 -0.00128542 
v 0.0039316 0.00441617 -0.000865411 
v 0.00365365 0.00333333 -0.00169036 
v 0.00381499 0.00441617 -0.00128542 
v 0.00344947 0.00333333 -0.00207548 
v 0.00365365 0.00441617 -0.00169036 
v 0.00320485 0.00333333 -0.00243626 
v 0.00344947 0.00441617 -0.00207548 
v 0.00292266 0.00333333 -0.00276849 
v 0.00320485 0.00441617 -0.00243626 
v 0.0026062 0.00333333 -0.00306825 
v 0.00292266 0.00441617 -0.00276849 
v 0.00225918 0.00333333 -0.00333205 
v 0.0026062 0.00441617 -0.00306825 
v 0.00188568 0.00333333 -0.00355677 
v 0.00225918 0.00441617 -0.00333205 
v 0.00149007 0.00333333 -0.0037398 
v 0.00188568 0.00441617 -0.00355677 
v 0.00107699 0.00333333 -0.00387898 
v 0.00149007 0.00441617 -0.0037398 
v 0.000651289 0.00333333 -0.00397269 
v 0.00107699 0.00441617 -0.00387898 
v 0.000217948 0.00333333 -0.00401982 
v 0.000651289 0.00441617 -0.00397269 
v -0.000217948 0.00333333 -0.00401982 
v 0.000217948 0.00441617 -0.00401982 
v -0.000651289 0.00333333 -0.00397269 
v -0.000217948 0.00441617 -0.00401982 
v -0.00107699 0.00333333 -0.00387898 
v -0.000651289 0.00441617 -0.00397269 
v -0.00149007 0.00333333 -0.0037398 
v -0.00107699 0.00441617 -0.00387898 
v -0.00188568 0.00333333 -0.00355677 
v -0.00149007 0.00441617 -0.0037398 
v -0.00225918 0.00333333 -0.00333205 
v -0.00188568 0.00441617 -0.00355677 
v -0.0026062 0.00333333 -0.00306825 
v -0.00225918 0.00441617 -0.00333205 
v -0.00292266 0.00333333 -0.00276849 
v -0.0026062 0.00441617 -0.00306825 
v -0.00320485 0.00333333 -0.00243626 
v -0.00292266 0.00441617 -0.00276849 
v -0.00344947 0.00333333 -0.00207548 
v -0.00320485 0.00441617 -0.00243626 
v -0.00365365 0.00333333 -0.00169036 
v -0.00344947 0.00441617 -0.00207548 
v -0.00381499 0.00333333 -0.00128542 
v -0.00365365 0.00441617 -0.00169036 
v -0.0039316 0.00333333 -0.000865411 
v -0.00381499 0.00441617 -0.00128542 
v -0.00400212 0.00333333 -0.000435257 
v -0.0039316 0.00441617 -0.000865411 
v -0.00402572 0.00333333 4.93009e-19 
v -0.00400212 0.00441617 -0.000435257 
v -0.00400212 0.00333333 0.000435257 
v -0.00402572 0.00441617 4.93009e-19 
v -0.0039316 0.00333333 0.000865411 
v -0.00400212 0.00441617 0.000435257 
v -0.00381499 0.00333333 0.00128542 
v -0.0039316 0.00441617 0.000865411 
v -0.00365365 0.00333333 0.00169036 
v -0.00381499 0.00441617 0.00128542 
v -0.00344947 0.00333333 0.00207548 
v -0.00365365 0.00441617 0.00169036 
v -0.00320485 0.00333333 0.00243626 
v -0.00344947 0.00441617 0.00207548 
v -0.00292266 0.00333333 0.00276849 
v -0.00320485 0.00441617 0.00243626 
v -0.0026062 0.00333333 0.00306825 
v -0.00292266 0.00441617 0.00276849 
v -0.00225918 0.00333333 0.00333205 
v -0.0026062 0.00441617 0.00306825 
v -0.00188568 0.00333333 0.00355677 
v -0.00225918 0.00441617 0.00333205 
v -0.00149007 0.00333333 0.0037398 
v -0.00188568 0.00441617 0.00355677 
v -0.00107699 0.00333333 0.00387898 
v -0.00149007 0.00441617 0.0037398 
v -0.000651289 0.00333333 0.00397269 
v -0.00107699 0.00441617 0.00387898 
v -0.000217948 0.00333333 0.00401982 
v -0.000651289 0.00441617 0.00397269 
v 0.000217948 0.00333333 0.00401982 
v -0.000217948 0.00441617 0.00401982 
v 0.000651289 0.00333333 0.00397269 
v 0.000217948 0.00441617 0.00401982 
v 0.00107699 0.00333333 0.00387898 
v 0.000651289 0.00441617 0.00397269 
v 0.00149007 0.00333333 0.0037398 
v 0.00107699 0.00441617 0.00387898 
v 0.00188568 0.00333333 0.00355677 
v 0.00149007 0.00441617 0.0037398 
v 0.00225918 0.00333333 0.00333205 
v 0.00188568 0.00441617 0.00355677 
v 0.0026062 0.00333333 0.00306825 
v 0.00225918 0.00441617 0.00333205 
v 0.00292266 0.00333333 0.00276849 
v 0.0026062 0.00441617 0.00306825 
v 0.00320485 0.00333333 0.00243626 
v 0.00292266 0.00441617 0.00276849 
v 0.00344947 0.00333333 0.00207548 
v 0.00320485 0.00441617 0.00243626 
v 0.00365365 0.00333333 0.00169036 
v 0.00344947 0.00441617 0.00207548 
v 0.00381499 0.00333333 0.00128542 
v 0.00365365 0.00441617 0.00169036 
v 0.0039316 0.00333333 0.000865411 
v 0.00381499 0.00441617 0.00128542 
v 0.00400212 0.00333333 0.000435257 
v 0.0039316 0.00441617 0.000865411 
v 0.00400212 0.00441617 0.000435257 
vn -0.994138 -1.21747e-16 0.108119 
vn -1 -1.22465e-16 2.44929e-16 
vn -1 -1.22465e-16 2.44929e-16 
vn -0.976621 -1.19602e-16 0.21497 
vn -0.994138 -1.21747e-16 0.108119 
vn -0.947653 -1.16054e-16 0.319302 
vn -0.976621 -1.19602e-16 0.21497 
vn -0.907575 -1.11146e-16 0.419889 
vn -0.947653 -1.16054e-16 0.319302 
vn -0.856857 -1.04935e-16 0.515554 
vn -0.907575 -1.11146e-16 0.419889 
vn -0.796093 -9.74933e-17 0.605174 
vn -0.856857 -1.04935e-16 0.515554 
vn -0.725995 -8.89088e-17 0.687699 
vn -0.796093 -9.74933e-17 0.605174 
vn -0.647386 -7.9282e-17 0.762162 
vn -0.725995 -8.89088e-17 0.687699 
vn -0.561187 -6.87256e-17 0.827689 
vn -0.647386 -7.9282e-17 0.762162 
vn -0.468408 -5.73635e-17 0.883512 
vn -0.561187 -6.87256e-17 0.827689 
vn -0.370138 -4.53289e-17 0.928977 
vn -0.468408 -5.73635e-17 0.883512 
vn -0.267528 -3.27628e-17 0.96355 
vn -0.370138 -4.53289e-17 0.928977 
vn -0.161782 -1.98126e-17 0.986827 
vn -0.267528 -3.27628e-17 0.96355 
vn -0.0541389 -6.6301e-18 0.998533 
vn -0.161782 -1.98126e-17 0.986827 
vn 0.0541389 6.6301e-18 0.998533 
vn -0.0541389 -6.6301e-18 0.998533 
vn 0.161782 1.98126e-17 0.986827 
vn 0.0541389 6.6301e-18 0.998533 
vn 0.267528 3.27628e-17 0.96355 
vn 0.161782 1.98126e-17 0.986827 
vn 0.370138 4.53289e-17 0.928977 
vn 0.267528 3.27628e-17 0.96355 
vn 0.468408 5.73635e-17 0.883512 
vn 0.370138 4.53289e-17 0.928977 
vn 0.561187 6.87256e-17 0.827689 
vn 0.468408 5.73635e-17 0.883512 
vn 0.647386 7.9282e-17 0.762162 
vn 0.561187 6.87256e-17 0.827689 
vn 0.725995 8.89088e-17 0.687699 
vn 0.647386 7.9282e-17 0.762162 
vn 0.796093 9.74933e-17 0.605174 
vn 0.725995 8.89088e-17 0.687699 
vn 0.856857 1.04935e-16 0.515554 
vn 0.796093 9.74933e-17 0.605174 
vn 0.907575 1.11146e-16 0.419889 
vn 0.856857 1.04935e-16 0.515554 
vn 0.947653 1.16054e-16 0.319302 
vn 0.907575 1.11146e-16 0.419889 
vn 0.976621 1.19602e-16 0.21497 
vn 0.947653 1.16054e-16 0.319302 
vn 0.994138 1.21747e-16 0.108119 
vn 0.976621 1.19602e-16 0.21497 
vn 1 1.22465e-16 -1.22465e-16 
vn 0.994138 1.21747e-16 0.108119 
vn 0.994138 1.21747e-16 -0.108119 
vn 1 1.22465e-16 -1.22465e-16 
vn 0.976621 1.19602e-16 -0.21497 
vn 0.994138 1.21747e-16 -0.108119 
vn 0.947653 1.16054e-16 -0.319302 
vn 0.976621 1.19602e-16 -0.21497 
vn 0.907575 1.11146e-16 -0.419889 
vn 0.947653 1.16054e-16 -0.319302 
vn 0.856857 1.04935e-16 -0.515554 
vn 0.907575 1.11146e-16 -0.419889 
vn 0.796093 9.74933e-17 -0.605174 
vn 0.856857 1.04935e-16 -0.515554 
vn 0.725995 8.89088e-17 -0.687699 
vn 0.796093 9.74933e-17 -0.605174 
vn 0.647386 7.9282e-17 -0.762162 
vn 0.725995 8.89088e-17 -0.687699 
vn 0.561187 6.87256e-17 -0.827689 
vn 0.647386 7.9282e-17 -0.762162 
vn 0.468408 5.73635e-17 -0.883512 
vn 0.561187 6.87256e-17 -0.827689 
vn 0.370138 4.53289e-17 -0.928977 
vn 0.468408 5.73635e-17 -0.883512 
vn 0.267528 3.27628e-17 -0.96355 
vn 0.370138 4.53289e-17 -0.928977 
vn 0.161782 1.98126e-17 -0.986827 
vn 0.267528 3.27628e-17 -0.96355 
vn 0.0541389 6.6301e-18 -0.998533 
vn 0.161782 1.98126e-17 -0.986827 
vn -0.0541389 -6.6301e-18 -0.998533 
vn 0.0541389 6.6301e-18 -0.998533 
vn -0.161782 -1.98126e-17 -0.986827 
vn -0.0541389 -6.6301e-18 -0.998533 
vn -0.267528 -3.27628e-17 -0.96355 
vn -0.161782 -1.98126e-17 -0.986827 
vn -0.370138 -4.53289e-17 -0.928977 
vn -0.267528 -3.27628e-17 -0.96355 
vn -0.468408 -5.73635e-17 -0.883512 
vn -0.370138 -4.53289e-17 -0.928977 
vn -0.561187 -6.87256e-17 -0.827689 
vn -0.468408 -5.73635e-17 -0.883512 
vn -0.647386 -7.9282e-17 -0.762162 
vn -0.561187 -6.87256e-17 -0.827689 
vn -0.725995 -8.89088e-17 -0.687699 
vn -0.647386 -7.9282e-17 -0.762162 
vn -0.796093 -9.74933e-17 -0.605174 
vn -0.725995 -8.89088e-17 -0.687699 
vn -0.856857 -1.04935e-16 -0.515554 
vn -0.796093 -9.74933e-17 -0.605174 
vn -0.907575 -1.11146e-16 -0.419889 
vn -0.856857 -1.04935e-16 -0.515554 
vn -0.947653 -1.16054e-16 -0.319302 
vn -0.907575 -1.11146e-16 -0.419889 
vn -0.976621 -1.19602e-16 -0.21497 
vn -0.947653 -1.16054e-16 -0.319302 
vn -0.994138 -1.21747e-16 -0.108119 
vn -0.976621 -1.19602e-16 -0.21497 
vn -0.994138 -1.21747e-16 -0.108119 
f 1//1 2//2 3//3 
f 4//4 1//1 5//5 
f 6//6 4//4 7//7 
f 8//8 6//6 9//9 
f 10//10 8//8 11//11 
f 12//12 10//10 13//13 
f 14//14 12//12 15//15 
f 16//16 14//14 17//17 
f 18//18 16//16 19//19 
f 20//20 18//18 21//21 
f 22//22 20//20 23//23 
f 24//24 22//22 25//25 
f 26//26 24//24 27//27 
f 28//28 26//26 29//29 
f 30//30 28//28 31//31 
f 32//32 30//30 33//33 
f 34//34 32//32 35//35 
f 36//36 34//34 37//37 
f 38//38 36//36 39//39 
f 40//40 38//38 41//41 
f 42//42 40//40 43//43 
f 44//44 42//42 45//45 
f 46//46 44//44 47//47 
f 48//48 46//46 49//49 
f 50//50 48//48 51//51 
f 52//52 50//50 53//53 
f 54//54 52//52 55//55 
f 56//56 54//54 57//57 
f 58//58 56//56 59//59 
f 60//60 58//58 61//61 
f 62//62 60//60 63//63 
f 64//64 62//62 65//65 
f 66//66 64//64 67//67 
f 68//68 66//66 69//69 
f 70//70 68//68 71//71 
f 72//72 70//70 73//73 
f 74//74 72//72 75//75 
f 76//76 74//74 77//77 
f 78//78 76//76 79//79 
f 80//80 78//78 81//81 
f 82//82 80//80 83//83 
f 84//84 82//82 85//85 
f 86//86 84//84 87//87 
f 88//88 86//86 89//89 
f 90//90 88//88 91//91 
f 92//92 90//90 93//93 
f 94//94 92//92 95//95 
f 96//96 94//94 97//97 
f 98//98 96//96 99//99 
f 100//100 98//98 101//101 
f 102//102 100//100 103//103 
f 104//104 102//102 105//105 
f 106//106 104//104 107//107 
f 108//108 106//106 109//109 
f 110//110 108//108 111//111 
f 112//112 110//110 113//113 
f 114//114 112//112 115//115 
f 2//2 114//114 116//116 
f 116//116 3//3 2//2 
f 115//115 116//116 114//114 
f 113//113 115//115 112//112 
f 111//111 113//113 110//110 
f 109//109 111//111 108//108 
f 107//107 109//109 106//106 
f 105//105 107//107 104//104 
f 103//103 105//105 102//102 
f 101//101 103//103 100//100 
f 99//99 101//101 98//98 
f 97//97 99//99 96//96 
f 95//95 97//97 94//94 
f 93//93 95//95 92//92 
f 91//91 93//93 90//90 
f 89//89 91//91 88//88 
f 87//87 89//89 86//86 
f 85//85 87//87 84//84 
f 83//83 85//85 82//82 
f 81//81 83//83 80//80 
f 79//79 81//81 78//78 
f 77//77 79//79 76//76 
f 75//75 77//77 74//74 
f 73//73 75//75 72//72 
f 71//71 73//73 70//70 
f 69//69 71//71 68//68 
f 67//67 69//69 66//66 
f 65//65 67//67 64//64 
f 63//63 65//65 62//62 
f 61//61 63//63 60//60 
f 59//59 61//61 58//58 
f 57//57 59//59 56//56 
f 55//55 57//57 54//54 
f 53//53 55//55 52//52 
f 51//51 53//53 50//50 
f 49//49 51//51 48//48 
f 47//47 49//49 46//46 
f 45//45 47//47 44//44 
f 43//43 45//45 42//42 
f 41//41 43//43 40//40 
f 39//39 41//41 38//38 
f 37//37 39//39 36//36 
f 35//35 37//37 34//34 
f 33//33 35//35 32//32 
f 31//31 33//33 30//30 
f 29//29 31//31 28//28 
f 27//27 29//29 26//26 
f 25//25 27//27 24//24 
f 23//23 25//25 22//22 
f 21//21 23//23 20//20 
f 19//19 21//21 18//18 
f 17//17 19//19 16//16 
f 15//15 17//17 14//14 
f 13//13 15//15 12//12 
f 11//11 13//13 10//10 
f 9//9 11//11 8//8 
f 7//7 9//9 6//6 
f 5//5 7//7 4//4 
f 3//3 5//5 1//1 
o mesh69
v 0.00454681 0.00333333 0.00430697 
v 0.00292266 0.00333333 0.00276849 
v 0.00320485 0.00333333 0.00243626 
v 0.00405449 0.00333333 0.00477331 
v 0.0026062 0.00333333 0.00306825 
v 0.00498582 0.00333333 0.00379012 
v 0.00344947 0.00333333 0.00207548 
v 0.00351464 0.00333333 0.0051837 
v 0.00225918 0.00333333 0.00333205 
v 0.00101322 0.00333333 0.00618036 
v 0.000651289 0.00333333 0.00397269 
v 0.00107699 0.00333333 0.00387898 
v 0.000339064 0.00333333 0.00625368 
v 0.000217948 0.00333333 0.00401982 
v -0.00101322 0.00333333 0.00618036 
v -0.000651289 0.00333333 0.00397269 
v -0.000217948 0.00333333 0.00401982 
v -0.00167549 0.00333333 0.00603458 
v -0.00107699 0.00333333 0.00387898 
v -0.00231812 0.00333333 0.00581805 
v -0.00149007 0.00333333 0.0037398 
v -0.00293358 0.00333333 0.00553331 
v -0.00188568 0.00333333 0.00355677 
v -0.00498582 0.00333333 0.00379012 
v -0.00320485 0.00333333 0.00243626 
v -0.00292266 0.00333333 0.00276849 
v -0.00536638 0.00333333 0.00322884 
v -0.00344947 0.00333333 0.00207548 
v 0.00568402 0.00333333 0.00262971 
v 0.00365365 0.00333333 0.00169036 
v 0.00381499 0.00333333 0.00128542 
v 0.00536638 0.00333333 0.00322884 
v 0.00293358 0.00333333 0.00553331 
v 0.00188568 0.00333333 0.00355677 
v -0.000339064 0.00333333 0.00625368 
v -0.00405449 0.00333333 0.00477331 
v -0.0026062 0.00333333 0.00306825 
v -0.00225918 0.00333333 0.00333205 
v -0.00454681 0.00333333 0.00430697 
v -0.00568402 0.00333333 0.00262971 
v -0.00365365 0.00333333 0.00169036 
v -0.00593502 0.00333333 0.00199974 
v -0.00381499 0.00333333 0.00128542 
v -0.00611644 0.00333333 0.00134633 
v -0.0039316 0.00333333 0.000865411 
v -0.00626286 0.00333333 7.66979e-19 
v -0.00402572 0.00333333 4.93009e-19 
v -0.00400212 0.00333333 0.000435257 
v -0.00622615 0.00333333 -0.000677134 
v -0.00400212 0.00333333 -0.000435257 
v -0.00568402 0.00333333 -0.00262971 
v -0.00365365 0.00333333 -0.00169036 
v -0.00381499 0.00333333 -0.00128542 
v -0.00536638 0.00333333 -0.00322884 
v -0.00344947 0.00333333 -0.00207548 
v -0.00498582 0.00333333 -0.00379012 
v -0.00320485 0.00333333 -0.00243626 
v -0.00454681 0.00333333 -0.00430697 
v -0.00292266 0.00333333 -0.00276849 
v 0.00231812 0.00333333 0.00581805 
v 0.00149007 0.00333333 0.0037398 
v 0.00167549 0.00333333 0.00603458 
v -0.00351464 0.00333333 0.0051837 
v -0.00622615 0.00333333 0.000677134 
v -0.00405449 0.00333333 -0.00477331 
v -0.0026062 0.00333333 -0.00306825 
v -0.00351464 0.00333333 -0.0051837 
v -0.00225918 0.00333333 -0.00333205 
v 0.00167549 0.00333333 -0.00603458 
v 0.00107699 0.00333333 -0.00387898 
v 0.000651289 0.00333333 -0.00397269 
v 0.00231812 0.00333333 -0.00581805 
v 0.00149007 0.00333333 -0.0037398 
v 0.00611644 0.00333333 0.00134633 
v 0.0039316 0.00333333 0.000865411 
v 0.00400212 0.00333333 0.000435257 
v 0.00593502 0.00333333 0.00199974 
v -0.00611644 0.00333333 -0.00134633 
v -0.0039316 0.00333333 -0.000865411 
v -0.00593502 0.00333333 -0.00199974 
v 0.00293358 0.00333333 -0.00553331 
v 0.00188568 0.00333333 -0.00355677 
v -0.00293358 0.00333333 -0.00553331 
v -0.00188568 0.00333333 -0.00355677 
v -0.00231812 0.00333333 -0.00581805 
v -0.00149007 0.00333333 -0.0037398 
v 0.00351464 0.00333333 -0.0051837 
v 0.00225918 0.00333333 -0.00333205 
v 0.00536638 0.00333333 -0.00322884 
v 0.00344947 0.00333333 -0.00207548 
v 0.00320485 0.00333333 -0.00243626 
v 0.00568402 0.00333333 -0.00262971 
v 0.00365365 0.00333333 -0.00169036 
v -0.00167549 0.00333333 -0.00603458 
v -0.00107699 0.00333333 -0.00387898 
v -0.00101322 0.00333333 -0.00618036 
v -0.000651289 0.00333333 -0.00397269 
v 0.00405449 0.00333333 -0.00477331 
v 0.0026062 0.00333333 -0.00306825 
v 0.00454681 0.00333333 -0.00430697 
v 0.00292266 0.00333333 -0.00276849 
v 0.00498582 0.00333333 -0.00379012 
v 0.00593502 0.00333333 -0.00199974 
v 0.00381499 0.00333333 -0.00128542 
v 0.00611644 0.00333333 -0.00134633 
v 0.0039316 0.00333333 -0.000865411 
v 0.00622615 0.00333333 -0.000677134 
v 0.00400212 0.00333333 -0.000435257 
v 0.00626286 0.00333333 0 
v 0.00622615 0.00333333 0.000677134 
v 0.000339064 0.00333333 -0.00625368 
v 0.000217948 0.00333333 -0.00401982 
v -0.000217948 0.00333333 -0.00401982 
v 0.00101322 0.00333333 -0.00618036 
v -0.000339064 0.00333333 -0.00625368 
v 0.00402572 0.00333333 -9.86017e-19 
vn 1.22465e-16 -1 0 
vn 1.22465e-16 -1 0 
vn 1.22465e-16 -1 0 
vn 1.22465e-16 -1 0 
vn 1.22465e-16 -1 0 
vn 1.22465e-16 -1 0 
vn 1.22465e-16 -1 0 
vn 1.22465e-16 -1 0 
vn 1.22465e-16 -1 0 
vn 1.22465e-16 -1 0 
vn 1.22465e-16 -1 0 
vn 1.22465e-16 -1 0 
vn 1.22465e-16 -1 0 
vn 1.22465e-16 -1 0 
vn 1.22465e-16 -1 0 
vn 1.22465e-16 -1 0 
vn 1.22465e-16 -1 0 
vn 1.22465e-16 -1 0 
vn 1.22465e-16 -1 0 
vn 1.22465e-16 -1 0 
vn 1.22465e-16 -1 0 
vn 1.22465e-16 -1 0 
vn 1.22465e-16 -1 0 
vn 1.22465e-16 -1 0 
vn 1.22465e-16 -1 0 
vn 1.22465e-16 -1 0 
vn 1.22465e-16 -1 0 
vn 1.22465e-16 -1 0 
vn 1.22465e-16 -1 0 
vn 1.22465e-16 -1 0 
vn 1.22465e-16 -1 0 
vn 1.22465e-16 -1 0 
vn 1.22465e-16 -1 0 
vn 1.22465e-16 -1 0 
vn 1.22465e-16 -1 0 
vn 1.22465e-16 -1 0 
vn 1.22465e-16 -1 0 
vn 1.22465e-16 -1 0 
vn 1.22465e-16 -1 0 
vn 1.22465e-16 -1 0 
vn 1.22465e-16 -1 0 
vn 1.22465e-16 -1 0 
vn 1.22465e-16 -1 0 
vn 1.22465e-16 -1 0 
vn 1.22465e-16 -1 0 
vn 1.22465e-16 -1 0 
vn 1.22465e-16 -1 0 
vn 1.22465e-16 -1 0 
vn 1.22465e-16 -1 0 
vn 1.22465e-16 -1 0 
vn 1.22465e-16 -1 0 
vn 1.22465e-16 -1 0 
vn 1.22465e-16 -1 0 
vn 1.22465e-16 -1 0 
vn 1.22465e-16 -1 0 
vn 1.22465e-16 -1 0 
vn 1.22465e-16 -1 0 
vn 1.22465e-16 -1 0 
vn 1.22465e-16 -1 0 
vn 1.22465e-16 -1 0 
vn 1.22465e-16 -1 0 
vn 1.22465e-16 -1 0 
vn 1.22465e-16 -1 0 
vn 1.22465e-16 -1 0 
vn 1.22465e-16 -1 0 
vn 1.22465e-16 -1 0 
vn 1.22465e-16 -1 0 
vn 1.22465e-16 -1 0 
vn 1.22465e-16 -1 0 
vn 1.22465e-16 -1 0 
vn 1.22465e-16 -1 0 
vn 1.22465e-16 -1 0 
vn 1.22465e-16 -1 0 
vn 1.22465e-16 -1 0 
vn 1.22465e-16 -1 0 
vn 1.22465e-16 -1 0 
vn 1.22465e-16 -1 0 
vn 1.22465e-16 -1 0 
vn 1.22465e-16 -1 0 
vn 1.22465e-16 -1 0 
vn 1.22465e-16 -1 0 
vn 1.22465e-16 -1 0 
vn 1.22465e-16 -1 0 
vn 1.22465e-16 -1 0 
vn 1.22465e-16 -1 0 
vn 1.22465e-16 -1 0 
vn 1.22465e-16 -1 0 
vn 1.22465e-16 -1 0 
vn 1.22465e-16 -1 0 
vn 1.22465e-16 -1 0 
vn 1.22465e-16 -1 0 
vn 1.22465e-16 -1 0 
vn 1.22465e-16 -1 0 
vn 1.22465e-16 -1 0 
vn 1.22465e-16 -1 0 
vn 1.22465e-16 -1 0 
vn 1.22465e-16 -1 0 
vn 1.22465e-16 -1 0 
vn 1.22465e-16 -1 0 
vn 1.22465e-16 -1 0 
vn 1.22465e-16 -1 0 
vn 1.22465e-16 -1 0 
vn 1.22465e-16 -1 0 
vn 1.22465e-16 -1 0 
vn 1.22465e-16 -1 0 
vn 1.22465e-16 -1 0 
vn 1.22465e-16 -1 0 
vn 1.22465e-16 -1 0 
vn 1.22465e-16 -1 0 
vn 1.22465e-16 -1 0 
vn 1.22465e-16 -1 0 
vn 1.22465e-16 -1 0 
vn 1.22465e-16 -1 0 
vn 1.22465e-16 -1 0 
vn 1.22465e-16 -1 0 
vn 1.22465e-16 -1 0 
f 117//117 118//118 119//119 
f 117//117 120//120 121//121 
f 122//122 119//119 123//123 
f 121//121 118//118 117//117 
f 119//119 122//122 117//117 
f 120//120 124//124 125//125 
f 126//126 127//127 128//128 
f 126//126 129//129 130//130 
f 131//131 132//132 133//133 
f 131//131 134//134 135//135 
f 134//134 136//136 137//137 
f 136//136 138//138 139//139 
f 140//140 141//141 142//142 
f 140//140 143//143 144//144 
f 145//145 146//146 147//147 
f 145//145 148//148 123//123 
f 125//125 121//121 120//120 
f 149//149 150//150 125//125 
f 130//130 127//127 126//126 
f 129//129 151//151 133//133 
f 135//135 132//132 131//131 
f 139//139 137//137 136//136 
f 152//152 153//153 154//154 
f 155//155 142//142 153//153 
f 144//144 141//141 140//140 
f 143//143 156//156 157//157 
f 156//156 158//158 159//159 
f 158//158 160//160 161//161 
f 162//162 163//163 164//164 
f 162//162 165//165 166//166 
f 167//167 168//168 169//169 
f 167//167 170//170 171//171 
f 172//172 173//173 171//171 
f 172//172 174//174 175//175 
f 123//123 146//146 145//145 
f 125//125 124//124 149//149 
f 176//176 177//177 150//150 
f 176//176 178//178 128//128 
f 133//133 130//130 129//129 
f 137//137 135//135 134//134 
f 179//179 154//154 139//139 
f 153//153 152//152 155//155 
f 157//157 144//144 143//143 
f 161//161 159//159 158//158 
f 160//160 180//180 164//164 
f 166//166 163//163 162//162 
f 171//171 168//168 167//167 
f 175//175 173//173 172//172 
f 174//174 181//181 182//182 
f 181//181 183//183 184//184 
f 185//185 186//186 187//187 
f 185//185 188//188 189//189 
f 190//190 191//191 192//192 
f 190//190 193//193 147//147 
f 123//123 148//148 122//122 
f 128//128 177//177 176//176 
f 133//133 151//151 131//131 
f 154//154 179//179 152//152 
f 159//159 157//157 156//156 
f 164//164 180//180 162//162 
f 194//194 195//195 166//166 
f 194//194 196//196 169//169 
f 171//171 170//170 172//172 
f 184//184 182//182 181//181 
f 189//189 186//186 185//185 
f 188//188 197//197 198//198 
f 147//147 191//191 190//190 
f 150//150 149//149 176//176 
f 139//139 138//138 179//179 
f 164//164 161//161 160//160 
f 169//169 195//195 194//194 
f 182//182 175//175 174//174 
f 199//199 200//200 184//184 
f 199//199 201//201 202//202 
f 198//198 189//189 188//188 
f 197//197 203//203 204//204 
f 205//205 206//206 207//207 
f 205//205 208//208 209//209 
f 147//147 193//193 145//145 
f 142//142 155//155 140//140 
f 169//169 196//196 167//167 
f 202//202 200//200 199//199 
f 210//210 211//211 202//202 
f 210//210 212//212 213//213 
f 204//204 198//198 197//197 
f 203//203 214//214 215//215 
f 216//216 217//217 215//215 
f 216//216 218//218 207//207 
f 209//209 206//206 205//205 
f 208//208 219//219 220//220 
f 221//221 222//222 220//220 
f 221//221 223//223 224//224 
f 225//225 226//226 192//192 
f 128//128 178//178 126//126 
f 184//184 183//183 199//199 
f 213//213 211//211 210//210 
f 227//227 228//228 229//229 
f 227//227 230//230 187//187 
f 215//215 204//204 203//203 
f 207//207 217//217 216//216 
f 220//220 209//209 208//208 
f 224//224 222//222 221//221 
f 192//192 226//226 190//190 
f 202//202 201//201 210//210 
f 231//231 229//229 213//213 
f 187//187 228//228 227//227 
f 215//215 214//214 216//216 
f 220//220 219//219 221//221 
f 166//166 165//165 194//194 
f 229//229 231//231 227//227 
f 207//207 218//218 205//205 
f 225//225 232//232 224//224 
f 213//213 212//212 231//231 
f 224//224 223//223 225//225 
f 187//187 230//230 185//185 
f 192//192 232//232 225//225 
o mesh70
v 0.00626286 0.00333333 0 
v 0.00626286 0.00441617 -1.53396e-18 
v 0.00622615 0.00441617 0.000677134 
v 0.00622615 0.00333333 0.000677134 
v 0.00611644 0.00441617 0.00134633 
v 0.00611644 0.00333333 0.00134633 
v 0.00593502 0.00441617 0.00199974 
v 0.00593502 0.00333333 0.00199974 
v 0.00568402 0.00441617 0.00262971 
v 0.00568402 0.00333333 0.00262971 
v 0.00536638 0.00441617 0.00322884 
v 0.00536638 0.00333333 0.00322884 
v 0.00498582 0.00441617 0.00379012 
v 0.00498582 0.00333333 0.00379012 
v 0.00454681 0.00441617 0.00430697 
v 0.00454681 0.00333333 0.00430697 
v 0.00405449 0.00441617 0.00477331 
v 0.00405449 0.00333333 0.00477331 
v 0.00351464 0.00441617 0.0051837 
v 0.00351464 0.00333333 0.0051837 
v 0.00293358 0.00441617 0.00553331 
v 0.00293358 0.00333333 0.00553331 
v 0.00231812 0.00441617 0.00581805 
v 0.00231812 0.00333333 0.00581805 
v 0.00167549 0.00441617 0.00603458 
v 0.00167549 0.00333333 0.00603458 
v 0.00101322 0.00441617 0.00618036 
v 0.00101322 0.00333333 0.00618036 
v 0.000339064 0.00441617 0.00625368 
v 0.000339064 0.00333333 0.00625368 
v -0.000339064 0.00441617 0.00625368 
v -0.000339064 0.00333333 0.00625368 
v -0.00101322 0.00441617 0.00618036 
v -0.00101322 0.00333333 0.00618036 
v -0.00167549 0.00441617 0.00603458 
v -0.00167549 0.00333333 0.00603458 
v -0.00231812 0.00441617 0.00581805 
v -0.00231812 0.00333333 0.00581805 
v -0.00293358 0.00441617 0.00553331 
v -0.00293358 0.00333333 0.00553331 
v -0.00351464 0.00441617 0.0051837 
v -0.00351464 0.00333333 0.0051837 
v -0.00405449 0.00441617 0.00477331 
v -0.00405449 0.00333333 0.00477331 
v -0.00454681 0.00441617 0.00430697 
v -0.00454681 0.00333333 0.00430697 
v -0.00498582 0.00441617 0.00379012 
v -0.00498582 0.00333333 0.00379012 
v -0.00536638 0.00441617 0.00322884 
v -0.00536638 0.00333333 0.00322884 
v -0.00568402 0.00441617 0.00262971 
v -0.00568402 0.00333333 0.00262971 
v -0.00593502 0.00441617 0.00199974 
v -0.00593502 0.00333333 0.00199974 
v -0.00611644 0.00441617 0.00134633 
v -0.00611644 0.00333333 0.00134633 
v -0.00622615 0.00441617 0.000677134 
v -0.00622615 0.00333333 0.000677134 
v -0.00626286 0.00441617 7.66979e-19 
v -0.00626286 0.00333333 7.66979e-19 
v -0.00622615 0.00441617 -0.000677134 
v -0.00622615 0.00333333 -0.000677134 
v -0.00611644 0.00441617 -0.00134633 
v -0.00611644 0.00333333 -0.00134633 
v -0.00593502 0.00441617 -0.00199974 
v -0.00593502 0.00333333 -0.00199974 
v -0.00568402 0.00441617 -0.00262971 
v -0.00568402 0.00333333 -0.00262971 
v -0.00536638 0.00441617 -0.00322884 
v -0.00536638 0.00333333 -0.00322884 
v -0.00498582 0.00441617 -0.00379012 
v -0.00498582 0.00333333 -0.00379012 
v -0.00454681 0.00441617 -0.00430697 
v -0.00454681 0.00333333 -0.00430697 
v -0.00405449 0.00441617 -0.00477331 
v -0.00405449 0.00333333 -0.00477331 
v -0.00351464 0.00441617 -0.0051837 
v -0.00351464 0.00333333 -0.0051837 
v -0.00293358 0.00441617 -0.00553331 
v -0.00293358 0.00333333 -0.00553331 
v -0.00231812 0.00441617 -0.00581805 
v -0.00231812 0.00333333 -0.00581805 
v -0.00167549 0.00441617 -0.00603458 
v -0.00167549 0.00333333 -0.00603458 
v -0.00101322 0.00441617 -0.00618036 
v -0.00101322 0.00333333 -0.00618036 
v -0.000339064 0.00441617 -0.00625368 
v -0.000339064 0.00333333 -0.00625368 
v 0.000339064 0.00441617 -0.00625368 
v 0.000339064 0.00333333 -0.00625368 
v 0.00101322 0.00441617 -0.00618036 
v 0.00101322 0.00333333 -0.00618036 
v 0.00167549 0.00441617 -0.00603458 
v 0.00167549 0.00333333 -0.00603458 
v 0.00231812 0.00441617 -0.00581805 
v 0.00231812 0.00333333 -0.00581805 
v 0.00293358 0.00441617 -0.00553331 
v 0.00293358 0.00333333 -0.00553331 
v 0.00351464 0.00441617 -0.0051837 
v 0.00351464 0.00333333 -0.0051837 
v 0.00405449 0.00441617 -0.00477331 
v 0.00405449 0.00333333 -0.00477331 
v 0.00454681 0.00441617 -0.00430697 
v 0.00454681 0.00333333 -0.00430697 
v 0.00498582 0.00441617 -0.00379012 
v 0.00498582 0.00333333 -0.00379012 
v 0.00536638 0.00441617 -0.00322884 
v 0.00536638 0.00333333 -0.00322884 
v 0.00568402 0.00441617 -0.00262971 
v 0.00568402 0.00333333 -0.00262971 
v 0.00593502 0.00441617 -0.00199974 
v 0.00593502 0.00333333 -0.00199974 
v 0.00611644 0.00441617 -0.00134633 
v 0.00611644 0.00333333 -0.00134633 
v 0.00622615 0.00441617 -0.000677134 
v 0.00622615 0.00333333 -0.000677134 
vn 1 1.22465e-16 0 
vn 1 1.22465e-16 0 
vn 0.994138 1.21747e-16 0.108119 
vn 0.994138 1.21747e-16 0.108119 
vn 0.976621 1.19602e-16 0.21497 
vn 0.976621 1.19602e-16 0.21497 
vn 0.947653 1.16054e-16 0.319302 
vn 0.947653 1.16054e-16 0.319302 
vn 0.907575 1.11146e-16 0.419889 
vn 0.907575 1.11146e-16 0.419889 
vn 0.856857 1.04935e-16 0.515554 
vn 0.856857 1.04935e-16 0.515554 
vn 0.796093 9.74933e-17 0.605174 
vn 0.796093 9.74933e-17 0.605174 
vn 0.725995 8.89088e-17 0.687699 
vn 0.725995 8.89088e-17 0.687699 
vn 0.647386 7.9282e-17 0.762162 
vn 0.647386 7.9282e-17 0.762162 
vn 0.561187 6.87256e-17 0.827689 
vn 0.561187 6.87256e-17 0.827689 
vn 0.468408 5.73635e-17 0.883512 
vn 0.468408 5.73635e-17 0.883512 
vn 0.370138 4.53289e-17 0.928977 
vn 0.370138 4.53289e-17 0.928977 
vn 0.267528 3.27628e-17 0.96355 
vn 0.267528 3.27628e-17 0.96355 
vn 0.161782 1.98126e-17 0.986827 
vn 0.161782 1.98126e-17 0.986827 
vn 0.0541389 6.6301e-18 0.998533 
vn 0.0541389 6.6301e-18 0.998533 
vn -0.0541389 -6.6301e-18 0.998533 
vn -0.0541389 -6.6301e-18 0.998533 
vn -0.161782 -1.98126e-17 0.986827 
vn -0.161782 -1.98126e-17 0.986827 
vn -0.267528 -3.27628e-17 0.96355 
vn -0.267528 -3.27628e-17 0.96355 
vn -0.370138 -4.53289e-17 0.928977 
vn -0.370138 -4.53289e-17 0.928977 
vn -0.468408 -5.73635e-17 0.883512 
vn -0.468408 -5.73635e-17 0.883512 
vn -0.561187 -6.87256e-17 0.827689 
vn -0.561187 -6.87256e-17 0.827689 
vn -0.647386 -7.9282e-17 0.762162 
vn -0.647386 -7.9282e-17 0.762162 
vn -0.725995 -8.89088e-17 0.687699 
vn -0.725995 -8.89088e-17 0.687699 
vn -0.796093 -9.74933e-17 0.605174 
vn -0.796093 -9.74933e-17 0.605174 
vn -0.856857 -1.04935e-16 0.515554 
vn -0.856857 -1.04935e-16 0.515554 
vn -0.907575 -1.11146e-16 0.419889 
vn -0.907575 -1.11146e-16 0.419889 
vn -0.947653 -1.16054e-16 0.319302 
vn -0.947653 -1.16054e-16 0.319302 
vn -0.976621 -1.19602e-16 0.21497 
vn -0.976621 -1.19602e-16 0.21497 
vn -0.994138 -1.21747e-16 0.108119 
vn -0.994138 -1.21747e-16 0.108119 
vn -1 -1.22465e-16 1.22465e-16 
vn -1 -1.22465e-16 1.22465e-16 
vn -0.994138 -1.21747e-16 -0.108119 
vn -0.994138 -1.21747e-16 -0.108119 
vn -0.976621 -1.19602e-16 -0.21497 
vn -0.976621 -1.19602e-16 -0.21497 
vn -0.947653 -1.16054e-16 -0.319302 
vn -0.947653 -1.16054e-16 -0.319302 
vn -0.907575 -1.11146e-16 -0.419889 
vn -0.907575 -1.11146e-16 -0.419889 
vn -0.856857 -1.04935e-16 -0.515554 
vn -0.856857 -1.04935e-16 -0.515554 
vn -0.796093 -9.74933e-17 -0.605174 
vn -0.796093 -9.74933e-17 -0.605174 
vn -0.725995 -8.89088e-17 -0.687699 
vn -0.725995 -8.89088e-17 -0.687699 
vn -0.647386 -7.9282e-17 -0.762162 
vn -0.647386 -7.9282e-17 -0.762162 
vn -0.561187 -6.87256e-17 -0.827689 
vn -0.561187 -6.87256e-17 -0.827689 
vn -0.468408 -5.73635e-17 -0.883512 
vn -0.468408 -5.73635e-17 -0.883512 
vn -0.370138 -4.53289e-17 -0.928977 
vn -0.370138 -4.53289e-17 -0.928977 
vn -0.267528 -3.27628e-17 -0.96355 
vn -0.267528 -3.27628e-17 -0.96355 
vn -0.161782 -1.98126e-17 -0.986827 
vn -0.161782 -1.98126e-17 -0.986827 
vn -0.0541389 -6.6301e-18 -0.998533 
vn -0.0541389 -6.6301e-18 -0.998533 
vn 0.0541389 6.6301e-18 -0.998533 
vn 0.0541389 6.6301e-18 -0.998533 
vn 0.161782 1.98126e-17 -0.986827 
vn 0.161782 1.98126e-17 -0.986827 
vn 0.267528 3.27628e-17 -0.96355 
vn 0.267528 3.27628e-17 -0.96355 
vn 0.370138 4.53289e-17 -0.928977 
vn 0.370138 4.53289e-17 -0.928977 
vn 0.468408 5.73635e-17 -0.883512 
vn 0.468408 5.73635e-17 -0.883512 
vn 0.561187 6.87256e-17 -0.827689 
vn 0.561187 6.87256e-17 -0.827689 
vn 0.647386 7.9282e-17 -0.762162 
vn 0.647386 7.9282e-17 -0.762162 
vn 0.725995 8.89088e-17 -0.687699 
vn 0.725995 8.89088e-17 -0.687699 
vn 0.796093 9.74933e-17 -0.605174 
vn 0.796093 9.74933e-17 -0.605174 
vn 0.856857 1.04935e-16 -0.515554 
vn 0.856857 1.04935e-16 -0.515554 
vn 0.907575 1.11146e-16 -0.419889 
vn 0.907575 1.11146e-16 -0.419889 
vn 0.947653 1.16054e-16 -0.319302 
vn 0.947653 1.16054e-16 -0.319302 
vn 0.976621 1.19602e-16 -0.21497 
vn 0.976621 1.19602e-16 -0.21497 
vn 0.994138 1.21747e-16 -0.108119 
vn 0.994138 1.21747e-16 -0.108119 
f 233//233 234//234 235//235 
f 236//236 235//235 237//237 
f 238//238 237//237 239//239 
f 240//240 239//239 241//241 
f 242//242 241//241 243//243 
f 244//244 243//243 245//245 
f 246//246 245//245 247//247 
f 248//248 247//247 249//249 
f 250//250 249//249 251//251 
f 252//252 251//251 253//253 
f 254//254 253//253 255//255 
f 256//256 255//255 257//257 
f 258//258 257//257 259//259 
f 260//260 259//259 261//261 
f 262//262 261//261 263//263 
f 264//264 263//263 265//265 
f 266//266 265//265 267//267 
f 268//268 267//267 269//269 
f 270//270 269//269 271//271 
f 272//272 271//271 273//273 
f 274//274 273//273 275//275 
f 276//276 275//275 277//277 
f 278//278 277//277 279//279 
f 280//280 279//279 281//281 
f 282//282 281//281 283//283 
f 284//284 283//283 285//285 
f 286//286 285//285 287//287 
f 288//288 287//287 289//289 
f 290//290 289//289 291//291 
f 292//292 291//291 293//293 
f 294//294 293//293 295//295 
f 296//296 295//295 297//297 
f 298//298 297//297 299//299 
f 300//300 299//299 301//301 
f 302//302 301//301 303//303 
f 304//304 303//303 305//305 
f 306//306 305//305 307//307 
f 308//308 307//307 309//309 
f 310//310 309//309 311//311 
f 312//312 311//311 313//313 
f 314//314 313//313 315//315 
f 316//316 315//315 317//317 
f 318//318 317//317 319//319 
f 320//320 319//319 321//321 
f 322//322 321//321 323//323 
f 324//324 323//323 325//325 
f 326//326 325//325 327//327 
f 328//328 327//327 329//329 
f 330//330 329//329 331//331 
f 332//332 331//331 333//333 
f 334//334 333//333 335//335 
f 336//336 335//335 337//337 
f 338//338 337//337 339//339 
f 340//340 339//339 341//341 
f 342//342 341//341 343//343 
f 344//344 343//343 345//345 
f 346//346 345//345 347//347 
f 348//348 347//347 234//234 
f 234//234 233//233 348//348 
f 347//347 348//348 346//346 
f 345//345 346//346 344//344 
f 343//343 344//344 342//342 
f 341//341 342//342 340//340 
f 339//339 340//340 338//338 
f 337//337 338//338 336//336 
f 335//335 336//336 334//334 
f 333//333 334//334 332//332 
f 331//331 332//332 330//330 
f 329//329 330//330 328//328 
f 327//327 328//328 326//326 
f 325//325 326//326 324//324 
f 323//323 324//324 322//322 
f 321//321 322//322 320//320 
f 319//319 320//320 318//318 
f 317//317 318//318 316//316 
f 315//315 316//316 314//314 
f 313//313 314//314 312//312 
f 311//311 312//312 310//310 
f 309//309 310//310 308//308 
f 307//307 308//308 306//306 
f 305//305 306//306 304//304 
f 303//303 304//304 302//302 
f 301//301 302//302 300//300 
f 299//299 300//300 298//298 
f 297//297 298//298 296//296 
f 295//295 296//296 294//294 
f 293//293 294//294 292//292 
f 291//291 292//292 290//290 
f 289//289 290//290 288//288 
f 287//287 288//288 286//286 
f 285//285 286//286 284//284 
f 283//283 284//284 282//282 
f 281//281 282//282 280//280 
f 279//279 280//280 278//278 
f 277//277 278//278 276//276 
f 275//275 276//276 274//274 
f 273//273 274//274 272//272 
f 271//271 272//272 270//270 
f 269//269 270//270 268//268 
f 267//267 268//268 266//266 
f 265//265 266//266 264//264 
f 263//263 264//264 262//262 
f 261//261 262//262 260//260 
f 259//259 260//260 258//258 
f 257//257 258//258 256//256 
f 255//255 256//256 254//254 
f 253//253 254//254 252//252 
f 251//251 252//252 250//250 
f 249//249 250//250 248//248 
f 247//247 248//248 246//246 
f 245//245 246//246 244//244 
f 243//243 244//244 242//242 
f 241//241 242//242 240//240 
f 239//239 240//240 238//238 
f 237//237 238//238 236//236 
f 235//235 236//236 233//233 
o mesh71
v -0.00231812 0.00441617 0.00581805 
v -0.00149007 0.00441617 0.0037398 
v -0.00188568 0.00441617 0.00355677 
v -0.00167549 0.00441617 0.00603458 
v -0.00107699 0.00441617 0.00387898 
v -0.00293358 0.00441617 0.00553331 
v -0.00225918 0.00441617 0.00333205 
v -0.00101322 0.00441617 0.00618036 
v -0.000651289 0.00441617 0.00397269 
v -0.000339064 0.00441617 0.00625368 
v -0.000217948 0.00441617 0.00401982 
v -0.00454681 0.00441617 0.00430697 
v -0.00405449 0.00441617 0.00477331 
v -0.0026062 0.00441617 0.00306825 
v -0.00351464 0.00441617 0.0051837 
v 0.00351464 0.00441617 0.0051837 
v 0.00225918 0.00441617 0.00333205 
v 0.00188568 0.00441617 0.00355677 
v 0.00405449 0.00441617 0.00477331 
v 0.0026062 0.00441617 0.00306825 
v 0.00454681 0.00441617 0.00430697 
v 0.00292266 0.00441617 0.00276849 
v 0.00498582 0.00441617 0.00379012 
v 0.00320485 0.00441617 0.00243626 
v -0.00622615 0.00441617 0.000677134 
v -0.00611644 0.00441617 0.00134633 
v -0.0039316 0.00441617 0.000865411 
v -0.00593502 0.00441617 0.00199974 
v -0.00381499 0.00441617 0.00128542 
v -0.00568402 0.00441617 0.00262971 
v -0.00365365 0.00441617 0.00169036 
v -0.00536638 0.00441617 0.00322884 
v -0.00344947 0.00441617 0.00207548 
v -0.00498582 0.00441617 0.00379012 
v -0.00320485 0.00441617 0.00243626 
v -0.00292266 0.00441617 0.00276849 
v 0.00568402 0.00441617 0.00262971 
v 0.00365365 0.00441617 0.00169036 
v 0.00344947 0.00441617 0.00207548 
v 0.00593502 0.00441617 0.00199974 
v 0.00381499 0.00441617 0.00128542 
v 0.00611644 0.00441617 0.00134633 
v 0.0039316 0.00441617 0.000865411 
v 0.00622615 0.00441617 0.000677134 
v 0.00400212 0.00441617 0.000435257 
v 0.00568402 0.00441617 -0.00262971 
v 0.00365365 0.00441617 -0.00169036 
v 0.00381499 0.00441617 -0.00128542 
v 0.00536638 0.00441617 -0.00322884 
v 0.00344947 0.00441617 -0.00207548 
v 0.00167549 0.00441617 -0.00603458 
v 0.00107699 0.00441617 -0.00387898 
v 0.00149007 0.00441617 -0.0037398 
v 0.00101322 0.00441617 -0.00618036 
v 0.000651289 0.00441617 -0.00397269 
v -0.00405449 0.00441617 -0.00477331 
v -0.0026062 0.00441617 -0.00306825 
v -0.00225918 0.00441617 -0.00333205 
v -0.00454681 0.00441617 -0.00430697 
v -0.00292266 0.00441617 -0.00276849 
v -0.00498582 0.00441617 -0.00379012 
v -0.00320485 0.00441617 -0.00243626 
v -0.00536638 0.00441617 -0.00322884 
v -0.00344947 0.00441617 -0.00207548 
v -0.00626286 0.00441617 7.66979e-19 
v -0.00400212 0.00441617 0.000435257 
v 0.000339064 0.00441617 0.00625368 
v 0.000217948 0.00441617 0.00401982 
v 0.00101322 0.00441617 0.00618036 
v 0.000651289 0.00441617 0.00397269 
v 0.00167549 0.00441617 0.00603458 
v 0.00107699 0.00441617 0.00387898 
v 0.00536638 0.00441617 0.00322884 
v 0.00611644 0.00441617 -0.00134633 
v 0.0039316 0.00441617 -0.000865411 
v 0.00400212 0.00441617 -0.000435257 
v 0.00593502 0.00441617 -0.00199974 
v 0.00498582 0.00441617 -0.00379012 
v 0.00320485 0.00441617 -0.00243626 
v 0.00351464 0.00441617 -0.0051837 
v 0.00225918 0.00441617 -0.00333205 
v 0.0026062 0.00441617 -0.00306825 
v 0.00293358 0.00441617 -0.00553331 
v 0.00188568 0.00441617 -0.00355677 
v 0.00231812 0.00441617 -0.00581805 
v -0.00167549 0.00441617 -0.00603458 
v -0.00107699 0.00441617 -0.00387898 
v -0.000651289 0.00441617 -0.00397269 
v -0.00231812 0.00441617 -0.00581805 
v -0.00149007 0.00441617 -0.0037398 
v -0.00293358 0.00441617 -0.00553331 
v -0.00188568 0.00441617 -0.00355677 
v -0.00351464 0.00441617 -0.0051837 
v -0.00568402 0.00441617 -0.00262971 
v -0.00365365 0.00441617 -0.00169036 
v -0.00593502 0.00441617 -0.00199974 
v -0.00381499 0.00441617 -0.00128542 
v 0.00231812 0.00441617 0.00581805 
v 0.00149007 0.00441617 0.0037398 
v 0.00293358 0.00441617 0.00553331 
v 0.00626286 0.00441617 -1.53396e-18 
v 0.00402572 0.00441617 0 
v 0.00622615 0.00441617 -0.000677134 
v 0.00454681 0.00441617 -0.00430697 
v 0.00292266 0.00441617 -0.00276849 
v 0.00405449 0.00441617 -0.00477331 
v -0.00611644 0.00441617 -0.00134633 
v -0.0039316 0.00441617 -0.000865411 
v -0.00622615 0.00441617 -0.000677134 
v -0.00400212 0.00441617 -0.000435257 
v 0.000339064 0.00441617 -0.00625368 
v 0.000217948 0.00441617 -0.00401982 
v -0.000339064 0.00441617 -0.00625368 
v -0.000217948 0.00441617 -0.00401982 
v -0.00402572 0.00441617 4.93009e-19 
v -0.00101322 0.00441617 -0.00618036 
vn -1.22465e-16 1 0 
vn -1.22465e-16 1 0 
vn -1.22465e-16 1 0 
vn -1.22465e-16 1 0 
vn -1.22465e-16 1 0 
vn -1.22465e-16 1 0 
vn -1.22465e-16 1 0 
vn -1.22465e-16 1 0 
vn -1.22465e-16 1 0 
vn -1.22465e-16 1 0 
vn -1.22465e-16 1 0 
vn -1.22465e-16 1 0 
vn -1.22465e-16 1 0 
vn -1.22465e-16 1 0 
vn -1.22465e-16 1 0 
vn -1.22465e-16 1 0 
vn -1.22465e-16 1 0 
vn -1.22465e-16 1 0 
vn -1.22465e-16 1 0 
vn -1.22465e-16 1 0 
vn -1.22465e-16 1 0 
vn -1.22465e-16 1 0 
vn -1.22465e-16 1 0 
vn -1.22465e-16 1 0 
vn -1.22465e-16 1 0 
vn -1.22465e-16 1 0 
vn -1.22465e-16 1 0 
vn -1.22465e-16 1 0 
vn -1.22465e-16 1 0 
vn -1.22465e-16 1 0 
vn -1.22465e-16 1 0 
vn -1.22465e-16 1 0 
vn -1.22465e-16 1 0 
vn -1.22465e-16 1 0 
vn -1.22465e-16 1 0 
vn -1.22465e-16 1 0 
vn -1.22465e-16 1 0 
vn -1.22465e-16 1 0 
vn -1.22465e-16 1 0 
vn -1.22465e-16 1 0 
vn -1.22465e-16 1 0 
vn -1.22465e-16 1 0 
vn -1.22465e-16 1 0 
vn -1.22465e-16 1 0 
vn -1.22465e-16 1 0 
vn -1.22465e-16 1 0 
vn -1.22465e-16 1 0 
vn -1.22465e-16 1 0 
vn -1.22465e-16 1 0 
vn -1.22465e-16 1 0 
vn -1.22465e-16 1 0 
vn -1.22465e-16 1 0 
vn -1.22465e-16 1 0 
vn -1.22465e-16 1 0 
vn -1.22465e-16 1 0 
vn -1.22465e-16 1 0 
vn -1.22465e-16 1 0 
vn -1.22465e-16 1 0 
vn -1.22465e-16 1 0 
vn -1.22465e-16 1 0 
vn -1.22465e-16 1 0 
vn -1.22465e-16 1 0 
vn -1.22465e-16 1 0 
vn -1.22465e-16 1 0 
vn -1.22465e-16 1 0 
vn -1.22465e-16 1 0 
vn -1.22465e-16 1 0 
vn -1.22465e-16 1 0 
vn -1.22465e-16 1 0 
vn -1.22465e-16 1 0 
vn -1.22465e-16 1 0 
vn -1.22465e-16 1 0 
vn -1.22465e-16 1 0 
vn -1.22465e-16 1 0 
vn -1.22465e-16 1 0 
vn -1.22465e-16 1 0 
vn -1.22465e-16 1 0 
vn -1.22465e-16 1 0 
vn -1.22465e-16 1 0 
vn -1.22465e-16 1 0 
vn -1.22465e-16 1 0 
vn -1.22465e-16 1 0 
vn -1.22465e-16 1 0 
vn -1.22465e-16 1 0 
vn -1.22465e-16 1 0 
vn -1.22465e-16 1 0 
vn -1.22465e-16 1 0 
vn -1.22465e-16 1 0 
vn -1.22465e-16 1 0 
vn -1.22465e-16 1 0 
vn -1.22465e-16 1 0 
vn -1.22465e-16 1 0 
vn -1.22465e-16 1 0 
vn -1.22465e-16 1 0 
vn -1.22465e-16 1 0 
vn -1.22465e-16 1 0 
vn -1.22465e-16 1 0 
vn -1.22465e-16 1 0 
vn -1.22465e-16 1 0 
vn -1.22465e-16 1 0 
vn -1.22465e-16 1 0 
vn -1.22465e-16 1 0 
vn -1.22465e-16 1 0 
vn -1.22465e-16 1 0 
vn -1.22465e-16 1 0 
vn -1.22465e-16 1 0 
vn -1.22465e-16 1 0 
vn -1.22465e-16 1 0 
vn -1.22465e-16 1 0 
vn -1.22465e-16 1 0 
vn -1.22465e-16 1 0 
vn -1.22465e-16 1 0 
vn -1.22465e-16 1 0 
vn -1.22465e-16 1 0 
vn -1.22465e-16 1 0 
vn -1.22465e-16 1 0 
f 349//349 350//350 351//351 
f 352//352 353//353 350//350 
f 354//354 351//351 355//355 
f 350//350 349//349 352//352 
f 356//356 357//357 353//353 
f 356//356 358//358 359//359 
f 360//360 361//361 362//362 
f 361//361 363//363 355//355 
f 351//351 354//354 349//349 
f 359//359 357//357 356//356 
f 364//364 365//365 366//366 
f 367//367 368//368 365//365 
f 369//369 370//370 368//368 
f 369//369 371//371 372//372 
f 373//373 374//374 375//375 
f 374//374 376//376 377//377 
f 376//376 378//378 379//379 
f 378//378 380//380 381//381 
f 382//382 383//383 381//381 
f 382//382 360//360 384//384 
f 355//355 362//362 361//361 
f 353//353 352//352 356//356 
f 365//365 364//364 367//367 
f 372//372 370//370 369//369 
f 385//385 386//386 387//387 
f 385//385 388//388 389//389 
f 390//390 391//391 389//389 
f 390//390 392//392 393//393 
f 394//394 395//395 396//396 
f 397//397 398//398 395//395 
f 399//399 400//400 401//401 
f 399//399 402//402 403//403 
f 404//404 405//405 406//406 
f 407//407 408//408 405//405 
f 409//409 410//410 408//408 
f 409//409 411//411 412//412 
f 413//413 373//373 414//414 
f 377//377 375//375 374//374 
f 381//381 379//379 378//378 
f 384//384 383//383 382//382 
f 355//355 363//363 354//354 
f 358//358 415//415 416//416 
f 417//417 418//418 416//416 
f 417//417 419//419 420//420 
f 368//368 367//367 369//369 
f 371//371 421//421 387//387 
f 389//389 386//386 385//385 
f 393//393 391//391 390//390 
f 422//422 423//423 424//424 
f 425//425 396//396 423//423 
f 395//395 394//394 397//397 
f 397//397 426//426 427//427 
f 428//428 429//429 430//430 
f 431//431 432//432 429//429 
f 433//433 401//401 432//432 
f 403//403 400//400 399//399 
f 434//434 435//435 436//436 
f 434//434 437//437 438//438 
f 439//439 440//440 438//438 
f 439//439 441//441 406//406 
f 405//405 404//404 407//407 
f 412//412 410//410 409//409 
f 442//442 443//443 412//412 
f 442//442 444//444 445//445 
f 375//375 414//414 373//373 
f 381//381 380//380 382//382 
f 416//416 359//359 358//358 
f 420//420 418//418 417//417 
f 446//446 447//447 420//420 
f 446//446 448//448 366//366 
f 387//387 372//372 371//371 
f 389//389 388//388 390//390 
f 449//449 450//450 393//393 
f 449//449 451//451 424//424 
f 423//423 422//422 425//425 
f 427//427 398//398 397//397 
f 452//452 453//453 427//427 
f 452//452 454//454 430//430 
f 429//429 428//428 431//431 
f 401//401 433//433 399//399 
f 438//438 435//435 434//434 
f 406//406 440//440 439//439 
f 408//408 407//407 409//409 
f 445//445 443//443 442//442 
f 455//455 456//456 445//445 
f 455//455 457//457 458//458 
f 379//379 377//377 376//376 
f 416//416 415//415 417//417 
f 366//366 447//447 446//446 
f 387//387 421//421 385//385 
f 424//424 450//450 449//449 
f 396//396 425//425 394//394 
f 430//430 453//453 452//452 
f 432//432 431//431 433//433 
f 459//459 460//460 403//403 
f 459//459 461//461 462//462 
f 438//438 437//437 439//439 
f 412//412 411//411 442//442 
f 458//458 456//456 455//455 
f 413//413 463//463 458//458 
f 362//362 384//384 360//360 
f 366//366 448//448 364//364 
f 424//424 451//451 422//422 
f 430//430 454//454 428//428 
f 462//462 460//460 459//459 
f 461//461 464//464 436//436 
f 406//406 441//441 404//404 
f 458//458 457//457 413//413 
f 420//420 419//419 446//446 
f 427//427 426//426 452//452 
f 436//436 462//462 461//461 
f 445//445 444//444 455//455 
f 393//393 392//392 449//449 
f 436//436 464//464 434//434 
f 403//403 402//402 459//459 
f 414//414 463//463 413//413 
