# OBJ generated by ONSHAPE BY PTC INC, 1.215 Units = meters
mtllib _95615A120_Medium_Strength_Steel_Nylon_Insert_Locknut.mtl
g 95615A120_Medium-Strength Steel Nylon-Insert Locknut
usemtl 0.752941_0.752941_0.752941_0.000000_0.000000
o mesh1071
v 0.00233633 0.00238506 -0.000254092 
v 0.00235011 0.00238506 -5.75611e-19 
v 0.00235011 0.00349967 0 
v 0.00229517 0.00238506 -0.000505204 
v 0.00233633 0.00349967 -0.000254092 
v 0.00222709 0.00238506 -0.000750394 
v 0.00229517 0.00349967 -0.000505204 
v 0.0021329 0.00238506 -0.000986786 
v 0.00222709 0.00349967 -0.000750394 
v 0.00201371 0.00238506 -0.00121161 
v 0.0021329 0.00349967 -0.000986786 
v 0.00187091 0.00238506 -0.00142223 
v 0.00201371 0.00349967 -0.00121161 
v 0.00170617 0.00238506 -0.00161617 
v 0.00187091 0.00349967 -0.00142223 
v 0.00152143 0.00238506 -0.00179117 
v 0.00170617 0.00349967 -0.00161617 
v 0.00131885 0.00238506 -0.00194516 
v 0.00152143 0.00349967 -0.00179117 
v 0.00110081 0.00238506 -0.00207635 
v 0.00131885 0.00349967 -0.00194516 
v 0.000869866 0.00238506 -0.0021832 
v 0.00110081 0.00349967 -0.00207635 
v 0.000628721 0.00238506 -0.00226445 
v 0.000869866 0.00349967 -0.0021832 
v 0.000380206 0.00238506 -0.00231915 
v 0.000628721 0.00349967 -0.00226445 
v 0.000127232 0.00238506 -0.00234666 
v 0.000380206 0.00349967 -0.00231915 
v -0.000127232 0.00238506 -0.00234666 
v 0.000127232 0.00349967 -0.00234666 
v -0.000380206 0.00238506 -0.00231915 
v -0.000127232 0.00349967 -0.00234666 
v -0.000628721 0.00238506 -0.00226445 
v -0.000380206 0.00349967 -0.00231915 
v -0.000869866 0.00238506 -0.0021832 
v -0.000628721 0.00349967 -0.00226445 
v -0.00110081 0.00238506 -0.00207635 
v -0.000869866 0.00349967 -0.0021832 
v -0.00131885 0.00238506 -0.00194516 
v -0.00110081 0.00349967 -0.00207635 
v -0.00152143 0.00238506 -0.00179117 
v -0.00131885 0.00349967 -0.00194516 
v -0.00170617 0.00238506 -0.00161617 
v -0.00152143 0.00349967 -0.00179117 
v -0.00187091 0.00238506 -0.00142223 
v -0.00170617 0.00349967 -0.00161617 
v -0.00201371 0.00238506 -0.00121161 
v -0.00187091 0.00349967 -0.00142223 
v -0.0021329 0.00238506 -0.000986786 
v -0.00201371 0.00349967 -0.00121161 
v -0.00222709 0.00238506 -0.000750394 
v -0.0021329 0.00349967 -0.000986786 
v -0.00229517 0.00238506 -0.000505204 
v -0.00222709 0.00349967 -0.000750394 
v -0.00233633 0.00238506 -0.000254092 
v -0.00229517 0.00349967 -0.000505204 
v -0.00235011 0.00238506 2.87806e-19 
v -0.00233633 0.00349967 -0.000254092 
v -0.00233633 0.00238506 0.000254092 
v -0.00235011 0.00349967 2.87806e-19 
v -0.00229517 0.00238506 0.000505204 
v -0.00233633 0.00349967 0.000254092 
v -0.00222709 0.00238506 0.000750394 
v -0.00229517 0.00349967 0.000505204 
v -0.0021329 0.00238506 0.000986786 
v -0.00222709 0.00349967 0.000750394 
v -0.00201371 0.00238506 0.00121161 
v -0.0021329 0.00349967 0.000986786 
v -0.00187091 0.00238506 0.00142223 
v -0.00201371 0.00349967 0.00121161 
v -0.00170617 0.00238506 0.00161617 
v -0.00187091 0.00349967 0.00142223 
v -0.00152143 0.00238506 0.00179117 
v -0.00170617 0.00349967 0.00161617 
v -0.00131885 0.00238506 0.00194516 
v -0.00152143 0.00349967 0.00179117 
v -0.00110081 0.00238506 0.00207635 
v -0.00131885 0.00349967 0.00194516 
v -0.000869866 0.00238506 0.0021832 
v -0.00110081 0.00349967 0.00207635 
v -0.000628721 0.00238506 0.00226445 
v -0.000869866 0.00349967 0.0021832 
v -0.000380206 0.00238506 0.00231915 
v -0.000628721 0.00349967 0.00226445 
v -0.000127232 0.00238506 0.00234666 
v -0.000380206 0.00349967 0.00231915 
v 0.000127232 0.00238506 0.00234666 
v -0.000127232 0.00349967 0.00234666 
v 0.000380206 0.00238506 0.00231915 
v 0.000127232 0.00349967 0.00234666 
v 0.000628721 0.00238506 0.00226445 
v 0.000380206 0.00349967 0.00231915 
v 0.000869866 0.00238506 0.0021832 
v 0.000628721 0.00349967 0.00226445 
v 0.00110081 0.00238506 0.00207635 
v 0.000869866 0.00349967 0.0021832 
v 0.00131885 0.00238506 0.00194516 
v 0.00110081 0.00349967 0.00207635 
v 0.00152143 0.00238506 0.00179117 
v 0.00131885 0.00349967 0.00194516 
v 0.00170617 0.00238506 0.00161617 
v 0.00152143 0.00349967 0.00179117 
v 0.00187091 0.00238506 0.00142223 
v 0.00170617 0.00349967 0.00161617 
v 0.00201371 0.00238506 0.00121161 
v 0.00187091 0.00349967 0.00142223 
v 0.0021329 0.00238506 0.000986786 
v 0.00201371 0.00349967 0.00121161 
v 0.00222709 0.00238506 0.000750394 
v 0.0021329 0.00349967 0.000986786 
v 0.00229517 0.00238506 0.000505204 
v 0.00222709 0.00349967 0.000750394 
v 0.00233633 0.00238506 0.000254092 
v 0.00229517 0.00349967 0.000505204 
v 0.00233633 0.00349967 0.000254092 
vn -0.994138 -1.21747e-16 0.108119 
vn -1 -1.22465e-16 2.44929e-16 
vn -1 -1.22465e-16 2.44929e-16 
vn -0.976621 -1.19602e-16 0.21497 
vn -0.994138 -1.21747e-16 0.108119 
vn -0.947653 -1.16054e-16 0.319302 
vn -0.976621 -1.19602e-16 0.21497 
vn -0.907575 -1.11146e-16 0.419889 
vn -0.947653 -1.16054e-16 0.319302 
vn -0.856857 -1.04935e-16 0.515554 
vn -0.907575 -1.11146e-16 0.419889 
vn -0.796093 -9.74933e-17 0.605174 
vn -0.856857 -1.04935e-16 0.515554 
vn -0.725995 -8.89088e-17 0.687699 
vn -0.796093 -9.74933e-17 0.605174 
vn -0.647386 -7.9282e-17 0.762162 
vn -0.725995 -8.89088e-17 0.687699 
vn -0.561187 -6.87256e-17 0.827689 
vn -0.647386 -7.9282e-17 0.762162 
vn -0.468408 -5.73635e-17 0.883512 
vn -0.561187 -6.87256e-17 0.827689 
vn -0.370138 -4.53289e-17 0.928977 
vn -0.468408 -5.73635e-17 0.883512 
vn -0.267528 -3.27628e-17 0.96355 
vn -0.370138 -4.53289e-17 0.928977 
vn -0.161782 -1.98126e-17 0.986827 
vn -0.267528 -3.27628e-17 0.96355 
vn -0.0541389 -6.6301e-18 0.998533 
vn -0.161782 -1.98126e-17 0.986827 
vn 0.0541389 6.6301e-18 0.998533 
vn -0.0541389 -6.6301e-18 0.998533 
vn 0.161782 1.98126e-17 0.986827 
vn 0.0541389 6.6301e-18 0.998533 
vn 0.267528 3.27628e-17 0.96355 
vn 0.161782 1.98126e-17 0.986827 
vn 0.370138 4.53289e-17 0.928977 
vn 0.267528 3.27628e-17 0.96355 
vn 0.468408 5.73635e-17 0.883512 
vn 0.370138 4.53289e-17 0.928977 
vn 0.561187 6.87256e-17 0.827689 
vn 0.468408 5.73635e-17 0.883512 
vn 0.647386 7.9282e-17 0.762162 
vn 0.561187 6.87256e-17 0.827689 
vn 0.725995 8.89088e-17 0.687699 
vn 0.647386 7.9282e-17 0.762162 
vn 0.796093 9.74933e-17 0.605174 
vn 0.725995 8.89088e-17 0.687699 
vn 0.856857 1.04935e-16 0.515554 
vn 0.796093 9.74933e-17 0.605174 
vn 0.907575 1.11146e-16 0.419889 
vn 0.856857 1.04935e-16 0.515554 
vn 0.947653 1.16054e-16 0.319302 
vn 0.907575 1.11146e-16 0.419889 
vn 0.976621 1.19602e-16 0.21497 
vn 0.947653 1.16054e-16 0.319302 
vn 0.994138 1.21747e-16 0.108119 
vn 0.976621 1.19602e-16 0.21497 
vn 1 1.22465e-16 -1.22465e-16 
vn 0.994138 1.21747e-16 0.108119 
vn 0.994138 1.21747e-16 -0.108119 
vn 1 1.22465e-16 -1.22465e-16 
vn 0.976621 1.19602e-16 -0.21497 
vn 0.994138 1.21747e-16 -0.108119 
vn 0.947653 1.16054e-16 -0.319302 
vn 0.976621 1.19602e-16 -0.21497 
vn 0.907575 1.11146e-16 -0.419889 
vn 0.947653 1.16054e-16 -0.319302 
vn 0.856857 1.04935e-16 -0.515554 
vn 0.907575 1.11146e-16 -0.419889 
vn 0.796093 9.74933e-17 -0.605174 
vn 0.856857 1.04935e-16 -0.515554 
vn 0.725995 8.89088e-17 -0.687699 
vn 0.796093 9.74933e-17 -0.605174 
vn 0.647386 7.9282e-17 -0.762162 
vn 0.725995 8.89088e-17 -0.687699 
vn 0.561187 6.87256e-17 -0.827689 
vn 0.647386 7.9282e-17 -0.762162 
vn 0.468408 5.73635e-17 -0.883512 
vn 0.561187 6.87256e-17 -0.827689 
vn 0.370138 4.53289e-17 -0.928977 
vn 0.468408 5.73635e-17 -0.883512 
vn 0.267528 3.27628e-17 -0.96355 
vn 0.370138 4.53289e-17 -0.928977 
vn 0.161782 1.98126e-17 -0.986827 
vn 0.267528 3.27628e-17 -0.96355 
vn 0.0541389 6.6301e-18 -0.998533 
vn 0.161782 1.98126e-17 -0.986827 
vn -0.0541389 -6.6301e-18 -0.998533 
vn 0.0541389 6.6301e-18 -0.998533 
vn -0.161782 -1.98126e-17 -0.986827 
vn -0.0541389 -6.6301e-18 -0.998533 
vn -0.267528 -3.27628e-17 -0.96355 
vn -0.161782 -1.98126e-17 -0.986827 
vn -0.370138 -4.53289e-17 -0.928977 
vn -0.267528 -3.27628e-17 -0.96355 
vn -0.468408 -5.73635e-17 -0.883512 
vn -0.370138 -4.53289e-17 -0.928977 
vn -0.561187 -6.87256e-17 -0.827689 
vn -0.468408 -5.73635e-17 -0.883512 
vn -0.647386 -7.9282e-17 -0.762162 
vn -0.561187 -6.87256e-17 -0.827689 
vn -0.725995 -8.89088e-17 -0.687699 
vn -0.647386 -7.9282e-17 -0.762162 
vn -0.796093 -9.74933e-17 -0.605174 
vn -0.725995 -8.89088e-17 -0.687699 
vn -0.856857 -1.04935e-16 -0.515554 
vn -0.796093 -9.74933e-17 -0.605174 
vn -0.907575 -1.11146e-16 -0.419889 
vn -0.856857 -1.04935e-16 -0.515554 
vn -0.947653 -1.16054e-16 -0.319302 
vn -0.907575 -1.11146e-16 -0.419889 
vn -0.976621 -1.19602e-16 -0.21497 
vn -0.947653 -1.16054e-16 -0.319302 
vn -0.994138 -1.21747e-16 -0.108119 
vn -0.976621 -1.19602e-16 -0.21497 
vn -0.994138 -1.21747e-16 -0.108119 
f 1//1 2//2 3//3 
f 4//4 1//1 5//5 
f 6//6 4//4 7//7 
f 8//8 6//6 9//9 
f 10//10 8//8 11//11 
f 12//12 10//10 13//13 
f 14//14 12//12 15//15 
f 16//16 14//14 17//17 
f 18//18 16//16 19//19 
f 20//20 18//18 21//21 
f 22//22 20//20 23//23 
f 24//24 22//22 25//25 
f 26//26 24//24 27//27 
f 28//28 26//26 29//29 
f 30//30 28//28 31//31 
f 32//32 30//30 33//33 
f 34//34 32//32 35//35 
f 36//36 34//34 37//37 
f 38//38 36//36 39//39 
f 40//40 38//38 41//41 
f 42//42 40//40 43//43 
f 44//44 42//42 45//45 
f 46//46 44//44 47//47 
f 48//48 46//46 49//49 
f 50//50 48//48 51//51 
f 52//52 50//50 53//53 
f 54//54 52//52 55//55 
f 56//56 54//54 57//57 
f 58//58 56//56 59//59 
f 60//60 58//58 61//61 
f 62//62 60//60 63//63 
f 64//64 62//62 65//65 
f 66//66 64//64 67//67 
f 68//68 66//66 69//69 
f 70//70 68//68 71//71 
f 72//72 70//70 73//73 
f 74//74 72//72 75//75 
f 76//76 74//74 77//77 
f 78//78 76//76 79//79 
f 80//80 78//78 81//81 
f 82//82 80//80 83//83 
f 84//84 82//82 85//85 
f 86//86 84//84 87//87 
f 88//88 86//86 89//89 
f 90//90 88//88 91//91 
f 92//92 90//90 93//93 
f 94//94 92//92 95//95 
f 96//96 94//94 97//97 
f 98//98 96//96 99//99 
f 100//100 98//98 101//101 
f 102//102 100//100 103//103 
f 104//104 102//102 105//105 
f 106//106 104//104 107//107 
f 108//108 106//106 109//109 
f 110//110 108//108 111//111 
f 112//112 110//110 113//113 
f 114//114 112//112 115//115 
f 2//2 114//114 116//116 
f 116//116 3//3 2//2 
f 115//115 116//116 114//114 
f 113//113 115//115 112//112 
f 111//111 113//113 110//110 
f 109//109 111//111 108//108 
f 107//107 109//109 106//106 
f 105//105 107//107 104//104 
f 103//103 105//105 102//102 
f 101//101 103//103 100//100 
f 99//99 101//101 98//98 
f 97//97 99//99 96//96 
f 95//95 97//97 94//94 
f 93//93 95//95 92//92 
f 91//91 93//93 90//90 
f 89//89 91//91 88//88 
f 87//87 89//89 86//86 
f 85//85 87//87 84//84 
f 83//83 85//85 82//82 
f 81//81 83//83 80//80 
f 79//79 81//81 78//78 
f 77//77 79//79 76//76 
f 75//75 77//77 74//74 
f 73//73 75//75 72//72 
f 71//71 73//73 70//70 
f 69//69 71//71 68//68 
f 67//67 69//69 66//66 
f 65//65 67//67 64//64 
f 63//63 65//65 62//62 
f 61//61 63//63 60//60 
f 59//59 61//61 58//58 
f 57//57 59//59 56//56 
f 55//55 57//57 54//54 
f 53//53 55//55 52//52 
f 51//51 53//53 50//50 
f 49//49 51//51 48//48 
f 47//47 49//49 46//46 
f 45//45 47//47 44//44 
f 43//43 45//45 42//42 
f 41//41 43//43 40//40 
f 39//39 41//41 38//38 
f 37//37 39//39 36//36 
f 35//35 37//37 34//34 
f 33//33 35//35 32//32 
f 31//31 33//33 30//30 
f 29//29 31//31 28//28 
f 27//27 29//29 26//26 
f 25//25 27//27 24//24 
f 23//23 25//25 22//22 
f 21//21 23//23 20//20 
f 19//19 21//21 18//18 
f 17//17 19//19 16//16 
f 15//15 17//17 14//14 
f 13//13 15//15 12//12 
f 11//11 13//13 10//10 
f 9//9 11//11 8//8 
f 7//7 9//9 6//6 
f 5//5 7//7 4//4 
f 3//3 5//5 1//1 
o mesh1072
v -0.00396271 0.00238506 4.85291e-19 
v -0.00393948 0.00238506 -0.000428444 
v -0.00233633 0.00238506 -0.000254092 
v -0.00387006 0.00238506 -0.000851865 
v -0.00229517 0.00238506 -0.000505204 
v -0.00375527 0.00238506 -0.0012653 
v -0.00222709 0.00238506 -0.000750394 
v -0.00359645 0.00238506 -0.0016639 
v -0.0021329 0.00238506 -0.000986786 
v -0.00339547 0.00238506 -0.00204299 
v -0.00201371 0.00238506 -0.00121161 
v -0.00387006 0.00238506 0.000851865 
v -0.00393948 0.00238506 0.000428444 
v -0.00233633 0.00238506 0.000254092 
v -0.00235011 0.00238506 2.87806e-19 
v -0.00287691 0.00238506 -0.00272515 
v -0.00170617 0.00238506 -0.00161617 
v -0.00187091 0.00238506 -0.00142223 
v -0.0025654 0.00238506 -0.00302022 
v -0.00152143 0.00238506 -0.00179117 
v -0.00222382 0.00238506 0.00327989 
v -0.00131885 0.00238506 0.00194516 
v -0.00110081 0.00238506 0.00207635 
v -0.0025654 0.00238506 0.00302022 
v -0.00152143 0.00238506 0.00179117 
v -0.00359645 0.00238506 0.0016639 
v -0.0021329 0.00238506 0.000986786 
v -0.00201371 0.00238506 0.00121161 
v -0.00375527 0.00238506 0.0012653 
v -0.00222709 0.00238506 0.000750394 
v -0.00229517 0.00238506 0.000505204 
v -0.00315468 0.00238506 -0.00239813 
v -0.00222382 0.00238506 -0.00327989 
v -0.00131885 0.00238506 -0.00194516 
v -0.00287691 0.00238506 0.00272515 
v -0.00170617 0.00238506 0.00161617 
v -0.00315468 0.00238506 0.00239813 
v -0.00187091 0.00238506 0.00142223 
v -0.00339547 0.00238506 0.00204299 
v 0.00393948 0.00238506 0.000428444 
v 0.00233633 0.00238506 0.000254092 
v 0.00235011 0.00238506 -5.75611e-19 
v 0.00387006 0.00238506 0.000851865 
v 0.00229517 0.00238506 0.000505204 
v 0.00315468 0.00238506 0.00239813 
v 0.00187091 0.00238506 0.00142223 
v 0.00201371 0.00238506 0.00121161 
v 0.00287691 0.00238506 0.00272515 
v 0.00170617 0.00238506 0.00161617 
v 0.000641094 0.00238506 0.0039105 
v 0.000380206 0.00238506 0.00231915 
v 0.000628721 0.00238506 0.00226445 
v 0.000214537 0.00238506 0.00395689 
v 0.000127232 0.00238506 0.00234666 
v -0.00185616 0.00238506 -0.0035011 
v -0.00110081 0.00238506 -0.00207635 
v -0.00146675 0.00238506 -0.00368126 
v -0.000869866 0.00238506 -0.0021832 
v -0.00106014 0.00238506 -0.00381826 
v -0.000628721 0.00238506 -0.00226445 
v -0.000641094 0.00238506 -0.0039105 
v -0.000380206 0.00238506 -0.00231915 
v 0.00375527 0.00238506 0.0012653 
v 0.00222709 0.00238506 0.000750394 
v 0.00359645 0.00238506 0.0016639 
v 0.0021329 0.00238506 0.000986786 
v 0.00339547 0.00238506 0.00204299 
v 0.0025654 0.00238506 0.00302022 
v 0.00152143 0.00238506 0.00179117 
v 0.00222382 0.00238506 0.00327989 
v 0.00131885 0.00238506 0.00194516 
v 0.00185616 0.00238506 0.0035011 
v 0.00110081 0.00238506 0.00207635 
v -0.000214537 0.00238506 0.00395689 
v -0.000127232 0.00238506 0.00234666 
v -0.00106014 0.00238506 0.00381826 
v -0.000628721 0.00238506 0.00226445 
v -0.000380206 0.00238506 0.00231915 
v -0.00146675 0.00238506 0.00368126 
v -0.000869866 0.00238506 0.0021832 
v -0.000214537 0.00238506 -0.00395689 
v -0.000127232 0.00238506 -0.00234666 
v 0.000214537 0.00238506 -0.00395689 
v 0.000127232 0.00238506 -0.00234666 
v 0.000641094 0.00238506 -0.0039105 
v 0.000380206 0.00238506 -0.00231915 
v 0.00106014 0.00238506 -0.00381826 
v 0.000628721 0.00238506 -0.00226445 
v 0.00146675 0.00238506 -0.00368126 
v 0.000869866 0.00238506 -0.0021832 
v 0.00287691 0.00238506 -0.00272515 
v 0.00170617 0.00238506 -0.00161617 
v 0.00152143 0.00238506 -0.00179117 
v 0.00315468 0.00238506 -0.00239813 
v 0.00187091 0.00238506 -0.00142223 
v 0.00359645 0.00238506 -0.0016639 
v 0.0021329 0.00238506 -0.000986786 
v 0.00201371 0.00238506 -0.00121161 
v 0.00375527 0.00238506 -0.0012653 
v 0.00222709 0.00238506 -0.000750394 
v -0.000641094 0.00238506 0.0039105 
v -0.00185616 0.00238506 0.0035011 
v 0.00339547 0.00238506 -0.00204299 
v 0.00387006 0.00238506 -0.000851865 
v 0.00229517 0.00238506 -0.000505204 
v 0.00146675 0.00238506 0.00368126 
v 0.000869866 0.00238506 0.0021832 
v 0.00106014 0.00238506 0.00381826 
v 0.00185616 0.00238506 -0.0035011 
v 0.00110081 0.00238506 -0.00207635 
v 0.00222382 0.00238506 -0.00327989 
v 0.00131885 0.00238506 -0.00194516 
v 0.00393948 0.00238506 -0.000428444 
v 0.00233633 0.00238506 -0.000254092 
v 0.00396271 0.00238506 0 
v 0.0025654 0.00238506 -0.00302022 
vn 1.22465e-16 -1 0 
vn 1.22465e-16 -1 0 
vn 1.22465e-16 -1 0 
vn 1.22465e-16 -1 0 
vn 1.22465e-16 -1 0 
vn 1.22465e-16 -1 0 
vn 1.22465e-16 -1 0 
vn 1.22465e-16 -1 0 
vn 1.22465e-16 -1 0 
vn 1.22465e-16 -1 0 
vn 1.22465e-16 -1 0 
vn 1.22465e-16 -1 0 
vn 1.22465e-16 -1 0 
vn 1.22465e-16 -1 0 
vn 1.22465e-16 -1 0 
vn 1.22465e-16 -1 0 
vn 1.22465e-16 -1 0 
vn 1.22465e-16 -1 0 
vn 1.22465e-16 -1 0 
vn 1.22465e-16 -1 0 
vn 1.22465e-16 -1 0 
vn 1.22465e-16 -1 0 
vn 1.22465e-16 -1 0 
vn 1.22465e-16 -1 0 
vn 1.22465e-16 -1 0 
vn 1.22465e-16 -1 0 
vn 1.22465e-16 -1 0 
vn 1.22465e-16 -1 0 
vn 1.22465e-16 -1 0 
vn 1.22465e-16 -1 0 
vn 1.22465e-16 -1 0 
vn 1.22465e-16 -1 0 
vn 1.22465e-16 -1 0 
vn 1.22465e-16 -1 0 
vn 1.22465e-16 -1 0 
vn 1.22465e-16 -1 0 
vn 1.22465e-16 -1 0 
vn 1.22465e-16 -1 0 
vn 1.22465e-16 -1 0 
vn 1.22465e-16 -1 0 
vn 1.22465e-16 -1 0 
vn 1.22465e-16 -1 0 
vn 1.22465e-16 -1 0 
vn 1.22465e-16 -1 0 
vn 1.22465e-16 -1 0 
vn 1.22465e-16 -1 0 
vn 1.22465e-16 -1 0 
vn 1.22465e-16 -1 0 
vn 1.22465e-16 -1 0 
vn 1.22465e-16 -1 0 
vn 1.22465e-16 -1 0 
vn 1.22465e-16 -1 0 
vn 1.22465e-16 -1 0 
vn 1.22465e-16 -1 0 
vn 1.22465e-16 -1 0 
vn 1.22465e-16 -1 0 
vn 1.22465e-16 -1 0 
vn 1.22465e-16 -1 0 
vn 1.22465e-16 -1 0 
vn 1.22465e-16 -1 0 
vn 1.22465e-16 -1 0 
vn 1.22465e-16 -1 0 
vn 1.22465e-16 -1 0 
vn 1.22465e-16 -1 0 
vn 1.22465e-16 -1 0 
vn 1.22465e-16 -1 0 
vn 1.22465e-16 -1 0 
vn 1.22465e-16 -1 0 
vn 1.22465e-16 -1 0 
vn 1.22465e-16 -1 0 
vn 1.22465e-16 -1 0 
vn 1.22465e-16 -1 0 
vn 1.22465e-16 -1 0 
vn 1.22465e-16 -1 0 
vn 1.22465e-16 -1 0 
vn 1.22465e-16 -1 0 
vn 1.22465e-16 -1 0 
vn 1.22465e-16 -1 0 
vn 1.22465e-16 -1 0 
vn 1.22465e-16 -1 0 
vn 1.22465e-16 -1 0 
vn 1.22465e-16 -1 0 
vn 1.22465e-16 -1 0 
vn 1.22465e-16 -1 0 
vn 1.22465e-16 -1 0 
vn 1.22465e-16 -1 0 
vn 1.22465e-16 -1 0 
vn 1.22465e-16 -1 0 
vn 1.22465e-16 -1 0 
vn 1.22465e-16 -1 0 
vn 1.22465e-16 -1 0 
vn 1.22465e-16 -1 0 
vn 1.22465e-16 -1 0 
vn 1.22465e-16 -1 0 
vn 1.22465e-16 -1 0 
vn 1.22465e-16 -1 0 
vn 1.22465e-16 -1 0 
vn 1.22465e-16 -1 0 
vn 1.22465e-16 -1 0 
vn 1.22465e-16 -1 0 
vn 1.22465e-16 -1 0 
vn 1.22465e-16 -1 0 
vn 1.22465e-16 -1 0 
vn 1.22465e-16 -1 0 
vn 1.22465e-16 -1 0 
vn 1.22465e-16 -1 0 
vn 1.22465e-16 -1 0 
vn 1.22465e-16 -1 0 
vn 1.22465e-16 -1 0 
vn 1.22465e-16 -1 0 
vn 1.22465e-16 -1 0 
vn 1.22465e-16 -1 0 
vn 1.22465e-16 -1 0 
vn 1.22465e-16 -1 0 
vn 1.22465e-16 -1 0 
vn 1.22465e-16 -1 0 
f 117//117 118//118 119//119 
f 118//118 120//120 121//121 
f 121//121 119//119 118//118 
f 120//120 122//122 123//123 
f 122//122 124//124 125//125 
f 124//124 126//126 127//127 
f 128//128 129//129 130//130 
f 129//129 117//117 131//131 
f 123//123 121//121 120//120 
f 127//127 125//125 124//124 
f 132//132 133//133 134//134 
f 132//132 135//135 136//136 
f 137//137 138//138 139//139 
f 137//137 140//140 141//141 
f 142//142 143//143 144//144 
f 142//142 145//145 146//146 
f 128//128 147//147 146//146 
f 131//131 130//130 129//129 
f 125//125 123//123 122//122 
f 148//148 134//134 127//127 
f 136//136 133//133 132//132 
f 135//135 149//149 150//150 
f 141//141 138//138 137//137 
f 140//140 151//151 152//152 
f 153//153 154//154 152//152 
f 153//153 155//155 144//144 
f 146//146 143//143 142//142 
f 130//130 147//147 128//128 
f 127//127 126//126 148//148 
f 150//150 136//136 135//135 
f 152//152 141//141 140//140 
f 144//144 154//154 153//153 
f 146//146 145//145 128//128 
f 134//134 148//148 132//132 
f 156//156 157//157 158//158 
f 156//156 159//159 160//160 
f 161//161 162//162 163//163 
f 161//161 164//164 165//165 
f 166//166 167//167 168//168 
f 169//169 170//170 167//167 
f 152//152 151//151 153//153 
f 119//119 131//131 117//117 
f 171//171 172//172 150//150 
f 173//173 174//174 172//172 
f 175//175 176//176 174//174 
f 175//175 177//177 178//178 
f 160//160 157//157 156//156 
f 159//159 179//179 180//180 
f 181//181 182//182 180//180 
f 181//181 183//183 163//163 
f 165//165 162//162 161//161 
f 164//164 184//184 185//185 
f 184//184 186//186 187//187 
f 186//186 188//188 189//189 
f 167//167 166//166 169//169 
f 190//190 191//191 170//170 
f 192//192 193//193 194//194 
f 192//192 195//195 196//196 
f 144//144 155//155 142//142 
f 172//172 171//171 173//173 
f 178//178 176//176 175//175 
f 177//177 197//197 198//198 
f 199//199 200//200 198//198 
f 201//201 202//202 200//200 
f 203//203 204//204 202//202 
f 203//203 205//205 206//206 
f 207//207 208//208 209//209 
f 207//207 210//210 211//211 
f 212//212 213//213 214//214 
f 212//212 215//215 216//216 
f 180//180 160//160 159//159 
f 163//163 182//182 181//181 
f 185//185 165//165 164//164 
f 189//189 187//187 186//186 
f 170//170 169//169 190//190 
f 190//190 217//217 194//194 
f 196//196 193//193 192//192 
f 195//195 218//218 139//139 
f 150//150 149//149 171//171 
f 198//198 178//178 177//177 
f 200//200 199//199 201//201 
f 206//206 204//204 203//203 
f 211//211 208//208 207//207 
f 210//210 219//219 214//214 
f 216//216 213//213 212//212 
f 215//215 220//220 221//221 
f 180//180 179//179 181//181 
f 187//187 185//185 184//184 
f 222//222 223//223 189//189 
f 222//222 224//224 168//168 
f 194//194 191//191 190//190 
f 139//139 196//196 195//195 
f 174//174 173//173 175//175 
f 202//202 201//201 203//203 
f 225//225 226//226 206//206 
f 225//225 227//227 228//228 
f 214//214 211//211 210//210 
f 221//221 216//216 215//215 
f 229//229 230//230 221//221 
f 231//231 158//158 230//230 
f 163//163 183//183 161//161 
f 168//168 223//223 222//222 
f 194//194 217//217 192//192 
f 198//198 197//197 199//199 
f 228//228 226//226 225//225 
f 227//227 232//232 209//209 
f 214//214 219//219 212//212 
f 230//230 229//229 231//231 
f 189//189 188//188 222//222 
f 139//139 218//218 137//137 
f 209//209 228//228 227//227 
f 221//221 220//220 229//229 
f 168//168 224//224 166//166 
f 209//209 232//232 207//207 
f 206//206 205//205 225//225 
f 158//158 231//231 156//156 
o mesh1073
v 0.00396271 0.00238506 0 
v 0.00396271 0.00349967 -9.70583e-19 
v 0.00393948 0.00349967 0.000428444 
v 0.00393948 0.00238506 0.000428444 
v 0.00387006 0.00349967 0.000851865 
v 0.00387006 0.00238506 0.000851865 
v 0.00375527 0.00349967 0.0012653 
v 0.00375527 0.00238506 0.0012653 
v 0.00359645 0.00349967 0.0016639 
v 0.00359645 0.00238506 0.0016639 
v 0.00339547 0.00349967 0.00204299 
v 0.00339547 0.00238506 0.00204299 
v 0.00315468 0.00349967 0.00239813 
v 0.00315468 0.00238506 0.00239813 
v 0.00287691 0.00349967 0.00272515 
v 0.00287691 0.00238506 0.00272515 
v 0.0025654 0.00349967 0.00302022 
v 0.0025654 0.00238506 0.00302022 
v 0.00222382 0.00349967 0.00327989 
v 0.00222382 0.00238506 0.00327989 
v 0.00185616 0.00349967 0.0035011 
v 0.00185616 0.00238506 0.0035011 
v 0.00146675 0.00349967 0.00368126 
v 0.00146675 0.00238506 0.00368126 
v 0.00106014 0.00349967 0.00381826 
v 0.00106014 0.00238506 0.00381826 
v 0.000641094 0.00349967 0.0039105 
v 0.000641094 0.00238506 0.0039105 
v 0.000214537 0.00349967 0.00395689 
v 0.000214537 0.00238506 0.00395689 
v -0.000214537 0.00349967 0.00395689 
v -0.000214537 0.00238506 0.00395689 
v -0.000641094 0.00349967 0.0039105 
v -0.000641094 0.00238506 0.0039105 
v -0.00106014 0.00349967 0.00381826 
v -0.00106014 0.00238506 0.00381826 
v -0.00146675 0.00349967 0.00368126 
v -0.00146675 0.00238506 0.00368126 
v -0.00185616 0.00349967 0.0035011 
v -0.00185616 0.00238506 0.0035011 
v -0.00222382 0.00349967 0.00327989 
v -0.00222382 0.00238506 0.00327989 
v -0.0025654 0.00349967 0.00302022 
v -0.0025654 0.00238506 0.00302022 
v -0.00287691 0.00349967 0.00272515 
v -0.00287691 0.00238506 0.00272515 
v -0.00315468 0.00349967 0.00239813 
v -0.00315468 0.00238506 0.00239813 
v -0.00339547 0.00349967 0.00204299 
v -0.00339547 0.00238506 0.00204299 
v -0.00359645 0.00349967 0.0016639 
v -0.00359645 0.00238506 0.0016639 
v -0.00375527 0.00349967 0.0012653 
v -0.00375527 0.00238506 0.0012653 
v -0.00387006 0.00349967 0.000851865 
v -0.00387006 0.00238506 0.000851865 
v -0.00393948 0.00349967 0.000428444 
v -0.00393948 0.00238506 0.000428444 
v -0.00396271 0.00349967 4.85291e-19 
v -0.00396271 0.00238506 4.85291e-19 
v -0.00393948 0.00349967 -0.000428444 
v -0.00393948 0.00238506 -0.000428444 
v -0.00387006 0.00349967 -0.000851865 
v -0.00387006 0.00238506 -0.000851865 
v -0.00375527 0.00349967 -0.0012653 
v -0.00375527 0.00238506 -0.0012653 
v -0.00359645 0.00349967 -0.0016639 
v -0.00359645 0.00238506 -0.0016639 
v -0.00339547 0.00349967 -0.00204299 
v -0.00339547 0.00238506 -0.00204299 
v -0.00315468 0.00349967 -0.00239813 
v -0.00315468 0.00238506 -0.00239813 
v -0.00287691 0.00349967 -0.00272515 
v -0.00287691 0.00238506 -0.00272515 
v -0.0025654 0.00349967 -0.00302022 
v -0.0025654 0.00238506 -0.00302022 
v -0.00222382 0.00349967 -0.00327989 
v -0.00222382 0.00238506 -0.00327989 
v -0.00185616 0.00349967 -0.0035011 
v -0.00185616 0.00238506 -0.0035011 
v -0.00146675 0.00349967 -0.00368126 
v -0.00146675 0.00238506 -0.00368126 
v -0.00106014 0.00349967 -0.00381826 
v -0.00106014 0.00238506 -0.00381826 
v -0.000641094 0.00349967 -0.0039105 
v -0.000641094 0.00238506 -0.0039105 
v -0.000214537 0.00349967 -0.00395689 
v -0.000214537 0.00238506 -0.00395689 
v 0.000214537 0.00349967 -0.00395689 
v 0.000214537 0.00238506 -0.00395689 
v 0.000641094 0.00349967 -0.0039105 
v 0.000641094 0.00238506 -0.0039105 
v 0.00106014 0.00349967 -0.00381826 
v 0.00106014 0.00238506 -0.00381826 
v 0.00146675 0.00349967 -0.00368126 
v 0.00146675 0.00238506 -0.00368126 
v 0.00185616 0.00349967 -0.0035011 
v 0.00185616 0.00238506 -0.0035011 
v 0.00222382 0.00349967 -0.00327989 
v 0.00222382 0.00238506 -0.00327989 
v 0.0025654 0.00349967 -0.00302022 
v 0.0025654 0.00238506 -0.00302022 
v 0.00287691 0.00349967 -0.00272515 
v 0.00287691 0.00238506 -0.00272515 
v 0.00315468 0.00349967 -0.00239813 
v 0.00315468 0.00238506 -0.00239813 
v 0.00339547 0.00349967 -0.00204299 
v 0.00339547 0.00238506 -0.00204299 
v 0.00359645 0.00349967 -0.0016639 
v 0.00359645 0.00238506 -0.0016639 
v 0.00375527 0.00349967 -0.0012653 
v 0.00375527 0.00238506 -0.0012653 
v 0.00387006 0.00349967 -0.000851865 
v 0.00387006 0.00238506 -0.000851865 
v 0.00393948 0.00349967 -0.000428444 
v 0.00393948 0.00238506 -0.000428444 
vn 1 1.22465e-16 0 
vn 1 1.22465e-16 0 
vn 0.994138 1.21747e-16 0.108119 
vn 0.994138 1.21747e-16 0.108119 
vn 0.976621 1.19602e-16 0.21497 
vn 0.976621 1.19602e-16 0.21497 
vn 0.947653 1.16054e-16 0.319302 
vn 0.947653 1.16054e-16 0.319302 
vn 0.907575 1.11146e-16 0.419889 
vn 0.907575 1.11146e-16 0.419889 
vn 0.856857 1.04935e-16 0.515554 
vn 0.856857 1.04935e-16 0.515554 
vn 0.796093 9.74933e-17 0.605174 
vn 0.796093 9.74933e-17 0.605174 
vn 0.725995 8.89088e-17 0.687699 
vn 0.725995 8.89088e-17 0.687699 
vn 0.647386 7.9282e-17 0.762162 
vn 0.647386 7.9282e-17 0.762162 
vn 0.561187 6.87256e-17 0.827689 
vn 0.561187 6.87256e-17 0.827689 
vn 0.468408 5.73635e-17 0.883512 
vn 0.468408 5.73635e-17 0.883512 
vn 0.370138 4.53289e-17 0.928977 
vn 0.370138 4.53289e-17 0.928977 
vn 0.267528 3.27628e-17 0.96355 
vn 0.267528 3.27628e-17 0.96355 
vn 0.161782 1.98126e-17 0.986827 
vn 0.161782 1.98126e-17 0.986827 
vn 0.0541389 6.6301e-18 0.998533 
vn 0.0541389 6.6301e-18 0.998533 
vn -0.0541389 -6.6301e-18 0.998533 
vn -0.0541389 -6.6301e-18 0.998533 
vn -0.161782 -1.98126e-17 0.986827 
vn -0.161782 -1.98126e-17 0.986827 
vn -0.267528 -3.27628e-17 0.96355 
vn -0.267528 -3.27628e-17 0.96355 
vn -0.370138 -4.53289e-17 0.928977 
vn -0.370138 -4.53289e-17 0.928977 
vn -0.468408 -5.73635e-17 0.883512 
vn -0.468408 -5.73635e-17 0.883512 
vn -0.561187 -6.87256e-17 0.827689 
vn -0.561187 -6.87256e-17 0.827689 
vn -0.647386 -7.9282e-17 0.762162 
vn -0.647386 -7.9282e-17 0.762162 
vn -0.725995 -8.89088e-17 0.687699 
vn -0.725995 -8.89088e-17 0.687699 
vn -0.796093 -9.74933e-17 0.605174 
vn -0.796093 -9.74933e-17 0.605174 
vn -0.856857 -1.04935e-16 0.515554 
vn -0.856857 -1.04935e-16 0.515554 
vn -0.907575 -1.11146e-16 0.419889 
vn -0.907575 -1.11146e-16 0.419889 
vn -0.947653 -1.16054e-16 0.319302 
vn -0.947653 -1.16054e-16 0.319302 
vn -0.976621 -1.19602e-16 0.21497 
vn -0.976621 -1.19602e-16 0.21497 
vn -0.994138 -1.21747e-16 0.108119 
vn -0.994138 -1.21747e-16 0.108119 
vn -1 -1.22465e-16 1.22465e-16 
vn -1 -1.22465e-16 1.22465e-16 
vn -0.994138 -1.21747e-16 -0.108119 
vn -0.994138 -1.21747e-16 -0.108119 
vn -0.976621 -1.19602e-16 -0.21497 
vn -0.976621 -1.19602e-16 -0.21497 
vn -0.947653 -1.16054e-16 -0.319302 
vn -0.947653 -1.16054e-16 -0.319302 
vn -0.907575 -1.11146e-16 -0.419889 
vn -0.907575 -1.11146e-16 -0.419889 
vn -0.856857 -1.04935e-16 -0.515554 
vn -0.856857 -1.04935e-16 -0.515554 
vn -0.796093 -9.74933e-17 -0.605174 
vn -0.796093 -9.74933e-17 -0.605174 
vn -0.725995 -8.89088e-17 -0.687699 
vn -0.725995 -8.89088e-17 -0.687699 
vn -0.647386 -7.9282e-17 -0.762162 
vn -0.647386 -7.9282e-17 -0.762162 
vn -0.561187 -6.87256e-17 -0.827689 
vn -0.561187 -6.87256e-17 -0.827689 
vn -0.468408 -5.73635e-17 -0.883512 
vn -0.468408 -5.73635e-17 -0.883512 
vn -0.370138 -4.53289e-17 -0.928977 
vn -0.370138 -4.53289e-17 -0.928977 
vn -0.267528 -3.27628e-17 -0.96355 
vn -0.267528 -3.27628e-17 -0.96355 
vn -0.161782 -1.98126e-17 -0.986827 
vn -0.161782 -1.98126e-17 -0.986827 
vn -0.0541389 -6.6301e-18 -0.998533 
vn -0.0541389 -6.6301e-18 -0.998533 
vn 0.0541389 6.6301e-18 -0.998533 
vn 0.0541389 6.6301e-18 -0.998533 
vn 0.161782 1.98126e-17 -0.986827 
vn 0.161782 1.98126e-17 -0.986827 
vn 0.267528 3.27628e-17 -0.96355 
vn 0.267528 3.27628e-17 -0.96355 
vn 0.370138 4.53289e-17 -0.928977 
vn 0.370138 4.53289e-17 -0.928977 
vn 0.468408 5.73635e-17 -0.883512 
vn 0.468408 5.73635e-17 -0.883512 
vn 0.561187 6.87256e-17 -0.827689 
vn 0.561187 6.87256e-17 -0.827689 
vn 0.647386 7.9282e-17 -0.762162 
vn 0.647386 7.9282e-17 -0.762162 
vn 0.725995 8.89088e-17 -0.687699 
vn 0.725995 8.89088e-17 -0.687699 
vn 0.796093 9.74933e-17 -0.605174 
vn 0.796093 9.74933e-17 -0.605174 
vn 0.856857 1.04935e-16 -0.515554 
vn 0.856857 1.04935e-16 -0.515554 
vn 0.907575 1.11146e-16 -0.419889 
vn 0.907575 1.11146e-16 -0.419889 
vn 0.947653 1.16054e-16 -0.319302 
vn 0.947653 1.16054e-16 -0.319302 
vn 0.976621 1.19602e-16 -0.21497 
vn 0.976621 1.19602e-16 -0.21497 
vn 0.994138 1.21747e-16 -0.108119 
vn 0.994138 1.21747e-16 -0.108119 
f 233//233 234//234 235//235 
f 236//236 235//235 237//237 
f 238//238 237//237 239//239 
f 240//240 239//239 241//241 
f 242//242 241//241 243//243 
f 244//244 243//243 245//245 
f 246//246 245//245 247//247 
f 248//248 247//247 249//249 
f 250//250 249//249 251//251 
f 252//252 251//251 253//253 
f 254//254 253//253 255//255 
f 256//256 255//255 257//257 
f 258//258 257//257 259//259 
f 260//260 259//259 261//261 
f 262//262 261//261 263//263 
f 264//264 263//263 265//265 
f 266//266 265//265 267//267 
f 268//268 267//267 269//269 
f 270//270 269//269 271//271 
f 272//272 271//271 273//273 
f 274//274 273//273 275//275 
f 276//276 275//275 277//277 
f 278//278 277//277 279//279 
f 280//280 279//279 281//281 
f 282//282 281//281 283//283 
f 284//284 283//283 285//285 
f 286//286 285//285 287//287 
f 288//288 287//287 289//289 
f 290//290 289//289 291//291 
f 292//292 291//291 293//293 
f 294//294 293//293 295//295 
f 296//296 295//295 297//297 
f 298//298 297//297 299//299 
f 300//300 299//299 301//301 
f 302//302 301//301 303//303 
f 304//304 303//303 305//305 
f 306//306 305//305 307//307 
f 308//308 307//307 309//309 
f 310//310 309//309 311//311 
f 312//312 311//311 313//313 
f 314//314 313//313 315//315 
f 316//316 315//315 317//317 
f 318//318 317//317 319//319 
f 320//320 319//319 321//321 
f 322//322 321//321 323//323 
f 324//324 323//323 325//325 
f 326//326 325//325 327//327 
f 328//328 327//327 329//329 
f 330//330 329//329 331//331 
f 332//332 331//331 333//333 
f 334//334 333//333 335//335 
f 336//336 335//335 337//337 
f 338//338 337//337 339//339 
f 340//340 339//339 341//341 
f 342//342 341//341 343//343 
f 344//344 343//343 345//345 
f 346//346 345//345 347//347 
f 348//348 347//347 234//234 
f 234//234 233//233 348//348 
f 347//347 348//348 346//346 
f 345//345 346//346 344//344 
f 343//343 344//344 342//342 
f 341//341 342//342 340//340 
f 339//339 340//340 338//338 
f 337//337 338//338 336//336 
f 335//335 336//336 334//334 
f 333//333 334//334 332//332 
f 331//331 332//332 330//330 
f 329//329 330//330 328//328 
f 327//327 328//328 326//326 
f 325//325 326//326 324//324 
f 323//323 324//324 322//322 
f 321//321 322//322 320//320 
f 319//319 320//320 318//318 
f 317//317 318//318 316//316 
f 315//315 316//316 314//314 
f 313//313 314//314 312//312 
f 311//311 312//312 310//310 
f 309//309 310//310 308//308 
f 307//307 308//308 306//306 
f 305//305 306//306 304//304 
f 303//303 304//304 302//302 
f 301//301 302//302 300//300 
f 299//299 300//300 298//298 
f 297//297 298//298 296//296 
f 295//295 296//296 294//294 
f 293//293 294//294 292//292 
f 291//291 292//292 290//290 
f 289//289 290//290 288//288 
f 287//287 288//288 286//286 
f 285//285 286//286 284//284 
f 283//283 284//284 282//282 
f 281//281 282//282 280//280 
f 279//279 280//280 278//278 
f 277//277 278//278 276//276 
f 275//275 276//276 274//274 
f 273//273 274//274 272//272 
f 271//271 272//272 270//270 
f 269//269 270//270 268//268 
f 267//267 268//268 266//266 
f 265//265 266//266 264//264 
f 263//263 264//264 262//262 
f 261//261 262//262 260//260 
f 259//259 260//260 258//258 
f 257//257 258//258 256//256 
f 255//255 256//256 254//254 
f 253//253 254//254 252//252 
f 251//251 252//252 250//250 
f 249//249 250//250 248//248 
f 247//247 248//248 246//246 
f 245//245 246//246 244//244 
f 243//243 244//244 242//242 
f 241//241 242//242 240//240 
f 239//239 240//240 238//238 
f 237//237 238//238 236//236 
f 235//235 236//236 233//233 
o mesh1074
v -0.00393948 0.00349967 0.000428444 
v -0.00233633 0.00349967 0.000254092 
v -0.00235011 0.00349967 2.87806e-19 
v -0.00387006 0.00349967 0.000851865 
v -0.00229517 0.00349967 0.000505204 
v 0.00359645 0.00349967 0.0016639 
v 0.0021329 0.00349967 0.000986786 
v 0.00201371 0.00349967 0.00121161 
v 0.00375527 0.00349967 0.0012653 
v 0.00222709 0.00349967 0.000750394 
v -0.00375527 0.00349967 0.0012653 
v -0.00222709 0.00349967 0.000750394 
v -0.00359645 0.00349967 0.0016639 
v -0.0021329 0.00349967 0.000986786 
v -0.00339547 0.00349967 0.00204299 
v -0.00201371 0.00349967 0.00121161 
v -0.000214537 0.00349967 0.00395689 
v -0.000127232 0.00349967 0.00234666 
v -0.000380206 0.00349967 0.00231915 
v 0.000214537 0.00349967 0.00395689 
v 0.000127232 0.00349967 0.00234666 
v 0.00222382 0.00349967 0.00327989 
v 0.00131885 0.00349967 0.00194516 
v 0.00110081 0.00349967 0.00207635 
v 0.0025654 0.00349967 0.00302022 
v 0.00152143 0.00349967 0.00179117 
v 0.00387006 0.00349967 0.000851865 
v 0.00229517 0.00349967 0.000505204 
v 0.00393948 0.00349967 0.000428444 
v 0.00233633 0.00349967 0.000254092 
v 0.00396271 0.00349967 -9.70583e-19 
v 0.00235011 0.00349967 0 
v -0.00222382 0.00349967 -0.00327989 
v -0.0025654 0.00349967 -0.00302022 
v -0.00152143 0.00349967 -0.00179117 
v -0.00287691 0.00349967 -0.00272515 
v -0.00170617 0.00349967 -0.00161617 
v -0.00315468 0.00349967 0.00239813 
v -0.00187091 0.00349967 0.00142223 
v -0.00287691 0.00349967 0.00272515 
v -0.00170617 0.00349967 0.00161617 
v -0.00222382 0.00349967 0.00327989 
v -0.00131885 0.00349967 0.00194516 
v -0.00152143 0.00349967 0.00179117 
v -0.00185616 0.00349967 0.0035011 
v -0.00110081 0.00349967 0.00207635 
v -0.00106014 0.00349967 0.00381826 
v -0.000628721 0.00349967 0.00226445 
v -0.000869866 0.00349967 0.0021832 
v -0.000641094 0.00349967 0.0039105 
v 0.000641094 0.00349967 0.0039105 
v 0.000380206 0.00349967 0.00231915 
v 0.00287691 0.00349967 0.00272515 
v 0.00170617 0.00349967 0.00161617 
v 0.00315468 0.00349967 0.00239813 
v 0.00187091 0.00349967 0.00142223 
v 0.00339547 0.00349967 0.00204299 
v 0.00393948 0.00349967 -0.000428444 
v 0.00233633 0.00349967 -0.000254092 
v 0.00387006 0.00349967 -0.000851865 
v 0.00229517 0.00349967 -0.000505204 
v -0.00315468 0.00349967 -0.00239813 
v -0.00187091 0.00349967 -0.00142223 
v -0.0025654 0.00349967 0.00302022 
v -0.00146675 0.00349967 0.00368126 
v 0.00106014 0.00349967 0.00381826 
v 0.000628721 0.00349967 0.00226445 
v 0.00359645 0.00349967 -0.0016639 
v 0.0021329 0.00349967 -0.000986786 
v 0.00222709 0.00349967 -0.000750394 
v 0.00339547 0.00349967 -0.00204299 
v 0.00201371 0.00349967 -0.00121161 
v -0.00339547 0.00349967 -0.00204299 
v -0.00201371 0.00349967 -0.00121161 
v -0.00359645 0.00349967 -0.0016639 
v -0.0021329 0.00349967 -0.000986786 
v -0.00375527 0.00349967 -0.0012653 
v -0.00222709 0.00349967 -0.000750394 
v 0.00375527 0.00349967 -0.0012653 
v 0.00287691 0.00349967 -0.00272515 
v 0.00170617 0.00349967 -0.00161617 
v 0.00187091 0.00349967 -0.00142223 
v 0.0025654 0.00349967 -0.00302022 
v 0.00152143 0.00349967 -0.00179117 
v -0.00106014 0.00349967 -0.00381826 
v -0.000628721 0.00349967 -0.00226445 
v -0.000380206 0.00349967 -0.00231915 
v -0.00146675 0.00349967 -0.00368126 
v -0.000869866 0.00349967 -0.0021832 
v 0.00146675 0.00349967 0.00368126 
v 0.000869866 0.00349967 0.0021832 
v 0.00185616 0.00349967 0.0035011 
v 0.00315468 0.00349967 -0.00239813 
v -0.000641094 0.00349967 -0.0039105 
v -0.000127232 0.00349967 -0.00234666 
v -0.00185616 0.00349967 -0.0035011 
v -0.00110081 0.00349967 -0.00207635 
v -0.00131885 0.00349967 -0.00194516 
v -0.00387006 0.00349967 -0.000851865 
v -0.00229517 0.00349967 -0.000505204 
v -0.00393948 0.00349967 -0.000428444 
v -0.00233633 0.00349967 -0.000254092 
v -0.00396271 0.00349967 4.85291e-19 
v 0.00185616 0.00349967 -0.0035011 
v 0.00110081 0.00349967 -0.00207635 
v 0.00131885 0.00349967 -0.00194516 
v 0.00146675 0.00349967 -0.00368126 
v 0.000869866 0.00349967 -0.0021832 
v 0.00106014 0.00349967 -0.00381826 
v 0.000628721 0.00349967 -0.00226445 
v 0.000641094 0.00349967 -0.0039105 
v 0.000380206 0.00349967 -0.00231915 
v 0.000214537 0.00349967 -0.00395689 
v 0.000127232 0.00349967 -0.00234666 
v -0.000214537 0.00349967 -0.00395689 
v 0.00222382 0.00349967 -0.00327989 
vn -1.22465e-16 1 0 
vn -1.22465e-16 1 0 
vn -1.22465e-16 1 0 
vn -1.22465e-16 1 0 
vn -1.22465e-16 1 0 
vn -1.22465e-16 1 0 
vn -1.22465e-16 1 0 
vn -1.22465e-16 1 0 
vn -1.22465e-16 1 0 
vn -1.22465e-16 1 0 
vn -1.22465e-16 1 0 
vn -1.22465e-16 1 0 
vn -1.22465e-16 1 0 
vn -1.22465e-16 1 0 
vn -1.22465e-16 1 0 
vn -1.22465e-16 1 0 
vn -1.22465e-16 1 0 
vn -1.22465e-16 1 0 
vn -1.22465e-16 1 0 
vn -1.22465e-16 1 0 
vn -1.22465e-16 1 0 
vn -1.22465e-16 1 0 
vn -1.22465e-16 1 0 
vn -1.22465e-16 1 0 
vn -1.22465e-16 1 0 
vn -1.22465e-16 1 0 
vn -1.22465e-16 1 0 
vn -1.22465e-16 1 0 
vn -1.22465e-16 1 0 
vn -1.22465e-16 1 0 
vn -1.22465e-16 1 0 
vn -1.22465e-16 1 0 
vn -1.22465e-16 1 0 
vn -1.22465e-16 1 0 
vn -1.22465e-16 1 0 
vn -1.22465e-16 1 0 
vn -1.22465e-16 1 0 
vn -1.22465e-16 1 0 
vn -1.22465e-16 1 0 
vn -1.22465e-16 1 0 
vn -1.22465e-16 1 0 
vn -1.22465e-16 1 0 
vn -1.22465e-16 1 0 
vn -1.22465e-16 1 0 
vn -1.22465e-16 1 0 
vn -1.22465e-16 1 0 
vn -1.22465e-16 1 0 
vn -1.22465e-16 1 0 
vn -1.22465e-16 1 0 
vn -1.22465e-16 1 0 
vn -1.22465e-16 1 0 
vn -1.22465e-16 1 0 
vn -1.22465e-16 1 0 
vn -1.22465e-16 1 0 
vn -1.22465e-16 1 0 
vn -1.22465e-16 1 0 
vn -1.22465e-16 1 0 
vn -1.22465e-16 1 0 
vn -1.22465e-16 1 0 
vn -1.22465e-16 1 0 
vn -1.22465e-16 1 0 
vn -1.22465e-16 1 0 
vn -1.22465e-16 1 0 
vn -1.22465e-16 1 0 
vn -1.22465e-16 1 0 
vn -1.22465e-16 1 0 
vn -1.22465e-16 1 0 
vn -1.22465e-16 1 0 
vn -1.22465e-16 1 0 
vn -1.22465e-16 1 0 
vn -1.22465e-16 1 0 
vn -1.22465e-16 1 0 
vn -1.22465e-16 1 0 
vn -1.22465e-16 1 0 
vn -1.22465e-16 1 0 
vn -1.22465e-16 1 0 
vn -1.22465e-16 1 0 
vn -1.22465e-16 1 0 
vn -1.22465e-16 1 0 
vn -1.22465e-16 1 0 
vn -1.22465e-16 1 0 
vn -1.22465e-16 1 0 
vn -1.22465e-16 1 0 
vn -1.22465e-16 1 0 
vn -1.22465e-16 1 0 
vn -1.22465e-16 1 0 
vn -1.22465e-16 1 0 
vn -1.22465e-16 1 0 
vn -1.22465e-16 1 0 
vn -1.22465e-16 1 0 
vn -1.22465e-16 1 0 
vn -1.22465e-16 1 0 
vn -1.22465e-16 1 0 
vn -1.22465e-16 1 0 
vn -1.22465e-16 1 0 
vn -1.22465e-16 1 0 
vn -1.22465e-16 1 0 
vn -1.22465e-16 1 0 
vn -1.22465e-16 1 0 
vn -1.22465e-16 1 0 
vn -1.22465e-16 1 0 
vn -1.22465e-16 1 0 
vn -1.22465e-16 1 0 
vn -1.22465e-16 1 0 
vn -1.22465e-16 1 0 
vn -1.22465e-16 1 0 
vn -1.22465e-16 1 0 
vn -1.22465e-16 1 0 
vn -1.22465e-16 1 0 
vn -1.22465e-16 1 0 
vn -1.22465e-16 1 0 
vn -1.22465e-16 1 0 
vn -1.22465e-16 1 0 
vn -1.22465e-16 1 0 
vn -1.22465e-16 1 0 
vn -1.22465e-16 1 0 
f 349//349 350//350 351//351 
f 349//349 352//352 353//353 
f 354//354 355//355 356//356 
f 354//354 357//357 358//358 
f 353//353 350//350 349//349 
f 352//352 359//359 360//360 
f 361//361 362//362 360//360 
f 361//361 363//363 364//364 
f 365//365 366//366 367//367 
f 365//365 368//368 369//369 
f 370//370 371//371 372//372 
f 373//373 374//374 371//371 
f 358//358 355//355 354//354 
f 375//375 376//376 358//358 
f 377//377 378//378 376//376 
f 379//379 380//380 378//378 
f 381//381 382//382 383//383 
f 384//384 385//385 383//383 
f 360//360 353//353 352//352 
f 364//364 362//362 361//361 
f 386//386 387//387 364//364 
f 386//386 388//388 389//389 
f 390//390 391//391 392//392 
f 390//390 393//393 394//394 
f 395//395 396//396 397//397 
f 395//395 398//398 367//367 
f 369//369 366//366 365//365 
f 368//368 399//399 400//400 
f 371//371 370//370 373//373 
f 373//373 401//401 402//402 
f 403//403 404//404 402//402 
f 403//403 405//405 356//356 
f 358//358 357//357 375//375 
f 378//378 377//377 379//379 
f 406//406 407//407 380//380 
f 406//406 408//408 409//409 
f 383//383 382//382 384//384 
f 384//384 410//410 411//411 
f 360//360 359//359 361//361 
f 389//389 387//387 386//386 
f 412//412 392//392 389//389 
f 394//394 391//391 390//390 
f 413//413 397//397 394//394 
f 367//367 396//396 395//395 
f 400//400 369//369 368//368 
f 399//399 414//414 415//415 
f 402//402 374//374 373//373 
f 356//356 404//404 403//403 
f 376//376 375//375 377//377 
f 409//409 407//407 406//406 
f 416//416 417//417 418//418 
f 416//416 419//419 420//420 
f 411//411 385//385 384//384 
f 410//410 421//421 422//422 
f 423//423 424//424 422//422 
f 425//425 426//426 424//424 
f 364//364 363//363 386//386 
f 392//392 412//412 390//390 
f 397//397 413//413 395//395 
f 415//415 400//400 399//399 
f 402//402 401//401 403//403 
f 380//380 379//379 406//406 
f 427//427 418//418 409//409 
f 420//420 417//417 416//416 
f 428//428 429//429 430//430 
f 428//428 431//431 432//432 
f 433//433 434//434 435//435 
f 433//433 436//436 437//437 
f 422//422 411//411 410//410 
f 424//424 423//423 425//425 
f 389//389 388//388 412//412 
f 367//367 398//398 365//365 
f 438//438 439//439 415//415 
f 438//438 440//440 372//372 
f 356//356 405//405 354//354 
f 418//418 427//427 416//416 
f 441//441 430//430 420//420 
f 432//432 429//429 428//428 
f 442//442 435//435 443//443 
f 437//437 434//434 433//433 
f 436//436 444//444 445//445 
f 444//444 381//381 446//446 
f 422//422 421//421 423//423 
f 425//425 447//447 448//448 
f 449//449 450//450 448//448 
f 449//449 451//451 351//351 
f 394//394 393//393 413//413 
f 372//372 439//439 438//438 
f 409//409 408//408 427//427 
f 430//430 441//441 428//428 
f 452//452 453//453 454//454 
f 452//452 455//455 456//456 
f 457//457 458//458 456//456 
f 457//457 459//459 460//460 
f 459//459 461//461 462//462 
f 461//461 463//463 443//443 
f 435//435 442//442 433//433 
f 446//446 445//445 444//444 
f 448//448 426//426 425//425 
f 351//351 450//450 449//449 
f 415//415 414//414 438//438 
f 420//420 419//419 441//441 
f 464//464 454//454 432//432 
f 456//456 453//453 452//452 
f 460//460 458//458 457//457 
f 443//443 462//462 461//461 
f 445//445 437//437 436//436 
f 448//448 447//447 449//449 
f 372//372 440//440 370//370 
f 454//454 464//464 452//452 
f 462//462 460//460 459//459 
f 383//383 446//446 381//381 
f 432//432 431//431 464//464 
f 443//443 463//463 442//442 
f 456//456 455//455 457//457 
f 351//351 451//451 349//349 
