# OBJ generated by ONSHAPE BY PTC INC, 1.215 Units = meters
mtllib BrushForPaddleNoBristlesShown.mtl
g BrushForPaddleNoBristlesShown
usemtl 0.752941_0.752941_0.752941_0.000000_0.000000
o mesh28340
v -0.00198438 0 0.1375 
v -0.00198438 0 -0.1375 
v -0.00396875 -0.0174625 -0.1375 
v -0.00396875 -0.0174625 0.1375 
vn -0.993605 0.11291 0 
vn -0.993605 0.11291 0 
vn -0.993605 0.11291 0 
vn -0.993605 0.11291 0 
f 1//1 2//2 3//3 
f 3//3 4//4 1//1 
o mesh28341
v -0.00396875 -0.0174625 0.1375 
v -0.00396875 -0.0174625 -0.1375 
v 0.00396875 -0.0174625 -0.1375 
v 0.00396875 -0.0174625 0.1375 
vn 0 -1 0 
vn 0 -1 0 
vn 0 -1 0 
vn 0 -1 0 
f 5//5 6//6 7//7 
f 7//7 8//8 5//5 
o mesh28342
v 0.00396875 -0.0174625 0.1375 
v 0.00396875 -0.0174625 -0.1375 
v 0.00198438 0 -0.1375 
v 0.00198438 0 0.1375 
vn 0.993605 0.11291 0 
vn 0.993605 0.11291 0 
vn 0.993605 0.11291 0 
vn 0.993605 0.11291 0 
f 9//9 10//10 11//11 
f 11//11 12//12 9//9 
o mesh28343
v 0.00198438 0 0.1375 
v 0.00198438 0 -0.1375 
v 0.00396875 3.95565e-18 -0.1375 
v 0.00396875 3.95565e-18 0.1375 
vn 0 -1 0 
vn 0 -1 0 
vn 0 -1 0 
vn 0 -1 0 
f 13//13 14//14 15//15 
f 15//15 16//16 13//13 
o mesh28344
v 0.00396875 3.95565e-18 0.1375 
v 0.00396875 3.95565e-18 -0.1375 
v 0.00396875 0.0079375 -0.1375 
v 0.00396875 0.0079375 0.1375 
vn 1 0 0 
vn 1 0 0 
vn 1 0 0 
vn 1 0 0 
f 17//17 18//18 19//19 
f 19//19 20//20 17//17 
o mesh28345
v 0.00396875 -0.0174625 0.1375 
v 0.00198438 0 0.1375 
v -0.00198438 0 0.1375 
v -0.00396875 0.0079375 0.1375 
v -0.00396875 3.95565e-18 0.1375 
v 0.00396875 0.0079375 0.1375 
v -0.00396875 -0.0174625 0.1375 
v 0.00396875 3.95565e-18 0.1375 
vn 0 0 1 
vn 0 0 1 
vn 0 0 1 
vn 0 0 1 
vn 0 0 1 
vn 0 0 1 
vn 0 0 1 
vn 0 0 1 
f 21//21 22//22 23//23 
f 24//24 25//25 23//23 
f 26//26 24//24 22//22 
f 23//23 22//22 24//24 
f 23//23 27//27 21//21 
f 22//22 28//28 26//26 
o mesh28346
v -0.00396875 -0.0174625 -0.1375 
v -0.00198438 0 -0.1375 
v 0.00198438 0 -0.1375 
v 0.00396875 0.0079375 -0.1375 
v 0.00396875 3.95565e-18 -0.1375 
v -0.00396875 0.0079375 -0.1375 
v 0.00396875 -0.0174625 -0.1375 
v -0.00396875 3.95565e-18 -0.1375 
vn 0 0 -1 
vn 0 0 -1 
vn 0 0 -1 
vn 0 0 -1 
vn 0 0 -1 
vn 0 0 -1 
vn 0 0 -1 
vn 0 0 -1 
f 29//29 30//30 31//31 
f 32//32 33//33 31//31 
f 34//34 32//32 30//30 
f 31//31 30//30 32//32 
f 31//31 35//35 29//29 
f 30//30 36//36 34//34 
o mesh28347
v 0.00396875 0.0079375 0.1375 
v 0.00396875 0.0079375 -0.1375 
v -0.00396875 0.0079375 -0.1375 
v -0.00396875 0.0079375 0.1375 
vn 0 1 0 
vn 0 1 0 
vn 0 1 0 
vn 0 1 0 
f 37//37 38//38 39//39 
f 39//39 40//40 37//37 
o mesh28348
v -0.00396875 0.0079375 0.1375 
v -0.00396875 0.0079375 -0.1375 
v -0.00396875 3.95565e-18 -0.1375 
v -0.00396875 3.95565e-18 0.1375 
vn -1 0 0 
vn -1 0 0 
vn -1 0 0 
vn -1 0 0 
f 41//41 42//42 43//43 
f 43//43 44//44 41//41 
o mesh28349
v -0.00396875 3.95565e-18 0.1375 
v -0.00396875 3.95565e-18 -0.1375 
v -0.00198438 0 -0.1375 
v -0.00198438 0 0.1375 
vn -1.9934e-15 -1 0 
vn -1.9934e-15 -1 0 
vn -1.9934e-15 -1 0 
vn -1.9934e-15 -1 0 
f 45//45 46//46 47//47 
f 47//47 48//48 45//45 
