# OBJ generated by ONSHAPE BY PTC INC, 1.215 Units = meters
mtllib DiggingBlade.mtl
g DiggingBlade
usemtl 0.866667_0.909804_1.000000_0.000000_0.000000
o mesh1121
v -0.0274785 -0.005 0.0744594 
v -0.0274492 -0.005 0.075 
v -0.0274492 -4.02456e-18 0.075 
v -0.0275661 -0.005 0.0739251 
v -0.0274785 -4.04164e-18 0.0744594 
v -0.0277109 -0.005 0.0734035 
v -0.0275661 -4.09269e-18 0.0739251 
v -0.0279113 -0.005 0.0729006 
v -0.0277109 -4.17711e-18 0.0734035 
v -0.0281649 -0.005 0.0724222 
v -0.0279113 -4.29391e-18 0.0729006 
v -0.0284687 -0.005 0.0719741 
v -0.0281649 -4.44172e-18 0.0724222 
v -0.0288192 -0.005 0.0715615 
v -0.0284687 -4.61881e-18 0.0719741 
v -0.0292123 -0.005 0.0711892 
v -0.0288192 -4.8231e-18 0.0715615 
v -0.0296432 -0.005 0.0708616 
v -0.0292123 -5.05219e-18 0.0711892 
v -0.0301071 -0.005 0.0705824 
v -0.0296432 -5.30341e-18 0.0708616 
v -0.0305985 -0.005 0.0703551 
v -0.0301071 -5.57379e-18 0.0705824 
v -0.0311115 -0.005 0.0701823 
v -0.0305985 -5.86019e-18 0.0703551 
v -0.0316403 -0.005 0.0700659 
v -0.0311115 -6.15923e-18 0.0701823 
v -0.0321785 -0.005 0.0700073 
v -0.0316403 -6.46741e-18 0.0700659 
v -0.0327199 -0.005 0.0700073 
v -0.0321785 -6.78111e-18 0.0700073 
v -0.0332581 -0.005 0.0700659 
v -0.0327199 -7.09667e-18 0.0700073 
v -0.0337868 -0.005 0.0701823 
v -0.0332581 -7.41038e-18 0.0700659 
v -0.0342999 -0.005 0.0703551 
v -0.0337868 -7.71856e-18 0.0701823 
v -0.0347912 -0.005 0.0705824 
v -0.0342999 -8.0176e-18 0.0703551 
v -0.0352551 -0.005 0.0708616 
v -0.0347912 -8.30399e-18 0.0705824 
v -0.0356861 -0.005 0.0711892 
v -0.0352551 -8.57438e-18 0.0708616 
v -0.0360792 -0.005 0.0715615 
v -0.0356861 -8.82559e-18 0.0711892 
v -0.0364296 -0.005 0.0719741 
v -0.0360792 -9.05469e-18 0.0715615 
v -0.0367335 -0.005 0.0724222 
v -0.0364296 -9.25898e-18 0.0719741 
v -0.0369871 -0.005 0.0729006 
v -0.0367335 -9.43606e-18 0.0724222 
v -0.0371874 -0.005 0.0734035 
v -0.0369871 -9.58387e-18 0.0729006 
v -0.0373323 -0.005 0.0739251 
v -0.0371874 -9.70067e-18 0.0734035 
v -0.0374199 -0.005 0.0744594 
v -0.0373323 -9.78509e-18 0.0739251 
v -0.0374492 -0.005 0.075 
v -0.0374199 -9.83615e-18 0.0744594 
v -0.0374199 -0.005 0.0755406 
v -0.0374492 -9.85323e-18 0.075 
v -0.0373323 -0.005 0.0760749 
v -0.0374199 -9.83615e-18 0.0755406 
v -0.0371874 -0.005 0.0765965 
v -0.0373323 -9.78509e-18 0.0760749 
v -0.0369871 -0.005 0.0770994 
v -0.0371874 -9.70067e-18 0.0765965 
v -0.0367335 -0.005 0.0775778 
v -0.0369871 -9.58387e-18 0.0770994 
v -0.0364296 -0.005 0.0780259 
v -0.0367335 -9.43606e-18 0.0775778 
v -0.0360792 -0.005 0.0784385 
v -0.0364296 -9.25898e-18 0.0780259 
v -0.0356861 -0.005 0.0788108 
v -0.0360792 -9.05469e-18 0.0784385 
v -0.0352551 -0.005 0.0791384 
v -0.0356861 -8.82559e-18 0.0788108 
v -0.0347912 -0.005 0.0794176 
v -0.0352551 -8.57438e-18 0.0791384 
v -0.0342999 -0.005 0.0796449 
v -0.0347912 -8.30399e-18 0.0794176 
v -0.0337868 -0.005 0.0798177 
v -0.0342999 -8.0176e-18 0.0796449 
v -0.0332581 -0.005 0.0799341 
v -0.0337868 -7.71856e-18 0.0798177 
v -0.0327199 -0.005 0.0799927 
v -0.0332581 -7.41038e-18 0.0799341 
v -0.0321785 -0.005 0.0799927 
v -0.0327199 -7.09667e-18 0.0799927 
v -0.0316403 -0.005 0.0799341 
v -0.0321785 -6.78111e-18 0.0799927 
v -0.0311115 -0.005 0.0798177 
v -0.0316403 -6.46741e-18 0.0799341 
v -0.0305985 -0.005 0.0796449 
v -0.0311115 -6.15923e-18 0.0798177 
v -0.0301071 -0.005 0.0794176 
v -0.0305985 -5.86019e-18 0.0796449 
v -0.0296432 -0.005 0.0791384 
v -0.0301071 -5.57379e-18 0.0794176 
v -0.0292123 -0.005 0.0788108 
v -0.0296432 -5.30341e-18 0.0791384 
v -0.0288192 -0.005 0.0784385 
v -0.0292123 -5.05219e-18 0.0788108 
v -0.0284687 -0.005 0.0780259 
v -0.0288192 -4.8231e-18 0.0784385 
v -0.0281649 -0.005 0.0775778 
v -0.0284687 -4.61881e-18 0.0780259 
v -0.0279113 -0.005 0.0770994 
v -0.0281649 -4.44172e-18 0.0775778 
v -0.0277109 -0.005 0.0765965 
v -0.0279113 -4.29391e-18 0.0770994 
v -0.0275661 -0.005 0.0760749 
v -0.0277109 -4.17711e-18 0.0765965 
v -0.0274785 -0.005 0.0755406 
v -0.0275661 -4.09269e-18 0.0760749 
v -0.0274785 -4.04164e-18 0.0755406 
vn -0.994138 -5.7945e-16 0.108119 
vn -1 -5.82867e-16 2.44929e-16 
vn -1 -5.82867e-16 2.44929e-16 
vn -0.976621 -5.6924e-16 0.21497 
vn -0.994138 -5.7945e-16 0.108119 
vn -0.947653 -5.52356e-16 0.319302 
vn -0.976621 -5.6924e-16 0.21497 
vn -0.907575 -5.28996e-16 0.419889 
vn -0.947653 -5.52356e-16 0.319302 
vn -0.856857 -4.99434e-16 0.515554 
vn -0.907575 -5.28996e-16 0.419889 
vn -0.796093 -4.64016e-16 0.605174 
vn -0.856857 -4.99434e-16 0.515554 
vn -0.725995 -4.23159e-16 0.687699 
vn -0.796093 -4.64016e-16 0.605174 
vn -0.647386 -3.7734e-16 0.762162 
vn -0.725995 -4.23159e-16 0.687699 
vn -0.561187 -3.27097e-16 0.827689 
vn -0.647386 -3.7734e-16 0.762162 
vn -0.468408 -2.7302e-16 0.883512 
vn -0.561187 -3.27097e-16 0.827689 
vn -0.370138 -2.15741e-16 0.928977 
vn -0.468408 -2.7302e-16 0.883512 
vn -0.267528 -1.55933e-16 0.96355 
vn -0.370138 -2.15741e-16 0.928977 
vn -0.161782 -9.42974e-17 0.986827 
vn -0.267528 -1.55933e-16 0.96355 
vn -0.0541389 -3.15558e-17 0.998533 
vn -0.161782 -9.42974e-17 0.986827 
vn 0.0541389 3.15558e-17 0.998533 
vn -0.0541389 -3.15558e-17 0.998533 
vn 0.161782 9.42974e-17 0.986827 
vn 0.0541389 3.15558e-17 0.998533 
vn 0.267528 1.55933e-16 0.96355 
vn 0.161782 9.42974e-17 0.986827 
vn 0.370138 2.15741e-16 0.928977 
vn 0.267528 1.55933e-16 0.96355 
vn 0.468408 2.7302e-16 0.883512 
vn 0.370138 2.15741e-16 0.928977 
vn 0.561187 3.27097e-16 0.827689 
vn 0.468408 2.7302e-16 0.883512 
vn 0.647386 3.7734e-16 0.762162 
vn 0.561187 3.27097e-16 0.827689 
vn 0.725995 4.23159e-16 0.687699 
vn 0.647386 3.7734e-16 0.762162 
vn 0.796093 4.64016e-16 0.605174 
vn 0.725995 4.23159e-16 0.687699 
vn 0.856857 4.99434e-16 0.515554 
vn 0.796093 4.64016e-16 0.605174 
vn 0.907575 5.28996e-16 0.419889 
vn 0.856857 4.99434e-16 0.515554 
vn 0.947653 5.52356e-16 0.319302 
vn 0.907575 5.28996e-16 0.419889 
vn 0.976621 5.6924e-16 0.21497 
vn 0.947653 5.52356e-16 0.319302 
vn 0.994138 5.7945e-16 0.108119 
vn 0.976621 5.6924e-16 0.21497 
vn 1 5.82867e-16 -1.22465e-16 
vn 0.994138 5.7945e-16 0.108119 
vn 0.994138 5.7945e-16 -0.108119 
vn 1 5.82867e-16 -1.22465e-16 
vn 0.976621 5.6924e-16 -0.21497 
vn 0.994138 5.7945e-16 -0.108119 
vn 0.947653 5.52356e-16 -0.319302 
vn 0.976621 5.6924e-16 -0.21497 
vn 0.907575 5.28996e-16 -0.419889 
vn 0.947653 5.52356e-16 -0.319302 
vn 0.856857 4.99434e-16 -0.515554 
vn 0.907575 5.28996e-16 -0.419889 
vn 0.796093 4.64016e-16 -0.605174 
vn 0.856857 4.99434e-16 -0.515554 
vn 0.725995 4.23159e-16 -0.687699 
vn 0.796093 4.64016e-16 -0.605174 
vn 0.647386 3.7734e-16 -0.762162 
vn 0.725995 4.23159e-16 -0.687699 
vn 0.561187 3.27097e-16 -0.827689 
vn 0.647386 3.7734e-16 -0.762162 
vn 0.468408 2.7302e-16 -0.883512 
vn 0.561187 3.27097e-16 -0.827689 
vn 0.370138 2.15741e-16 -0.928977 
vn 0.468408 2.7302e-16 -0.883512 
vn 0.267528 1.55933e-16 -0.96355 
vn 0.370138 2.15741e-16 -0.928977 
vn 0.161782 9.42974e-17 -0.986827 
vn 0.267528 1.55933e-16 -0.96355 
vn 0.0541389 3.15558e-17 -0.998533 
vn 0.161782 9.42974e-17 -0.986827 
vn -0.0541389 -3.15558e-17 -0.998533 
vn 0.0541389 3.15558e-17 -0.998533 
vn -0.161782 -9.42974e-17 -0.986827 
vn -0.0541389 -3.15558e-17 -0.998533 
vn -0.267528 -1.55933e-16 -0.96355 
vn -0.161782 -9.42974e-17 -0.986827 
vn -0.370138 -2.15741e-16 -0.928977 
vn -0.267528 -1.55933e-16 -0.96355 
vn -0.468408 -2.7302e-16 -0.883512 
vn -0.370138 -2.15741e-16 -0.928977 
vn -0.561187 -3.27097e-16 -0.827689 
vn -0.468408 -2.7302e-16 -0.883512 
vn -0.647386 -3.7734e-16 -0.762162 
vn -0.561187 -3.27097e-16 -0.827689 
vn -0.725995 -4.23159e-16 -0.687699 
vn -0.647386 -3.7734e-16 -0.762162 
vn -0.796093 -4.64016e-16 -0.605174 
vn -0.725995 -4.23159e-16 -0.687699 
vn -0.856857 -4.99434e-16 -0.515554 
vn -0.796093 -4.64016e-16 -0.605174 
vn -0.907575 -5.28996e-16 -0.419889 
vn -0.856857 -4.99434e-16 -0.515554 
vn -0.947653 -5.52356e-16 -0.319302 
vn -0.907575 -5.28996e-16 -0.419889 
vn -0.976621 -5.6924e-16 -0.21497 
vn -0.947653 -5.52356e-16 -0.319302 
vn -0.994138 -5.7945e-16 -0.108119 
vn -0.976621 -5.6924e-16 -0.21497 
vn -0.994138 -5.7945e-16 -0.108119 
f 1//1 2//2 3//3 
f 4//4 1//1 5//5 
f 6//6 4//4 7//7 
f 8//8 6//6 9//9 
f 10//10 8//8 11//11 
f 12//12 10//10 13//13 
f 14//14 12//12 15//15 
f 16//16 14//14 17//17 
f 18//18 16//16 19//19 
f 20//20 18//18 21//21 
f 22//22 20//20 23//23 
f 24//24 22//22 25//25 
f 26//26 24//24 27//27 
f 28//28 26//26 29//29 
f 30//30 28//28 31//31 
f 32//32 30//30 33//33 
f 34//34 32//32 35//35 
f 36//36 34//34 37//37 
f 38//38 36//36 39//39 
f 40//40 38//38 41//41 
f 42//42 40//40 43//43 
f 44//44 42//42 45//45 
f 46//46 44//44 47//47 
f 48//48 46//46 49//49 
f 50//50 48//48 51//51 
f 52//52 50//50 53//53 
f 54//54 52//52 55//55 
f 56//56 54//54 57//57 
f 58//58 56//56 59//59 
f 60//60 58//58 61//61 
f 62//62 60//60 63//63 
f 64//64 62//62 65//65 
f 66//66 64//64 67//67 
f 68//68 66//66 69//69 
f 70//70 68//68 71//71 
f 72//72 70//70 73//73 
f 74//74 72//72 75//75 
f 76//76 74//74 77//77 
f 78//78 76//76 79//79 
f 80//80 78//78 81//81 
f 82//82 80//80 83//83 
f 84//84 82//82 85//85 
f 86//86 84//84 87//87 
f 88//88 86//86 89//89 
f 90//90 88//88 91//91 
f 92//92 90//90 93//93 
f 94//94 92//92 95//95 
f 96//96 94//94 97//97 
f 98//98 96//96 99//99 
f 100//100 98//98 101//101 
f 102//102 100//100 103//103 
f 104//104 102//102 105//105 
f 106//106 104//104 107//107 
f 108//108 106//106 109//109 
f 110//110 108//108 111//111 
f 112//112 110//110 113//113 
f 114//114 112//112 115//115 
f 2//2 114//114 116//116 
f 116//116 3//3 2//2 
f 115//115 116//116 114//114 
f 113//113 115//115 112//112 
f 111//111 113//113 110//110 
f 109//109 111//111 108//108 
f 107//107 109//109 106//106 
f 105//105 107//107 104//104 
f 103//103 105//105 102//102 
f 101//101 103//103 100//100 
f 99//99 101//101 98//98 
f 97//97 99//99 96//96 
f 95//95 97//97 94//94 
f 93//93 95//95 92//92 
f 91//91 93//93 90//90 
f 89//89 91//91 88//88 
f 87//87 89//89 86//86 
f 85//85 87//87 84//84 
f 83//83 85//85 82//82 
f 81//81 83//83 80//80 
f 79//79 81//81 78//78 
f 77//77 79//79 76//76 
f 75//75 77//77 74//74 
f 73//73 75//75 72//72 
f 71//71 73//73 70//70 
f 69//69 71//71 68//68 
f 67//67 69//69 66//66 
f 65//65 67//67 64//64 
f 63//63 65//65 62//62 
f 61//61 63//63 60//60 
f 59//59 61//61 58//58 
f 57//57 59//59 56//56 
f 55//55 57//57 54//54 
f 53//53 55//55 52//52 
f 51//51 53//53 50//50 
f 49//49 51//51 48//48 
f 47//47 49//49 46//46 
f 45//45 47//47 44//44 
f 43//43 45//45 42//42 
f 41//41 43//43 40//40 
f 39//39 41//41 38//38 
f 37//37 39//39 36//36 
f 35//35 37//37 34//34 
f 33//33 35//35 32//32 
f 31//31 33//33 30//30 
f 29//29 31//31 28//28 
f 27//27 29//29 26//26 
f 25//25 27//27 24//24 
f 23//23 25//25 22//22 
f 21//21 23//23 20//20 
f 19//19 21//21 18//18 
f 17//17 19//19 16//16 
f 15//15 17//17 14//14 
f 13//13 15//15 12//12 
f 11//11 13//13 10//10 
f 9//9 11//11 8//8 
f 7//7 9//9 6//6 
f 5//5 7//7 4//4 
f 3//3 5//5 1//1 
o mesh1122
v -0.145997 -0.005 0.0919806 
v -0.0347912 -0.005 0.0794176 
v -0.0342999 -0.005 0.0796449 
v -0.145997 -0.005 0.130839 
v -0.164898 -0.005 0.116575 
v -0.0321785 -0.005 0.0799927 
v -0.0316403 -0.005 0.145066 
v -0.0337868 -0.005 0.0798177 
v -0.164898 -0.005 0.0668505 
v -0.0364296 -0.005 0.0719741 
v -0.0367335 -0.005 0.0724222 
v -0.0301071 -0.005 0.0794176 
v -0.0275661 -0.005 0.148925 
v -0.0277109 -0.005 0.148403 
v -0.0332581 -0.005 0.0799341 
v -0.0371874 -0.005 0.0765965 
v -0.0369871 -0.005 0.0770994 
v -0.0374199 -0.005 0.0755406 
v -0.0373323 -0.005 0.0760749 
v -0.0374492 -0.005 0.075 
v -0.0374199 -0.005 0.0744594 
v -0.0371874 -0.005 0.0734035 
v -0.0373323 -0.005 0.0739251 
v -0.0369871 -0.005 0.0729006 
v -0.164898 -0.005 0.105709 
v -0.0279113 -0.005 0.147901 
v -0.0281649 -0.005 0.147422 
v -0.0274785 -0.005 0.149459 
v 0.1 -0.005 0.3 
v -0.0274492 -0.005 0.15 
v -0.0327199 -0.005 0.0799927 
v -0.0356861 -0.005 0.0788108 
v -0.0352551 -0.005 0.0791384 
v -0.0367335 -0.005 0.0775778 
v -0.0364296 -0.005 0.0780259 
v -0.164898 -0.005 0.0777165 
v -0.145997 -0.005 0.0531224 
v -0.0305985 -0.005 0.145355 
v -0.0311115 -0.005 0.0798177 
v -0.0305985 -0.005 0.0796449 
v -0.0316403 -0.005 0.0799341 
v -0.0311115 -0.005 0.145182 
v -0.0296432 -0.005 0.145862 
v -0.0301071 -0.005 0.145582 
v -0.0288192 -0.005 0.146562 
v -0.0292123 -0.005 0.146189 
v -0.0284687 -0.005 0.146974 
v -0.0332581 -0.005 0.220066 
v -0.0373323 -0.005 0.151075 
v -0.0371874 -0.005 0.151597 
v -0.164898 -0.005 0.3 
v -0.0356861 -0.005 0.228811 
v -0.0352551 -0.005 0.229138 
v -0.0369871 -0.005 0.227099 
v -0.0367335 -0.005 0.227578 
v -0.0373323 -0.005 0.226075 
v -0.0371874 -0.005 0.226597 
v 0.1 -0.005 0 
v -0.0305985 -0.005 0.0703551 
v -0.0311115 -0.005 0.0701823 
v -0.0360792 -0.005 0.0784385 
v -0.0360792 -0.005 0.0715615 
v -0.0332581 -0.005 0.0700659 
v -0.0337868 -0.005 0.0701823 
v -0.0279113 -0.005 0.0770994 
v -0.0277109 -0.005 0.0765965 
v -0.0281649 -0.005 0.0775778 
v -0.0321785 -0.005 0.220007 
v -0.0327199 -0.005 0.220007 
v -0.0327199 -0.005 0.154993 
v -0.0352551 -0.005 0.154138 
v -0.0347912 -0.005 0.154418 
v -0.0369871 -0.005 0.152099 
v -0.0347912 -0.005 0.229418 
v -0.0364296 -0.005 0.228026 
v -0.0360792 -0.005 0.228438 
v -0.145997 -0.005 0.286272 
v -0.145997 -0.005 0.0142641 
v -0.0277109 -0.005 0.0734035 
v -0.0279113 -0.005 0.0729006 
v -0.0274492 -0.005 0.075 
v -0.0274785 -0.005 0.0744594 
v -0.0327199 -0.005 0.0700073 
v -0.0316403 -0.005 0.0700659 
v -0.0321785 -0.005 0.0700073 
v -0.0275661 -0.005 0.0760749 
v -0.0274785 -0.005 0.0755406 
v -0.0292123 -0.005 0.0788108 
v -0.0288192 -0.005 0.0784385 
v -0.0369871 -0.005 0.147901 
v -0.0371874 -0.005 0.148403 
v -0.0321785 -0.005 0.154993 
v -0.0356861 -0.005 0.153811 
v -0.0364296 -0.005 0.153026 
v -0.0360792 -0.005 0.153438 
v -0.0374199 -0.005 0.150541 
v -0.0316403 -0.005 0.154934 
v -0.0275661 -0.005 0.223925 
v -0.0277109 -0.005 0.223403 
v -0.0374199 -0.005 0.225541 
v -0.0347912 -0.005 0.220582 
v -0.0352551 -0.005 0.220862 
v -0.164898 -0.005 0.0388583 
v -0.164898 -0.005 0.0279922 
v -0.0284687 -0.005 0.0719741 
v -0.0288192 -0.005 0.0715615 
v -0.0281649 -0.005 0.0724222 
v -0.0275661 -0.005 0.0739251 
v -0.0352551 -0.005 0.0708616 
v -0.0356861 -0.005 0.0711892 
v -0.0342999 -0.005 0.0703551 
v -0.0347912 -0.005 0.0705824 
v -0.0284687 -0.005 0.0780259 
v -0.0296432 -0.005 0.0791384 
v -0.0321785 -0.005 0.145007 
v -0.0327199 -0.005 0.145007 
v -0.0301071 -0.005 0.154418 
v -0.0274492 -0.005 0.225 
v -0.0342999 -0.005 0.220355 
v -0.0374492 -0.005 0.15 
v -0.0373323 -0.005 0.148925 
v -0.0316403 -0.005 0.220066 
v -0.0367335 -0.005 0.152578 
v -0.0274785 -0.005 0.224459 
v -0.0374199 -0.005 0.224459 
v -0.0374492 -0.005 0.225 
v -0.0369871 -0.005 0.222901 
v -0.0371874 -0.005 0.223403 
v -0.0356861 -0.005 0.221189 
v -0.0296432 -0.005 0.0708616 
v -0.0301071 -0.005 0.0705824 
v -0.0292123 -0.005 0.0711892 
v -0.0279113 -0.005 0.152099 
v -0.0277109 -0.005 0.151597 
v -0.0288192 -0.005 0.153438 
v -0.0284687 -0.005 0.153026 
v -0.0296432 -0.005 0.154138 
v -0.0292123 -0.005 0.153811 
v -0.0305985 -0.005 0.154645 
v -0.0337868 -0.005 0.220182 
v -0.0374199 -0.005 0.149459 
v -0.0364296 -0.005 0.146974 
v -0.0367335 -0.005 0.147422 
v -0.0342999 -0.005 0.154645 
v -0.0337868 -0.005 0.154818 
v -0.0296432 -0.005 0.220862 
v -0.0301071 -0.005 0.220582 
v -0.0288192 -0.005 0.221562 
v -0.0292123 -0.005 0.221189 
v -0.0281649 -0.005 0.222422 
v -0.0284687 -0.005 0.221974 
v -0.0279113 -0.005 0.222901 
v -0.0288192 -0.005 0.228438 
v -0.0284687 -0.005 0.228026 
v -0.0296432 -0.005 0.229138 
v -0.0292123 -0.005 0.228811 
v -0.0305985 -0.005 0.229645 
v -0.0301071 -0.005 0.229418 
v -0.0373323 -0.005 0.223925 
v -0.0364296 -0.005 0.221974 
v -0.0367335 -0.005 0.222422 
v -0.0360792 -0.005 0.221562 
v -0.164898 -0.005 0.144567 
v -0.0275661 -0.005 0.151075 
v -0.0281649 -0.005 0.152578 
v -0.0332581 -0.005 0.154934 
v -0.0275661 -0.005 0.226075 
v -0.0274785 -0.005 0.225541 
v -0.0279113 -0.005 0.227099 
v -0.0277109 -0.005 0.226597 
v -0.0281649 -0.005 0.227578 
v -0.164898 -0.005 0.155433 
v -0.0332581 -0.005 0.145066 
v -0.0337868 -0.005 0.145182 
v -0.145997 -0.005 0.169697 
v -0.0342999 -0.005 0.145355 
v -0.145997 -0.005 0.208555 
v -0.0347912 -0.005 0.145582 
v -0.0352551 -0.005 0.145862 
v -0.145997 -0.005 0.247414 
v -0.0360792 -0.005 0.146562 
v -0.0274785 -0.005 0.150541 
v -0.0305985 -0.005 0.220355 
v -0.0311115 -0.005 0.220182 
v -0.0327199 -0.005 0.229993 
v -0.0321785 -0.005 0.229993 
v -0.0332581 -0.005 0.229934 
v -0.0342999 -0.005 0.229645 
v -0.0337868 -0.005 0.229818 
v -0.164898 -0.005 0.194291 
v -0.164898 -0.005 0.183425 
v -0.164898 -0.005 0.23315 
v -0.0356861 -0.005 0.146189 
v -0.164898 -0.005 0.222283 
v -0.164898 -0.005 0.272008 
v -0.0311115 -0.005 0.154818 
v -0.0316403 -0.005 0.229934 
v -0.0311115 -0.005 0.229818 
v -0.164898 -0.005 0.261142 
v -0.164898 -0.005 0 
vn 6.00454e-16 -1 0 
vn 6.00454e-16 -1 0 
vn 6.00454e-16 -1 0 
vn 6.00454e-16 -1 0 
vn 6.00454e-16 -1 0 
vn 6.00454e-16 -1 0 
vn 6.00454e-16 -1 0 
vn 6.00454e-16 -1 0 
vn 6.00454e-16 -1 0 
vn 6.00454e-16 -1 0 
vn 6.00454e-16 -1 0 
vn 6.00454e-16 -1 0 
vn 6.00454e-16 -1 0 
vn 6.00454e-16 -1 0 
vn 6.00454e-16 -1 0 
vn 6.00454e-16 -1 0 
vn 6.00454e-16 -1 0 
vn 6.00454e-16 -1 0 
vn 6.00454e-16 -1 0 
vn 6.00454e-16 -1 0 
vn 6.00454e-16 -1 0 
vn 6.00454e-16 -1 0 
vn 6.00454e-16 -1 0 
vn 6.00454e-16 -1 0 
vn 6.00454e-16 -1 0 
vn 6.00454e-16 -1 0 
vn 6.00454e-16 -1 0 
vn 6.00454e-16 -1 0 
vn 6.00454e-16 -1 0 
vn 6.00454e-16 -1 0 
vn 6.00454e-16 -1 0 
vn 6.00454e-16 -1 0 
vn 6.00454e-16 -1 0 
vn 6.00454e-16 -1 0 
vn 6.00454e-16 -1 0 
vn 6.00454e-16 -1 0 
vn 6.00454e-16 -1 0 
vn 6.00454e-16 -1 0 
vn 6.00454e-16 -1 0 
vn 6.00454e-16 -1 0 
vn 6.00454e-16 -1 0 
vn 6.00454e-16 -1 0 
vn 6.00454e-16 -1 0 
vn 6.00454e-16 -1 0 
vn 6.00454e-16 -1 0 
vn 6.00454e-16 -1 0 
vn 6.00454e-16 -1 0 
vn 6.00454e-16 -1 0 
vn 6.00454e-16 -1 0 
vn 6.00454e-16 -1 0 
vn 6.00454e-16 -1 0 
vn 6.00454e-16 -1 0 
vn 6.00454e-16 -1 0 
vn 6.00454e-16 -1 0 
vn 6.00454e-16 -1 0 
vn 6.00454e-16 -1 0 
vn 6.00454e-16 -1 0 
vn 6.00454e-16 -1 0 
vn 6.00454e-16 -1 0 
vn 6.00454e-16 -1 0 
vn 6.00454e-16 -1 0 
vn 6.00454e-16 -1 0 
vn 6.00454e-16 -1 0 
vn 6.00454e-16 -1 0 
vn 6.00454e-16 -1 0 
vn 6.00454e-16 -1 0 
vn 6.00454e-16 -1 0 
vn 6.00454e-16 -1 0 
vn 6.00454e-16 -1 0 
vn 6.00454e-16 -1 0 
vn 6.00454e-16 -1 0 
vn 6.00454e-16 -1 0 
vn 6.00454e-16 -1 0 
vn 6.00454e-16 -1 0 
vn 6.00454e-16 -1 0 
vn 6.00454e-16 -1 0 
vn 6.00454e-16 -1 0 
vn 6.00454e-16 -1 0 
vn 6.00454e-16 -1 0 
vn 6.00454e-16 -1 0 
vn 6.00454e-16 -1 0 
vn 6.00454e-16 -1 0 
vn 6.00454e-16 -1 0 
vn 6.00454e-16 -1 0 
vn 6.00454e-16 -1 0 
vn 6.00454e-16 -1 0 
vn 6.00454e-16 -1 0 
vn 6.00454e-16 -1 0 
vn 6.00454e-16 -1 0 
vn 6.00454e-16 -1 0 
vn 6.00454e-16 -1 0 
vn 6.00454e-16 -1 0 
vn 6.00454e-16 -1 0 
vn 6.00454e-16 -1 0 
vn 6.00454e-16 -1 0 
vn 6.00454e-16 -1 0 
vn 6.00454e-16 -1 0 
vn 6.00454e-16 -1 0 
vn 6.00454e-16 -1 0 
vn 6.00454e-16 -1 0 
vn 6.00454e-16 -1 0 
vn 6.00454e-16 -1 0 
vn 6.00454e-16 -1 0 
vn 6.00454e-16 -1 0 
vn 6.00454e-16 -1 0 
vn 6.00454e-16 -1 0 
vn 6.00454e-16 -1 0 
vn 6.00454e-16 -1 0 
vn 6.00454e-16 -1 0 
vn 6.00454e-16 -1 0 
vn 6.00454e-16 -1 0 
vn 6.00454e-16 -1 0 
vn 6.00454e-16 -1 0 
vn 6.00454e-16 -1 0 
vn 6.00454e-16 -1 0 
vn 6.00454e-16 -1 0 
vn 6.00454e-16 -1 0 
vn 6.00454e-16 -1 0 
vn 6.00454e-16 -1 0 
vn 6.00454e-16 -1 0 
vn 6.00454e-16 -1 0 
vn 6.00454e-16 -1 0 
vn 6.00454e-16 -1 0 
vn 6.00454e-16 -1 0 
vn 6.00454e-16 -1 0 
vn 6.00454e-16 -1 0 
vn 6.00454e-16 -1 0 
vn 6.00454e-16 -1 0 
vn 6.00454e-16 -1 0 
vn 6.00454e-16 -1 0 
vn 6.00454e-16 -1 0 
vn 6.00454e-16 -1 0 
vn 6.00454e-16 -1 0 
vn 6.00454e-16 -1 0 
vn 6.00454e-16 -1 0 
vn 6.00454e-16 -1 0 
vn 6.00454e-16 -1 0 
vn 6.00454e-16 -1 0 
vn 6.00454e-16 -1 0 
vn 6.00454e-16 -1 0 
vn 6.00454e-16 -1 0 
vn 6.00454e-16 -1 0 
vn 6.00454e-16 -1 0 
vn 6.00454e-16 -1 0 
vn 6.00454e-16 -1 0 
vn 6.00454e-16 -1 0 
vn 6.00454e-16 -1 0 
vn 6.00454e-16 -1 0 
vn 6.00454e-16 -1 0 
vn 6.00454e-16 -1 0 
vn 6.00454e-16 -1 0 
vn 6.00454e-16 -1 0 
vn 6.00454e-16 -1 0 
vn 6.00454e-16 -1 0 
vn 6.00454e-16 -1 0 
vn 6.00454e-16 -1 0 
vn 6.00454e-16 -1 0 
vn 6.00454e-16 -1 0 
vn 6.00454e-16 -1 0 
vn 6.00454e-16 -1 0 
vn 6.00454e-16 -1 0 
vn 6.00454e-16 -1 0 
vn 6.00454e-16 -1 0 
vn 6.00454e-16 -1 0 
vn 6.00454e-16 -1 0 
vn 6.00454e-16 -1 0 
vn 6.00454e-16 -1 0 
vn 6.00454e-16 -1 0 
vn 6.00454e-16 -1 0 
vn 6.00454e-16 -1 0 
vn 6.00454e-16 -1 0 
vn 6.00454e-16 -1 0 
vn 6.00454e-16 -1 0 
vn 6.00454e-16 -1 0 
vn 6.00454e-16 -1 0 
vn 6.00454e-16 -1 0 
vn 6.00454e-16 -1 0 
vn 6.00454e-16 -1 0 
vn 6.00454e-16 -1 0 
vn 6.00454e-16 -1 0 
vn 6.00454e-16 -1 0 
vn 6.00454e-16 -1 0 
vn 6.00454e-16 -1 0 
vn 6.00454e-16 -1 0 
vn 6.00454e-16 -1 0 
vn 6.00454e-16 -1 0 
vn 6.00454e-16 -1 0 
vn 6.00454e-16 -1 0 
vn 6.00454e-16 -1 0 
vn 6.00454e-16 -1 0 
vn 6.00454e-16 -1 0 
vn 6.00454e-16 -1 0 
vn 6.00454e-16 -1 0 
vn 6.00454e-16 -1 0 
vn 6.00454e-16 -1 0 
vn 6.00454e-16 -1 0 
vn 6.00454e-16 -1 0 
vn 6.00454e-16 -1 0 
vn 6.00454e-16 -1 0 
vn 6.00454e-16 -1 0 
f 117//117 118//118 119//119 
f 117//117 120//120 121//121 
f 122//122 123//123 120//120 
f 119//119 124//124 117//117 
f 125//125 126//126 127//127 
f 120//120 117//117 122//122 
f 128//128 129//129 130//130 
f 124//124 131//131 117//117 
f 117//117 132//132 133//133 
f 117//117 134//134 135//135 
f 136//136 134//134 117//117 
f 125//125 137//137 136//136 
f 125//125 138//138 139//139 
f 127//127 140//140 125//125 
f 121//121 141//141 117//117 
f 128//128 142//142 143//143 
f 128//128 144//144 129//129 
f 145//145 146//146 144//144 
f 131//131 147//147 117//117 
f 117//117 148//148 149//149 
f 117//117 150//150 151//151 
f 135//135 132//132 117//117 
f 136//136 152//152 125//125 
f 140//140 138//138 125//125 
f 126//126 125//125 153//153 
f 154//154 155//155 156//156 
f 157//157 158//158 123//123 
f 128//128 159//159 160//160 
f 128//128 161//161 162//162 
f 143//143 163//163 128//128 
f 144//144 128//128 145//145 
f 164//164 165//165 166//166 
f 167//167 168//168 169//169 
f 167//167 170//170 171//171 
f 167//167 172//172 173//173 
f 174//174 175//175 176//176 
f 149//149 118//118 117//117 
f 151//151 177//177 117//117 
f 117//117 152//152 136//136 
f 153//153 178//178 126//126 
f 153//153 179//179 180//180 
f 174//174 181//181 182//182 
f 145//145 183//183 181//181 
f 154//154 157//157 155//155 
f 157//157 154//154 158//158 
f 162//162 159//159 128//128 
f 130//130 142//142 128//128 
f 184//184 185//185 186//186 
f 164//164 187//187 188//188 
f 166//166 189//189 164//164 
f 169//169 190//190 167//167 
f 167//167 191//191 192//192 
f 173//173 170//170 167//167 
f 172//172 167//167 193//193 
f 176//176 194//194 174//174 
f 174//174 195//195 196//196 
f 174//174 197//197 198//198 
f 177//177 148//148 117//117 
f 139//139 137//137 125//125 
f 153//153 199//199 179//179 
f 153//153 200//200 201//201 
f 174//174 202//202 203//203 
f 181//181 174//174 145//145 
f 145//145 204//204 205//205 
f 122//122 157//157 123//123 
f 163//163 161//161 128//128 
f 193//193 206//206 207//207 
f 186//186 208//208 184//184 
f 164//164 209//209 187//187 
f 164//164 210//210 211//211 
f 164//164 212//212 165//165 
f 213//213 214//214 215//215 
f 192//192 168//168 167//167 
f 193//193 216//216 172//172 
f 193//193 217//217 218//218 
f 219//219 176//176 200//200 
f 176//176 220//220 194//194 
f 174//174 221//221 222//222 
f 196//196 223//223 174//174 
f 198//198 224//224 174//174 
f 133//133 150//150 117//117 
f 153//153 225//225 226//226 
f 153//153 227//227 228//228 
f 201//201 199//199 153//153 
f 182//182 202//202 174//174 
f 205//205 229//229 145//145 
f 145//145 128//128 230//230 
f 160//160 154//154 128//128 
f 120//120 231//231 232//232 
f 233//233 145//145 234//234 
f 235//235 236//236 212//212 
f 207//207 237//237 193//193 
f 208//208 238//238 184//184 
f 211//211 209//209 164//164 
f 189//189 239//239 164//164 
f 213//213 240//240 214//214 
f 171//171 191//191 167//167 
f 193//193 241//241 242//242 
f 193//193 243//243 244//244 
f 218//218 245//245 193//193 
f 176//176 219//219 220//220 
f 174//174 246//246 247//247 
f 222//222 248//248 174//174 
f 224//224 195//195 174//174 
f 226//226 178//178 153//153 
f 180//180 227//227 153//153 
f 229//229 183//183 145//145 
f 156//156 128//128 154//154 
f 120//120 123//123 231//231 
f 145//145 249//249 250//250 
f 145//145 251//251 252//252 
f 145//145 253//253 254//254 
f 234//234 255//255 233//233 
f 236//236 235//235 217//217 
f 212//212 164//164 256//256 
f 237//237 257//257 193//193 
f 193//193 258//258 259//259 
f 185//185 164//164 186//186 
f 164//164 260//260 261//261 
f 239//239 210//210 164//164 
f 213//213 262//262 263//263 
f 213//213 264//264 265//265 
f 213//213 266//266 267//267 
f 215//215 268//268 213//213 
f 145//145 269//269 270//270 
f 145//145 271//271 272//272 
f 145//145 273//273 274//274 
f 242//242 216//216 193//193 
f 244//244 275//275 193//193 
f 193//193 276//276 277//277 
f 245//245 278//278 193//193 
f 247//247 175//175 174//174 
f 223//223 221//221 174//174 
f 228//228 225//225 153//153 
f 230//230 204//204 145//145 
f 232//232 279//279 120//120 
f 250//250 280//280 145//145 
f 252//252 281//281 145//145 
f 233//233 253//253 145//145 
f 212//212 256//256 235//235 
f 259//259 206//206 193//193 
f 164//164 282//282 186//186 
f 188//188 260//260 164//164 
f 265//265 262//262 213//213 
f 268//268 266//266 213//213 
f 145//145 283//283 284//284 
f 145//145 285//285 286//286 
f 270//270 287//287 145//145 
f 274//274 271//271 145//145 
f 275//275 241//241 193//193 
f 278//278 276//276 193//193 
f 248//248 246//246 174//174 
f 203//203 197//197 174//174 
f 288//288 289//289 290//290 
f 232//232 288//288 279//279 
f 291//291 290//290 292//292 
f 293//293 294//294 295//295 
f 296//296 297//297 258//258 
f 280//280 298//298 145//145 
f 254//254 251//251 145//145 
f 255//255 234//234 240//240 
f 257//257 236//236 193//193 
f 261//261 282//282 164//164 
f 213//213 299//299 300//300 
f 267//267 264//264 213//213 
f 286//286 283//283 145//145 
f 272//272 269//269 145//145 
f 145//145 301//301 302//302 
f 167//167 303//303 301//301 
f 167//167 304//304 305//305 
f 277//277 243//243 193//193 
f 147//147 122//122 117//117 
f 232//232 289//289 288//288 
f 306//306 292//292 294//294 
f 292//292 307//307 291//291 
f 308//308 295//295 309//309 
f 295//295 310//310 293//293 
f 296//296 309//309 297//297 
f 296//296 193//193 311//311 
f 281//281 249//249 145//145 
f 240//240 213//213 312//312 
f 208//208 213//213 238//238 
f 263//263 299//299 213//213 
f 287//287 285//285 145//145 
f 145//145 313//313 314//314 
f 301//301 145//145 167//167 
f 190//190 304//304 167//167 
f 290//290 291//291 288//288 
f 292//292 306//306 307//307 
f 295//295 308//308 310//310 
f 311//311 315//315 296//296 
f 240//240 312//312 255//255 
f 300//300 238//238 213//213 
f 314//314 273//273 145//145 
f 305//305 303//303 167//167 
f 294//294 293//293 306//306 
f 258//258 193//193 296//296 
f 217//217 193//193 236//236 
f 302//302 313//313 145//145 
f 309//309 296//296 308//308 
f 284//284 234//234 145//145 
f 298//298 146//146 145//145 
f 200//200 153//153 219//219 
f 194//194 316//316 174//174 
o mesh1123
v -0.15 9.64797e-18 0.0171716 
v -0.164898 -0.005 0.0279922 
v -0.164898 -0.005 0.0388583 
v -0.15 9.64797e-18 0.0501014 
vn -0.318167 0.948035 0 
vn -0.318167 0.948035 0 
vn -0.318167 0.948035 0 
vn -0.318167 0.948035 0 
f 317//317 318//318 319//319 
f 319//319 320//320 317//317 
o mesh1124
v -0.15 9.64797e-18 0.0560299 
v -0.164898 -0.005 0.0668505 
v -0.164898 -0.005 0.0777165 
v -0.15 8.78061e-18 0.0889596 
vn -0.318167 0.948035 0 
vn -0.318167 0.948035 0 
vn -0.318167 0.948035 0 
vn -0.318167 0.948035 0 
f 321//321 322//322 323//323 
f 323//323 324//324 321//321 
o mesh1125
v -0.15 8.78061e-18 0.0948881 
v -0.164898 -0.005 0.105709 
v -0.164898 -0.005 0.116575 
v -0.15 9.64797e-18 0.127818 
vn -0.318167 0.948035 0 
vn -0.318167 0.948035 0 
vn -0.318167 0.948035 0 
vn -0.318167 0.948035 0 
f 325//325 326//326 327//327 
f 327//327 328//328 325//325 
o mesh1126
v -0.15 9.64797e-18 0.133746 
v -0.164898 -0.005 0.144567 
v -0.164898 -0.005 0.155433 
v -0.15 8.78061e-18 0.166676 
vn -0.318167 0.948035 0 
vn -0.318167 0.948035 0 
vn -0.318167 0.948035 0 
vn -0.318167 0.948035 0 
f 329//329 330//330 331//331 
f 331//331 332//332 329//329 
o mesh1127
v -0.15 8.78061e-18 0.172605 
v -0.164898 -0.005 0.183425 
v -0.164898 -0.005 0.194291 
v -0.15 8.78061e-18 0.205534 
vn -0.318167 0.948035 0 
vn -0.318167 0.948035 0 
vn -0.318167 0.948035 0 
vn -0.318167 0.948035 0 
f 333//333 334//334 335//335 
f 335//335 336//336 333//333 
o mesh1128
v -0.15 9.64797e-18 0.250321 
v -0.164898 -0.005 0.261142 
v -0.164898 -0.005 0.272008 
v -0.15 8.78061e-18 0.283251 
vn -0.318167 0.948035 0 
vn -0.318167 0.948035 0 
vn -0.318167 0.948035 0 
vn -0.318167 0.948035 0 
f 337//337 338//338 339//339 
f 339//339 340//340 337//337 
o mesh1129
v -0.15 8.78061e-18 0.211463 
v -0.164898 -0.005 0.222283 
v -0.164898 -0.005 0.23315 
v -0.15 9.64797e-18 0.244393 
vn -0.318167 0.948035 0 
vn -0.318167 0.948035 0 
vn -0.318167 0.948035 0 
vn -0.318167 0.948035 0 
f 341//341 342//342 343//343 
f 343//343 344//344 341//341 
o mesh1130
v 0.1 -0.005 0.3 
v 0.1 -0.005 0 
v 0.1 0 0 
v 0.1 0 0.3 
vn 1 0 0 
vn 1 0 0 
vn 1 0 0 
vn 1 0 0 
f 345//345 346//346 347//347 
f 347//347 348//348 345//345 
o mesh1131
v -0.145997 -0.005 0.247414 
v -0.145997 1.12757e-17 0.247414 
v -0.15 9.64797e-18 0.244393 
v -0.164898 -0.005 0.23315 
vn -0.602374 -3.61698e-16 0.798214 
vn -0.602374 -3.61698e-16 0.798214 
vn -0.602374 -3.61698e-16 0.798214 
vn -0.602374 -3.61698e-16 0.798214 
f 349//349 350//350 351//351 
f 351//351 352//352 349//349 
o mesh1132
v -0.145997 -0.005 0.247414 
v -0.164898 -0.005 0.261142 
v -0.15 9.64797e-18 0.250321 
v -0.145997 1.12757e-17 0.247414 
vn -0.587653 -3.52859e-16 -0.809113 
vn -0.587653 -3.52859e-16 -0.809113 
vn -0.587653 -3.52859e-16 -0.809113 
vn -0.587653 -3.52859e-16 -0.809113 
f 353//353 354//354 355//355 
f 355//355 356//356 353//353 
o mesh1133
v -0.145997 -0.005 0.286272 
v -0.145997 1.12757e-17 0.286272 
v -0.15 8.78061e-18 0.283251 
v -0.164898 -0.005 0.272008 
vn -0.602374 -3.61698e-16 0.798214 
vn -0.602374 -3.61698e-16 0.798214 
vn -0.602374 -3.61698e-16 0.798214 
vn -0.602374 -3.61698e-16 0.798214 
f 357//357 358//358 359//359 
f 359//359 360//360 357//357 
o mesh1134
v -0.145997 -0.005 0.208555 
v -0.145997 1.12757e-17 0.208555 
v -0.15 8.78061e-18 0.205534 
v -0.164898 -0.005 0.194291 
vn -0.602374 -3.61698e-16 0.798214 
vn -0.602374 -3.61698e-16 0.798214 
vn -0.602374 -3.61698e-16 0.798214 
vn -0.602374 -3.61698e-16 0.798214 
f 361//361 362//362 363//363 
f 363//363 364//364 361//361 
o mesh1135
v -0.145997 -0.005 0.208555 
v -0.164898 -0.005 0.222283 
v -0.15 8.78061e-18 0.211463 
v -0.145997 1.12757e-17 0.208555 
vn -0.587653 -3.52859e-16 -0.809113 
vn -0.587653 -3.52859e-16 -0.809113 
vn -0.587653 -3.52859e-16 -0.809113 
vn -0.587653 -3.52859e-16 -0.809113 
f 365//365 366//366 367//367 
f 367//367 368//368 365//365 
o mesh1136
v -0.145997 -0.005 0.169697 
v -0.145997 1.12757e-17 0.169697 
v -0.15 8.78061e-18 0.166676 
v -0.164898 -0.005 0.155433 
vn -0.602374 -3.61698e-16 0.798214 
vn -0.602374 -3.61698e-16 0.798214 
vn -0.602374 -3.61698e-16 0.798214 
vn -0.602374 -3.61698e-16 0.798214 
f 369//369 370//370 371//371 
f 371//371 372//372 369//369 
o mesh1137
v -0.145997 -0.005 0.169697 
v -0.164898 -0.005 0.183425 
v -0.15 8.78061e-18 0.172605 
v -0.145997 1.12757e-17 0.169697 
vn -0.587653 -3.52859e-16 -0.809113 
vn -0.587653 -3.52859e-16 -0.809113 
vn -0.587653 -3.52859e-16 -0.809113 
vn -0.587653 -3.52859e-16 -0.809113 
f 373//373 374//374 375//375 
f 375//375 376//376 373//373 
o mesh1138
v -0.145997 -0.005 0.130839 
v -0.145997 1.12757e-17 0.130839 
v -0.15 9.64797e-18 0.127818 
v -0.164898 -0.005 0.116575 
vn -0.602374 -3.61698e-16 0.798214 
vn -0.602374 -3.61698e-16 0.798214 
vn -0.602374 -3.61698e-16 0.798214 
vn -0.602374 -3.61698e-16 0.798214 
f 377//377 378//378 379//379 
f 379//379 380//380 377//377 
o mesh1139
v -0.145997 -0.005 0.130839 
v -0.164898 -0.005 0.144567 
v -0.15 9.64797e-18 0.133746 
v -0.145997 1.12757e-17 0.130839 
vn -0.587653 -3.52859e-16 -0.809113 
vn -0.587653 -3.52859e-16 -0.809113 
vn -0.587653 -3.52859e-16 -0.809113 
vn -0.587653 -3.52859e-16 -0.809113 
f 381//381 382//382 383//383 
f 383//383 384//384 381//381 
o mesh1140
v -0.145997 -0.005 0.0919806 
v -0.145997 1.12757e-17 0.0919806 
v -0.15 8.78061e-18 0.0889596 
v -0.164898 -0.005 0.0777165 
vn -0.602374 -3.61698e-16 0.798214 
vn -0.602374 -3.61698e-16 0.798214 
vn -0.602374 -3.61698e-16 0.798214 
vn -0.602374 -3.61698e-16 0.798214 
f 385//385 386//386 387//387 
f 387//387 388//388 385//385 
o mesh1141
v -0.145997 -0.005 0.0919806 
v -0.164898 -0.005 0.105709 
v -0.15 8.78061e-18 0.0948881 
v -0.145997 1.12757e-17 0.0919806 
vn -0.587653 -3.52859e-16 -0.809113 
vn -0.587653 -3.52859e-16 -0.809113 
vn -0.587653 -3.52859e-16 -0.809113 
vn -0.587653 -3.52859e-16 -0.809113 
f 389//389 390//390 391//391 
f 391//391 392//392 389//389 
o mesh1142
v -0.145997 -0.005 0.0531224 
v -0.145997 1.12757e-17 0.0531224 
v -0.15 9.64797e-18 0.0501014 
v -0.164898 -0.005 0.0388583 
vn -0.602374 -3.61698e-16 0.798214 
vn -0.602374 -3.61698e-16 0.798214 
vn -0.602374 -3.61698e-16 0.798214 
vn -0.602374 -3.61698e-16 0.798214 
f 393//393 394//394 395//395 
f 395//395 396//396 393//393 
o mesh1143
v -0.145997 -0.005 0.0531224 
v -0.164898 -0.005 0.0668505 
v -0.15 9.64797e-18 0.0560299 
v -0.145997 1.12757e-17 0.0531224 
vn -0.587653 -3.52859e-16 -0.809113 
vn -0.587653 -3.52859e-16 -0.809113 
vn -0.587653 -3.52859e-16 -0.809113 
vn -0.587653 -3.52859e-16 -0.809113 
f 397//397 398//398 399//399 
f 399//399 400//400 397//397 
o mesh1144
v -0.145997 -0.005 0.0142641 
v -0.164898 -0.005 0.0279922 
v -0.15 9.64797e-18 0.0171716 
v -0.145997 1.12757e-17 0.0142641 
vn -0.587653 -3.52859e-16 -0.809113 
vn -0.587653 -3.52859e-16 -0.809113 
vn -0.587653 -3.52859e-16 -0.809113 
vn -0.587653 -3.52859e-16 -0.809113 
f 401//401 402//402 403//403 
f 403//403 404//404 401//401 
o mesh1145
v -0.0274785 -0.005 0.149459 
v -0.0274492 -0.005 0.15 
v -0.0274492 -4.02456e-18 0.15 
v -0.0275661 -0.005 0.148925 
v -0.0274785 -4.04164e-18 0.149459 
v -0.0277109 -0.005 0.148403 
v -0.0275661 -4.09269e-18 0.148925 
v -0.0279113 -0.005 0.147901 
v -0.0277109 -4.17711e-18 0.148403 
v -0.0281649 -0.005 0.147422 
v -0.0279113 -4.29391e-18 0.147901 
v -0.0284687 -0.005 0.146974 
v -0.0281649 -4.44172e-18 0.147422 
v -0.0288192 -0.005 0.146562 
v -0.0284687 -4.61881e-18 0.146974 
v -0.0292123 -0.005 0.146189 
v -0.0288192 -4.8231e-18 0.146562 
v -0.0296432 -0.005 0.145862 
v -0.0292123 -5.05219e-18 0.146189 
v -0.0301071 -0.005 0.145582 
v -0.0296432 -5.30341e-18 0.145862 
v -0.0305985 -0.005 0.145355 
v -0.0301071 -5.57379e-18 0.145582 
v -0.0311115 -0.005 0.145182 
v -0.0305985 -5.86019e-18 0.145355 
v -0.0316403 -0.005 0.145066 
v -0.0311115 -6.15923e-18 0.145182 
v -0.0321785 -0.005 0.145007 
v -0.0316403 -6.46741e-18 0.145066 
v -0.0327199 -0.005 0.145007 
v -0.0321785 -6.78111e-18 0.145007 
v -0.0332581 -0.005 0.145066 
v -0.0327199 -7.09667e-18 0.145007 
v -0.0337868 -0.005 0.145182 
v -0.0332581 -7.41038e-18 0.145066 
v -0.0342999 -0.005 0.145355 
v -0.0337868 -7.71856e-18 0.145182 
v -0.0347912 -0.005 0.145582 
v -0.0342999 -8.0176e-18 0.145355 
v -0.0352551 -0.005 0.145862 
v -0.0347912 -8.30399e-18 0.145582 
v -0.0356861 -0.005 0.146189 
v -0.0352551 -8.57438e-18 0.145862 
v -0.0360792 -0.005 0.146562 
v -0.0356861 -8.82559e-18 0.146189 
v -0.0364296 -0.005 0.146974 
v -0.0360792 -9.05469e-18 0.146562 
v -0.0367335 -0.005 0.147422 
v -0.0364296 -9.25898e-18 0.146974 
v -0.0369871 -0.005 0.147901 
v -0.0367335 -9.43606e-18 0.147422 
v -0.0371874 -0.005 0.148403 
v -0.0369871 -9.58387e-18 0.147901 
v -0.0373323 -0.005 0.148925 
v -0.0371874 -9.70067e-18 0.148403 
v -0.0374199 -0.005 0.149459 
v -0.0373323 -9.78509e-18 0.148925 
v -0.0374492 -0.005 0.15 
v -0.0374199 -9.83615e-18 0.149459 
v -0.0374199 -0.005 0.150541 
v -0.0374492 -9.85323e-18 0.15 
v -0.0373323 -0.005 0.151075 
v -0.0374199 -9.83615e-18 0.150541 
v -0.0371874 -0.005 0.151597 
v -0.0373323 -9.78509e-18 0.151075 
v -0.0369871 -0.005 0.152099 
v -0.0371874 -9.70067e-18 0.151597 
v -0.0367335 -0.005 0.152578 
v -0.0369871 -9.58387e-18 0.152099 
v -0.0364296 -0.005 0.153026 
v -0.0367335 -9.43606e-18 0.152578 
v -0.0360792 -0.005 0.153438 
v -0.0364296 -9.25898e-18 0.153026 
v -0.0356861 -0.005 0.153811 
v -0.0360792 -9.05469e-18 0.153438 
v -0.0352551 -0.005 0.154138 
v -0.0356861 -8.82559e-18 0.153811 
v -0.0347912 -0.005 0.154418 
v -0.0352551 -8.57438e-18 0.154138 
v -0.0342999 -0.005 0.154645 
v -0.0347912 -8.30399e-18 0.154418 
v -0.0337868 -0.005 0.154818 
v -0.0342999 -8.0176e-18 0.154645 
v -0.0332581 -0.005 0.154934 
v -0.0337868 -7.71856e-18 0.154818 
v -0.0327199 -0.005 0.154993 
v -0.0332581 -7.41038e-18 0.154934 
v -0.0321785 -0.005 0.154993 
v -0.0327199 -7.09667e-18 0.154993 
v -0.0316403 -0.005 0.154934 
v -0.0321785 -6.78111e-18 0.154993 
v -0.0311115 -0.005 0.154818 
v -0.0316403 -6.46741e-18 0.154934 
v -0.0305985 -0.005 0.154645 
v -0.0311115 -6.15923e-18 0.154818 
v -0.0301071 -0.005 0.154418 
v -0.0305985 -5.86019e-18 0.154645 
v -0.0296432 -0.005 0.154138 
v -0.0301071 -5.57379e-18 0.154418 
v -0.0292123 -0.005 0.153811 
v -0.0296432 -5.30341e-18 0.154138 
v -0.0288192 -0.005 0.153438 
v -0.0292123 -5.05219e-18 0.153811 
v -0.0284687 -0.005 0.153026 
v -0.0288192 -4.8231e-18 0.153438 
v -0.0281649 -0.005 0.152578 
v -0.0284687 -4.61881e-18 0.153026 
v -0.0279113 -0.005 0.152099 
v -0.0281649 -4.44172e-18 0.152578 
v -0.0277109 -0.005 0.151597 
v -0.0279113 -4.29391e-18 0.152099 
v -0.0275661 -0.005 0.151075 
v -0.0277109 -4.17711e-18 0.151597 
v -0.0274785 -0.005 0.150541 
v -0.0275661 -4.09269e-18 0.151075 
v -0.0274785 -4.04164e-18 0.150541 
vn -0.994138 -5.7945e-16 0.108119 
vn -1 -5.82867e-16 2.44929e-16 
vn -1 -5.82867e-16 2.44929e-16 
vn -0.976621 -5.6924e-16 0.21497 
vn -0.994138 -5.7945e-16 0.108119 
vn -0.947653 -5.52356e-16 0.319302 
vn -0.976621 -5.6924e-16 0.21497 
vn -0.907575 -5.28996e-16 0.419889 
vn -0.947653 -5.52356e-16 0.319302 
vn -0.856857 -4.99434e-16 0.515554 
vn -0.907575 -5.28996e-16 0.419889 
vn -0.796093 -4.64016e-16 0.605174 
vn -0.856857 -4.99434e-16 0.515554 
vn -0.725995 -4.23159e-16 0.687699 
vn -0.796093 -4.64016e-16 0.605174 
vn -0.647386 -3.7734e-16 0.762162 
vn -0.725995 -4.23159e-16 0.687699 
vn -0.561187 -3.27097e-16 0.827689 
vn -0.647386 -3.7734e-16 0.762162 
vn -0.468408 -2.7302e-16 0.883512 
vn -0.561187 -3.27097e-16 0.827689 
vn -0.370138 -2.15741e-16 0.928977 
vn -0.468408 -2.7302e-16 0.883512 
vn -0.267528 -1.55933e-16 0.96355 
vn -0.370138 -2.15741e-16 0.928977 
vn -0.161782 -9.42974e-17 0.986827 
vn -0.267528 -1.55933e-16 0.96355 
vn -0.0541389 -3.15558e-17 0.998533 
vn -0.161782 -9.42974e-17 0.986827 
vn 0.0541389 3.15558e-17 0.998533 
vn -0.0541389 -3.15558e-17 0.998533 
vn 0.161782 9.42974e-17 0.986827 
vn 0.0541389 3.15558e-17 0.998533 
vn 0.267528 1.55933e-16 0.96355 
vn 0.161782 9.42974e-17 0.986827 
vn 0.370138 2.15741e-16 0.928977 
vn 0.267528 1.55933e-16 0.96355 
vn 0.468408 2.7302e-16 0.883512 
vn 0.370138 2.15741e-16 0.928977 
vn 0.561187 3.27097e-16 0.827689 
vn 0.468408 2.7302e-16 0.883512 
vn 0.647386 3.7734e-16 0.762162 
vn 0.561187 3.27097e-16 0.827689 
vn 0.725995 4.23159e-16 0.687699 
vn 0.647386 3.7734e-16 0.762162 
vn 0.796093 4.64016e-16 0.605174 
vn 0.725995 4.23159e-16 0.687699 
vn 0.856857 4.99434e-16 0.515554 
vn 0.796093 4.64016e-16 0.605174 
vn 0.907575 5.28996e-16 0.419889 
vn 0.856857 4.99434e-16 0.515554 
vn 0.947653 5.52356e-16 0.319302 
vn 0.907575 5.28996e-16 0.419889 
vn 0.976621 5.6924e-16 0.21497 
vn 0.947653 5.52356e-16 0.319302 
vn 0.994138 5.7945e-16 0.108119 
vn 0.976621 5.6924e-16 0.21497 
vn 1 5.82867e-16 -1.22465e-16 
vn 0.994138 5.7945e-16 0.108119 
vn 0.994138 5.7945e-16 -0.108119 
vn 1 5.82867e-16 -1.22465e-16 
vn 0.976621 5.6924e-16 -0.21497 
vn 0.994138 5.7945e-16 -0.108119 
vn 0.947653 5.52356e-16 -0.319302 
vn 0.976621 5.6924e-16 -0.21497 
vn 0.907575 5.28996e-16 -0.419889 
vn 0.947653 5.52356e-16 -0.319302 
vn 0.856857 4.99434e-16 -0.515554 
vn 0.907575 5.28996e-16 -0.419889 
vn 0.796093 4.64016e-16 -0.605174 
vn 0.856857 4.99434e-16 -0.515554 
vn 0.725995 4.23159e-16 -0.687699 
vn 0.796093 4.64016e-16 -0.605174 
vn 0.647386 3.7734e-16 -0.762162 
vn 0.725995 4.23159e-16 -0.687699 
vn 0.561187 3.27097e-16 -0.827689 
vn 0.647386 3.7734e-16 -0.762162 
vn 0.468408 2.7302e-16 -0.883512 
vn 0.561187 3.27097e-16 -0.827689 
vn 0.370138 2.15741e-16 -0.928977 
vn 0.468408 2.7302e-16 -0.883512 
vn 0.267528 1.55933e-16 -0.96355 
vn 0.370138 2.15741e-16 -0.928977 
vn 0.161782 9.42974e-17 -0.986827 
vn 0.267528 1.55933e-16 -0.96355 
vn 0.0541389 3.15558e-17 -0.998533 
vn 0.161782 9.42974e-17 -0.986827 
vn -0.0541389 -3.15558e-17 -0.998533 
vn 0.0541389 3.15558e-17 -0.998533 
vn -0.161782 -9.42974e-17 -0.986827 
vn -0.0541389 -3.15558e-17 -0.998533 
vn -0.267528 -1.55933e-16 -0.96355 
vn -0.161782 -9.42974e-17 -0.986827 
vn -0.370138 -2.15741e-16 -0.928977 
vn -0.267528 -1.55933e-16 -0.96355 
vn -0.468408 -2.7302e-16 -0.883512 
vn -0.370138 -2.15741e-16 -0.928977 
vn -0.561187 -3.27097e-16 -0.827689 
vn -0.468408 -2.7302e-16 -0.883512 
vn -0.647386 -3.7734e-16 -0.762162 
vn -0.561187 -3.27097e-16 -0.827689 
vn -0.725995 -4.23159e-16 -0.687699 
vn -0.647386 -3.7734e-16 -0.762162 
vn -0.796093 -4.64016e-16 -0.605174 
vn -0.725995 -4.23159e-16 -0.687699 
vn -0.856857 -4.99434e-16 -0.515554 
vn -0.796093 -4.64016e-16 -0.605174 
vn -0.907575 -5.28996e-16 -0.419889 
vn -0.856857 -4.99434e-16 -0.515554 
vn -0.947653 -5.52356e-16 -0.319302 
vn -0.907575 -5.28996e-16 -0.419889 
vn -0.976621 -5.6924e-16 -0.21497 
vn -0.947653 -5.52356e-16 -0.319302 
vn -0.994138 -5.7945e-16 -0.108119 
vn -0.976621 -5.6924e-16 -0.21497 
vn -0.994138 -5.7945e-16 -0.108119 
f 405//405 406//406 407//407 
f 408//408 405//405 409//409 
f 410//410 408//408 411//411 
f 412//412 410//410 413//413 
f 414//414 412//412 415//415 
f 416//416 414//414 417//417 
f 418//418 416//416 419//419 
f 420//420 418//418 421//421 
f 422//422 420//420 423//423 
f 424//424 422//422 425//425 
f 426//426 424//424 427//427 
f 428//428 426//426 429//429 
f 430//430 428//428 431//431 
f 432//432 430//430 433//433 
f 434//434 432//432 435//435 
f 436//436 434//434 437//437 
f 438//438 436//436 439//439 
f 440//440 438//438 441//441 
f 442//442 440//440 443//443 
f 444//444 442//442 445//445 
f 446//446 444//444 447//447 
f 448//448 446//446 449//449 
f 450//450 448//448 451//451 
f 452//452 450//450 453//453 
f 454//454 452//452 455//455 
f 456//456 454//454 457//457 
f 458//458 456//456 459//459 
f 460//460 458//458 461//461 
f 462//462 460//460 463//463 
f 464//464 462//462 465//465 
f 466//466 464//464 467//467 
f 468//468 466//466 469//469 
f 470//470 468//468 471//471 
f 472//472 470//470 473//473 
f 474//474 472//472 475//475 
f 476//476 474//474 477//477 
f 478//478 476//476 479//479 
f 480//480 478//478 481//481 
f 482//482 480//480 483//483 
f 484//484 482//482 485//485 
f 486//486 484//484 487//487 
f 488//488 486//486 489//489 
f 490//490 488//488 491//491 
f 492//492 490//490 493//493 
f 494//494 492//492 495//495 
f 496//496 494//494 497//497 
f 498//498 496//496 499//499 
f 500//500 498//498 501//501 
f 502//502 500//500 503//503 
f 504//504 502//502 505//505 
f 506//506 504//504 507//507 
f 508//508 506//506 509//509 
f 510//510 508//508 511//511 
f 512//512 510//510 513//513 
f 514//514 512//512 515//515 
f 516//516 514//514 517//517 
f 518//518 516//516 519//519 
f 406//406 518//518 520//520 
f 520//520 407//407 406//406 
f 519//519 520//520 518//518 
f 517//517 519//519 516//516 
f 515//515 517//517 514//514 
f 513//513 515//515 512//512 
f 511//511 513//513 510//510 
f 509//509 511//511 508//508 
f 507//507 509//509 506//506 
f 505//505 507//507 504//504 
f 503//503 505//505 502//502 
f 501//501 503//503 500//500 
f 499//499 501//501 498//498 
f 497//497 499//499 496//496 
f 495//495 497//497 494//494 
f 493//493 495//495 492//492 
f 491//491 493//493 490//490 
f 489//489 491//491 488//488 
f 487//487 489//489 486//486 
f 485//485 487//487 484//484 
f 483//483 485//485 482//482 
f 481//481 483//483 480//480 
f 479//479 481//481 478//478 
f 477//477 479//479 476//476 
f 475//475 477//477 474//474 
f 473//473 475//475 472//472 
f 471//471 473//473 470//470 
f 469//469 471//471 468//468 
f 467//467 469//469 466//466 
f 465//465 467//467 464//464 
f 463//463 465//465 462//462 
f 461//461 463//463 460//460 
f 459//459 461//461 458//458 
f 457//457 459//459 456//456 
f 455//455 457//457 454//454 
f 453//453 455//455 452//452 
f 451//451 453//453 450//450 
f 449//449 451//451 448//448 
f 447//447 449//449 446//446 
f 445//445 447//447 444//444 
f 443//443 445//445 442//442 
f 441//441 443//443 440//440 
f 439//439 441//441 438//438 
f 437//437 439//439 436//436 
f 435//435 437//437 434//434 
f 433//433 435//435 432//432 
f 431//431 433//433 430//430 
f 429//429 431//431 428//428 
f 427//427 429//429 426//426 
f 425//425 427//427 424//424 
f 423//423 425//425 422//422 
f 421//421 423//423 420//420 
f 419//419 421//421 418//418 
f 417//417 419//419 416//416 
f 415//415 417//417 414//414 
f 413//413 415//415 412//412 
f 411//411 413//413 410//410 
f 409//409 411//411 408//408 
f 407//407 409//409 405//405 
o mesh1146
v -0.0274785 -0.005 0.224459 
v -0.0274492 -0.005 0.225 
v -0.0274492 -4.02456e-18 0.225 
v -0.0275661 -0.005 0.223925 
v -0.0274785 -4.04164e-18 0.224459 
v -0.0277109 -0.005 0.223403 
v -0.0275661 -4.09269e-18 0.223925 
v -0.0279113 -0.005 0.222901 
v -0.0277109 -4.17711e-18 0.223403 
v -0.0281649 -0.005 0.222422 
v -0.0279113 -4.29391e-18 0.222901 
v -0.0284687 -0.005 0.221974 
v -0.0281649 -4.44172e-18 0.222422 
v -0.0288192 -0.005 0.221562 
v -0.0284687 -4.61881e-18 0.221974 
v -0.0292123 -0.005 0.221189 
v -0.0288192 -4.8231e-18 0.221562 
v -0.0296432 -0.005 0.220862 
v -0.0292123 -5.05219e-18 0.221189 
v -0.0301071 -0.005 0.220582 
v -0.0296432 -5.30341e-18 0.220862 
v -0.0305985 -0.005 0.220355 
v -0.0301071 -5.57379e-18 0.220582 
v -0.0311115 -0.005 0.220182 
v -0.0305985 -5.86019e-18 0.220355 
v -0.0316403 -0.005 0.220066 
v -0.0311115 -6.15923e-18 0.220182 
v -0.0321785 -0.005 0.220007 
v -0.0316403 -6.46741e-18 0.220066 
v -0.0327199 -0.005 0.220007 
v -0.0321785 -6.78111e-18 0.220007 
v -0.0332581 -0.005 0.220066 
v -0.0327199 -7.09667e-18 0.220007 
v -0.0337868 -0.005 0.220182 
v -0.0332581 -7.41038e-18 0.220066 
v -0.0342999 -0.005 0.220355 
v -0.0337868 -7.71856e-18 0.220182 
v -0.0347912 -0.005 0.220582 
v -0.0342999 -8.0176e-18 0.220355 
v -0.0352551 -0.005 0.220862 
v -0.0347912 -8.30399e-18 0.220582 
v -0.0356861 -0.005 0.221189 
v -0.0352551 -8.57438e-18 0.220862 
v -0.0360792 -0.005 0.221562 
v -0.0356861 -8.82559e-18 0.221189 
v -0.0364296 -0.005 0.221974 
v -0.0360792 -9.05469e-18 0.221562 
v -0.0367335 -0.005 0.222422 
v -0.0364296 -9.25898e-18 0.221974 
v -0.0369871 -0.005 0.222901 
v -0.0367335 -9.43606e-18 0.222422 
v -0.0371874 -0.005 0.223403 
v -0.0369871 -9.58387e-18 0.222901 
v -0.0373323 -0.005 0.223925 
v -0.0371874 -9.70067e-18 0.223403 
v -0.0374199 -0.005 0.224459 
v -0.0373323 -9.78509e-18 0.223925 
v -0.0374492 -0.005 0.225 
v -0.0374199 -9.83615e-18 0.224459 
v -0.0374199 -0.005 0.225541 
v -0.0374492 -9.85323e-18 0.225 
v -0.0373323 -0.005 0.226075 
v -0.0374199 -9.83615e-18 0.225541 
v -0.0371874 -0.005 0.226597 
v -0.0373323 -9.78509e-18 0.226075 
v -0.0369871 -0.005 0.227099 
v -0.0371874 -9.70067e-18 0.226597 
v -0.0367335 -0.005 0.227578 
v -0.0369871 -9.58387e-18 0.227099 
v -0.0364296 -0.005 0.228026 
v -0.0367335 -9.43606e-18 0.227578 
v -0.0360792 -0.005 0.228438 
v -0.0364296 -9.25898e-18 0.228026 
v -0.0356861 -0.005 0.228811 
v -0.0360792 -9.05469e-18 0.228438 
v -0.0352551 -0.005 0.229138 
v -0.0356861 -8.82559e-18 0.228811 
v -0.0347912 -0.005 0.229418 
v -0.0352551 -8.57438e-18 0.229138 
v -0.0342999 -0.005 0.229645 
v -0.0347912 -8.30399e-18 0.229418 
v -0.0337868 -0.005 0.229818 
v -0.0342999 -8.0176e-18 0.229645 
v -0.0332581 -0.005 0.229934 
v -0.0337868 -7.71856e-18 0.229818 
v -0.0327199 -0.005 0.229993 
v -0.0332581 -7.41038e-18 0.229934 
v -0.0321785 -0.005 0.229993 
v -0.0327199 -7.09667e-18 0.229993 
v -0.0316403 -0.005 0.229934 
v -0.0321785 -6.78111e-18 0.229993 
v -0.0311115 -0.005 0.229818 
v -0.0316403 -6.46741e-18 0.229934 
v -0.0305985 -0.005 0.229645 
v -0.0311115 -6.15923e-18 0.229818 
v -0.0301071 -0.005 0.229418 
v -0.0305985 -5.86019e-18 0.229645 
v -0.0296432 -0.005 0.229138 
v -0.0301071 -5.57379e-18 0.229418 
v -0.0292123 -0.005 0.228811 
v -0.0296432 -5.30341e-18 0.229138 
v -0.0288192 -0.005 0.228438 
v -0.0292123 -5.05219e-18 0.228811 
v -0.0284687 -0.005 0.228026 
v -0.0288192 -4.8231e-18 0.228438 
v -0.0281649 -0.005 0.227578 
v -0.0284687 -4.61881e-18 0.228026 
v -0.0279113 -0.005 0.227099 
v -0.0281649 -4.44172e-18 0.227578 
v -0.0277109 -0.005 0.226597 
v -0.0279113 -4.29391e-18 0.227099 
v -0.0275661 -0.005 0.226075 
v -0.0277109 -4.17711e-18 0.226597 
v -0.0274785 -0.005 0.225541 
v -0.0275661 -4.09269e-18 0.226075 
v -0.0274785 -4.04164e-18 0.225541 
vn -0.994138 -5.7945e-16 0.108119 
vn -1 -5.82867e-16 2.44929e-16 
vn -1 -5.82867e-16 2.44929e-16 
vn -0.976621 -5.6924e-16 0.21497 
vn -0.994138 -5.7945e-16 0.108119 
vn -0.947653 -5.52356e-16 0.319302 
vn -0.976621 -5.6924e-16 0.21497 
vn -0.907575 -5.28996e-16 0.419889 
vn -0.947653 -5.52356e-16 0.319302 
vn -0.856857 -4.99434e-16 0.515554 
vn -0.907575 -5.28996e-16 0.419889 
vn -0.796093 -4.64016e-16 0.605174 
vn -0.856857 -4.99434e-16 0.515554 
vn -0.725995 -4.23159e-16 0.687699 
vn -0.796093 -4.64016e-16 0.605174 
vn -0.647386 -3.7734e-16 0.762162 
vn -0.725995 -4.23159e-16 0.687699 
vn -0.561187 -3.27097e-16 0.827689 
vn -0.647386 -3.7734e-16 0.762162 
vn -0.468408 -2.7302e-16 0.883512 
vn -0.561187 -3.27097e-16 0.827689 
vn -0.370138 -2.15741e-16 0.928977 
vn -0.468408 -2.7302e-16 0.883512 
vn -0.267528 -1.55933e-16 0.96355 
vn -0.370138 -2.15741e-16 0.928977 
vn -0.161782 -9.42974e-17 0.986827 
vn -0.267528 -1.55933e-16 0.96355 
vn -0.0541389 -3.15558e-17 0.998533 
vn -0.161782 -9.42974e-17 0.986827 
vn 0.0541389 3.15558e-17 0.998533 
vn -0.0541389 -3.15558e-17 0.998533 
vn 0.161782 9.42974e-17 0.986827 
vn 0.0541389 3.15558e-17 0.998533 
vn 0.267528 1.55933e-16 0.96355 
vn 0.161782 9.42974e-17 0.986827 
vn 0.370138 2.15741e-16 0.928977 
vn 0.267528 1.55933e-16 0.96355 
vn 0.468408 2.7302e-16 0.883512 
vn 0.370138 2.15741e-16 0.928977 
vn 0.561187 3.27097e-16 0.827689 
vn 0.468408 2.7302e-16 0.883512 
vn 0.647386 3.7734e-16 0.762162 
vn 0.561187 3.27097e-16 0.827689 
vn 0.725995 4.23159e-16 0.687699 
vn 0.647386 3.7734e-16 0.762162 
vn 0.796093 4.64016e-16 0.605174 
vn 0.725995 4.23159e-16 0.687699 
vn 0.856857 4.99434e-16 0.515554 
vn 0.796093 4.64016e-16 0.605174 
vn 0.907575 5.28996e-16 0.419889 
vn 0.856857 4.99434e-16 0.515554 
vn 0.947653 5.52356e-16 0.319302 
vn 0.907575 5.28996e-16 0.419889 
vn 0.976621 5.6924e-16 0.21497 
vn 0.947653 5.52356e-16 0.319302 
vn 0.994138 5.7945e-16 0.108119 
vn 0.976621 5.6924e-16 0.21497 
vn 1 5.82867e-16 -1.22465e-16 
vn 0.994138 5.7945e-16 0.108119 
vn 0.994138 5.7945e-16 -0.108119 
vn 1 5.82867e-16 -1.22465e-16 
vn 0.976621 5.6924e-16 -0.21497 
vn 0.994138 5.7945e-16 -0.108119 
vn 0.947653 5.52356e-16 -0.319302 
vn 0.976621 5.6924e-16 -0.21497 
vn 0.907575 5.28996e-16 -0.419889 
vn 0.947653 5.52356e-16 -0.319302 
vn 0.856857 4.99434e-16 -0.515554 
vn 0.907575 5.28996e-16 -0.419889 
vn 0.796093 4.64016e-16 -0.605174 
vn 0.856857 4.99434e-16 -0.515554 
vn 0.725995 4.23159e-16 -0.687699 
vn 0.796093 4.64016e-16 -0.605174 
vn 0.647386 3.7734e-16 -0.762162 
vn 0.725995 4.23159e-16 -0.687699 
vn 0.561187 3.27097e-16 -0.827689 
vn 0.647386 3.7734e-16 -0.762162 
vn 0.468408 2.7302e-16 -0.883512 
vn 0.561187 3.27097e-16 -0.827689 
vn 0.370138 2.15741e-16 -0.928977 
vn 0.468408 2.7302e-16 -0.883512 
vn 0.267528 1.55933e-16 -0.96355 
vn 0.370138 2.15741e-16 -0.928977 
vn 0.161782 9.42974e-17 -0.986827 
vn 0.267528 1.55933e-16 -0.96355 
vn 0.0541389 3.15558e-17 -0.998533 
vn 0.161782 9.42974e-17 -0.986827 
vn -0.0541389 -3.15558e-17 -0.998533 
vn 0.0541389 3.15558e-17 -0.998533 
vn -0.161782 -9.42974e-17 -0.986827 
vn -0.0541389 -3.15558e-17 -0.998533 
vn -0.267528 -1.55933e-16 -0.96355 
vn -0.161782 -9.42974e-17 -0.986827 
vn -0.370138 -2.15741e-16 -0.928977 
vn -0.267528 -1.55933e-16 -0.96355 
vn -0.468408 -2.7302e-16 -0.883512 
vn -0.370138 -2.15741e-16 -0.928977 
vn -0.561187 -3.27097e-16 -0.827689 
vn -0.468408 -2.7302e-16 -0.883512 
vn -0.647386 -3.7734e-16 -0.762162 
vn -0.561187 -3.27097e-16 -0.827689 
vn -0.725995 -4.23159e-16 -0.687699 
vn -0.647386 -3.7734e-16 -0.762162 
vn -0.796093 -4.64016e-16 -0.605174 
vn -0.725995 -4.23159e-16 -0.687699 
vn -0.856857 -4.99434e-16 -0.515554 
vn -0.796093 -4.64016e-16 -0.605174 
vn -0.907575 -5.28996e-16 -0.419889 
vn -0.856857 -4.99434e-16 -0.515554 
vn -0.947653 -5.52356e-16 -0.319302 
vn -0.907575 -5.28996e-16 -0.419889 
vn -0.976621 -5.6924e-16 -0.21497 
vn -0.947653 -5.52356e-16 -0.319302 
vn -0.994138 -5.7945e-16 -0.108119 
vn -0.976621 -5.6924e-16 -0.21497 
vn -0.994138 -5.7945e-16 -0.108119 
f 521//521 522//522 523//523 
f 524//524 521//521 525//525 
f 526//526 524//524 527//527 
f 528//528 526//526 529//529 
f 530//530 528//528 531//531 
f 532//532 530//530 533//533 
f 534//534 532//532 535//535 
f 536//536 534//534 537//537 
f 538//538 536//536 539//539 
f 540//540 538//538 541//541 
f 542//542 540//540 543//543 
f 544//544 542//542 545//545 
f 546//546 544//544 547//547 
f 548//548 546//546 549//549 
f 550//550 548//548 551//551 
f 552//552 550//550 553//553 
f 554//554 552//552 555//555 
f 556//556 554//554 557//557 
f 558//558 556//556 559//559 
f 560//560 558//558 561//561 
f 562//562 560//560 563//563 
f 564//564 562//562 565//565 
f 566//566 564//564 567//567 
f 568//568 566//566 569//569 
f 570//570 568//568 571//571 
f 572//572 570//570 573//573 
f 574//574 572//572 575//575 
f 576//576 574//574 577//577 
f 578//578 576//576 579//579 
f 580//580 578//578 581//581 
f 582//582 580//580 583//583 
f 584//584 582//582 585//585 
f 586//586 584//584 587//587 
f 588//588 586//586 589//589 
f 590//590 588//588 591//591 
f 592//592 590//590 593//593 
f 594//594 592//592 595//595 
f 596//596 594//594 597//597 
f 598//598 596//596 599//599 
f 600//600 598//598 601//601 
f 602//602 600//600 603//603 
f 604//604 602//602 605//605 
f 606//606 604//604 607//607 
f 608//608 606//606 609//609 
f 610//610 608//608 611//611 
f 612//612 610//610 613//613 
f 614//614 612//612 615//615 
f 616//616 614//614 617//617 
f 618//618 616//616 619//619 
f 620//620 618//618 621//621 
f 622//622 620//620 623//623 
f 624//624 622//622 625//625 
f 626//626 624//624 627//627 
f 628//628 626//626 629//629 
f 630//630 628//628 631//631 
f 632//632 630//630 633//633 
f 634//634 632//632 635//635 
f 522//522 634//634 636//636 
f 636//636 523//523 522//522 
f 635//635 636//636 634//634 
f 633//633 635//635 632//632 
f 631//631 633//633 630//630 
f 629//629 631//631 628//628 
f 627//627 629//629 626//626 
f 625//625 627//627 624//624 
f 623//623 625//625 622//622 
f 621//621 623//623 620//620 
f 619//619 621//621 618//618 
f 617//617 619//619 616//616 
f 615//615 617//617 614//614 
f 613//613 615//615 612//612 
f 611//611 613//613 610//610 
f 609//609 611//611 608//608 
f 607//607 609//609 606//606 
f 605//605 607//607 604//604 
f 603//603 605//605 602//602 
f 601//601 603//603 600//600 
f 599//599 601//601 598//598 
f 597//597 599//599 596//596 
f 595//595 597//597 594//594 
f 593//593 595//595 592//592 
f 591//591 593//593 590//590 
f 589//589 591//591 588//588 
f 587//587 589//589 586//586 
f 585//585 587//587 584//584 
f 583//583 585//585 582//582 
f 581//581 583//583 580//580 
f 579//579 581//581 578//578 
f 577//577 579//579 576//576 
f 575//575 577//577 574//574 
f 573//573 575//575 572//572 
f 571//571 573//573 570//570 
f 569//569 571//571 568//568 
f 567//567 569//569 566//566 
f 565//565 567//567 564//564 
f 563//563 565//565 562//562 
f 561//561 563//563 560//560 
f 559//559 561//561 558//558 
f 557//557 559//559 556//556 
f 555//555 557//557 554//554 
f 553//553 555//555 552//552 
f 551//551 553//553 550//550 
f 549//549 551//551 548//548 
f 547//547 549//549 546//546 
f 545//545 547//547 544//544 
f 543//543 545//545 542//542 
f 541//541 543//543 540//540 
f 539//539 541//541 538//538 
f 537//537 539//539 536//536 
f 535//535 537//537 534//534 
f 533//533 535//535 532//532 
f 531//531 533//533 530//530 
f 529//529 531//531 528//528 
f 527//527 529//529 526//526 
f 525//525 527//527 524//524 
f 523//523 525//525 521//521 
o mesh1147
v 0.1 -0.005 0.3 
v 0.1 0 0.3 
v -0.15 -1.83697e-17 0.3 
v -0.164898 -0.005 0.3 
vn 0 0 1 
vn 0 0 1 
vn 0 0 1 
vn 0 0 1 
f 637//637 638//638 639//639 
f 639//639 640//640 637//637 
o mesh1148
v -0.145997 -0.005 0.286272 
v -0.164898 -0.005 0.3 
v -0.15 8.78061e-18 0.289179 
v -0.145997 1.12757e-17 0.286272 
vn -0.587653 -3.52859e-16 -0.809113 
vn -0.587653 -3.52859e-16 -0.809113 
vn -0.587653 -3.52859e-16 -0.809113 
vn -0.587653 -3.52859e-16 -0.809113 
f 641//641 642//642 643//643 
f 643//643 644//644 641//641 
o mesh1149
v -0.15 8.78061e-18 0.289179 
v -0.164898 -0.005 0.3 
v -0.15 -1.83697e-17 0.3 
vn -0.318167 0.948035 0 
vn -0.318167 0.948035 0 
vn -0.318167 0.948035 0 
f 645//645 646//646 647//647 
o mesh1150
v 0.1 0 0.3 
v -0.0274785 -4.04164e-18 0.224459 
v -0.0274492 -4.02456e-18 0.225 
v -0.0279113 -4.29391e-18 0.222901 
v -0.0277109 -4.17711e-18 0.223403 
v -0.0274785 -4.04164e-18 0.149459 
v -0.0274492 -4.02456e-18 0.15 
v -0.0292123 -5.05219e-18 0.0788108 
v -0.0279113 -4.29391e-18 0.147901 
v -0.0277109 -4.17711e-18 0.148403 
v -0.0296432 -5.30341e-18 0.229138 
v -0.0301071 -5.57379e-18 0.229418 
v -0.0288192 -4.8231e-18 0.228438 
v -0.0292123 -5.05219e-18 0.228811 
v -0.0279113 -4.29391e-18 0.227099 
v -0.0281649 -4.44172e-18 0.227578 
v -0.0274785 -4.04164e-18 0.225541 
v -0.0275661 -4.09269e-18 0.223925 
v -0.0284687 -4.61881e-18 0.221974 
v -0.0281649 -4.44172e-18 0.222422 
v -0.0288192 -4.8231e-18 0.221562 
v -0.0284687 -4.61881e-18 0.228026 
v -0.0275661 -4.09269e-18 0.226075 
v -0.0277109 -4.17711e-18 0.226597 
v -0.0275661 -4.09269e-18 0.148925 
v -0.0284687 -4.61881e-18 0.146974 
v -0.0281649 -4.44172e-18 0.147422 
v -0.0288192 -4.8231e-18 0.146562 
v -0.0296432 -5.30341e-18 0.220862 
v -0.0292123 -5.05219e-18 0.221189 
v -0.0305985 -5.86019e-18 0.220355 
v -0.0301071 -5.57379e-18 0.220582 
v -0.15 8.78061e-18 0.283251 
v -0.0311115 -6.15923e-18 0.229818 
v -0.0316403 -6.46741e-18 0.229934 
v -0.145997 1.12757e-17 0.286272 
v -0.0296432 -5.30341e-18 0.145862 
v -0.0292123 -5.05219e-18 0.146189 
v -0.0305985 -5.86019e-18 0.145355 
v -0.0301071 -5.57379e-18 0.145582 
v -0.15 9.64797e-18 0.250321 
v -0.0305985 -5.86019e-18 0.229645 
v 0.1 0 0 
v -0.0275661 -4.09269e-18 0.0760749 
v -0.0274785 -4.04164e-18 0.0744594 
v -0.0274492 -4.02456e-18 0.075 
v -0.0321785 -6.78111e-18 0.0799927 
v -0.145997 1.12757e-17 0.0919806 
v -0.145997 1.12757e-17 0.130839 
v -0.15 8.78061e-18 0.0948881 
v -0.15 9.64797e-18 0.127818 
v -0.0274785 -4.04164e-18 0.150541 
v -0.0311115 -6.15923e-18 0.145182 
v -0.0296432 -5.30341e-18 0.0791384 
v -0.0301071 -5.57379e-18 0.0794176 
v -0.0277109 -4.17711e-18 0.0765965 
v -0.0274785 -4.04164e-18 0.0755406 
v -0.0277109 -4.17711e-18 0.0734035 
v -0.0275661 -4.09269e-18 0.0739251 
v -0.145997 1.12757e-17 0.169697 
v -0.15 8.78061e-18 0.172605 
v -0.15 8.78061e-18 0.205534 
v -0.0321785 -6.78111e-18 0.220007 
v -0.0316403 -6.46741e-18 0.154934 
v -0.0316403 -6.46741e-18 0.145066 
v -0.0305985 -5.86019e-18 0.0796449 
v -0.0316403 -6.46741e-18 0.220066 
v -0.0311115 -6.15923e-18 0.220182 
v -0.0279113 -4.29391e-18 0.0770994 
v -0.0284687 -4.61881e-18 0.0719741 
v -0.0281649 -4.44172e-18 0.0724222 
v -0.145997 1.12757e-17 0.208555 
v -0.0296432 -5.30341e-18 0.154138 
v -0.0301071 -5.57379e-18 0.154418 
v -0.0288192 -4.8231e-18 0.153438 
v -0.0292123 -5.05219e-18 0.153811 
v -0.0275661 -4.09269e-18 0.151075 
v -0.0277109 -4.17711e-18 0.151597 
v -0.0316403 -6.46741e-18 0.0799341 
v -0.0311115 -6.15923e-18 0.0798177 
v -0.0284687 -4.61881e-18 0.0780259 
v -0.0288192 -4.8231e-18 0.0784385 
v -0.0279113 -4.29391e-18 0.0729006 
v -0.0281649 -4.44172e-18 0.152578 
v -0.0284687 -4.61881e-18 0.153026 
v -0.0281649 -4.44172e-18 0.0775778 
v -0.0311115 -6.15923e-18 0.154818 
v -0.0279113 -4.29391e-18 0.152099 
v -0.145997 1.12757e-17 0.0142641 
v -0.145997 1.12757e-17 0.0531224 
v -0.0316403 -6.46741e-18 0.0700659 
v -0.15 9.64797e-18 0.0171716 
v -0.15 9.64797e-18 0.0501014 
v -0.15 9.64797e-18 0.133746 
v -0.0369871 -9.58387e-18 0.152099 
v -0.0371874 -9.70067e-18 0.151597 
v -0.0364296 -9.25898e-18 0.153026 
v -0.0367335 -9.43606e-18 0.152578 
v -0.0356861 -8.82559e-18 0.221189 
v -0.0352551 -8.57438e-18 0.220862 
v -0.145997 1.12757e-17 0.247414 
v -0.0305985 -5.86019e-18 0.154645 
v -0.0356861 -8.82559e-18 0.153811 
v -0.0360792 -9.05469e-18 0.153438 
v -0.0342999 -8.0176e-18 0.154645 
v -0.0347912 -8.30399e-18 0.154418 
v -0.0347912 -8.30399e-18 0.220582 
v -0.0364296 -9.25898e-18 0.221974 
v -0.0360792 -9.05469e-18 0.221562 
v -0.0369871 -9.58387e-18 0.222901 
v -0.0367335 -9.43606e-18 0.222422 
v -0.0373323 -9.78509e-18 0.223925 
v -0.0371874 -9.70067e-18 0.223403 
v -0.0296432 -5.30341e-18 0.0708616 
v -0.0292123 -5.05219e-18 0.0711892 
v -0.0373323 -9.78509e-18 0.151075 
v -0.0374199 -9.83615e-18 0.150541 
v -0.0352551 -8.57438e-18 0.154138 
v -0.0332581 -7.41038e-18 0.154934 
v -0.0337868 -7.71856e-18 0.154818 
v -0.15 8.78061e-18 0.166676 
v -0.0327199 -7.09667e-18 0.154993 
v -0.0374199 -9.83615e-18 0.0744594 
v -0.0373323 -9.78509e-18 0.0739251 
v -0.0288192 -4.8231e-18 0.0715615 
v -0.0305985 -5.86019e-18 0.0703551 
v -0.0301071 -5.57379e-18 0.0705824 
v -0.0311115 -6.15923e-18 0.0701823 
v -0.0321785 -6.78111e-18 0.154993 
v -0.0327199 -7.09667e-18 0.0799927 
v -0.0332581 -7.41038e-18 0.0799341 
v -0.0371874 -9.70067e-18 0.0734035 
v -0.0369871 -9.58387e-18 0.0729006 
v -0.15 9.64797e-18 0.0560299 
v -0.15 8.78061e-18 0.0889596 
v -0.0374492 -9.85323e-18 0.075 
v -0.0342999 -8.0176e-18 0.220355 
v -0.0337868 -7.71856e-18 0.220182 
v -0.0374492 -9.85323e-18 0.225 
v -0.0374199 -9.83615e-18 0.224459 
v -0.0374199 -9.83615e-18 0.0755406 
v -0.0367335 -9.43606e-18 0.0775778 
v -0.0369871 -9.58387e-18 0.0770994 
v -0.0337868 -7.71856e-18 0.0798177 
v -0.0342999 -8.0176e-18 0.0703551 
v -0.0337868 -7.71856e-18 0.0701823 
v -0.0367335 -9.43606e-18 0.0724222 
v -0.15 8.78061e-18 0.211463 
v -0.0373323 -9.78509e-18 0.0760749 
v -0.0371874 -9.70067e-18 0.0765965 
v -0.0356861 -8.82559e-18 0.0788108 
v -0.0360792 -9.05469e-18 0.0784385 
v -0.0356861 -8.82559e-18 0.146189 
v -0.0352551 -8.57438e-18 0.145862 
v -0.0327199 -7.09667e-18 0.0700073 
v -0.0321785 -6.78111e-18 0.0700073 
v -0.0332581 -7.41038e-18 0.0700659 
v -0.0332581 -7.41038e-18 0.220066 
v -0.0327199 -7.09667e-18 0.220007 
v -0.15 -1.83697e-17 0.3 
v -0.0374492 -9.85323e-18 0.15 
v -0.0364296 -9.25898e-18 0.0780259 
v -0.0347912 -8.30399e-18 0.0794176 
v -0.0352551 -8.57438e-18 0.0791384 
v -0.0342999 -8.0176e-18 0.0796449 
v -0.0369871 -9.58387e-18 0.227099 
v -0.0371874 -9.70067e-18 0.226597 
v -0.0364296 -9.25898e-18 0.228026 
v -0.0367335 -9.43606e-18 0.227578 
v -0.0347912 -8.30399e-18 0.145582 
v -0.0364296 -9.25898e-18 0.146974 
v -0.0360792 -9.05469e-18 0.146562 
v -0.0369871 -9.58387e-18 0.147901 
v -0.0367335 -9.43606e-18 0.147422 
v -0.0373323 -9.78509e-18 0.148925 
v -0.0371874 -9.70067e-18 0.148403 
v -0.0352551 -8.57438e-18 0.0708616 
v -0.0347912 -8.30399e-18 0.0705824 
v -0.0360792 -9.05469e-18 0.0715615 
v -0.0356861 -8.82559e-18 0.0711892 
v -0.0364296 -9.25898e-18 0.0719741 
v -0.0356861 -8.82559e-18 0.228811 
v -0.0360792 -9.05469e-18 0.228438 
v -0.0342999 -8.0176e-18 0.229645 
v -0.0347912 -8.30399e-18 0.229418 
v -0.15 8.78061e-18 0.289179 
v -0.0373323 -9.78509e-18 0.226075 
v -0.0374199 -9.83615e-18 0.225541 
v -0.0352551 -8.57438e-18 0.229138 
v -0.0332581 -7.41038e-18 0.229934 
v -0.0337868 -7.71856e-18 0.229818 
v -0.15 9.64797e-18 0.244393 
v -0.0327199 -7.09667e-18 0.229993 
v -0.0342999 -8.0176e-18 0.145355 
v -0.0337868 -7.71856e-18 0.145182 
v -0.0374199 -9.83615e-18 0.149459 
v -0.0321785 -6.78111e-18 0.229993 
v -0.0327199 -7.09667e-18 0.145007 
v -0.0321785 -6.78111e-18 0.145007 
v -0.15 -1.83697e-17 0 
v -0.15 9.64797e-18 0.0112431 
v -0.0332581 -7.41038e-18 0.145066 
vn -1.22465e-16 1 0 
vn -1.22465e-16 1 0 
vn -1.22465e-16 1 0 
vn -1.22465e-16 1 0 
vn -1.22465e-16 1 0 
vn -1.22465e-16 1 0 
vn -1.22465e-16 1 0 
vn -1.22465e-16 1 0 
vn -1.22465e-16 1 0 
vn -1.22465e-16 1 0 
vn -1.22465e-16 1 0 
vn -1.22465e-16 1 0 
vn -1.22465e-16 1 0 
vn -1.22465e-16 1 0 
vn -1.22465e-16 1 0 
vn -1.22465e-16 1 0 
vn -1.22465e-16 1 0 
vn -1.22465e-16 1 0 
vn -1.22465e-16 1 0 
vn -1.22465e-16 1 0 
vn -1.22465e-16 1 0 
vn -1.22465e-16 1 0 
vn -1.22465e-16 1 0 
vn -1.22465e-16 1 0 
vn -1.22465e-16 1 0 
vn -1.22465e-16 1 0 
vn -1.22465e-16 1 0 
vn -1.22465e-16 1 0 
vn -1.22465e-16 1 0 
vn -1.22465e-16 1 0 
vn -1.22465e-16 1 0 
vn -1.22465e-16 1 0 
vn -1.22465e-16 1 0 
vn -1.22465e-16 1 0 
vn -1.22465e-16 1 0 
vn -1.22465e-16 1 0 
vn -1.22465e-16 1 0 
vn -1.22465e-16 1 0 
vn -1.22465e-16 1 0 
vn -1.22465e-16 1 0 
vn -1.22465e-16 1 0 
vn -1.22465e-16 1 0 
vn -1.22465e-16 1 0 
vn -1.22465e-16 1 0 
vn -1.22465e-16 1 0 
vn -1.22465e-16 1 0 
vn -1.22465e-16 1 0 
vn -1.22465e-16 1 0 
vn -1.22465e-16 1 0 
vn -1.22465e-16 1 0 
vn -1.22465e-16 1 0 
vn -1.22465e-16 1 0 
vn -1.22465e-16 1 0 
vn -1.22465e-16 1 0 
vn -1.22465e-16 1 0 
vn -1.22465e-16 1 0 
vn -1.22465e-16 1 0 
vn -1.22465e-16 1 0 
vn -1.22465e-16 1 0 
vn -1.22465e-16 1 0 
vn -1.22465e-16 1 0 
vn -1.22465e-16 1 0 
vn -1.22465e-16 1 0 
vn -1.22465e-16 1 0 
vn -1.22465e-16 1 0 
vn -1.22465e-16 1 0 
vn -1.22465e-16 1 0 
vn -1.22465e-16 1 0 
vn -1.22465e-16 1 0 
vn -1.22465e-16 1 0 
vn -1.22465e-16 1 0 
vn -1.22465e-16 1 0 
vn -1.22465e-16 1 0 
vn -1.22465e-16 1 0 
vn -1.22465e-16 1 0 
vn -1.22465e-16 1 0 
vn -1.22465e-16 1 0 
vn -1.22465e-16 1 0 
vn -1.22465e-16 1 0 
vn -1.22465e-16 1 0 
vn -1.22465e-16 1 0 
vn -1.22465e-16 1 0 
vn -1.22465e-16 1 0 
vn -1.22465e-16 1 0 
vn -1.22465e-16 1 0 
vn -1.22465e-16 1 0 
vn -1.22465e-16 1 0 
vn -1.22465e-16 1 0 
vn -1.22465e-16 1 0 
vn -1.22465e-16 1 0 
vn -1.22465e-16 1 0 
vn -1.22465e-16 1 0 
vn -1.22465e-16 1 0 
vn -1.22465e-16 1 0 
vn -1.22465e-16 1 0 
vn -1.22465e-16 1 0 
vn -1.22465e-16 1 0 
vn -1.22465e-16 1 0 
vn -1.22465e-16 1 0 
vn -1.22465e-16 1 0 
vn -1.22465e-16 1 0 
vn -1.22465e-16 1 0 
vn -1.22465e-16 1 0 
vn -1.22465e-16 1 0 
vn -1.22465e-16 1 0 
vn -1.22465e-16 1 0 
vn -1.22465e-16 1 0 
vn -1.22465e-16 1 0 
vn -1.22465e-16 1 0 
vn -1.22465e-16 1 0 
vn -1.22465e-16 1 0 
vn -1.22465e-16 1 0 
vn -1.22465e-16 1 0 
vn -1.22465e-16 1 0 
vn -1.22465e-16 1 0 
vn -1.22465e-16 1 0 
vn -1.22465e-16 1 0 
vn -1.22465e-16 1 0 
vn -1.22465e-16 1 0 
vn -1.22465e-16 1 0 
vn -1.22465e-16 1 0 
vn -1.22465e-16 1 0 
vn -1.22465e-16 1 0 
vn -1.22465e-16 1 0 
vn -1.22465e-16 1 0 
vn -1.22465e-16 1 0 
vn -1.22465e-16 1 0 
vn -1.22465e-16 1 0 
vn -1.22465e-16 1 0 
vn -1.22465e-16 1 0 
vn -1.22465e-16 1 0 
vn -1.22465e-16 1 0 
vn -1.22465e-16 1 0 
vn -1.22465e-16 1 0 
vn -1.22465e-16 1 0 
vn -1.22465e-16 1 0 
vn -1.22465e-16 1 0 
vn -1.22465e-16 1 0 
vn -1.22465e-16 1 0 
vn -1.22465e-16 1 0 
vn -1.22465e-16 1 0 
vn -1.22465e-16 1 0 
vn -1.22465e-16 1 0 
vn -1.22465e-16 1 0 
vn -1.22465e-16 1 0 
vn -1.22465e-16 1 0 
vn -1.22465e-16 1 0 
vn -1.22465e-16 1 0 
vn -1.22465e-16 1 0 
vn -1.22465e-16 1 0 
vn -1.22465e-16 1 0 
vn -1.22465e-16 1 0 
vn -1.22465e-16 1 0 
vn -1.22465e-16 1 0 
vn -1.22465e-16 1 0 
vn -1.22465e-16 1 0 
vn -1.22465e-16 1 0 
vn -1.22465e-16 1 0 
vn -1.22465e-16 1 0 
vn -1.22465e-16 1 0 
vn -1.22465e-16 1 0 
vn -1.22465e-16 1 0 
vn -1.22465e-16 1 0 
vn -1.22465e-16 1 0 
vn -1.22465e-16 1 0 
vn -1.22465e-16 1 0 
vn -1.22465e-16 1 0 
vn -1.22465e-16 1 0 
vn -1.22465e-16 1 0 
vn -1.22465e-16 1 0 
vn -1.22465e-16 1 0 
vn -1.22465e-16 1 0 
vn -1.22465e-16 1 0 
vn -1.22465e-16 1 0 
vn -1.22465e-16 1 0 
vn -1.22465e-16 1 0 
vn -1.22465e-16 1 0 
vn -1.22465e-16 1 0 
vn -1.22465e-16 1 0 
vn -1.22465e-16 1 0 
vn -1.22465e-16 1 0 
vn -1.22465e-16 1 0 
vn -1.22465e-16 1 0 
vn -1.22465e-16 1 0 
vn -1.22465e-16 1 0 
vn -1.22465e-16 1 0 
vn -1.22465e-16 1 0 
vn -1.22465e-16 1 0 
vn -1.22465e-16 1 0 
vn -1.22465e-16 1 0 
vn -1.22465e-16 1 0 
vn -1.22465e-16 1 0 
vn -1.22465e-16 1 0 
vn -1.22465e-16 1 0 
vn -1.22465e-16 1 0 
vn -1.22465e-16 1 0 
vn -1.22465e-16 1 0 
vn -1.22465e-16 1 0 
vn -1.22465e-16 1 0 
vn -1.22465e-16 1 0 
vn -1.22465e-16 1 0 
vn -1.22465e-16 1 0 
f 648//648 649//649 650//650 
f 648//648 651//651 652//652 
f 648//648 653//653 654//654 
f 655//655 656//656 657//657 
f 648//648 658//658 659//659 
f 648//648 660//660 661//661 
f 648//648 662//662 663//663 
f 650//650 664//664 648//648 
f 652//652 665//665 648//648 
f 648//648 666//666 667//667 
f 654//654 668//668 648//648 
f 657//657 648//648 655//655 
f 661//661 658//658 648//648 
f 663//663 669//669 648//648 
f 648//648 670//670 671//671 
f 665//665 649//649 648//648 
f 668//668 666//666 648//648 
f 657//657 672//672 648//648 
f 655//655 673//673 674//674 
f 669//669 660//660 648//648 
f 664//664 670//670 648//648 
f 672//672 653//653 648//648 
f 655//655 675//675 673//673 
f 671//671 662//662 648//648 
f 674//674 656//656 655//655 
f 654//654 676//676 677//677 
f 654//654 678//678 679//679 
f 680//680 681//681 682//682 
f 681//681 680//680 683//683 
f 667//667 651//651 648//648 
f 679//679 676//676 654//654 
f 655//655 684//684 685//685 
f 655//655 686//686 687//687 
f 682//682 688//688 680//680 
f 648//648 689//689 681//681 
f 677//677 668//668 654//654 
f 687//687 684//684 655//655 
f 648//648 690//690 691//691 
f 690//690 692//692 693//693 
f 694//694 695//695 696//696 
f 695//695 697//697 698//698 
f 683//683 648//648 681//681 
f 685//685 675//675 655//655 
f 678//678 654//654 699//699 
f 700//700 701//701 702//702 
f 691//691 703//703 648//648 
f 693//693 704//704 690//690 
f 690//690 705//705 706//706 
f 707//707 708//708 709//709 
f 710//710 711//711 707//707 
f 698//698 696//696 695//695 
f 712//712 702//702 713//713 
f 659//659 689//689 648//648 
f 699//699 714//714 715//715 
f 700//700 655//655 701//701 
f 703//703 716//716 648//648 
f 706//706 692//692 690//690 
f 690//690 717//717 718//718 
f 707//707 719//719 710//710 
f 714//714 720//720 721//721 
f 714//714 722//722 723//723 
f 714//714 724//724 725//725 
f 712//712 726//726 694//694 
f 713//713 727//727 712//712 
f 699//699 715//715 678//678 
f 702//702 712//712 700//700 
f 648//648 728//728 729//729 
f 704//704 691//691 690//690 
f 718//718 730//730 690//690 
f 709//709 719//719 707//707 
f 723//723 720//720 714//714 
f 714//714 731//731 732//732 
f 714//714 699//699 724//724 
f 727//727 726//726 712//712 
f 700//700 686//686 655//655 
f 648//648 733//733 728//728 
f 730//730 705//705 690//690 
f 714//714 734//734 711//711 
f 732//732 722//722 714//714 
f 725//725 735//735 714//714 
f 736//736 737//737 738//738 
f 736//736 739//739 740//740 
f 741//741 742//742 743//743 
f 741//741 744//744 745//745 
f 719//719 746//746 747//747 
f 682//682 748//748 688//688 
f 716//716 733//733 648//648 
f 714//714 749//749 734//734 
f 735//735 731//731 714//714 
f 740//740 737//737 736//736 
f 745//745 742//742 741//741 
f 741//741 750//750 751//751 
f 741//741 752//752 753//753 
f 747//747 754//754 719//719 
f 719//719 755//755 756//756 
f 719//719 757//757 758//758 
f 719//719 759//759 760//760 
f 729//729 655//655 648//648 
f 721//721 749//749 714//714 
f 690//690 761//761 762//762 
f 738//738 690//690 736//736 
f 741//741 763//763 764//764 
f 751//751 744//744 741//741 
f 753//753 765//765 741//741 
f 741//741 766//766 767//767 
f 768//768 769//769 766//766 
f 770//770 771//771 737//737 
f 756//756 746//746 719//719 
f 760//760 757//757 719//719 
f 710//710 714//714 711//711 
f 762//762 772//772 690//690 
f 690//690 773//773 774//774 
f 738//738 775//775 690//690 
f 743//743 763//763 741//741 
f 767//767 752//752 741//741 
f 768//768 776//776 769//769 
f 707//707 711//711 776//776 
f 695//695 777//777 778//778 
f 737//737 779//779 780//780 
f 737//737 781//781 770//770 
f 781//781 782//782 783//783 
f 719//719 784//784 785//785 
f 758//758 755//755 719//719 
f 786//786 787//787 719//719 
f 772//772 717//717 690//690 
f 775//775 773//773 690//690 
f 765//765 750//750 741//741 
f 776//776 768//768 707//707 
f 788//788 782//782 695//695 
f 695//695 789//789 790//790 
f 778//778 791//791 695//695 
f 737//737 792//792 793//793 
f 780//780 794//794 737//737 
f 783//783 770//770 781//781 
f 754//754 784//784 719//719 
f 719//719 795//795 786//786 
f 774//774 761//761 690//690 
f 766//766 741//741 768//768 
f 695//695 796//796 788//788 
f 790//790 797//797 695//695 
f 695//695 798//798 799//799 
f 695//695 694//694 777//777 
f 696//696 800//800 801//801 
f 737//737 802//802 803//803 
f 793//793 804//804 737//737 
f 771//771 779//779 737//737 
f 719//719 805//805 806//806 
f 787//787 759//759 719//719 
f 807//807 648//648 683//683 
f 764//764 808//808 741//741 
f 797//797 796//796 695//695 
f 799//799 809//809 695//695 
f 695//695 810//810 811//811 
f 791//791 812//812 695//695 
f 795//795 813//813 814//814 
f 795//795 815//815 816//816 
f 801//801 817//817 696//696 
f 696//696 818//818 819//819 
f 696//696 820//820 821//821 
f 696//696 822//822 823//823 
f 804//804 802//802 737//737 
f 737//737 824//824 825//825 
f 737//737 826//826 827//827 
f 794//794 828//828 737//737 
f 785//785 805//805 719//719 
f 696//696 712//712 694//694 
f 809//809 789//789 695//695 
f 812//812 810//810 695//695 
f 816//816 813//813 795//795 
f 795//795 829//829 830//830 
f 795//795 831//831 832//832 
f 819//819 800//800 696//696 
f 823//823 820//820 696//696 
f 825//825 792//792 737//737 
f 828//828 826//826 737//737 
f 683//683 833//833 807//807 
f 811//811 798//798 695//695 
f 795//795 834//834 835//835 
f 830//830 815//815 795//795 
f 832//832 836//836 795//795 
f 795//795 837//837 838//838 
f 839//839 840//840 837//837 
f 696//696 841//841 842//842 
f 821//821 818//818 696//696 
f 808//808 843//843 696//696 
f 827//827 824//824 737//737 
f 788//788 783//783 782//782 
f 814//814 834//834 795//795 
f 838//838 831//831 795//795 
f 839//839 844//844 840//840 
f 748//748 682//682 844//844 
f 696//696 845//845 846//846 
f 817//817 841//841 696//696 
f 696//696 741//741 808//808 
f 806//806 710//710 719//719 
f 847//847 848//848 736//736 
f 836//836 829//829 795//795 
f 844//844 839//839 748//748 
f 696//696 849//849 845//845 
f 843//843 822//822 696//696 
f 736//736 690//690 847//847 
f 837//837 795//795 839//839 
f 842//842 849//849 696//696 
f 835//835 786//786 795//795 
f 803//803 738//738 737//737 
f 846//846 712//712 696//696 
o mesh1151
v 0.1 -0.005 0 
v -0.164898 -0.005 0 
v -0.15 -1.83697e-17 0 
v 0.1 0 0 
vn 0 0 -1 
vn 0 0 -1 
vn 0 0 -1 
vn 0 0 -1 
f 850//850 851//851 852//852 
f 852//852 853//853 850//850 
o mesh1152
v -0.145997 -0.005 0.0142641 
v -0.145997 1.12757e-17 0.0142641 
v -0.15 9.64797e-18 0.0112431 
v -0.164898 -0.005 0 
vn -0.602374 -3.61698e-16 0.798214 
vn -0.602374 -3.61698e-16 0.798214 
vn -0.602374 -3.61698e-16 0.798214 
vn -0.602374 -3.61698e-16 0.798214 
f 854//854 855//855 856//856 
f 856//856 857//857 854//854 
o mesh1153
v -0.164898 -0.005 0 
v -0.15 9.64797e-18 0.0112431 
v -0.15 -1.83697e-17 0 
vn -0.318167 0.948035 0 
vn -0.318167 0.948035 0 
vn -0.318167 0.948035 0 
f 858//858 859//859 860//860 
