# OBJ generated by ONSHAPE BY PTC INC, 1.215 Units = meters
mtllib EBoxNewAsm_stp_1_IMC413_stp_1_IMC413_13_stp_1_solid1.mtl
g EBoxNewAsm.stp-1/IMC413.stp-1/IMC413-13.stp-1-solid1
usemtl 0.823529_0.823529_1.000000_0.000000_0.000000
o mesh13409
v 0.163243 0.206192 0.0681912 
v 0.163243 0.205782 0.0670636 
v 0.163243 0.204654 0.067474 
v 0.163243 0.205065 0.0686016 
vn -1 0 0 
vn -1 0 0 
vn -1 0 0 
vn -1 0 0 
f 1//1 2//2 3//3 
f 3//3 4//4 1//1 
o mesh13410
v 0.164243 0.204654 0.067474 
v 0.164243 0.205065 0.0686016 
v 0.163243 0.205065 0.0686016 
v 0.163243 0.204654 0.067474 
vn 0 -0.939693 0.34202 
vn 0 -0.939693 0.34202 
vn 0 -0.939693 0.34202 
vn 0 -0.939693 0.34202 
f 5//5 6//6 7//7 
f 7//7 8//8 5//5 
o mesh13411
v 0.164243 0.205065 0.0686016 
v 0.164243 0.204654 0.067474 
v 0.164243 0.205171 0.0672859 
v 0.164243 0.205581 0.0684135 
vn 1 0 0 
vn 1 0 0 
vn 1 0 0 
vn 1 0 0 
f 9//9 10//10 11//11 
f 11//11 12//12 9//9 
o mesh13412
v 0.163243 0.206192 0.0681912 
v 0.163243 0.205065 0.0686016 
v 0.163443 0.205581 0.0684135 
v 0.164243 0.205065 0.0686016 
v 0.164243 0.205581 0.0684135 
v 0.163443 0.206192 0.0681912 
vn 0 0.34202 0.939693 
vn 0 0.34202 0.939693 
vn 0 0.34202 0.939693 
vn 0 0.34202 0.939693 
vn 0 0.34202 0.939693 
vn 0 0.34202 0.939693 
f 13//13 14//14 15//15 
f 16//16 17//17 15//15 
f 15//15 14//14 16//16 
f 15//15 18//18 13//13 
o mesh13413
v 0.164243 0.204654 0.067474 
v 0.163243 0.204654 0.067474 
v 0.163443 0.205171 0.0672859 
v 0.163243 0.205782 0.0670636 
v 0.163443 0.205782 0.0670636 
v 0.164243 0.205171 0.0672859 
vn 0 -0.34202 -0.939693 
vn 0 -0.34202 -0.939693 
vn 0 -0.34202 -0.939693 
vn 0 -0.34202 -0.939693 
vn 0 -0.34202 -0.939693 
vn 0 -0.34202 -0.939693 
f 19//19 20//20 21//21 
f 22//22 23//23 21//21 
f 21//21 20//20 22//22 
f 21//21 24//24 19//19 
o mesh13414
v 0.163243 0.205782 0.0670636 
v 0.163243 0.206192 0.0681912 
v 0.163443 0.206192 0.0681912 
v 0.163443 0.205782 0.0670636 
vn 0 0.939693 -0.34202 
vn 0 0.939693 -0.34202 
vn 0 0.939693 -0.34202 
vn 0 0.939693 -0.34202 
f 25//25 26//26 27//27 
f 27//27 28//28 25//25 
usemtl 0.749020_0.749020_0.749020_0.000000_0.000000
o mesh13415
v 0.163443 0.204607 0.0657354 
v 0.166243 0.204607 0.0657354 
v 0.164243 0.205171 0.0672859 
v 0.166243 0.206146 0.069964 
v 0.164243 0.205581 0.0684135 
v 0.163443 0.206146 0.069964 
v 0.163443 0.205581 0.0684135 
v 0.163443 0.205171 0.0672859 
vn 0 -0.939693 0.34202 
vn 0 -0.939693 0.34202 
vn 0 -0.939693 0.34202 
vn 0 -0.939693 0.34202 
vn 0 -0.939693 0.34202 
vn 0 -0.939693 0.34202 
vn 0 -0.939693 0.34202 
vn 0 -0.939693 0.34202 
f 29//29 30//30 31//31 
f 30//30 32//32 33//33 
f 33//33 31//31 30//30 
f 34//34 35//35 33//33 
f 33//33 32//32 34//34 
f 31//31 36//36 29//29 
o mesh13416
v 0.163443 0.205204 0.0644537 
v 0.166243 0.205204 0.0644537 
v 0.166243 0.205108 0.0644946 
v 0.163443 0.205108 0.0644946 
v 0.166243 0.205017 0.0645453 
v 0.163443 0.205017 0.0645453 
v 0.166243 0.204931 0.0646054 
v 0.163443 0.204931 0.0646054 
v 0.166243 0.204852 0.064674 
v 0.163443 0.204852 0.064674 
v 0.166243 0.20478 0.0647506 
v 0.163443 0.20478 0.0647506 
v 0.166243 0.204717 0.0648342 
v 0.163443 0.204717 0.0648342 
v 0.166243 0.204663 0.0649239 
v 0.163443 0.204663 0.0649239 
v 0.166243 0.204619 0.0650188 
v 0.163443 0.204619 0.0650188 
v 0.166243 0.204585 0.0651177 
v 0.163443 0.204585 0.0651177 
v 0.166243 0.204562 0.0652197 
v 0.163443 0.204562 0.0652197 
v 0.166243 0.204549 0.0653236 
v 0.163443 0.204549 0.0653236 
v 0.166243 0.204547 0.0654283 
v 0.163443 0.204547 0.0654283 
v 0.166243 0.204556 0.0655325 
v 0.163443 0.204556 0.0655325 
v 0.166243 0.204576 0.0656353 
v 0.163443 0.204576 0.0656353 
v 0.166243 0.204607 0.0657354 
v 0.163443 0.204607 0.0657354 
vn 0 -0.34202 -0.939693 
vn 0 -0.34202 -0.939693 
vn 0 -0.438371 -0.898794 
vn 0 -0.438371 -0.898794 
vn 0 -0.529919 -0.848048 
vn 0 -0.529919 -0.848048 
vn 0 -0.615661 -0.788011 
vn 0 -0.615661 -0.788011 
vn 0 -0.694658 -0.71934 
vn 0 -0.694658 -0.71934 
vn 0 -0.766044 -0.642788 
vn 0 -0.766044 -0.642788 
vn 0 -0.829038 -0.559193 
vn 0 -0.829038 -0.559193 
vn 0 -0.882948 -0.469472 
vn 0 -0.882948 -0.469472 
vn 0 -0.927184 -0.374607 
vn 0 -0.927184 -0.374607 
vn 0 -0.961262 -0.275637 
vn 0 -0.961262 -0.275637 
vn 0 -0.984808 -0.173648 
vn 0 -0.984808 -0.173648 
vn 0 -0.997564 -0.0697565 
vn 0 -0.997564 -0.0697565 
vn 0 -0.999391 0.0348995 
vn 0 -0.999391 0.0348995 
vn 0 -0.990268 0.139173 
vn 0 -0.990268 0.139173 
vn 0 -0.970296 0.241922 
vn 0 -0.970296 0.241922 
vn 0 -0.939693 0.34202 
vn 0 -0.939693 0.34202 
f 37//37 38//38 39//39 
f 40//40 39//39 41//41 
f 42//42 41//41 43//43 
f 44//44 43//43 45//45 
f 46//46 45//45 47//47 
f 48//48 47//47 49//49 
f 50//50 49//49 51//51 
f 52//52 51//51 53//53 
f 54//54 53//53 55//55 
f 56//56 55//55 57//57 
f 58//58 57//57 59//59 
f 60//60 59//59 61//61 
f 62//62 61//61 63//63 
f 64//64 63//63 65//65 
f 66//66 65//65 67//67 
f 67//67 68//68 66//66 
f 65//65 66//66 64//64 
f 63//63 64//64 62//62 
f 61//61 62//62 60//60 
f 59//59 60//60 58//58 
f 57//57 58//58 56//56 
f 55//55 56//56 54//54 
f 53//53 54//54 52//52 
f 51//51 52//52 50//50 
f 49//49 50//50 48//48 
f 47//47 48//48 46//46 
f 45//45 46//46 44//44 
f 43//43 44//44 42//42 
f 41//41 42//42 40//40 
f 39//39 40//40 37//37 
o mesh13417
v 0.166243 0.209433 0.0629146 
v 0.166243 0.205204 0.0644537 
v 0.163443 0.205204 0.0644537 
v 0.163443 0.209433 0.0629146 
vn 0 -0.34202 -0.939693 
vn 0 -0.34202 -0.939693 
vn 0 -0.34202 -0.939693 
vn 0 -0.34202 -0.939693 
f 69//69 70//70 71//71 
f 71//71 72//72 69//69 
o mesh13418
v 0.163443 0.210715 0.0635123 
v 0.166243 0.210715 0.0635123 
v 0.166243 0.210674 0.0634159 
v 0.163443 0.210674 0.0634159 
v 0.166243 0.210623 0.0633244 
v 0.163443 0.210623 0.0633244 
v 0.166243 0.210563 0.0632386 
v 0.163443 0.210563 0.0632386 
v 0.166243 0.210494 0.0631596 
v 0.163443 0.210494 0.0631596 
v 0.166243 0.210418 0.0630882 
v 0.163443 0.210418 0.0630882 
v 0.166243 0.210334 0.0630252 
v 0.163443 0.210334 0.0630252 
v 0.166243 0.210245 0.0629713 
v 0.163443 0.210245 0.0629713 
v 0.166243 0.21015 0.0629271 
v 0.163443 0.21015 0.0629271 
v 0.166243 0.210051 0.062893 
v 0.163443 0.210051 0.062893 
v 0.166243 0.209949 0.0628695 
v 0.163443 0.209949 0.0628695 
v 0.166243 0.209845 0.0628567 
v 0.163443 0.209845 0.0628567 
v 0.166243 0.20974 0.0628549 
v 0.163443 0.20974 0.0628549 
v 0.166243 0.209636 0.062864 
v 0.163443 0.209636 0.062864 
v 0.166243 0.209533 0.062884 
v 0.163443 0.209533 0.062884 
v 0.166243 0.209433 0.0629146 
v 0.163443 0.209433 0.0629146 
vn 0 0.939693 -0.34202 
vn 0 0.939693 -0.34202 
vn 0 0.898794 -0.438371 
vn 0 0.898794 -0.438371 
vn 0 0.848048 -0.529919 
vn 0 0.848048 -0.529919 
vn 0 0.788011 -0.615661 
vn 0 0.788011 -0.615661 
vn 0 0.71934 -0.694658 
vn 0 0.71934 -0.694658 
vn 0 0.642788 -0.766044 
vn 0 0.642788 -0.766044 
vn 0 0.559193 -0.829038 
vn 0 0.559193 -0.829038 
vn 0 0.469472 -0.882948 
vn 0 0.469472 -0.882948 
vn 0 0.374607 -0.927184 
vn 0 0.374607 -0.927184 
vn 0 0.275637 -0.961262 
vn 0 0.275637 -0.961262 
vn 0 0.173648 -0.984808 
vn 0 0.173648 -0.984808 
vn 0 0.0697565 -0.997564 
vn 0 0.0697565 -0.997564 
vn 0 -0.0348995 -0.999391 
vn 0 -0.0348995 -0.999391 
vn 0 -0.139173 -0.990268 
vn 0 -0.139173 -0.990268 
vn 0 -0.241922 -0.970296 
vn 0 -0.241922 -0.970296 
vn 0 -0.34202 -0.939693 
vn 0 -0.34202 -0.939693 
f 73//73 74//74 75//75 
f 76//76 75//75 77//77 
f 78//78 77//77 79//79 
f 80//80 79//79 81//81 
f 82//82 81//81 83//83 
f 84//84 83//83 85//85 
f 86//86 85//85 87//87 
f 88//88 87//87 89//89 
f 90//90 89//89 91//91 
f 92//92 91//91 93//93 
f 94//94 93//93 95//95 
f 96//96 95//95 97//97 
f 98//98 97//97 99//99 
f 100//100 99//99 101//101 
f 102//102 101//101 103//103 
f 103//103 104//104 102//102 
f 101//101 102//102 100//100 
f 99//99 100//100 98//98 
f 97//97 98//98 96//96 
f 95//95 96//96 94//94 
f 93//93 94//94 92//92 
f 91//91 92//92 90//90 
f 89//89 90//90 88//88 
f 87//87 88//88 86//86 
f 85//85 86//86 84//84 
f 83//83 84//84 82//82 
f 81//81 82//82 80//80 
f 79//79 80//80 78//78 
f 77//77 78//78 76//76 
f 75//75 76//76 73//73 
o mesh13419
v 0.163443 0.206146 0.069964 
v 0.166243 0.206146 0.069964 
v 0.166243 0.206187 0.0700604 
v 0.163443 0.206187 0.0700604 
v 0.166243 0.206237 0.0701519 
v 0.163443 0.206237 0.0701519 
v 0.166243 0.206298 0.0702377 
v 0.163443 0.206298 0.0702377 
v 0.166243 0.206366 0.0703167 
v 0.163443 0.206366 0.0703167 
v 0.166243 0.206443 0.070388 
v 0.163443 0.206443 0.070388 
v 0.166243 0.206526 0.070451 
v 0.163443 0.206526 0.070451 
v 0.166243 0.206616 0.0705049 
v 0.163443 0.206616 0.0705049 
v 0.166243 0.206711 0.0705492 
v 0.163443 0.206711 0.0705492 
v 0.166243 0.20681 0.0705833 
v 0.163443 0.20681 0.0705833 
v 0.166243 0.206912 0.0706068 
v 0.163443 0.206912 0.0706068 
v 0.166243 0.207016 0.0706196 
v 0.163443 0.207016 0.0706196 
v 0.166243 0.20712 0.0706214 
v 0.163443 0.20712 0.0706214 
v 0.166243 0.207225 0.0706123 
v 0.163443 0.207225 0.0706123 
v 0.166243 0.207327 0.0705923 
v 0.163443 0.207327 0.0705923 
v 0.166243 0.207428 0.0705617 
v 0.163443 0.207428 0.0705617 
vn 0 -0.939693 0.34202 
vn 0 -0.939693 0.34202 
vn 0 -0.898794 0.438371 
vn 0 -0.898794 0.438371 
vn 0 -0.848048 0.529919 
vn 0 -0.848048 0.529919 
vn 0 -0.788011 0.615661 
vn 0 -0.788011 0.615661 
vn 0 -0.71934 0.694658 
vn 0 -0.71934 0.694658 
vn 0 -0.642788 0.766044 
vn 0 -0.642788 0.766044 
vn 0 -0.559193 0.829038 
vn 0 -0.559193 0.829038 
vn 0 -0.469472 0.882948 
vn 0 -0.469472 0.882948 
vn 0 -0.374607 0.927184 
vn 0 -0.374607 0.927184 
vn 0 -0.275637 0.961262 
vn 0 -0.275637 0.961262 
vn 0 -0.173648 0.984808 
vn 0 -0.173648 0.984808 
vn 0 -0.0697565 0.997564 
vn 0 -0.0697565 0.997564 
vn 0 0.0348995 0.999391 
vn 0 0.0348995 0.999391 
vn 0 0.139173 0.990268 
vn 0 0.139173 0.990268 
vn 0 0.241922 0.970296 
vn 0 0.241922 0.970296 
vn 0 0.34202 0.939693 
vn 0 0.34202 0.939693 
f 105//105 106//106 107//107 
f 108//108 107//107 109//109 
f 110//110 109//109 111//111 
f 112//112 111//111 113//113 
f 114//114 113//113 115//115 
f 116//116 115//115 117//117 
f 118//118 117//117 119//119 
f 120//120 119//119 121//121 
f 122//122 121//121 123//123 
f 124//124 123//123 125//125 
f 126//126 125//125 127//127 
f 128//128 127//127 129//129 
f 130//130 129//129 131//131 
f 132//132 131//131 133//133 
f 134//134 133//133 135//135 
f 135//135 136//136 134//134 
f 133//133 134//134 132//132 
f 131//131 132//132 130//130 
f 129//129 130//130 128//128 
f 127//127 128//128 126//126 
f 125//125 126//126 124//124 
f 123//123 124//124 122//122 
f 121//121 122//122 120//120 
f 119//119 120//120 118//118 
f 117//117 118//118 116//116 
f 115//115 116//116 114//114 
f 113//113 114//114 112//112 
f 111//111 112//112 110//110 
f 109//109 110//110 108//108 
f 107//107 108//108 105//105 
o mesh13420
v 0.166243 0.212143 0.0686421 
v 0.166243 0.212009 0.0688022 
v 0.166243 0.21193 0.0688709 
v 0.166243 0.211753 0.0689817 
v 0.166243 0.212275 0.0683585 
v 0.166243 0.212241 0.0684575 
v 0.166243 0.207225 0.0706123 
v 0.166243 0.206912 0.0706068 
v 0.166243 0.20681 0.0705833 
v 0.166243 0.20712 0.0706214 
v 0.166243 0.21208 0.0687257 
v 0.166243 0.212197 0.0685524 
v 0.166243 0.207327 0.0705923 
v 0.166243 0.206711 0.0705492 
v 0.166243 0.206616 0.0705049 
v 0.166243 0.207016 0.0706196 
v 0.166243 0.211844 0.068931 
v 0.166243 0.212299 0.0682566 
v 0.166243 0.212314 0.068048 
v 0.166243 0.212312 0.0681527 
v 0.166243 0.210051 0.062893 
v 0.166243 0.210334 0.0630252 
v 0.166243 0.210418 0.0630882 
v 0.166243 0.21015 0.0629271 
v 0.166243 0.210245 0.0629713 
v 0.166243 0.204717 0.0648342 
v 0.166243 0.204585 0.0651177 
v 0.166243 0.204619 0.0650188 
v 0.166243 0.204931 0.0646054 
v 0.166243 0.204576 0.0656353 
v 0.166243 0.204556 0.0655325 
v 0.166243 0.206526 0.070451 
v 0.166243 0.212304 0.0679437 
v 0.166243 0.209949 0.0628695 
v 0.166243 0.210494 0.0631596 
v 0.166243 0.210563 0.0632386 
v 0.166243 0.20478 0.0647506 
v 0.166243 0.204852 0.064674 
v 0.166243 0.204663 0.0649239 
v 0.166243 0.204549 0.0653236 
v 0.166243 0.204562 0.0652197 
v 0.166243 0.204547 0.0654283 
v 0.166243 0.206443 0.070388 
v 0.166243 0.206366 0.0703167 
v 0.166243 0.210623 0.0633244 
v 0.166243 0.210674 0.0634159 
v 0.166243 0.20974 0.0628549 
v 0.166243 0.209845 0.0628567 
v 0.166243 0.209533 0.062884 
v 0.166243 0.209636 0.062864 
v 0.166243 0.206298 0.0702377 
v 0.166243 0.206237 0.0701519 
v 0.166243 0.212284 0.067841 
v 0.166243 0.205017 0.0645453 
v 0.166243 0.212254 0.0677409 
v 0.166243 0.206187 0.0700604 
v 0.166243 0.207428 0.0705617 
v 0.166243 0.209433 0.0629146 
v 0.166243 0.205108 0.0644946 
v 0.166243 0.206146 0.069964 
v 0.166243 0.204607 0.0657354 
v 0.166243 0.205204 0.0644537 
v 0.166243 0.210715 0.0635123 
v 0.166243 0.211656 0.0690226 
vn 1 0 0 
vn 1 0 0 
vn 1 0 0 
vn 1 0 0 
vn 1 0 0 
vn 1 0 0 
vn 1 0 0 
vn 1 0 0 
vn 1 0 0 
vn 1 0 0 
vn 1 0 0 
vn 1 0 0 
vn 1 0 0 
vn 1 0 0 
vn 1 0 0 
vn 1 0 0 
vn 1 0 0 
vn 1 0 0 
vn 1 0 0 
vn 1 0 0 
vn 1 0 0 
vn 1 0 0 
vn 1 0 0 
vn 1 0 0 
vn 1 0 0 
vn 1 0 0 
vn 1 0 0 
vn 1 0 0 
vn 1 0 0 
vn 1 0 0 
vn 1 0 0 
vn 1 0 0 
vn 1 0 0 
vn 1 0 0 
vn 1 0 0 
vn 1 0 0 
vn 1 0 0 
vn 1 0 0 
vn 1 0 0 
vn 1 0 0 
vn 1 0 0 
vn 1 0 0 
vn 1 0 0 
vn 1 0 0 
vn 1 0 0 
vn 1 0 0 
vn 1 0 0 
vn 1 0 0 
vn 1 0 0 
vn 1 0 0 
vn 1 0 0 
vn 1 0 0 
vn 1 0 0 
vn 1 0 0 
vn 1 0 0 
vn 1 0 0 
vn 1 0 0 
vn 1 0 0 
vn 1 0 0 
vn 1 0 0 
vn 1 0 0 
vn 1 0 0 
vn 1 0 0 
vn 1 0 0 
f 137//137 138//138 139//139 
f 140//140 141//141 142//142 
f 143//143 144//144 145//145 
f 144//144 143//143 146//146 
f 137//137 147//147 138//138 
f 142//142 148//148 140//140 
f 149//149 150//150 151//151 
f 146//146 152//152 144//144 
f 139//139 153//153 137//137 
f 140//140 154//154 141//141 
f 140//140 155//155 156//156 
f 157//157 158//158 159//159 
f 157//157 160//160 161//161 
f 162//162 163//163 164//164 
f 165//165 166//166 167//167 
f 151//151 168//168 149//149 
f 150//150 149//149 143//143 
f 148//148 137//137 140//140 
f 140//140 169//169 155//155 
f 170//170 171//171 172//172 
f 161//161 158//158 157//157 
f 163//163 173//173 174//174 
f 164//164 175//175 162//162 
f 165//165 176//176 177//177 
f 167//167 178//178 165//165 
f 149//149 179//179 180//180 
f 145//145 150//150 143//143 
f 156//156 154//154 140//140 
f 172//172 181//181 170//170 
f 171//171 170//170 157//157 
f 182//182 183//183 184//184 
f 182//182 185//185 186//186 
f 162//162 173//173 163//163 
f 178//178 176//176 165//165 
f 149//149 187//187 188//188 
f 168//168 179//179 149//149 
f 140//140 189//189 169//169 
f 159//159 171//171 157//157 
f 186//186 183//183 182//182 
f 166//166 165//165 190//190 
f 177//177 163//163 165//165 
f 180//180 187//187 149//149 
f 140//140 191//191 189//189 
f 184//184 170//170 182//182 
f 174//174 165//165 163//163 
f 192//192 193//193 149//149 
f 153//153 140//140 137//137 
f 182//182 194//194 185//185 
f 190//190 195//195 166//166 
f 193//193 196//196 197//197 
f 188//188 192//192 149//149 
f 198//198 199//199 200//200 
f 200//200 199//199 191//191 
f 181//181 182//182 170//170 
f 198//198 197//197 166//166 
f 192//192 196//196 193//193 
f 140//140 200//200 191//191 
f 199//199 198//198 194//194 
f 197//197 198//198 193//193 
f 182//182 199//199 194//194 
f 200//200 193//193 198//198 
f 195//195 198//198 166//166 
o mesh13421
v 0.163443 0.211656 0.0690226 
v 0.166243 0.211656 0.0690226 
v 0.166243 0.211753 0.0689817 
v 0.163443 0.211753 0.0689817 
v 0.166243 0.211844 0.068931 
v 0.163443 0.211844 0.068931 
v 0.166243 0.21193 0.0688709 
v 0.163443 0.21193 0.0688709 
v 0.166243 0.212009 0.0688022 
v 0.163443 0.212009 0.0688022 
v 0.166243 0.21208 0.0687257 
v 0.163443 0.21208 0.0687257 
v 0.166243 0.212143 0.0686421 
v 0.163443 0.212143 0.0686421 
v 0.166243 0.212197 0.0685524 
v 0.163443 0.212197 0.0685524 
v 0.166243 0.212241 0.0684575 
v 0.163443 0.212241 0.0684575 
v 0.166243 0.212275 0.0683585 
v 0.163443 0.212275 0.0683585 
v 0.166243 0.212299 0.0682566 
v 0.163443 0.212299 0.0682566 
v 0.166243 0.212312 0.0681527 
v 0.163443 0.212312 0.0681527 
v 0.166243 0.212314 0.068048 
v 0.163443 0.212314 0.068048 
v 0.166243 0.212304 0.0679437 
v 0.163443 0.212304 0.0679437 
v 0.166243 0.212284 0.067841 
v 0.163443 0.212284 0.067841 
v 0.166243 0.212254 0.0677409 
v 0.163443 0.212254 0.0677409 
vn 0 0.34202 0.939693 
vn 0 0.34202 0.939693 
vn 0 0.438371 0.898794 
vn 0 0.438371 0.898794 
vn 0 0.529919 0.848048 
vn 0 0.529919 0.848048 
vn 0 0.615661 0.788011 
vn 0 0.615661 0.788011 
vn 0 0.694658 0.71934 
vn 0 0.694658 0.71934 
vn 0 0.766044 0.642788 
vn 0 0.766044 0.642788 
vn 0 0.829038 0.559193 
vn 0 0.829038 0.559193 
vn 0 0.882948 0.469472 
vn 0 0.882948 0.469472 
vn 0 0.927184 0.374607 
vn 0 0.927184 0.374607 
vn 0 0.961262 0.275637 
vn 0 0.961262 0.275637 
vn 0 0.984808 0.173648 
vn 0 0.984808 0.173648 
vn 0 0.997564 0.0697565 
vn 0 0.997564 0.0697565 
vn 0 0.999391 -0.0348995 
vn 0 0.999391 -0.0348995 
vn 0 0.990268 -0.139173 
vn 0 0.990268 -0.139173 
vn 0 0.970296 -0.241922 
vn 0 0.970296 -0.241922 
vn 0 0.939693 -0.34202 
vn 0 0.939693 -0.34202 
f 201//201 202//202 203//203 
f 204//204 203//203 205//205 
f 206//206 205//205 207//207 
f 208//208 207//207 209//209 
f 210//210 209//209 211//211 
f 212//212 211//211 213//213 
f 214//214 213//213 215//215 
f 216//216 215//215 217//217 
f 218//218 217//217 219//219 
f 220//220 219//219 221//221 
f 222//222 221//221 223//223 
f 224//224 223//223 225//225 
f 226//226 225//225 227//227 
f 228//228 227//227 229//229 
f 230//230 229//229 231//231 
f 231//231 232//232 230//230 
f 229//229 230//230 228//228 
f 227//227 228//228 226//226 
f 225//225 226//226 224//224 
f 223//223 224//224 222//222 
f 221//221 222//222 220//220 
f 219//219 220//220 218//218 
f 217//217 218//218 216//216 
f 215//215 216//216 214//214 
f 213//213 214//214 212//212 
f 211//211 212//212 210//210 
f 209//209 210//210 208//208 
f 207//207 208//208 206//206 
f 205//205 206//206 204//204 
f 203//203 204//204 201//201 
o mesh13422
v 0.166243 0.207428 0.0705617 
v 0.166243 0.211656 0.0690226 
v 0.163443 0.211656 0.0690226 
v 0.163443 0.207428 0.0705617 
vn 0 0.34202 0.939693 
vn 0 0.34202 0.939693 
vn 0 0.34202 0.939693 
vn 0 0.34202 0.939693 
f 233//233 234//234 235//235 
f 235//235 236//236 233//233 
usemtl 0.823529_0.823529_1.000000_0.000000_0.000000
o mesh13423
v 0.163443 0.206912 0.0706068 
v 0.163443 0.207016 0.0706196 
v 0.163443 0.20712 0.0706214 
v 0.163443 0.207225 0.0706123 
v 0.163443 0.206711 0.0705492 
v 0.163443 0.20681 0.0705833 
v 0.163443 0.210051 0.062893 
v 0.163443 0.210334 0.0630252 
v 0.163443 0.210245 0.0629713 
v 0.163443 0.210494 0.0631596 
v 0.163443 0.210418 0.0630882 
v 0.163443 0.207327 0.0705923 
v 0.163443 0.206526 0.070451 
v 0.163443 0.206616 0.0705049 
v 0.163443 0.209949 0.0628695 
v 0.163443 0.210623 0.0633244 
v 0.163443 0.210563 0.0632386 
v 0.163443 0.210715 0.0635123 
v 0.163443 0.210674 0.0634159 
v 0.163443 0.204931 0.0646054 
v 0.163443 0.204547 0.0654283 
v 0.163443 0.204556 0.0655325 
v 0.163443 0.204717 0.0648342 
v 0.163443 0.204663 0.0649239 
v 0.163443 0.204619 0.0650188 
v 0.163443 0.206443 0.070388 
v 0.163443 0.20974 0.0628549 
v 0.163443 0.209636 0.062864 
v 0.163443 0.209845 0.0628567 
v 0.163443 0.21015 0.0629271 
v 0.163443 0.204549 0.0653236 
v 0.163443 0.204585 0.0651177 
v 0.163443 0.204562 0.0652197 
v 0.163443 0.20478 0.0647506 
v 0.163443 0.204852 0.064674 
v 0.163443 0.211656 0.0690226 
v 0.163443 0.212197 0.0685524 
v 0.163443 0.212241 0.0684575 
v 0.163443 0.212143 0.0686421 
v 0.163443 0.211844 0.068931 
v 0.163443 0.21193 0.0688709 
v 0.163443 0.206298 0.0702377 
v 0.163443 0.206366 0.0703167 
v 0.163443 0.206187 0.0700604 
v 0.163443 0.206237 0.0701519 
v 0.163443 0.204576 0.0656353 
v 0.163443 0.205108 0.0644946 
v 0.163443 0.205017 0.0645453 
v 0.163443 0.212009 0.0688022 
v 0.163443 0.211753 0.0689817 
v 0.163443 0.206146 0.069964 
v 0.163443 0.205782 0.0670636 
v 0.163443 0.206192 0.0681912 
v 0.163443 0.211079 0.0664127 
v 0.163443 0.205204 0.0644537 
v 0.163443 0.212299 0.0682566 
v 0.163443 0.212312 0.0681527 
v 0.163443 0.212275 0.0683585 
v 0.163443 0.209533 0.062884 
v 0.163443 0.210668 0.0652851 
v 0.163443 0.211279 0.0650628 
v 0.163443 0.212314 0.068048 
v 0.163443 0.21208 0.0687257 
v 0.163443 0.205581 0.0684135 
v 0.163443 0.209433 0.0629146 
v 0.163443 0.207428 0.0705617 
v 0.163443 0.204607 0.0657354 
v 0.163443 0.212304 0.0679437 
v 0.163443 0.212284 0.067841 
v 0.163443 0.212254 0.0677409 
v 0.163443 0.205171 0.0672859 
v 0.163443 0.211689 0.0661904 
vn -1 0 0 
vn -1 0 0 
vn -1 0 0 
vn -1 0 0 
vn -1 0 0 
vn -1 0 0 
vn -1 0 0 
vn -1 0 0 
vn -1 0 0 
vn -1 0 0 
vn -1 0 0 
vn -1 0 0 
vn -1 0 0 
vn -1 0 0 
vn -1 0 0 
vn -1 0 0 
vn -1 0 0 
vn -1 0 0 
vn -1 0 0 
vn -1 0 0 
vn -1 0 0 
vn -1 0 0 
vn -1 0 0 
vn -1 0 0 
vn -1 0 0 
vn -1 0 0 
vn -1 0 0 
vn -1 0 0 
vn -1 0 0 
vn -1 0 0 
vn -1 0 0 
vn -1 0 0 
vn -1 0 0 
vn -1 0 0 
vn -1 0 0 
vn -1 0 0 
vn -1 0 0 
vn -1 0 0 
vn -1 0 0 
vn -1 0 0 
vn -1 0 0 
vn -1 0 0 
vn -1 0 0 
vn -1 0 0 
vn -1 0 0 
vn -1 0 0 
vn -1 0 0 
vn -1 0 0 
vn -1 0 0 
vn -1 0 0 
vn -1 0 0 
vn -1 0 0 
vn -1 0 0 
vn -1 0 0 
vn -1 0 0 
vn -1 0 0 
vn -1 0 0 
vn -1 0 0 
vn -1 0 0 
vn -1 0 0 
vn -1 0 0 
vn -1 0 0 
vn -1 0 0 
vn -1 0 0 
vn -1 0 0 
vn -1 0 0 
vn -1 0 0 
vn -1 0 0 
vn -1 0 0 
vn -1 0 0 
vn -1 0 0 
vn -1 0 0 
f 237//237 238//238 239//239 
f 240//240 241//241 242//242 
f 243//243 244//244 245//245 
f 243//243 246//246 247//247 
f 242//242 237//237 240//240 
f 248//248 249//249 250//250 
f 247//247 244//244 243//243 
f 251//251 252//252 253//253 
f 251//251 254//254 255//255 
f 256//256 257//257 258//258 
f 259//259 260//260 261//261 
f 239//239 240//240 237//237 
f 248//248 262//262 249//249 
f 254//254 263//263 264//264 
f 254//254 251//251 265//265 
f 245//245 266//266 243//243 
f 255//255 252//252 251//251 
f 256//256 267//267 257//257 
f 256//256 268//268 269//269 
f 268//268 270//270 259//259 
f 268//268 256//256 271//271 
f 272//272 273//273 274//274 
f 275//275 276//276 277//277 
f 250//250 241//241 248//248 
f 248//248 278//278 279//279 
f 248//248 280//280 281//281 
f 265//265 263//263 254//254 
f 253//253 246//246 251//251 
f 269//269 267//267 256//256 
f 271//271 270//270 268//268 
f 282//282 283//283 284//284 
f 272//272 275//275 273//273 
f 277//277 285//285 275//275 
f 275//275 272//272 286//286 
f 279//279 262//262 248//248 
f 248//248 287//287 280//280 
f 243//243 251//251 246//246 
f 288//288 289//289 290//290 
f 261//261 268//268 259//259 
f 282//282 291//291 283//283 
f 272//272 292//292 293//293 
f 274//274 294//294 272//272 
f 286//286 276//276 275//275 
f 281//281 278//278 248//248 
f 264//264 295//295 254//254 
f 296//296 297//297 254//254 
f 290//290 296//296 288//288 
f 284//284 256//256 282//282 
f 293//293 298//298 272//272 
f 285//285 299//299 275//275 
f 240//240 248//248 241//241 
f 289//289 300//300 287//287 
f 254//254 301//301 296//296 
f 289//289 302//302 290//290 
f 288//288 291//291 303//303 
f 258//258 282//282 256//256 
f 272//272 304//304 305//305 
f 294//294 292//292 272//272 
f 287//287 302//302 289//289 
f 296//296 301//301 288//288 
f 282//282 303//303 291//291 
f 290//290 272//272 306//306 
f 298//298 304//304 272//272 
f 295//295 301//301 254//254 
f 288//288 301//301 291//291 
f 305//305 306//306 272//272 
f 303//303 307//307 288//288 
f 290//290 302//302 272//272 
f 306//306 308//308 290//290 
f 248//248 302//302 287//287 
usemtl 0.749020_0.749020_0.749020_0.000000_0.000000
o mesh13424
v 0.166243 0.212254 0.0677409 
v 0.166243 0.210715 0.0635123 
v 0.164243 0.211279 0.0650628 
v 0.163443 0.210715 0.0635123 
v 0.163443 0.211279 0.0650628 
v 0.163443 0.212254 0.0677409 
v 0.164243 0.211689 0.0661904 
v 0.163443 0.211689 0.0661904 
vn 0 0.939693 -0.34202 
vn 0 0.939693 -0.34202 
vn 0 0.939693 -0.34202 
vn 0 0.939693 -0.34202 
vn 0 0.939693 -0.34202 
vn 0 0.939693 -0.34202 
vn 0 0.939693 -0.34202 
vn 0 0.939693 -0.34202 
f 309//309 310//310 311//311 
f 312//312 313//313 311//311 
f 314//314 309//309 315//315 
f 311//311 310//310 312//312 
f 311//311 315//315 309//309 
f 315//315 316//316 314//314 
usemtl 0.823529_0.823529_1.000000_0.000000_0.000000
o mesh13425
v 0.164243 0.211796 0.0648746 
v 0.164243 0.212206 0.0660023 
v 0.164243 0.211689 0.0661904 
v 0.164243 0.211279 0.0650628 
vn 1 0 0 
vn 1 0 0 
vn 1 0 0 
vn 1 0 0 
f 317//317 318//318 319//319 
f 319//319 320//320 317//317 
o mesh13426
v 0.163243 0.210668 0.0652851 
v 0.163243 0.211796 0.0648746 
v 0.163443 0.211279 0.0650628 
v 0.164243 0.211796 0.0648746 
v 0.164243 0.211279 0.0650628 
v 0.163443 0.210668 0.0652851 
vn 0 -0.34202 -0.939693 
vn 0 -0.34202 -0.939693 
vn 0 -0.34202 -0.939693 
vn 0 -0.34202 -0.939693 
vn 0 -0.34202 -0.939693 
vn 0 -0.34202 -0.939693 
f 321//321 322//322 323//323 
f 324//324 325//325 323//323 
f 323//323 322//322 324//324 
f 323//323 326//326 321//321 
o mesh13427
v 0.164243 0.212206 0.0660023 
v 0.163243 0.212206 0.0660023 
v 0.163443 0.211689 0.0661904 
v 0.163243 0.211079 0.0664127 
v 0.163443 0.211079 0.0664127 
v 0.164243 0.211689 0.0661904 
vn 0 0.34202 0.939693 
vn 0 0.34202 0.939693 
vn 0 0.34202 0.939693 
vn 0 0.34202 0.939693 
vn 0 0.34202 0.939693 
vn 0 0.34202 0.939693 
f 327//327 328//328 329//329 
f 330//330 331//331 329//329 
f 329//329 328//328 330//330 
f 329//329 332//332 327//327 
o mesh13428
v 0.163243 0.210668 0.0652851 
v 0.163243 0.211079 0.0664127 
v 0.163243 0.212206 0.0660023 
v 0.163243 0.211796 0.0648746 
vn -1 0 0 
vn -1 0 0 
vn -1 0 0 
vn -1 0 0 
f 333//333 334//334 335//335 
f 335//335 336//336 333//333 
o mesh13429
v 0.164243 0.212206 0.0660023 
v 0.164243 0.211796 0.0648746 
v 0.163243 0.211796 0.0648746 
v 0.163243 0.212206 0.0660023 
vn 0 0.939693 -0.34202 
vn 0 0.939693 -0.34202 
vn 0 0.939693 -0.34202 
vn 0 0.939693 -0.34202 
f 337//337 338//338 339//339 
f 339//339 340//340 337//337 
o mesh13430
v 0.163243 0.210668 0.0652851 
v 0.163443 0.210668 0.0652851 
v 0.163443 0.211079 0.0664127 
v 0.163243 0.211079 0.0664127 
vn 0 -0.939693 0.34202 
vn 0 -0.939693 0.34202 
vn 0 -0.939693 0.34202 
vn 0 -0.939693 0.34202 
f 341//341 342//342 343//343 
f 343//343 344//344 341//341 
