# OBJ generated by ONSHAPE BY PTC INC, 1.215 Units = meters
mtllib EBoxNewAsm_stp_1_IMC413_stp_1_IMC413_16_stp_1_solid1.mtl
g EBoxNewAsm.stp-1/IMC413.stp-1/IMC413-16.stp-1-solid1
usemtl 0.823529_0.823529_1.000000_0.000000_0.000000
o mesh10909
v 0.161043 0.183124 0.0487139 
v 0.161143 0.183124 0.0487139 
v 0.161143 0.180117 0.0498084 
v 0.161043 0.180117 0.0498084 
vn 0 -0.34202 -0.939693 
vn 0 -0.34202 -0.939693 
vn 0 -0.34202 -0.939693 
vn 0 -0.34202 -0.939693 
f 1//1 2//2 3//3 
f 3//3 4//4 1//1 
o mesh10910
v 0.161043 0.183449 0.0496067 
v 0.161043 0.183124 0.0487139 
v 0.161043 0.180117 0.0498084 
v 0.161043 0.180442 0.0507011 
vn -1 0 0 
vn -1 0 0 
vn -1 0 0 
vn -1 0 0 
f 5//5 6//6 7//7 
f 7//7 8//8 5//5 
o mesh10911
v 0.161643 0.180442 0.0507011 
v 0.161643 0.183449 0.0496067 
v 0.161043 0.183449 0.0496067 
v 0.161043 0.180442 0.0507011 
vn 0 0.34202 0.939693 
vn 0 0.34202 0.939693 
vn 0 0.34202 0.939693 
vn 0 0.34202 0.939693 
f 9//9 10//10 11//11 
f 11//11 12//12 9//9 
o mesh10912
v 0.161643 0.183449 0.0496067 
v 0.161643 0.180442 0.0507011 
v 0.161643 0.180117 0.0498084 
v 0.161643 0.183124 0.0487139 
vn 1 0 0 
vn 1 0 0 
vn 1 0 0 
vn 1 0 0 
f 13//13 14//14 15//15 
f 15//15 16//16 13//13 
o mesh10913
v 0.161543 0.183124 0.0487139 
v 0.161643 0.183124 0.0487139 
v 0.161643 0.180117 0.0498084 
v 0.161543 0.180117 0.0498084 
vn 0 -0.34202 -0.939693 
vn 0 -0.34202 -0.939693 
vn 0 -0.34202 -0.939693 
vn 0 -0.34202 -0.939693 
f 17//17 18//18 19//19 
f 19//19 20//20 17//17 
o mesh10914
v 0.161543 0.178578 0.0455798 
v 0.161543 0.181585 0.0444853 
v 0.161543 0.183124 0.0487139 
v 0.161543 0.180117 0.0498084 
vn 1 0 0 
vn 1 0 0 
vn 1 0 0 
vn 1 0 0 
f 21//21 22//22 23//23 
f 23//23 24//24 21//21 
o mesh10915
v 0.161643 0.181585 0.0444853 
v 0.161543 0.181585 0.0444853 
v 0.161543 0.178578 0.0455798 
v 0.161643 0.178578 0.0455798 
vn 0 0.34202 0.939693 
vn 0 0.34202 0.939693 
vn 0 0.34202 0.939693 
vn 0 0.34202 0.939693 
f 25//25 26//26 27//27 
f 27//27 28//28 25//25 
o mesh10916
v 0.161643 0.18126 0.0435926 
v 0.161643 0.181585 0.0444853 
v 0.161643 0.178578 0.0455798 
v 0.161643 0.178253 0.0446871 
vn 1 0 0 
vn 1 0 0 
vn 1 0 0 
vn 1 0 0 
f 29//29 30//30 31//31 
f 31//31 32//32 29//29 
o mesh10917
v 0.161143 0.178578 0.0455798 
v 0.161143 0.180117 0.0498084 
v 0.161143 0.183124 0.0487139 
v 0.161143 0.181585 0.0444853 
vn -1 0 0 
vn -1 0 0 
vn -1 0 0 
vn -1 0 0 
f 33//33 34//34 35//35 
f 35//35 36//36 33//33 
o mesh10918
v 0.161043 0.178253 0.0446871 
v 0.161543 0.178578 0.0455798 
v 0.161143 0.178578 0.0455798 
v 0.161543 0.180117 0.0498084 
v 0.161143 0.180117 0.0498084 
v 0.161643 0.180442 0.0507011 
v 0.161043 0.178578 0.0455798 
v 0.161643 0.178253 0.0446871 
v 0.161643 0.178578 0.0455798 
v 0.161043 0.180442 0.0507011 
v 0.161043 0.180117 0.0498084 
v 0.161643 0.180117 0.0498084 
vn 0 -0.939693 0.34202 
vn 0 -0.939693 0.34202 
vn 0 -0.939693 0.34202 
vn 0 -0.939693 0.34202 
vn 0 -0.939693 0.34202 
vn 0 -0.939693 0.34202 
vn 0 -0.939693 0.34202 
vn 0 -0.939693 0.34202 
vn 0 -0.939693 0.34202 
vn 0 -0.939693 0.34202 
vn 0 -0.939693 0.34202 
vn 0 -0.939693 0.34202 
f 37//37 38//38 39//39 
f 38//38 40//40 41//41 
f 42//42 41//41 40//40 
f 41//41 39//39 38//38 
f 39//39 43//43 37//37 
f 44//44 45//45 38//38 
f 38//38 37//37 44//44 
f 46//46 47//47 41//41 
f 41//41 42//42 46//46 
f 40//40 48//48 42//42 
o mesh10919
v 0.161543 0.181585 0.0444853 
v 0.161143 0.181585 0.0444853 
v 0.161143 0.183124 0.0487139 
v 0.161043 0.18126 0.0435926 
v 0.161043 0.181585 0.0444853 
v 0.161643 0.18126 0.0435926 
v 0.161543 0.183124 0.0487139 
v 0.161643 0.183449 0.0496067 
v 0.161643 0.183124 0.0487139 
v 0.161043 0.183449 0.0496067 
v 0.161643 0.181585 0.0444853 
v 0.161043 0.183124 0.0487139 
vn 0 0.939693 -0.34202 
vn 0 0.939693 -0.34202 
vn 0 0.939693 -0.34202 
vn 0 0.939693 -0.34202 
vn 0 0.939693 -0.34202 
vn 0 0.939693 -0.34202 
vn 0 0.939693 -0.34202 
vn 0 0.939693 -0.34202 
vn 0 0.939693 -0.34202 
vn 0 0.939693 -0.34202 
vn 0 0.939693 -0.34202 
vn 0 0.939693 -0.34202 
f 49//49 50//50 51//51 
f 52//52 53//53 50//50 
f 54//54 52//52 49//49 
f 50//50 49//49 52//52 
f 51//51 55//55 49//49 
f 56//56 57//57 55//55 
f 58//58 56//56 51//51 
f 55//55 51//51 56//56 
f 49//49 59//59 54//54 
f 51//51 60//60 58//58 
o mesh10920
v 0.161043 0.178253 0.0446871 
v 0.161043 0.18126 0.0435926 
v 0.161643 0.18126 0.0435926 
v 0.161643 0.178253 0.0446871 
vn 0 -0.34202 -0.939693 
vn 0 -0.34202 -0.939693 
vn 0 -0.34202 -0.939693 
vn 0 -0.34202 -0.939693 
f 61//61 62//62 63//63 
f 63//63 64//64 61//61 
o mesh10921
v 0.161043 0.178578 0.0455798 
v 0.161143 0.178578 0.0455798 
v 0.161143 0.181585 0.0444853 
v 0.161043 0.181585 0.0444853 
vn 0 0.34202 0.939693 
vn 0 0.34202 0.939693 
vn 0 0.34202 0.939693 
vn 0 0.34202 0.939693 
f 65//65 66//66 67//67 
f 67//67 68//68 65//65 
o mesh10922
v 0.161043 0.181585 0.0444853 
v 0.161043 0.18126 0.0435926 
v 0.161043 0.178253 0.0446871 
v 0.161043 0.178578 0.0455798 
vn -1 0 0 
vn -1 0 0 
vn -1 0 0 
vn -1 0 0 
f 69//69 70//70 71//71 
f 71//71 72//72 69//69 
