# OBJ generated by ONSHAPE BY PTC INC, 1.215 Units = meters
mtllib EBoxNewAsm_stp_1_Beelink_mini_PC_v4_stp_1_Beelink_mini_PC_v4_64_stp_1_solid1.mtl
g EBoxNewAsm.stp-1/Beelink mini PC v4.stp-1/Beelink mini PC v4-64.stp-1-solid1
usemtl 0.000000_0.000000_0.000000_0.000000_0.000000
o mesh4515
v 0.20715 0.190033 0.205188 
v 0.20715 0.190088 0.205369 
v 0.20815 0.190088 0.205369 
v 0.20715 0.189998 0.205002 
v 0.20815 0.190033 0.205188 
v 0.20715 0.189983 0.204813 
v 0.20815 0.189998 0.205002 
v 0.20715 0.189989 0.204623 
v 0.20815 0.189983 0.204813 
v 0.20715 0.190015 0.204436 
v 0.20815 0.189989 0.204623 
v 0.20715 0.190061 0.204252 
v 0.20815 0.190015 0.204436 
v 0.20715 0.190127 0.204074 
v 0.20815 0.190061 0.204252 
v 0.20715 0.190212 0.203905 
v 0.20815 0.190127 0.204074 
v 0.20715 0.190314 0.203745 
v 0.20815 0.190212 0.203905 
v 0.20715 0.190433 0.203598 
v 0.20815 0.190314 0.203745 
v 0.20715 0.190568 0.203464 
v 0.20815 0.190433 0.203598 
v 0.20715 0.190716 0.203346 
v 0.20815 0.190568 0.203464 
v 0.20715 0.190876 0.203245 
v 0.20815 0.190716 0.203346 
v 0.20715 0.191046 0.203161 
v 0.20815 0.190876 0.203245 
v 0.20715 0.191224 0.203096 
v 0.20815 0.191046 0.203161 
v 0.20715 0.191408 0.203051 
v 0.20815 0.191224 0.203096 
v 0.20715 0.191596 0.203026 
v 0.20815 0.191408 0.203051 
v 0.20715 0.191785 0.203021 
v 0.20815 0.191596 0.203026 
v 0.20715 0.191974 0.203037 
v 0.20815 0.191785 0.203021 
v 0.20715 0.19216 0.203073 
v 0.20815 0.191974 0.203037 
v 0.20715 0.192341 0.20313 
v 0.20815 0.19216 0.203073 
v 0.20715 0.192515 0.203205 
v 0.20815 0.192341 0.20313 
v 0.20715 0.192679 0.203299 
v 0.20815 0.192515 0.203205 
v 0.20715 0.192833 0.20341 
v 0.20815 0.192679 0.203299 
v 0.20715 0.192974 0.203537 
v 0.20815 0.192833 0.20341 
v 0.20715 0.1931 0.203678 
v 0.20815 0.192974 0.203537 
v 0.20715 0.19321 0.203832 
v 0.20815 0.1931 0.203678 
v 0.20715 0.193303 0.203998 
v 0.20815 0.19321 0.203832 
v 0.20715 0.193377 0.204172 
v 0.20815 0.193303 0.203998 
v 0.20715 0.193432 0.204353 
v 0.20815 0.193377 0.204172 
v 0.20715 0.193467 0.204539 
v 0.20815 0.193432 0.204353 
v 0.20715 0.193482 0.204728 
v 0.20815 0.193467 0.204539 
v 0.20715 0.193476 0.204918 
v 0.20815 0.193482 0.204728 
v 0.20715 0.19345 0.205105 
v 0.20815 0.193476 0.204918 
v 0.20715 0.193404 0.205289 
v 0.20815 0.19345 0.205105 
v 0.20715 0.193338 0.205467 
v 0.20815 0.193404 0.205289 
v 0.20715 0.193253 0.205636 
v 0.20815 0.193338 0.205467 
v 0.20715 0.193151 0.205796 
v 0.20815 0.193253 0.205636 
v 0.20715 0.193032 0.205943 
v 0.20815 0.193151 0.205796 
v 0.20715 0.192897 0.206077 
v 0.20815 0.193032 0.205943 
v 0.20715 0.192749 0.206195 
v 0.20815 0.192897 0.206077 
v 0.20715 0.192589 0.206296 
v 0.20815 0.192749 0.206195 
v 0.20715 0.192419 0.20638 
v 0.20815 0.192589 0.206296 
v 0.20715 0.192241 0.206445 
v 0.20815 0.192419 0.20638 
v 0.20715 0.192057 0.20649 
v 0.20815 0.192241 0.206445 
v 0.20715 0.191869 0.206515 
v 0.20815 0.192057 0.20649 
v 0.20715 0.19168 0.20652 
v 0.20815 0.191869 0.206515 
v 0.20715 0.191491 0.206504 
v 0.20815 0.19168 0.20652 
v 0.20715 0.191305 0.206467 
v 0.20815 0.191491 0.206504 
v 0.20715 0.191124 0.206411 
v 0.20815 0.191305 0.206467 
v 0.20715 0.19095 0.206336 
v 0.20815 0.191124 0.206411 
v 0.20715 0.190786 0.206242 
v 0.20815 0.19095 0.206336 
v 0.20715 0.190632 0.206131 
v 0.20815 0.190786 0.206242 
v 0.20715 0.190491 0.206004 
v 0.20815 0.190632 0.206131 
v 0.20715 0.190365 0.205863 
v 0.20815 0.190491 0.206004 
v 0.20715 0.190255 0.205709 
v 0.20815 0.190365 0.205863 
v 0.20715 0.190162 0.205543 
v 0.20815 0.190255 0.205709 
v 0.20815 0.190162 0.205543 
vn -5.50538e-15 0.971163 -0.238417 
vn 1.76085e-29 0.939693 -0.34202 
vn 1.76085e-29 0.939693 -0.34202 
vn -1.09462e-14 0.991247 -0.132018 
vn -5.50538e-15 0.971163 -0.238417 
vn -1.62587e-14 0.99971 -0.0240712 
vn -1.09462e-14 0.991247 -0.132018 
vn -2.13806e-14 0.996452 0.0841576 
vn -1.62587e-14 0.99971 -0.0240712 
vn -2.62518e-14 0.981512 0.1914 
vn -2.13806e-14 0.996452 0.0841576 
vn -3.08152e-14 0.955065 0.296398 
vn -2.62518e-14 0.981512 0.1914 
vn -3.50174e-14 0.91742 0.397921 
vn -3.08152e-14 0.955065 0.296398 
vn -3.8809e-14 0.869019 0.494779 
vn -3.50174e-14 0.91742 0.397921 
vn -4.21456e-14 0.81043 0.585836 
vn -3.8809e-14 0.869019 0.494779 
vn -4.49881e-14 0.742339 0.670025 
vn -4.21456e-14 0.81043 0.585836 
vn -4.73031e-14 0.665545 0.746358 
vn -4.49881e-14 0.742339 0.670025 
vn -4.90636e-14 0.580948 0.813941 
vn -4.73031e-14 0.665545 0.746358 
vn -5.02488e-14 0.48954 0.871981 
vn -4.90636e-14 0.580948 0.813941 
vn -5.08449e-14 0.392392 0.919798 
vn -5.02488e-14 0.48954 0.871981 
vn -5.08449e-14 0.290645 0.956831 
vn -5.08449e-14 0.392392 0.919798 
vn -5.02488e-14 0.185489 0.982646 
vn -5.08449e-14 0.290645 0.956831 
vn -4.90636e-14 0.0781591 0.996941 
vn -5.02488e-14 0.185489 0.982646 
vn -4.73031e-14 -0.0300873 0.999547 
vn -4.90636e-14 0.0781591 0.996941 
vn -4.49881e-14 -0.137981 0.990435 
vn -4.73031e-14 -0.0300873 0.999547 
vn -4.21456e-14 -0.244257 0.969711 
vn -4.49881e-14 -0.137981 0.990435 
vn -3.8809e-14 -0.347669 0.937617 
vn -4.21456e-14 -0.244257 0.969711 
vn -3.50174e-14 -0.447006 0.894531 
vn -3.8809e-14 -0.347669 0.937617 
vn -3.08152e-14 -0.541101 0.840958 
vn -3.50174e-14 -0.447006 0.894531 
vn -2.62518e-14 -0.628853 0.777525 
vn -3.08152e-14 -0.541101 0.840958 
vn -2.13806e-14 -0.709231 0.704976 
vn -2.62518e-14 -0.628853 0.777525 
vn -1.62587e-14 -0.781295 0.624162 
vn -2.13806e-14 -0.709231 0.704976 
vn -1.09462e-14 -0.844199 0.53603 
vn -1.62587e-14 -0.781295 0.624162 
vn -5.50538e-15 -0.897205 0.441614 
vn -1.09462e-14 -0.844199 0.53603 
vn -2.32432e-28 -0.939693 0.34202 
vn -5.50538e-15 -0.897205 0.441614 
vn 5.50538e-15 -0.971163 0.238417 
vn -2.32432e-28 -0.939693 0.34202 
vn 1.09462e-14 -0.991247 0.132018 
vn 5.50538e-15 -0.971163 0.238417 
vn 1.62587e-14 -0.99971 0.0240712 
vn 1.09462e-14 -0.991247 0.132018 
vn 2.13806e-14 -0.996452 -0.0841576 
vn 1.62587e-14 -0.99971 0.0240712 
vn 2.62518e-14 -0.981512 -0.1914 
vn 2.13806e-14 -0.996452 -0.0841576 
vn 3.08152e-14 -0.955065 -0.296398 
vn 2.62518e-14 -0.981512 -0.1914 
vn 3.50174e-14 -0.91742 -0.397921 
vn 3.08152e-14 -0.955065 -0.296398 
vn 3.8809e-14 -0.869019 -0.494779 
vn 3.50174e-14 -0.91742 -0.397921 
vn 4.21456e-14 -0.81043 -0.585836 
vn 3.8809e-14 -0.869019 -0.494779 
vn 4.49881e-14 -0.742339 -0.670025 
vn 4.21456e-14 -0.81043 -0.585836 
vn 4.73031e-14 -0.665545 -0.746358 
vn 4.49881e-14 -0.742339 -0.670025 
vn 4.90636e-14 -0.580948 -0.813941 
vn 4.73031e-14 -0.665545 -0.746358 
vn 5.02488e-14 -0.48954 -0.871981 
vn 4.90636e-14 -0.580948 -0.813941 
vn 5.08449e-14 -0.392392 -0.919798 
vn 5.02488e-14 -0.48954 -0.871981 
vn 5.08449e-14 -0.290645 -0.956831 
vn 5.08449e-14 -0.392392 -0.919798 
vn 5.02488e-14 -0.185489 -0.982646 
vn 5.08449e-14 -0.290645 -0.956831 
vn 4.90636e-14 -0.0781591 -0.996941 
vn 5.02488e-14 -0.185489 -0.982646 
vn 4.73031e-14 0.0300873 -0.999547 
vn 4.90636e-14 -0.0781591 -0.996941 
vn 4.49881e-14 0.137981 -0.990435 
vn 4.73031e-14 0.0300873 -0.999547 
vn 4.21456e-14 0.244257 -0.969711 
vn 4.49881e-14 0.137981 -0.990435 
vn 3.8809e-14 0.347669 -0.937617 
vn 4.21456e-14 0.244257 -0.969711 
vn 3.50174e-14 0.447006 -0.894531 
vn 3.8809e-14 0.347669 -0.937617 
vn 3.08152e-14 0.541101 -0.840958 
vn 3.50174e-14 0.447006 -0.894531 
vn 2.62518e-14 0.628853 -0.777525 
vn 3.08152e-14 0.541101 -0.840958 
vn 2.13806e-14 0.709231 -0.704976 
vn 2.62518e-14 0.628853 -0.777525 
vn 1.62587e-14 0.781295 -0.624162 
vn 2.13806e-14 0.709231 -0.704976 
vn 1.09462e-14 0.844199 -0.53603 
vn 1.62587e-14 0.781295 -0.624162 
vn 5.50538e-15 0.897205 -0.441614 
vn 1.09462e-14 0.844199 -0.53603 
vn 5.50538e-15 0.897205 -0.441614 
f 1//1 2//2 3//3 
f 4//4 1//1 5//5 
f 6//6 4//4 7//7 
f 8//8 6//6 9//9 
f 10//10 8//8 11//11 
f 12//12 10//10 13//13 
f 14//14 12//12 15//15 
f 16//16 14//14 17//17 
f 18//18 16//16 19//19 
f 20//20 18//18 21//21 
f 22//22 20//20 23//23 
f 24//24 22//22 25//25 
f 26//26 24//24 27//27 
f 28//28 26//26 29//29 
f 30//30 28//28 31//31 
f 32//32 30//30 33//33 
f 34//34 32//32 35//35 
f 36//36 34//34 37//37 
f 38//38 36//36 39//39 
f 40//40 38//38 41//41 
f 42//42 40//40 43//43 
f 44//44 42//42 45//45 
f 46//46 44//44 47//47 
f 48//48 46//46 49//49 
f 50//50 48//48 51//51 
f 52//52 50//50 53//53 
f 54//54 52//52 55//55 
f 56//56 54//54 57//57 
f 58//58 56//56 59//59 
f 60//60 58//58 61//61 
f 62//62 60//60 63//63 
f 64//64 62//62 65//65 
f 66//66 64//64 67//67 
f 68//68 66//66 69//69 
f 70//70 68//68 71//71 
f 72//72 70//70 73//73 
f 74//74 72//72 75//75 
f 76//76 74//74 77//77 
f 78//78 76//76 79//79 
f 80//80 78//78 81//81 
f 82//82 80//80 83//83 
f 84//84 82//82 85//85 
f 86//86 84//84 87//87 
f 88//88 86//86 89//89 
f 90//90 88//88 91//91 
f 92//92 90//90 93//93 
f 94//94 92//92 95//95 
f 96//96 94//94 97//97 
f 98//98 96//96 99//99 
f 100//100 98//98 101//101 
f 102//102 100//100 103//103 
f 104//104 102//102 105//105 
f 106//106 104//104 107//107 
f 108//108 106//106 109//109 
f 110//110 108//108 111//111 
f 112//112 110//110 113//113 
f 114//114 112//112 115//115 
f 2//2 114//114 116//116 
f 116//116 3//3 2//2 
f 115//115 116//116 114//114 
f 113//113 115//115 112//112 
f 111//111 113//113 110//110 
f 109//109 111//111 108//108 
f 107//107 109//109 106//106 
f 105//105 107//107 104//104 
f 103//103 105//105 102//102 
f 101//101 103//103 100//100 
f 99//99 101//101 98//98 
f 97//97 99//99 96//96 
f 95//95 97//97 94//94 
f 93//93 95//95 92//92 
f 91//91 93//93 90//90 
f 89//89 91//91 88//88 
f 87//87 89//89 86//86 
f 85//85 87//87 84//84 
f 83//83 85//85 82//82 
f 81//81 83//83 80//80 
f 79//79 81//81 78//78 
f 77//77 79//79 76//76 
f 75//75 77//77 74//74 
f 73//73 75//75 72//72 
f 71//71 73//73 70//70 
f 69//69 71//71 68//68 
f 67//67 69//69 66//66 
f 65//65 67//67 64//64 
f 63//63 65//65 62//62 
f 61//61 63//63 60//60 
f 59//59 61//61 58//58 
f 57//57 59//59 56//56 
f 55//55 57//57 54//54 
f 53//53 55//55 52//52 
f 51//51 53//53 50//50 
f 49//49 51//51 48//48 
f 47//47 49//49 46//46 
f 45//45 47//47 44//44 
f 43//43 45//45 42//42 
f 41//41 43//43 40//40 
f 39//39 41//41 38//38 
f 37//37 39//39 36//36 
f 35//35 37//37 34//34 
f 33//33 35//35 32//32 
f 31//31 33//33 30//30 
f 29//29 31//31 28//28 
f 27//27 29//29 26//26 
f 25//25 27//27 24//24 
f 23//23 25//25 22//22 
f 21//21 23//23 20//20 
f 19//19 21//21 18//18 
f 17//17 19//19 16//16 
f 15//15 17//17 14//14 
f 13//13 15//15 12//12 
f 11//11 13//13 10//10 
f 9//9 11//11 8//8 
f 7//7 9//9 6//6 
f 5//5 7//7 4//4 
f 3//3 5//5 1//1 
o mesh4516
v 0.20815 0.2339 0.191977 
v 0.20815 0.24104 0.200092 
v 0.20815 0.240645 0.200435 
v 0.20815 0.190365 0.205863 
v 0.20815 0.169915 0.225073 
v 0.20815 0.169441 0.224851 
v 0.20815 0.190033 0.205188 
v 0.20815 0.163444 0.210172 
v 0.20815 0.163561 0.209662 
v 0.20815 0.241397 0.199709 
v 0.20815 0.242373 0.197874 
v 0.20815 0.242202 0.198368 
v 0.20815 0.168992 0.224582 
v 0.20815 0.190491 0.206004 
v 0.20815 0.17092 0.225361 
v 0.20815 0.167848 0.223515 
v 0.20815 0.167548 0.223086 
v 0.20815 0.163732 0.209167 
v 0.20815 0.189998 0.205002 
v 0.20815 0.164223 0.208244 
v 0.20815 0.164537 0.207826 
v 0.20815 0.23219 0.187278 
v 0.20815 0.23736 0.183268 
v 0.20815 0.237743 0.183625 
v 0.20815 0.241712 0.199291 
v 0.20815 0.241981 0.198843 
v 0.20815 0.172484 0.225388 
v 0.20815 0.171962 0.225434 
v 0.20815 0.190632 0.206131 
v 0.20815 0.173498 0.225135 
v 0.20815 0.168574 0.224267 
v 0.20815 0.17041 0.225243 
v 0.20815 0.167294 0.222629 
v 0.20815 0.167089 0.222147 
v 0.20815 0.168191 0.22391 
v 0.20815 0.163953 0.208692 
v 0.20815 0.16338 0.210691 
v 0.20815 0.165289 0.2071 
v 0.20815 0.165718 0.2068 
v 0.20815 0.164894 0.207443 
v 0.20815 0.238086 0.18402 
v 0.20815 0.236494 0.182684 
v 0.20815 0.236942 0.182953 
v 0.20815 0.235524 0.182292 
v 0.20815 0.236019 0.182462 
v 0.20815 0.242554 0.196844 
v 0.20815 0.24249 0.197364 
v 0.20815 0.192057 0.20649 
v 0.20815 0.192241 0.206445 
v 0.20815 0.19168 0.20652 
v 0.20815 0.191869 0.206515 
v 0.20815 0.171439 0.225425 
v 0.20815 0.172998 0.225288 
v 0.20815 0.163516 0.212249 
v 0.20815 0.163416 0.211736 
v 0.20815 0.163371 0.211214 
v 0.20815 0.166176 0.206546 
v 0.20815 0.166658 0.206341 
v 0.20815 0.190433 0.203598 
v 0.20815 0.190314 0.203745 
v 0.20815 0.190876 0.203245 
v 0.20815 0.190716 0.203346 
v 0.20815 0.232436 0.1824 
v 0.20815 0.191596 0.203026 
v 0.20815 0.191408 0.203051 
v 0.20815 0.235014 0.182174 
v 0.20815 0.192419 0.20638 
v 0.20815 0.191491 0.206504 
v 0.20815 0.190786 0.206242 
v 0.20815 0.19095 0.206336 
v 0.20815 0.190255 0.205709 
v 0.20815 0.190088 0.205369 
v 0.20815 0.163669 0.21275 
v 0.20815 0.190061 0.204252 
v 0.20815 0.190015 0.204436 
v 0.20815 0.190212 0.203905 
v 0.20815 0.190568 0.203464 
v 0.20815 0.191785 0.203021 
v 0.20815 0.240216 0.200736 
v 0.20815 0.242518 0.195799 
v 0.20815 0.242563 0.196321 
v 0.20815 0.201762 0.203674 
v 0.20815 0.192589 0.206296 
v 0.20815 0.191124 0.206411 
v 0.20815 0.191305 0.206467 
v 0.20815 0.190162 0.205543 
v 0.20815 0.189989 0.204623 
v 0.20815 0.189983 0.204813 
v 0.20815 0.190127 0.204074 
v 0.20815 0.191224 0.203096 
v 0.20815 0.191046 0.203161 
v 0.20815 0.242265 0.194785 
v 0.20815 0.242418 0.195286 
v 0.20815 0.238845 0.185388 
v 0.20815 0.238386 0.184449 
v 0.20815 0.23864 0.184907 
v 0.20815 0.234495 0.182111 
v 0.20815 0.239758 0.200989 
v 0.20815 0.239276 0.201194 
v 0.20815 0.192897 0.206077 
v 0.20815 0.193032 0.205943 
v 0.20815 0.192749 0.206195 
v 0.20815 0.200052 0.198975 
v 0.20815 0.1931 0.203678 
v 0.20815 0.192974 0.203537 
v 0.20815 0.193467 0.204539 
v 0.20815 0.193432 0.204353 
v 0.20815 0.193476 0.204918 
v 0.20815 0.193482 0.204728 
v 0.20815 0.192679 0.203299 
v 0.20815 0.192515 0.203205 
v 0.20815 0.192833 0.20341 
v 0.20815 0.193303 0.203998 
v 0.20815 0.19321 0.203832 
v 0.20815 0.193404 0.205289 
v 0.20815 0.19345 0.205105 
v 0.20815 0.213321 0.199467 
v 0.20815 0.222342 0.196184 
v 0.20815 0.21161 0.194769 
v 0.20815 0.220632 0.191485 
v 0.20815 0.192341 0.20313 
v 0.20815 0.19216 0.203073 
v 0.20815 0.193377 0.204172 
v 0.20815 0.193253 0.205636 
v 0.20815 0.193338 0.205467 
v 0.20815 0.232937 0.182247 
v 0.20815 0.191974 0.203037 
v 0.20815 0.193151 0.205796 
v 0.20815 0.23345 0.182147 
v 0.20815 0.233972 0.182101 
vn 1 1.74155e-14 4.78488e-14 
vn 1 1.74155e-14 4.78488e-14 
vn 1 1.74155e-14 4.78488e-14 
vn 1 1.74155e-14 4.78488e-14 
vn 1 1.74155e-14 4.78488e-14 
vn 1 1.74155e-14 4.78488e-14 
vn 1 1.74155e-14 4.78488e-14 
vn 1 1.74155e-14 4.78488e-14 
vn 1 1.74155e-14 4.78488e-14 
vn 1 1.74155e-14 4.78488e-14 
vn 1 1.74155e-14 4.78488e-14 
vn 1 1.74155e-14 4.78488e-14 
vn 1 1.74155e-14 4.78488e-14 
vn 1 1.74155e-14 4.78488e-14 
vn 1 1.74155e-14 4.78488e-14 
vn 1 1.74155e-14 4.78488e-14 
vn 1 1.74155e-14 4.78488e-14 
vn 1 1.74155e-14 4.78488e-14 
vn 1 1.74155e-14 4.78488e-14 
vn 1 1.74155e-14 4.78488e-14 
vn 1 1.74155e-14 4.78488e-14 
vn 1 1.74155e-14 4.78488e-14 
vn 1 1.74155e-14 4.78488e-14 
vn 1 1.74155e-14 4.78488e-14 
vn 1 1.74155e-14 4.78488e-14 
vn 1 1.74155e-14 4.78488e-14 
vn 1 1.74155e-14 4.78488e-14 
vn 1 1.74155e-14 4.78488e-14 
vn 1 1.74155e-14 4.78488e-14 
vn 1 1.74155e-14 4.78488e-14 
vn 1 1.74155e-14 4.78488e-14 
vn 1 1.74155e-14 4.78488e-14 
vn 1 1.74155e-14 4.78488e-14 
vn 1 1.74155e-14 4.78488e-14 
vn 1 1.74155e-14 4.78488e-14 
vn 1 1.74155e-14 4.78488e-14 
vn 1 1.74155e-14 4.78488e-14 
vn 1 1.74155e-14 4.78488e-14 
vn 1 1.74155e-14 4.78488e-14 
vn 1 1.74155e-14 4.78488e-14 
vn 1 1.74155e-14 4.78488e-14 
vn 1 1.74155e-14 4.78488e-14 
vn 1 1.74155e-14 4.78488e-14 
vn 1 1.74155e-14 4.78488e-14 
vn 1 1.74155e-14 4.78488e-14 
vn 1 1.74155e-14 4.78488e-14 
vn 1 1.74155e-14 4.78488e-14 
vn 1 1.74155e-14 4.78488e-14 
vn 1 1.74155e-14 4.78488e-14 
vn 1 1.74155e-14 4.78488e-14 
vn 1 1.74155e-14 4.78488e-14 
vn 1 1.74155e-14 4.78488e-14 
vn 1 1.74155e-14 4.78488e-14 
vn 1 1.74155e-14 4.78488e-14 
vn 1 1.74155e-14 4.78488e-14 
vn 1 1.74155e-14 4.78488e-14 
vn 1 1.74155e-14 4.78488e-14 
vn 1 1.74155e-14 4.78488e-14 
vn 1 1.74155e-14 4.78488e-14 
vn 1 1.74155e-14 4.78488e-14 
vn 1 1.74155e-14 4.78488e-14 
vn 1 1.74155e-14 4.78488e-14 
vn 1 1.74155e-14 4.78488e-14 
vn 1 1.74155e-14 4.78488e-14 
vn 1 1.74155e-14 4.78488e-14 
vn 1 1.74155e-14 4.78488e-14 
vn 1 1.74155e-14 4.78488e-14 
vn 1 1.74155e-14 4.78488e-14 
vn 1 1.74155e-14 4.78488e-14 
vn 1 1.74155e-14 4.78488e-14 
vn 1 1.74155e-14 4.78488e-14 
vn 1 1.74155e-14 4.78488e-14 
vn 1 1.74155e-14 4.78488e-14 
vn 1 1.74155e-14 4.78488e-14 
vn 1 1.74155e-14 4.78488e-14 
vn 1 1.74155e-14 4.78488e-14 
vn 1 1.74155e-14 4.78488e-14 
vn 1 1.74155e-14 4.78488e-14 
vn 1 1.74155e-14 4.78488e-14 
vn 1 1.74155e-14 4.78488e-14 
vn 1 1.74155e-14 4.78488e-14 
vn 1 1.74155e-14 4.78488e-14 
vn 1 1.74155e-14 4.78488e-14 
vn 1 1.74155e-14 4.78488e-14 
vn 1 1.74155e-14 4.78488e-14 
vn 1 1.74155e-14 4.78488e-14 
vn 1 1.74155e-14 4.78488e-14 
vn 1 1.74155e-14 4.78488e-14 
vn 1 1.74155e-14 4.78488e-14 
vn 1 1.74155e-14 4.78488e-14 
vn 1 1.74155e-14 4.78488e-14 
vn 1 1.74155e-14 4.78488e-14 
vn 1 1.74155e-14 4.78488e-14 
vn 1 1.74155e-14 4.78488e-14 
vn 1 1.74155e-14 4.78488e-14 
vn 1 1.74155e-14 4.78488e-14 
vn 1 1.74155e-14 4.78488e-14 
vn 1 1.74155e-14 4.78488e-14 
vn 1 1.74155e-14 4.78488e-14 
vn 1 1.74155e-14 4.78488e-14 
vn 1 1.74155e-14 4.78488e-14 
vn 1 1.74155e-14 4.78488e-14 
vn 1 1.74155e-14 4.78488e-14 
vn 1 1.74155e-14 4.78488e-14 
vn 1 1.74155e-14 4.78488e-14 
vn 1 1.74155e-14 4.78488e-14 
vn 1 1.74155e-14 4.78488e-14 
vn 1 1.74155e-14 4.78488e-14 
vn 1 1.74155e-14 4.78488e-14 
vn 1 1.74155e-14 4.78488e-14 
vn 1 1.74155e-14 4.78488e-14 
vn 1 1.74155e-14 4.78488e-14 
vn 1 1.74155e-14 4.78488e-14 
vn 1 1.74155e-14 4.78488e-14 
vn 1 1.74155e-14 4.78488e-14 
vn 1 1.74155e-14 4.78488e-14 
vn 1 1.74155e-14 4.78488e-14 
vn 1 1.74155e-14 4.78488e-14 
vn 1 1.74155e-14 4.78488e-14 
vn 1 1.74155e-14 4.78488e-14 
vn 1 1.74155e-14 4.78488e-14 
vn 1 1.74155e-14 4.78488e-14 
vn 1 1.74155e-14 4.78488e-14 
vn 1 1.74155e-14 4.78488e-14 
vn 1 1.74155e-14 4.78488e-14 
vn 1 1.74155e-14 4.78488e-14 
vn 1 1.74155e-14 4.78488e-14 
vn 1 1.74155e-14 4.78488e-14 
vn 1 1.74155e-14 4.78488e-14 
vn 1 1.74155e-14 4.78488e-14 
f 117//117 118//118 119//119 
f 120//120 121//121 122//122 
f 123//123 124//124 125//125 
f 117//117 126//126 118//118 
f 117//117 127//127 128//128 
f 122//122 129//129 120//120 
f 120//120 130//130 131//131 
f 120//120 132//132 133//133 
f 125//125 134//134 123//123 
f 135//135 136//136 137//137 
f 138//138 139//139 140//140 
f 117//117 141//141 126//126 
f 128//128 142//142 117//117 
f 130//130 143//143 144//144 
f 130//130 145//145 146//146 
f 129//129 147//147 120//120 
f 131//131 148//148 120//120 
f 120//120 149//149 150//150 
f 120//120 151//151 132//132 
f 123//123 152//152 136//136 
f 123//123 153//153 124//124 
f 135//135 154//154 155//155 
f 137//137 156//156 135//135 
f 140//140 157//157 138//138 
f 138//138 158//158 159//159 
f 138//138 160//160 161//161 
f 142//142 141//141 117//117 
f 117//117 162//162 163//163 
f 146//146 164//164 165//165 
f 146//146 166//166 167//167 
f 144//144 168//168 130//130 
f 146//146 169//169 130//130 
f 148//148 121//121 120//120 
f 133//133 149//149 120//120 
f 170//170 171//171 123//123 
f 134//134 152//152 123//123 
f 123//123 171//171 172//172 
f 135//135 173//173 174//174 
f 156//156 154//154 135//135 
f 174//174 175//175 176//176 
f 174//174 177//177 178//178 
f 179//179 180//180 181//181 
f 159//159 139//139 138//138 
f 138//138 182//182 160//160 
f 163//163 127//127 117//117 
f 165//165 183//183 146//146 
f 146//146 184//184 166//166 
f 146//146 185//185 186//186 
f 169//169 143//143 130//130 
f 150//150 187//187 120//120 
f 188//188 189//189 170//170 
f 172//172 153//153 123//123 
f 155//155 173//173 135//135 
f 174//174 190//190 191//191 
f 176//176 192//192 174//174 
f 178//178 193//193 174//174 
f 179//179 194//194 180//180 
f 161//161 158//158 138//138 
f 119//119 195//195 117//117 
f 117//117 196//196 197//197 
f 198//198 146//146 199//199 
f 167//167 164//164 146//146 
f 146//146 200//200 201//201 
f 146//146 145//145 185//185 
f 147//147 151//151 120//120 
f 189//189 188//188 202//202 
f 136//136 135//135 123//123 
f 174//174 203//203 204//204 
f 174//174 205//205 190//190 
f 193//193 175//175 174//174 
f 174//174 206//206 207//207 
f 181//181 174//174 179//179 
f 117//117 208//208 209//209 
f 210//210 208//208 117//117 
f 138//138 211//211 212//212 
f 138//138 213//213 182//182 
f 117//117 214//214 215//215 
f 197//197 162//162 117//117 
f 198//198 216//216 217//217 
f 199//199 218//218 198//198 
f 201//201 184//184 146//146 
f 168//168 131//131 130//130 
f 202//202 150//150 189//189 
f 174//174 204//204 135//135 
f 192//192 205//205 174//174 
f 181//181 206//206 174//174 
f 219//219 220//220 221//221 
f 219//219 222//222 223//223 
f 219//219 224//224 225//225 
f 117//117 138//138 210//210 
f 157//157 211//211 138//138 
f 195//195 214//214 117//117 
f 218//218 216//216 198//198 
f 186//186 200//200 146//146 
f 123//123 188//188 170//170 
f 207//207 177//177 174//174 
f 219//219 226//226 227//227 
f 221//221 228//228 219//219 
f 219//219 229//229 230//230 
f 225//225 222//222 219//219 
f 219//219 231//231 232//232 
f 212//212 210//210 138//138 
f 215//215 233//233 234//234 
f 234//234 233//233 235//235 
f 183//183 199//199 146//146 
f 191//191 203//203 174//174 
f 138//138 236//236 179//179 
f 219//219 237//237 238//238 
f 228//228 226//226 219//219 
f 219//219 239//239 229//229 
f 232//232 224//224 219//219 
f 219//219 240//240 241//241 
f 215//215 234//234 117//117 
f 235//235 179//179 236//236 
f 215//215 146//146 198//198 
f 202//202 187//187 150//150 
f 179//179 242//242 138//138 
f 238//238 243//243 219//219 
f 230//230 220//220 219//219 
f 241//241 231//231 219//219 
f 219//219 217//217 244//244 
f 235//235 236//236 234//234 
f 217//217 219//219 198//198 
f 242//242 245//245 138//138 
f 227//227 237//237 219//219 
f 244//244 240//240 219//219 
f 198//198 233//233 215//215 
f 245//245 246//246 138//138 
f 223//223 239//239 219//219 
f 179//179 235//235 219//219 
f 246//246 213//213 138//138 
f 219//219 194//194 179//179 
f 243//243 194//194 219//219 
f 209//209 196//196 117//117 
o mesh4517
v 0.20715 0.200052 0.198975 
v 0.20715 0.192974 0.203537 
v 0.20715 0.1931 0.203678 
v 0.20715 0.192515 0.203205 
v 0.20715 0.192679 0.203299 
v 0.20715 0.166658 0.206341 
v 0.20715 0.190716 0.203346 
v 0.20715 0.190876 0.203245 
v 0.20715 0.192833 0.20341 
v 0.20715 0.192341 0.20313 
v 0.20715 0.191408 0.203051 
v 0.20715 0.191596 0.203026 
v 0.20715 0.191224 0.203096 
v 0.20715 0.191046 0.203161 
v 0.20715 0.2339 0.191977 
v 0.20715 0.240216 0.200736 
v 0.20715 0.240645 0.200435 
v 0.20715 0.201762 0.203674 
v 0.20715 0.193476 0.204918 
v 0.20715 0.19345 0.205105 
v 0.20715 0.193303 0.203998 
v 0.20715 0.193377 0.204172 
v 0.20715 0.191974 0.203037 
v 0.20715 0.19216 0.203073 
v 0.20715 0.191785 0.203021 
v 0.20715 0.190033 0.205188 
v 0.20715 0.163561 0.209662 
v 0.20715 0.163444 0.210172 
v 0.20715 0.189998 0.205002 
v 0.20715 0.164223 0.208244 
v 0.20715 0.190365 0.205863 
v 0.20715 0.167294 0.222629 
v 0.20715 0.167548 0.223086 
v 0.20715 0.168992 0.224582 
v 0.20715 0.169441 0.224851 
v 0.20715 0.24104 0.200092 
v 0.20715 0.192749 0.206195 
v 0.20715 0.192589 0.206296 
v 0.20715 0.193482 0.204728 
v 0.20715 0.193432 0.204353 
v 0.20715 0.19321 0.203832 
v 0.20715 0.190433 0.203598 
v 0.20715 0.190568 0.203464 
v 0.20715 0.190212 0.203905 
v 0.20715 0.190314 0.203745 
v 0.20715 0.165289 0.2071 
v 0.20715 0.164894 0.207443 
v 0.20715 0.166176 0.206546 
v 0.20715 0.165718 0.2068 
v 0.20715 0.189983 0.204813 
v 0.20715 0.163732 0.209167 
v 0.20715 0.163953 0.208692 
v 0.20715 0.167848 0.223515 
v 0.20715 0.190255 0.205709 
v 0.20715 0.167089 0.222147 
v 0.20715 0.17041 0.225243 
v 0.20715 0.17092 0.225361 
v 0.20715 0.168574 0.224267 
v 0.20715 0.241397 0.199709 
v 0.20715 0.173498 0.225135 
v 0.20715 0.193253 0.205636 
v 0.20715 0.193151 0.205796 
v 0.20715 0.193467 0.204539 
v 0.20715 0.164537 0.207826 
v 0.20715 0.16338 0.210691 
v 0.20715 0.163371 0.211214 
v 0.20715 0.163516 0.212249 
v 0.20715 0.190088 0.205369 
v 0.20715 0.169915 0.225073 
v 0.20715 0.168191 0.22391 
v 0.20715 0.190491 0.206004 
v 0.20715 0.172998 0.225288 
v 0.20715 0.171439 0.225425 
v 0.20715 0.171962 0.225434 
v 0.20715 0.241981 0.198843 
v 0.20715 0.242202 0.198368 
v 0.20715 0.241712 0.199291 
v 0.20715 0.192241 0.206445 
v 0.20715 0.192057 0.20649 
v 0.20715 0.192419 0.20638 
v 0.20715 0.193032 0.205943 
v 0.20715 0.192897 0.206077 
v 0.20715 0.193338 0.205467 
v 0.20715 0.163416 0.211736 
v 0.20715 0.172484 0.225388 
v 0.20715 0.23219 0.187278 
v 0.20715 0.236494 0.182684 
v 0.20715 0.236019 0.182462 
v 0.20715 0.238386 0.184449 
v 0.20715 0.238086 0.18402 
v 0.20715 0.238845 0.185388 
v 0.20715 0.23864 0.184907 
v 0.20715 0.191869 0.206515 
v 0.20715 0.193404 0.205289 
v 0.20715 0.163669 0.21275 
v 0.20715 0.190162 0.205543 
v 0.20715 0.239758 0.200989 
v 0.20715 0.235524 0.182292 
v 0.20715 0.23736 0.183268 
v 0.20715 0.236942 0.182953 
v 0.20715 0.23345 0.182147 
v 0.20715 0.232937 0.182247 
v 0.20715 0.190061 0.204252 
v 0.20715 0.190127 0.204074 
v 0.20715 0.189989 0.204623 
v 0.20715 0.190015 0.204436 
v 0.20715 0.190786 0.206242 
v 0.20715 0.190632 0.206131 
v 0.20715 0.191124 0.206411 
v 0.20715 0.19095 0.206336 
v 0.20715 0.242373 0.197874 
v 0.20715 0.24249 0.197364 
v 0.20715 0.239276 0.201194 
v 0.20715 0.237743 0.183625 
v 0.20715 0.233972 0.182101 
v 0.20715 0.222342 0.196184 
v 0.20715 0.213321 0.199467 
v 0.20715 0.220632 0.191485 
v 0.20715 0.21161 0.194769 
v 0.20715 0.242554 0.196844 
v 0.20715 0.242563 0.196321 
v 0.20715 0.242518 0.195799 
v 0.20715 0.242418 0.195286 
v 0.20715 0.232436 0.1824 
v 0.20715 0.234495 0.182111 
v 0.20715 0.191491 0.206504 
v 0.20715 0.191305 0.206467 
v 0.20715 0.235014 0.182174 
v 0.20715 0.242265 0.194785 
v 0.20715 0.19168 0.20652 
vn -1 -1.74155e-14 -4.78488e-14 
vn -1 -1.74155e-14 -4.78488e-14 
vn -1 -1.74155e-14 -4.78488e-14 
vn -1 -1.74155e-14 -4.78488e-14 
vn -1 -1.74155e-14 -4.78488e-14 
vn -1 -1.74155e-14 -4.78488e-14 
vn -1 -1.74155e-14 -4.78488e-14 
vn -1 -1.74155e-14 -4.78488e-14 
vn -1 -1.74155e-14 -4.78488e-14 
vn -1 -1.74155e-14 -4.78488e-14 
vn -1 -1.74155e-14 -4.78488e-14 
vn -1 -1.74155e-14 -4.78488e-14 
vn -1 -1.74155e-14 -4.78488e-14 
vn -1 -1.74155e-14 -4.78488e-14 
vn -1 -1.74155e-14 -4.78488e-14 
vn -1 -1.74155e-14 -4.78488e-14 
vn -1 -1.74155e-14 -4.78488e-14 
vn -1 -1.74155e-14 -4.78488e-14 
vn -1 -1.74155e-14 -4.78488e-14 
vn -1 -1.74155e-14 -4.78488e-14 
vn -1 -1.74155e-14 -4.78488e-14 
vn -1 -1.74155e-14 -4.78488e-14 
vn -1 -1.74155e-14 -4.78488e-14 
vn -1 -1.74155e-14 -4.78488e-14 
vn -1 -1.74155e-14 -4.78488e-14 
vn -1 -1.74155e-14 -4.78488e-14 
vn -1 -1.74155e-14 -4.78488e-14 
vn -1 -1.74155e-14 -4.78488e-14 
vn -1 -1.74155e-14 -4.78488e-14 
vn -1 -1.74155e-14 -4.78488e-14 
vn -1 -1.74155e-14 -4.78488e-14 
vn -1 -1.74155e-14 -4.78488e-14 
vn -1 -1.74155e-14 -4.78488e-14 
vn -1 -1.74155e-14 -4.78488e-14 
vn -1 -1.74155e-14 -4.78488e-14 
vn -1 -1.74155e-14 -4.78488e-14 
vn -1 -1.74155e-14 -4.78488e-14 
vn -1 -1.74155e-14 -4.78488e-14 
vn -1 -1.74155e-14 -4.78488e-14 
vn -1 -1.74155e-14 -4.78488e-14 
vn -1 -1.74155e-14 -4.78488e-14 
vn -1 -1.74155e-14 -4.78488e-14 
vn -1 -1.74155e-14 -4.78488e-14 
vn -1 -1.74155e-14 -4.78488e-14 
vn -1 -1.74155e-14 -4.78488e-14 
vn -1 -1.74155e-14 -4.78488e-14 
vn -1 -1.74155e-14 -4.78488e-14 
vn -1 -1.74155e-14 -4.78488e-14 
vn -1 -1.74155e-14 -4.78488e-14 
vn -1 -1.74155e-14 -4.78488e-14 
vn -1 -1.74155e-14 -4.78488e-14 
vn -1 -1.74155e-14 -4.78488e-14 
vn -1 -1.74155e-14 -4.78488e-14 
vn -1 -1.74155e-14 -4.78488e-14 
vn -1 -1.74155e-14 -4.78488e-14 
vn -1 -1.74155e-14 -4.78488e-14 
vn -1 -1.74155e-14 -4.78488e-14 
vn -1 -1.74155e-14 -4.78488e-14 
vn -1 -1.74155e-14 -4.78488e-14 
vn -1 -1.74155e-14 -4.78488e-14 
vn -1 -1.74155e-14 -4.78488e-14 
vn -1 -1.74155e-14 -4.78488e-14 
vn -1 -1.74155e-14 -4.78488e-14 
vn -1 -1.74155e-14 -4.78488e-14 
vn -1 -1.74155e-14 -4.78488e-14 
vn -1 -1.74155e-14 -4.78488e-14 
vn -1 -1.74155e-14 -4.78488e-14 
vn -1 -1.74155e-14 -4.78488e-14 
vn -1 -1.74155e-14 -4.78488e-14 
vn -1 -1.74155e-14 -4.78488e-14 
vn -1 -1.74155e-14 -4.78488e-14 
vn -1 -1.74155e-14 -4.78488e-14 
vn -1 -1.74155e-14 -4.78488e-14 
vn -1 -1.74155e-14 -4.78488e-14 
vn -1 -1.74155e-14 -4.78488e-14 
vn -1 -1.74155e-14 -4.78488e-14 
vn -1 -1.74155e-14 -4.78488e-14 
vn -1 -1.74155e-14 -4.78488e-14 
vn -1 -1.74155e-14 -4.78488e-14 
vn -1 -1.74155e-14 -4.78488e-14 
vn -1 -1.74155e-14 -4.78488e-14 
vn -1 -1.74155e-14 -4.78488e-14 
vn -1 -1.74155e-14 -4.78488e-14 
vn -1 -1.74155e-14 -4.78488e-14 
vn -1 -1.74155e-14 -4.78488e-14 
vn -1 -1.74155e-14 -4.78488e-14 
vn -1 -1.74155e-14 -4.78488e-14 
vn -1 -1.74155e-14 -4.78488e-14 
vn -1 -1.74155e-14 -4.78488e-14 
vn -1 -1.74155e-14 -4.78488e-14 
vn -1 -1.74155e-14 -4.78488e-14 
vn -1 -1.74155e-14 -4.78488e-14 
vn -1 -1.74155e-14 -4.78488e-14 
vn -1 -1.74155e-14 -4.78488e-14 
vn -1 -1.74155e-14 -4.78488e-14 
vn -1 -1.74155e-14 -4.78488e-14 
vn -1 -1.74155e-14 -4.78488e-14 
vn -1 -1.74155e-14 -4.78488e-14 
vn -1 -1.74155e-14 -4.78488e-14 
vn -1 -1.74155e-14 -4.78488e-14 
vn -1 -1.74155e-14 -4.78488e-14 
vn -1 -1.74155e-14 -4.78488e-14 
vn -1 -1.74155e-14 -4.78488e-14 
vn -1 -1.74155e-14 -4.78488e-14 
vn -1 -1.74155e-14 -4.78488e-14 
vn -1 -1.74155e-14 -4.78488e-14 
vn -1 -1.74155e-14 -4.78488e-14 
vn -1 -1.74155e-14 -4.78488e-14 
vn -1 -1.74155e-14 -4.78488e-14 
vn -1 -1.74155e-14 -4.78488e-14 
vn -1 -1.74155e-14 -4.78488e-14 
vn -1 -1.74155e-14 -4.78488e-14 
vn -1 -1.74155e-14 -4.78488e-14 
vn -1 -1.74155e-14 -4.78488e-14 
vn -1 -1.74155e-14 -4.78488e-14 
vn -1 -1.74155e-14 -4.78488e-14 
vn -1 -1.74155e-14 -4.78488e-14 
vn -1 -1.74155e-14 -4.78488e-14 
vn -1 -1.74155e-14 -4.78488e-14 
vn -1 -1.74155e-14 -4.78488e-14 
vn -1 -1.74155e-14 -4.78488e-14 
vn -1 -1.74155e-14 -4.78488e-14 
vn -1 -1.74155e-14 -4.78488e-14 
vn -1 -1.74155e-14 -4.78488e-14 
vn -1 -1.74155e-14 -4.78488e-14 
vn -1 -1.74155e-14 -4.78488e-14 
vn -1 -1.74155e-14 -4.78488e-14 
vn -1 -1.74155e-14 -4.78488e-14 
vn -1 -1.74155e-14 -4.78488e-14 
vn -1 -1.74155e-14 -4.78488e-14 
f 247//247 248//248 249//249 
f 247//247 250//250 251//251 
f 252//252 253//253 254//254 
f 247//247 255//255 248//248 
f 247//247 256//256 250//250 
f 247//247 257//257 258//258 
f 247//247 252//252 259//259 
f 254//254 260//260 252//252 
f 261//261 262//262 263//263 
f 264//264 265//265 266//266 
f 247//247 267//267 268//268 
f 251//251 255//255 247//247 
f 247//247 269//269 270//270 
f 258//258 271//271 247//247 
f 260//260 259//259 252//252 
f 272//272 273//273 274//274 
f 272//272 275//275 276//276 
f 277//277 278//278 279//279 
f 277//277 280//280 281//281 
f 263//263 282//282 261//261 
f 264//264 283//283 284//284 
f 264//264 285//285 265//265 
f 264//264 268//268 286//286 
f 247//247 287//287 267//267 
f 270//270 256//256 247//247 
f 259//259 257//257 247//247 
f 252//252 288//288 289//289 
f 252//252 290//290 291//291 
f 275//275 292//292 293//293 
f 275//275 294//294 295//295 
f 275//275 296//296 252//252 
f 272//272 297//297 273//273 
f 276//276 298//298 272//272 
f 279//279 299//299 277//277 
f 277//277 300//300 301//301 
f 277//277 302//302 303//303 
f 277//277 304//304 280//280 
f 282//282 305//305 261//261 
f 284//284 306//306 264//264 
f 264//264 307//307 308//308 
f 264//264 309//309 285//285 
f 268//268 264//264 247//247 
f 271//271 269//269 247//247 
f 291//291 288//288 252//252 
f 293//293 310//310 275//275 
f 252//252 294//294 275//275 
f 272//272 311//311 312//312 
f 298//298 297//297 272//272 
f 313//313 314//314 272//272 
f 301//301 278//278 277//277 
f 277//277 315//315 302//302 
f 277//277 316//316 304//304 
f 317//317 318//318 306//306 
f 317//317 319//319 320//320 
f 261//261 321//321 322//322 
f 305//305 323//323 261//261 
f 306//306 324//324 325//325 
f 284//284 326//326 306//306 
f 264//264 327//327 328//328 
f 264//264 329//329 307//307 
f 286//286 309//309 264//264 
f 289//289 253//253 252//252 
f 295//295 292//292 275//275 
f 274//274 311//311 272//272 
f 272//272 330//330 313//313 
f 299//299 316//316 277//277 
f 281//281 315//315 277//277 
f 317//317 331//331 318//318 
f 317//317 303//303 319//319 
f 323//323 321//321 261//261 
f 332//332 333//333 334//334 
f 332//332 335//335 336//336 
f 332//332 337//337 338//338 
f 325//325 339//339 306//306 
f 328//328 283//283 264//264 
f 264//264 340//340 329//329 
f 249//249 287//287 247//247 
f 310//310 276//276 275//275 
f 313//313 341//341 314//314 
f 341//341 301//301 342//342 
f 303//303 317//317 277//277 
f 320//320 331//331 317//317 
f 261//261 343//343 262//262 
f 334//334 344//344 332//332 
f 332//332 345//345 346//346 
f 338//338 335//335 332//332 
f 332//332 347//347 348//348 
f 326//326 324//324 306//306 
f 266//266 340//340 264//264 
f 252//252 349//349 350//350 
f 252//252 351//351 352//352 
f 312//312 330//330 272//272 
f 300//300 342//342 301//301 
f 306//306 353//353 354//354 
f 306//306 355//355 356//356 
f 261//261 357//357 358//358 
f 261//261 359//359 343//343 
f 346//346 333//333 332//332 
f 336//336 360//360 332//332 
f 332//332 361//361 347//347 
f 306//306 362//362 363//363 
f 362//362 364//364 365//365 
f 308//308 327//327 264//264 
f 352//352 349//349 252//252 
f 342//342 314//314 341//341 
f 356//356 353//353 306//306 
f 261//261 366//366 367//367 
f 322//322 357//357 261//261 
f 360//360 345//345 332//332 
f 337//337 332//332 261//261 
f 261//261 368//368 369//369 
f 370//370 252//252 364//364 
f 332//332 371//371 361//361 
f 365//365 363//363 362//362 
f 252//252 247//247 365//365 
f 350//350 290//290 252//252 
f 306//306 354//354 317//317 
f 306//306 372//372 373//373 
f 358//358 366//366 261//261 
f 359//359 261//261 362//362 
f 344//344 374//374 332//332 
f 369//369 375//375 261//261 
f 348//348 370//370 332//332 
f 365//365 364//364 252//252 
f 296//296 351//351 252//252 
f 306//306 376//376 372//372 
f 362//362 306//306 359//359 
f 261//261 375//375 337//337 
f 363//363 264//264 306//306 
f 373//373 355//355 306//306 
f 374//374 371//371 332//332 
f 339//339 376//376 306//306 
f 364//364 332//332 370//370 
f 367//367 368//368 261//261 
o mesh4518
v 0.20715 0.238845 0.185388 
v 0.20815 0.238845 0.185388 
v 0.20815 0.23864 0.184907 
v 0.20715 0.23864 0.184907 
v 0.20815 0.238386 0.184449 
v 0.20715 0.238386 0.184449 
v 0.20815 0.238086 0.18402 
v 0.20715 0.238086 0.18402 
v 0.20815 0.237743 0.183625 
v 0.20715 0.237743 0.183625 
v 0.20815 0.23736 0.183268 
v 0.20715 0.23736 0.183268 
v 0.20815 0.236942 0.182953 
v 0.20715 0.236942 0.182953 
v 0.20815 0.236494 0.182684 
v 0.20715 0.236494 0.182684 
v 0.20815 0.236019 0.182462 
v 0.20715 0.236019 0.182462 
v 0.20815 0.235524 0.182292 
v 0.20715 0.235524 0.182292 
v 0.20815 0.235014 0.182174 
v 0.20715 0.235014 0.182174 
v 0.20815 0.234495 0.182111 
v 0.20715 0.234495 0.182111 
v 0.20815 0.233972 0.182101 
v 0.20715 0.233972 0.182101 
v 0.20815 0.23345 0.182147 
v 0.20715 0.23345 0.182147 
v 0.20815 0.232937 0.182247 
v 0.20715 0.232937 0.182247 
v 0.20815 0.232436 0.1824 
v 0.20715 0.232436 0.1824 
vn -4.28204e-27 0.939693 -0.34202 
vn -4.28204e-27 0.939693 -0.34202 
vn 5.32255e-15 0.898794 -0.438371 
vn 5.32255e-15 0.898794 -0.438371 
vn 1.05868e-14 0.848048 -0.529919 
vn 1.05868e-14 0.848048 -0.529919 
vn 1.5735e-14 0.788011 -0.615661 
vn 1.5735e-14 0.788011 -0.615661 
vn 2.07109e-14 0.71934 -0.694658 
vn 2.07109e-14 0.71934 -0.694658 
vn 2.54598e-14 0.642788 -0.766044 
vn 2.54598e-14 0.642788 -0.766044 
vn 2.99298e-14 0.559193 -0.829038 
vn 2.99298e-14 0.559193 -0.829038 
vn 3.40719e-14 0.469472 -0.882948 
vn 3.40719e-14 0.469472 -0.882948 
vn 3.78406e-14 0.374607 -0.927184 
vn 3.78406e-14 0.374607 -0.927184 
vn 4.11948e-14 0.275637 -0.961262 
vn 4.11948e-14 0.275637 -0.961262 
vn 4.40977e-14 0.173648 -0.984808 
vn 4.40977e-14 0.173648 -0.984808 
vn 4.65174e-14 0.0697565 -0.997564 
vn 4.65174e-14 0.0697565 -0.997564 
vn 4.84274e-14 -0.0348995 -0.999391 
vn 4.84274e-14 -0.0348995 -0.999391 
vn 4.98069e-14 -0.139173 -0.990268 
vn 4.98069e-14 -0.139173 -0.990268 
vn 5.06406e-14 -0.241922 -0.970296 
vn 5.06406e-14 -0.241922 -0.970296 
vn 5.09196e-14 -0.34202 -0.939693 
vn 5.09196e-14 -0.34202 -0.939693 
f 377//377 378//378 379//379 
f 380//380 379//379 381//381 
f 382//382 381//381 383//383 
f 384//384 383//383 385//385 
f 386//386 385//385 387//387 
f 388//388 387//387 389//389 
f 390//390 389//389 391//391 
f 392//392 391//391 393//393 
f 394//394 393//393 395//395 
f 396//396 395//395 397//397 
f 398//398 397//397 399//399 
f 400//400 399//399 401//401 
f 402//402 401//401 403//403 
f 404//404 403//403 405//405 
f 406//406 405//405 407//407 
f 407//407 408//408 406//406 
f 405//405 406//406 404//404 
f 403//403 404//404 402//402 
f 401//401 402//402 400//400 
f 399//399 400//400 398//398 
f 397//397 398//398 396//396 
f 395//395 396//396 394//394 
f 393//393 394//394 392//392 
f 391//391 392//392 390//390 
f 389//389 390//390 388//388 
f 387//387 388//388 386//386 
f 385//385 386//386 384//384 
f 383//383 384//384 382//382 
f 381//381 382//382 380//380 
f 379//379 380//380 377//377 
o mesh4519
v 0.20715 0.232436 0.1824 
v 0.20815 0.232436 0.1824 
v 0.20815 0.166658 0.206341 
v 0.20715 0.166658 0.206341 
vn 5.09196e-14 -0.34202 -0.939693 
vn 5.09196e-14 -0.34202 -0.939693 
vn 5.09196e-14 -0.34202 -0.939693 
vn 5.09196e-14 -0.34202 -0.939693 
f 409//409 410//410 411//411 
f 411//411 412//412 409//409 
o mesh4520
v 0.20715 0.166658 0.206341 
v 0.20815 0.166658 0.206341 
v 0.20815 0.166176 0.206546 
v 0.20715 0.166176 0.206546 
v 0.20815 0.165718 0.2068 
v 0.20715 0.165718 0.2068 
v 0.20815 0.165289 0.2071 
v 0.20715 0.165289 0.2071 
v 0.20815 0.164894 0.207443 
v 0.20715 0.164894 0.207443 
v 0.20815 0.164537 0.207826 
v 0.20715 0.164537 0.207826 
v 0.20815 0.164223 0.208244 
v 0.20715 0.164223 0.208244 
v 0.20815 0.163953 0.208692 
v 0.20715 0.163953 0.208692 
v 0.20815 0.163732 0.209167 
v 0.20715 0.163732 0.209167 
v 0.20815 0.163561 0.209662 
v 0.20715 0.163561 0.209662 
v 0.20815 0.163444 0.210172 
v 0.20715 0.163444 0.210172 
v 0.20815 0.16338 0.210691 
v 0.20715 0.16338 0.210691 
v 0.20815 0.163371 0.211214 
v 0.20715 0.163371 0.211214 
v 0.20815 0.163416 0.211736 
v 0.20715 0.163416 0.211736 
v 0.20815 0.163516 0.212249 
v 0.20715 0.163516 0.212249 
v 0.20815 0.163669 0.21275 
v 0.20715 0.163669 0.21275 
vn 5.09196e-14 -0.34202 -0.939693 
vn 5.09196e-14 -0.34202 -0.939693 
vn 5.06406e-14 -0.438371 -0.898794 
vn 5.06406e-14 -0.438371 -0.898794 
vn 4.98069e-14 -0.529919 -0.848048 
vn 4.98069e-14 -0.529919 -0.848048 
vn 4.84274e-14 -0.615661 -0.788011 
vn 4.84274e-14 -0.615661 -0.788011 
vn 4.65174e-14 -0.694658 -0.71934 
vn 4.65174e-14 -0.694658 -0.71934 
vn 4.40977e-14 -0.766044 -0.642788 
vn 4.40977e-14 -0.766044 -0.642788 
vn 4.11948e-14 -0.829038 -0.559193 
vn 4.11948e-14 -0.829038 -0.559193 
vn 3.78406e-14 -0.882948 -0.469472 
vn 3.78406e-14 -0.882948 -0.469472 
vn 3.40719e-14 -0.927184 -0.374607 
vn 3.40719e-14 -0.927184 -0.374607 
vn 2.99298e-14 -0.961262 -0.275637 
vn 2.99298e-14 -0.961262 -0.275637 
vn 2.54598e-14 -0.984808 -0.173648 
vn 2.54598e-14 -0.984808 -0.173648 
vn 2.07109e-14 -0.997564 -0.0697565 
vn 2.07109e-14 -0.997564 -0.0697565 
vn 1.5735e-14 -0.999391 0.0348995 
vn 1.5735e-14 -0.999391 0.0348995 
vn 1.05868e-14 -0.990268 0.139173 
vn 1.05868e-14 -0.990268 0.139173 
vn 5.32255e-15 -0.970296 0.241922 
vn 5.32255e-15 -0.970296 0.241922 
vn 4.02812e-27 -0.939693 0.34202 
vn 4.02812e-27 -0.939693 0.34202 
f 413//413 414//414 415//415 
f 416//416 415//415 417//417 
f 418//418 417//417 419//419 
f 420//420 419//419 421//421 
f 422//422 421//421 423//423 
f 424//424 423//423 425//425 
f 426//426 425//425 427//427 
f 428//428 427//427 429//429 
f 430//430 429//429 431//431 
f 432//432 431//431 433//433 
f 434//434 433//433 435//435 
f 436//436 435//435 437//437 
f 438//438 437//437 439//439 
f 440//440 439//439 441//441 
f 442//442 441//441 443//443 
f 443//443 444//444 442//442 
f 441//441 442//442 440//440 
f 439//439 440//440 438//438 
f 437//437 438//438 436//436 
f 435//435 436//436 434//434 
f 433//433 434//434 432//432 
f 431//431 432//432 430//430 
f 429//429 430//430 428//428 
f 427//427 428//428 426//426 
f 425//425 426//426 424//424 
f 423//423 424//424 422//422 
f 421//421 422//422 420//420 
f 419//419 420//420 418//418 
f 417//417 418//418 416//416 
f 415//415 416//416 413//413 
o mesh4521
v 0.20715 0.167089 0.222147 
v 0.20715 0.163669 0.21275 
v 0.20815 0.163669 0.21275 
v 0.20815 0.167089 0.222147 
vn 4.02812e-27 -0.939693 0.34202 
vn 4.02812e-27 -0.939693 0.34202 
vn 4.02812e-27 -0.939693 0.34202 
vn 4.02812e-27 -0.939693 0.34202 
f 445//445 446//446 447//447 
f 447//447 448//448 445//445 
o mesh4522
v 0.20715 0.167089 0.222147 
v 0.20815 0.167089 0.222147 
v 0.20815 0.167294 0.222629 
v 0.20715 0.167294 0.222629 
v 0.20815 0.167548 0.223086 
v 0.20715 0.167548 0.223086 
v 0.20815 0.167848 0.223515 
v 0.20715 0.167848 0.223515 
v 0.20815 0.168191 0.22391 
v 0.20715 0.168191 0.22391 
v 0.20815 0.168574 0.224267 
v 0.20715 0.168574 0.224267 
v 0.20815 0.168992 0.224582 
v 0.20715 0.168992 0.224582 
v 0.20815 0.169441 0.224851 
v 0.20715 0.169441 0.224851 
v 0.20815 0.169915 0.225073 
v 0.20715 0.169915 0.225073 
v 0.20815 0.17041 0.225243 
v 0.20715 0.17041 0.225243 
v 0.20815 0.17092 0.225361 
v 0.20715 0.17092 0.225361 
v 0.20815 0.171439 0.225425 
v 0.20715 0.171439 0.225425 
v 0.20815 0.171962 0.225434 
v 0.20715 0.171962 0.225434 
v 0.20815 0.172484 0.225388 
v 0.20715 0.172484 0.225388 
v 0.20815 0.172998 0.225288 
v 0.20715 0.172998 0.225288 
v 0.20815 0.173498 0.225135 
v 0.20715 0.173498 0.225135 
vn 4.02812e-27 -0.939693 0.34202 
vn 4.02812e-27 -0.939693 0.34202 
vn -5.32255e-15 -0.898794 0.438371 
vn -5.32255e-15 -0.898794 0.438371 
vn -1.05868e-14 -0.848048 0.529919 
vn -1.05868e-14 -0.848048 0.529919 
vn -1.5735e-14 -0.788011 0.615661 
vn -1.5735e-14 -0.788011 0.615661 
vn -2.07109e-14 -0.71934 0.694658 
vn -2.07109e-14 -0.71934 0.694658 
vn -2.54598e-14 -0.642788 0.766044 
vn -2.54598e-14 -0.642788 0.766044 
vn -2.99298e-14 -0.559193 0.829038 
vn -2.99298e-14 -0.559193 0.829038 
vn -3.40719e-14 -0.469472 0.882948 
vn -3.40719e-14 -0.469472 0.882948 
vn -3.78406e-14 -0.374607 0.927184 
vn -3.78406e-14 -0.374607 0.927184 
vn -4.11948e-14 -0.275637 0.961262 
vn -4.11948e-14 -0.275637 0.961262 
vn -4.40977e-14 -0.173648 0.984808 
vn -4.40977e-14 -0.173648 0.984808 
vn -4.65174e-14 -0.0697565 0.997564 
vn -4.65174e-14 -0.0697565 0.997564 
vn -4.84274e-14 0.0348995 0.999391 
vn -4.84274e-14 0.0348995 0.999391 
vn -4.98069e-14 0.139173 0.990268 
vn -4.98069e-14 0.139173 0.990268 
vn -5.06406e-14 0.241922 0.970296 
vn -5.06406e-14 0.241922 0.970296 
vn -5.09196e-14 0.34202 0.939693 
vn -5.09196e-14 0.34202 0.939693 
f 449//449 450//450 451//451 
f 452//452 451//451 453//453 
f 454//454 453//453 455//455 
f 456//456 455//455 457//457 
f 458//458 457//457 459//459 
f 460//460 459//459 461//461 
f 462//462 461//461 463//463 
f 464//464 463//463 465//465 
f 466//466 465//465 467//467 
f 468//468 467//467 469//469 
f 470//470 469//469 471//471 
f 472//472 471//471 473//473 
f 474//474 473//473 475//475 
f 476//476 475//475 477//477 
f 478//478 477//477 479//479 
f 479//479 480//480 478//478 
f 477//477 478//478 476//476 
f 475//475 476//476 474//474 
f 473//473 474//474 472//472 
f 471//471 472//472 470//470 
f 469//469 470//470 468//468 
f 467//467 468//468 466//466 
f 465//465 466//466 464//464 
f 463//463 464//464 462//462 
f 461//461 462//462 460//460 
f 459//459 460//460 458//458 
f 457//457 458//458 456//456 
f 455//455 456//456 454//454 
f 453//453 454//454 452//452 
f 451//451 452//452 449//449 
o mesh4523
v 0.20815 0.173498 0.225135 
v 0.20815 0.239276 0.201194 
v 0.20715 0.239276 0.201194 
v 0.20715 0.173498 0.225135 
vn -5.09196e-14 0.34202 0.939693 
vn -5.09196e-14 0.34202 0.939693 
vn -5.09196e-14 0.34202 0.939693 
vn -5.09196e-14 0.34202 0.939693 
f 481//481 482//482 483//483 
f 483//483 484//484 481//481 
o mesh4524
v 0.20715 0.239276 0.201194 
v 0.20815 0.239276 0.201194 
v 0.20815 0.239758 0.200989 
v 0.20715 0.239758 0.200989 
v 0.20815 0.240216 0.200736 
v 0.20715 0.240216 0.200736 
v 0.20815 0.240645 0.200435 
v 0.20715 0.240645 0.200435 
v 0.20815 0.24104 0.200092 
v 0.20715 0.24104 0.200092 
v 0.20815 0.241397 0.199709 
v 0.20715 0.241397 0.199709 
v 0.20815 0.241712 0.199291 
v 0.20715 0.241712 0.199291 
v 0.20815 0.241981 0.198843 
v 0.20715 0.241981 0.198843 
v 0.20815 0.242202 0.198368 
v 0.20715 0.242202 0.198368 
v 0.20815 0.242373 0.197874 
v 0.20715 0.242373 0.197874 
v 0.20815 0.24249 0.197364 
v 0.20715 0.24249 0.197364 
v 0.20815 0.242554 0.196844 
v 0.20715 0.242554 0.196844 
v 0.20815 0.242563 0.196321 
v 0.20715 0.242563 0.196321 
v 0.20815 0.242518 0.195799 
v 0.20715 0.242518 0.195799 
v 0.20815 0.242418 0.195286 
v 0.20715 0.242418 0.195286 
v 0.20815 0.242265 0.194785 
v 0.20715 0.242265 0.194785 
vn -5.09196e-14 0.34202 0.939693 
vn -5.09196e-14 0.34202 0.939693 
vn -5.06406e-14 0.438371 0.898794 
vn -5.06406e-14 0.438371 0.898794 
vn -4.98069e-14 0.529919 0.848048 
vn -4.98069e-14 0.529919 0.848048 
vn -4.84274e-14 0.615661 0.788011 
vn -4.84274e-14 0.615661 0.788011 
vn -4.65174e-14 0.694658 0.71934 
vn -4.65174e-14 0.694658 0.71934 
vn -4.40977e-14 0.766044 0.642788 
vn -4.40977e-14 0.766044 0.642788 
vn -4.11948e-14 0.829038 0.559193 
vn -4.11948e-14 0.829038 0.559193 
vn -3.78406e-14 0.882948 0.469472 
vn -3.78406e-14 0.882948 0.469472 
vn -3.40719e-14 0.927184 0.374607 
vn -3.40719e-14 0.927184 0.374607 
vn -2.99298e-14 0.961262 0.275637 
vn -2.99298e-14 0.961262 0.275637 
vn -2.54598e-14 0.984808 0.173648 
vn -2.54598e-14 0.984808 0.173648 
vn -2.07109e-14 0.997564 0.0697565 
vn -2.07109e-14 0.997564 0.0697565 
vn -1.5735e-14 0.999391 -0.0348995 
vn -1.5735e-14 0.999391 -0.0348995 
vn -1.05868e-14 0.990268 -0.139173 
vn -1.05868e-14 0.990268 -0.139173 
vn -5.32255e-15 0.970296 -0.241922 
vn -5.32255e-15 0.970296 -0.241922 
vn -4.10701e-27 0.939693 -0.34202 
vn -4.10701e-27 0.939693 -0.34202 
f 485//485 486//486 487//487 
f 488//488 487//487 489//489 
f 490//490 489//489 491//491 
f 492//492 491//491 493//493 
f 494//494 493//493 495//495 
f 496//496 495//495 497//497 
f 498//498 497//497 499//499 
f 500//500 499//499 501//501 
f 502//502 501//501 503//503 
f 504//504 503//503 505//505 
f 506//506 505//505 507//507 
f 508//508 507//507 509//509 
f 510//510 509//509 511//511 
f 512//512 511//511 513//513 
f 514//514 513//513 515//515 
f 515//515 516//516 514//514 
f 513//513 514//514 512//512 
f 511//511 512//512 510//510 
f 509//509 510//510 508//508 
f 507//507 508//508 506//506 
f 505//505 506//506 504//504 
f 503//503 504//504 502//502 
f 501//501 502//502 500//500 
f 499//499 500//500 498//498 
f 497//497 498//498 496//496 
f 495//495 496//496 494//494 
f 493//493 494//494 492//492 
f 491//491 492//492 490//490 
f 489//489 490//490 488//488 
f 487//487 488//488 485//485 
o mesh4525
v 0.20815 0.238845 0.185388 
v 0.20715 0.238845 0.185388 
v 0.20715 0.242265 0.194785 
v 0.20815 0.242265 0.194785 
vn -4.10701e-27 0.939693 -0.34202 
vn -4.10701e-27 0.939693 -0.34202 
vn -4.10701e-27 0.939693 -0.34202 
vn -4.10701e-27 0.939693 -0.34202 
f 517//517 518//518 519//519 
f 519//519 520//520 517//517 
o mesh4526
v 0.20715 0.213321 0.199467 
v 0.20815 0.213321 0.199467 
v 0.20815 0.201762 0.203674 
v 0.20715 0.201762 0.203674 
vn 5.09196e-14 -0.34202 -0.939693 
vn 5.09196e-14 -0.34202 -0.939693 
vn 5.09196e-14 -0.34202 -0.939693 
vn 5.09196e-14 -0.34202 -0.939693 
f 521//521 522//522 523//523 
f 523//523 524//524 521//521 
o mesh4527
v 0.20715 0.201762 0.203674 
v 0.20815 0.201762 0.203674 
v 0.20815 0.200052 0.198975 
v 0.20715 0.200052 0.198975 
vn -4.10701e-27 0.939693 -0.34202 
vn -4.10701e-27 0.939693 -0.34202 
vn -4.10701e-27 0.939693 -0.34202 
vn -4.10701e-27 0.939693 -0.34202 
f 525//525 526//526 527//527 
f 527//527 528//528 525//525 
o mesh4528
v 0.20815 0.200052 0.198975 
v 0.20815 0.21161 0.194769 
v 0.20715 0.21161 0.194769 
v 0.20715 0.200052 0.198975 
vn -5.09196e-14 0.34202 0.939693 
vn -5.09196e-14 0.34202 0.939693 
vn -5.09196e-14 0.34202 0.939693 
vn -5.09196e-14 0.34202 0.939693 
f 529//529 530//530 531//531 
f 531//531 532//532 529//529 
o mesh4529
v 0.20815 0.21161 0.194769 
v 0.20815 0.213321 0.199467 
v 0.20715 0.213321 0.199467 
v 0.20715 0.21161 0.194769 
vn 0 -0.939693 0.34202 
vn 0 -0.939693 0.34202 
vn 0 -0.939693 0.34202 
vn 0 -0.939693 0.34202 
f 533//533 534//534 535//535 
f 535//535 536//536 533//533 
o mesh4530
v 0.20715 0.2339 0.191977 
v 0.20815 0.2339 0.191977 
v 0.20815 0.222342 0.196184 
v 0.20715 0.222342 0.196184 
vn 5.09196e-14 -0.34202 -0.939693 
vn 5.09196e-14 -0.34202 -0.939693 
vn 5.09196e-14 -0.34202 -0.939693 
vn 5.09196e-14 -0.34202 -0.939693 
f 537//537 538//538 539//539 
f 539//539 540//540 537//537 
o mesh4531
v 0.20715 0.222342 0.196184 
v 0.20815 0.222342 0.196184 
v 0.20815 0.220632 0.191485 
v 0.20715 0.220632 0.191485 
vn 0 0.939693 -0.34202 
vn 0 0.939693 -0.34202 
vn 0 0.939693 -0.34202 
vn 0 0.939693 -0.34202 
f 541//541 542//542 543//543 
f 543//543 544//544 541//541 
o mesh4532
v 0.20815 0.220632 0.191485 
v 0.20815 0.23219 0.187278 
v 0.20715 0.23219 0.187278 
v 0.20715 0.220632 0.191485 
vn -5.09196e-14 0.34202 0.939693 
vn -5.09196e-14 0.34202 0.939693 
vn -5.09196e-14 0.34202 0.939693 
vn -5.09196e-14 0.34202 0.939693 
f 545//545 546//546 547//547 
f 547//547 548//548 545//545 
o mesh4533
v 0.20815 0.23219 0.187278 
v 0.20815 0.2339 0.191977 
v 0.20715 0.2339 0.191977 
v 0.20715 0.23219 0.187278 
vn 0 -0.939693 0.34202 
vn 0 -0.939693 0.34202 
vn 0 -0.939693 0.34202 
vn 0 -0.939693 0.34202 
f 549//549 550//550 551//551 
f 551//551 552//552 549//549 
