# OBJ generated by ONSHAPE BY PTC INC, 1.215 Units = meters
mtllib EBoxNewAsm_stp_1_Beelink_mini_PC_v4_stp_1_Beelink_mini_PC_v4_80_stp_1_solid1.mtl
g EBoxNewAsm.stp-1/Beelink mini PC v4.stp-1/Beelink mini PC v4-80.stp-1-solid1
usemtl 0.000000_0.000000_0.000000_0.000000_0.000000
o mesh16149
v 0.30635 0.249973 0.163247 
v 0.305884 0.250196 0.163166 
v 0.305395 0.250373 0.163101 
v 0.30489 0.2505 0.163055 
v 0.307895 0.248666 0.163723 
v 0.307566 0.249048 0.163584 
v 0.306789 0.249705 0.163344 
v 0.307196 0.249396 0.163457 
v 0.308418 0.247815 0.164032 
v 0.30818 0.248253 0.163873 
v 0.308741 0.246881 0.164372 
v 0.308605 0.247356 0.164199 
v 0.30885 0.245904 0.164728 
v 0.308823 0.246395 0.164549 
v 0.304373 0.250577 0.163027 
v 0.30385 0.250603 0.163018 
v 0.29445 0.250603 0.163018 
v 0.30885 0.237071 0.167943 
vn -5.09196e-14 0.34202 0.939693 
vn -5.09196e-14 0.34202 0.939693 
vn -5.09196e-14 0.34202 0.939693 
vn -5.09196e-14 0.34202 0.939693 
vn -5.09196e-14 0.34202 0.939693 
vn -5.09196e-14 0.34202 0.939693 
vn -5.09196e-14 0.34202 0.939693 
vn -5.09196e-14 0.34202 0.939693 
vn -5.09196e-14 0.34202 0.939693 
vn -5.09196e-14 0.34202 0.939693 
vn -5.09196e-14 0.34202 0.939693 
vn -5.09196e-14 0.34202 0.939693 
vn -5.09196e-14 0.34202 0.939693 
vn -5.09196e-14 0.34202 0.939693 
vn -5.09196e-14 0.34202 0.939693 
vn -5.09196e-14 0.34202 0.939693 
vn -5.09196e-14 0.34202 0.939693 
vn -5.09196e-14 0.34202 0.939693 
f 1//1 2//2 3//3 
f 4//4 5//5 6//6 
f 4//4 7//7 1//1 
f 6//6 8//8 4//4 
f 8//8 7//7 4//4 
f 4//4 9//9 10//10 
f 4//4 11//11 12//12 
f 4//4 13//13 14//14 
f 10//10 5//5 4//4 
f 14//14 11//11 4//4 
f 12//12 9//9 4//4 
f 3//3 4//4 1//1 
f 4//4 15//15 13//13 
f 15//15 16//16 13//13 
f 17//17 18//18 13//13 
f 16//16 17//17 13//13 
o mesh16150
v 0.30385 0.249919 0.161138 
v 0.30385 0.250603 0.163018 
v 0.304373 0.250577 0.163027 
v 0.304373 0.249893 0.161148 
v 0.30489 0.2505 0.163055 
v 0.30489 0.249816 0.161176 
v 0.305395 0.250373 0.163101 
v 0.305395 0.249689 0.161222 
v 0.305884 0.250196 0.163166 
v 0.305884 0.249512 0.161286 
v 0.30635 0.249973 0.163247 
v 0.30635 0.249289 0.161367 
v 0.306789 0.249705 0.163344 
v 0.306789 0.249021 0.161465 
v 0.307196 0.249396 0.163457 
v 0.307196 0.248712 0.161578 
v 0.307566 0.249048 0.163584 
v 0.307566 0.248364 0.161704 
v 0.307895 0.248666 0.163723 
v 0.307895 0.247982 0.161843 
v 0.30818 0.248253 0.163873 
v 0.30818 0.247569 0.161993 
v 0.308418 0.247815 0.164032 
v 0.308418 0.247131 0.162153 
v 0.308605 0.247356 0.164199 
v 0.308605 0.246672 0.16232 
v 0.308741 0.246881 0.164372 
v 0.308741 0.246197 0.162493 
v 0.308823 0.246395 0.164549 
v 0.308823 0.245711 0.16267 
v 0.30885 0.245904 0.164728 
v 0.30885 0.24522 0.162848 
vn 9.18313e-16 0.939693 -0.34202 
vn 9.18313e-16 0.939693 -0.34202 
vn 0.104528 0.934545 -0.340147 
vn 0.104528 0.934545 -0.340147 
vn 0.207912 0.919158 -0.334546 
vn 0.207912 0.919158 -0.334546 
vn 0.309017 0.893701 -0.32528 
vn 0.309017 0.893701 -0.32528 
vn 0.406737 0.858452 -0.312451 
vn 0.406737 0.858452 -0.312451 
vn 0.5 0.813798 -0.296198 
vn 0.5 0.813798 -0.296198 
vn 0.587785 0.760227 -0.2767 
vn 0.587785 0.760227 -0.2767 
vn 0.669131 0.698328 -0.25417 
vn 0.669131 0.698328 -0.25417 
vn 0.743145 0.628777 -0.228856 
vn 0.743145 0.628777 -0.228856 
vn 0.809017 0.552337 -0.201034 
vn 0.809017 0.552337 -0.201034 
vn 0.866025 0.469846 -0.17101 
vn 0.866025 0.469846 -0.17101 
vn 0.913545 0.382207 -0.139112 
vn 0.913545 0.382207 -0.139112 
vn 0.951057 0.290381 -0.10569 
vn 0.951057 0.290381 -0.10569 
vn 0.978148 0.195373 -0.07111 
vn 0.978148 0.195373 -0.07111 
vn 0.994522 0.0982246 -0.0357508 
vn 0.994522 0.0982246 -0.0357508 
vn 1 1.53865e-14 4.85873e-14 
vn 1 1.53865e-14 4.85873e-14 
f 19//19 20//20 21//21 
f 22//22 21//21 23//23 
f 24//24 23//23 25//25 
f 26//26 25//25 27//27 
f 28//28 27//27 29//29 
f 30//30 29//29 31//31 
f 32//32 31//31 33//33 
f 34//34 33//33 35//35 
f 36//36 35//35 37//37 
f 38//38 37//37 39//39 
f 40//40 39//39 41//41 
f 42//42 41//41 43//43 
f 44//44 43//43 45//45 
f 46//46 45//45 47//47 
f 48//48 47//47 49//49 
f 49//49 50//50 48//48 
f 47//47 48//48 46//46 
f 45//45 46//46 44//44 
f 43//43 44//44 42//42 
f 41//41 42//42 40//40 
f 39//39 40//40 38//38 
f 37//37 38//38 36//36 
f 35//35 36//36 34//34 
f 33//33 34//34 32//32 
f 31//31 32//32 30//30 
f 29//29 30//30 28//28 
f 27//27 28//28 26//26 
f 25//25 26//26 24//24 
f 23//23 24//24 22//22 
f 21//21 22//22 19//19 
o mesh16151
v 0.305395 0.249689 0.161222 
v 0.30635 0.249289 0.161367 
v 0.306789 0.249021 0.161465 
v 0.307196 0.248712 0.161578 
v 0.30385 0.249919 0.161138 
v 0.304373 0.249893 0.161148 
v 0.307895 0.247982 0.161843 
v 0.30818 0.247569 0.161993 
v 0.307566 0.248364 0.161704 
v 0.305884 0.249512 0.161286 
v 0.30489 0.249816 0.161176 
v 0.308741 0.246197 0.162493 
v 0.308823 0.245711 0.16267 
v 0.308418 0.247131 0.162153 
v 0.308605 0.246672 0.16232 
v 0.30885 0.24522 0.162848 
v 0.29445 0.249919 0.161138 
v 0.30885 0.236387 0.166063 
vn 5.09196e-14 -0.34202 -0.939693 
vn 5.09196e-14 -0.34202 -0.939693 
vn 5.09196e-14 -0.34202 -0.939693 
vn 5.09196e-14 -0.34202 -0.939693 
vn 5.09196e-14 -0.34202 -0.939693 
vn 5.09196e-14 -0.34202 -0.939693 
vn 5.09196e-14 -0.34202 -0.939693 
vn 5.09196e-14 -0.34202 -0.939693 
vn 5.09196e-14 -0.34202 -0.939693 
vn 5.09196e-14 -0.34202 -0.939693 
vn 5.09196e-14 -0.34202 -0.939693 
vn 5.09196e-14 -0.34202 -0.939693 
vn 5.09196e-14 -0.34202 -0.939693 
vn 5.09196e-14 -0.34202 -0.939693 
vn 5.09196e-14 -0.34202 -0.939693 
vn 5.09196e-14 -0.34202 -0.939693 
vn 5.09196e-14 -0.34202 -0.939693 
vn 5.09196e-14 -0.34202 -0.939693 
f 51//51 52//52 53//53 
f 54//54 55//55 56//56 
f 55//55 57//57 58//58 
f 55//55 54//54 59//59 
f 51//51 60//60 52//52 
f 56//56 61//61 54//54 
f 55//55 62//62 63//63 
f 55//55 64//64 65//65 
f 59//59 57//57 55//55 
f 61//61 51//51 54//54 
f 65//65 62//62 55//55 
f 53//53 54//54 51//51 
f 58//58 64//64 55//55 
f 66//66 67//67 55//55 
f 63//63 66//66 55//55 
f 66//66 68//68 67//67 
o mesh16152
v 0.30885 0.24522 0.162848 
v 0.30885 0.245904 0.164728 
v 0.30885 0.237071 0.167943 
v 0.30885 0.236387 0.166063 
vn 1 1.53865e-14 4.85873e-14 
vn 1 1.53865e-14 4.85873e-14 
vn 1 1.53865e-14 4.85873e-14 
vn 1 1.53865e-14 4.85873e-14 
f 69//69 70//70 71//71 
f 71//71 72//72 69//69 
o mesh16153
v 0.29445 0.249919 0.161138 
v 0.30885 0.236387 0.166063 
v 0.30885 0.237071 0.167943 
v 0.29445 0.250603 0.163018 
vn -0.707107 -0.664463 0.241845 
vn -0.707107 -0.664463 0.241845 
vn -0.707107 -0.664463 0.241845 
vn -0.707107 -0.664463 0.241845 
f 73//73 74//74 75//75 
f 75//75 76//76 73//73 
o mesh16154
v 0.30385 0.249919 0.161138 
v 0.29445 0.249919 0.161138 
v 0.29445 0.250603 0.163018 
v 0.30385 0.250603 0.163018 
vn 0 0.939693 -0.34202 
vn 0 0.939693 -0.34202 
vn 0 0.939693 -0.34202 
vn 0 0.939693 -0.34202 
f 77//77 78//78 79//79 
f 79//79 80//80 77//77 
