# OBJ generated by ONSHAPE BY PTC INC, 1.215 Units = meters
mtllib EBoxNewAsm_stp_1_IMC413_stp_1_IMC413_6_stp_1_solid1.mtl
g EBoxNewAsm.stp-1/IMC413.stp-1/IMC413-6.stp-1-solid1
usemtl 0.372549_0.372549_0.372549_0.000000_0.000000
o mesh8309
v 0.163843 0.171839 0.0782416 
v 0.163843 0.171738 0.0778289 
v 0.163843 0.171783 0.0778203 
v 0.163843 0.171829 0.0778167 
v 0.163843 0.171875 0.0778181 
v 0.163843 0.17192 0.0778245 
v 0.163843 0.171965 0.0778357 
v 0.163843 0.172008 0.0778517 
v 0.163843 0.172049 0.0778723 
v 0.163843 0.172088 0.0778972 
v 0.163843 0.172124 0.0779261 
v 0.163843 0.172156 0.0779587 
v 0.163843 0.172185 0.0779947 
v 0.163843 0.17221 0.0780336 
v 0.163843 0.17223 0.0780748 
v 0.163843 0.172246 0.0781181 
v 0.163843 0.172257 0.0781628 
v 0.163843 0.172263 0.0782084 
v 0.163843 0.172264 0.0782544 
v 0.163843 0.17226 0.0783002 
v 0.163843 0.172251 0.0783454 
v 0.163843 0.172238 0.0783894 
v 0.163843 0.172219 0.0784316 
v 0.163843 0.172196 0.0784716 
v 0.163843 0.17217 0.0785089 
v 0.163843 0.172139 0.078543 
v 0.163843 0.172104 0.0785737 
v 0.163843 0.172067 0.0786004 
v 0.163843 0.172027 0.0786229 
v 0.163843 0.171984 0.078641 
v 0.163843 0.17194 0.0786543 
v 0.163843 0.171895 0.0786629 
v 0.163843 0.171849 0.0786665 
v 0.163843 0.171803 0.0786651 
v 0.163843 0.171758 0.0786587 
v 0.163843 0.171713 0.0786475 
v 0.163843 0.17167 0.0786315 
v 0.163843 0.171629 0.0786109 
v 0.163843 0.17159 0.078586 
v 0.163843 0.171554 0.0785571 
v 0.163843 0.171522 0.0785245 
v 0.163843 0.171493 0.0784885 
v 0.163843 0.171468 0.0784497 
v 0.163843 0.171448 0.0784084 
v 0.163843 0.171432 0.0783651 
v 0.163843 0.171421 0.0783204 
v 0.163843 0.171415 0.0782748 
v 0.163843 0.171414 0.0782288 
v 0.163843 0.171418 0.078183 
v 0.163843 0.171427 0.0781378 
v 0.163843 0.171441 0.0780938 
v 0.163843 0.171459 0.0780516 
v 0.163843 0.171482 0.0780116 
v 0.163843 0.171509 0.0779743 
v 0.163843 0.171539 0.0779402 
v 0.163843 0.171574 0.0779096 
v 0.163843 0.171611 0.0778828 
v 0.163843 0.171651 0.0778603 
v 0.163843 0.171694 0.0778422 
vn 1 0 0 
vn 1 0 0 
vn 1 0 0 
vn 1 0 0 
vn 1 0 0 
vn 1 0 0 
vn 1 0 0 
vn 1 0 0 
vn 1 0 0 
vn 1 0 0 
vn 1 0 0 
vn 1 0 0 
vn 1 0 0 
vn 1 0 0 
vn 1 0 0 
vn 1 0 0 
vn 1 0 0 
vn 1 0 0 
vn 1 0 0 
vn 1 0 0 
vn 1 0 0 
vn 1 0 0 
vn 1 0 0 
vn 1 0 0 
vn 1 0 0 
vn 1 0 0 
vn 1 0 0 
vn 1 0 0 
vn 1 0 0 
vn 1 0 0 
vn 1 0 0 
vn 1 0 0 
vn 1 0 0 
vn 1 0 0 
vn 1 0 0 
vn 1 0 0 
vn 1 0 0 
vn 1 0 0 
vn 1 0 0 
vn 1 0 0 
vn 1 0 0 
vn 1 0 0 
vn 1 0 0 
vn 1 0 0 
vn 1 0 0 
vn 1 0 0 
vn 1 0 0 
vn 1 0 0 
vn 1 0 0 
vn 1 0 0 
vn 1 0 0 
vn 1 0 0 
vn 1 0 0 
vn 1 0 0 
vn 1 0 0 
vn 1 0 0 
vn 1 0 0 
vn 1 0 0 
vn 1 0 0 
f 1//1 2//2 3//3 
f 3//3 4//4 1//1 
f 4//4 5//5 1//1 
f 5//5 6//6 1//1 
f 6//6 7//7 1//1 
f 7//7 8//8 1//1 
f 8//8 9//9 1//1 
f 9//9 10//10 1//1 
f 10//10 11//11 1//1 
f 11//11 12//12 1//1 
f 12//12 13//13 1//1 
f 13//13 14//14 1//1 
f 14//14 15//15 1//1 
f 15//15 16//16 1//1 
f 16//16 17//17 1//1 
f 17//17 18//18 1//1 
f 18//18 19//19 1//1 
f 19//19 20//20 1//1 
f 20//20 21//21 1//1 
f 21//21 22//22 1//1 
f 22//22 23//23 1//1 
f 23//23 24//24 1//1 
f 24//24 25//25 1//1 
f 25//25 26//26 1//1 
f 26//26 27//27 1//1 
f 27//27 28//28 1//1 
f 28//28 29//29 1//1 
f 29//29 30//30 1//1 
f 30//30 31//31 1//1 
f 31//31 32//32 1//1 
f 32//32 33//33 1//1 
f 33//33 34//34 1//1 
f 34//34 35//35 1//1 
f 35//35 36//36 1//1 
f 36//36 37//37 1//1 
f 37//37 38//38 1//1 
f 38//38 39//39 1//1 
f 39//39 40//40 1//1 
f 40//40 41//41 1//1 
f 41//41 42//42 1//1 
f 42//42 43//43 1//1 
f 43//43 44//44 1//1 
f 44//44 45//45 1//1 
f 45//45 46//46 1//1 
f 46//46 47//47 1//1 
f 47//47 48//48 1//1 
f 48//48 49//49 1//1 
f 49//49 50//50 1//1 
f 50//50 51//51 1//1 
f 51//51 52//52 1//1 
f 52//52 53//53 1//1 
f 53//53 54//54 1//1 
f 54//54 55//55 1//1 
f 55//55 56//56 1//1 
f 56//56 57//57 1//1 
f 57//57 58//58 1//1 
f 58//58 59//59 1//1 
f 59//59 2//2 1//1 
o mesh8310
v 0.163843 0.172219 0.0784316 
v 0.163843 0.172238 0.0783894 
v 0.163778 0.172236 0.0783935 
v 0.163778 0.172237 0.0783893 
v 0.163778 0.172218 0.078433 
v 0.163778 0.172198 0.0784685 
v 0.163843 0.172196 0.0784716 
v 0.163778 0.172219 0.0784315 
v 0.163778 0.172219 0.0784323 
v 0.163778 0.172193 0.0784757 
v 0.163778 0.172175 0.0785022 
v 0.163843 0.17217 0.0785089 
v 0.163778 0.172196 0.0784715 
v 0.163778 0.172162 0.0785166 
v 0.163778 0.172146 0.0785351 
v 0.163843 0.172139 0.078543 
v 0.163778 0.172169 0.0785087 
v 0.163843 0.172104 0.0785737 
v 0.163778 0.172125 0.0785548 
v 0.163778 0.172113 0.0785659 
v 0.163778 0.172138 0.0785426 
v 0.163843 0.172067 0.0786004 
v 0.163778 0.172083 0.0785892 
v 0.163778 0.172078 0.0785929 
v 0.163778 0.172104 0.0785731 
v 0.163843 0.172027 0.0786229 
v 0.163778 0.172041 0.0786154 
v 0.163778 0.172035 0.0786181 
v 0.163778 0.172067 0.0785998 
v 0.163778 0.172027 0.0786224 
v 0.163778 0.172004 0.0786335 
v 0.163843 0.171984 0.078641 
v 0.163843 0.17194 0.0786543 
v 0.163778 0.171965 0.0786476 
v 0.163778 0.171984 0.0786405 
v 0.163843 0.171895 0.0786629 
v 0.163778 0.171925 0.0786577 
v 0.163778 0.171931 0.0786562 
v 0.163778 0.17194 0.0786538 
v 0.163843 0.171849 0.0786665 
v 0.163778 0.171876 0.0786646 
v 0.163778 0.171879 0.0786644 
v 0.163778 0.171895 0.0786621 
v 0.163778 0.171834 0.0786663 
v 0.163778 0.171821 0.0786656 
v 0.163778 0.171849 0.0786657 
v 0.163843 0.171803 0.0786651 
v 0.163843 0.171758 0.0786587 
v 0.163778 0.17179 0.0786637 
v 0.163778 0.171768 0.0786601 
v 0.163778 0.171803 0.0786645 
v 0.163843 0.171713 0.0786475 
v 0.163778 0.171747 0.0786565 
v 0.163778 0.171718 0.0786487 
v 0.163778 0.171758 0.0786584 
v 0.163843 0.17167 0.0786315 
v 0.163778 0.171707 0.0786458 
v 0.163778 0.171672 0.078632 
v 0.163778 0.171713 0.0786473 
v 0.163843 0.171629 0.0786109 
v 0.163778 0.171669 0.0786308 
v 0.163778 0.17167 0.0786314 
v 0.163843 0.17159 0.078586 
v 0.163778 0.171627 0.0786096 
v 0.163778 0.171629 0.0786107 
v 0.163778 0.171591 0.0785867 
v 0.163843 0.171554 0.0785571 
v 0.163778 0.171573 0.0785732 
v 0.163778 0.17159 0.078586 
v 0.163843 0.171522 0.0785245 
v 0.163778 0.17154 0.078544 
v 0.163778 0.171555 0.0785567 
v 0.163843 0.171493 0.0784885 
v 0.163778 0.171511 0.0785115 
v 0.163778 0.171522 0.0785241 
v 0.163778 0.171502 0.0785001 
v 0.163843 0.171468 0.0784497 
v 0.163778 0.171485 0.078476 
v 0.163778 0.171494 0.0784882 
v 0.163843 0.171448 0.0784084 
v 0.163778 0.171462 0.0784381 
v 0.163778 0.171469 0.0784494 
v 0.163778 0.171444 0.0783981 
v 0.163778 0.17144 0.0783868 
v 0.163843 0.171432 0.0783651 
v 0.163778 0.171449 0.0784082 
v 0.163843 0.171421 0.0783204 
v 0.163778 0.17143 0.0783565 
v 0.163778 0.171433 0.078365 
v 0.163843 0.171415 0.0782748 
v 0.163778 0.17142 0.0783136 
v 0.163778 0.171422 0.0783204 
v 0.163843 0.171414 0.0782288 
v 0.163778 0.171415 0.0782601 
v 0.163778 0.171416 0.0782748 
v 0.163778 0.171415 0.0782699 
v 0.163843 0.171418 0.078183 
v 0.163778 0.171414 0.0782258 
v 0.163778 0.171414 0.0782288 
v 0.163843 0.171427 0.0781378 
v 0.163778 0.171418 0.078182 
v 0.163778 0.171418 0.078183 
v 0.163778 0.171427 0.0781367 
v 0.163778 0.171435 0.0781115 
v 0.163843 0.171441 0.0780938 
v 0.163778 0.171427 0.0781378 
v 0.163778 0.171441 0.0780941 
v 0.163778 0.17145 0.0780714 
v 0.163843 0.171459 0.0780516 
v 0.163843 0.171482 0.0780116 
v 0.163778 0.171468 0.0780337 
v 0.163778 0.171459 0.0780519 
v 0.163778 0.17146 0.0780504 
v 0.163843 0.171509 0.0779743 
v 0.163778 0.17149 0.0779989 
v 0.163778 0.171482 0.0780119 
v 0.163843 0.171539 0.0779402 
v 0.163778 0.171516 0.0779656 
v 0.163778 0.171509 0.0779746 
v 0.163778 0.171515 0.0779662 
v 0.163843 0.171574 0.0779096 
v 0.163778 0.171553 0.0779283 
v 0.163778 0.171547 0.0779334 
v 0.163778 0.17154 0.0779406 
v 0.163778 0.171581 0.0779043 
v 0.163778 0.171596 0.0778943 
v 0.163843 0.171611 0.0778828 
v 0.163778 0.171574 0.0779101 
v 0.163778 0.171617 0.0778793 
v 0.163778 0.171643 0.0778653 
v 0.163843 0.171651 0.0778603 
v 0.163778 0.171612 0.0778833 
v 0.163843 0.171694 0.0778422 
v 0.163778 0.171654 0.077859 
v 0.163778 0.171652 0.0778605 
v 0.163843 0.171738 0.0778289 
v 0.163778 0.171713 0.0778357 
v 0.163778 0.171694 0.0778422 
v 0.163843 0.171783 0.0778203 
v 0.163778 0.171753 0.0778256 
v 0.163778 0.171738 0.0778294 
v 0.163778 0.171747 0.077827 
v 0.163843 0.171829 0.0778167 
v 0.163778 0.171802 0.0778187 
v 0.163778 0.171799 0.0778188 
v 0.163778 0.171783 0.0778212 
v 0.163778 0.171844 0.0778169 
v 0.163778 0.171857 0.0778177 
v 0.163843 0.171875 0.0778181 
v 0.163778 0.171829 0.0778176 
v 0.163843 0.17192 0.0778245 
v 0.163778 0.171888 0.0778195 
v 0.163778 0.17191 0.0778232 
v 0.163778 0.171875 0.0778187 
v 0.163843 0.171965 0.0778357 
v 0.163778 0.171931 0.0778267 
v 0.163778 0.17196 0.0778346 
v 0.163778 0.17192 0.0778249 
v 0.163843 0.172008 0.0778517 
v 0.163778 0.171971 0.0778374 
v 0.163778 0.172007 0.0778512 
v 0.163778 0.171965 0.0778359 
v 0.163843 0.172049 0.0778723 
v 0.163778 0.172009 0.0778523 
v 0.163778 0.172008 0.0778518 
v 0.163843 0.172088 0.0778972 
v 0.163778 0.172051 0.0778736 
v 0.163778 0.172049 0.0778725 
v 0.163778 0.172087 0.0778965 
v 0.163778 0.172088 0.0778972 
v 0.163778 0.172123 0.0779255 
v 0.163843 0.172124 0.0779261 
v 0.163778 0.172124 0.0779261 
v 0.163778 0.172154 0.0779565 
v 0.163843 0.172156 0.0779587 
v 0.163843 0.172185 0.0779947 
v 0.163778 0.172176 0.0779831 
v 0.163778 0.172182 0.0779907 
v 0.163778 0.172156 0.0779588 
v 0.163778 0.172185 0.0779948 
v 0.163778 0.172206 0.0780275 
v 0.163843 0.17221 0.0780336 
v 0.163778 0.172209 0.0780337 
v 0.163778 0.172226 0.0780666 
v 0.163843 0.17223 0.0780748 
v 0.163843 0.172246 0.0781181 
v 0.163778 0.172238 0.0780964 
v 0.163778 0.17223 0.078075 
v 0.163778 0.172242 0.0781075 
v 0.163778 0.172245 0.0781182 
v 0.163778 0.172254 0.0781499 
v 0.163843 0.172257 0.0781628 
v 0.163778 0.172256 0.0781629 
v 0.163778 0.172261 0.0781933 
v 0.163843 0.172263 0.0782084 
v 0.163778 0.172263 0.0782231 
v 0.163778 0.172264 0.0782373 
v 0.163843 0.172264 0.0782544 
v 0.163778 0.172262 0.0782084 
v 0.163778 0.172263 0.0782544 
v 0.163778 0.172262 0.0782812 
v 0.163843 0.17226 0.0783002 
v 0.163778 0.172259 0.0783002 
v 0.163778 0.172256 0.0783248 
v 0.163843 0.172251 0.0783454 
v 0.163778 0.172249 0.0783529 
v 0.163778 0.172251 0.0783465 
v 0.163778 0.172251 0.0783454 
vn 0 0.894531 0.447006 
vn 0 0.937617 0.347669 
vn 0 0.933958 0.357383 
vn 0 0.937609 0.347693 
vn 0 0.892759 0.450535 
vn 0 0.845587 0.533838 
vn 0 0.840958 0.541101 
vn 0 0.894526 0.447015 
vn 0 0.893599 0.448867 
vn 0 0.834331 0.551264 
vn 0 0.790106 0.61297 
vn 0 0.777525 0.628853 
vn 0 0.840964 0.541092 
vn 0 0.761661 0.647976 
vn 0 0.72314 0.690701 
vn 0 0.704976 0.709231 
vn 0 0.77754 0.628833 
vn 0 0.624162 0.781295 
vn 0 0.674509 0.738267 
vn 0 0.645932 0.763395 
vn 0 0.705005 0.709203 
vn 0 0.53603 0.844199 
vn 0 0.573979 0.81887 
vn 0 0.561998 0.827139 
vn 0 0.624195 0.781268 
vn 0 0.441614 0.897205 
vn 0 0.475171 0.879893 
vn 0 0.462291 0.886728 
vn 0 0.536053 0.844184 
vn 0 0.441622 0.897201 
vn 0 0.3872 0.921996 
vn 0 0.34202 0.939693 
vn 0 0.238417 0.971163 
vn 0 0.295574 0.95532 
vn 0 0.34202 0.939693 
vn 0 0.132018 0.991247 
vn 0 0.202215 0.979341 
vn 0 0.215843 0.976428 
vn 0 0.238408 0.971165 
vn 0 0.0240712 0.99971 
vn 0 0.0866584 0.996238 
vn 0 0.0941461 0.995558 
vn 0 0.131992 0.991251 
vn 0 -0.0129575 0.999916 
vn 0 -0.0421503 0.999111 
vn 0 0.0240375 0.999711 
vn 0 -0.0841576 0.996452 
vn 0 -0.1914 0.981512 
vn 0 -0.115092 0.993355 
vn 0 -0.166948 0.985966 
vn 0 -0.0841911 0.99645 
vn 0 -0.296398 0.955065 
vn 0 -0.217696 0.976017 
vn 0 -0.284787 0.958591 
vn 0 -0.191426 0.981507 
vn 0 -0.397921 0.91742 
vn 0 -0.309583 0.950872 
vn 0 -0.394303 0.918981 
vn 0 -0.296413 0.95506 
vn 0 -0.494779 0.869019 
vn 0 -0.401206 0.915988 
vn 0 -0.397933 0.917415 
vn 0 -0.585836 0.81043 
vn 0 -0.500005 0.866022 
vn 0 -0.4948 0.869007 
vn 0 -0.583727 0.81195 
vn 0 -0.670025 0.742339 
vn 0 -0.625457 0.780258 
vn 0 -0.585835 0.810431 
vn 0 -0.746358 0.665545 
vn 0 -0.702778 0.711409 
vn 0 -0.670031 0.742333 
vn 0 -0.813941 0.580948 
vn 0 -0.772506 0.635007 
vn 0 -0.746368 0.665534 
vn 0 -0.793292 0.608841 
vn 0 -0.871981 0.48954 
vn 0 -0.834138 0.551555 
vn 0 -0.813952 0.580932 
vn 0 -0.919798 0.392392 
vn 0 -0.886683 0.462377 
vn 0 -0.871992 0.489519 
vn 0 -0.929705 0.368306 
vn 0 -0.939683 0.342045 
vn 0 -0.956831 0.290645 
vn 0 -0.919808 0.392369 
vn 0 -0.982646 0.185489 
vn 0 -0.962791 0.270248 
vn 0 -0.956839 0.290619 
vn 0 -0.996941 0.0781591 
vn 0 -0.985564 0.1693 
vn 0 -0.982651 0.185464 
vn 0 -0.999547 -0.0300873 
vn 0 -0.999051 0.0435649 
vn 0 -0.996943 0.0781378 
vn 0 -0.997782 0.0665731 
vn 0 -0.990435 -0.137981 
vn 0 -0.99931 -0.0371372 
vn 0 -0.999547 -0.0301026 
vn 0 -0.969711 -0.244257 
vn 0 -0.990124 -0.140197 
vn 0 -0.990434 -0.137987 
vn 0 -0.969072 -0.246777 
vn 0 -0.951974 -0.306179 
vn 0 -0.937617 -0.347669 
vn 0 -0.969709 -0.244264 
vn 0 -0.937621 -0.347659 
vn 0 -0.916256 -0.400592 
vn 0 -0.894531 -0.447006 
vn 0 -0.840958 -0.541101 
vn 0 -0.872144 -0.489249 
vn 0 -0.894529 -0.44701 
vn 0 -0.892749 -0.450555 
vn 0 -0.777525 -0.628853 
vn 0 -0.82098 -0.570957 
vn 0 -0.840949 -0.541114 
vn 0 -0.704976 -0.709231 
vn 0 -0.760383 -0.649475 
vn 0 -0.777511 -0.628869 
vn 0 -0.761636 -0.648006 
vn 0 -0.624162 -0.781295 
vn 0 -0.674523 -0.738254 
vn 0 -0.688276 -0.725449 
vn 0 -0.704952 -0.709255 
vn 0 -0.607459 -0.794351 
vn 0 -0.57399 -0.818862 
vn 0 -0.53603 -0.844199 
vn 0 -0.624124 -0.781325 
vn 0 -0.521735 -0.853107 
vn 0 -0.462241 -0.886754 
vn 0 -0.441614 -0.897205 
vn 0 -0.535986 -0.844227 
vn 0 -0.34202 -0.939693 
vn 0 -0.434859 -0.900499 
vn 0 -0.441587 -0.897218 
vn 0 -0.238417 -0.971163 
vn 0 -0.295982 -0.955194 
vn 0 -0.34202 -0.939693 
vn 0 -0.132018 -0.991247 
vn 0 -0.202696 -0.979242 
vn 0 -0.238406 -0.971166 
vn 0 -0.215857 -0.976425 
vn 0 -0.0240712 -0.99971 
vn 0 -0.0866811 -0.996236 
vn 0 -0.0946404 -0.995512 
vn 0 -0.13199 -0.991251 
vn 0 0.0124937 -0.999922 
vn 0 0.042126 -0.999112 
vn 0 0.0841576 -0.996452 
vn 0 -0.0240346 -0.999711 
vn 0 0.1914 -0.981512 
vn 0 0.114672 -0.993403 
vn 0 0.166926 -0.985969 
vn 0 0.0841942 -0.996449 
vn 0 0.296398 -0.955065 
vn 0 0.217328 -0.976099 
vn 0 0.284771 -0.958595 
vn 0 0.191429 -0.981507 
vn 0 0.397921 -0.91742 
vn 0 0.309263 -0.950976 
vn 0 0.394294 -0.918984 
vn 0 0.296415 -0.955059 
vn 0 0.494779 -0.869019 
vn 0 0.400956 -0.916097 
vn 0 0.397935 -0.917414 
vn 0 0.585836 -0.81043 
vn 0 0.499898 -0.866084 
vn 0 0.494802 -0.869006 
vn 0 0.583727 -0.81195 
vn 0 0.58583 -0.810434 
vn 0 0.668362 -0.743837 
vn 0 0.670025 -0.742339 
vn 0 0.67002 -0.742343 
vn 0 0.741645 -0.670793 
vn 0 0.746358 -0.665545 
vn 0 0.813941 -0.580948 
vn 0 0.79332 -0.608805 
vn 0 0.807137 -0.590364 
vn 0 0.746348 -0.665556 
vn 0 0.813928 -0.580965 
vn 0 0.86381 -0.503817 
vn 0 0.871981 -0.48954 
vn 0 0.871969 -0.489562 
vn 0 0.911252 -0.411848 
vn 0 0.919798 -0.392392 
vn 0 0.956831 -0.290645 
vn 0 0.939702 -0.341995 
vn 0 0.919787 -0.392417 
vn 0 0.948938 -0.315464 
vn 0 0.956824 -0.290669 
vn 0 0.976449 -0.215747 
vn 0 0.982646 -0.185489 
vn 0 0.982642 -0.185512 
vn 0 0.99352 -0.113658 
vn 0 0.996941 -0.0781591 
vn 0 0.999053 -0.0435191 
vn 0 0.999949 -0.0101135 
vn 0 0.999547 0.0300873 
vn 0 0.996939 -0.0781788 
vn 0 0.999548 0.0300727 
vn 0 0.995644 0.0932335 
vn 0 0.990435 0.137981 
vn 0 0.990436 0.137972 
vn 0 0.980669 0.195676 
vn 0 0.969711 0.244257 
vn 0 0.965102 0.261874 
vn 0 0.969072 0.246777 
vn 0 0.96971 0.244259 
f 60//60 61//61 62//62 
f 61//61 63//63 62//62 
f 60//60 64//64 65//65 
f 65//65 66//66 60//60 
f 60//60 67//67 68//68 
f 68//68 64//64 60//60 
f 66//66 69//69 70//70 
f 70//70 71//71 66//66 
f 66//66 72//72 69//69 
f 71//71 73//73 74//74 
f 74//74 75//75 71//71 
f 71//71 76//76 73//73 
f 77//77 75//75 78//78 
f 78//78 79//79 77//77 
f 75//75 80//80 78//78 
f 81//81 82//82 83//83 
f 77//77 84//84 82//82 
f 82//82 81//81 77//77 
f 85//85 86//86 87//87 
f 81//81 88//88 86//86 
f 86//86 85//85 81//81 
f 85//85 89//89 90//90 
f 90//90 91//91 85//85 
f 92//92 91//91 93//93 
f 91//91 94//94 93//93 
f 95//95 92//92 96//96 
f 92//92 97//97 96//96 
f 92//92 98//98 97//97 
f 99//99 95//95 100//100 
f 95//95 101//101 100//100 
f 95//95 102//102 101//101 
f 99//99 103//103 104//104 
f 99//99 105//105 103//103 
f 104//104 106//106 99//99 
f 107//107 106//106 108//108 
f 108//108 109//109 107//107 
f 106//106 110//110 108//108 
f 111//111 107//107 112//112 
f 112//112 113//113 111//111 
f 107//107 114//114 112//112 
f 115//115 111//111 116//116 
f 116//116 117//117 115//115 
f 111//111 118//118 116//116 
f 119//119 115//115 120//120 
f 115//115 121//121 120//120 
f 122//122 119//119 123//123 
f 119//119 124//124 123//123 
f 123//123 125//125 122//122 
f 126//126 122//122 127//127 
f 122//122 128//128 127//127 
f 129//129 126//126 130//130 
f 126//126 131//131 130//130 
f 132//132 129//129 133//133 
f 129//129 134//134 133//133 
f 133//133 135//135 132//132 
f 136//136 132//132 137//137 
f 132//132 138//138 137//137 
f 139//139 136//136 140//140 
f 136//136 141//141 140//140 
f 139//139 142//142 143//143 
f 143//143 144//144 139//139 
f 139//139 145//145 142//142 
f 146//146 144//144 147//147 
f 144//144 148//148 147//147 
f 149//149 146//146 150//150 
f 146//146 151//151 150//150 
f 152//152 149//149 153//153 
f 149//149 154//154 155//155 
f 155//155 153//153 149//149 
f 156//156 152//152 157//157 
f 152//152 158//158 157//157 
f 159//159 156//156 160//160 
f 156//156 161//161 160//160 
f 159//159 162//162 163//163 
f 163//163 164//164 159//159 
f 159//159 165//165 162//162 
f 164//164 166//166 167//167 
f 167//167 168//168 164//164 
f 169//169 168//168 170//170 
f 168//168 171//171 172//172 
f 172//172 170//170 168//168 
f 173//173 169//169 174//174 
f 169//169 175//175 174//174 
f 176//176 173//173 177//177 
f 173//173 178//178 179//179 
f 179//179 177//177 173//173 
f 180//180 176//176 181//181 
f 176//176 182//182 181//181 
f 176//176 183//183 182//182 
f 180//180 184//184 185//185 
f 185//185 186//186 180//180 
f 180//180 187//187 184//184 
f 186//186 188//188 189//189 
f 189//189 190//190 186//186 
f 186//186 191//191 188//188 
f 192//192 190//190 193//193 
f 190//190 194//194 193//193 
f 195//195 192//192 196//196 
f 192//192 197//197 196//196 
f 198//198 195//195 199//199 
f 195//195 200//200 201//201 
f 201//201 199//199 195//195 
f 202//202 198//198 203//203 
f 198//198 204//204 203//203 
f 198//198 205//205 204//204 
f 202//202 206//206 207//207 
f 207//207 208//208 202//202 
f 202//202 209//209 206//206 
f 210//210 208//208 211//211 
f 211//211 212//212 210//210 
f 208//208 213//213 211//211 
f 214//214 210//210 215//215 
f 215//215 216//216 214//214 
f 210//210 217//217 215//215 
f 218//218 214//214 219//219 
f 219//219 220//220 218//218 
f 214//214 221//221 219//219 
f 222//222 218//218 223//223 
f 218//218 224//224 223//223 
f 225//225 222//222 226//226 
f 222//222 227//227 226//226 
f 226//226 228//228 225//225 
f 225//225 229//229 230//230 
f 230//230 231//231 225//225 
f 231//231 232//232 233//233 
f 233//233 234//234 231//231 
f 235//235 236//236 237//237 
f 234//234 238//238 236//236 
f 236//236 235//235 234//234 
f 235//235 239//239 240//240 
f 240//240 241//241 235//235 
f 241//241 242//242 243//243 
f 243//243 244//244 241//241 
f 245//245 244//244 246//246 
f 244//244 247//247 246//246 
f 246//246 248//248 245//245 
f 245//245 249//249 250//250 
f 250//250 251//251 245//245 
f 251//251 252//252 253//253 
f 253//253 254//254 251//251 
f 254//254 255//255 256//256 
f 256//256 257//257 254//254 
f 254//254 258//258 255//255 
f 257//257 259//259 260//260 
f 260//260 261//261 257//257 
f 261//261 262//262 263//263 
f 263//263 264//264 261//261 
f 61//61 264//264 265//265 
f 264//264 266//266 265//265 
f 264//264 267//267 266//266 
f 265//265 63//63 61//61 
f 263//263 267//267 264//264 
f 260//260 262//262 261//261 
f 256//256 259//259 257//257 
f 253//253 258//258 254//254 
f 250//250 252//252 251//251 
f 248//248 249//249 245//245 
f 243//243 247//247 244//244 
f 240//240 242//242 241//241 
f 237//237 239//239 235//235 
f 233//233 238//238 234//234 
f 230//230 232//232 231//231 
f 228//228 229//229 225//225 
f 223//223 227//227 222//222 
f 220//220 224//224 218//218 
f 216//216 221//221 214//214 
f 212//212 217//217 210//210 
f 207//207 213//213 208//208 
f 203//203 209//209 202//202 
f 199//199 205//205 198//198 
f 196//196 200//200 195//195 
f 193//193 197//197 192//192 
f 189//189 194//194 190//190 
f 185//185 191//191 186//186 
f 181//181 187//187 180//180 
f 177//177 183//183 176//176 
f 174//174 178//178 173//173 
f 170//170 175//175 169//169 
f 167//167 171//171 168//168 
f 163//163 166//166 164//164 
f 160//160 165//165 159//159 
f 157//157 161//161 156//156 
f 153//153 158//158 152//152 
f 150//150 154//154 149//149 
f 147//147 151//151 146//146 
f 143//143 148//148 144//144 
f 140//140 145//145 139//139 
f 137//137 141//141 136//136 
f 135//135 138//138 132//132 
f 130//130 134//134 129//129 
f 127//127 131//131 126//126 
f 125//125 128//128 122//122 
f 120//120 124//124 119//119 
f 117//117 121//121 115//115 
f 113//113 118//118 111//111 
f 109//109 114//114 107//107 
f 104//104 110//110 106//106 
f 100//100 105//105 99//99 
f 96//96 102//102 95//95 
f 93//93 98//98 92//92 
f 90//90 94//94 91//91 
f 87//87 89//89 85//85 
f 83//83 88//88 81//81 
f 79//79 84//84 77//77 
f 74//74 80//80 75//75 
f 70//70 76//76 71//71 
f 65//65 72//72 66//66 
f 62//62 67//67 60//60 
o mesh8311
v 0.163704 0.171005 0.0780946 
v 0.163704 0.171006 0.0780948 
v 0.163704 0.171048 0.0782628 
v 0.163628 0.170806 0.0786178 
v 0.163628 0.170587 0.0780163 
v 0.163701 0.170989 0.0780917 
v 0.163778 0.171414 0.0782258 
v 0.163778 0.171414 0.0782288 
v 0.163778 0.171418 0.078183 
v 0.163778 0.171418 0.078182 
v 0.163743 0.171226 0.0781243 
v 0.163778 0.171427 0.0781367 
v 0.163778 0.171427 0.0781378 
v 0.163741 0.171214 0.0781232 
v 0.163704 0.171125 0.0785017 
v 0.163778 0.17143 0.0783565 
v 0.163778 0.171433 0.078365 
v 0.163778 0.17142 0.0783136 
v 0.163778 0.171422 0.0783204 
v 0.163778 0.171415 0.0782699 
v 0.163778 0.171416 0.0782748 
v 0.163778 0.171415 0.0782601 
v 0.163704 0.17122 0.0787337 
v 0.163778 0.171485 0.078476 
v 0.163778 0.171494 0.0784882 
v 0.163778 0.171462 0.0784381 
v 0.163778 0.171469 0.0784494 
v 0.163778 0.171444 0.0783981 
v 0.163778 0.171449 0.0784082 
v 0.163778 0.17144 0.0783868 
v 0.163743 0.171445 0.0787258 
v 0.163778 0.171573 0.0785732 
v 0.163778 0.17159 0.078586 
v 0.163778 0.171555 0.0785567 
v 0.163741 0.171437 0.0787338 
v 0.163778 0.17154 0.078544 
v 0.163704 0.171295 0.0788897 
v 0.163778 0.171522 0.0785241 
v 0.163778 0.171511 0.0785115 
v 0.163778 0.171502 0.0785001 
v 0.163704 0.171294 0.0788906 
v 0.163701 0.171284 0.0789028 
v 0.163628 0.171025 0.0792192 
v 0.163778 0.171591 0.0785867 
vn 0.981904 -0.18461 0.0422231 
vn 0.981915 -0.184582 0.0421001 
vn 0.978534 -0.198562 0.0551751 
vn 0.976187 -0.203848 0.0741946 
vn 0.979546 -0.189089 0.068813 
vn 0.981798 -0.18485 0.0436292 
vn 0.981707 -0.190298 -0.00623556 
vn 0.981546 -0.191159 -0.00500331 
vn 0.984062 -0.176254 -0.023594 
vn 0.984114 -0.175917 -0.0239425 
vn 0.983989 -0.177742 0.0132044 
vn 0.98658 -0.158134 -0.0406629 
vn 0.986523 -0.158579 -0.0403017 
vn 0.983855 -0.178319 0.015226 
vn 0.976187 -0.203848 0.0741946 
vn 0.976452 -0.207949 0.0574261 
vn 0.976325 -0.207193 0.0621315 
vn 0.977603 -0.207565 0.0347612 
vn 0.977368 -0.208061 0.0382434 
vn 0.979446 -0.20126 0.0133999 
vn 0.979215 -0.202221 0.0156585 
vn 0.979923 -0.199179 0.00886763 
vn 0.978534 -0.187573 0.0853665 
vn 0.978536 -0.171636 0.114052 
vn 0.979215 -0.164941 0.118036 
vn 0.976975 -0.188692 0.0995746 
vn 0.977368 -0.18396 0.104458 
vn 0.976224 -0.20136 0.0802492 
vn 0.976325 -0.198661 0.085578 
vn 0.976187 -0.203848 0.0741946 
vn 0.983988 -0.144656 0.104128 
vn 0.985411 -0.10683 0.132488 
vn 0.986523 -0.0955823 0.1328 
vn 0.984063 -0.119737 0.131466 
vn 0.983855 -0.146386 0.102958 
vn 0.98301 -0.129732 0.129852 
vn 0.981915 -0.168459 0.0863965 
vn 0.981547 -0.143149 0.126782 
vn 0.980644 -0.15157 0.123954 
vn 0.979923 -0.158279 0.121238 
vn 0.981904 -0.16856 0.0863206 
vn 0.981797 -0.169653 0.0853925 
vn 0.979546 -0.189082 0.0688301 
vn 0.98658 -0.0949997 0.132796 
f 268//268 269//269 270//270 
f 271//271 272//272 273//273 
f 273//273 268//268 271//271 
f 270//270 271//271 268//268 
f 270//270 274//274 275//275 
f 269//269 276//276 274//274 
f 269//269 277//277 276//276 
f 274//274 270//270 269//269 
f 278//278 279//279 280//280 
f 277//277 281//281 278//278 
f 277//277 269//269 281//281 
f 280//280 277//277 278//278 
f 282//282 283//283 284//284 
f 282//282 270//270 285//285 
f 285//285 286//286 282//282 
f 286//286 283//283 282//282 
f 270//270 287//287 288//288 
f 288//288 285//285 270//270 
f 270//270 289//289 287//287 
f 290//290 291//291 292//292 
f 290//290 282//282 293//293 
f 293//293 294//294 290//290 
f 282//282 295//295 296//296 
f 282//282 297//297 295//295 
f 296//296 293//293 282//282 
f 294//294 291//291 290//290 
f 298//298 299//299 300//300 
f 301//301 299//299 298//298 
f 302//302 303//303 301//301 
f 298//298 302//302 301//301 
f 302//302 304//304 303//303 
f 290//290 305//305 303//303 
f 290//290 306//306 305//305 
f 303//303 304//304 290//290 
f 290//290 307//307 306//306 
f 271//271 308//308 309//309 
f 308//308 271//271 290//290 
f 290//290 304//304 308//308 
f 271//271 282//282 290//290 
f 309//309 310//310 271//271 
f 300//300 311//311 298//298 
f 292//292 307//307 290//290 
f 284//284 297//297 282//282 
f 275//275 289//289 270//270 
f 270//270 282//282 271//271 
o mesh8312
v 0.163702 0.171338 0.078945 
v 0.163778 0.171591 0.0785867 
v 0.163739 0.17148 0.0787811 
v 0.163663 0.171213 0.0791203 
v 0.163699 0.171366 0.0789659 
v 0.163659 0.171247 0.0791454 
v 0.163696 0.171379 0.0789762 
v 0.163702 0.171311 0.0789238 
v 0.163704 0.171295 0.0788897 
v 0.163741 0.171437 0.0787338 
v 0.163743 0.171445 0.0787258 
v 0.163701 0.171284 0.0789028 
v 0.163704 0.171294 0.0788906 
v 0.163759 0.171547 0.0786861 
v 0.163743 0.171512 0.0787641 
v 0.163778 0.171591 0.0785867 
v 0.163741 0.171506 0.0787759 
v 0.163736 0.171496 0.078798 
v 0.163737 0.171497 0.0787942 
v 0.163705 0.171422 0.0789353 
v 0.163703 0.171418 0.0789422 
v 0.163693 0.171392 0.0789855 
v 0.163655 0.171264 0.0791576 
v 0.163666 0.171321 0.079104 
v 0.163658 0.171301 0.0791362 
v 0.16365 0.17128 0.0791692 
v 0.163628 0.171219 0.0792648 
v 0.163628 0.171184 0.0792757 
v 0.163628 0.171158 0.0792817 
v 0.163628 0.171186 0.079275 
v 0.163628 0.171109 0.0792847 
v 0.163628 0.171097 0.0792831 
v 0.163628 0.171122 0.0792853 
v 0.163628 0.171154 0.0792823 
v 0.163628 0.171138 0.0792845 
v 0.163628 0.17107 0.0792739 
v 0.163628 0.171062 0.0792692 
v 0.163628 0.171078 0.0792776 
v 0.163628 0.171055 0.079264 
v 0.163628 0.171087 0.0792807 
v 0.163628 0.171096 0.0792828 
v 0.163628 0.171052 0.0792615 
v 0.163628 0.171027 0.0792261 
v 0.163628 0.171025 0.0792192 
v 0.163628 0.171048 0.0792581 
v 0.163628 0.171042 0.0792516 
v 0.163628 0.171037 0.0792442 
v 0.163628 0.171032 0.0792358 
v 0.163778 0.171591 0.0785867 
v 0.163778 0.171591 0.0785867 
vn 0.983504 -0.0638296 0.169248 
vn 0.985899 -0.0822424 0.145736 
vn 0.982513 -0.0450061 0.180672 
vn 0.982528 -0.0476265 0.179917 
vn 0.977797 -0.0121533 0.2092 
vn 0.972663 0.0206036 0.231307 
vn 0.973331 0.0135587 0.229006 
vn 0.984879 -0.115582 0.129047 
vn 0.982177 -0.164786 0.0904147 
vn 0.984323 -0.144091 0.101713 
vn 0.984434 -0.142918 0.102298 
vn 0.981992 -0.166461 0.0893396 
vn 0.982159 -0.16495 0.0903044 
vn 0.983163 -0.038032 0.178728 
vn 0.980037 -0.0172047 0.198071 
vn 0.985754 -0.0648531 0.155186 
vn 0.979535 -0.0144949 0.200749 
vn 0.978547 -0.00927193 0.205817 
vn 0.978717 -0.0101524 0.204963 
vn 0.971139 0.0251564 0.237185 
vn 0.970766 0.0267241 0.238536 
vn 0.967882 0.0387943 0.248393 
vn 0.964994 0.0544248 0.256561 
vn 0.960135 0.0697961 0.270682 
vn 0.957734 0.079168 0.276548 
vn 0.955689 0.0874647 0.281084 
vn 0.951138 0.108372 0.289124 
vn 0.962134 0.0727066 0.262702 
vn 0.969165 0.0446774 0.242329 
vn 0.961428 0.0752414 0.264564 
vn 0.980148 -0.0173962 0.197501 
vn 0.982132 -0.0345211 0.184999 
vn 0.977659 0.000124134 0.210197 
vn 0.97034 0.0393821 0.238515 
vn 0.974169 0.0204908 0.224887 
vn 0.985221 -0.0785989 0.152191 
vn 0.985605 -0.093421 0.140911 
vn 0.984563 -0.0647421 0.162618 
vn 0.985661 -0.107289 0.130235 
vn 0.983559 -0.0501493 0.173483 
vn 0.98232 -0.0363685 0.183645 
vn 0.985596 -0.113132 0.125705 
vn 0.981242 -0.177915 0.0742366 
vn 0.979939 -0.188035 0.066046 
vn 0.985425 -0.121004 0.119561 
vn 0.984899 -0.134642 0.10884 
vn 0.984055 -0.148568 0.0977901 
vn 0.98286 -0.162888 0.0863364 
vn 0.986117 -0.115426 0.119377 
vn 0.986022 -0.0996289 0.133547 
f 312//312 313//313 314//314 
f 315//315 312//312 316//316 
f 317//317 316//316 318//318 
f 319//319 320//320 321//321 
f 321//321 322//322 319//319 
f 319//319 323//323 324//324 
f 324//324 320//320 319//319 
f 314//314 325//325 326//326 
f 314//314 327//327 325//325 
f 326//326 328//328 314//314 
f 316//316 314//314 329//329 
f 314//314 330//330 329//329 
f 318//318 329//329 331//331 
f 331//331 332//332 318//318 
f 332//332 333//333 318//318 
f 334//334 335//335 336//336 
f 318//318 333//333 335//335 
f 335//335 334//334 318//318 
f 334//334 337//337 338//338 
f 317//317 339//339 340//340 
f 317//317 334//334 341//341 
f 341//341 339//339 317//317 
f 315//315 342//342 343//343 
f 315//315 344//344 342//342 
f 315//315 317//317 345//345 
f 345//345 346//346 315//315 
f 346//346 344//344 315//315 
f 315//315 347//347 348//348 
f 315//315 349//349 347//347 
f 348//348 350//350 315//315 
f 315//315 351//351 349//349 
f 315//315 352//352 351//351 
f 319//319 312//312 315//315 
f 315//315 353//353 319//319 
f 319//319 354//354 355//355 
f 319//319 353//353 356//356 
f 356//356 357//357 319//319 
f 357//357 358//358 319//319 
f 358//358 359//359 319//319 
f 359//359 354//354 319//319 
f 355//355 323//323 319//319 
f 350//350 353//353 315//315 
f 343//343 352//352 315//315 
f 340//340 345//345 317//317 
f 338//338 341//341 334//334 
f 336//336 337//337 334//334 
f 329//329 318//318 316//316 
f 328//328 330//330 314//314 
f 322//322 360//360 319//319 
f 361//361 312//312 319//319 
f 318//318 334//334 317//317 
f 316//316 317//317 315//315 
f 314//314 316//316 312//312 
o mesh8313
v 0.163702 0.170996 0.0780587 
v 0.163702 0.171003 0.0780248 
v 0.16374 0.171213 0.0780799 
v 0.163659 0.170805 0.07793 
v 0.163655 0.17081 0.0779097 
v 0.163696 0.171015 0.0779745 
v 0.163663 0.170795 0.077971 
v 0.163699 0.171011 0.0779912 
v 0.163739 0.171218 0.0780589 
v 0.163628 0.17058 0.0779663 
v 0.163628 0.170582 0.0779579 
v 0.163628 0.170584 0.0779496 
v 0.163628 0.170588 0.0779415 
v 0.163628 0.170592 0.0779334 
v 0.163628 0.170598 0.0779253 
v 0.163628 0.1706 0.0779218 
v 0.163628 0.170635 0.0778909 
v 0.163628 0.170645 0.077885 
v 0.163628 0.17062 0.0779019 
v 0.163628 0.170609 0.0779118 
v 0.163628 0.170604 0.0779171 
v 0.163628 0.170656 0.0778785 
v 0.163628 0.170675 0.0778699 
v 0.163628 0.170687 0.0778642 
v 0.163628 0.170706 0.0778564 
v 0.163666 0.170888 0.0779142 
v 0.16365 0.170815 0.0778902 
v 0.163658 0.170852 0.077902 
v 0.163703 0.171066 0.0779758 
v 0.163705 0.171074 0.0779784 
v 0.163693 0.171018 0.0779593 
v 0.163736 0.171218 0.0780362 
v 0.163737 0.171222 0.0780379 
v 0.163741 0.171241 0.0780463 
v 0.163743 0.171253 0.0780515 
v 0.163759 0.17133 0.0780891 
v 0.163704 0.171006 0.0780948 
v 0.163704 0.171005 0.0780946 
v 0.163743 0.171226 0.0781243 
v 0.163741 0.171214 0.0781232 
v 0.163778 0.171427 0.0781367 
v 0.163628 0.17058 0.0779758 
v 0.163628 0.17058 0.0779665 
v 0.163628 0.17058 0.0779847 
v 0.163628 0.170581 0.0779942 
v 0.163628 0.170583 0.0780046 
v 0.163701 0.170989 0.0780917 
v 0.163628 0.170587 0.0780163 
v 0.163778 0.171427 0.0781367 
v 0.163778 0.171427 0.0781367 
vn 0.984879 -0.171492 -0.0245607 
vn 0.983505 -0.157689 -0.0886176 
vn 0.984699 -0.160443 -0.0680168 
vn 0.972665 -0.132901 -0.190422 
vn 0.964998 -0.123225 -0.231505 
vn 0.973332 -0.13682 -0.184132 
vn 0.982529 -0.152134 -0.107204 
vn 0.977798 -0.143785 -0.152435 
vn 0.982514 -0.150614 -0.10946 
vn 0.985597 -0.167457 -0.0235772 
vn 0.985667 -0.16379 -0.0404251 
vn 0.985447 -0.160005 -0.0573888 
vn 0.984937 -0.156137 -0.0742959 
vn 0.984115 -0.152087 -0.091582 
vn 0.982948 -0.147829 -0.10936 
vn 0.982321 -0.145904 -0.117293 
vn 0.973083 -0.127132 -0.192217 
vn 0.970344 -0.12315 -0.208005 
vn 0.977268 -0.134259 -0.164077 
vn 0.98013 -0.140226 -0.140295 
vn 0.981368 -0.143267 -0.128026 
vn 0.966942 -0.118682 -0.225694 
vn 0.961438 -0.112443 -0.250984 
vn 0.957447 -0.108428 -0.267469 
vn 0.951141 -0.102815 -0.291135 
vn 0.960139 -0.120527 -0.252203 
vn 0.955695 -0.113679 -0.271521 
vn 0.957746 -0.117129 -0.262686 
vn 0.970774 -0.132866 -0.199862 
vn 0.971137 -0.133191 -0.197871 
vn 0.967885 -0.129951 -0.215202 
vn 0.97855 -0.139408 -0.151677 
vn 0.978719 -0.139533 -0.150466 
vn 0.979548 -0.140158 -0.144366 
vn 0.980037 -0.140504 -0.14066 
vn 0.983176 -0.144039 -0.11233 
vn 0.982176 -0.184354 0.0366655 
vn 0.982158 -0.184409 0.0368559 
vn 0.984434 -0.175235 0.0134896 
vn 0.984323 -0.175761 0.0147001 
vn 0.986117 -0.165152 -0.0172611 
vn 0.985191 -0.171389 -0.00503186 
vn 0.985594 -0.167513 -0.0233169 
vn 0.984511 -0.174911 0.0119934 
vn 0.983479 -0.178536 0.0298965 
vn 0.982011 -0.18234 0.049048 
vn 0.981993 -0.184943 0.0385574 
vn 0.979942 -0.186484 0.0702645 
vn 0.985838 -0.153626 -0.0672444 
vn 0.986022 -0.162162 -0.0382598 
f 362//362 363//363 364//364 
f 365//365 366//366 367//367 
f 368//368 365//365 369//369 
f 363//363 369//369 370//370 
f 362//362 371//371 368//368 
f 368//368 371//371 372//372 
f 372//372 373//373 368//368 
f 373//373 374//374 368//368 
f 374//374 375//375 368//368 
f 375//375 376//376 368//368 
f 376//376 377//377 368//368 
f 368//368 378//378 379//379 
f 368//368 380//380 378//378 
f 368//368 381//381 380//380 
f 368//368 382//382 381//381 
f 368//368 377//377 382//382 
f 365//365 383//383 384//384 
f 365//365 379//379 383//383 
f 366//366 385//385 386//386 
f 366//366 384//384 385//385 
f 367//367 366//366 387//387 
f 366//366 388//388 389//389 
f 389//389 387//387 366//366 
f 367//367 390//390 391//391 
f 367//367 392//392 390//390 
f 369//369 367//367 393//393 
f 393//393 370//370 369//369 
f 393//393 394//394 370//370 
f 364//364 395//395 396//396 
f 395//395 364//364 370//370 
f 370//370 394//394 395//395 
f 396//396 397//397 364//364 
f 362//362 398//398 399//399 
f 362//362 400//400 401//401 
f 362//362 402//402 400//400 
f 401//401 398//398 362//362 
f 362//362 403//403 404//404 
f 362//362 405//405 403//403 
f 362//362 406//406 405//405 
f 362//362 407//407 406//406 
f 362//362 408//408 409//409 
f 409//409 407//407 362//362 
f 404//404 371//371 362//362 
f 399//399 408//408 362//362 
f 397//397 410//410 364//364 
f 391//391 393//393 367//367 
f 387//387 392//392 367//367 
f 386//386 388//388 366//366 
f 384//384 366//366 365//365 
f 379//379 365//365 368//368 
f 368//368 363//363 362//362 
f 370//370 364//364 363//363 
f 369//369 363//363 368//368 
f 367//367 369//369 365//365 
f 364//364 411//411 362//362 
o mesh8314
v 0.163741 0.172083 0.0786886 
v 0.163741 0.172012 0.0787174 
v 0.163778 0.172004 0.0786335 
v 0.163778 0.172027 0.0786224 
v 0.163778 0.171984 0.0786405 
v 0.163666 0.1725 0.078698 
v 0.163703 0.172388 0.0786376 
v 0.163703 0.172545 0.0785486 
v 0.163666 0.171626 0.079016 
v 0.163666 0.171408 0.0790794 
v 0.163703 0.171496 0.0789303 
v 0.163759 0.171807 0.0787187 
v 0.163778 0.17179 0.0786637 
v 0.163778 0.171803 0.0786645 
v 0.163759 0.171744 0.0787199 
v 0.163778 0.171768 0.0786601 
v 0.163759 0.171684 0.0787156 
v 0.163778 0.171707 0.0786458 
v 0.163778 0.171713 0.0786473 
v 0.163759 0.171628 0.0787067 
v 0.163778 0.171672 0.078632 
v 0.163741 0.171651 0.0787822 
v 0.163778 0.171747 0.0786565 
v 0.163778 0.171758 0.0786584 
v 0.163778 0.171718 0.0786487 
v 0.163741 0.171721 0.0787791 
v 0.163741 0.171866 0.0787586 
v 0.163778 0.171879 0.0786644 
v 0.163778 0.171895 0.0786621 
v 0.163741 0.17194 0.0787407 
v 0.163778 0.171925 0.0786577 
v 0.163778 0.171876 0.0786646 
v 0.163778 0.171834 0.0786663 
v 0.163778 0.171849 0.0786657 
v 0.163741 0.171793 0.0787714 
v 0.163778 0.171821 0.0786656 
v 0.163778 0.17194 0.0786538 
v 0.163778 0.171965 0.0786476 
v 0.163778 0.171931 0.0786562 
v 0.163722 0.171697 0.0788384 
v 0.163722 0.171861 0.0788056 
v 0.163722 0.17154 0.0788558 
v 0.163741 0.171584 0.0787812 
v 0.163703 0.171673 0.0788976 
v 0.163703 0.17204 0.0787937 
v 0.163703 0.171857 0.0788526 
v 0.163759 0.172219 0.0785472 
v 0.163778 0.172175 0.0785022 
v 0.163778 0.172193 0.0784757 
v 0.163778 0.172162 0.0785166 
v 0.163778 0.172169 0.0785087 
v 0.163722 0.172185 0.078688 
v 0.163741 0.172151 0.0786551 
v 0.163778 0.172113 0.0785659 
v 0.163778 0.172125 0.0785548 
v 0.163759 0.17217 0.0785865 
v 0.163778 0.172083 0.0785892 
v 0.163778 0.172104 0.0785731 
v 0.163778 0.172067 0.0785998 
v 0.163778 0.172041 0.0786154 
v 0.163778 0.172035 0.0786181 
v 0.163778 0.172078 0.0785929 
v 0.163778 0.172146 0.0785351 
v 0.163778 0.172138 0.0785426 
v 0.163741 0.172215 0.0786177 
v 0.163722 0.172331 0.0786075 
v 0.163703 0.172218 0.0787208 
v 0.163722 0.172463 0.0785197 
v 0.163741 0.172331 0.0785348 
v 0.163741 0.172275 0.0785773 
v 0.163759 0.172262 0.0785053 
v 0.163778 0.172218 0.078433 
v 0.163759 0.1723 0.078462 
v 0.163778 0.172196 0.0784715 
v 0.163778 0.172198 0.0784685 
v 0.163741 0.172382 0.0784908 
v 0.163759 0.172349 0.0783943 
v 0.163778 0.172236 0.0783935 
v 0.163778 0.172237 0.0783893 
v 0.163778 0.172249 0.0783529 
v 0.163778 0.172219 0.0784315 
v 0.163778 0.172219 0.0784323 
v 0.163743 0.172425 0.0784317 
v 0.163736 0.17246 0.078447 
v 0.163705 0.172605 0.0785048 
v 0.163741 0.172437 0.0784371 
v 0.163737 0.172456 0.0784453 
v 0.163703 0.172612 0.0785075 
v 0.163693 0.17266 0.0785239 
v 0.163666 0.172708 0.0786064 
v 0.163628 0.17287 0.0786638 
v 0.163658 0.172826 0.0785813 
v 0.16365 0.172863 0.078593 
v 0.163666 0.17279 0.078569 
v 0.163628 0.172612 0.0787578 
v 0.163628 0.172095 0.0789458 
v 0.163628 0.171579 0.0791338 
v 0.163628 0.171321 0.0792278 
v 0.163658 0.171301 0.0791362 
v 0.163628 0.171219 0.0792648 
v 0.16365 0.17128 0.0791692 
v 0.163693 0.171392 0.0789855 
v 0.163666 0.171321 0.079104 
v 0.163737 0.171497 0.0787942 
v 0.163736 0.171496 0.078798 
v 0.163705 0.171422 0.0789353 
v 0.163703 0.171418 0.0789422 
v 0.163759 0.171547 0.0786861 
v 0.163741 0.171506 0.0787759 
v 0.163743 0.171512 0.0787641 
v 0.163778 0.171669 0.0786308 
v 0.163778 0.17167 0.0786314 
v 0.163778 0.171629 0.0786107 
v 0.163778 0.171627 0.0786096 
v 0.163778 0.171591 0.0785867 
v 0.163628 0.172972 0.0786268 
v 0.163778 0.172251 0.0783465 
vn 0.912216 0.16846 0.373475 
vn 0.907931 0.143347 0.393843 
vn 0.908737 0.162744 0.384332 
vn 0.911807 0.183136 0.367517 
vn 0.907931 0.143347 0.393843 
vn 0.936029 0.138746 0.323419 
vn 0.942775 0.156579 0.294377 
vn 0.962666 0.139054 0.232247 
vn 0.936029 0.101604 0.336937 
vn 0.954255 0.0811379 0.287774 
vn 0.962666 0.0427638 0.267294 
vn 0.940011 0.0218363 0.340445 
vn 0.951809 -0.0338564 0.304818 
vn 0.948238 -0.0256007 0.316527 
vn 0.954251 -0.00800384 0.298901 
vn 0.957579 -0.0472521 0.284269 
vn 0.965925 -0.0297656 0.257106 
vn 0.9709 -0.0746017 0.227571 
vn 0.969851 -0.0728336 0.232558 
vn 0.974643 -0.0435444 0.219487 
vn 0.976965 -0.0845041 0.195953 
vn 0.962047 0.00364206 0.272859 
vn 0.962779 -0.0587112 0.263836 
vn 0.960189 -0.053376 0.274206 
vn 0.968871 -0.0708842 0.237202 
vn 0.950409 0.0231589 0.310139 
vn 0.923062 0.0783358 0.376589 
vn 0.926195 0.035024 0.375414 
vn 0.921834 0.0497675 0.384377 
vn 0.912216 0.111017 0.394383 
vn 0.914678 0.0799909 0.396189 
vn 0.927098 0.0321218 0.373441 
vn 0.939474 -0.00334951 0.342604 
vn 0.934894 0.00874129 0.35482 
vn 0.936804 0.0485288 0.346473 
vn 0.943097 -0.0126659 0.332276 
vn 0.911807 0.0959494 0.399251 
vn 0.908753 0.122164 0.399054 
vn 0.913516 0.0860252 0.397602 
vn 0.946516 0.0484231 0.319003 
vn 0.92126 0.0938164 0.377464 
vn 0.966965 0.0187226 0.254219 
vn 0.971083 -0.00965696 0.238545 
vn 0.942775 0.0692759 0.326153 
vn 0.907931 0.143347 0.393843 
vn 0.919652 0.106215 0.378099 
vn 0.954251 0.198261 0.223826 
vn 0.962146 0.215202 0.167221 
vn 0.968871 0.206771 0.136144 
vn 0.957579 0.218922 0.18739 
vn 0.960181 0.217118 0.175819 
vn 0.92126 0.170762 0.349458 
vn 0.923062 0.182058 0.338838 
vn 0.938369 0.222501 0.264495 
vn 0.943097 0.223285 0.246397 
vn 0.940011 0.202106 0.274832 
vn 0.927098 0.215436 0.30672 
vn 0.934886 0.22134 0.277482 
vn 0.921827 0.208902 0.32649 
vn 0.914734 0.193555 0.354681 
vn 0.913516 0.189675 0.359877 
vn 0.92536 0.213533 0.31323 
vn 0.951219 0.222079 0.214157 
vn 0.948236 0.22306 0.226038 
vn 0.936804 0.185533 0.296607 
vn 0.946516 0.167957 0.275496 
vn 0.919652 0.161672 0.357915 
vn 0.966965 0.149067 0.206778 
vn 0.962047 0.1726 0.211363 
vn 0.950409 0.181613 0.252466 
vn 0.965925 0.188066 0.177822 
vn 0.976965 0.19069 0.0957905 
vn 0.974643 0.17444 0.140147 
vn 0.969847 0.205264 0.131394 
vn 0.970503 0.204115 0.128303 
vn 0.971083 0.160731 0.176529 
vn 0.983775 0.151589 0.0959552 
vn 0.982194 0.175433 0.0672126 
vn 0.982649 0.173896 0.064511 
vn 0.98607 0.160417 0.0439614 
vn 0.977198 0.190116 0.0945487 
vn 0.977076 0.190415 0.0952124 
vn 0.979611 0.146448 0.137535 
vn 0.97772 0.143423 0.153277 
vn 0.969604 0.130492 0.206976 
vn 0.978971 0.145382 0.143109 
vn 0.977936 0.143759 0.151576 
vn 0.969223 0.129827 0.209171 
vn 0.966771 0.125822 0.222538 
vn 0.954255 0.122822 0.272602 
vn 0.946617 0.110334 0.302892 
vn 0.958404 0.113536 0.261862 
vn 0.956758 0.111076 0.268844 
vn 0.960174 0.115939 0.254213 
vn 0.930333 0.125494 0.344574 
vn 0.907931 0.143347 0.393843 
vn 0.930333 0.125354 0.344625 
vn 0.946617 0.110175 0.30295 
vn 0.958393 0.0813873 0.273602 
vn 0.952177 0.104424 0.287149 
vn 0.956752 0.0877409 0.277357 
vn 0.966767 0.046677 0.251362 
vn 0.960174 0.0745909 0.269262 
vn 0.977934 -0.0126815 0.208531 
vn 0.977716 -0.0113214 0.209626 
vn 0.969604 0.033079 0.242432 
vn 0.969223 0.0349999 0.243686 
vn 0.983775 -0.0544452 0.170945 
vn 0.978971 -0.0193803 0.203077 
vn 0.97961 -0.0237789 0.199494 
vn 0.977406 -0.0851413 0.193466 
vn 0.9772 -0.0848799 0.194614 
vn 0.98265 -0.0917201 0.161203 
vn 0.982904 -0.0919247 0.159528 
vn 0.98658 -0.0949668 0.13282 
vn 0.952177 0.104583 0.287092 
vn 0.98658 0.158124 0.0407021 
f 412//412 413//413 414//414 
f 414//414 415//415 412//412 
f 413//413 416//416 414//414 
f 417//417 418//418 419//419 
f 420//420 421//421 422//422 
f 423//423 424//424 425//425 
f 426//426 427//427 424//424 
f 424//424 423//423 426//426 
f 428//428 429//429 430//430 
f 428//428 431//431 432//432 
f 432//432 429//429 428//428 
f 431//431 428//428 433//433 
f 426//426 434//434 435//435 
f 428//428 436//436 434//434 
f 434//434 426//426 428//428 
f 428//428 426//426 437//437 
f 438//438 439//439 440//440 
f 440//440 441//441 438//438 
f 440//440 442//442 441//441 
f 438//438 443//443 439//439 
f 438//438 444//444 445//445 
f 444//444 438//438 423//423 
f 438//438 446//446 423//423 
f 423//423 447//447 444//444 
f 446//446 437//437 426//426 
f 441//441 448//448 449//449 
f 441//441 450//450 448//448 
f 449//449 413//413 441//441 
f 451//451 437//437 446//446 
f 446//446 452//452 451//451 
f 453//453 454//454 433//433 
f 433//433 451//451 453//453 
f 455//455 422//422 453//453 
f 452//452 438//438 441//441 
f 456//456 457//457 452//452 
f 441//441 456//456 452//452 
f 457//457 455//455 451//451 
f 458//458 459//459 460//460 
f 458//458 461//461 462//462 
f 462//462 459//459 458//458 
f 463//463 456//456 412//412 
f 412//412 464//464 463//463 
f 456//456 413//413 412//412 
f 465//465 466//466 467//467 
f 467//467 464//464 465//465 
f 464//464 468//468 469//469 
f 469//469 465//465 464//464 
f 464//464 412//412 470//470 
f 412//412 471//471 470//470 
f 412//412 472//472 471//471 
f 470//470 473//473 464//464 
f 458//458 467//467 474//474 
f 467//467 466//466 475//475 
f 475//475 474//474 467//467 
f 476//476 467//467 458//458 
f 477//477 463//463 476//476 
f 463//463 464//464 476//476 
f 478//478 463//463 477//477 
f 479//479 477//477 480//480 
f 477//477 481//481 480//480 
f 482//482 480//480 481//481 
f 483//483 484//484 482//482 
f 482//482 460//460 485//485 
f 485//485 486//486 482//482 
f 484//484 487//487 480//480 
f 418//418 477//477 479//479 
f 488//488 489//489 490//490 
f 490//490 491//491 488//488 
f 484//484 492//492 489//489 
f 484//484 493//493 492//492 
f 484//484 483//483 493//493 
f 489//489 488//488 484//484 
f 488//488 494//494 487//487 
f 487//487 484//484 488//488 
f 495//495 496//496 419//419 
f 487//487 497//497 498//498 
f 498//498 479//479 487//487 
f 498//498 495//495 479//479 
f 419//419 479//479 495//495 
f 419//419 499//499 500//500 
f 500//500 501//501 419//419 
f 502//502 503//503 504//504 
f 501//501 505//505 503//503 
f 503//503 502//502 501//501 
f 506//506 417//417 501//501 
f 417//417 507//507 478//478 
f 478//478 418//418 417//417 
f 507//507 456//456 478//478 
f 420//420 455//455 457//457 
f 507//507 508//508 420//420 
f 457//457 507//507 420//420 
f 508//508 509//509 421//421 
f 421//421 509//509 510//510 
f 509//509 511//511 512//512 
f 512//512 510//510 509//509 
f 422//422 421//421 513//513 
f 421//421 514//514 513//513 
f 454//454 453//453 515//515 
f 453//453 516//516 515//515 
f 516//516 453//453 422//422 
f 422//422 517//517 516//516 
f 422//422 518//518 517//517 
f 519//519 431//431 454//454 
f 454//454 520//520 521//521 
f 431//431 522//522 523//523 
f 431//431 519//519 524//524 
f 519//519 525//525 524//524 
f 519//519 526//526 525//525 
f 524//524 522//522 431//431 
f 523//523 432//432 431//431 
f 454//454 521//521 519//519 
f 515//515 520//520 454//454 
f 513//513 518//518 422//422 
f 510//510 514//514 421//421 
f 421//421 420//420 508//508 
f 457//457 456//456 507//507 
f 417//417 506//506 507//507 
f 501//501 502//502 506//506 
f 504//504 527//527 502//502 
f 500//500 505//505 501//501 
f 496//496 499//499 419//419 
f 494//494 497//497 487//487 
f 491//491 528//528 488//488 
f 479//479 419//419 418//418 
f 480//480 482//482 484//484 
f 482//482 486//486 483//483 
f 481//481 458//458 482//482 
f 480//480 487//487 479//479 
f 477//477 418//418 478//478 
f 476//476 481//481 477//477 
f 458//458 481//481 476//476 
f 474//474 461//461 458//458 
f 473//473 468//468 464//464 
f 467//467 476//476 464//464 
f 463//463 478//478 456//456 
f 460//460 482//482 458//458 
f 451//451 452//452 457//457 
f 441//441 413//413 456//456 
f 453//453 451//451 455//455 
f 433//433 437//437 451//451 
f 446//446 438//438 452//452 
f 449//449 416//416 413//413 
f 426//426 423//423 446//446 
f 445//445 443//443 438//438 
f 442//442 450//450 441//441 
f 437//437 433//433 428//428 
f 435//435 427//427 426//426 
f 433//433 454//454 431//431 
f 430//430 436//436 428//428 
f 425//425 447//447 423//423 
f 422//422 455//455 420//420 
f 419//419 501//501 417//417 
f 415//415 472//472 412//412 
o mesh8315
v 0.163702 0.172682 0.0784245 
v 0.163702 0.172675 0.0784584 
v 0.16374 0.172465 0.0784033 
v 0.163659 0.172874 0.0785532 
v 0.163655 0.172868 0.0785735 
v 0.163696 0.172663 0.0785087 
v 0.163663 0.172883 0.0785122 
v 0.163699 0.172667 0.078492 
v 0.163739 0.172461 0.0784243 
v 0.163628 0.173098 0.0785169 
v 0.163628 0.173096 0.0785253 
v 0.163628 0.173094 0.0785337 
v 0.163628 0.17309 0.0785418 
v 0.163628 0.173086 0.0785498 
v 0.163628 0.173081 0.0785579 
v 0.163628 0.173078 0.0785614 
v 0.163628 0.173043 0.0785923 
v 0.163628 0.173033 0.0785982 
v 0.163628 0.173058 0.0785813 
v 0.163628 0.173069 0.0785714 
v 0.163628 0.173074 0.0785661 
v 0.163628 0.173022 0.0786047 
v 0.163628 0.173003 0.0786133 
v 0.163628 0.172991 0.078619 
v 0.163628 0.172972 0.0786268 
v 0.163666 0.17279 0.078569 
v 0.16365 0.172863 0.078593 
v 0.163658 0.172826 0.0785813 
v 0.163703 0.172612 0.0785075 
v 0.163705 0.172605 0.0785048 
v 0.163693 0.17266 0.0785239 
v 0.163736 0.17246 0.078447 
v 0.163737 0.172456 0.0784453 
v 0.163741 0.172437 0.0784371 
v 0.163743 0.172425 0.0784317 
v 0.163759 0.172349 0.0783943 
v 0.163704 0.172672 0.0783884 
v 0.163704 0.172674 0.0783886 
v 0.163743 0.172452 0.0783589 
v 0.163741 0.172464 0.07836 
v 0.163778 0.172251 0.0783465 
v 0.163628 0.173099 0.0785074 
v 0.163628 0.173098 0.0785168 
v 0.163628 0.173098 0.0784985 
v 0.163628 0.173097 0.078489 
v 0.163628 0.173095 0.0784786 
v 0.163701 0.172689 0.0783915 
v 0.163628 0.173091 0.078467 
v 0.163778 0.172251 0.0783465 
v 0.163778 0.172251 0.0783465 
vn 0.984879 0.171492 0.0245607 
vn 0.983505 0.157689 0.0886176 
vn 0.984699 0.160443 0.0680168 
vn 0.972665 0.132901 0.190422 
vn 0.964998 0.123225 0.231505 
vn 0.973332 0.13682 0.184132 
vn 0.982529 0.152134 0.107204 
vn 0.977798 0.143785 0.152435 
vn 0.982514 0.150614 0.10946 
vn 0.985597 0.167457 0.0235772 
vn 0.985667 0.16379 0.0404251 
vn 0.985447 0.160005 0.0573888 
vn 0.984937 0.156137 0.0742959 
vn 0.984115 0.152087 0.091582 
vn 0.982948 0.147829 0.10936 
vn 0.982321 0.145904 0.117293 
vn 0.973083 0.127132 0.192217 
vn 0.970344 0.12315 0.208005 
vn 0.977268 0.134259 0.164077 
vn 0.98013 0.140226 0.140295 
vn 0.981368 0.143267 0.128026 
vn 0.966942 0.118682 0.225694 
vn 0.961438 0.112443 0.250984 
vn 0.957447 0.108428 0.267469 
vn 0.951141 0.102815 0.291135 
vn 0.960133 0.120519 0.252231 
vn 0.955695 0.113679 0.271521 
vn 0.957746 0.117129 0.262686 
vn 0.970764 0.132858 0.199914 
vn 0.971137 0.133191 0.197871 
vn 0.967885 0.129951 0.215202 
vn 0.97855 0.139408 0.151677 
vn 0.978719 0.139533 0.150466 
vn 0.979536 0.140149 0.144457 
vn 0.980037 0.140504 0.14066 
vn 0.983164 0.144026 0.112449 
vn 0.982176 0.184354 -0.0366655 
vn 0.982158 0.184409 -0.0368559 
vn 0.984437 0.175223 -0.0134626 
vn 0.984323 0.175761 -0.0147001 
vn 0.986117 0.165152 0.0172611 
vn 0.985191 0.171389 0.00503186 
vn 0.985594 0.167513 0.0233169 
vn 0.984511 0.174911 -0.0119934 
vn 0.983479 0.178536 -0.0298965 
vn 0.982011 0.18234 -0.049048 
vn 0.981993 0.184943 -0.0385574 
vn 0.979942 0.186484 -0.0702645 
vn 0.985838 0.153624 0.067251 
vn 0.986022 0.162162 0.0382598 
f 529//529 530//530 531//531 
f 532//532 533//533 534//534 
f 535//535 532//532 536//536 
f 530//530 536//536 537//537 
f 529//529 538//538 535//535 
f 535//535 538//538 539//539 
f 539//539 540//540 535//535 
f 540//540 541//541 535//535 
f 541//541 542//542 535//535 
f 542//542 543//543 535//535 
f 543//543 544//544 535//535 
f 535//535 545//545 546//546 
f 535//535 547//547 545//545 
f 535//535 548//548 547//547 
f 535//535 549//549 548//548 
f 535//535 544//544 549//549 
f 532//532 550//550 551//551 
f 532//532 546//546 550//550 
f 533//533 552//552 553//553 
f 533//533 551//551 552//552 
f 534//534 533//533 554//554 
f 533//533 555//555 556//556 
f 556//556 554//554 533//533 
f 534//534 557//557 558//558 
f 534//534 559//559 557//557 
f 536//536 534//534 560//560 
f 560//560 537//537 536//536 
f 560//560 561//561 537//537 
f 531//531 562//562 563//563 
f 563//563 564//564 531//531 
f 562//562 531//531 537//537 
f 537//537 561//561 562//562 
f 529//529 565//565 566//566 
f 529//529 567//567 568//568 
f 529//529 569//569 567//567 
f 568//568 565//565 529//529 
f 529//529 570//570 571//571 
f 529//529 572//572 570//570 
f 529//529 573//573 572//572 
f 529//529 574//574 573//573 
f 529//529 575//575 576//576 
f 576//576 574//574 529//529 
f 571//571 538//538 529//529 
f 566//566 575//575 529//529 
f 564//564 577//577 531//531 
f 558//558 560//560 534//534 
f 554//554 559//559 534//534 
f 553//553 555//555 533//533 
f 551//551 533//533 532//532 
f 546//546 532//532 535//535 
f 535//535 530//530 529//529 
f 537//537 531//531 530//530 
f 536//536 530//530 535//535 
f 534//534 536//536 532//532 
f 531//531 578//578 529//529 
o mesh8316
v 0.163704 0.172674 0.0783886 
v 0.163704 0.172672 0.0783884 
v 0.163704 0.17263 0.0782205 
v 0.163628 0.172873 0.0778655 
v 0.163628 0.173091 0.078467 
v 0.163701 0.172689 0.0783915 
v 0.163778 0.172262 0.0782812 
v 0.163778 0.172263 0.0782544 
v 0.163778 0.172259 0.0783002 
v 0.163741 0.172464 0.07836 
v 0.163743 0.172452 0.0783589 
v 0.163778 0.172256 0.0783248 
v 0.163778 0.172251 0.0783465 
v 0.163778 0.172251 0.0783454 
v 0.163778 0.172264 0.0782373 
v 0.163704 0.172554 0.0779815 
v 0.163778 0.172254 0.0781499 
v 0.163778 0.172245 0.0781182 
v 0.163778 0.172242 0.0781075 
v 0.163778 0.172256 0.0781629 
v 0.163778 0.172261 0.0781933 
v 0.163778 0.172263 0.0782231 
v 0.163778 0.172262 0.0782084 
v 0.163704 0.172458 0.0777495 
v 0.163778 0.172206 0.0780275 
v 0.163778 0.172185 0.0779948 
v 0.163778 0.172209 0.0780337 
v 0.163778 0.172226 0.0780666 
v 0.163778 0.172238 0.0780964 
v 0.163778 0.17223 0.078075 
v 0.163778 0.172182 0.0779907 
v 0.163743 0.172233 0.0777576 
v 0.163778 0.172123 0.0779255 
v 0.163778 0.172088 0.0778972 
v 0.163778 0.172087 0.0778965 
v 0.163741 0.172241 0.0777494 
v 0.163704 0.172383 0.0775935 
v 0.163778 0.172154 0.0779565 
v 0.163778 0.172124 0.0779261 
v 0.163778 0.172176 0.0779831 
v 0.163778 0.172156 0.0779588 
v 0.163704 0.172384 0.0775926 
v 0.163701 0.172394 0.0775804 
v 0.163628 0.172654 0.077264 
vn 0.981904 0.18461 -0.0422231 
vn 0.981915 0.184582 -0.0421001 
vn 0.978534 0.198562 -0.0551751 
vn 0.976187 0.203848 -0.0741946 
vn 0.979546 0.189089 -0.068813 
vn 0.981798 0.18485 -0.0436292 
vn 0.98301 0.182848 0.0160818 
vn 0.981547 0.191152 0.00510609 
vn 0.984063 0.176229 0.0237434 
vn 0.983855 0.178319 -0.015226 
vn 0.983992 0.177729 -0.013158 
vn 0.985411 0.166998 0.032823 
vn 0.98658 0.158134 0.0406629 
vn 0.986523 0.158582 0.0402915 
vn 0.980644 0.195785 -0.00247246 
vn 0.976187 0.203848 -0.0741946 
vn 0.976975 0.208552 -0.0450106 
vn 0.976325 0.207192 -0.0621402 
vn 0.976224 0.205834 -0.0679572 
vn 0.977368 0.208066 -0.0382278 
vn 0.978536 0.204792 -0.0229566 
vn 0.979923 0.199179 -0.00886612 
vn 0.979215 0.202225 -0.0156011 
vn 0.978534 0.187573 -0.0853665 
vn 0.977603 0.181348 -0.106792 
vn 0.979215 0.164975 -0.11799 
vn 0.977368 0.183966 -0.104443 
vn 0.976452 0.196211 -0.0896762 
vn 0.976187 0.203848 -0.0741946 
vn 0.976325 0.198656 -0.0855855 
vn 0.979446 0.162787 -0.119102 
vn 0.983991 0.144616 -0.104155 
vn 0.984114 0.119371 -0.131419 
vn 0.986523 0.0955732 -0.132806 
vn 0.98658 0.0949997 -0.132796 
vn 0.983855 0.146386 -0.102958 
vn 0.981915 0.168459 -0.0863965 
vn 0.981707 0.141768 -0.127098 
vn 0.984062 0.119853 -0.131368 
vn 0.979923 0.15828 -0.121237 
vn 0.981546 0.14322 -0.126707 
vn 0.981904 0.16856 -0.0863206 
vn 0.981797 0.169653 -0.0853925 
vn 0.979546 0.189082 -0.0688301 
f 579//579 580//580 581//581 
f 582//582 583//583 584//584 
f 584//584 579//579 582//582 
f 581//581 582//582 579//579 
f 581//581 580//580 585//585 
f 585//585 586//586 581//581 
f 587//587 588//588 589//589 
f 589//589 590//590 587//587 
f 585//585 580//580 588//588 
f 589//589 591//591 592//592 
f 592//592 590//590 589//589 
f 587//587 585//585 588//588 
f 586//586 593//593 581//581 
f 594//594 595//595 596//596 
f 596//596 597//597 594//594 
f 581//581 598//598 595//595 
f 581//581 599//599 598//598 
f 595//595 594//594 581//581 
f 581//581 600//600 601//601 
f 601//601 599//599 581//581 
f 602//602 603//603 604//604 
f 594//594 605//605 603//603 
f 594//594 606//606 605//605 
f 594//594 607//607 608//608 
f 608//608 606//606 594//594 
f 603//603 602//602 594//594 
f 604//604 609//609 602//602 
f 610//610 611//611 612//612 
f 612//612 613//613 610//610 
f 610//610 614//614 611//611 
f 615//615 602//602 616//616 
f 616//616 617//617 615//615 
f 602//602 618//618 619//619 
f 619//619 616//616 602//602 
f 617//617 611//611 615//615 
f 582//582 620//620 621//621 
f 620//620 582//582 602//602 
f 602//602 615//615 620//620 
f 582//582 594//594 602//602 
f 621//621 622//622 582//582 
f 614//614 615//615 611//611 
f 609//609 618//618 602//602 
f 597//597 607//607 594//594 
f 593//593 600//600 581//581 
f 581//581 594//594 582//582 
o mesh8317
v 0.163666 0.171178 0.0777853 
v 0.163703 0.171291 0.0778456 
v 0.163703 0.171134 0.0779346 
v 0.163666 0.172052 0.0774672 
v 0.163666 0.17227 0.0774039 
v 0.163703 0.172182 0.077553 
v 0.16376 0.17205 0.0777768 
v 0.16376 0.171994 0.0777678 
v 0.163741 0.172027 0.0777013 
v 0.16376 0.171934 0.0777635 
v 0.163741 0.171957 0.0777043 
v 0.163741 0.171885 0.077712 
v 0.163722 0.171981 0.077645 
v 0.163722 0.171817 0.0776777 
v 0.163722 0.172138 0.0776276 
v 0.163741 0.172094 0.0777022 
v 0.163703 0.172005 0.0775858 
v 0.163741 0.171812 0.0777247 
v 0.163741 0.171738 0.0777426 
v 0.163703 0.171638 0.0776896 
v 0.163703 0.171822 0.0776307 
v 0.163722 0.171494 0.0777953 
v 0.163741 0.171595 0.0777947 
v 0.163741 0.171528 0.0778282 
v 0.163741 0.171666 0.077766 
v 0.163741 0.171463 0.0778656 
v 0.16376 0.171508 0.0778969 
v 0.16376 0.171459 0.0779361 
v 0.163722 0.171347 0.0778758 
v 0.163703 0.17146 0.0777624 
v 0.163722 0.171215 0.0779635 
v 0.163741 0.171348 0.0779485 
v 0.163741 0.171403 0.077906 
v 0.16376 0.171416 0.077978 
v 0.16376 0.171378 0.0780214 
v 0.163741 0.171297 0.0779925 
v 0.163628 0.171066 0.0777254 
v 0.163666 0.17097 0.0778768 
v 0.163628 0.171583 0.0775374 
v 0.163628 0.172099 0.0773494 
v 0.163628 0.172357 0.0772554 
v 0.163658 0.172377 0.077347 
v 0.163628 0.172459 0.0772184 
v 0.16365 0.172398 0.077314 
v 0.163693 0.172286 0.0774977 
v 0.163666 0.172357 0.0773793 
v 0.163737 0.172181 0.077689 
v 0.163736 0.172183 0.0776852 
v 0.163705 0.172256 0.0775479 
v 0.163703 0.17226 0.0775412 
v 0.163759 0.172131 0.0777975 
v 0.163741 0.172172 0.0777076 
v 0.163743 0.172166 0.0777191 
v 0.163778 0.172009 0.0778523 
v 0.163778 0.172008 0.0778518 
v 0.163778 0.172049 0.0778725 
v 0.163778 0.172051 0.0778736 
v 0.163778 0.172087 0.0778965 
v 0.163778 0.171971 0.0778374 
v 0.163778 0.171965 0.0778359 
v 0.163778 0.172007 0.0778512 
v 0.163778 0.171931 0.0778267 
v 0.163778 0.17192 0.0778249 
v 0.163778 0.17196 0.0778346 
v 0.16376 0.171871 0.0777647 
v 0.163778 0.171888 0.0778195 
v 0.163778 0.171875 0.0778187 
v 0.163778 0.17191 0.0778232 
v 0.163778 0.171844 0.0778169 
v 0.163778 0.171829 0.0778176 
v 0.163778 0.171857 0.0778177 
v 0.163778 0.171799 0.0778188 
v 0.163778 0.171783 0.0778212 
v 0.163778 0.171753 0.0778256 
v 0.163778 0.171802 0.0778187 
v 0.163778 0.171738 0.0778294 
v 0.163778 0.171713 0.0778357 
v 0.163778 0.171747 0.077827 
v 0.163778 0.171654 0.077859 
v 0.163778 0.171652 0.0778605 
v 0.163778 0.171694 0.0778422 
v 0.163778 0.171617 0.0778793 
v 0.163778 0.171612 0.0778833 
v 0.163778 0.171643 0.0778653 
v 0.163778 0.171574 0.0779101 
v 0.163778 0.171553 0.0779283 
v 0.163778 0.171581 0.0779043 
v 0.163778 0.171596 0.0778943 
v 0.163778 0.17154 0.0779406 
v 0.163778 0.171516 0.0779656 
v 0.163778 0.171547 0.0779334 
v 0.163778 0.171509 0.0779746 
v 0.163778 0.17149 0.0779989 
v 0.163778 0.171515 0.0779662 
v 0.163778 0.171468 0.0780337 
v 0.163778 0.171482 0.0780119 
v 0.163778 0.17145 0.0780714 
v 0.163778 0.171441 0.0780941 
v 0.163759 0.17133 0.0780891 
v 0.163778 0.171435 0.0781115 
v 0.163778 0.17146 0.0780504 
v 0.163778 0.171459 0.0780519 
v 0.163743 0.171253 0.0780515 
v 0.163736 0.171218 0.0780362 
v 0.163705 0.171074 0.0779784 
v 0.163741 0.171241 0.0780463 
v 0.163737 0.171222 0.0780379 
v 0.163703 0.171066 0.0779758 
v 0.163693 0.171018 0.0779593 
v 0.163628 0.170808 0.0778194 
v 0.163658 0.170852 0.077902 
v 0.16365 0.170815 0.0778902 
v 0.163666 0.170888 0.0779142 
v 0.163628 0.170706 0.0778564 
v 0.163778 0.171427 0.0781367 
vn 0.936032 -0.138754 -0.323405 
vn 0.942783 -0.156601 -0.29434 
vn 0.962675 -0.139074 -0.232197 
vn 0.936032 -0.101589 -0.336932 
vn 0.954259 -0.0811201 -0.287765 
vn 0.962675 -0.0427163 -0.267268 
vn 0.974655 0.0436837 -0.219408 
vn 0.965938 0.0299041 -0.25704 
vn 0.96206 -0.00354479 -0.272813 
vn 0.954265 0.00813436 -0.298853 
vn 0.950422 -0.0230691 -0.310107 
vn 0.936814 -0.0484527 -0.346456 
vn 0.946526 -0.0483618 -0.318982 
vn 0.921264 -0.0937795 -0.377462 
vn 0.966977 -0.0186528 -0.254181 
vn 0.971096 0.00975641 -0.238489 
vn 0.942783 -0.0692351 -0.326139 
vn 0.923068 -0.0782799 -0.376586 
vn 0.912217 -0.110988 -0.394387 
vn 0.907931 -0.143347 -0.393843 
vn 0.919655 -0.106191 -0.378098 
vn 0.921264 -0.170789 -0.349433 
vn 0.912217 -0.168486 -0.373459 
vn 0.923068 -0.182099 -0.338799 
vn 0.907931 -0.143347 -0.393843 
vn 0.936814 -0.185581 -0.296545 
vn 0.940023 -0.202176 -0.274739 
vn 0.954265 -0.19833 -0.223706 
vn 0.946526 -0.16799 -0.275441 
vn 0.919655 -0.16169 -0.357898 
vn 0.966977 -0.149096 -0.206704 
vn 0.96206 -0.172646 -0.211266 
vn 0.950422 -0.181661 -0.252384 
vn 0.965938 -0.18813 -0.177682 
vn 0.974655 -0.174496 -0.139997 
vn 0.971096 -0.160772 -0.176422 
vn 0.930333 -0.125494 -0.344574 
vn 0.954259 -0.12283 -0.272583 
vn 0.907931 -0.143347 -0.393843 
vn 0.930333 -0.125354 -0.344625 
vn 0.946617 -0.110175 -0.30295 
vn 0.958393 -0.0813873 -0.273602 
vn 0.952177 -0.104424 -0.287149 
vn 0.956752 -0.0877409 -0.277357 
vn 0.966767 -0.046677 -0.251362 
vn 0.960179 -0.0745725 -0.26925 
vn 0.977934 0.0126815 -0.208531 
vn 0.977716 0.0113214 -0.209626 
vn 0.969604 -0.033079 -0.242432 
vn 0.969232 -0.0349512 -0.243654 
vn 0.98379 0.0545864 -0.170813 
vn 0.978986 0.0194831 -0.202994 
vn 0.97961 0.0237789 -0.199494 
vn 0.977391 0.0851347 -0.193544 
vn 0.977201 0.0848937 -0.194603 
vn 0.98265 0.0917269 -0.161197 
vn 0.982899 0.0919268 -0.159558 
vn 0.98658 0.0949668 -0.13282 
vn 0.970876 0.0745806 -0.227677 
vn 0.969854 0.0728563 -0.232542 
vn 0.976966 0.08452 -0.195944 
vn 0.962747 0.0586678 -0.263964 
vn 0.960193 0.0534081 -0.274186 
vn 0.968872 0.0709083 -0.237191 
vn 0.940023 -0.0217233 -0.340419 
vn 0.951765 0.0337821 -0.304961 
vn 0.948243 0.0256397 -0.316508 
vn 0.957581 0.0472831 -0.284257 
vn 0.939422 0.00324041 -0.342748 
vn 0.934899 -0.00869979 -0.354806 
vn 0.9431 0.0127005 -0.332267 
vn 0.926141 -0.035176 -0.375534 
vn 0.921838 -0.049731 -0.384372 
vn 0.914638 -0.0801735 -0.396245 
vn 0.9271 -0.0320895 -0.373438 
vn 0.911809 -0.0959267 -0.399253 
vn 0.908739 -0.12234 -0.399031 
vn 0.913517 -0.0860044 -0.397605 
vn 0.911299 -0.180694 -0.369978 
vn 0.911799 -0.18304 -0.367586 
vn 0.907931 -0.143347 -0.393843 
vn 0.919962 -0.205644 -0.333738 
vn 0.921811 -0.208846 -0.326568 
vn 0.913517 -0.189692 -0.359866 
vn 0.934873 -0.221325 -0.277538 
vn 0.9431 -0.223307 -0.246368 
vn 0.932193 -0.219667 -0.287685 
vn 0.9271 -0.215459 -0.306697 
vn 0.948229 -0.223069 -0.226056 
vn 0.957376 -0.219071 -0.18825 
vn 0.945399 -0.223285 -0.237414 
vn 0.960185 -0.217153 -0.175753 
vn 0.966897 -0.20966 -0.145438 
vn 0.957581 -0.218938 -0.187361 
vn 0.974215 -0.197033 -0.109927 
vn 0.969864 -0.205338 -0.131151 
vn 0.979984 -0.182472 -0.0795893 
vn 0.982654 -0.173934 -0.0643224 
vn 0.98379 -0.151612 -0.0957632 
vn 0.984423 -0.167278 -0.0541241 
vn 0.976966 -0.190696 -0.0957732 
vn 0.977214 -0.190192 -0.0942303 
vn 0.979611 -0.146448 -0.137535 
vn 0.97772 -0.143423 -0.153277 
vn 0.969604 -0.130492 -0.206976 
vn 0.978986 -0.145407 -0.142979 
vn 0.977936 -0.143759 -0.151576 
vn 0.969232 -0.129843 -0.209116 
vn 0.966771 -0.125822 -0.222538 
vn 0.946617 -0.110334 -0.302892 
vn 0.958404 -0.113536 -0.261862 
vn 0.956758 -0.111076 -0.268844 
vn 0.960179 -0.115945 -0.254192 
vn 0.952177 -0.104583 -0.287092 
vn 0.98658 -0.158124 -0.0407021 
f 623//623 624//624 625//625 
f 626//626 627//627 628//628 
f 629//629 630//630 631//631 
f 630//630 632//632 633//633 
f 634//634 633//633 632//632 
f 635//635 633//633 634//634 
f 634//634 636//636 635//635 
f 637//637 638//638 631//631 
f 631//631 635//635 637//637 
f 639//639 628//628 637//637 
f 636//636 640//640 641//641 
f 642//642 643//643 636//636 
f 641//641 642//642 636//636 
f 643//643 639//639 635//635 
f 644//644 642//642 645//645 
f 645//645 646//646 644//644 
f 642//642 647//647 645//645 
f 648//648 649//649 650//650 
f 651//651 644//644 648//648 
f 644//644 646//646 648//648 
f 652//652 644//644 651//651 
f 653//653 651//651 654//654 
f 651//651 655//655 654//654 
f 656//656 654//654 655//655 
f 657//657 658//658 654//654 
f 624//624 651//651 653//653 
f 659//659 623//623 660//660 
f 623//623 661//661 652//652 
f 652//652 624//624 623//623 
f 661//661 642//642 652//652 
f 626//626 639//639 643//643 
f 661//661 662//662 626//626 
f 643//643 661//661 626//626 
f 662//662 663//663 627//627 
f 627//627 663//663 664//664 
f 663//663 665//665 666//666 
f 666//666 664//664 663//663 
f 628//628 627//627 667//667 
f 627//627 668//668 667//667 
f 638//638 637//637 669//669 
f 637//637 670//670 669//669 
f 670//670 637//637 628//628 
f 628//628 671//671 670//670 
f 628//628 672//672 671//671 
f 673//673 629//629 638//638 
f 638//638 674//674 675//675 
f 629//629 676//676 677//677 
f 629//629 673//673 678//678 
f 673//673 679//679 678//678 
f 673//673 680//680 679//679 
f 678//678 676//676 629//629 
f 630//630 681//681 682//682 
f 630//630 629//629 683//683 
f 683//683 681//681 630//630 
f 632//632 684//684 685//685 
f 630//630 686//686 684//684 
f 684//684 632//632 630//630 
f 687//687 688//688 689//689 
f 632//632 690//690 688//688 
f 688//688 687//687 632//632 
f 640//640 691//691 692//692 
f 691//691 640//640 687//687 
f 640//640 634//634 687//687 
f 687//687 693//693 691//691 
f 640//640 694//694 695//695 
f 695//695 641//641 640//640 
f 695//695 696//696 641//641 
f 640//640 697//697 694//694 
f 641//641 698//698 699//699 
f 641//641 700//700 698//698 
f 699//699 647//647 641//641 
f 645//645 701//701 702//702 
f 647//647 703//703 701//701 
f 701//701 645//645 647//647 
f 645//645 704//704 705//705 
f 705//705 646//646 645//645 
f 645//645 706//706 704//704 
f 707//707 708//708 649//649 
f 646//646 709//709 707//707 
f 649//649 646//646 707//707 
f 646//646 710//710 709//709 
f 649//649 711//711 712//712 
f 649//649 713//713 711//711 
f 649//649 708//708 713//713 
f 712//712 650//650 649//649 
f 650//650 714//714 715//715 
f 650//650 716//716 714//714 
f 657//657 656//656 717//717 
f 656//656 715//715 718//718 
f 718//718 717//717 656//656 
f 657//657 719//719 720//720 
f 720//720 721//721 657//657 
f 720//720 722//722 721//721 
f 657//657 723//723 724//724 
f 724//724 719//719 657//657 
f 721//721 725//725 658//658 
f 658//658 657//657 721//721 
f 726//726 727//727 625//625 
f 658//658 728//728 729//729 
f 729//729 653//653 658//658 
f 729//729 726//726 653//653 
f 625//625 653//653 726//726 
f 625//625 730//730 731//731 
f 731//731 660//660 625//625 
f 732//732 733//733 734//734 
f 660//660 735//735 733//733 
f 733//733 732//732 660//660 
f 734//734 736//736 732//732 
f 731//731 735//735 660//660 
f 727//727 730//730 625//625 
f 725//725 728//728 658//658 
f 722//722 737//737 721//721 
f 717//717 723//723 657//657 
f 715//715 656//656 650//650 
f 712//712 716//716 650//650 
f 649//649 648//648 646//646 
f 705//705 710//710 646//646 
f 702//702 706//706 645//645 
f 699//699 703//703 647//647 
f 696//696 700//700 641//641 
f 692//692 697//697 640//640 
f 689//689 693//693 687//687 
f 685//685 690//690 632//632 
f 682//682 686//686 630//630 
f 677//677 683//683 629//629 
f 638//638 675//675 673//673 
f 669//669 674//674 638//638 
f 667//667 672//672 628//628 
f 664//664 668//668 627//627 
f 627//627 626//626 662//662 
f 643//643 642//642 661//661 
f 623//623 659//659 661//661 
f 660//660 732//732 659//659 
f 653//653 625//625 624//624 
f 654//654 656//656 657//657 
f 655//655 650//650 656//656 
f 654//654 658//658 653//653 
f 651//651 624//624 652//652 
f 648//648 655//655 651//651 
f 650//650 655//655 648//648 
f 644//644 652//652 642//642 
f 635//635 636//636 643//643 
f 641//641 647//647 642//642 
f 637//637 635//635 639//639 
f 631//631 633//633 635//635 
f 634//634 640//640 636//636 
f 632//632 687//687 634//634 
f 633//633 631//631 630//630 
f 631//631 638//638 629//629 
f 628//628 639//639 626//626 
f 625//625 660//660 623//623 
o mesh8318
v 0.163702 0.17234 0.0775382 
v 0.163778 0.172087 0.0778965 
v 0.163739 0.172198 0.0777021 
v 0.163663 0.172465 0.0773629 
v 0.163699 0.172313 0.0775173 
v 0.163659 0.172431 0.0773378 
v 0.163696 0.172299 0.077507 
v 0.163628 0.172494 0.0772075 
v 0.163628 0.17252 0.0772015 
v 0.163655 0.172414 0.0773257 
v 0.163628 0.172492 0.0772082 
v 0.163628 0.172569 0.0771985 
v 0.163628 0.172581 0.0772001 
v 0.163628 0.172556 0.0771979 
v 0.163628 0.172525 0.0772009 
v 0.163628 0.17254 0.0771987 
v 0.163628 0.172608 0.0772093 
v 0.163628 0.172617 0.077214 
v 0.163628 0.1726 0.0772056 
v 0.163628 0.172624 0.0772192 
v 0.163628 0.172591 0.0772025 
v 0.163628 0.172582 0.0772004 
v 0.163702 0.172367 0.0775594 
v 0.163628 0.172626 0.0772217 
v 0.163628 0.172651 0.0772571 
v 0.163628 0.172654 0.077264 
v 0.163628 0.17263 0.0772251 
v 0.163628 0.172636 0.0772316 
v 0.163628 0.172641 0.077239 
v 0.163628 0.172646 0.0772475 
v 0.163704 0.172383 0.0775935 
v 0.163741 0.172241 0.0777494 
v 0.163743 0.172233 0.0777576 
v 0.163701 0.172394 0.0775804 
v 0.163704 0.172384 0.0775926 
v 0.163759 0.172131 0.0777975 
v 0.163743 0.172166 0.0777191 
v 0.163741 0.172172 0.0777076 
v 0.163778 0.172087 0.0778965 
v 0.163736 0.172183 0.0776852 
v 0.163737 0.172181 0.077689 
v 0.163705 0.172256 0.0775479 
v 0.163703 0.17226 0.0775412 
v 0.163693 0.172286 0.0774977 
v 0.163666 0.172357 0.0773793 
v 0.163658 0.172377 0.077347 
v 0.16365 0.172398 0.077314 
v 0.163628 0.172459 0.0772184 
v 0.163778 0.172087 0.0778965 
v 0.163778 0.172087 0.0778965 
vn 0.983504 0.0638296 -0.169248 
vn 0.985899 0.0822424 -0.145736 
vn 0.982513 0.0450061 -0.180672 
vn 0.982528 0.0476265 -0.179917 
vn 0.977797 0.0121533 -0.2092 
vn 0.972663 -0.0206036 -0.231307 
vn 0.973331 -0.0135587 -0.229006 
vn 0.962134 -0.0727066 -0.262702 
vn 0.969165 -0.0446774 -0.242329 
vn 0.964994 -0.0544248 -0.256561 
vn 0.961428 -0.0752414 -0.264564 
vn 0.980148 0.0173962 -0.197501 
vn 0.982132 0.0345211 -0.184999 
vn 0.977659 -0.000124134 -0.210197 
vn 0.97034 -0.0393821 -0.238515 
vn 0.974169 -0.0204908 -0.224887 
vn 0.985221 0.0785989 -0.152191 
vn 0.985605 0.093421 -0.140911 
vn 0.984563 0.0647421 -0.162618 
vn 0.985661 0.107289 -0.130235 
vn 0.983559 0.0501493 -0.173483 
vn 0.98232 0.0363685 -0.183645 
vn 0.984879 0.115582 -0.129047 
vn 0.985596 0.113132 -0.125705 
vn 0.981242 0.177915 -0.0742366 
vn 0.979939 0.188035 -0.066046 
vn 0.985425 0.121004 -0.119561 
vn 0.984899 0.134642 -0.10884 
vn 0.984055 0.148568 -0.0977901 
vn 0.98286 0.162888 -0.0863364 
vn 0.982177 0.164786 -0.0904147 
vn 0.984323 0.144091 -0.101713 
vn 0.984436 0.142892 -0.102311 
vn 0.981992 0.166461 -0.0893396 
vn 0.982159 0.16495 -0.0903044 
vn 0.983175 0.0381192 -0.178646 
vn 0.980037 0.0172047 -0.198071 
vn 0.979547 0.01456 -0.200686 
vn 0.985754 0.0648596 -0.155183 
vn 0.978547 0.00927193 -0.205817 
vn 0.978717 0.0101524 -0.204963 
vn 0.971139 -0.0251564 -0.237185 
vn 0.970776 -0.0266837 -0.238501 
vn 0.967882 -0.0387943 -0.248393 
vn 0.960142 -0.0697713 -0.270666 
vn 0.957734 -0.079168 -0.276548 
vn 0.955689 -0.0874647 -0.281084 
vn 0.951138 -0.108372 -0.289124 
vn 0.986117 0.115426 -0.119377 
vn 0.986022 0.0996289 -0.133547 
f 738//738 739//739 740//740 
f 741//741 738//738 742//742 
f 743//743 742//742 744//744 
f 743//743 745//745 746//746 
f 743//743 747//747 748//748 
f 748//748 745//745 743//743 
f 741//741 749//749 750//750 
f 741//741 751//751 749//749 
f 741//741 743//743 752//752 
f 752//752 753//753 741//741 
f 753//753 751//751 741//741 
f 741//741 754//754 755//755 
f 741//741 756//756 754//754 
f 755//755 757//757 741//741 
f 741//741 758//758 756//756 
f 741//741 759//759 758//758 
f 760//760 738//738 741//741 
f 741//741 761//761 760//760 
f 760//760 762//762 763//763 
f 760//760 761//761 764//764 
f 764//764 765//765 760//760 
f 765//765 766//766 760//760 
f 766//766 767//767 760//760 
f 767//767 762//762 760//760 
f 760//760 768//768 769//769 
f 769//769 770//770 760//760 
f 760//760 771//771 772//772 
f 772//772 768//768 760//760 
f 740//740 773//773 774//774 
f 774//774 775//775 740//740 
f 740//740 776//776 773//773 
f 742//742 740//740 777//777 
f 740//740 778//778 777//777 
f 744//744 777//777 779//779 
f 779//779 780//780 744//744 
f 780//780 781//781 744//744 
f 747//747 782//782 783//783 
f 744//744 781//781 782//782 
f 782//782 747//747 744//744 
f 747//747 784//784 785//785 
f 785//785 748//748 747//747 
f 783//783 784//784 747//747 
f 777//777 744//744 742//742 
f 775//775 778//778 740//740 
f 770//770 786//786 760//760 
f 763//763 771//771 760//760 
f 757//757 761//761 741//741 
f 750//750 759//759 741//741 
f 746//746 752//752 743//743 
f 787//787 738//738 760//760 
f 744//744 747//747 743//743 
f 742//742 743//743 741//741 
f 740//740 742//742 738//738 
usemtl 0.823529_0.823529_1.000000_0.000000_0.000000
o mesh8319
v 0.163628 0.173591 0.0786683 
v 0.163628 0.170772 0.0796943 
v 0.163628 0.172095 0.0789458 
v 0.163628 0.171321 0.0792278 
v 0.163628 0.171579 0.0791338 
v 0.163628 0.172612 0.0787578 
v 0.163628 0.171219 0.0792648 
v 0.163628 0.172991 0.078619 
v 0.163628 0.173003 0.0786133 
v 0.163628 0.172972 0.0786268 
v 0.163628 0.17287 0.0786638 
v 0.163628 0.170088 0.0778149 
v 0.163628 0.170587 0.0780163 
v 0.163628 0.170806 0.0786178 
v 0.163628 0.173091 0.078467 
v 0.163628 0.172873 0.0778655 
v 0.163628 0.171184 0.0792757 
v 0.163628 0.171186 0.079275 
v 0.163628 0.172907 0.0767889 
v 0.163628 0.171025 0.0792192 
v 0.163628 0.172654 0.077264 
v 0.163628 0.173074 0.0785661 
v 0.163628 0.173078 0.0785614 
v 0.163628 0.171158 0.0792817 
v 0.163628 0.171138 0.0792845 
v 0.163628 0.171154 0.0792823 
v 0.163628 0.170583 0.0780046 
v 0.163628 0.171583 0.0775374 
v 0.163628 0.172357 0.0772554 
v 0.163628 0.172099 0.0773494 
v 0.163628 0.173095 0.0784786 
v 0.163628 0.173069 0.0785714 
v 0.163628 0.171109 0.0792847 
v 0.163628 0.171122 0.0792853 
v 0.163628 0.171027 0.0792261 
v 0.163628 0.171066 0.0777254 
v 0.163628 0.170808 0.0778194 
v 0.163628 0.172651 0.0772571 
v 0.163628 0.173058 0.0785813 
v 0.163628 0.170581 0.0779942 
v 0.163628 0.170604 0.0779171 
v 0.163628 0.1706 0.0779218 
v 0.163628 0.170687 0.0778642 
v 0.163628 0.170675 0.0778699 
v 0.163628 0.173097 0.078489 
v 0.163628 0.173081 0.0785579 
v 0.163628 0.171097 0.0792831 
v 0.163628 0.171087 0.0792807 
v 0.163628 0.171096 0.0792828 
v 0.163628 0.171032 0.0792358 
v 0.163628 0.170609 0.0779118 
v 0.163628 0.170706 0.0778564 
v 0.163628 0.172459 0.0772184 
v 0.163628 0.172646 0.0772475 
v 0.163628 0.173086 0.0785498 
v 0.163628 0.171037 0.0792442 
v 0.163628 0.17062 0.0779019 
v 0.163628 0.172494 0.0772075 
v 0.163628 0.172492 0.0772082 
v 0.163628 0.172641 0.077239 
v 0.163628 0.17309 0.0785418 
v 0.163628 0.171078 0.0792776 
v 0.163628 0.17058 0.0779847 
v 0.163628 0.170598 0.0779253 
v 0.163628 0.173098 0.0784985 
v 0.163628 0.173043 0.0785923 
v 0.163628 0.173022 0.0786047 
v 0.163628 0.173033 0.0785982 
v 0.163628 0.17107 0.0792739 
v 0.163628 0.17058 0.0779758 
v 0.163628 0.170592 0.0779334 
v 0.163628 0.17252 0.0772015 
v 0.163628 0.17254 0.0771987 
v 0.163628 0.172525 0.0772009 
v 0.163628 0.172581 0.0772001 
v 0.163628 0.172569 0.0771985 
v 0.163628 0.172591 0.0772025 
v 0.163628 0.172582 0.0772004 
v 0.163628 0.173099 0.0785074 
v 0.163628 0.173094 0.0785337 
v 0.163628 0.171048 0.0792581 
v 0.163628 0.171052 0.0792615 
v 0.163628 0.171042 0.0792516 
v 0.163628 0.170588 0.0779415 
v 0.163628 0.17263 0.0772251 
v 0.163628 0.172626 0.0772217 
v 0.163628 0.172636 0.0772316 
v 0.163628 0.173096 0.0785253 
v 0.163628 0.173098 0.0785169 
v 0.163628 0.170635 0.0778909 
v 0.163628 0.170656 0.0778785 
v 0.163628 0.170645 0.077885 
v 0.163628 0.172556 0.0771979 
v 0.163628 0.1726 0.0772056 
v 0.163628 0.171055 0.079264 
v 0.163628 0.170584 0.0779496 
v 0.163628 0.172608 0.0772093 
v 0.163628 0.172624 0.0772192 
v 0.163628 0.171062 0.0792692 
v 0.163628 0.17058 0.0779665 
v 0.163628 0.170582 0.0779579 
v 0.163628 0.17058 0.0779663 
v 0.163628 0.172617 0.077214 
v 0.163628 0.173098 0.0785168 
vn 1 0 0 
vn 1 0 0 
vn 1 0 0 
vn 1 0 0 
vn 1 0 0 
vn 1 0 0 
vn 1 0 0 
vn 1 0 0 
vn 1 0 0 
vn 1 0 0 
vn 1 0 0 
vn 1 0 0 
vn 1 0 0 
vn 1 0 0 
vn 1 0 0 
vn 1 0 0 
vn 1 0 0 
vn 1 0 0 
vn 1 0 0 
vn 1 0 0 
vn 1 0 0 
vn 1 0 0 
vn 1 0 0 
vn 1 0 0 
vn 1 0 0 
vn 1 0 0 
vn 1 0 0 
vn 1 0 0 
vn 1 0 0 
vn 1 0 0 
vn 1 0 0 
vn 1 0 0 
vn 1 0 0 
vn 1 0 0 
vn 1 0 0 
vn 1 0 0 
vn 1 0 0 
vn 1 0 0 
vn 1 0 0 
vn 1 0 0 
vn 1 0 0 
vn 1 0 0 
vn 1 0 0 
vn 1 0 0 
vn 1 0 0 
vn 1 0 0 
vn 1 0 0 
vn 1 0 0 
vn 1 0 0 
vn 1 0 0 
vn 1 0 0 
vn 1 0 0 
vn 1 0 0 
vn 1 0 0 
vn 1 0 0 
vn 1 0 0 
vn 1 0 0 
vn 1 0 0 
vn 1 0 0 
vn 1 0 0 
vn 1 0 0 
vn 1 0 0 
vn 1 0 0 
vn 1 0 0 
vn 1 0 0 
vn 1 0 0 
vn 1 0 0 
vn 1 0 0 
vn 1 0 0 
vn 1 0 0 
vn 1 0 0 
vn 1 0 0 
vn 1 0 0 
vn 1 0 0 
vn 1 0 0 
vn 1 0 0 
vn 1 0 0 
vn 1 0 0 
vn 1 0 0 
vn 1 0 0 
vn 1 0 0 
vn 1 0 0 
vn 1 0 0 
vn 1 0 0 
vn 1 0 0 
vn 1 0 0 
vn 1 0 0 
vn 1 0 0 
vn 1 0 0 
vn 1 0 0 
vn 1 0 0 
vn 1 0 0 
vn 1 0 0 
vn 1 0 0 
vn 1 0 0 
vn 1 0 0 
vn 1 0 0 
vn 1 0 0 
vn 1 0 0 
vn 1 0 0 
vn 1 0 0 
vn 1 0 0 
vn 1 0 0 
vn 1 0 0 
f 788//788 789//789 790//790 
f 789//789 791//791 792//792 
f 790//790 793//793 788//788 
f 789//789 794//794 791//791 
f 788//788 795//795 796//796 
f 792//792 790//790 789//789 
f 788//788 797//797 795//795 
f 793//793 798//798 788//788 
f 799//799 800//800 801//801 
f 788//788 802//802 803//803 
f 798//798 797//797 788//788 
f 789//789 804//804 805//805 
f 801//801 789//789 799//799 
f 803//803 806//806 788//788 
f 805//805 794//794 789//789 
f 801//801 807//807 789//789 
f 803//803 808//808 806//806 
f 788//788 809//809 810//810 
f 789//789 811//811 804//804 
f 789//789 812//812 813//813 
f 799//799 814//814 800//800 
f 799//799 806//806 815//815 
f 806//806 816//816 817//817 
f 788//788 818//818 802//802 
f 788//788 819//819 809//809 
f 813//813 811//811 789//789 
f 789//789 820//820 821//821 
f 807//807 822//822 789//789 
f 799//799 823//823 824//824 
f 817//817 815//815 806//806 
f 808//808 825//825 806//806 
f 788//788 826//826 819//819 
f 821//821 812//812 789//789 
f 799//799 827//827 814//814 
f 799//799 828//828 829//829 
f 799//799 830//830 831//831 
f 815//815 823//823 799//799 
f 788//788 832//832 818//818 
f 810//810 833//833 788//788 
f 789//789 834//834 820//820 
f 789//789 835//835 836//836 
f 822//822 837//837 789//789 
f 799//799 838//838 828//828 
f 799//799 839//839 830//830 
f 806//806 840//840 816//816 
f 825//825 841//841 806//806 
f 833//833 842//842 788//788 
f 836//836 834//834 789//789 
f 837//837 843//843 789//789 
f 799//799 844//844 838//838 
f 824//824 839//839 799//799 
f 806//806 845//845 846//846 
f 841//841 847//847 806//806 
f 842//842 848//848 788//788 
f 789//789 849//849 835//835 
f 799//799 850//850 827//827 
f 829//829 851//851 799//799 
f 846//846 840//840 806//806 
f 788//788 852//852 832//832 
f 788//788 853//853 826//826 
f 788//788 854//854 855//855 
f 789//789 856//856 849//849 
f 799//799 857//857 850//850 
f 851//851 858//858 799//799 
f 806//806 859//859 845//845 
f 806//806 860//860 861//861 
f 806//806 862//862 863//863 
f 806//806 864//864 865//865 
f 788//788 866//866 852//852 
f 848//848 867//867 788//788 
f 796//796 854//854 788//788 
f 789//789 868//868 869//869 
f 843//843 870//870 789//789 
f 858//858 871//871 799//799 
f 861//861 859//859 806//806 
f 865//865 862//862 806//806 
f 806//806 872//872 873//873 
f 847//847 874//874 806//806 
f 788//788 875//875 876//876 
f 855//855 853//853 788//788 
f 870//870 868//868 789//789 
f 799//799 877//877 844//844 
f 799//799 878//878 879//879 
f 806//806 880//880 860//860 
f 806//806 881//881 864//864 
f 874//874 872//872 806//806 
f 867//867 875//875 788//788 
f 869//869 882//882 789//789 
f 871//871 883//883 799//799 
f 831//831 878//878 799//799 
f 806//806 884//884 881//881 
f 873//873 885//885 806//806 
f 789//789 886//886 856//856 
f 799//799 887//887 857//857 
f 799//799 888//888 889//889 
f 879//879 877//877 799//799 
f 806//806 890//890 884//884 
f 788//788 891//891 866//866 
f 882//882 886//886 789//789 
f 883//883 888//888 799//799 
f 885//885 890//890 806//806 
f 889//889 887//887 799//799 
f 876//876 891//891 788//788 
f 863//863 880//880 806//806 
o mesh8320
v 0.163243 0.170772 0.0796943 
v 0.163628 0.170772 0.0796943 
v 0.163628 0.173591 0.0786683 
v 0.163243 0.173591 0.0786683 
vn 0 0.34202 0.939693 
vn 0 0.34202 0.939693 
vn 0 0.34202 0.939693 
vn 0 0.34202 0.939693 
f 892//892 893//893 894//894 
f 894//894 895//895 892//892 
o mesh8321
v 0.163628 0.170088 0.0778149 
v 0.163243 0.170088 0.0778149 
v 0.163243 0.172907 0.0767889 
v 0.163628 0.172907 0.0767889 
vn 0 -0.34202 -0.939693 
vn 0 -0.34202 -0.939693 
vn 0 -0.34202 -0.939693 
vn 0 -0.34202 -0.939693 
f 896//896 897//897 898//898 
f 898//898 899//899 896//896 
o mesh8322
v 0.163243 0.173591 0.0786683 
v 0.163628 0.173591 0.0786683 
v 0.163443 0.173471 0.0783394 
v 0.163628 0.172907 0.0767889 
v 0.163443 0.173026 0.0771178 
v 0.163243 0.172907 0.0767889 
v 0.163243 0.173026 0.0771178 
v 0.163243 0.173471 0.0783394 
vn 0 0.939693 -0.34202 
vn 0 0.939693 -0.34202 
vn 0 0.939693 -0.34202 
vn 0 0.939693 -0.34202 
vn 0 0.939693 -0.34202 
vn 0 0.939693 -0.34202 
vn 0 0.939693 -0.34202 
vn 0 0.939693 -0.34202 
f 900//900 901//901 902//902 
f 903//903 904//904 902//902 
f 902//902 901//901 903//903 
f 905//905 906//906 904//904 
f 904//904 903//903 905//905 
f 902//902 907//907 900//900 
usemtl 1.000000_1.000000_0.949020_0.000000_0.000000
o mesh8323
v 0.163443 0.173471 0.0783394 
v 0.163443 0.173026 0.0771178 
v 0.163443 0.173261 0.0770323 
v 0.163443 0.173706 0.0782539 
vn 1 0 0 
vn 1 0 0 
vn 1 0 0 
vn 1 0 0 
f 908//908 909//909 910//910 
f 910//910 911//911 908//908 
usemtl 0.168627_0.780392_0.219608_0.000000_0.000000
o mesh8324
v 0.163243 0.173261 0.0770323 
v 0.163243 0.173706 0.0782539 
v 0.163443 0.173706 0.0782539 
v 0.163443 0.173261 0.0770323 
vn 0 0.939693 -0.34202 
vn 0 0.939693 -0.34202 
vn 0 0.939693 -0.34202 
vn 0 0.939693 -0.34202 
f 912//912 913//913 914//914 
f 914//914 915//915 912//912 
usemtl 0.823529_0.823529_1.000000_0.000000_0.000000
o mesh8325
v 0.163243 0.173706 0.0782539 
v 0.163243 0.173471 0.0783394 
v 0.163443 0.173471 0.0783394 
v 0.163443 0.173706 0.0782539 
vn 0 0.34202 0.939693 
vn 0 0.34202 0.939693 
vn 0 0.34202 0.939693 
vn 0 0.34202 0.939693 
f 916//916 917//917 918//918 
f 918//918 919//919 916//916 
o mesh8326
v 0.163243 0.173261 0.0770323 
v 0.163443 0.173261 0.0770323 
v 0.163443 0.173026 0.0771178 
v 0.163243 0.173026 0.0771178 
vn 0 -0.34202 -0.939693 
vn 0 -0.34202 -0.939693 
vn 0 -0.34202 -0.939693 
vn 0 -0.34202 -0.939693 
f 920//920 921//921 922//922 
f 922//922 923//923 920//920 
o mesh8327
v 0.163243 0.173591 0.0786683 
v 0.163243 0.170207 0.0781438 
v 0.163243 0.170652 0.0793654 
v 0.163243 0.169972 0.0782293 
v 0.163243 0.170417 0.0794509 
v 0.163243 0.170088 0.0778149 
v 0.163243 0.173471 0.0783394 
v 0.163243 0.173026 0.0771178 
v 0.163243 0.173261 0.0770323 
v 0.163243 0.173706 0.0782539 
v 0.163243 0.170772 0.0796943 
v 0.163243 0.172907 0.0767889 
vn -1 0 0 
vn -1 0 0 
vn -1 0 0 
vn -1 0 0 
vn -1 0 0 
vn -1 0 0 
vn -1 0 0 
vn -1 0 0 
vn -1 0 0 
vn -1 0 0 
vn -1 0 0 
vn -1 0 0 
f 924//924 925//925 926//926 
f 925//925 927//927 928//928 
f 929//929 930//930 931//931 
f 932//932 931//931 930//930 
f 928//928 926//926 925//925 
f 925//925 924//924 930//930 
f 930//930 933//933 932//932 
f 930//930 929//929 925//925 
f 926//926 934//934 924//924 
f 931//931 935//935 929//929 
o mesh8328
v 0.163243 0.170088 0.0778149 
v 0.163628 0.170088 0.0778149 
v 0.163443 0.170207 0.0781438 
v 0.163628 0.170772 0.0796943 
v 0.163443 0.170652 0.0793654 
v 0.163243 0.170772 0.0796943 
v 0.163243 0.170652 0.0793654 
v 0.163243 0.170207 0.0781438 
vn 0 -0.939693 0.34202 
vn 0 -0.939693 0.34202 
vn 0 -0.939693 0.34202 
vn 0 -0.939693 0.34202 
vn 0 -0.939693 0.34202 
vn 0 -0.939693 0.34202 
vn 0 -0.939693 0.34202 
vn 0 -0.939693 0.34202 
f 936//936 937//937 938//938 
f 939//939 940//940 938//938 
f 938//938 937//937 939//939 
f 941//941 942//942 940//940 
f 940//940 939//939 941//941 
f 938//938 943//943 936//936 
o mesh8329
v 0.163243 0.169972 0.0782293 
v 0.163443 0.169972 0.0782293 
v 0.163443 0.170417 0.0794509 
v 0.163243 0.170417 0.0794509 
vn 0 -0.939693 0.34202 
vn 0 -0.939693 0.34202 
vn 0 -0.939693 0.34202 
vn 0 -0.939693 0.34202 
f 944//944 945//945 946//946 
f 946//946 947//947 944//944 
o mesh8330
v 0.163243 0.170417 0.0794509 
v 0.163443 0.170417 0.0794509 
v 0.163443 0.170652 0.0793654 
v 0.163243 0.170652 0.0793654 
vn 0 0.34202 0.939693 
vn 0 0.34202 0.939693 
vn 0 0.34202 0.939693 
vn 0 0.34202 0.939693 
f 948//948 949//949 950//950 
f 950//950 951//951 948//948 
o mesh8331
v 0.163443 0.170207 0.0781438 
v 0.163443 0.170652 0.0793654 
v 0.163443 0.170417 0.0794509 
v 0.163443 0.169972 0.0782293 
vn 1 0 0 
vn 1 0 0 
vn 1 0 0 
vn 1 0 0 
f 952//952 953//953 954//954 
f 954//954 955//955 952//952 
o mesh8332
v 0.163243 0.169972 0.0782293 
v 0.163243 0.170207 0.0781438 
v 0.163443 0.170207 0.0781438 
v 0.163443 0.169972 0.0782293 
vn 0 -0.34202 -0.939693 
vn 0 -0.34202 -0.939693 
vn 0 -0.34202 -0.939693 
vn 0 -0.34202 -0.939693 
f 956//956 957//957 958//958 
f 958//958 959//959 956//956 
