# OBJ generated by ONSHAPE BY PTC INC, 1.215 Units = meters
mtllib EBoxNewAsm_stp_1_Beelink_mini_PC_v4_stp_1_Beelink_mini_PC_v4_61_stp_1_solid1.mtl
g EBoxNewAsm.stp-1/Beelink mini PC v4.stp-1/Beelink mini PC v4-61.stp-1-solid1
usemtl 0.188235_0.231373_0.588235_0.000000_0.000000
o mesh4591
v 0.21915 0.23128 0.188142 
v 0.21915 0.231622 0.189081 
v 0.21915 0.222225 0.192501 
v 0.21915 0.221883 0.191562 
vn 1 1.74155e-14 4.78488e-14 
vn 1 1.74155e-14 4.78488e-14 
vn 1 1.74155e-14 4.78488e-14 
vn 1 1.74155e-14 4.78488e-14 
f 1//1 2//2 3//3 
f 3//3 4//4 1//1 
o mesh4592
v 0.20715 0.222225 0.192501 
v 0.20715 0.221883 0.191562 
v 0.21915 0.221883 0.191562 
v 0.21915 0.222225 0.192501 
vn 0 -0.939693 0.34202 
vn 0 -0.939693 0.34202 
vn 0 -0.939693 0.34202 
vn 0 -0.939693 0.34202 
f 5//5 6//6 7//7 
f 7//7 8//8 5//5 
o mesh4593
v 0.20715 0.221883 0.191562 
v 0.20715 0.222225 0.192501 
v 0.20715 0.231622 0.189081 
v 0.20715 0.23128 0.188142 
vn -1 -1.74155e-14 -4.78488e-14 
vn -1 -1.74155e-14 -4.78488e-14 
vn -1 -1.74155e-14 -4.78488e-14 
vn -1 -1.74155e-14 -4.78488e-14 
f 9//9 10//10 11//11 
f 11//11 12//12 9//9 
o mesh4594
v 0.21915 0.23128 0.188142 
v 0.21915 0.221883 0.191562 
v 0.20715 0.221883 0.191562 
v 0.20715 0.23128 0.188142 
vn 5.09196e-14 -0.34202 -0.939693 
vn 5.09196e-14 -0.34202 -0.939693 
vn 5.09196e-14 -0.34202 -0.939693 
vn 5.09196e-14 -0.34202 -0.939693 
f 13//13 14//14 15//15 
f 15//15 16//16 13//13 
o mesh4595
v 0.21915 0.23128 0.188142 
v 0.20715 0.23128 0.188142 
v 0.20715 0.231622 0.189081 
v 0.21915 0.231622 0.189081 
vn 0 0.939693 -0.34202 
vn 0 0.939693 -0.34202 
vn 0 0.939693 -0.34202 
vn 0 0.939693 -0.34202 
f 17//17 18//18 19//19 
f 19//19 20//20 17//17 
o mesh4596
v 0.21915 0.222225 0.192501 
v 0.21915 0.231622 0.189081 
v 0.20715 0.231622 0.189081 
v 0.20715 0.222225 0.192501 
vn -5.09196e-14 0.34202 0.939693 
vn -5.09196e-14 0.34202 0.939693 
vn -5.09196e-14 0.34202 0.939693 
vn -5.09196e-14 0.34202 0.939693 
f 21//21 22//22 23//23 
f 23//23 24//24 21//21 
