# OBJ generated by ONSHAPE BY PTC INC, 1.215 Units = meters
mtllib EBoxNewAsm_stp_1_Beelink_mini_PC_v4_stp_1_Beelink_mini_PC_v4_66_stp_1_solid1.mtl
g EBoxNewAsm.stp-1/Beelink mini PC v4.stp-1/Beelink mini PC v4-66.stp-1-solid1
usemtl 0.960784_0.960784_0.964706_0.000000_0.000000
o mesh7932
v 0.30985 0.155441 0.210317 
v 0.29785 0.155441 0.210317 
v 0.29785 0.153663 0.205431 
v 0.30985 0.153663 0.205431 
vn 0 -0.939693 0.34202 
vn 0 -0.939693 0.34202 
vn 0 -0.939693 0.34202 
vn 0 -0.939693 0.34202 
f 1//1 2//2 3//3 
f 3//3 4//4 1//1 
o mesh7933
v 0.30985 0.153757 0.205397 
v 0.30985 0.153663 0.205431 
v 0.29785 0.153663 0.205431 
v 0.29785 0.153757 0.205397 
vn 5.09196e-14 -0.34202 -0.939693 
vn 5.09196e-14 -0.34202 -0.939693 
vn 5.09196e-14 -0.34202 -0.939693 
vn 5.09196e-14 -0.34202 -0.939693 
f 5//5 6//6 7//7 
f 7//7 8//8 5//5 
o mesh7934
v 0.29785 0.153757 0.205397 
v 0.29785 0.155501 0.210189 
v 0.30985 0.155501 0.210189 
v 0.30985 0.153757 0.205397 
vn 0 0.939693 -0.34202 
vn 0 0.939693 -0.34202 
vn 0 0.939693 -0.34202 
vn 0 0.939693 -0.34202 
f 9//9 10//10 11//11 
f 11//11 12//12 9//9 
o mesh7935
v 0.29785 0.153663 0.205431 
v 0.29785 0.155441 0.210317 
v 0.29785 0.155501 0.210189 
v 0.29785 0.167375 0.205974 
v 0.29785 0.167341 0.20588 
v 0.29785 0.153757 0.205397 
vn -1 -1.74155e-14 -4.78488e-14 
vn -1 -1.74155e-14 -4.78488e-14 
vn -1 -1.74155e-14 -4.78488e-14 
vn -1 -1.74155e-14 -4.78488e-14 
vn -1 -1.74155e-14 -4.78488e-14 
vn -1 -1.74155e-14 -4.78488e-14 
f 13//13 14//14 15//15 
f 16//16 17//17 15//15 
f 15//15 14//14 16//16 
f 15//15 18//18 13//13 
o mesh7936
v 0.30985 0.167375 0.205974 
v 0.30985 0.155441 0.210317 
v 0.30985 0.155501 0.210189 
v 0.30985 0.153663 0.205431 
v 0.30985 0.153757 0.205397 
v 0.30985 0.167341 0.20588 
vn 1 1.74155e-14 4.78488e-14 
vn 1 1.74155e-14 4.78488e-14 
vn 1 1.74155e-14 4.78488e-14 
vn 1 1.74155e-14 4.78488e-14 
vn 1 1.74155e-14 4.78488e-14 
vn 1 1.74155e-14 4.78488e-14 
f 19//19 20//20 21//21 
f 22//22 23//23 21//21 
f 21//21 20//20 22//22 
f 21//21 24//24 19//19 
o mesh7937
v 0.30985 0.155501 0.210189 
v 0.29785 0.155501 0.210189 
v 0.29785 0.167341 0.20588 
v 0.30985 0.167341 0.20588 
vn 5.09196e-14 -0.34202 -0.939693 
vn 5.09196e-14 -0.34202 -0.939693 
vn 5.09196e-14 -0.34202 -0.939693 
vn 5.09196e-14 -0.34202 -0.939693 
f 25//25 26//26 27//27 
f 27//27 28//28 25//25 
o mesh7938
v 0.30985 0.167341 0.20588 
v 0.29785 0.167341 0.20588 
v 0.29785 0.167375 0.205974 
v 0.30985 0.167375 0.205974 
vn 0 0.939693 -0.34202 
vn 0 0.939693 -0.34202 
vn 0 0.939693 -0.34202 
vn 0 0.939693 -0.34202 
f 29//29 30//30 31//31 
f 31//31 32//32 29//29 
o mesh7939
v 0.30985 0.167375 0.205974 
v 0.29785 0.167375 0.205974 
v 0.29785 0.155441 0.210317 
v 0.30985 0.155441 0.210317 
vn -5.09196e-14 0.34202 0.939693 
vn -5.09196e-14 0.34202 0.939693 
vn -5.09196e-14 0.34202 0.939693 
vn -5.09196e-14 0.34202 0.939693 
f 33//33 34//34 35//35 
f 35//35 36//36 33//33 
