# OBJ generated by ONSHAPE BY PTC INC, 1.215 Units = meters
mtllib EBoxNewAsm_stp_1_Beelink_mini_PC_v4_stp_1_Beelink_mini_PC_v4_52_stp_1_solid1.mtl
g EBoxNewAsm.stp-1/Beelink mini PC v4.stp-1/Beelink mini PC v4-52.stp-1-solid1
usemtl 0.768627_0.207843_0.152941_0.000000_0.000000
o mesh13967
v 0.20815 0.177637 0.209901 
v 0.20815 0.181813 0.208876 
v 0.20815 0.1819 0.209333 
v 0.20815 0.181936 0.209797 
v 0.20815 0.181922 0.210263 
v 0.20815 0.181858 0.210724 
v 0.20815 0.181744 0.211175 
v 0.20815 0.181582 0.211612 
v 0.20815 0.181374 0.212028 
v 0.20815 0.181122 0.21242 
v 0.20815 0.180829 0.212782 
v 0.20815 0.180499 0.21311 
v 0.20815 0.180135 0.213401 
v 0.20815 0.179742 0.21365 
v 0.20815 0.179324 0.213856 
v 0.20815 0.178887 0.214015 
v 0.20815 0.178435 0.214126 
v 0.20815 0.177973 0.214188 
v 0.20815 0.177508 0.214199 
v 0.20815 0.177044 0.21416 
v 0.20815 0.176587 0.214071 
v 0.20815 0.176142 0.213933 
v 0.20815 0.175715 0.213747 
v 0.20815 0.17531 0.213517 
v 0.20815 0.174933 0.213244 
v 0.20815 0.174587 0.212932 
v 0.20815 0.174278 0.212585 
v 0.20815 0.174007 0.212206 
v 0.20815 0.173779 0.2118 
v 0.20815 0.173596 0.211371 
v 0.20815 0.173461 0.210926 
v 0.20815 0.173375 0.210468 
v 0.20815 0.173338 0.210004 
v 0.20815 0.173352 0.209539 
v 0.20815 0.173417 0.209078 
v 0.20815 0.17353 0.208626 
v 0.20815 0.173692 0.20819 
v 0.20815 0.1739 0.207773 
v 0.20815 0.174152 0.207382 
v 0.20815 0.174445 0.20702 
v 0.20815 0.174775 0.206691 
v 0.20815 0.175139 0.206401 
v 0.20815 0.175532 0.206151 
v 0.20815 0.17595 0.205946 
v 0.20815 0.176387 0.205786 
v 0.20815 0.17684 0.205675 
v 0.20815 0.177301 0.205614 
v 0.20815 0.177767 0.205603 
v 0.20815 0.17823 0.205642 
v 0.20815 0.178687 0.205731 
v 0.20815 0.179132 0.205869 
v 0.20815 0.179559 0.206054 
v 0.20815 0.179964 0.206285 
v 0.20815 0.180341 0.206557 
v 0.20815 0.180687 0.206869 
v 0.20815 0.180997 0.207217 
v 0.20815 0.181267 0.207596 
v 0.20815 0.181495 0.208002 
v 0.20815 0.181678 0.20843 
vn 1 1.74155e-14 4.78488e-14 
vn 1 1.74155e-14 4.78488e-14 
vn 1 1.74155e-14 4.78488e-14 
vn 1 1.74155e-14 4.78488e-14 
vn 1 1.74155e-14 4.78488e-14 
vn 1 1.74155e-14 4.78488e-14 
vn 1 1.74155e-14 4.78488e-14 
vn 1 1.74155e-14 4.78488e-14 
vn 1 1.74155e-14 4.78488e-14 
vn 1 1.74155e-14 4.78488e-14 
vn 1 1.74155e-14 4.78488e-14 
vn 1 1.74155e-14 4.78488e-14 
vn 1 1.74155e-14 4.78488e-14 
vn 1 1.74155e-14 4.78488e-14 
vn 1 1.74155e-14 4.78488e-14 
vn 1 1.74155e-14 4.78488e-14 
vn 1 1.74155e-14 4.78488e-14 
vn 1 1.74155e-14 4.78488e-14 
vn 1 1.74155e-14 4.78488e-14 
vn 1 1.74155e-14 4.78488e-14 
vn 1 1.74155e-14 4.78488e-14 
vn 1 1.74155e-14 4.78488e-14 
vn 1 1.74155e-14 4.78488e-14 
vn 1 1.74155e-14 4.78488e-14 
vn 1 1.74155e-14 4.78488e-14 
vn 1 1.74155e-14 4.78488e-14 
vn 1 1.74155e-14 4.78488e-14 
vn 1 1.74155e-14 4.78488e-14 
vn 1 1.74155e-14 4.78488e-14 
vn 1 1.74155e-14 4.78488e-14 
vn 1 1.74155e-14 4.78488e-14 
vn 1 1.74155e-14 4.78488e-14 
vn 1 1.74155e-14 4.78488e-14 
vn 1 1.74155e-14 4.78488e-14 
vn 1 1.74155e-14 4.78488e-14 
vn 1 1.74155e-14 4.78488e-14 
vn 1 1.74155e-14 4.78488e-14 
vn 1 1.74155e-14 4.78488e-14 
vn 1 1.74155e-14 4.78488e-14 
vn 1 1.74155e-14 4.78488e-14 
vn 1 1.74155e-14 4.78488e-14 
vn 1 1.74155e-14 4.78488e-14 
vn 1 1.74155e-14 4.78488e-14 
vn 1 1.74155e-14 4.78488e-14 
vn 1 1.74155e-14 4.78488e-14 
vn 1 1.74155e-14 4.78488e-14 
vn 1 1.74155e-14 4.78488e-14 
vn 1 1.74155e-14 4.78488e-14 
vn 1 1.74155e-14 4.78488e-14 
vn 1 1.74155e-14 4.78488e-14 
vn 1 1.74155e-14 4.78488e-14 
vn 1 1.74155e-14 4.78488e-14 
vn 1 1.74155e-14 4.78488e-14 
vn 1 1.74155e-14 4.78488e-14 
vn 1 1.74155e-14 4.78488e-14 
vn 1 1.74155e-14 4.78488e-14 
vn 1 1.74155e-14 4.78488e-14 
vn 1 1.74155e-14 4.78488e-14 
vn 1 1.74155e-14 4.78488e-14 
f 1//1 2//2 3//3 
f 3//3 4//4 1//1 
f 4//4 5//5 1//1 
f 5//5 6//6 1//1 
f 6//6 7//7 1//1 
f 7//7 8//8 1//1 
f 8//8 9//9 1//1 
f 9//9 10//10 1//1 
f 10//10 11//11 1//1 
f 11//11 12//12 1//1 
f 12//12 13//13 1//1 
f 13//13 14//14 1//1 
f 14//14 15//15 1//1 
f 15//15 16//16 1//1 
f 16//16 17//17 1//1 
f 17//17 18//18 1//1 
f 18//18 19//19 1//1 
f 19//19 20//20 1//1 
f 20//20 21//21 1//1 
f 21//21 22//22 1//1 
f 22//22 23//23 1//1 
f 23//23 24//24 1//1 
f 24//24 25//25 1//1 
f 25//25 26//26 1//1 
f 26//26 27//27 1//1 
f 27//27 28//28 1//1 
f 28//28 29//29 1//1 
f 29//29 30//30 1//1 
f 30//30 31//31 1//1 
f 31//31 32//32 1//1 
f 32//32 33//33 1//1 
f 33//33 34//34 1//1 
f 34//34 35//35 1//1 
f 35//35 36//36 1//1 
f 36//36 37//37 1//1 
f 37//37 38//38 1//1 
f 38//38 39//39 1//1 
f 39//39 40//40 1//1 
f 40//40 41//41 1//1 
f 41//41 42//42 1//1 
f 42//42 43//43 1//1 
f 43//43 44//44 1//1 
f 44//44 45//45 1//1 
f 45//45 46//46 1//1 
f 46//46 47//47 1//1 
f 47//47 48//48 1//1 
f 48//48 49//49 1//1 
f 49//49 50//50 1//1 
f 50//50 51//51 1//1 
f 51//51 52//52 1//1 
f 52//52 53//53 1//1 
f 53//53 54//54 1//1 
f 54//54 55//55 1//1 
f 55//55 56//56 1//1 
f 56//56 57//57 1//1 
f 57//57 58//58 1//1 
f 58//58 59//59 1//1 
f 59//59 2//2 1//1 
o mesh13968
v 0.20665 0.173596 0.211371 
v 0.20815 0.173596 0.211371 
v 0.20815 0.173779 0.2118 
v 0.20665 0.173779 0.2118 
v 0.20815 0.174007 0.212206 
v 0.20665 0.174007 0.212206 
v 0.20815 0.174278 0.212585 
v 0.20665 0.174278 0.212585 
v 0.20815 0.174587 0.212932 
v 0.20665 0.174587 0.212932 
v 0.20815 0.174933 0.213244 
v 0.20665 0.174933 0.213244 
v 0.20815 0.17531 0.213517 
v 0.20665 0.17531 0.213517 
v 0.20815 0.175715 0.213747 
v 0.20665 0.175715 0.213747 
v 0.20815 0.176142 0.213933 
v 0.20665 0.176142 0.213933 
v 0.20815 0.176587 0.214071 
v 0.20665 0.176587 0.214071 
v 0.20815 0.177044 0.21416 
v 0.20665 0.177044 0.21416 
v 0.20815 0.177508 0.214199 
v 0.20665 0.177508 0.214199 
v 0.20815 0.177973 0.214188 
v 0.20665 0.177973 0.214188 
v 0.20815 0.178435 0.214126 
v 0.20665 0.178435 0.214126 
v 0.20815 0.178887 0.214015 
v 0.20665 0.178887 0.214015 
v 0.20815 0.179324 0.213856 
v 0.20665 0.179324 0.213856 
v 0.20815 0.179742 0.21365 
v 0.20665 0.179742 0.21365 
v 0.20815 0.180135 0.213401 
v 0.20665 0.180135 0.213401 
v 0.20815 0.180499 0.21311 
v 0.20665 0.180499 0.21311 
v 0.20815 0.180829 0.212782 
v 0.20665 0.180829 0.212782 
v 0.20815 0.181122 0.21242 
v 0.20665 0.181122 0.21242 
v 0.20815 0.181374 0.212028 
v 0.20665 0.181374 0.212028 
v 0.20815 0.181582 0.211612 
v 0.20665 0.181582 0.211612 
v 0.20815 0.181744 0.211175 
v 0.20665 0.181744 0.211175 
v 0.20815 0.181858 0.210724 
v 0.20665 0.181858 0.210724 
v 0.20815 0.181922 0.210263 
v 0.20665 0.181922 0.210263 
v 0.20815 0.181936 0.209797 
v 0.20665 0.181936 0.209797 
v 0.20815 0.1819 0.209333 
v 0.20665 0.1819 0.209333 
v 0.20815 0.181813 0.208876 
v 0.20665 0.181813 0.208876 
v 0.20815 0.181678 0.20843 
v 0.20665 0.181678 0.20843 
v 0.20815 0.181495 0.208002 
v 0.20665 0.181495 0.208002 
v 0.20815 0.181267 0.207596 
v 0.20665 0.181267 0.207596 
v 0.20815 0.180997 0.207217 
v 0.20665 0.180997 0.207217 
v 0.20815 0.180687 0.206869 
v 0.20665 0.180687 0.206869 
v 0.20815 0.180341 0.206557 
v 0.20665 0.180341 0.206557 
v 0.20815 0.179964 0.206285 
v 0.20665 0.179964 0.206285 
v 0.20815 0.179559 0.206054 
v 0.20665 0.179559 0.206054 
v 0.20815 0.179132 0.205869 
v 0.20665 0.179132 0.205869 
v 0.20815 0.178687 0.205731 
v 0.20665 0.178687 0.205731 
v 0.20815 0.17823 0.205642 
v 0.20665 0.17823 0.205642 
v 0.20815 0.177767 0.205603 
v 0.20665 0.177767 0.205603 
v 0.20815 0.177301 0.205614 
v 0.20665 0.177301 0.205614 
v 0.20815 0.17684 0.205675 
v 0.20665 0.17684 0.205675 
v 0.20815 0.176387 0.205786 
v 0.20665 0.176387 0.205786 
v 0.20815 0.17595 0.205946 
v 0.20665 0.17595 0.205946 
v 0.20815 0.175532 0.206151 
v 0.20665 0.175532 0.206151 
v 0.20815 0.175139 0.206401 
v 0.20665 0.175139 0.206401 
v 0.20815 0.174775 0.206691 
v 0.20665 0.174775 0.206691 
v 0.20815 0.174445 0.20702 
v 0.20665 0.174445 0.20702 
v 0.20815 0.174152 0.207382 
v 0.20665 0.174152 0.207382 
v 0.20815 0.1739 0.207773 
v 0.20665 0.1739 0.207773 
v 0.20815 0.173692 0.20819 
v 0.20665 0.173692 0.20819 
v 0.20815 0.17353 0.208626 
v 0.20665 0.17353 0.208626 
v 0.20815 0.173417 0.209078 
v 0.20665 0.173417 0.209078 
v 0.20815 0.173352 0.209539 
v 0.20665 0.173352 0.209539 
v 0.20815 0.173338 0.210004 
v 0.20665 0.173338 0.210004 
v 0.20815 0.173375 0.210468 
v 0.20665 0.173375 0.210468 
v 0.20815 0.173461 0.210926 
v 0.20665 0.173461 0.210926 
vn -3.15315e-29 -0.939693 0.34202 
vn -3.15315e-29 -0.939693 0.34202 
vn -5.50538e-15 -0.897205 0.441614 
vn -5.50538e-15 -0.897205 0.441614 
vn -1.09462e-14 -0.844199 0.53603 
vn -1.09462e-14 -0.844199 0.53603 
vn -1.62587e-14 -0.781295 0.624162 
vn -1.62587e-14 -0.781295 0.624162 
vn -2.13806e-14 -0.709231 0.704976 
vn -2.13806e-14 -0.709231 0.704976 
vn -2.62518e-14 -0.628853 0.777525 
vn -2.62518e-14 -0.628853 0.777525 
vn -3.08152e-14 -0.541101 0.840958 
vn -3.08152e-14 -0.541101 0.840958 
vn -3.50174e-14 -0.447006 0.894531 
vn -3.50174e-14 -0.447006 0.894531 
vn -3.8809e-14 -0.347669 0.937617 
vn -3.8809e-14 -0.347669 0.937617 
vn -4.21456e-14 -0.244257 0.969711 
vn -4.21456e-14 -0.244257 0.969711 
vn -4.49881e-14 -0.137981 0.990435 
vn -4.49881e-14 -0.137981 0.990435 
vn -4.73031e-14 -0.0300873 0.999547 
vn -4.73031e-14 -0.0300873 0.999547 
vn -4.90636e-14 0.0781591 0.996941 
vn -4.90636e-14 0.0781591 0.996941 
vn -5.02488e-14 0.185489 0.982646 
vn -5.02488e-14 0.185489 0.982646 
vn -5.08449e-14 0.290645 0.956831 
vn -5.08449e-14 0.290645 0.956831 
vn -5.08449e-14 0.392392 0.919798 
vn -5.08449e-14 0.392392 0.919798 
vn -5.02488e-14 0.48954 0.871981 
vn -5.02488e-14 0.48954 0.871981 
vn -4.90636e-14 0.580948 0.813941 
vn -4.90636e-14 0.580948 0.813941 
vn -4.73031e-14 0.665545 0.746358 
vn -4.73031e-14 0.665545 0.746358 
vn -4.49881e-14 0.742339 0.670025 
vn -4.49881e-14 0.742339 0.670025 
vn -4.21456e-14 0.81043 0.585836 
vn -4.21456e-14 0.81043 0.585836 
vn -3.8809e-14 0.869019 0.494779 
vn -3.8809e-14 0.869019 0.494779 
vn -3.50174e-14 0.91742 0.397921 
vn -3.50174e-14 0.91742 0.397921 
vn -3.08152e-14 0.955065 0.296398 
vn -3.08152e-14 0.955065 0.296398 
vn -2.62518e-14 0.981512 0.1914 
vn -2.62518e-14 0.981512 0.1914 
vn -2.13806e-14 0.996452 0.0841576 
vn -2.13806e-14 0.996452 0.0841576 
vn -1.62587e-14 0.99971 -0.0240712 
vn -1.62587e-14 0.99971 -0.0240712 
vn -1.09462e-14 0.991247 -0.132018 
vn -1.09462e-14 0.991247 -0.132018 
vn -5.50538e-15 0.971163 -0.238417 
vn -5.50538e-15 0.971163 -0.238417 
vn 1.1466e-28 0.939693 -0.34202 
vn 1.1466e-28 0.939693 -0.34202 
vn 5.50538e-15 0.897205 -0.441614 
vn 5.50538e-15 0.897205 -0.441614 
vn 1.09462e-14 0.844199 -0.53603 
vn 1.09462e-14 0.844199 -0.53603 
vn 1.62587e-14 0.781295 -0.624162 
vn 1.62587e-14 0.781295 -0.624162 
vn 2.13806e-14 0.709231 -0.704976 
vn 2.13806e-14 0.709231 -0.704976 
vn 2.62518e-14 0.628853 -0.777525 
vn 2.62518e-14 0.628853 -0.777525 
vn 3.08152e-14 0.541101 -0.840958 
vn 3.08152e-14 0.541101 -0.840958 
vn 3.50174e-14 0.447006 -0.894531 
vn 3.50174e-14 0.447006 -0.894531 
vn 3.8809e-14 0.347669 -0.937617 
vn 3.8809e-14 0.347669 -0.937617 
vn 4.21456e-14 0.244257 -0.969711 
vn 4.21456e-14 0.244257 -0.969711 
vn 4.49881e-14 0.137981 -0.990435 
vn 4.49881e-14 0.137981 -0.990435 
vn 4.73031e-14 0.0300873 -0.999547 
vn 4.73031e-14 0.0300873 -0.999547 
vn 4.90636e-14 -0.0781591 -0.996941 
vn 4.90636e-14 -0.0781591 -0.996941 
vn 5.02488e-14 -0.185489 -0.982646 
vn 5.02488e-14 -0.185489 -0.982646 
vn 5.08449e-14 -0.290645 -0.956831 
vn 5.08449e-14 -0.290645 -0.956831 
vn 5.08449e-14 -0.392392 -0.919798 
vn 5.08449e-14 -0.392392 -0.919798 
vn 5.02488e-14 -0.48954 -0.871981 
vn 5.02488e-14 -0.48954 -0.871981 
vn 4.90636e-14 -0.580948 -0.813941 
vn 4.90636e-14 -0.580948 -0.813941 
vn 4.73031e-14 -0.665545 -0.746358 
vn 4.73031e-14 -0.665545 -0.746358 
vn 4.49881e-14 -0.742339 -0.670025 
vn 4.49881e-14 -0.742339 -0.670025 
vn 4.21456e-14 -0.81043 -0.585836 
vn 4.21456e-14 -0.81043 -0.585836 
vn 3.8809e-14 -0.869019 -0.494779 
vn 3.8809e-14 -0.869019 -0.494779 
vn 3.50174e-14 -0.91742 -0.397921 
vn 3.50174e-14 -0.91742 -0.397921 
vn 3.08152e-14 -0.955065 -0.296398 
vn 3.08152e-14 -0.955065 -0.296398 
vn 2.62518e-14 -0.981512 -0.1914 
vn 2.62518e-14 -0.981512 -0.1914 
vn 2.13806e-14 -0.996452 -0.0841576 
vn 2.13806e-14 -0.996452 -0.0841576 
vn 1.62587e-14 -0.99971 0.0240712 
vn 1.62587e-14 -0.99971 0.0240712 
vn 1.09462e-14 -0.991247 0.132018 
vn 1.09462e-14 -0.991247 0.132018 
vn 5.50538e-15 -0.971163 0.238417 
vn 5.50538e-15 -0.971163 0.238417 
f 60//60 61//61 62//62 
f 63//63 62//62 64//64 
f 65//65 64//64 66//66 
f 67//67 66//66 68//68 
f 69//69 68//68 70//70 
f 71//71 70//70 72//72 
f 73//73 72//72 74//74 
f 75//75 74//74 76//76 
f 77//77 76//76 78//78 
f 79//79 78//78 80//80 
f 81//81 80//80 82//82 
f 83//83 82//82 84//84 
f 85//85 84//84 86//86 
f 87//87 86//86 88//88 
f 89//89 88//88 90//90 
f 91//91 90//90 92//92 
f 93//93 92//92 94//94 
f 95//95 94//94 96//96 
f 97//97 96//96 98//98 
f 99//99 98//98 100//100 
f 101//101 100//100 102//102 
f 103//103 102//102 104//104 
f 105//105 104//104 106//106 
f 107//107 106//106 108//108 
f 109//109 108//108 110//110 
f 111//111 110//110 112//112 
f 113//113 112//112 114//114 
f 115//115 114//114 116//116 
f 117//117 116//116 118//118 
f 119//119 118//118 120//120 
f 121//121 120//120 122//122 
f 123//123 122//122 124//124 
f 125//125 124//124 126//126 
f 127//127 126//126 128//128 
f 129//129 128//128 130//130 
f 131//131 130//130 132//132 
f 133//133 132//132 134//134 
f 135//135 134//134 136//136 
f 137//137 136//136 138//138 
f 139//139 138//138 140//140 
f 141//141 140//140 142//142 
f 143//143 142//142 144//144 
f 145//145 144//144 146//146 
f 147//147 146//146 148//148 
f 149//149 148//148 150//150 
f 151//151 150//150 152//152 
f 153//153 152//152 154//154 
f 155//155 154//154 156//156 
f 157//157 156//156 158//158 
f 159//159 158//158 160//160 
f 161//161 160//160 162//162 
f 163//163 162//162 164//164 
f 165//165 164//164 166//166 
f 167//167 166//166 168//168 
f 169//169 168//168 170//170 
f 171//171 170//170 172//172 
f 173//173 172//172 174//174 
f 175//175 174//174 61//61 
f 61//61 60//60 175//175 
f 174//174 175//175 173//173 
f 172//172 173//173 171//171 
f 170//170 171//171 169//169 
f 168//168 169//169 167//167 
f 166//166 167//167 165//165 
f 164//164 165//165 163//163 
f 162//162 163//163 161//161 
f 160//160 161//161 159//159 
f 158//158 159//159 157//157 
f 156//156 157//157 155//155 
f 154//154 155//155 153//153 
f 152//152 153//153 151//151 
f 150//150 151//151 149//149 
f 148//148 149//149 147//147 
f 146//146 147//147 145//145 
f 144//144 145//145 143//143 
f 142//142 143//143 141//141 
f 140//140 141//141 139//139 
f 138//138 139//139 137//137 
f 136//136 137//137 135//135 
f 134//134 135//135 133//133 
f 132//132 133//133 131//131 
f 130//130 131//131 129//129 
f 128//128 129//129 127//127 
f 126//126 127//127 125//125 
f 124//124 125//125 123//123 
f 122//122 123//123 121//121 
f 120//120 121//121 119//119 
f 118//118 119//119 117//117 
f 116//116 117//117 115//115 
f 114//114 115//115 113//113 
f 112//112 113//113 111//111 
f 110//110 111//111 109//109 
f 108//108 109//109 107//107 
f 106//106 107//107 105//105 
f 104//104 105//105 103//103 
f 102//102 103//103 101//101 
f 100//100 101//101 99//99 
f 98//98 99//99 97//97 
f 96//96 97//97 95//95 
f 94//94 95//95 93//93 
f 92//92 93//93 91//91 
f 90//90 91//91 89//89 
f 88//88 89//89 87//87 
f 86//86 87//87 85//85 
f 84//84 85//85 83//83 
f 82//82 83//83 81//81 
f 80//80 81//81 79//79 
f 78//78 79//79 77//77 
f 76//76 77//77 75//75 
f 74//74 75//75 73//73 
f 72//72 73//73 71//71 
f 70//70 71//71 69//69 
f 68//68 69//69 67//67 
f 66//66 67//67 65//65 
f 64//64 65//65 63//63 
f 62//62 63//63 60//60 
o mesh13969
v 0.20665 0.17531 0.213517 
v 0.20665 0.175895 0.212644 
v 0.20665 0.175608 0.212439 
v 0.20665 0.175715 0.213747 
v 0.20665 0.176203 0.212817 
v 0.20665 0.17823 0.205642 
v 0.20665 0.177767 0.205603 
v 0.20665 0.177738 0.206652 
v 0.20665 0.177301 0.205614 
v 0.20665 0.177385 0.206661 
v 0.20665 0.17684 0.205675 
v 0.20665 0.177036 0.206707 
v 0.20665 0.176387 0.205786 
v 0.20665 0.176693 0.206791 
v 0.20665 0.17595 0.205946 
v 0.20665 0.176361 0.206912 
v 0.20665 0.175532 0.206151 
v 0.20665 0.176045 0.207068 
v 0.20665 0.174775 0.206691 
v 0.20665 0.175472 0.207477 
v 0.20665 0.175747 0.207257 
v 0.20665 0.174445 0.20702 
v 0.20665 0.175222 0.207726 
v 0.20665 0.174152 0.207382 
v 0.20665 0.175 0.208001 
v 0.20665 0.1739 0.207773 
v 0.20665 0.17481 0.208298 
v 0.20665 0.173375 0.210468 
v 0.20665 0.174417 0.210342 
v 0.20665 0.174388 0.20999 
v 0.20665 0.173461 0.210926 
v 0.20665 0.174484 0.210688 
v 0.20665 0.174278 0.212585 
v 0.20665 0.175108 0.211942 
v 0.20665 0.174902 0.211656 
v 0.20665 0.174587 0.212932 
v 0.20665 0.175345 0.212204 
v 0.20665 0.174933 0.213244 
v 0.20665 0.1819 0.209333 
v 0.20665 0.181813 0.208876 
v 0.20665 0.180797 0.20914 
v 0.20665 0.181678 0.20843 
v 0.20665 0.180696 0.208802 
v 0.20665 0.181495 0.208002 
v 0.20665 0.180559 0.208477 
v 0.20665 0.181267 0.207596 
v 0.20665 0.180387 0.208169 
v 0.20665 0.179559 0.206054 
v 0.20665 0.179132 0.205869 
v 0.20665 0.178773 0.206856 
v 0.20665 0.178687 0.205731 
v 0.20665 0.178436 0.206751 
v 0.20665 0.17809 0.206682 
v 0.20665 0.173692 0.20819 
v 0.20665 0.174653 0.208614 
v 0.20665 0.17353 0.208626 
v 0.20665 0.174531 0.208945 
v 0.20665 0.173596 0.211371 
v 0.20665 0.174588 0.211025 
v 0.20665 0.173779 0.2118 
v 0.20665 0.174728 0.211349 
v 0.20665 0.174007 0.212206 
v 0.20665 0.180341 0.206557 
v 0.20665 0.179964 0.206285 
v 0.20665 0.179403 0.207172 
v 0.20665 0.179096 0.206997 
v 0.20665 0.175139 0.206401 
v 0.20665 0.173338 0.210004 
v 0.20665 0.174398 0.209637 
v 0.20665 0.176587 0.214071 
v 0.20665 0.176865 0.213058 
v 0.20665 0.176527 0.212955 
v 0.20665 0.177044 0.21416 
v 0.20665 0.177212 0.213123 
v 0.20665 0.179505 0.212561 
v 0.20665 0.179205 0.212747 
v 0.20665 0.179475 0.213489 
v 0.20665 0.180997 0.207217 
v 0.20665 0.180183 0.207881 
v 0.20665 0.180687 0.206869 
v 0.20665 0.179949 0.207617 
v 0.20665 0.179688 0.20738 
v 0.20665 0.176142 0.213933 
v 0.20665 0.177508 0.214199 
v 0.20665 0.177564 0.21315 
v 0.20665 0.177973 0.214188 
v 0.20665 0.177916 0.213139 
v 0.20665 0.178535 0.213831 
v 0.20665 0.180135 0.213401 
v 0.20665 0.180499 0.21311 
v 0.20665 0.179782 0.212342 
v 0.20665 0.180829 0.212782 
v 0.20665 0.181122 0.21242 
v 0.20665 0.180258 0.211823 
v 0.20665 0.181374 0.212028 
v 0.20665 0.180451 0.211527 
v 0.20665 0.181582 0.211612 
v 0.20665 0.180611 0.211213 
v 0.20665 0.181744 0.211175 
v 0.20665 0.180735 0.210883 
v 0.20665 0.178435 0.214126 
v 0.20665 0.180034 0.212096 
v 0.20665 0.181922 0.210263 
v 0.20665 0.181936 0.209797 
v 0.20665 0.180887 0.209839 
v 0.20665 0.180861 0.209487 
v 0.20665 0.173417 0.209078 
v 0.20665 0.174446 0.209288 
v 0.20665 0.173352 0.209539 
v 0.20665 0.178266 0.213089 
v 0.20665 0.181858 0.210724 
v 0.20665 0.180823 0.210541 
v 0.20665 0.180874 0.210192 
v 0.20665 0.178887 0.214015 
v 0.20665 0.179324 0.213856 
v 0.20665 0.179742 0.21365 
vn -1 -1.74155e-14 -4.78488e-14 
vn -1 -1.74155e-14 -4.78488e-14 
vn -1 -1.74155e-14 -4.78488e-14 
vn -1 -1.74155e-14 -4.78488e-14 
vn -1 -1.74155e-14 -4.78488e-14 
vn -1 -1.74155e-14 -4.78488e-14 
vn -1 -1.74155e-14 -4.78488e-14 
vn -1 -1.74155e-14 -4.78488e-14 
vn -1 -1.74155e-14 -4.78488e-14 
vn -1 -1.74155e-14 -4.78488e-14 
vn -1 -1.74155e-14 -4.78488e-14 
vn -1 -1.74155e-14 -4.78488e-14 
vn -1 -1.74155e-14 -4.78488e-14 
vn -1 -1.74155e-14 -4.78488e-14 
vn -1 -1.74155e-14 -4.78488e-14 
vn -1 -1.74155e-14 -4.78488e-14 
vn -1 -1.74155e-14 -4.78488e-14 
vn -1 -1.74155e-14 -4.78488e-14 
vn -1 -1.74155e-14 -4.78488e-14 
vn -1 -1.74155e-14 -4.78488e-14 
vn -1 -1.74155e-14 -4.78488e-14 
vn -1 -1.74155e-14 -4.78488e-14 
vn -1 -1.74155e-14 -4.78488e-14 
vn -1 -1.74155e-14 -4.78488e-14 
vn -1 -1.74155e-14 -4.78488e-14 
vn -1 -1.74155e-14 -4.78488e-14 
vn -1 -1.74155e-14 -4.78488e-14 
vn -1 -1.74155e-14 -4.78488e-14 
vn -1 -1.74155e-14 -4.78488e-14 
vn -1 -1.74155e-14 -4.78488e-14 
vn -1 -1.74155e-14 -4.78488e-14 
vn -1 -1.74155e-14 -4.78488e-14 
vn -1 -1.74155e-14 -4.78488e-14 
vn -1 -1.74155e-14 -4.78488e-14 
vn -1 -1.74155e-14 -4.78488e-14 
vn -1 -1.74155e-14 -4.78488e-14 
vn -1 -1.74155e-14 -4.78488e-14 
vn -1 -1.74155e-14 -4.78488e-14 
vn -1 -1.74155e-14 -4.78488e-14 
vn -1 -1.74155e-14 -4.78488e-14 
vn -1 -1.74155e-14 -4.78488e-14 
vn -1 -1.74155e-14 -4.78488e-14 
vn -1 -1.74155e-14 -4.78488e-14 
vn -1 -1.74155e-14 -4.78488e-14 
vn -1 -1.74155e-14 -4.78488e-14 
vn -1 -1.74155e-14 -4.78488e-14 
vn -1 -1.74155e-14 -4.78488e-14 
vn -1 -1.74155e-14 -4.78488e-14 
vn -1 -1.74155e-14 -4.78488e-14 
vn -1 -1.74155e-14 -4.78488e-14 
vn -1 -1.74155e-14 -4.78488e-14 
vn -1 -1.74155e-14 -4.78488e-14 
vn -1 -1.74155e-14 -4.78488e-14 
vn -1 -1.74155e-14 -4.78488e-14 
vn -1 -1.74155e-14 -4.78488e-14 
vn -1 -1.74155e-14 -4.78488e-14 
vn -1 -1.74155e-14 -4.78488e-14 
vn -1 -1.74155e-14 -4.78488e-14 
vn -1 -1.74155e-14 -4.78488e-14 
vn -1 -1.74155e-14 -4.78488e-14 
vn -1 -1.74155e-14 -4.78488e-14 
vn -1 -1.74155e-14 -4.78488e-14 
vn -1 -1.74155e-14 -4.78488e-14 
vn -1 -1.74155e-14 -4.78488e-14 
vn -1 -1.74155e-14 -4.78488e-14 
vn -1 -1.74155e-14 -4.78488e-14 
vn -1 -1.74155e-14 -4.78488e-14 
vn -1 -1.74155e-14 -4.78488e-14 
vn -1 -1.74155e-14 -4.78488e-14 
vn -1 -1.74155e-14 -4.78488e-14 
vn -1 -1.74155e-14 -4.78488e-14 
vn -1 -1.74155e-14 -4.78488e-14 
vn -1 -1.74155e-14 -4.78488e-14 
vn -1 -1.74155e-14 -4.78488e-14 
vn -1 -1.74155e-14 -4.78488e-14 
vn -1 -1.74155e-14 -4.78488e-14 
vn -1 -1.74155e-14 -4.78488e-14 
vn -1 -1.74155e-14 -4.78488e-14 
vn -1 -1.74155e-14 -4.78488e-14 
vn -1 -1.74155e-14 -4.78488e-14 
vn -1 -1.74155e-14 -4.78488e-14 
vn -1 -1.74155e-14 -4.78488e-14 
vn -1 -1.74155e-14 -4.78488e-14 
vn -1 -1.74155e-14 -4.78488e-14 
vn -1 -1.74155e-14 -4.78488e-14 
vn -1 -1.74155e-14 -4.78488e-14 
vn -1 -1.74155e-14 -4.78488e-14 
vn -1 -1.74155e-14 -4.78488e-14 
vn -1 -1.74155e-14 -4.78488e-14 
vn -1 -1.74155e-14 -4.78488e-14 
vn -1 -1.74155e-14 -4.78488e-14 
vn -1 -1.74155e-14 -4.78488e-14 
vn -1 -1.74155e-14 -4.78488e-14 
vn -1 -1.74155e-14 -4.78488e-14 
vn -1 -1.74155e-14 -4.78488e-14 
vn -1 -1.74155e-14 -4.78488e-14 
vn -1 -1.74155e-14 -4.78488e-14 
vn -1 -1.74155e-14 -4.78488e-14 
vn -1 -1.74155e-14 -4.78488e-14 
vn -1 -1.74155e-14 -4.78488e-14 
vn -1 -1.74155e-14 -4.78488e-14 
vn -1 -1.74155e-14 -4.78488e-14 
vn -1 -1.74155e-14 -4.78488e-14 
vn -1 -1.74155e-14 -4.78488e-14 
vn -1 -1.74155e-14 -4.78488e-14 
vn -1 -1.74155e-14 -4.78488e-14 
vn -1 -1.74155e-14 -4.78488e-14 
vn -1 -1.74155e-14 -4.78488e-14 
vn -1 -1.74155e-14 -4.78488e-14 
vn -1 -1.74155e-14 -4.78488e-14 
vn -1 -1.74155e-14 -4.78488e-14 
vn -1 -1.74155e-14 -4.78488e-14 
vn -1 -1.74155e-14 -4.78488e-14 
vn -1 -1.74155e-14 -4.78488e-14 
vn -1 -1.74155e-14 -4.78488e-14 
vn -1 -1.74155e-14 -4.78488e-14 
f 176//176 177//177 178//178 
f 179//179 180//180 177//177 
f 181//181 182//182 183//183 
f 182//182 184//184 185//185 
f 184//184 186//186 187//187 
f 186//186 188//188 189//189 
f 190//190 191//191 189//189 
f 192//192 193//193 191//191 
f 194//194 195//195 196//196 
f 197//197 198//198 195//195 
f 199//199 200//200 198//198 
f 201//201 202//202 200//200 
f 203//203 204//204 205//205 
f 206//206 207//207 204//204 
f 208//208 209//209 210//210 
f 211//211 212//212 209//209 
f 213//213 178//178 212//212 
f 177//177 176//176 179//179 
f 214//214 215//215 216//216 
f 215//215 217//217 218//218 
f 217//217 219//219 220//220 
f 219//219 221//221 222//222 
f 223//223 224//224 225//225 
f 224//224 226//226 227//227 
f 226//226 181//181 228//228 
f 185//185 183//183 182//182 
f 189//189 187//187 186//186 
f 191//191 190//190 192//192 
f 195//195 194//194 197//197 
f 200//200 199//199 201//201 
f 229//229 230//230 202//202 
f 231//231 232//232 230//230 
f 204//204 203//203 206//206 
f 233//233 234//234 207//207 
f 235//235 236//236 234//234 
f 237//237 210//210 236//236 
f 209//209 208//208 211//211 
f 178//178 213//213 176//176 
f 218//218 216//216 215//215 
f 222//222 220//220 219//219 
f 238//238 239//239 240//240 
f 239//239 223//223 241//241 
f 227//227 225//225 224//224 
f 183//183 228//228 181//181 
f 189//189 188//188 190//190 
f 242//242 196//196 193//193 
f 198//198 197//197 199//199 
f 230//230 229//229 231//231 
f 243//243 205//205 244//244 
f 207//207 206//206 233//233 
f 236//236 235//235 237//237 
f 212//212 211//211 213//213 
f 245//245 246//246 247//247 
f 248//248 249//249 246//246 
f 250//250 251//251 252//252 
f 220//220 218//218 217//217 
f 221//221 253//253 254//254 
f 253//253 255//255 256//256 
f 255//255 238//238 257//257 
f 241//241 240//240 239//239 
f 228//228 227//227 226//226 
f 193//193 192//192 242//242 
f 202//202 201//201 229//229 
f 205//205 243//243 203//203 
f 210//210 237//237 208//208 
f 258//258 247//247 180//180 
f 246//246 245//245 248//248 
f 259//259 260//260 249//249 
f 261//261 262//262 260//260 
f 262//262 261//261 263//263 
f 252//252 264//264 250//250 
f 264//264 265//265 266//266 
f 267//267 268//268 269//269 
f 268//268 270//270 271//271 
f 270//270 272//272 273//273 
f 272//272 274//274 275//275 
f 254//254 222//222 221//221 
f 257//257 256//256 255//255 
f 225//225 241//241 223//223 
f 196//196 242//242 194//194 
f 234//234 233//233 235//235 
f 247//247 258//258 245//245 
f 260//260 259//259 261//261 
f 261//261 276//276 263//263 
f 266//266 250//250 264//264 
f 265//265 267//267 277//277 
f 271//271 269//269 268//268 
f 275//275 273//273 272//272 
f 278//278 279//279 280//280 
f 279//279 214//214 281//281 
f 256//256 254//254 253//253 
f 187//187 185//185 184//184 
f 282//282 283//283 232//232 
f 284//284 244//244 283//283 
f 180//180 179//179 258//258 
f 263//263 285//285 262//262 
f 277//277 266//266 265//265 
f 273//273 271//271 270//270 
f 274//274 286//286 287//287 
f 286//286 278//278 288//288 
f 281//281 280//280 279//279 
f 240//240 257//257 238//238 
f 283//283 282//282 284//284 
f 249//249 248//248 259//259 
f 263//263 289//289 290//290 
f 269//269 277//277 267//267 
f 288//288 287//287 286//286 
f 216//216 281//281 214//214 
f 244//244 284//284 243//243 
f 290//290 252//252 263//263 
f 287//287 275//275 274//274 
f 232//232 231//231 282//282 
f 263//263 276//276 289//289 
f 280//280 288//288 278//278 
f 252//252 291//291 264//264 
f 290//290 291//291 252//252 
o mesh13970
v 0.20765 0.179505 0.212561 
v 0.20765 0.179205 0.212747 
v 0.20665 0.179205 0.212747 
v 0.20765 0.179782 0.212342 
v 0.20665 0.179505 0.212561 
v 0.20765 0.180034 0.212096 
v 0.20665 0.179782 0.212342 
v 0.20765 0.180258 0.211823 
v 0.20665 0.180034 0.212096 
v 0.20765 0.180451 0.211527 
v 0.20665 0.180258 0.211823 
v 0.20765 0.180611 0.211213 
v 0.20665 0.180451 0.211527 
v 0.20765 0.180735 0.210883 
v 0.20665 0.180611 0.211213 
v 0.20765 0.180823 0.210541 
v 0.20665 0.180735 0.210883 
v 0.20765 0.180874 0.210192 
v 0.20665 0.180823 0.210541 
v 0.20765 0.180887 0.209839 
v 0.20665 0.180874 0.210192 
v 0.20765 0.180861 0.209487 
v 0.20665 0.180887 0.209839 
v 0.20765 0.180797 0.20914 
v 0.20665 0.180861 0.209487 
v 0.20765 0.180696 0.208802 
v 0.20665 0.180797 0.20914 
v 0.20765 0.180559 0.208477 
v 0.20665 0.180696 0.208802 
v 0.20765 0.180387 0.208169 
v 0.20665 0.180559 0.208477 
v 0.20765 0.180183 0.207881 
v 0.20665 0.180387 0.208169 
v 0.20765 0.179949 0.207617 
v 0.20665 0.180183 0.207881 
v 0.20765 0.179688 0.20738 
v 0.20665 0.179949 0.207617 
v 0.20765 0.179403 0.207172 
v 0.20665 0.179688 0.20738 
v 0.20765 0.179096 0.206997 
v 0.20665 0.179403 0.207172 
v 0.20765 0.178773 0.206856 
v 0.20665 0.179096 0.206997 
v 0.20765 0.178436 0.206751 
v 0.20665 0.178773 0.206856 
v 0.20765 0.17809 0.206682 
v 0.20665 0.178436 0.206751 
v 0.20765 0.177738 0.206652 
v 0.20665 0.17809 0.206682 
v 0.20765 0.177385 0.206661 
v 0.20665 0.177738 0.206652 
v 0.20765 0.177036 0.206707 
v 0.20665 0.177385 0.206661 
v 0.20765 0.176693 0.206791 
v 0.20665 0.177036 0.206707 
v 0.20765 0.176361 0.206912 
v 0.20665 0.176693 0.206791 
v 0.20765 0.176045 0.207068 
v 0.20665 0.176361 0.206912 
v 0.20765 0.175747 0.207257 
v 0.20665 0.176045 0.207068 
v 0.20765 0.175472 0.207477 
v 0.20665 0.175747 0.207257 
v 0.20765 0.175222 0.207726 
v 0.20665 0.175472 0.207477 
v 0.20765 0.175 0.208001 
v 0.20665 0.175222 0.207726 
v 0.20765 0.17481 0.208298 
v 0.20665 0.175 0.208001 
v 0.20765 0.174653 0.208614 
v 0.20665 0.17481 0.208298 
v 0.20765 0.174531 0.208945 
v 0.20665 0.174653 0.208614 
v 0.20765 0.174446 0.209288 
v 0.20665 0.174531 0.208945 
v 0.20765 0.174398 0.209637 
v 0.20665 0.174446 0.209288 
v 0.20765 0.174388 0.20999 
v 0.20665 0.174398 0.209637 
v 0.20765 0.174417 0.210342 
v 0.20665 0.174388 0.20999 
v 0.20765 0.174484 0.210688 
v 0.20665 0.174417 0.210342 
v 0.20765 0.174588 0.211025 
v 0.20665 0.174484 0.210688 
v 0.20765 0.174728 0.211349 
v 0.20665 0.174588 0.211025 
v 0.20765 0.174902 0.211656 
v 0.20665 0.174728 0.211349 
v 0.20765 0.175108 0.211942 
v 0.20665 0.174902 0.211656 
v 0.20765 0.175345 0.212204 
v 0.20665 0.175108 0.211942 
v 0.20765 0.175608 0.212439 
v 0.20665 0.175345 0.212204 
v 0.20765 0.175895 0.212644 
v 0.20665 0.175608 0.212439 
v 0.20765 0.176203 0.212817 
v 0.20665 0.175895 0.212644 
v 0.20765 0.176527 0.212955 
v 0.20665 0.176203 0.212817 
v 0.20765 0.176865 0.213058 
v 0.20665 0.176527 0.212955 
v 0.20765 0.177212 0.213123 
v 0.20665 0.176865 0.213058 
v 0.20765 0.177564 0.21315 
v 0.20665 0.177212 0.213123 
v 0.20765 0.177916 0.213139 
v 0.20665 0.177564 0.21315 
v 0.20765 0.178266 0.213089 
v 0.20665 0.177916 0.213139 
v 0.20665 0.178266 0.213089 
vn 4.91676e-14 -0.574627 -0.818415 
vn 5.03134e-14 -0.482516 -0.875887 
vn 5.03134e-14 -0.482516 -0.875887 
vn 4.74422e-14 -0.659964 -0.751297 
vn 4.91676e-14 -0.574627 -0.818415 
vn 4.51577e-14 -0.737523 -0.675322 
vn 4.74422e-14 -0.659964 -0.751297 
vn 4.23408e-14 -0.806387 -0.591388 
vn 4.51577e-14 -0.737523 -0.675322 
vn 3.90249e-14 -0.865747 -0.500482 
vn 4.23408e-14 -0.806387 -0.591388 
vn 3.5249e-14 -0.914901 -0.403677 
vn 3.90249e-14 -0.865747 -0.500482 
vn 3.10575e-14 -0.953272 -0.302114 
vn 3.5249e-14 -0.914901 -0.403677 
vn 2.65e-14 -0.980406 -0.19699 
vn 3.10575e-14 -0.953272 -0.302114 
vn 2.16301e-14 -0.995983 -0.0895436 
vn 2.65e-14 -0.980406 -0.19699 
vn 1.65053e-14 -0.99982 0.0189582 
vn 2.16301e-14 -0.995983 -0.0895436 
vn 1.11859e-14 -0.991872 0.127237 
vn 1.65053e-14 -0.99982 0.0189582 
vn 5.73462e-15 -0.972233 0.234015 
vn 1.11859e-14 -0.991872 0.127237 
vn 2.15769e-16 -0.941133 0.338035 
vn 5.73462e-15 -0.972233 0.234015 
vn -5.30562e-15 -0.898941 0.438071 
vn 2.15769e-16 -0.941133 0.338035 
vn -1.07645e-14 -0.846151 0.532943 
vn -5.30562e-15 -0.898941 0.438071 
vn -1.60964e-14 -0.783388 0.621533 
vn -1.07645e-14 -0.846151 0.532943 
vn -2.12387e-14 -0.711391 0.702796 
vn -1.60964e-14 -0.783388 0.621533 
vn -2.61306e-14 -0.631009 0.775776 
vn -2.12387e-14 -0.711391 0.702796 
vn -3.07144e-14 -0.543188 0.839611 
vn -2.61306e-14 -0.631009 0.775776 
vn -3.49363e-14 -0.448965 0.893549 
vn -3.07144e-14 -0.543188 0.839611 
vn -3.87463e-14 -0.34945 0.936955 
vn -3.49363e-14 -0.448965 0.893549 
vn -4.20996e-14 -0.245815 0.969317 
vn -3.87463e-14 -0.34945 0.936955 
vn -4.49567e-14 -0.139283 0.990253 
vn -4.20996e-14 -0.245815 0.969317 
vn -4.72838e-14 -0.0311097 0.999516 
vn -4.49567e-14 -0.139283 0.990253 
vn -4.90536e-14 0.0774307 0.996998 
vn -4.72838e-14 -0.0311097 0.999516 
vn -5.02452e-14 0.185058 0.982728 
vn -4.90536e-14 0.0774307 0.996998 
vn -5.08445e-14 0.290505 0.956874 
vn -5.02452e-14 0.185058 0.982728 
vn -5.08445e-14 0.392527 0.919741 
vn -5.08445e-14 0.290505 0.956874 
vn -5.02452e-14 0.489922 0.871766 
vn -5.08445e-14 0.392527 0.919741 
vn -4.90536e-14 0.581542 0.813516 
vn -5.02452e-14 0.489922 0.871766 
vn -4.72838e-14 0.666308 0.745677 
vn -4.90536e-14 0.581542 0.813516 
vn -4.49567e-14 0.743219 0.669048 
vn -4.72838e-14 0.666308 0.745677 
vn -4.20996e-14 0.81137 0.584533 
vn -4.49567e-14 0.743219 0.669048 
vn -3.87463e-14 0.869957 0.493127 
vn -4.20996e-14 0.81137 0.584533 
vn -3.49363e-14 0.91829 0.395909 
vn -3.87463e-14 0.869957 0.493127 
vn -3.07144e-14 0.955798 0.294025 
vn -3.49363e-14 0.91829 0.395909 
vn -2.61306e-14 0.98204 0.188674 
vn -3.07144e-14 0.955798 0.294025 
vn -2.12387e-14 0.996706 0.0810996 
vn -2.61306e-14 0.98204 0.188674 
vn -1.60964e-14 0.999624 -0.0274308 
vn -2.12387e-14 0.996706 0.0810996 
vn -1.07645e-14 0.990758 -0.135638 
vn -1.60964e-14 0.999624 -0.0274308 
vn -5.30562e-15 0.970215 -0.242246 
vn -1.07645e-14 0.990758 -0.135638 
vn 2.15769e-16 0.938235 -0.345999 
vn -5.30562e-15 0.970215 -0.242246 
vn 5.73462e-15 0.895196 -0.445673 
vn 2.15769e-16 0.938235 -0.345999 
vn 1.11859e-14 0.841604 -0.540094 
vn 5.73462e-15 0.895196 -0.445673 
vn 1.65053e-14 0.778093 -0.628149 
vn 1.11859e-14 0.841604 -0.540094 
vn 2.16301e-14 0.70541 -0.7088 
vn 1.65053e-14 0.778093 -0.628149 
vn 2.65e-14 0.624412 -0.781096 
vn 2.16301e-14 0.70541 -0.7088 
vn 3.10575e-14 0.536053 -0.844184 
vn 2.65e-14 0.624412 -0.781096 
vn 3.5249e-14 0.441376 -0.897322 
vn 3.10575e-14 0.536053 -0.844184 
vn 3.90249e-14 0.341497 -0.939883 
vn 3.5249e-14 0.441376 -0.897322 
vn 4.23408e-14 0.237592 -0.971365 
vn 3.90249e-14 0.341497 -0.939883 
vn 4.51577e-14 0.130886 -0.991397 
vn 4.23408e-14 0.237592 -0.971365 
vn 4.74422e-14 0.0226379 -0.999744 
vn 4.51577e-14 0.130886 -0.991397 
vn 4.91676e-14 -0.0858773 -0.996306 
vn 4.74422e-14 0.0226379 -0.999744 
vn 5.03134e-14 -0.19338 -0.981124 
vn 4.91676e-14 -0.0858773 -0.996306 
vn 5.03134e-14 -0.19338 -0.981124 
f 292//292 293//293 294//294 
f 295//295 292//292 296//296 
f 297//297 295//295 298//298 
f 299//299 297//297 300//300 
f 301//301 299//299 302//302 
f 303//303 301//301 304//304 
f 305//305 303//303 306//306 
f 307//307 305//305 308//308 
f 309//309 307//307 310//310 
f 311//311 309//309 312//312 
f 313//313 311//311 314//314 
f 315//315 313//313 316//316 
f 317//317 315//315 318//318 
f 319//319 317//317 320//320 
f 321//321 319//319 322//322 
f 323//323 321//321 324//324 
f 325//325 323//323 326//326 
f 327//327 325//325 328//328 
f 329//329 327//327 330//330 
f 331//331 329//329 332//332 
f 333//333 331//331 334//334 
f 335//335 333//333 336//336 
f 337//337 335//335 338//338 
f 339//339 337//337 340//340 
f 341//341 339//339 342//342 
f 343//343 341//341 344//344 
f 345//345 343//343 346//346 
f 347//347 345//345 348//348 
f 349//349 347//347 350//350 
f 351//351 349//349 352//352 
f 353//353 351//351 354//354 
f 355//355 353//353 356//356 
f 357//357 355//355 358//358 
f 359//359 357//357 360//360 
f 361//361 359//359 362//362 
f 363//363 361//361 364//364 
f 365//365 363//363 366//366 
f 367//367 365//365 368//368 
f 369//369 367//367 370//370 
f 371//371 369//369 372//372 
f 373//373 371//371 374//374 
f 375//375 373//373 376//376 
f 377//377 375//375 378//378 
f 379//379 377//377 380//380 
f 381//381 379//379 382//382 
f 383//383 381//381 384//384 
f 385//385 383//383 386//386 
f 387//387 385//385 388//388 
f 389//389 387//387 390//390 
f 391//391 389//389 392//392 
f 393//393 391//391 394//394 
f 395//395 393//393 396//396 
f 397//397 395//395 398//398 
f 399//399 397//397 400//400 
f 401//401 399//399 402//402 
f 402//402 403//403 401//401 
f 400//400 402//402 399//399 
f 398//398 400//400 397//397 
f 396//396 398//398 395//395 
f 394//394 396//396 393//393 
f 392//392 394//394 391//391 
f 390//390 392//392 389//389 
f 388//388 390//390 387//387 
f 386//386 388//388 385//385 
f 384//384 386//386 383//383 
f 382//382 384//384 381//381 
f 380//380 382//382 379//379 
f 378//378 380//380 377//377 
f 376//376 378//378 375//375 
f 374//374 376//376 373//373 
f 372//372 374//374 371//371 
f 370//370 372//372 369//369 
f 368//368 370//370 367//367 
f 366//366 368//368 365//365 
f 364//364 366//366 363//363 
f 362//362 364//364 361//361 
f 360//360 362//362 359//359 
f 358//358 360//360 357//357 
f 356//356 358//358 355//355 
f 354//354 356//356 353//353 
f 352//352 354//354 351//351 
f 350//350 352//352 349//349 
f 348//348 350//350 347//347 
f 346//346 348//348 345//345 
f 344//344 346//346 343//343 
f 342//342 344//344 341//341 
f 340//340 342//342 339//339 
f 338//338 340//340 337//337 
f 336//336 338//338 335//335 
f 334//334 336//336 333//333 
f 332//332 334//334 331//331 
f 330//330 332//332 329//329 
f 328//328 330//330 327//327 
f 326//326 328//328 325//325 
f 324//324 326//326 323//323 
f 322//322 324//324 321//321 
f 320//320 322//322 319//319 
f 318//318 320//320 317//317 
f 316//316 318//318 315//315 
f 314//314 316//316 313//313 
f 312//312 314//314 311//311 
f 310//310 312//312 309//309 
f 308//308 310//310 307//307 
f 306//306 308//308 305//305 
f 304//304 306//306 303//303 
f 302//302 304//304 301//301 
f 300//300 302//302 299//299 
f 298//298 300//300 297//297 
f 296//296 298//298 295//295 
f 294//294 296//296 292//292 
o mesh13971
v 0.20665 0.179475 0.213489 
v 0.20665 0.179205 0.212747 
v 0.20765 0.179205 0.212747 
v 0.20765 0.179475 0.213489 
vn 0 -0.939693 0.34202 
vn 0 -0.939693 0.34202 
vn 0 -0.939693 0.34202 
vn 0 -0.939693 0.34202 
f 404//404 405//405 406//406 
f 406//406 407//407 404//404 
o mesh13972
v 0.20765 0.178535 0.213831 
v 0.20665 0.178535 0.213831 
v 0.20665 0.179475 0.213489 
v 0.20765 0.179475 0.213489 
vn 5.09196e-14 -0.34202 -0.939693 
vn 5.09196e-14 -0.34202 -0.939693 
vn 5.09196e-14 -0.34202 -0.939693 
vn 5.09196e-14 -0.34202 -0.939693 
f 408//408 409//409 410//410 
f 410//410 411//411 408//408 
o mesh13973
v 0.20665 0.178535 0.213831 
v 0.20765 0.178535 0.213831 
v 0.20765 0.178266 0.213089 
v 0.20665 0.178266 0.213089 
vn 2.26128e-28 0.939693 -0.34202 
vn 2.26128e-28 0.939693 -0.34202 
vn 2.26128e-28 0.939693 -0.34202 
vn 2.26128e-28 0.939693 -0.34202 
f 412//412 413//413 414//414 
f 414//414 415//415 412//412 
o mesh13974
v 0.20765 0.180387 0.208169 
v 0.20765 0.179945 0.208405 
v 0.20765 0.180092 0.208662 
v 0.20765 0.180183 0.207881 
v 0.20765 0.179771 0.208166 
v 0.20765 0.179949 0.207617 
v 0.20765 0.179572 0.207947 
v 0.20765 0.180797 0.20914 
v 0.20765 0.1803 0.209215 
v 0.20765 0.180358 0.209504 
v 0.20765 0.180696 0.208802 
v 0.20765 0.180211 0.208933 
v 0.20765 0.179688 0.20738 
v 0.20765 0.179351 0.20775 
v 0.20765 0.175222 0.207726 
v 0.20765 0.175 0.208001 
v 0.20765 0.175415 0.208281 
v 0.20765 0.17481 0.208298 
v 0.20765 0.175254 0.208529 
v 0.20765 0.180861 0.209487 
v 0.20765 0.180385 0.209799 
v 0.20765 0.180559 0.208477 
v 0.20765 0.175472 0.207477 
v 0.20765 0.175602 0.208051 
v 0.20765 0.179096 0.206997 
v 0.20765 0.178853 0.207434 
v 0.20765 0.179111 0.207579 
v 0.20765 0.178773 0.206856 
v 0.20765 0.178581 0.207318 
v 0.20765 0.178436 0.206751 
v 0.20765 0.178298 0.207231 
v 0.20765 0.17809 0.206682 
v 0.20765 0.178008 0.207176 
v 0.20765 0.176693 0.206791 
v 0.20765 0.176837 0.20727 
v 0.20765 0.177124 0.207199 
v 0.20765 0.176361 0.206912 
v 0.20765 0.176559 0.207371 
v 0.20765 0.176045 0.207068 
v 0.20765 0.176294 0.207501 
v 0.20765 0.175747 0.207257 
v 0.20765 0.176044 0.207659 
v 0.20765 0.175812 0.207844 
v 0.20765 0.180874 0.210192 
v 0.20765 0.18038 0.210095 
v 0.20765 0.180344 0.210388 
v 0.20765 0.180887 0.209839 
v 0.20765 0.179403 0.207172 
v 0.20765 0.177738 0.206652 
v 0.20765 0.177713 0.207152 
v 0.20765 0.177385 0.206661 
v 0.20765 0.177417 0.20716 
v 0.20765 0.174653 0.208614 
v 0.20765 0.17512 0.208793 
v 0.20765 0.179505 0.212561 
v 0.20765 0.179278 0.212107 
v 0.20765 0.179032 0.212271 
v 0.20765 0.179782 0.212342 
v 0.20765 0.179506 0.211918 
v 0.20765 0.180034 0.212096 
v 0.20765 0.179712 0.211706 
v 0.20765 0.180258 0.211823 
v 0.20765 0.179893 0.211473 
v 0.20765 0.180611 0.211213 
v 0.20765 0.180177 0.210955 
v 0.20765 0.180049 0.211221 
v 0.20765 0.180735 0.210883 
v 0.20765 0.180276 0.210676 
v 0.20765 0.180823 0.210541 
v 0.20765 0.177036 0.206707 
v 0.20765 0.180451 0.211527 
v 0.20765 0.174531 0.208945 
v 0.20765 0.175016 0.209069 
v 0.20765 0.174446 0.209288 
v 0.20765 0.174942 0.209355 
v 0.20765 0.174398 0.209637 
v 0.20765 0.174388 0.20999 
v 0.20765 0.174887 0.209944 
v 0.20765 0.174417 0.210342 
v 0.20765 0.174908 0.210239 
v 0.20765 0.174899 0.209648 
v 0.20765 0.174484 0.210688 
v 0.20765 0.17496 0.21053 
v 0.20765 0.174728 0.211349 
v 0.20765 0.174902 0.211656 
v 0.20765 0.175298 0.211346 
v 0.20765 0.175108 0.211942 
v 0.20765 0.175467 0.211589 
v 0.20765 0.174588 0.211025 
v 0.20765 0.175043 0.210814 
v 0.20765 0.175156 0.211087 
v 0.20765 0.175345 0.212204 
v 0.20765 0.17566 0.211813 
v 0.20765 0.175608 0.212439 
v 0.20765 0.175877 0.212014 
v 0.20765 0.175895 0.212644 
v 0.20765 0.176114 0.212191 
v 0.20765 0.176203 0.212817 
v 0.20765 0.176527 0.212955 
v 0.20765 0.176638 0.212463 
v 0.20765 0.176865 0.213058 
v 0.20765 0.176919 0.212555 
v 0.20765 0.177212 0.213123 
v 0.20765 0.177208 0.212617 
v 0.20765 0.177564 0.21315 
v 0.20765 0.177503 0.212647 
v 0.20765 0.176369 0.212341 
v 0.20765 0.178107 0.20973 
v 0.20765 0.177167 0.210072 
v 0.20765 0.177916 0.213139 
v 0.20765 0.177798 0.212646 
v 0.20765 0.178266 0.213089 
v 0.20765 0.178092 0.212613 
v 0.20765 0.179205 0.212747 
v 0.20765 0.179475 0.213489 
v 0.20765 0.178535 0.213831 
vn -1 -1.74155e-14 -4.78488e-14 
vn -1 -1.74155e-14 -4.78488e-14 
vn -1 -1.74155e-14 -4.78488e-14 
vn -1 -1.74155e-14 -4.78488e-14 
vn -1 -1.74155e-14 -4.78488e-14 
vn -1 -1.74155e-14 -4.78488e-14 
vn -1 -1.74155e-14 -4.78488e-14 
vn -1 -1.74155e-14 -4.78488e-14 
vn -1 -1.74155e-14 -4.78488e-14 
vn -1 -1.74155e-14 -4.78488e-14 
vn -1 -1.74155e-14 -4.78488e-14 
vn -1 -1.74155e-14 -4.78488e-14 
vn -1 -1.74155e-14 -4.78488e-14 
vn -1 -1.74155e-14 -4.78488e-14 
vn -1 -1.74155e-14 -4.78488e-14 
vn -1 -1.74155e-14 -4.78488e-14 
vn -1 -1.74155e-14 -4.78488e-14 
vn -1 -1.74155e-14 -4.78488e-14 
vn -1 -1.74155e-14 -4.78488e-14 
vn -1 -1.74155e-14 -4.78488e-14 
vn -1 -1.74155e-14 -4.78488e-14 
vn -1 -1.74155e-14 -4.78488e-14 
vn -1 -1.74155e-14 -4.78488e-14 
vn -1 -1.74155e-14 -4.78488e-14 
vn -1 -1.74155e-14 -4.78488e-14 
vn -1 -1.74155e-14 -4.78488e-14 
vn -1 -1.74155e-14 -4.78488e-14 
vn -1 -1.74155e-14 -4.78488e-14 
vn -1 -1.74155e-14 -4.78488e-14 
vn -1 -1.74155e-14 -4.78488e-14 
vn -1 -1.74155e-14 -4.78488e-14 
vn -1 -1.74155e-14 -4.78488e-14 
vn -1 -1.74155e-14 -4.78488e-14 
vn -1 -1.74155e-14 -4.78488e-14 
vn -1 -1.74155e-14 -4.78488e-14 
vn -1 -1.74155e-14 -4.78488e-14 
vn -1 -1.74155e-14 -4.78488e-14 
vn -1 -1.74155e-14 -4.78488e-14 
vn -1 -1.74155e-14 -4.78488e-14 
vn -1 -1.74155e-14 -4.78488e-14 
vn -1 -1.74155e-14 -4.78488e-14 
vn -1 -1.74155e-14 -4.78488e-14 
vn -1 -1.74155e-14 -4.78488e-14 
vn -1 -1.74155e-14 -4.78488e-14 
vn -1 -1.74155e-14 -4.78488e-14 
vn -1 -1.74155e-14 -4.78488e-14 
vn -1 -1.74155e-14 -4.78488e-14 
vn -1 -1.74155e-14 -4.78488e-14 
vn -1 -1.74155e-14 -4.78488e-14 
vn -1 -1.74155e-14 -4.78488e-14 
vn -1 -1.74155e-14 -4.78488e-14 
vn -1 -1.74155e-14 -4.78488e-14 
vn -1 -1.74155e-14 -4.78488e-14 
vn -1 -1.74155e-14 -4.78488e-14 
vn -1 -1.74155e-14 -4.78488e-14 
vn -1 -1.74155e-14 -4.78488e-14 
vn -1 -1.74155e-14 -4.78488e-14 
vn -1 -1.74155e-14 -4.78488e-14 
vn -1 -1.74155e-14 -4.78488e-14 
vn -1 -1.74155e-14 -4.78488e-14 
vn -1 -1.74155e-14 -4.78488e-14 
vn -1 -1.74155e-14 -4.78488e-14 
vn -1 -1.74155e-14 -4.78488e-14 
vn -1 -1.74155e-14 -4.78488e-14 
vn -1 -1.74155e-14 -4.78488e-14 
vn -1 -1.74155e-14 -4.78488e-14 
vn -1 -1.74155e-14 -4.78488e-14 
vn -1 -1.74155e-14 -4.78488e-14 
vn -1 -1.74155e-14 -4.78488e-14 
vn -1 -1.74155e-14 -4.78488e-14 
vn -1 -1.74155e-14 -4.78488e-14 
vn -1 -1.74155e-14 -4.78488e-14 
vn -1 -1.74155e-14 -4.78488e-14 
vn -1 -1.74155e-14 -4.78488e-14 
vn -1 -1.74155e-14 -4.78488e-14 
vn -1 -1.74155e-14 -4.78488e-14 
vn -1 -1.74155e-14 -4.78488e-14 
vn -1 -1.74155e-14 -4.78488e-14 
vn -1 -1.74155e-14 -4.78488e-14 
vn -1 -1.74155e-14 -4.78488e-14 
vn -1 -1.74155e-14 -4.78488e-14 
vn -1 -1.74155e-14 -4.78488e-14 
vn -1 -1.74155e-14 -4.78488e-14 
vn -1 -1.74155e-14 -4.78488e-14 
vn -1 -1.74155e-14 -4.78488e-14 
vn -1 -1.74155e-14 -4.78488e-14 
vn -1 -1.74155e-14 -4.78488e-14 
vn -1 -1.74155e-14 -4.78488e-14 
vn -1 -1.74155e-14 -4.78488e-14 
vn -1 -1.74155e-14 -4.78488e-14 
vn -1 -1.74155e-14 -4.78488e-14 
vn -1 -1.74155e-14 -4.78488e-14 
vn -1 -1.74155e-14 -4.78488e-14 
vn -1 -1.74155e-14 -4.78488e-14 
vn -1 -1.74155e-14 -4.78488e-14 
vn -1 -1.74155e-14 -4.78488e-14 
vn -1 -1.74155e-14 -4.78488e-14 
vn -1 -1.74155e-14 -4.78488e-14 
vn -1 -1.74155e-14 -4.78488e-14 
vn -1 -1.74155e-14 -4.78488e-14 
vn -1 -1.74155e-14 -4.78488e-14 
vn -1 -1.74155e-14 -4.78488e-14 
vn -1 -1.74155e-14 -4.78488e-14 
vn -1 -1.74155e-14 -4.78488e-14 
vn -1 -1.74155e-14 -4.78488e-14 
vn -1 -1.74155e-14 -4.78488e-14 
vn -1 -1.74155e-14 -4.78488e-14 
vn -1 -1.74155e-14 -4.78488e-14 
vn -1 -1.74155e-14 -4.78488e-14 
vn -1 -1.74155e-14 -4.78488e-14 
vn -1 -1.74155e-14 -4.78488e-14 
vn -1 -1.74155e-14 -4.78488e-14 
vn -1 -1.74155e-14 -4.78488e-14 
vn -1 -1.74155e-14 -4.78488e-14 
vn -1 -1.74155e-14 -4.78488e-14 
vn -1 -1.74155e-14 -4.78488e-14 
f 416//416 417//417 418//418 
f 419//419 420//420 417//417 
f 417//417 416//416 419//419 
f 421//421 422//422 420//420 
f 423//423 424//424 425//425 
f 426//426 427//427 424//424 
f 420//420 419//419 421//421 
f 428//428 429//429 422//422 
f 430//430 431//431 432//432 
f 431//431 433//433 434//434 
f 435//435 425//425 436//436 
f 424//424 423//423 426//426 
f 437//437 418//418 427//427 
f 422//422 421//421 428//428 
f 438//438 430//430 439//439 
f 434//434 432//432 431//431 
f 425//425 435//435 423//423 
f 418//418 437//437 416//416 
f 440//440 441//441 442//442 
f 443//443 444//444 441//441 
f 445//445 446//446 444//444 
f 447//447 448//448 446//446 
f 449//449 450//450 451//451 
f 452//452 453//453 450//450 
f 452//452 454//454 455//455 
f 454//454 456//456 457//457 
f 456//456 438//438 458//458 
f 432//432 439//439 430//430 
f 459//459 460//460 461//461 
f 462//462 436//436 460//460 
f 427//427 426//426 437//437 
f 463//463 442//442 429//429 
f 441//441 440//440 443//443 
f 446//446 445//445 447//447 
f 464//464 465//465 448//448 
f 466//466 467//467 465//465 
f 450//450 449//449 452//452 
f 457//457 455//455 454//454 
f 439//439 458//458 438//438 
f 433//433 468//468 469//469 
f 470//470 471//471 472//472 
f 473//473 474//474 471//471 
f 475//475 476//476 474//474 
f 477//477 478//478 476//476 
f 479//479 480//480 481//481 
f 482//482 483//483 480//480 
f 484//484 461//461 483//483 
f 460//460 459//459 462//462 
f 429//429 428//428 463//463 
f 444//444 443//443 445//445 
f 465//465 464//464 466//466 
f 485//485 451//451 467//467 
f 455//455 453//453 452//452 
f 469//469 434//434 433//433 
f 471//471 470//470 473//473 
f 476//476 475//475 477//477 
f 486//486 481//481 478//478 
f 480//480 479//479 482//482 
f 461//461 484//484 459//459 
f 442//442 463//463 440//440 
f 467//467 466//466 485//485 
f 458//458 457//457 456//456 
f 468//468 487//487 488//488 
f 487//487 489//489 490//490 
f 491//491 492//492 493//493 
f 492//492 494//494 495//495 
f 474//474 473//473 475//475 
f 481//481 486//486 479//479 
f 436//436 462//462 435//435 
f 451//451 485//485 449//449 
f 490//490 488//488 487//487 
f 489//489 491//491 496//496 
f 495//495 493//493 492//492 
f 494//494 497//497 498//498 
f 499//499 500//500 501//501 
f 500//500 502//502 503//503 
f 478//478 477//477 486//486 
f 448//448 447//447 464//464 
f 496//496 490//490 489//489 
f 498//498 495//495 494//494 
f 497//497 504//504 505//505 
f 504//504 499//499 506//506 
f 503//503 501//501 500//500 
f 502//502 507//507 508//508 
f 507//507 509//509 510//510 
f 509//509 511//511 512//512 
f 513//513 514//514 515//515 
f 514//514 516//516 517//517 
f 516//516 518//518 519//519 
f 518//518 520//520 521//521 
f 483//483 482//482 484//484 
f 493//493 496//496 491//491 
f 506//506 505//505 504//504 
f 508//508 503//503 502//502 
f 512//512 510//510 509//509 
f 511//511 513//513 522//522 
f 517//517 515//515 514//514 
f 521//521 519//519 518//518 
f 472//472 523//523 524//524 
f 488//488 469//469 468//468 
f 501//501 506//506 499//499 
f 522//522 512//512 511//511 
f 519//519 517//517 516//516 
f 520//520 525//525 526//526 
f 525//525 527//527 528//528 
f 528//528 529//529 472//472 
f 505//505 498//498 497//497 
f 515//515 522//522 513//513 
f 530//530 528//528 527//527 
f 528//528 526//526 525//525 
f 528//528 530//530 529//529 
f 510//510 508//508 507//507 
f 526//526 521//521 520//520 
f 472//472 529//529 470//470 
f 524//524 528//528 472//472 
f 527//527 531//531 530//530 
o mesh13975
v 0.20665 0.178107 0.20973 
v 0.20665 0.177167 0.210072 
v 0.20765 0.177167 0.210072 
v 0.20765 0.178107 0.20973 
vn -5.09196e-14 0.34202 0.939693 
vn -5.09196e-14 0.34202 0.939693 
vn -5.09196e-14 0.34202 0.939693 
vn -5.09196e-14 0.34202 0.939693 
f 532//532 533//533 534//534 
f 534//534 535//535 532//532 
o mesh13976
v 0.20665 0.177167 0.210072 
v 0.20665 0.175467 0.211589 
v 0.20665 0.17566 0.211813 
v 0.20665 0.174908 0.210239 
v 0.20665 0.17496 0.21053 
v 0.20665 0.176369 0.212341 
v 0.20665 0.176638 0.212463 
v 0.20665 0.175298 0.211346 
v 0.20665 0.175043 0.210814 
v 0.20665 0.175156 0.211087 
v 0.20665 0.174887 0.209944 
v 0.20665 0.174942 0.209355 
v 0.20665 0.174899 0.209648 
v 0.20665 0.178107 0.20973 
v 0.20665 0.180211 0.208933 
v 0.20665 0.180092 0.208662 
v 0.20665 0.180385 0.209799 
v 0.20665 0.180358 0.209504 
v 0.20665 0.180344 0.210388 
v 0.20665 0.18038 0.210095 
v 0.20665 0.175254 0.208529 
v 0.20665 0.17512 0.208793 
v 0.20665 0.175602 0.208051 
v 0.20665 0.175415 0.208281 
v 0.20665 0.176294 0.207501 
v 0.20665 0.176044 0.207659 
v 0.20665 0.178853 0.207434 
v 0.20665 0.178581 0.207318 
v 0.20665 0.176114 0.212191 
v 0.20665 0.1803 0.209215 
v 0.20665 0.179712 0.211706 
v 0.20665 0.179893 0.211473 
v 0.20665 0.179032 0.212271 
v 0.20665 0.179278 0.212107 
v 0.20665 0.175812 0.207844 
v 0.20665 0.177124 0.207199 
v 0.20665 0.176837 0.20727 
v 0.20665 0.177713 0.207152 
v 0.20665 0.177417 0.20716 
v 0.20665 0.178298 0.207231 
v 0.20665 0.176919 0.212555 
v 0.20665 0.177208 0.212617 
v 0.20665 0.175877 0.212014 
v 0.20665 0.179771 0.208166 
v 0.20665 0.179572 0.207947 
v 0.20665 0.180177 0.210955 
v 0.20665 0.180276 0.210676 
v 0.20665 0.180049 0.211221 
v 0.20665 0.179506 0.211918 
v 0.20665 0.176559 0.207371 
v 0.20665 0.178008 0.207176 
v 0.20665 0.179111 0.207579 
v 0.20665 0.175016 0.209069 
v 0.20665 0.179945 0.208405 
v 0.20665 0.177503 0.212647 
v 0.20665 0.177798 0.212646 
v 0.20665 0.179351 0.20775 
v 0.20665 0.178092 0.212613 
vn -1 -1.74155e-14 -4.78488e-14 
vn -1 -1.74155e-14 -4.78488e-14 
vn -1 -1.74155e-14 -4.78488e-14 
vn -1 -1.74155e-14 -4.78488e-14 
vn -1 -1.74155e-14 -4.78488e-14 
vn -1 -1.74155e-14 -4.78488e-14 
vn -1 -1.74155e-14 -4.78488e-14 
vn -1 -1.74155e-14 -4.78488e-14 
vn -1 -1.74155e-14 -4.78488e-14 
vn -1 -1.74155e-14 -4.78488e-14 
vn -1 -1.74155e-14 -4.78488e-14 
vn -1 -1.74155e-14 -4.78488e-14 
vn -1 -1.74155e-14 -4.78488e-14 
vn -1 -1.74155e-14 -4.78488e-14 
vn -1 -1.74155e-14 -4.78488e-14 
vn -1 -1.74155e-14 -4.78488e-14 
vn -1 -1.74155e-14 -4.78488e-14 
vn -1 -1.74155e-14 -4.78488e-14 
vn -1 -1.74155e-14 -4.78488e-14 
vn -1 -1.74155e-14 -4.78488e-14 
vn -1 -1.74155e-14 -4.78488e-14 
vn -1 -1.74155e-14 -4.78488e-14 
vn -1 -1.74155e-14 -4.78488e-14 
vn -1 -1.74155e-14 -4.78488e-14 
vn -1 -1.74155e-14 -4.78488e-14 
vn -1 -1.74155e-14 -4.78488e-14 
vn -1 -1.74155e-14 -4.78488e-14 
vn -1 -1.74155e-14 -4.78488e-14 
vn -1 -1.74155e-14 -4.78488e-14 
vn -1 -1.74155e-14 -4.78488e-14 
vn -1 -1.74155e-14 -4.78488e-14 
vn -1 -1.74155e-14 -4.78488e-14 
vn -1 -1.74155e-14 -4.78488e-14 
vn -1 -1.74155e-14 -4.78488e-14 
vn -1 -1.74155e-14 -4.78488e-14 
vn -1 -1.74155e-14 -4.78488e-14 
vn -1 -1.74155e-14 -4.78488e-14 
vn -1 -1.74155e-14 -4.78488e-14 
vn -1 -1.74155e-14 -4.78488e-14 
vn -1 -1.74155e-14 -4.78488e-14 
vn -1 -1.74155e-14 -4.78488e-14 
vn -1 -1.74155e-14 -4.78488e-14 
vn -1 -1.74155e-14 -4.78488e-14 
vn -1 -1.74155e-14 -4.78488e-14 
vn -1 -1.74155e-14 -4.78488e-14 
vn -1 -1.74155e-14 -4.78488e-14 
vn -1 -1.74155e-14 -4.78488e-14 
vn -1 -1.74155e-14 -4.78488e-14 
vn -1 -1.74155e-14 -4.78488e-14 
vn -1 -1.74155e-14 -4.78488e-14 
vn -1 -1.74155e-14 -4.78488e-14 
vn -1 -1.74155e-14 -4.78488e-14 
vn -1 -1.74155e-14 -4.78488e-14 
vn -1 -1.74155e-14 -4.78488e-14 
vn -1 -1.74155e-14 -4.78488e-14 
vn -1 -1.74155e-14 -4.78488e-14 
vn -1 -1.74155e-14 -4.78488e-14 
vn -1 -1.74155e-14 -4.78488e-14 
f 536//536 537//537 538//538 
f 536//536 539//539 540//540 
f 536//536 541//541 542//542 
f 536//536 543//543 537//537 
f 536//536 544//544 545//545 
f 536//536 546//546 539//539 
f 536//536 547//547 548//548 
f 549//549 550//550 551//551 
f 549//549 552//552 553//553 
f 549//549 554//554 555//555 
f 536//536 556//556 557//557 
f 536//536 558//558 559//559 
f 536//536 560//560 561//561 
f 536//536 562//562 563//563 
f 536//536 564//564 541//541 
f 545//545 543//543 536//536 
f 548//548 546//546 536//536 
f 549//549 565//565 550//550 
f 555//555 552//552 549//549 
f 549//549 566//566 567//567 
f 549//549 568//568 569//569 
f 559//559 556//556 536//536 
f 561//561 570//570 536//536 
f 536//536 571//571 572//572 
f 536//536 573//573 574//574 
f 563//563 575//575 536//536 
f 562//562 536//536 549//549 
f 536//536 576//576 577//577 
f 536//536 578//578 564//564 
f 540//540 544//544 536//536 
f 549//549 579//579 580//580 
f 553//553 565//565 549//549 
f 549//549 581//581 582//582 
f 567//567 583//583 549//549 
f 569//569 584//584 549//549 
f 570//570 558//558 536//536 
f 572//572 585//585 536//536 
f 536//536 586//586 573//573 
f 549//549 587//587 562//562 
f 542//542 576//576 536//536 
f 536//536 588//588 547//547 
f 549//549 589//589 579//579 
f 582//582 554//554 549//549 
f 584//584 566//566 549//549 
f 585//585 560//560 536//536 
f 575//575 586//586 536//536 
f 536//536 590//590 591//591 
f 538//538 578//578 536//536 
f 580//580 592//592 549//549 
f 583//583 581//581 549//549 
f 574//574 571//571 536//536 
f 577//577 590//590 536//536 
f 551//551 589//589 549//549 
f 591//591 593//593 536//536 
f 557//557 588//588 536//536 
f 592//592 587//587 549//549 
o mesh13977
v 0.20765 0.178107 0.20973 
v 0.20765 0.179032 0.212271 
v 0.20665 0.179032 0.212271 
v 0.20665 0.178107 0.20973 
vn 0 -0.939693 0.34202 
vn 0 -0.939693 0.34202 
vn 0 -0.939693 0.34202 
vn 0 -0.939693 0.34202 
f 594//594 595//595 596//596 
f 596//596 597//597 594//594 
o mesh13978
v 0.20765 0.178092 0.212613 
v 0.20665 0.178092 0.212613 
v 0.20665 0.177798 0.212646 
v 0.20765 0.177798 0.212646 
v 0.20665 0.177503 0.212647 
v 0.20765 0.177503 0.212647 
v 0.20665 0.177208 0.212617 
v 0.20765 0.177208 0.212617 
v 0.20665 0.176919 0.212555 
v 0.20765 0.176919 0.212555 
v 0.20665 0.176638 0.212463 
v 0.20765 0.176638 0.212463 
v 0.20665 0.176369 0.212341 
v 0.20765 0.176369 0.212341 
v 0.20665 0.176114 0.212191 
v 0.20765 0.176114 0.212191 
v 0.20665 0.175877 0.212014 
v 0.20765 0.175877 0.212014 
v 0.20665 0.17566 0.211813 
v 0.20765 0.17566 0.211813 
v 0.20665 0.175467 0.211589 
v 0.20765 0.175467 0.211589 
v 0.20665 0.175298 0.211346 
v 0.20765 0.175298 0.211346 
v 0.20665 0.175156 0.211087 
v 0.20765 0.175156 0.211087 
v 0.20665 0.175043 0.210814 
v 0.20765 0.175043 0.210814 
v 0.20665 0.17496 0.21053 
v 0.20765 0.17496 0.21053 
v 0.20665 0.174908 0.210239 
v 0.20765 0.174908 0.210239 
v 0.20665 0.174887 0.209944 
v 0.20765 0.174887 0.209944 
v 0.20665 0.174899 0.209648 
v 0.20765 0.174899 0.209648 
v 0.20665 0.174942 0.209355 
v 0.20765 0.174942 0.209355 
v 0.20665 0.175016 0.209069 
v 0.20765 0.175016 0.209069 
v 0.20665 0.17512 0.208793 
v 0.20765 0.17512 0.208793 
v 0.20665 0.175254 0.208529 
v 0.20765 0.175254 0.208529 
v 0.20665 0.175415 0.208281 
v 0.20765 0.175415 0.208281 
v 0.20665 0.175602 0.208051 
v 0.20765 0.175602 0.208051 
v 0.20665 0.175812 0.207844 
v 0.20765 0.175812 0.207844 
v 0.20665 0.176044 0.207659 
v 0.20765 0.176044 0.207659 
v 0.20665 0.176294 0.207501 
v 0.20765 0.176294 0.207501 
v 0.20665 0.176559 0.207371 
v 0.20765 0.176559 0.207371 
v 0.20665 0.176837 0.20727 
v 0.20765 0.176837 0.20727 
v 0.20665 0.177124 0.207199 
v 0.20765 0.177124 0.207199 
v 0.20665 0.177417 0.20716 
v 0.20765 0.177417 0.20716 
v 0.20665 0.177713 0.207152 
v 0.20765 0.177713 0.207152 
v 0.20665 0.178008 0.207176 
v 0.20765 0.178008 0.207176 
v 0.20665 0.178298 0.207231 
v 0.20765 0.178298 0.207231 
v 0.20665 0.178581 0.207318 
v 0.20765 0.178581 0.207318 
v 0.20665 0.178853 0.207434 
v 0.20765 0.178853 0.207434 
v 0.20665 0.179111 0.207579 
v 0.20765 0.179111 0.207579 
v 0.20665 0.179351 0.20775 
v 0.20765 0.179351 0.20775 
v 0.20665 0.179572 0.207947 
v 0.20765 0.179572 0.207947 
v 0.20665 0.179771 0.208166 
v 0.20765 0.179771 0.208166 
v 0.20665 0.179945 0.208405 
v 0.20765 0.179945 0.208405 
v 0.20665 0.180092 0.208662 
v 0.20765 0.180092 0.208662 
v 0.20665 0.180211 0.208933 
v 0.20765 0.180211 0.208933 
v 0.20665 0.1803 0.209215 
v 0.20765 0.1803 0.209215 
v 0.20665 0.180358 0.209504 
v 0.20765 0.180358 0.209504 
v 0.20665 0.180385 0.209799 
v 0.20765 0.180385 0.209799 
v 0.20665 0.18038 0.210095 
v 0.20765 0.18038 0.210095 
v 0.20665 0.180344 0.210388 
v 0.20765 0.180344 0.210388 
v 0.20665 0.180276 0.210676 
v 0.20765 0.180276 0.210676 
v 0.20665 0.180177 0.210955 
v 0.20765 0.180177 0.210955 
v 0.20665 0.180049 0.211221 
v 0.20765 0.180049 0.211221 
v 0.20665 0.179893 0.211473 
v 0.20765 0.179893 0.211473 
v 0.20665 0.179712 0.211706 
v 0.20765 0.179712 0.211706 
v 0.20665 0.179506 0.211918 
v 0.20765 0.179506 0.211918 
v 0.20665 0.179278 0.212107 
v 0.20765 0.179278 0.212107 
v 0.20665 0.179032 0.212271 
v 0.20765 0.179032 0.212271 
vn -5.00709e-14 0.165466 0.986215 
vn -5.00709e-14 0.165466 0.986215 
vn -4.87872e-14 0.0586059 0.998281 
vn -4.87872e-14 0.0586059 0.998281 
vn -4.69393e-14 -0.0489321 0.998802 
vn -4.69393e-14 -0.0489321 0.998802 
vn -4.45485e-14 -0.155904 0.987772 
vn -4.45485e-14 -0.155904 0.987772 
vn -4.16426e-14 -0.261073 0.965319 
vn -4.16426e-14 -0.261073 0.965319 
vn -3.82551e-14 -0.363223 0.931702 
vn -3.82551e-14 -0.363223 0.931702 
vn -3.44251e-14 -0.461173 0.88731 
vn -3.44251e-14 -0.461173 0.88731 
vn -3.01971e-14 -0.553789 0.832657 
vn -3.01971e-14 -0.553789 0.832657 
vn -2.56198e-14 -0.64 0.768375 
vn -2.56198e-14 -0.64 0.768375 
vn -2.07463e-14 -0.718811 0.695206 
vn -2.07463e-14 -0.718811 0.695206 
vn -1.56328e-14 -0.789308 0.613997 
vn -1.56328e-14 -0.789308 0.613997 
vn -1.03385e-14 -0.850677 0.525688 
vn -1.03385e-14 -0.850677 0.525688 
vn -4.92472e-15 -0.902209 0.4313 
vn -4.92472e-15 -0.902209 0.4313 
vn 5.4606e-16 -0.943306 0.331923 
vn 5.4606e-16 -0.943306 0.331923 
vn 6.01052e-15 -0.973495 0.228708 
vn 6.01052e-15 -0.973495 0.228708 
vn 1.14055e-14 -0.992425 0.122848 
vn 1.14055e-14 -0.992425 0.122848 
vn 1.66685e-14 -0.999879 0.0155675 
vn 1.66685e-14 -0.999879 0.0155675 
vn 2.17388e-14 -0.995769 -0.0918932 
vn 2.17388e-14 -0.995769 -0.0918932 
vn 2.65577e-14 -0.980143 -0.198291 
vn 2.65577e-14 -0.980143 -0.198291 
vn 3.10694e-14 -0.953182 -0.302396 
vn 3.10694e-14 -0.953182 -0.302396 
vn 3.52219e-14 -0.915198 -0.403004 
vn 3.52219e-14 -0.915198 -0.403004 
vn 3.8967e-14 -0.86663 -0.498951 
vn 3.8967e-14 -0.86663 -0.498951 
vn 4.22615e-14 -0.80804 -0.589128 
vn 4.22615e-14 -0.80804 -0.589128 
vn 4.50672e-14 -0.740105 -0.672492 
vn 4.50672e-14 -0.740105 -0.672492 
vn 4.73517e-14 -0.663611 -0.748078 
vn 4.73517e-14 -0.663611 -0.748078 
vn 4.90887e-14 -0.579442 -0.815014 
vn 4.90887e-14 -0.579442 -0.815014 
vn 5.02579e-14 -0.488572 -0.872523 
vn 5.02579e-14 -0.488572 -0.872523 
vn 5.08459e-14 -0.392052 -0.919943 
vn 5.08459e-14 -0.392052 -0.919943 
vn 5.08459e-14 -0.290998 -0.956724 
vn 5.08459e-14 -0.290998 -0.956724 
vn 5.02579e-14 -0.186579 -0.98244 
vn 5.02579e-14 -0.186579 -0.98244 
vn 4.90887e-14 -0.0800023 -0.996795 
vn 4.90887e-14 -0.0800023 -0.996795 
vn 4.73517e-14 0.0274998 -0.999622 
vn 4.73517e-14 0.0274998 -0.999622 
vn 4.50672e-14 0.134684 -0.990889 
vn 4.50672e-14 0.134684 -0.990889 
vn 4.22615e-14 0.24031 -0.970696 
vn 4.22615e-14 0.24031 -0.970696 
vn 3.8967e-14 0.343158 -0.939278 
vn 3.8967e-14 0.343158 -0.939278 
vn 3.52219e-14 0.442037 -0.896997 
vn 3.52219e-14 0.442037 -0.896997 
vn 3.10694e-14 0.535804 -0.844343 
vn 3.10694e-14 0.535804 -0.844343 
vn 2.65577e-14 0.623374 -0.781924 
vn 2.65577e-14 0.623374 -0.781924 
vn 2.17388e-14 0.703735 -0.710462 
vn 2.17388e-14 0.703735 -0.710462 
vn 1.66685e-14 0.775958 -0.630784 
vn 1.66685e-14 0.775958 -0.630784 
vn 1.14055e-14 0.839207 -0.543812 
vn 1.14055e-14 0.839207 -0.543812 
vn 6.01052e-15 0.892751 -0.45055 
vn 6.01052e-15 0.892751 -0.45055 
vn 5.4606e-16 0.935971 -0.352078 
vn 5.4606e-16 0.935971 -0.352078 
vn -4.92472e-15 0.968366 -0.249534 
vn -4.92472e-15 0.968366 -0.249534 
vn -1.03385e-14 0.989563 -0.144104 
vn -1.03385e-14 0.989563 -0.144104 
vn -1.56328e-14 0.999315 -0.037008 
vn -1.56328e-14 0.999315 -0.037008 
vn -2.07463e-14 0.997511 0.0705161 
vn -2.07463e-14 0.997511 0.0705161 
vn -2.56198e-14 0.98417 0.177225 
vn -2.56198e-14 0.98417 0.177225 
vn -3.01971e-14 0.959449 0.281884 
vn -3.01971e-14 0.959449 0.281884 
vn -3.44251e-14 0.923631 0.383283 
vn -3.44251e-14 0.923631 0.383283 
vn -3.82551e-14 0.877132 0.48025 
vn -3.82551e-14 0.877132 0.48025 
vn -4.16426e-14 0.820489 0.571662 
vn -4.16426e-14 0.820489 0.571662 
vn -4.45485e-14 0.754357 0.656464 
vn -4.45485e-14 0.754357 0.656464 
vn -4.69393e-14 0.679502 0.733674 
vn -4.69393e-14 0.679502 0.733674 
vn -4.87872e-14 0.596788 0.802399 
vn -4.87872e-14 0.596788 0.802399 
vn -5.00709e-14 0.507173 0.861844 
vn -5.00709e-14 0.507173 0.861844 
f 598//598 599//599 600//600 
f 601//601 600//600 602//602 
f 603//603 602//602 604//604 
f 605//605 604//604 606//606 
f 607//607 606//606 608//608 
f 609//609 608//608 610//610 
f 611//611 610//610 612//612 
f 613//613 612//612 614//614 
f 615//615 614//614 616//616 
f 617//617 616//616 618//618 
f 619//619 618//618 620//620 
f 621//621 620//620 622//622 
f 623//623 622//622 624//624 
f 625//625 624//624 626//626 
f 627//627 626//626 628//628 
f 629//629 628//628 630//630 
f 631//631 630//630 632//632 
f 633//633 632//632 634//634 
f 635//635 634//634 636//636 
f 637//637 636//636 638//638 
f 639//639 638//638 640//640 
f 641//641 640//640 642//642 
f 643//643 642//642 644//644 
f 645//645 644//644 646//646 
f 647//647 646//646 648//648 
f 649//649 648//648 650//650 
f 651//651 650//650 652//652 
f 653//653 652//652 654//654 
f 655//655 654//654 656//656 
f 657//657 656//656 658//658 
f 659//659 658//658 660//660 
f 661//661 660//660 662//662 
f 663//663 662//662 664//664 
f 665//665 664//664 666//666 
f 667//667 666//666 668//668 
f 669//669 668//668 670//670 
f 671//671 670//670 672//672 
f 673//673 672//672 674//674 
f 675//675 674//674 676//676 
f 677//677 676//676 678//678 
f 679//679 678//678 680//680 
f 681//681 680//680 682//682 
f 683//683 682//682 684//684 
f 685//685 684//684 686//686 
f 687//687 686//686 688//688 
f 689//689 688//688 690//690 
f 691//691 690//690 692//692 
f 693//693 692//692 694//694 
f 695//695 694//694 696//696 
f 697//697 696//696 698//698 
f 699//699 698//698 700//700 
f 701//701 700//700 702//702 
f 703//703 702//702 704//704 
f 705//705 704//704 706//706 
f 707//707 706//706 708//708 
f 708//708 709//709 707//707 
f 706//706 707//707 705//705 
f 704//704 705//705 703//703 
f 702//702 703//703 701//701 
f 700//700 701//701 699//699 
f 698//698 699//699 697//697 
f 696//696 697//697 695//695 
f 694//694 695//695 693//693 
f 692//692 693//693 691//691 
f 690//690 691//691 689//689 
f 688//688 689//689 687//687 
f 686//686 687//687 685//685 
f 684//684 685//685 683//683 
f 682//682 683//683 681//681 
f 680//680 681//681 679//679 
f 678//678 679//679 677//677 
f 676//676 677//677 675//675 
f 674//674 675//675 673//673 
f 672//672 673//673 671//671 
f 670//670 671//671 669//669 
f 668//668 669//669 667//667 
f 666//666 667//667 665//665 
f 664//664 665//665 663//663 
f 662//662 663//663 661//661 
f 660//660 661//661 659//659 
f 658//658 659//659 657//657 
f 656//656 657//657 655//655 
f 654//654 655//655 653//653 
f 652//652 653//653 651//651 
f 650//650 651//651 649//649 
f 648//648 649//649 647//647 
f 646//646 647//647 645//645 
f 644//644 645//645 643//643 
f 642//642 643//643 641//641 
f 640//640 641//641 639//639 
f 638//638 639//639 637//637 
f 636//636 637//637 635//635 
f 634//634 635//635 633//633 
f 632//632 633//633 631//631 
f 630//630 631//631 629//629 
f 628//628 629//629 627//627 
f 626//626 627//627 625//625 
f 624//624 625//625 623//623 
f 622//622 623//623 621//621 
f 620//620 621//621 619//619 
f 618//618 619//619 617//617 
f 616//616 617//617 615//615 
f 614//614 615//615 613//613 
f 612//612 613//613 611//611 
f 610//610 611//611 609//609 
f 608//608 609//609 607//607 
f 606//606 607//607 605//605 
f 604//604 605//605 603//603 
f 602//602 603//603 601//601 
f 600//600 601//601 598//598 
o mesh13979
v 0.20765 0.177167 0.210072 
v 0.20665 0.177167 0.210072 
v 0.20665 0.178092 0.212613 
v 0.20765 0.178092 0.212613 
vn 2.26128e-28 0.939693 -0.34202 
vn 2.26128e-28 0.939693 -0.34202 
vn 2.26128e-28 0.939693 -0.34202 
vn 2.26128e-28 0.939693 -0.34202 
f 710//710 711//711 712//712 
f 712//712 713//713 710//710 
