# OBJ generated by ONSHAPE BY PTC INC, 1.215 Units = meters
mtllib EBoxNewAsm_stp_1_Beelink_mini_PC_v4_stp_1_Beelink_mini_PC_v4_56_stp_1_solid1.mtl
g EBoxNewAsm.stp-1/Beelink mini PC v4.stp-1/Beelink mini PC v4-56.stp-1-solid1
usemtl 0.768627_0.207843_0.152941_0.000000_0.000000
o mesh15059
v 0.20765 0.179425 0.212615 
v 0.20765 0.179205 0.212747 
v 0.20765 0.179032 0.212271 
v 0.20765 0.17925 0.212128 
v 0.20765 0.179634 0.212465 
v 0.20765 0.179453 0.211966 
vn 1 1.74155e-14 4.78488e-14 
vn 1 1.74155e-14 4.78488e-14 
vn 1 1.74155e-14 4.78488e-14 
vn 1 1.74155e-14 4.78488e-14 
vn 1 1.74155e-14 4.78488e-14 
vn 1 1.74155e-14 4.78488e-14 
f 1//1 2//2 3//3 
f 4//4 5//5 1//1 
f 3//3 4//4 1//1 
f 4//4 6//6 5//5 
o mesh15060
v 0.20665 0.179032 0.212271 
v 0.20765 0.179032 0.212271 
v 0.20765 0.179205 0.212747 
v 0.20665 0.179205 0.212747 
vn 0 -0.939693 0.34202 
vn 0 -0.939693 0.34202 
vn 0 -0.939693 0.34202 
vn 0 -0.939693 0.34202 
f 7//7 8//8 9//9 
f 9//9 10//10 7//7 
o mesh15061
v 0.20665 0.179425 0.212615 
v 0.20665 0.17925 0.212128 
v 0.20665 0.179032 0.212271 
v 0.20665 0.179205 0.212747 
v 0.20665 0.179634 0.212465 
v 0.20665 0.179453 0.211966 
vn -1 -1.74155e-14 -4.78488e-14 
vn -1 -1.74155e-14 -4.78488e-14 
vn -1 -1.74155e-14 -4.78488e-14 
vn -1 -1.74155e-14 -4.78488e-14 
vn -1 -1.74155e-14 -4.78488e-14 
vn -1 -1.74155e-14 -4.78488e-14 
f 11//11 12//12 13//13 
f 13//13 14//14 11//11 
f 15//15 16//16 12//12 
f 11//11 15//15 12//12 
o mesh15062
v 0.20665 0.179205 0.212747 
v 0.20765 0.179205 0.212747 
v 0.20765 0.179425 0.212615 
v 0.20665 0.179425 0.212615 
v 0.20765 0.179634 0.212465 
v 0.20665 0.179634 0.212465 
vn -5.03134e-14 0.482516 0.875887 
vn -5.03134e-14 0.482516 0.875887 
vn -4.95364e-14 0.550263 0.834991 
vn -4.95364e-14 0.550263 0.834991 
vn -4.84493e-14 0.614564 0.788867 
vn -4.84493e-14 0.614564 0.788867 
f 17//17 18//18 19//19 
f 20//20 19//19 21//21 
f 21//21 22//22 20//20 
f 19//19 20//20 17//17 
o mesh15063
v 0.20665 0.179634 0.212465 
v 0.20765 0.179634 0.212465 
v 0.20765 0.179453 0.211966 
v 0.20665 0.179453 0.211966 
vn 0 0.939693 -0.34202 
vn 0 0.939693 -0.34202 
vn 0 0.939693 -0.34202 
vn 0 0.939693 -0.34202 
f 23//23 24//24 25//25 
f 25//25 26//26 23//23 
o mesh15064
v 0.20665 0.17925 0.212128 
v 0.20665 0.179453 0.211966 
v 0.20765 0.179453 0.211966 
v 0.20665 0.179032 0.212271 
v 0.20765 0.17925 0.212128 
v 0.20765 0.179032 0.212271 
vn 4.89715e-14 -0.586368 -0.810045 
vn 4.74337e-14 -0.660312 -0.750991 
vn 4.74337e-14 -0.660312 -0.750991 
vn 5.00709e-14 -0.507173 -0.861844 
vn 4.89715e-14 -0.586368 -0.810045 
vn 5.00709e-14 -0.507173 -0.861844 
f 27//27 28//28 29//29 
f 30//30 27//27 31//31 
f 31//31 32//32 30//30 
f 29//29 31//31 27//27 
