# OBJ generated by ONSHAPE BY PTC INC, 1.215 Units = meters
mtllib EBoxNewAsm_stp_1_Beelink_mini_PC_v4_stp_1_Beelink_mini_PC_v4_65_stp_1_solid1.mtl
g EBoxNewAsm.stp-1/Beelink mini PC v4.stp-1/Beelink mini PC v4-65.stp-1-solid1
usemtl 0.188235_0.231373_0.588235_0.000000_0.000000
o mesh15716
v 0.29785 0.165482 0.203257 
v 0.29785 0.16514 0.202318 
v 0.29785 0.154803 0.20608 
v 0.29785 0.155145 0.20702 
vn -1 -1.74155e-14 -4.78488e-14 
vn -1 -1.74155e-14 -4.78488e-14 
vn -1 -1.74155e-14 -4.78488e-14 
vn -1 -1.74155e-14 -4.78488e-14 
f 1//1 2//2 3//3 
f 3//3 4//4 1//1 
o mesh15717
v 0.30985 0.154803 0.20608 
v 0.29785 0.154803 0.20608 
v 0.29785 0.16514 0.202318 
v 0.30985 0.16514 0.202318 
vn 5.09196e-14 -0.34202 -0.939693 
vn 5.09196e-14 -0.34202 -0.939693 
vn 5.09196e-14 -0.34202 -0.939693 
vn 5.09196e-14 -0.34202 -0.939693 
f 5//5 6//6 7//7 
f 7//7 8//8 5//5 
o mesh15718
v 0.30985 0.154803 0.20608 
v 0.30985 0.16514 0.202318 
v 0.30985 0.165482 0.203257 
v 0.30985 0.155145 0.20702 
vn 1 1.74155e-14 4.78488e-14 
vn 1 1.74155e-14 4.78488e-14 
vn 1 1.74155e-14 4.78488e-14 
vn 1 1.74155e-14 4.78488e-14 
f 9//9 10//10 11//11 
f 11//11 12//12 9//9 
o mesh15719
v 0.29785 0.165482 0.203257 
v 0.30985 0.165482 0.203257 
v 0.30985 0.16514 0.202318 
v 0.29785 0.16514 0.202318 
vn 0 0.939693 -0.34202 
vn 0 0.939693 -0.34202 
vn 0 0.939693 -0.34202 
vn 0 0.939693 -0.34202 
f 13//13 14//14 15//15 
f 15//15 16//16 13//13 
o mesh15720
v 0.29785 0.165482 0.203257 
v 0.29785 0.155145 0.20702 
v 0.30985 0.155145 0.20702 
v 0.30985 0.165482 0.203257 
vn -5.09196e-14 0.34202 0.939693 
vn -5.09196e-14 0.34202 0.939693 
vn -5.09196e-14 0.34202 0.939693 
vn -5.09196e-14 0.34202 0.939693 
f 17//17 18//18 19//19 
f 19//19 20//20 17//17 
o mesh15721
v 0.30985 0.154803 0.20608 
v 0.30985 0.155145 0.20702 
v 0.29785 0.155145 0.20702 
v 0.29785 0.154803 0.20608 
vn 0 -0.939693 0.34202 
vn 0 -0.939693 0.34202 
vn 0 -0.939693 0.34202 
vn 0 -0.939693 0.34202 
f 21//21 22//22 23//23 
f 23//23 24//24 21//21 
