# OBJ generated by ONSHAPE BY PTC INC, 1.215 Units = meters
mtllib EBoxNewAsm_stp_1_SSR_40_DA_stp_1_SSR_40_DA_BOTTOM_stp_1_solid1.mtl
g EBoxNewAsm.stp-1/SSR-40 DA.stp-1/SSR-40 DA BOTTOM.stp-1-solid1
usemtl 0.000000_0.000000_0.000000_0.000000_0.000000
o mesh4672
v 0.143547 0.253339 0.146561 
v 0.143791 0.253344 0.146574 
v 0.143791 0.248307 0.148407 
v 0.143305 0.253326 0.146524 
v 0.143547 0.248303 0.148394 
v 0.143069 0.253303 0.146462 
v 0.143305 0.248289 0.148357 
v 0.142842 0.253272 0.146377 
v 0.143069 0.248267 0.148295 
v 0.142626 0.253233 0.14627 
v 0.142842 0.248236 0.14821 
v 0.142423 0.253186 0.14614 
v 0.142626 0.248197 0.148103 
v 0.142237 0.253132 0.145992 
v 0.142423 0.24815 0.147973 
v 0.142068 0.253071 0.145825 
v 0.142237 0.248096 0.147825 
v 0.14192 0.253004 0.145641 
v 0.142068 0.248035 0.147658 
v 0.141794 0.252933 0.145444 
v 0.14192 0.247968 0.147474 
v 0.141691 0.252857 0.145236 
v 0.141794 0.247896 0.147277 
v 0.141613 0.252777 0.145018 
v 0.141691 0.24782 0.147069 
v 0.14156 0.252696 0.144793 
v 0.141613 0.247741 0.146851 
v 0.141534 0.252612 0.144564 
v 0.14156 0.247659 0.146626 
v 0.141534 0.252529 0.144334 
v 0.141534 0.247576 0.146397 
v 0.14156 0.252445 0.144106 
v 0.141534 0.247492 0.146167 
v 0.141613 0.252364 0.143881 
v 0.14156 0.247409 0.145939 
v 0.141691 0.252284 0.143663 
v 0.141613 0.247327 0.145714 
v 0.141794 0.252208 0.143454 
v 0.141691 0.247248 0.145496 
v 0.14192 0.252137 0.143257 
v 0.141794 0.247172 0.145287 
v 0.142068 0.25207 0.143074 
v 0.14192 0.2471 0.14509 
v 0.142237 0.252009 0.142907 
v 0.142068 0.247034 0.144907 
v 0.142423 0.251955 0.142758 
v 0.142237 0.246973 0.14474 
v 0.142626 0.251908 0.142629 
v 0.142423 0.246919 0.144591 
v 0.142842 0.251869 0.142521 
v 0.142626 0.246872 0.144462 
v 0.143069 0.251838 0.142436 
v 0.142842 0.246833 0.144354 
v 0.143305 0.251815 0.142375 
v 0.143069 0.246802 0.144269 
v 0.143547 0.251802 0.142338 
v 0.143305 0.246779 0.144208 
v 0.143791 0.251797 0.142325 
v 0.143547 0.246766 0.144171 
v 0.144036 0.251802 0.142338 
v 0.143791 0.246761 0.144158 
v 0.144277 0.251815 0.142375 
v 0.144036 0.246766 0.144171 
v 0.144513 0.251838 0.142436 
v 0.144277 0.246779 0.144208 
v 0.14474 0.251869 0.142521 
v 0.144513 0.246802 0.144269 
v 0.144957 0.251908 0.142629 
v 0.14474 0.246833 0.144354 
v 0.145159 0.251955 0.142758 
v 0.144957 0.246872 0.144462 
v 0.145346 0.252009 0.142907 
v 0.145159 0.246919 0.144591 
v 0.145514 0.25207 0.143074 
v 0.145346 0.246973 0.14474 
v 0.145662 0.252137 0.143257 
v 0.145514 0.247034 0.144907 
v 0.145788 0.252208 0.143454 
v 0.145662 0.2471 0.14509 
v 0.145891 0.252284 0.143663 
v 0.145788 0.247172 0.145287 
v 0.145969 0.252364 0.143881 
v 0.145891 0.247248 0.145496 
v 0.146022 0.252445 0.144106 
v 0.145969 0.247327 0.145714 
v 0.146048 0.252529 0.144334 
v 0.146022 0.247409 0.145939 
v 0.146048 0.252612 0.144564 
v 0.146048 0.247492 0.146167 
v 0.146022 0.252696 0.144793 
v 0.146048 0.247576 0.146397 
v 0.145969 0.252777 0.145018 
v 0.146022 0.247659 0.146626 
v 0.145891 0.252857 0.145236 
v 0.145969 0.247741 0.146851 
v 0.145788 0.252933 0.145444 
v 0.145891 0.24782 0.147069 
v 0.145662 0.253004 0.145641 
v 0.145788 0.247896 0.147277 
v 0.145514 0.253071 0.145825 
v 0.145662 0.247968 0.147474 
v 0.145346 0.253132 0.145992 
v 0.145514 0.248035 0.147658 
v 0.145159 0.253186 0.14614 
v 0.145346 0.248096 0.147825 
v 0.144957 0.253233 0.14627 
v 0.145159 0.24815 0.147973 
v 0.14474 0.253272 0.146377 
v 0.144957 0.248197 0.148103 
v 0.144513 0.253303 0.146462 
v 0.14474 0.248236 0.14821 
v 0.144277 0.253326 0.146524 
v 0.144513 0.248267 0.148295 
v 0.144036 0.253339 0.146561 
v 0.144277 0.248289 0.148357 
v 0.144036 0.248303 0.148394 
vn 0.108119 -0.340015 -0.934184 
vn 5.12449e-14 -0.34202 -0.939693 
vn 5.12449e-14 -0.34202 -0.939693 
vn 0.21497 -0.334024 -0.917723 
vn 0.108119 -0.340015 -0.934184 
vn 0.319302 -0.324116 -0.890503 
vn 0.21497 -0.334024 -0.917723 
vn 0.419889 -0.310409 -0.852842 
vn 0.319302 -0.324116 -0.890503 
vn 0.515554 -0.293062 -0.805182 
vn 0.419889 -0.310409 -0.852842 
vn 0.605174 -0.27228 -0.748083 
vn 0.515554 -0.293062 -0.805182 
vn 0.687699 -0.248305 -0.682213 
vn 0.605174 -0.27228 -0.748083 
vn 0.762162 -0.221419 -0.608344 
vn 0.687699 -0.248305 -0.682213 
vn 0.827689 -0.191937 -0.527343 
vn 0.762162 -0.221419 -0.608344 
vn 0.883512 -0.160205 -0.44016 
vn 0.827689 -0.191937 -0.527343 
vn 0.928977 -0.126595 -0.347816 
vn 0.883512 -0.160205 -0.44016 
vn 0.96355 -0.0915001 -0.251394 
vn 0.928977 -0.126595 -0.347816 
vn 0.986827 -0.0553327 -0.152025 
vn 0.96355 -0.0915001 -0.251394 
vn 0.998533 -0.0185166 -0.0508739 
vn 0.986827 -0.0553327 -0.152025 
vn 0.998533 0.0185166 0.0508739 
vn 0.998533 -0.0185166 -0.0508739 
vn 0.986827 0.0553327 0.152025 
vn 0.998533 0.0185166 0.0508739 
vn 0.96355 0.0915001 0.251394 
vn 0.986827 0.0553327 0.152025 
vn 0.928977 0.126595 0.347816 
vn 0.96355 0.0915001 0.251394 
vn 0.883512 0.160205 0.44016 
vn 0.928977 0.126595 0.347816 
vn 0.827689 0.191937 0.527343 
vn 0.883512 0.160205 0.44016 
vn 0.762162 0.221419 0.608344 
vn 0.827689 0.191937 0.527343 
vn 0.687699 0.248305 0.682213 
vn 0.762162 0.221419 0.608344 
vn 0.605174 0.27228 0.748083 
vn 0.687699 0.248305 0.682213 
vn 0.515554 0.293062 0.805182 
vn 0.605174 0.27228 0.748083 
vn 0.419889 0.310409 0.852842 
vn 0.515554 0.293062 0.805182 
vn 0.319302 0.324116 0.890503 
vn 0.419889 0.310409 0.852842 
vn 0.21497 0.334024 0.917723 
vn 0.319302 0.324116 0.890503 
vn 0.108119 0.340015 0.934184 
vn 0.21497 0.334024 0.917723 
vn -4.93461e-14 0.34202 0.939693 
vn 0.108119 0.340015 0.934184 
vn -0.108119 0.340015 0.934184 
vn -4.93461e-14 0.34202 0.939693 
vn -0.21497 0.334024 0.917723 
vn -0.108119 0.340015 0.934184 
vn -0.319302 0.324116 0.890503 
vn -0.21497 0.334024 0.917723 
vn -0.419889 0.310409 0.852842 
vn -0.319302 0.324116 0.890503 
vn -0.515554 0.293062 0.805182 
vn -0.419889 0.310409 0.852842 
vn -0.605174 0.27228 0.748083 
vn -0.515554 0.293062 0.805182 
vn -0.687699 0.248305 0.682213 
vn -0.605174 0.27228 0.748083 
vn -0.762162 0.221419 0.608344 
vn -0.687699 0.248305 0.682213 
vn -0.827689 0.191937 0.527343 
vn -0.762162 0.221419 0.608344 
vn -0.883512 0.160205 0.44016 
vn -0.827689 0.191937 0.527343 
vn -0.928977 0.126595 0.347816 
vn -0.883512 0.160205 0.44016 
vn -0.96355 0.0915001 0.251394 
vn -0.928977 0.126595 0.347816 
vn -0.986827 0.0553327 0.152025 
vn -0.96355 0.0915001 0.251394 
vn -0.998533 0.0185166 0.0508739 
vn -0.986827 0.0553327 0.152025 
vn -0.998533 -0.0185166 -0.0508739 
vn -0.998533 0.0185166 0.0508739 
vn -0.986827 -0.0553327 -0.152025 
vn -0.998533 -0.0185166 -0.0508739 
vn -0.96355 -0.0915001 -0.251394 
vn -0.986827 -0.0553327 -0.152025 
vn -0.928977 -0.126595 -0.347816 
vn -0.96355 -0.0915001 -0.251394 
vn -0.883512 -0.160205 -0.44016 
vn -0.928977 -0.126595 -0.347816 
vn -0.827689 -0.191937 -0.527343 
vn -0.883512 -0.160205 -0.44016 
vn -0.762162 -0.221419 -0.608344 
vn -0.827689 -0.191937 -0.527343 
vn -0.687699 -0.248305 -0.682213 
vn -0.762162 -0.221419 -0.608344 
vn -0.605174 -0.27228 -0.748083 
vn -0.687699 -0.248305 -0.682213 
vn -0.515554 -0.293062 -0.805182 
vn -0.605174 -0.27228 -0.748083 
vn -0.419889 -0.310409 -0.852842 
vn -0.515554 -0.293062 -0.805182 
vn -0.319302 -0.324116 -0.890503 
vn -0.419889 -0.310409 -0.852842 
vn -0.21497 -0.334024 -0.917723 
vn -0.319302 -0.324116 -0.890503 
vn -0.108119 -0.340015 -0.934184 
vn -0.21497 -0.334024 -0.917723 
vn -0.108119 -0.340015 -0.934184 
f 1//1 2//2 3//3 
f 4//4 1//1 5//5 
f 6//6 4//4 7//7 
f 8//8 6//6 9//9 
f 10//10 8//8 11//11 
f 12//12 10//10 13//13 
f 14//14 12//12 15//15 
f 16//16 14//14 17//17 
f 18//18 16//16 19//19 
f 20//20 18//18 21//21 
f 22//22 20//20 23//23 
f 24//24 22//22 25//25 
f 26//26 24//24 27//27 
f 28//28 26//26 29//29 
f 30//30 28//28 31//31 
f 32//32 30//30 33//33 
f 34//34 32//32 35//35 
f 36//36 34//34 37//37 
f 38//38 36//36 39//39 
f 40//40 38//38 41//41 
f 42//42 40//40 43//43 
f 44//44 42//42 45//45 
f 46//46 44//44 47//47 
f 48//48 46//46 49//49 
f 50//50 48//48 51//51 
f 52//52 50//50 53//53 
f 54//54 52//52 55//55 
f 56//56 54//54 57//57 
f 58//58 56//56 59//59 
f 60//60 58//58 61//61 
f 62//62 60//60 63//63 
f 64//64 62//62 65//65 
f 66//66 64//64 67//67 
f 68//68 66//66 69//69 
f 70//70 68//68 71//71 
f 72//72 70//70 73//73 
f 74//74 72//72 75//75 
f 76//76 74//74 77//77 
f 78//78 76//76 79//79 
f 80//80 78//78 81//81 
f 82//82 80//80 83//83 
f 84//84 82//82 85//85 
f 86//86 84//84 87//87 
f 88//88 86//86 89//89 
f 90//90 88//88 91//91 
f 92//92 90//90 93//93 
f 94//94 92//92 95//95 
f 96//96 94//94 97//97 
f 98//98 96//96 99//99 
f 100//100 98//98 101//101 
f 102//102 100//100 103//103 
f 104//104 102//102 105//105 
f 106//106 104//104 107//107 
f 108//108 106//106 109//109 
f 110//110 108//108 111//111 
f 112//112 110//110 113//113 
f 114//114 112//112 115//115 
f 2//2 114//114 116//116 
f 116//116 3//3 2//2 
f 115//115 116//116 114//114 
f 113//113 115//115 112//112 
f 111//111 113//113 110//110 
f 109//109 111//111 108//108 
f 107//107 109//109 106//106 
f 105//105 107//107 104//104 
f 103//103 105//105 102//102 
f 101//101 103//103 100//100 
f 99//99 101//101 98//98 
f 97//97 99//99 96//96 
f 95//95 97//97 94//94 
f 93//93 95//95 92//92 
f 91//91 93//93 90//90 
f 89//89 91//91 88//88 
f 87//87 89//89 86//86 
f 85//85 87//87 84//84 
f 83//83 85//85 82//82 
f 81//81 83//83 80//80 
f 79//79 81//81 78//78 
f 77//77 79//79 76//76 
f 75//75 77//77 74//74 
f 73//73 75//75 72//72 
f 71//71 73//73 70//70 
f 69//69 71//71 68//68 
f 67//67 69//69 66//66 
f 65//65 67//67 64//64 
f 63//63 65//65 62//62 
f 61//61 63//63 60//60 
f 59//59 61//61 58//58 
f 57//57 59//59 56//56 
f 55//55 57//57 54//54 
f 53//53 55//55 52//52 
f 51//51 53//53 50//50 
f 49//49 51//51 48//48 
f 47//47 49//49 46//46 
f 45//45 47//47 44//44 
f 43//43 45//45 42//42 
f 41//41 43//43 40//40 
f 39//39 41//41 38//38 
f 37//37 39//39 36//36 
f 35//35 37//37 34//34 
f 33//33 35//35 32//32 
f 31//31 33//33 30//30 
f 29//29 31//31 28//28 
f 27//27 29//29 26//26 
f 25//25 27//27 24//24 
f 23//23 25//25 22//22 
f 21//21 23//23 20//20 
f 19//19 21//21 18//18 
f 17//17 19//19 16//16 
f 15//15 17//17 14//14 
f 13//13 15//15 12//12 
f 11//11 13//13 10//10 
f 9//9 11//11 8//8 
f 7//7 9//9 6//6 
f 5//5 7//7 4//4 
f 3//3 5//5 1//1 
o mesh4673
v 0.145514 0.247034 0.144907 
v 0.145346 0.246973 0.14474 
v 0.147611 0.246193 0.142596 
v 0.145662 0.2471 0.14509 
v 0.148018 0.246311 0.142921 
v 0.145159 0.246919 0.144591 
v 0.14717 0.24609 0.142315 
v 0.148385 0.246443 0.143285 
v 0.148708 0.246588 0.143684 
v 0.145788 0.247172 0.145287 
v 0.148983 0.246745 0.144113 
v 0.145891 0.247248 0.145496 
v 0.149207 0.24691 0.144568 
v 0.145969 0.247327 0.145714 
v 0.148708 0.24848 0.148881 
v 0.148385 0.248625 0.14928 
v 0.145662 0.247968 0.147474 
v 0.148018 0.248758 0.149644 
v 0.149377 0.247083 0.145044 
v 0.149492 0.247262 0.145533 
v 0.146022 0.247409 0.145939 
v 0.149492 0.247807 0.147031 
v 0.146022 0.247659 0.146626 
v 0.146048 0.247576 0.146397 
v 0.149377 0.247985 0.147521 
v 0.145969 0.247741 0.146851 
v 0.149207 0.248158 0.147996 
v 0.148983 0.248324 0.148451 
v 0.145891 0.24782 0.147069 
v 0.145514 0.248035 0.147658 
v 0.147611 0.248876 0.149969 
v 0.144629 0.24922 0.150913 
v 0.143547 0.248303 0.148394 
v 0.143791 0.248307 0.148407 
v 0.137416 0.24922 0.150913 
v 0.143069 0.248267 0.148295 
v 0.142626 0.248197 0.148103 
v 0.142842 0.248236 0.14821 
v 0.137416 0.245849 0.141652 
v 0.142237 0.246973 0.14474 
v 0.142068 0.247034 0.144907 
v 0.144957 0.246872 0.144462 
v 0.14474 0.246833 0.144354 
v 0.146203 0.245937 0.141894 
v 0.146698 0.246005 0.14208 
v 0.14955 0.247443 0.146032 
v 0.146048 0.247492 0.146167 
v 0.14955 0.247626 0.146533 
v 0.145788 0.247896 0.147277 
v 0.145346 0.248096 0.147825 
v 0.145162 0.24921 0.150886 
v 0.144277 0.248289 0.148357 
v 0.144036 0.248303 0.148394 
v 0.143305 0.248289 0.148357 
v 0.142423 0.24815 0.147973 
v 0.142068 0.248035 0.147658 
v 0.142237 0.248096 0.147825 
v 0.141534 0.247492 0.146167 
v 0.141613 0.247327 0.145714 
v 0.14156 0.247409 0.145939 
v 0.14192 0.2471 0.14509 
v 0.144629 0.245849 0.141652 
v 0.143305 0.246779 0.144208 
v 0.143069 0.246802 0.144269 
v 0.145162 0.245859 0.141679 
v 0.144513 0.246802 0.144269 
v 0.144277 0.246779 0.144208 
v 0.145689 0.245888 0.14176 
v 0.14717 0.248978 0.15025 
v 0.145159 0.24815 0.147973 
v 0.146698 0.249064 0.150485 
v 0.14474 0.248236 0.14821 
v 0.146203 0.249131 0.15067 
v 0.145689 0.24918 0.150805 
v 0.144513 0.248267 0.148295 
v 0.141691 0.24782 0.147069 
v 0.141794 0.247896 0.147277 
v 0.14156 0.247659 0.146626 
v 0.141613 0.247741 0.146851 
v 0.141534 0.247576 0.146397 
v 0.141691 0.247248 0.145496 
v 0.141794 0.247172 0.145287 
v 0.142626 0.246872 0.144462 
v 0.142423 0.246919 0.144591 
v 0.143547 0.246766 0.144171 
v 0.144957 0.248197 0.148103 
v 0.14192 0.247968 0.147474 
v 0.142842 0.246833 0.144354 
v 0.143791 0.246761 0.144158 
v 0.144036 0.246766 0.144171 
vn 0 -0.939693 0.34202 
vn 0 -0.939693 0.34202 
vn 0 -0.939693 0.34202 
vn 0 -0.939693 0.34202 
vn 0 -0.939693 0.34202 
vn 0 -0.939693 0.34202 
vn 0 -0.939693 0.34202 
vn 0 -0.939693 0.34202 
vn 0 -0.939693 0.34202 
vn 0 -0.939693 0.34202 
vn 0 -0.939693 0.34202 
vn 0 -0.939693 0.34202 
vn 0 -0.939693 0.34202 
vn 0 -0.939693 0.34202 
vn 0 -0.939693 0.34202 
vn 0 -0.939693 0.34202 
vn 0 -0.939693 0.34202 
vn 0 -0.939693 0.34202 
vn 0 -0.939693 0.34202 
vn 0 -0.939693 0.34202 
vn 0 -0.939693 0.34202 
vn 0 -0.939693 0.34202 
vn 0 -0.939693 0.34202 
vn 0 -0.939693 0.34202 
vn 0 -0.939693 0.34202 
vn 0 -0.939693 0.34202 
vn 0 -0.939693 0.34202 
vn 0 -0.939693 0.34202 
vn 0 -0.939693 0.34202 
vn 0 -0.939693 0.34202 
vn 0 -0.939693 0.34202 
vn 0 -0.939693 0.34202 
vn 0 -0.939693 0.34202 
vn 0 -0.939693 0.34202 
vn 0 -0.939693 0.34202 
vn 0 -0.939693 0.34202 
vn 0 -0.939693 0.34202 
vn 0 -0.939693 0.34202 
vn 0 -0.939693 0.34202 
vn 0 -0.939693 0.34202 
vn 0 -0.939693 0.34202 
vn 0 -0.939693 0.34202 
vn 0 -0.939693 0.34202 
vn 0 -0.939693 0.34202 
vn 0 -0.939693 0.34202 
vn 0 -0.939693 0.34202 
vn 0 -0.939693 0.34202 
vn 0 -0.939693 0.34202 
vn 0 -0.939693 0.34202 
vn 0 -0.939693 0.34202 
vn 0 -0.939693 0.34202 
vn 0 -0.939693 0.34202 
vn 0 -0.939693 0.34202 
vn 0 -0.939693 0.34202 
vn 0 -0.939693 0.34202 
vn 0 -0.939693 0.34202 
vn 0 -0.939693 0.34202 
vn 0 -0.939693 0.34202 
vn 0 -0.939693 0.34202 
vn 0 -0.939693 0.34202 
vn 0 -0.939693 0.34202 
vn 0 -0.939693 0.34202 
vn 0 -0.939693 0.34202 
vn 0 -0.939693 0.34202 
vn 0 -0.939693 0.34202 
vn 0 -0.939693 0.34202 
vn 0 -0.939693 0.34202 
vn 0 -0.939693 0.34202 
vn 0 -0.939693 0.34202 
vn 0 -0.939693 0.34202 
vn 0 -0.939693 0.34202 
vn 0 -0.939693 0.34202 
vn 0 -0.939693 0.34202 
vn 0 -0.939693 0.34202 
vn 0 -0.939693 0.34202 
vn 0 -0.939693 0.34202 
vn 0 -0.939693 0.34202 
vn 0 -0.939693 0.34202 
vn 0 -0.939693 0.34202 
vn 0 -0.939693 0.34202 
vn 0 -0.939693 0.34202 
vn 0 -0.939693 0.34202 
vn 0 -0.939693 0.34202 
vn 0 -0.939693 0.34202 
vn 0 -0.939693 0.34202 
vn 0 -0.939693 0.34202 
vn 0 -0.939693 0.34202 
vn 0 -0.939693 0.34202 
vn 0 -0.939693 0.34202 
vn 0 -0.939693 0.34202 
f 117//117 118//118 119//119 
f 120//120 117//117 121//121 
f 118//118 122//122 123//123 
f 121//121 124//124 120//120 
f 125//125 126//126 120//120 
f 127//127 128//128 126//126 
f 129//129 130//130 128//128 
f 131//131 132//132 133//133 
f 133//133 132//132 134//134 
f 119//119 121//121 117//117 
f 126//126 125//125 127//127 
f 128//128 127//127 129//129 
f 135//135 136//136 137//137 
f 138//138 139//139 140//140 
f 141//141 142//142 139//139 
f 143//143 144//144 145//145 
f 134//134 146//146 133//133 
f 146//146 134//134 147//147 
f 148//148 149//149 150//150 
f 148//148 151//151 152//152 
f 151//151 153//153 154//154 
f 155//155 156//156 157//157 
f 158//158 159//159 160//160 
f 122//122 158//158 161//161 
f 120//120 124//124 125//125 
f 137//137 130//130 135//135 
f 136//136 162//162 163//163 
f 162//162 164//164 140//140 
f 139//139 138//138 141//141 
f 142//142 141//141 143//143 
f 144//144 131//131 165//165 
f 147//147 166//166 146//146 
f 167//167 148//148 168//168 
f 150//150 169//169 148//148 
f 152//152 170//170 148//148 
f 151//151 171//171 153//153 
f 151//151 172//172 173//173 
f 151//151 155//155 174//174 
f 155//155 175//175 176//176 
f 157//157 177//177 155//155 
f 178//178 179//179 180//180 
f 181//181 182//182 183//183 
f 159//159 182//182 184//184 
f 161//161 123//123 122//122 
f 129//129 135//135 130//130 
f 140//140 163//163 162//162 
f 145//145 142//142 143//143 
f 133//133 165//165 131//131 
f 166//166 147//147 185//185 
f 186//186 185//185 187//187 
f 188//188 189//189 190//190 
f 191//191 190//190 167//167 
f 170//170 149//149 148//148 
f 173//173 171//171 151//151 
f 151//151 192//192 193//193 
f 151//151 194//194 195//195 
f 174//174 196//196 151//151 
f 155//155 197//197 175//175 
f 177//177 198//198 155//155 
f 155//155 199//199 200//200 
f 178//178 201//201 179//179 
f 183//183 178//178 181//181 
f 160//160 161//161 158//158 
f 163//163 137//137 136//136 
f 165//165 145//145 144//144 
f 187//187 202//202 186//186 
f 202//202 187//187 189//189 
f 168//168 191//191 167//167 
f 154//154 152//152 151//151 
f 193//193 203//203 151//151 
f 196//196 194//194 151//151 
f 198//198 197//197 155//155 
f 155//155 204//204 199//199 
f 180//180 155//155 178//178 
f 181//181 184//184 182//182 
f 123//123 119//119 118//118 
f 185//185 186//186 166//166 
f 190//190 191//191 188//188 
f 203//203 172//172 151//151 
f 176//176 174//174 155//155 
f 180//180 204//204 155//155 
f 184//184 160//160 159//159 
f 189//189 188//188 202//202 
f 195//195 192//192 151//151 
f 178//178 205//205 201//201 
f 140//140 164//164 138//138 
f 200//200 156//156 155//155 
f 169//169 168//168 148//148 
f 183//183 206//206 178//178 
f 206//206 205//205 178//178 
o mesh4674
v 0.144629 0.245849 0.141652 
v 0.144629 0.250384 0.140001 
v 0.145162 0.250394 0.140028 
v 0.145162 0.245859 0.141679 
v 0.145689 0.250423 0.14011 
v 0.145689 0.245888 0.14176 
v 0.146203 0.250472 0.140244 
v 0.146203 0.245937 0.141894 
v 0.146698 0.25054 0.140429 
v 0.146698 0.246005 0.14208 
v 0.14717 0.250625 0.140664 
v 0.14717 0.24609 0.142315 
v 0.147611 0.250728 0.140946 
v 0.147611 0.246193 0.142596 
v 0.148018 0.250846 0.14127 
v 0.148018 0.246311 0.142921 
v 0.148385 0.250978 0.141634 
v 0.148385 0.246443 0.143285 
v 0.148708 0.251123 0.142033 
v 0.148708 0.246588 0.143684 
v 0.148983 0.25128 0.142463 
v 0.148983 0.246745 0.144113 
v 0.149207 0.251445 0.142918 
v 0.149207 0.24691 0.144568 
v 0.149377 0.251618 0.143393 
v 0.149377 0.247083 0.145044 
v 0.149492 0.251797 0.143883 
v 0.149492 0.247262 0.145533 
v 0.14955 0.251978 0.144381 
v 0.14955 0.247443 0.146032 
v 0.14955 0.25216 0.144882 
v 0.14955 0.247626 0.146533 
v 0.149492 0.252342 0.145381 
v 0.149492 0.247807 0.147031 
v 0.149377 0.25252 0.145871 
v 0.149377 0.247985 0.147521 
v 0.149207 0.252693 0.146346 
v 0.149207 0.248158 0.147996 
v 0.148983 0.252859 0.146801 
v 0.148983 0.248324 0.148451 
v 0.148708 0.253015 0.14723 
v 0.148708 0.24848 0.148881 
v 0.148385 0.25316 0.147629 
v 0.148385 0.248625 0.14928 
v 0.148018 0.253293 0.147993 
v 0.148018 0.248758 0.149644 
v 0.147611 0.253411 0.148318 
v 0.147611 0.248876 0.149969 
v 0.14717 0.253513 0.148599 
v 0.14717 0.248978 0.15025 
v 0.146698 0.253599 0.148834 
v 0.146698 0.249064 0.150485 
v 0.146203 0.253666 0.14902 
v 0.146203 0.249131 0.15067 
v 0.145689 0.253715 0.149154 
v 0.145689 0.24918 0.150805 
v 0.145162 0.253745 0.149235 
v 0.145162 0.24921 0.150886 
v 0.144629 0.253755 0.149262 
v 0.144629 0.24922 0.150913 
vn -1.79674e-16 -0.34202 -0.939693 
vn -1.79674e-16 -0.34202 -0.939693 
vn 0.108119 -0.340015 -0.934184 
vn 0.108119 -0.340015 -0.934184 
vn 0.21497 -0.334024 -0.917723 
vn 0.21497 -0.334024 -0.917723 
vn 0.319302 -0.324116 -0.890503 
vn 0.319302 -0.324116 -0.890503 
vn 0.419889 -0.310409 -0.852842 
vn 0.419889 -0.310409 -0.852842 
vn 0.515554 -0.293062 -0.805182 
vn 0.515554 -0.293062 -0.805182 
vn 0.605174 -0.27228 -0.748083 
vn 0.605174 -0.27228 -0.748083 
vn 0.687699 -0.248305 -0.682213 
vn 0.687699 -0.248305 -0.682213 
vn 0.762162 -0.221419 -0.608344 
vn 0.762162 -0.221419 -0.608344 
vn 0.827689 -0.191937 -0.527343 
vn 0.827689 -0.191937 -0.527343 
vn 0.883512 -0.160205 -0.44016 
vn 0.883512 -0.160205 -0.44016 
vn 0.928977 -0.126595 -0.347816 
vn 0.928977 -0.126595 -0.347816 
vn 0.96355 -0.0915001 -0.251394 
vn 0.96355 -0.0915001 -0.251394 
vn 0.986827 -0.0553327 -0.152025 
vn 0.986827 -0.0553327 -0.152025 
vn 0.998533 -0.0185166 -0.0508739 
vn 0.998533 -0.0185166 -0.0508739 
vn 0.998533 0.0185166 0.0508739 
vn 0.998533 0.0185166 0.0508739 
vn 0.986827 0.0553327 0.152025 
vn 0.986827 0.0553327 0.152025 
vn 0.96355 0.0915001 0.251394 
vn 0.96355 0.0915001 0.251394 
vn 0.928977 0.126595 0.347816 
vn 0.928977 0.126595 0.347816 
vn 0.883512 0.160205 0.44016 
vn 0.883512 0.160205 0.44016 
vn 0.827689 0.191937 0.527343 
vn 0.827689 0.191937 0.527343 
vn 0.762162 0.221419 0.608344 
vn 0.762162 0.221419 0.608344 
vn 0.687699 0.248305 0.682213 
vn 0.687699 0.248305 0.682213 
vn 0.605174 0.27228 0.748083 
vn 0.605174 0.27228 0.748083 
vn 0.515554 0.293062 0.805182 
vn 0.515554 0.293062 0.805182 
vn 0.419889 0.310409 0.852842 
vn 0.419889 0.310409 0.852842 
vn 0.319302 0.324116 0.890503 
vn 0.319302 0.324116 0.890503 
vn 0.21497 0.334024 0.917723 
vn 0.21497 0.334024 0.917723 
vn 0.108119 0.340015 0.934184 
vn 0.108119 0.340015 0.934184 
vn -2.02647e-13 0.34202 0.939693 
vn -2.02647e-13 0.34202 0.939693 
f 207//207 208//208 209//209 
f 210//210 209//209 211//211 
f 212//212 211//211 213//213 
f 214//214 213//213 215//215 
f 216//216 215//215 217//217 
f 218//218 217//217 219//219 
f 220//220 219//219 221//221 
f 222//222 221//221 223//223 
f 224//224 223//223 225//225 
f 226//226 225//225 227//227 
f 228//228 227//227 229//229 
f 230//230 229//229 231//231 
f 232//232 231//231 233//233 
f 234//234 233//233 235//235 
f 236//236 235//235 237//237 
f 238//238 237//237 239//239 
f 240//240 239//239 241//241 
f 242//242 241//241 243//243 
f 244//244 243//243 245//245 
f 246//246 245//245 247//247 
f 248//248 247//247 249//249 
f 250//250 249//249 251//251 
f 252//252 251//251 253//253 
f 254//254 253//253 255//255 
f 256//256 255//255 257//257 
f 258//258 257//257 259//259 
f 260//260 259//259 261//261 
f 262//262 261//261 263//263 
f 264//264 263//263 265//265 
f 265//265 266//266 264//264 
f 263//263 264//264 262//262 
f 261//261 262//262 260//260 
f 259//259 260//260 258//258 
f 257//257 258//258 256//256 
f 255//255 256//256 254//254 
f 253//253 254//254 252//252 
f 251//251 252//252 250//250 
f 249//249 250//250 248//248 
f 247//247 248//248 246//246 
f 245//245 246//246 244//244 
f 243//243 244//244 242//242 
f 241//241 242//242 240//240 
f 239//239 240//240 238//238 
f 237//237 238//238 236//236 
f 235//235 236//236 234//234 
f 233//233 234//234 232//232 
f 231//231 232//232 230//230 
f 229//229 230//230 228//228 
f 227//227 228//228 226//226 
f 225//225 226//226 224//224 
f 223//223 224//224 222//222 
f 221//221 222//222 220//220 
f 219//219 220//220 218//218 
f 217//217 218//218 216//216 
f 215//215 216//216 214//214 
f 213//213 214//214 212//212 
f 211//211 212//212 210//210 
f 209//209 210//210 207//207 
o mesh4675
v 0.137416 0.245849 0.141652 
v 0.137416 0.24922 0.150913 
v 0.136171 0.250389 0.150487 
v 0.136171 0.247018 0.141226 
vn -0.707107 -0.664463 0.241845 
vn -0.707107 -0.664463 0.241845 
vn -0.707107 -0.664463 0.241845 
vn -0.707107 -0.664463 0.241845 
f 267//267 268//268 269//269 
f 269//269 270//270 267//267 
o mesh4676
v 0.137416 0.251368 0.150131 
v 0.136171 0.251368 0.150131 
v 0.136171 0.250389 0.150487 
v 0.137416 0.24922 0.150913 
v 0.144629 0.24922 0.150913 
v 0.144629 0.253755 0.149262 
v 0.137416 0.253755 0.149262 
vn -2.02647e-13 0.34202 0.939693 
vn -2.02647e-13 0.34202 0.939693 
vn -2.02647e-13 0.34202 0.939693 
vn -2.02647e-13 0.34202 0.939693 
vn -2.02647e-13 0.34202 0.939693 
vn -2.02647e-13 0.34202 0.939693 
vn -2.02647e-13 0.34202 0.939693 
f 271//271 272//272 273//273 
f 274//274 275//275 271//271 
f 276//276 277//277 271//271 
f 271//271 275//275 276//276 
f 273//273 274//274 271//271 
o mesh4677
v 0.137416 0.251368 0.150131 
v 0.137416 0.253755 0.149262 
v 0.137416 0.259753 0.165743 
v 0.137416 0.257366 0.166612 
vn 1 1.75106e-14 4.81101e-14 
vn 1 1.75106e-14 4.81101e-14 
vn 1 1.75106e-14 4.81101e-14 
vn 1 1.75106e-14 4.81101e-14 
f 278//278 279//279 280//280 
f 280//280 281//281 278//278 
o mesh4678
v 0.137416 0.251368 0.150131 
v 0.137416 0.257366 0.166612 
v 0.136171 0.257366 0.166612 
v 0.136171 0.251368 0.150131 
vn 0 -0.939693 0.34202 
vn 0 -0.939693 0.34202 
vn 0 -0.939693 0.34202 
vn 0 -0.939693 0.34202 
f 282//282 283//283 284//284 
f 284//284 285//285 282//282 
o mesh4679
v 0.137416 0.247997 0.14087 
v 0.137416 0.245849 0.141652 
v 0.136171 0.247018 0.141226 
v 0.144629 0.250384 0.140001 
v 0.144629 0.245849 0.141652 
v 0.136171 0.247997 0.14087 
v 0.137416 0.250384 0.140001 
vn 5.1077e-14 -0.34202 -0.939693 
vn 5.1077e-14 -0.34202 -0.939693 
vn 5.1077e-14 -0.34202 -0.939693 
vn 5.1077e-14 -0.34202 -0.939693 
vn 5.1077e-14 -0.34202 -0.939693 
vn 5.1077e-14 -0.34202 -0.939693 
vn 5.1077e-14 -0.34202 -0.939693 
f 286//286 287//287 288//288 
f 289//289 290//290 286//286 
f 288//288 291//291 286//286 
f 286//286 290//290 287//287 
f 286//286 292//292 289//289 
o mesh4680
v 0.137416 0.247997 0.14087 
v 0.136171 0.247997 0.14087 
v 0.136171 0.241998 0.124389 
v 0.137416 0.241998 0.124389 
vn 0 -0.939693 0.34202 
vn 0 -0.939693 0.34202 
vn 0 -0.939693 0.34202 
vn 0 -0.939693 0.34202 
f 293//293 294//294 295//295 
f 295//295 296//296 293//293 
o mesh4681
v 0.137416 0.247997 0.14087 
v 0.137416 0.241998 0.124389 
v 0.137416 0.244385 0.12352 
v 0.137416 0.250384 0.140001 
vn 1 1.75106e-14 4.81101e-14 
vn 1 1.75106e-14 4.81101e-14 
vn 1 1.75106e-14 4.81101e-14 
vn 1 1.75106e-14 4.81101e-14 
f 297//297 298//298 299//299 
f 299//299 300//300 297//297 
o mesh4682
v 0.136171 0.247865 0.142067 
v 0.136171 0.251254 0.140833 
v 0.136171 0.247997 0.14087 
v 0.136171 0.250389 0.150487 
v 0.136171 0.250497 0.149299 
v 0.136171 0.247018 0.141226 
v 0.136171 0.244887 0.123338 
v 0.136171 0.241998 0.124389 
v 0.136171 0.260254 0.165561 
v 0.136171 0.253887 0.148065 
v 0.136171 0.251368 0.150131 
v 0.136171 0.257366 0.166612 
vn -1 -1.7443e-14 -4.79243e-14 
vn -1 -1.7443e-14 -4.79243e-14 
vn -1 -1.7443e-14 -4.79243e-14 
vn -1 -1.7443e-14 -4.79243e-14 
vn -1 -1.7443e-14 -4.79243e-14 
vn -1 -1.7443e-14 -4.79243e-14 
vn -1 -1.7443e-14 -4.79243e-14 
vn -1 -1.7443e-14 -4.79243e-14 
vn -1 -1.7443e-14 -4.79243e-14 
vn -1 -1.7443e-14 -4.79243e-14 
vn -1 -1.7443e-14 -4.79243e-14 
vn -1 -1.7443e-14 -4.79243e-14 
f 301//301 302//302 303//303 
f 304//304 305//305 301//301 
f 301//301 306//306 304//304 
f 307//307 308//308 303//303 
f 309//309 310//310 311//311 
f 305//305 304//304 311//311 
f 303//303 302//302 307//307 
f 311//311 310//310 305//305 
f 311//311 312//312 309//309 
f 303//303 306//306 301//301 
o mesh4683
v 0.139143 0.247865 0.142067 
v 0.136171 0.247865 0.142067 
v 0.136171 0.250497 0.149299 
v 0.139143 0.250497 0.149299 
vn 0 0.939693 -0.34202 
vn 0 0.939693 -0.34202 
vn 0 0.939693 -0.34202 
vn 0 0.939693 -0.34202 
f 313//313 314//314 315//315 
f 315//315 316//316 313//313 
o mesh4684
v 0.139143 0.247865 0.142067 
v 0.139143 0.251254 0.140833 
v 0.136171 0.251254 0.140833 
v 0.136171 0.247865 0.142067 
vn -5.1e-14 0.34202 0.939693 
vn -5.1e-14 0.34202 0.939693 
vn -5.1e-14 0.34202 0.939693 
vn -5.1e-14 0.34202 0.939693 
f 317//317 318//318 319//319 
f 319//319 320//320 317//317 
o mesh4685
v 0.139143 0.247865 0.142067 
v 0.139143 0.250497 0.149299 
v 0.139143 0.253887 0.148065 
v 0.139143 0.251254 0.140833 
vn -1 -1.7443e-14 -4.79243e-14 
vn -1 -1.7443e-14 -4.79243e-14 
vn -1 -1.7443e-14 -4.79243e-14 
vn -1 -1.7443e-14 -4.79243e-14 
f 321//321 322//322 323//323 
f 323//323 324//324 321//321 
o mesh4686
v 0.136171 0.253887 0.148065 
v 0.139143 0.253887 0.148065 
v 0.139143 0.250497 0.149299 
v 0.136171 0.250497 0.149299 
vn 5.1e-14 -0.34202 -0.939693 
vn 5.1e-14 -0.34202 -0.939693 
vn 5.1e-14 -0.34202 -0.939693 
vn 5.1e-14 -0.34202 -0.939693 
f 325//325 326//326 327//327 
f 327//327 328//328 325//325 
o mesh4687
v 0.198477 0.244887 0.123338 
v 0.197233 0.244385 0.12352 
v 0.137416 0.244385 0.12352 
v 0.198477 0.241998 0.124389 
v 0.197233 0.241998 0.124389 
v 0.136171 0.241998 0.124389 
v 0.136171 0.244887 0.123338 
v 0.137416 0.241998 0.124389 
vn 5.1e-14 -0.34202 -0.939693 
vn 5.1e-14 -0.34202 -0.939693 
vn 5.1e-14 -0.34202 -0.939693 
vn 5.1e-14 -0.34202 -0.939693 
vn 5.1e-14 -0.34202 -0.939693 
vn 5.1e-14 -0.34202 -0.939693 
vn 5.1e-14 -0.34202 -0.939693 
vn 5.1e-14 -0.34202 -0.939693 
f 329//329 330//330 331//331 
f 332//332 333//333 330//330 
f 334//334 335//335 331//331 
f 330//330 329//329 332//332 
f 331//331 335//335 329//329 
f 331//331 336//336 334//334 
o mesh4688
v 0.197233 0.241998 0.124389 
v 0.197233 0.247997 0.14087 
v 0.197233 0.250384 0.140001 
v 0.197233 0.244385 0.12352 
vn -1 -1.7443e-14 -4.79243e-14 
vn -1 -1.7443e-14 -4.79243e-14 
vn -1 -1.7443e-14 -4.79243e-14 
vn -1 -1.7443e-14 -4.79243e-14 
f 337//337 338//338 339//339 
f 339//339 340//340 337//337 
o mesh4689
v 0.198477 0.247997 0.14087 
v 0.197233 0.247997 0.14087 
v 0.197233 0.241998 0.124389 
v 0.198477 0.241998 0.124389 
vn 0 -0.939693 0.34202 
vn 0 -0.939693 0.34202 
vn 0 -0.939693 0.34202 
vn 0 -0.939693 0.34202 
f 341//341 342//342 343//343 
f 343//343 344//344 341//341 
o mesh4690
v 0.198477 0.257366 0.166612 
v 0.198477 0.260254 0.165561 
v 0.197233 0.259753 0.165743 
v 0.136171 0.260254 0.165561 
v 0.137416 0.259753 0.165743 
v 0.136171 0.257366 0.166612 
v 0.137416 0.257366 0.166612 
v 0.197233 0.257366 0.166612 
vn -5.1e-14 0.34202 0.939693 
vn -5.1e-14 0.34202 0.939693 
vn -5.1e-14 0.34202 0.939693 
vn -5.1e-14 0.34202 0.939693 
vn -5.1e-14 0.34202 0.939693 
vn -5.1e-14 0.34202 0.939693 
vn -5.1e-14 0.34202 0.939693 
vn -5.1e-14 0.34202 0.939693 
f 345//345 346//346 347//347 
f 346//346 348//348 349//349 
f 349//349 347//347 346//346 
f 350//350 351//351 349//349 
f 349//349 348//348 350//350 
f 347//347 352//352 345//345 
o mesh4691
v 0.197233 0.251368 0.150131 
v 0.198477 0.251368 0.150131 
v 0.198477 0.257366 0.166612 
v 0.197233 0.257366 0.166612 
vn 0 -0.939693 0.34202 
vn 0 -0.939693 0.34202 
vn 0 -0.939693 0.34202 
vn 0 -0.939693 0.34202 
f 353//353 354//354 355//355 
f 355//355 356//356 353//353 
o mesh4692
v 0.197233 0.253755 0.149262 
v 0.197233 0.251368 0.150131 
v 0.197233 0.257366 0.166612 
v 0.197233 0.259753 0.165743 
vn -1 -1.74768e-14 -4.80172e-14 
vn -1 -1.74768e-14 -4.80172e-14 
vn -1 -1.74768e-14 -4.80172e-14 
vn -1 -1.74768e-14 -4.80172e-14 
f 357//357 358//358 359//359 
f 359//359 360//360 357//357 
o mesh4693
v 0.14955 0.25216 0.144882 
v 0.14955 0.251978 0.144381 
v 0.185099 0.251978 0.144381 
v 0.149492 0.252342 0.145381 
v 0.185666 0.252859 0.146801 
v 0.185099 0.25216 0.144882 
v 0.149207 0.252693 0.146346 
v 0.187037 0.253411 0.148318 
v 0.187479 0.253513 0.148599 
v 0.185941 0.253015 0.14723 
v 0.149377 0.25252 0.145871 
v 0.185157 0.252342 0.145381 
v 0.197233 0.259753 0.165743 
v 0.186264 0.25316 0.147629 
v 0.186631 0.253293 0.147993 
v 0.185271 0.25252 0.145871 
v 0.185442 0.252693 0.146346 
v 0.149492 0.251797 0.143883 
v 0.148708 0.253015 0.14723 
v 0.148983 0.252859 0.146801 
v 0.148018 0.253293 0.147993 
v 0.148385 0.25316 0.147629 
v 0.149377 0.251618 0.143393 
v 0.185157 0.251797 0.143883 
v 0.185941 0.251123 0.142033 
v 0.149207 0.251445 0.142918 
v 0.185442 0.251445 0.142918 
v 0.185271 0.251618 0.143393 
v 0.185666 0.25128 0.142463 
v 0.148983 0.25128 0.142463 
v 0.18795 0.253599 0.148834 
v 0.188446 0.253666 0.14902 
v 0.148708 0.251123 0.142033 
v 0.18896 0.253715 0.149154 
v 0.137416 0.259753 0.165743 
v 0.146203 0.253666 0.14902 
v 0.146698 0.253599 0.148834 
v 0.137416 0.253755 0.149262 
v 0.144629 0.253755 0.149262 
v 0.148385 0.250978 0.141634 
v 0.148018 0.250846 0.14127 
v 0.187037 0.250728 0.140946 
v 0.186631 0.250846 0.14127 
v 0.14717 0.253513 0.148599 
v 0.145689 0.253715 0.149154 
v 0.145162 0.253745 0.149235 
v 0.189486 0.253745 0.149235 
v 0.186264 0.250978 0.141634 
v 0.147611 0.253411 0.148318 
v 0.197233 0.244385 0.12352 
v 0.188446 0.250472 0.140244 
v 0.18795 0.25054 0.140429 
v 0.137416 0.244385 0.12352 
v 0.14717 0.250625 0.140664 
v 0.146698 0.25054 0.140429 
v 0.147611 0.250728 0.140946 
v 0.187479 0.250625 0.140664 
v 0.18896 0.250423 0.14011 
v 0.146203 0.250472 0.140244 
v 0.145689 0.250423 0.14011 
v 0.189486 0.250394 0.140028 
v 0.197233 0.250384 0.140001 
v 0.190019 0.250384 0.140001 
v 0.145162 0.250394 0.140028 
v 0.144629 0.250384 0.140001 
v 0.190019 0.253755 0.149262 
v 0.137416 0.250384 0.140001 
v 0.197233 0.253755 0.149262 
vn 0 -0.939693 0.34202 
vn 0 -0.939693 0.34202 
vn 0 -0.939693 0.34202 
vn 0 -0.939693 0.34202 
vn 0 -0.939693 0.34202 
vn 0 -0.939693 0.34202 
vn 0 -0.939693 0.34202 
vn 0 -0.939693 0.34202 
vn 0 -0.939693 0.34202 
vn 0 -0.939693 0.34202 
vn 0 -0.939693 0.34202 
vn 0 -0.939693 0.34202 
vn 0 -0.939693 0.34202 
vn 0 -0.939693 0.34202 
vn 0 -0.939693 0.34202 
vn 0 -0.939693 0.34202 
vn 0 -0.939693 0.34202 
vn 0 -0.939693 0.34202 
vn 0 -0.939693 0.34202 
vn 0 -0.939693 0.34202 
vn 0 -0.939693 0.34202 
vn 0 -0.939693 0.34202 
vn 0 -0.939693 0.34202 
vn 0 -0.939693 0.34202 
vn 0 -0.939693 0.34202 
vn 0 -0.939693 0.34202 
vn 0 -0.939693 0.34202 
vn 0 -0.939693 0.34202 
vn 0 -0.939693 0.34202 
vn 0 -0.939693 0.34202 
vn 0 -0.939693 0.34202 
vn 0 -0.939693 0.34202 
vn 0 -0.939693 0.34202 
vn 0 -0.939693 0.34202 
vn 0 -0.939693 0.34202 
vn 0 -0.939693 0.34202 
vn 0 -0.939693 0.34202 
vn 0 -0.939693 0.34202 
vn 0 -0.939693 0.34202 
vn 0 -0.939693 0.34202 
vn 0 -0.939693 0.34202 
vn 0 -0.939693 0.34202 
vn 0 -0.939693 0.34202 
vn 0 -0.939693 0.34202 
vn 0 -0.939693 0.34202 
vn 0 -0.939693 0.34202 
vn 0 -0.939693 0.34202 
vn 0 -0.939693 0.34202 
vn 0 -0.939693 0.34202 
vn 0 -0.939693 0.34202 
vn 0 -0.939693 0.34202 
vn 0 -0.939693 0.34202 
vn 0 -0.939693 0.34202 
vn 0 -0.939693 0.34202 
vn 0 -0.939693 0.34202 
vn 0 -0.939693 0.34202 
vn 0 -0.939693 0.34202 
vn 0 -0.939693 0.34202 
vn 0 -0.939693 0.34202 
vn 0 -0.939693 0.34202 
vn 0 -0.939693 0.34202 
vn 0 -0.939693 0.34202 
vn 0 -0.939693 0.34202 
vn 0 -0.939693 0.34202 
vn 0 -0.939693 0.34202 
vn 0 -0.939693 0.34202 
vn 0 -0.939693 0.34202 
vn 0 -0.939693 0.34202 
f 361//361 362//362 363//363 
f 364//364 361//361 365//365 
f 363//363 366//366 361//361 
f 367//367 368//368 369//369 
f 370//370 371//371 364//364 
f 366//366 372//372 361//361 
f 369//369 373//373 367//367 
f 367//367 374//374 375//375 
f 365//365 370//370 364//364 
f 361//361 376//376 377//377 
f 362//362 378//378 363//363 
f 375//375 368//368 367//367 
f 374//374 367//367 371//371 
f 373//373 379//379 380//380 
f 373//373 381//381 382//382 
f 361//361 372//372 376//376 
f 383//383 384//384 363//363 
f 370//370 374//374 371//371 
f 382//382 379//379 373//373 
f 385//385 383//383 386//386 
f 378//378 383//383 363//363 
f 380//380 367//367 373//373 
f 383//383 387//387 388//388 
f 383//383 385//385 389//389 
f 386//386 390//390 385//385 
f 373//373 391//391 392//392 
f 369//369 391//391 373//373 
f 389//389 387//387 383//383 
f 390//390 393//393 385//385 
f 392//392 394//394 373//373 
f 388//388 384//384 383//383 
f 395//395 396//396 397//397 
f 395//395 398//398 399//399 
f 393//393 400//400 385//385 
f 377//377 365//365 361//361 
f 401//401 402//402 403//403 
f 373//373 397//397 404//404 
f 395//395 405//405 396//396 
f 399//399 406//406 395//395 
f 394//394 407//407 373//373 
f 403//403 408//408 401//401 
f 404//404 409//409 373//373 
f 406//406 405//405 395//395 
f 410//410 411//411 412//412 
f 413//413 414//414 415//415 
f 402//402 416//416 414//414 
f 408//408 385//385 401//401 
f 397//397 373//373 395//395 
f 413//413 412//412 417//417 
f 410//410 418//418 411//411 
f 415//415 419//419 413//413 
f 402//402 401//401 416//416 
f 409//409 381//381 373//373 
f 412//412 413//413 410//410 
f 419//419 420//420 413//413 
f 400//400 401//401 385//385 
f 410//410 421//421 418//418 
f 410//410 422//422 423//423 
f 414//414 413//413 402//402 
f 423//423 421//421 410//410 
f 413//413 424//424 425//425 
f 417//417 402//402 413//413 
f 373//373 407//407 426//426 
f 420//420 424//424 413//413 
f 425//425 427//427 413//413 
f 426//426 428//428 373//373 
o mesh4694
v 0.190019 0.24922 0.150913 
v 0.190019 0.253755 0.149262 
v 0.189486 0.253745 0.149235 
v 0.189486 0.24921 0.150886 
v 0.18896 0.253715 0.149154 
v 0.18896 0.24918 0.150805 
v 0.188446 0.253666 0.14902 
v 0.188446 0.249131 0.15067 
v 0.18795 0.253599 0.148834 
v 0.18795 0.249064 0.150485 
v 0.187479 0.253513 0.148599 
v 0.187479 0.248978 0.15025 
v 0.187037 0.253411 0.148318 
v 0.187037 0.248876 0.149969 
v 0.186631 0.253293 0.147993 
v 0.186631 0.248758 0.149644 
v 0.186264 0.25316 0.147629 
v 0.186264 0.248625 0.14928 
v 0.185941 0.253015 0.14723 
v 0.185941 0.24848 0.148881 
v 0.185666 0.252859 0.146801 
v 0.185666 0.248324 0.148451 
v 0.185442 0.252693 0.146346 
v 0.185442 0.248158 0.147996 
v 0.185271 0.25252 0.145871 
v 0.185271 0.247985 0.147521 
v 0.185157 0.252342 0.145381 
v 0.185157 0.247807 0.147031 
v 0.185099 0.25216 0.144882 
v 0.185099 0.247626 0.146533 
v 0.185099 0.251978 0.144381 
v 0.185099 0.247443 0.146032 
v 0.185157 0.251797 0.143883 
v 0.185157 0.247262 0.145533 
v 0.185271 0.251618 0.143393 
v 0.185271 0.247083 0.145044 
v 0.185442 0.251445 0.142918 
v 0.185442 0.24691 0.144568 
v 0.185666 0.25128 0.142463 
v 0.185666 0.246745 0.144113 
v 0.185941 0.251123 0.142033 
v 0.185941 0.246588 0.143684 
v 0.186264 0.250978 0.141634 
v 0.186264 0.246443 0.143285 
v 0.186631 0.250846 0.14127 
v 0.186631 0.246311 0.142921 
v 0.187037 0.250728 0.140946 
v 0.187037 0.246193 0.142596 
v 0.187479 0.250625 0.140664 
v 0.187479 0.24609 0.142315 
v 0.18795 0.25054 0.140429 
v 0.18795 0.246005 0.14208 
v 0.188446 0.250472 0.140244 
v 0.188446 0.245937 0.141894 
v 0.18896 0.250423 0.14011 
v 0.18896 0.245888 0.14176 
v 0.189486 0.250394 0.140028 
v 0.189486 0.245859 0.141679 
v 0.190019 0.250384 0.140001 
v 0.190019 0.245849 0.141652 
vn -2.02776e-13 0.34202 0.939693 
vn -2.02776e-13 0.34202 0.939693 
vn -0.108119 0.340015 0.934184 
vn -0.108119 0.340015 0.934184 
vn -0.21497 0.334024 0.917723 
vn -0.21497 0.334024 0.917723 
vn -0.319302 0.324116 0.890503 
vn -0.319302 0.324116 0.890503 
vn -0.419889 0.310409 0.852842 
vn -0.419889 0.310409 0.852842 
vn -0.515554 0.293062 0.805182 
vn -0.515554 0.293062 0.805182 
vn -0.605174 0.27228 0.748083 
vn -0.605174 0.27228 0.748083 
vn -0.687699 0.248305 0.682213 
vn -0.687699 0.248305 0.682213 
vn -0.762162 0.221419 0.608344 
vn -0.762162 0.221419 0.608344 
vn -0.827689 0.191937 0.527343 
vn -0.827689 0.191937 0.527343 
vn -0.883512 0.160205 0.44016 
vn -0.883512 0.160205 0.44016 
vn -0.928977 0.126595 0.347816 
vn -0.928977 0.126595 0.347816 
vn -0.96355 0.0915001 0.251394 
vn -0.96355 0.0915001 0.251394 
vn -0.986827 0.0553327 0.152025 
vn -0.986827 0.0553327 0.152025 
vn -0.998533 0.0185166 0.0508739 
vn -0.998533 0.0185166 0.0508739 
vn -0.998533 -0.0185166 -0.0508739 
vn -0.998533 -0.0185166 -0.0508739 
vn -0.986827 -0.0553327 -0.152025 
vn -0.986827 -0.0553327 -0.152025 
vn -0.96355 -0.0915001 -0.251394 
vn -0.96355 -0.0915001 -0.251394 
vn -0.928977 -0.126595 -0.347816 
vn -0.928977 -0.126595 -0.347816 
vn -0.883512 -0.160205 -0.44016 
vn -0.883512 -0.160205 -0.44016 
vn -0.827689 -0.191937 -0.527343 
vn -0.827689 -0.191937 -0.527343 
vn -0.762162 -0.221419 -0.608344 
vn -0.762162 -0.221419 -0.608344 
vn -0.687699 -0.248305 -0.682213 
vn -0.687699 -0.248305 -0.682213 
vn -0.605174 -0.27228 -0.748083 
vn -0.605174 -0.27228 -0.748083 
vn -0.515554 -0.293062 -0.805182 
vn -0.515554 -0.293062 -0.805182 
vn -0.419889 -0.310409 -0.852842 
vn -0.419889 -0.310409 -0.852842 
vn -0.319302 -0.324116 -0.890503 
vn -0.319302 -0.324116 -0.890503 
vn -0.21497 -0.334024 -0.917723 
vn -0.21497 -0.334024 -0.917723 
vn -0.108119 -0.340015 -0.934184 
vn -0.108119 -0.340015 -0.934184 
vn -1.92724e-16 -0.34202 -0.939693 
vn -1.92724e-16 -0.34202 -0.939693 
f 429//429 430//430 431//431 
f 432//432 431//431 433//433 
f 434//434 433//433 435//435 
f 436//436 435//435 437//437 
f 438//438 437//437 439//439 
f 440//440 439//439 441//441 
f 442//442 441//441 443//443 
f 444//444 443//443 445//445 
f 446//446 445//445 447//447 
f 448//448 447//447 449//449 
f 450//450 449//449 451//451 
f 452//452 451//451 453//453 
f 454//454 453//453 455//455 
f 456//456 455//455 457//457 
f 458//458 457//457 459//459 
f 460//460 459//459 461//461 
f 462//462 461//461 463//463 
f 464//464 463//463 465//465 
f 466//466 465//465 467//467 
f 468//468 467//467 469//469 
f 470//470 469//469 471//471 
f 472//472 471//471 473//473 
f 474//474 473//473 475//475 
f 476//476 475//475 477//477 
f 478//478 477//477 479//479 
f 480//480 479//479 481//481 
f 482//482 481//481 483//483 
f 484//484 483//483 485//485 
f 486//486 485//485 487//487 
f 487//487 488//488 486//486 
f 485//485 486//486 484//484 
f 483//483 484//484 482//482 
f 481//481 482//482 480//480 
f 479//479 480//480 478//478 
f 477//477 478//478 476//476 
f 475//475 476//476 474//474 
f 473//473 474//474 472//472 
f 471//471 472//472 470//470 
f 469//469 470//470 468//468 
f 467//467 468//468 466//466 
f 465//465 466//466 464//464 
f 463//463 464//464 462//462 
f 461//461 462//462 460//460 
f 459//459 460//460 458//458 
f 457//457 458//458 456//456 
f 455//455 456//456 454//454 
f 453//453 454//454 452//452 
f 451//451 452//452 450//450 
f 449//449 450//450 448//448 
f 447//447 448//448 446//446 
f 445//445 446//446 444//444 
f 443//443 444//444 442//442 
f 441//441 442//442 440//440 
f 439//439 440//440 438//438 
f 437//437 438//438 436//436 
f 435//435 436//436 434//434 
f 433//433 434//434 432//432 
f 431//431 432//432 429//429 
o mesh4695
v 0.197233 0.247997 0.14087 
v 0.198477 0.247997 0.14087 
v 0.198477 0.247018 0.141226 
v 0.197233 0.245849 0.141652 
v 0.190019 0.245849 0.141652 
v 0.190019 0.250384 0.140001 
v 0.197233 0.250384 0.140001 
vn -1.92724e-16 -0.34202 -0.939693 
vn -1.92724e-16 -0.34202 -0.939693 
vn -1.92724e-16 -0.34202 -0.939693 
vn -1.92724e-16 -0.34202 -0.939693 
vn -1.92724e-16 -0.34202 -0.939693 
vn -1.92724e-16 -0.34202 -0.939693 
vn -1.92724e-16 -0.34202 -0.939693 
f 489//489 490//490 491//491 
f 492//492 493//493 489//489 
f 494//494 495//495 489//489 
f 489//489 493//493 494//494 
f 491//491 492//492 489//489 
o mesh4696
v 0.197233 0.251368 0.150131 
v 0.197233 0.24922 0.150913 
v 0.198477 0.250389 0.150487 
v 0.190019 0.253755 0.149262 
v 0.190019 0.24922 0.150913 
v 0.198477 0.251368 0.150131 
v 0.197233 0.253755 0.149262 
vn -5.06152e-14 0.34202 0.939693 
vn -5.06152e-14 0.34202 0.939693 
vn -5.06152e-14 0.34202 0.939693 
vn -5.06152e-14 0.34202 0.939693 
vn -5.06152e-14 0.34202 0.939693 
vn -5.06152e-14 0.34202 0.939693 
vn -5.06152e-14 0.34202 0.939693 
f 496//496 497//497 498//498 
f 499//499 500//500 496//496 
f 498//498 501//501 496//496 
f 496//496 500//500 497//497 
f 496//496 502//502 499//499 
o mesh4697
v 0.197233 0.245849 0.141652 
v 0.198477 0.247018 0.141226 
v 0.198477 0.250389 0.150487 
v 0.197233 0.24922 0.150913 
vn 0.707107 -0.664463 0.241845 
vn 0.707107 -0.664463 0.241845 
vn 0.707107 -0.664463 0.241845 
vn 0.707107 -0.664463 0.241845 
f 503//503 504//504 505//505 
f 505//505 506//506 503//503 
o mesh4698
v 0.198477 0.250389 0.150487 
v 0.198477 0.247018 0.141226 
v 0.198477 0.247865 0.142067 
v 0.198477 0.247997 0.14087 
v 0.198477 0.250497 0.149299 
v 0.198477 0.253887 0.148065 
v 0.198477 0.251368 0.150131 
v 0.198477 0.260254 0.165561 
v 0.198477 0.257366 0.166612 
v 0.198477 0.244887 0.123338 
v 0.198477 0.251254 0.140833 
v 0.198477 0.241998 0.124389 
vn 1 1.7443e-14 4.79243e-14 
vn 1 1.7443e-14 4.79243e-14 
vn 1 1.7443e-14 4.79243e-14 
vn 1 1.7443e-14 4.79243e-14 
vn 1 1.7443e-14 4.79243e-14 
vn 1 1.7443e-14 4.79243e-14 
vn 1 1.7443e-14 4.79243e-14 
vn 1 1.7443e-14 4.79243e-14 
vn 1 1.7443e-14 4.79243e-14 
vn 1 1.7443e-14 4.79243e-14 
vn 1 1.7443e-14 4.79243e-14 
vn 1 1.7443e-14 4.79243e-14 
f 507//507 508//508 509//509 
f 509//509 508//508 510//510 
f 511//511 512//512 513//513 
f 514//514 515//515 513//513 
f 516//516 517//517 510//510 
f 510//510 517//517 509//509 
f 513//513 512//512 514//514 
f 509//509 511//511 507//507 
f 510//510 518//518 516//516 
f 513//513 507//507 511//511 
o mesh4699
v 0.198477 0.247865 0.142067 
v 0.195506 0.247865 0.142067 
v 0.195506 0.250497 0.149299 
v 0.198477 0.250497 0.149299 
vn 0 0.939693 -0.34202 
vn 0 0.939693 -0.34202 
vn 0 0.939693 -0.34202 
vn 0 0.939693 -0.34202 
f 519//519 520//520 521//521 
f 521//521 522//522 519//519 
o mesh4700
v 0.195506 0.253887 0.148065 
v 0.198477 0.253887 0.148065 
v 0.198477 0.250497 0.149299 
v 0.195506 0.250497 0.149299 
vn 4.89453e-14 -0.34202 -0.939693 
vn 4.89453e-14 -0.34202 -0.939693 
vn 4.89453e-14 -0.34202 -0.939693 
vn 4.89453e-14 -0.34202 -0.939693 
f 523//523 524//524 525//525 
f 525//525 526//526 523//523 
o mesh4701
v 0.195506 0.250497 0.149299 
v 0.195506 0.247865 0.142067 
v 0.195506 0.251254 0.140833 
v 0.195506 0.253887 0.148065 
vn 1 1.7443e-14 4.79243e-14 
vn 1 1.7443e-14 4.79243e-14 
vn 1 1.7443e-14 4.79243e-14 
vn 1 1.7443e-14 4.79243e-14 
f 527//527 528//528 529//529 
f 529//529 530//530 527//527 
o mesh4702
v 0.198477 0.247865 0.142067 
v 0.198477 0.251254 0.140833 
v 0.195506 0.251254 0.140833 
v 0.195506 0.247865 0.142067 
vn -5.13736e-14 0.34202 0.939693 
vn -5.13736e-14 0.34202 0.939693 
vn -5.13736e-14 0.34202 0.939693 
vn -5.13736e-14 0.34202 0.939693 
f 531//531 532//532 533//533 
f 533//533 534//534 531//531 
o mesh4703
v 0.146048 0.252612 0.144564 
v 0.187228 0.252609 0.144556 
v 0.187228 0.252532 0.144343 
v 0.187253 0.252686 0.144768 
v 0.146022 0.252696 0.144793 
v 0.146022 0.252445 0.144106 
v 0.187253 0.252455 0.144131 
v 0.146048 0.252529 0.144334 
v 0.145788 0.252933 0.145444 
v 0.145662 0.253004 0.145641 
v 0.145969 0.252777 0.145018 
v 0.187374 0.252305 0.14372 
v 0.187469 0.252235 0.143527 
v 0.187302 0.252379 0.143923 
v 0.136171 0.260254 0.165561 
v 0.145159 0.253186 0.14614 
v 0.144957 0.253233 0.14627 
v 0.18824 0.253185 0.146137 
v 0.145346 0.253132 0.145992 
v 0.145514 0.253071 0.145825 
v 0.145891 0.252857 0.145236 
v 0.187586 0.252168 0.143344 
v 0.18788 0.253091 0.145879 
v 0.187724 0.253034 0.145724 
v 0.188053 0.253141 0.146017 
v 0.188053 0.252 0.142882 
v 0.18824 0.251956 0.142762 
v 0.187724 0.252106 0.143175 
v 0.18788 0.25205 0.14302 
v 0.187469 0.252906 0.145372 
v 0.187374 0.252836 0.145178 
v 0.139143 0.251254 0.140833 
v 0.143305 0.251815 0.142375 
v 0.143547 0.251802 0.142338 
v 0.142626 0.251908 0.142629 
v 0.142842 0.251869 0.142521 
v 0.195506 0.251254 0.140833 
v 0.189321 0.251854 0.14248 
v 0.192089 0.251854 0.14248 
v 0.144513 0.253303 0.146462 
v 0.144277 0.253326 0.146524 
v 0.14474 0.253272 0.146377 
v 0.187302 0.252762 0.144976 
v 0.187586 0.252973 0.145554 
v 0.144036 0.251802 0.142338 
v 0.143069 0.251838 0.142436 
v 0.142423 0.251955 0.142758 
v 0.14192 0.252137 0.143257 
v 0.142068 0.25207 0.143074 
v 0.189094 0.251858 0.142492 
v 0.18887 0.251871 0.142526 
v 0.198477 0.260254 0.165561 
v 0.192089 0.253287 0.146418 
v 0.189321 0.253287 0.146418 
v 0.143791 0.251797 0.142325 
v 0.142237 0.252009 0.142907 
v 0.192758 0.251891 0.142583 
v 0.192969 0.25192 0.142662 
v 0.144036 0.253339 0.146561 
v 0.188652 0.25325 0.146315 
v 0.189094 0.253283 0.146407 
v 0.144277 0.251815 0.142375 
v 0.144513 0.251838 0.142436 
v 0.141794 0.252208 0.143454 
v 0.139143 0.253887 0.148065 
v 0.142626 0.253233 0.14627 
v 0.142423 0.253186 0.14614 
v 0.19254 0.251871 0.142526 
v 0.192316 0.251858 0.142492 
v 0.188441 0.25192 0.142662 
v 0.188652 0.251891 0.142583 
v 0.188441 0.253221 0.146236 
v 0.18887 0.25327 0.146372 
v 0.145346 0.252009 0.142907 
v 0.145514 0.25207 0.143074 
v 0.144957 0.251908 0.142629 
v 0.145159 0.251955 0.142758 
v 0.14474 0.251869 0.142521 
v 0.14192 0.253004 0.145641 
v 0.141794 0.252933 0.145444 
v 0.142237 0.253132 0.145992 
v 0.19317 0.253185 0.146137 
v 0.192969 0.253221 0.146236 
v 0.194036 0.252305 0.14372 
v 0.194108 0.252379 0.143923 
v 0.19353 0.25205 0.14302 
v 0.193686 0.252106 0.143175 
v 0.19317 0.251956 0.142762 
v 0.193357 0.252 0.142882 
v 0.143791 0.253344 0.146574 
v 0.145662 0.252137 0.143257 
v 0.145788 0.252208 0.143454 
v 0.141613 0.252364 0.143881 
v 0.141691 0.252284 0.143663 
v 0.142068 0.253071 0.145825 
v 0.142842 0.253272 0.146377 
v 0.143305 0.253326 0.146524 
v 0.143069 0.253303 0.146462 
v 0.192758 0.25325 0.146315 
v 0.195506 0.253887 0.148065 
v 0.193686 0.253034 0.145724 
v 0.19353 0.253091 0.145879 
v 0.193941 0.252235 0.143527 
v 0.193824 0.252168 0.143344 
v 0.145891 0.252284 0.143663 
v 0.145969 0.252364 0.143881 
v 0.141534 0.252529 0.144334 
v 0.14156 0.252445 0.144106 
v 0.141534 0.252612 0.144564 
v 0.143547 0.253339 0.146561 
v 0.193357 0.253141 0.146017 
v 0.193824 0.252973 0.145554 
v 0.14156 0.252696 0.144793 
v 0.141691 0.252857 0.145236 
v 0.141613 0.252777 0.145018 
v 0.194036 0.252836 0.145178 
v 0.193941 0.252906 0.145372 
v 0.194182 0.252609 0.144556 
v 0.194157 0.252686 0.144768 
v 0.194108 0.252762 0.144976 
v 0.194157 0.252455 0.144131 
v 0.194182 0.252532 0.144343 
v 0.136171 0.244887 0.123338 
v 0.136171 0.251254 0.140833 
v 0.19254 0.25327 0.146372 
v 0.192316 0.253283 0.146407 
v 0.198477 0.244887 0.123338 
v 0.198477 0.253887 0.148065 
v 0.198477 0.251254 0.140833 
v 0.136171 0.253887 0.148065 
vn 0 0.939693 -0.34202 
vn 0 0.939693 -0.34202 
vn 0 0.939693 -0.34202 
vn 0 0.939693 -0.34202 
vn 0 0.939693 -0.34202 
vn 0 0.939693 -0.34202 
vn 0 0.939693 -0.34202 
vn 0 0.939693 -0.34202 
vn 0 0.939693 -0.34202 
vn 0 0.939693 -0.34202 
vn 0 0.939693 -0.34202 
vn 0 0.939693 -0.34202 
vn 0 0.939693 -0.34202 
vn 0 0.939693 -0.34202 
vn 0 0.939693 -0.34202 
vn 0 0.939693 -0.34202 
vn 0 0.939693 -0.34202 
vn 0 0.939693 -0.34202 
vn 0 0.939693 -0.34202 
vn 0 0.939693 -0.34202 
vn 0 0.939693 -0.34202 
vn 0 0.939693 -0.34202 
vn 0 0.939693 -0.34202 
vn 0 0.939693 -0.34202 
vn 0 0.939693 -0.34202 
vn 0 0.939693 -0.34202 
vn 0 0.939693 -0.34202 
vn 0 0.939693 -0.34202 
vn 0 0.939693 -0.34202 
vn 0 0.939693 -0.34202 
vn 0 0.939693 -0.34202 
vn 0 0.939693 -0.34202 
vn 0 0.939693 -0.34202 
vn 0 0.939693 -0.34202 
vn 0 0.939693 -0.34202 
vn 0 0.939693 -0.34202 
vn 0 0.939693 -0.34202 
vn 0 0.939693 -0.34202 
vn 0 0.939693 -0.34202 
vn 0 0.939693 -0.34202 
vn 0 0.939693 -0.34202 
vn 0 0.939693 -0.34202 
vn 0 0.939693 -0.34202 
vn 0 0.939693 -0.34202 
vn 0 0.939693 -0.34202 
vn 0 0.939693 -0.34202 
vn 0 0.939693 -0.34202 
vn 0 0.939693 -0.34202 
vn 0 0.939693 -0.34202 
vn 0 0.939693 -0.34202 
vn 0 0.939693 -0.34202 
vn 0 0.939693 -0.34202 
vn 0 0.939693 -0.34202 
vn 0 0.939693 -0.34202 
vn 0 0.939693 -0.34202 
vn 0 0.939693 -0.34202 
vn 0 0.939693 -0.34202 
vn 0 0.939693 -0.34202 
vn 0 0.939693 -0.34202 
vn 0 0.939693 -0.34202 
vn 0 0.939693 -0.34202 
vn 0 0.939693 -0.34202 
vn 0 0.939693 -0.34202 
vn 0 0.939693 -0.34202 
vn 0 0.939693 -0.34202 
vn 0 0.939693 -0.34202 
vn 0 0.939693 -0.34202 
vn 0 0.939693 -0.34202 
vn 0 0.939693 -0.34202 
vn 0 0.939693 -0.34202 
vn 0 0.939693 -0.34202 
vn 0 0.939693 -0.34202 
vn 0 0.939693 -0.34202 
vn 0 0.939693 -0.34202 
vn 0 0.939693 -0.34202 
vn 0 0.939693 -0.34202 
vn 0 0.939693 -0.34202 
vn 0 0.939693 -0.34202 
vn 0 0.939693 -0.34202 
vn 0 0.939693 -0.34202 
vn 0 0.939693 -0.34202 
vn 0 0.939693 -0.34202 
vn 0 0.939693 -0.34202 
vn 0 0.939693 -0.34202 
vn 0 0.939693 -0.34202 
vn 0 0.939693 -0.34202 
vn 0 0.939693 -0.34202 
vn 0 0.939693 -0.34202 
vn 0 0.939693 -0.34202 
vn 0 0.939693 -0.34202 
vn 0 0.939693 -0.34202 
vn 0 0.939693 -0.34202 
vn 0 0.939693 -0.34202 
vn 0 0.939693 -0.34202 
vn 0 0.939693 -0.34202 
vn 0 0.939693 -0.34202 
vn 0 0.939693 -0.34202 
vn 0 0.939693 -0.34202 
vn 0 0.939693 -0.34202 
vn 0 0.939693 -0.34202 
vn 0 0.939693 -0.34202 
vn 0 0.939693 -0.34202 
vn 0 0.939693 -0.34202 
vn 0 0.939693 -0.34202 
vn 0 0.939693 -0.34202 
vn 0 0.939693 -0.34202 
vn 0 0.939693 -0.34202 
vn 0 0.939693 -0.34202 
vn 0 0.939693 -0.34202 
vn 0 0.939693 -0.34202 
vn 0 0.939693 -0.34202 
vn 0 0.939693 -0.34202 
vn 0 0.939693 -0.34202 
vn 0 0.939693 -0.34202 
vn 0 0.939693 -0.34202 
vn 0 0.939693 -0.34202 
vn 0 0.939693 -0.34202 
vn 0 0.939693 -0.34202 
vn 0 0.939693 -0.34202 
vn 0 0.939693 -0.34202 
vn 0 0.939693 -0.34202 
vn 0 0.939693 -0.34202 
vn 0 0.939693 -0.34202 
vn 0 0.939693 -0.34202 
vn 0 0.939693 -0.34202 
vn 0 0.939693 -0.34202 
vn 0 0.939693 -0.34202 
vn 0 0.939693 -0.34202 
vn 0 0.939693 -0.34202 
vn 0 0.939693 -0.34202 
f 535//535 536//536 537//537 
f 538//538 535//535 539//539 
f 540//540 537//537 541//541 
f 537//537 540//540 542//542 
f 538//538 543//543 544//544 
f 539//539 545//545 538//538 
f 540//540 546//546 547//547 
f 541//541 548//548 540//540 
f 535//535 538//538 536//536 
f 549//549 550//550 551//551 
f 552//552 553//553 550//550 
f 544//544 554//554 538//538 
f 545//545 555//555 538//538 
f 547//547 556//556 540//540 
f 537//537 542//542 535//535 
f 553//553 557//557 558//558 
f 553//553 552//552 559//559 
f 550//550 549//549 552//552 
f 540//540 560//560 561//561 
f 540//540 562//562 563//563 
f 555//555 543//543 538//538 
f 548//548 546//546 540//540 
f 553//553 564//564 565//565 
f 559//559 557//557 553//553 
f 566//566 567//567 568//568 
f 566//566 569//569 570//570 
f 571//571 572//572 573//573 
f 549//549 574//574 575//575 
f 551//551 576//576 549//549 
f 563//563 560//560 540//540 
f 556//556 562//562 540//540 
f 565//565 577//577 553//553 
f 558//558 578//578 553//553 
f 571//571 566//566 579//579 
f 566//566 580//580 567//567 
f 566//566 581//581 569//569 
f 566//566 582//582 583//583 
f 571//571 584//584 572//572 
f 540//540 585//585 584//584 
f 576//576 574//574 549//549 
f 554//554 553//553 538//538 
f 578//578 564//564 553//553 
f 586//586 587//587 588//588 
f 566//566 589//589 579//579 
f 570//570 580//580 566//566 
f 583//583 590//590 566//566 
f 571//571 591//591 592//592 
f 584//584 571//571 540//540 
f 575//575 593//593 549//549 
f 577//577 538//538 553//553 
f 549//549 586//586 594//594 
f 588//588 595//595 586//586 
f 571//571 596//596 597//597 
f 568//568 589//589 566//566 
f 566//566 598//598 582//582 
f 599//599 600//600 601//601 
f 571//571 602//602 591//591 
f 573//573 603//603 571//571 
f 540//540 604//604 605//605 
f 561//561 604//604 540//540 
f 594//594 606//606 549//549 
f 595//595 607//607 586//586 
f 571//571 608//608 609//609 
f 571//571 610//610 611//611 
f 597//597 612//612 571//571 
f 590//590 581//581 566//566 
f 599//599 613//613 614//614 
f 601//601 615//615 599//599 
f 586//586 616//616 617//617 
f 571//571 618//618 619//619 
f 571//571 620//620 621//621 
f 571//571 622//622 623//623 
f 603//603 602//602 571//571 
f 593//593 624//624 549//549 
f 607//607 594//594 586//586 
f 571//571 625//625 626//626 
f 611//611 608//608 571//571 
f 579//579 596//596 571//571 
f 566//566 627//627 628//628 
f 599//599 629//629 613//613 
f 599//599 630//630 600//600 
f 599//599 631//631 632//632 
f 617//617 633//633 586//586 
f 616//616 586//586 634//634 
f 634//634 635//635 636//636 
f 571//571 637//637 618//618 
f 621//621 638//638 571//571 
f 592//592 622//622 571//571 
f 606//606 552//552 549//549 
f 571//571 639//639 640//640 
f 609//609 625//625 571//571 
f 628//628 598//598 566//566 
f 566//566 641//641 642//642 
f 599//599 643//643 641//641 
f 615//615 629//629 599//599 
f 599//599 644//644 631//631 
f 634//634 645//645 616//616 
f 634//634 646//646 635//635 
f 638//638 637//637 571//571 
f 605//605 585//585 540//540 
f 626//626 639//639 571//571 
f 642//642 627//627 566//566 
f 599//599 647//647 643//643 
f 599//599 648//648 649//649 
f 632//632 630//630 599//599 
f 636//636 645//645 634//634 
f 634//634 650//650 651//651 
f 634//634 652//652 653//653 
f 623//623 620//620 571//571 
f 612//612 610//610 571//571 
f 649//649 647//647 599//599 
f 599//599 624//624 644//644 
f 651//651 646//646 634//634 
f 653//653 654//654 634//634 
f 634//634 619//619 655//655 
f 640//640 540//540 571//571 
f 614//614 648//648 599//599 
f 654//654 650//650 634//634 
f 655//655 656//656 634//634 
f 641//641 566//566 599//599 
f 657//657 658//658 566//566 
f 586//586 659//659 660//660 
f 656//656 652//652 634//634 
f 661//661 657//657 571//571 
f 566//566 571//571 657//657 
f 633//633 659//659 586//586 
f 619//619 634//634 571//571 
f 586//586 662//662 634//634 
f 549//549 624//624 599//599 
f 660//660 587//587 586//586 
f 571//571 663//663 661//661 
f 599//599 664//664 549//549 
o mesh4704
v 0.185099 0.247443 0.146032 
v 0.185157 0.247262 0.145533 
v 0.187253 0.247418 0.145964 
v 0.185271 0.247083 0.145044 
v 0.187302 0.247343 0.145756 
v 0.185442 0.24691 0.144568 
v 0.187374 0.247269 0.145553 
v 0.197233 0.245849 0.141652 
v 0.194108 0.247343 0.145756 
v 0.194036 0.247269 0.145553 
v 0.194182 0.247495 0.146176 
v 0.194157 0.247418 0.145964 
v 0.186631 0.248758 0.149644 
v 0.186264 0.248625 0.14928 
v 0.18788 0.248055 0.147712 
v 0.185941 0.24848 0.148881 
v 0.187724 0.247998 0.147557 
v 0.185271 0.247985 0.147521 
v 0.187302 0.247726 0.146809 
v 0.187374 0.2478 0.147011 
v 0.185157 0.247807 0.147031 
v 0.187253 0.24765 0.146601 
v 0.185099 0.247626 0.146533 
v 0.187228 0.247573 0.146389 
v 0.187469 0.247199 0.14536 
v 0.186264 0.246443 0.143285 
v 0.18788 0.247014 0.144853 
v 0.187724 0.24707 0.145008 
v 0.186631 0.246311 0.142921 
v 0.188053 0.246964 0.144715 
v 0.197233 0.24922 0.150913 
v 0.194182 0.247573 0.146389 
v 0.194108 0.247726 0.146809 
v 0.194157 0.24765 0.146601 
v 0.188053 0.248105 0.14785 
v 0.18824 0.248148 0.14797 
v 0.185666 0.248324 0.148451 
v 0.187586 0.247936 0.147387 
v 0.185442 0.248158 0.147996 
v 0.187469 0.24787 0.147205 
v 0.187228 0.247495 0.146176 
v 0.185666 0.246745 0.144113 
v 0.187586 0.247132 0.145177 
v 0.185941 0.246588 0.143684 
v 0.187037 0.246193 0.142596 
v 0.18824 0.24692 0.144595 
v 0.187479 0.24609 0.142315 
v 0.18795 0.246005 0.14208 
v 0.188652 0.246855 0.144416 
v 0.188446 0.245937 0.141894 
v 0.18887 0.246834 0.144359 
v 0.193941 0.247199 0.14536 
v 0.193941 0.24787 0.147205 
v 0.194036 0.2478 0.147011 
v 0.19353 0.248055 0.147712 
v 0.193686 0.247998 0.147557 
v 0.192969 0.248185 0.148069 
v 0.19317 0.248148 0.14797 
v 0.190019 0.24922 0.150913 
v 0.192316 0.248247 0.14824 
v 0.19254 0.248234 0.148205 
v 0.188441 0.246884 0.144495 
v 0.193686 0.24707 0.145008 
v 0.19353 0.247014 0.144853 
v 0.193824 0.247132 0.145177 
v 0.193824 0.247936 0.147387 
v 0.192758 0.248213 0.148148 
v 0.187479 0.248978 0.15025 
v 0.188441 0.248185 0.148069 
v 0.188652 0.248213 0.148148 
v 0.187037 0.248876 0.149969 
v 0.189321 0.246818 0.144313 
v 0.189486 0.245859 0.141679 
v 0.190019 0.245849 0.141652 
v 0.193357 0.246964 0.144715 
v 0.193357 0.248105 0.14785 
v 0.189321 0.248251 0.148251 
v 0.192089 0.248251 0.148251 
v 0.189486 0.24921 0.150886 
v 0.18896 0.24918 0.150805 
v 0.18795 0.249064 0.150485 
v 0.18887 0.248234 0.148205 
v 0.192316 0.246822 0.144325 
v 0.192089 0.246818 0.144313 
v 0.19254 0.246834 0.144359 
v 0.19317 0.24692 0.144595 
v 0.192969 0.246884 0.144495 
v 0.189094 0.248247 0.14824 
v 0.188446 0.249131 0.15067 
v 0.18896 0.245888 0.14176 
v 0.189094 0.246822 0.144325 
v 0.192758 0.246855 0.144416 
vn 0 -0.939693 0.34202 
vn 0 -0.939693 0.34202 
vn 0 -0.939693 0.34202 
vn 0 -0.939693 0.34202 
vn 0 -0.939693 0.34202 
vn 0 -0.939693 0.34202 
vn 0 -0.939693 0.34202 
vn 0 -0.939693 0.34202 
vn 0 -0.939693 0.34202 
vn 0 -0.939693 0.34202 
vn 0 -0.939693 0.34202 
vn 0 -0.939693 0.34202 
vn 0 -0.939693 0.34202 
vn 0 -0.939693 0.34202 
vn 0 -0.939693 0.34202 
vn 0 -0.939693 0.34202 
vn 0 -0.939693 0.34202 
vn 0 -0.939693 0.34202 
vn 0 -0.939693 0.34202 
vn 0 -0.939693 0.34202 
vn 0 -0.939693 0.34202 
vn 0 -0.939693 0.34202 
vn 0 -0.939693 0.34202 
vn 0 -0.939693 0.34202 
vn 0 -0.939693 0.34202 
vn 0 -0.939693 0.34202 
vn 0 -0.939693 0.34202 
vn 0 -0.939693 0.34202 
vn 0 -0.939693 0.34202 
vn 0 -0.939693 0.34202 
vn 0 -0.939693 0.34202 
vn 0 -0.939693 0.34202 
vn 0 -0.939693 0.34202 
vn 0 -0.939693 0.34202 
vn 0 -0.939693 0.34202 
vn 0 -0.939693 0.34202 
vn 0 -0.939693 0.34202 
vn 0 -0.939693 0.34202 
vn 0 -0.939693 0.34202 
vn 0 -0.939693 0.34202 
vn 0 -0.939693 0.34202 
vn 0 -0.939693 0.34202 
vn 0 -0.939693 0.34202 
vn 0 -0.939693 0.34202 
vn 0 -0.939693 0.34202 
vn 0 -0.939693 0.34202 
vn 0 -0.939693 0.34202 
vn 0 -0.939693 0.34202 
vn 0 -0.939693 0.34202 
vn 0 -0.939693 0.34202 
vn 0 -0.939693 0.34202 
vn 0 -0.939693 0.34202 
vn 0 -0.939693 0.34202 
vn 0 -0.939693 0.34202 
vn 0 -0.939693 0.34202 
vn 0 -0.939693 0.34202 
vn 0 -0.939693 0.34202 
vn 0 -0.939693 0.34202 
vn 0 -0.939693 0.34202 
vn 0 -0.939693 0.34202 
vn 0 -0.939693 0.34202 
vn 0 -0.939693 0.34202 
vn 0 -0.939693 0.34202 
vn 0 -0.939693 0.34202 
vn 0 -0.939693 0.34202 
vn 0 -0.939693 0.34202 
vn 0 -0.939693 0.34202 
vn 0 -0.939693 0.34202 
vn 0 -0.939693 0.34202 
vn 0 -0.939693 0.34202 
vn 0 -0.939693 0.34202 
vn 0 -0.939693 0.34202 
vn 0 -0.939693 0.34202 
vn 0 -0.939693 0.34202 
vn 0 -0.939693 0.34202 
vn 0 -0.939693 0.34202 
vn 0 -0.939693 0.34202 
vn 0 -0.939693 0.34202 
vn 0 -0.939693 0.34202 
vn 0 -0.939693 0.34202 
vn 0 -0.939693 0.34202 
vn 0 -0.939693 0.34202 
vn 0 -0.939693 0.34202 
vn 0 -0.939693 0.34202 
vn 0 -0.939693 0.34202 
vn 0 -0.939693 0.34202 
vn 0 -0.939693 0.34202 
vn 0 -0.939693 0.34202 
vn 0 -0.939693 0.34202 
vn 0 -0.939693 0.34202 
vn 0 -0.939693 0.34202 
vn 0 -0.939693 0.34202 
f 665//665 666//666 667//667 
f 666//666 668//668 669//669 
f 668//668 670//670 671//671 
f 672//672 673//673 674//674 
f 672//672 675//675 676//676 
f 677//677 678//678 679//679 
f 678//678 680//680 681//681 
f 682//682 683//683 684//684 
f 685//685 686//686 683//683 
f 687//687 688//688 686//686 
f 669//669 667//667 666//666 
f 670//670 689//689 671//671 
f 690//690 691//691 692//692 
f 693//693 694//694 691//691 
f 676//676 673//673 672//672 
f 672//672 695//695 696//696 
f 695//695 697//697 698//698 
f 677//677 699//699 700//700 
f 681//681 679//679 678//678 
f 680//680 701//701 702//702 
f 701//701 703//703 704//704 
f 684//684 703//703 682//682 
f 686//686 685//685 687//687 
f 687//687 665//665 705//705 
f 671//671 669//669 668//668 
f 706//706 707//707 689//689 
f 708//708 692//692 707//707 
f 691//691 690//690 693//693 
f 693//693 709//709 710//710 
f 711//711 712//712 713//713 
f 712//712 714//714 715//715 
f 674//674 716//716 672//672 
f 698//698 696//696 695//695 
f 695//695 717//717 718//718 
f 695//695 719//719 720//720 
f 695//695 721//721 722//722 
f 723//723 724//724 725//725 
f 679//679 699//699 677//677 
f 704//704 702//702 701//701 
f 683//683 682//682 685//685 
f 667//667 705//705 665//665 
f 707//707 706//706 708//708 
f 710//710 694//694 693//693 
f 709//709 711//711 726//726 
f 715//715 713//713 712//712 
f 672//672 727//727 728//728 
f 716//716 729//729 672//672 
f 718//718 697//697 695//695 
f 720//720 730//730 695//695 
f 695//695 731//731 721//721 
f 725//725 695//695 723//723 
f 732//732 733//733 734//734 
f 735//735 700//700 733//733 
f 702//702 681//681 680//680 
f 705//705 688//688 687//687 
f 692//692 708//708 690//690 
f 713//713 726//726 711//711 
f 736//736 737//737 738//738 
f 728//728 739//739 672//672 
f 696//696 675//675 672//672 
f 695//695 740//740 719//719 
f 725//725 731//731 695//695 
f 741//741 742//742 723//723 
f 741//741 743//743 744//744 
f 745//745 734//734 746//746 
f 733//733 732//732 735//735 
f 684//684 704//704 703//703 
f 726//726 710//710 709//709 
f 738//738 747//747 748//748 
f 738//738 672//672 749//749 
f 672//672 750//750 751//751 
f 729//729 727//727 672//672 
f 722//722 740//740 695//695 
f 744//744 752//752 741//741 
f 753//753 746//746 752//752 
f 734//734 745//745 732//732 
f 689//689 670//670 706//706 
f 714//714 754//754 755//755 
f 749//749 747//747 738//738 
f 751//751 756//756 672//672 
f 730//730 717//717 695//695 
f 723//723 743//743 741//741 
f 746//746 753//753 745//745 
f 755//755 715//715 714//714 
f 756//756 749//749 672//672 
f 742//742 724//724 723//723 
f 700//700 735//735 677//677 
f 736//736 755//755 754//754 
f 739//739 750//750 672//672 
f 754//754 737//737 736//736 
f 752//752 744//744 753//753 
f 738//738 748//748 736//736 
o mesh4705
v 0.192316 0.251858 0.142492 
v 0.192089 0.251854 0.14248 
v 0.192089 0.246818 0.144313 
v 0.19254 0.251871 0.142526 
v 0.192316 0.246822 0.144325 
v 0.192758 0.251891 0.142583 
v 0.19254 0.246834 0.144359 
v 0.192969 0.25192 0.142662 
v 0.192758 0.246855 0.144416 
v 0.19317 0.251956 0.142762 
v 0.192969 0.246884 0.144495 
v 0.193357 0.252 0.142882 
v 0.19317 0.24692 0.144595 
v 0.19353 0.25205 0.14302 
v 0.193357 0.246964 0.144715 
v 0.193686 0.252106 0.143175 
v 0.19353 0.247014 0.144853 
v 0.193824 0.252168 0.143344 
v 0.193686 0.24707 0.145008 
v 0.193941 0.252235 0.143527 
v 0.193824 0.247132 0.145177 
v 0.194036 0.252305 0.14372 
v 0.193941 0.247199 0.14536 
v 0.194108 0.252379 0.143923 
v 0.194036 0.247269 0.145553 
v 0.194157 0.252455 0.144131 
v 0.194108 0.247343 0.145756 
v 0.194182 0.252532 0.144343 
v 0.194157 0.247418 0.145964 
v 0.194182 0.252609 0.144556 
v 0.194182 0.247495 0.146176 
v 0.194157 0.252686 0.144768 
v 0.194182 0.247573 0.146389 
v 0.194108 0.252762 0.144976 
v 0.194157 0.24765 0.146601 
v 0.194036 0.252836 0.145178 
v 0.194108 0.247726 0.146809 
v 0.193941 0.252906 0.145372 
v 0.194036 0.2478 0.147011 
v 0.193824 0.252973 0.145554 
v 0.193941 0.24787 0.147205 
v 0.193686 0.253034 0.145724 
v 0.193824 0.247936 0.147387 
v 0.19353 0.253091 0.145879 
v 0.193686 0.247998 0.147557 
v 0.193357 0.253141 0.146017 
v 0.19353 0.248055 0.147712 
v 0.19317 0.253185 0.146137 
v 0.193357 0.248105 0.14785 
v 0.192969 0.253221 0.146236 
v 0.19317 0.248148 0.14797 
v 0.192758 0.25325 0.146315 
v 0.192969 0.248185 0.148069 
v 0.19254 0.25327 0.146372 
v 0.192758 0.248213 0.148148 
v 0.192316 0.253283 0.146407 
v 0.19254 0.248234 0.148205 
v 0.192089 0.253287 0.146418 
v 0.192316 0.248247 0.14824 
v 0.192089 0.248251 0.148251 
vn -0.108119 0.340015 0.934184 
vn -4.5408e-16 0.34202 0.939693 
vn -4.5408e-16 0.34202 0.939693 
vn -0.21497 0.334024 0.917723 
vn -0.108119 0.340015 0.934184 
vn -0.319302 0.324116 0.890503 
vn -0.21497 0.334024 0.917723 
vn -0.419889 0.310409 0.852842 
vn -0.319302 0.324116 0.890503 
vn -0.515554 0.293062 0.805182 
vn -0.419889 0.310409 0.852842 
vn -0.605174 0.27228 0.748083 
vn -0.515554 0.293062 0.805182 
vn -0.687699 0.248305 0.682213 
vn -0.605174 0.27228 0.748083 
vn -0.762162 0.221419 0.608344 
vn -0.687699 0.248305 0.682213 
vn -0.827689 0.191937 0.527343 
vn -0.762162 0.221419 0.608344 
vn -0.883512 0.160205 0.44016 
vn -0.827689 0.191937 0.527343 
vn -0.928977 0.126595 0.347816 
vn -0.883512 0.160205 0.44016 
vn -0.96355 0.0915001 0.251394 
vn -0.928977 0.126595 0.347816 
vn -0.986827 0.0553327 0.152025 
vn -0.96355 0.0915001 0.251394 
vn -0.998533 0.0185166 0.0508739 
vn -0.986827 0.0553327 0.152025 
vn -0.998533 -0.0185166 -0.0508739 
vn -0.998533 0.0185166 0.0508739 
vn -0.986827 -0.0553327 -0.152025 
vn -0.998533 -0.0185166 -0.0508739 
vn -0.96355 -0.0915001 -0.251394 
vn -0.986827 -0.0553327 -0.152025 
vn -0.928977 -0.126595 -0.347816 
vn -0.96355 -0.0915001 -0.251394 
vn -0.883512 -0.160205 -0.44016 
vn -0.928977 -0.126595 -0.347816 
vn -0.827689 -0.191937 -0.527343 
vn -0.883512 -0.160205 -0.44016 
vn -0.762162 -0.221419 -0.608344 
vn -0.827689 -0.191937 -0.527343 
vn -0.687699 -0.248305 -0.682213 
vn -0.762162 -0.221419 -0.608344 
vn -0.605174 -0.27228 -0.748083 
vn -0.687699 -0.248305 -0.682213 
vn -0.515554 -0.293062 -0.805182 
vn -0.605174 -0.27228 -0.748083 
vn -0.419889 -0.310409 -0.852842 
vn -0.515554 -0.293062 -0.805182 
vn -0.319302 -0.324116 -0.890503 
vn -0.419889 -0.310409 -0.852842 
vn -0.21497 -0.334024 -0.917723 
vn -0.319302 -0.324116 -0.890503 
vn -0.108119 -0.340015 -0.934184 
vn -0.21497 -0.334024 -0.917723 
vn 3.31615e-16 -0.34202 -0.939693 
vn -0.108119 -0.340015 -0.934184 
vn 3.31615e-16 -0.34202 -0.939693 
f 757//757 758//758 759//759 
f 760//760 757//757 761//761 
f 762//762 760//760 763//763 
f 764//764 762//762 765//765 
f 766//766 764//764 767//767 
f 768//768 766//766 769//769 
f 770//770 768//768 771//771 
f 772//772 770//770 773//773 
f 774//774 772//772 775//775 
f 776//776 774//774 777//777 
f 778//778 776//776 779//779 
f 780//780 778//778 781//781 
f 782//782 780//780 783//783 
f 784//784 782//782 785//785 
f 786//786 784//784 787//787 
f 788//788 786//786 789//789 
f 790//790 788//788 791//791 
f 792//792 790//790 793//793 
f 794//794 792//792 795//795 
f 796//796 794//794 797//797 
f 798//798 796//796 799//799 
f 800//800 798//798 801//801 
f 802//802 800//800 803//803 
f 804//804 802//802 805//805 
f 806//806 804//804 807//807 
f 808//808 806//806 809//809 
f 810//810 808//808 811//811 
f 812//812 810//810 813//813 
f 814//814 812//812 815//815 
f 815//815 816//816 814//814 
f 813//813 815//815 812//812 
f 811//811 813//813 810//810 
f 809//809 811//811 808//808 
f 807//807 809//809 806//806 
f 805//805 807//807 804//804 
f 803//803 805//805 802//802 
f 801//801 803//803 800//800 
f 799//799 801//801 798//798 
f 797//797 799//799 796//796 
f 795//795 797//797 794//794 
f 793//793 795//795 792//792 
f 791//791 793//793 790//790 
f 789//789 791//791 788//788 
f 787//787 789//789 786//786 
f 785//785 787//787 784//784 
f 783//783 785//785 782//782 
f 781//781 783//783 780//780 
f 779//779 781//781 778//778 
f 777//777 779//779 776//776 
f 775//775 777//777 774//774 
f 773//773 775//775 772//772 
f 771//771 773//773 770//770 
f 769//769 771//771 768//768 
f 767//767 769//769 766//766 
f 765//765 767//767 764//764 
f 763//763 765//765 762//762 
f 761//761 763//763 760//760 
f 759//759 761//761 757//757 
o mesh4706
v 0.192089 0.246818 0.144313 
v 0.192089 0.251854 0.14248 
v 0.189321 0.251854 0.14248 
v 0.189321 0.246818 0.144313 
vn -5.06992e-14 0.34202 0.939693 
vn -5.06992e-14 0.34202 0.939693 
vn -5.06992e-14 0.34202 0.939693 
vn -5.06992e-14 0.34202 0.939693 
f 817//817 818//818 819//819 
f 819//819 820//820 817//817 
o mesh4707
v 0.189094 0.253283 0.146407 
v 0.189321 0.253287 0.146418 
v 0.189321 0.248251 0.148251 
v 0.18887 0.25327 0.146372 
v 0.189094 0.248247 0.14824 
v 0.188652 0.25325 0.146315 
v 0.18887 0.248234 0.148205 
v 0.188441 0.253221 0.146236 
v 0.188652 0.248213 0.148148 
v 0.18824 0.253185 0.146137 
v 0.188441 0.248185 0.148069 
v 0.188053 0.253141 0.146017 
v 0.18824 0.248148 0.14797 
v 0.18788 0.253091 0.145879 
v 0.188053 0.248105 0.14785 
v 0.187724 0.253034 0.145724 
v 0.18788 0.248055 0.147712 
v 0.187586 0.252973 0.145554 
v 0.187724 0.247998 0.147557 
v 0.187469 0.252906 0.145372 
v 0.187586 0.247936 0.147387 
v 0.187374 0.252836 0.145178 
v 0.187469 0.24787 0.147205 
v 0.187302 0.252762 0.144976 
v 0.187374 0.2478 0.147011 
v 0.187253 0.252686 0.144768 
v 0.187302 0.247726 0.146809 
v 0.187228 0.252609 0.144556 
v 0.187253 0.24765 0.146601 
v 0.187228 0.252532 0.144343 
v 0.187228 0.247573 0.146389 
v 0.187253 0.252455 0.144131 
v 0.187228 0.247495 0.146176 
v 0.187302 0.252379 0.143923 
v 0.187253 0.247418 0.145964 
v 0.187374 0.252305 0.14372 
v 0.187302 0.247343 0.145756 
v 0.187469 0.252235 0.143527 
v 0.187374 0.247269 0.145553 
v 0.187586 0.252168 0.143344 
v 0.187469 0.247199 0.14536 
v 0.187724 0.252106 0.143175 
v 0.187586 0.247132 0.145177 
v 0.18788 0.25205 0.14302 
v 0.187724 0.24707 0.145008 
v 0.188053 0.252 0.142882 
v 0.18788 0.247014 0.144853 
v 0.18824 0.251956 0.142762 
v 0.188053 0.246964 0.144715 
v 0.188441 0.25192 0.142662 
v 0.18824 0.24692 0.144595 
v 0.188652 0.251891 0.142583 
v 0.188441 0.246884 0.144495 
v 0.18887 0.251871 0.142526 
v 0.188652 0.246855 0.144416 
v 0.189094 0.251858 0.142492 
v 0.18887 0.246834 0.144359 
v 0.189321 0.251854 0.14248 
v 0.189094 0.246822 0.144325 
v 0.189321 0.246818 0.144313 
vn 0.108119 -0.340015 -0.934184 
vn -2.08187e-16 -0.34202 -0.939693 
vn -2.08187e-16 -0.34202 -0.939693 
vn 0.21497 -0.334024 -0.917723 
vn 0.108119 -0.340015 -0.934184 
vn 0.319302 -0.324116 -0.890503 
vn 0.21497 -0.334024 -0.917723 
vn 0.419889 -0.310409 -0.852842 
vn 0.319302 -0.324116 -0.890503 
vn 0.515554 -0.293062 -0.805182 
vn 0.419889 -0.310409 -0.852842 
vn 0.605174 -0.27228 -0.748083 
vn 0.515554 -0.293062 -0.805182 
vn 0.687699 -0.248305 -0.682213 
vn 0.605174 -0.27228 -0.748083 
vn 0.762162 -0.221419 -0.608344 
vn 0.687699 -0.248305 -0.682213 
vn 0.827689 -0.191937 -0.527343 
vn 0.762162 -0.221419 -0.608344 
vn 0.883512 -0.160205 -0.44016 
vn 0.827689 -0.191937 -0.527343 
vn 0.928977 -0.126595 -0.347816 
vn 0.883512 -0.160205 -0.44016 
vn 0.96355 -0.0915001 -0.251394 
vn 0.928977 -0.126595 -0.347816 
vn 0.986827 -0.0553327 -0.152025 
vn 0.96355 -0.0915001 -0.251394 
vn 0.998533 -0.0185166 -0.0508739 
vn 0.986827 -0.0553327 -0.152025 
vn 0.998533 0.0185166 0.0508739 
vn 0.998533 -0.0185166 -0.0508739 
vn 0.986827 0.0553327 0.152025 
vn 0.998533 0.0185166 0.0508739 
vn 0.96355 0.0915001 0.251394 
vn 0.986827 0.0553327 0.152025 
vn 0.928977 0.126595 0.347816 
vn 0.96355 0.0915001 0.251394 
vn 0.883512 0.160205 0.44016 
vn 0.928977 0.126595 0.347816 
vn 0.827689 0.191937 0.527343 
vn 0.883512 0.160205 0.44016 
vn 0.762162 0.221419 0.608344 
vn 0.827689 0.191937 0.527343 
vn 0.687699 0.248305 0.682213 
vn 0.762162 0.221419 0.608344 
vn 0.605174 0.27228 0.748083 
vn 0.687699 0.248305 0.682213 
vn 0.515554 0.293062 0.805182 
vn 0.605174 0.27228 0.748083 
vn 0.419889 0.310409 0.852842 
vn 0.515554 0.293062 0.805182 
vn 0.319302 0.324116 0.890503 
vn 0.419889 0.310409 0.852842 
vn 0.21497 0.334024 0.917723 
vn 0.319302 0.324116 0.890503 
vn 0.108119 0.340015 0.934184 
vn 0.21497 0.334024 0.917723 
vn -5.57527e-16 0.34202 0.939693 
vn 0.108119 0.340015 0.934184 
vn -5.57527e-16 0.34202 0.939693 
f 821//821 822//822 823//823 
f 824//824 821//821 825//825 
f 826//826 824//824 827//827 
f 828//828 826//826 829//829 
f 830//830 828//828 831//831 
f 832//832 830//830 833//833 
f 834//834 832//832 835//835 
f 836//836 834//834 837//837 
f 838//838 836//836 839//839 
f 840//840 838//838 841//841 
f 842//842 840//840 843//843 
f 844//844 842//842 845//845 
f 846//846 844//844 847//847 
f 848//848 846//846 849//849 
f 850//850 848//848 851//851 
f 852//852 850//850 853//853 
f 854//854 852//852 855//855 
f 856//856 854//854 857//857 
f 858//858 856//856 859//859 
f 860//860 858//858 861//861 
f 862//862 860//860 863//863 
f 864//864 862//862 865//865 
f 866//866 864//864 867//867 
f 868//868 866//866 869//869 
f 870//870 868//868 871//871 
f 872//872 870//870 873//873 
f 874//874 872//872 875//875 
f 876//876 874//874 877//877 
f 878//878 876//876 879//879 
f 879//879 880//880 878//878 
f 877//877 879//879 876//876 
f 875//875 877//877 874//874 
f 873//873 875//875 872//872 
f 871//871 873//873 870//870 
f 869//869 871//871 868//868 
f 867//867 869//869 866//866 
f 865//865 867//867 864//864 
f 863//863 865//865 862//862 
f 861//861 863//863 860//860 
f 859//859 861//861 858//858 
f 857//857 859//859 856//856 
f 855//855 857//857 854//854 
f 853//853 855//855 852//852 
f 851//851 853//853 850//850 
f 849//849 851//851 848//848 
f 847//847 849//849 846//846 
f 845//845 847//847 844//844 
f 843//843 845//845 842//842 
f 841//841 843//843 840//840 
f 839//839 841//841 838//838 
f 837//837 839//839 836//836 
f 835//835 837//837 834//834 
f 833//833 835//835 832//832 
f 831//831 833//833 830//830 
f 829//829 831//831 828//828 
f 827//827 829//829 826//826 
f 825//825 827//827 824//824 
f 823//823 825//825 821//821 
o mesh4708
v 0.192089 0.253287 0.146418 
v 0.192089 0.248251 0.148251 
v 0.189321 0.248251 0.148251 
v 0.189321 0.253287 0.146418 
vn 5.11003e-14 -0.34202 -0.939693 
vn 5.11003e-14 -0.34202 -0.939693 
vn 5.11003e-14 -0.34202 -0.939693 
vn 5.11003e-14 -0.34202 -0.939693 
f 881//881 882//882 883//883 
f 883//883 884//884 881//881 
