# OBJ generated by ONSHAPE BY PTC INC, 1.215 Units = meters
mtllib EBoxNewAsm_stp_1_Beelink_mini_PC_v4_stp_1_Beelink_mini_PC_v4_62_stp_1_solid1.mtl
g EBoxNewAsm.stp-1/Beelink mini PC v4.stp-1/Beelink mini PC v4-62.stp-1-solid1
usemtl 0.960784_0.960784_0.964706_0.000000_0.000000
o mesh13980
v 0.20715 0.220632 0.191485 
v 0.20715 0.23219 0.187278 
v 0.21915 0.23219 0.187278 
v 0.21915 0.220632 0.191485 
vn 5.09196e-14 -0.34202 -0.939693 
vn 5.09196e-14 -0.34202 -0.939693 
vn 5.09196e-14 -0.34202 -0.939693 
vn 5.09196e-14 -0.34202 -0.939693 
f 1//1 2//2 3//3 
f 3//3 4//4 1//1 
o mesh13981
v 0.20715 0.2339 0.191977 
v 0.21915 0.2339 0.191977 
v 0.21915 0.23219 0.187278 
v 0.20715 0.23219 0.187278 
vn 0 0.939693 -0.34202 
vn 0 0.939693 -0.34202 
vn 0 0.939693 -0.34202 
vn 0 0.939693 -0.34202 
f 5//5 6//6 7//7 
f 7//7 8//8 5//5 
o mesh13982
v 0.21915 0.2339 0.191977 
v 0.20715 0.2339 0.191977 
v 0.20715 0.222342 0.196184 
v 0.21915 0.222342 0.196184 
vn -5.09196e-14 0.34202 0.939693 
vn -5.09196e-14 0.34202 0.939693 
vn -5.09196e-14 0.34202 0.939693 
vn -5.09196e-14 0.34202 0.939693 
f 9//9 10//10 11//11 
f 11//11 12//12 9//9 
o mesh13983
v 0.21915 0.220632 0.191485 
v 0.21915 0.222342 0.196184 
v 0.20715 0.222342 0.196184 
v 0.20715 0.220632 0.191485 
vn 0 -0.939693 0.34202 
vn 0 -0.939693 0.34202 
vn 0 -0.939693 0.34202 
vn 0 -0.939693 0.34202 
f 13//13 14//14 15//15 
f 15//15 16//16 13//13 
o mesh13984
v 0.21915 0.23219 0.187278 
v 0.21915 0.2339 0.191977 
v 0.21915 0.233772 0.191917 
v 0.21915 0.222342 0.196184 
v 0.21915 0.222401 0.196056 
v 0.21915 0.220632 0.191485 
v 0.21915 0.22076 0.191545 
v 0.21915 0.23213 0.187407 
vn 1 1.74155e-14 4.78488e-14 
vn 1 1.74155e-14 4.78488e-14 
vn 1 1.74155e-14 4.78488e-14 
vn 1 1.74155e-14 4.78488e-14 
vn 1 1.74155e-14 4.78488e-14 
vn 1 1.74155e-14 4.78488e-14 
vn 1 1.74155e-14 4.78488e-14 
vn 1 1.74155e-14 4.78488e-14 
f 17//17 18//18 19//19 
f 20//20 21//21 19//19 
f 22//22 23//23 21//21 
f 17//17 24//24 23//23 
f 19//19 18//18 20//20 
f 23//23 22//22 17//17 
f 21//21 20//20 22//22 
f 19//19 24//24 17//17 
o mesh13985
v 0.20715 0.2339 0.191977 
v 0.20715 0.233772 0.191917 
v 0.20715 0.222401 0.196056 
v 0.20715 0.23219 0.187278 
v 0.20715 0.23213 0.187407 
v 0.20715 0.220632 0.191485 
v 0.20715 0.22076 0.191545 
v 0.20715 0.222342 0.196184 
vn -1 -1.74155e-14 -4.78488e-14 
vn -1 -1.74155e-14 -4.78488e-14 
vn -1 -1.74155e-14 -4.78488e-14 
vn -1 -1.74155e-14 -4.78488e-14 
vn -1 -1.74155e-14 -4.78488e-14 
vn -1 -1.74155e-14 -4.78488e-14 
vn -1 -1.74155e-14 -4.78488e-14 
vn -1 -1.74155e-14 -4.78488e-14 
f 25//25 26//26 27//27 
f 28//28 29//29 26//26 
f 30//30 31//31 29//29 
f 32//32 27//27 31//31 
f 26//26 25//25 28//28 
f 31//31 30//30 32//32 
f 29//29 28//28 30//30 
f 27//27 32//32 25//25 
o mesh13986
v 0.20715 0.233772 0.191917 
v 0.20715 0.23213 0.187407 
v 0.21915 0.23213 0.187407 
v 0.21915 0.233772 0.191917 
vn 0 -0.939693 0.34202 
vn 0 -0.939693 0.34202 
vn 0 -0.939693 0.34202 
vn 0 -0.939693 0.34202 
f 33//33 34//34 35//35 
f 35//35 36//36 33//33 
o mesh13987
v 0.20715 0.23213 0.187407 
v 0.20715 0.22076 0.191545 
v 0.21915 0.22076 0.191545 
v 0.21915 0.23213 0.187407 
vn -5.09196e-14 0.34202 0.939693 
vn -5.09196e-14 0.34202 0.939693 
vn -5.09196e-14 0.34202 0.939693 
vn -5.09196e-14 0.34202 0.939693 
f 37//37 38//38 39//39 
f 39//39 40//40 37//37 
o mesh13988
v 0.20715 0.222401 0.196056 
v 0.21915 0.222401 0.196056 
v 0.21915 0.22076 0.191545 
v 0.20715 0.22076 0.191545 
vn 0 0.939693 -0.34202 
vn 0 0.939693 -0.34202 
vn 0 0.939693 -0.34202 
vn 0 0.939693 -0.34202 
f 41//41 42//42 43//43 
f 43//43 44//44 41//41 
o mesh13989
v 0.20715 0.233772 0.191917 
v 0.21915 0.233772 0.191917 
v 0.21915 0.222401 0.196056 
v 0.20715 0.222401 0.196056 
vn 5.09196e-14 -0.34202 -0.939693 
vn 5.09196e-14 -0.34202 -0.939693 
vn 5.09196e-14 -0.34202 -0.939693 
vn 5.09196e-14 -0.34202 -0.939693 
f 45//45 46//46 47//47 
f 47//47 48//48 45//45 
