# OBJ generated by ONSHAPE BY PTC INC, 1.215 Units = meters
mtllib EBoxNewAsm_stp_1_eBoxDamper_stp_3_solid1.mtl
g EBoxNewAsm.stp-1/eBoxDamper.stp-3-solid1
usemtl 0.152941_0.152941_0.152941_0.000000_0.000000
o mesh13385
v 0.377181 0.210934 0.0247183 
v 0.3772 0.211054 0.0250485 
v 0.3772 0.217021 0.0228767 
v 0.377124 0.210815 0.024392 
v 0.377181 0.216901 0.0225465 
v 0.37703 0.210699 0.0240734 
v 0.377124 0.216782 0.0222202 
v 0.3769 0.210588 0.0237662 
v 0.37703 0.216666 0.0219015 
v 0.376735 0.210481 0.023474 
v 0.3769 0.216555 0.0215943 
v 0.376537 0.210382 0.0232003 
v 0.376735 0.216448 0.0213022 
v 0.376309 0.21029 0.0229483 
v 0.376537 0.216349 0.0210285 
v 0.376054 0.210207 0.0227209 
v 0.376309 0.216257 0.0207764 
v 0.375774 0.210134 0.0225207 
v 0.376054 0.216174 0.020549 
v 0.375472 0.210072 0.0223503 
v 0.375774 0.216101 0.0203489 
v 0.375153 0.210022 0.0222114 
v 0.375472 0.216039 0.0201784 
v 0.374819 0.209983 0.0221058 
v 0.375153 0.215989 0.0200396 
v 0.374476 0.209957 0.0220347 
v 0.374819 0.21595 0.019934 
v 0.374126 0.209944 0.021999 
v 0.374476 0.215924 0.0198629 
v 0.373774 0.209944 0.021999 
v 0.374126 0.215911 0.0198272 
v 0.373424 0.209957 0.0220347 
v 0.373774 0.215911 0.0198272 
v 0.373081 0.209983 0.0221058 
v 0.373424 0.215924 0.0198629 
v 0.372747 0.210022 0.0222114 
v 0.373081 0.21595 0.019934 
v 0.372428 0.210072 0.0223503 
v 0.372747 0.215989 0.0200396 
v 0.372126 0.210134 0.0225207 
v 0.372428 0.216039 0.0201784 
v 0.371846 0.210207 0.0227209 
v 0.372126 0.216101 0.0203489 
v 0.371591 0.21029 0.0229483 
v 0.371846 0.216174 0.020549 
v 0.371363 0.210382 0.0232003 
v 0.371591 0.216257 0.0207764 
v 0.371165 0.210481 0.023474 
v 0.371363 0.216349 0.0210285 
v 0.371 0.210588 0.0237662 
v 0.371165 0.216448 0.0213022 
v 0.37087 0.210699 0.0240734 
v 0.371 0.216555 0.0215943 
v 0.370776 0.210815 0.024392 
v 0.37087 0.216666 0.0219015 
v 0.370719 0.210934 0.0247183 
v 0.370776 0.216782 0.0222202 
v 0.3707 0.211054 0.0250485 
v 0.370719 0.216901 0.0225465 
v 0.370719 0.211174 0.0253787 
v 0.3707 0.217021 0.0228767 
v 0.370776 0.211293 0.025705 
v 0.370719 0.217141 0.0232069 
v 0.37087 0.211409 0.0260237 
v 0.370776 0.21726 0.0235332 
v 0.371 0.211521 0.0263308 
v 0.37087 0.217376 0.0238518 
v 0.371165 0.211627 0.026623 
v 0.371 0.217488 0.024159 
v 0.371363 0.211727 0.0268967 
v 0.371165 0.217594 0.0244512 
v 0.371591 0.211819 0.0271487 
v 0.371363 0.217694 0.0247249 
v 0.371846 0.211901 0.0273762 
v 0.371591 0.217786 0.0249769 
v 0.372126 0.211974 0.0275763 
v 0.371846 0.217868 0.0252043 
v 0.372428 0.212036 0.0277468 
v 0.372126 0.217941 0.0254044 
v 0.372747 0.212087 0.0278856 
v 0.372428 0.218003 0.0255749 
v 0.373081 0.212125 0.0279912 
v 0.372747 0.218054 0.0257138 
v 0.373424 0.212151 0.0280623 
v 0.373081 0.218092 0.0258194 
v 0.373774 0.212164 0.028098 
v 0.373424 0.218118 0.0258904 
v 0.374126 0.212164 0.028098 
v 0.373774 0.218131 0.0259262 
v 0.374476 0.212151 0.0280623 
v 0.374126 0.218131 0.0259262 
v 0.374819 0.212125 0.0279912 
v 0.374476 0.218118 0.0258904 
v 0.375153 0.212087 0.0278856 
v 0.374819 0.218092 0.0258194 
v 0.375472 0.212036 0.0277468 
v 0.375153 0.218054 0.0257138 
v 0.375774 0.211974 0.0275763 
v 0.375472 0.218003 0.0255749 
v 0.376054 0.211901 0.0273762 
v 0.375774 0.217941 0.0254044 
v 0.376309 0.211819 0.0271487 
v 0.376054 0.217868 0.0252043 
v 0.376537 0.211727 0.0268967 
v 0.376309 0.217786 0.0249769 
v 0.376735 0.211627 0.026623 
v 0.376537 0.217694 0.0247249 
v 0.3769 0.211521 0.0263308 
v 0.376735 0.217594 0.0244512 
v 0.37703 0.211409 0.0260237 
v 0.3769 0.217488 0.024159 
v 0.377124 0.211293 0.025705 
v 0.37703 0.217376 0.0238518 
v 0.377181 0.211174 0.0253787 
v 0.377124 0.21726 0.0235332 
v 0.377181 0.217141 0.0232069 
vn -0.994138 0.0369789 0.101599 
vn -1 -8.41655e-14 -4.70431e-14 
vn -1 -8.41655e-14 -4.70431e-14 
vn -0.976621 0.0735242 0.202006 
vn -0.994138 0.0369789 0.101599 
vn -0.947653 0.109208 0.300045 
vn -0.976621 0.0735242 0.202006 
vn -0.907575 0.143611 0.394567 
vn -0.947653 0.109208 0.300045 
vn -0.856857 0.17633 0.484462 
vn -0.907575 0.143611 0.394567 
vn -0.796093 0.206982 0.568678 
vn -0.856857 0.17633 0.484462 
vn -0.725995 0.235207 0.646226 
vn -0.796093 0.206982 0.568678 
vn -0.647386 0.260675 0.716198 
vn -0.725995 0.235207 0.646226 
vn -0.561187 0.283086 0.777773 
vn -0.647386 0.260675 0.716198 
vn -0.468408 0.302179 0.83023 
vn -0.561187 0.283086 0.777773 
vn -0.370138 0.317729 0.872953 
vn -0.468408 0.302179 0.83023 
vn -0.267528 0.329554 0.905441 
vn -0.370138 0.317729 0.872953 
vn -0.161782 0.337515 0.927314 
vn -0.267528 0.329554 0.905441 
vn -0.0541389 0.341519 0.938314 
vn -0.161782 0.337515 0.927314 
vn 0.0541389 0.341519 0.938314 
vn -0.0541389 0.341519 0.938314 
vn 0.161782 0.337515 0.927314 
vn 0.0541389 0.341519 0.938314 
vn 0.267528 0.329554 0.905441 
vn 0.161782 0.337515 0.927314 
vn 0.370138 0.317729 0.872953 
vn 0.267528 0.329554 0.905441 
vn 0.468408 0.302179 0.83023 
vn 0.370138 0.317729 0.872953 
vn 0.561187 0.283086 0.777773 
vn 0.468408 0.302179 0.83023 
vn 0.647386 0.260675 0.716198 
vn 0.561187 0.283086 0.777773 
vn 0.725995 0.235207 0.646226 
vn 0.647386 0.260675 0.716198 
vn 0.796093 0.206982 0.568678 
vn 0.725995 0.235207 0.646226 
vn 0.856857 0.17633 0.484462 
vn 0.796093 0.206982 0.568678 
vn 0.907575 0.143611 0.394567 
vn 0.856857 0.17633 0.484462 
vn 0.947653 0.109208 0.300045 
vn 0.907575 0.143611 0.394567 
vn 0.976621 0.0735242 0.202006 
vn 0.947653 0.109208 0.300045 
vn 0.994138 0.0369789 0.101599 
vn 0.976621 0.0735242 0.202006 
vn 1 8.48149e-14 4.88274e-14 
vn 0.994138 0.0369789 0.101599 
vn 0.994138 -0.0369789 -0.101599 
vn 1 8.48149e-14 4.88274e-14 
vn 0.976621 -0.0735242 -0.202006 
vn 0.994138 -0.0369789 -0.101599 
vn 0.947653 -0.109208 -0.300045 
vn 0.976621 -0.0735242 -0.202006 
vn 0.907575 -0.143611 -0.394567 
vn 0.947653 -0.109208 -0.300045 
vn 0.856857 -0.17633 -0.484462 
vn 0.907575 -0.143611 -0.394567 
vn 0.796093 -0.206982 -0.568678 
vn 0.856857 -0.17633 -0.484462 
vn 0.725995 -0.235207 -0.646226 
vn 0.796093 -0.206982 -0.568678 
vn 0.647386 -0.260675 -0.716198 
vn 0.725995 -0.235207 -0.646226 
vn 0.561187 -0.283086 -0.777773 
vn 0.647386 -0.260675 -0.716198 
vn 0.468408 -0.302179 -0.83023 
vn 0.561187 -0.283086 -0.777773 
vn 0.370138 -0.317729 -0.872953 
vn 0.468408 -0.302179 -0.83023 
vn 0.267528 -0.329554 -0.905441 
vn 0.370138 -0.317729 -0.872953 
vn 0.161782 -0.337515 -0.927314 
vn 0.267528 -0.329554 -0.905441 
vn 0.0541389 -0.341519 -0.938314 
vn 0.161782 -0.337515 -0.927314 
vn -0.0541389 -0.341519 -0.938314 
vn 0.0541389 -0.341519 -0.938314 
vn -0.161782 -0.337515 -0.927314 
vn -0.0541389 -0.341519 -0.938314 
vn -0.267528 -0.329554 -0.905441 
vn -0.161782 -0.337515 -0.927314 
vn -0.370138 -0.317729 -0.872953 
vn -0.267528 -0.329554 -0.905441 
vn -0.468408 -0.302179 -0.83023 
vn -0.370138 -0.317729 -0.872953 
vn -0.561187 -0.283086 -0.777773 
vn -0.468408 -0.302179 -0.83023 
vn -0.647386 -0.260675 -0.716198 
vn -0.561187 -0.283086 -0.777773 
vn -0.725995 -0.235207 -0.646226 
vn -0.647386 -0.260675 -0.716198 
vn -0.796093 -0.206982 -0.568678 
vn -0.725995 -0.235207 -0.646226 
vn -0.856857 -0.17633 -0.484462 
vn -0.796093 -0.206982 -0.568678 
vn -0.907575 -0.143611 -0.394567 
vn -0.856857 -0.17633 -0.484462 
vn -0.947653 -0.109208 -0.300045 
vn -0.907575 -0.143611 -0.394567 
vn -0.976621 -0.0735242 -0.202006 
vn -0.947653 -0.109208 -0.300045 
vn -0.994138 -0.0369789 -0.101599 
vn -0.976621 -0.0735242 -0.202006 
vn -0.994138 -0.0369789 -0.101599 
f 1//1 2//2 3//3 
f 4//4 1//1 5//5 
f 6//6 4//4 7//7 
f 8//8 6//6 9//9 
f 10//10 8//8 11//11 
f 12//12 10//10 13//13 
f 14//14 12//12 15//15 
f 16//16 14//14 17//17 
f 18//18 16//16 19//19 
f 20//20 18//18 21//21 
f 22//22 20//20 23//23 
f 24//24 22//22 25//25 
f 26//26 24//24 27//27 
f 28//28 26//26 29//29 
f 30//30 28//28 31//31 
f 32//32 30//30 33//33 
f 34//34 32//32 35//35 
f 36//36 34//34 37//37 
f 38//38 36//36 39//39 
f 40//40 38//38 41//41 
f 42//42 40//40 43//43 
f 44//44 42//42 45//45 
f 46//46 44//44 47//47 
f 48//48 46//46 49//49 
f 50//50 48//48 51//51 
f 52//52 50//50 53//53 
f 54//54 52//52 55//55 
f 56//56 54//54 57//57 
f 58//58 56//56 59//59 
f 60//60 58//58 61//61 
f 62//62 60//60 63//63 
f 64//64 62//62 65//65 
f 66//66 64//64 67//67 
f 68//68 66//66 69//69 
f 70//70 68//68 71//71 
f 72//72 70//70 73//73 
f 74//74 72//72 75//75 
f 76//76 74//74 77//77 
f 78//78 76//76 79//79 
f 80//80 78//78 81//81 
f 82//82 80//80 83//83 
f 84//84 82//82 85//85 
f 86//86 84//84 87//87 
f 88//88 86//86 89//89 
f 90//90 88//88 91//91 
f 92//92 90//90 93//93 
f 94//94 92//92 95//95 
f 96//96 94//94 97//97 
f 98//98 96//96 99//99 
f 100//100 98//98 101//101 
f 102//102 100//100 103//103 
f 104//104 102//102 105//105 
f 106//106 104//104 107//107 
f 108//108 106//106 109//109 
f 110//110 108//108 111//111 
f 112//112 110//110 113//113 
f 114//114 112//112 115//115 
f 2//2 114//114 116//116 
f 116//116 3//3 2//2 
f 115//115 116//116 114//114 
f 113//113 115//115 112//112 
f 111//111 113//113 110//110 
f 109//109 111//111 108//108 
f 107//107 109//109 106//106 
f 105//105 107//107 104//104 
f 103//103 105//105 102//102 
f 101//101 103//103 100//100 
f 99//99 101//101 98//98 
f 97//97 99//99 96//96 
f 95//95 97//97 94//94 
f 93//93 95//95 92//92 
f 91//91 93//93 90//90 
f 89//89 91//91 88//88 
f 87//87 89//89 86//86 
f 85//85 87//87 84//84 
f 83//83 85//85 82//82 
f 81//81 83//83 80//80 
f 79//79 81//81 78//78 
f 77//77 79//79 76//76 
f 75//75 77//77 74//74 
f 73//73 75//75 72//72 
f 71//71 73//73 70//70 
f 69//69 71//71 68//68 
f 67//67 69//69 66//66 
f 65//65 67//67 64//64 
f 63//63 65//65 62//62 
f 61//61 63//63 60//60 
f 59//59 61//61 58//58 
f 57//57 59//59 56//56 
f 55//55 57//57 54//54 
f 53//53 55//55 52//52 
f 51//51 53//53 50//50 
f 49//49 51//51 48//48 
f 47//47 49//49 46//46 
f 45//45 47//47 44//44 
f 43//43 45//45 42//42 
f 41//41 43//43 40//40 
f 39//39 41//41 38//38 
f 37//37 39//39 36//36 
f 35//35 37//37 34//34 
f 33//33 35//35 32//32 
f 31//31 33//33 30//30 
f 29//29 31//31 28//28 
f 27//27 29//29 26//26 
f 25//25 27//27 24//24 
f 23//23 25//25 22//22 
f 21//21 23//23 20//20 
f 19//19 21//21 18//18 
f 17//17 19//19 16//16 
f 15//15 17//17 14//14 
f 13//13 15//15 12//12 
f 11//11 13//13 10//10 
f 9//9 11//11 8//8 
f 7//7 9//9 6//6 
f 5//5 7//7 4//4 
f 3//3 5//5 1//1 
o mesh13386
v 0.374126 0.183382 -0.0695466 
v 0.375153 0.215989 0.0200396 
v 0.375472 0.216039 0.0201784 
v 0.373424 0.215924 0.0198629 
v 0.371591 0.183036 -0.0704959 
v 0.371363 0.182945 -0.0707479 
v 0.372428 0.183254 -0.0698978 
v 0.372126 0.183192 -0.0700683 
v 0.373081 0.183343 -0.0696534 
v 0.372747 0.183305 -0.069759 
v 0.376537 0.216349 0.0210285 
v 0.376735 0.216448 0.0213022 
v 0.375774 0.216101 0.0203489 
v 0.374476 0.215924 0.0198629 
v 0.374819 0.21595 0.019934 
v 0.36435 0.177928 -0.0845302 
v 0.374476 0.181175 -0.0756099 
v 0.374819 0.181201 -0.0755388 
v 0.371165 0.182845 -0.0710216 
v 0.376309 0.216257 0.0207764 
v 0.373774 0.183382 -0.0695466 
v 0.373774 0.215911 0.0198272 
v 0.37087 0.182627 -0.0716209 
v 0.371591 0.216257 0.0207764 
v 0.371846 0.216174 0.020549 
v 0.41515 0.177928 -0.0845302 
v 0.375472 0.18129 -0.0752943 
v 0.375774 0.181352 -0.0751239 
v 0.375153 0.181239 -0.0754332 
v 0.374126 0.181162 -0.0756456 
v 0.373424 0.181175 -0.0756099 
v 0.373774 0.181162 -0.0756456 
v 0.371 0.182739 -0.0713137 
v 0.371846 0.183119 -0.0702684 
v 0.3769 0.216555 0.0215943 
v 0.376054 0.216174 0.020549 
v 0.371363 0.216349 0.0210285 
v 0.376735 0.181699 -0.0741706 
v 0.3769 0.181805 -0.0738784 
v 0.373424 0.183369 -0.0695823 
v 0.374126 0.215911 0.0198272 
v 0.372126 0.216101 0.0203489 
v 0.36435 0.221365 0.0348108 
v 0.370776 0.216782 0.0222202 
v 0.41515 0.221365 0.0348108 
v 0.3769 0.182739 -0.0713137 
v 0.376537 0.181599 -0.0744443 
v 0.376054 0.181425 -0.0749237 
v 0.376309 0.181508 -0.0746963 
v 0.372747 0.181239 -0.0754332 
v 0.373081 0.181201 -0.0755388 
v 0.371846 0.181425 -0.0749237 
v 0.372126 0.181352 -0.0751239 
v 0.371363 0.181599 -0.0744443 
v 0.371591 0.181508 -0.0746963 
v 0.372747 0.215989 0.0200396 
v 0.373081 0.21595 0.019934 
v 0.372428 0.216039 0.0201784 
v 0.370719 0.216901 0.0225465 
v 0.375153 0.183305 -0.069759 
v 0.374819 0.183343 -0.0696534 
v 0.3772 0.217021 0.0228767 
v 0.376735 0.182845 -0.0710216 
v 0.371 0.181805 -0.0738784 
v 0.371165 0.181699 -0.0741706 
v 0.37703 0.216666 0.0219015 
v 0.371 0.216555 0.0215943 
v 0.371165 0.216448 0.0213022 
v 0.37087 0.216666 0.0219015 
v 0.375153 0.218054 0.0257138 
v 0.374819 0.218092 0.0258194 
v 0.376309 0.183036 -0.0704959 
v 0.376054 0.183119 -0.0702684 
v 0.376537 0.182945 -0.0707479 
v 0.377181 0.182392 -0.0722659 
v 0.377124 0.182511 -0.0719396 
v 0.372428 0.18129 -0.0752943 
v 0.37087 0.181917 -0.0735712 
v 0.370719 0.182152 -0.0729263 
v 0.370776 0.182033 -0.0732526 
v 0.371165 0.217594 0.0244512 
v 0.371 0.217488 0.024159 
v 0.371591 0.217786 0.0249769 
v 0.371363 0.217694 0.0247249 
v 0.373081 0.218092 0.0258194 
v 0.372747 0.218054 0.0257138 
v 0.377181 0.217141 0.0232069 
v 0.375774 0.183192 -0.0700683 
v 0.375472 0.183254 -0.0698978 
v 0.37703 0.182627 -0.0716209 
v 0.370776 0.182511 -0.0719396 
v 0.377124 0.216782 0.0222202 
v 0.372428 0.218003 0.0255749 
v 0.372126 0.217941 0.0254044 
v 0.373424 0.218118 0.0258904 
v 0.374476 0.218118 0.0258904 
v 0.376054 0.217868 0.0252043 
v 0.375774 0.217941 0.0254044 
v 0.376537 0.217694 0.0247249 
v 0.376309 0.217786 0.0249769 
v 0.377124 0.21726 0.0235332 
v 0.37703 0.181917 -0.0735712 
v 0.377124 0.182033 -0.0732526 
v 0.370776 0.21726 0.0235332 
v 0.370719 0.217141 0.0232069 
v 0.371846 0.217868 0.0252043 
v 0.375472 0.218003 0.0255749 
v 0.3769 0.217488 0.024159 
v 0.376735 0.217594 0.0244512 
v 0.37703 0.217376 0.0238518 
v 0.377181 0.182152 -0.0729263 
v 0.3772 0.182272 -0.0725961 
v 0.370719 0.182392 -0.0722659 
v 0.3707 0.182272 -0.0725961 
v 0.377181 0.216901 0.0225465 
v 0.3707 0.217021 0.0228767 
v 0.374126 0.218131 0.0259262 
v 0.373774 0.218131 0.0259262 
v 0.374476 0.183369 -0.0695823 
v 0.37087 0.217376 0.0238518 
vn -6.3e-14 0.939693 -0.34202 
vn -6.3e-14 0.939693 -0.34202 
vn -6.3e-14 0.939693 -0.34202 
vn -6.3e-14 0.939693 -0.34202 
vn -6.3e-14 0.939693 -0.34202 
vn -6.3e-14 0.939693 -0.34202 
vn -6.3e-14 0.939693 -0.34202 
vn -6.3e-14 0.939693 -0.34202 
vn -6.3e-14 0.939693 -0.34202 
vn -6.3e-14 0.939693 -0.34202 
vn -6.3e-14 0.939693 -0.34202 
vn -6.3e-14 0.939693 -0.34202 
vn -6.3e-14 0.939693 -0.34202 
vn -6.3e-14 0.939693 -0.34202 
vn -6.3e-14 0.939693 -0.34202 
vn -6.3e-14 0.939693 -0.34202 
vn -6.3e-14 0.939693 -0.34202 
vn -6.3e-14 0.939693 -0.34202 
vn -6.3e-14 0.939693 -0.34202 
vn -6.3e-14 0.939693 -0.34202 
vn -6.3e-14 0.939693 -0.34202 
vn -6.3e-14 0.939693 -0.34202 
vn -6.3e-14 0.939693 -0.34202 
vn -6.3e-14 0.939693 -0.34202 
vn -6.3e-14 0.939693 -0.34202 
vn -6.3e-14 0.939693 -0.34202 
vn -6.3e-14 0.939693 -0.34202 
vn -6.3e-14 0.939693 -0.34202 
vn -6.3e-14 0.939693 -0.34202 
vn -6.3e-14 0.939693 -0.34202 
vn -6.3e-14 0.939693 -0.34202 
vn -6.3e-14 0.939693 -0.34202 
vn -6.3e-14 0.939693 -0.34202 
vn -6.3e-14 0.939693 -0.34202 
vn -6.3e-14 0.939693 -0.34202 
vn -6.3e-14 0.939693 -0.34202 
vn -6.3e-14 0.939693 -0.34202 
vn -6.3e-14 0.939693 -0.34202 
vn -6.3e-14 0.939693 -0.34202 
vn -6.3e-14 0.939693 -0.34202 
vn -6.3e-14 0.939693 -0.34202 
vn -6.3e-14 0.939693 -0.34202 
vn -6.3e-14 0.939693 -0.34202 
vn -6.3e-14 0.939693 -0.34202 
vn -6.3e-14 0.939693 -0.34202 
vn -6.3e-14 0.939693 -0.34202 
vn -6.3e-14 0.939693 -0.34202 
vn -6.3e-14 0.939693 -0.34202 
vn -6.3e-14 0.939693 -0.34202 
vn -6.3e-14 0.939693 -0.34202 
vn -6.3e-14 0.939693 -0.34202 
vn -6.3e-14 0.939693 -0.34202 
vn -6.3e-14 0.939693 -0.34202 
vn -6.3e-14 0.939693 -0.34202 
vn -6.3e-14 0.939693 -0.34202 
vn -6.3e-14 0.939693 -0.34202 
vn -6.3e-14 0.939693 -0.34202 
vn -6.3e-14 0.939693 -0.34202 
vn -6.3e-14 0.939693 -0.34202 
vn -6.3e-14 0.939693 -0.34202 
vn -6.3e-14 0.939693 -0.34202 
vn -6.3e-14 0.939693 -0.34202 
vn -6.3e-14 0.939693 -0.34202 
vn -6.3e-14 0.939693 -0.34202 
vn -6.3e-14 0.939693 -0.34202 
vn -6.3e-14 0.939693 -0.34202 
vn -6.3e-14 0.939693 -0.34202 
vn -6.3e-14 0.939693 -0.34202 
vn -6.3e-14 0.939693 -0.34202 
vn -6.3e-14 0.939693 -0.34202 
vn -6.3e-14 0.939693 -0.34202 
vn -6.3e-14 0.939693 -0.34202 
vn -6.3e-14 0.939693 -0.34202 
vn -6.3e-14 0.939693 -0.34202 
vn -6.3e-14 0.939693 -0.34202 
vn -6.3e-14 0.939693 -0.34202 
vn -6.3e-14 0.939693 -0.34202 
vn -6.3e-14 0.939693 -0.34202 
vn -6.3e-14 0.939693 -0.34202 
vn -6.3e-14 0.939693 -0.34202 
vn -6.3e-14 0.939693 -0.34202 
vn -6.3e-14 0.939693 -0.34202 
vn -6.3e-14 0.939693 -0.34202 
vn -6.3e-14 0.939693 -0.34202 
vn -6.3e-14 0.939693 -0.34202 
vn -6.3e-14 0.939693 -0.34202 
vn -6.3e-14 0.939693 -0.34202 
vn -6.3e-14 0.939693 -0.34202 
vn -6.3e-14 0.939693 -0.34202 
vn -6.3e-14 0.939693 -0.34202 
vn -6.3e-14 0.939693 -0.34202 
vn -6.3e-14 0.939693 -0.34202 
vn -6.3e-14 0.939693 -0.34202 
vn -6.3e-14 0.939693 -0.34202 
vn -6.3e-14 0.939693 -0.34202 
vn -6.3e-14 0.939693 -0.34202 
vn -6.3e-14 0.939693 -0.34202 
vn -6.3e-14 0.939693 -0.34202 
vn -6.3e-14 0.939693 -0.34202 
vn -6.3e-14 0.939693 -0.34202 
vn -6.3e-14 0.939693 -0.34202 
vn -6.3e-14 0.939693 -0.34202 
vn -6.3e-14 0.939693 -0.34202 
vn -6.3e-14 0.939693 -0.34202 
vn -6.3e-14 0.939693 -0.34202 
vn -6.3e-14 0.939693 -0.34202 
vn -6.3e-14 0.939693 -0.34202 
vn -6.3e-14 0.939693 -0.34202 
vn -6.3e-14 0.939693 -0.34202 
vn -6.3e-14 0.939693 -0.34202 
vn -6.3e-14 0.939693 -0.34202 
vn -6.3e-14 0.939693 -0.34202 
vn -6.3e-14 0.939693 -0.34202 
vn -6.3e-14 0.939693 -0.34202 
vn -6.3e-14 0.939693 -0.34202 
vn -6.3e-14 0.939693 -0.34202 
vn -6.3e-14 0.939693 -0.34202 
vn -6.3e-14 0.939693 -0.34202 
vn -6.3e-14 0.939693 -0.34202 
vn -6.3e-14 0.939693 -0.34202 
f 117//117 118//118 119//119 
f 120//120 121//121 122//122 
f 120//120 123//123 124//124 
f 120//120 125//125 126//126 
f 117//117 127//127 128//128 
f 119//119 129//129 117//117 
f 117//117 130//130 131//131 
f 132//132 133//133 134//134 
f 122//122 135//135 120//120 
f 126//126 123//123 120//120 
f 117//117 136//136 127//127 
f 131//131 118//118 117//117 
f 137//137 120//120 138//138 
f 139//139 140//140 141//141 
f 142//142 143//143 144//144 
f 142//142 134//134 145//145 
f 132//132 146//146 133//133 
f 132//132 147//147 148//148 
f 135//135 149//149 120//120 
f 124//124 150//150 120//120 
f 128//128 151//151 117//117 
f 129//129 152//152 117//117 
f 138//138 117//117 137//137 
f 139//139 153//153 140//140 
f 142//142 154//154 155//155 
f 145//145 143//143 142//142 
f 148//148 146//146 132//132 
f 150//150 121//121 120//120 
f 120//120 137//137 156//156 
f 152//152 136//136 117//117 
f 138//138 157//157 117//117 
f 141//141 158//158 139//139 
f 139//139 159//159 160//160 
f 161//161 142//142 162//162 
f 142//142 163//163 154//154 
f 142//142 164//164 165//165 
f 134//134 142//142 132//132 
f 132//132 166//166 167//167 
f 132//132 168//168 169//169 
f 132//132 170//170 171//171 
f 156//156 125//125 120//120 
f 157//157 130//130 117//117 
f 139//139 172//172 173//173 
f 158//158 174//174 139//139 
f 159//159 175//175 160//160 
f 176//176 177//177 178//178 
f 162//162 179//179 161//161 
f 165//165 163//163 142//142 
f 167//167 147//147 132//132 
f 171//171 168//168 132//132 
f 132//132 180//180 181//181 
f 151//151 182//182 117//117 
f 174//174 172//172 139//139 
f 139//139 183//183 184//184 
f 160//160 185//185 139//139 
f 161//161 186//186 187//187 
f 178//178 161//161 176//176 
f 161//161 188//188 189//189 
f 179//179 190//190 161//161 
f 142//142 191//191 192//192 
f 144//144 164//164 142//142 
f 169//169 193//193 132//132 
f 132//132 194//194 180//180 
f 132//132 195//195 196//196 
f 173//173 120//120 139//139 
f 185//185 183//183 139//139 
f 159//159 197//197 198//198 
f 159//159 199//199 200//200 
f 159//159 201//201 202//202 
f 187//187 159//159 161//161 
f 178//178 203//203 161//161 
f 161//161 204//204 205//205 
f 190//190 188//188 161//161 
f 192//192 206//206 142//142 
f 193//193 166//166 132//132 
f 196//196 194//194 132//132 
f 159//159 139//139 207//207 
f 117//117 182//182 208//208 
f 184//184 153//153 139//139 
f 200//200 197//197 159//159 
f 159//159 209//209 210//210 
f 159//159 211//211 201//201 
f 187//187 212//212 159//159 
f 161//161 213//213 214//214 
f 161//161 215//215 216//216 
f 161//161 203//203 217//217 
f 205//205 176//176 161//161 
f 206//206 162//162 142//142 
f 142//142 218//218 219//219 
f 181//181 170//170 132//132 
f 207//207 132//132 159//159 
f 149//149 139//139 120//120 
f 159//159 220//220 221//221 
f 159//159 222//222 199//199 
f 202//202 209//209 159//159 
f 161//161 223//223 186//186 
f 216//216 213//213 161//161 
f 161//161 224//224 225//225 
f 217//217 226//226 161//161 
f 189//189 204//204 161//161 
f 142//142 227//227 228//228 
f 155//155 218//218 142//142 
f 132//132 229//229 230//230 
f 208//208 231//231 117//117 
f 221//221 232//232 159//159 
f 210//210 222//222 159//159 
f 159//159 233//233 234//234 
f 214//214 223//223 161//161 
f 226//226 224//224 161//161 
f 177//177 235//235 178//178 
f 219//219 227//227 142//142 
f 207//207 229//229 132//132 
f 159//159 236//236 220//220 
f 234//234 211//211 159//159 
f 225//225 215//215 161//161 
f 228//228 191//191 142//142 
f 230//230 195//195 132//132 
f 198//198 236//236 159//159 
f 235//235 117//117 178//178 
f 232//232 175//175 159//159 
f 231//231 178//178 117//117 
f 212//212 233//233 159//159 
o mesh13387
v 0.374126 0.177415 -0.0673747 
v 0.374126 0.209944 0.021999 
v 0.373774 0.209944 0.021999 
v 0.373774 0.177415 -0.0673747 
v 0.37087 0.210699 0.0240734 
v 0.370776 0.210815 0.024392 
v 0.371363 0.210382 0.0232003 
v 0.371165 0.210481 0.023474 
v 0.375774 0.177225 -0.0678965 
v 0.376054 0.177152 -0.0680966 
v 0.375153 0.177338 -0.0675872 
v 0.375472 0.177287 -0.067726 
v 0.36435 0.215398 0.0369826 
v 0.374476 0.212151 0.0280623 
v 0.374819 0.212125 0.0279912 
v 0.371 0.210588 0.0237662 
v 0.371591 0.21029 0.0229483 
v 0.372126 0.210134 0.0225207 
v 0.371846 0.210207 0.0227209 
v 0.372747 0.210022 0.0222114 
v 0.372428 0.210072 0.0223503 
v 0.374476 0.177402 -0.0674105 
v 0.374819 0.177376 -0.0674816 
v 0.373424 0.209957 0.0220347 
v 0.373081 0.209983 0.0221058 
v 0.41515 0.215398 0.0369826 
v 0.375153 0.212087 0.0278856 
v 0.374126 0.212164 0.028098 
v 0.37703 0.17666 -0.0694491 
v 0.377124 0.176544 -0.0697677 
v 0.376309 0.177069 -0.068324 
v 0.376537 0.176978 -0.0685761 
v 0.374819 0.209983 0.0221058 
v 0.374476 0.209957 0.0220347 
v 0.3772 0.176305 -0.0704243 
v 0.3769 0.176772 -0.0691419 
v 0.376735 0.176878 -0.0688498 
v 0.36435 0.171961 -0.0823584 
v 0.41515 0.171961 -0.0823584 
v 0.374819 0.175234 -0.0733669 
v 0.375472 0.175323 -0.0731225 
v 0.375153 0.175272 -0.0732614 
v 0.375774 0.210134 0.0225207 
v 0.375472 0.210072 0.0223503 
v 0.375774 0.211974 0.0275763 
v 0.376054 0.211901 0.0273762 
v 0.375472 0.212036 0.0277468 
v 0.373081 0.177376 -0.0674816 
v 0.373424 0.177402 -0.0674105 
v 0.370719 0.210934 0.0247183 
v 0.37703 0.17595 -0.0713994 
v 0.3769 0.175838 -0.0717066 
v 0.377181 0.176185 -0.0707545 
v 0.375153 0.210022 0.0222114 
v 0.376309 0.21029 0.0229483 
v 0.376054 0.210207 0.0227209 
v 0.37703 0.211409 0.0260237 
v 0.377124 0.211293 0.025705 
v 0.372126 0.211974 0.0275763 
v 0.372428 0.212036 0.0277468 
v 0.371591 0.211819 0.0271487 
v 0.371846 0.211901 0.0273762 
v 0.37087 0.211409 0.0260237 
v 0.371 0.211521 0.0263308 
v 0.372126 0.177225 -0.0678965 
v 0.372428 0.177287 -0.067726 
v 0.372126 0.175385 -0.072952 
v 0.371846 0.175458 -0.0727519 
v 0.374476 0.175208 -0.073438 
v 0.376054 0.175458 -0.0727519 
v 0.375774 0.175385 -0.072952 
v 0.376537 0.175632 -0.0722725 
v 0.376309 0.175541 -0.0725245 
v 0.376735 0.175732 -0.0719988 
v 0.377124 0.176066 -0.0710808 
v 0.3769 0.211521 0.0263308 
v 0.376537 0.211727 0.0268967 
v 0.376735 0.211627 0.026623 
v 0.376309 0.211819 0.0271487 
v 0.373424 0.212151 0.0280623 
v 0.373774 0.212164 0.028098 
v 0.372747 0.212087 0.0278856 
v 0.373081 0.212125 0.0279912 
v 0.371165 0.211627 0.026623 
v 0.372747 0.177338 -0.0675872 
v 0.371165 0.176878 -0.0688498 
v 0.371363 0.176978 -0.0685761 
v 0.37087 0.17666 -0.0694491 
v 0.371 0.176772 -0.0691419 
v 0.37087 0.17595 -0.0713994 
v 0.370776 0.176066 -0.0710808 
v 0.372428 0.175323 -0.0731225 
v 0.3769 0.210588 0.0237662 
v 0.371363 0.211727 0.0268967 
v 0.3707 0.211054 0.0250485 
v 0.371591 0.177069 -0.068324 
v 0.371846 0.177152 -0.0680966 
v 0.370719 0.176425 -0.0700941 
v 0.370776 0.176544 -0.0697677 
v 0.371 0.175838 -0.0717066 
v 0.371363 0.175632 -0.0722725 
v 0.371165 0.175732 -0.0719988 
v 0.372747 0.175272 -0.0732614 
v 0.376735 0.210481 0.023474 
v 0.376537 0.210382 0.0232003 
v 0.37703 0.210699 0.0240734 
v 0.377181 0.176425 -0.0700941 
v 0.371591 0.175541 -0.0725245 
v 0.373424 0.175208 -0.073438 
v 0.373081 0.175234 -0.0733669 
v 0.374126 0.175195 -0.0734738 
v 0.373774 0.175195 -0.0734738 
v 0.370719 0.211174 0.0253787 
v 0.370776 0.211293 0.025705 
v 0.377181 0.210934 0.0247183 
v 0.377124 0.210815 0.024392 
v 0.370719 0.176185 -0.0707545 
v 0.3707 0.176305 -0.0704243 
v 0.377181 0.211174 0.0253787 
v 0.3772 0.211054 0.0250485 
vn 6.3e-14 -0.939693 0.34202 
vn 6.3e-14 -0.939693 0.34202 
vn 6.3e-14 -0.939693 0.34202 
vn 6.3e-14 -0.939693 0.34202 
vn 6.3e-14 -0.939693 0.34202 
vn 6.3e-14 -0.939693 0.34202 
vn 6.3e-14 -0.939693 0.34202 
vn 6.3e-14 -0.939693 0.34202 
vn 6.3e-14 -0.939693 0.34202 
vn 6.3e-14 -0.939693 0.34202 
vn 6.3e-14 -0.939693 0.34202 
vn 6.3e-14 -0.939693 0.34202 
vn 6.3e-14 -0.939693 0.34202 
vn 6.3e-14 -0.939693 0.34202 
vn 6.3e-14 -0.939693 0.34202 
vn 6.3e-14 -0.939693 0.34202 
vn 6.3e-14 -0.939693 0.34202 
vn 6.3e-14 -0.939693 0.34202 
vn 6.3e-14 -0.939693 0.34202 
vn 6.3e-14 -0.939693 0.34202 
vn 6.3e-14 -0.939693 0.34202 
vn 6.3e-14 -0.939693 0.34202 
vn 6.3e-14 -0.939693 0.34202 
vn 6.3e-14 -0.939693 0.34202 
vn 6.3e-14 -0.939693 0.34202 
vn 6.3e-14 -0.939693 0.34202 
vn 6.3e-14 -0.939693 0.34202 
vn 6.3e-14 -0.939693 0.34202 
vn 6.3e-14 -0.939693 0.34202 
vn 6.3e-14 -0.939693 0.34202 
vn 6.3e-14 -0.939693 0.34202 
vn 6.3e-14 -0.939693 0.34202 
vn 6.3e-14 -0.939693 0.34202 
vn 6.3e-14 -0.939693 0.34202 
vn 6.3e-14 -0.939693 0.34202 
vn 6.3e-14 -0.939693 0.34202 
vn 6.3e-14 -0.939693 0.34202 
vn 6.3e-14 -0.939693 0.34202 
vn 6.3e-14 -0.939693 0.34202 
vn 6.3e-14 -0.939693 0.34202 
vn 6.3e-14 -0.939693 0.34202 
vn 6.3e-14 -0.939693 0.34202 
vn 6.3e-14 -0.939693 0.34202 
vn 6.3e-14 -0.939693 0.34202 
vn 6.3e-14 -0.939693 0.34202 
vn 6.3e-14 -0.939693 0.34202 
vn 6.3e-14 -0.939693 0.34202 
vn 6.3e-14 -0.939693 0.34202 
vn 6.3e-14 -0.939693 0.34202 
vn 6.3e-14 -0.939693 0.34202 
vn 6.3e-14 -0.939693 0.34202 
vn 6.3e-14 -0.939693 0.34202 
vn 6.3e-14 -0.939693 0.34202 
vn 6.3e-14 -0.939693 0.34202 
vn 6.3e-14 -0.939693 0.34202 
vn 6.3e-14 -0.939693 0.34202 
vn 6.3e-14 -0.939693 0.34202 
vn 6.3e-14 -0.939693 0.34202 
vn 6.3e-14 -0.939693 0.34202 
vn 6.3e-14 -0.939693 0.34202 
vn 6.3e-14 -0.939693 0.34202 
vn 6.3e-14 -0.939693 0.34202 
vn 6.3e-14 -0.939693 0.34202 
vn 6.3e-14 -0.939693 0.34202 
vn 6.3e-14 -0.939693 0.34202 
vn 6.3e-14 -0.939693 0.34202 
vn 6.3e-14 -0.939693 0.34202 
vn 6.3e-14 -0.939693 0.34202 
vn 6.3e-14 -0.939693 0.34202 
vn 6.3e-14 -0.939693 0.34202 
vn 6.3e-14 -0.939693 0.34202 
vn 6.3e-14 -0.939693 0.34202 
vn 6.3e-14 -0.939693 0.34202 
vn 6.3e-14 -0.939693 0.34202 
vn 6.3e-14 -0.939693 0.34202 
vn 6.3e-14 -0.939693 0.34202 
vn 6.3e-14 -0.939693 0.34202 
vn 6.3e-14 -0.939693 0.34202 
vn 6.3e-14 -0.939693 0.34202 
vn 6.3e-14 -0.939693 0.34202 
vn 6.3e-14 -0.939693 0.34202 
vn 6.3e-14 -0.939693 0.34202 
vn 6.3e-14 -0.939693 0.34202 
vn 6.3e-14 -0.939693 0.34202 
vn 6.3e-14 -0.939693 0.34202 
vn 6.3e-14 -0.939693 0.34202 
vn 6.3e-14 -0.939693 0.34202 
vn 6.3e-14 -0.939693 0.34202 
vn 6.3e-14 -0.939693 0.34202 
vn 6.3e-14 -0.939693 0.34202 
vn 6.3e-14 -0.939693 0.34202 
vn 6.3e-14 -0.939693 0.34202 
vn 6.3e-14 -0.939693 0.34202 
vn 6.3e-14 -0.939693 0.34202 
vn 6.3e-14 -0.939693 0.34202 
vn 6.3e-14 -0.939693 0.34202 
vn 6.3e-14 -0.939693 0.34202 
vn 6.3e-14 -0.939693 0.34202 
vn 6.3e-14 -0.939693 0.34202 
vn 6.3e-14 -0.939693 0.34202 
vn 6.3e-14 -0.939693 0.34202 
vn 6.3e-14 -0.939693 0.34202 
vn 6.3e-14 -0.939693 0.34202 
vn 6.3e-14 -0.939693 0.34202 
vn 6.3e-14 -0.939693 0.34202 
vn 6.3e-14 -0.939693 0.34202 
vn 6.3e-14 -0.939693 0.34202 
vn 6.3e-14 -0.939693 0.34202 
vn 6.3e-14 -0.939693 0.34202 
vn 6.3e-14 -0.939693 0.34202 
vn 6.3e-14 -0.939693 0.34202 
vn 6.3e-14 -0.939693 0.34202 
vn 6.3e-14 -0.939693 0.34202 
vn 6.3e-14 -0.939693 0.34202 
vn 6.3e-14 -0.939693 0.34202 
vn 6.3e-14 -0.939693 0.34202 
vn 6.3e-14 -0.939693 0.34202 
vn 6.3e-14 -0.939693 0.34202 
vn 6.3e-14 -0.939693 0.34202 
vn 6.3e-14 -0.939693 0.34202 
f 237//237 238//238 239//239 
f 240//240 241//241 242//242 
f 240//240 243//243 244//244 
f 238//238 245//245 246//246 
f 238//238 247//247 248//248 
f 239//239 240//240 237//237 
f 249//249 250//250 251//251 
f 240//240 252//252 241//241 
f 240//240 253//253 243//243 
f 240//240 254//254 255//255 
f 240//240 256//256 257//257 
f 248//248 245//245 238//238 
f 238//238 258//258 259//259 
f 240//240 260//260 261//261 
f 237//237 258//258 238//238 
f 262//262 251//251 263//263 
f 249//249 264//264 250//250 
f 238//238 265//265 266//266 
f 238//238 267//267 268//268 
f 244//244 252//252 240//240 
f 257//257 254//254 240//240 
f 259//259 247//247 238//238 
f 239//239 260//260 240//240 
f 269//269 270//270 271//271 
f 251//251 262//262 249//249 
f 238//238 272//272 265//265 
f 268//268 273//273 238//238 
f 255//255 253//253 240//240 
f 261//261 256//256 240//240 
f 274//274 275//275 276//276 
f 275//275 277//277 278//278 
f 271//271 275//275 269//269 
f 275//275 279//279 280//280 
f 262//262 281//281 282//282 
f 263//263 283//283 262//262 
f 273//273 272//272 238//238 
f 246//246 267//267 238//238 
f 284//284 285//285 286//286 
f 278//278 276//276 275//275 
f 275//275 287//287 288//288 
f 271//271 289//289 275//275 
f 280//280 290//290 275//275 
f 275//275 291//291 292//292 
f 262//262 293//293 294//294 
f 283//283 281//281 262//262 
f 249//249 295//295 296//296 
f 249//249 297//297 298//298 
f 249//249 299//299 300//300 
f 242//242 286//286 240//240 
f 286//286 249//249 284//284 
f 249//249 301//301 302//302 
f 274//274 303//303 304//304 
f 276//276 305//305 274//274 
f 275//275 306//306 307//307 
f 275//275 308//308 309//309 
f 288//288 310//310 275//275 
f 289//289 311//311 275//275 
f 292//292 279//279 275//275 
f 262//262 312//312 293//293 
f 262//262 313//313 314//314 
f 282//282 315//315 262//262 
f 249//249 316//316 317//317 
f 249//249 318//318 319//319 
f 298//298 295//295 249//249 
f 300//300 320//320 249//249 
f 285//285 240//240 286//286 
f 302//302 321//321 249//249 
f 249//249 322//322 323//323 
f 249//249 324//324 325//325 
f 274//274 326//326 327//327 
f 274//274 328//328 303//303 
f 307//307 277//277 275//275 
f 310//310 308//308 275//275 
f 290//290 269//269 275//275 
f 275//275 262//262 329//329 
f 314//314 312//312 262//262 
f 317//317 264//264 249//249 
f 296//296 318//318 249//249 
f 320//320 330//330 249//249 
f 249//249 286//286 331//331 
f 321//321 284//284 249//249 
f 249//249 332//332 333//333 
f 325//325 322//322 249//249 
f 274//274 334//334 335//335 
f 274//274 336//336 326//326 
f 274//274 337//337 338//338 
f 274//274 339//339 328//328 
f 309//309 306//306 275//275 
f 270//270 238//238 271//271 
f 275//275 340//340 341//341 
f 262//262 342//342 329//329 
f 315//315 313//313 262//262 
f 330//330 297//297 249//249 
f 266//266 343//343 238//238 
f 323//323 332//332 249//249 
f 335//335 249//249 274//274 
f 338//338 336//336 274//274 
f 304//304 344//344 274//274 
f 274//274 345//345 346//346 
f 274//274 347//347 348//348 
f 311//311 287//287 275//275 
f 329//329 340//340 275//275 
f 319//319 316//316 249//249 
f 249//249 349//349 350//350 
f 331//331 349//349 249//249 
f 335//335 324//324 249//249 
f 344//344 337//337 274//274 
f 348//348 345//345 274//274 
f 341//341 291//291 275//275 
f 262//262 351//351 352//352 
f 350//350 299//299 249//249 
f 333//333 301//301 249//249 
f 274//274 353//353 354//354 
f 346//346 339//339 274//274 
f 352//352 342//342 262//262 
f 262//262 355//355 356//356 
f 343//343 271//271 238//238 
f 327//327 353//353 274//274 
f 356//356 351//351 262//262 
f 354//354 334//334 274//274 
f 294//294 355//355 262//262 
f 305//305 347//347 274//274 
o mesh13388
v 0.36435 0.177928 -0.0845302 
v 0.41515 0.177928 -0.0845302 
v 0.41515 0.171961 -0.0823584 
v 0.36435 0.171961 -0.0823584 
vn 7.30624e-14 -0.34202 -0.939693 
vn 7.30624e-14 -0.34202 -0.939693 
vn 7.30624e-14 -0.34202 -0.939693 
vn 7.30624e-14 -0.34202 -0.939693 
f 357//357 358//358 359//359 
f 359//359 360//360 357//357 
o mesh13389
v 0.41515 0.171961 -0.0823584 
v 0.41515 0.177928 -0.0845302 
v 0.41515 0.221365 0.0348108 
v 0.41515 0.215398 0.0369826 
vn 1 8.42493e-14 4.72732e-14 
vn 1 8.42493e-14 4.72732e-14 
vn 1 8.42493e-14 4.72732e-14 
vn 1 8.42493e-14 4.72732e-14 
f 361//361 362//362 363//363 
f 363//363 364//364 361//361 
o mesh13390
v 0.36435 0.221365 0.0348108 
v 0.36435 0.215398 0.0369826 
v 0.41515 0.215398 0.0369826 
v 0.41515 0.221365 0.0348108 
vn -7.32373e-14 0.34202 0.939693 
vn -7.32373e-14 0.34202 0.939693 
vn -7.32373e-14 0.34202 0.939693 
vn -7.32373e-14 0.34202 0.939693 
f 365//365 366//366 367//367 
f 367//367 368//368 365//365 
o mesh13391
v 0.36435 0.177928 -0.0845302 
v 0.36435 0.171961 -0.0823584 
v 0.36435 0.215398 0.0369826 
v 0.36435 0.221365 0.0348108 
vn -1 -8.42493e-14 -4.72732e-14 
vn -1 -8.42493e-14 -4.72732e-14 
vn -1 -8.42493e-14 -4.72732e-14 
vn -1 -8.42493e-14 -4.72732e-14 
f 369//369 370//370 371//371 
f 371//371 372//372 369//369 
o mesh13392
v 0.377181 0.176185 -0.0707545 
v 0.3772 0.176305 -0.0704243 
v 0.3772 0.182272 -0.0725961 
v 0.377124 0.176066 -0.0710808 
v 0.377181 0.182152 -0.0729263 
v 0.37703 0.17595 -0.0713994 
v 0.377124 0.182033 -0.0732526 
v 0.3769 0.175838 -0.0717066 
v 0.37703 0.181917 -0.0735712 
v 0.376735 0.175732 -0.0719988 
v 0.3769 0.181805 -0.0738784 
v 0.376537 0.175632 -0.0722725 
v 0.376735 0.181699 -0.0741706 
v 0.376309 0.175541 -0.0725245 
v 0.376537 0.181599 -0.0744443 
v 0.376054 0.175458 -0.0727519 
v 0.376309 0.181508 -0.0746963 
v 0.375774 0.175385 -0.072952 
v 0.376054 0.181425 -0.0749237 
v 0.375472 0.175323 -0.0731225 
v 0.375774 0.181352 -0.0751239 
v 0.375153 0.175272 -0.0732614 
v 0.375472 0.18129 -0.0752943 
v 0.374819 0.175234 -0.0733669 
v 0.375153 0.181239 -0.0754332 
v 0.374476 0.175208 -0.073438 
v 0.374819 0.181201 -0.0755388 
v 0.374126 0.175195 -0.0734738 
v 0.374476 0.181175 -0.0756099 
v 0.373774 0.175195 -0.0734738 
v 0.374126 0.181162 -0.0756456 
v 0.373424 0.175208 -0.073438 
v 0.373774 0.181162 -0.0756456 
v 0.373081 0.175234 -0.0733669 
v 0.373424 0.181175 -0.0756099 
v 0.372747 0.175272 -0.0732614 
v 0.373081 0.181201 -0.0755388 
v 0.372428 0.175323 -0.0731225 
v 0.372747 0.181239 -0.0754332 
v 0.372126 0.175385 -0.072952 
v 0.372428 0.18129 -0.0752943 
v 0.371846 0.175458 -0.0727519 
v 0.372126 0.181352 -0.0751239 
v 0.371591 0.175541 -0.0725245 
v 0.371846 0.181425 -0.0749237 
v 0.371363 0.175632 -0.0722725 
v 0.371591 0.181508 -0.0746963 
v 0.371165 0.175732 -0.0719988 
v 0.371363 0.181599 -0.0744443 
v 0.371 0.175838 -0.0717066 
v 0.371165 0.181699 -0.0741706 
v 0.37087 0.17595 -0.0713994 
v 0.371 0.181805 -0.0738784 
v 0.370776 0.176066 -0.0710808 
v 0.37087 0.181917 -0.0735712 
v 0.370719 0.176185 -0.0707545 
v 0.370776 0.182033 -0.0732526 
v 0.3707 0.176305 -0.0704243 
v 0.370719 0.182152 -0.0729263 
v 0.370719 0.176425 -0.0700941 
v 0.3707 0.182272 -0.0725961 
v 0.370776 0.176544 -0.0697677 
v 0.370719 0.182392 -0.0722659 
v 0.37087 0.17666 -0.0694491 
v 0.370776 0.182511 -0.0719396 
v 0.371 0.176772 -0.0691419 
v 0.37087 0.182627 -0.0716209 
v 0.371165 0.176878 -0.0688498 
v 0.371 0.182739 -0.0713137 
v 0.371363 0.176978 -0.0685761 
v 0.371165 0.182845 -0.0710216 
v 0.371591 0.177069 -0.068324 
v 0.371363 0.182945 -0.0707479 
v 0.371846 0.177152 -0.0680966 
v 0.371591 0.183036 -0.0704959 
v 0.372126 0.177225 -0.0678965 
v 0.371846 0.183119 -0.0702684 
v 0.372428 0.177287 -0.067726 
v 0.372126 0.183192 -0.0700683 
v 0.372747 0.177338 -0.0675872 
v 0.372428 0.183254 -0.0698978 
v 0.373081 0.177376 -0.0674816 
v 0.372747 0.183305 -0.069759 
v 0.373424 0.177402 -0.0674105 
v 0.373081 0.183343 -0.0696534 
v 0.373774 0.177415 -0.0673747 
v 0.373424 0.183369 -0.0695823 
v 0.374126 0.177415 -0.0673747 
v 0.373774 0.183382 -0.0695466 
v 0.374476 0.177402 -0.0674105 
v 0.374126 0.183382 -0.0695466 
v 0.374819 0.177376 -0.0674816 
v 0.374476 0.183369 -0.0695823 
v 0.375153 0.177338 -0.0675872 
v 0.374819 0.183343 -0.0696534 
v 0.375472 0.177287 -0.067726 
v 0.375153 0.183305 -0.069759 
v 0.375774 0.177225 -0.0678965 
v 0.375472 0.183254 -0.0698978 
v 0.376054 0.177152 -0.0680966 
v 0.375774 0.183192 -0.0700683 
v 0.376309 0.177069 -0.068324 
v 0.376054 0.183119 -0.0702684 
v 0.376537 0.176978 -0.0685761 
v 0.376309 0.183036 -0.0704959 
v 0.376735 0.176878 -0.0688498 
v 0.376537 0.182945 -0.0707479 
v 0.3769 0.176772 -0.0691419 
v 0.376735 0.182845 -0.0710216 
v 0.37703 0.17666 -0.0694491 
v 0.3769 0.182739 -0.0713137 
v 0.377124 0.176544 -0.0697677 
v 0.37703 0.182627 -0.0716209 
v 0.377181 0.176425 -0.0700941 
v 0.377124 0.182511 -0.0719396 
v 0.377181 0.182392 -0.0722659 
vn -0.994138 0.0369789 0.101599 
vn -1 -8.42493e-14 -4.72732e-14 
vn -1 -8.42493e-14 -4.72732e-14 
vn -0.976621 0.0735242 0.202006 
vn -0.994138 0.0369789 0.101599 
vn -0.947653 0.109208 0.300045 
vn -0.976621 0.0735242 0.202006 
vn -0.907575 0.143611 0.394567 
vn -0.947653 0.109208 0.300045 
vn -0.856857 0.17633 0.484462 
vn -0.907575 0.143611 0.394567 
vn -0.796093 0.206982 0.568678 
vn -0.856857 0.17633 0.484462 
vn -0.725995 0.235207 0.646226 
vn -0.796093 0.206982 0.568678 
vn -0.647386 0.260675 0.716198 
vn -0.725995 0.235207 0.646226 
vn -0.561187 0.283086 0.777773 
vn -0.647386 0.260675 0.716198 
vn -0.468408 0.302179 0.83023 
vn -0.561187 0.283086 0.777773 
vn -0.370138 0.317729 0.872953 
vn -0.468408 0.302179 0.83023 
vn -0.267528 0.329554 0.905441 
vn -0.370138 0.317729 0.872953 
vn -0.161782 0.337515 0.927314 
vn -0.267528 0.329554 0.905441 
vn -0.0541389 0.341519 0.938314 
vn -0.161782 0.337515 0.927314 
vn 0.0541389 0.341519 0.938314 
vn -0.0541389 0.341519 0.938314 
vn 0.161782 0.337515 0.927314 
vn 0.0541389 0.341519 0.938314 
vn 0.267528 0.329554 0.905441 
vn 0.161782 0.337515 0.927314 
vn 0.370138 0.317729 0.872953 
vn 0.267528 0.329554 0.905441 
vn 0.468408 0.302179 0.83023 
vn 0.370138 0.317729 0.872953 
vn 0.561187 0.283086 0.777773 
vn 0.468408 0.302179 0.83023 
vn 0.647386 0.260675 0.716198 
vn 0.561187 0.283086 0.777773 
vn 0.725995 0.235207 0.646226 
vn 0.647386 0.260675 0.716198 
vn 0.796093 0.206982 0.568678 
vn 0.725995 0.235207 0.646226 
vn 0.856857 0.17633 0.484462 
vn 0.796093 0.206982 0.568678 
vn 0.907575 0.143611 0.394567 
vn 0.856857 0.17633 0.484462 
vn 0.947653 0.109208 0.300045 
vn 0.907575 0.143611 0.394567 
vn 0.976621 0.0735242 0.202006 
vn 0.947653 0.109208 0.300045 
vn 0.994138 0.0369789 0.101599 
vn 0.976621 0.0735242 0.202006 
vn 1 8.48149e-14 4.88274e-14 
vn 0.994138 0.0369789 0.101599 
vn 0.994138 -0.0369789 -0.101599 
vn 1 8.48149e-14 4.88274e-14 
vn 0.976621 -0.0735242 -0.202006 
vn 0.994138 -0.0369789 -0.101599 
vn 0.947653 -0.109208 -0.300045 
vn 0.976621 -0.0735242 -0.202006 
vn 0.907575 -0.143611 -0.394567 
vn 0.947653 -0.109208 -0.300045 
vn 0.856857 -0.17633 -0.484462 
vn 0.907575 -0.143611 -0.394567 
vn 0.796093 -0.206982 -0.568678 
vn 0.856857 -0.17633 -0.484462 
vn 0.725995 -0.235207 -0.646226 
vn 0.796093 -0.206982 -0.568678 
vn 0.647386 -0.260675 -0.716198 
vn 0.725995 -0.235207 -0.646226 
vn 0.561187 -0.283086 -0.777773 
vn 0.647386 -0.260675 -0.716198 
vn 0.468408 -0.302179 -0.83023 
vn 0.561187 -0.283086 -0.777773 
vn 0.370138 -0.317729 -0.872953 
vn 0.468408 -0.302179 -0.83023 
vn 0.267528 -0.329554 -0.905441 
vn 0.370138 -0.317729 -0.872953 
vn 0.161782 -0.337515 -0.927314 
vn 0.267528 -0.329554 -0.905441 
vn 0.0541389 -0.341519 -0.938314 
vn 0.161782 -0.337515 -0.927314 
vn -0.0541389 -0.341519 -0.938314 
vn 0.0541389 -0.341519 -0.938314 
vn -0.161782 -0.337515 -0.927314 
vn -0.0541389 -0.341519 -0.938314 
vn -0.267528 -0.329554 -0.905441 
vn -0.161782 -0.337515 -0.927314 
vn -0.370138 -0.317729 -0.872953 
vn -0.267528 -0.329554 -0.905441 
vn -0.468408 -0.302179 -0.83023 
vn -0.370138 -0.317729 -0.872953 
vn -0.561187 -0.283086 -0.777773 
vn -0.468408 -0.302179 -0.83023 
vn -0.647386 -0.260675 -0.716198 
vn -0.561187 -0.283086 -0.777773 
vn -0.725995 -0.235207 -0.646226 
vn -0.647386 -0.260675 -0.716198 
vn -0.796093 -0.206982 -0.568678 
vn -0.725995 -0.235207 -0.646226 
vn -0.856857 -0.17633 -0.484462 
vn -0.796093 -0.206982 -0.568678 
vn -0.907575 -0.143611 -0.394567 
vn -0.856857 -0.17633 -0.484462 
vn -0.947653 -0.109208 -0.300045 
vn -0.907575 -0.143611 -0.394567 
vn -0.976621 -0.0735242 -0.202006 
vn -0.947653 -0.109208 -0.300045 
vn -0.994138 -0.0369789 -0.101599 
vn -0.976621 -0.0735242 -0.202006 
vn -0.994138 -0.0369789 -0.101599 
f 373//373 374//374 375//375 
f 376//376 373//373 377//377 
f 378//378 376//376 379//379 
f 380//380 378//378 381//381 
f 382//382 380//380 383//383 
f 384//384 382//382 385//385 
f 386//386 384//384 387//387 
f 388//388 386//386 389//389 
f 390//390 388//388 391//391 
f 392//392 390//390 393//393 
f 394//394 392//392 395//395 
f 396//396 394//394 397//397 
f 398//398 396//396 399//399 
f 400//400 398//398 401//401 
f 402//402 400//400 403//403 
f 404//404 402//402 405//405 
f 406//406 404//404 407//407 
f 408//408 406//406 409//409 
f 410//410 408//408 411//411 
f 412//412 410//410 413//413 
f 414//414 412//412 415//415 
f 416//416 414//414 417//417 
f 418//418 416//416 419//419 
f 420//420 418//418 421//421 
f 422//422 420//420 423//423 
f 424//424 422//422 425//425 
f 426//426 424//424 427//427 
f 428//428 426//426 429//429 
f 430//430 428//428 431//431 
f 432//432 430//430 433//433 
f 434//434 432//432 435//435 
f 436//436 434//434 437//437 
f 438//438 436//436 439//439 
f 440//440 438//438 441//441 
f 442//442 440//440 443//443 
f 444//444 442//442 445//445 
f 446//446 444//444 447//447 
f 448//448 446//446 449//449 
f 450//450 448//448 451//451 
f 452//452 450//450 453//453 
f 454//454 452//452 455//455 
f 456//456 454//454 457//457 
f 458//458 456//456 459//459 
f 460//460 458//458 461//461 
f 462//462 460//460 463//463 
f 464//464 462//462 465//465 
f 466//466 464//464 467//467 
f 468//468 466//466 469//469 
f 470//470 468//468 471//471 
f 472//472 470//470 473//473 
f 474//474 472//472 475//475 
f 476//476 474//474 477//477 
f 478//478 476//476 479//479 
f 480//480 478//478 481//481 
f 482//482 480//480 483//483 
f 484//484 482//482 485//485 
f 486//486 484//484 487//487 
f 374//374 486//486 488//488 
f 488//488 375//375 374//374 
f 487//487 488//488 486//486 
f 485//485 487//487 484//484 
f 483//483 485//485 482//482 
f 481//481 483//483 480//480 
f 479//479 481//481 478//478 
f 477//477 479//479 476//476 
f 475//475 477//477 474//474 
f 473//473 475//475 472//472 
f 471//471 473//473 470//470 
f 469//469 471//471 468//468 
f 467//467 469//469 466//466 
f 465//465 467//467 464//464 
f 463//463 465//465 462//462 
f 461//461 463//463 460//460 
f 459//459 461//461 458//458 
f 457//457 459//459 456//456 
f 455//455 457//457 454//454 
f 453//453 455//455 452//452 
f 451//451 453//453 450//450 
f 449//449 451//451 448//448 
f 447//447 449//449 446//446 
f 445//445 447//447 444//444 
f 443//443 445//445 442//442 
f 441//441 443//443 440//440 
f 439//439 441//441 438//438 
f 437//437 439//439 436//436 
f 435//435 437//437 434//434 
f 433//433 435//435 432//432 
f 431//431 433//433 430//430 
f 429//429 431//431 428//428 
f 427//427 429//429 426//426 
f 425//425 427//427 424//424 
f 423//423 425//425 422//422 
f 421//421 423//423 420//420 
f 419//419 421//421 418//418 
f 417//417 419//419 416//416 
f 415//415 417//417 414//414 
f 413//413 415//415 412//412 
f 411//411 413//413 410//410 
f 409//409 411//411 408//408 
f 407//407 409//409 406//406 
f 405//405 407//407 404//404 
f 403//403 405//405 402//402 
f 401//401 403//403 400//400 
f 399//399 401//401 398//398 
f 397//397 399//399 396//396 
f 395//395 397//397 394//394 
f 393//393 395//395 392//392 
f 391//391 393//393 390//390 
f 389//389 391//391 388//388 
f 387//387 389//389 386//386 
f 385//385 387//387 384//384 
f 383//383 385//385 382//382 
f 381//381 383//383 380//380 
f 379//379 381//381 378//378 
f 377//377 379//379 376//376 
f 375//375 377//377 373//373 
