# OBJ generated by ONSHAPE BY PTC INC, 1.215 Units = meters
mtllib EBoxNewAsm_stp_1_eBoxDamper_stp_5_solid1.mtl
g EBoxNewAsm.stp-1/eBoxDamper.stp-5-solid1
usemtl 0.152941_0.152941_0.152941_0.000000_0.000000
o mesh16054
v 0.377181 0.216901 0.0225465 
v 0.3772 0.217021 0.0228767 
v 0.3772 0.222988 0.0207049 
v 0.377124 0.216782 0.0222202 
v 0.377181 0.222868 0.0203747 
v 0.37703 0.216666 0.0219015 
v 0.377124 0.222749 0.0200483 
v 0.3769 0.216555 0.0215943 
v 0.37703 0.222633 0.0197297 
v 0.376735 0.216448 0.0213022 
v 0.3769 0.222522 0.0194225 
v 0.376537 0.216349 0.0210285 
v 0.376735 0.222415 0.0191303 
v 0.376309 0.216257 0.0207764 
v 0.376537 0.222316 0.0188566 
v 0.376054 0.216174 0.020549 
v 0.376309 0.222224 0.0186046 
v 0.375774 0.216101 0.0203489 
v 0.376054 0.222141 0.0183772 
v 0.375472 0.216039 0.0201784 
v 0.375774 0.222068 0.0181771 
v 0.375153 0.215989 0.0200396 
v 0.375472 0.222006 0.0180066 
v 0.374819 0.21595 0.019934 
v 0.375153 0.221956 0.0178678 
v 0.374476 0.215924 0.0198629 
v 0.374819 0.221917 0.0177622 
v 0.374126 0.215911 0.0198272 
v 0.374476 0.221891 0.0176911 
v 0.373774 0.215911 0.0198272 
v 0.374126 0.221878 0.0176553 
v 0.373424 0.215924 0.0198629 
v 0.373774 0.221878 0.0176553 
v 0.373081 0.21595 0.019934 
v 0.373424 0.221891 0.0176911 
v 0.372747 0.215989 0.0200396 
v 0.373081 0.221917 0.0177622 
v 0.372428 0.216039 0.0201784 
v 0.372747 0.221956 0.0178678 
v 0.372126 0.216101 0.0203489 
v 0.372428 0.222006 0.0180066 
v 0.371846 0.216174 0.020549 
v 0.372126 0.222068 0.0181771 
v 0.371591 0.216257 0.0207764 
v 0.371846 0.222141 0.0183772 
v 0.371363 0.216349 0.0210285 
v 0.371591 0.222224 0.0186046 
v 0.371165 0.216448 0.0213022 
v 0.371363 0.222316 0.0188566 
v 0.371 0.216555 0.0215943 
v 0.371165 0.222415 0.0191303 
v 0.37087 0.216666 0.0219015 
v 0.371 0.222522 0.0194225 
v 0.370776 0.216782 0.0222202 
v 0.37087 0.222633 0.0197297 
v 0.370719 0.216901 0.0225465 
v 0.370776 0.222749 0.0200483 
v 0.3707 0.217021 0.0228767 
v 0.370719 0.222868 0.0203747 
v 0.370719 0.217141 0.0232069 
v 0.3707 0.222988 0.0207049 
v 0.370776 0.21726 0.0235332 
v 0.370719 0.223109 0.021035 
v 0.37087 0.217376 0.0238518 
v 0.370776 0.223227 0.0213614 
v 0.371 0.217488 0.024159 
v 0.37087 0.223343 0.02168 
v 0.371165 0.217594 0.0244512 
v 0.371 0.223455 0.0219872 
v 0.371363 0.217694 0.0247249 
v 0.371165 0.223561 0.0222794 
v 0.371591 0.217786 0.0249769 
v 0.371363 0.223661 0.0225531 
v 0.371846 0.217868 0.0252043 
v 0.371591 0.223753 0.0228051 
v 0.372126 0.217941 0.0254044 
v 0.371846 0.223836 0.0230325 
v 0.372428 0.218003 0.0255749 
v 0.372126 0.223908 0.0232326 
v 0.372747 0.218054 0.0257138 
v 0.372428 0.22397 0.0234031 
v 0.373081 0.218092 0.0258194 
v 0.372747 0.224021 0.0235419 
v 0.373424 0.218118 0.0258904 
v 0.373081 0.224059 0.0236475 
v 0.373774 0.218131 0.0259262 
v 0.373424 0.224085 0.0237186 
v 0.374126 0.218131 0.0259262 
v 0.373774 0.224098 0.0237544 
v 0.374476 0.218118 0.0258904 
v 0.374126 0.224098 0.0237544 
v 0.374819 0.218092 0.0258194 
v 0.374476 0.224085 0.0237186 
v 0.375153 0.218054 0.0257138 
v 0.374819 0.224059 0.0236475 
v 0.375472 0.218003 0.0255749 
v 0.375153 0.224021 0.0235419 
v 0.375774 0.217941 0.0254044 
v 0.375472 0.22397 0.0234031 
v 0.376054 0.217868 0.0252043 
v 0.375774 0.223908 0.0232326 
v 0.376309 0.217786 0.0249769 
v 0.376054 0.223836 0.0230325 
v 0.376537 0.217694 0.0247249 
v 0.376309 0.223753 0.0228051 
v 0.376735 0.217594 0.0244512 
v 0.376537 0.223661 0.0225531 
v 0.3769 0.217488 0.024159 
v 0.376735 0.223561 0.0222794 
v 0.37703 0.217376 0.0238518 
v 0.3769 0.223455 0.0219872 
v 0.377124 0.21726 0.0235332 
v 0.37703 0.223343 0.02168 
v 0.377181 0.217141 0.0232069 
v 0.377124 0.223227 0.0213614 
v 0.377181 0.223109 0.021035 
vn -0.994138 0.0369789 0.101599 
vn -1 -8.41655e-14 -4.70431e-14 
vn -1 -8.41655e-14 -4.70431e-14 
vn -0.976621 0.0735242 0.202006 
vn -0.994138 0.0369789 0.101599 
vn -0.947653 0.109208 0.300045 
vn -0.976621 0.0735242 0.202006 
vn -0.907575 0.143611 0.394567 
vn -0.947653 0.109208 0.300045 
vn -0.856857 0.17633 0.484462 
vn -0.907575 0.143611 0.394567 
vn -0.796093 0.206982 0.568678 
vn -0.856857 0.17633 0.484462 
vn -0.725995 0.235207 0.646226 
vn -0.796093 0.206982 0.568678 
vn -0.647386 0.260675 0.716198 
vn -0.725995 0.235207 0.646226 
vn -0.561187 0.283086 0.777773 
vn -0.647386 0.260675 0.716198 
vn -0.468408 0.302179 0.83023 
vn -0.561187 0.283086 0.777773 
vn -0.370138 0.317729 0.872953 
vn -0.468408 0.302179 0.83023 
vn -0.267528 0.329554 0.905441 
vn -0.370138 0.317729 0.872953 
vn -0.161782 0.337515 0.927314 
vn -0.267528 0.329554 0.905441 
vn -0.0541389 0.341519 0.938314 
vn -0.161782 0.337515 0.927314 
vn 0.0541389 0.341519 0.938314 
vn -0.0541389 0.341519 0.938314 
vn 0.161782 0.337515 0.927314 
vn 0.0541389 0.341519 0.938314 
vn 0.267528 0.329554 0.905441 
vn 0.161782 0.337515 0.927314 
vn 0.370138 0.317729 0.872953 
vn 0.267528 0.329554 0.905441 
vn 0.468408 0.302179 0.83023 
vn 0.370138 0.317729 0.872953 
vn 0.561187 0.283086 0.777773 
vn 0.468408 0.302179 0.83023 
vn 0.647386 0.260675 0.716198 
vn 0.561187 0.283086 0.777773 
vn 0.725995 0.235207 0.646226 
vn 0.647386 0.260675 0.716198 
vn 0.796093 0.206982 0.568678 
vn 0.725995 0.235207 0.646226 
vn 0.856857 0.17633 0.484462 
vn 0.796093 0.206982 0.568678 
vn 0.907575 0.143611 0.394567 
vn 0.856857 0.17633 0.484462 
vn 0.947653 0.109208 0.300045 
vn 0.907575 0.143611 0.394567 
vn 0.976621 0.0735242 0.202006 
vn 0.947653 0.109208 0.300045 
vn 0.994138 0.0369789 0.101599 
vn 0.976621 0.0735242 0.202006 
vn 1 8.48149e-14 4.88274e-14 
vn 0.994138 0.0369789 0.101599 
vn 0.994138 -0.0369789 -0.101599 
vn 1 8.48149e-14 4.88274e-14 
vn 0.976621 -0.0735242 -0.202006 
vn 0.994138 -0.0369789 -0.101599 
vn 0.947653 -0.109208 -0.300045 
vn 0.976621 -0.0735242 -0.202006 
vn 0.907575 -0.143611 -0.394567 
vn 0.947653 -0.109208 -0.300045 
vn 0.856857 -0.17633 -0.484462 
vn 0.907575 -0.143611 -0.394567 
vn 0.796093 -0.206982 -0.568678 
vn 0.856857 -0.17633 -0.484462 
vn 0.725995 -0.235207 -0.646226 
vn 0.796093 -0.206982 -0.568678 
vn 0.647386 -0.260675 -0.716198 
vn 0.725995 -0.235207 -0.646226 
vn 0.561187 -0.283086 -0.777773 
vn 0.647386 -0.260675 -0.716198 
vn 0.468408 -0.302179 -0.83023 
vn 0.561187 -0.283086 -0.777773 
vn 0.370138 -0.317729 -0.872953 
vn 0.468408 -0.302179 -0.83023 
vn 0.267528 -0.329554 -0.905441 
vn 0.370138 -0.317729 -0.872953 
vn 0.161782 -0.337515 -0.927314 
vn 0.267528 -0.329554 -0.905441 
vn 0.0541389 -0.341519 -0.938314 
vn 0.161782 -0.337515 -0.927314 
vn -0.0541389 -0.341519 -0.938314 
vn 0.0541389 -0.341519 -0.938314 
vn -0.161782 -0.337515 -0.927314 
vn -0.0541389 -0.341519 -0.938314 
vn -0.267528 -0.329554 -0.905441 
vn -0.161782 -0.337515 -0.927314 
vn -0.370138 -0.317729 -0.872953 
vn -0.267528 -0.329554 -0.905441 
vn -0.468408 -0.302179 -0.83023 
vn -0.370138 -0.317729 -0.872953 
vn -0.561187 -0.283086 -0.777773 
vn -0.468408 -0.302179 -0.83023 
vn -0.647386 -0.260675 -0.716198 
vn -0.561187 -0.283086 -0.777773 
vn -0.725995 -0.235207 -0.646226 
vn -0.647386 -0.260675 -0.716198 
vn -0.796093 -0.206982 -0.568678 
vn -0.725995 -0.235207 -0.646226 
vn -0.856857 -0.17633 -0.484462 
vn -0.796093 -0.206982 -0.568678 
vn -0.907575 -0.143611 -0.394567 
vn -0.856857 -0.17633 -0.484462 
vn -0.947653 -0.109208 -0.300045 
vn -0.907575 -0.143611 -0.394567 
vn -0.976621 -0.0735242 -0.202006 
vn -0.947653 -0.109208 -0.300045 
vn -0.994138 -0.0369789 -0.101599 
vn -0.976621 -0.0735242 -0.202006 
vn -0.994138 -0.0369789 -0.101599 
f 1//1 2//2 3//3 
f 4//4 1//1 5//5 
f 6//6 4//4 7//7 
f 8//8 6//6 9//9 
f 10//10 8//8 11//11 
f 12//12 10//10 13//13 
f 14//14 12//12 15//15 
f 16//16 14//14 17//17 
f 18//18 16//16 19//19 
f 20//20 18//18 21//21 
f 22//22 20//20 23//23 
f 24//24 22//22 25//25 
f 26//26 24//24 27//27 
f 28//28 26//26 29//29 
f 30//30 28//28 31//31 
f 32//32 30//30 33//33 
f 34//34 32//32 35//35 
f 36//36 34//34 37//37 
f 38//38 36//36 39//39 
f 40//40 38//38 41//41 
f 42//42 40//40 43//43 
f 44//44 42//42 45//45 
f 46//46 44//44 47//47 
f 48//48 46//46 49//49 
f 50//50 48//48 51//51 
f 52//52 50//50 53//53 
f 54//54 52//52 55//55 
f 56//56 54//54 57//57 
f 58//58 56//56 59//59 
f 60//60 58//58 61//61 
f 62//62 60//60 63//63 
f 64//64 62//62 65//65 
f 66//66 64//64 67//67 
f 68//68 66//66 69//69 
f 70//70 68//68 71//71 
f 72//72 70//70 73//73 
f 74//74 72//72 75//75 
f 76//76 74//74 77//77 
f 78//78 76//76 79//79 
f 80//80 78//78 81//81 
f 82//82 80//80 83//83 
f 84//84 82//82 85//85 
f 86//86 84//84 87//87 
f 88//88 86//86 89//89 
f 90//90 88//88 91//91 
f 92//92 90//90 93//93 
f 94//94 92//92 95//95 
f 96//96 94//94 97//97 
f 98//98 96//96 99//99 
f 100//100 98//98 101//101 
f 102//102 100//100 103//103 
f 104//104 102//102 105//105 
f 106//106 104//104 107//107 
f 108//108 106//106 109//109 
f 110//110 108//108 111//111 
f 112//112 110//110 113//113 
f 114//114 112//112 115//115 
f 2//2 114//114 116//116 
f 116//116 3//3 2//2 
f 115//115 116//116 114//114 
f 113//113 115//115 112//112 
f 111//111 113//113 110//110 
f 109//109 111//111 108//108 
f 107//107 109//109 106//106 
f 105//105 107//107 104//104 
f 103//103 105//105 102//102 
f 101//101 103//103 100//100 
f 99//99 101//101 98//98 
f 97//97 99//99 96//96 
f 95//95 97//97 94//94 
f 93//93 95//95 92//92 
f 91//91 93//93 90//90 
f 89//89 91//91 88//88 
f 87//87 89//89 86//86 
f 85//85 87//87 84//84 
f 83//83 85//85 82//82 
f 81//81 83//83 80//80 
f 79//79 81//81 78//78 
f 77//77 79//79 76//76 
f 75//75 77//77 74//74 
f 73//73 75//75 72//72 
f 71//71 73//73 70//70 
f 69//69 71//71 68//68 
f 67//67 69//69 66//66 
f 65//65 67//67 64//64 
f 63//63 65//65 62//62 
f 61//61 63//63 60//60 
f 59//59 61//61 58//58 
f 57//57 59//59 56//56 
f 55//55 57//57 54//54 
f 53//53 55//55 52//52 
f 51//51 53//53 50//50 
f 49//49 51//51 48//48 
f 47//47 49//49 46//46 
f 45//45 47//47 44//44 
f 43//43 45//45 42//42 
f 41//41 43//43 40//40 
f 39//39 41//41 38//38 
f 37//37 39//39 36//36 
f 35//35 37//37 34//34 
f 33//33 35//35 32//32 
f 31//31 33//33 30//30 
f 29//29 31//31 28//28 
f 27//27 29//29 26//26 
f 25//25 27//27 24//24 
f 23//23 25//25 22//22 
f 21//21 23//23 20//20 
f 19//19 21//21 18//18 
f 17//17 19//19 16//16 
f 15//15 17//17 14//14 
f 13//13 15//15 12//12 
f 11//11 13//13 10//10 
f 9//9 11//11 8//8 
f 7//7 9//9 6//6 
f 5//5 7//7 4//4 
f 3//3 5//5 1//1 
o mesh16055
v 0.374126 0.189349 -0.0717184 
v 0.375153 0.221956 0.0178678 
v 0.375472 0.222006 0.0180066 
v 0.375774 0.222068 0.0181771 
v 0.373774 0.189349 -0.0717184 
v 0.373424 0.221891 0.0176911 
v 0.373774 0.221878 0.0176553 
v 0.376054 0.222141 0.0183772 
v 0.374476 0.221891 0.0176911 
v 0.374819 0.221917 0.0177622 
v 0.372747 0.221956 0.0178678 
v 0.371591 0.189004 -0.0726677 
v 0.371363 0.188912 -0.0729197 
v 0.376537 0.222316 0.0188566 
v 0.376735 0.222415 0.0191303 
v 0.374126 0.221878 0.0176553 
v 0.41515 0.183895 -0.086702 
v 0.375472 0.187257 -0.0774662 
v 0.375774 0.187319 -0.0772957 
v 0.374819 0.187168 -0.0777106 
v 0.375153 0.187206 -0.077605 
v 0.36435 0.183895 -0.086702 
v 0.374476 0.187142 -0.0777817 
v 0.371165 0.188812 -0.0731934 
v 0.376309 0.222224 0.0186046 
v 0.373424 0.189336 -0.0717541 
v 0.37087 0.188594 -0.0737928 
v 0.36435 0.227332 0.0326389 
v 0.370776 0.222749 0.0200483 
v 0.376735 0.187666 -0.0763424 
v 0.3769 0.187772 -0.0760503 
v 0.374126 0.187129 -0.0778174 
v 0.371846 0.187392 -0.0770956 
v 0.372126 0.187319 -0.0772957 
v 0.371 0.188706 -0.0734856 
v 0.372126 0.189159 -0.0722402 
v 0.371846 0.189086 -0.0724403 
v 0.373081 0.18931 -0.0718252 
v 0.372747 0.189272 -0.0719308 
v 0.3769 0.222522 0.0194225 
v 0.371591 0.222224 0.0186046 
v 0.371846 0.222141 0.0183772 
v 0.370719 0.222868 0.0203747 
v 0.376537 0.187566 -0.0766161 
v 0.371591 0.187475 -0.0768682 
v 0.370719 0.188119 -0.0750981 
v 0.370776 0.188 -0.0754244 
v 0.372428 0.189221 -0.0720697 
v 0.373081 0.221917 0.0177622 
v 0.372126 0.222068 0.0181771 
v 0.372428 0.222006 0.0180066 
v 0.371363 0.222316 0.0188566 
v 0.371 0.222522 0.0194225 
v 0.371165 0.222415 0.0191303 
v 0.37087 0.222633 0.0197297 
v 0.41515 0.227332 0.0326389 
v 0.3769 0.188706 -0.0734856 
v 0.376309 0.187475 -0.0768682 
v 0.376054 0.187392 -0.0770956 
v 0.373424 0.187142 -0.0777817 
v 0.373774 0.187129 -0.0778174 
v 0.372747 0.187206 -0.077605 
v 0.373081 0.187168 -0.0777106 
v 0.372428 0.187257 -0.0774662 
v 0.371 0.187772 -0.0760503 
v 0.371165 0.187666 -0.0763424 
v 0.37087 0.187884 -0.0757431 
v 0.375153 0.189272 -0.0719308 
v 0.374819 0.18931 -0.0718252 
v 0.3772 0.222988 0.0207049 
v 0.376735 0.188812 -0.0731934 
v 0.377181 0.188359 -0.0744377 
v 0.377124 0.188478 -0.0741114 
v 0.371363 0.187566 -0.0766161 
v 0.37703 0.222633 0.0197297 
v 0.371165 0.223561 0.0222794 
v 0.371 0.223455 0.0219872 
v 0.371591 0.223753 0.0228051 
v 0.371363 0.223661 0.0225531 
v 0.372747 0.224021 0.0235419 
v 0.372428 0.22397 0.0234031 
v 0.375153 0.224021 0.0235419 
v 0.374819 0.224059 0.0236475 
v 0.376309 0.223753 0.0228051 
v 0.376054 0.223836 0.0230325 
v 0.377181 0.223109 0.021035 
v 0.377124 0.223227 0.0213614 
v 0.375774 0.189159 -0.0722402 
v 0.375472 0.189221 -0.0720697 
v 0.376309 0.189004 -0.0726677 
v 0.376054 0.189086 -0.0724403 
v 0.376537 0.188912 -0.0729197 
v 0.37703 0.188594 -0.0737928 
v 0.370776 0.188478 -0.0741114 
v 0.377124 0.222749 0.0200483 
v 0.372126 0.223908 0.0232326 
v 0.373424 0.224085 0.0237186 
v 0.373081 0.224059 0.0236475 
v 0.375774 0.223908 0.0232326 
v 0.3769 0.223455 0.0219872 
v 0.376735 0.223561 0.0222794 
v 0.37703 0.223343 0.02168 
v 0.37703 0.187884 -0.0757431 
v 0.377124 0.188 -0.0754244 
v 0.370776 0.223227 0.0213614 
v 0.370719 0.223109 0.021035 
v 0.371846 0.223836 0.0230325 
v 0.375472 0.22397 0.0234031 
v 0.376537 0.223661 0.0225531 
v 0.374476 0.189336 -0.0717541 
v 0.377181 0.188119 -0.0750981 
v 0.3772 0.188239 -0.0747679 
v 0.377181 0.222868 0.0203747 
v 0.3707 0.222988 0.0207049 
v 0.374126 0.224098 0.0237544 
v 0.373774 0.224098 0.0237544 
v 0.374476 0.224085 0.0237186 
v 0.370719 0.188359 -0.0744377 
v 0.3707 0.188239 -0.0747679 
v 0.37087 0.223343 0.02168 
vn -6.3e-14 0.939693 -0.34202 
vn -6.3e-14 0.939693 -0.34202 
vn -6.3e-14 0.939693 -0.34202 
vn -6.3e-14 0.939693 -0.34202 
vn -6.3e-14 0.939693 -0.34202 
vn -6.3e-14 0.939693 -0.34202 
vn -6.3e-14 0.939693 -0.34202 
vn -6.3e-14 0.939693 -0.34202 
vn -6.3e-14 0.939693 -0.34202 
vn -6.3e-14 0.939693 -0.34202 
vn -6.3e-14 0.939693 -0.34202 
vn -6.3e-14 0.939693 -0.34202 
vn -6.3e-14 0.939693 -0.34202 
vn -6.3e-14 0.939693 -0.34202 
vn -6.3e-14 0.939693 -0.34202 
vn -6.3e-14 0.939693 -0.34202 
vn -6.3e-14 0.939693 -0.34202 
vn -6.3e-14 0.939693 -0.34202 
vn -6.3e-14 0.939693 -0.34202 
vn -6.3e-14 0.939693 -0.34202 
vn -6.3e-14 0.939693 -0.34202 
vn -6.3e-14 0.939693 -0.34202 
vn -6.3e-14 0.939693 -0.34202 
vn -6.3e-14 0.939693 -0.34202 
vn -6.3e-14 0.939693 -0.34202 
vn -6.3e-14 0.939693 -0.34202 
vn -6.3e-14 0.939693 -0.34202 
vn -6.3e-14 0.939693 -0.34202 
vn -6.3e-14 0.939693 -0.34202 
vn -6.3e-14 0.939693 -0.34202 
vn -6.3e-14 0.939693 -0.34202 
vn -6.3e-14 0.939693 -0.34202 
vn -6.3e-14 0.939693 -0.34202 
vn -6.3e-14 0.939693 -0.34202 
vn -6.3e-14 0.939693 -0.34202 
vn -6.3e-14 0.939693 -0.34202 
vn -6.3e-14 0.939693 -0.34202 
vn -6.3e-14 0.939693 -0.34202 
vn -6.3e-14 0.939693 -0.34202 
vn -6.3e-14 0.939693 -0.34202 
vn -6.3e-14 0.939693 -0.34202 
vn -6.3e-14 0.939693 -0.34202 
vn -6.3e-14 0.939693 -0.34202 
vn -6.3e-14 0.939693 -0.34202 
vn -6.3e-14 0.939693 -0.34202 
vn -6.3e-14 0.939693 -0.34202 
vn -6.3e-14 0.939693 -0.34202 
vn -6.3e-14 0.939693 -0.34202 
vn -6.3e-14 0.939693 -0.34202 
vn -6.3e-14 0.939693 -0.34202 
vn -6.3e-14 0.939693 -0.34202 
vn -6.3e-14 0.939693 -0.34202 
vn -6.3e-14 0.939693 -0.34202 
vn -6.3e-14 0.939693 -0.34202 
vn -6.3e-14 0.939693 -0.34202 
vn -6.3e-14 0.939693 -0.34202 
vn -6.3e-14 0.939693 -0.34202 
vn -6.3e-14 0.939693 -0.34202 
vn -6.3e-14 0.939693 -0.34202 
vn -6.3e-14 0.939693 -0.34202 
vn -6.3e-14 0.939693 -0.34202 
vn -6.3e-14 0.939693 -0.34202 
vn -6.3e-14 0.939693 -0.34202 
vn -6.3e-14 0.939693 -0.34202 
vn -6.3e-14 0.939693 -0.34202 
vn -6.3e-14 0.939693 -0.34202 
vn -6.3e-14 0.939693 -0.34202 
vn -6.3e-14 0.939693 -0.34202 
vn -6.3e-14 0.939693 -0.34202 
vn -6.3e-14 0.939693 -0.34202 
vn -6.3e-14 0.939693 -0.34202 
vn -6.3e-14 0.939693 -0.34202 
vn -6.3e-14 0.939693 -0.34202 
vn -6.3e-14 0.939693 -0.34202 
vn -6.3e-14 0.939693 -0.34202 
vn -6.3e-14 0.939693 -0.34202 
vn -6.3e-14 0.939693 -0.34202 
vn -6.3e-14 0.939693 -0.34202 
vn -6.3e-14 0.939693 -0.34202 
vn -6.3e-14 0.939693 -0.34202 
vn -6.3e-14 0.939693 -0.34202 
vn -6.3e-14 0.939693 -0.34202 
vn -6.3e-14 0.939693 -0.34202 
vn -6.3e-14 0.939693 -0.34202 
vn -6.3e-14 0.939693 -0.34202 
vn -6.3e-14 0.939693 -0.34202 
vn -6.3e-14 0.939693 -0.34202 
vn -6.3e-14 0.939693 -0.34202 
vn -6.3e-14 0.939693 -0.34202 
vn -6.3e-14 0.939693 -0.34202 
vn -6.3e-14 0.939693 -0.34202 
vn -6.3e-14 0.939693 -0.34202 
vn -6.3e-14 0.939693 -0.34202 
vn -6.3e-14 0.939693 -0.34202 
vn -6.3e-14 0.939693 -0.34202 
vn -6.3e-14 0.939693 -0.34202 
vn -6.3e-14 0.939693 -0.34202 
vn -6.3e-14 0.939693 -0.34202 
vn -6.3e-14 0.939693 -0.34202 
vn -6.3e-14 0.939693 -0.34202 
vn -6.3e-14 0.939693 -0.34202 
vn -6.3e-14 0.939693 -0.34202 
vn -6.3e-14 0.939693 -0.34202 
vn -6.3e-14 0.939693 -0.34202 
vn -6.3e-14 0.939693 -0.34202 
vn -6.3e-14 0.939693 -0.34202 
vn -6.3e-14 0.939693 -0.34202 
vn -6.3e-14 0.939693 -0.34202 
vn -6.3e-14 0.939693 -0.34202 
vn -6.3e-14 0.939693 -0.34202 
vn -6.3e-14 0.939693 -0.34202 
vn -6.3e-14 0.939693 -0.34202 
vn -6.3e-14 0.939693 -0.34202 
vn -6.3e-14 0.939693 -0.34202 
vn -6.3e-14 0.939693 -0.34202 
vn -6.3e-14 0.939693 -0.34202 
vn -6.3e-14 0.939693 -0.34202 
vn -6.3e-14 0.939693 -0.34202 
vn -6.3e-14 0.939693 -0.34202 
vn -6.3e-14 0.939693 -0.34202 
f 117//117 118//118 119//119 
f 119//119 120//120 117//117 
f 121//121 122//122 123//123 
f 120//120 124//124 117//117 
f 117//117 125//125 126//126 
f 123//123 117//117 121//121 
f 127//127 128//128 129//129 
f 117//117 130//130 131//131 
f 126//126 118//118 117//117 
f 123//123 132//132 117//117 
f 133//133 134//134 135//135 
f 133//133 136//136 137//137 
f 138//138 139//139 136//136 
f 129//129 140//140 127//127 
f 117//117 141//141 130//130 
f 122//122 121//121 142//142 
f 132//132 125//125 117//117 
f 143//143 144//144 145//145 
f 133//133 146//146 147//147 
f 137//137 134//134 133//133 
f 138//138 148//148 139//139 
f 138//138 149//149 150//150 
f 140//140 151//151 127//127 
f 127//127 152//152 153//153 
f 127//127 154//154 155//155 
f 131//131 156//156 117//117 
f 124//124 141//141 117//117 
f 143//143 157//157 158//158 
f 144//144 159//159 145//145 
f 133//133 160//160 146//146 
f 136//136 133//133 138//138 
f 138//138 161//161 149//149 
f 138//138 162//162 163//163 
f 153//153 128//128 127//127 
f 155//155 164//164 127//127 
f 142//142 154//154 122//122 
f 154//154 127//127 165//165 
f 143//143 166//166 167//167 
f 143//143 168//168 157//157 
f 143//143 169//169 170//170 
f 145//145 171//171 143//143 
f 172//172 133//133 173//173 
f 133//133 174//174 160//160 
f 135//135 175//175 133//133 
f 138//138 176//176 177//177 
f 138//138 178//178 179//179 
f 150//150 180//180 138//138 
f 138//138 181//181 182//182 
f 163//163 183//183 138//138 
f 164//164 152//152 127//127 
f 165//165 122//122 154//154 
f 158//158 166//166 143//143 
f 171//171 169//169 143//143 
f 184//184 185//185 186//186 
f 173//173 187//187 172//172 
f 133//133 188//188 189//189 
f 175//175 174//174 133//133 
f 179//179 176//176 138//138 
f 138//138 190//190 161//161 
f 183//183 181//181 138//138 
f 156//156 191//191 117//117 
f 170//170 168//168 143//143 
f 144//144 192//192 193//193 
f 144//144 194//194 195//195 
f 144//144 196//196 197//197 
f 172//172 198//198 199//199 
f 172//172 200//200 201//201 
f 172//172 202//202 203//203 
f 186//186 172//172 184//184 
f 172//172 204//204 205//205 
f 172//172 206//206 207//207 
f 187//187 208//208 172//172 
f 189//189 209//209 133//133 
f 177//177 148//148 138//138 
f 182//182 190//190 138//138 
f 144//144 143//143 210//210 
f 117//117 191//191 211//211 
f 167//167 127//127 143//143 
f 195//195 192//192 144//144 
f 197//197 212//212 144//144 
f 144//144 213//213 214//214 
f 199//199 144//144 172//172 
f 201//201 215//215 172//172 
f 172//172 216//216 217//217 
f 203//203 218//218 172//172 
f 186//186 202//202 172//172 
f 207//207 204//204 172//172 
f 209//209 173//173 133//133 
f 133//133 219//219 220//220 
f 180//180 178//178 138//138 
f 210//210 138//138 144//144 
f 151//151 143//143 127//127 
f 144//144 221//221 222//222 
f 144//144 223//223 194//194 
f 214//214 196//196 144//144 
f 172//172 224//224 198//198 
f 172//172 225//225 200//200 
f 218//218 216//216 172//172 
f 185//185 226//226 186//186 
f 208//208 206//206 172//172 
f 133//133 227//227 228//228 
f 147//147 219//219 133//133 
f 211//211 229//229 117//117 
f 222//222 230//230 144//144 
f 212//212 223//223 144//144 
f 144//144 231//231 232//232 
f 199//199 233//233 144//144 
f 217//217 225//225 172//172 
f 205//205 184//184 172//172 
f 220//220 227//227 133//133 
f 138//138 234//234 235//235 
f 210//210 234//234 138//138 
f 144//144 236//236 221//221 
f 232//232 213//213 144//144 
f 215//215 224//224 172//172 
f 228//228 188//188 133//133 
f 229//229 186//186 117//117 
f 193//193 236//236 144//144 
f 226//226 117//117 186//186 
f 230//230 159//159 144//144 
f 235//235 162//162 138//138 
f 233//233 231//231 144//144 
o mesh16056
v 0.374126 0.215911 0.0198272 
v 0.373424 0.183369 -0.0695823 
v 0.373774 0.183382 -0.0695466 
v 0.374126 0.183382 -0.0695466 
v 0.373774 0.215911 0.0198272 
v 0.373081 0.183343 -0.0696534 
v 0.36435 0.221365 0.0348108 
v 0.374476 0.218118 0.0258904 
v 0.374819 0.218092 0.0258194 
v 0.41515 0.221365 0.0348108 
v 0.375153 0.218054 0.0257138 
v 0.374126 0.218131 0.0259262 
v 0.37087 0.216666 0.0219015 
v 0.370776 0.216782 0.0222202 
v 0.372126 0.183192 -0.0700683 
v 0.371 0.216555 0.0215943 
v 0.371363 0.216349 0.0210285 
v 0.371165 0.216448 0.0213022 
v 0.375472 0.183254 -0.0698978 
v 0.375774 0.183192 -0.0700683 
v 0.374476 0.183369 -0.0695823 
v 0.374819 0.183343 -0.0696534 
v 0.373424 0.215924 0.0198629 
v 0.373081 0.21595 0.019934 
v 0.372747 0.215989 0.0200396 
v 0.372428 0.183254 -0.0698978 
v 0.374819 0.21595 0.019934 
v 0.374476 0.215924 0.0198629 
v 0.3772 0.182272 -0.0725961 
v 0.371591 0.216257 0.0207764 
v 0.372126 0.216101 0.0203489 
v 0.371846 0.216174 0.020549 
v 0.372428 0.216039 0.0201784 
v 0.376054 0.183119 -0.0702684 
v 0.375153 0.183305 -0.069759 
v 0.372747 0.183305 -0.069759 
v 0.41515 0.177928 -0.0845302 
v 0.375774 0.216101 0.0203489 
v 0.375472 0.216039 0.0201784 
v 0.375774 0.217941 0.0254044 
v 0.376054 0.217868 0.0252043 
v 0.375472 0.218003 0.0255749 
v 0.37703 0.182627 -0.0716209 
v 0.377124 0.182511 -0.0719396 
v 0.376309 0.183036 -0.0704959 
v 0.376537 0.182945 -0.0707479 
v 0.371165 0.182845 -0.0710216 
v 0.371363 0.182945 -0.0707479 
v 0.37087 0.182627 -0.0716209 
v 0.371 0.182739 -0.0713137 
v 0.36435 0.177928 -0.0845302 
v 0.372126 0.181352 -0.0751239 
v 0.371846 0.181425 -0.0749237 
v 0.375153 0.181239 -0.0754332 
v 0.374819 0.181201 -0.0755388 
v 0.377181 0.182152 -0.0729263 
v 0.375153 0.215989 0.0200396 
v 0.376309 0.216257 0.0207764 
v 0.376054 0.216174 0.020549 
v 0.37703 0.217376 0.0238518 
v 0.377124 0.21726 0.0235332 
v 0.372126 0.217941 0.0254044 
v 0.372428 0.218003 0.0255749 
v 0.371591 0.217786 0.0249769 
v 0.371846 0.217868 0.0252043 
v 0.37087 0.217376 0.0238518 
v 0.371 0.217488 0.024159 
v 0.3769 0.182739 -0.0713137 
v 0.376735 0.182845 -0.0710216 
v 0.371591 0.183036 -0.0704959 
v 0.371846 0.183119 -0.0702684 
v 0.370719 0.182392 -0.0722659 
v 0.370776 0.182511 -0.0719396 
v 0.372428 0.18129 -0.0752943 
v 0.377124 0.182033 -0.0732526 
v 0.3769 0.216555 0.0215943 
v 0.3769 0.217488 0.024159 
v 0.376537 0.217694 0.0247249 
v 0.376735 0.217594 0.0244512 
v 0.376309 0.217786 0.0249769 
v 0.373424 0.218118 0.0258904 
v 0.373774 0.218131 0.0259262 
v 0.372747 0.218054 0.0257138 
v 0.373081 0.218092 0.0258194 
v 0.371165 0.217594 0.0244512 
v 0.371591 0.181508 -0.0746963 
v 0.375472 0.18129 -0.0752943 
v 0.37703 0.181917 -0.0735712 
v 0.3769 0.181805 -0.0738784 
v 0.376735 0.216448 0.0213022 
v 0.376537 0.216349 0.0210285 
v 0.37703 0.216666 0.0219015 
v 0.371363 0.217694 0.0247249 
v 0.370719 0.216901 0.0225465 
v 0.37087 0.181917 -0.0735712 
v 0.370776 0.182033 -0.0732526 
v 0.372747 0.181239 -0.0754332 
v 0.373424 0.181175 -0.0756099 
v 0.373081 0.181201 -0.0755388 
v 0.374476 0.181175 -0.0756099 
v 0.376054 0.181425 -0.0749237 
v 0.375774 0.181352 -0.0751239 
v 0.376537 0.181599 -0.0744443 
v 0.376309 0.181508 -0.0746963 
v 0.376735 0.181699 -0.0741706 
v 0.3707 0.217021 0.0228767 
v 0.371 0.181805 -0.0738784 
v 0.371363 0.181599 -0.0744443 
v 0.371165 0.181699 -0.0741706 
v 0.374126 0.181162 -0.0756456 
v 0.373774 0.181162 -0.0756456 
v 0.377181 0.216901 0.0225465 
v 0.377124 0.216782 0.0222202 
v 0.370719 0.217141 0.0232069 
v 0.370776 0.21726 0.0235332 
v 0.377181 0.182392 -0.0722659 
v 0.370719 0.182152 -0.0729263 
v 0.3707 0.182272 -0.0725961 
v 0.377181 0.217141 0.0232069 
v 0.3772 0.217021 0.0228767 
vn 6.3e-14 -0.939693 0.34202 
vn 6.3e-14 -0.939693 0.34202 
vn 6.3e-14 -0.939693 0.34202 
vn 6.3e-14 -0.939693 0.34202 
vn 6.3e-14 -0.939693 0.34202 
vn 6.3e-14 -0.939693 0.34202 
vn 6.3e-14 -0.939693 0.34202 
vn 6.3e-14 -0.939693 0.34202 
vn 6.3e-14 -0.939693 0.34202 
vn 6.3e-14 -0.939693 0.34202 
vn 6.3e-14 -0.939693 0.34202 
vn 6.3e-14 -0.939693 0.34202 
vn 6.3e-14 -0.939693 0.34202 
vn 6.3e-14 -0.939693 0.34202 
vn 6.3e-14 -0.939693 0.34202 
vn 6.3e-14 -0.939693 0.34202 
vn 6.3e-14 -0.939693 0.34202 
vn 6.3e-14 -0.939693 0.34202 
vn 6.3e-14 -0.939693 0.34202 
vn 6.3e-14 -0.939693 0.34202 
vn 6.3e-14 -0.939693 0.34202 
vn 6.3e-14 -0.939693 0.34202 
vn 6.3e-14 -0.939693 0.34202 
vn 6.3e-14 -0.939693 0.34202 
vn 6.3e-14 -0.939693 0.34202 
vn 6.3e-14 -0.939693 0.34202 
vn 6.3e-14 -0.939693 0.34202 
vn 6.3e-14 -0.939693 0.34202 
vn 6.3e-14 -0.939693 0.34202 
vn 6.3e-14 -0.939693 0.34202 
vn 6.3e-14 -0.939693 0.34202 
vn 6.3e-14 -0.939693 0.34202 
vn 6.3e-14 -0.939693 0.34202 
vn 6.3e-14 -0.939693 0.34202 
vn 6.3e-14 -0.939693 0.34202 
vn 6.3e-14 -0.939693 0.34202 
vn 6.3e-14 -0.939693 0.34202 
vn 6.3e-14 -0.939693 0.34202 
vn 6.3e-14 -0.939693 0.34202 
vn 6.3e-14 -0.939693 0.34202 
vn 6.3e-14 -0.939693 0.34202 
vn 6.3e-14 -0.939693 0.34202 
vn 6.3e-14 -0.939693 0.34202 
vn 6.3e-14 -0.939693 0.34202 
vn 6.3e-14 -0.939693 0.34202 
vn 6.3e-14 -0.939693 0.34202 
vn 6.3e-14 -0.939693 0.34202 
vn 6.3e-14 -0.939693 0.34202 
vn 6.3e-14 -0.939693 0.34202 
vn 6.3e-14 -0.939693 0.34202 
vn 6.3e-14 -0.939693 0.34202 
vn 6.3e-14 -0.939693 0.34202 
vn 6.3e-14 -0.939693 0.34202 
vn 6.3e-14 -0.939693 0.34202 
vn 6.3e-14 -0.939693 0.34202 
vn 6.3e-14 -0.939693 0.34202 
vn 6.3e-14 -0.939693 0.34202 
vn 6.3e-14 -0.939693 0.34202 
vn 6.3e-14 -0.939693 0.34202 
vn 6.3e-14 -0.939693 0.34202 
vn 6.3e-14 -0.939693 0.34202 
vn 6.3e-14 -0.939693 0.34202 
vn 6.3e-14 -0.939693 0.34202 
vn 6.3e-14 -0.939693 0.34202 
vn 6.3e-14 -0.939693 0.34202 
vn 6.3e-14 -0.939693 0.34202 
vn 6.3e-14 -0.939693 0.34202 
vn 6.3e-14 -0.939693 0.34202 
vn 6.3e-14 -0.939693 0.34202 
vn 6.3e-14 -0.939693 0.34202 
vn 6.3e-14 -0.939693 0.34202 
vn 6.3e-14 -0.939693 0.34202 
vn 6.3e-14 -0.939693 0.34202 
vn 6.3e-14 -0.939693 0.34202 
vn 6.3e-14 -0.939693 0.34202 
vn 6.3e-14 -0.939693 0.34202 
vn 6.3e-14 -0.939693 0.34202 
vn 6.3e-14 -0.939693 0.34202 
vn 6.3e-14 -0.939693 0.34202 
vn 6.3e-14 -0.939693 0.34202 
vn 6.3e-14 -0.939693 0.34202 
vn 6.3e-14 -0.939693 0.34202 
vn 6.3e-14 -0.939693 0.34202 
vn 6.3e-14 -0.939693 0.34202 
vn 6.3e-14 -0.939693 0.34202 
vn 6.3e-14 -0.939693 0.34202 
vn 6.3e-14 -0.939693 0.34202 
vn 6.3e-14 -0.939693 0.34202 
vn 6.3e-14 -0.939693 0.34202 
vn 6.3e-14 -0.939693 0.34202 
vn 6.3e-14 -0.939693 0.34202 
vn 6.3e-14 -0.939693 0.34202 
vn 6.3e-14 -0.939693 0.34202 
vn 6.3e-14 -0.939693 0.34202 
vn 6.3e-14 -0.939693 0.34202 
vn 6.3e-14 -0.939693 0.34202 
vn 6.3e-14 -0.939693 0.34202 
vn 6.3e-14 -0.939693 0.34202 
vn 6.3e-14 -0.939693 0.34202 
vn 6.3e-14 -0.939693 0.34202 
vn 6.3e-14 -0.939693 0.34202 
vn 6.3e-14 -0.939693 0.34202 
vn 6.3e-14 -0.939693 0.34202 
vn 6.3e-14 -0.939693 0.34202 
vn 6.3e-14 -0.939693 0.34202 
vn 6.3e-14 -0.939693 0.34202 
vn 6.3e-14 -0.939693 0.34202 
vn 6.3e-14 -0.939693 0.34202 
vn 6.3e-14 -0.939693 0.34202 
vn 6.3e-14 -0.939693 0.34202 
vn 6.3e-14 -0.939693 0.34202 
vn 6.3e-14 -0.939693 0.34202 
vn 6.3e-14 -0.939693 0.34202 
vn 6.3e-14 -0.939693 0.34202 
vn 6.3e-14 -0.939693 0.34202 
vn 6.3e-14 -0.939693 0.34202 
vn 6.3e-14 -0.939693 0.34202 
vn 6.3e-14 -0.939693 0.34202 
vn 6.3e-14 -0.939693 0.34202 
vn 6.3e-14 -0.939693 0.34202 
f 237//237 238//238 239//239 
f 239//239 240//240 237//237 
f 241//241 242//242 238//238 
f 243//243 244//244 245//245 
f 238//238 237//237 241//241 
f 246//246 245//245 247//247 
f 243//243 248//248 244//244 
f 243//243 249//249 250//250 
f 251//251 252//252 249//249 
f 251//251 253//253 254//254 
f 237//237 255//255 256//256 
f 237//237 257//257 258//258 
f 242//242 259//259 260//260 
f 240//240 257//257 237//237 
f 261//261 251//251 262//262 
f 263//263 264//264 265//265 
f 245//245 246//246 243//243 
f 249//249 243//243 251//251 
f 251//251 266//266 253//253 
f 251//251 267//267 268//268 
f 251//251 261//261 269//269 
f 256//256 270//270 237//237 
f 258//258 271//271 237//237 
f 241//241 259//259 242//242 
f 262//262 272//272 261//261 
f 265//265 273//273 263//263 
f 273//273 274//274 275//275 
f 246//246 276//276 277//277 
f 247//247 278//278 246//246 
f 237//237 279//279 280//280 
f 237//237 281//281 282//282 
f 254//254 252//252 251//251 
f 269//269 267//267 251//251 
f 271//271 255//255 237//237 
f 272//272 242//242 261//261 
f 243//243 283//283 284//284 
f 243//243 285//285 286//286 
f 287//287 288//288 289//289 
f 273//273 290//290 291//291 
f 265//265 292//292 273//273 
f 275//275 293//293 273//273 
f 273//273 294//294 295//295 
f 246//246 296//296 297//297 
f 278//278 276//276 246//246 
f 243//243 298//298 299//299 
f 243//243 300//300 301//301 
f 243//243 302//302 303//303 
f 237//237 304//304 279//279 
f 282//282 305//305 237//237 
f 268//268 266//266 251//251 
f 260//260 261//261 242//242 
f 243//243 306//306 307//307 
f 286//286 283//283 243//243 
f 287//287 308//308 309//309 
f 287//287 310//310 288//288 
f 291//291 287//287 273//273 
f 292//292 311//311 273//273 
f 295//295 274//274 273//273 
f 273//273 246//246 312//312 
f 246//246 313//313 296//296 
f 246//246 314//314 315//315 
f 277//277 316//316 246//246 
f 243//243 317//317 318//318 
f 243//243 319//319 320//320 
f 301//301 298//298 243//243 
f 303//303 321//321 243//243 
f 305//305 304//304 237//237 
f 270//270 281//281 237//237 
f 284//284 306//306 243//243 
f 309//309 243//243 287//287 
f 289//289 322//322 287//287 
f 273//273 323//323 290//290 
f 273//273 324//324 325//325 
f 293//293 263//263 273//273 
f 273//273 326//326 327//327 
f 246//246 328//328 312//312 
f 315//315 313//313 246//246 
f 318//318 248//248 243//243 
f 299//299 319//319 243//243 
f 321//321 329//329 243//243 
f 250//250 330//330 243//243 
f 309//309 285//285 243//243 
f 287//287 331//331 332//332 
f 287//287 333//333 310//310 
f 287//287 334//334 335//335 
f 291//291 336//336 287//287 
f 273//273 337//337 338//338 
f 273//273 339//339 340//340 
f 325//325 341//341 273//273 
f 264//264 237//237 265//265 
f 312//312 326//326 273//273 
f 316//316 314//314 246//246 
f 329//329 300//300 243//243 
f 243//243 330//330 342//342 
f 307//307 251//251 243//243 
f 287//287 343//343 331//331 
f 287//287 344//344 345//345 
f 335//335 333//333 287//287 
f 287//287 346//346 347//347 
f 338//338 323//323 273//273 
f 341//341 339//339 273//273 
f 327//327 294//294 273//273 
f 246//246 348//348 349//349 
f 320//320 317//317 243//243 
f 243//243 350//350 351//351 
f 280//280 352//352 237//237 
f 345//345 343//343 287//287 
f 347//347 334//334 287//287 
f 340//340 337//337 273//273 
f 349//349 328//328 246//246 
f 351//351 302//302 243//243 
f 342//342 350//350 243//243 
f 287//287 353//353 354//354 
f 322//322 344//344 287//287 
f 311//311 324//324 273//273 
f 246//246 355//355 356//356 
f 352//352 265//265 237//237 
f 332//332 353//353 287//287 
f 356//356 348//348 246//246 
f 354//354 308//308 287//287 
f 297//297 355//355 246//246 
f 336//336 346//346 287//287 
o mesh16057
v 0.36435 0.183895 -0.086702 
v 0.41515 0.183895 -0.086702 
v 0.41515 0.177928 -0.0845302 
v 0.36435 0.177928 -0.0845302 
vn 7.30624e-14 -0.34202 -0.939693 
vn 7.30624e-14 -0.34202 -0.939693 
vn 7.30624e-14 -0.34202 -0.939693 
vn 7.30624e-14 -0.34202 -0.939693 
f 357//357 358//358 359//359 
f 359//359 360//360 357//357 
o mesh16058
v 0.41515 0.177928 -0.0845302 
v 0.41515 0.183895 -0.086702 
v 0.41515 0.227332 0.0326389 
v 0.41515 0.221365 0.0348108 
vn 1 8.42493e-14 4.72732e-14 
vn 1 8.42493e-14 4.72732e-14 
vn 1 8.42493e-14 4.72732e-14 
vn 1 8.42493e-14 4.72732e-14 
f 361//361 362//362 363//363 
f 363//363 364//364 361//361 
o mesh16059
v 0.36435 0.227332 0.0326389 
v 0.36435 0.221365 0.0348108 
v 0.41515 0.221365 0.0348108 
v 0.41515 0.227332 0.0326389 
vn -7.32373e-14 0.34202 0.939693 
vn -7.32373e-14 0.34202 0.939693 
vn -7.32373e-14 0.34202 0.939693 
vn -7.32373e-14 0.34202 0.939693 
f 365//365 366//366 367//367 
f 367//367 368//368 365//365 
o mesh16060
v 0.36435 0.183895 -0.086702 
v 0.36435 0.177928 -0.0845302 
v 0.36435 0.221365 0.0348108 
v 0.36435 0.227332 0.0326389 
vn -1 -8.42493e-14 -4.72732e-14 
vn -1 -8.42493e-14 -4.72732e-14 
vn -1 -8.42493e-14 -4.72732e-14 
vn -1 -8.42493e-14 -4.72732e-14 
f 369//369 370//370 371//371 
f 371//371 372//372 369//369 
o mesh16061
v 0.377181 0.182152 -0.0729263 
v 0.3772 0.182272 -0.0725961 
v 0.3772 0.188239 -0.0747679 
v 0.377124 0.182033 -0.0732526 
v 0.377181 0.188119 -0.0750981 
v 0.37703 0.181917 -0.0735712 
v 0.377124 0.188 -0.0754244 
v 0.3769 0.181805 -0.0738784 
v 0.37703 0.187884 -0.0757431 
v 0.376735 0.181699 -0.0741706 
v 0.3769 0.187772 -0.0760503 
v 0.376537 0.181599 -0.0744443 
v 0.376735 0.187666 -0.0763424 
v 0.376309 0.181508 -0.0746963 
v 0.376537 0.187566 -0.0766161 
v 0.376054 0.181425 -0.0749237 
v 0.376309 0.187475 -0.0768682 
v 0.375774 0.181352 -0.0751239 
v 0.376054 0.187392 -0.0770956 
v 0.375472 0.18129 -0.0752943 
v 0.375774 0.187319 -0.0772957 
v 0.375153 0.181239 -0.0754332 
v 0.375472 0.187257 -0.0774662 
v 0.374819 0.181201 -0.0755388 
v 0.375153 0.187206 -0.077605 
v 0.374476 0.181175 -0.0756099 
v 0.374819 0.187168 -0.0777106 
v 0.374126 0.181162 -0.0756456 
v 0.374476 0.187142 -0.0777817 
v 0.373774 0.181162 -0.0756456 
v 0.374126 0.187129 -0.0778174 
v 0.373424 0.181175 -0.0756099 
v 0.373774 0.187129 -0.0778174 
v 0.373081 0.181201 -0.0755388 
v 0.373424 0.187142 -0.0777817 
v 0.372747 0.181239 -0.0754332 
v 0.373081 0.187168 -0.0777106 
v 0.372428 0.18129 -0.0752943 
v 0.372747 0.187206 -0.077605 
v 0.372126 0.181352 -0.0751239 
v 0.372428 0.187257 -0.0774662 
v 0.371846 0.181425 -0.0749237 
v 0.372126 0.187319 -0.0772957 
v 0.371591 0.181508 -0.0746963 
v 0.371846 0.187392 -0.0770956 
v 0.371363 0.181599 -0.0744443 
v 0.371591 0.187475 -0.0768682 
v 0.371165 0.181699 -0.0741706 
v 0.371363 0.187566 -0.0766161 
v 0.371 0.181805 -0.0738784 
v 0.371165 0.187666 -0.0763424 
v 0.37087 0.181917 -0.0735712 
v 0.371 0.187772 -0.0760503 
v 0.370776 0.182033 -0.0732526 
v 0.37087 0.187884 -0.0757431 
v 0.370719 0.182152 -0.0729263 
v 0.370776 0.188 -0.0754244 
v 0.3707 0.182272 -0.0725961 
v 0.370719 0.188119 -0.0750981 
v 0.370719 0.182392 -0.0722659 
v 0.3707 0.188239 -0.0747679 
v 0.370776 0.182511 -0.0719396 
v 0.370719 0.188359 -0.0744377 
v 0.37087 0.182627 -0.0716209 
v 0.370776 0.188478 -0.0741114 
v 0.371 0.182739 -0.0713137 
v 0.37087 0.188594 -0.0737928 
v 0.371165 0.182845 -0.0710216 
v 0.371 0.188706 -0.0734856 
v 0.371363 0.182945 -0.0707479 
v 0.371165 0.188812 -0.0731934 
v 0.371591 0.183036 -0.0704959 
v 0.371363 0.188912 -0.0729197 
v 0.371846 0.183119 -0.0702684 
v 0.371591 0.189004 -0.0726677 
v 0.372126 0.183192 -0.0700683 
v 0.371846 0.189086 -0.0724403 
v 0.372428 0.183254 -0.0698978 
v 0.372126 0.189159 -0.0722402 
v 0.372747 0.183305 -0.069759 
v 0.372428 0.189221 -0.0720697 
v 0.373081 0.183343 -0.0696534 
v 0.372747 0.189272 -0.0719308 
v 0.373424 0.183369 -0.0695823 
v 0.373081 0.18931 -0.0718252 
v 0.373774 0.183382 -0.0695466 
v 0.373424 0.189336 -0.0717541 
v 0.374126 0.183382 -0.0695466 
v 0.373774 0.189349 -0.0717184 
v 0.374476 0.183369 -0.0695823 
v 0.374126 0.189349 -0.0717184 
v 0.374819 0.183343 -0.0696534 
v 0.374476 0.189336 -0.0717541 
v 0.375153 0.183305 -0.069759 
v 0.374819 0.18931 -0.0718252 
v 0.375472 0.183254 -0.0698978 
v 0.375153 0.189272 -0.0719308 
v 0.375774 0.183192 -0.0700683 
v 0.375472 0.189221 -0.0720697 
v 0.376054 0.183119 -0.0702684 
v 0.375774 0.189159 -0.0722402 
v 0.376309 0.183036 -0.0704959 
v 0.376054 0.189086 -0.0724403 
v 0.376537 0.182945 -0.0707479 
v 0.376309 0.189004 -0.0726677 
v 0.376735 0.182845 -0.0710216 
v 0.376537 0.188912 -0.0729197 
v 0.3769 0.182739 -0.0713137 
v 0.376735 0.188812 -0.0731934 
v 0.37703 0.182627 -0.0716209 
v 0.3769 0.188706 -0.0734856 
v 0.377124 0.182511 -0.0719396 
v 0.37703 0.188594 -0.0737928 
v 0.377181 0.182392 -0.0722659 
v 0.377124 0.188478 -0.0741114 
v 0.377181 0.188359 -0.0744377 
vn -0.994138 0.0369789 0.101599 
vn -1 -8.42493e-14 -4.72732e-14 
vn -1 -8.42493e-14 -4.72732e-14 
vn -0.976621 0.0735242 0.202006 
vn -0.994138 0.0369789 0.101599 
vn -0.947653 0.109208 0.300045 
vn -0.976621 0.0735242 0.202006 
vn -0.907575 0.143611 0.394567 
vn -0.947653 0.109208 0.300045 
vn -0.856857 0.17633 0.484462 
vn -0.907575 0.143611 0.394567 
vn -0.796093 0.206982 0.568678 
vn -0.856857 0.17633 0.484462 
vn -0.725995 0.235207 0.646226 
vn -0.796093 0.206982 0.568678 
vn -0.647386 0.260675 0.716198 
vn -0.725995 0.235207 0.646226 
vn -0.561187 0.283086 0.777773 
vn -0.647386 0.260675 0.716198 
vn -0.468408 0.302179 0.83023 
vn -0.561187 0.283086 0.777773 
vn -0.370138 0.317729 0.872953 
vn -0.468408 0.302179 0.83023 
vn -0.267528 0.329554 0.905441 
vn -0.370138 0.317729 0.872953 
vn -0.161782 0.337515 0.927314 
vn -0.267528 0.329554 0.905441 
vn -0.0541389 0.341519 0.938314 
vn -0.161782 0.337515 0.927314 
vn 0.0541389 0.341519 0.938314 
vn -0.0541389 0.341519 0.938314 
vn 0.161782 0.337515 0.927314 
vn 0.0541389 0.341519 0.938314 
vn 0.267528 0.329554 0.905441 
vn 0.161782 0.337515 0.927314 
vn 0.370138 0.317729 0.872953 
vn 0.267528 0.329554 0.905441 
vn 0.468408 0.302179 0.83023 
vn 0.370138 0.317729 0.872953 
vn 0.561187 0.283086 0.777773 
vn 0.468408 0.302179 0.83023 
vn 0.647386 0.260675 0.716198 
vn 0.561187 0.283086 0.777773 
vn 0.725995 0.235207 0.646226 
vn 0.647386 0.260675 0.716198 
vn 0.796093 0.206982 0.568678 
vn 0.725995 0.235207 0.646226 
vn 0.856857 0.17633 0.484462 
vn 0.796093 0.206982 0.568678 
vn 0.907575 0.143611 0.394567 
vn 0.856857 0.17633 0.484462 
vn 0.947653 0.109208 0.300045 
vn 0.907575 0.143611 0.394567 
vn 0.976621 0.0735242 0.202006 
vn 0.947653 0.109208 0.300045 
vn 0.994138 0.0369789 0.101599 
vn 0.976621 0.0735242 0.202006 
vn 1 8.48149e-14 4.88274e-14 
vn 0.994138 0.0369789 0.101599 
vn 0.994138 -0.0369789 -0.101599 
vn 1 8.48149e-14 4.88274e-14 
vn 0.976621 -0.0735242 -0.202006 
vn 0.994138 -0.0369789 -0.101599 
vn 0.947653 -0.109208 -0.300045 
vn 0.976621 -0.0735242 -0.202006 
vn 0.907575 -0.143611 -0.394567 
vn 0.947653 -0.109208 -0.300045 
vn 0.856857 -0.17633 -0.484462 
vn 0.907575 -0.143611 -0.394567 
vn 0.796093 -0.206982 -0.568678 
vn 0.856857 -0.17633 -0.484462 
vn 0.725995 -0.235207 -0.646226 
vn 0.796093 -0.206982 -0.568678 
vn 0.647386 -0.260675 -0.716198 
vn 0.725995 -0.235207 -0.646226 
vn 0.561187 -0.283086 -0.777773 
vn 0.647386 -0.260675 -0.716198 
vn 0.468408 -0.302179 -0.83023 
vn 0.561187 -0.283086 -0.777773 
vn 0.370138 -0.317729 -0.872953 
vn 0.468408 -0.302179 -0.83023 
vn 0.267528 -0.329554 -0.905441 
vn 0.370138 -0.317729 -0.872953 
vn 0.161782 -0.337515 -0.927314 
vn 0.267528 -0.329554 -0.905441 
vn 0.0541389 -0.341519 -0.938314 
vn 0.161782 -0.337515 -0.927314 
vn -0.0541389 -0.341519 -0.938314 
vn 0.0541389 -0.341519 -0.938314 
vn -0.161782 -0.337515 -0.927314 
vn -0.0541389 -0.341519 -0.938314 
vn -0.267528 -0.329554 -0.905441 
vn -0.161782 -0.337515 -0.927314 
vn -0.370138 -0.317729 -0.872953 
vn -0.267528 -0.329554 -0.905441 
vn -0.468408 -0.302179 -0.83023 
vn -0.370138 -0.317729 -0.872953 
vn -0.561187 -0.283086 -0.777773 
vn -0.468408 -0.302179 -0.83023 
vn -0.647386 -0.260675 -0.716198 
vn -0.561187 -0.283086 -0.777773 
vn -0.725995 -0.235207 -0.646226 
vn -0.647386 -0.260675 -0.716198 
vn -0.796093 -0.206982 -0.568678 
vn -0.725995 -0.235207 -0.646226 
vn -0.856857 -0.17633 -0.484462 
vn -0.796093 -0.206982 -0.568678 
vn -0.907575 -0.143611 -0.394567 
vn -0.856857 -0.17633 -0.484462 
vn -0.947653 -0.109208 -0.300045 
vn -0.907575 -0.143611 -0.394567 
vn -0.976621 -0.0735242 -0.202006 
vn -0.947653 -0.109208 -0.300045 
vn -0.994138 -0.0369789 -0.101599 
vn -0.976621 -0.0735242 -0.202006 
vn -0.994138 -0.0369789 -0.101599 
f 373//373 374//374 375//375 
f 376//376 373//373 377//377 
f 378//378 376//376 379//379 
f 380//380 378//378 381//381 
f 382//382 380//380 383//383 
f 384//384 382//382 385//385 
f 386//386 384//384 387//387 
f 388//388 386//386 389//389 
f 390//390 388//388 391//391 
f 392//392 390//390 393//393 
f 394//394 392//392 395//395 
f 396//396 394//394 397//397 
f 398//398 396//396 399//399 
f 400//400 398//398 401//401 
f 402//402 400//400 403//403 
f 404//404 402//402 405//405 
f 406//406 404//404 407//407 
f 408//408 406//406 409//409 
f 410//410 408//408 411//411 
f 412//412 410//410 413//413 
f 414//414 412//412 415//415 
f 416//416 414//414 417//417 
f 418//418 416//416 419//419 
f 420//420 418//418 421//421 
f 422//422 420//420 423//423 
f 424//424 422//422 425//425 
f 426//426 424//424 427//427 
f 428//428 426//426 429//429 
f 430//430 428//428 431//431 
f 432//432 430//430 433//433 
f 434//434 432//432 435//435 
f 436//436 434//434 437//437 
f 438//438 436//436 439//439 
f 440//440 438//438 441//441 
f 442//442 440//440 443//443 
f 444//444 442//442 445//445 
f 446//446 444//444 447//447 
f 448//448 446//446 449//449 
f 450//450 448//448 451//451 
f 452//452 450//450 453//453 
f 454//454 452//452 455//455 
f 456//456 454//454 457//457 
f 458//458 456//456 459//459 
f 460//460 458//458 461//461 
f 462//462 460//460 463//463 
f 464//464 462//462 465//465 
f 466//466 464//464 467//467 
f 468//468 466//466 469//469 
f 470//470 468//468 471//471 
f 472//472 470//470 473//473 
f 474//474 472//472 475//475 
f 476//476 474//474 477//477 
f 478//478 476//476 479//479 
f 480//480 478//478 481//481 
f 482//482 480//480 483//483 
f 484//484 482//482 485//485 
f 486//486 484//484 487//487 
f 374//374 486//486 488//488 
f 488//488 375//375 374//374 
f 487//487 488//488 486//486 
f 485//485 487//487 484//484 
f 483//483 485//485 482//482 
f 481//481 483//483 480//480 
f 479//479 481//481 478//478 
f 477//477 479//479 476//476 
f 475//475 477//477 474//474 
f 473//473 475//475 472//472 
f 471//471 473//473 470//470 
f 469//469 471//471 468//468 
f 467//467 469//469 466//466 
f 465//465 467//467 464//464 
f 463//463 465//465 462//462 
f 461//461 463//463 460//460 
f 459//459 461//461 458//458 
f 457//457 459//459 456//456 
f 455//455 457//457 454//454 
f 453//453 455//455 452//452 
f 451//451 453//453 450//450 
f 449//449 451//451 448//448 
f 447//447 449//449 446//446 
f 445//445 447//447 444//444 
f 443//443 445//445 442//442 
f 441//441 443//443 440//440 
f 439//439 441//441 438//438 
f 437//437 439//439 436//436 
f 435//435 437//437 434//434 
f 433//433 435//435 432//432 
f 431//431 433//433 430//430 
f 429//429 431//431 428//428 
f 427//427 429//429 426//426 
f 425//425 427//427 424//424 
f 423//423 425//425 422//422 
f 421//421 423//423 420//420 
f 419//419 421//421 418//418 
f 417//417 419//419 416//416 
f 415//415 417//417 414//414 
f 413//413 415//415 412//412 
f 411//411 413//413 410//410 
f 409//409 411//411 408//408 
f 407//407 409//409 406//406 
f 405//405 407//407 404//404 
f 403//403 405//405 402//402 
f 401//401 403//403 400//400 
f 399//399 401//401 398//398 
f 397//397 399//399 396//396 
f 395//395 397//397 394//394 
f 393//393 395//395 392//392 
f 391//391 393//393 390//390 
f 389//389 391//391 388//388 
f 387//387 389//389 386//386 
f 385//385 387//387 384//384 
f 383//383 385//385 382//382 
f 381//381 383//383 380//380 
f 379//379 381//381 378//378 
f 377//377 379//379 376//376 
f 375//375 377//377 373//373 
