# OBJ generated by ONSHAPE BY PTC INC, 1.215 Units = meters
mtllib EBoxNewAsm_stp_1_Beelink_mini_PC_v4_stp_1_Beelink_mini_PC_v4_79_stp_1_solid1.mtl
g EBoxNewAsm.stp-1/Beelink mini PC v4.stp-1/Beelink mini PC v4-79.stp-1-solid1
usemtl 0.000000_0.000000_0.000000_0.000000_0.000000
o mesh7003
v 0.21315 0.250603 0.163018 
v 0.211116 0.250196 0.163166 
v 0.21065 0.249973 0.163247 
v 0.208259 0.246881 0.164372 
v 0.208177 0.246395 0.164549 
v 0.208582 0.247815 0.164032 
v 0.208395 0.247356 0.164199 
v 0.209105 0.248666 0.163723 
v 0.20882 0.248253 0.163873 
v 0.211605 0.250373 0.163101 
v 0.212627 0.250577 0.163027 
v 0.21211 0.2505 0.163055 
v 0.209434 0.249048 0.163584 
v 0.210211 0.249705 0.163344 
v 0.209804 0.249396 0.163457 
v 0.20815 0.245904 0.164728 
v 0.20815 0.237071 0.167943 
v 0.22255 0.250603 0.163018 
vn -5.09196e-14 0.34202 0.939693 
vn -5.09196e-14 0.34202 0.939693 
vn -5.09196e-14 0.34202 0.939693 
vn -5.09196e-14 0.34202 0.939693 
vn -5.09196e-14 0.34202 0.939693 
vn -5.09196e-14 0.34202 0.939693 
vn -5.09196e-14 0.34202 0.939693 
vn -5.09196e-14 0.34202 0.939693 
vn -5.09196e-14 0.34202 0.939693 
vn -5.09196e-14 0.34202 0.939693 
vn -5.09196e-14 0.34202 0.939693 
vn -5.09196e-14 0.34202 0.939693 
vn -5.09196e-14 0.34202 0.939693 
vn -5.09196e-14 0.34202 0.939693 
vn -5.09196e-14 0.34202 0.939693 
vn -5.09196e-14 0.34202 0.939693 
vn -5.09196e-14 0.34202 0.939693 
vn -5.09196e-14 0.34202 0.939693 
f 1//1 2//2 3//3 
f 1//1 4//4 5//5 
f 1//1 6//6 7//7 
f 1//1 8//8 9//9 
f 1//1 10//10 2//2 
f 1//1 11//11 12//12 
f 7//7 4//4 1//1 
f 1//1 13//13 8//8 
f 1//1 14//14 15//15 
f 12//12 10//10 1//1 
f 9//9 6//6 1//1 
f 3//3 14//14 1//1 
f 15//15 13//13 1//1 
f 5//5 16//16 1//1 
f 17//17 18//18 1//1 
f 16//16 17//17 1//1 
o mesh7004
v 0.20815 0.24522 0.162848 
v 0.20815 0.245904 0.164728 
v 0.208177 0.246395 0.164549 
v 0.208177 0.245711 0.16267 
v 0.208259 0.246881 0.164372 
v 0.208259 0.246197 0.162493 
v 0.208395 0.247356 0.164199 
v 0.208395 0.246672 0.16232 
v 0.208582 0.247815 0.164032 
v 0.208582 0.247131 0.162153 
v 0.20882 0.248253 0.163873 
v 0.20882 0.247569 0.161993 
v 0.209105 0.248666 0.163723 
v 0.209105 0.247982 0.161843 
v 0.209434 0.249048 0.163584 
v 0.209434 0.248364 0.161704 
v 0.209804 0.249396 0.163457 
v 0.209804 0.248712 0.161578 
v 0.210211 0.249705 0.163344 
v 0.210211 0.249021 0.161465 
v 0.21065 0.249973 0.163247 
v 0.21065 0.249289 0.161367 
v 0.211116 0.250196 0.163166 
v 0.211116 0.249512 0.161286 
v 0.211605 0.250373 0.163101 
v 0.211605 0.249689 0.161222 
v 0.21211 0.2505 0.163055 
v 0.21211 0.249816 0.161176 
v 0.212627 0.250577 0.163027 
v 0.212627 0.249893 0.161148 
v 0.21315 0.250603 0.163018 
v 0.21315 0.249919 0.161138 
vn -1 4.65246e-14 -7.11211e-14 
vn -1 4.65246e-14 -7.11211e-14 
vn -0.994522 0.0982246 -0.0357508 
vn -0.994522 0.0982246 -0.0357508 
vn -0.978148 0.195373 -0.07111 
vn -0.978148 0.195373 -0.07111 
vn -0.951057 0.290381 -0.10569 
vn -0.951057 0.290381 -0.10569 
vn -0.913545 0.382207 -0.139112 
vn -0.913545 0.382207 -0.139112 
vn -0.866025 0.469846 -0.17101 
vn -0.866025 0.469846 -0.17101 
vn -0.809017 0.552337 -0.201034 
vn -0.809017 0.552337 -0.201034 
vn -0.743145 0.628777 -0.228856 
vn -0.743145 0.628777 -0.228856 
vn -0.669131 0.698328 -0.25417 
vn -0.669131 0.698328 -0.25417 
vn -0.587785 0.760227 -0.2767 
vn -0.587785 0.760227 -0.2767 
vn -0.5 0.813798 -0.296198 
vn -0.5 0.813798 -0.296198 
vn -0.406737 0.858452 -0.312451 
vn -0.406737 0.858452 -0.312451 
vn -0.309017 0.893701 -0.32528 
vn -0.309017 0.893701 -0.32528 
vn -0.207912 0.919158 -0.334546 
vn -0.207912 0.919158 -0.334546 
vn -0.104528 0.934545 -0.340147 
vn -0.104528 0.934545 -0.340147 
vn 8.26946e-16 0.939693 -0.34202 
vn 8.26946e-16 0.939693 -0.34202 
f 19//19 20//20 21//21 
f 22//22 21//21 23//23 
f 24//24 23//23 25//25 
f 26//26 25//25 27//27 
f 28//28 27//27 29//29 
f 30//30 29//29 31//31 
f 32//32 31//31 33//33 
f 34//34 33//33 35//35 
f 36//36 35//35 37//37 
f 38//38 37//37 39//39 
f 40//40 39//39 41//41 
f 42//42 41//41 43//43 
f 44//44 43//43 45//45 
f 46//46 45//45 47//47 
f 48//48 47//47 49//49 
f 49//49 50//50 48//48 
f 47//47 48//48 46//46 
f 45//45 46//46 44//44 
f 43//43 44//44 42//42 
f 41//41 42//42 40//40 
f 39//39 40//40 38//38 
f 37//37 38//38 36//36 
f 35//35 36//36 34//34 
f 33//33 34//34 32//32 
f 31//31 32//32 30//30 
f 29//29 30//30 28//28 
f 27//27 28//28 26//26 
f 25//25 26//26 24//24 
f 23//23 24//24 22//22 
f 21//21 22//22 19//19 
o mesh7005
v 0.208177 0.245711 0.16267 
v 0.209434 0.248364 0.161704 
v 0.209804 0.248712 0.161578 
v 0.208582 0.247131 0.162153 
v 0.20882 0.247569 0.161993 
v 0.210211 0.249021 0.161465 
v 0.209105 0.247982 0.161843 
v 0.208259 0.246197 0.162493 
v 0.21211 0.249816 0.161176 
v 0.212627 0.249893 0.161148 
v 0.211116 0.249512 0.161286 
v 0.211605 0.249689 0.161222 
v 0.21065 0.249289 0.161367 
v 0.208395 0.246672 0.16232 
v 0.21315 0.249919 0.161138 
v 0.20815 0.24522 0.162848 
v 0.20815 0.236387 0.166063 
v 0.22255 0.249919 0.161138 
vn 5.09196e-14 -0.34202 -0.939693 
vn 5.09196e-14 -0.34202 -0.939693 
vn 5.09196e-14 -0.34202 -0.939693 
vn 5.09196e-14 -0.34202 -0.939693 
vn 5.09196e-14 -0.34202 -0.939693 
vn 5.09196e-14 -0.34202 -0.939693 
vn 5.09196e-14 -0.34202 -0.939693 
vn 5.09196e-14 -0.34202 -0.939693 
vn 5.09196e-14 -0.34202 -0.939693 
vn 5.09196e-14 -0.34202 -0.939693 
vn 5.09196e-14 -0.34202 -0.939693 
vn 5.09196e-14 -0.34202 -0.939693 
vn 5.09196e-14 -0.34202 -0.939693 
vn 5.09196e-14 -0.34202 -0.939693 
vn 5.09196e-14 -0.34202 -0.939693 
vn 5.09196e-14 -0.34202 -0.939693 
vn 5.09196e-14 -0.34202 -0.939693 
vn 5.09196e-14 -0.34202 -0.939693 
f 51//51 52//52 53//53 
f 51//51 54//54 55//55 
f 53//53 56//56 51//51 
f 55//55 57//57 51//51 
f 54//54 51//51 58//58 
f 51//51 59//59 60//60 
f 51//51 61//61 62//62 
f 56//56 63//63 51//51 
f 58//58 64//64 54//54 
f 62//62 59//59 51//51 
f 57//57 52//52 51//51 
f 63//63 61//61 51//51 
f 65//65 66//66 51//51 
f 65//65 67//67 66//66 
f 60//60 65//65 51//51 
f 65//65 68//68 67//67 
o mesh7006
v 0.22255 0.250603 0.163018 
v 0.22255 0.249919 0.161138 
v 0.21315 0.249919 0.161138 
v 0.21315 0.250603 0.163018 
vn 8.26946e-16 0.939693 -0.34202 
vn 8.26946e-16 0.939693 -0.34202 
vn 8.26946e-16 0.939693 -0.34202 
vn 8.26946e-16 0.939693 -0.34202 
f 69//69 70//70 71//71 
f 71//71 72//72 69//69 
o mesh7007
v 0.20815 0.237071 0.167943 
v 0.20815 0.236387 0.166063 
v 0.22255 0.249919 0.161138 
v 0.22255 0.250603 0.163018 
vn 0.707107 -0.664463 0.241845 
vn 0.707107 -0.664463 0.241845 
vn 0.707107 -0.664463 0.241845 
vn 0.707107 -0.664463 0.241845 
f 73//73 74//74 75//75 
f 75//75 76//76 73//73 
o mesh7008
v 0.20815 0.237071 0.167943 
v 0.20815 0.245904 0.164728 
v 0.20815 0.24522 0.162848 
v 0.20815 0.236387 0.166063 
vn -1 -1.74155e-14 -4.78488e-14 
vn -1 -1.74155e-14 -4.78488e-14 
vn -1 -1.74155e-14 -4.78488e-14 
vn -1 -1.74155e-14 -4.78488e-14 
f 77//77 78//78 79//79 
f 79//79 80//80 77//77 
