# OBJ generated by ONSHAPE BY PTC INC, 1.215 Units = meters
mtllib EBoxNewAsm_stp_1_Beelink_mini_PC_v4_stp_1_Beelink_mini_PC_v4_55_stp_1_solid1.mtl
g EBoxNewAsm.stp-1/Beelink mini PC v4.stp-1/Beelink mini PC v4-55.stp-1-solid1
usemtl 0.768627_0.207843_0.152941_0.000000_0.000000
o mesh8088
v 0.20765 0.178012 0.213129 
v 0.20765 0.177834 0.212644 
v 0.20765 0.178092 0.212613 
v 0.20765 0.178266 0.213089 
v 0.20765 0.177755 0.213149 
v 0.20765 0.177574 0.21265 
vn 1 1.74155e-14 4.78488e-14 
vn 1 1.74155e-14 4.78488e-14 
vn 1 1.74155e-14 4.78488e-14 
vn 1 1.74155e-14 4.78488e-14 
vn 1 1.74155e-14 4.78488e-14 
vn 1 1.74155e-14 4.78488e-14 
f 1//1 2//2 3//3 
f 3//3 4//4 1//1 
f 5//5 6//6 2//2 
f 1//1 5//5 2//2 
o mesh8089
v 0.20665 0.177755 0.213149 
v 0.20765 0.177755 0.213149 
v 0.20765 0.178012 0.213129 
v 0.20665 0.178012 0.213129 
v 0.20765 0.178266 0.213089 
v 0.20665 0.178266 0.213089 
vn -4.84493e-14 0.0362912 0.999341 
vn -4.84493e-14 0.0362912 0.999341 
vn -4.95364e-14 0.115196 0.993343 
vn -4.95364e-14 0.115196 0.993343 
vn -5.03134e-14 0.19338 0.981124 
vn -5.03134e-14 0.19338 0.981124 
f 7//7 8//8 9//9 
f 10//10 9//9 11//11 
f 11//11 12//12 10//10 
f 9//9 10//10 7//7 
o mesh8090
v 0.20665 0.178012 0.213129 
v 0.20665 0.178266 0.213089 
v 0.20665 0.178092 0.212613 
v 0.20665 0.177834 0.212644 
v 0.20665 0.177755 0.213149 
v 0.20665 0.177574 0.21265 
vn -1 -1.74155e-14 -4.78488e-14 
vn -1 -1.74155e-14 -4.78488e-14 
vn -1 -1.74155e-14 -4.78488e-14 
vn -1 -1.74155e-14 -4.78488e-14 
vn -1 -1.74155e-14 -4.78488e-14 
vn -1 -1.74155e-14 -4.78488e-14 
f 13//13 14//14 15//15 
f 16//16 17//17 13//13 
f 15//15 16//16 13//13 
f 16//16 18//18 17//17 
o mesh8091
v 0.20765 0.178266 0.213089 
v 0.20765 0.178092 0.212613 
v 0.20665 0.178092 0.212613 
v 0.20665 0.178266 0.213089 
vn 2.26128e-28 0.939693 -0.34202 
vn 2.26128e-28 0.939693 -0.34202 
vn 2.26128e-28 0.939693 -0.34202 
vn 2.26128e-28 0.939693 -0.34202 
f 19//19 20//20 21//21 
f 21//21 22//22 19//19 
o mesh8092
v 0.20665 0.177834 0.212644 
v 0.20665 0.178092 0.212613 
v 0.20765 0.178092 0.212613 
v 0.20665 0.177574 0.21265 
v 0.20765 0.177834 0.212644 
v 0.20765 0.177574 0.21265 
vn 4.89715e-14 -0.0715029 -0.99744 
vn 5.00709e-14 -0.165466 -0.986215 
vn 5.00709e-14 -0.165466 -0.986215 
vn 4.74337e-14 0.0231006 -0.999733 
vn 4.89715e-14 -0.0715029 -0.99744 
vn 4.74337e-14 0.0231006 -0.999733 
f 23//23 24//24 25//25 
f 26//26 23//23 27//27 
f 27//27 28//28 26//26 
f 25//25 27//27 23//23 
o mesh8093
v 0.20665 0.177755 0.213149 
v 0.20665 0.177574 0.21265 
v 0.20765 0.177574 0.21265 
v 0.20765 0.177755 0.213149 
vn 0 -0.939693 0.34202 
vn 0 -0.939693 0.34202 
vn 0 -0.939693 0.34202 
vn 0 -0.939693 0.34202 
f 29//29 30//30 31//31 
f 31//31 32//32 29//29 
