# OBJ generated by ONSHAPE BY PTC INC, 1.215 Units = meters
mtllib EBoxNewAsm_stp_1_Beelink_mini_PC_v4_stp_1_Gasket_stp_1_solid1.mtl
g EBoxNewAsm.stp-1/Beelink mini PC v4.stp-1/Gasket.stp-1-solid1
usemtl 0.152941_0.152941_0.152941_0.000000_0.000000
o mesh15683
v 0.313 0.244621 0.21734 
v 0.313 0.244279 0.2164 
v 0.312929 0.245556 0.215935 
v 0.312929 0.245898 0.216875 
v 0.312716 0.246819 0.215475 
v 0.312716 0.247161 0.216415 
v 0.312364 0.248054 0.215026 
v 0.312364 0.248396 0.215966 
v 0.311876 0.249248 0.214591 
v 0.311876 0.24959 0.215531 
v 0.311258 0.250387 0.214177 
v 0.311258 0.250729 0.215116 
v 0.310517 0.251459 0.213786 
v 0.310517 0.251801 0.214726 
v 0.309661 0.252453 0.213425 
v 0.309661 0.252795 0.214364 
v 0.308699 0.253357 0.213096 
v 0.308699 0.253699 0.214035 
v 0.307641 0.254162 0.212803 
v 0.307641 0.254504 0.213742 
v 0.3065 0.254858 0.212549 
v 0.3065 0.2552 0.213489 
v 0.305288 0.255439 0.212338 
v 0.305288 0.255781 0.213278 
v 0.304017 0.255897 0.212171 
v 0.304017 0.256239 0.213111 
v 0.302703 0.256228 0.212051 
v 0.302703 0.25657 0.21299 
v 0.301359 0.256428 0.211978 
v 0.301359 0.25677 0.212918 
v 0.3 0.256495 0.211954 
v 0.3 0.256837 0.212893 
vn 1 -7.62292e-15 5.6962e-14 
vn 1 -7.62292e-15 5.6962e-14 
vn 0.994522 0.0982246 -0.0357508 
vn 0.994522 0.0982246 -0.0357508 
vn 0.978148 0.195373 -0.07111 
vn 0.978148 0.195373 -0.07111 
vn 0.951057 0.290381 -0.10569 
vn 0.951057 0.290381 -0.10569 
vn 0.913545 0.382207 -0.139112 
vn 0.913545 0.382207 -0.139112 
vn 0.866025 0.469846 -0.17101 
vn 0.866025 0.469846 -0.17101 
vn 0.809017 0.552337 -0.201034 
vn 0.809017 0.552337 -0.201034 
vn 0.743145 0.628777 -0.228856 
vn 0.743145 0.628777 -0.228856 
vn 0.669131 0.698328 -0.25417 
vn 0.669131 0.698328 -0.25417 
vn 0.587785 0.760227 -0.2767 
vn 0.587785 0.760227 -0.2767 
vn 0.5 0.813798 -0.296198 
vn 0.5 0.813798 -0.296198 
vn 0.406737 0.858452 -0.312451 
vn 0.406737 0.858452 -0.312451 
vn 0.309017 0.893701 -0.32528 
vn 0.309017 0.893701 -0.32528 
vn 0.207912 0.919158 -0.334546 
vn 0.207912 0.919158 -0.334546 
vn 0.104528 0.934545 -0.340147 
vn 0.104528 0.934545 -0.340147 
vn -6.04901e-16 0.939693 -0.34202 
vn -6.04901e-16 0.939693 -0.34202 
f 1//1 2//2 3//3 
f 4//4 3//3 5//5 
f 6//6 5//5 7//7 
f 8//8 7//7 9//9 
f 10//10 9//9 11//11 
f 12//12 11//11 13//13 
f 14//14 13//13 15//15 
f 16//16 15//15 17//17 
f 18//18 17//17 19//19 
f 20//20 19//19 21//21 
f 22//22 21//21 23//23 
f 24//24 23//23 25//25 
f 26//26 25//25 27//27 
f 28//28 27//27 29//29 
f 30//30 29//29 31//31 
f 31//31 32//32 30//30 
f 29//29 30//30 28//28 
f 27//27 28//28 26//26 
f 25//25 26//26 24//24 
f 23//23 24//24 22//22 
f 21//21 22//22 20//20 
f 19//19 20//20 18//18 
f 17//17 18//18 16//16 
f 15//15 16//16 14//14 
f 13//13 14//14 12//12 
f 11//11 12//12 10//10 
f 9//9 10//10 8//8 
f 7//7 8//8 6//6 
f 5//5 6//6 4//4 
f 3//3 4//4 1//1 
o mesh15684
v 0.3 0.256837 0.212893 
v 0.3 0.256495 0.211954 
v 0.2313 0.256495 0.211954 
v 0.2313 0.256837 0.212893 
vn -6.04901e-16 0.939693 -0.34202 
vn -6.04901e-16 0.939693 -0.34202 
vn -6.04901e-16 0.939693 -0.34202 
vn -6.04901e-16 0.939693 -0.34202 
f 33//33 34//34 35//35 
f 35//35 36//36 33//33 
o mesh15685
v 0.313 0.171701 0.24388 
v 0.313 0.171359 0.242941 
v 0.313 0.244279 0.2164 
v 0.313 0.244621 0.21734 
vn 1 1.74155e-14 4.78488e-14 
vn 1 1.74155e-14 4.78488e-14 
vn 1 1.74155e-14 4.78488e-14 
vn 1 1.74155e-14 4.78488e-14 
f 37//37 38//38 39//39 
f 39//39 40//40 37//37 
o mesh15686
v 0.313 0.244279 0.2164 
v 0.3115 0.243766 0.21499 
v 0.311437 0.244896 0.214579 
v 0.312929 0.245556 0.215935 
v 0.311249 0.246013 0.214173 
v 0.312716 0.246819 0.215475 
v 0.310937 0.247105 0.213775 
v 0.312364 0.248054 0.215026 
v 0.310506 0.248161 0.213391 
v 0.311876 0.249248 0.214591 
v 0.309959 0.249169 0.213024 
v 0.311258 0.250387 0.214177 
v 0.309304 0.250118 0.212678 
v 0.310517 0.251459 0.213786 
v 0.308546 0.250997 0.212358 
v 0.309661 0.252453 0.213425 
v 0.307695 0.251797 0.212067 
v 0.308699 0.253357 0.213096 
v 0.30676 0.252509 0.211808 
v 0.307641 0.254162 0.212803 
v 0.30575 0.253125 0.211584 
v 0.3065 0.254858 0.212549 
v 0.304677 0.253638 0.211397 
v 0.305288 0.255439 0.212338 
v 0.303554 0.254043 0.21125 
v 0.304017 0.255897 0.212171 
v 0.302391 0.254336 0.211143 
v 0.302703 0.256228 0.212051 
v 0.301202 0.254513 0.211079 
v 0.301359 0.256428 0.211978 
v 0.3 0.254572 0.211057 
v 0.3 0.256495 0.211954 
vn 0.707107 -0.241845 -0.664463 
vn 0.707107 -0.241845 -0.664463 
vn 0.703233 -0.172389 -0.689743 
vn 0.703233 -0.172389 -0.689743 
vn 0.691655 -0.103695 -0.714745 
vn 0.691655 -0.103695 -0.714745 
vn 0.672499 -0.0365144 -0.739197 
vn 0.672499 -0.0365144 -0.739197 
vn 0.645974 0.0284167 -0.76283 
vn 0.645974 0.0284167 -0.76283 
vn 0.612372 0.0903867 -0.785385 
vn 0.612372 0.0903867 -0.785385 
vn 0.572061 0.148717 -0.806616 
vn 0.572061 0.148717 -0.806616 
vn 0.525483 0.202768 -0.826289 
vn 0.525483 0.202768 -0.826289 
vn 0.473147 0.251947 -0.844189 
vn 0.473147 0.251947 -0.844189 
vn 0.415627 0.295717 -0.86012 
vn 0.415627 0.295717 -0.86012 
vn 0.353553 0.333597 -0.873907 
vn 0.353553 0.333597 -0.873907 
vn 0.287606 0.365172 -0.885399 
vn 0.287606 0.365172 -0.885399 
vn 0.218508 0.390097 -0.894471 
vn 0.218508 0.390097 -0.894471 
vn 0.147016 0.408098 -0.901023 
vn 0.147016 0.408098 -0.901023 
vn 0.0739128 0.418978 -0.904983 
vn 0.0739128 0.418978 -0.904983 
vn -1.92774e-14 0.422618 -0.906308 
vn -1.92774e-14 0.422618 -0.906308 
f 41//41 42//42 43//43 
f 44//44 43//43 45//45 
f 46//46 45//45 47//47 
f 48//48 47//47 49//49 
f 50//50 49//49 51//51 
f 52//52 51//51 53//53 
f 54//54 53//53 55//55 
f 56//56 55//55 57//57 
f 58//58 57//57 59//59 
f 60//60 59//59 61//61 
f 62//62 61//61 63//63 
f 64//64 63//63 65//65 
f 66//66 65//65 67//67 
f 68//68 67//67 69//69 
f 70//70 69//69 71//71 
f 71//71 72//72 70//70 
f 69//69 70//70 68//68 
f 67//67 68//68 66//66 
f 65//65 66//66 64//64 
f 63//63 64//64 62//62 
f 61//61 62//62 60//60 
f 59//59 60//60 58//58 
f 57//57 58//58 56//56 
f 55//55 56//56 54//54 
f 53//53 54//54 52//52 
f 51//51 52//52 50//50 
f 49//49 50//50 48//48 
f 47//47 48//48 46//46 
f 45//45 46//46 44//44 
f 43//43 44//44 41//41 
o mesh15687
v 0.3 0.159485 0.248327 
v 0.3 0.159143 0.247387 
v 0.301359 0.15921 0.247363 
v 0.301359 0.159552 0.248302 
v 0.302703 0.15941 0.24729 
v 0.302703 0.159752 0.248229 
v 0.304017 0.159741 0.247169 
v 0.304017 0.160083 0.248109 
v 0.305288 0.160199 0.247003 
v 0.305288 0.160541 0.247942 
v 0.3065 0.160779 0.246791 
v 0.3065 0.161121 0.247731 
v 0.307641 0.161476 0.246538 
v 0.307641 0.161818 0.247477 
v 0.308699 0.162281 0.246245 
v 0.308699 0.162623 0.247185 
v 0.309661 0.163185 0.245916 
v 0.309661 0.163527 0.246855 
v 0.310517 0.164178 0.245554 
v 0.310517 0.16452 0.246494 
v 0.311258 0.165251 0.245164 
v 0.311258 0.165593 0.246103 
v 0.311876 0.16639 0.244749 
v 0.311876 0.166732 0.245689 
v 0.312364 0.167584 0.244315 
v 0.312364 0.167926 0.245254 
v 0.312716 0.168819 0.243865 
v 0.312716 0.169161 0.244805 
v 0.312929 0.170082 0.243405 
v 0.312929 0.170424 0.244345 
v 0.313 0.171359 0.242941 
v 0.313 0.171701 0.24388 
vn -3.41607e-16 -0.939693 0.34202 
vn -3.41607e-16 -0.939693 0.34202 
vn 0.104528 -0.934545 0.340147 
vn 0.104528 -0.934545 0.340147 
vn 0.207912 -0.919158 0.334546 
vn 0.207912 -0.919158 0.334546 
vn 0.309017 -0.893701 0.32528 
vn 0.309017 -0.893701 0.32528 
vn 0.406737 -0.858452 0.312451 
vn 0.406737 -0.858452 0.312451 
vn 0.5 -0.813798 0.296198 
vn 0.5 -0.813798 0.296198 
vn 0.587785 -0.760227 0.2767 
vn 0.587785 -0.760227 0.2767 
vn 0.669131 -0.698328 0.25417 
vn 0.669131 -0.698328 0.25417 
vn 0.743145 -0.628777 0.228856 
vn 0.743145 -0.628777 0.228856 
vn 0.809017 -0.552337 0.201034 
vn 0.809017 -0.552337 0.201034 
vn 0.866025 -0.469846 0.17101 
vn 0.866025 -0.469846 0.17101 
vn 0.913545 -0.382207 0.139112 
vn 0.913545 -0.382207 0.139112 
vn 0.951057 -0.290381 0.10569 
vn 0.951057 -0.290381 0.10569 
vn 0.978148 -0.195373 0.07111 
vn 0.978148 -0.195373 0.07111 
vn 0.994522 -0.0982246 0.0357508 
vn 0.994522 -0.0982246 0.0357508 
vn 1 -8.00146e-15 5.70998e-14 
vn 1 -8.00146e-15 5.70998e-14 
f 73//73 74//74 75//75 
f 76//76 75//75 77//77 
f 78//78 77//77 79//79 
f 80//80 79//79 81//81 
f 82//82 81//81 83//83 
f 84//84 83//83 85//85 
f 86//86 85//85 87//87 
f 88//88 87//87 89//89 
f 90//90 89//89 91//91 
f 92//92 91//91 93//93 
f 94//94 93//93 95//95 
f 96//96 95//95 97//97 
f 98//98 97//97 99//99 
f 100//100 99//99 101//101 
f 102//102 101//101 103//103 
f 103//103 104//104 102//102 
f 101//101 102//102 100//100 
f 99//99 100//100 98//98 
f 97//97 98//98 96//96 
f 95//95 96//96 94//94 
f 93//93 94//94 92//92 
f 91//91 92//92 90//90 
f 89//89 90//90 88//88 
f 87//87 88//88 86//86 
f 85//85 86//86 84//84 
f 83//83 84//84 82//82 
f 81//81 82//82 80//80 
f 79//79 80//80 78//78 
f 77//77 78//78 76//76 
f 75//75 76//76 73//73 
o mesh15688
v 0.3115 0.243766 0.21499 
v 0.313 0.244279 0.2164 
v 0.313 0.171359 0.242941 
v 0.3115 0.170846 0.241531 
vn 0.707107 -0.241845 -0.664463 
vn 0.707107 -0.241845 -0.664463 
vn 0.707107 -0.241845 -0.664463 
vn 0.707107 -0.241845 -0.664463 
f 105//105 106//106 107//107 
f 107//107 108//108 105//105 
o mesh15689
v 0.2313 0.159143 0.247387 
v 0.3 0.159143 0.247387 
v 0.3 0.159485 0.248327 
v 0.2313 0.159485 0.248327 
vn 0 -0.939693 0.34202 
vn 0 -0.939693 0.34202 
vn 0 -0.939693 0.34202 
vn 0 -0.939693 0.34202 
f 109//109 110//110 111//111 
f 111//111 112//112 109//109 
o mesh15690
v 0.3 0.159143 0.247387 
v 0.3 0.160039 0.245464 
v 0.301202 0.160099 0.245443 
v 0.301359 0.15921 0.247363 
v 0.302391 0.160275 0.245378 
v 0.302703 0.15941 0.24729 
v 0.303554 0.160568 0.245272 
v 0.304017 0.159741 0.247169 
v 0.304677 0.160974 0.245124 
v 0.305288 0.160199 0.247003 
v 0.30575 0.161487 0.244937 
v 0.3065 0.160779 0.246791 
v 0.30676 0.162103 0.244713 
v 0.307641 0.161476 0.246538 
v 0.307695 0.162815 0.244454 
v 0.308699 0.162281 0.246245 
v 0.308546 0.163615 0.244163 
v 0.309661 0.163185 0.245916 
v 0.309304 0.164494 0.243843 
v 0.310517 0.164178 0.245554 
v 0.309959 0.165443 0.243498 
v 0.311258 0.165251 0.245164 
v 0.310506 0.16645 0.243131 
v 0.311876 0.16639 0.244749 
v 0.310937 0.167506 0.242747 
v 0.312364 0.167584 0.244315 
v 0.311249 0.168599 0.242349 
v 0.312716 0.168819 0.243865 
v 0.311437 0.169716 0.241942 
v 0.312929 0.170082 0.243405 
v 0.3115 0.170846 0.241531 
v 0.313 0.171359 0.242941 
vn 3.26238e-14 -0.906308 -0.422618 
vn 3.26238e-14 -0.906308 -0.422618 
vn 0.0739128 -0.902668 -0.423943 
vn 0.0739128 -0.902668 -0.423943 
vn 0.147016 -0.891788 -0.427903 
vn 0.147016 -0.891788 -0.427903 
vn 0.218508 -0.873787 -0.434455 
vn 0.218508 -0.873787 -0.434455 
vn 0.287606 -0.848862 -0.443527 
vn 0.287606 -0.848862 -0.443527 
vn 0.353553 -0.817287 -0.455019 
vn 0.353553 -0.817287 -0.455019 
vn 0.415627 -0.779407 -0.468807 
vn 0.415627 -0.779407 -0.468807 
vn 0.473147 -0.735637 -0.484737 
vn 0.473147 -0.735637 -0.484737 
vn 0.525483 -0.686457 -0.502637 
vn 0.525483 -0.686457 -0.502637 
vn 0.572061 -0.632406 -0.52231 
vn 0.572061 -0.632406 -0.52231 
vn 0.612372 -0.574076 -0.543541 
vn 0.612372 -0.574076 -0.543541 
vn 0.645974 -0.512106 -0.566096 
vn 0.645974 -0.512106 -0.566096 
vn 0.672499 -0.447175 -0.589729 
vn 0.672499 -0.447175 -0.589729 
vn 0.691655 -0.379994 -0.614181 
vn 0.691655 -0.379994 -0.614181 
vn 0.703233 -0.3113 -0.639183 
vn 0.703233 -0.3113 -0.639183 
vn 0.707107 -0.241845 -0.664463 
vn 0.707107 -0.241845 -0.664463 
f 113//113 114//114 115//115 
f 116//116 115//115 117//117 
f 118//118 117//117 119//119 
f 120//120 119//119 121//121 
f 122//122 121//121 123//123 
f 124//124 123//123 125//125 
f 126//126 125//125 127//127 
f 128//128 127//127 129//129 
f 130//130 129//129 131//131 
f 132//132 131//131 133//133 
f 134//134 133//133 135//135 
f 136//136 135//135 137//137 
f 138//138 137//137 139//139 
f 140//140 139//139 141//141 
f 142//142 141//141 143//143 
f 143//143 144//144 142//142 
f 141//141 142//142 140//140 
f 139//139 140//140 138//138 
f 137//137 138//138 136//136 
f 135//135 136//136 134//134 
f 133//133 134//134 132//132 
f 131//131 132//132 130//130 
f 129//129 130//130 128//128 
f 127//127 128//128 126//126 
f 125//125 126//126 124//124 
f 123//123 124//124 122//122 
f 121//121 122//122 120//120 
f 119//119 120//120 118//118 
f 117//117 118//118 116//116 
f 115//115 116//116 113//113 
o mesh15691
v 0.3115 0.243766 0.21499 
v 0.3115 0.170846 0.241531 
v 0.31 0.171359 0.242941 
v 0.31 0.244279 0.2164 
vn -0.707107 -0.241845 -0.664463 
vn -0.707107 -0.241845 -0.664463 
vn -0.707107 -0.241845 -0.664463 
vn -0.707107 -0.241845 -0.664463 
f 145//145 146//146 147//147 
f 147//147 148//148 145//145 
o mesh15692
v 0.2183 0.171701 0.24388 
v 0.2183 0.171359 0.242941 
v 0.218371 0.170082 0.243405 
v 0.218371 0.170424 0.244345 
v 0.218584 0.168819 0.243865 
v 0.218584 0.169161 0.244805 
v 0.218936 0.167584 0.244315 
v 0.218936 0.167926 0.245254 
v 0.219424 0.16639 0.244749 
v 0.219424 0.166732 0.245689 
v 0.220042 0.165251 0.245164 
v 0.220042 0.165593 0.246103 
v 0.220783 0.164178 0.245554 
v 0.220783 0.16452 0.246494 
v 0.221639 0.163185 0.245916 
v 0.221639 0.163527 0.246855 
v 0.222601 0.162281 0.246245 
v 0.222601 0.162623 0.247185 
v 0.223659 0.161476 0.246538 
v 0.223659 0.161818 0.247477 
v 0.2248 0.160779 0.246791 
v 0.2248 0.161121 0.247731 
v 0.226012 0.160199 0.247003 
v 0.226012 0.160541 0.247942 
v 0.227283 0.159741 0.247169 
v 0.227283 0.160083 0.248109 
v 0.228597 0.15941 0.24729 
v 0.228597 0.159752 0.248229 
v 0.229941 0.15921 0.247363 
v 0.229941 0.159552 0.248302 
v 0.2313 0.159143 0.247387 
v 0.2313 0.159485 0.248327 
vn -1 6.7883e-15 -5.66582e-14 
vn -1 6.7883e-15 -5.66582e-14 
vn -0.994522 -0.0982246 0.0357508 
vn -0.994522 -0.0982246 0.0357508 
vn -0.978148 -0.195373 0.07111 
vn -0.978148 -0.195373 0.07111 
vn -0.951057 -0.290381 0.10569 
vn -0.951057 -0.290381 0.10569 
vn -0.913545 -0.382207 0.139112 
vn -0.913545 -0.382207 0.139112 
vn -0.866025 -0.469846 0.17101 
vn -0.866025 -0.469846 0.17101 
vn -0.809017 -0.552337 0.201034 
vn -0.809017 -0.552337 0.201034 
vn -0.743145 -0.628777 0.228856 
vn -0.743145 -0.628777 0.228856 
vn -0.669131 -0.698328 0.25417 
vn -0.669131 -0.698328 0.25417 
vn -0.587785 -0.760227 0.2767 
vn -0.587785 -0.760227 0.2767 
vn -0.5 -0.813798 0.296198 
vn -0.5 -0.813798 0.296198 
vn -0.406737 -0.858452 0.312451 
vn -0.406737 -0.858452 0.312451 
vn -0.309017 -0.893701 0.32528 
vn -0.309017 -0.893701 0.32528 
vn -0.207912 -0.919158 0.334546 
vn -0.207912 -0.919158 0.334546 
vn -0.104528 -0.934545 0.340147 
vn -0.104528 -0.934545 0.340147 
vn -7.27366e-16 -0.939693 0.34202 
vn -7.27366e-16 -0.939693 0.34202 
f 149//149 150//150 151//151 
f 152//152 151//151 153//153 
f 154//154 153//153 155//155 
f 156//156 155//155 157//157 
f 158//158 157//157 159//159 
f 160//160 159//159 161//161 
f 162//162 161//161 163//163 
f 164//164 163//163 165//165 
f 166//166 165//165 167//167 
f 168//168 167//167 169//169 
f 170//170 169//169 171//171 
f 172//172 171//171 173//173 
f 174//174 173//173 175//175 
f 176//176 175//175 177//177 
f 178//178 177//177 179//179 
f 179//179 180//180 178//178 
f 177//177 178//178 176//176 
f 175//175 176//176 174//174 
f 173//173 174//174 172//172 
f 171//171 172//172 170//170 
f 169//169 170//170 168//168 
f 167//167 168//168 166//166 
f 165//165 166//166 164//164 
f 163//163 164//164 162//162 
f 161//161 162//162 160//160 
f 159//159 160//160 158//158 
f 157//157 158//158 156//156 
f 155//155 156//156 154//154 
f 153//153 154//154 152//152 
f 151//151 152//152 149//149 
o mesh15693
v 0.2183 0.244621 0.21734 
v 0.2183 0.244279 0.2164 
v 0.2183 0.171359 0.242941 
v 0.2183 0.171701 0.24388 
vn -1 -1.74155e-14 -4.78488e-14 
vn -1 -1.74155e-14 -4.78488e-14 
vn -1 -1.74155e-14 -4.78488e-14 
vn -1 -1.74155e-14 -4.78488e-14 
f 181//181 182//182 183//183 
f 183//183 184//184 181//181 
o mesh15694
v 0.2313 0.256837 0.212893 
v 0.2313 0.256495 0.211954 
v 0.229941 0.256428 0.211978 
v 0.229941 0.25677 0.212918 
v 0.228597 0.256228 0.212051 
v 0.228597 0.25657 0.21299 
v 0.227283 0.255897 0.212171 
v 0.227283 0.256239 0.213111 
v 0.226012 0.255439 0.212338 
v 0.226012 0.255781 0.213278 
v 0.2248 0.254858 0.212549 
v 0.2248 0.2552 0.213489 
v 0.223659 0.254162 0.212803 
v 0.223659 0.254504 0.213742 
v 0.222601 0.253357 0.213096 
v 0.222601 0.253699 0.214035 
v 0.221639 0.252453 0.213425 
v 0.221639 0.252795 0.214364 
v 0.220783 0.251459 0.213786 
v 0.220783 0.251801 0.214726 
v 0.220042 0.250387 0.214177 
v 0.220042 0.250729 0.215116 
v 0.219424 0.249248 0.214591 
v 0.219424 0.24959 0.215531 
v 0.218936 0.248054 0.215026 
v 0.218936 0.248396 0.215966 
v 0.218584 0.246819 0.215475 
v 0.218584 0.247161 0.216415 
v 0.218371 0.245556 0.215935 
v 0.218371 0.245898 0.216875 
v 0.2183 0.244279 0.2164 
v 0.2183 0.244621 0.21734 
vn -7.06394e-16 0.939693 -0.34202 
vn -7.06394e-16 0.939693 -0.34202 
vn -0.104528 0.934545 -0.340147 
vn -0.104528 0.934545 -0.340147 
vn -0.207912 0.919158 -0.334546 
vn -0.207912 0.919158 -0.334546 
vn -0.309017 0.893701 -0.32528 
vn -0.309017 0.893701 -0.32528 
vn -0.406737 0.858452 -0.312451 
vn -0.406737 0.858452 -0.312451 
vn -0.5 0.813798 -0.296198 
vn -0.5 0.813798 -0.296198 
vn -0.587785 0.760227 -0.2767 
vn -0.587785 0.760227 -0.2767 
vn -0.669131 0.698328 -0.25417 
vn -0.669131 0.698328 -0.25417 
vn -0.743145 0.628777 -0.228856 
vn -0.743145 0.628777 -0.228856 
vn -0.809017 0.552337 -0.201034 
vn -0.809017 0.552337 -0.201034 
vn -0.866025 0.469846 -0.17101 
vn -0.866025 0.469846 -0.17101 
vn -0.913545 0.382207 -0.139112 
vn -0.913545 0.382207 -0.139112 
vn -0.951057 0.290381 -0.10569 
vn -0.951057 0.290381 -0.10569 
vn -0.978148 0.195373 -0.07111 
vn -0.978148 0.195373 -0.07111 
vn -0.994522 0.0982246 -0.0357508 
vn -0.994522 0.0982246 -0.0357508 
vn -1 -1.65234e-14 -4.81735e-14 
vn -1 -1.65234e-14 -4.81735e-14 
f 185//185 186//186 187//187 
f 188//188 187//187 189//189 
f 190//190 189//189 191//191 
f 192//192 191//191 193//193 
f 194//194 193//193 195//195 
f 196//196 195//195 197//197 
f 198//198 197//197 199//199 
f 200//200 199//199 201//201 
f 202//202 201//201 203//203 
f 204//204 203//203 205//205 
f 206//206 205//205 207//207 
f 208//208 207//207 209//209 
f 210//210 209//209 211//211 
f 212//212 211//211 213//213 
f 214//214 213//213 215//215 
f 215//215 216//216 214//214 
f 213//213 214//214 212//212 
f 211//211 212//212 210//210 
f 209//209 210//210 208//208 
f 207//207 208//208 206//206 
f 205//205 206//206 204//204 
f 203//203 204//204 202//202 
f 201//201 202//202 200//200 
f 199//199 200//200 198//198 
f 197//197 198//198 196//196 
f 195//195 196//196 194//194 
f 193//193 194//194 192//192 
f 191//191 192//192 190//190 
f 189//189 190//190 188//188 
f 187//187 188//188 185//185 
o mesh15695
v 0.2313 0.254572 0.211057 
v 0.2313 0.256495 0.211954 
v 0.3 0.256495 0.211954 
v 0.3 0.254572 0.211057 
vn 3.60056e-14 0.422618 -0.906308 
vn 3.60056e-14 0.422618 -0.906308 
vn 3.60056e-14 0.422618 -0.906308 
vn 3.60056e-14 0.422618 -0.906308 
f 217//217 218//218 219//219 
f 219//219 220//220 217//217 
o mesh15696
v 0.2313 0.256495 0.211954 
v 0.2313 0.254572 0.211057 
v 0.230098 0.254513 0.211079 
v 0.229941 0.256428 0.211978 
v 0.228909 0.254336 0.211143 
v 0.228597 0.256228 0.212051 
v 0.227746 0.254043 0.21125 
v 0.227283 0.255897 0.212171 
v 0.226623 0.253638 0.211397 
v 0.226012 0.255439 0.212338 
v 0.22555 0.253125 0.211584 
v 0.2248 0.254858 0.212549 
v 0.22454 0.252509 0.211808 
v 0.223659 0.254162 0.212803 
v 0.223605 0.251797 0.212067 
v 0.222601 0.253357 0.213096 
v 0.222754 0.250997 0.212358 
v 0.221639 0.252453 0.213425 
v 0.221996 0.250118 0.212678 
v 0.220783 0.251459 0.213786 
v 0.221341 0.249169 0.213024 
v 0.220042 0.250387 0.214177 
v 0.220794 0.248161 0.213391 
v 0.219424 0.249248 0.214591 
v 0.220363 0.247105 0.213775 
v 0.218936 0.248054 0.215026 
v 0.220051 0.246013 0.214173 
v 0.218584 0.246819 0.215475 
v 0.219863 0.244896 0.214579 
v 0.218371 0.245556 0.215935 
v 0.2198 0.243766 0.21499 
v 0.2183 0.244279 0.2164 
vn 3.60056e-14 0.422618 -0.906308 
vn 3.60056e-14 0.422618 -0.906308 
vn -0.0739128 0.418978 -0.904983 
vn -0.0739128 0.418978 -0.904983 
vn -0.147016 0.408098 -0.901023 
vn -0.147016 0.408098 -0.901023 
vn -0.218508 0.390097 -0.894471 
vn -0.218508 0.390097 -0.894471 
vn -0.287606 0.365172 -0.885399 
vn -0.287606 0.365172 -0.885399 
vn -0.353553 0.333597 -0.873907 
vn -0.353553 0.333597 -0.873907 
vn -0.415627 0.295717 -0.86012 
vn -0.415627 0.295717 -0.86012 
vn -0.473147 0.251947 -0.844189 
vn -0.473147 0.251947 -0.844189 
vn -0.525483 0.202768 -0.826289 
vn -0.525483 0.202768 -0.826289 
vn -0.572061 0.148717 -0.806616 
vn -0.572061 0.148717 -0.806616 
vn -0.612372 0.0903867 -0.785385 
vn -0.612372 0.0903867 -0.785385 
vn -0.645974 0.0284167 -0.76283 
vn -0.645974 0.0284167 -0.76283 
vn -0.672499 -0.0365144 -0.739197 
vn -0.672499 -0.0365144 -0.739197 
vn -0.691655 -0.103695 -0.714745 
vn -0.691655 -0.103695 -0.714745 
vn -0.703233 -0.172389 -0.689743 
vn -0.703233 -0.172389 -0.689743 
vn -0.707107 -0.241845 -0.664463 
vn -0.707107 -0.241845 -0.664463 
f 221//221 222//222 223//223 
f 224//224 223//223 225//225 
f 226//226 225//225 227//227 
f 228//228 227//227 229//229 
f 230//230 229//229 231//231 
f 232//232 231//231 233//233 
f 234//234 233//233 235//235 
f 236//236 235//235 237//237 
f 238//238 237//237 239//239 
f 240//240 239//239 241//241 
f 242//242 241//241 243//243 
f 244//244 243//243 245//245 
f 246//246 245//245 247//247 
f 248//248 247//247 249//249 
f 250//250 249//249 251//251 
f 251//251 252//252 250//250 
f 249//249 250//250 248//248 
f 247//247 248//248 246//246 
f 245//245 246//246 244//244 
f 243//243 244//244 242//242 
f 241//241 242//242 240//240 
f 239//239 240//240 238//238 
f 237//237 238//238 236//236 
f 235//235 236//236 234//234 
f 233//233 234//234 232//232 
f 231//231 232//232 230//230 
f 229//229 230//230 228//228 
f 227//227 228//228 226//226 
f 225//225 226//226 224//224 
f 223//223 224//224 221//221 
o mesh15697
v 0.2198 0.170846 0.241531 
v 0.2183 0.171359 0.242941 
v 0.2183 0.244279 0.2164 
v 0.2198 0.243766 0.21499 
vn -0.707107 -0.241845 -0.664463 
vn -0.707107 -0.241845 -0.664463 
vn -0.707107 -0.241845 -0.664463 
vn -0.707107 -0.241845 -0.664463 
f 253//253 254//254 255//255 
f 255//255 256//256 253//253 
o mesh15698
v 0.2183 0.171359 0.242941 
v 0.2198 0.170846 0.241531 
v 0.219863 0.169716 0.241942 
v 0.218371 0.170082 0.243405 
v 0.220051 0.168599 0.242349 
v 0.218584 0.168819 0.243865 
v 0.220363 0.167506 0.242747 
v 0.218936 0.167584 0.244315 
v 0.220794 0.16645 0.243131 
v 0.219424 0.16639 0.244749 
v 0.221341 0.165443 0.243498 
v 0.220042 0.165251 0.245164 
v 0.221996 0.164494 0.243843 
v 0.220783 0.164178 0.245554 
v 0.222754 0.163615 0.244163 
v 0.221639 0.163185 0.245916 
v 0.223605 0.162815 0.244454 
v 0.222601 0.162281 0.246245 
v 0.22454 0.162103 0.244713 
v 0.223659 0.161476 0.246538 
v 0.22555 0.161487 0.244937 
v 0.2248 0.160779 0.246791 
v 0.226623 0.160974 0.245124 
v 0.226012 0.160199 0.247003 
v 0.227746 0.160568 0.245272 
v 0.227283 0.159741 0.247169 
v 0.228909 0.160275 0.245378 
v 0.228597 0.15941 0.24729 
v 0.230098 0.160099 0.245443 
v 0.229941 0.15921 0.247363 
v 0.2313 0.160039 0.245464 
v 0.2313 0.159143 0.247387 
vn -0.707107 -0.241845 -0.664463 
vn -0.707107 -0.241845 -0.664463 
vn -0.703233 -0.3113 -0.639183 
vn -0.703233 -0.3113 -0.639183 
vn -0.691655 -0.379994 -0.614181 
vn -0.691655 -0.379994 -0.614181 
vn -0.672499 -0.447175 -0.589729 
vn -0.672499 -0.447175 -0.589729 
vn -0.645974 -0.512106 -0.566096 
vn -0.645974 -0.512106 -0.566096 
vn -0.612372 -0.574076 -0.543541 
vn -0.612372 -0.574076 -0.543541 
vn -0.572061 -0.632406 -0.52231 
vn -0.572061 -0.632406 -0.52231 
vn -0.525483 -0.686457 -0.502637 
vn -0.525483 -0.686457 -0.502637 
vn -0.473147 -0.735637 -0.484737 
vn -0.473147 -0.735637 -0.484737 
vn -0.415627 -0.779407 -0.468807 
vn -0.415627 -0.779407 -0.468807 
vn -0.353553 -0.817287 -0.455019 
vn -0.353553 -0.817287 -0.455019 
vn -0.287606 -0.848862 -0.443527 
vn -0.287606 -0.848862 -0.443527 
vn -0.218508 -0.873787 -0.434455 
vn -0.218508 -0.873787 -0.434455 
vn -0.147016 -0.891788 -0.427903 
vn -0.147016 -0.891788 -0.427903 
vn -0.0739128 -0.902668 -0.423943 
vn -0.0739128 -0.902668 -0.423943 
vn 3.82177e-14 -0.906308 -0.422618 
vn 3.82177e-14 -0.906308 -0.422618 
f 257//257 258//258 259//259 
f 260//260 259//259 261//261 
f 262//262 261//261 263//263 
f 264//264 263//263 265//265 
f 266//266 265//265 267//267 
f 268//268 267//267 269//269 
f 270//270 269//269 271//271 
f 272//272 271//271 273//273 
f 274//274 273//273 275//275 
f 276//276 275//275 277//277 
f 278//278 277//277 279//279 
f 280//280 279//279 281//281 
f 282//282 281//281 283//283 
f 284//284 283//283 285//285 
f 286//286 285//285 287//287 
f 287//287 288//288 286//286 
f 285//285 286//286 284//284 
f 283//283 284//284 282//282 
f 281//281 282//282 280//280 
f 279//279 280//280 278//278 
f 277//277 278//278 276//276 
f 275//275 276//276 274//274 
f 273//273 274//274 272//272 
f 271//271 272//272 270//270 
f 269//269 270//270 268//268 
f 267//267 268//268 266//266 
f 265//265 266//266 264//264 
f 263//263 264//264 262//262 
f 261//261 262//262 260//260 
f 259//259 260//260 257//257 
o mesh15699
v 0.2313 0.159143 0.247387 
v 0.2313 0.160039 0.245464 
v 0.3 0.160039 0.245464 
v 0.3 0.159143 0.247387 
vn 3.82177e-14 -0.906308 -0.422618 
vn 3.82177e-14 -0.906308 -0.422618 
vn 3.82177e-14 -0.906308 -0.422618 
vn 3.82177e-14 -0.906308 -0.422618 
f 289//289 290//290 291//291 
f 291//291 292//292 289//289 
o mesh15700
v 0.3115 0.170846 0.241531 
v 0.311437 0.169716 0.241942 
v 0.309945 0.170377 0.243298 
v 0.311249 0.168599 0.242349 
v 0.309781 0.169405 0.243652 
v 0.310937 0.167506 0.242747 
v 0.309511 0.168455 0.243998 
v 0.310506 0.16645 0.243131 
v 0.309135 0.167537 0.244332 
v 0.309959 0.165443 0.243498 
v 0.30866 0.16666 0.244651 
v 0.309304 0.164494 0.243843 
v 0.30809 0.165835 0.244951 
v 0.308546 0.163615 0.244163 
v 0.307431 0.165071 0.245229 
v 0.307695 0.162815 0.244454 
v 0.306691 0.164376 0.245482 
v 0.30676 0.162103 0.244713 
v 0.305878 0.163757 0.245708 
v 0.30575 0.161487 0.244937 
v 0.305 0.163221 0.245903 
v 0.304677 0.160974 0.245124 
v 0.304067 0.162774 0.246065 
v 0.303554 0.160568 0.245272 
v 0.30309 0.162422 0.246193 
v 0.302391 0.160275 0.245378 
v 0.302079 0.162167 0.246286 
v 0.301202 0.160099 0.245443 
v 0.301045 0.162013 0.246342 
v 0.3 0.160039 0.245464 
v 0.3 0.161962 0.246361 
v 0.31 0.171359 0.242941 
vn -0.707107 -0.241845 -0.664463 
vn -0.703233 -0.172389 -0.689743 
vn -0.703233 -0.172389 -0.689743 
vn -0.691655 -0.103695 -0.714745 
vn -0.691655 -0.103695 -0.714745 
vn -0.672499 -0.0365144 -0.739197 
vn -0.672499 -0.0365144 -0.739197 
vn -0.645974 0.0284167 -0.76283 
vn -0.645974 0.0284167 -0.76283 
vn -0.612372 0.0903867 -0.785385 
vn -0.612372 0.0903867 -0.785385 
vn -0.572061 0.148717 -0.806616 
vn -0.572061 0.148717 -0.806616 
vn -0.525483 0.202768 -0.826289 
vn -0.525483 0.202768 -0.826289 
vn -0.473147 0.251947 -0.844189 
vn -0.473147 0.251947 -0.844189 
vn -0.415627 0.295717 -0.86012 
vn -0.415627 0.295717 -0.86012 
vn -0.353553 0.333597 -0.873907 
vn -0.353553 0.333597 -0.873907 
vn -0.287606 0.365172 -0.885399 
vn -0.287606 0.365172 -0.885399 
vn -0.218508 0.390097 -0.894471 
vn -0.218508 0.390097 -0.894471 
vn -0.147016 0.408098 -0.901023 
vn -0.147016 0.408098 -0.901023 
vn -0.0739128 0.418978 -0.904983 
vn -0.0739128 0.418978 -0.904983 
vn 3.21449e-14 0.422618 -0.906308 
vn 3.21449e-14 0.422618 -0.906308 
vn -0.707107 -0.241845 -0.664463 
f 293//293 294//294 295//295 
f 294//294 296//296 297//297 
f 296//296 298//298 299//299 
f 298//298 300//300 301//301 
f 300//300 302//302 303//303 
f 302//302 304//304 305//305 
f 304//304 306//306 307//307 
f 306//306 308//308 309//309 
f 308//308 310//310 311//311 
f 310//310 312//312 313//313 
f 312//312 314//314 315//315 
f 314//314 316//316 317//317 
f 316//316 318//318 319//319 
f 318//318 320//320 321//321 
f 320//320 322//322 323//323 
f 323//323 321//321 320//320 
f 321//321 319//319 318//318 
f 319//319 317//317 316//316 
f 317//317 315//315 314//314 
f 315//315 313//313 312//312 
f 313//313 311//311 310//310 
f 311//311 309//309 308//308 
f 309//309 307//307 306//306 
f 307//307 305//305 304//304 
f 305//305 303//303 302//302 
f 303//303 301//301 300//300 
f 301//301 299//299 298//298 
f 299//299 297//297 296//296 
f 297//297 295//295 294//294 
f 295//295 324//324 293//293 
o mesh15701
v 0.309945 0.170719 0.244238 
v 0.31 0.171701 0.24388 
v 0.31 0.171359 0.242941 
v 0.309781 0.169747 0.244591 
v 0.309945 0.170377 0.243298 
v 0.309511 0.168797 0.244937 
v 0.309781 0.169405 0.243652 
v 0.309135 0.167879 0.245271 
v 0.309511 0.168455 0.243998 
v 0.30866 0.167002 0.24559 
v 0.309135 0.167537 0.244332 
v 0.30809 0.166177 0.245891 
v 0.30866 0.16666 0.244651 
v 0.307431 0.165413 0.246169 
v 0.30809 0.165835 0.244951 
v 0.306691 0.164718 0.246422 
v 0.307431 0.165071 0.245229 
v 0.305878 0.164099 0.246647 
v 0.306691 0.164376 0.245482 
v 0.305 0.163563 0.246842 
v 0.305878 0.163757 0.245708 
v 0.304067 0.163116 0.247005 
v 0.305 0.163221 0.245903 
v 0.30309 0.162764 0.247133 
v 0.304067 0.162774 0.246065 
v 0.302079 0.162509 0.247226 
v 0.30309 0.162422 0.246193 
v 0.301045 0.162355 0.247282 
v 0.302079 0.162167 0.246286 
v 0.3 0.162304 0.247301 
v 0.301045 0.162013 0.246342 
v 0.3 0.161962 0.246361 
vn -0.994522 0.0982246 -0.0357508 
vn -1 1.39401e-14 -5.92613e-14 
vn -1 1.39401e-14 -5.92613e-14 
vn -0.978148 0.195373 -0.07111 
vn -0.994522 0.0982246 -0.0357508 
vn -0.951057 0.290381 -0.10569 
vn -0.978148 0.195373 -0.07111 
vn -0.913545 0.382207 -0.139112 
vn -0.951057 0.290381 -0.10569 
vn -0.866025 0.469846 -0.17101 
vn -0.913545 0.382207 -0.139112 
vn -0.809017 0.552337 -0.201034 
vn -0.866025 0.469846 -0.17101 
vn -0.743145 0.628777 -0.228856 
vn -0.809017 0.552337 -0.201034 
vn -0.669131 0.698328 -0.25417 
vn -0.743145 0.628777 -0.228856 
vn -0.587785 0.760227 -0.2767 
vn -0.669131 0.698328 -0.25417 
vn -0.5 0.813798 -0.296198 
vn -0.587785 0.760227 -0.2767 
vn -0.406737 0.858452 -0.312451 
vn -0.5 0.813798 -0.296198 
vn -0.309017 0.893701 -0.32528 
vn -0.406737 0.858452 -0.312451 
vn -0.207912 0.919158 -0.334546 
vn -0.309017 0.893701 -0.32528 
vn -0.104528 0.934545 -0.340147 
vn -0.207912 0.919158 -0.334546 
vn 1.33227e-15 0.939693 -0.34202 
vn -0.104528 0.934545 -0.340147 
vn 1.33227e-15 0.939693 -0.34202 
f 325//325 326//326 327//327 
f 328//328 325//325 329//329 
f 330//330 328//328 331//331 
f 332//332 330//330 333//333 
f 334//334 332//332 335//335 
f 336//336 334//334 337//337 
f 338//338 336//336 339//339 
f 340//340 338//338 341//341 
f 342//342 340//340 343//343 
f 344//344 342//342 345//345 
f 346//346 344//344 347//347 
f 348//348 346//346 349//349 
f 350//350 348//348 351//351 
f 352//352 350//350 353//353 
f 354//354 352//352 355//355 
f 355//355 356//356 354//354 
f 353//353 355//355 352//352 
f 351//351 353//353 350//350 
f 349//349 351//351 348//348 
f 347//347 349//349 346//346 
f 345//345 347//347 344//344 
f 343//343 345//345 342//342 
f 341//341 343//343 340//340 
f 339//339 341//341 338//338 
f 337//337 339//339 336//336 
f 335//335 337//337 334//334 
f 333//333 335//335 332//332 
f 331//331 333//333 330//330 
f 329//329 331//331 328//328 
f 327//327 329//329 325//325 
o mesh15702
v 0.3 0.160039 0.245464 
v 0.2313 0.160039 0.245464 
v 0.2313 0.161962 0.246361 
v 0.3 0.161962 0.246361 
vn 3.60056e-14 0.422618 -0.906308 
vn 3.60056e-14 0.422618 -0.906308 
vn 3.60056e-14 0.422618 -0.906308 
vn 3.60056e-14 0.422618 -0.906308 
f 357//357 358//358 359//359 
f 359//359 360//360 357//357 
o mesh15703
v 0.3 0.162304 0.247301 
v 0.3 0.161962 0.246361 
v 0.2313 0.161962 0.246361 
v 0.2313 0.162304 0.247301 
vn 0 0.939693 -0.34202 
vn 0 0.939693 -0.34202 
vn 0 0.939693 -0.34202 
vn 0 0.939693 -0.34202 
f 361//361 362//362 363//363 
f 363//363 364//364 361//361 
o mesh15704
v 0.2313 0.160039 0.245464 
v 0.230098 0.160099 0.245443 
v 0.230255 0.162013 0.246342 
v 0.228909 0.160275 0.245378 
v 0.229221 0.162167 0.246286 
v 0.227746 0.160568 0.245272 
v 0.22821 0.162422 0.246193 
v 0.226623 0.160974 0.245124 
v 0.227233 0.162774 0.246065 
v 0.22555 0.161487 0.244937 
v 0.2263 0.163221 0.245903 
v 0.22454 0.162103 0.244713 
v 0.225422 0.163757 0.245708 
v 0.223605 0.162815 0.244454 
v 0.224609 0.164376 0.245482 
v 0.222754 0.163615 0.244163 
v 0.223869 0.165071 0.245229 
v 0.221996 0.164494 0.243843 
v 0.22321 0.165835 0.244951 
v 0.221341 0.165443 0.243498 
v 0.22264 0.16666 0.244651 
v 0.220794 0.16645 0.243131 
v 0.222165 0.167537 0.244332 
v 0.220363 0.167506 0.242747 
v 0.221789 0.168455 0.243998 
v 0.220051 0.168599 0.242349 
v 0.221519 0.169405 0.243652 
v 0.219863 0.169716 0.241942 
v 0.221355 0.170377 0.243298 
v 0.2198 0.170846 0.241531 
v 0.2213 0.171359 0.242941 
v 0.2313 0.161962 0.246361 
vn 3.60056e-14 0.422618 -0.906308 
vn 0.0739128 0.418978 -0.904983 
vn 0.0739128 0.418978 -0.904983 
vn 0.147016 0.408098 -0.901023 
vn 0.147016 0.408098 -0.901023 
vn 0.218508 0.390097 -0.894471 
vn 0.218508 0.390097 -0.894471 
vn 0.287606 0.365172 -0.885399 
vn 0.287606 0.365172 -0.885399 
vn 0.353553 0.333597 -0.873907 
vn 0.353553 0.333597 -0.873907 
vn 0.415627 0.295717 -0.86012 
vn 0.415627 0.295717 -0.86012 
vn 0.473147 0.251947 -0.844189 
vn 0.473147 0.251947 -0.844189 
vn 0.525483 0.202768 -0.826289 
vn 0.525483 0.202768 -0.826289 
vn 0.572061 0.148717 -0.806616 
vn 0.572061 0.148717 -0.806616 
vn 0.612372 0.0903867 -0.785385 
vn 0.612372 0.0903867 -0.785385 
vn 0.645974 0.0284167 -0.76283 
vn 0.645974 0.0284167 -0.76283 
vn 0.672499 -0.0365144 -0.739197 
vn 0.672499 -0.0365144 -0.739197 
vn 0.691655 -0.103695 -0.714745 
vn 0.691655 -0.103695 -0.714745 
vn 0.703233 -0.172389 -0.689743 
vn 0.703233 -0.172389 -0.689743 
vn 0.707107 -0.241845 -0.664463 
vn 0.707107 -0.241845 -0.664463 
vn 3.77598e-14 0.422618 -0.906308 
f 365//365 366//366 367//367 
f 366//366 368//368 369//369 
f 368//368 370//370 371//371 
f 370//370 372//372 373//373 
f 372//372 374//374 375//375 
f 374//374 376//376 377//377 
f 376//376 378//378 379//379 
f 378//378 380//380 381//381 
f 380//380 382//382 383//383 
f 382//382 384//384 385//385 
f 384//384 386//386 387//387 
f 386//386 388//388 389//389 
f 388//388 390//390 391//391 
f 390//390 392//392 393//393 
f 392//392 394//394 395//395 
f 395//395 393//393 392//392 
f 393//393 391//391 390//390 
f 391//391 389//389 388//388 
f 389//389 387//387 386//386 
f 387//387 385//385 384//384 
f 385//385 383//383 382//382 
f 383//383 381//381 380//380 
f 381//381 379//379 378//378 
f 379//379 377//377 376//376 
f 377//377 375//375 374//374 
f 375//375 373//373 372//372 
f 373//373 371//371 370//370 
f 371//371 369//369 368//368 
f 369//369 367//367 366//366 
f 367//367 396//396 365//365 
o mesh15705
v 0.230255 0.162355 0.247282 
v 0.2313 0.162304 0.247301 
v 0.2313 0.161962 0.246361 
v 0.229221 0.162509 0.247226 
v 0.230255 0.162013 0.246342 
v 0.22821 0.162764 0.247133 
v 0.229221 0.162167 0.246286 
v 0.227233 0.163116 0.247005 
v 0.22821 0.162422 0.246193 
v 0.2263 0.163563 0.246842 
v 0.227233 0.162774 0.246065 
v 0.225422 0.164099 0.246647 
v 0.2263 0.163221 0.245903 
v 0.224609 0.164718 0.246422 
v 0.225422 0.163757 0.245708 
v 0.223869 0.165413 0.246169 
v 0.224609 0.164376 0.245482 
v 0.22321 0.166177 0.245891 
v 0.223869 0.165071 0.245229 
v 0.22264 0.167002 0.24559 
v 0.22321 0.165835 0.244951 
v 0.222165 0.167879 0.245271 
v 0.22264 0.16666 0.244651 
v 0.221789 0.168797 0.244937 
v 0.222165 0.167537 0.244332 
v 0.221519 0.169747 0.244591 
v 0.221789 0.168455 0.243998 
v 0.221355 0.170719 0.244238 
v 0.221519 0.169405 0.243652 
v 0.2213 0.171701 0.24388 
v 0.221355 0.170377 0.243298 
v 0.2213 0.171359 0.242941 
vn 0.104528 0.934545 -0.340147 
vn 9.49411e-16 0.939693 -0.34202 
vn 9.49411e-16 0.939693 -0.34202 
vn 0.207912 0.919158 -0.334546 
vn 0.104528 0.934545 -0.340147 
vn 0.309017 0.893701 -0.32528 
vn 0.207912 0.919158 -0.334546 
vn 0.406737 0.858452 -0.312451 
vn 0.309017 0.893701 -0.32528 
vn 0.5 0.813798 -0.296198 
vn 0.406737 0.858452 -0.312451 
vn 0.587785 0.760227 -0.2767 
vn 0.5 0.813798 -0.296198 
vn 0.669131 0.698328 -0.25417 
vn 0.587785 0.760227 -0.2767 
vn 0.743145 0.628777 -0.228856 
vn 0.669131 0.698328 -0.25417 
vn 0.809017 0.552337 -0.201034 
vn 0.743145 0.628777 -0.228856 
vn 0.866025 0.469846 -0.17101 
vn 0.809017 0.552337 -0.201034 
vn 0.913545 0.382207 -0.139112 
vn 0.866025 0.469846 -0.17101 
vn 0.951057 0.290381 -0.10569 
vn 0.913545 0.382207 -0.139112 
vn 0.978148 0.195373 -0.07111 
vn 0.951057 0.290381 -0.10569 
vn 0.994522 0.0982246 -0.0357508 
vn 0.978148 0.195373 -0.07111 
vn 1 -1.42998e-14 5.93922e-14 
vn 0.994522 0.0982246 -0.0357508 
vn 1 -1.42998e-14 5.93922e-14 
f 397//397 398//398 399//399 
f 400//400 397//397 401//401 
f 402//402 400//400 403//403 
f 404//404 402//402 405//405 
f 406//406 404//404 407//407 
f 408//408 406//406 409//409 
f 410//410 408//408 411//411 
f 412//412 410//410 413//413 
f 414//414 412//412 415//415 
f 416//416 414//414 417//417 
f 418//418 416//416 419//419 
f 420//420 418//418 421//421 
f 422//422 420//420 423//423 
f 424//424 422//422 425//425 
f 426//426 424//424 427//427 
f 427//427 428//428 426//426 
f 425//425 427//427 424//424 
f 423//423 425//425 422//422 
f 421//421 423//423 420//420 
f 419//419 421//421 418//418 
f 417//417 419//419 416//416 
f 415//415 417//417 414//414 
f 413//413 415//415 412//412 
f 411//411 413//413 410//410 
f 409//409 411//411 408//408 
f 407//407 409//409 406//406 
f 405//405 407//407 404//404 
f 403//403 405//405 402//402 
f 401//401 403//403 400//400 
f 399//399 401//401 397//397 
o mesh15706
v 0.2198 0.170846 0.241531 
v 0.2198 0.243766 0.21499 
v 0.2213 0.244279 0.2164 
v 0.2213 0.171359 0.242941 
vn 0.707107 -0.241845 -0.664463 
vn 0.707107 -0.241845 -0.664463 
vn 0.707107 -0.241845 -0.664463 
vn 0.707107 -0.241845 -0.664463 
f 429//429 430//430 431//431 
f 431//431 432//432 429//429 
o mesh15707
v 0.2213 0.171359 0.242941 
v 0.2213 0.244279 0.2164 
v 0.2213 0.244621 0.21734 
v 0.2213 0.171701 0.24388 
vn 1 1.74155e-14 4.78488e-14 
vn 1 1.74155e-14 4.78488e-14 
vn 1 1.74155e-14 4.78488e-14 
vn 1 1.74155e-14 4.78488e-14 
f 433//433 434//434 435//435 
f 435//435 436//436 433//433 
o mesh15708
v 0.2198 0.243766 0.21499 
v 0.219863 0.244896 0.214579 
v 0.221355 0.245261 0.216042 
v 0.220051 0.246013 0.214173 
v 0.221519 0.246233 0.215689 
v 0.220363 0.247105 0.213775 
v 0.221789 0.247183 0.215343 
v 0.220794 0.248161 0.213391 
v 0.222165 0.248101 0.215009 
v 0.221341 0.249169 0.213024 
v 0.22264 0.248977 0.21469 
v 0.221996 0.250118 0.212678 
v 0.22321 0.249802 0.21439 
v 0.222754 0.250997 0.212358 
v 0.223869 0.250567 0.214111 
v 0.223605 0.251797 0.212067 
v 0.224609 0.251262 0.213858 
v 0.22454 0.252509 0.211808 
v 0.225422 0.251881 0.213633 
v 0.22555 0.253125 0.211584 
v 0.2263 0.252417 0.213438 
v 0.226623 0.253638 0.211397 
v 0.227233 0.252863 0.213275 
v 0.227746 0.254043 0.21125 
v 0.22821 0.253216 0.213147 
v 0.228909 0.254336 0.211143 
v 0.229221 0.253471 0.213054 
v 0.230098 0.254513 0.211079 
v 0.230255 0.253624 0.212998 
v 0.2313 0.254572 0.211057 
v 0.2313 0.253676 0.21298 
v 0.2213 0.244279 0.2164 
vn 0.707107 -0.241845 -0.664463 
vn 0.703233 -0.3113 -0.639183 
vn 0.703233 -0.3113 -0.639183 
vn 0.691655 -0.379994 -0.614181 
vn 0.691655 -0.379994 -0.614181 
vn 0.672499 -0.447175 -0.589729 
vn 0.672499 -0.447175 -0.589729 
vn 0.645974 -0.512106 -0.566096 
vn 0.645974 -0.512106 -0.566096 
vn 0.612372 -0.574076 -0.543541 
vn 0.612372 -0.574076 -0.543541 
vn 0.572061 -0.632406 -0.52231 
vn 0.572061 -0.632406 -0.52231 
vn 0.525483 -0.686457 -0.502637 
vn 0.525483 -0.686457 -0.502637 
vn 0.473147 -0.735637 -0.484737 
vn 0.473147 -0.735637 -0.484737 
vn 0.415627 -0.779407 -0.468807 
vn 0.415627 -0.779407 -0.468807 
vn 0.353553 -0.817287 -0.455019 
vn 0.353553 -0.817287 -0.455019 
vn 0.287606 -0.848862 -0.443527 
vn 0.287606 -0.848862 -0.443527 
vn 0.218508 -0.873787 -0.434455 
vn 0.218508 -0.873787 -0.434455 
vn 0.147016 -0.891788 -0.427903 
vn 0.147016 -0.891788 -0.427903 
vn 0.0739128 -0.902668 -0.423943 
vn 0.0739128 -0.902668 -0.423943 
vn 3.74601e-14 -0.906308 -0.422618 
vn 3.74601e-14 -0.906308 -0.422618 
vn 0.707107 -0.241845 -0.664463 
f 437//437 438//438 439//439 
f 438//438 440//440 441//441 
f 440//440 442//442 443//443 
f 442//442 444//444 445//445 
f 444//444 446//446 447//447 
f 446//446 448//448 449//449 
f 448//448 450//450 451//451 
f 450//450 452//452 453//453 
f 452//452 454//454 455//455 
f 454//454 456//456 457//457 
f 456//456 458//458 459//459 
f 458//458 460//460 461//461 
f 460//460 462//462 463//463 
f 462//462 464//464 465//465 
f 464//464 466//466 467//467 
f 467//467 465//465 464//464 
f 465//465 463//463 462//462 
f 463//463 461//461 460//460 
f 461//461 459//459 458//458 
f 459//459 457//457 456//456 
f 457//457 455//455 454//454 
f 455//455 453//453 452//452 
f 453//453 451//451 450//450 
f 451//451 449//449 448//448 
f 449//449 447//447 446//446 
f 447//447 445//445 444//444 
f 445//445 443//443 442//442 
f 443//443 441//441 440//440 
f 441//441 439//439 438//438 
f 439//439 468//468 437//437 
o mesh15709
v 0.221355 0.245603 0.216982 
v 0.2213 0.244621 0.21734 
v 0.2213 0.244279 0.2164 
v 0.221519 0.246575 0.216628 
v 0.221355 0.245261 0.216042 
v 0.221789 0.247525 0.216283 
v 0.221519 0.246233 0.215689 
v 0.222165 0.248443 0.215948 
v 0.221789 0.247183 0.215343 
v 0.22264 0.249319 0.215629 
v 0.222165 0.248101 0.215009 
v 0.22321 0.250144 0.215329 
v 0.22264 0.248977 0.21469 
v 0.223869 0.250909 0.215051 
v 0.22321 0.249802 0.21439 
v 0.224609 0.251604 0.214798 
v 0.223869 0.250567 0.214111 
v 0.225422 0.252223 0.214573 
v 0.224609 0.251262 0.213858 
v 0.2263 0.252759 0.214378 
v 0.225422 0.251881 0.213633 
v 0.227233 0.253205 0.214215 
v 0.2263 0.252417 0.213438 
v 0.22821 0.253558 0.214087 
v 0.227233 0.252863 0.213275 
v 0.229221 0.253813 0.213994 
v 0.22821 0.253216 0.213147 
v 0.230255 0.253966 0.213938 
v 0.229221 0.253471 0.213054 
v 0.2313 0.254018 0.213919 
v 0.230255 0.253624 0.212998 
v 0.2313 0.253676 0.21298 
vn 0.994522 -0.0982246 0.0357508 
vn 1 1.81926e-14 4.75659e-14 
vn 1 1.81926e-14 4.75659e-14 
vn 0.978148 -0.195373 0.07111 
vn 0.994522 -0.0982246 0.0357508 
vn 0.951057 -0.290381 0.10569 
vn 0.978148 -0.195373 0.07111 
vn 0.913545 -0.382207 0.139112 
vn 0.951057 -0.290381 0.10569 
vn 0.866025 -0.469846 0.17101 
vn 0.913545 -0.382207 0.139112 
vn 0.809017 -0.552337 0.201034 
vn 0.866025 -0.469846 0.17101 
vn 0.743145 -0.628777 0.228856 
vn 0.809017 -0.552337 0.201034 
vn 0.669131 -0.698328 0.25417 
vn 0.743145 -0.628777 0.228856 
vn 0.587785 -0.760227 0.2767 
vn 0.669131 -0.698328 0.25417 
vn 0.5 -0.813798 0.296198 
vn 0.587785 -0.760227 0.2767 
vn 0.406737 -0.858452 0.312451 
vn 0.5 -0.813798 0.296198 
vn 0.309017 -0.893701 0.32528 
vn 0.406737 -0.858452 0.312451 
vn 0.207912 -0.919158 0.334546 
vn 0.309017 -0.893701 0.32528 
vn 0.104528 -0.934545 0.340147 
vn 0.207912 -0.919158 0.334546 
vn 9.18313e-16 -0.939693 0.34202 
vn 0.104528 -0.934545 0.340147 
vn 9.18313e-16 -0.939693 0.34202 
f 469//469 470//470 471//471 
f 472//472 469//469 473//473 
f 474//474 472//472 475//475 
f 476//476 474//474 477//477 
f 478//478 476//476 479//479 
f 480//480 478//478 481//481 
f 482//482 480//480 483//483 
f 484//484 482//482 485//485 
f 486//486 484//484 487//487 
f 488//488 486//486 489//489 
f 490//490 488//488 491//491 
f 492//492 490//490 493//493 
f 494//494 492//492 495//495 
f 496//496 494//494 497//497 
f 498//498 496//496 499//499 
f 499//499 500//500 498//498 
f 497//497 499//499 496//496 
f 495//495 497//497 494//494 
f 493//493 495//495 492//492 
f 491//491 493//493 490//490 
f 489//489 491//491 488//488 
f 487//487 489//489 486//486 
f 485//485 487//487 484//484 
f 483//483 485//485 482//482 
f 481//481 483//483 480//480 
f 479//479 481//481 478//478 
f 477//477 479//479 476//476 
f 475//475 477//477 474//474 
f 473//473 475//475 472//472 
f 471//471 473//473 469//469 
o mesh15710
v 0.2313 0.254572 0.211057 
v 0.3 0.254572 0.211057 
v 0.3 0.253676 0.21298 
v 0.2313 0.253676 0.21298 
vn 3.60056e-14 -0.906308 -0.422618 
vn 3.60056e-14 -0.906308 -0.422618 
vn 3.60056e-14 -0.906308 -0.422618 
vn 3.60056e-14 -0.906308 -0.422618 
f 501//501 502//502 503//503 
f 503//503 504//504 501//501 
o mesh15711
v 0.2183 0.244621 0.21734 
v 0.2213 0.244621 0.21734 
v 0.221355 0.245603 0.216982 
v 0.2183 0.171701 0.24388 
v 0.2213 0.171701 0.24388 
v 0.312929 0.170424 0.244345 
v 0.313 0.171701 0.24388 
v 0.31 0.171701 0.24388 
v 0.313 0.244621 0.21734 
v 0.31 0.244621 0.21734 
v 0.218371 0.170424 0.244345 
v 0.221355 0.170719 0.244238 
v 0.312929 0.245898 0.216875 
v 0.309945 0.245603 0.216982 
v 0.218584 0.169161 0.244805 
v 0.221519 0.169747 0.244591 
v 0.312716 0.247161 0.216415 
v 0.309781 0.246575 0.216628 
v 0.218936 0.167926 0.245254 
v 0.221789 0.168797 0.244937 
v 0.312716 0.169161 0.244805 
v 0.309945 0.170719 0.244238 
v 0.227283 0.256239 0.213111 
v 0.22821 0.253558 0.214087 
v 0.229221 0.253813 0.213994 
v 0.226012 0.255781 0.213278 
v 0.227233 0.253205 0.214215 
v 0.218371 0.245898 0.216875 
v 0.221519 0.246575 0.216628 
v 0.309781 0.169747 0.244591 
v 0.309511 0.168797 0.244937 
v 0.2248 0.2552 0.213489 
v 0.2263 0.252759 0.214378 
v 0.218936 0.248396 0.215966 
v 0.221789 0.247525 0.216283 
v 0.222165 0.248443 0.215948 
v 0.218584 0.247161 0.216415 
v 0.219424 0.166732 0.245689 
v 0.222165 0.167879 0.245271 
v 0.308699 0.162623 0.247185 
v 0.306691 0.164718 0.246422 
v 0.305878 0.164099 0.246647 
v 0.309661 0.163527 0.246855 
v 0.307431 0.165413 0.246169 
v 0.312364 0.248396 0.215966 
v 0.309511 0.247525 0.216283 
v 0.304017 0.256239 0.213111 
v 0.302703 0.25657 0.21299 
v 0.302079 0.253813 0.213994 
v 0.301359 0.25677 0.212918 
v 0.301045 0.253966 0.213938 
v 0.228597 0.25657 0.21299 
v 0.230255 0.253966 0.213938 
v 0.223659 0.254504 0.213742 
v 0.225422 0.252223 0.214573 
v 0.222601 0.253699 0.214035 
v 0.224609 0.251604 0.214798 
v 0.220042 0.165593 0.246103 
v 0.22264 0.167002 0.24559 
v 0.220783 0.16452 0.246494 
v 0.22321 0.166177 0.245891 
v 0.222601 0.162623 0.247185 
v 0.223659 0.161818 0.247477 
v 0.225422 0.164099 0.246647 
v 0.2248 0.161121 0.247731 
v 0.2263 0.163563 0.246842 
v 0.229941 0.159552 0.248302 
v 0.2313 0.159485 0.248327 
v 0.2313 0.162304 0.247301 
v 0.3 0.159485 0.248327 
v 0.3 0.162304 0.247301 
v 0.3065 0.161121 0.247731 
v 0.305 0.163563 0.246842 
v 0.304067 0.163116 0.247005 
v 0.307641 0.161818 0.247477 
v 0.310517 0.16452 0.246494 
v 0.30809 0.166177 0.245891 
v 0.311258 0.165593 0.246103 
v 0.311876 0.166732 0.245689 
v 0.309135 0.167879 0.245271 
v 0.312364 0.167926 0.245254 
v 0.311876 0.24959 0.215531 
v 0.309135 0.248443 0.215948 
v 0.311258 0.250729 0.215116 
v 0.30866 0.249319 0.215629 
v 0.310517 0.251801 0.214726 
v 0.30809 0.250144 0.215329 
v 0.308699 0.253699 0.214035 
v 0.306691 0.251604 0.214798 
v 0.307431 0.250909 0.215051 
v 0.307641 0.254504 0.213742 
v 0.305878 0.252223 0.214573 
v 0.305288 0.255781 0.213278 
v 0.30309 0.253558 0.214087 
v 0.221639 0.252795 0.214364 
v 0.223869 0.250909 0.215051 
v 0.220783 0.251801 0.214726 
v 0.22321 0.250144 0.215329 
v 0.220042 0.250729 0.215116 
v 0.22264 0.249319 0.215629 
v 0.219424 0.24959 0.215531 
v 0.221639 0.163527 0.246855 
v 0.223869 0.165413 0.246169 
v 0.224609 0.164718 0.246422 
v 0.226012 0.160541 0.247942 
v 0.227233 0.163116 0.247005 
v 0.227283 0.160083 0.248109 
v 0.22821 0.162764 0.247133 
v 0.228597 0.159752 0.248229 
v 0.229221 0.162509 0.247226 
v 0.230255 0.162355 0.247282 
v 0.301359 0.159552 0.248302 
v 0.301045 0.162355 0.247282 
v 0.302703 0.159752 0.248229 
v 0.302079 0.162509 0.247226 
v 0.304017 0.160083 0.248109 
v 0.30309 0.162764 0.247133 
v 0.305288 0.160541 0.247942 
v 0.30866 0.167002 0.24559 
v 0.309661 0.252795 0.214364 
v 0.304067 0.253205 0.214215 
v 0.305 0.252759 0.214378 
v 0.3065 0.2552 0.213489 
v 0.3 0.256837 0.212893 
v 0.3 0.254018 0.213919 
v 0.2313 0.254018 0.213919 
v 0.2313 0.256837 0.212893 
v 0.229941 0.25677 0.212918 
vn -5.09196e-14 0.34202 0.939693 
vn -5.09196e-14 0.34202 0.939693 
vn -5.09196e-14 0.34202 0.939693 
vn -5.09196e-14 0.34202 0.939693 
vn -5.09196e-14 0.34202 0.939693 
vn -5.09196e-14 0.34202 0.939693 
vn -5.09196e-14 0.34202 0.939693 
vn -5.09196e-14 0.34202 0.939693 
vn -5.09196e-14 0.34202 0.939693 
vn -5.09196e-14 0.34202 0.939693 
vn -5.09196e-14 0.34202 0.939693 
vn -5.09196e-14 0.34202 0.939693 
vn -5.09196e-14 0.34202 0.939693 
vn -5.09196e-14 0.34202 0.939693 
vn -5.09196e-14 0.34202 0.939693 
vn -5.09196e-14 0.34202 0.939693 
vn -5.09196e-14 0.34202 0.939693 
vn -5.09196e-14 0.34202 0.939693 
vn -5.09196e-14 0.34202 0.939693 
vn -5.09196e-14 0.34202 0.939693 
vn -5.09196e-14 0.34202 0.939693 
vn -5.09196e-14 0.34202 0.939693 
vn -5.09196e-14 0.34202 0.939693 
vn -5.09196e-14 0.34202 0.939693 
vn -5.09196e-14 0.34202 0.939693 
vn -5.09196e-14 0.34202 0.939693 
vn -5.09196e-14 0.34202 0.939693 
vn -5.09196e-14 0.34202 0.939693 
vn -5.09196e-14 0.34202 0.939693 
vn -5.09196e-14 0.34202 0.939693 
vn -5.09196e-14 0.34202 0.939693 
vn -5.09196e-14 0.34202 0.939693 
vn -5.09196e-14 0.34202 0.939693 
vn -5.09196e-14 0.34202 0.939693 
vn -5.09196e-14 0.34202 0.939693 
vn -5.09196e-14 0.34202 0.939693 
vn -5.09196e-14 0.34202 0.939693 
vn -5.09196e-14 0.34202 0.939693 
vn -5.09196e-14 0.34202 0.939693 
vn -5.09196e-14 0.34202 0.939693 
vn -5.09196e-14 0.34202 0.939693 
vn -5.09196e-14 0.34202 0.939693 
vn -5.09196e-14 0.34202 0.939693 
vn -5.09196e-14 0.34202 0.939693 
vn -5.09196e-14 0.34202 0.939693 
vn -5.09196e-14 0.34202 0.939693 
vn -5.09196e-14 0.34202 0.939693 
vn -5.09196e-14 0.34202 0.939693 
vn -5.09196e-14 0.34202 0.939693 
vn -5.09196e-14 0.34202 0.939693 
vn -5.09196e-14 0.34202 0.939693 
vn -5.09196e-14 0.34202 0.939693 
vn -5.09196e-14 0.34202 0.939693 
vn -5.09196e-14 0.34202 0.939693 
vn -5.09196e-14 0.34202 0.939693 
vn -5.09196e-14 0.34202 0.939693 
vn -5.09196e-14 0.34202 0.939693 
vn -5.09196e-14 0.34202 0.939693 
vn -5.09196e-14 0.34202 0.939693 
vn -5.09196e-14 0.34202 0.939693 
vn -5.09196e-14 0.34202 0.939693 
vn -5.09196e-14 0.34202 0.939693 
vn -5.09196e-14 0.34202 0.939693 
vn -5.09196e-14 0.34202 0.939693 
vn -5.09196e-14 0.34202 0.939693 
vn -5.09196e-14 0.34202 0.939693 
vn -5.09196e-14 0.34202 0.939693 
vn -5.09196e-14 0.34202 0.939693 
vn -5.09196e-14 0.34202 0.939693 
vn -5.09196e-14 0.34202 0.939693 
vn -5.09196e-14 0.34202 0.939693 
vn -5.09196e-14 0.34202 0.939693 
vn -5.09196e-14 0.34202 0.939693 
vn -5.09196e-14 0.34202 0.939693 
vn -5.09196e-14 0.34202 0.939693 
vn -5.09196e-14 0.34202 0.939693 
vn -5.09196e-14 0.34202 0.939693 
vn -5.09196e-14 0.34202 0.939693 
vn -5.09196e-14 0.34202 0.939693 
vn -5.09196e-14 0.34202 0.939693 
vn -5.09196e-14 0.34202 0.939693 
vn -5.09196e-14 0.34202 0.939693 
vn -5.09196e-14 0.34202 0.939693 
vn -5.09196e-14 0.34202 0.939693 
vn -5.09196e-14 0.34202 0.939693 
vn -5.09196e-14 0.34202 0.939693 
vn -5.09196e-14 0.34202 0.939693 
vn -5.09196e-14 0.34202 0.939693 
vn -5.09196e-14 0.34202 0.939693 
vn -5.09196e-14 0.34202 0.939693 
vn -5.09196e-14 0.34202 0.939693 
vn -5.09196e-14 0.34202 0.939693 
vn -5.09196e-14 0.34202 0.939693 
vn -5.09196e-14 0.34202 0.939693 
vn -5.09196e-14 0.34202 0.939693 
vn -5.09196e-14 0.34202 0.939693 
vn -5.09196e-14 0.34202 0.939693 
vn -5.09196e-14 0.34202 0.939693 
vn -5.09196e-14 0.34202 0.939693 
vn -5.09196e-14 0.34202 0.939693 
vn -5.09196e-14 0.34202 0.939693 
vn -5.09196e-14 0.34202 0.939693 
vn -5.09196e-14 0.34202 0.939693 
vn -5.09196e-14 0.34202 0.939693 
vn -5.09196e-14 0.34202 0.939693 
vn -5.09196e-14 0.34202 0.939693 
vn -5.09196e-14 0.34202 0.939693 
vn -5.09196e-14 0.34202 0.939693 
vn -5.09196e-14 0.34202 0.939693 
vn -5.09196e-14 0.34202 0.939693 
vn -5.09196e-14 0.34202 0.939693 
vn -5.09196e-14 0.34202 0.939693 
vn -5.09196e-14 0.34202 0.939693 
vn -5.09196e-14 0.34202 0.939693 
vn -5.09196e-14 0.34202 0.939693 
vn -5.09196e-14 0.34202 0.939693 
vn -5.09196e-14 0.34202 0.939693 
vn -5.09196e-14 0.34202 0.939693 
vn -5.09196e-14 0.34202 0.939693 
vn -5.09196e-14 0.34202 0.939693 
vn -5.09196e-14 0.34202 0.939693 
vn -5.09196e-14 0.34202 0.939693 
vn -5.09196e-14 0.34202 0.939693 
vn -5.09196e-14 0.34202 0.939693 
vn -5.09196e-14 0.34202 0.939693 
vn -5.09196e-14 0.34202 0.939693 
vn -5.09196e-14 0.34202 0.939693 
vn -5.09196e-14 0.34202 0.939693 
f 505//505 506//506 507//507 
f 505//505 508//508 509//509 
f 510//510 511//511 512//512 
f 513//513 514//514 512//512 
f 509//509 506//506 505//505 
f 515//515 516//516 509//509 
f 512//512 511//511 513//513 
f 517//517 518//518 514//514 
f 509//509 508//508 515//515 
f 515//515 519//519 520//520 
f 514//514 513//513 517//517 
f 521//521 522//522 518//518 
f 520//520 516//516 515//515 
f 519//519 523//523 524//524 
f 525//525 510//510 526//526 
f 518//518 517//517 521//521 
f 527//527 528//528 529//529 
f 530//530 531//531 528//528 
f 532//532 507//507 533//533 
f 524//524 520//520 519//519 
f 525//525 534//534 535//535 
f 512//512 526//526 510//510 
f 528//528 527//527 530//530 
f 536//536 537//537 531//531 
f 538//538 539//539 540//540 
f 541//541 533//533 539//539 
f 507//507 532//532 505//505 
f 523//523 542//542 543//543 
f 544//544 545//545 546//546 
f 547//547 548//548 545//545 
f 526//526 534//534 525//525 
f 521//521 549//549 550//550 
f 551//551 552//552 553//553 
f 552//552 554//554 555//555 
f 556//556 529//529 557//557 
f 531//531 530//530 536//536 
f 558//558 559//559 537//537 
f 558//558 560//560 561//561 
f 539//539 538//538 541//541 
f 543//543 524//524 523//523 
f 542//542 562//562 563//563 
f 562//562 564//564 565//565 
f 566//566 567//567 568//568 
f 567//567 569//569 570//570 
f 571//571 572//572 573//573 
f 572//572 574//574 575//575 
f 576//576 577//577 578//578 
f 576//576 579//579 546//546 
f 545//545 544//544 547//547 
f 547//547 580//580 581//581 
f 582//582 583//583 584//584 
f 583//583 585//585 535//535 
f 550//550 522//522 521//521 
f 549//549 586//586 587//587 
f 588//588 589//589 587//587 
f 588//588 590//590 591//591 
f 592//592 593//593 594//594 
f 592//592 595//595 596//596 
f 597//597 551//551 598//598 
f 555//555 553//553 552//552 
f 529//529 556//556 527//527 
f 561//561 559//559 558//558 
f 599//599 600//600 561//561 
f 599//599 601//601 602//602 
f 603//603 604//604 602//602 
f 603//603 605//605 540//540 
f 533//533 541//541 532//532 
f 565//565 563//563 562//562 
f 606//606 607//607 565//565 
f 606//606 566//566 608//608 
f 570//570 568//568 567//567 
f 569//569 609//609 610//610 
f 611//611 612//612 610//610 
f 611//611 613//613 614//614 
f 613//613 571//571 615//615 
f 575//575 573//573 572//572 
f 616//616 617//617 575//575 
f 616//616 618//618 619//619 
f 618//618 620//620 621//621 
f 620//620 622//622 578//578 
f 546//546 577//577 576//576 
f 581//581 548//548 547//547 
f 582//582 623//623 581//581 
f 535//535 584//584 583//583 
f 587//587 550//550 549//549 
f 591//591 589//589 588//588 
f 590//590 624//624 594//594 
f 596//596 593//593 592//592 
f 597//597 625//625 626//626 
f 553//553 598//598 551//551 
f 537//537 536//536 558//558 
f 602//602 600//600 599//599 
f 540//540 604//604 603//603 
f 563//563 543//543 542//542 
f 608//608 607//607 606//606 
f 610//610 570//570 569//569 
f 614//614 612//612 611//611 
f 573//573 615//615 571//571 
f 619//619 617//617 616//616 
f 578//578 621//621 620//620 
f 546//546 579//579 544//544 
f 584//584 623//623 582//582 
f 587//587 586//586 588//588 
f 594//594 624//624 592//592 
f 627//627 626//626 596//596 
f 598//598 625//625 597//597 
f 628//628 629//629 555//555 
f 630//630 629//629 628//628 
f 561//561 560//560 599//599 
f 540//540 605//605 538//538 
f 568//568 608//608 566//566 
f 615//615 614//614 613//613 
f 621//621 619//619 618//618 
f 581//581 580//580 582//582 
f 594//594 591//591 590//590 
f 626//626 627//627 597//597 
f 628//628 631//631 630//630 
f 631//631 632//632 557//557 
f 602//602 601//601 603//603 
f 610//610 609//609 611//611 
f 578//578 622//622 576//576 
f 596//596 595//595 627//627 
f 557//557 630//630 631//631 
f 565//565 564//564 606//606 
f 535//535 585//585 525//525 
f 557//557 632//632 556//556 
f 555//555 554//554 628//628 
f 575//575 574//574 616//616 
o mesh15712
v 0.2313 0.253676 0.21298 
v 0.3 0.253676 0.21298 
v 0.3 0.254018 0.213919 
v 0.2313 0.254018 0.213919 
vn 0 -0.939693 0.34202 
vn 0 -0.939693 0.34202 
vn 0 -0.939693 0.34202 
vn 0 -0.939693 0.34202 
f 633//633 634//634 635//635 
f 635//635 636//636 633//633 
o mesh15713
v 0.31 0.244621 0.21734 
v 0.31 0.244279 0.2164 
v 0.31 0.171359 0.242941 
v 0.31 0.171701 0.24388 
vn -1 -1.74155e-14 -4.78488e-14 
vn -1 -1.74155e-14 -4.78488e-14 
vn -1 -1.74155e-14 -4.78488e-14 
vn -1 -1.74155e-14 -4.78488e-14 
f 637//637 638//638 639//639 
f 639//639 640//640 637//637 
o mesh15714
v 0.301045 0.253966 0.213938 
v 0.3 0.254018 0.213919 
v 0.3 0.253676 0.21298 
v 0.302079 0.253813 0.213994 
v 0.301045 0.253624 0.212998 
v 0.30309 0.253558 0.214087 
v 0.302079 0.253471 0.213054 
v 0.304067 0.253205 0.214215 
v 0.30309 0.253216 0.213147 
v 0.305 0.252759 0.214378 
v 0.304067 0.252863 0.213275 
v 0.305878 0.252223 0.214573 
v 0.305 0.252417 0.213438 
v 0.306691 0.251604 0.214798 
v 0.305878 0.251881 0.213633 
v 0.307431 0.250909 0.215051 
v 0.306691 0.251262 0.213858 
v 0.30809 0.250144 0.215329 
v 0.307431 0.250567 0.214111 
v 0.30866 0.249319 0.215629 
v 0.30809 0.249802 0.21439 
v 0.309135 0.248443 0.215948 
v 0.30866 0.248977 0.21469 
v 0.309511 0.247525 0.216283 
v 0.309135 0.248101 0.215009 
v 0.309781 0.246575 0.216628 
v 0.309511 0.247183 0.215343 
v 0.309945 0.245603 0.216982 
v 0.309781 0.246233 0.215689 
v 0.31 0.244621 0.21734 
v 0.309945 0.245261 0.216042 
v 0.31 0.244279 0.2164 
vn -0.104528 -0.934545 0.340147 
vn 8.26946e-16 -0.939693 0.34202 
vn 8.26946e-16 -0.939693 0.34202 
vn -0.207912 -0.919158 0.334546 
vn -0.104528 -0.934545 0.340147 
vn -0.309017 -0.893701 0.32528 
vn -0.207912 -0.919158 0.334546 
vn -0.406737 -0.858452 0.312451 
vn -0.309017 -0.893701 0.32528 
vn -0.5 -0.813798 0.296198 
vn -0.406737 -0.858452 0.312451 
vn -0.587785 -0.760227 0.2767 
vn -0.5 -0.813798 0.296198 
vn -0.669131 -0.698328 0.25417 
vn -0.587785 -0.760227 0.2767 
vn -0.743145 -0.628777 0.228856 
vn -0.669131 -0.698328 0.25417 
vn -0.809017 -0.552337 0.201034 
vn -0.743145 -0.628777 0.228856 
vn -0.866025 -0.469846 0.17101 
vn -0.809017 -0.552337 0.201034 
vn -0.913545 -0.382207 0.139112 
vn -0.866025 -0.469846 0.17101 
vn -0.951057 -0.290381 0.10569 
vn -0.913545 -0.382207 0.139112 
vn -0.978148 -0.195373 0.07111 
vn -0.951057 -0.290381 0.10569 
vn -0.994522 -0.0982246 0.0357508 
vn -0.978148 -0.195373 0.07111 
vn -1 1.51344e-14 -5.9696e-14 
vn -0.994522 -0.0982246 0.0357508 
vn -1 1.51344e-14 -5.9696e-14 
f 641//641 642//642 643//643 
f 644//644 641//641 645//645 
f 646//646 644//644 647//647 
f 648//648 646//646 649//649 
f 650//650 648//648 651//651 
f 652//652 650//650 653//653 
f 654//654 652//652 655//655 
f 656//656 654//654 657//657 
f 658//658 656//656 659//659 
f 660//660 658//658 661//661 
f 662//662 660//660 663//663 
f 664//664 662//662 665//665 
f 666//666 664//664 667//667 
f 668//668 666//666 669//669 
f 670//670 668//668 671//671 
f 671//671 672//672 670//670 
f 669//669 671//671 668//668 
f 667//667 669//669 666//666 
f 665//665 667//667 664//664 
f 663//663 665//665 662//662 
f 661//661 663//663 660//660 
f 659//659 661//661 658//658 
f 657//657 659//659 656//656 
f 655//655 657//657 654//654 
f 653//653 655//655 652//652 
f 651//651 653//653 650//650 
f 649//649 651//651 648//648 
f 647//647 649//649 646//646 
f 645//645 647//647 644//644 
f 643//643 645//645 641//641 
o mesh15715
v 0.3 0.254572 0.211057 
v 0.301202 0.254513 0.211079 
v 0.301045 0.253624 0.212998 
v 0.302391 0.254336 0.211143 
v 0.302079 0.253471 0.213054 
v 0.303554 0.254043 0.21125 
v 0.30309 0.253216 0.213147 
v 0.304677 0.253638 0.211397 
v 0.304067 0.252863 0.213275 
v 0.30575 0.253125 0.211584 
v 0.305 0.252417 0.213438 
v 0.30676 0.252509 0.211808 
v 0.305878 0.251881 0.213633 
v 0.307695 0.251797 0.212067 
v 0.306691 0.251262 0.213858 
v 0.308546 0.250997 0.212358 
v 0.307431 0.250567 0.214111 
v 0.309304 0.250118 0.212678 
v 0.30809 0.249802 0.21439 
v 0.309959 0.249169 0.213024 
v 0.30866 0.248977 0.21469 
v 0.310506 0.248161 0.213391 
v 0.309135 0.248101 0.215009 
v 0.310937 0.247105 0.213775 
v 0.309511 0.247183 0.215343 
v 0.311249 0.246013 0.214173 
v 0.309781 0.246233 0.215689 
v 0.311437 0.244896 0.214579 
v 0.309945 0.245261 0.216042 
v 0.3115 0.243766 0.21499 
v 0.31 0.244279 0.2164 
v 0.3 0.253676 0.21298 
vn 3.99037e-14 -0.906308 -0.422618 
vn -0.0739128 -0.902668 -0.423943 
vn -0.0739128 -0.902668 -0.423943 
vn -0.147016 -0.891788 -0.427903 
vn -0.147016 -0.891788 -0.427903 
vn -0.218508 -0.873787 -0.434455 
vn -0.218508 -0.873787 -0.434455 
vn -0.287606 -0.848862 -0.443527 
vn -0.287606 -0.848862 -0.443527 
vn -0.353553 -0.817287 -0.455019 
vn -0.353553 -0.817287 -0.455019 
vn -0.415627 -0.779407 -0.468807 
vn -0.415627 -0.779407 -0.468807 
vn -0.473147 -0.735637 -0.484737 
vn -0.473147 -0.735637 -0.484737 
vn -0.525483 -0.686457 -0.502637 
vn -0.525483 -0.686457 -0.502637 
vn -0.572061 -0.632406 -0.52231 
vn -0.572061 -0.632406 -0.52231 
vn -0.612372 -0.574076 -0.543541 
vn -0.612372 -0.574076 -0.543541 
vn -0.645974 -0.512106 -0.566096 
vn -0.645974 -0.512106 -0.566096 
vn -0.672499 -0.447175 -0.589729 
vn -0.672499 -0.447175 -0.589729 
vn -0.691655 -0.379994 -0.614181 
vn -0.691655 -0.379994 -0.614181 
vn -0.703233 -0.3113 -0.639183 
vn -0.703233 -0.3113 -0.639183 
vn -0.707107 -0.241845 -0.664463 
vn -0.707107 -0.241845 -0.664463 
vn 3.99037e-14 -0.906308 -0.422618 
f 673//673 674//674 675//675 
f 674//674 676//676 677//677 
f 676//676 678//678 679//679 
f 678//678 680//680 681//681 
f 680//680 682//682 683//683 
f 682//682 684//684 685//685 
f 684//684 686//686 687//687 
f 686//686 688//688 689//689 
f 688//688 690//690 691//691 
f 690//690 692//692 693//693 
f 692//692 694//694 695//695 
f 694//694 696//696 697//697 
f 696//696 698//698 699//699 
f 698//698 700//700 701//701 
f 700//700 702//702 703//703 
f 703//703 701//701 700//700 
f 701//701 699//699 698//698 
f 699//699 697//697 696//696 
f 697//697 695//695 694//694 
f 695//695 693//693 692//692 
f 693//693 691//691 690//690 
f 691//691 689//689 688//688 
f 689//689 687//687 686//686 
f 687//687 685//685 684//684 
f 685//685 683//683 682//682 
f 683//683 681//681 680//680 
f 681//681 679//679 678//678 
f 679//679 677//677 676//676 
f 677//677 675//675 674//674 
f 675//675 704//704 673//673 
