# OBJ generated by ONSHAPE BY PTC INC, 1.215 Units = meters
mtllib EBoxNewAsm_stp_1_PowerMeter_stp_1_PowerMeter_50_stp_1_solid1.mtl
g EBoxNewAsm.stp-1/PowerMeter.stp-1/PowerMeter-50.stp-1-solid1
usemtl 0.627451_0.627451_0.627451_0.000000_0.000000
o mesh15801
v 0.0382913 0.234342 0.176234 
v 0.123291 0.234342 0.176234 
v 0.123291 0.243919 0.202546 
v 0.0382913 0.243919 0.202546 
vn 0 -0.939693 0.34202 
vn 0 -0.939693 0.34202 
vn 0 -0.939693 0.34202 
vn 0 -0.939693 0.34202 
f 1//1 2//2 3//3 
f 3//3 4//4 1//1 
o mesh15802
v 0.0382913 0.239124 0.165981 
v 0.123291 0.239124 0.165981 
v 0.123291 0.238353 0.166308 
v 0.0382913 0.238353 0.166308 
v 0.123291 0.23762 0.166714 
v 0.0382913 0.23762 0.166714 
v 0.123291 0.236935 0.167194 
v 0.0382913 0.236935 0.167194 
v 0.123291 0.236303 0.167744 
v 0.0382913 0.236303 0.167744 
v 0.123291 0.235731 0.168356 
v 0.0382913 0.235731 0.168356 
v 0.123291 0.235228 0.169025 
v 0.0382913 0.235228 0.169025 
v 0.123291 0.234796 0.169742 
v 0.0382913 0.234796 0.169742 
v 0.123291 0.234442 0.170501 
v 0.0382913 0.234442 0.170501 
v 0.123291 0.23417 0.171293 
v 0.0382913 0.23417 0.171293 
v 0.123291 0.233981 0.172109 
v 0.0382913 0.233981 0.172109 
v 0.123291 0.233879 0.17294 
v 0.0382913 0.233879 0.17294 
v 0.123291 0.233865 0.173777 
v 0.0382913 0.233865 0.173777 
v 0.123291 0.233938 0.174612 
v 0.0382913 0.233938 0.174612 
v 0.123291 0.234097 0.175434 
v 0.0382913 0.234097 0.175434 
v 0.123291 0.234342 0.176234 
v 0.0382913 0.234342 0.176234 
vn 5.09196e-14 -0.34202 -0.939693 
vn 5.09196e-14 -0.34202 -0.939693 
vn 5.05944e-14 -0.438371 -0.898794 
vn 5.05944e-14 -0.438371 -0.898794 
vn 4.97149e-14 -0.529919 -0.848048 
vn 4.97149e-14 -0.529919 -0.848048 
vn 4.82908e-14 -0.615661 -0.788011 
vn 4.82908e-14 -0.615661 -0.788011 
vn 4.63375e-14 -0.694658 -0.71934 
vn 4.63375e-14 -0.694658 -0.71934 
vn 4.38766e-14 -0.766044 -0.642788 
vn 4.38766e-14 -0.766044 -0.642788 
vn 4.09349e-14 -0.829038 -0.559193 
vn 4.09349e-14 -0.829038 -0.559193 
vn 3.75447e-14 -0.882948 -0.469472 
vn 3.75447e-14 -0.882948 -0.469472 
vn 3.37432e-14 -0.927184 -0.374607 
vn 3.37432e-14 -0.927184 -0.374607 
vn 2.9572e-14 -0.961262 -0.275637 
vn 2.9572e-14 -0.961262 -0.275637 
vn 2.50768e-14 -0.984808 -0.173648 
vn 2.50768e-14 -0.984808 -0.173648 
vn 2.03069e-14 -0.997564 -0.0697565 
vn 2.03069e-14 -0.997564 -0.0697565 
vn 1.53145e-14 -0.999391 0.0348995 
vn 1.53145e-14 -0.999391 0.0348995 
vn 1.01542e-14 -0.990268 0.139173 
vn 1.01542e-14 -0.990268 0.139173 
vn 4.88278e-15 -0.970296 0.241922 
vn 4.88278e-15 -0.970296 0.241922 
vn -4.42192e-16 -0.939693 0.34202 
vn -4.42192e-16 -0.939693 0.34202 
f 5//5 6//6 7//7 
f 8//8 7//7 9//9 
f 10//10 9//9 11//11 
f 12//12 11//11 13//13 
f 14//14 13//13 15//15 
f 16//16 15//15 17//17 
f 18//18 17//17 19//19 
f 20//20 19//19 21//21 
f 22//22 21//21 23//23 
f 24//24 23//23 25//25 
f 26//26 25//25 27//27 
f 28//28 27//27 29//29 
f 30//30 29//29 31//31 
f 32//32 31//31 33//33 
f 34//34 33//33 35//35 
f 35//35 36//36 34//34 
f 33//33 34//34 32//32 
f 31//31 32//32 30//30 
f 29//29 30//30 28//28 
f 27//27 28//28 26//26 
f 25//25 26//26 24//24 
f 23//23 24//24 22//22 
f 21//21 22//22 20//20 
f 19//19 20//20 18//18 
f 17//17 18//18 16//16 
f 15//15 16//16 14//14 
f 13//13 14//14 12//12 
f 11//11 12//12 10//10 
f 9//9 10//10 8//8 
f 7//7 8//8 5//5 
o mesh15803
v 0.0382913 0.239124 0.165981 
v 0.0382913 0.247581 0.162903 
v 0.123291 0.247581 0.162903 
v 0.123291 0.239124 0.165981 
vn 5.1e-14 -0.34202 -0.939693 
vn 5.1e-14 -0.34202 -0.939693 
vn 5.1e-14 -0.34202 -0.939693 
vn 5.1e-14 -0.34202 -0.939693 
f 37//37 38//38 39//39 
f 39//39 40//40 37//37 
o mesh15804
v 0.0382913 0.257835 0.167684 
v 0.123291 0.257835 0.167684 
v 0.123291 0.257507 0.166913 
v 0.0382913 0.257507 0.166913 
v 0.123291 0.257101 0.166181 
v 0.0382913 0.257101 0.166181 
v 0.123291 0.256621 0.165495 
v 0.0382913 0.256621 0.165495 
v 0.123291 0.256072 0.164863 
v 0.0382913 0.256072 0.164863 
v 0.123291 0.255459 0.164292 
v 0.0382913 0.255459 0.164292 
v 0.123291 0.254791 0.163788 
v 0.0382913 0.254791 0.163788 
v 0.123291 0.254073 0.163357 
v 0.0382913 0.254073 0.163357 
v 0.123291 0.253314 0.163003 
v 0.0382913 0.253314 0.163003 
v 0.123291 0.252522 0.16273 
v 0.0382913 0.252522 0.16273 
v 0.123291 0.251706 0.162542 
v 0.0382913 0.251706 0.162542 
v 0.123291 0.250875 0.16244 
v 0.0382913 0.250875 0.16244 
v 0.123291 0.250038 0.162425 
v 0.0382913 0.250038 0.162425 
v 0.123291 0.249204 0.162498 
v 0.0382913 0.249204 0.162498 
v 0.123291 0.248382 0.162658 
v 0.0382913 0.248382 0.162658 
v 0.123291 0.247581 0.162903 
v 0.0382913 0.247581 0.162903 
vn 4.42192e-16 0.939693 -0.34202 
vn 4.42192e-16 0.939693 -0.34202 
vn 5.76232e-15 0.898794 -0.438371 
vn 5.76232e-15 0.898794 -0.438371 
vn 1.10193e-14 0.848048 -0.529919 
vn 1.10193e-14 0.848048 -0.529919 
vn 1.61556e-14 0.788011 -0.615661 
vn 1.61556e-14 0.788011 -0.615661 
vn 2.11148e-14 0.71934 -0.694658 
vn 2.11148e-14 0.71934 -0.694658 
vn 2.58427e-14 0.642788 -0.766044 
vn 2.58427e-14 0.642788 -0.766044 
vn 3.02875e-14 0.559193 -0.829038 
vn 3.02875e-14 0.559193 -0.829038 
vn 3.44005e-14 0.469472 -0.882948 
vn 3.44005e-14 0.469472 -0.882948 
vn 3.81365e-14 0.374607 -0.927184 
vn 3.81365e-14 0.374607 -0.927184 
vn 4.14547e-14 0.275637 -0.961262 
vn 4.14547e-14 0.275637 -0.961262 
vn 4.43188e-14 0.173648 -0.984808 
vn 4.43188e-14 0.173648 -0.984808 
vn 4.66972e-14 0.0697565 -0.997564 
vn 4.66972e-14 0.0697565 -0.997564 
vn 4.85641e-14 -0.0348995 -0.999391 
vn 4.85641e-14 -0.0348995 -0.999391 
vn 4.98988e-14 -0.139173 -0.990268 
vn 4.98988e-14 -0.139173 -0.990268 
vn 5.06869e-14 -0.241922 -0.970296 
vn 5.06869e-14 -0.241922 -0.970296 
vn 5.09196e-14 -0.34202 -0.939693 
vn 5.09196e-14 -0.34202 -0.939693 
f 41//41 42//42 43//43 
f 44//44 43//43 45//45 
f 46//46 45//45 47//47 
f 48//48 47//47 49//49 
f 50//50 49//49 51//51 
f 52//52 51//51 53//53 
f 54//54 53//53 55//55 
f 56//56 55//55 57//57 
f 58//58 57//57 59//59 
f 60//60 59//59 61//61 
f 62//62 61//61 63//63 
f 64//64 63//63 65//65 
f 66//66 65//65 67//67 
f 68//68 67//67 69//69 
f 70//70 69//69 71//71 
f 71//71 72//72 70//70 
f 69//69 70//70 68//68 
f 67//67 68//68 66//66 
f 65//65 66//66 64//64 
f 63//63 64//64 62//62 
f 61//61 62//62 60//60 
f 59//59 60//60 58//58 
f 57//57 58//58 56//56 
f 55//55 56//56 54//54 
f 53//53 54//54 52//52 
f 51//51 52//52 50//50 
f 49//49 50//50 48//48 
f 47//47 48//48 46//46 
f 45//45 46//46 44//44 
f 43//43 44//44 41//41 
o mesh15805
v 0.0382913 0.257835 0.167684 
v 0.0382913 0.267411 0.193995 
v 0.123291 0.267411 0.193995 
v 0.123291 0.257835 0.167684 
vn 0 0.939693 -0.34202 
vn 0 0.939693 -0.34202 
vn 0 0.939693 -0.34202 
vn 0 0.939693 -0.34202 
f 73//73 74//74 75//75 
f 75//75 76//76 73//73 
o mesh15806
v 0.0382913 0.238353 0.166308 
v 0.0382913 0.235228 0.169025 
v 0.0382913 0.234796 0.169742 
v 0.0382913 0.236303 0.167744 
v 0.0382913 0.23762 0.166714 
v 0.0382913 0.234442 0.170501 
v 0.0382913 0.23417 0.171293 
v 0.0382913 0.235731 0.168356 
v 0.0382913 0.236935 0.167194 
v 0.0382913 0.267816 0.195618 
v 0.0382913 0.266957 0.200487 
v 0.0382913 0.267311 0.199728 
v 0.0382913 0.233981 0.172109 
v 0.0382913 0.267772 0.198121 
v 0.0382913 0.267874 0.19729 
v 0.0382913 0.267584 0.198937 
v 0.0382913 0.265451 0.202486 
v 0.0382913 0.266022 0.201874 
v 0.0382913 0.24844 0.207227 
v 0.0382913 0.250047 0.207688 
v 0.0382913 0.250878 0.20779 
v 0.0382913 0.251716 0.207805 
v 0.0382913 0.244652 0.204049 
v 0.0382913 0.245132 0.204735 
v 0.0382913 0.243919 0.202546 
v 0.0382913 0.244246 0.203317 
v 0.0382913 0.239124 0.165981 
v 0.0382913 0.233879 0.17294 
v 0.0382913 0.233865 0.173777 
v 0.0382913 0.257101 0.166181 
v 0.0382913 0.256621 0.165495 
v 0.0382913 0.256072 0.164863 
v 0.0382913 0.266526 0.201205 
v 0.0382913 0.249231 0.2075 
v 0.0382913 0.246963 0.206442 
v 0.0382913 0.247681 0.206873 
v 0.0382913 0.245682 0.205367 
v 0.0382913 0.246294 0.205938 
v 0.0382913 0.233938 0.174612 
v 0.0382913 0.257835 0.167684 
v 0.0382913 0.253314 0.163003 
v 0.0382913 0.252522 0.16273 
v 0.0382913 0.257507 0.166913 
v 0.0382913 0.255459 0.164292 
v 0.0382913 0.254791 0.163788 
v 0.0382913 0.267656 0.194796 
v 0.0382913 0.264133 0.203516 
v 0.0382913 0.264819 0.203036 
v 0.0382913 0.26263 0.204249 
v 0.0382913 0.263401 0.203922 
v 0.0382913 0.25255 0.207732 
v 0.0382913 0.253372 0.207572 
v 0.0382913 0.251706 0.162542 
v 0.0382913 0.250875 0.16244 
v 0.0382913 0.254073 0.163357 
v 0.0382913 0.267889 0.196452 
v 0.0382913 0.234342 0.176234 
v 0.0382913 0.234097 0.175434 
v 0.0382913 0.249204 0.162498 
v 0.0382913 0.248382 0.162658 
v 0.0382913 0.250038 0.162425 
v 0.0382913 0.267411 0.193995 
v 0.0382913 0.254173 0.207327 
v 0.0382913 0.247581 0.162903 
vn -1 -1.7e-14 -4.8e-14 
vn -1 -1.7e-14 -4.8e-14 
vn -1 -1.7e-14 -4.8e-14 
vn -1 -1.7e-14 -4.8e-14 
vn -1 -1.7e-14 -4.8e-14 
vn -1 -1.7e-14 -4.8e-14 
vn -1 -1.7e-14 -4.8e-14 
vn -1 -1.7e-14 -4.8e-14 
vn -1 -1.7e-14 -4.8e-14 
vn -1 -1.7e-14 -4.8e-14 
vn -1 -1.7e-14 -4.8e-14 
vn -1 -1.7e-14 -4.8e-14 
vn -1 -1.7e-14 -4.8e-14 
vn -1 -1.7e-14 -4.8e-14 
vn -1 -1.7e-14 -4.8e-14 
vn -1 -1.7e-14 -4.8e-14 
vn -1 -1.7e-14 -4.8e-14 
vn -1 -1.7e-14 -4.8e-14 
vn -1 -1.7e-14 -4.8e-14 
vn -1 -1.7e-14 -4.8e-14 
vn -1 -1.7e-14 -4.8e-14 
vn -1 -1.7e-14 -4.8e-14 
vn -1 -1.7e-14 -4.8e-14 
vn -1 -1.7e-14 -4.8e-14 
vn -1 -1.7e-14 -4.8e-14 
vn -1 -1.7e-14 -4.8e-14 
vn -1 -1.7e-14 -4.8e-14 
vn -1 -1.7e-14 -4.8e-14 
vn -1 -1.7e-14 -4.8e-14 
vn -1 -1.7e-14 -4.8e-14 
vn -1 -1.7e-14 -4.8e-14 
vn -1 -1.7e-14 -4.8e-14 
vn -1 -1.7e-14 -4.8e-14 
vn -1 -1.7e-14 -4.8e-14 
vn -1 -1.7e-14 -4.8e-14 
vn -1 -1.7e-14 -4.8e-14 
vn -1 -1.7e-14 -4.8e-14 
vn -1 -1.7e-14 -4.8e-14 
vn -1 -1.7e-14 -4.8e-14 
vn -1 -1.7e-14 -4.8e-14 
vn -1 -1.7e-14 -4.8e-14 
vn -1 -1.7e-14 -4.8e-14 
vn -1 -1.7e-14 -4.8e-14 
vn -1 -1.7e-14 -4.8e-14 
vn -1 -1.7e-14 -4.8e-14 
vn -1 -1.7e-14 -4.8e-14 
vn -1 -1.7e-14 -4.8e-14 
vn -1 -1.7e-14 -4.8e-14 
vn -1 -1.7e-14 -4.8e-14 
vn -1 -1.7e-14 -4.8e-14 
vn -1 -1.7e-14 -4.8e-14 
vn -1 -1.7e-14 -4.8e-14 
vn -1 -1.7e-14 -4.8e-14 
vn -1 -1.7e-14 -4.8e-14 
vn -1 -1.7e-14 -4.8e-14 
vn -1 -1.7e-14 -4.8e-14 
vn -1 -1.7e-14 -4.8e-14 
vn -1 -1.7e-14 -4.8e-14 
vn -1 -1.7e-14 -4.8e-14 
vn -1 -1.7e-14 -4.8e-14 
vn -1 -1.7e-14 -4.8e-14 
vn -1 -1.7e-14 -4.8e-14 
vn -1 -1.7e-14 -4.8e-14 
vn -1 -1.7e-14 -4.8e-14 
f 77//77 78//78 79//79 
f 80//80 77//77 81//81 
f 77//77 82//82 83//83 
f 77//77 84//84 78//78 
f 81//81 85//85 80//80 
f 86//86 87//87 88//88 
f 83//83 89//89 77//77 
f 80//80 84//84 77//77 
f 86//86 90//90 91//91 
f 88//88 92//92 86//86 
f 86//86 93//93 94//94 
f 95//95 96//96 97//97 
f 98//98 99//99 100//100 
f 98//98 101//101 102//102 
f 103//103 104//104 105//105 
f 79//79 82//82 77//77 
f 106//106 107//107 108//108 
f 92//92 90//90 86//86 
f 94//94 109//109 86//86 
f 95//95 110//110 96//96 
f 98//98 111//111 112//112 
f 98//98 113//113 114//114 
f 102//102 99//99 98//98 
f 105//105 115//115 103//103 
f 104//104 103//103 77//77 
f 116//116 117//117 118//118 
f 119//119 120//120 121//121 
f 120//120 119//119 106//106 
f 109//109 87//87 86//86 
f 122//122 123//123 124//124 
f 122//122 125//125 126//126 
f 101//101 127//127 128//128 
f 112//112 95//95 98//98 
f 100//100 113//113 98//98 
f 89//89 104//104 77//77 
f 116//116 129//129 130//130 
f 116//116 131//131 117//117 
f 108//108 120//120 106//106 
f 91//91 132//132 86//86 
f 126//126 123//123 122//122 
f 101//101 98//98 127//127 
f 114//114 111//111 98//98 
f 103//103 133//133 101//101 
f 115//115 134//134 103//103 
f 116//116 135//135 136//136 
f 118//118 129//129 116//116 
f 131//131 116//116 119//119 
f 124//124 93//93 122//122 
f 97//97 98//98 95//95 
f 134//134 133//133 103//103 
f 116//116 137//137 135//135 
f 121//121 131//131 119//119 
f 125//125 138//138 116//116 
f 86//86 122//122 93//93 
f 139//139 125//125 140//140 
f 101//101 139//139 103//103 
f 130//130 137//137 116//116 
f 122//122 138//138 125//125 
f 128//128 139//139 101//101 
f 116//116 140//140 125//125 
f 136//136 140//140 116//116 
f 140//140 103//103 139//139 
o mesh15807
v 0.123291 0.23762 0.166714 
v 0.123291 0.234442 0.170501 
v 0.123291 0.234796 0.169742 
v 0.123291 0.233981 0.172109 
v 0.123291 0.23417 0.171293 
v 0.123291 0.233865 0.173777 
v 0.123291 0.233879 0.17294 
v 0.123291 0.235731 0.168356 
v 0.123291 0.236303 0.167744 
v 0.123291 0.235228 0.169025 
v 0.123291 0.253372 0.207572 
v 0.123291 0.24844 0.207227 
v 0.123291 0.247681 0.206873 
v 0.123291 0.267816 0.195618 
v 0.123291 0.264133 0.203516 
v 0.123291 0.263401 0.203922 
v 0.123291 0.265451 0.202486 
v 0.123291 0.264819 0.203036 
v 0.123291 0.267584 0.198937 
v 0.123291 0.267311 0.199728 
v 0.123291 0.267889 0.196452 
v 0.123291 0.267874 0.19729 
v 0.123291 0.256072 0.164863 
v 0.123291 0.257101 0.166181 
v 0.123291 0.257507 0.166913 
v 0.123291 0.257835 0.167684 
v 0.123291 0.254791 0.163788 
v 0.123291 0.255459 0.164292 
v 0.123291 0.233938 0.174612 
v 0.123291 0.249231 0.2075 
v 0.123291 0.250047 0.207688 
v 0.123291 0.25255 0.207732 
v 0.123291 0.266526 0.201205 
v 0.123291 0.266022 0.201874 
v 0.123291 0.266957 0.200487 
v 0.123291 0.267772 0.198121 
v 0.123291 0.256621 0.165495 
v 0.123291 0.254073 0.163357 
v 0.123291 0.251706 0.162542 
v 0.123291 0.252522 0.16273 
v 0.123291 0.250038 0.162425 
v 0.123291 0.250875 0.16244 
v 0.123291 0.234342 0.176234 
v 0.123291 0.234097 0.175434 
v 0.123291 0.254173 0.207327 
v 0.123291 0.245132 0.204735 
v 0.123291 0.244652 0.204049 
v 0.123291 0.246963 0.206442 
v 0.123291 0.246294 0.205938 
v 0.123291 0.251716 0.207805 
v 0.123291 0.253314 0.163003 
v 0.123291 0.249204 0.162498 
v 0.123291 0.247581 0.162903 
v 0.123291 0.248382 0.162658 
v 0.123291 0.238353 0.166308 
v 0.123291 0.244246 0.203317 
v 0.123291 0.245682 0.205367 
v 0.123291 0.250878 0.20779 
v 0.123291 0.26263 0.204249 
v 0.123291 0.267411 0.193995 
v 0.123291 0.267656 0.194796 
v 0.123291 0.236935 0.167194 
v 0.123291 0.239124 0.165981 
v 0.123291 0.243919 0.202546 
vn 1 1.7e-14 4.8e-14 
vn 1 1.7e-14 4.8e-14 
vn 1 1.7e-14 4.8e-14 
vn 1 1.7e-14 4.8e-14 
vn 1 1.7e-14 4.8e-14 
vn 1 1.7e-14 4.8e-14 
vn 1 1.7e-14 4.8e-14 
vn 1 1.7e-14 4.8e-14 
vn 1 1.7e-14 4.8e-14 
vn 1 1.7e-14 4.8e-14 
vn 1 1.7e-14 4.8e-14 
vn 1 1.7e-14 4.8e-14 
vn 1 1.7e-14 4.8e-14 
vn 1 1.7e-14 4.8e-14 
vn 1 1.7e-14 4.8e-14 
vn 1 1.7e-14 4.8e-14 
vn 1 1.7e-14 4.8e-14 
vn 1 1.7e-14 4.8e-14 
vn 1 1.7e-14 4.8e-14 
vn 1 1.7e-14 4.8e-14 
vn 1 1.7e-14 4.8e-14 
vn 1 1.7e-14 4.8e-14 
vn 1 1.7e-14 4.8e-14 
vn 1 1.7e-14 4.8e-14 
vn 1 1.7e-14 4.8e-14 
vn 1 1.7e-14 4.8e-14 
vn 1 1.7e-14 4.8e-14 
vn 1 1.7e-14 4.8e-14 
vn 1 1.7e-14 4.8e-14 
vn 1 1.7e-14 4.8e-14 
vn 1 1.7e-14 4.8e-14 
vn 1 1.7e-14 4.8e-14 
vn 1 1.7e-14 4.8e-14 
vn 1 1.7e-14 4.8e-14 
vn 1 1.7e-14 4.8e-14 
vn 1 1.7e-14 4.8e-14 
vn 1 1.7e-14 4.8e-14 
vn 1 1.7e-14 4.8e-14 
vn 1 1.7e-14 4.8e-14 
vn 1 1.7e-14 4.8e-14 
vn 1 1.7e-14 4.8e-14 
vn 1 1.7e-14 4.8e-14 
vn 1 1.7e-14 4.8e-14 
vn 1 1.7e-14 4.8e-14 
vn 1 1.7e-14 4.8e-14 
vn 1 1.7e-14 4.8e-14 
vn 1 1.7e-14 4.8e-14 
vn 1 1.7e-14 4.8e-14 
vn 1 1.7e-14 4.8e-14 
vn 1 1.7e-14 4.8e-14 
vn 1 1.7e-14 4.8e-14 
vn 1 1.7e-14 4.8e-14 
vn 1 1.7e-14 4.8e-14 
vn 1 1.7e-14 4.8e-14 
vn 1 1.7e-14 4.8e-14 
vn 1 1.7e-14 4.8e-14 
vn 1 1.7e-14 4.8e-14 
vn 1 1.7e-14 4.8e-14 
vn 1 1.7e-14 4.8e-14 
vn 1 1.7e-14 4.8e-14 
vn 1 1.7e-14 4.8e-14 
vn 1 1.7e-14 4.8e-14 
vn 1 1.7e-14 4.8e-14 
vn 1 1.7e-14 4.8e-14 
f 141//141 142//142 143//143 
f 141//141 144//144 145//145 
f 141//141 146//146 147//147 
f 141//141 148//148 149//149 
f 143//143 150//150 141//141 
f 147//147 144//144 141//141 
f 151//151 152//152 153//153 
f 154//154 155//155 156//156 
f 154//154 157//157 158//158 
f 154//154 159//159 160//160 
f 154//154 161//161 162//162 
f 163//163 164//164 165//165 
f 166//166 167//167 168//168 
f 150//150 148//148 141//141 
f 141//141 169//169 146//146 
f 151//151 170//170 152//152 
f 171//171 151//151 172//172 
f 158//158 155//155 154//154 
f 154//154 173//173 174//174 
f 160//160 175//175 154//154 
f 162//162 176//176 154//154 
f 163//163 177//177 164//164 
f 166//166 178//178 167//167 
f 166//166 179//179 180//180 
f 166//166 181//181 182//182 
f 145//145 142//142 141//141 
f 141//141 183//183 184//184 
f 185//185 186//186 187//187 
f 185//185 188//188 189//189 
f 151//151 171//171 170//170 
f 172//172 190//190 171//171 
f 174//174 157//157 154//154 
f 176//176 159//159 154//154 
f 168//168 163//163 166//166 
f 180//180 191//191 166//166 
f 166//166 192//192 181//181 
f 166//166 193//193 194//194 
f 183//183 141//141 195//195 
f 184//184 169//169 141//141 
f 187//187 196//196 185//185 
f 189//189 197//197 185//185 
f 190//190 198//198 171//171 
f 175//175 173//173 154//154 
f 199//199 200//200 201//201 
f 191//191 178//178 166//166 
f 194//194 192//192 166//166 
f 149//149 202//202 141//141 
f 197//197 186//186 185//185 
f 188//188 185//185 151//151 
f 200//200 199//199 185//185 
f 201//201 154//154 199//199 
f 182//182 179//179 166//166 
f 195//195 203//203 183//183 
f 200//200 204//204 183//183 
f 153//153 188//188 151//151 
f 156//156 199//199 154//154 
f 165//165 166//166 163//163 
f 183//183 193//193 200//200 
f 185//185 204//204 200//200 
f 203//203 193//193 183//183 
f 166//166 200//200 193//193 
f 196//196 204//204 185//185 
o mesh15808
v 0.0382913 0.243919 0.202546 
v 0.123291 0.243919 0.202546 
v 0.123291 0.244246 0.203317 
v 0.0382913 0.244246 0.203317 
v 0.123291 0.244652 0.204049 
v 0.0382913 0.244652 0.204049 
v 0.123291 0.245132 0.204735 
v 0.0382913 0.245132 0.204735 
v 0.123291 0.245682 0.205367 
v 0.0382913 0.245682 0.205367 
v 0.123291 0.246294 0.205938 
v 0.0382913 0.246294 0.205938 
v 0.123291 0.246963 0.206442 
v 0.0382913 0.246963 0.206442 
v 0.123291 0.247681 0.206873 
v 0.0382913 0.247681 0.206873 
v 0.123291 0.24844 0.207227 
v 0.0382913 0.24844 0.207227 
v 0.123291 0.249231 0.2075 
v 0.0382913 0.249231 0.2075 
v 0.123291 0.250047 0.207688 
v 0.0382913 0.250047 0.207688 
v 0.123291 0.250878 0.20779 
v 0.0382913 0.250878 0.20779 
v 0.123291 0.251716 0.207805 
v 0.0382913 0.251716 0.207805 
v 0.123291 0.25255 0.207732 
v 0.0382913 0.25255 0.207732 
v 0.123291 0.253372 0.207572 
v 0.0382913 0.253372 0.207572 
v 0.123291 0.254173 0.207327 
v 0.0382913 0.254173 0.207327 
vn -4.42192e-16 -0.939693 0.34202 
vn -4.42192e-16 -0.939693 0.34202 
vn -5.76232e-15 -0.898794 0.438371 
vn -5.76232e-15 -0.898794 0.438371 
vn -1.10193e-14 -0.848048 0.529919 
vn -1.10193e-14 -0.848048 0.529919 
vn -1.61556e-14 -0.788011 0.615661 
vn -1.61556e-14 -0.788011 0.615661 
vn -2.11148e-14 -0.71934 0.694658 
vn -2.11148e-14 -0.71934 0.694658 
vn -2.58427e-14 -0.642788 0.766044 
vn -2.58427e-14 -0.642788 0.766044 
vn -3.02875e-14 -0.559193 0.829038 
vn -3.02875e-14 -0.559193 0.829038 
vn -3.44005e-14 -0.469472 0.882948 
vn -3.44005e-14 -0.469472 0.882948 
vn -3.81365e-14 -0.374607 0.927184 
vn -3.81365e-14 -0.374607 0.927184 
vn -4.14547e-14 -0.275637 0.961262 
vn -4.14547e-14 -0.275637 0.961262 
vn -4.43188e-14 -0.173648 0.984808 
vn -4.43188e-14 -0.173648 0.984808 
vn -4.66972e-14 -0.0697565 0.997564 
vn -4.66972e-14 -0.0697565 0.997564 
vn -4.85641e-14 0.0348995 0.999391 
vn -4.85641e-14 0.0348995 0.999391 
vn -4.98988e-14 0.139173 0.990268 
vn -4.98988e-14 0.139173 0.990268 
vn -5.06869e-14 0.241922 0.970296 
vn -5.06869e-14 0.241922 0.970296 
vn -5.09196e-14 0.34202 0.939693 
vn -5.09196e-14 0.34202 0.939693 
f 205//205 206//206 207//207 
f 208//208 207//207 209//209 
f 210//210 209//209 211//211 
f 212//212 211//211 213//213 
f 214//214 213//213 215//215 
f 216//216 215//215 217//217 
f 218//218 217//217 219//219 
f 220//220 219//219 221//221 
f 222//222 221//221 223//223 
f 224//224 223//223 225//225 
f 226//226 225//225 227//227 
f 228//228 227//227 229//229 
f 230//230 229//229 231//231 
f 232//232 231//231 233//233 
f 234//234 233//233 235//235 
f 235//235 236//236 234//234 
f 233//233 234//234 232//232 
f 231//231 232//232 230//230 
f 229//229 230//230 228//228 
f 227//227 228//228 226//226 
f 225//225 226//226 224//224 
f 223//223 224//224 222//222 
f 221//221 222//222 220//220 
f 219//219 220//220 218//218 
f 217//217 218//218 216//216 
f 215//215 216//216 214//214 
f 213//213 214//214 212//212 
f 211//211 212//212 210//210 
f 209//209 210//210 208//208 
f 207//207 208//208 205//205 
o mesh15809
v 0.123291 0.254173 0.207327 
v 0.123291 0.26263 0.204249 
v 0.0382913 0.26263 0.204249 
v 0.0382913 0.254173 0.207327 
vn -5.09196e-14 0.34202 0.939693 
vn -5.09196e-14 0.34202 0.939693 
vn -5.09196e-14 0.34202 0.939693 
vn -5.09196e-14 0.34202 0.939693 
f 237//237 238//238 239//239 
f 239//239 240//240 237//237 
o mesh15810
v 0.0382913 0.26263 0.204249 
v 0.123291 0.26263 0.204249 
v 0.123291 0.263401 0.203922 
v 0.0382913 0.263401 0.203922 
v 0.123291 0.264133 0.203516 
v 0.0382913 0.264133 0.203516 
v 0.123291 0.264819 0.203036 
v 0.0382913 0.264819 0.203036 
v 0.123291 0.265451 0.202486 
v 0.0382913 0.265451 0.202486 
v 0.123291 0.266022 0.201874 
v 0.0382913 0.266022 0.201874 
v 0.123291 0.266526 0.201205 
v 0.0382913 0.266526 0.201205 
v 0.123291 0.266957 0.200487 
v 0.0382913 0.266957 0.200487 
v 0.123291 0.267311 0.199728 
v 0.0382913 0.267311 0.199728 
v 0.123291 0.267584 0.198937 
v 0.0382913 0.267584 0.198937 
v 0.123291 0.267772 0.198121 
v 0.0382913 0.267772 0.198121 
v 0.123291 0.267874 0.19729 
v 0.0382913 0.267874 0.19729 
v 0.123291 0.267889 0.196452 
v 0.0382913 0.267889 0.196452 
v 0.123291 0.267816 0.195618 
v 0.0382913 0.267816 0.195618 
v 0.123291 0.267656 0.194796 
v 0.0382913 0.267656 0.194796 
v 0.123291 0.267411 0.193995 
v 0.0382913 0.267411 0.193995 
vn -5.09196e-14 0.34202 0.939693 
vn -5.09196e-14 0.34202 0.939693 
vn -5.05944e-14 0.438371 0.898794 
vn -5.05944e-14 0.438371 0.898794 
vn -4.97149e-14 0.529919 0.848048 
vn -4.97149e-14 0.529919 0.848048 
vn -4.82908e-14 0.615661 0.788011 
vn -4.82908e-14 0.615661 0.788011 
vn -4.63375e-14 0.694658 0.71934 
vn -4.63375e-14 0.694658 0.71934 
vn -4.38766e-14 0.766044 0.642788 
vn -4.38766e-14 0.766044 0.642788 
vn -4.09349e-14 0.829038 0.559193 
vn -4.09349e-14 0.829038 0.559193 
vn -3.75447e-14 0.882948 0.469472 
vn -3.75447e-14 0.882948 0.469472 
vn -3.37432e-14 0.927184 0.374607 
vn -3.37432e-14 0.927184 0.374607 
vn -2.9572e-14 0.961262 0.275637 
vn -2.9572e-14 0.961262 0.275637 
vn -2.50768e-14 0.984808 0.173648 
vn -2.50768e-14 0.984808 0.173648 
vn -2.03069e-14 0.997564 0.0697565 
vn -2.03069e-14 0.997564 0.0697565 
vn -1.53145e-14 0.999391 -0.0348995 
vn -1.53145e-14 0.999391 -0.0348995 
vn -1.01542e-14 0.990268 -0.139173 
vn -1.01542e-14 0.990268 -0.139173 
vn -4.88278e-15 0.970296 -0.241922 
vn -4.88278e-15 0.970296 -0.241922 
vn 4.42192e-16 0.939693 -0.34202 
vn 4.42192e-16 0.939693 -0.34202 
f 241//241 242//242 243//243 
f 244//244 243//243 245//245 
f 246//246 245//245 247//247 
f 248//248 247//247 249//249 
f 250//250 249//249 251//251 
f 252//252 251//251 253//253 
f 254//254 253//253 255//255 
f 256//256 255//255 257//257 
f 258//258 257//257 259//259 
f 260//260 259//259 261//261 
f 262//262 261//261 263//263 
f 264//264 263//263 265//265 
f 266//266 265//265 267//267 
f 268//268 267//267 269//269 
f 270//270 269//269 271//271 
f 271//271 272//272 270//270 
f 269//269 270//270 268//268 
f 267//267 268//268 266//266 
f 265//265 266//266 264//264 
f 263//263 264//264 262//262 
f 261//261 262//262 260//260 
f 259//259 260//260 258//258 
f 257//257 258//258 256//256 
f 255//255 256//256 254//254 
f 253//253 254//254 252//252 
f 251//251 252//252 250//250 
f 249//249 250//250 248//248 
f 247//247 248//248 246//246 
f 245//245 246//246 244//244 
f 243//243 244//244 241//241 
