# OBJ generated by ONSHAPE BY PTC INC, 1.215 Units = meters
mtllib EBoxNewAsm_stp_1_EboxNew_stp_1_solid3.mtl
g EBoxNewAsm.stp-1/EboxNew.stp-1-solid3
usemtl 0.627451_0.627451_0.627451_0.000000_0.000000
o mesh10066
v 0.354825 0.158905 -0.118231 
v 0.354825 0.157819 -0.121215 
v 0.354808 0.158131 -0.121328 
v 0.354808 0.159217 -0.118345 
v 0.354756 0.158439 -0.12144 
v 0.354756 0.159525 -0.118457 
v 0.35467 0.158741 -0.12155 
v 0.35467 0.159827 -0.118567 
v 0.354551 0.159032 -0.121656 
v 0.354551 0.160118 -0.118673 
v 0.3544 0.159311 -0.121758 
v 0.3544 0.160396 -0.118774 
v 0.354219 0.159572 -0.121853 
v 0.354219 0.160658 -0.118869 
v 0.354009 0.159815 -0.121941 
v 0.354009 0.160901 -0.118958 
v 0.353774 0.160036 -0.122022 
v 0.353774 0.161122 -0.119038 
v 0.353516 0.160233 -0.122093 
v 0.353516 0.161318 -0.11911 
v 0.353238 0.160403 -0.122155 
v 0.353238 0.161489 -0.119172 
v 0.352941 0.160544 -0.122207 
v 0.352941 0.16163 -0.119223 
v 0.352631 0.160656 -0.122247 
v 0.352631 0.161742 -0.119264 
v 0.35231 0.160737 -0.122277 
v 0.35231 0.161823 -0.119293 
v 0.351982 0.160786 -0.122295 
v 0.351982 0.161872 -0.119311 
v 0.35165 0.160802 -0.122301 
v 0.35165 0.161888 -0.119317 
vn 1 1.86884e-14 4.7471e-14 
vn 1 1.86884e-14 4.7471e-14 
vn 0.994522 0.0982246 -0.0357508 
vn 0.994522 0.0982246 -0.0357508 
vn 0.978148 0.195373 -0.07111 
vn 0.978148 0.195373 -0.07111 
vn 0.951057 0.290381 -0.10569 
vn 0.951057 0.290381 -0.10569 
vn 0.913545 0.382207 -0.139112 
vn 0.913545 0.382207 -0.139112 
vn 0.866025 0.469846 -0.17101 
vn 0.866025 0.469846 -0.17101 
vn 0.809017 0.552337 -0.201034 
vn 0.809017 0.552337 -0.201034 
vn 0.743145 0.628777 -0.228856 
vn 0.743145 0.628777 -0.228856 
vn 0.669131 0.698328 -0.25417 
vn 0.669131 0.698328 -0.25417 
vn 0.587785 0.760227 -0.2767 
vn 0.587785 0.760227 -0.2767 
vn 0.5 0.813798 -0.296198 
vn 0.5 0.813798 -0.296198 
vn 0.406737 0.858452 -0.312451 
vn 0.406737 0.858452 -0.312451 
vn 0.309017 0.893701 -0.32528 
vn 0.309017 0.893701 -0.32528 
vn 0.207912 0.919158 -0.334546 
vn 0.207912 0.919158 -0.334546 
vn 0.104528 0.934545 -0.340147 
vn 0.104528 0.934545 -0.340147 
vn 8.50589e-15 0.939693 -0.34202 
vn 8.50589e-15 0.939693 -0.34202 
f 1//1 2//2 3//3 
f 4//4 3//3 5//5 
f 6//6 5//5 7//7 
f 8//8 7//7 9//9 
f 10//10 9//9 11//11 
f 12//12 11//11 13//13 
f 14//14 13//13 15//15 
f 16//16 15//15 17//17 
f 18//18 17//17 19//19 
f 20//20 19//19 21//21 
f 22//22 21//21 23//23 
f 24//24 23//23 25//25 
f 26//26 25//25 27//27 
f 28//28 27//27 29//29 
f 30//30 29//29 31//31 
f 31//31 32//32 30//30 
f 29//29 30//30 28//28 
f 27//27 28//28 26//26 
f 25//25 26//26 24//24 
f 23//23 24//24 22//22 
f 21//21 22//22 20//20 
f 19//19 20//20 18//18 
f 17//17 18//18 16//16 
f 15//15 16//16 14//14 
f 13//13 14//14 12//12 
f 11//11 12//12 10//10 
f 9//9 10//10 8//8 
f 7//7 8//8 6//6 
f 5//5 6//6 4//4 
f 3//3 4//4 1//1 
o mesh10067
v 0.35165 0.161888 -0.119317 
v 0.35165 0.160802 -0.122301 
v 0.01635 0.160802 -0.122301 
v 0.01635 0.161888 -0.119317 
vn 8.50589e-15 0.939693 -0.34202 
vn 8.50589e-15 0.939693 -0.34202 
vn 8.50589e-15 0.939693 -0.34202 
vn 8.50589e-15 0.939693 -0.34202 
f 33//33 34//34 35//35 
f 35//35 36//36 33//33 
o mesh10068
v 0.01635 0.161888 -0.119317 
v 0.01635 0.160802 -0.122301 
v 0.0160181 0.160786 -0.122295 
v 0.0160181 0.161872 -0.119311 
v 0.0156899 0.160737 -0.122277 
v 0.0156899 0.161823 -0.119293 
v 0.0153689 0.160656 -0.122247 
v 0.0153689 0.161742 -0.119264 
v 0.0150586 0.160544 -0.122207 
v 0.0150586 0.16163 -0.119223 
v 0.0147625 0.160403 -0.122155 
v 0.0147625 0.161489 -0.119172 
v 0.0144838 0.160233 -0.122093 
v 0.0144838 0.161318 -0.11911 
v 0.0142255 0.160036 -0.122022 
v 0.0142255 0.161122 -0.119038 
v 0.0139905 0.159815 -0.121941 
v 0.0139905 0.160901 -0.118958 
v 0.0137814 0.159572 -0.121853 
v 0.0137814 0.160658 -0.118869 
v 0.0136004 0.159311 -0.121758 
v 0.0136004 0.160396 -0.118774 
v 0.0134495 0.159032 -0.121656 
v 0.0134495 0.160118 -0.118673 
v 0.0133304 0.158741 -0.12155 
v 0.0133304 0.159827 -0.118567 
v 0.0132444 0.158439 -0.12144 
v 0.0132444 0.159525 -0.118457 
v 0.0131924 0.158131 -0.121328 
v 0.0131924 0.159217 -0.118345 
v 0.013175 0.157819 -0.121215 
v 0.013175 0.158905 -0.118231 
vn 8.50589e-15 0.939693 -0.34202 
vn 8.50589e-15 0.939693 -0.34202 
vn -0.104528 0.934545 -0.340147 
vn -0.104528 0.934545 -0.340147 
vn -0.207912 0.919158 -0.334546 
vn -0.207912 0.919158 -0.334546 
vn -0.309017 0.893701 -0.32528 
vn -0.309017 0.893701 -0.32528 
vn -0.406737 0.858452 -0.312451 
vn -0.406737 0.858452 -0.312451 
vn -0.5 0.813798 -0.296198 
vn -0.5 0.813798 -0.296198 
vn -0.587785 0.760227 -0.2767 
vn -0.587785 0.760227 -0.2767 
vn -0.669131 0.698328 -0.25417 
vn -0.669131 0.698328 -0.25417 
vn -0.743145 0.628777 -0.228856 
vn -0.743145 0.628777 -0.228856 
vn -0.809017 0.552337 -0.201034 
vn -0.809017 0.552337 -0.201034 
vn -0.866025 0.469846 -0.17101 
vn -0.866025 0.469846 -0.17101 
vn -0.913545 0.382207 -0.139112 
vn -0.913545 0.382207 -0.139112 
vn -0.951057 0.290381 -0.10569 
vn -0.951057 0.290381 -0.10569 
vn -0.978148 0.195373 -0.07111 
vn -0.978148 0.195373 -0.07111 
vn -0.994522 0.0982246 -0.0357508 
vn -0.994522 0.0982246 -0.0357508 
vn -1 -1.56341e-14 -4.85827e-14 
vn -1 -1.56341e-14 -4.85827e-14 
f 37//37 38//38 39//39 
f 40//40 39//39 41//41 
f 42//42 41//41 43//43 
f 44//44 43//43 45//45 
f 46//46 45//45 47//47 
f 48//48 47//47 49//49 
f 50//50 49//49 51//51 
f 52//52 51//51 53//53 
f 54//54 53//53 55//55 
f 56//56 55//55 57//57 
f 58//58 57//57 59//59 
f 60//60 59//59 61//61 
f 62//62 61//61 63//63 
f 64//64 63//63 65//65 
f 66//66 65//65 67//67 
f 67//67 68//68 66//66 
f 65//65 66//66 64//64 
f 63//63 64//64 62//62 
f 61//61 62//62 60//60 
f 59//59 60//60 58//58 
f 57//57 58//58 56//56 
f 55//55 56//56 54//54 
f 53//53 54//54 52//52 
f 51//51 52//52 50//50 
f 49//49 50//50 48//48 
f 47//47 48//48 46//46 
f 45//45 46//46 44//44 
f 43//43 44//44 42//42 
f 41//41 42//42 40//40 
f 39//39 40//40 37//37 
o mesh10069
v 0.0144838 0.161318 -0.11911 
v 0.0137814 0.160658 -0.118869 
v 0.0136004 0.160396 -0.118774 
v 0.0142255 0.161122 -0.119038 
v 0.0139905 0.160901 -0.118958 
v 0.013175 0.158905 -0.118231 
v 0.0153689 0.161742 -0.119264 
v 0.0150586 0.16163 -0.119223 
v 0.35165 0.161888 -0.119317 
v 0.352631 0.161742 -0.119264 
v 0.35231 0.161823 -0.119293 
v 0.0134495 0.160118 -0.118673 
v 0.0133304 0.159827 -0.118567 
v 0.0147625 0.161489 -0.119172 
v 0.0160181 0.161872 -0.119311 
v 0.0156899 0.161823 -0.119293 
v 0.352941 0.16163 -0.119223 
v 0.353516 0.161318 -0.11911 
v 0.353238 0.161489 -0.119172 
v 0.3544 0.160396 -0.118774 
v 0.354219 0.160658 -0.118869 
v 0.354808 0.159217 -0.118345 
v 0.354756 0.159525 -0.118457 
v 0.0132444 0.159525 -0.118457 
v 0.0131924 0.159217 -0.118345 
v 0.354009 0.160901 -0.118958 
v 0.353774 0.161122 -0.119038 
v 0.354551 0.160118 -0.118673 
v 0.35467 0.159827 -0.118567 
v 0.01635 0.161888 -0.119317 
v 0.013175 0.0216626 -0.0682791 
v 0.354825 0.0216626 -0.0682791 
v 0.354825 0.158905 -0.118231 
v 0.351982 0.161872 -0.119311 
vn -5.1e-14 0.34202 0.939693 
vn -5.1e-14 0.34202 0.939693 
vn -5.1e-14 0.34202 0.939693 
vn -5.1e-14 0.34202 0.939693 
vn -5.1e-14 0.34202 0.939693 
vn -5.1e-14 0.34202 0.939693 
vn -5.1e-14 0.34202 0.939693 
vn -5.1e-14 0.34202 0.939693 
vn -5.1e-14 0.34202 0.939693 
vn -5.1e-14 0.34202 0.939693 
vn -5.1e-14 0.34202 0.939693 
vn -5.1e-14 0.34202 0.939693 
vn -5.1e-14 0.34202 0.939693 
vn -5.1e-14 0.34202 0.939693 
vn -5.1e-14 0.34202 0.939693 
vn -5.1e-14 0.34202 0.939693 
vn -5.1e-14 0.34202 0.939693 
vn -5.1e-14 0.34202 0.939693 
vn -5.1e-14 0.34202 0.939693 
vn -5.1e-14 0.34202 0.939693 
vn -5.1e-14 0.34202 0.939693 
vn -5.1e-14 0.34202 0.939693 
vn -5.1e-14 0.34202 0.939693 
vn -5.1e-14 0.34202 0.939693 
vn -5.1e-14 0.34202 0.939693 
vn -5.1e-14 0.34202 0.939693 
vn -5.1e-14 0.34202 0.939693 
vn -5.1e-14 0.34202 0.939693 
vn -5.1e-14 0.34202 0.939693 
vn -5.1e-14 0.34202 0.939693 
vn -5.1e-14 0.34202 0.939693 
vn -5.1e-14 0.34202 0.939693 
vn -5.1e-14 0.34202 0.939693 
vn -5.1e-14 0.34202 0.939693 
f 69//69 70//70 71//71 
f 69//69 72//72 73//73 
f 74//74 75//75 76//76 
f 77//77 78//78 79//79 
f 69//69 80//80 81//81 
f 73//73 70//70 69//69 
f 76//76 82//82 74//74 
f 74//74 83//83 84//84 
f 77//77 85//85 78//78 
f 77//77 86//86 87//87 
f 77//77 88//88 89//89 
f 77//77 90//90 91//91 
f 69//69 92//92 93//93 
f 71//71 80//80 69//69 
f 84//84 75//75 74//74 
f 87//87 85//85 77//77 
f 77//77 94//94 95//95 
f 77//77 96//96 88//88 
f 91//91 97//97 77//77 
f 81//81 92//92 69//69 
f 74//74 98//98 83//83 
f 95//95 86//86 77//77 
f 97//97 96//96 77//77 
f 82//82 69//69 74//74 
f 89//89 94//94 77//77 
f 99//99 100//100 77//77 
f 74//74 77//77 98//98 
f 77//77 101//101 90//90 
f 93//93 74//74 69//69 
f 77//77 100//100 101//101 
f 79//79 102//102 77//77 
f 77//77 74//74 99//99 
o mesh10070
v 0.0156899 0.160737 -0.122277 
v 0.0147625 0.160403 -0.122155 
v 0.0150586 0.160544 -0.122207 
v 0.0137814 0.159572 -0.121853 
v 0.0139905 0.159815 -0.121941 
v 0.0144838 0.160233 -0.122093 
v 0.0142255 0.160036 -0.122022 
v 0.0160181 0.160786 -0.122295 
v 0.0134495 0.159032 -0.121656 
v 0.0136004 0.159311 -0.121758 
v 0.0132444 0.158439 -0.12144 
v 0.0133304 0.158741 -0.12155 
v 0.35165 0.160802 -0.122301 
v 0.35467 0.158741 -0.12155 
v 0.354756 0.158439 -0.12144 
v 0.353238 0.160403 -0.122155 
v 0.353516 0.160233 -0.122093 
v 0.35231 0.160737 -0.122277 
v 0.352631 0.160656 -0.122247 
v 0.013175 0.157819 -0.121215 
v 0.0131924 0.158131 -0.121328 
v 0.354551 0.159032 -0.121656 
v 0.354219 0.159572 -0.121853 
v 0.3544 0.159311 -0.121758 
v 0.352941 0.160544 -0.122207 
v 0.351982 0.160786 -0.122295 
v 0.0153689 0.160656 -0.122247 
v 0.353774 0.160036 -0.122022 
v 0.354009 0.159815 -0.121941 
v 0.354808 0.158131 -0.121328 
v 0.01635 0.160802 -0.122301 
v 0.013175 0.0205767 -0.0712626 
v 0.354825 0.157819 -0.121215 
v 0.354825 0.0205767 -0.0712626 
vn 5.1e-14 -0.34202 -0.939693 
vn 5.1e-14 -0.34202 -0.939693 
vn 5.1e-14 -0.34202 -0.939693 
vn 5.1e-14 -0.34202 -0.939693 
vn 5.1e-14 -0.34202 -0.939693 
vn 5.1e-14 -0.34202 -0.939693 
vn 5.1e-14 -0.34202 -0.939693 
vn 5.1e-14 -0.34202 -0.939693 
vn 5.1e-14 -0.34202 -0.939693 
vn 5.1e-14 -0.34202 -0.939693 
vn 5.1e-14 -0.34202 -0.939693 
vn 5.1e-14 -0.34202 -0.939693 
vn 5.1e-14 -0.34202 -0.939693 
vn 5.1e-14 -0.34202 -0.939693 
vn 5.1e-14 -0.34202 -0.939693 
vn 5.1e-14 -0.34202 -0.939693 
vn 5.1e-14 -0.34202 -0.939693 
vn 5.1e-14 -0.34202 -0.939693 
vn 5.1e-14 -0.34202 -0.939693 
vn 5.1e-14 -0.34202 -0.939693 
vn 5.1e-14 -0.34202 -0.939693 
vn 5.1e-14 -0.34202 -0.939693 
vn 5.1e-14 -0.34202 -0.939693 
vn 5.1e-14 -0.34202 -0.939693 
vn 5.1e-14 -0.34202 -0.939693 
vn 5.1e-14 -0.34202 -0.939693 
vn 5.1e-14 -0.34202 -0.939693 
vn 5.1e-14 -0.34202 -0.939693 
vn 5.1e-14 -0.34202 -0.939693 
vn 5.1e-14 -0.34202 -0.939693 
vn 5.1e-14 -0.34202 -0.939693 
vn 5.1e-14 -0.34202 -0.939693 
vn 5.1e-14 -0.34202 -0.939693 
vn 5.1e-14 -0.34202 -0.939693 
f 103//103 104//104 105//105 
f 103//103 106//106 107//107 
f 103//103 108//108 104//104 
f 107//107 109//109 103//103 
f 110//110 111//111 112//112 
f 110//110 113//113 114//114 
f 115//115 116//116 117//117 
f 115//115 118//118 119//119 
f 115//115 120//120 121//121 
f 109//109 108//108 103//103 
f 114//114 111//111 110//110 
f 110//110 122//122 123//123 
f 115//115 124//124 116//116 
f 115//115 125//125 126//126 
f 115//115 127//127 118//118 
f 115//115 128//128 120//120 
f 105//105 129//129 103//103 
f 123//123 113//113 110//110 
f 126//126 124//124 115//115 
f 115//115 130//130 131//131 
f 121//121 127//127 115//115 
f 112//112 106//106 110//110 
f 117//117 132//132 115//115 
f 119//119 130//130 115//115 
f 103//103 110//110 106//106 
f 131//131 125//125 115//115 
f 110//110 133//133 122//122 
f 134//134 122//122 115//115 
f 132//132 135//135 115//115 
f 115//115 136//136 134//134 
f 133//133 115//115 122//122 
f 135//135 136//136 115//115 
o mesh10071
v 0.013175 0.157819 -0.121215 
v 0.013175 0.0205767 -0.0712626 
v 0.013175 0.0216626 -0.0682791 
v 0.013175 0.158905 -0.118231 
vn -1 -1.67561e-14 -4.81744e-14 
vn -1 -1.67561e-14 -4.81744e-14 
vn -1 -1.67561e-14 -4.81744e-14 
vn -1 -1.67561e-14 -4.81744e-14 
f 137//137 138//138 139//139 
f 139//139 140//140 137//137 
o mesh10072
v 0.013175 0.0216626 -0.0682791 
v 0.013175 0.0205767 -0.0712626 
v 0.354825 0.0205767 -0.0712626 
v 0.354825 0.0216626 -0.0682791 
vn -3.38205e-16 -0.939693 0.34202 
vn -3.38205e-16 -0.939693 0.34202 
vn -3.38205e-16 -0.939693 0.34202 
vn -3.38205e-16 -0.939693 0.34202 
f 141//141 142//142 143//143 
f 143//143 144//144 141//141 
o mesh10073
v 0.354825 0.0205767 -0.0712626 
v 0.354825 0.157819 -0.121215 
v 0.354825 0.158905 -0.118231 
v 0.354825 0.0216626 -0.0682791 
vn 1 2.25135e-14 4.60788e-14 
vn 1 2.25135e-14 4.60788e-14 
vn 1 2.25135e-14 4.60788e-14 
vn 1 2.25135e-14 4.60788e-14 
f 145//145 146//146 147//147 
f 147//147 148//148 145//145 
