# OBJ generated by ONSHAPE BY PTC INC, 1.215 Units = meters
mtllib EBoxNewAsm_stp_1_spacer_2_stp_2_solid1.mtl
g EBoxNewAsm.stp-1/spacer_2.stp-2-solid1
usemtl 0.768627_0.207843_0.152941_0.000000_0.000000
o mesh15722
v 0.1011 0.0584905 -0.000353573 
v 0.1011 0.0465198 -0.0332428 
v 0.1011 0.0500436 -0.0345254 
v 0.1011 0.0620143 -0.00163615 
vn 1 -1e-15 -2e-15 
vn 1 -1e-15 -2e-15 
vn 1 -1e-15 -2e-15 
vn 1 -1e-15 -2e-15 
f 1//1 2//2 3//3 
f 3//3 4//4 1//1 
o mesh15723
v 0.0661 0.0465198 -0.0332428 
v 0.0661 0.0500436 -0.0345254 
v 0.1011 0.0500436 -0.0345254 
v 0.1011 0.0465198 -0.0332428 
vn -2e-15 -0.34202 -0.939693 
vn -2e-15 -0.34202 -0.939693 
vn -2e-15 -0.34202 -0.939693 
vn -2e-15 -0.34202 -0.939693 
f 5//5 6//6 7//7 
f 7//7 8//8 5//5 
o mesh15724
v 0.1011 0.0584905 -0.000353573 
v 0.1011 0.0620143 -0.00163615 
v 0.0661 0.0620143 -0.00163615 
v 0.0661 0.0584905 -0.000353573 
vn 2e-15 0.34202 0.939693 
vn 2e-15 0.34202 0.939693 
vn 2e-15 0.34202 0.939693 
vn 2e-15 0.34202 0.939693 
f 9//9 10//10 11//11 
f 11//11 12//12 9//9 
o mesh15725
v 0.0611 0.0723167 0.0376335 
v 0.0661 0.0465198 -0.0332428 
v 0.0661 0.0584905 -0.000353573 
v 0.1011 0.0465198 -0.0332428 
v 0.1011 0.0584905 -0.000353573 
v 0.0611 0.0326936 -0.0712299 
v 0.0661 0.0326936 -0.0712299 
v 0.0661 0.0723167 0.0376335 
vn 0 -0.939693 0.34202 
vn 0 -0.939693 0.34202 
vn 0 -0.939693 0.34202 
vn 0 -0.939693 0.34202 
vn 0 -0.939693 0.34202 
vn 0 -0.939693 0.34202 
vn 0 -0.939693 0.34202 
vn 0 -0.939693 0.34202 
f 13//13 14//14 15//15 
f 14//14 16//16 17//17 
f 17//17 15//15 14//14 
f 18//18 19//19 14//14 
f 14//14 13//13 18//18 
f 15//15 20//20 13//13 
o mesh15726
v 0.0611 0.183059 -0.00267357 
v 0.0611 0.0723167 0.0376335 
v 0.0661 0.0723167 0.0376335 
v 0.0661 0.183059 -0.00267357 
vn 2e-15 0.34202 0.939693 
vn 2e-15 0.34202 0.939693 
vn 2e-15 0.34202 0.939693 
vn 2e-15 0.34202 0.939693 
f 21//21 22//22 23//23 
f 23//23 24//24 21//21 
o mesh15727
v 0.0661 0.143436 -0.111537 
v 0.0661 0.0326936 -0.0712299 
v 0.0611 0.0326936 -0.0712299 
v 0.0611 0.143436 -0.111537 
vn -2e-15 -0.34202 -0.939693 
vn -2e-15 -0.34202 -0.939693 
vn -2e-15 -0.34202 -0.939693 
vn -2e-15 -0.34202 -0.939693 
f 25//25 26//26 27//27 
f 27//27 28//28 25//25 
o mesh15728
v 0.0611 0.183059 -0.00267357 
v 0.0661 0.183059 -0.00267357 
v 0.0661 0.143436 -0.111537 
v 0.0611 0.143436 -0.111537 
vn 0 0.939693 -0.34202 
vn 0 0.939693 -0.34202 
vn 0 0.939693 -0.34202 
vn 0 0.939693 -0.34202 
f 29//29 30//30 31//31 
f 31//31 32//32 29//29 
o mesh15729
v 0.0661 0.0620143 -0.00163615 
v 0.1011 0.0620143 -0.00163615 
v 0.0661 0.0566703 -0.0163188 
v 0.1011 0.0500436 -0.0345254 
v 0.0661 0.0553877 -0.0198427 
v 0.0611 0.0745579 0.0328271 
v 0.0661 0.0745579 0.0328271 
v 0.0611 0.0375 -0.0689886 
v 0.0611 0.0553877 -0.0198427 
v 0.0661 0.0500436 -0.0345254 
v 0.0611 0.0566703 -0.0163188 
v 0.0661 0.0375 -0.0689886 
vn 0 0.939693 -0.34202 
vn 0 0.939693 -0.34202 
vn 0 0.939693 -0.34202 
vn 0 0.939693 -0.34202 
vn 0 0.939693 -0.34202 
vn 0 0.939693 -0.34202 
vn 0 0.939693 -0.34202 
vn 0 0.939693 -0.34202 
vn 0 0.939693 -0.34202 
vn 0 0.939693 -0.34202 
vn 0 0.939693 -0.34202 
vn 0 0.939693 -0.34202 
f 33//33 34//34 35//35 
f 34//34 36//36 37//37 
f 37//37 35//35 34//34 
f 38//38 39//39 33//33 
f 40//40 41//41 42//42 
f 42//42 41//41 37//37 
f 33//33 43//43 38//38 
f 37//37 36//36 42//42 
f 42//42 44//44 40//40 
f 35//35 43//43 33//33 
o mesh15730
v 0.0611 0.124644 0.0145974 
v 0.0661 0.124644 0.0145974 
v 0.0661 0.0745579 0.0328271 
v 0.0611 0.0745579 0.0328271 
vn -2e-15 -0.34202 -0.939693 
vn -2e-15 -0.34202 -0.939693 
vn -2e-15 -0.34202 -0.939693 
vn -2e-15 -0.34202 -0.939693 
f 45//45 46//46 47//47 
f 47//47 48//48 45//45 
o mesh15731
v 0.0611 0.124644 0.0145974 
v 0.0611 0.106756 -0.0345485 
v 0.0661 0.106756 -0.0345485 
v 0.0661 0.124644 0.0145974 
vn 0 -0.939693 0.34202 
vn 0 -0.939693 0.34202 
vn 0 -0.939693 0.34202 
vn 0 -0.939693 0.34202 
f 49//49 50//50 51//51 
f 51//51 52//52 49//49 
o mesh15732
v 0.0611 0.106756 -0.0345485 
v 0.0611 0.0566703 -0.0163188 
v 0.0661 0.0566703 -0.0163188 
v 0.0661 0.106756 -0.0345485 
vn 2e-15 0.34202 0.939693 
vn 2e-15 0.34202 0.939693 
vn 2e-15 0.34202 0.939693 
vn 2e-15 0.34202 0.939693 
f 53//53 54//54 55//55 
f 55//55 56//56 53//53 
o mesh15733
v 0.0661 0.0553877 -0.0198427 
v 0.0611 0.0553877 -0.0198427 
v 0.0611 0.105473 -0.0380724 
v 0.0661 0.105473 -0.0380724 
vn -2e-15 -0.34202 -0.939693 
vn -2e-15 -0.34202 -0.939693 
vn -2e-15 -0.34202 -0.939693 
vn -2e-15 -0.34202 -0.939693 
f 57//57 58//58 59//59 
f 59//59 60//60 57//57 
o mesh15734
v 0.0611 0.0875857 -0.0872183 
v 0.0661 0.0875857 -0.0872183 
v 0.0661 0.105473 -0.0380724 
v 0.0611 0.105473 -0.0380724 
vn 0 -0.939693 0.34202 
vn 0 -0.939693 0.34202 
vn 0 -0.939693 0.34202 
vn 0 -0.939693 0.34202 
f 61//61 62//62 63//63 
f 63//63 64//64 61//61 
o mesh15735
v 0.0661 0.0375 -0.0689886 
v 0.0661 0.0875857 -0.0872183 
v 0.0611 0.0875857 -0.0872183 
v 0.0611 0.0375 -0.0689886 
vn 2e-15 0.34202 0.939693 
vn 2e-15 0.34202 0.939693 
vn 2e-15 0.34202 0.939693 
vn 2e-15 0.34202 0.939693 
f 65//65 66//66 67//67 
f 67//67 68//68 65//65 
o mesh15736
v 0.0661 0.106756 -0.0345485 
v 0.0661 0.11028 -0.0358311 
v 0.0661 0.128167 0.0133148 
v 0.0661 0.0723167 0.0376335 
v 0.0661 0.0745579 0.0328271 
v 0.0661 0.124644 0.0145974 
v 0.0661 0.0584905 -0.000353573 
v 0.0661 0.0620143 -0.00163615 
v 0.0661 0.183059 -0.00267357 
v 0.0661 0.178253 -0.00491484 
v 0.0661 0.160365 -0.0540608 
v 0.0661 0.108997 -0.0393549 
v 0.0661 0.143436 -0.111537 
v 0.0661 0.159083 -0.0575846 
v 0.0661 0.0326936 -0.0712299 
v 0.0661 0.0911095 -0.0885009 
v 0.0661 0.0875857 -0.0872183 
v 0.0661 0.105473 -0.0380724 
v 0.0661 0.0566703 -0.0163188 
v 0.0661 0.0553877 -0.0198427 
v 0.0661 0.0465198 -0.0332428 
v 0.0661 0.0375 -0.0689886 
v 0.0661 0.141195 -0.106731 
v 0.0661 0.0500436 -0.0345254 
vn 1 -1e-15 -2e-15 
vn 1 -1e-15 -2e-15 
vn 1 -1e-15 -2e-15 
vn 1 -1e-15 -2e-15 
vn 1 -1e-15 -2e-15 
vn 1 -1e-15 -2e-15 
vn 1 -1e-15 -2e-15 
vn 1 -1e-15 -2e-15 
vn 1 -1e-15 -2e-15 
vn 1 -1e-15 -2e-15 
vn 1 -1e-15 -2e-15 
vn 1 -1e-15 -2e-15 
vn 1 -1e-15 -2e-15 
vn 1 -1e-15 -2e-15 
vn 1 -1e-15 -2e-15 
vn 1 -1e-15 -2e-15 
vn 1 -1e-15 -2e-15 
vn 1 -1e-15 -2e-15 
vn 1 -1e-15 -2e-15 
vn 1 -1e-15 -2e-15 
vn 1 -1e-15 -2e-15 
vn 1 -1e-15 -2e-15 
vn 1 -1e-15 -2e-15 
vn 1 -1e-15 -2e-15 
f 69//69 70//70 71//71 
f 72//72 73//73 74//74 
f 74//74 71//71 72//72 
f 75//75 76//76 73//73 
f 77//77 78//78 79//79 
f 73//73 72//72 75//75 
f 80//80 79//79 70//70 
f 81//81 77//77 82//82 
f 79//79 82//82 77//77 
f 77//77 72//72 71//71 
f 70//70 69//69 80//80 
f 83//83 84//84 85//85 
f 80//80 69//69 86//86 
f 87//87 88//88 86//86 
f 79//79 80//80 82//82 
f 71//71 74//74 69//69 
f 89//89 83//83 90//90 
f 84//84 80//80 85//85 
f 86//86 69//69 87//87 
f 71//71 78//78 77//77 
f 85//85 90//90 83//83 
f 82//82 91//91 81//81 
f 86//86 85//85 80//80 
f 81//81 91//91 84//84 
f 84//84 83//83 81//81 
f 90//90 92//92 89//89 
o mesh15737
v 0.0611 0.143436 -0.111537 
v 0.0611 0.141195 -0.106731 
v 0.0611 0.159083 -0.0575846 
v 0.0611 0.0326936 -0.0712299 
v 0.0611 0.0911095 -0.0885009 
v 0.0611 0.183059 -0.00267357 
v 0.0611 0.178253 -0.00491484 
v 0.0611 0.128167 0.0133148 
v 0.0611 0.11028 -0.0358311 
v 0.0611 0.160365 -0.0540608 
v 0.0611 0.0566703 -0.0163188 
v 0.0611 0.106756 -0.0345485 
v 0.0611 0.105473 -0.0380724 
v 0.0611 0.0723167 0.0376335 
v 0.0611 0.124644 0.0145974 
v 0.0611 0.0553877 -0.0198427 
v 0.0611 0.0875857 -0.0872183 
v 0.0611 0.108997 -0.0393549 
v 0.0611 0.0745579 0.0328271 
v 0.0611 0.0375 -0.0689886 
vn -1 1e-15 2e-15 
vn -1 1e-15 2e-15 
vn -1 1e-15 2e-15 
vn -1 1e-15 2e-15 
vn -1 1e-15 2e-15 
vn -1 1e-15 2e-15 
vn -1 1e-15 2e-15 
vn -1 1e-15 2e-15 
vn -1 1e-15 2e-15 
vn -1 1e-15 2e-15 
vn -1 1e-15 2e-15 
vn -1 1e-15 2e-15 
vn -1 1e-15 2e-15 
vn -1 1e-15 2e-15 
vn -1 1e-15 2e-15 
vn -1 1e-15 2e-15 
vn -1 1e-15 2e-15 
vn -1 1e-15 2e-15 
vn -1 1e-15 2e-15 
vn -1 1e-15 2e-15 
f 93//93 94//94 95//95 
f 93//93 96//96 97//97 
f 98//98 99//99 100//100 
f 101//101 102//102 95//95 
f 97//97 94//94 93//93 
f 103//103 104//104 105//105 
f 106//106 98//98 107//107 
f 100//100 107//107 98//98 
f 98//98 93//93 102//102 
f 95//95 102//102 93//93 
f 105//105 108//108 103//103 
f 109//109 101//101 110//110 
f 100//100 104//104 107//107 
f 95//95 110//110 101//101 
f 100//100 109//109 105//105 
f 106//106 111//111 103//103 
f 109//109 100//100 101//101 
f 96//96 112//112 109//109 
f 102//102 99//99 98//98 
f 103//103 108//108 106//106 
f 109//109 97//97 96//96 
f 96//96 106//106 108//108 
f 104//104 100//100 105//105 
f 108//108 112//112 96//96 
f 110//110 97//97 109//109 
f 107//107 111//111 106//106 
o mesh15738
v 0.0611 0.128167 0.0133148 
v 0.0661 0.128167 0.0133148 
v 0.0661 0.11028 -0.0358311 
v 0.0611 0.11028 -0.0358311 
vn 0 0.939693 -0.34202 
vn 0 0.939693 -0.34202 
vn 0 0.939693 -0.34202 
vn 0 0.939693 -0.34202 
f 113//113 114//114 115//115 
f 115//115 116//116 113//113 
o mesh15739
v 0.0661 0.128167 0.0133148 
v 0.0611 0.128167 0.0133148 
v 0.0611 0.178253 -0.00491484 
v 0.0661 0.178253 -0.00491484 
vn -2e-15 -0.34202 -0.939693 
vn -2e-15 -0.34202 -0.939693 
vn -2e-15 -0.34202 -0.939693 
vn -2e-15 -0.34202 -0.939693 
f 117//117 118//118 119//119 
f 119//119 120//120 117//117 
o mesh15740
v 0.0611 0.178253 -0.00491484 
v 0.0611 0.160365 -0.0540608 
v 0.0661 0.160365 -0.0540608 
v 0.0661 0.178253 -0.00491484 
vn -3.31687e-32 -0.939693 0.34202 
vn -3.31687e-32 -0.939693 0.34202 
vn -3.31687e-32 -0.939693 0.34202 
vn -3.31687e-32 -0.939693 0.34202 
f 121//121 122//122 123//123 
f 123//123 124//124 121//121 
o mesh15741
v 0.0611 0.160365 -0.0540608 
v 0.0611 0.11028 -0.0358311 
v 0.0661 0.11028 -0.0358311 
v 0.0661 0.160365 -0.0540608 
vn 2e-15 0.34202 0.939693 
vn 2e-15 0.34202 0.939693 
vn 2e-15 0.34202 0.939693 
vn 2e-15 0.34202 0.939693 
f 125//125 126//126 127//127 
f 127//127 128//128 125//125 
o mesh15742
v 0.0661 0.141195 -0.106731 
v 0.0661 0.159083 -0.0575846 
v 0.0611 0.159083 -0.0575846 
v 0.0611 0.141195 -0.106731 
vn -3.31687e-32 -0.939693 0.34202 
vn -3.31687e-32 -0.939693 0.34202 
vn -3.31687e-32 -0.939693 0.34202 
vn -3.31687e-32 -0.939693 0.34202 
f 129//129 130//130 131//131 
f 131//131 132//132 129//129 
o mesh15743
v 0.0611 0.141195 -0.106731 
v 0.0611 0.0911095 -0.0885009 
v 0.0661 0.0911095 -0.0885009 
v 0.0661 0.141195 -0.106731 
vn 2e-15 0.34202 0.939693 
vn 2e-15 0.34202 0.939693 
vn 2e-15 0.34202 0.939693 
vn 2e-15 0.34202 0.939693 
f 133//133 134//134 135//135 
f 135//135 136//136 133//133 
o mesh15744
v 0.0661 0.0911095 -0.0885009 
v 0.0611 0.0911095 -0.0885009 
v 0.0611 0.108997 -0.0393549 
v 0.0661 0.108997 -0.0393549 
vn 0 0.939693 -0.34202 
vn 0 0.939693 -0.34202 
vn 0 0.939693 -0.34202 
vn 0 0.939693 -0.34202 
f 137//137 138//138 139//139 
f 139//139 140//140 137//137 
o mesh15745
v 0.0661 0.108997 -0.0393549 
v 0.0611 0.108997 -0.0393549 
v 0.0611 0.159083 -0.0575846 
v 0.0661 0.159083 -0.0575846 
vn -2e-15 -0.34202 -0.939693 
vn -2e-15 -0.34202 -0.939693 
vn -2e-15 -0.34202 -0.939693 
vn -2e-15 -0.34202 -0.939693 
f 141//141 142//142 143//143 
f 143//143 144//144 141//141 
