# OBJ generated by ONSHAPE BY PTC INC, 1.215 Units = meters
mtllib EBoxNewAsm_stp_1_Beelink_mini_PC_v4_stp_1_Beelink_mini_PC_v4_68_stp_1_solid1.mtl
g EBoxNewAsm.stp-1/Beelink mini PC v4.stp-1/Beelink mini PC v4-68.stp-1-solid1
usemtl 0.960784_0.960784_0.964706_0.000000_0.000000
o mesh9241
v 0.30985 0.156399 0.212949 
v 0.30985 0.158177 0.217835 
v 0.29785 0.158177 0.217835 
v 0.29785 0.156399 0.212949 
vn 0 -0.939693 0.34202 
vn 0 -0.939693 0.34202 
vn 0 -0.939693 0.34202 
vn 0 -0.939693 0.34202 
f 1//1 2//2 3//3 
f 3//3 4//4 1//1 
o mesh9242
v 0.29785 0.158271 0.217801 
v 0.29785 0.158177 0.217835 
v 0.30985 0.158177 0.217835 
v 0.30985 0.158271 0.217801 
vn -5.09196e-14 0.34202 0.939693 
vn -5.09196e-14 0.34202 0.939693 
vn -5.09196e-14 0.34202 0.939693 
vn -5.09196e-14 0.34202 0.939693 
f 5//5 6//6 7//7 
f 7//7 8//8 5//5 
o mesh9243
v 0.29785 0.158271 0.217801 
v 0.30985 0.158271 0.217801 
v 0.30985 0.156527 0.213008 
v 0.29785 0.156527 0.213008 
vn 0 0.939693 -0.34202 
vn 0 0.939693 -0.34202 
vn 0 0.939693 -0.34202 
vn 0 0.939693 -0.34202 
f 9//9 10//10 11//11 
f 11//11 12//12 9//9 
o mesh9244
v 0.29785 0.168333 0.208605 
v 0.29785 0.156399 0.212949 
v 0.29785 0.156527 0.213008 
v 0.29785 0.158177 0.217835 
v 0.29785 0.158271 0.217801 
v 0.29785 0.168367 0.208699 
vn -1 -1.74155e-14 -4.78488e-14 
vn -1 -1.74155e-14 -4.78488e-14 
vn -1 -1.74155e-14 -4.78488e-14 
vn -1 -1.74155e-14 -4.78488e-14 
vn -1 -1.74155e-14 -4.78488e-14 
vn -1 -1.74155e-14 -4.78488e-14 
f 13//13 14//14 15//15 
f 16//16 17//17 15//15 
f 15//15 14//14 16//16 
f 15//15 18//18 13//13 
o mesh9245
v 0.30985 0.158177 0.217835 
v 0.30985 0.156399 0.212949 
v 0.30985 0.156527 0.213008 
v 0.30985 0.168333 0.208605 
v 0.30985 0.168367 0.208699 
v 0.30985 0.158271 0.217801 
vn 1 1.74155e-14 4.78488e-14 
vn 1 1.74155e-14 4.78488e-14 
vn 1 1.74155e-14 4.78488e-14 
vn 1 1.74155e-14 4.78488e-14 
vn 1 1.74155e-14 4.78488e-14 
vn 1 1.74155e-14 4.78488e-14 
f 19//19 20//20 21//21 
f 22//22 23//23 21//21 
f 21//21 20//20 22//22 
f 21//21 24//24 19//19 
o mesh9246
v 0.30985 0.168367 0.208699 
v 0.29785 0.168367 0.208699 
v 0.29785 0.156527 0.213008 
v 0.30985 0.156527 0.213008 
vn -5.09196e-14 0.34202 0.939693 
vn -5.09196e-14 0.34202 0.939693 
vn -5.09196e-14 0.34202 0.939693 
vn -5.09196e-14 0.34202 0.939693 
f 25//25 26//26 27//27 
f 27//27 28//28 25//25 
o mesh9247
v 0.30985 0.168333 0.208605 
v 0.29785 0.168333 0.208605 
v 0.29785 0.168367 0.208699 
v 0.30985 0.168367 0.208699 
vn 0 0.939693 -0.34202 
vn 0 0.939693 -0.34202 
vn 0 0.939693 -0.34202 
vn 0 0.939693 -0.34202 
f 29//29 30//30 31//31 
f 31//31 32//32 29//29 
o mesh9248
v 0.30985 0.168333 0.208605 
v 0.30985 0.156399 0.212949 
v 0.29785 0.156399 0.212949 
v 0.29785 0.168333 0.208605 
vn 5.09196e-14 -0.34202 -0.939693 
vn 5.09196e-14 -0.34202 -0.939693 
vn 5.09196e-14 -0.34202 -0.939693 
vn 5.09196e-14 -0.34202 -0.939693 
f 33//33 34//34 35//35 
f 35//35 36//36 33//33 
