# OBJ generated by ONSHAPE BY PTC INC, 1.215 Units = meters
mtllib EBoxNewAsm_stp_1_Beelink_mini_PC_v4_stp_1_Beelink_mini_PC_v4_57_stp_1_solid1.mtl
g EBoxNewAsm.stp-1/Beelink mini PC v4.stp-1/Beelink mini PC v4-57.stp-1-solid1
usemtl 0.960784_0.960784_0.964706_0.000000_0.000000
o mesh12831
v 0.21215 0.191733 0.20477 
v 0.21215 0.193432 0.204353 
v 0.21215 0.193467 0.204539 
v 0.21215 0.193482 0.204728 
v 0.21215 0.193476 0.204918 
v 0.21215 0.19345 0.205105 
v 0.21215 0.193404 0.205289 
v 0.21215 0.193338 0.205467 
v 0.21215 0.193253 0.205636 
v 0.21215 0.193151 0.205796 
v 0.21215 0.193032 0.205943 
v 0.21215 0.192897 0.206077 
v 0.21215 0.192749 0.206195 
v 0.21215 0.192589 0.206296 
v 0.21215 0.192419 0.20638 
v 0.21215 0.192241 0.206445 
v 0.21215 0.192057 0.20649 
v 0.21215 0.191869 0.206515 
v 0.21215 0.19168 0.20652 
v 0.21215 0.191491 0.206504 
v 0.21215 0.191305 0.206467 
v 0.21215 0.191124 0.206411 
v 0.21215 0.19095 0.206336 
v 0.21215 0.190786 0.206242 
v 0.21215 0.190632 0.206131 
v 0.21215 0.190491 0.206004 
v 0.21215 0.190365 0.205863 
v 0.21215 0.190255 0.205709 
v 0.21215 0.190162 0.205543 
v 0.21215 0.190088 0.205369 
v 0.21215 0.190033 0.205188 
v 0.21215 0.189998 0.205002 
v 0.21215 0.189983 0.204813 
v 0.21215 0.189989 0.204623 
v 0.21215 0.190015 0.204436 
v 0.21215 0.190061 0.204252 
v 0.21215 0.190127 0.204074 
v 0.21215 0.190212 0.203905 
v 0.21215 0.190314 0.203745 
v 0.21215 0.190433 0.203598 
v 0.21215 0.190568 0.203464 
v 0.21215 0.190716 0.203346 
v 0.21215 0.190876 0.203245 
v 0.21215 0.191046 0.203161 
v 0.21215 0.191224 0.203096 
v 0.21215 0.191408 0.203051 
v 0.21215 0.191596 0.203026 
v 0.21215 0.191785 0.203021 
v 0.21215 0.191974 0.203037 
v 0.21215 0.19216 0.203073 
v 0.21215 0.192341 0.20313 
v 0.21215 0.192515 0.203205 
v 0.21215 0.192679 0.203299 
v 0.21215 0.192833 0.20341 
v 0.21215 0.192974 0.203537 
v 0.21215 0.1931 0.203678 
v 0.21215 0.19321 0.203832 
v 0.21215 0.193303 0.203998 
v 0.21215 0.193377 0.204172 
vn 1 1.74155e-14 4.78488e-14 
vn 1 1.74155e-14 4.78488e-14 
vn 1 1.74155e-14 4.78488e-14 
vn 1 1.74155e-14 4.78488e-14 
vn 1 1.74155e-14 4.78488e-14 
vn 1 1.74155e-14 4.78488e-14 
vn 1 1.74155e-14 4.78488e-14 
vn 1 1.74155e-14 4.78488e-14 
vn 1 1.74155e-14 4.78488e-14 
vn 1 1.74155e-14 4.78488e-14 
vn 1 1.74155e-14 4.78488e-14 
vn 1 1.74155e-14 4.78488e-14 
vn 1 1.74155e-14 4.78488e-14 
vn 1 1.74155e-14 4.78488e-14 
vn 1 1.74155e-14 4.78488e-14 
vn 1 1.74155e-14 4.78488e-14 
vn 1 1.74155e-14 4.78488e-14 
vn 1 1.74155e-14 4.78488e-14 
vn 1 1.74155e-14 4.78488e-14 
vn 1 1.74155e-14 4.78488e-14 
vn 1 1.74155e-14 4.78488e-14 
vn 1 1.74155e-14 4.78488e-14 
vn 1 1.74155e-14 4.78488e-14 
vn 1 1.74155e-14 4.78488e-14 
vn 1 1.74155e-14 4.78488e-14 
vn 1 1.74155e-14 4.78488e-14 
vn 1 1.74155e-14 4.78488e-14 
vn 1 1.74155e-14 4.78488e-14 
vn 1 1.74155e-14 4.78488e-14 
vn 1 1.74155e-14 4.78488e-14 
vn 1 1.74155e-14 4.78488e-14 
vn 1 1.74155e-14 4.78488e-14 
vn 1 1.74155e-14 4.78488e-14 
vn 1 1.74155e-14 4.78488e-14 
vn 1 1.74155e-14 4.78488e-14 
vn 1 1.74155e-14 4.78488e-14 
vn 1 1.74155e-14 4.78488e-14 
vn 1 1.74155e-14 4.78488e-14 
vn 1 1.74155e-14 4.78488e-14 
vn 1 1.74155e-14 4.78488e-14 
vn 1 1.74155e-14 4.78488e-14 
vn 1 1.74155e-14 4.78488e-14 
vn 1 1.74155e-14 4.78488e-14 
vn 1 1.74155e-14 4.78488e-14 
vn 1 1.74155e-14 4.78488e-14 
vn 1 1.74155e-14 4.78488e-14 
vn 1 1.74155e-14 4.78488e-14 
vn 1 1.74155e-14 4.78488e-14 
vn 1 1.74155e-14 4.78488e-14 
vn 1 1.74155e-14 4.78488e-14 
vn 1 1.74155e-14 4.78488e-14 
vn 1 1.74155e-14 4.78488e-14 
vn 1 1.74155e-14 4.78488e-14 
vn 1 1.74155e-14 4.78488e-14 
vn 1 1.74155e-14 4.78488e-14 
vn 1 1.74155e-14 4.78488e-14 
vn 1 1.74155e-14 4.78488e-14 
vn 1 1.74155e-14 4.78488e-14 
vn 1 1.74155e-14 4.78488e-14 
f 1//1 2//2 3//3 
f 3//3 4//4 1//1 
f 4//4 5//5 1//1 
f 5//5 6//6 1//1 
f 6//6 7//7 1//1 
f 7//7 8//8 1//1 
f 8//8 9//9 1//1 
f 9//9 10//10 1//1 
f 10//10 11//11 1//1 
f 11//11 12//12 1//1 
f 12//12 13//13 1//1 
f 13//13 14//14 1//1 
f 14//14 15//15 1//1 
f 15//15 16//16 1//1 
f 16//16 17//17 1//1 
f 17//17 18//18 1//1 
f 18//18 19//19 1//1 
f 19//19 20//20 1//1 
f 20//20 21//21 1//1 
f 21//21 22//22 1//1 
f 22//22 23//23 1//1 
f 23//23 24//24 1//1 
f 24//24 25//25 1//1 
f 25//25 26//26 1//1 
f 26//26 27//27 1//1 
f 27//27 28//28 1//1 
f 28//28 29//29 1//1 
f 29//29 30//30 1//1 
f 30//30 31//31 1//1 
f 31//31 32//32 1//1 
f 32//32 33//33 1//1 
f 33//33 34//34 1//1 
f 34//34 35//35 1//1 
f 35//35 36//36 1//1 
f 36//36 37//37 1//1 
f 37//37 38//38 1//1 
f 38//38 39//39 1//1 
f 39//39 40//40 1//1 
f 40//40 41//41 1//1 
f 41//41 42//42 1//1 
f 42//42 43//43 1//1 
f 43//43 44//44 1//1 
f 44//44 45//45 1//1 
f 45//45 46//46 1//1 
f 46//46 47//47 1//1 
f 47//47 48//48 1//1 
f 48//48 49//49 1//1 
f 49//49 50//50 1//1 
f 50//50 51//51 1//1 
f 51//51 52//52 1//1 
f 52//52 53//53 1//1 
f 53//53 54//54 1//1 
f 54//54 55//55 1//1 
f 55//55 56//56 1//1 
f 56//56 57//57 1//1 
f 57//57 58//58 1//1 
f 58//58 59//59 1//1 
f 59//59 2//2 1//1 
o mesh12832
v 0.21165 0.190088 0.205369 
v 0.21215 0.190088 0.205369 
v 0.21215 0.190162 0.205543 
v 0.21165 0.190162 0.205543 
v 0.21215 0.190255 0.205709 
v 0.21165 0.190255 0.205709 
v 0.21215 0.190365 0.205863 
v 0.21165 0.190365 0.205863 
v 0.21215 0.190491 0.206004 
v 0.21165 0.190491 0.206004 
v 0.21215 0.190632 0.206131 
v 0.21165 0.190632 0.206131 
v 0.21215 0.190786 0.206242 
v 0.21165 0.190786 0.206242 
v 0.21215 0.19095 0.206336 
v 0.21165 0.19095 0.206336 
v 0.21215 0.191124 0.206411 
v 0.21165 0.191124 0.206411 
v 0.21215 0.191305 0.206467 
v 0.21165 0.191305 0.206467 
v 0.21215 0.191491 0.206504 
v 0.21165 0.191491 0.206504 
v 0.21215 0.19168 0.20652 
v 0.21165 0.19168 0.20652 
v 0.21215 0.191869 0.206515 
v 0.21165 0.191869 0.206515 
v 0.21215 0.192057 0.20649 
v 0.21165 0.192057 0.20649 
v 0.21215 0.192241 0.206445 
v 0.21165 0.192241 0.206445 
v 0.21215 0.192419 0.20638 
v 0.21165 0.192419 0.20638 
v 0.21215 0.192589 0.206296 
v 0.21165 0.192589 0.206296 
v 0.21215 0.192749 0.206195 
v 0.21165 0.192749 0.206195 
v 0.21215 0.192897 0.206077 
v 0.21165 0.192897 0.206077 
v 0.21215 0.193032 0.205943 
v 0.21165 0.193032 0.205943 
v 0.21215 0.193151 0.205796 
v 0.21165 0.193151 0.205796 
v 0.21215 0.193253 0.205636 
v 0.21165 0.193253 0.205636 
v 0.21215 0.193338 0.205467 
v 0.21165 0.193338 0.205467 
v 0.21215 0.193404 0.205289 
v 0.21165 0.193404 0.205289 
v 0.21215 0.19345 0.205105 
v 0.21165 0.19345 0.205105 
v 0.21215 0.193476 0.204918 
v 0.21165 0.193476 0.204918 
v 0.21215 0.193482 0.204728 
v 0.21165 0.193482 0.204728 
v 0.21215 0.193467 0.204539 
v 0.21165 0.193467 0.204539 
v 0.21215 0.193432 0.204353 
v 0.21165 0.193432 0.204353 
v 0.21215 0.193377 0.204172 
v 0.21165 0.193377 0.204172 
v 0.21215 0.193303 0.203998 
v 0.21165 0.193303 0.203998 
v 0.21215 0.19321 0.203832 
v 0.21165 0.19321 0.203832 
v 0.21215 0.1931 0.203678 
v 0.21165 0.1931 0.203678 
v 0.21215 0.192974 0.203537 
v 0.21165 0.192974 0.203537 
v 0.21215 0.192833 0.20341 
v 0.21165 0.192833 0.20341 
v 0.21215 0.192679 0.203299 
v 0.21165 0.192679 0.203299 
v 0.21215 0.192515 0.203205 
v 0.21165 0.192515 0.203205 
v 0.21215 0.192341 0.20313 
v 0.21165 0.192341 0.20313 
v 0.21215 0.19216 0.203073 
v 0.21165 0.19216 0.203073 
v 0.21215 0.191974 0.203037 
v 0.21165 0.191974 0.203037 
v 0.21215 0.191785 0.203021 
v 0.21165 0.191785 0.203021 
v 0.21215 0.191596 0.203026 
v 0.21165 0.191596 0.203026 
v 0.21215 0.191408 0.203051 
v 0.21165 0.191408 0.203051 
v 0.21215 0.191224 0.203096 
v 0.21165 0.191224 0.203096 
v 0.21215 0.191046 0.203161 
v 0.21165 0.191046 0.203161 
v 0.21215 0.190876 0.203245 
v 0.21165 0.190876 0.203245 
v 0.21215 0.190716 0.203346 
v 0.21165 0.190716 0.203346 
v 0.21215 0.190568 0.203464 
v 0.21165 0.190568 0.203464 
v 0.21215 0.190433 0.203598 
v 0.21165 0.190433 0.203598 
v 0.21215 0.190314 0.203745 
v 0.21165 0.190314 0.203745 
v 0.21215 0.190212 0.203905 
v 0.21165 0.190212 0.203905 
v 0.21215 0.190127 0.204074 
v 0.21165 0.190127 0.204074 
v 0.21215 0.190061 0.204252 
v 0.21165 0.190061 0.204252 
v 0.21215 0.190015 0.204436 
v 0.21165 0.190015 0.204436 
v 0.21215 0.189989 0.204623 
v 0.21165 0.189989 0.204623 
v 0.21215 0.189983 0.204813 
v 0.21165 0.189983 0.204813 
v 0.21215 0.189998 0.205002 
v 0.21165 0.189998 0.205002 
v 0.21215 0.190033 0.205188 
v 0.21165 0.190033 0.205188 
vn -3.16953e-29 -0.939693 0.34202 
vn -3.16953e-29 -0.939693 0.34202 
vn -5.50538e-15 -0.897205 0.441614 
vn -5.50538e-15 -0.897205 0.441614 
vn -1.09462e-14 -0.844199 0.53603 
vn -1.09462e-14 -0.844199 0.53603 
vn -1.62587e-14 -0.781295 0.624162 
vn -1.62587e-14 -0.781295 0.624162 
vn -2.13806e-14 -0.709231 0.704976 
vn -2.13806e-14 -0.709231 0.704976 
vn -2.62518e-14 -0.628853 0.777525 
vn -2.62518e-14 -0.628853 0.777525 
vn -3.08152e-14 -0.541101 0.840958 
vn -3.08152e-14 -0.541101 0.840958 
vn -3.50174e-14 -0.447006 0.894531 
vn -3.50174e-14 -0.447006 0.894531 
vn -3.8809e-14 -0.347669 0.937617 
vn -3.8809e-14 -0.347669 0.937617 
vn -4.21456e-14 -0.244257 0.969711 
vn -4.21456e-14 -0.244257 0.969711 
vn -4.49881e-14 -0.137981 0.990435 
vn -4.49881e-14 -0.137981 0.990435 
vn -4.73031e-14 -0.0300873 0.999547 
vn -4.73031e-14 -0.0300873 0.999547 
vn -4.90636e-14 0.0781591 0.996941 
vn -4.90636e-14 0.0781591 0.996941 
vn -5.02488e-14 0.185489 0.982646 
vn -5.02488e-14 0.185489 0.982646 
vn -5.08449e-14 0.290645 0.956831 
vn -5.08449e-14 0.290645 0.956831 
vn -5.08449e-14 0.392392 0.919798 
vn -5.08449e-14 0.392392 0.919798 
vn -5.02488e-14 0.48954 0.871981 
vn -5.02488e-14 0.48954 0.871981 
vn -4.90636e-14 0.580948 0.813941 
vn -4.90636e-14 0.580948 0.813941 
vn -4.73031e-14 0.665545 0.746358 
vn -4.73031e-14 0.665545 0.746358 
vn -4.49881e-14 0.742339 0.670025 
vn -4.49881e-14 0.742339 0.670025 
vn -4.21456e-14 0.81043 0.585836 
vn -4.21456e-14 0.81043 0.585836 
vn -3.8809e-14 0.869019 0.494779 
vn -3.8809e-14 0.869019 0.494779 
vn -3.50174e-14 0.91742 0.397921 
vn -3.50174e-14 0.91742 0.397921 
vn -3.08152e-14 0.955065 0.296398 
vn -3.08152e-14 0.955065 0.296398 
vn -2.62518e-14 0.981512 0.1914 
vn -2.62518e-14 0.981512 0.1914 
vn -2.13806e-14 0.996452 0.0841576 
vn -2.13806e-14 0.996452 0.0841576 
vn -1.62587e-14 0.99971 -0.0240712 
vn -1.62587e-14 0.99971 -0.0240712 
vn -1.09462e-14 0.991247 -0.132018 
vn -1.09462e-14 0.991247 -0.132018 
vn -5.50538e-15 0.971163 -0.238417 
vn -5.50538e-15 0.971163 -0.238417 
vn 2.32432e-28 0.939693 -0.34202 
vn 2.32432e-28 0.939693 -0.34202 
vn 5.50538e-15 0.897205 -0.441614 
vn 5.50538e-15 0.897205 -0.441614 
vn 1.09462e-14 0.844199 -0.53603 
vn 1.09462e-14 0.844199 -0.53603 
vn 1.62587e-14 0.781295 -0.624162 
vn 1.62587e-14 0.781295 -0.624162 
vn 2.13806e-14 0.709231 -0.704976 
vn 2.13806e-14 0.709231 -0.704976 
vn 2.62518e-14 0.628853 -0.777525 
vn 2.62518e-14 0.628853 -0.777525 
vn 3.08152e-14 0.541101 -0.840958 
vn 3.08152e-14 0.541101 -0.840958 
vn 3.50174e-14 0.447006 -0.894531 
vn 3.50174e-14 0.447006 -0.894531 
vn 3.8809e-14 0.347669 -0.937617 
vn 3.8809e-14 0.347669 -0.937617 
vn 4.21456e-14 0.244257 -0.969711 
vn 4.21456e-14 0.244257 -0.969711 
vn 4.49881e-14 0.137981 -0.990435 
vn 4.49881e-14 0.137981 -0.990435 
vn 4.73031e-14 0.0300873 -0.999547 
vn 4.73031e-14 0.0300873 -0.999547 
vn 4.90636e-14 -0.0781591 -0.996941 
vn 4.90636e-14 -0.0781591 -0.996941 
vn 5.02488e-14 -0.185489 -0.982646 
vn 5.02488e-14 -0.185489 -0.982646 
vn 5.08449e-14 -0.290645 -0.956831 
vn 5.08449e-14 -0.290645 -0.956831 
vn 5.08449e-14 -0.392392 -0.919798 
vn 5.08449e-14 -0.392392 -0.919798 
vn 5.02488e-14 -0.48954 -0.871981 
vn 5.02488e-14 -0.48954 -0.871981 
vn 4.90636e-14 -0.580948 -0.813941 
vn 4.90636e-14 -0.580948 -0.813941 
vn 4.73031e-14 -0.665545 -0.746358 
vn 4.73031e-14 -0.665545 -0.746358 
vn 4.49881e-14 -0.742339 -0.670025 
vn 4.49881e-14 -0.742339 -0.670025 
vn 4.21456e-14 -0.81043 -0.585836 
vn 4.21456e-14 -0.81043 -0.585836 
vn 3.8809e-14 -0.869019 -0.494779 
vn 3.8809e-14 -0.869019 -0.494779 
vn 3.50174e-14 -0.91742 -0.397921 
vn 3.50174e-14 -0.91742 -0.397921 
vn 3.08152e-14 -0.955065 -0.296398 
vn 3.08152e-14 -0.955065 -0.296398 
vn 2.62518e-14 -0.981512 -0.1914 
vn 2.62518e-14 -0.981512 -0.1914 
vn 2.13806e-14 -0.996452 -0.0841576 
vn 2.13806e-14 -0.996452 -0.0841576 
vn 1.62587e-14 -0.99971 0.0240712 
vn 1.62587e-14 -0.99971 0.0240712 
vn 1.09462e-14 -0.991247 0.132018 
vn 1.09462e-14 -0.991247 0.132018 
vn 5.50538e-15 -0.971163 0.238417 
vn 5.50538e-15 -0.971163 0.238417 
f 60//60 61//61 62//62 
f 63//63 62//62 64//64 
f 65//65 64//64 66//66 
f 67//67 66//66 68//68 
f 69//69 68//68 70//70 
f 71//71 70//70 72//72 
f 73//73 72//72 74//74 
f 75//75 74//74 76//76 
f 77//77 76//76 78//78 
f 79//79 78//78 80//80 
f 81//81 80//80 82//82 
f 83//83 82//82 84//84 
f 85//85 84//84 86//86 
f 87//87 86//86 88//88 
f 89//89 88//88 90//90 
f 91//91 90//90 92//92 
f 93//93 92//92 94//94 
f 95//95 94//94 96//96 
f 97//97 96//96 98//98 
f 99//99 98//98 100//100 
f 101//101 100//100 102//102 
f 103//103 102//102 104//104 
f 105//105 104//104 106//106 
f 107//107 106//106 108//108 
f 109//109 108//108 110//110 
f 111//111 110//110 112//112 
f 113//113 112//112 114//114 
f 115//115 114//114 116//116 
f 117//117 116//116 118//118 
f 119//119 118//118 120//120 
f 121//121 120//120 122//122 
f 123//123 122//122 124//124 
f 125//125 124//124 126//126 
f 127//127 126//126 128//128 
f 129//129 128//128 130//130 
f 131//131 130//130 132//132 
f 133//133 132//132 134//134 
f 135//135 134//134 136//136 
f 137//137 136//136 138//138 
f 139//139 138//138 140//140 
f 141//141 140//140 142//142 
f 143//143 142//142 144//144 
f 145//145 144//144 146//146 
f 147//147 146//146 148//148 
f 149//149 148//148 150//150 
f 151//151 150//150 152//152 
f 153//153 152//152 154//154 
f 155//155 154//154 156//156 
f 157//157 156//156 158//158 
f 159//159 158//158 160//160 
f 161//161 160//160 162//162 
f 163//163 162//162 164//164 
f 165//165 164//164 166//166 
f 167//167 166//166 168//168 
f 169//169 168//168 170//170 
f 171//171 170//170 172//172 
f 173//173 172//172 174//174 
f 175//175 174//174 61//61 
f 61//61 60//60 175//175 
f 174//174 175//175 173//173 
f 172//172 173//173 171//171 
f 170//170 171//171 169//169 
f 168//168 169//169 167//167 
f 166//166 167//167 165//165 
f 164//164 165//165 163//163 
f 162//162 163//163 161//161 
f 160//160 161//161 159//159 
f 158//158 159//159 157//157 
f 156//156 157//157 155//155 
f 154//154 155//155 153//153 
f 152//152 153//153 151//151 
f 150//150 151//151 149//149 
f 148//148 149//149 147//147 
f 146//146 147//147 145//145 
f 144//144 145//145 143//143 
f 142//142 143//143 141//141 
f 140//140 141//141 139//139 
f 138//138 139//139 137//137 
f 136//136 137//137 135//135 
f 134//134 135//135 133//133 
f 132//132 133//133 131//131 
f 130//130 131//131 129//129 
f 128//128 129//129 127//127 
f 126//126 127//127 125//125 
f 124//124 125//125 123//123 
f 122//122 123//123 121//121 
f 120//120 121//121 119//119 
f 118//118 119//119 117//117 
f 116//116 117//117 115//115 
f 114//114 115//115 113//113 
f 112//112 113//113 111//111 
f 110//110 111//111 109//109 
f 108//108 109//109 107//107 
f 106//106 107//107 105//105 
f 104//104 105//105 103//103 
f 102//102 103//103 101//101 
f 100//100 101//101 99//99 
f 98//98 99//99 97//97 
f 96//96 97//97 95//95 
f 94//94 95//95 93//93 
f 92//92 93//93 91//91 
f 90//90 91//91 89//89 
f 88//88 89//89 87//87 
f 86//86 87//87 85//85 
f 84//84 85//85 83//83 
f 82//82 83//83 81//81 
f 80//80 81//81 79//79 
f 78//78 79//79 77//77 
f 76//76 77//77 75//75 
f 74//74 75//75 73//73 
f 72//72 73//73 71//71 
f 70//70 71//71 69//69 
f 68//68 69//69 67//67 
f 66//66 67//67 65//65 
f 64//64 65//65 63//63 
f 62//62 63//63 60//60 
usemtl 0.000000_0.000000_0.000000_0.000000_0.000000
o mesh12833
v 0.21165 0.191733 0.20477 
v 0.21165 0.193303 0.203998 
v 0.21165 0.19321 0.203832 
v 0.21165 0.1931 0.203678 
v 0.21165 0.192974 0.203537 
v 0.21165 0.192833 0.20341 
v 0.21165 0.192679 0.203299 
v 0.21165 0.192515 0.203205 
v 0.21165 0.192341 0.20313 
v 0.21165 0.19216 0.203073 
v 0.21165 0.191974 0.203037 
v 0.21165 0.191785 0.203021 
v 0.21165 0.191596 0.203026 
v 0.21165 0.191408 0.203051 
v 0.21165 0.191224 0.203096 
v 0.21165 0.191046 0.203161 
v 0.21165 0.190876 0.203245 
v 0.21165 0.190716 0.203346 
v 0.21165 0.190568 0.203464 
v 0.21165 0.190433 0.203598 
v 0.21165 0.190314 0.203745 
v 0.21165 0.190212 0.203905 
v 0.21165 0.190127 0.204074 
v 0.21165 0.190061 0.204252 
v 0.21165 0.190015 0.204436 
v 0.21165 0.189989 0.204623 
v 0.21165 0.189983 0.204813 
v 0.21165 0.189998 0.205002 
v 0.21165 0.190033 0.205188 
v 0.21165 0.190088 0.205369 
v 0.21165 0.190162 0.205543 
v 0.21165 0.190255 0.205709 
v 0.21165 0.190365 0.205863 
v 0.21165 0.190491 0.206004 
v 0.21165 0.190632 0.206131 
v 0.21165 0.190786 0.206242 
v 0.21165 0.19095 0.206336 
v 0.21165 0.191124 0.206411 
v 0.21165 0.191305 0.206467 
v 0.21165 0.191491 0.206504 
v 0.21165 0.19168 0.20652 
v 0.21165 0.191869 0.206515 
v 0.21165 0.192057 0.20649 
v 0.21165 0.192241 0.206445 
v 0.21165 0.192419 0.20638 
v 0.21165 0.192589 0.206296 
v 0.21165 0.192749 0.206195 
v 0.21165 0.192897 0.206077 
v 0.21165 0.193032 0.205943 
v 0.21165 0.193151 0.205796 
v 0.21165 0.193253 0.205636 
v 0.21165 0.193338 0.205467 
v 0.21165 0.193404 0.205289 
v 0.21165 0.19345 0.205105 
v 0.21165 0.193476 0.204918 
v 0.21165 0.193482 0.204728 
v 0.21165 0.193467 0.204539 
v 0.21165 0.193432 0.204353 
v 0.21165 0.193377 0.204172 
vn -1 -1.74155e-14 -4.78488e-14 
vn -1 -1.74155e-14 -4.78488e-14 
vn -1 -1.74155e-14 -4.78488e-14 
vn -1 -1.74155e-14 -4.78488e-14 
vn -1 -1.74155e-14 -4.78488e-14 
vn -1 -1.74155e-14 -4.78488e-14 
vn -1 -1.74155e-14 -4.78488e-14 
vn -1 -1.74155e-14 -4.78488e-14 
vn -1 -1.74155e-14 -4.78488e-14 
vn -1 -1.74155e-14 -4.78488e-14 
vn -1 -1.74155e-14 -4.78488e-14 
vn -1 -1.74155e-14 -4.78488e-14 
vn -1 -1.74155e-14 -4.78488e-14 
vn -1 -1.74155e-14 -4.78488e-14 
vn -1 -1.74155e-14 -4.78488e-14 
vn -1 -1.74155e-14 -4.78488e-14 
vn -1 -1.74155e-14 -4.78488e-14 
vn -1 -1.74155e-14 -4.78488e-14 
vn -1 -1.74155e-14 -4.78488e-14 
vn -1 -1.74155e-14 -4.78488e-14 
vn -1 -1.74155e-14 -4.78488e-14 
vn -1 -1.74155e-14 -4.78488e-14 
vn -1 -1.74155e-14 -4.78488e-14 
vn -1 -1.74155e-14 -4.78488e-14 
vn -1 -1.74155e-14 -4.78488e-14 
vn -1 -1.74155e-14 -4.78488e-14 
vn -1 -1.74155e-14 -4.78488e-14 
vn -1 -1.74155e-14 -4.78488e-14 
vn -1 -1.74155e-14 -4.78488e-14 
vn -1 -1.74155e-14 -4.78488e-14 
vn -1 -1.74155e-14 -4.78488e-14 
vn -1 -1.74155e-14 -4.78488e-14 
vn -1 -1.74155e-14 -4.78488e-14 
vn -1 -1.74155e-14 -4.78488e-14 
vn -1 -1.74155e-14 -4.78488e-14 
vn -1 -1.74155e-14 -4.78488e-14 
vn -1 -1.74155e-14 -4.78488e-14 
vn -1 -1.74155e-14 -4.78488e-14 
vn -1 -1.74155e-14 -4.78488e-14 
vn -1 -1.74155e-14 -4.78488e-14 
vn -1 -1.74155e-14 -4.78488e-14 
vn -1 -1.74155e-14 -4.78488e-14 
vn -1 -1.74155e-14 -4.78488e-14 
vn -1 -1.74155e-14 -4.78488e-14 
vn -1 -1.74155e-14 -4.78488e-14 
vn -1 -1.74155e-14 -4.78488e-14 
vn -1 -1.74155e-14 -4.78488e-14 
vn -1 -1.74155e-14 -4.78488e-14 
vn -1 -1.74155e-14 -4.78488e-14 
vn -1 -1.74155e-14 -4.78488e-14 
vn -1 -1.74155e-14 -4.78488e-14 
vn -1 -1.74155e-14 -4.78488e-14 
vn -1 -1.74155e-14 -4.78488e-14 
vn -1 -1.74155e-14 -4.78488e-14 
vn -1 -1.74155e-14 -4.78488e-14 
vn -1 -1.74155e-14 -4.78488e-14 
vn -1 -1.74155e-14 -4.78488e-14 
vn -1 -1.74155e-14 -4.78488e-14 
vn -1 -1.74155e-14 -4.78488e-14 
f 176//176 177//177 178//178 
f 178//178 179//179 176//176 
f 179//179 180//180 176//176 
f 180//180 181//181 176//176 
f 181//181 182//182 176//176 
f 182//182 183//183 176//176 
f 183//183 184//184 176//176 
f 184//184 185//185 176//176 
f 185//185 186//186 176//176 
f 186//186 187//187 176//176 
f 187//187 188//188 176//176 
f 188//188 189//189 176//176 
f 189//189 190//190 176//176 
f 190//190 191//191 176//176 
f 191//191 192//192 176//176 
f 192//192 193//193 176//176 
f 193//193 194//194 176//176 
f 194//194 195//195 176//176 
f 195//195 196//196 176//176 
f 196//196 197//197 176//176 
f 197//197 198//198 176//176 
f 198//198 199//199 176//176 
f 199//199 200//200 176//176 
f 200//200 201//201 176//176 
f 201//201 202//202 176//176 
f 202//202 203//203 176//176 
f 203//203 204//204 176//176 
f 204//204 205//205 176//176 
f 205//205 206//206 176//176 
f 206//206 207//207 176//176 
f 207//207 208//208 176//176 
f 208//208 209//209 176//176 
f 209//209 210//210 176//176 
f 210//210 211//211 176//176 
f 211//211 212//212 176//176 
f 212//212 213//213 176//176 
f 213//213 214//214 176//176 
f 214//214 215//215 176//176 
f 215//215 216//216 176//176 
f 216//216 217//217 176//176 
f 217//217 218//218 176//176 
f 218//218 219//219 176//176 
f 219//219 220//220 176//176 
f 220//220 221//221 176//176 
f 221//221 222//222 176//176 
f 222//222 223//223 176//176 
f 223//223 224//224 176//176 
f 224//224 225//225 176//176 
f 225//225 226//226 176//176 
f 226//226 227//227 176//176 
f 227//227 228//228 176//176 
f 228//228 229//229 176//176 
f 229//229 230//230 176//176 
f 230//230 231//231 176//176 
f 231//231 232//232 176//176 
f 232//232 233//233 176//176 
f 233//233 234//234 176//176 
f 234//234 177//177 176//176 
