# OBJ generated by ONSHAPE BY PTC INC, 1.215 Units = meters
mtllib EBoxNewAsm_stp_1_Beelink_mini_PC_v4_stp_1_Beelink_mini_PC_v4_76_stp_1_solid1.mtl
g EBoxNewAsm.stp-1/Beelink mini PC v4.stp-1/Beelink mini PC v4-76.stp-1-solid1
usemtl 0.929412_0.807843_0.764706_0.000000_0.000000
o mesh16049
v 0.30785 0.17973 0.210097 
v 0.29785 0.17973 0.210097 
v 0.29785 0.179046 0.208217 
vn 0 -0.939693 0.34202 
vn 0 -0.939693 0.34202 
vn 0 -0.939693 0.34202 
f 1//1 2//2 3//3 
o mesh16050
v 0.29785 0.1802 0.209926 
v 0.29785 0.179516 0.208046 
v 0.29785 0.179046 0.208217 
v 0.29785 0.17973 0.210097 
vn -1 -1.74155e-14 -4.78488e-14 
vn -1 -1.74155e-14 -4.78488e-14 
vn -1 -1.74155e-14 -4.78488e-14 
vn -1 -1.74155e-14 -4.78488e-14 
f 4//4 5//5 6//6 
f 6//6 7//7 4//4 
o mesh16051
v 0.30785 0.1802 0.209926 
v 0.29785 0.1802 0.209926 
v 0.29785 0.17973 0.210097 
v 0.30785 0.17973 0.210097 
vn -5.09196e-14 0.34202 0.939693 
vn -5.09196e-14 0.34202 0.939693 
vn -5.09196e-14 0.34202 0.939693 
vn -5.09196e-14 0.34202 0.939693 
f 8//8 9//9 10//10 
f 10//10 11//11 8//8 
o mesh16052
v 0.30785 0.1802 0.209926 
v 0.30785 0.17973 0.210097 
v 0.29785 0.179046 0.208217 
v 0.29785 0.179516 0.208046 
vn 0.196116 -0.335378 -0.921444 
vn 0.196116 -0.335378 -0.921444 
vn 0.196116 -0.335378 -0.921444 
vn 0.196116 -0.335378 -0.921444 
f 12//12 13//13 14//14 
f 14//14 15//15 12//12 
o mesh16053
v 0.29785 0.179516 0.208046 
v 0.29785 0.1802 0.209926 
v 0.30785 0.1802 0.209926 
vn 0 0.939693 -0.34202 
vn 0 0.939693 -0.34202 
vn 0 0.939693 -0.34202 
f 16//16 17//17 18//18 
