# OBJ generated by ONSHAPE BY PTC INC, 1.215 Units = meters
mtllib EBoxNewAsm_stp_1_eBoxDamper_stp_6_solid1.mtl
g EBoxNewAsm.stp-1/eBoxDamper.stp-6-solid1
usemtl 0.152941_0.152941_0.152941_0.000000_0.000000
o mesh4893
v -0.0328191 0.216901 0.0225465 
v -0.0328 0.217021 0.0228767 
v -0.0328 0.222988 0.0207049 
v -0.032876 0.216782 0.0222202 
v -0.0328191 0.222868 0.0203747 
v -0.0329701 0.216666 0.0219015 
v -0.032876 0.222749 0.0200483 
v -0.0331004 0.216555 0.0215943 
v -0.0329701 0.222633 0.0197297 
v -0.0332652 0.216448 0.0213022 
v -0.0331004 0.222522 0.0194225 
v -0.0334627 0.216349 0.0210285 
v -0.0332652 0.222415 0.0191303 
v -0.0336905 0.216257 0.0207764 
v -0.0334627 0.222316 0.0188566 
v -0.033946 0.216174 0.020549 
v -0.0336905 0.222224 0.0186046 
v -0.0342261 0.216101 0.0203489 
v -0.033946 0.222141 0.0183772 
v -0.0345277 0.216039 0.0201784 
v -0.0342261 0.222068 0.0181771 
v -0.0348471 0.215989 0.0200396 
v -0.0345277 0.222006 0.0180066 
v -0.0351805 0.21595 0.019934 
v -0.0348471 0.221956 0.0178678 
v -0.0355242 0.215924 0.0198629 
v -0.0351805 0.221917 0.0177622 
v -0.035874 0.215911 0.0198272 
v -0.0355242 0.221891 0.0176911 
v -0.036226 0.215911 0.0198272 
v -0.035874 0.221878 0.0176553 
v -0.0365758 0.215924 0.0198629 
v -0.036226 0.221878 0.0176553 
v -0.0369195 0.21595 0.019934 
v -0.0365758 0.221891 0.0176911 
v -0.0372529 0.215989 0.0200396 
v -0.0369195 0.221917 0.0177622 
v -0.0375723 0.216039 0.0201784 
v -0.0372529 0.221956 0.0178678 
v -0.0378739 0.216101 0.0203489 
v -0.0375723 0.222006 0.0180066 
v -0.038154 0.216174 0.020549 
v -0.0378739 0.222068 0.0181771 
v -0.0384095 0.216257 0.0207764 
v -0.038154 0.222141 0.0183772 
v -0.0386373 0.216349 0.0210285 
v -0.0384095 0.222224 0.0186046 
v -0.0388348 0.216448 0.0213022 
v -0.0386373 0.222316 0.0188566 
v -0.0389996 0.216555 0.0215943 
v -0.0388348 0.222415 0.0191303 
v -0.0391299 0.216666 0.0219015 
v -0.0389996 0.222522 0.0194225 
v -0.039224 0.216782 0.0222202 
v -0.0391299 0.222633 0.0197297 
v -0.0392809 0.216901 0.0225465 
v -0.039224 0.222749 0.0200483 
v -0.0393 0.217021 0.0228767 
v -0.0392809 0.222868 0.0203747 
v -0.0392809 0.217141 0.0232069 
v -0.0393 0.222988 0.0207049 
v -0.039224 0.21726 0.0235332 
v -0.0392809 0.223109 0.021035 
v -0.0391299 0.217376 0.0238518 
v -0.039224 0.223227 0.0213614 
v -0.0389996 0.217488 0.024159 
v -0.0391299 0.223343 0.02168 
v -0.0388348 0.217594 0.0244512 
v -0.0389996 0.223455 0.0219872 
v -0.0386373 0.217694 0.0247249 
v -0.0388348 0.223561 0.0222794 
v -0.0384095 0.217786 0.0249769 
v -0.0386373 0.223661 0.0225531 
v -0.038154 0.217868 0.0252043 
v -0.0384095 0.223753 0.0228051 
v -0.0378739 0.217941 0.0254044 
v -0.038154 0.223836 0.0230325 
v -0.0375723 0.218003 0.0255749 
v -0.0378739 0.223908 0.0232326 
v -0.0372529 0.218054 0.0257138 
v -0.0375723 0.22397 0.0234031 
v -0.0369195 0.218092 0.0258194 
v -0.0372529 0.224021 0.0235419 
v -0.0365758 0.218118 0.0258904 
v -0.0369195 0.224059 0.0236475 
v -0.036226 0.218131 0.0259262 
v -0.0365758 0.224085 0.0237186 
v -0.035874 0.218131 0.0259262 
v -0.036226 0.224098 0.0237544 
v -0.0355242 0.218118 0.0258904 
v -0.035874 0.224098 0.0237544 
v -0.0351805 0.218092 0.0258194 
v -0.0355242 0.224085 0.0237186 
v -0.0348471 0.218054 0.0257138 
v -0.0351805 0.224059 0.0236475 
v -0.0345277 0.218003 0.0255749 
v -0.0348471 0.224021 0.0235419 
v -0.0342261 0.217941 0.0254044 
v -0.0345277 0.22397 0.0234031 
v -0.033946 0.217868 0.0252043 
v -0.0342261 0.223908 0.0232326 
v -0.0336905 0.217786 0.0249769 
v -0.033946 0.223836 0.0230325 
v -0.0334627 0.217694 0.0247249 
v -0.0336905 0.223753 0.0228051 
v -0.0332652 0.217594 0.0244512 
v -0.0334627 0.223661 0.0225531 
v -0.0331004 0.217488 0.024159 
v -0.0332652 0.223561 0.0222794 
v -0.0329701 0.217376 0.0238518 
v -0.0331004 0.223455 0.0219872 
v -0.032876 0.21726 0.0235332 
v -0.0329701 0.223343 0.02168 
v -0.0328191 0.217141 0.0232069 
v -0.032876 0.223227 0.0213614 
v -0.0328191 0.223109 0.021035 
vn -0.994138 0.0369789 0.101599 
vn -1 -8.41655e-14 -4.70431e-14 
vn -1 -8.41655e-14 -4.70431e-14 
vn -0.976621 0.0735242 0.202006 
vn -0.994138 0.0369789 0.101599 
vn -0.947653 0.109208 0.300045 
vn -0.976621 0.0735242 0.202006 
vn -0.907575 0.143611 0.394567 
vn -0.947653 0.109208 0.300045 
vn -0.856857 0.17633 0.484462 
vn -0.907575 0.143611 0.394567 
vn -0.796093 0.206982 0.568678 
vn -0.856857 0.17633 0.484462 
vn -0.725995 0.235207 0.646226 
vn -0.796093 0.206982 0.568678 
vn -0.647386 0.260675 0.716198 
vn -0.725995 0.235207 0.646226 
vn -0.561187 0.283086 0.777773 
vn -0.647386 0.260675 0.716198 
vn -0.468408 0.302179 0.83023 
vn -0.561187 0.283086 0.777773 
vn -0.370138 0.317729 0.872953 
vn -0.468408 0.302179 0.83023 
vn -0.267528 0.329554 0.905441 
vn -0.370138 0.317729 0.872953 
vn -0.161782 0.337515 0.927314 
vn -0.267528 0.329554 0.905441 
vn -0.0541389 0.341519 0.938314 
vn -0.161782 0.337515 0.927314 
vn 0.0541389 0.341519 0.938314 
vn -0.0541389 0.341519 0.938314 
vn 0.161782 0.337515 0.927314 
vn 0.0541389 0.341519 0.938314 
vn 0.267528 0.329554 0.905441 
vn 0.161782 0.337515 0.927314 
vn 0.370138 0.317729 0.872953 
vn 0.267528 0.329554 0.905441 
vn 0.468408 0.302179 0.83023 
vn 0.370138 0.317729 0.872953 
vn 0.561187 0.283086 0.777773 
vn 0.468408 0.302179 0.83023 
vn 0.647386 0.260675 0.716198 
vn 0.561187 0.283086 0.777773 
vn 0.725995 0.235207 0.646226 
vn 0.647386 0.260675 0.716198 
vn 0.796093 0.206982 0.568678 
vn 0.725995 0.235207 0.646226 
vn 0.856857 0.17633 0.484462 
vn 0.796093 0.206982 0.568678 
vn 0.907575 0.143611 0.394567 
vn 0.856857 0.17633 0.484462 
vn 0.947653 0.109208 0.300045 
vn 0.907575 0.143611 0.394567 
vn 0.976621 0.0735242 0.202006 
vn 0.947653 0.109208 0.300045 
vn 0.994138 0.0369789 0.101599 
vn 0.976621 0.0735242 0.202006 
vn 1 8.48149e-14 4.88274e-14 
vn 0.994138 0.0369789 0.101599 
vn 0.994138 -0.0369789 -0.101599 
vn 1 8.48149e-14 4.88274e-14 
vn 0.976621 -0.0735242 -0.202006 
vn 0.994138 -0.0369789 -0.101599 
vn 0.947653 -0.109208 -0.300045 
vn 0.976621 -0.0735242 -0.202006 
vn 0.907575 -0.143611 -0.394567 
vn 0.947653 -0.109208 -0.300045 
vn 0.856857 -0.17633 -0.484462 
vn 0.907575 -0.143611 -0.394567 
vn 0.796093 -0.206982 -0.568678 
vn 0.856857 -0.17633 -0.484462 
vn 0.725995 -0.235207 -0.646226 
vn 0.796093 -0.206982 -0.568678 
vn 0.647386 -0.260675 -0.716198 
vn 0.725995 -0.235207 -0.646226 
vn 0.561187 -0.283086 -0.777773 
vn 0.647386 -0.260675 -0.716198 
vn 0.468408 -0.302179 -0.83023 
vn 0.561187 -0.283086 -0.777773 
vn 0.370138 -0.317729 -0.872953 
vn 0.468408 -0.302179 -0.83023 
vn 0.267528 -0.329554 -0.905441 
vn 0.370138 -0.317729 -0.872953 
vn 0.161782 -0.337515 -0.927314 
vn 0.267528 -0.329554 -0.905441 
vn 0.0541389 -0.341519 -0.938314 
vn 0.161782 -0.337515 -0.927314 
vn -0.0541389 -0.341519 -0.938314 
vn 0.0541389 -0.341519 -0.938314 
vn -0.161782 -0.337515 -0.927314 
vn -0.0541389 -0.341519 -0.938314 
vn -0.267528 -0.329554 -0.905441 
vn -0.161782 -0.337515 -0.927314 
vn -0.370138 -0.317729 -0.872953 
vn -0.267528 -0.329554 -0.905441 
vn -0.468408 -0.302179 -0.83023 
vn -0.370138 -0.317729 -0.872953 
vn -0.561187 -0.283086 -0.777773 
vn -0.468408 -0.302179 -0.83023 
vn -0.647386 -0.260675 -0.716198 
vn -0.561187 -0.283086 -0.777773 
vn -0.725995 -0.235207 -0.646226 
vn -0.647386 -0.260675 -0.716198 
vn -0.796093 -0.206982 -0.568678 
vn -0.725995 -0.235207 -0.646226 
vn -0.856857 -0.17633 -0.484462 
vn -0.796093 -0.206982 -0.568678 
vn -0.907575 -0.143611 -0.394567 
vn -0.856857 -0.17633 -0.484462 
vn -0.947653 -0.109208 -0.300045 
vn -0.907575 -0.143611 -0.394567 
vn -0.976621 -0.0735242 -0.202006 
vn -0.947653 -0.109208 -0.300045 
vn -0.994138 -0.0369789 -0.101599 
vn -0.976621 -0.0735242 -0.202006 
vn -0.994138 -0.0369789 -0.101599 
f 1//1 2//2 3//3 
f 4//4 1//1 5//5 
f 6//6 4//4 7//7 
f 8//8 6//6 9//9 
f 10//10 8//8 11//11 
f 12//12 10//10 13//13 
f 14//14 12//12 15//15 
f 16//16 14//14 17//17 
f 18//18 16//16 19//19 
f 20//20 18//18 21//21 
f 22//22 20//20 23//23 
f 24//24 22//22 25//25 
f 26//26 24//24 27//27 
f 28//28 26//26 29//29 
f 30//30 28//28 31//31 
f 32//32 30//30 33//33 
f 34//34 32//32 35//35 
f 36//36 34//34 37//37 
f 38//38 36//36 39//39 
f 40//40 38//38 41//41 
f 42//42 40//40 43//43 
f 44//44 42//42 45//45 
f 46//46 44//44 47//47 
f 48//48 46//46 49//49 
f 50//50 48//48 51//51 
f 52//52 50//50 53//53 
f 54//54 52//52 55//55 
f 56//56 54//54 57//57 
f 58//58 56//56 59//59 
f 60//60 58//58 61//61 
f 62//62 60//60 63//63 
f 64//64 62//62 65//65 
f 66//66 64//64 67//67 
f 68//68 66//66 69//69 
f 70//70 68//68 71//71 
f 72//72 70//70 73//73 
f 74//74 72//72 75//75 
f 76//76 74//74 77//77 
f 78//78 76//76 79//79 
f 80//80 78//78 81//81 
f 82//82 80//80 83//83 
f 84//84 82//82 85//85 
f 86//86 84//84 87//87 
f 88//88 86//86 89//89 
f 90//90 88//88 91//91 
f 92//92 90//90 93//93 
f 94//94 92//92 95//95 
f 96//96 94//94 97//97 
f 98//98 96//96 99//99 
f 100//100 98//98 101//101 
f 102//102 100//100 103//103 
f 104//104 102//102 105//105 
f 106//106 104//104 107//107 
f 108//108 106//106 109//109 
f 110//110 108//108 111//111 
f 112//112 110//110 113//113 
f 114//114 112//112 115//115 
f 2//2 114//114 116//116 
f 116//116 3//3 2//2 
f 115//115 116//116 114//114 
f 113//113 115//115 112//112 
f 111//111 113//113 110//110 
f 109//109 111//111 108//108 
f 107//107 109//109 106//106 
f 105//105 107//107 104//104 
f 103//103 105//105 102//102 
f 101//101 103//103 100//100 
f 99//99 101//101 98//98 
f 97//97 99//99 96//96 
f 95//95 97//97 94//94 
f 93//93 95//95 92//92 
f 91//91 93//93 90//90 
f 89//89 91//91 88//88 
f 87//87 89//89 86//86 
f 85//85 87//87 84//84 
f 83//83 85//85 82//82 
f 81//81 83//83 80//80 
f 79//79 81//81 78//78 
f 77//77 79//79 76//76 
f 75//75 77//77 74//74 
f 73//73 75//75 72//72 
f 71//71 73//73 70//70 
f 69//69 71//71 68//68 
f 67//67 69//69 66//66 
f 65//65 67//67 64//64 
f 63//63 65//65 62//62 
f 61//61 63//63 60//60 
f 59//59 61//61 58//58 
f 57//57 59//59 56//56 
f 55//55 57//57 54//54 
f 53//53 55//55 52//52 
f 51//51 53//53 50//50 
f 49//49 51//51 48//48 
f 47//47 49//49 46//46 
f 45//45 47//47 44//44 
f 43//43 45//45 42//42 
f 41//41 43//43 40//40 
f 39//39 41//41 38//38 
f 37//37 39//39 36//36 
f 35//35 37//37 34//34 
f 33//33 35//35 32//32 
f 31//31 33//33 30//30 
f 29//29 31//31 28//28 
f 27//27 29//29 26//26 
f 25//25 27//27 24//24 
f 23//23 25//25 22//22 
f 21//21 23//23 20//20 
f 19//19 21//21 18//18 
f 17//17 19//19 16//16 
f 15//15 17//17 14//14 
f 13//13 15//15 12//12 
f 11//11 13//13 10//10 
f 9//9 11//11 8//8 
f 7//7 9//9 6//6 
f 5//5 7//7 4//4 
f 3//3 5//5 1//1 
o mesh4894
v -0.0348471 0.189272 -0.0719308 
v -0.0351805 0.18931 -0.0718252 
v -0.0328 0.222988 0.0207049 
v 0.00515 0.227332 0.0326389 
v 0.00515 0.183895 -0.086702 
v -0.0331004 0.188706 -0.0734856 
v -0.032876 0.188478 -0.0741114 
v -0.0329701 0.188594 -0.0737928 
v -0.032876 0.188 -0.0754244 
v -0.0328191 0.188119 -0.0750981 
v -0.0331004 0.187772 -0.0760503 
v -0.0329701 0.187884 -0.0757431 
v -0.0334627 0.187566 -0.0766161 
v -0.0332652 0.187666 -0.0763424 
v -0.033946 0.187392 -0.0770956 
v -0.0336905 0.187475 -0.0768682 
v -0.0342261 0.223908 0.0232326 
v -0.0345277 0.22397 0.0234031 
v -0.0334627 0.223661 0.0225531 
v -0.0336905 0.223753 0.0228051 
v -0.0328191 0.223109 0.021035 
v -0.032876 0.223227 0.0213614 
v -0.0328 0.188239 -0.0747679 
v -0.0328191 0.188359 -0.0744377 
v -0.0365758 0.221891 0.0176911 
v -0.0388348 0.188812 -0.0731934 
v -0.0389996 0.188706 -0.0734856 
v -0.035874 0.189349 -0.0717184 
v -0.0348471 0.221956 0.0178678 
v -0.0345277 0.222006 0.0180066 
v -0.036226 0.189349 -0.0717184 
v -0.036226 0.221878 0.0176553 
v -0.033946 0.223836 0.0230325 
v -0.0332652 0.223561 0.0222794 
v -0.0329701 0.223343 0.02168 
v -0.0331004 0.223455 0.0219872 
v -0.0355242 0.189336 -0.0717541 
v -0.04565 0.183895 -0.086702 
v -0.0355242 0.187142 -0.0777817 
v -0.0351805 0.187168 -0.0777106 
v -0.0365758 0.187142 -0.0777817 
v -0.036226 0.187129 -0.0778174 
v -0.0391299 0.188594 -0.0737928 
v -0.039224 0.188478 -0.0741114 
v -0.0384095 0.189004 -0.0726677 
v -0.0386373 0.188912 -0.0729197 
v -0.0378739 0.189159 -0.0722402 
v -0.038154 0.189086 -0.0724403 
v -0.0336905 0.222224 0.0186046 
v -0.0334627 0.222316 0.0188566 
v -0.0342261 0.222068 0.0181771 
v -0.0355242 0.221891 0.0176911 
v -0.0351805 0.221917 0.0177622 
v -0.0332652 0.188812 -0.0731934 
v -0.0334627 0.188912 -0.0729197 
v -0.035874 0.187129 -0.0778174 
v -0.0384095 0.187475 -0.0768682 
v -0.038154 0.187392 -0.0770956 
v -0.0392809 0.188119 -0.0750981 
v -0.039224 0.188 -0.0754244 
v -0.0392809 0.188359 -0.0744377 
v -0.0393 0.188239 -0.0747679 
v -0.033946 0.222141 0.0183772 
v -0.035874 0.221878 0.0176553 
v -0.0342261 0.189159 -0.0722402 
v -0.0345277 0.189221 -0.0720697 
v -0.0336905 0.189004 -0.0726677 
v -0.033946 0.189086 -0.0724403 
v -0.0372529 0.187206 -0.077605 
v -0.0369195 0.187168 -0.0777106 
v -0.0378739 0.187319 -0.0772957 
v -0.0388348 0.187666 -0.0763424 
v -0.0386373 0.187566 -0.0766161 
v -0.0365758 0.189336 -0.0717541 
v -0.0345277 0.187257 -0.0774662 
v -0.0342261 0.187319 -0.0772957 
v -0.0348471 0.187206 -0.077605 
v -0.0375723 0.187257 -0.0774662 
v -0.0391299 0.187884 -0.0757431 
v -0.0389996 0.187772 -0.0760503 
v -0.0369195 0.18931 -0.0718252 
v -0.0384095 0.222224 0.0186046 
v -0.038154 0.222141 0.0183772 
v -0.0389996 0.222522 0.0194225 
v -0.0388348 0.222415 0.0191303 
v -0.04565 0.227332 0.0326389 
v -0.0392809 0.222868 0.0203747 
v -0.039224 0.222749 0.0200483 
v -0.0372529 0.189272 -0.0719308 
v -0.0375723 0.189221 -0.0720697 
v -0.0332652 0.222415 0.0191303 
v -0.0375723 0.222006 0.0180066 
v -0.0372529 0.221956 0.0178678 
v -0.0378739 0.222068 0.0181771 
v -0.0386373 0.222316 0.0188566 
v -0.0391299 0.222633 0.0197297 
v -0.0393 0.222988 0.0207049 
v -0.039224 0.223227 0.0213614 
v -0.0392809 0.223109 0.021035 
v -0.0389996 0.223455 0.0219872 
v -0.0391299 0.223343 0.02168 
v -0.0372529 0.224021 0.0235419 
v -0.0375723 0.22397 0.0234031 
v -0.0329701 0.222633 0.0197297 
v -0.032876 0.222749 0.0200483 
v -0.0331004 0.222522 0.0194225 
v -0.0369195 0.221917 0.0177622 
v -0.0384095 0.223753 0.0228051 
v -0.0386373 0.223661 0.0225531 
v -0.0369195 0.224059 0.0236475 
v -0.0348471 0.224021 0.0235419 
v -0.0351805 0.224059 0.0236475 
v -0.038154 0.223836 0.0230325 
v -0.0365758 0.224085 0.0237186 
v -0.0328191 0.222868 0.0203747 
v -0.0388348 0.223561 0.0222794 
v -0.0378739 0.223908 0.0232326 
v -0.035874 0.224098 0.0237544 
v -0.036226 0.224098 0.0237544 
v -0.0355242 0.224085 0.0237186 
vn -6.3e-14 0.939693 -0.34202 
vn -6.3e-14 0.939693 -0.34202 
vn -6.3e-14 0.939693 -0.34202 
vn -6.3e-14 0.939693 -0.34202 
vn -6.3e-14 0.939693 -0.34202 
vn -6.3e-14 0.939693 -0.34202 
vn -6.3e-14 0.939693 -0.34202 
vn -6.3e-14 0.939693 -0.34202 
vn -6.3e-14 0.939693 -0.34202 
vn -6.3e-14 0.939693 -0.34202 
vn -6.3e-14 0.939693 -0.34202 
vn -6.3e-14 0.939693 -0.34202 
vn -6.3e-14 0.939693 -0.34202 
vn -6.3e-14 0.939693 -0.34202 
vn -6.3e-14 0.939693 -0.34202 
vn -6.3e-14 0.939693 -0.34202 
vn -6.3e-14 0.939693 -0.34202 
vn -6.3e-14 0.939693 -0.34202 
vn -6.3e-14 0.939693 -0.34202 
vn -6.3e-14 0.939693 -0.34202 
vn -6.3e-14 0.939693 -0.34202 
vn -6.3e-14 0.939693 -0.34202 
vn -6.3e-14 0.939693 -0.34202 
vn -6.3e-14 0.939693 -0.34202 
vn -6.3e-14 0.939693 -0.34202 
vn -6.3e-14 0.939693 -0.34202 
vn -6.3e-14 0.939693 -0.34202 
vn -6.3e-14 0.939693 -0.34202 
vn -6.3e-14 0.939693 -0.34202 
vn -6.3e-14 0.939693 -0.34202 
vn -6.3e-14 0.939693 -0.34202 
vn -6.3e-14 0.939693 -0.34202 
vn -6.3e-14 0.939693 -0.34202 
vn -6.3e-14 0.939693 -0.34202 
vn -6.3e-14 0.939693 -0.34202 
vn -6.3e-14 0.939693 -0.34202 
vn -6.3e-14 0.939693 -0.34202 
vn -6.3e-14 0.939693 -0.34202 
vn -6.3e-14 0.939693 -0.34202 
vn -6.3e-14 0.939693 -0.34202 
vn -6.3e-14 0.939693 -0.34202 
vn -6.3e-14 0.939693 -0.34202 
vn -6.3e-14 0.939693 -0.34202 
vn -6.3e-14 0.939693 -0.34202 
vn -6.3e-14 0.939693 -0.34202 
vn -6.3e-14 0.939693 -0.34202 
vn -6.3e-14 0.939693 -0.34202 
vn -6.3e-14 0.939693 -0.34202 
vn -6.3e-14 0.939693 -0.34202 
vn -6.3e-14 0.939693 -0.34202 
vn -6.3e-14 0.939693 -0.34202 
vn -6.3e-14 0.939693 -0.34202 
vn -6.3e-14 0.939693 -0.34202 
vn -6.3e-14 0.939693 -0.34202 
vn -6.3e-14 0.939693 -0.34202 
vn -6.3e-14 0.939693 -0.34202 
vn -6.3e-14 0.939693 -0.34202 
vn -6.3e-14 0.939693 -0.34202 
vn -6.3e-14 0.939693 -0.34202 
vn -6.3e-14 0.939693 -0.34202 
vn -6.3e-14 0.939693 -0.34202 
vn -6.3e-14 0.939693 -0.34202 
vn -6.3e-14 0.939693 -0.34202 
vn -6.3e-14 0.939693 -0.34202 
vn -6.3e-14 0.939693 -0.34202 
vn -6.3e-14 0.939693 -0.34202 
vn -6.3e-14 0.939693 -0.34202 
vn -6.3e-14 0.939693 -0.34202 
vn -6.3e-14 0.939693 -0.34202 
vn -6.3e-14 0.939693 -0.34202 
vn -6.3e-14 0.939693 -0.34202 
vn -6.3e-14 0.939693 -0.34202 
vn -6.3e-14 0.939693 -0.34202 
vn -6.3e-14 0.939693 -0.34202 
vn -6.3e-14 0.939693 -0.34202 
vn -6.3e-14 0.939693 -0.34202 
vn -6.3e-14 0.939693 -0.34202 
vn -6.3e-14 0.939693 -0.34202 
vn -6.3e-14 0.939693 -0.34202 
vn -6.3e-14 0.939693 -0.34202 
vn -6.3e-14 0.939693 -0.34202 
vn -6.3e-14 0.939693 -0.34202 
vn -6.3e-14 0.939693 -0.34202 
vn -6.3e-14 0.939693 -0.34202 
vn -6.3e-14 0.939693 -0.34202 
vn -6.3e-14 0.939693 -0.34202 
vn -6.3e-14 0.939693 -0.34202 
vn -6.3e-14 0.939693 -0.34202 
vn -6.3e-14 0.939693 -0.34202 
vn -6.3e-14 0.939693 -0.34202 
vn -6.3e-14 0.939693 -0.34202 
vn -6.3e-14 0.939693 -0.34202 
vn -6.3e-14 0.939693 -0.34202 
vn -6.3e-14 0.939693 -0.34202 
vn -6.3e-14 0.939693 -0.34202 
vn -6.3e-14 0.939693 -0.34202 
vn -6.3e-14 0.939693 -0.34202 
vn -6.3e-14 0.939693 -0.34202 
vn -6.3e-14 0.939693 -0.34202 
vn -6.3e-14 0.939693 -0.34202 
vn -6.3e-14 0.939693 -0.34202 
vn -6.3e-14 0.939693 -0.34202 
vn -6.3e-14 0.939693 -0.34202 
vn -6.3e-14 0.939693 -0.34202 
vn -6.3e-14 0.939693 -0.34202 
vn -6.3e-14 0.939693 -0.34202 
vn -6.3e-14 0.939693 -0.34202 
vn -6.3e-14 0.939693 -0.34202 
vn -6.3e-14 0.939693 -0.34202 
vn -6.3e-14 0.939693 -0.34202 
vn -6.3e-14 0.939693 -0.34202 
vn -6.3e-14 0.939693 -0.34202 
vn -6.3e-14 0.939693 -0.34202 
vn -6.3e-14 0.939693 -0.34202 
vn -6.3e-14 0.939693 -0.34202 
vn -6.3e-14 0.939693 -0.34202 
vn -6.3e-14 0.939693 -0.34202 
vn -6.3e-14 0.939693 -0.34202 
vn -6.3e-14 0.939693 -0.34202 
vn -6.3e-14 0.939693 -0.34202 
f 117//117 118//118 119//119 
f 119//119 120//120 117//117 
f 120//120 121//121 122//122 
f 121//121 123//123 124//124 
f 121//121 125//125 126//126 
f 121//121 127//127 128//128 
f 121//121 129//129 130//130 
f 121//121 131//131 132//132 
f 120//120 133//133 134//134 
f 120//120 135//135 136//136 
f 120//120 137//137 138//138 
f 119//119 137//137 120//120 
f 124//124 122//122 121//121 
f 121//121 139//139 140//140 
f 128//128 125//125 121//121 
f 132//132 129//129 121//121 
f 141//141 142//142 143//143 
f 144//144 145//145 146//146 
f 147//147 141//141 148//148 
f 120//120 149//149 133//133 
f 120//120 150//150 135//135 
f 120//120 151//151 152//152 
f 118//118 153//153 119//119 
f 140//140 123//123 121//121 
f 130//130 127//127 121//121 
f 154//154 155//155 156//156 
f 154//154 157//157 158//158 
f 154//154 159//159 160//160 
f 143//143 154//154 141//141 
f 141//141 161//161 162//162 
f 141//141 163//163 164//164 
f 144//144 165//165 166//166 
f 146//146 167//167 144//144 
f 144//144 168//168 169//169 
f 148//148 144//144 147//147 
f 136//136 149//149 120//120 
f 138//138 151//151 120//120 
f 120//120 170//170 171//171 
f 126//126 139//139 121//121 
f 156//156 121//121 154//154 
f 158//158 172//172 154//154 
f 154//154 173//173 174//174 
f 154//154 175//175 176//176 
f 154//154 177//177 178//178 
f 143//143 159//159 154//154 
f 164//164 161//161 141//141 
f 144//144 179//179 165//165 
f 169//169 145//145 144//144 
f 148//148 180//180 144//144 
f 152//152 150//150 120//120 
f 120//120 181//181 182//182 
f 120//120 183//183 184//184 
f 122//122 170//170 120//120 
f 172//172 155//155 154//154 
f 154//154 185//185 186//186 
f 174//174 187//187 154//154 
f 154//154 188//188 189//189 
f 178//178 175//175 154//154 
f 162//162 142//142 141//141 
f 167//167 179//179 144//144 
f 147//147 190//190 141//141 
f 182//182 117//117 120//120 
f 171//171 183//183 120//120 
f 121//121 191//191 192//192 
f 156//156 193//193 121//121 
f 154//154 194//194 185//185 
f 189//189 173//173 154//154 
f 154//154 195//195 196//196 
f 160//160 177//177 154//154 
f 141//141 190//190 197//197 
f 180//180 168//168 144//144 
f 154//154 198//198 199//199 
f 154//154 200//200 201//201 
f 202//202 203//203 204//204 
f 184//184 181//181 120//120 
f 193//193 191//191 121//121 
f 187//187 194//194 154//154 
f 176//176 195//195 154//154 
f 141//141 205//205 206//206 
f 166//166 207//207 144//144 
f 154//154 208//208 209//209 
f 199//199 210//210 154//154 
f 201//201 211//211 154//154 
f 154//154 204//204 212//212 
f 202//202 213//213 203//203 
f 202//202 214//214 215//215 
f 202//202 216//216 217//217 
f 202//202 218//218 219//219 
f 144//144 220//220 221//221 
f 144//144 207//207 222//222 
f 192//192 131//131 121//121 
f 196//196 188//188 154//154 
f 197//197 205//205 141//141 
f 209//209 223//223 154//154 
f 211//211 198//198 154//154 
f 204//204 154//154 202//202 
f 217//217 214//214 202//202 
f 202//202 224//224 225//225 
f 202//202 226//226 218//218 
f 120//120 227//227 228//228 
f 222//222 220//220 144//144 
f 134//134 227//227 120//120 
f 206//206 163//163 141//141 
f 210//210 208//208 154//154 
f 215//215 213//213 202//202 
f 202//202 229//229 224//224 
f 202//202 230//230 226//226 
f 228//228 202//202 120//120 
f 221//221 231//231 144//144 
f 186//186 157//157 154//154 
f 212//212 200//200 154//154 
f 225//225 232//232 202//202 
f 219//219 233//233 202//202 
f 202//202 234//234 235//235 
f 228//228 236//236 202//202 
f 153//153 144//144 119//119 
f 232//232 216//216 202//202 
f 235//235 230//230 202//202 
f 231//231 119//119 144//144 
f 233//233 229//229 202//202 
f 223//223 141//141 154//154 
f 236//236 234//234 202//202 
o mesh4895
v -0.0348471 0.215989 0.0200396 
v -0.0351805 0.21595 0.019934 
v -0.0328 0.182272 -0.0725961 
v 0.00515 0.177928 -0.0845302 
v -0.0328191 0.182152 -0.0729263 
v -0.036226 0.215911 0.0198272 
v -0.0365758 0.183369 -0.0695823 
v -0.036226 0.183382 -0.0695466 
v -0.032876 0.182033 -0.0732526 
v -0.0329701 0.181917 -0.0735712 
v -0.0355242 0.215924 0.0198629 
v -0.0342261 0.216101 0.0203489 
v -0.0345277 0.216039 0.0201784 
v -0.0336905 0.216257 0.0207764 
v -0.033946 0.216174 0.020549 
v 0.00515 0.221365 0.0348108 
v -0.0328191 0.217141 0.0232069 
v -0.0328 0.217021 0.0228767 
v -0.0329701 0.217376 0.0238518 
v -0.032876 0.21726 0.0235332 
v -0.035874 0.215911 0.0198272 
v -0.0328191 0.216901 0.0225465 
v -0.032876 0.216782 0.0222202 
v -0.0334627 0.217694 0.0247249 
v -0.0332652 0.217594 0.0244512 
v -0.04565 0.221365 0.0348108 
v -0.0355242 0.218118 0.0258904 
v -0.0351805 0.218092 0.0258194 
v -0.0365758 0.218118 0.0258904 
v -0.036226 0.218131 0.0259262 
v -0.0372529 0.218054 0.0257138 
v -0.0369195 0.218092 0.0258194 
v -0.0378739 0.217941 0.0254044 
v -0.0375723 0.218003 0.0255749 
v -0.035874 0.183382 -0.0695466 
v -0.0365758 0.215924 0.0198629 
v -0.0375723 0.183254 -0.0698978 
v -0.0372529 0.183305 -0.069759 
v -0.0334627 0.181599 -0.0744443 
v -0.0336905 0.181508 -0.0746963 
v -0.0331004 0.181805 -0.0738784 
v -0.0332652 0.181699 -0.0741706 
v -0.0331004 0.216555 0.0215943 
v -0.0329701 0.216666 0.0219015 
v -0.0331004 0.217488 0.024159 
v -0.0336905 0.217786 0.0249769 
v -0.035874 0.218131 0.0259262 
v -0.0384095 0.217786 0.0249769 
v -0.038154 0.217868 0.0252043 
v -0.0369195 0.183343 -0.0696534 
v -0.0348471 0.181239 -0.0754332 
v -0.0351805 0.181201 -0.0755388 
v -0.033946 0.181425 -0.0749237 
v -0.0342261 0.181352 -0.0751239 
v -0.0342261 0.217941 0.0254044 
v -0.033946 0.217868 0.0252043 
v -0.0348471 0.218054 0.0257138 
v -0.0345277 0.218003 0.0255749 
v -0.0336905 0.183036 -0.0704959 
v -0.0334627 0.182945 -0.0707479 
v -0.038154 0.183119 -0.0702684 
v -0.0378739 0.183192 -0.0700683 
v -0.0386373 0.182945 -0.0707479 
v -0.0384095 0.183036 -0.0704959 
v -0.04565 0.177928 -0.0845302 
v -0.039224 0.182511 -0.0719396 
v -0.0391299 0.181917 -0.0735712 
v -0.039224 0.182033 -0.0732526 
v -0.0386373 0.181599 -0.0744443 
v -0.0388348 0.181699 -0.0741706 
v -0.038154 0.181425 -0.0749237 
v -0.0384095 0.181508 -0.0746963 
v -0.0375723 0.18129 -0.0752943 
v -0.0378739 0.181352 -0.0751239 
v -0.0345277 0.18129 -0.0752943 
v -0.0332652 0.216448 0.0213022 
v -0.0334627 0.216349 0.0210285 
v -0.0389996 0.216555 0.0215943 
v -0.0391299 0.216666 0.0219015 
v -0.033946 0.183119 -0.0702684 
v -0.0345277 0.183254 -0.0698978 
v -0.0342261 0.183192 -0.0700683 
v -0.0355242 0.183369 -0.0695823 
v -0.0351805 0.183343 -0.0696534 
v -0.0388348 0.182845 -0.0710216 
v -0.0391299 0.182627 -0.0716209 
v -0.0389996 0.182739 -0.0713137 
v -0.0392809 0.182392 -0.0722659 
v -0.0392809 0.182152 -0.0729263 
v -0.0389996 0.181805 -0.0738784 
v -0.0355242 0.181175 -0.0756099 
v -0.039224 0.21726 0.0235332 
v -0.0391299 0.217376 0.0238518 
v -0.0393 0.217021 0.0228767 
v -0.0392809 0.217141 0.0232069 
v -0.039224 0.216782 0.0222202 
v -0.0392809 0.216901 0.0225465 
v -0.0332652 0.182845 -0.0710216 
v -0.0331004 0.182739 -0.0713137 
v -0.0348471 0.183305 -0.069759 
v -0.0393 0.182272 -0.0725961 
v -0.0365758 0.181175 -0.0756099 
v -0.0369195 0.181201 -0.0755388 
v -0.0388348 0.217594 0.0244512 
v -0.0386373 0.217694 0.0247249 
v -0.0386373 0.216349 0.0210285 
v -0.0388348 0.216448 0.0213022 
v -0.032876 0.182511 -0.0719396 
v -0.0328191 0.182392 -0.0722659 
v -0.0329701 0.182627 -0.0716209 
v -0.0372529 0.181239 -0.0754332 
v -0.0389996 0.217488 0.024159 
v -0.0384095 0.216257 0.0207764 
v -0.035874 0.181162 -0.0756456 
v -0.036226 0.181162 -0.0756456 
v -0.0378739 0.216101 0.0203489 
v -0.038154 0.216174 0.020549 
v -0.0372529 0.215989 0.0200396 
v -0.0375723 0.216039 0.0201784 
v -0.0369195 0.21595 0.019934 
vn 6.3e-14 -0.939693 0.34202 
vn 6.3e-14 -0.939693 0.34202 
vn 6.3e-14 -0.939693 0.34202 
vn 6.3e-14 -0.939693 0.34202 
vn 6.3e-14 -0.939693 0.34202 
vn 6.3e-14 -0.939693 0.34202 
vn 6.3e-14 -0.939693 0.34202 
vn 6.3e-14 -0.939693 0.34202 
vn 6.3e-14 -0.939693 0.34202 
vn 6.3e-14 -0.939693 0.34202 
vn 6.3e-14 -0.939693 0.34202 
vn 6.3e-14 -0.939693 0.34202 
vn 6.3e-14 -0.939693 0.34202 
vn 6.3e-14 -0.939693 0.34202 
vn 6.3e-14 -0.939693 0.34202 
vn 6.3e-14 -0.939693 0.34202 
vn 6.3e-14 -0.939693 0.34202 
vn 6.3e-14 -0.939693 0.34202 
vn 6.3e-14 -0.939693 0.34202 
vn 6.3e-14 -0.939693 0.34202 
vn 6.3e-14 -0.939693 0.34202 
vn 6.3e-14 -0.939693 0.34202 
vn 6.3e-14 -0.939693 0.34202 
vn 6.3e-14 -0.939693 0.34202 
vn 6.3e-14 -0.939693 0.34202 
vn 6.3e-14 -0.939693 0.34202 
vn 6.3e-14 -0.939693 0.34202 
vn 6.3e-14 -0.939693 0.34202 
vn 6.3e-14 -0.939693 0.34202 
vn 6.3e-14 -0.939693 0.34202 
vn 6.3e-14 -0.939693 0.34202 
vn 6.3e-14 -0.939693 0.34202 
vn 6.3e-14 -0.939693 0.34202 
vn 6.3e-14 -0.939693 0.34202 
vn 6.3e-14 -0.939693 0.34202 
vn 6.3e-14 -0.939693 0.34202 
vn 6.3e-14 -0.939693 0.34202 
vn 6.3e-14 -0.939693 0.34202 
vn 6.3e-14 -0.939693 0.34202 
vn 6.3e-14 -0.939693 0.34202 
vn 6.3e-14 -0.939693 0.34202 
vn 6.3e-14 -0.939693 0.34202 
vn 6.3e-14 -0.939693 0.34202 
vn 6.3e-14 -0.939693 0.34202 
vn 6.3e-14 -0.939693 0.34202 
vn 6.3e-14 -0.939693 0.34202 
vn 6.3e-14 -0.939693 0.34202 
vn 6.3e-14 -0.939693 0.34202 
vn 6.3e-14 -0.939693 0.34202 
vn 6.3e-14 -0.939693 0.34202 
vn 6.3e-14 -0.939693 0.34202 
vn 6.3e-14 -0.939693 0.34202 
vn 6.3e-14 -0.939693 0.34202 
vn 6.3e-14 -0.939693 0.34202 
vn 6.3e-14 -0.939693 0.34202 
vn 6.3e-14 -0.939693 0.34202 
vn 6.3e-14 -0.939693 0.34202 
vn 6.3e-14 -0.939693 0.34202 
vn 6.3e-14 -0.939693 0.34202 
vn 6.3e-14 -0.939693 0.34202 
vn 6.3e-14 -0.939693 0.34202 
vn 6.3e-14 -0.939693 0.34202 
vn 6.3e-14 -0.939693 0.34202 
vn 6.3e-14 -0.939693 0.34202 
vn 6.3e-14 -0.939693 0.34202 
vn 6.3e-14 -0.939693 0.34202 
vn 6.3e-14 -0.939693 0.34202 
vn 6.3e-14 -0.939693 0.34202 
vn 6.3e-14 -0.939693 0.34202 
vn 6.3e-14 -0.939693 0.34202 
vn 6.3e-14 -0.939693 0.34202 
vn 6.3e-14 -0.939693 0.34202 
vn 6.3e-14 -0.939693 0.34202 
vn 6.3e-14 -0.939693 0.34202 
vn 6.3e-14 -0.939693 0.34202 
vn 6.3e-14 -0.939693 0.34202 
vn 6.3e-14 -0.939693 0.34202 
vn 6.3e-14 -0.939693 0.34202 
vn 6.3e-14 -0.939693 0.34202 
vn 6.3e-14 -0.939693 0.34202 
vn 6.3e-14 -0.939693 0.34202 
vn 6.3e-14 -0.939693 0.34202 
vn 6.3e-14 -0.939693 0.34202 
vn 6.3e-14 -0.939693 0.34202 
vn 6.3e-14 -0.939693 0.34202 
vn 6.3e-14 -0.939693 0.34202 
vn 6.3e-14 -0.939693 0.34202 
vn 6.3e-14 -0.939693 0.34202 
vn 6.3e-14 -0.939693 0.34202 
vn 6.3e-14 -0.939693 0.34202 
vn 6.3e-14 -0.939693 0.34202 
vn 6.3e-14 -0.939693 0.34202 
vn 6.3e-14 -0.939693 0.34202 
vn 6.3e-14 -0.939693 0.34202 
vn 6.3e-14 -0.939693 0.34202 
vn 6.3e-14 -0.939693 0.34202 
vn 6.3e-14 -0.939693 0.34202 
vn 6.3e-14 -0.939693 0.34202 
vn 6.3e-14 -0.939693 0.34202 
vn 6.3e-14 -0.939693 0.34202 
vn 6.3e-14 -0.939693 0.34202 
vn 6.3e-14 -0.939693 0.34202 
vn 6.3e-14 -0.939693 0.34202 
vn 6.3e-14 -0.939693 0.34202 
vn 6.3e-14 -0.939693 0.34202 
vn 6.3e-14 -0.939693 0.34202 
vn 6.3e-14 -0.939693 0.34202 
vn 6.3e-14 -0.939693 0.34202 
vn 6.3e-14 -0.939693 0.34202 
vn 6.3e-14 -0.939693 0.34202 
vn 6.3e-14 -0.939693 0.34202 
vn 6.3e-14 -0.939693 0.34202 
vn 6.3e-14 -0.939693 0.34202 
vn 6.3e-14 -0.939693 0.34202 
vn 6.3e-14 -0.939693 0.34202 
vn 6.3e-14 -0.939693 0.34202 
vn 6.3e-14 -0.939693 0.34202 
vn 6.3e-14 -0.939693 0.34202 
vn 6.3e-14 -0.939693 0.34202 
vn 6.3e-14 -0.939693 0.34202 
f 237//237 238//238 239//239 
f 239//239 240//240 237//237 
f 239//239 241//241 240//240 
f 242//242 243//243 244//244 
f 240//240 245//245 246//246 
f 238//238 247//247 239//239 
f 240//240 248//248 249//249 
f 240//240 250//250 251//251 
f 252//252 253//253 254//254 
f 252//252 255//255 256//256 
f 244//244 257//257 242//242 
f 241//241 245//245 240//240 
f 251//251 248//248 240//240 
f 252//252 258//258 259//259 
f 256//256 253//253 252//252 
f 252//252 260//260 261//261 
f 262//262 263//263 264//264 
f 262//262 265//265 266//266 
f 262//262 267//267 268//268 
f 262//262 269//269 270//270 
f 244//244 271//271 257//257 
f 272//272 273//273 274//274 
f 240//240 275//275 276//276 
f 240//240 277//277 278//278 
f 249//249 237//237 240//240 
f 240//240 252//252 279//279 
f 259//259 280//280 252//252 
f 252//252 281//281 255//255 
f 252//252 282//282 260//260 
f 264//264 252//252 262//262 
f 266//266 283//283 262//262 
f 270//270 267//267 262//262 
f 262//262 284//284 285//285 
f 242//242 272//272 243//243 
f 274//274 286//286 272//272 
f 240//240 287//287 288//288 
f 240//240 289//289 290//290 
f 278//278 275//275 240//240 
f 246//246 277//277 240//240 
f 280//280 279//279 252//252 
f 261//261 281//281 252//252 
f 252//252 291//291 292//292 
f 252//252 293//293 294//294 
f 283//283 263//263 262//262 
f 285//285 269//269 262//262 
f 257//257 295//295 296//296 
f 286//286 243//243 272//272 
f 272//272 297//297 298//298 
f 272//272 299//299 300//300 
f 272//272 301//301 302//302 
f 301//301 303//303 304//304 
f 301//301 305//305 306//306 
f 301//301 307//307 308//308 
f 301//301 309//309 310//310 
f 288//288 301//301 240//240 
f 290//290 311//311 240//240 
f 247//247 257//257 239//239 
f 240//240 312//312 313//313 
f 254//254 258//258 252//252 
f 294//294 291//291 252//252 
f 268//268 265//265 262//262 
f 301//301 314//314 315//315 
f 257//257 316//316 295//295 
f 257//257 317//317 318//318 
f 257//257 319//319 320//320 
f 298//298 273//273 272//272 
f 272//272 321//321 299//299 
f 272//272 322//322 323//323 
f 301//301 324//324 302//302 
f 304//304 325//325 301//301 
f 306//306 326//326 301//301 
f 310//310 307//307 301//301 
f 288//288 327//327 301//301 
f 276//276 289//289 240//240 
f 279//279 312//312 240//240 
f 264//264 293//293 252//252 
f 262//262 328//328 329//329 
f 262//262 330//330 331//331 
f 262//262 332//332 333//333 
f 315//315 262//262 301//301 
f 257//257 334//334 335//335 
f 318//318 316//316 257//257 
f 320//320 336//336 257//257 
f 300//300 297//297 272//272 
f 302//302 322//322 272//272 
f 325//325 337//337 301//301 
f 308//308 305//305 301//301 
f 301//301 338//338 339//339 
f 311//311 287//287 240//240 
f 292//292 282//282 252//252 
f 262//262 340//340 341//341 
f 331//331 328//328 262//262 
f 315//315 332//332 262//262 
f 301//301 342//342 343//343 
f 257//257 344//344 345//345 
f 335//335 346//346 257//257 
f 336//336 317//317 257//257 
f 323//323 321//321 272//272 
f 326//326 303//303 301//301 
f 339//339 347//347 301//301 
f 313//313 250//250 240//240 
f 262//262 348//348 340//340 
f 333//333 330//330 262//262 
f 301//301 349//349 342//342 
f 346//346 344//344 257//257 
f 271//271 319//319 257//257 
f 347//347 309//309 301//301 
f 301//301 350//350 351//351 
f 341//341 284//284 262//262 
f 343//343 314//314 301//301 
f 301//301 352//352 353//353 
f 301//301 354//354 355//355 
f 296//296 334//334 257//257 
f 351//351 338//338 301//301 
f 329//329 348//348 262//262 
f 355//355 352//352 301//301 
f 301//301 272//272 356//356 
f 337//337 324//324 301//301 
f 353//353 349//349 301//301 
f 345//345 239//239 257//257 
f 356//356 354//354 301//301 
f 327//327 350//350 301//301 
o mesh4896
v -0.04565 0.177928 -0.0845302 
v -0.04565 0.183895 -0.086702 
v 0.00515 0.183895 -0.086702 
v 0.00515 0.177928 -0.0845302 
vn 7.30624e-14 -0.34202 -0.939693 
vn 7.30624e-14 -0.34202 -0.939693 
vn 7.30624e-14 -0.34202 -0.939693 
vn 7.30624e-14 -0.34202 -0.939693 
f 357//357 358//358 359//359 
f 359//359 360//360 357//357 
o mesh4897
v 0.00515 0.177928 -0.0845302 
v 0.00515 0.183895 -0.086702 
v 0.00515 0.227332 0.0326389 
v 0.00515 0.221365 0.0348108 
vn 1 8.42493e-14 4.72732e-14 
vn 1 8.42493e-14 4.72732e-14 
vn 1 8.42493e-14 4.72732e-14 
vn 1 8.42493e-14 4.72732e-14 
f 361//361 362//362 363//363 
f 363//363 364//364 361//361 
o mesh4898
v -0.04565 0.227332 0.0326389 
v -0.04565 0.221365 0.0348108 
v 0.00515 0.221365 0.0348108 
v 0.00515 0.227332 0.0326389 
vn -7.32373e-14 0.34202 0.939693 
vn -7.32373e-14 0.34202 0.939693 
vn -7.32373e-14 0.34202 0.939693 
vn -7.32373e-14 0.34202 0.939693 
f 365//365 366//366 367//367 
f 367//367 368//368 365//365 
o mesh4899
v -0.04565 0.183895 -0.086702 
v -0.04565 0.177928 -0.0845302 
v -0.04565 0.221365 0.0348108 
v -0.04565 0.227332 0.0326389 
vn -1 -8.42493e-14 -4.72732e-14 
vn -1 -8.42493e-14 -4.72732e-14 
vn -1 -8.42493e-14 -4.72732e-14 
vn -1 -8.42493e-14 -4.72732e-14 
f 369//369 370//370 371//371 
f 371//371 372//372 369//369 
o mesh4900
v -0.0328191 0.182152 -0.0729263 
v -0.0328 0.182272 -0.0725961 
v -0.0328 0.188239 -0.0747679 
v -0.032876 0.182033 -0.0732526 
v -0.0328191 0.188119 -0.0750981 
v -0.0329701 0.181917 -0.0735712 
v -0.032876 0.188 -0.0754244 
v -0.0331004 0.181805 -0.0738784 
v -0.0329701 0.187884 -0.0757431 
v -0.0332652 0.181699 -0.0741706 
v -0.0331004 0.187772 -0.0760503 
v -0.0334627 0.181599 -0.0744443 
v -0.0332652 0.187666 -0.0763424 
v -0.0336905 0.181508 -0.0746963 
v -0.0334627 0.187566 -0.0766161 
v -0.033946 0.181425 -0.0749237 
v -0.0336905 0.187475 -0.0768682 
v -0.0342261 0.181352 -0.0751239 
v -0.033946 0.187392 -0.0770956 
v -0.0345277 0.18129 -0.0752943 
v -0.0342261 0.187319 -0.0772957 
v -0.0348471 0.181239 -0.0754332 
v -0.0345277 0.187257 -0.0774662 
v -0.0351805 0.181201 -0.0755388 
v -0.0348471 0.187206 -0.077605 
v -0.0355242 0.181175 -0.0756099 
v -0.0351805 0.187168 -0.0777106 
v -0.035874 0.181162 -0.0756456 
v -0.0355242 0.187142 -0.0777817 
v -0.036226 0.181162 -0.0756456 
v -0.035874 0.187129 -0.0778174 
v -0.0365758 0.181175 -0.0756099 
v -0.036226 0.187129 -0.0778174 
v -0.0369195 0.181201 -0.0755388 
v -0.0365758 0.187142 -0.0777817 
v -0.0372529 0.181239 -0.0754332 
v -0.0369195 0.187168 -0.0777106 
v -0.0375723 0.18129 -0.0752943 
v -0.0372529 0.187206 -0.077605 
v -0.0378739 0.181352 -0.0751239 
v -0.0375723 0.187257 -0.0774662 
v -0.038154 0.181425 -0.0749237 
v -0.0378739 0.187319 -0.0772957 
v -0.0384095 0.181508 -0.0746963 
v -0.038154 0.187392 -0.0770956 
v -0.0386373 0.181599 -0.0744443 
v -0.0384095 0.187475 -0.0768682 
v -0.0388348 0.181699 -0.0741706 
v -0.0386373 0.187566 -0.0766161 
v -0.0389996 0.181805 -0.0738784 
v -0.0388348 0.187666 -0.0763424 
v -0.0391299 0.181917 -0.0735712 
v -0.0389996 0.187772 -0.0760503 
v -0.039224 0.182033 -0.0732526 
v -0.0391299 0.187884 -0.0757431 
v -0.0392809 0.182152 -0.0729263 
v -0.039224 0.188 -0.0754244 
v -0.0393 0.182272 -0.0725961 
v -0.0392809 0.188119 -0.0750981 
v -0.0392809 0.182392 -0.0722659 
v -0.0393 0.188239 -0.0747679 
v -0.039224 0.182511 -0.0719396 
v -0.0392809 0.188359 -0.0744377 
v -0.0391299 0.182627 -0.0716209 
v -0.039224 0.188478 -0.0741114 
v -0.0389996 0.182739 -0.0713137 
v -0.0391299 0.188594 -0.0737928 
v -0.0388348 0.182845 -0.0710216 
v -0.0389996 0.188706 -0.0734856 
v -0.0386373 0.182945 -0.0707479 
v -0.0388348 0.188812 -0.0731934 
v -0.0384095 0.183036 -0.0704959 
v -0.0386373 0.188912 -0.0729197 
v -0.038154 0.183119 -0.0702684 
v -0.0384095 0.189004 -0.0726677 
v -0.0378739 0.183192 -0.0700683 
v -0.038154 0.189086 -0.0724403 
v -0.0375723 0.183254 -0.0698978 
v -0.0378739 0.189159 -0.0722402 
v -0.0372529 0.183305 -0.069759 
v -0.0375723 0.189221 -0.0720697 
v -0.0369195 0.183343 -0.0696534 
v -0.0372529 0.189272 -0.0719308 
v -0.0365758 0.183369 -0.0695823 
v -0.0369195 0.18931 -0.0718252 
v -0.036226 0.183382 -0.0695466 
v -0.0365758 0.189336 -0.0717541 
v -0.035874 0.183382 -0.0695466 
v -0.036226 0.189349 -0.0717184 
v -0.0355242 0.183369 -0.0695823 
v -0.035874 0.189349 -0.0717184 
v -0.0351805 0.183343 -0.0696534 
v -0.0355242 0.189336 -0.0717541 
v -0.0348471 0.183305 -0.069759 
v -0.0351805 0.18931 -0.0718252 
v -0.0345277 0.183254 -0.0698978 
v -0.0348471 0.189272 -0.0719308 
v -0.0342261 0.183192 -0.0700683 
v -0.0345277 0.189221 -0.0720697 
v -0.033946 0.183119 -0.0702684 
v -0.0342261 0.189159 -0.0722402 
v -0.0336905 0.183036 -0.0704959 
v -0.033946 0.189086 -0.0724403 
v -0.0334627 0.182945 -0.0707479 
v -0.0336905 0.189004 -0.0726677 
v -0.0332652 0.182845 -0.0710216 
v -0.0334627 0.188912 -0.0729197 
v -0.0331004 0.182739 -0.0713137 
v -0.0332652 0.188812 -0.0731934 
v -0.0329701 0.182627 -0.0716209 
v -0.0331004 0.188706 -0.0734856 
v -0.032876 0.182511 -0.0719396 
v -0.0329701 0.188594 -0.0737928 
v -0.0328191 0.182392 -0.0722659 
v -0.032876 0.188478 -0.0741114 
v -0.0328191 0.188359 -0.0744377 
vn -0.994138 0.0369789 0.101599 
vn -1 -8.42493e-14 -4.72732e-14 
vn -1 -8.42493e-14 -4.72732e-14 
vn -0.976621 0.0735242 0.202006 
vn -0.994138 0.0369789 0.101599 
vn -0.947653 0.109208 0.300045 
vn -0.976621 0.0735242 0.202006 
vn -0.907575 0.143611 0.394567 
vn -0.947653 0.109208 0.300045 
vn -0.856857 0.17633 0.484462 
vn -0.907575 0.143611 0.394567 
vn -0.796093 0.206982 0.568678 
vn -0.856857 0.17633 0.484462 
vn -0.725995 0.235207 0.646226 
vn -0.796093 0.206982 0.568678 
vn -0.647386 0.260675 0.716198 
vn -0.725995 0.235207 0.646226 
vn -0.561187 0.283086 0.777773 
vn -0.647386 0.260675 0.716198 
vn -0.468408 0.302179 0.83023 
vn -0.561187 0.283086 0.777773 
vn -0.370138 0.317729 0.872953 
vn -0.468408 0.302179 0.83023 
vn -0.267528 0.329554 0.905441 
vn -0.370138 0.317729 0.872953 
vn -0.161782 0.337515 0.927314 
vn -0.267528 0.329554 0.905441 
vn -0.0541389 0.341519 0.938314 
vn -0.161782 0.337515 0.927314 
vn 0.0541389 0.341519 0.938314 
vn -0.0541389 0.341519 0.938314 
vn 0.161782 0.337515 0.927314 
vn 0.0541389 0.341519 0.938314 
vn 0.267528 0.329554 0.905441 
vn 0.161782 0.337515 0.927314 
vn 0.370138 0.317729 0.872953 
vn 0.267528 0.329554 0.905441 
vn 0.468408 0.302179 0.83023 
vn 0.370138 0.317729 0.872953 
vn 0.561187 0.283086 0.777773 
vn 0.468408 0.302179 0.83023 
vn 0.647386 0.260675 0.716198 
vn 0.561187 0.283086 0.777773 
vn 0.725995 0.235207 0.646226 
vn 0.647386 0.260675 0.716198 
vn 0.796093 0.206982 0.568678 
vn 0.725995 0.235207 0.646226 
vn 0.856857 0.17633 0.484462 
vn 0.796093 0.206982 0.568678 
vn 0.907575 0.143611 0.394567 
vn 0.856857 0.17633 0.484462 
vn 0.947653 0.109208 0.300045 
vn 0.907575 0.143611 0.394567 
vn 0.976621 0.0735242 0.202006 
vn 0.947653 0.109208 0.300045 
vn 0.994138 0.0369789 0.101599 
vn 0.976621 0.0735242 0.202006 
vn 1 8.45111e-14 4.79928e-14 
vn 0.994138 0.0369789 0.101599 
vn 0.994138 -0.0369789 -0.101599 
vn 1 8.45111e-14 4.79928e-14 
vn 0.976621 -0.0735242 -0.202006 
vn 0.994138 -0.0369789 -0.101599 
vn 0.947653 -0.109208 -0.300045 
vn 0.976621 -0.0735242 -0.202006 
vn 0.907575 -0.143611 -0.394567 
vn 0.947653 -0.109208 -0.300045 
vn 0.856857 -0.17633 -0.484462 
vn 0.907575 -0.143611 -0.394567 
vn 0.796093 -0.206982 -0.568678 
vn 0.856857 -0.17633 -0.484462 
vn 0.725995 -0.235207 -0.646226 
vn 0.796093 -0.206982 -0.568678 
vn 0.647386 -0.260675 -0.716198 
vn 0.725995 -0.235207 -0.646226 
vn 0.561187 -0.283086 -0.777773 
vn 0.647386 -0.260675 -0.716198 
vn 0.468408 -0.302179 -0.83023 
vn 0.561187 -0.283086 -0.777773 
vn 0.370138 -0.317729 -0.872953 
vn 0.468408 -0.302179 -0.83023 
vn 0.267528 -0.329554 -0.905441 
vn 0.370138 -0.317729 -0.872953 
vn 0.161782 -0.337515 -0.927314 
vn 0.267528 -0.329554 -0.905441 
vn 0.0541389 -0.341519 -0.938314 
vn 0.161782 -0.337515 -0.927314 
vn -0.0541389 -0.341519 -0.938314 
vn 0.0541389 -0.341519 -0.938314 
vn -0.161782 -0.337515 -0.927314 
vn -0.0541389 -0.341519 -0.938314 
vn -0.267528 -0.329554 -0.905441 
vn -0.161782 -0.337515 -0.927314 
vn -0.370138 -0.317729 -0.872953 
vn -0.267528 -0.329554 -0.905441 
vn -0.468408 -0.302179 -0.83023 
vn -0.370138 -0.317729 -0.872953 
vn -0.561187 -0.283086 -0.777773 
vn -0.468408 -0.302179 -0.83023 
vn -0.647386 -0.260675 -0.716198 
vn -0.561187 -0.283086 -0.777773 
vn -0.725995 -0.235207 -0.646226 
vn -0.647386 -0.260675 -0.716198 
vn -0.796093 -0.206982 -0.568678 
vn -0.725995 -0.235207 -0.646226 
vn -0.856857 -0.17633 -0.484462 
vn -0.796093 -0.206982 -0.568678 
vn -0.907575 -0.143611 -0.394567 
vn -0.856857 -0.17633 -0.484462 
vn -0.947653 -0.109208 -0.300045 
vn -0.907575 -0.143611 -0.394567 
vn -0.976621 -0.0735242 -0.202006 
vn -0.947653 -0.109208 -0.300045 
vn -0.994138 -0.0369789 -0.101599 
vn -0.976621 -0.0735242 -0.202006 
vn -0.994138 -0.0369789 -0.101599 
f 373//373 374//374 375//375 
f 376//376 373//373 377//377 
f 378//378 376//376 379//379 
f 380//380 378//378 381//381 
f 382//382 380//380 383//383 
f 384//384 382//382 385//385 
f 386//386 384//384 387//387 
f 388//388 386//386 389//389 
f 390//390 388//388 391//391 
f 392//392 390//390 393//393 
f 394//394 392//392 395//395 
f 396//396 394//394 397//397 
f 398//398 396//396 399//399 
f 400//400 398//398 401//401 
f 402//402 400//400 403//403 
f 404//404 402//402 405//405 
f 406//406 404//404 407//407 
f 408//408 406//406 409//409 
f 410//410 408//408 411//411 
f 412//412 410//410 413//413 
f 414//414 412//412 415//415 
f 416//416 414//414 417//417 
f 418//418 416//416 419//419 
f 420//420 418//418 421//421 
f 422//422 420//420 423//423 
f 424//424 422//422 425//425 
f 426//426 424//424 427//427 
f 428//428 426//426 429//429 
f 430//430 428//428 431//431 
f 432//432 430//430 433//433 
f 434//434 432//432 435//435 
f 436//436 434//434 437//437 
f 438//438 436//436 439//439 
f 440//440 438//438 441//441 
f 442//442 440//440 443//443 
f 444//444 442//442 445//445 
f 446//446 444//444 447//447 
f 448//448 446//446 449//449 
f 450//450 448//448 451//451 
f 452//452 450//450 453//453 
f 454//454 452//452 455//455 
f 456//456 454//454 457//457 
f 458//458 456//456 459//459 
f 460//460 458//458 461//461 
f 462//462 460//460 463//463 
f 464//464 462//462 465//465 
f 466//466 464//464 467//467 
f 468//468 466//466 469//469 
f 470//470 468//468 471//471 
f 472//472 470//470 473//473 
f 474//474 472//472 475//475 
f 476//476 474//474 477//477 
f 478//478 476//476 479//479 
f 480//480 478//478 481//481 
f 482//482 480//480 483//483 
f 484//484 482//482 485//485 
f 486//486 484//484 487//487 
f 374//374 486//486 488//488 
f 488//488 375//375 374//374 
f 487//487 488//488 486//486 
f 485//485 487//487 484//484 
f 483//483 485//485 482//482 
f 481//481 483//483 480//480 
f 479//479 481//481 478//478 
f 477//477 479//479 476//476 
f 475//475 477//477 474//474 
f 473//473 475//475 472//472 
f 471//471 473//473 470//470 
f 469//469 471//471 468//468 
f 467//467 469//469 466//466 
f 465//465 467//467 464//464 
f 463//463 465//465 462//462 
f 461//461 463//463 460//460 
f 459//459 461//461 458//458 
f 457//457 459//459 456//456 
f 455//455 457//457 454//454 
f 453//453 455//455 452//452 
f 451//451 453//453 450//450 
f 449//449 451//451 448//448 
f 447//447 449//449 446//446 
f 445//445 447//447 444//444 
f 443//443 445//445 442//442 
f 441//441 443//443 440//440 
f 439//439 441//441 438//438 
f 437//437 439//439 436//436 
f 435//435 437//437 434//434 
f 433//433 435//435 432//432 
f 431//431 433//433 430//430 
f 429//429 431//431 428//428 
f 427//427 429//429 426//426 
f 425//425 427//427 424//424 
f 423//423 425//425 422//422 
f 421//421 423//423 420//420 
f 419//419 421//421 418//418 
f 417//417 419//419 416//416 
f 415//415 417//417 414//414 
f 413//413 415//415 412//412 
f 411//411 413//413 410//410 
f 409//409 411//411 408//408 
f 407//407 409//409 406//406 
f 405//405 407//407 404//404 
f 403//403 405//405 402//402 
f 401//401 403//403 400//400 
f 399//399 401//401 398//398 
f 397//397 399//399 396//396 
f 395//395 397//397 394//394 
f 393//393 395//395 392//392 
f 391//391 393//393 390//390 
f 389//389 391//391 388//388 
f 387//387 389//389 386//386 
f 385//385 387//387 384//384 
f 383//383 385//385 382//382 
f 381//381 383//383 380//380 
f 379//379 381//381 378//378 
f 377//377 379//379 376//376 
f 375//375 377//377 373//373 
