# OBJ generated by ONSHAPE BY PTC INC, 1.215 Units = meters
mtllib EBoxNewAsm_stp_1_AngleBracket_stp_2_solid1.mtl
g EBoxNewAsm.stp-1/AngleBracket.stp-2-solid1
usemtl 0.627451_0.627451_0.627451_0.000000_0.000000
o mesh9983
v 0.367525 0.175255 0.0377045 
v 0.367525 0.175393 0.0380282 
v 0.36435 0.175393 0.0380282 
v 0.367525 0.175083 0.0373976 
v 0.36435 0.175255 0.0377045 
v 0.367525 0.174878 0.0371112 
v 0.36435 0.175083 0.0373976 
v 0.367525 0.174644 0.0368486 
v 0.36435 0.174878 0.0371112 
v 0.367525 0.174383 0.0366128 
v 0.36435 0.174644 0.0368486 
v 0.367525 0.174097 0.0364066 
v 0.36435 0.174383 0.0366128 
v 0.367525 0.173792 0.0362325 
v 0.36435 0.174097 0.0364066 
v 0.367525 0.173469 0.0360925 
v 0.36435 0.173792 0.0362325 
v 0.367525 0.173133 0.0359882 
v 0.36435 0.173469 0.0360925 
v 0.367525 0.172787 0.0359208 
v 0.36435 0.173133 0.0359882 
v 0.367525 0.172437 0.0358912 
v 0.36435 0.172787 0.0359208 
v 0.367525 0.172085 0.0358997 
v 0.36435 0.172437 0.0358912 
v 0.367525 0.171736 0.0359461 
v 0.36435 0.172085 0.0358997 
v 0.367525 0.171394 0.03603 
v 0.36435 0.171736 0.0359461 
v 0.367525 0.171064 0.0361504 
v 0.36435 0.171394 0.03603 
v 0.367525 0.170748 0.0363058 
v 0.36435 0.171064 0.0361504 
v 0.367525 0.170451 0.0364944 
v 0.36435 0.170748 0.0363058 
v 0.367525 0.170176 0.0367141 
v 0.36435 0.170451 0.0364944 
v 0.367525 0.169926 0.0369622 
v 0.36435 0.170176 0.0367141 
v 0.367525 0.169705 0.0372358 
v 0.36435 0.169926 0.0369622 
v 0.367525 0.169515 0.0375317 
v 0.36435 0.169705 0.0372358 
v 0.367525 0.169357 0.0378465 
v 0.36435 0.169515 0.0375317 
v 0.367525 0.169235 0.0381764 
v 0.36435 0.169357 0.0378465 
v 0.367525 0.169149 0.0385177 
v 0.36435 0.169235 0.0381764 
v 0.367525 0.1691 0.0388662 
v 0.36435 0.169149 0.0385177 
v 0.367525 0.16909 0.039218 
v 0.36435 0.1691 0.0388662 
v 0.367525 0.169117 0.0395688 
v 0.36435 0.16909 0.039218 
v 0.367525 0.169183 0.0399146 
v 0.36435 0.169117 0.0395688 
v 0.367525 0.169285 0.0402513 
v 0.36435 0.169183 0.0399146 
v 0.367525 0.169423 0.040575 
v 0.36435 0.169285 0.0402513 
v 0.367525 0.169595 0.0408818 
v 0.36435 0.169423 0.040575 
v 0.367525 0.1698 0.0411683 
v 0.36435 0.169595 0.0408818 
v 0.367525 0.170034 0.0414309 
v 0.36435 0.1698 0.0411683 
v 0.367525 0.170295 0.0416667 
v 0.36435 0.170034 0.0414309 
v 0.367525 0.17058 0.0418728 
v 0.36435 0.170295 0.0416667 
v 0.367525 0.170886 0.042047 
v 0.36435 0.17058 0.0418728 
v 0.367525 0.171209 0.042187 
v 0.36435 0.170886 0.042047 
v 0.367525 0.171545 0.0422913 
v 0.36435 0.171209 0.042187 
v 0.367525 0.17189 0.0423587 
v 0.36435 0.171545 0.0422913 
v 0.367525 0.172241 0.0423883 
v 0.36435 0.17189 0.0423587 
v 0.367525 0.172593 0.0423798 
v 0.36435 0.172241 0.0423883 
v 0.367525 0.172942 0.0423333 
v 0.36435 0.172593 0.0423798 
v 0.367525 0.173283 0.0422494 
v 0.36435 0.172942 0.0423333 
v 0.367525 0.173614 0.0421291 
v 0.36435 0.173283 0.0422494 
v 0.367525 0.17393 0.0419737 
v 0.36435 0.173614 0.0421291 
v 0.367525 0.174227 0.041785 
v 0.36435 0.17393 0.0419737 
v 0.367525 0.174502 0.0415654 
v 0.36435 0.174227 0.041785 
v 0.367525 0.174752 0.0413173 
v 0.36435 0.174502 0.0415654 
v 0.367525 0.174973 0.0410437 
v 0.36435 0.174752 0.0413173 
v 0.367525 0.175163 0.0407478 
v 0.36435 0.174973 0.0410437 
v 0.367525 0.175321 0.040433 
v 0.36435 0.175163 0.0407478 
v 0.367525 0.175443 0.040103 
v 0.36435 0.175321 0.040433 
v 0.367525 0.175529 0.0397618 
v 0.36435 0.175443 0.040103 
v 0.367525 0.175577 0.0394132 
v 0.36435 0.175529 0.0397618 
v 0.367525 0.175588 0.0390615 
v 0.36435 0.175577 0.0394132 
v 0.367525 0.17556 0.0387107 
v 0.36435 0.175588 0.0390615 
v 0.367525 0.175495 0.0383649 
v 0.36435 0.17556 0.0387107 
v 0.36435 0.175495 0.0383649 
vn 5.5051e-14 -0.897205 0.441614 
vn 6.32013e-14 -0.939693 0.34202 
vn 6.32013e-14 -0.939693 0.34202 
vn 4.62553e-14 -0.844199 0.53603 
vn 5.5051e-14 -0.897205 0.441614 
vn 3.69174e-14 -0.781295 0.624162 
vn 4.62553e-14 -0.844199 0.53603 
vn 2.71466e-14 -0.709231 0.704976 
vn 3.69174e-14 -0.781295 0.624162 
vn 1.70575e-14 -0.628853 0.777525 
vn 2.71466e-14 -0.709231 0.704976 
vn 6.76843e-15 -0.541101 0.840958 
vn 1.70575e-14 -0.628853 0.777525 
vn -3.59997e-15 -0.447006 0.894531 
vn 6.76843e-15 -0.541101 0.840958 
vn -1.39262e-14 -0.347669 0.937617 
vn -3.59997e-15 -0.447006 0.894531 
vn -2.40891e-14 -0.244257 0.969711 
vn -1.39262e-14 -0.347669 0.937617 
vn -3.39696e-14 -0.137981 0.990435 
vn -2.40891e-14 -0.244257 0.969711 
vn -4.34518e-14 -0.0300873 0.999547 
vn -3.39696e-14 -0.137981 0.990435 
vn -5.24246e-14 0.0781591 0.996941 
vn -4.34518e-14 -0.0300873 0.999547 
vn -6.07828e-14 0.185489 0.982646 
vn -5.24246e-14 0.0781591 0.996941 
vn -6.84284e-14 0.290645 0.956831 
vn -6.07828e-14 0.185489 0.982646 
vn -7.52717e-14 0.392392 0.919798 
vn -6.84284e-14 0.290645 0.956831 
vn -8.12325e-14 0.48954 0.871981 
vn -7.52717e-14 0.392392 0.919798 
vn -8.62409e-14 0.580948 0.813941 
vn -8.12325e-14 0.48954 0.871981 
vn -9.02382e-14 0.665545 0.746358 
vn -8.62409e-14 0.580948 0.813941 
vn -9.31776e-14 0.742339 0.670025 
vn -9.02382e-14 0.665545 0.746358 
vn -9.50245e-14 0.81043 0.585836 
vn -9.31776e-14 0.742339 0.670025 
vn -9.57574e-14 0.869019 0.494779 
vn -9.50245e-14 0.81043 0.585836 
vn -9.53676e-14 0.91742 0.397921 
vn -9.57574e-14 0.869019 0.494779 
vn -9.38597e-14 0.955065 0.296398 
vn -9.53676e-14 0.91742 0.397921 
vn -9.12514e-14 0.981512 0.1914 
vn -9.38597e-14 0.955065 0.296398 
vn -8.75733e-14 0.996452 0.0841576 
vn -9.12514e-14 0.981512 0.1914 
vn -8.28684e-14 0.99971 -0.0240712 
vn -8.75733e-14 0.996452 0.0841576 
vn -7.7192e-14 0.991247 -0.132018 
vn -8.28684e-14 0.99971 -0.0240712 
vn -7.06105e-14 0.971163 -0.238417 
vn -7.7192e-14 0.991247 -0.132018 
vn -6.32013e-14 0.939693 -0.34202 
vn -7.06105e-14 0.971163 -0.238417 
vn -5.5051e-14 0.897205 -0.441614 
vn -6.32013e-14 0.939693 -0.34202 
vn -4.62553e-14 0.844199 -0.53603 
vn -5.5051e-14 0.897205 -0.441614 
vn -3.69174e-14 0.781295 -0.624162 
vn -4.62553e-14 0.844199 -0.53603 
vn -2.71466e-14 0.709231 -0.704976 
vn -3.69174e-14 0.781295 -0.624162 
vn -1.70575e-14 0.628853 -0.777525 
vn -2.71466e-14 0.709231 -0.704976 
vn -6.76843e-15 0.541101 -0.840958 
vn -1.70575e-14 0.628853 -0.777525 
vn 3.59997e-15 0.447006 -0.894531 
vn -6.76843e-15 0.541101 -0.840958 
vn 1.39262e-14 0.347669 -0.937617 
vn 3.59997e-15 0.447006 -0.894531 
vn 2.40891e-14 0.244257 -0.969711 
vn 1.39262e-14 0.347669 -0.937617 
vn 3.39696e-14 0.137981 -0.990435 
vn 2.40891e-14 0.244257 -0.969711 
vn 4.34518e-14 0.0300873 -0.999547 
vn 3.39696e-14 0.137981 -0.990435 
vn 5.24246e-14 -0.0781591 -0.996941 
vn 4.34518e-14 0.0300873 -0.999547 
vn 6.07828e-14 -0.185489 -0.982646 
vn 5.24246e-14 -0.0781591 -0.996941 
vn 6.84284e-14 -0.290645 -0.956831 
vn 6.07828e-14 -0.185489 -0.982646 
vn 7.52717e-14 -0.392392 -0.919798 
vn 6.84284e-14 -0.290645 -0.956831 
vn 8.12325e-14 -0.48954 -0.871981 
vn 7.52717e-14 -0.392392 -0.919798 
vn 8.62409e-14 -0.580948 -0.813941 
vn 8.12325e-14 -0.48954 -0.871981 
vn 9.02382e-14 -0.665545 -0.746358 
vn 8.62409e-14 -0.580948 -0.813941 
vn 9.31776e-14 -0.742339 -0.670025 
vn 9.02382e-14 -0.665545 -0.746358 
vn 9.50245e-14 -0.81043 -0.585836 
vn 9.31776e-14 -0.742339 -0.670025 
vn 9.57574e-14 -0.869019 -0.494779 
vn 9.50245e-14 -0.81043 -0.585836 
vn 9.53676e-14 -0.91742 -0.397921 
vn 9.57574e-14 -0.869019 -0.494779 
vn 9.38597e-14 -0.955065 -0.296398 
vn 9.53676e-14 -0.91742 -0.397921 
vn 9.12514e-14 -0.981512 -0.1914 
vn 9.38597e-14 -0.955065 -0.296398 
vn 8.75733e-14 -0.996452 -0.0841576 
vn 9.12514e-14 -0.981512 -0.1914 
vn 8.28684e-14 -0.99971 0.0240712 
vn 8.75733e-14 -0.996452 -0.0841576 
vn 7.7192e-14 -0.991247 0.132018 
vn 8.28684e-14 -0.99971 0.0240712 
vn 7.06105e-14 -0.971163 0.238417 
vn 7.7192e-14 -0.991247 0.132018 
vn 7.06105e-14 -0.971163 0.238417 
f 1//1 2//2 3//3 
f 4//4 1//1 5//5 
f 6//6 4//4 7//7 
f 8//8 6//6 9//9 
f 10//10 8//8 11//11 
f 12//12 10//10 13//13 
f 14//14 12//12 15//15 
f 16//16 14//14 17//17 
f 18//18 16//16 19//19 
f 20//20 18//18 21//21 
f 22//22 20//20 23//23 
f 24//24 22//22 25//25 
f 26//26 24//24 27//27 
f 28//28 26//26 29//29 
f 30//30 28//28 31//31 
f 32//32 30//30 33//33 
f 34//34 32//32 35//35 
f 36//36 34//34 37//37 
f 38//38 36//36 39//39 
f 40//40 38//38 41//41 
f 42//42 40//40 43//43 
f 44//44 42//42 45//45 
f 46//46 44//44 47//47 
f 48//48 46//46 49//49 
f 50//50 48//48 51//51 
f 52//52 50//50 53//53 
f 54//54 52//52 55//55 
f 56//56 54//54 57//57 
f 58//58 56//56 59//59 
f 60//60 58//58 61//61 
f 62//62 60//60 63//63 
f 64//64 62//62 65//65 
f 66//66 64//64 67//67 
f 68//68 66//66 69//69 
f 70//70 68//68 71//71 
f 72//72 70//70 73//73 
f 74//74 72//72 75//75 
f 76//76 74//74 77//77 
f 78//78 76//76 79//79 
f 80//80 78//78 81//81 
f 82//82 80//80 83//83 
f 84//84 82//82 85//85 
f 86//86 84//84 87//87 
f 88//88 86//86 89//89 
f 90//90 88//88 91//91 
f 92//92 90//90 93//93 
f 94//94 92//92 95//95 
f 96//96 94//94 97//97 
f 98//98 96//96 99//99 
f 100//100 98//98 101//101 
f 102//102 100//100 103//103 
f 104//104 102//102 105//105 
f 106//106 104//104 107//107 
f 108//108 106//106 109//109 
f 110//110 108//108 111//111 
f 112//112 110//110 113//113 
f 114//114 112//112 115//115 
f 2//2 114//114 116//116 
f 116//116 3//3 2//2 
f 115//115 116//116 114//114 
f 113//113 115//115 112//112 
f 111//111 113//113 110//110 
f 109//109 111//111 108//108 
f 107//107 109//109 106//106 
f 105//105 107//107 104//104 
f 103//103 105//105 102//102 
f 101//101 103//103 100//100 
f 99//99 101//101 98//98 
f 97//97 99//99 96//96 
f 95//95 97//97 94//94 
f 93//93 95//95 92//92 
f 91//91 93//93 90//90 
f 89//89 91//91 88//88 
f 87//87 89//89 86//86 
f 85//85 87//87 84//84 
f 83//83 85//85 82//82 
f 81//81 83//83 80//80 
f 79//79 81//81 78//78 
f 77//77 79//79 76//76 
f 75//75 77//77 74//74 
f 73//73 75//75 72//72 
f 71//71 73//73 70//70 
f 69//69 71//71 68//68 
f 67//67 69//69 66//66 
f 65//65 67//67 64//64 
f 63//63 65//65 62//62 
f 61//61 63//63 60//60 
f 59//59 61//61 58//58 
f 57//57 59//59 56//56 
f 55//55 57//57 54//54 
f 53//53 55//55 52//52 
f 51//51 53//53 50//50 
f 49//49 51//51 48//48 
f 47//47 49//49 46//46 
f 45//45 47//47 44//44 
f 43//43 45//45 42//42 
f 41//41 43//43 40//40 
f 39//39 41//41 38//38 
f 37//37 39//39 36//36 
f 35//35 37//37 34//34 
f 33//33 35//35 32//32 
f 31//31 33//33 30//30 
f 29//29 31//31 28//28 
f 27//27 29//29 26//26 
f 25//25 27//27 24//24 
f 23//23 25//25 22//22 
f 21//21 23//23 20//20 
f 19//19 21//21 18//18 
f 17//17 19//19 16//16 
f 15//15 17//17 14//14 
f 13//13 15//15 12//12 
f 11//11 13//13 10//10 
f 9//9 11//11 8//8 
f 7//7 9//9 6//6 
f 5//5 7//7 4//4 
f 3//3 5//5 1//1 
o mesh9984
v 0.367525 0.135546 -0.0538061 
v 0.367525 0.170176 0.0367141 
v 0.367525 0.169926 0.0369622 
v 0.367525 0.171064 0.0361504 
v 0.367525 0.170748 0.0363058 
v 0.367525 0.171394 0.03603 
v 0.367525 0.135831 -0.0535999 
v 0.367525 0.167662 0.0543572 
v 0.367525 0.171545 0.0422913 
v 0.367525 0.17189 0.0423587 
v 0.367525 0.173792 0.0362325 
v 0.367525 0.137141 -0.0531141 
v 0.367525 0.137492 -0.0530845 
v 0.367525 0.169705 0.0372358 
v 0.367525 0.170451 0.0364944 
v 0.367525 0.171736 0.0359461 
v 0.367525 0.136137 -0.0534258 
v 0.367525 0.172437 0.0358912 
v 0.367525 0.172085 0.0358997 
v 0.367525 0.173133 0.0359882 
v 0.367525 0.172787 0.0359208 
v 0.367525 0.173283 0.0422494 
v 0.367525 0.173614 0.0421291 
v 0.367525 0.172241 0.0423883 
v 0.367525 0.138192 -0.0531394 
v 0.367525 0.138534 -0.0532233 
v 0.367525 0.137844 -0.053093 
v 0.367525 0.13646 -0.0532858 
v 0.367525 0.173469 0.0360925 
v 0.367525 0.138865 -0.0533437 
v 0.367525 0.174644 0.0368486 
v 0.367525 0.174383 0.0366128 
v 0.367525 0.175255 0.0377045 
v 0.367525 0.175083 0.0373976 
v 0.367525 0.169515 0.0375317 
v 0.367525 0.124225 -0.0649837 
v 0.367525 0.134846 -0.0545909 
v 0.367525 0.172942 0.0423333 
v 0.367525 0.172593 0.0423798 
v 0.367525 0.136796 -0.0531815 
v 0.367525 0.174878 0.0371112 
v 0.367525 0.175393 0.0380282 
v 0.367525 0.134674 -0.0548978 
v 0.367525 0.134368 -0.055904 
v 0.367525 0.134433 -0.0555582 
v 0.367525 0.139181 -0.0534991 
v 0.367525 0.212414 0.0380685 
v 0.367525 0.134536 -0.0552215 
v 0.367525 0.134341 -0.0562548 
v 0.367525 0.168978 -0.0812724 
v 0.367525 0.137336 -0.0595731 
v 0.367525 0.139633 -0.05886 
v 0.367525 0.139348 -0.0590661 
v 0.367525 0.17393 0.0419737 
v 0.367525 0.174227 0.041785 
v 0.367525 0.171209 0.042187 
v 0.367525 0.175495 0.0383649 
v 0.367525 0.169357 0.0378465 
v 0.367525 0.174097 0.0364066 
v 0.367525 0.13505 -0.0543045 
v 0.367525 0.135285 -0.0540419 
v 0.367525 0.136987 -0.0595266 
v 0.367525 0.139895 -0.0586242 
v 0.367525 0.175321 0.040433 
v 0.367525 0.175443 0.040103 
v 0.367525 0.174502 0.0415654 
v 0.367525 0.139478 -0.0536877 
v 0.367525 0.139753 -0.0539074 
v 0.367525 0.169149 0.0385177 
v 0.367525 0.1691 0.0388662 
v 0.367525 0.169235 0.0381764 
v 0.367525 0.136645 -0.0594427 
v 0.367525 0.139042 -0.0592403 
v 0.367525 0.175163 0.0407478 
v 0.367525 0.174752 0.0413173 
v 0.367525 0.174973 0.0410437 
v 0.367525 0.17058 0.0418728 
v 0.367525 0.170886 0.042047 
v 0.367525 0.16909 0.039218 
v 0.367525 0.169117 0.0395688 
v 0.367525 0.136314 -0.0593224 
v 0.367525 0.140129 -0.0583616 
v 0.367525 0.140506 -0.0577683 
v 0.367525 0.140333 -0.0580751 
v 0.367525 0.140571 -0.0550398 
v 0.367525 0.140694 -0.0553697 
v 0.367525 0.140224 -0.0544291 
v 0.367525 0.140414 -0.054725 
v 0.367525 0.140002 -0.0541555 
v 0.367525 0.135702 -0.0589783 
v 0.367525 0.135427 -0.0587587 
v 0.367525 0.135999 -0.059167 
v 0.367525 0.138038 -0.0595519 
v 0.367525 0.137687 -0.0595816 
v 0.367525 0.13872 -0.0593803 
v 0.367525 0.138383 -0.0594846 
v 0.367525 0.175529 0.0397618 
v 0.367525 0.175577 0.0394132 
v 0.367525 0.140644 -0.0574446 
v 0.367525 0.140811 -0.0567621 
v 0.367525 0.140746 -0.0571079 
v 0.367525 0.170034 0.0414309 
v 0.367525 0.170295 0.0416667 
v 0.367525 0.169423 0.040575 
v 0.367525 0.169595 0.0408818 
v 0.367525 0.14078 -0.055711 
v 0.367525 0.169183 0.0399146 
v 0.367525 0.169285 0.0402513 
v 0.367525 0.134956 -0.058237 
v 0.367525 0.134765 -0.0579411 
v 0.367525 0.135177 -0.0585106 
v 0.367525 0.140839 -0.0564113 
v 0.367525 0.1698 0.0411683 
v 0.367525 0.140828 -0.0560595 
v 0.367525 0.1344 -0.0569551 
v 0.367525 0.134351 -0.0566065 
v 0.367525 0.134608 -0.0576263 
v 0.367525 0.134486 -0.0572963 
v 0.367525 0.175588 0.0390615 
v 0.367525 0.17556 0.0387107 
vn 1 8.40657e-14 4.59761e-14 
vn 1 8.40657e-14 4.59761e-14 
vn 1 8.40657e-14 4.59761e-14 
vn 1 8.40657e-14 4.59761e-14 
vn 1 8.40657e-14 4.59761e-14 
vn 1 8.40657e-14 4.59761e-14 
vn 1 8.40657e-14 4.59761e-14 
vn 1 8.40657e-14 4.59761e-14 
vn 1 8.40657e-14 4.59761e-14 
vn 1 8.40657e-14 4.59761e-14 
vn 1 8.40657e-14 4.59761e-14 
vn 1 8.40657e-14 4.59761e-14 
vn 1 8.40657e-14 4.59761e-14 
vn 1 8.40657e-14 4.59761e-14 
vn 1 8.40657e-14 4.59761e-14 
vn 1 8.40657e-14 4.59761e-14 
vn 1 8.40657e-14 4.59761e-14 
vn 1 8.40657e-14 4.59761e-14 
vn 1 8.40657e-14 4.59761e-14 
vn 1 8.40657e-14 4.59761e-14 
vn 1 8.40657e-14 4.59761e-14 
vn 1 8.40657e-14 4.59761e-14 
vn 1 8.40657e-14 4.59761e-14 
vn 1 8.40657e-14 4.59761e-14 
vn 1 8.40657e-14 4.59761e-14 
vn 1 8.40657e-14 4.59761e-14 
vn 1 8.40657e-14 4.59761e-14 
vn 1 8.40657e-14 4.59761e-14 
vn 1 8.40657e-14 4.59761e-14 
vn 1 8.40657e-14 4.59761e-14 
vn 1 8.40657e-14 4.59761e-14 
vn 1 8.40657e-14 4.59761e-14 
vn 1 8.40657e-14 4.59761e-14 
vn 1 8.40657e-14 4.59761e-14 
vn 1 8.40657e-14 4.59761e-14 
vn 1 8.40657e-14 4.59761e-14 
vn 1 8.40657e-14 4.59761e-14 
vn 1 8.40657e-14 4.59761e-14 
vn 1 8.40657e-14 4.59761e-14 
vn 1 8.40657e-14 4.59761e-14 
vn 1 8.40657e-14 4.59761e-14 
vn 1 8.40657e-14 4.59761e-14 
vn 1 8.40657e-14 4.59761e-14 
vn 1 8.40657e-14 4.59761e-14 
vn 1 8.40657e-14 4.59761e-14 
vn 1 8.40657e-14 4.59761e-14 
vn 1 8.40657e-14 4.59761e-14 
vn 1 8.40657e-14 4.59761e-14 
vn 1 8.40657e-14 4.59761e-14 
vn 1 8.40657e-14 4.59761e-14 
vn 1 8.40657e-14 4.59761e-14 
vn 1 8.40657e-14 4.59761e-14 
vn 1 8.40657e-14 4.59761e-14 
vn 1 8.40657e-14 4.59761e-14 
vn 1 8.40657e-14 4.59761e-14 
vn 1 8.40657e-14 4.59761e-14 
vn 1 8.40657e-14 4.59761e-14 
vn 1 8.40657e-14 4.59761e-14 
vn 1 8.40657e-14 4.59761e-14 
vn 1 8.40657e-14 4.59761e-14 
vn 1 8.40657e-14 4.59761e-14 
vn 1 8.40657e-14 4.59761e-14 
vn 1 8.40657e-14 4.59761e-14 
vn 1 8.40657e-14 4.59761e-14 
vn 1 8.40657e-14 4.59761e-14 
vn 1 8.40657e-14 4.59761e-14 
vn 1 8.40657e-14 4.59761e-14 
vn 1 8.40657e-14 4.59761e-14 
vn 1 8.40657e-14 4.59761e-14 
vn 1 8.40657e-14 4.59761e-14 
vn 1 8.40657e-14 4.59761e-14 
vn 1 8.40657e-14 4.59761e-14 
vn 1 8.40657e-14 4.59761e-14 
vn 1 8.40657e-14 4.59761e-14 
vn 1 8.40657e-14 4.59761e-14 
vn 1 8.40657e-14 4.59761e-14 
vn 1 8.40657e-14 4.59761e-14 
vn 1 8.40657e-14 4.59761e-14 
vn 1 8.40657e-14 4.59761e-14 
vn 1 8.40657e-14 4.59761e-14 
vn 1 8.40657e-14 4.59761e-14 
vn 1 8.40657e-14 4.59761e-14 
vn 1 8.40657e-14 4.59761e-14 
vn 1 8.40657e-14 4.59761e-14 
vn 1 8.40657e-14 4.59761e-14 
vn 1 8.40657e-14 4.59761e-14 
vn 1 8.40657e-14 4.59761e-14 
vn 1 8.40657e-14 4.59761e-14 
vn 1 8.40657e-14 4.59761e-14 
vn 1 8.40657e-14 4.59761e-14 
vn 1 8.40657e-14 4.59761e-14 
vn 1 8.40657e-14 4.59761e-14 
vn 1 8.40657e-14 4.59761e-14 
vn 1 8.40657e-14 4.59761e-14 
vn 1 8.40657e-14 4.59761e-14 
vn 1 8.40657e-14 4.59761e-14 
vn 1 8.40657e-14 4.59761e-14 
vn 1 8.40657e-14 4.59761e-14 
vn 1 8.40657e-14 4.59761e-14 
vn 1 8.40657e-14 4.59761e-14 
vn 1 8.40657e-14 4.59761e-14 
vn 1 8.40657e-14 4.59761e-14 
vn 1 8.40657e-14 4.59761e-14 
vn 1 8.40657e-14 4.59761e-14 
vn 1 8.40657e-14 4.59761e-14 
vn 1 8.40657e-14 4.59761e-14 
vn 1 8.40657e-14 4.59761e-14 
vn 1 8.40657e-14 4.59761e-14 
vn 1 8.40657e-14 4.59761e-14 
vn 1 8.40657e-14 4.59761e-14 
vn 1 8.40657e-14 4.59761e-14 
vn 1 8.40657e-14 4.59761e-14 
vn 1 8.40657e-14 4.59761e-14 
vn 1 8.40657e-14 4.59761e-14 
vn 1 8.40657e-14 4.59761e-14 
vn 1 8.40657e-14 4.59761e-14 
vn 1 8.40657e-14 4.59761e-14 
vn 1 8.40657e-14 4.59761e-14 
vn 1 8.40657e-14 4.59761e-14 
vn 1 8.40657e-14 4.59761e-14 
f 117//117 118//118 119//119 
f 117//117 120//120 121//121 
f 122//122 117//117 123//123 
f 124//124 125//125 126//126 
f 127//127 128//128 129//129 
f 119//119 130//130 117//117 
f 121//121 131//131 117//117 
f 123//123 132//132 122//122 
f 133//133 134//134 135//135 
f 133//133 136//136 137//137 
f 124//124 138//138 139//139 
f 126//126 140//140 124//124 
f 127//127 141//141 142//142 
f 129//129 143//143 127//127 
f 127//127 133//133 144//144 
f 131//131 118//118 117//117 
f 123//123 133//133 132//132 
f 137//137 134//134 133//133 
f 133//133 127//127 145//145 
f 146//146 147//147 148//148 
f 146//146 149//149 150//150 
f 151//151 152//152 153//153 
f 124//124 154//154 138//138 
f 140//140 155//155 124//124 
f 143//143 141//141 127//127 
f 144//144 156//156 127//127 
f 122//122 120//120 117//117 
f 145//145 136//136 133//133 
f 146//146 157//157 147//147 
f 146//146 158//158 149//149 
f 152//152 159//159 153//153 
f 152//152 160//160 161//161 
f 155//155 154//154 124//124 
f 162//162 163//163 158//158 
f 156//156 128//128 127//127 
f 135//135 132//132 133//133 
f 150//150 157//157 146//146 
f 152//152 164//164 159//159 
f 152//152 165//165 160//160 
f 152//152 166//166 167//167 
f 166//166 168//168 169//169 
f 124//124 170//170 171//171 
f 124//124 172//172 125//125 
f 163//163 173//173 158//158 
f 152//152 151//151 174//174 
f 130//130 151//151 117//117 
f 148//148 175//175 146//146 
f 151//151 176//176 177//177 
f 161//161 164//164 152//152 
f 167//167 178//178 152//152 
f 166//166 179//179 168//168 
f 163//163 180//180 181//181 
f 163//163 171//171 182//182 
f 139//139 170//170 124//124 
f 163//163 183//183 184//184 
f 158//158 146//146 162//162 
f 152//152 185//185 186//186 
f 174//174 187//187 152//152 
f 175//175 127//127 146//146 
f 153//153 176//176 151//151 
f 178//178 188//188 152//152 
f 169//169 189//189 166//166 
f 163//163 190//190 180//180 
f 163//163 191//191 192//192 
f 171//171 163//163 124//124 
f 124//124 193//193 194//194 
f 162//162 183//183 163//163 
f 152//152 195//195 196//196 
f 187//187 185//185 152//152 
f 177//177 117//117 151//151 
f 188//188 197//197 152//152 
f 166//166 198//198 179//179 
f 166//166 199//199 200//200 
f 192//192 190//190 163//163 
f 194//194 172//172 124//124 
f 163//163 201//201 202//202 
f 163//163 203//203 204//204 
f 184//184 205//205 163//163 
f 196//196 124//124 152//152 
f 142//142 146//146 127//127 
f 152//152 206//206 207//207 
f 197//197 208//208 152//152 
f 166//166 209//209 210//210 
f 166//166 211//211 212//212 
f 200//200 198//198 166//166 
f 163//163 213//213 214//214 
f 182//182 191//191 163//163 
f 202//202 166//166 163//163 
f 205//205 203//203 163//163 
f 186//186 195//195 152//152 
f 208//208 206//206 152//152 
f 212//212 209//209 166//166 
f 166//166 215//215 199//199 
f 166//166 216//216 217//217 
f 181//181 213//213 163//163 
f 124//124 218//218 219//219 
f 124//124 220//220 221//221 
f 202//202 222//222 166//166 
f 124//124 223//223 224//224 
f 196//196 223//223 124//124 
f 152//152 225//225 226//226 
f 207//207 227//227 152//152 
f 189//189 211//211 166//166 
f 166//166 228//228 216//216 
f 219//219 193//193 124//124 
f 221//221 229//229 124//124 
f 222//222 230//230 166//166 
f 204//204 201//201 163//163 
f 152//152 231//231 232//232 
f 152//152 233//233 234//234 
f 227//227 225//225 152//152 
f 217//217 215//215 166//166 
f 229//229 218//218 124//124 
f 224//224 220//220 124//124 
f 234//234 231//231 152//152 
f 210//210 167//167 166//166 
f 230//230 228//228 166//166 
f 226//226 233//233 152//152 
f 232//232 165//165 152//152 
f 163//163 235//235 236//236 
f 236//236 173//173 163//163 
f 214//214 235//235 163//163 
o mesh9985
v 0.36435 0.167662 0.0543572 
v 0.36435 0.124225 -0.0649837 
v 0.367525 0.124225 -0.0649837 
v 0.367525 0.167662 0.0543572 
vn 6.3e-14 -0.939693 0.34202 
vn 6.3e-14 -0.939693 0.34202 
vn 6.3e-14 -0.939693 0.34202 
vn 6.3e-14 -0.939693 0.34202 
f 237//237 238//238 239//239 
f 239//239 240//240 237//237 
o mesh9986
v 0.367525 0.140506 -0.0577683 
v 0.367525 0.140644 -0.0574446 
v 0.36435 0.140644 -0.0574446 
v 0.367525 0.140333 -0.0580751 
v 0.36435 0.140506 -0.0577683 
v 0.367525 0.140129 -0.0583616 
v 0.36435 0.140333 -0.0580751 
v 0.367525 0.139895 -0.0586242 
v 0.36435 0.140129 -0.0583616 
v 0.367525 0.139633 -0.05886 
v 0.36435 0.139895 -0.0586242 
v 0.367525 0.139348 -0.0590661 
v 0.36435 0.139633 -0.05886 
v 0.367525 0.139042 -0.0592403 
v 0.36435 0.139348 -0.0590661 
v 0.367525 0.13872 -0.0593803 
v 0.36435 0.139042 -0.0592403 
v 0.367525 0.138383 -0.0594846 
v 0.36435 0.13872 -0.0593803 
v 0.367525 0.138038 -0.0595519 
v 0.36435 0.138383 -0.0594846 
v 0.367525 0.137687 -0.0595816 
v 0.36435 0.138038 -0.0595519 
v 0.367525 0.137336 -0.0595731 
v 0.36435 0.137687 -0.0595816 
v 0.367525 0.136987 -0.0595266 
v 0.36435 0.137336 -0.0595731 
v 0.367525 0.136645 -0.0594427 
v 0.36435 0.136987 -0.0595266 
v 0.367525 0.136314 -0.0593224 
v 0.36435 0.136645 -0.0594427 
v 0.367525 0.135999 -0.059167 
v 0.36435 0.136314 -0.0593224 
v 0.367525 0.135702 -0.0589783 
v 0.36435 0.135999 -0.059167 
v 0.367525 0.135427 -0.0587587 
v 0.36435 0.135702 -0.0589783 
v 0.367525 0.135177 -0.0585106 
v 0.36435 0.135427 -0.0587587 
v 0.367525 0.134956 -0.058237 
v 0.36435 0.135177 -0.0585106 
v 0.367525 0.134765 -0.0579411 
v 0.36435 0.134956 -0.058237 
v 0.367525 0.134608 -0.0576263 
v 0.36435 0.134765 -0.0579411 
v 0.367525 0.134486 -0.0572963 
v 0.36435 0.134608 -0.0576263 
v 0.367525 0.1344 -0.0569551 
v 0.36435 0.134486 -0.0572963 
v 0.367525 0.134351 -0.0566065 
v 0.36435 0.1344 -0.0569551 
v 0.367525 0.134341 -0.0562548 
v 0.36435 0.134351 -0.0566065 
v 0.367525 0.134368 -0.055904 
v 0.36435 0.134341 -0.0562548 
v 0.367525 0.134433 -0.0555582 
v 0.36435 0.134368 -0.055904 
v 0.367525 0.134536 -0.0552215 
v 0.36435 0.134433 -0.0555582 
v 0.367525 0.134674 -0.0548978 
v 0.36435 0.134536 -0.0552215 
v 0.367525 0.134846 -0.0545909 
v 0.36435 0.134674 -0.0548978 
v 0.367525 0.13505 -0.0543045 
v 0.36435 0.134846 -0.0545909 
v 0.367525 0.135285 -0.0540419 
v 0.36435 0.13505 -0.0543045 
v 0.367525 0.135546 -0.0538061 
v 0.36435 0.135285 -0.0540419 
v 0.367525 0.135831 -0.0535999 
v 0.36435 0.135546 -0.0538061 
v 0.367525 0.136137 -0.0534258 
v 0.36435 0.135831 -0.0535999 
v 0.367525 0.13646 -0.0532858 
v 0.36435 0.136137 -0.0534258 
v 0.367525 0.136796 -0.0531815 
v 0.36435 0.13646 -0.0532858 
v 0.367525 0.137141 -0.0531141 
v 0.36435 0.136796 -0.0531815 
v 0.367525 0.137492 -0.0530845 
v 0.36435 0.137141 -0.0531141 
v 0.367525 0.137844 -0.053093 
v 0.36435 0.137492 -0.0530845 
v 0.367525 0.138192 -0.0531394 
v 0.36435 0.137844 -0.053093 
v 0.367525 0.138534 -0.0532233 
v 0.36435 0.138192 -0.0531394 
v 0.367525 0.138865 -0.0533437 
v 0.36435 0.138534 -0.0532233 
v 0.367525 0.139181 -0.0534991 
v 0.36435 0.138865 -0.0533437 
v 0.367525 0.139478 -0.0536877 
v 0.36435 0.139181 -0.0534991 
v 0.367525 0.139753 -0.0539074 
v 0.36435 0.139478 -0.0536877 
v 0.367525 0.140002 -0.0541555 
v 0.36435 0.139753 -0.0539074 
v 0.367525 0.140224 -0.0544291 
v 0.36435 0.140002 -0.0541555 
v 0.367525 0.140414 -0.054725 
v 0.36435 0.140224 -0.0544291 
v 0.367525 0.140571 -0.0550398 
v 0.36435 0.140414 -0.054725 
v 0.367525 0.140694 -0.0553697 
v 0.36435 0.140571 -0.0550398 
v 0.367525 0.14078 -0.055711 
v 0.36435 0.140694 -0.0553697 
v 0.367525 0.140828 -0.0560595 
v 0.36435 0.14078 -0.055711 
v 0.367525 0.140839 -0.0564113 
v 0.36435 0.140828 -0.0560595 
v 0.367525 0.140811 -0.0567621 
v 0.36435 0.140839 -0.0564113 
v 0.367525 0.140746 -0.0571079 
v 0.36435 0.140811 -0.0567621 
v 0.36435 0.140746 -0.0571079 
vn 5.5051e-14 -0.897205 0.441614 
vn 6.3e-14 -0.939693 0.34202 
vn 6.3e-14 -0.939693 0.34202 
vn 4.62553e-14 -0.844199 0.53603 
vn 5.5051e-14 -0.897205 0.441614 
vn 3.69174e-14 -0.781295 0.624162 
vn 4.62553e-14 -0.844199 0.53603 
vn 2.71466e-14 -0.709231 0.704976 
vn 3.69174e-14 -0.781295 0.624162 
vn 1.70575e-14 -0.628853 0.777525 
vn 2.71466e-14 -0.709231 0.704976 
vn 6.76843e-15 -0.541101 0.840958 
vn 1.70575e-14 -0.628853 0.777525 
vn -3.59997e-15 -0.447006 0.894531 
vn 6.76843e-15 -0.541101 0.840958 
vn -1.39262e-14 -0.347669 0.937617 
vn -3.59997e-15 -0.447006 0.894531 
vn -2.40891e-14 -0.244257 0.969711 
vn -1.39262e-14 -0.347669 0.937617 
vn -3.39696e-14 -0.137981 0.990435 
vn -2.40891e-14 -0.244257 0.969711 
vn -4.34518e-14 -0.0300873 0.999547 
vn -3.39696e-14 -0.137981 0.990435 
vn -5.24246e-14 0.0781591 0.996941 
vn -4.34518e-14 -0.0300873 0.999547 
vn -6.07828e-14 0.185489 0.982646 
vn -5.24246e-14 0.0781591 0.996941 
vn -6.84284e-14 0.290645 0.956831 
vn -6.07828e-14 0.185489 0.982646 
vn -7.52717e-14 0.392392 0.919798 
vn -6.84284e-14 0.290645 0.956831 
vn -8.12325e-14 0.48954 0.871981 
vn -7.52717e-14 0.392392 0.919798 
vn -8.62409e-14 0.580948 0.813941 
vn -8.12325e-14 0.48954 0.871981 
vn -9.02382e-14 0.665545 0.746358 
vn -8.62409e-14 0.580948 0.813941 
vn -9.31776e-14 0.742339 0.670025 
vn -9.02382e-14 0.665545 0.746358 
vn -9.50245e-14 0.81043 0.585836 
vn -9.31776e-14 0.742339 0.670025 
vn -9.57574e-14 0.869019 0.494779 
vn -9.50245e-14 0.81043 0.585836 
vn -9.53676e-14 0.91742 0.397921 
vn -9.57574e-14 0.869019 0.494779 
vn -9.38597e-14 0.955065 0.296398 
vn -9.53676e-14 0.91742 0.397921 
vn -9.12514e-14 0.981512 0.1914 
vn -9.38597e-14 0.955065 0.296398 
vn -8.75733e-14 0.996452 0.0841576 
vn -9.12514e-14 0.981512 0.1914 
vn -8.28684e-14 0.99971 -0.0240712 
vn -8.75733e-14 0.996452 0.0841576 
vn -7.7192e-14 0.991247 -0.132018 
vn -8.28684e-14 0.99971 -0.0240712 
vn -7.06105e-14 0.971163 -0.238417 
vn -7.7192e-14 0.991247 -0.132018 
vn -6.32013e-14 0.939693 -0.34202 
vn -7.06105e-14 0.971163 -0.238417 
vn -5.5051e-14 0.897205 -0.441614 
vn -6.32013e-14 0.939693 -0.34202 
vn -4.62553e-14 0.844199 -0.53603 
vn -5.5051e-14 0.897205 -0.441614 
vn -3.69174e-14 0.781295 -0.624162 
vn -4.62553e-14 0.844199 -0.53603 
vn -2.71466e-14 0.709231 -0.704976 
vn -3.69174e-14 0.781295 -0.624162 
vn -1.70575e-14 0.628853 -0.777525 
vn -2.71466e-14 0.709231 -0.704976 
vn -6.76843e-15 0.541101 -0.840958 
vn -1.70575e-14 0.628853 -0.777525 
vn 3.59997e-15 0.447006 -0.894531 
vn -6.76843e-15 0.541101 -0.840958 
vn 1.39262e-14 0.347669 -0.937617 
vn 3.59997e-15 0.447006 -0.894531 
vn 2.40891e-14 0.244257 -0.969711 
vn 1.39262e-14 0.347669 -0.937617 
vn 3.39696e-14 0.137981 -0.990435 
vn 2.40891e-14 0.244257 -0.969711 
vn 4.34518e-14 0.0300873 -0.999547 
vn 3.39696e-14 0.137981 -0.990435 
vn 5.24246e-14 -0.0781591 -0.996941 
vn 4.34518e-14 0.0300873 -0.999547 
vn 6.07828e-14 -0.185489 -0.982646 
vn 5.24246e-14 -0.0781591 -0.996941 
vn 6.84284e-14 -0.290645 -0.956831 
vn 6.07828e-14 -0.185489 -0.982646 
vn 7.52717e-14 -0.392392 -0.919798 
vn 6.84284e-14 -0.290645 -0.956831 
vn 8.12325e-14 -0.48954 -0.871981 
vn 7.52717e-14 -0.392392 -0.919798 
vn 8.62409e-14 -0.580948 -0.813941 
vn 8.12325e-14 -0.48954 -0.871981 
vn 9.02382e-14 -0.665545 -0.746358 
vn 8.62409e-14 -0.580948 -0.813941 
vn 9.31776e-14 -0.742339 -0.670025 
vn 9.02382e-14 -0.665545 -0.746358 
vn 9.50245e-14 -0.81043 -0.585836 
vn 9.31776e-14 -0.742339 -0.670025 
vn 9.57574e-14 -0.869019 -0.494779 
vn 9.50245e-14 -0.81043 -0.585836 
vn 9.53676e-14 -0.91742 -0.397921 
vn 9.57574e-14 -0.869019 -0.494779 
vn 9.38597e-14 -0.955065 -0.296398 
vn 9.53676e-14 -0.91742 -0.397921 
vn 9.12514e-14 -0.981512 -0.1914 
vn 9.38597e-14 -0.955065 -0.296398 
vn 8.75733e-14 -0.996452 -0.0841576 
vn 9.12514e-14 -0.981512 -0.1914 
vn 8.28684e-14 -0.99971 0.0240712 
vn 8.75733e-14 -0.996452 -0.0841576 
vn 7.7192e-14 -0.991247 0.132018 
vn 8.28684e-14 -0.99971 0.0240712 
vn 7.06105e-14 -0.971163 0.238417 
vn 7.7192e-14 -0.991247 0.132018 
vn 7.06105e-14 -0.971163 0.238417 
f 241//241 242//242 243//243 
f 244//244 241//241 245//245 
f 246//246 244//244 247//247 
f 248//248 246//246 249//249 
f 250//250 248//248 251//251 
f 252//252 250//250 253//253 
f 254//254 252//252 255//255 
f 256//256 254//254 257//257 
f 258//258 256//256 259//259 
f 260//260 258//258 261//261 
f 262//262 260//260 263//263 
f 264//264 262//262 265//265 
f 266//266 264//264 267//267 
f 268//268 266//266 269//269 
f 270//270 268//268 271//271 
f 272//272 270//270 273//273 
f 274//274 272//272 275//275 
f 276//276 274//274 277//277 
f 278//278 276//276 279//279 
f 280//280 278//278 281//281 
f 282//282 280//280 283//283 
f 284//284 282//282 285//285 
f 286//286 284//284 287//287 
f 288//288 286//286 289//289 
f 290//290 288//288 291//291 
f 292//292 290//290 293//293 
f 294//294 292//292 295//295 
f 296//296 294//294 297//297 
f 298//298 296//296 299//299 
f 300//300 298//298 301//301 
f 302//302 300//300 303//303 
f 304//304 302//302 305//305 
f 306//306 304//304 307//307 
f 308//308 306//306 309//309 
f 310//310 308//308 311//311 
f 312//312 310//310 313//313 
f 314//314 312//312 315//315 
f 316//316 314//314 317//317 
f 318//318 316//316 319//319 
f 320//320 318//318 321//321 
f 322//322 320//320 323//323 
f 324//324 322//322 325//325 
f 326//326 324//324 327//327 
f 328//328 326//326 329//329 
f 330//330 328//328 331//331 
f 332//332 330//330 333//333 
f 334//334 332//332 335//335 
f 336//336 334//334 337//337 
f 338//338 336//336 339//339 
f 340//340 338//338 341//341 
f 342//342 340//340 343//343 
f 344//344 342//342 345//345 
f 346//346 344//344 347//347 
f 348//348 346//346 349//349 
f 350//350 348//348 351//351 
f 352//352 350//350 353//353 
f 354//354 352//352 355//355 
f 242//242 354//354 356//356 
f 356//356 243//243 242//242 
f 355//355 356//356 354//354 
f 353//353 355//355 352//352 
f 351//351 353//353 350//350 
f 349//349 351//351 348//348 
f 347//347 349//349 346//346 
f 345//345 347//347 344//344 
f 343//343 345//345 342//342 
f 341//341 343//343 340//340 
f 339//339 341//341 338//338 
f 337//337 339//339 336//336 
f 335//335 337//337 334//334 
f 333//333 335//335 332//332 
f 331//331 333//333 330//330 
f 329//329 331//331 328//328 
f 327//327 329//329 326//326 
f 325//325 327//327 324//324 
f 323//323 325//325 322//322 
f 321//321 323//323 320//320 
f 319//319 321//321 318//318 
f 317//317 319//319 316//316 
f 315//315 317//317 314//314 
f 313//313 315//315 312//312 
f 311//311 313//313 310//310 
f 309//309 311//311 308//308 
f 307//307 309//309 306//306 
f 305//305 307//307 304//304 
f 303//303 305//305 302//302 
f 301//301 303//303 300//300 
f 299//299 301//301 298//298 
f 297//297 299//299 296//296 
f 295//295 297//297 294//294 
f 293//293 295//295 292//292 
f 291//291 293//293 290//290 
f 289//289 291//291 288//288 
f 287//287 289//289 286//286 
f 285//285 287//287 284//284 
f 283//283 285//285 282//282 
f 281//281 283//283 280//280 
f 279//279 281//281 278//278 
f 277//277 279//279 276//276 
f 275//275 277//277 274//274 
f 273//273 275//275 272//272 
f 271//271 273//273 270//270 
f 269//269 271//271 268//268 
f 267//267 269//269 266//266 
f 265//265 267//267 264//264 
f 263//263 265//265 262//262 
f 261//261 263//263 260//260 
f 259//259 261//261 258//258 
f 257//257 259//259 256//256 
f 255//255 257//257 254//254 
f 253//253 255//255 252//252 
f 251//251 253//253 250//250 
f 249//249 251//251 248//248 
f 247//247 249//249 246//246 
f 245//245 247//247 244//244 
f 243//243 245//245 241//241 
o mesh9987
v 0.36435 0.167662 0.0543572 
v 0.36435 0.17058 0.0418728 
v 0.36435 0.170295 0.0416667 
v 0.36435 0.215398 0.0369826 
v 0.36435 0.174227 0.041785 
v 0.36435 0.170034 0.0414309 
v 0.36435 0.171545 0.0422913 
v 0.36435 0.171209 0.042187 
v 0.36435 0.172241 0.0423883 
v 0.36435 0.17189 0.0423587 
v 0.36435 0.172942 0.0423333 
v 0.36435 0.172593 0.0423798 
v 0.36435 0.17393 0.0419737 
v 0.36435 0.175588 0.0390615 
v 0.36435 0.175577 0.0394132 
v 0.36435 0.175495 0.0383649 
v 0.36435 0.17556 0.0387107 
v 0.36435 0.135831 -0.0535999 
v 0.36435 0.170176 0.0367141 
v 0.36435 0.170451 0.0364944 
v 0.36435 0.169515 0.0375317 
v 0.36435 0.169705 0.0372358 
v 0.36435 0.169595 0.0408818 
v 0.36435 0.169423 0.040575 
v 0.36435 0.170886 0.042047 
v 0.36435 0.173283 0.0422494 
v 0.36435 0.173614 0.0421291 
v 0.36435 0.174973 0.0410437 
v 0.36435 0.174752 0.0413173 
v 0.36435 0.175529 0.0397618 
v 0.36435 0.175443 0.040103 
v 0.36435 0.175083 0.0373976 
v 0.36435 0.175255 0.0377045 
v 0.36435 0.172787 0.0359208 
v 0.36435 0.173133 0.0359882 
v 0.36435 0.172085 0.0358997 
v 0.36435 0.172437 0.0358912 
v 0.36435 0.171064 0.0361504 
v 0.36435 0.171394 0.03603 
v 0.36435 0.170748 0.0363058 
v 0.36435 0.169926 0.0369622 
v 0.36435 0.169149 0.0385177 
v 0.36435 0.169235 0.0381764 
v 0.36435 0.124225 -0.0649837 
v 0.36435 0.134765 -0.0579411 
v 0.36435 0.134956 -0.058237 
v 0.36435 0.1698 0.0411683 
v 0.36435 0.174502 0.0415654 
v 0.36435 0.175321 0.040433 
v 0.36435 0.175163 0.0407478 
v 0.36435 0.174878 0.0371112 
v 0.36435 0.171736 0.0359461 
v 0.36435 0.169357 0.0378465 
v 0.36435 0.136987 -0.0595266 
v 0.36435 0.137336 -0.0595731 
v 0.36435 0.134608 -0.0576263 
v 0.36435 0.1344 -0.0569551 
v 0.36435 0.134486 -0.0572963 
v 0.36435 0.175393 0.0380282 
v 0.36435 0.173792 0.0362325 
v 0.36435 0.174097 0.0364066 
v 0.36435 0.173469 0.0360925 
v 0.36435 0.16909 0.039218 
v 0.36435 0.135546 -0.0538061 
v 0.36435 0.135285 -0.0540419 
v 0.36435 0.1691 0.0388662 
v 0.36435 0.137492 -0.0530845 
v 0.36435 0.137141 -0.0531141 
v 0.36435 0.138192 -0.0531394 
v 0.36435 0.137844 -0.053093 
v 0.36435 0.138865 -0.0533437 
v 0.36435 0.138534 -0.0532233 
v 0.36435 0.171961 -0.0823584 
v 0.36435 0.140828 -0.0560595 
v 0.36435 0.136314 -0.0593224 
v 0.36435 0.136645 -0.0594427 
v 0.36435 0.135177 -0.0585106 
v 0.36435 0.135427 -0.0587587 
v 0.36435 0.13646 -0.0532858 
v 0.36435 0.136137 -0.0534258 
v 0.36435 0.136796 -0.0531815 
v 0.36435 0.139478 -0.0536877 
v 0.36435 0.139181 -0.0534991 
v 0.36435 0.140224 -0.0544291 
v 0.36435 0.140002 -0.0541555 
v 0.36435 0.140839 -0.0564113 
v 0.36435 0.140746 -0.0571079 
v 0.36435 0.140811 -0.0567621 
v 0.36435 0.140333 -0.0580751 
v 0.36435 0.140506 -0.0577683 
v 0.36435 0.135702 -0.0589783 
v 0.36435 0.135999 -0.059167 
v 0.36435 0.174383 0.0366128 
v 0.36435 0.174644 0.0368486 
v 0.36435 0.13505 -0.0543045 
v 0.36435 0.139753 -0.0539074 
v 0.36435 0.140571 -0.0550398 
v 0.36435 0.140414 -0.054725 
v 0.36435 0.14078 -0.055711 
v 0.36435 0.140694 -0.0553697 
v 0.36435 0.140129 -0.0583616 
v 0.36435 0.139042 -0.0592403 
v 0.36435 0.139348 -0.0590661 
v 0.36435 0.138383 -0.0594846 
v 0.36435 0.13872 -0.0593803 
v 0.36435 0.134351 -0.0566065 
v 0.36435 0.169183 0.0399146 
v 0.36435 0.169117 0.0395688 
v 0.36435 0.140644 -0.0574446 
v 0.36435 0.137687 -0.0595816 
v 0.36435 0.138038 -0.0595519 
v 0.36435 0.134846 -0.0545909 
v 0.36435 0.169285 0.0402513 
v 0.36435 0.139633 -0.05886 
v 0.36435 0.139895 -0.0586242 
v 0.36435 0.134341 -0.0562548 
v 0.36435 0.134536 -0.0552215 
v 0.36435 0.134433 -0.0555582 
v 0.36435 0.134674 -0.0548978 
v 0.36435 0.134368 -0.055904 
vn -1 -8.4e-14 -4.6e-14 
vn -1 -8.4e-14 -4.6e-14 
vn -1 -8.4e-14 -4.6e-14 
vn -1 -8.4e-14 -4.6e-14 
vn -1 -8.4e-14 -4.6e-14 
vn -1 -8.4e-14 -4.6e-14 
vn -1 -8.4e-14 -4.6e-14 
vn -1 -8.4e-14 -4.6e-14 
vn -1 -8.4e-14 -4.6e-14 
vn -1 -8.4e-14 -4.6e-14 
vn -1 -8.4e-14 -4.6e-14 
vn -1 -8.4e-14 -4.6e-14 
vn -1 -8.4e-14 -4.6e-14 
vn -1 -8.4e-14 -4.6e-14 
vn -1 -8.4e-14 -4.6e-14 
vn -1 -8.4e-14 -4.6e-14 
vn -1 -8.4e-14 -4.6e-14 
vn -1 -8.4e-14 -4.6e-14 
vn -1 -8.4e-14 -4.6e-14 
vn -1 -8.4e-14 -4.6e-14 
vn -1 -8.4e-14 -4.6e-14 
vn -1 -8.4e-14 -4.6e-14 
vn -1 -8.4e-14 -4.6e-14 
vn -1 -8.4e-14 -4.6e-14 
vn -1 -8.4e-14 -4.6e-14 
vn -1 -8.4e-14 -4.6e-14 
vn -1 -8.4e-14 -4.6e-14 
vn -1 -8.4e-14 -4.6e-14 
vn -1 -8.4e-14 -4.6e-14 
vn -1 -8.4e-14 -4.6e-14 
vn -1 -8.4e-14 -4.6e-14 
vn -1 -8.4e-14 -4.6e-14 
vn -1 -8.4e-14 -4.6e-14 
vn -1 -8.4e-14 -4.6e-14 
vn -1 -8.4e-14 -4.6e-14 
vn -1 -8.4e-14 -4.6e-14 
vn -1 -8.4e-14 -4.6e-14 
vn -1 -8.4e-14 -4.6e-14 
vn -1 -8.4e-14 -4.6e-14 
vn -1 -8.4e-14 -4.6e-14 
vn -1 -8.4e-14 -4.6e-14 
vn -1 -8.4e-14 -4.6e-14 
vn -1 -8.4e-14 -4.6e-14 
vn -1 -8.4e-14 -4.6e-14 
vn -1 -8.4e-14 -4.6e-14 
vn -1 -8.4e-14 -4.6e-14 
vn -1 -8.4e-14 -4.6e-14 
vn -1 -8.4e-14 -4.6e-14 
vn -1 -8.4e-14 -4.6e-14 
vn -1 -8.4e-14 -4.6e-14 
vn -1 -8.4e-14 -4.6e-14 
vn -1 -8.4e-14 -4.6e-14 
vn -1 -8.4e-14 -4.6e-14 
vn -1 -8.4e-14 -4.6e-14 
vn -1 -8.4e-14 -4.6e-14 
vn -1 -8.4e-14 -4.6e-14 
vn -1 -8.4e-14 -4.6e-14 
vn -1 -8.4e-14 -4.6e-14 
vn -1 -8.4e-14 -4.6e-14 
vn -1 -8.4e-14 -4.6e-14 
vn -1 -8.4e-14 -4.6e-14 
vn -1 -8.4e-14 -4.6e-14 
vn -1 -8.4e-14 -4.6e-14 
vn -1 -8.4e-14 -4.6e-14 
vn -1 -8.4e-14 -4.6e-14 
vn -1 -8.4e-14 -4.6e-14 
vn -1 -8.4e-14 -4.6e-14 
vn -1 -8.4e-14 -4.6e-14 
vn -1 -8.4e-14 -4.6e-14 
vn -1 -8.4e-14 -4.6e-14 
vn -1 -8.4e-14 -4.6e-14 
vn -1 -8.4e-14 -4.6e-14 
vn -1 -8.4e-14 -4.6e-14 
vn -1 -8.4e-14 -4.6e-14 
vn -1 -8.4e-14 -4.6e-14 
vn -1 -8.4e-14 -4.6e-14 
vn -1 -8.4e-14 -4.6e-14 
vn -1 -8.4e-14 -4.6e-14 
vn -1 -8.4e-14 -4.6e-14 
vn -1 -8.4e-14 -4.6e-14 
vn -1 -8.4e-14 -4.6e-14 
vn -1 -8.4e-14 -4.6e-14 
vn -1 -8.4e-14 -4.6e-14 
vn -1 -8.4e-14 -4.6e-14 
vn -1 -8.4e-14 -4.6e-14 
vn -1 -8.4e-14 -4.6e-14 
vn -1 -8.4e-14 -4.6e-14 
vn -1 -8.4e-14 -4.6e-14 
vn -1 -8.4e-14 -4.6e-14 
vn -1 -8.4e-14 -4.6e-14 
vn -1 -8.4e-14 -4.6e-14 
vn -1 -8.4e-14 -4.6e-14 
vn -1 -8.4e-14 -4.6e-14 
vn -1 -8.4e-14 -4.6e-14 
vn -1 -8.4e-14 -4.6e-14 
vn -1 -8.4e-14 -4.6e-14 
vn -1 -8.4e-14 -4.6e-14 
vn -1 -8.4e-14 -4.6e-14 
vn -1 -8.4e-14 -4.6e-14 
vn -1 -8.4e-14 -4.6e-14 
vn -1 -8.4e-14 -4.6e-14 
vn -1 -8.4e-14 -4.6e-14 
vn -1 -8.4e-14 -4.6e-14 
vn -1 -8.4e-14 -4.6e-14 
vn -1 -8.4e-14 -4.6e-14 
vn -1 -8.4e-14 -4.6e-14 
vn -1 -8.4e-14 -4.6e-14 
vn -1 -8.4e-14 -4.6e-14 
vn -1 -8.4e-14 -4.6e-14 
vn -1 -8.4e-14 -4.6e-14 
vn -1 -8.4e-14 -4.6e-14 
vn -1 -8.4e-14 -4.6e-14 
vn -1 -8.4e-14 -4.6e-14 
vn -1 -8.4e-14 -4.6e-14 
vn -1 -8.4e-14 -4.6e-14 
vn -1 -8.4e-14 -4.6e-14 
vn -1 -8.4e-14 -4.6e-14 
vn -1 -8.4e-14 -4.6e-14 
vn -1 -8.4e-14 -4.6e-14 
vn -1 -8.4e-14 -4.6e-14 
f 357//357 358//358 359//359 
f 357//357 360//360 361//361 
f 359//359 362//362 357//357 
f 357//357 363//363 364//364 
f 357//357 365//365 366//366 
f 357//357 367//367 368//368 
f 361//361 369//369 357//357 
f 360//360 370//370 371//371 
f 360//360 372//372 373//373 
f 374//374 375//375 376//376 
f 374//374 377//377 378//378 
f 357//357 379//379 380//380 
f 357//357 381//381 358//358 
f 366//366 363//363 357//357 
f 357//357 382//382 367//367 
f 369//369 383//383 357//357 
f 360//360 384//384 385//385 
f 360//360 386//386 387//387 
f 373//373 370//370 360//360 
f 360//360 388//388 389//389 
f 374//374 390//390 391//391 
f 374//374 392//392 393//393 
f 374//374 394//394 395//395 
f 376//376 396//396 374//374 
f 378//378 397//397 374//374 
f 374//374 398//398 399//399 
f 400//400 401//401 402//402 
f 357//357 403//403 379//379 
f 364//364 381//381 357//357 
f 383//383 382//382 357//357 
f 385//385 404//404 360//360 
f 360//360 405//405 406//406 
f 371//371 386//386 360//360 
f 360//360 407//407 388//388 
f 393//393 390//390 374//374 
f 395//395 408//408 374//374 
f 397//397 375//375 374//374 
f 399//399 409//409 374//374 
f 400//400 410//410 411//411 
f 400//400 412//412 401//401 
f 400//400 413//413 414//414 
f 362//362 403//403 357//357 
f 404//404 361//361 360//360 
f 387//387 405//405 360//360 
f 389//389 415//415 360//360 
f 360//360 416//416 417//417 
f 374//374 418//418 416//416 
f 408//408 392//392 374//374 
f 409//409 377//377 374//374 
f 419//419 420//420 421//421 
f 420//420 419//419 422//422 
f 360//360 423//423 424//424 
f 360//360 425//425 426//426 
f 360//360 427//427 428//428 
f 360//360 429//429 430//430 
f 411//411 429//429 400//400 
f 400//400 431//431 432//432 
f 400//400 433//433 434//434 
f 414//414 412//412 400//400 
f 368//368 365//365 357//357 
f 415//415 372//372 360//360 
f 416//416 360//360 374//374 
f 396//396 394//394 374//374 
f 422//422 374//374 420//420 
f 360//360 435//435 436//436 
f 424//424 437//437 360//360 
f 428//428 425//425 360//360 
f 360//360 438//438 439//439 
f 360//360 440//440 441//441 
f 429//429 442//442 430//430 
f 429//429 443//443 444//444 
f 429//429 445//445 446//446 
f 432//432 410//410 400//400 
f 400//400 447//447 448//448 
f 402//402 433//433 400//400 
f 406//406 384//384 360//360 
f 360//360 449//449 450//450 
f 391//391 418//418 374//374 
f 421//421 451//451 419//419 
f 437//437 435//435 360//360 
f 439//439 427//427 360//360 
f 441//441 452//452 360//360 
f 360//360 453//453 454//454 
f 360//360 455//455 456//456 
f 444//444 442//442 429//429 
f 429//429 457//457 445//445 
f 429//429 458//458 459//459 
f 429//429 460//460 461//461 
f 448//448 431//431 400//400 
f 400//400 462//462 413//413 
f 357//357 463//463 464//464 
f 450//450 407//407 360//360 
f 422//422 398//398 374//374 
f 426//426 423//423 360//360 
f 454//454 440//440 360//360 
f 430//430 455//455 360//360 
f 446//446 465//465 429//429 
f 461//461 458//458 429//429 
f 429//429 466//466 467//467 
f 434//434 447//447 400//400 
f 419//419 451//451 468//468 
f 357//357 469//469 463//463 
f 417//417 449//449 360//360 
f 452//452 438//438 360//360 
f 465//465 443//443 429//429 
f 429//429 470//470 471//471 
f 467//467 460//460 429//429 
f 400//400 472//472 462//462 
f 468//468 400//400 419//419 
f 464//464 400//400 357//357 
f 436//436 374//374 360//360 
f 471//471 457//457 429//429 
f 411//411 466//466 429//429 
f 400//400 473//473 474//474 
f 468//468 475//475 400//400 
f 380//380 469//469 357//357 
f 459//459 470//470 429//429 
f 475//475 473//473 400//400 
f 456//456 453//453 360//360 
f 464//464 419//419 400//400 
f 474//474 476//476 400//400 
f 476//476 472//472 400//400 
o mesh9988
v 0.41515 0.215398 0.0369826 
v 0.36435 0.215398 0.0369826 
v 0.367525 0.212414 0.0380685 
v 0.36435 0.167662 0.0543572 
v 0.367525 0.167662 0.0543572 
v 0.41515 0.212414 0.0380685 
vn -7.2e-14 0.34202 0.939693 
vn -7.2e-14 0.34202 0.939693 
vn -7.2e-14 0.34202 0.939693 
vn -7.2e-14 0.34202 0.939693 
vn -7.2e-14 0.34202 0.939693 
vn -7.2e-14 0.34202 0.939693 
f 477//477 478//478 479//479 
f 480//480 481//481 479//479 
f 479//479 478//478 480//480 
f 479//479 482//482 477//477 
o mesh9989
v 0.36435 0.124225 -0.0649837 
v 0.36435 0.171961 -0.0823584 
v 0.367525 0.168978 -0.0812724 
v 0.41515 0.171961 -0.0823584 
v 0.41515 0.168978 -0.0812724 
v 0.367525 0.124225 -0.0649837 
vn 7.2e-14 -0.34202 -0.939693 
vn 7.2e-14 -0.34202 -0.939693 
vn 7.2e-14 -0.34202 -0.939693 
vn 7.2e-14 -0.34202 -0.939693 
vn 7.2e-14 -0.34202 -0.939693 
vn 7.2e-14 -0.34202 -0.939693 
f 483//483 484//484 485//485 
f 486//486 487//487 485//485 
f 485//485 484//484 486//486 
f 485//485 488//488 483//483 
o mesh9990
v 0.41515 0.168978 -0.0812724 
v 0.41515 0.171961 -0.0823584 
v 0.41515 0.215398 0.0369826 
v 0.41515 0.212414 0.0380685 
vn 1 8.4e-14 4.6e-14 
vn 1 8.4e-14 4.6e-14 
vn 1 8.4e-14 4.6e-14 
vn 1 8.4e-14 4.6e-14 
f 489//489 490//490 491//491 
f 491//491 492//492 489//489 
o mesh9991
v 0.383456 0.173442 -0.0690082 
v 0.377866 0.207306 0.0240342 
v 0.377638 0.207398 0.0242862 
v 0.378401 0.207151 0.0236067 
v 0.378121 0.207224 0.0238068 
v 0.380049 0.206961 0.0230849 
v 0.379699 0.206974 0.0231207 
v 0.41515 0.212414 0.0380685 
v 0.383305 0.208426 0.0271096 
v 0.383399 0.20831 0.0267909 
v 0.382812 0.208743 0.0279826 
v 0.38301 0.208644 0.0277089 
v 0.367525 0.212414 0.0380685 
v 0.377145 0.207716 0.0251593 
v 0.377051 0.207832 0.0254779 
v 0.37744 0.207498 0.0245599 
v 0.379022 0.207038 0.0232973 
v 0.378703 0.207089 0.0234362 
v 0.379356 0.207 0.0231917 
v 0.380401 0.206961 0.0230849 
v 0.378703 0.174304 -0.0666401 
v 0.379022 0.174354 -0.0665013 
v 0.381428 0.207038 0.0232973 
v 0.381094 0.207 0.0231917 
v 0.383475 0.173321 -0.0693383 
v 0.383175 0.208537 0.0274168 
v 0.382584 0.208835 0.0282347 
v 0.376994 0.207951 0.0258042 
v 0.377275 0.207604 0.0248521 
v 0.379356 0.174393 -0.0663957 
v 0.41515 0.168978 -0.0812724 
v 0.382329 0.207224 0.0238068 
v 0.382049 0.207151 0.0236067 
v 0.382049 0.208991 0.0286622 
v 0.382329 0.208918 0.0284621 
v 0.379022 0.209103 0.0289715 
v 0.379356 0.209142 0.0290771 
v 0.378401 0.208991 0.0286622 
v 0.378703 0.209053 0.0288327 
v 0.382812 0.173994 -0.0674901 
v 0.38301 0.173895 -0.0677638 
v 0.382049 0.174241 -0.0668106 
v 0.382329 0.174169 -0.0670107 
v 0.380049 0.174431 -0.0662888 
v 0.380401 0.174431 -0.0662888 
v 0.379699 0.174418 -0.0663246 
v 0.377145 0.173676 -0.0683632 
v 0.377275 0.173788 -0.068056 
v 0.367525 0.168978 -0.0812724 
v 0.378121 0.172474 -0.071666 
v 0.377866 0.172557 -0.0714386 
v 0.378703 0.172339 -0.0720366 
v 0.378401 0.172401 -0.0718661 
v 0.381747 0.172339 -0.0720366 
v 0.381428 0.172289 -0.0721754 
v 0.383456 0.173201 -0.0696685 
v 0.381747 0.207089 0.0234362 
v 0.382812 0.207398 0.0242862 
v 0.382584 0.207306 0.0240342 
v 0.383175 0.207604 0.0248521 
v 0.381428 0.209103 0.0289715 
v 0.381747 0.209053 0.0288327 
v 0.380751 0.209168 0.0291482 
v 0.380049 0.209181 0.0291839 
v 0.380401 0.209181 0.0291839 
v 0.377866 0.208835 0.0282347 
v 0.378121 0.208918 0.0284621 
v 0.377145 0.208426 0.0271096 
v 0.377275 0.208537 0.0274168 
v 0.383175 0.173788 -0.068056 
v 0.382584 0.174086 -0.0672381 
v 0.380751 0.174418 -0.0663246 
v 0.381094 0.174393 -0.0663957 
v 0.377866 0.174086 -0.0672381 
v 0.378121 0.174169 -0.0670107 
v 0.37744 0.173895 -0.0677638 
v 0.377638 0.172649 -0.0711866 
v 0.37744 0.172748 -0.0709129 
v 0.379699 0.172225 -0.0723521 
v 0.379356 0.17225 -0.072281 
v 0.381094 0.17225 -0.072281 
v 0.380751 0.172225 -0.0723521 
v 0.382049 0.172401 -0.0718661 
v 0.382584 0.172557 -0.0714386 
v 0.382329 0.172474 -0.071666 
v 0.38301 0.172748 -0.0709129 
v 0.382812 0.172649 -0.0711866 
v 0.383305 0.172967 -0.0703135 
v 0.383175 0.172855 -0.0706207 
v 0.380751 0.206974 0.0231207 
v 0.383305 0.207716 0.0251593 
v 0.381094 0.209142 0.0290771 
v 0.379699 0.209168 0.0291482 
v 0.37744 0.208644 0.0277089 
v 0.376994 0.208191 0.0264646 
v 0.377051 0.20831 0.0267909 
v 0.376975 0.208071 0.0261344 
v 0.383305 0.173676 -0.0683632 
v 0.383399 0.17356 -0.0686818 
v 0.381428 0.174354 -0.0665013 
v 0.381747 0.174304 -0.0666401 
v 0.378401 0.174241 -0.0668106 
v 0.377638 0.173994 -0.0674901 
v 0.377051 0.17356 -0.0686818 
v 0.380049 0.172212 -0.0723879 
v 0.383399 0.173083 -0.0699949 
v 0.38301 0.207498 0.0245599 
v 0.377638 0.208743 0.0279826 
v 0.376994 0.173442 -0.0690082 
v 0.377275 0.172855 -0.0706207 
v 0.377145 0.172967 -0.0703135 
v 0.379022 0.172289 -0.0721754 
v 0.380401 0.172212 -0.0723879 
v 0.383456 0.207951 0.0258042 
v 0.383399 0.207832 0.0254779 
v 0.377051 0.173083 -0.0699949 
v 0.376994 0.173201 -0.0696685 
v 0.376975 0.173321 -0.0693383 
v 0.383456 0.208191 0.0264646 
v 0.383475 0.208071 0.0261344 
vn 6.34779e-14 -0.939693 0.34202 
vn 6.34779e-14 -0.939693 0.34202 
vn 6.34779e-14 -0.939693 0.34202 
vn 6.34779e-14 -0.939693 0.34202 
vn 6.34779e-14 -0.939693 0.34202 
vn 6.34779e-14 -0.939693 0.34202 
vn 6.34779e-14 -0.939693 0.34202 
vn 6.34779e-14 -0.939693 0.34202 
vn 6.34779e-14 -0.939693 0.34202 
vn 6.34779e-14 -0.939693 0.34202 
vn 6.34779e-14 -0.939693 0.34202 
vn 6.34779e-14 -0.939693 0.34202 
vn 6.34779e-14 -0.939693 0.34202 
vn 6.34779e-14 -0.939693 0.34202 
vn 6.34779e-14 -0.939693 0.34202 
vn 6.34779e-14 -0.939693 0.34202 
vn 6.34779e-14 -0.939693 0.34202 
vn 6.34779e-14 -0.939693 0.34202 
vn 6.34779e-14 -0.939693 0.34202 
vn 6.34779e-14 -0.939693 0.34202 
vn 6.34779e-14 -0.939693 0.34202 
vn 6.34779e-14 -0.939693 0.34202 
vn 6.34779e-14 -0.939693 0.34202 
vn 6.34779e-14 -0.939693 0.34202 
vn 6.34779e-14 -0.939693 0.34202 
vn 6.34779e-14 -0.939693 0.34202 
vn 6.34779e-14 -0.939693 0.34202 
vn 6.34779e-14 -0.939693 0.34202 
vn 6.34779e-14 -0.939693 0.34202 
vn 6.34779e-14 -0.939693 0.34202 
vn 6.34779e-14 -0.939693 0.34202 
vn 6.34779e-14 -0.939693 0.34202 
vn 6.34779e-14 -0.939693 0.34202 
vn 6.34779e-14 -0.939693 0.34202 
vn 6.34779e-14 -0.939693 0.34202 
vn 6.34779e-14 -0.939693 0.34202 
vn 6.34779e-14 -0.939693 0.34202 
vn 6.34779e-14 -0.939693 0.34202 
vn 6.34779e-14 -0.939693 0.34202 
vn 6.34779e-14 -0.939693 0.34202 
vn 6.34779e-14 -0.939693 0.34202 
vn 6.34779e-14 -0.939693 0.34202 
vn 6.34779e-14 -0.939693 0.34202 
vn 6.34779e-14 -0.939693 0.34202 
vn 6.34779e-14 -0.939693 0.34202 
vn 6.34779e-14 -0.939693 0.34202 
vn 6.34779e-14 -0.939693 0.34202 
vn 6.34779e-14 -0.939693 0.34202 
vn 6.34779e-14 -0.939693 0.34202 
vn 6.34779e-14 -0.939693 0.34202 
vn 6.34779e-14 -0.939693 0.34202 
vn 6.34779e-14 -0.939693 0.34202 
vn 6.34779e-14 -0.939693 0.34202 
vn 6.34779e-14 -0.939693 0.34202 
vn 6.34779e-14 -0.939693 0.34202 
vn 6.34779e-14 -0.939693 0.34202 
vn 6.34779e-14 -0.939693 0.34202 
vn 6.34779e-14 -0.939693 0.34202 
vn 6.34779e-14 -0.939693 0.34202 
vn 6.34779e-14 -0.939693 0.34202 
vn 6.34779e-14 -0.939693 0.34202 
vn 6.34779e-14 -0.939693 0.34202 
vn 6.34779e-14 -0.939693 0.34202 
vn 6.34779e-14 -0.939693 0.34202 
vn 6.34779e-14 -0.939693 0.34202 
vn 6.34779e-14 -0.939693 0.34202 
vn 6.34779e-14 -0.939693 0.34202 
vn 6.34779e-14 -0.939693 0.34202 
vn 6.34779e-14 -0.939693 0.34202 
vn 6.34779e-14 -0.939693 0.34202 
vn 6.34779e-14 -0.939693 0.34202 
vn 6.34779e-14 -0.939693 0.34202 
vn 6.34779e-14 -0.939693 0.34202 
vn 6.34779e-14 -0.939693 0.34202 
vn 6.34779e-14 -0.939693 0.34202 
vn 6.34779e-14 -0.939693 0.34202 
vn 6.34779e-14 -0.939693 0.34202 
vn 6.34779e-14 -0.939693 0.34202 
vn 6.34779e-14 -0.939693 0.34202 
vn 6.34779e-14 -0.939693 0.34202 
vn 6.34779e-14 -0.939693 0.34202 
vn 6.34779e-14 -0.939693 0.34202 
vn 6.34779e-14 -0.939693 0.34202 
vn 6.34779e-14 -0.939693 0.34202 
vn 6.34779e-14 -0.939693 0.34202 
vn 6.34779e-14 -0.939693 0.34202 
vn 6.34779e-14 -0.939693 0.34202 
vn 6.34779e-14 -0.939693 0.34202 
vn 6.34779e-14 -0.939693 0.34202 
vn 6.34779e-14 -0.939693 0.34202 
vn 6.34779e-14 -0.939693 0.34202 
vn 6.34779e-14 -0.939693 0.34202 
vn 6.34779e-14 -0.939693 0.34202 
vn 6.34779e-14 -0.939693 0.34202 
vn 6.34779e-14 -0.939693 0.34202 
vn 6.34779e-14 -0.939693 0.34202 
vn 6.34779e-14 -0.939693 0.34202 
vn 6.34779e-14 -0.939693 0.34202 
vn 6.34779e-14 -0.939693 0.34202 
vn 6.34779e-14 -0.939693 0.34202 
vn 6.34779e-14 -0.939693 0.34202 
vn 6.34779e-14 -0.939693 0.34202 
vn 6.34779e-14 -0.939693 0.34202 
vn 6.34779e-14 -0.939693 0.34202 
vn 6.34779e-14 -0.939693 0.34202 
vn 6.34779e-14 -0.939693 0.34202 
vn 6.34779e-14 -0.939693 0.34202 
vn 6.34779e-14 -0.939693 0.34202 
vn 6.34779e-14 -0.939693 0.34202 
vn 6.34779e-14 -0.939693 0.34202 
vn 6.34779e-14 -0.939693 0.34202 
vn 6.34779e-14 -0.939693 0.34202 
vn 6.34779e-14 -0.939693 0.34202 
vn 6.34779e-14 -0.939693 0.34202 
vn 6.34779e-14 -0.939693 0.34202 
vn 6.34779e-14 -0.939693 0.34202 
vn 6.34779e-14 -0.939693 0.34202 
vn 6.34779e-14 -0.939693 0.34202 
vn 6.34779e-14 -0.939693 0.34202 
vn 6.34779e-14 -0.939693 0.34202 
f 493//493 494//494 495//495 
f 493//493 496//496 497//497 
f 493//493 498//498 499//499 
f 500//500 501//501 502//502 
f 500//500 503//503 504//504 
f 505//505 506//506 507//507 
f 505//505 495//495 508//508 
f 497//497 494//494 493//493 
f 493//493 509//509 510//510 
f 499//499 511//511 493//493 
f 512//512 498//498 493//493 
f 505//505 513//513 514//514 
f 515//515 516//516 517//517 
f 500//500 518//518 501//501 
f 500//500 519//519 503//503 
f 507//507 520//520 505//505 
f 508//508 521//521 505//505 
f 510//510 496//496 493//493 
f 493//493 517//517 512//512 
f 514//514 522//522 505//505 
f 517//517 523//523 515//515 
f 523//523 524//524 525//525 
f 504//504 518//518 500//500 
f 500//500 526//526 527//527 
f 505//505 528//528 529//529 
f 505//505 530//530 531//531 
f 521//521 506//506 505//505 
f 511//511 509//509 493//493 
f 505//505 532//532 533//533 
f 505//505 534//534 535//535 
f 505//505 536//536 537//537 
f 522//522 538//538 505//505 
f 505//505 539//539 540//540 
f 541//541 542//542 543//543 
f 541//541 544//544 545//545 
f 523//523 546//546 547//547 
f 517//517 548//548 523//523 
f 525//525 549//549 523//523 
f 523//523 550//550 551//551 
f 523//523 500//500 552//552 
f 527//527 519//519 500//500 
f 500//500 553//553 554//554 
f 500//500 505//505 555//555 
f 505//505 556//556 557//557 
f 531//531 528//528 505//505 
f 505//505 558//558 559//559 
f 505//505 560//560 561//561 
f 495//495 505//505 493//493 
f 533//533 562//562 505//505 
f 535//535 563//563 505//505 
f 505//505 564//564 565//565 
f 538//538 536//536 505//505 
f 505//505 566//566 567//567 
f 540//540 568//568 505//505 
f 541//541 569//569 570//570 
f 545//545 542//542 541//541 
f 541//541 571//571 572//572 
f 523//523 573//573 574//574 
f 523//523 575//575 546//546 
f 523//523 576//576 577//577 
f 523//523 578//578 579//579 
f 523//523 580//580 581//581 
f 516//516 582//582 517//517 
f 551//551 524//524 523//523 
f 500//500 583//583 552//552 
f 554//554 526//526 500//500 
f 555//555 584//584 500//500 
f 505//505 585//585 556//556 
f 559//559 530//530 505//505 
f 561//561 586//586 505//505 
f 505//505 587//587 588//588 
f 520//520 589//589 505//505 
f 505//505 590//590 591//591 
f 563//563 532//532 505//505 
f 505//505 592//592 593//593 
f 537//537 564//564 505//505 
f 567//567 594//594 505//505 
f 568//568 595//595 505//505 
f 505//505 541//541 596//596 
f 543//543 569//569 541//541 
f 541//541 597//597 571//571 
f 574//574 541//541 523//523 
f 577//577 575//575 523//523 
f 581//581 578//578 523//523 
f 523//523 548//548 598//598 
f 549//549 515//515 523//523 
f 552//552 599//599 523//523 
f 584//584 553//553 500//500 
f 529//529 585//585 505//505 
f 586//586 600//600 505//505 
f 589//589 587//587 505//505 
f 562//562 590//590 505//505 
f 565//565 592//592 505//505 
f 595//595 566//566 505//505 
f 541//541 601//601 596//596 
f 541//541 602//602 603//603 
f 541//541 604//604 544//544 
f 541//541 605//605 597//597 
f 547//547 573//573 523//523 
f 598//598 580//580 523//523 
f 599//599 550//550 523//523 
f 500//500 606//606 607//607 
f 557//557 555//555 505//505 
f 588//588 560//560 505//505 
f 593//593 534//534 505//505 
f 596//596 539//539 505//505 
f 603//603 608//608 541//541 
f 572//572 604//604 541//541 
f 579//579 576//576 523//523 
f 607//607 583//583 500//500 
f 600//600 558//558 505//505 
f 594//594 513//513 505//505 
f 541//541 609//609 610//610 
f 570//570 602//602 541//541 
f 582//582 512//512 517//517 
f 500//500 611//611 612//612 
f 591//591 493//493 505//505 
f 608//608 609//609 541//541 
f 612//612 606//606 500//500 
f 610//610 601//601 541//541 
f 502//502 611//611 500//500 
f 574//574 605//605 541//541 
o mesh9992
v 0.36435 0.171961 -0.0823584 
v 0.380401 0.175195 -0.0734738 
v 0.380751 0.175208 -0.073438 
v 0.380401 0.177415 -0.0673747 
v 0.381428 0.210022 0.0222114 
v 0.381747 0.210072 0.0223503 
v 0.380049 0.175195 -0.0734738 
v 0.382049 0.210134 0.0225207 
v 0.380049 0.177415 -0.0673747 
v 0.380049 0.209944 0.021999 
v 0.41515 0.171961 -0.0823584 
v 0.381747 0.175323 -0.0731225 
v 0.382049 0.175385 -0.072952 
v 0.382329 0.210207 0.0227209 
v 0.380751 0.209957 0.0220347 
v 0.381094 0.209983 0.0221058 
v 0.380401 0.209944 0.021999 
v 0.379356 0.209983 0.0221058 
v 0.379699 0.209957 0.0220347 
v 0.378401 0.210134 0.0225207 
v 0.378703 0.210072 0.0223503 
v 0.377866 0.21029 0.0229483 
v 0.378121 0.210207 0.0227209 
v 0.38301 0.175732 -0.0719988 
v 0.383175 0.175838 -0.0717066 
v 0.382329 0.175458 -0.0727519 
v 0.381094 0.175234 -0.0733669 
v 0.381428 0.175272 -0.0732614 
v 0.379699 0.175208 -0.073438 
v 0.379022 0.175272 -0.0732614 
v 0.379356 0.175234 -0.0733669 
v 0.378121 0.175458 -0.0727519 
v 0.378401 0.175385 -0.072952 
v 0.36435 0.215398 0.0369826 
v 0.377866 0.177069 -0.068324 
v 0.377638 0.176978 -0.0685761 
v 0.382812 0.210382 0.0232003 
v 0.38301 0.210481 0.023474 
v 0.379022 0.210022 0.0222114 
v 0.377638 0.210382 0.0232003 
v 0.382812 0.175632 -0.0722725 
v 0.378703 0.175323 -0.0731225 
v 0.37744 0.176878 -0.0688498 
v 0.379356 0.177376 -0.0674816 
v 0.379022 0.177338 -0.0675872 
v 0.379699 0.177402 -0.0674105 
v 0.376994 0.210934 0.0247183 
v 0.382584 0.21029 0.0229483 
v 0.377051 0.210815 0.024392 
v 0.381094 0.177376 -0.0674816 
v 0.380751 0.177402 -0.0674105 
v 0.383475 0.211054 0.0250485 
v 0.41515 0.215398 0.0369826 
v 0.382329 0.177152 -0.0680966 
v 0.382049 0.177225 -0.0678965 
v 0.382812 0.176978 -0.0685761 
v 0.382584 0.177069 -0.068324 
v 0.383175 0.176772 -0.0691419 
v 0.382584 0.175541 -0.0725245 
v 0.377866 0.175541 -0.0725245 
v 0.377275 0.176772 -0.0691419 
v 0.378401 0.177225 -0.0678965 
v 0.378121 0.177152 -0.0680966 
v 0.378703 0.177287 -0.067726 
v 0.383175 0.210588 0.0237662 
v 0.377275 0.210588 0.0237662 
v 0.37744 0.210481 0.023474 
v 0.377145 0.210699 0.0240734 
v 0.38301 0.176878 -0.0688498 
v 0.383456 0.176425 -0.0700941 
v 0.383399 0.176544 -0.0697677 
v 0.383305 0.17595 -0.0713994 
v 0.383399 0.176066 -0.0710808 
v 0.377638 0.175632 -0.0722725 
v 0.377275 0.175838 -0.0717066 
v 0.37744 0.175732 -0.0719988 
v 0.383175 0.211521 0.0263308 
v 0.38301 0.211627 0.026623 
v 0.383456 0.211174 0.0253787 
v 0.383399 0.211293 0.025705 
v 0.381747 0.177287 -0.067726 
v 0.381428 0.177338 -0.0675872 
v 0.383305 0.17666 -0.0694491 
v 0.377051 0.176066 -0.0710808 
v 0.377145 0.17595 -0.0713994 
v 0.377145 0.17666 -0.0694491 
v 0.380751 0.212151 0.0280623 
v 0.381428 0.212087 0.0278856 
v 0.381094 0.212125 0.0279912 
v 0.382812 0.211727 0.0268967 
v 0.383305 0.211409 0.0260237 
v 0.376994 0.176185 -0.0707545 
v 0.377051 0.176544 -0.0697677 
v 0.383305 0.210699 0.0240734 
v 0.37744 0.211627 0.026623 
v 0.377275 0.211521 0.0263308 
v 0.379022 0.212087 0.0278856 
v 0.378703 0.212036 0.0277468 
v 0.382049 0.211974 0.0275763 
v 0.381747 0.212036 0.0277468 
v 0.382584 0.211819 0.0271487 
v 0.382329 0.211901 0.0273762 
v 0.383456 0.176185 -0.0707545 
v 0.383475 0.176305 -0.0704243 
v 0.376994 0.176425 -0.0700941 
v 0.376975 0.176305 -0.0704243 
v 0.383399 0.210815 0.024392 
v 0.377638 0.211727 0.0268967 
v 0.378121 0.211901 0.0273762 
v 0.377866 0.211819 0.0271487 
v 0.378401 0.211974 0.0275763 
v 0.379699 0.212151 0.0280623 
v 0.379356 0.212125 0.0279912 
v 0.376994 0.211174 0.0253787 
v 0.376975 0.211054 0.0250485 
v 0.380401 0.212164 0.028098 
v 0.380049 0.212164 0.028098 
v 0.383456 0.210934 0.0247183 
v 0.377145 0.211409 0.0260237 
v 0.377051 0.211293 0.025705 
vn -6.31202e-14 0.939693 -0.34202 
vn -6.31202e-14 0.939693 -0.34202 
vn -6.31202e-14 0.939693 -0.34202 
vn -6.31202e-14 0.939693 -0.34202 
vn -6.31202e-14 0.939693 -0.34202 
vn -6.31202e-14 0.939693 -0.34202 
vn -6.31202e-14 0.939693 -0.34202 
vn -6.31202e-14 0.939693 -0.34202 
vn -6.31202e-14 0.939693 -0.34202 
vn -6.31202e-14 0.939693 -0.34202 
vn -6.31202e-14 0.939693 -0.34202 
vn -6.31202e-14 0.939693 -0.34202 
vn -6.31202e-14 0.939693 -0.34202 
vn -6.31202e-14 0.939693 -0.34202 
vn -6.31202e-14 0.939693 -0.34202 
vn -6.31202e-14 0.939693 -0.34202 
vn -6.31202e-14 0.939693 -0.34202 
vn -6.31202e-14 0.939693 -0.34202 
vn -6.31202e-14 0.939693 -0.34202 
vn -6.31202e-14 0.939693 -0.34202 
vn -6.31202e-14 0.939693 -0.34202 
vn -6.31202e-14 0.939693 -0.34202 
vn -6.31202e-14 0.939693 -0.34202 
vn -6.31202e-14 0.939693 -0.34202 
vn -6.31202e-14 0.939693 -0.34202 
vn -6.31202e-14 0.939693 -0.34202 
vn -6.31202e-14 0.939693 -0.34202 
vn -6.31202e-14 0.939693 -0.34202 
vn -6.31202e-14 0.939693 -0.34202 
vn -6.31202e-14 0.939693 -0.34202 
vn -6.31202e-14 0.939693 -0.34202 
vn -6.31202e-14 0.939693 -0.34202 
vn -6.31202e-14 0.939693 -0.34202 
vn -6.31202e-14 0.939693 -0.34202 
vn -6.31202e-14 0.939693 -0.34202 
vn -6.31202e-14 0.939693 -0.34202 
vn -6.31202e-14 0.939693 -0.34202 
vn -6.31202e-14 0.939693 -0.34202 
vn -6.31202e-14 0.939693 -0.34202 
vn -6.31202e-14 0.939693 -0.34202 
vn -6.31202e-14 0.939693 -0.34202 
vn -6.31202e-14 0.939693 -0.34202 
vn -6.31202e-14 0.939693 -0.34202 
vn -6.31202e-14 0.939693 -0.34202 
vn -6.31202e-14 0.939693 -0.34202 
vn -6.31202e-14 0.939693 -0.34202 
vn -6.31202e-14 0.939693 -0.34202 
vn -6.31202e-14 0.939693 -0.34202 
vn -6.31202e-14 0.939693 -0.34202 
vn -6.31202e-14 0.939693 -0.34202 
vn -6.31202e-14 0.939693 -0.34202 
vn -6.31202e-14 0.939693 -0.34202 
vn -6.31202e-14 0.939693 -0.34202 
vn -6.31202e-14 0.939693 -0.34202 
vn -6.31202e-14 0.939693 -0.34202 
vn -6.31202e-14 0.939693 -0.34202 
vn -6.31202e-14 0.939693 -0.34202 
vn -6.31202e-14 0.939693 -0.34202 
vn -6.31202e-14 0.939693 -0.34202 
vn -6.31202e-14 0.939693 -0.34202 
vn -6.31202e-14 0.939693 -0.34202 
vn -6.31202e-14 0.939693 -0.34202 
vn -6.31202e-14 0.939693 -0.34202 
vn -6.31202e-14 0.939693 -0.34202 
vn -6.31202e-14 0.939693 -0.34202 
vn -6.31202e-14 0.939693 -0.34202 
vn -6.31202e-14 0.939693 -0.34202 
vn -6.31202e-14 0.939693 -0.34202 
vn -6.31202e-14 0.939693 -0.34202 
vn -6.31202e-14 0.939693 -0.34202 
vn -6.31202e-14 0.939693 -0.34202 
vn -6.31202e-14 0.939693 -0.34202 
vn -6.31202e-14 0.939693 -0.34202 
vn -6.31202e-14 0.939693 -0.34202 
vn -6.31202e-14 0.939693 -0.34202 
vn -6.31202e-14 0.939693 -0.34202 
vn -6.31202e-14 0.939693 -0.34202 
vn -6.31202e-14 0.939693 -0.34202 
vn -6.31202e-14 0.939693 -0.34202 
vn -6.31202e-14 0.939693 -0.34202 
vn -6.31202e-14 0.939693 -0.34202 
vn -6.31202e-14 0.939693 -0.34202 
vn -6.31202e-14 0.939693 -0.34202 
vn -6.31202e-14 0.939693 -0.34202 
vn -6.31202e-14 0.939693 -0.34202 
vn -6.31202e-14 0.939693 -0.34202 
vn -6.31202e-14 0.939693 -0.34202 
vn -6.31202e-14 0.939693 -0.34202 
vn -6.31202e-14 0.939693 -0.34202 
vn -6.31202e-14 0.939693 -0.34202 
vn -6.31202e-14 0.939693 -0.34202 
vn -6.31202e-14 0.939693 -0.34202 
vn -6.31202e-14 0.939693 -0.34202 
vn -6.31202e-14 0.939693 -0.34202 
vn -6.31202e-14 0.939693 -0.34202 
vn -6.31202e-14 0.939693 -0.34202 
vn -6.31202e-14 0.939693 -0.34202 
vn -6.31202e-14 0.939693 -0.34202 
vn -6.31202e-14 0.939693 -0.34202 
vn -6.31202e-14 0.939693 -0.34202 
vn -6.31202e-14 0.939693 -0.34202 
vn -6.31202e-14 0.939693 -0.34202 
vn -6.31202e-14 0.939693 -0.34202 
vn -6.31202e-14 0.939693 -0.34202 
vn -6.31202e-14 0.939693 -0.34202 
vn -6.31202e-14 0.939693 -0.34202 
vn -6.31202e-14 0.939693 -0.34202 
vn -6.31202e-14 0.939693 -0.34202 
vn -6.31202e-14 0.939693 -0.34202 
vn -6.31202e-14 0.939693 -0.34202 
vn -6.31202e-14 0.939693 -0.34202 
vn -6.31202e-14 0.939693 -0.34202 
vn -6.31202e-14 0.939693 -0.34202 
vn -6.31202e-14 0.939693 -0.34202 
vn -6.31202e-14 0.939693 -0.34202 
vn -6.31202e-14 0.939693 -0.34202 
vn -6.31202e-14 0.939693 -0.34202 
vn -6.31202e-14 0.939693 -0.34202 
vn -6.31202e-14 0.939693 -0.34202 
vn -6.31202e-14 0.939693 -0.34202 
f 613//613 614//614 615//615 
f 616//616 617//617 618//618 
f 613//613 619//619 614//614 
f 618//618 620//620 616//616 
f 616//616 621//621 622//622 
f 623//623 624//624 625//625 
f 615//615 623//623 613//613 
f 620//620 626//626 616//616 
f 616//616 627//627 628//628 
f 622//622 629//629 616//616 
f 621//621 630//630 631//631 
f 621//621 632//632 633//633 
f 621//621 634//634 635//635 
f 623//623 636//636 637//637 
f 625//625 638//638 623//623 
f 623//623 639//639 640//640 
f 613//613 641//641 619//619 
f 613//613 642//642 643//643 
f 613//613 644//644 645//645 
f 646//646 647//647 648//648 
f 616//616 649//649 650//650 
f 628//628 617//617 616//616 
f 631//631 622//622 621//621 
f 633//633 651//651 621//621 
f 621//621 652//652 634//634 
f 623//623 653//653 636//636 
f 640//640 624//624 623//623 
f 643//643 641//641 613//613 
f 645//645 654//654 613//613 
f 648//648 655//655 646//646 
f 646//646 656//656 657//657 
f 658//658 646//646 659//659 
f 616//616 660//660 649//649 
f 629//629 627//627 616//616 
f 635//635 632//632 621//621 
f 621//621 659//659 661//661 
f 662//662 663//663 664//664 
f 665//665 666//666 667//667 
f 665//665 668//668 669//669 
f 665//665 623//623 670//670 
f 623//623 671//671 653//653 
f 615//615 639//639 623//623 
f 613//613 672//672 644//644 
f 655//655 673//673 646//646 
f 646//646 674//674 675//675 
f 657//657 676//676 646//646 
f 659//659 621//621 658//658 
f 650//650 677//677 616//616 
f 651//651 630//630 621//621 
f 621//621 678//678 679//679 
f 661//661 680//680 621//621 
f 664//664 665//665 662//662 
f 669//669 666//666 665//665 
f 670//670 681//681 665//665 
f 623//623 682//682 683//683 
f 623//623 684//684 685//685 
f 638//638 671//671 623//623 
f 613//613 686//686 672//672 
f 613//613 687//687 688//688 
f 675//675 647//647 646//646 
f 658//658 656//656 646//646 
f 626//626 660//660 616//616 
f 680//680 678//678 621//621 
f 665//665 689//689 690//690 
f 665//665 691//691 692//692 
f 664//664 691//691 665//665 
f 665//665 693//693 694//694 
f 681//681 668//668 665//665 
f 683//683 695//695 623//623 
f 637//637 684//684 623//623 
f 688//688 686//686 613//613 
f 613//613 696//696 697//697 
f 613//613 646//646 698//698 
f 676//676 674//674 646//646 
f 679//679 652//652 621//621 
f 646//646 665//665 699//699 
f 665//665 700//700 701//701 
f 690//690 702//702 665//665 
f 692//692 703//703 665//665 
f 694//694 662//662 665//665 
f 695//695 670//670 623//623 
f 654//654 642//642 613//613 
f 613//613 704//704 696//696 
f 698//698 705//705 613//613 
f 677//677 706//706 616//616 
f 646//646 707//707 708//708 
f 646//646 709//709 710//710 
f 701//701 699//699 665//665 
f 665//665 711//711 712//712 
f 665//665 713//713 714//714 
f 703//703 689//689 665//665 
f 667//667 693//693 665//665 
f 623//623 715//715 716//716 
f 697//697 687//687 613//613 
f 613//613 717//717 718//718 
f 616//616 706//706 719//719 
f 673//673 698//698 646//646 
f 646//646 720//720 707//707 
f 646//646 721//721 722//722 
f 710//710 723//723 646//646 
f 646//646 724//724 725//725 
f 712//712 700//700 665//665 
f 702//702 713//713 665//665 
f 716//716 682//682 623//623 
f 718//718 704//704 613//613 
f 705//705 717//717 613//613 
f 646//646 726//726 727//727 
f 722//722 720//720 646//646 
f 725//725 709//709 646//646 
f 714//714 711//711 665//665 
f 685//685 715//715 623//623 
f 727//727 659//659 646//646 
f 723//723 721//721 646//646 
f 646//646 728//728 729//729 
f 663//663 616//616 664//664 
f 719//719 730//730 616//616 
f 646//646 731//731 732//732 
f 729//729 724//724 646//646 
f 730//730 664//664 616//616 
f 708//708 731//731 646//646 
f 732//732 726//726 646//646 
f 699//699 728//728 646//646 
o mesh9993
v 0.383456 0.207951 0.0258042 
v 0.383475 0.208071 0.0261344 
v 0.383475 0.211054 0.0250485 
v 0.383399 0.207832 0.0254779 
v 0.383456 0.210934 0.0247183 
v 0.383305 0.207716 0.0251593 
v 0.383399 0.210815 0.024392 
v 0.383175 0.207604 0.0248521 
v 0.383305 0.210699 0.0240734 
v 0.38301 0.207498 0.0245599 
v 0.383175 0.210588 0.0237662 
v 0.382812 0.207398 0.0242862 
v 0.38301 0.210481 0.023474 
v 0.382584 0.207306 0.0240342 
v 0.382812 0.210382 0.0232003 
v 0.382329 0.207224 0.0238068 
v 0.382584 0.21029 0.0229483 
v 0.382049 0.207151 0.0236067 
v 0.382329 0.210207 0.0227209 
v 0.381747 0.207089 0.0234362 
v 0.382049 0.210134 0.0225207 
v 0.381428 0.207038 0.0232973 
v 0.381747 0.210072 0.0223503 
v 0.381094 0.207 0.0231917 
v 0.381428 0.210022 0.0222114 
v 0.380751 0.206974 0.0231207 
v 0.381094 0.209983 0.0221058 
v 0.380401 0.206961 0.0230849 
v 0.380751 0.209957 0.0220347 
v 0.380049 0.206961 0.0230849 
v 0.380401 0.209944 0.021999 
v 0.379699 0.206974 0.0231207 
v 0.380049 0.209944 0.021999 
v 0.379356 0.207 0.0231917 
v 0.379699 0.209957 0.0220347 
v 0.379022 0.207038 0.0232973 
v 0.379356 0.209983 0.0221058 
v 0.378703 0.207089 0.0234362 
v 0.379022 0.210022 0.0222114 
v 0.378401 0.207151 0.0236067 
v 0.378703 0.210072 0.0223503 
v 0.378121 0.207224 0.0238068 
v 0.378401 0.210134 0.0225207 
v 0.377866 0.207306 0.0240342 
v 0.378121 0.210207 0.0227209 
v 0.377638 0.207398 0.0242862 
v 0.377866 0.21029 0.0229483 
v 0.37744 0.207498 0.0245599 
v 0.377638 0.210382 0.0232003 
v 0.377275 0.207604 0.0248521 
v 0.37744 0.210481 0.023474 
v 0.377145 0.207716 0.0251593 
v 0.377275 0.210588 0.0237662 
v 0.377051 0.207832 0.0254779 
v 0.377145 0.210699 0.0240734 
v 0.376994 0.207951 0.0258042 
v 0.377051 0.210815 0.024392 
v 0.376975 0.208071 0.0261344 
v 0.376994 0.210934 0.0247183 
v 0.376994 0.208191 0.0264646 
v 0.376975 0.211054 0.0250485 
v 0.377051 0.20831 0.0267909 
v 0.376994 0.211174 0.0253787 
v 0.377145 0.208426 0.0271096 
v 0.377051 0.211293 0.025705 
v 0.377275 0.208537 0.0274168 
v 0.377145 0.211409 0.0260237 
v 0.37744 0.208644 0.0277089 
v 0.377275 0.211521 0.0263308 
v 0.377638 0.208743 0.0279826 
v 0.37744 0.211627 0.026623 
v 0.377866 0.208835 0.0282347 
v 0.377638 0.211727 0.0268967 
v 0.378121 0.208918 0.0284621 
v 0.377866 0.211819 0.0271487 
v 0.378401 0.208991 0.0286622 
v 0.378121 0.211901 0.0273762 
v 0.378703 0.209053 0.0288327 
v 0.378401 0.211974 0.0275763 
v 0.379022 0.209103 0.0289715 
v 0.378703 0.212036 0.0277468 
v 0.379356 0.209142 0.0290771 
v 0.379022 0.212087 0.0278856 
v 0.379699 0.209168 0.0291482 
v 0.379356 0.212125 0.0279912 
v 0.380049 0.209181 0.0291839 
v 0.379699 0.212151 0.0280623 
v 0.380401 0.209181 0.0291839 
v 0.380049 0.212164 0.028098 
v 0.380751 0.209168 0.0291482 
v 0.380401 0.212164 0.028098 
v 0.381094 0.209142 0.0290771 
v 0.380751 0.212151 0.0280623 
v 0.381428 0.209103 0.0289715 
v 0.381094 0.212125 0.0279912 
v 0.381747 0.209053 0.0288327 
v 0.381428 0.212087 0.0278856 
v 0.382049 0.208991 0.0286622 
v 0.381747 0.212036 0.0277468 
v 0.382329 0.208918 0.0284621 
v 0.382049 0.211974 0.0275763 
v 0.382584 0.208835 0.0282347 
v 0.382329 0.211901 0.0273762 
v 0.382812 0.208743 0.0279826 
v 0.382584 0.211819 0.0271487 
v 0.38301 0.208644 0.0277089 
v 0.382812 0.211727 0.0268967 
v 0.383175 0.208537 0.0274168 
v 0.38301 0.211627 0.026623 
v 0.383305 0.208426 0.0271096 
v 0.383175 0.211521 0.0263308 
v 0.383399 0.20831 0.0267909 
v 0.383305 0.211409 0.0260237 
v 0.383456 0.208191 0.0264646 
v 0.383399 0.211293 0.025705 
v 0.383456 0.211174 0.0253787 
vn -0.994138 0.0369789 0.101599 
vn -1 -8.37271e-14 -4.58387e-14 
vn -1 -8.37271e-14 -4.58387e-14 
vn -0.976621 0.0735242 0.202006 
vn -0.994138 0.0369789 0.101599 
vn -0.947653 0.109208 0.300045 
vn -0.976621 0.0735242 0.202006 
vn -0.907575 0.143611 0.394567 
vn -0.947653 0.109208 0.300045 
vn -0.856857 0.17633 0.484462 
vn -0.907575 0.143611 0.394567 
vn -0.796093 0.206982 0.568678 
vn -0.856857 0.17633 0.484462 
vn -0.725995 0.235207 0.646226 
vn -0.796093 0.206982 0.568678 
vn -0.647386 0.260675 0.716198 
vn -0.725995 0.235207 0.646226 
vn -0.561187 0.283086 0.777773 
vn -0.647386 0.260675 0.716198 
vn -0.468408 0.302179 0.83023 
vn -0.561187 0.283086 0.777773 
vn -0.370138 0.317729 0.872953 
vn -0.468408 0.302179 0.83023 
vn -0.267528 0.329554 0.905441 
vn -0.370138 0.317729 0.872953 
vn -0.161782 0.337515 0.927314 
vn -0.267528 0.329554 0.905441 
vn -0.0541389 0.341519 0.938314 
vn -0.161782 0.337515 0.927314 
vn 0.0541389 0.341519 0.938314 
vn -0.0541389 0.341519 0.938314 
vn 0.161782 0.337515 0.927314 
vn 0.0541389 0.341519 0.938314 
vn 0.267528 0.329554 0.905441 
vn 0.161782 0.337515 0.927314 
vn 0.370138 0.317729 0.872953 
vn 0.267528 0.329554 0.905441 
vn 0.468408 0.302179 0.83023 
vn 0.370138 0.317729 0.872953 
vn 0.561187 0.283086 0.777773 
vn 0.468408 0.302179 0.83023 
vn 0.647386 0.260675 0.716198 
vn 0.561187 0.283086 0.777773 
vn 0.725995 0.235207 0.646226 
vn 0.647386 0.260675 0.716198 
vn 0.796093 0.206982 0.568678 
vn 0.725995 0.235207 0.646226 
vn 0.856857 0.17633 0.484462 
vn 0.796093 0.206982 0.568678 
vn 0.907575 0.143611 0.394567 
vn 0.856857 0.17633 0.484462 
vn 0.947653 0.109208 0.300045 
vn 0.907575 0.143611 0.394567 
vn 0.976621 0.0735242 0.202006 
vn 0.947653 0.109208 0.300045 
vn 0.994138 0.0369789 0.101599 
vn 0.976621 0.0735242 0.202006 
vn 1 8.45284e-14 4.80403e-14 
vn 0.994138 0.0369789 0.101599 
vn 0.994138 -0.0369789 -0.101599 
vn 1 8.45284e-14 4.80403e-14 
vn 0.976621 -0.0735242 -0.202006 
vn 0.994138 -0.0369789 -0.101599 
vn 0.947653 -0.109208 -0.300045 
vn 0.976621 -0.0735242 -0.202006 
vn 0.907575 -0.143611 -0.394567 
vn 0.947653 -0.109208 -0.300045 
vn 0.856857 -0.17633 -0.484462 
vn 0.907575 -0.143611 -0.394567 
vn 0.796093 -0.206982 -0.568678 
vn 0.856857 -0.17633 -0.484462 
vn 0.725995 -0.235207 -0.646226 
vn 0.796093 -0.206982 -0.568678 
vn 0.647386 -0.260675 -0.716198 
vn 0.725995 -0.235207 -0.646226 
vn 0.561187 -0.283086 -0.777773 
vn 0.647386 -0.260675 -0.716198 
vn 0.468408 -0.302179 -0.83023 
vn 0.561187 -0.283086 -0.777773 
vn 0.370138 -0.317729 -0.872953 
vn 0.468408 -0.302179 -0.83023 
vn 0.267528 -0.329554 -0.905441 
vn 0.370138 -0.317729 -0.872953 
vn 0.161782 -0.337515 -0.927314 
vn 0.267528 -0.329554 -0.905441 
vn 0.0541389 -0.341519 -0.938314 
vn 0.161782 -0.337515 -0.927314 
vn -0.0541389 -0.341519 -0.938314 
vn 0.0541389 -0.341519 -0.938314 
vn -0.161782 -0.337515 -0.927314 
vn -0.0541389 -0.341519 -0.938314 
vn -0.267528 -0.329554 -0.905441 
vn -0.161782 -0.337515 -0.927314 
vn -0.370138 -0.317729 -0.872953 
vn -0.267528 -0.329554 -0.905441 
vn -0.468408 -0.302179 -0.83023 
vn -0.370138 -0.317729 -0.872953 
vn -0.561187 -0.283086 -0.777773 
vn -0.468408 -0.302179 -0.83023 
vn -0.647386 -0.260675 -0.716198 
vn -0.561187 -0.283086 -0.777773 
vn -0.725995 -0.235207 -0.646226 
vn -0.647386 -0.260675 -0.716198 
vn -0.796093 -0.206982 -0.568678 
vn -0.725995 -0.235207 -0.646226 
vn -0.856857 -0.17633 -0.484462 
vn -0.796093 -0.206982 -0.568678 
vn -0.907575 -0.143611 -0.394567 
vn -0.856857 -0.17633 -0.484462 
vn -0.947653 -0.109208 -0.300045 
vn -0.907575 -0.143611 -0.394567 
vn -0.976621 -0.0735242 -0.202006 
vn -0.947653 -0.109208 -0.300045 
vn -0.994138 -0.0369789 -0.101599 
vn -0.976621 -0.0735242 -0.202006 
vn -0.994138 -0.0369789 -0.101599 
f 733//733 734//734 735//735 
f 736//736 733//733 737//737 
f 738//738 736//736 739//739 
f 740//740 738//738 741//741 
f 742//742 740//740 743//743 
f 744//744 742//742 745//745 
f 746//746 744//744 747//747 
f 748//748 746//746 749//749 
f 750//750 748//748 751//751 
f 752//752 750//750 753//753 
f 754//754 752//752 755//755 
f 756//756 754//754 757//757 
f 758//758 756//756 759//759 
f 760//760 758//758 761//761 
f 762//762 760//760 763//763 
f 764//764 762//762 765//765 
f 766//766 764//764 767//767 
f 768//768 766//766 769//769 
f 770//770 768//768 771//771 
f 772//772 770//770 773//773 
f 774//774 772//772 775//775 
f 776//776 774//774 777//777 
f 778//778 776//776 779//779 
f 780//780 778//778 781//781 
f 782//782 780//780 783//783 
f 784//784 782//782 785//785 
f 786//786 784//784 787//787 
f 788//788 786//786 789//789 
f 790//790 788//788 791//791 
f 792//792 790//790 793//793 
f 794//794 792//792 795//795 
f 796//796 794//794 797//797 
f 798//798 796//796 799//799 
f 800//800 798//798 801//801 
f 802//802 800//800 803//803 
f 804//804 802//802 805//805 
f 806//806 804//804 807//807 
f 808//808 806//806 809//809 
f 810//810 808//808 811//811 
f 812//812 810//810 813//813 
f 814//814 812//812 815//815 
f 816//816 814//814 817//817 
f 818//818 816//816 819//819 
f 820//820 818//818 821//821 
f 822//822 820//820 823//823 
f 824//824 822//822 825//825 
f 826//826 824//824 827//827 
f 828//828 826//826 829//829 
f 830//830 828//828 831//831 
f 832//832 830//830 833//833 
f 834//834 832//832 835//835 
f 836//836 834//834 837//837 
f 838//838 836//836 839//839 
f 840//840 838//838 841//841 
f 842//842 840//840 843//843 
f 844//844 842//842 845//845 
f 846//846 844//844 847//847 
f 734//734 846//846 848//848 
f 848//848 735//735 734//734 
f 847//847 848//848 846//846 
f 845//845 847//847 844//844 
f 843//843 845//845 842//842 
f 841//841 843//843 840//840 
f 839//839 841//841 838//838 
f 837//837 839//839 836//836 
f 835//835 837//837 834//834 
f 833//833 835//835 832//832 
f 831//831 833//833 830//830 
f 829//829 831//831 828//828 
f 827//827 829//829 826//826 
f 825//825 827//827 824//824 
f 823//823 825//825 822//822 
f 821//821 823//823 820//820 
f 819//819 821//821 818//818 
f 817//817 819//819 816//816 
f 815//815 817//817 814//814 
f 813//813 815//815 812//812 
f 811//811 813//813 810//810 
f 809//809 811//811 808//808 
f 807//807 809//809 806//806 
f 805//805 807//807 804//804 
f 803//803 805//805 802//802 
f 801//801 803//803 800//800 
f 799//799 801//801 798//798 
f 797//797 799//799 796//796 
f 795//795 797//797 794//794 
f 793//793 795//795 792//792 
f 791//791 793//793 790//790 
f 789//789 791//791 788//788 
f 787//787 789//789 786//786 
f 785//785 787//787 784//784 
f 783//783 785//785 782//782 
f 781//781 783//783 780//780 
f 779//779 781//781 778//778 
f 777//777 779//779 776//776 
f 775//775 777//777 774//774 
f 773//773 775//775 772//772 
f 771//771 773//773 770//770 
f 769//769 771//771 768//768 
f 767//767 769//769 766//766 
f 765//765 767//767 764//764 
f 763//763 765//765 762//762 
f 761//761 763//763 760//760 
f 759//759 761//761 758//758 
f 757//757 759//759 756//756 
f 755//755 757//757 754//754 
f 753//753 755//755 752//752 
f 751//751 753//753 750//750 
f 749//749 751//751 748//748 
f 747//747 749//749 746//746 
f 745//745 747//747 744//744 
f 743//743 745//745 742//742 
f 741//741 743//743 740//740 
f 739//739 741//741 738//738 
f 737//737 739//739 736//736 
f 735//735 737//737 733//733 
o mesh9994
v 0.383456 0.173201 -0.0696685 
v 0.383475 0.173321 -0.0693383 
v 0.383475 0.176305 -0.0704243 
v 0.383399 0.173083 -0.0699949 
v 0.383456 0.176185 -0.0707545 
v 0.383305 0.172967 -0.0703135 
v 0.383399 0.176066 -0.0710808 
v 0.383175 0.172855 -0.0706207 
v 0.383305 0.17595 -0.0713994 
v 0.38301 0.172748 -0.0709129 
v 0.383175 0.175838 -0.0717066 
v 0.382812 0.172649 -0.0711866 
v 0.38301 0.175732 -0.0719988 
v 0.382584 0.172557 -0.0714386 
v 0.382812 0.175632 -0.0722725 
v 0.382329 0.172474 -0.071666 
v 0.382584 0.175541 -0.0725245 
v 0.382049 0.172401 -0.0718661 
v 0.382329 0.175458 -0.0727519 
v 0.381747 0.172339 -0.0720366 
v 0.382049 0.175385 -0.072952 
v 0.381428 0.172289 -0.0721754 
v 0.381747 0.175323 -0.0731225 
v 0.381094 0.17225 -0.072281 
v 0.381428 0.175272 -0.0732614 
v 0.380751 0.172225 -0.0723521 
v 0.381094 0.175234 -0.0733669 
v 0.380401 0.172212 -0.0723879 
v 0.380751 0.175208 -0.073438 
v 0.380049 0.172212 -0.0723879 
v 0.380401 0.175195 -0.0734738 
v 0.379699 0.172225 -0.0723521 
v 0.380049 0.175195 -0.0734738 
v 0.379356 0.17225 -0.072281 
v 0.379699 0.175208 -0.073438 
v 0.379022 0.172289 -0.0721754 
v 0.379356 0.175234 -0.0733669 
v 0.378703 0.172339 -0.0720366 
v 0.379022 0.175272 -0.0732614 
v 0.378401 0.172401 -0.0718661 
v 0.378703 0.175323 -0.0731225 
v 0.378121 0.172474 -0.071666 
v 0.378401 0.175385 -0.072952 
v 0.377866 0.172557 -0.0714386 
v 0.378121 0.175458 -0.0727519 
v 0.377638 0.172649 -0.0711866 
v 0.377866 0.175541 -0.0725245 
v 0.37744 0.172748 -0.0709129 
v 0.377638 0.175632 -0.0722725 
v 0.377275 0.172855 -0.0706207 
v 0.37744 0.175732 -0.0719988 
v 0.377145 0.172967 -0.0703135 
v 0.377275 0.175838 -0.0717066 
v 0.377051 0.173083 -0.0699949 
v 0.377145 0.17595 -0.0713994 
v 0.376994 0.173201 -0.0696685 
v 0.377051 0.176066 -0.0710808 
v 0.376975 0.173321 -0.0693383 
v 0.376994 0.176185 -0.0707545 
v 0.376994 0.173442 -0.0690082 
v 0.376975 0.176305 -0.0704243 
v 0.377051 0.17356 -0.0686818 
v 0.376994 0.176425 -0.0700941 
v 0.377145 0.173676 -0.0683632 
v 0.377051 0.176544 -0.0697677 
v 0.377275 0.173788 -0.068056 
v 0.377145 0.17666 -0.0694491 
v 0.37744 0.173895 -0.0677638 
v 0.377275 0.176772 -0.0691419 
v 0.377638 0.173994 -0.0674901 
v 0.37744 0.176878 -0.0688498 
v 0.377866 0.174086 -0.0672381 
v 0.377638 0.176978 -0.0685761 
v 0.378121 0.174169 -0.0670107 
v 0.377866 0.177069 -0.068324 
v 0.378401 0.174241 -0.0668106 
v 0.378121 0.177152 -0.0680966 
v 0.378703 0.174304 -0.0666401 
v 0.378401 0.177225 -0.0678965 
v 0.379022 0.174354 -0.0665013 
v 0.378703 0.177287 -0.067726 
v 0.379356 0.174393 -0.0663957 
v 0.379022 0.177338 -0.0675872 
v 0.379699 0.174418 -0.0663246 
v 0.379356 0.177376 -0.0674816 
v 0.380049 0.174431 -0.0662888 
v 0.379699 0.177402 -0.0674105 
v 0.380401 0.174431 -0.0662888 
v 0.380049 0.177415 -0.0673747 
v 0.380751 0.174418 -0.0663246 
v 0.380401 0.177415 -0.0673747 
v 0.381094 0.174393 -0.0663957 
v 0.380751 0.177402 -0.0674105 
v 0.381428 0.174354 -0.0665013 
v 0.381094 0.177376 -0.0674816 
v 0.381747 0.174304 -0.0666401 
v 0.381428 0.177338 -0.0675872 
v 0.382049 0.174241 -0.0668106 
v 0.381747 0.177287 -0.067726 
v 0.382329 0.174169 -0.0670107 
v 0.382049 0.177225 -0.0678965 
v 0.382584 0.174086 -0.0672381 
v 0.382329 0.177152 -0.0680966 
v 0.382812 0.173994 -0.0674901 
v 0.382584 0.177069 -0.068324 
v 0.38301 0.173895 -0.0677638 
v 0.382812 0.176978 -0.0685761 
v 0.383175 0.173788 -0.068056 
v 0.38301 0.176878 -0.0688498 
v 0.383305 0.173676 -0.0683632 
v 0.383175 0.176772 -0.0691419 
v 0.383399 0.17356 -0.0686818 
v 0.383305 0.17666 -0.0694491 
v 0.383456 0.173442 -0.0690082 
v 0.383399 0.176544 -0.0697677 
v 0.383456 0.176425 -0.0700941 
vn -0.994138 0.0369789 0.101599 
vn -1 -8.37271e-14 -4.58387e-14 
vn -1 -8.37271e-14 -4.58387e-14 
vn -0.976621 0.0735242 0.202006 
vn -0.994138 0.0369789 0.101599 
vn -0.947653 0.109208 0.300045 
vn -0.976621 0.0735242 0.202006 
vn -0.907575 0.143611 0.394567 
vn -0.947653 0.109208 0.300045 
vn -0.856857 0.17633 0.484462 
vn -0.907575 0.143611 0.394567 
vn -0.796093 0.206982 0.568678 
vn -0.856857 0.17633 0.484462 
vn -0.725995 0.235207 0.646226 
vn -0.796093 0.206982 0.568678 
vn -0.647386 0.260675 0.716198 
vn -0.725995 0.235207 0.646226 
vn -0.561187 0.283086 0.777773 
vn -0.647386 0.260675 0.716198 
vn -0.468408 0.302179 0.83023 
vn -0.561187 0.283086 0.777773 
vn -0.370138 0.317729 0.872953 
vn -0.468408 0.302179 0.83023 
vn -0.267528 0.329554 0.905441 
vn -0.370138 0.317729 0.872953 
vn -0.161782 0.337515 0.927314 
vn -0.267528 0.329554 0.905441 
vn -0.0541389 0.341519 0.938314 
vn -0.161782 0.337515 0.927314 
vn 0.0541389 0.341519 0.938314 
vn -0.0541389 0.341519 0.938314 
vn 0.161782 0.337515 0.927314 
vn 0.0541389 0.341519 0.938314 
vn 0.267528 0.329554 0.905441 
vn 0.161782 0.337515 0.927314 
vn 0.370138 0.317729 0.872953 
vn 0.267528 0.329554 0.905441 
vn 0.468408 0.302179 0.83023 
vn 0.370138 0.317729 0.872953 
vn 0.561187 0.283086 0.777773 
vn 0.468408 0.302179 0.83023 
vn 0.647386 0.260675 0.716198 
vn 0.561187 0.283086 0.777773 
vn 0.725995 0.235207 0.646226 
vn 0.647386 0.260675 0.716198 
vn 0.796093 0.206982 0.568678 
vn 0.725995 0.235207 0.646226 
vn 0.856857 0.17633 0.484462 
vn 0.796093 0.206982 0.568678 
vn 0.907575 0.143611 0.394567 
vn 0.856857 0.17633 0.484462 
vn 0.947653 0.109208 0.300045 
vn 0.907575 0.143611 0.394567 
vn 0.976621 0.0735242 0.202006 
vn 0.947653 0.109208 0.300045 
vn 0.994138 0.0369789 0.101599 
vn 0.976621 0.0735242 0.202006 
vn 1 8.48322e-14 4.88749e-14 
vn 0.994138 0.0369789 0.101599 
vn 0.994138 -0.0369789 -0.101599 
vn 1 8.48322e-14 4.88749e-14 
vn 0.976621 -0.0735242 -0.202006 
vn 0.994138 -0.0369789 -0.101599 
vn 0.947653 -0.109208 -0.300045 
vn 0.976621 -0.0735242 -0.202006 
vn 0.907575 -0.143611 -0.394567 
vn 0.947653 -0.109208 -0.300045 
vn 0.856857 -0.17633 -0.484462 
vn 0.907575 -0.143611 -0.394567 
vn 0.796093 -0.206982 -0.568678 
vn 0.856857 -0.17633 -0.484462 
vn 0.725995 -0.235207 -0.646226 
vn 0.796093 -0.206982 -0.568678 
vn 0.647386 -0.260675 -0.716198 
vn 0.725995 -0.235207 -0.646226 
vn 0.561187 -0.283086 -0.777773 
vn 0.647386 -0.260675 -0.716198 
vn 0.468408 -0.302179 -0.83023 
vn 0.561187 -0.283086 -0.777773 
vn 0.370138 -0.317729 -0.872953 
vn 0.468408 -0.302179 -0.83023 
vn 0.267528 -0.329554 -0.905441 
vn 0.370138 -0.317729 -0.872953 
vn 0.161782 -0.337515 -0.927314 
vn 0.267528 -0.329554 -0.905441 
vn 0.0541389 -0.341519 -0.938314 
vn 0.161782 -0.337515 -0.927314 
vn -0.0541389 -0.341519 -0.938314 
vn 0.0541389 -0.341519 -0.938314 
vn -0.161782 -0.337515 -0.927314 
vn -0.0541389 -0.341519 -0.938314 
vn -0.267528 -0.329554 -0.905441 
vn -0.161782 -0.337515 -0.927314 
vn -0.370138 -0.317729 -0.872953 
vn -0.267528 -0.329554 -0.905441 
vn -0.468408 -0.302179 -0.83023 
vn -0.370138 -0.317729 -0.872953 
vn -0.561187 -0.283086 -0.777773 
vn -0.468408 -0.302179 -0.83023 
vn -0.647386 -0.260675 -0.716198 
vn -0.561187 -0.283086 -0.777773 
vn -0.725995 -0.235207 -0.646226 
vn -0.647386 -0.260675 -0.716198 
vn -0.796093 -0.206982 -0.568678 
vn -0.725995 -0.235207 -0.646226 
vn -0.856857 -0.17633 -0.484462 
vn -0.796093 -0.206982 -0.568678 
vn -0.907575 -0.143611 -0.394567 
vn -0.856857 -0.17633 -0.484462 
vn -0.947653 -0.109208 -0.300045 
vn -0.907575 -0.143611 -0.394567 
vn -0.976621 -0.0735242 -0.202006 
vn -0.947653 -0.109208 -0.300045 
vn -0.994138 -0.0369789 -0.101599 
vn -0.976621 -0.0735242 -0.202006 
vn -0.994138 -0.0369789 -0.101599 
f 849//849 850//850 851//851 
f 852//852 849//849 853//853 
f 854//854 852//852 855//855 
f 856//856 854//854 857//857 
f 858//858 856//856 859//859 
f 860//860 858//858 861//861 
f 862//862 860//860 863//863 
f 864//864 862//862 865//865 
f 866//866 864//864 867//867 
f 868//868 866//866 869//869 
f 870//870 868//868 871//871 
f 872//872 870//870 873//873 
f 874//874 872//872 875//875 
f 876//876 874//874 877//877 
f 878//878 876//876 879//879 
f 880//880 878//878 881//881 
f 882//882 880//880 883//883 
f 884//884 882//882 885//885 
f 886//886 884//884 887//887 
f 888//888 886//886 889//889 
f 890//890 888//888 891//891 
f 892//892 890//890 893//893 
f 894//894 892//892 895//895 
f 896//896 894//894 897//897 
f 898//898 896//896 899//899 
f 900//900 898//898 901//901 
f 902//902 900//900 903//903 
f 904//904 902//902 905//905 
f 906//906 904//904 907//907 
f 908//908 906//906 909//909 
f 910//910 908//908 911//911 
f 912//912 910//910 913//913 
f 914//914 912//912 915//915 
f 916//916 914//914 917//917 
f 918//918 916//916 919//919 
f 920//920 918//918 921//921 
f 922//922 920//920 923//923 
f 924//924 922//922 925//925 
f 926//926 924//924 927//927 
f 928//928 926//926 929//929 
f 930//930 928//928 931//931 
f 932//932 930//930 933//933 
f 934//934 932//932 935//935 
f 936//936 934//934 937//937 
f 938//938 936//936 939//939 
f 940//940 938//938 941//941 
f 942//942 940//940 943//943 
f 944//944 942//942 945//945 
f 946//946 944//944 947//947 
f 948//948 946//946 949//949 
f 950//950 948//948 951//951 
f 952//952 950//950 953//953 
f 954//954 952//952 955//955 
f 956//956 954//954 957//957 
f 958//958 956//956 959//959 
f 960//960 958//958 961//961 
f 962//962 960//960 963//963 
f 850//850 962//962 964//964 
f 964//964 851//851 850//850 
f 963//963 964//964 962//962 
f 961//961 963//963 960//960 
f 959//959 961//961 958//958 
f 957//957 959//959 956//956 
f 955//955 957//957 954//954 
f 953//953 955//955 952//952 
f 951//951 953//953 950//950 
f 949//949 951//951 948//948 
f 947//947 949//949 946//946 
f 945//945 947//947 944//944 
f 943//943 945//945 942//942 
f 941//941 943//943 940//940 
f 939//939 941//941 938//938 
f 937//937 939//939 936//936 
f 935//935 937//937 934//934 
f 933//933 935//935 932//932 
f 931//931 933//933 930//930 
f 929//929 931//931 928//928 
f 927//927 929//929 926//926 
f 925//925 927//927 924//924 
f 923//923 925//925 922//922 
f 921//921 923//923 920//920 
f 919//919 921//921 918//918 
f 917//917 919//919 916//916 
f 915//915 917//917 914//914 
f 913//913 915//915 912//912 
f 911//911 913//913 910//910 
f 909//909 911//911 908//908 
f 907//907 909//909 906//906 
f 905//905 907//907 904//904 
f 903//903 905//905 902//902 
f 901//901 903//903 900//900 
f 899//899 901//901 898//898 
f 897//897 899//899 896//896 
f 895//895 897//897 894//894 
f 893//893 895//895 892//892 
f 891//891 893//893 890//890 
f 889//889 891//891 888//888 
f 887//887 889//889 886//886 
f 885//885 887//887 884//884 
f 883//883 885//885 882//882 
f 881//881 883//883 880//880 
f 879//879 881//881 878//878 
f 877//877 879//879 876//876 
f 875//875 877//877 874//874 
f 873//873 875//875 872//872 
f 871//871 873//873 870//870 
f 869//869 871//871 868//868 
f 867//867 869//869 866//866 
f 865//865 867//867 864//864 
f 863//863 865//865 862//862 
f 861//861 863//863 860//860 
f 859//859 861//861 858//858 
f 857//857 859//859 856//856 
f 855//855 857//857 854//854 
f 853//853 855//855 852//852 
f 851//851 853//853 849//849 
