# OBJ generated by ONSHAPE BY PTC INC, 1.215 Units = meters
mtllib EBoxNewAsm_stp_1_IMC413_1_stp_1_IMC413_1_28_stp_1_solid1.mtl
g EBoxNewAsm.stp-1/IMC413_1.stp-1/IMC413_1-28.stp-1-solid1
usemtl 0.168627_0.780392_0.219608_0.000000_0.000000
o mesh11672
v 0.141623 0.18024 0.0844103 
v 0.141623 0.179639 0.0846292 
v 0.141623 0.17942 0.0840278 
v 0.141623 0.180021 0.0838089 
vn 1 0 0 
vn 1 0 0 
vn 1 0 0 
vn 1 0 0 
f 1//1 2//2 3//3 
f 3//3 4//4 1//1 
usemtl 0.823529_0.823529_1.000000_0.000000_0.000000
o mesh11673
v 0.135783 0.180021 0.0838089 
v 0.141623 0.180021 0.0838089 
v 0.141623 0.17942 0.0840278 
v 0.135783 0.17942 0.0840278 
vn 0 -0.34202 -0.939693 
vn 0 -0.34202 -0.939693 
vn 0 -0.34202 -0.939693 
vn 0 -0.34202 -0.939693 
f 5//5 6//6 7//7 
f 7//7 8//8 5//5 
o mesh11674
v 0.135783 0.180021 0.0838089 
v 0.135783 0.18024 0.0844103 
v 0.141623 0.18024 0.0844103 
v 0.141623 0.180021 0.0838089 
vn 0 0.939693 -0.34202 
vn 0 0.939693 -0.34202 
vn 0 0.939693 -0.34202 
vn 0 0.939693 -0.34202 
f 9//9 10//10 11//11 
f 11//11 12//12 9//9 
o mesh11675
v 0.135783 0.18024 0.0844103 
v 0.135783 0.179639 0.0846292 
v 0.141623 0.179639 0.0846292 
v 0.141623 0.18024 0.0844103 
vn 0 0.34202 0.939693 
vn 0 0.34202 0.939693 
vn 0 0.34202 0.939693 
vn 0 0.34202 0.939693 
f 13//13 14//14 15//15 
f 15//15 16//16 13//13 
o mesh11676
v 0.135783 0.17942 0.0840278 
v 0.141623 0.17942 0.0840278 
v 0.141623 0.179639 0.0846292 
v 0.135783 0.179639 0.0846292 
vn 0 -0.939693 0.34202 
vn 0 -0.939693 0.34202 
vn 0 -0.939693 0.34202 
vn 0 -0.939693 0.34202 
f 17//17 18//18 19//19 
f 19//19 20//20 17//17 
usemtl 0.372549_0.372549_0.372549_0.000000_0.000000
o mesh11677
v 0.135783 0.200552 0.0780283 
v 0.135783 0.201258 0.0799687 
v 0.135783 0.200812 0.0801312 
v 0.135783 0.200203 0.0798473 
v 0.135783 0.199984 0.0792459 
v 0.135783 0.198872 0.0808375 
v 0.135783 0.199602 0.0800662 
v 0.135783 0.198165 0.078897 
v 0.135783 0.199383 0.0794648 
v 0.135783 0.200106 0.0781907 
v 0.135783 0.197816 0.080716 
v 0.135783 0.197597 0.0801146 
v 0.135783 0.196485 0.0817062 
v 0.135783 0.197215 0.0809349 
v 0.135783 0.195778 0.0797657 
v 0.135783 0.196996 0.0803335 
v 0.135783 0.19543 0.0815848 
v 0.135783 0.195211 0.0809833 
v 0.135783 0.194098 0.0825749 
v 0.135783 0.194828 0.0818036 
v 0.135783 0.193392 0.0806345 
v 0.135783 0.194609 0.0812022 
v 0.135783 0.193043 0.0824535 
v 0.135783 0.192824 0.0818521 
v 0.135783 0.191711 0.0834436 
v 0.135783 0.192441 0.0826724 
v 0.135783 0.191005 0.0815032 
v 0.135783 0.192222 0.082071 
v 0.135783 0.190656 0.0833222 
v 0.135783 0.190437 0.0827208 
v 0.135783 0.189324 0.0843124 
v 0.135783 0.190055 0.0835411 
v 0.135783 0.188618 0.0823719 
v 0.135783 0.189836 0.0829397 
v 0.135783 0.186937 0.0851811 
v 0.135783 0.187668 0.0844098 
v 0.135783 0.188269 0.0841909 
v 0.135783 0.186231 0.0832406 
v 0.135783 0.187449 0.0838084 
v 0.135783 0.18805 0.0835895 
v 0.135783 0.184551 0.0860498 
v 0.135783 0.185281 0.0852786 
v 0.135783 0.185882 0.0850597 
v 0.135783 0.183844 0.0841094 
v 0.135783 0.185062 0.0846772 
v 0.135783 0.185663 0.0844583 
v 0.135783 0.182164 0.0869186 
v 0.135783 0.182894 0.0861473 
v 0.135783 0.183495 0.0859284 
v 0.135783 0.181458 0.0849781 
v 0.135783 0.182675 0.0855459 
v 0.135783 0.183277 0.085327 
v 0.135783 0.179777 0.0877873 
v 0.135783 0.180507 0.087016 
v 0.135783 0.181109 0.0867971 
v 0.135783 0.179071 0.0858468 
v 0.135783 0.180288 0.0864146 
v 0.135783 0.18089 0.0861957 
v 0.135783 0.179639 0.0846292 
v 0.135783 0.18024 0.0844103 
v 0.135783 0.178305 0.0837419 
v 0.135783 0.17942 0.0840278 
v 0.135783 0.178484 0.0833574 
v 0.135783 0.180021 0.0838089 
v 0.135783 0.180307 0.0826939 
v 0.135783 0.180691 0.0828732 
v 0.135783 0.182025 0.0837605 
v 0.135783 0.182627 0.0835416 
v 0.135783 0.181806 0.0831591 
v 0.135783 0.180871 0.0824887 
v 0.135783 0.182694 0.0818252 
v 0.135783 0.183078 0.0820045 
v 0.135783 0.182408 0.0829402 
v 0.135783 0.184412 0.0828918 
v 0.135783 0.185014 0.0826729 
v 0.135783 0.184193 0.0822903 
v 0.135783 0.183258 0.08162 
v 0.135783 0.184795 0.0820715 
v 0.135783 0.185081 0.0809564 
v 0.135783 0.185465 0.0811357 
v 0.135783 0.18658 0.0814216 
v 0.135783 0.186799 0.082023 
v 0.135783 0.1874 0.0818041 
v 0.135783 0.185644 0.0807512 
v 0.135783 0.187181 0.0812027 
v 0.135783 0.187467 0.0800877 
v 0.135783 0.187852 0.080267 
v 0.135783 0.189568 0.080334 
v 0.135783 0.189854 0.079219 
v 0.135783 0.190239 0.0793983 
v 0.135783 0.188967 0.0805529 
v 0.135783 0.189787 0.0809354 
v 0.135783 0.189186 0.0811543 
v 0.135783 0.188031 0.0798825 
v 0.135783 0.191955 0.0794653 
v 0.135783 0.192241 0.0783502 
v 0.135783 0.192626 0.0785295 
v 0.135783 0.191354 0.0796842 
v 0.135783 0.192174 0.0800667 
v 0.135783 0.191573 0.0802856 
v 0.135783 0.190418 0.0790138 
v 0.135783 0.194342 0.0785965 
v 0.135783 0.194628 0.0774815 
v 0.135783 0.195012 0.0776608 
v 0.135783 0.193741 0.0788154 
v 0.135783 0.194561 0.0791979 
v 0.135783 0.193959 0.0794168 
v 0.135783 0.192805 0.078145 
v 0.135783 0.197399 0.0767921 
v 0.135783 0.196948 0.0783292 
v 0.135783 0.196346 0.0785481 
v 0.135783 0.196127 0.0779467 
v 0.135783 0.195192 0.0772763 
v 0.135783 0.196729 0.0777278 
v 0.135783 0.197015 0.0766128 
v 0.135783 0.199334 0.0774605 
v 0.135783 0.199116 0.0768591 
v 0.135783 0.198733 0.0776794 
v 0.135783 0.198514 0.077078 
v 0.135783 0.197578 0.0764076 
v 0.135783 0.199237 0.0758039 
v 0.135783 0.199401 0.075744 
v 0.135783 0.199786 0.0759233 
v 0.135783 0.201318 0.0801332 
v 0.135783 0.201139 0.0805177 
v 0.135783 0.200974 0.0805775 
v 0.135783 0.199316 0.0811812 
v 0.135783 0.198931 0.0810019 
v 0.135783 0.198752 0.0813864 
v 0.135783 0.196929 0.0820499 
v 0.135783 0.196545 0.0818706 
v 0.135783 0.196365 0.0822551 
v 0.135783 0.194542 0.0829187 
v 0.135783 0.194158 0.0827394 
v 0.135783 0.193978 0.0831239 
v 0.135783 0.192155 0.0837874 
v 0.135783 0.191771 0.0836081 
v 0.135783 0.191592 0.0839926 
v 0.135783 0.189769 0.0846561 
v 0.135783 0.189384 0.0844768 
v 0.135783 0.189205 0.0848613 
v 0.135783 0.187382 0.0855249 
v 0.135783 0.186997 0.0853456 
v 0.135783 0.186818 0.0857301 
v 0.135783 0.184995 0.0863936 
v 0.135783 0.18461 0.0862143 
v 0.135783 0.184431 0.0865988 
v 0.135783 0.182608 0.0872623 
v 0.135783 0.182224 0.087083 
v 0.135783 0.182044 0.0874675 
v 0.135783 0.180221 0.0881311 
v 0.135783 0.179837 0.0879518 
vn 1 0 0 
vn 1 0 0 
vn 1 0 0 
vn 1 0 0 
vn 1 0 0 
vn 1 0 0 
vn 1 0 0 
vn 1 0 0 
vn 1 0 0 
vn 1 0 0 
vn 1 0 0 
vn 1 0 0 
vn 1 0 0 
vn 1 0 0 
vn 1 0 0 
vn 1 0 0 
vn 1 0 0 
vn 1 0 0 
vn 1 0 0 
vn 1 0 0 
vn 1 0 0 
vn 1 0 0 
vn 1 0 0 
vn 1 0 0 
vn 1 0 0 
vn 1 0 0 
vn 1 0 0 
vn 1 0 0 
vn 1 0 0 
vn 1 0 0 
vn 1 0 0 
vn 1 0 0 
vn 1 0 0 
vn 1 0 0 
vn 1 0 0 
vn 1 0 0 
vn 1 0 0 
vn 1 0 0 
vn 1 0 0 
vn 1 0 0 
vn 1 0 0 
vn 1 0 0 
vn 1 0 0 
vn 1 0 0 
vn 1 0 0 
vn 1 0 0 
vn 1 0 0 
vn 1 0 0 
vn 1 0 0 
vn 1 0 0 
vn 1 0 0 
vn 1 0 0 
vn 1 0 0 
vn 1 0 0 
vn 1 0 0 
vn 1 0 0 
vn 1 0 0 
vn 1 0 0 
vn 1 0 0 
vn 1 0 0 
vn 1 0 0 
vn 1 0 0 
vn 1 0 0 
vn 1 0 0 
vn 1 0 0 
vn 1 0 0 
vn 1 0 0 
vn 1 0 0 
vn 1 0 0 
vn 1 0 0 
vn 1 0 0 
vn 1 0 0 
vn 1 0 0 
vn 1 0 0 
vn 1 0 0 
vn 1 0 0 
vn 1 0 0 
vn 1 0 0 
vn 1 0 0 
vn 1 0 0 
vn 1 0 0 
vn 1 0 0 
vn 1 0 0 
vn 1 0 0 
vn 1 0 0 
vn 1 0 0 
vn 1 0 0 
vn 1 0 0 
vn 1 0 0 
vn 1 0 0 
vn 1 0 0 
vn 1 0 0 
vn 1 0 0 
vn 1 0 0 
vn 1 0 0 
vn 1 0 0 
vn 1 0 0 
vn 1 0 0 
vn 1 0 0 
vn 1 0 0 
vn 1 0 0 
vn 1 0 0 
vn 1 0 0 
vn 1 0 0 
vn 1 0 0 
vn 1 0 0 
vn 1 0 0 
vn 1 0 0 
vn 1 0 0 
vn 1 0 0 
vn 1 0 0 
vn 1 0 0 
vn 1 0 0 
vn 1 0 0 
vn 1 0 0 
vn 1 0 0 
vn 1 0 0 
vn 1 0 0 
vn 1 0 0 
vn 1 0 0 
vn 1 0 0 
vn 1 0 0 
vn 1 0 0 
vn 1 0 0 
vn 1 0 0 
vn 1 0 0 
vn 1 0 0 
vn 1 0 0 
vn 1 0 0 
vn 1 0 0 
vn 1 0 0 
vn 1 0 0 
vn 1 0 0 
vn 1 0 0 
vn 1 0 0 
vn 1 0 0 
vn 1 0 0 
vn 1 0 0 
vn 1 0 0 
vn 1 0 0 
vn 1 0 0 
vn 1 0 0 
vn 1 0 0 
vn 1 0 0 
vn 1 0 0 
vn 1 0 0 
vn 1 0 0 
vn 1 0 0 
vn 1 0 0 
vn 1 0 0 
vn 1 0 0 
vn 1 0 0 
f 21//21 22//22 23//23 
f 23//23 24//24 25//25 
f 23//23 26//26 27//27 
f 26//26 28//28 29//29 
f 30//30 25//25 29//29 
f 27//27 24//24 23//23 
f 29//29 28//28 30//30 
f 29//29 27//27 26//26 
f 26//26 31//31 32//32 
f 26//26 33//33 34//34 
f 33//33 35//35 36//36 
f 28//28 32//32 36//36 
f 34//34 31//31 26//26 
f 36//36 35//35 28//28 
f 36//36 34//34 33//33 
f 33//33 37//37 38//38 
f 33//33 39//39 40//40 
f 39//39 41//41 42//42 
f 35//35 38//38 42//42 
f 40//40 37//37 33//33 
f 42//42 41//41 35//35 
f 42//42 40//40 39//39 
f 39//39 43//43 44//44 
f 39//39 45//45 46//46 
f 45//45 47//47 48//48 
f 41//41 44//44 48//48 
f 46//46 43//43 39//39 
f 48//48 47//47 41//41 
f 48//48 46//46 45//45 
f 45//45 49//49 50//50 
f 45//45 51//51 52//52 
f 52//52 49//49 45//45 
f 51//51 53//53 54//54 
f 54//54 52//52 51//51 
f 47//47 50//50 54//54 
f 54//54 53//53 47//47 
f 55//55 56//56 57//57 
f 55//55 58//58 59//59 
f 59//59 56//56 55//55 
f 58//58 53//53 60//60 
f 51//51 57//57 60//60 
f 60//60 59//59 58//58 
f 57//57 51//51 55//55 
f 61//61 62//62 63//63 
f 61//61 64//64 65//65 
f 65//65 62//62 61//61 
f 64//64 58//58 66//66 
f 55//55 63//63 66//66 
f 66//66 65//65 64//64 
f 63//63 55//55 61//61 
f 67//67 68//68 69//69 
f 67//67 70//70 71//71 
f 71//71 68//68 67//67 
f 70//70 64//64 72//72 
f 61//61 69//69 72//72 
f 72//72 71//71 70//70 
f 69//69 61//61 67//67 
f 73//73 74//74 75//75 
f 73//73 76//76 77//77 
f 77//77 74//74 73//73 
f 76//76 70//70 78//78 
f 67//67 75//75 78//78 
f 78//78 77//77 76//76 
f 75//75 67//67 73//73 
f 76//76 79//79 80//80 
f 81//81 82//82 79//79 
f 82//82 81//81 83//83 
f 84//84 85//85 86//86 
f 79//79 76//76 81//81 
f 85//85 84//84 82//82 
f 70//70 80//80 84//84 
f 83//83 85//85 82//82 
f 80//80 70//70 76//76 
f 70//70 87//87 88//88 
f 86//86 89//89 87//87 
f 89//89 86//86 90//90 
f 91//91 92//92 93//93 
f 87//87 70//70 86//86 
f 93//93 89//89 91//91 
f 92//92 64//64 88//88 
f 90//90 91//91 89//89 
f 88//88 64//64 70//70 
f 64//64 94//94 95//95 
f 92//92 96//96 94//94 
f 96//96 92//92 97//97 
f 98//98 99//99 100//100 
f 94//94 64//64 92//92 
f 99//99 98//98 96//96 
f 58//58 95//95 98//98 
f 97//97 99//99 96//96 
f 95//95 58//58 64//64 
f 101//101 58//58 100//100 
f 58//58 102//102 103//103 
f 100//100 104//104 101//101 
f 105//105 106//106 107//107 
f 101//101 102//102 58//58 
f 104//104 106//106 105//105 
f 53//53 103//103 105//105 
f 105//105 101//101 104//104 
f 103//103 53//53 58//58 
f 108//108 109//109 110//110 
f 111//111 53//53 107//107 
f 47//47 112//112 108//108 
f 47//47 53//53 113//113 
f 107//107 114//114 111//111 
f 109//109 108//108 111//111 
f 113//113 112//112 47//47 
f 111//111 114//114 109//109 
f 111//111 113//113 53//53 
f 115//115 116//116 117//117 
f 118//118 47//47 110//110 
f 41//41 119//119 115//115 
f 41//41 47//47 120//120 
f 110//110 121//121 118//118 
f 116//116 115//115 118//118 
f 120//120 119//119 41//41 
f 118//118 121//121 116//116 
f 118//118 120//120 47//47 
f 122//122 123//123 124//124 
f 125//125 41//41 117//117 
f 35//35 126//126 122//122 
f 35//35 41//41 127//127 
f 117//117 128//128 125//125 
f 123//123 122//122 125//125 
f 127//127 126//126 35//35 
f 125//125 128//128 123//123 
f 125//125 127//127 41//41 
f 129//129 28//28 130//130 
f 28//28 35//35 131//131 
f 131//131 130//130 28//28 
f 124//124 132//132 131//131 
f 133//133 134//134 132//132 
f 134//134 133//133 135//135 
f 131//131 35//35 124//124 
f 135//135 129//129 134//134 
f 132//132 124//124 133//133 
f 30//30 136//136 137//137 
f 30//30 28//28 138//138 
f 138//138 136//136 30//30 
f 129//129 139//139 138//138 
f 139//139 129//129 140//140 
f 138//138 28//28 129//129 
f 141//141 137//137 139//139 
f 140//140 141//141 139//139 
f 30//30 142//142 143//143 
f 30//30 141//141 142//142 
f 23//23 22//22 144//144 
f 144//144 145//145 23//23 
f 23//23 146//146 147//147 
f 147//147 148//148 23//23 
f 26//26 149//149 150//150 
f 26//26 148//148 149//149 
f 150//150 151//151 26//26 
f 33//33 152//152 153//153 
f 33//33 151//151 152//152 
f 153//153 154//154 33//33 
f 39//39 155//155 156//156 
f 39//39 154//154 155//155 
f 156//156 157//157 39//39 
f 51//51 45//45 158//158 
f 158//158 159//159 51//51 
f 45//45 157//157 158//158 
f 55//55 160//160 161//161 
f 161//161 162//162 55//55 
f 55//55 51//51 160//160 
f 61//61 163//163 164//164 
f 164//164 165//165 61//61 
f 61//61 55//55 163//163 
f 67//67 166//166 167//167 
f 167//167 168//168 67//67 
f 67//67 61//61 166//166 
f 73//73 169//169 170//170 
f 170//170 171//171 73//73 
f 73//73 67//67 169//169 
f 171//171 172//172 73//73 
f 168//168 169//169 67//67 
f 165//165 166//166 61//61 
f 162//162 163//163 55//55 
f 159//159 160//160 51//51 
f 157//157 45//45 39//39 
f 154//154 39//39 33//33 
f 151//151 33//33 26//26 
f 148//148 26//26 23//23 
f 145//145 146//146 23//23 
f 143//143 21//21 30//30 
f 137//137 141//141 30//30 
f 130//130 134//134 129//129 
f 124//124 35//35 122//122 
f 117//117 41//41 115//115 
f 110//110 47//47 108//108 
f 107//107 53//53 105//105 
f 100//100 58//58 98//98 
f 88//88 93//93 92//92 
f 86//86 70//70 84//84 
f 78//78 70//70 67//67 
f 72//72 64//64 61//61 
f 66//66 58//58 55//55 
f 60//60 53//53 51//51 
f 50//50 47//47 45//45 
f 44//44 41//41 39//39 
f 38//38 35//35 33//33 
f 32//32 28//28 26//26 
f 25//25 30//30 23//23 
f 23//23 30//30 21//21 
usemtl 0.823529_0.823529_1.000000_0.000000_0.000000
o mesh11678
v 0.135783 0.181806 0.0831591 
v 0.135783 0.182408 0.0829402 
v 0.141623 0.182408 0.0829402 
v 0.141623 0.181806 0.0831591 
vn 0 -0.34202 -0.939693 
vn 0 -0.34202 -0.939693 
vn 0 -0.34202 -0.939693 
vn 0 -0.34202 -0.939693 
f 173//173 174//174 175//175 
f 175//175 176//176 173//173 
o mesh11679
v 0.141623 0.182627 0.0835416 
v 0.141623 0.182025 0.0837605 
v 0.141623 0.181806 0.0831591 
v 0.141623 0.182408 0.0829402 
vn 1 0 0 
vn 1 0 0 
vn 1 0 0 
vn 1 0 0 
f 177//177 178//178 179//179 
f 179//179 180//180 177//177 
o mesh11680
v 0.135783 0.182408 0.0829402 
v 0.135783 0.182627 0.0835416 
v 0.141623 0.182627 0.0835416 
v 0.141623 0.182408 0.0829402 
vn 0 0.939693 -0.34202 
vn 0 0.939693 -0.34202 
vn 0 0.939693 -0.34202 
vn 0 0.939693 -0.34202 
f 181//181 182//182 183//183 
f 183//183 184//184 181//181 
o mesh11681
v 0.135783 0.182025 0.0837605 
v 0.141623 0.182025 0.0837605 
v 0.141623 0.182627 0.0835416 
v 0.135783 0.182627 0.0835416 
vn 0 0.34202 0.939693 
vn 0 0.34202 0.939693 
vn 0 0.34202 0.939693 
vn 0 0.34202 0.939693 
f 185//185 186//186 187//187 
f 187//187 188//188 185//185 
o mesh11682
v 0.135783 0.182025 0.0837605 
v 0.135783 0.181806 0.0831591 
v 0.141623 0.181806 0.0831591 
v 0.141623 0.182025 0.0837605 
vn 0 -0.939693 0.34202 
vn 0 -0.939693 0.34202 
vn 0 -0.939693 0.34202 
vn 0 -0.939693 0.34202 
f 189//189 190//190 191//191 
f 191//191 192//192 189//189 
o mesh11683
v 0.141623 0.184795 0.0820715 
v 0.141623 0.184193 0.0822903 
v 0.135783 0.184193 0.0822903 
v 0.135783 0.184795 0.0820715 
vn 0 -0.34202 -0.939693 
vn 0 -0.34202 -0.939693 
vn 0 -0.34202 -0.939693 
vn 0 -0.34202 -0.939693 
f 193//193 194//194 195//195 
f 195//195 196//196 193//193 
usemtl 0.168627_0.780392_0.219608_0.000000_0.000000
o mesh11684
v 0.141623 0.185014 0.0826729 
v 0.141623 0.184412 0.0828918 
v 0.141623 0.184193 0.0822903 
v 0.141623 0.184795 0.0820715 
vn 1 0 0 
vn 1 0 0 
vn 1 0 0 
vn 1 0 0 
f 197//197 198//198 199//199 
f 199//199 200//200 197//197 
usemtl 0.823529_0.823529_1.000000_0.000000_0.000000
o mesh11685
v 0.135783 0.184795 0.0820715 
v 0.135783 0.185014 0.0826729 
v 0.141623 0.185014 0.0826729 
v 0.141623 0.184795 0.0820715 
vn 0 0.939693 -0.34202 
vn 0 0.939693 -0.34202 
vn 0 0.939693 -0.34202 
vn 0 0.939693 -0.34202 
f 201//201 202//202 203//203 
f 203//203 204//204 201//201 
o mesh11686
v 0.141623 0.185014 0.0826729 
v 0.135783 0.185014 0.0826729 
v 0.135783 0.184412 0.0828918 
v 0.141623 0.184412 0.0828918 
vn 0 0.34202 0.939693 
vn 0 0.34202 0.939693 
vn 0 0.34202 0.939693 
vn 0 0.34202 0.939693 
f 205//205 206//206 207//207 
f 207//207 208//208 205//205 
o mesh11687
v 0.135783 0.184193 0.0822903 
v 0.141623 0.184193 0.0822903 
v 0.141623 0.184412 0.0828918 
v 0.135783 0.184412 0.0828918 
vn 0 -0.939693 0.34202 
vn 0 -0.939693 0.34202 
vn 0 -0.939693 0.34202 
vn 0 -0.939693 0.34202 
f 209//209 210//210 211//211 
f 211//211 212//212 209//209 
o mesh11688
v 0.141623 0.18658 0.0814216 
v 0.135783 0.18658 0.0814216 
v 0.135783 0.187181 0.0812027 
v 0.141623 0.187181 0.0812027 
vn 0 -0.34202 -0.939693 
vn 0 -0.34202 -0.939693 
vn 0 -0.34202 -0.939693 
vn 0 -0.34202 -0.939693 
f 213//213 214//214 215//215 
f 215//215 216//216 213//213 
o mesh11689
v 0.141623 0.1874 0.0818041 
v 0.141623 0.186799 0.082023 
v 0.141623 0.18658 0.0814216 
v 0.141623 0.187181 0.0812027 
vn 1 0 0 
vn 1 0 0 
vn 1 0 0 
vn 1 0 0 
f 217//217 218//218 219//219 
f 219//219 220//220 217//217 
usemtl 1.000000_1.000000_0.949020_0.000000_0.000000
o mesh11690
v 0.135783 0.187181 0.0812027 
v 0.135783 0.1874 0.0818041 
v 0.141623 0.1874 0.0818041 
v 0.141623 0.187181 0.0812027 
vn 0 0.939693 -0.34202 
vn 0 0.939693 -0.34202 
vn 0 0.939693 -0.34202 
vn 0 0.939693 -0.34202 
f 221//221 222//222 223//223 
f 223//223 224//224 221//221 
usemtl 0.823529_0.823529_1.000000_0.000000_0.000000
o mesh11691
v 0.141623 0.186799 0.082023 
v 0.141623 0.1874 0.0818041 
v 0.135783 0.1874 0.0818041 
v 0.135783 0.186799 0.082023 
vn 0 0.34202 0.939693 
vn 0 0.34202 0.939693 
vn 0 0.34202 0.939693 
vn 0 0.34202 0.939693 
f 225//225 226//226 227//227 
f 227//227 228//228 225//225 
o mesh11692
v 0.135783 0.18658 0.0814216 
v 0.141623 0.18658 0.0814216 
v 0.141623 0.186799 0.082023 
v 0.135783 0.186799 0.082023 
vn 0 -0.939693 0.34202 
vn 0 -0.939693 0.34202 
vn 0 -0.939693 0.34202 
vn 0 -0.939693 0.34202 
f 229//229 230//230 231//231 
f 231//231 232//232 229//229 
o mesh11693
v 0.141623 0.188967 0.0805529 
v 0.135783 0.188967 0.0805529 
v 0.135783 0.189568 0.080334 
v 0.141623 0.189568 0.080334 
vn 0 -0.34202 -0.939693 
vn 0 -0.34202 -0.939693 
vn 0 -0.34202 -0.939693 
vn 0 -0.34202 -0.939693 
f 233//233 234//234 235//235 
f 235//235 236//236 233//233 
o mesh11694
v 0.141623 0.189787 0.0809354 
v 0.141623 0.189186 0.0811543 
v 0.141623 0.188967 0.0805529 
v 0.141623 0.189568 0.080334 
vn 1 0 0 
vn 1 0 0 
vn 1 0 0 
vn 1 0 0 
f 237//237 238//238 239//239 
f 239//239 240//240 237//237 
o mesh11695
v 0.135783 0.189568 0.080334 
v 0.135783 0.189787 0.0809354 
v 0.141623 0.189787 0.0809354 
v 0.141623 0.189568 0.080334 
vn 0 0.939693 -0.34202 
vn 0 0.939693 -0.34202 
vn 0 0.939693 -0.34202 
vn 0 0.939693 -0.34202 
f 241//241 242//242 243//243 
f 243//243 244//244 241//241 
o mesh11696
v 0.141623 0.189186 0.0811543 
v 0.141623 0.189787 0.0809354 
v 0.135783 0.189787 0.0809354 
v 0.135783 0.189186 0.0811543 
vn 0 0.34202 0.939693 
vn 0 0.34202 0.939693 
vn 0 0.34202 0.939693 
vn 0 0.34202 0.939693 
f 245//245 246//246 247//247 
f 247//247 248//248 245//245 
o mesh11697
v 0.135783 0.188967 0.0805529 
v 0.141623 0.188967 0.0805529 
v 0.141623 0.189186 0.0811543 
v 0.135783 0.189186 0.0811543 
vn 0 -0.939693 0.34202 
vn 0 -0.939693 0.34202 
vn 0 -0.939693 0.34202 
vn 0 -0.939693 0.34202 
f 249//249 250//250 251//251 
f 251//251 252//252 249//249 
o mesh11698
v 0.141623 0.191955 0.0794653 
v 0.141623 0.191354 0.0796842 
v 0.135783 0.191354 0.0796842 
v 0.135783 0.191955 0.0794653 
vn 0 -0.34202 -0.939693 
vn 0 -0.34202 -0.939693 
vn 0 -0.34202 -0.939693 
vn 0 -0.34202 -0.939693 
f 253//253 254//254 255//255 
f 255//255 256//256 253//253 
o mesh11699
v 0.141623 0.192174 0.0800667 
v 0.141623 0.191573 0.0802856 
v 0.141623 0.191354 0.0796842 
v 0.141623 0.191955 0.0794653 
vn 1 0 0 
vn 1 0 0 
vn 1 0 0 
vn 1 0 0 
f 257//257 258//258 259//259 
f 259//259 260//260 257//257 
o mesh11700
v 0.135783 0.191955 0.0794653 
v 0.135783 0.192174 0.0800667 
v 0.141623 0.192174 0.0800667 
v 0.141623 0.191955 0.0794653 
vn 0 0.939693 -0.34202 
vn 0 0.939693 -0.34202 
vn 0 0.939693 -0.34202 
vn 0 0.939693 -0.34202 
f 261//261 262//262 263//263 
f 263//263 264//264 261//261 
o mesh11701
v 0.141623 0.192174 0.0800667 
v 0.135783 0.192174 0.0800667 
v 0.135783 0.191573 0.0802856 
v 0.141623 0.191573 0.0802856 
vn 0 0.34202 0.939693 
vn 0 0.34202 0.939693 
vn 0 0.34202 0.939693 
vn 0 0.34202 0.939693 
f 265//265 266//266 267//267 
f 267//267 268//268 265//265 
o mesh11702
v 0.135783 0.191354 0.0796842 
v 0.141623 0.191354 0.0796842 
v 0.141623 0.191573 0.0802856 
v 0.135783 0.191573 0.0802856 
vn 0 -0.939693 0.34202 
vn 0 -0.939693 0.34202 
vn 0 -0.939693 0.34202 
vn 0 -0.939693 0.34202 
f 269//269 270//270 271//271 
f 271//271 272//272 269//269 
o mesh11703
v 0.141623 0.193741 0.0788154 
v 0.135783 0.193741 0.0788154 
v 0.135783 0.194342 0.0785965 
v 0.141623 0.194342 0.0785965 
vn 0 -0.34202 -0.939693 
vn 0 -0.34202 -0.939693 
vn 0 -0.34202 -0.939693 
vn 0 -0.34202 -0.939693 
f 273//273 274//274 275//275 
f 275//275 276//276 273//273 
o mesh11704
v 0.141623 0.194561 0.0791979 
v 0.141623 0.193959 0.0794168 
v 0.141623 0.193741 0.0788154 
v 0.141623 0.194342 0.0785965 
vn 1 0 0 
vn 1 0 0 
vn 1 0 0 
vn 1 0 0 
f 277//277 278//278 279//279 
f 279//279 280//280 277//277 
o mesh11705
v 0.135783 0.194342 0.0785965 
v 0.135783 0.194561 0.0791979 
v 0.141623 0.194561 0.0791979 
v 0.141623 0.194342 0.0785965 
vn 0 0.939693 -0.34202 
vn 0 0.939693 -0.34202 
vn 0 0.939693 -0.34202 
vn 0 0.939693 -0.34202 
f 281//281 282//282 283//283 
f 283//283 284//284 281//281 
o mesh11706
v 0.141623 0.193959 0.0794168 
v 0.141623 0.194561 0.0791979 
v 0.135783 0.194561 0.0791979 
v 0.135783 0.193959 0.0794168 
vn 0 0.34202 0.939693 
vn 0 0.34202 0.939693 
vn 0 0.34202 0.939693 
vn 0 0.34202 0.939693 
f 285//285 286//286 287//287 
f 287//287 288//288 285//285 
o mesh11707
v 0.135783 0.193741 0.0788154 
v 0.141623 0.193741 0.0788154 
v 0.141623 0.193959 0.0794168 
v 0.135783 0.193959 0.0794168 
vn 0 -0.939693 0.34202 
vn 0 -0.939693 0.34202 
vn 0 -0.939693 0.34202 
vn 0 -0.939693 0.34202 
f 289//289 290//290 291//291 
f 291//291 292//292 289//289 
o mesh11708
v 0.135783 0.196729 0.0777278 
v 0.135783 0.196948 0.0783292 
v 0.141623 0.196948 0.0783292 
v 0.141623 0.196729 0.0777278 
vn 0 0.939693 -0.34202 
vn 0 0.939693 -0.34202 
vn 0 0.939693 -0.34202 
vn 0 0.939693 -0.34202 
f 293//293 294//294 295//295 
f 295//295 296//296 293//293 
o mesh11709
v 0.141623 0.196346 0.0785481 
v 0.141623 0.196127 0.0779467 
v 0.141623 0.196729 0.0777278 
v 0.141623 0.196948 0.0783292 
vn 1 0 0 
vn 1 0 0 
vn 1 0 0 
vn 1 0 0 
f 297//297 298//298 299//299 
f 299//299 300//300 297//297 
o mesh11710
v 0.135783 0.196948 0.0783292 
v 0.135783 0.196346 0.0785481 
v 0.141623 0.196346 0.0785481 
v 0.141623 0.196948 0.0783292 
vn 0 0.34202 0.939693 
vn 0 0.34202 0.939693 
vn 0 0.34202 0.939693 
vn 0 0.34202 0.939693 
f 301//301 302//302 303//303 
f 303//303 304//304 301//301 
o mesh11711
v 0.135783 0.196127 0.0779467 
v 0.141623 0.196127 0.0779467 
v 0.141623 0.196346 0.0785481 
v 0.135783 0.196346 0.0785481 
vn 0 -0.939693 0.34202 
vn 0 -0.939693 0.34202 
vn 0 -0.939693 0.34202 
vn 0 -0.939693 0.34202 
f 305//305 306//306 307//307 
f 307//307 308//308 305//305 
o mesh11712
v 0.135783 0.196729 0.0777278 
v 0.141623 0.196729 0.0777278 
v 0.141623 0.196127 0.0779467 
v 0.135783 0.196127 0.0779467 
vn 0 -0.34202 -0.939693 
vn 0 -0.34202 -0.939693 
vn 0 -0.34202 -0.939693 
vn 0 -0.34202 -0.939693 
f 309//309 310//310 311//311 
f 311//311 312//312 309//309 
o mesh11713
v 0.135783 0.199984 0.0792459 
v 0.135783 0.200203 0.0798473 
v 0.141623 0.200203 0.0798473 
v 0.141623 0.199984 0.0792459 
vn 0 0.939693 -0.34202 
vn 0 0.939693 -0.34202 
vn 0 0.939693 -0.34202 
vn 0 0.939693 -0.34202 
f 313//313 314//314 315//315 
f 315//315 316//316 313//313 
o mesh11714
v 0.141623 0.199602 0.0800662 
v 0.141623 0.199383 0.0794648 
v 0.141623 0.199984 0.0792459 
v 0.141623 0.200203 0.0798473 
vn 1 0 0 
vn 1 0 0 
vn 1 0 0 
vn 1 0 0 
f 317//317 318//318 319//319 
f 319//319 320//320 317//317 
o mesh11715
v 0.135783 0.200203 0.0798473 
v 0.135783 0.199602 0.0800662 
v 0.141623 0.199602 0.0800662 
v 0.141623 0.200203 0.0798473 
vn 0 0.34202 0.939693 
vn 0 0.34202 0.939693 
vn 0 0.34202 0.939693 
vn 0 0.34202 0.939693 
f 321//321 322//322 323//323 
f 323//323 324//324 321//321 
o mesh11716
v 0.135783 0.199383 0.0794648 
v 0.141623 0.199383 0.0794648 
v 0.141623 0.199602 0.0800662 
v 0.135783 0.199602 0.0800662 
vn 0 -0.939693 0.34202 
vn 0 -0.939693 0.34202 
vn 0 -0.939693 0.34202 
vn 0 -0.939693 0.34202 
f 325//325 326//326 327//327 
f 327//327 328//328 325//325 
o mesh11717
v 0.135783 0.199984 0.0792459 
v 0.141623 0.199984 0.0792459 
v 0.141623 0.199383 0.0794648 
v 0.135783 0.199383 0.0794648 
vn 0 -0.34202 -0.939693 
vn 0 -0.34202 -0.939693 
vn 0 -0.34202 -0.939693 
vn 0 -0.34202 -0.939693 
f 329//329 330//330 331//331 
f 331//331 332//332 329//329 
o mesh11718
v 0.135783 0.199116 0.0768591 
v 0.135783 0.199334 0.0774605 
v 0.141623 0.199334 0.0774605 
v 0.141623 0.199116 0.0768591 
vn 0 0.939693 -0.34202 
vn 0 0.939693 -0.34202 
vn 0 0.939693 -0.34202 
vn 0 0.939693 -0.34202 
f 333//333 334//334 335//335 
f 335//335 336//336 333//333 
o mesh11719
v 0.141623 0.198733 0.0776794 
v 0.141623 0.198514 0.077078 
v 0.141623 0.199116 0.0768591 
v 0.141623 0.199334 0.0774605 
vn 1 0 0 
vn 1 0 0 
vn 1 0 0 
vn 1 0 0 
f 337//337 338//338 339//339 
f 339//339 340//340 337//337 
o mesh11720
v 0.135783 0.199334 0.0774605 
v 0.135783 0.198733 0.0776794 
v 0.141623 0.198733 0.0776794 
v 0.141623 0.199334 0.0774605 
vn 0 0.34202 0.939693 
vn 0 0.34202 0.939693 
vn 0 0.34202 0.939693 
vn 0 0.34202 0.939693 
f 341//341 342//342 343//343 
f 343//343 344//344 341//341 
o mesh11721
v 0.135783 0.198514 0.077078 
v 0.141623 0.198514 0.077078 
v 0.141623 0.198733 0.0776794 
v 0.135783 0.198733 0.0776794 
vn 0 -0.939693 0.34202 
vn 0 -0.939693 0.34202 
vn 0 -0.939693 0.34202 
vn 0 -0.939693 0.34202 
f 345//345 346//346 347//347 
f 347//347 348//348 345//345 
o mesh11722
v 0.135783 0.199116 0.0768591 
v 0.141623 0.199116 0.0768591 
v 0.141623 0.198514 0.077078 
v 0.135783 0.198514 0.077078 
vn 0 -0.34202 -0.939693 
vn 0 -0.34202 -0.939693 
vn 0 -0.34202 -0.939693 
vn 0 -0.34202 -0.939693 
f 349//349 350//350 351//351 
f 351//351 352//352 349//349 
o mesh11723
v 0.135783 0.197597 0.0801146 
v 0.135783 0.197816 0.080716 
v 0.141623 0.197816 0.080716 
v 0.141623 0.197597 0.0801146 
vn 0 0.939693 -0.34202 
vn 0 0.939693 -0.34202 
vn 0 0.939693 -0.34202 
vn 0 0.939693 -0.34202 
f 353//353 354//354 355//355 
f 355//355 356//356 353//353 
o mesh11724
v 0.141623 0.197215 0.0809349 
v 0.141623 0.196996 0.0803335 
v 0.141623 0.197597 0.0801146 
v 0.141623 0.197816 0.080716 
vn 1 0 0 
vn 1 0 0 
vn 1 0 0 
vn 1 0 0 
f 357//357 358//358 359//359 
f 359//359 360//360 357//357 
o mesh11725
v 0.135783 0.197816 0.080716 
v 0.135783 0.197215 0.0809349 
v 0.141623 0.197215 0.0809349 
v 0.141623 0.197816 0.080716 
vn 0 0.34202 0.939693 
vn 0 0.34202 0.939693 
vn 0 0.34202 0.939693 
vn 0 0.34202 0.939693 
f 361//361 362//362 363//363 
f 363//363 364//364 361//361 
o mesh11726
v 0.135783 0.196996 0.0803335 
v 0.141623 0.196996 0.0803335 
v 0.141623 0.197215 0.0809349 
v 0.135783 0.197215 0.0809349 
vn 0 -0.939693 0.34202 
vn 0 -0.939693 0.34202 
vn 0 -0.939693 0.34202 
vn 0 -0.939693 0.34202 
f 365//365 366//366 367//367 
f 367//367 368//368 365//365 
o mesh11727
v 0.135783 0.197597 0.0801146 
v 0.141623 0.197597 0.0801146 
v 0.141623 0.196996 0.0803335 
v 0.135783 0.196996 0.0803335 
vn 0 -0.34202 -0.939693 
vn 0 -0.34202 -0.939693 
vn 0 -0.34202 -0.939693 
vn 0 -0.34202 -0.939693 
f 369//369 370//370 371//371 
f 371//371 372//372 369//369 
o mesh11728
v 0.141623 0.194609 0.0812022 
v 0.135783 0.194609 0.0812022 
v 0.135783 0.195211 0.0809833 
v 0.141623 0.195211 0.0809833 
vn 0 -0.34202 -0.939693 
vn 0 -0.34202 -0.939693 
vn 0 -0.34202 -0.939693 
vn 0 -0.34202 -0.939693 
f 373//373 374//374 375//375 
f 375//375 376//376 373//373 
o mesh11729
v 0.141623 0.19543 0.0815848 
v 0.141623 0.194828 0.0818036 
v 0.141623 0.194609 0.0812022 
v 0.141623 0.195211 0.0809833 
vn 1 0 0 
vn 1 0 0 
vn 1 0 0 
vn 1 0 0 
f 377//377 378//378 379//379 
f 379//379 380//380 377//377 
o mesh11730
v 0.135783 0.195211 0.0809833 
v 0.135783 0.19543 0.0815848 
v 0.141623 0.19543 0.0815848 
v 0.141623 0.195211 0.0809833 
vn 0 0.939693 -0.34202 
vn 0 0.939693 -0.34202 
vn 0 0.939693 -0.34202 
vn 0 0.939693 -0.34202 
f 381//381 382//382 383//383 
f 383//383 384//384 381//381 
o mesh11731
v 0.141623 0.194828 0.0818036 
v 0.141623 0.19543 0.0815848 
v 0.135783 0.19543 0.0815848 
v 0.135783 0.194828 0.0818036 
vn 0 0.34202 0.939693 
vn 0 0.34202 0.939693 
vn 0 0.34202 0.939693 
vn 0 0.34202 0.939693 
f 385//385 386//386 387//387 
f 387//387 388//388 385//385 
o mesh11732
v 0.135783 0.194609 0.0812022 
v 0.141623 0.194609 0.0812022 
v 0.141623 0.194828 0.0818036 
v 0.135783 0.194828 0.0818036 
vn 0 -0.939693 0.34202 
vn 0 -0.939693 0.34202 
vn 0 -0.939693 0.34202 
vn 0 -0.939693 0.34202 
f 389//389 390//390 391//391 
f 391//391 392//392 389//389 
o mesh11733
v 0.141623 0.192824 0.0818521 
v 0.141623 0.192222 0.082071 
v 0.135783 0.192222 0.082071 
v 0.135783 0.192824 0.0818521 
vn 0 -0.34202 -0.939693 
vn 0 -0.34202 -0.939693 
vn 0 -0.34202 -0.939693 
vn 0 -0.34202 -0.939693 
f 393//393 394//394 395//395 
f 395//395 396//396 393//393 
o mesh11734
v 0.141623 0.193043 0.0824535 
v 0.141623 0.192441 0.0826724 
v 0.141623 0.192222 0.082071 
v 0.141623 0.192824 0.0818521 
vn 1 0 0 
vn 1 0 0 
vn 1 0 0 
vn 1 0 0 
f 397//397 398//398 399//399 
f 399//399 400//400 397//397 
o mesh11735
v 0.135783 0.192824 0.0818521 
v 0.135783 0.193043 0.0824535 
v 0.141623 0.193043 0.0824535 
v 0.141623 0.192824 0.0818521 
vn 0 0.939693 -0.34202 
vn 0 0.939693 -0.34202 
vn 0 0.939693 -0.34202 
vn 0 0.939693 -0.34202 
f 401//401 402//402 403//403 
f 403//403 404//404 401//401 
o mesh11736
v 0.141623 0.193043 0.0824535 
v 0.135783 0.193043 0.0824535 
v 0.135783 0.192441 0.0826724 
v 0.141623 0.192441 0.0826724 
vn 0 0.34202 0.939693 
vn 0 0.34202 0.939693 
vn 0 0.34202 0.939693 
vn 0 0.34202 0.939693 
f 405//405 406//406 407//407 
f 407//407 408//408 405//405 
o mesh11737
v 0.135783 0.192222 0.082071 
v 0.141623 0.192222 0.082071 
v 0.141623 0.192441 0.0826724 
v 0.135783 0.192441 0.0826724 
vn 0 -0.939693 0.34202 
vn 0 -0.939693 0.34202 
vn 0 -0.939693 0.34202 
vn 0 -0.939693 0.34202 
f 409//409 410//410 411//411 
f 411//411 412//412 409//409 
o mesh11738
v 0.141623 0.189836 0.0829397 
v 0.135783 0.189836 0.0829397 
v 0.135783 0.190437 0.0827208 
v 0.141623 0.190437 0.0827208 
vn 0 -0.34202 -0.939693 
vn 0 -0.34202 -0.939693 
vn 0 -0.34202 -0.939693 
vn 0 -0.34202 -0.939693 
f 413//413 414//414 415//415 
f 415//415 416//416 413//413 
o mesh11739
v 0.141623 0.190656 0.0833222 
v 0.141623 0.190055 0.0835411 
v 0.141623 0.189836 0.0829397 
v 0.141623 0.190437 0.0827208 
vn 1 0 0 
vn 1 0 0 
vn 1 0 0 
vn 1 0 0 
f 417//417 418//418 419//419 
f 419//419 420//420 417//417 
o mesh11740
v 0.135783 0.190437 0.0827208 
v 0.135783 0.190656 0.0833222 
v 0.141623 0.190656 0.0833222 
v 0.141623 0.190437 0.0827208 
vn 0 0.939693 -0.34202 
vn 0 0.939693 -0.34202 
vn 0 0.939693 -0.34202 
vn 0 0.939693 -0.34202 
f 421//421 422//422 423//423 
f 423//423 424//424 421//421 
o mesh11741
v 0.141623 0.190055 0.0835411 
v 0.141623 0.190656 0.0833222 
v 0.135783 0.190656 0.0833222 
v 0.135783 0.190055 0.0835411 
vn 0 0.34202 0.939693 
vn 0 0.34202 0.939693 
vn 0 0.34202 0.939693 
vn 0 0.34202 0.939693 
f 425//425 426//426 427//427 
f 427//427 428//428 425//425 
o mesh11742
v 0.135783 0.189836 0.0829397 
v 0.141623 0.189836 0.0829397 
v 0.141623 0.190055 0.0835411 
v 0.135783 0.190055 0.0835411 
vn 0 -0.939693 0.34202 
vn 0 -0.939693 0.34202 
vn 0 -0.939693 0.34202 
vn 0 -0.939693 0.34202 
f 429//429 430//430 431//431 
f 431//431 432//432 429//429 
o mesh11743
v 0.141623 0.187449 0.0838084 
v 0.135783 0.187449 0.0838084 
v 0.135783 0.18805 0.0835895 
v 0.141623 0.18805 0.0835895 
vn 0 -0.34202 -0.939693 
vn 0 -0.34202 -0.939693 
vn 0 -0.34202 -0.939693 
vn 0 -0.34202 -0.939693 
f 433//433 434//434 435//435 
f 435//435 436//436 433//433 
o mesh11744
v 0.141623 0.188269 0.0841909 
v 0.141623 0.187668 0.0844098 
v 0.141623 0.187449 0.0838084 
v 0.141623 0.18805 0.0835895 
vn 1 0 0 
vn 1 0 0 
vn 1 0 0 
vn 1 0 0 
f 437//437 438//438 439//439 
f 439//439 440//440 437//437 
o mesh11745
v 0.135783 0.18805 0.0835895 
v 0.135783 0.188269 0.0841909 
v 0.141623 0.188269 0.0841909 
v 0.141623 0.18805 0.0835895 
vn 0 0.939693 -0.34202 
vn 0 0.939693 -0.34202 
vn 0 0.939693 -0.34202 
vn 0 0.939693 -0.34202 
f 441//441 442//442 443//443 
f 443//443 444//444 441//441 
o mesh11746
v 0.141623 0.187668 0.0844098 
v 0.141623 0.188269 0.0841909 
v 0.135783 0.188269 0.0841909 
v 0.135783 0.187668 0.0844098 
vn 0 0.34202 0.939693 
vn 0 0.34202 0.939693 
vn 0 0.34202 0.939693 
vn 0 0.34202 0.939693 
f 445//445 446//446 447//447 
f 447//447 448//448 445//445 
o mesh11747
v 0.135783 0.187449 0.0838084 
v 0.141623 0.187449 0.0838084 
v 0.141623 0.187668 0.0844098 
v 0.135783 0.187668 0.0844098 
vn 0 -0.939693 0.34202 
vn 0 -0.939693 0.34202 
vn 0 -0.939693 0.34202 
vn 0 -0.939693 0.34202 
f 449//449 450//450 451//451 
f 451//451 452//452 449//449 
o mesh11748
v 0.141623 0.185663 0.0844583 
v 0.141623 0.185062 0.0846772 
v 0.135783 0.185062 0.0846772 
v 0.135783 0.185663 0.0844583 
vn 0 -0.34202 -0.939693 
vn 0 -0.34202 -0.939693 
vn 0 -0.34202 -0.939693 
vn 0 -0.34202 -0.939693 
f 453//453 454//454 455//455 
f 455//455 456//456 453//453 
o mesh11749
v 0.141623 0.185882 0.0850597 
v 0.141623 0.185281 0.0852786 
v 0.141623 0.185062 0.0846772 
v 0.141623 0.185663 0.0844583 
vn 1 0 0 
vn 1 0 0 
vn 1 0 0 
vn 1 0 0 
f 457//457 458//458 459//459 
f 459//459 460//460 457//457 
o mesh11750
v 0.135783 0.185663 0.0844583 
v 0.135783 0.185882 0.0850597 
v 0.141623 0.185882 0.0850597 
v 0.141623 0.185663 0.0844583 
vn 0 0.939693 -0.34202 
vn 0 0.939693 -0.34202 
vn 0 0.939693 -0.34202 
vn 0 0.939693 -0.34202 
f 461//461 462//462 463//463 
f 463//463 464//464 461//461 
o mesh11751
v 0.141623 0.185882 0.0850597 
v 0.135783 0.185882 0.0850597 
v 0.135783 0.185281 0.0852786 
v 0.141623 0.185281 0.0852786 
vn 0 0.34202 0.939693 
vn 0 0.34202 0.939693 
vn 0 0.34202 0.939693 
vn 0 0.34202 0.939693 
f 465//465 466//466 467//467 
f 467//467 468//468 465//465 
o mesh11752
v 0.135783 0.185062 0.0846772 
v 0.141623 0.185062 0.0846772 
v 0.141623 0.185281 0.0852786 
v 0.135783 0.185281 0.0852786 
vn 0 -0.939693 0.34202 
vn 0 -0.939693 0.34202 
vn 0 -0.939693 0.34202 
vn 0 -0.939693 0.34202 
f 469//469 470//470 471//471 
f 471//471 472//472 469//469 
o mesh11753
v 0.135783 0.182675 0.0855459 
v 0.135783 0.183277 0.085327 
v 0.141623 0.183277 0.085327 
v 0.141623 0.182675 0.0855459 
vn 0 -0.34202 -0.939693 
vn 0 -0.34202 -0.939693 
vn 0 -0.34202 -0.939693 
vn 0 -0.34202 -0.939693 
f 473//473 474//474 475//475 
f 475//475 476//476 473//473 
o mesh11754
v 0.141623 0.183495 0.0859284 
v 0.141623 0.182894 0.0861473 
v 0.141623 0.182675 0.0855459 
v 0.141623 0.183277 0.085327 
vn 1 0 0 
vn 1 0 0 
vn 1 0 0 
vn 1 0 0 
f 477//477 478//478 479//479 
f 479//479 480//480 477//477 
o mesh11755
v 0.135783 0.183277 0.085327 
v 0.135783 0.183495 0.0859284 
v 0.141623 0.183495 0.0859284 
v 0.141623 0.183277 0.085327 
vn 0 0.939693 -0.34202 
vn 0 0.939693 -0.34202 
vn 0 0.939693 -0.34202 
vn 0 0.939693 -0.34202 
f 481//481 482//482 483//483 
f 483//483 484//484 481//481 
o mesh11756
v 0.135783 0.182894 0.0861473 
v 0.141623 0.182894 0.0861473 
v 0.141623 0.183495 0.0859284 
v 0.135783 0.183495 0.0859284 
vn 0 0.34202 0.939693 
vn 0 0.34202 0.939693 
vn 0 0.34202 0.939693 
vn 0 0.34202 0.939693 
f 485//485 486//486 487//487 
f 487//487 488//488 485//485 
o mesh11757
v 0.135783 0.182675 0.0855459 
v 0.141623 0.182675 0.0855459 
v 0.141623 0.182894 0.0861473 
v 0.135783 0.182894 0.0861473 
vn 0 -0.939693 0.34202 
vn 0 -0.939693 0.34202 
vn 0 -0.939693 0.34202 
vn 0 -0.939693 0.34202 
f 489//489 490//490 491//491 
f 491//491 492//492 489//489 
o mesh11758
v 0.135783 0.18089 0.0861957 
v 0.141623 0.18089 0.0861957 
v 0.141623 0.180288 0.0864146 
v 0.135783 0.180288 0.0864146 
vn 0 -0.34202 -0.939693 
vn 0 -0.34202 -0.939693 
vn 0 -0.34202 -0.939693 
vn 0 -0.34202 -0.939693 
f 493//493 494//494 495//495 
f 495//495 496//496 493//493 
o mesh11759
v 0.141623 0.181109 0.0867971 
v 0.141623 0.180507 0.087016 
v 0.141623 0.180288 0.0864146 
v 0.141623 0.18089 0.0861957 
vn 1 0 0 
vn 1 0 0 
vn 1 0 0 
vn 1 0 0 
f 497//497 498//498 499//499 
f 499//499 500//500 497//497 
o mesh11760
v 0.135783 0.18089 0.0861957 
v 0.135783 0.181109 0.0867971 
v 0.141623 0.181109 0.0867971 
v 0.141623 0.18089 0.0861957 
vn 0 0.939693 -0.34202 
vn 0 0.939693 -0.34202 
vn 0 0.939693 -0.34202 
vn 0 0.939693 -0.34202 
f 501//501 502//502 503//503 
f 503//503 504//504 501//501 
o mesh11761
v 0.135783 0.181109 0.0867971 
v 0.135783 0.180507 0.087016 
v 0.141623 0.180507 0.087016 
v 0.141623 0.181109 0.0867971 
vn 0 0.34202 0.939693 
vn 0 0.34202 0.939693 
vn 0 0.34202 0.939693 
vn 0 0.34202 0.939693 
f 505//505 506//506 507//507 
f 507//507 508//508 505//505 
o mesh11762
v 0.135783 0.180288 0.0864146 
v 0.141623 0.180288 0.0864146 
v 0.141623 0.180507 0.087016 
v 0.135783 0.180507 0.087016 
vn 0 -0.939693 0.34202 
vn 0 -0.939693 0.34202 
vn 0 -0.939693 0.34202 
vn 0 -0.939693 0.34202 
f 509//509 510//510 511//511 
f 511//511 512//512 509//509 
usemtl 0.372549_0.372549_0.372549_0.000000_0.000000
o mesh11763
v 0.133243 0.178484 0.0833574 
v 0.133243 0.180307 0.0826939 
v 0.135783 0.180307 0.0826939 
v 0.135783 0.178484 0.0833574 
vn 0 -0.34202 -0.939693 
vn 0 -0.34202 -0.939693 
vn 0 -0.34202 -0.939693 
vn 0 -0.34202 -0.939693 
f 513//513 514//514 515//515 
f 515//515 516//516 513//513 
o mesh11764
v 0.135783 0.178305 0.0837419 
v 0.133243 0.178305 0.0837419 
v 0.133243 0.178484 0.0833574 
v 0.135783 0.178484 0.0833574 
vn 0 -0.906308 -0.422618 
vn 0 -0.906308 -0.422618 
vn 0 -0.906308 -0.422618 
vn 0 -0.906308 -0.422618 
f 517//517 518//518 519//519 
f 519//519 520//520 517//517 
o mesh11765
v 0.135783 0.178305 0.0837419 
v 0.135783 0.179071 0.0858468 
v 0.133243 0.179071 0.0858468 
v 0.133243 0.179777 0.0877873 
v 0.135783 0.179777 0.0877873 
v 0.133243 0.179837 0.0879518 
v 0.135783 0.179837 0.0879518 
v 0.133243 0.178305 0.0837419 
vn 0 -0.939693 0.34202 
vn 0 -0.939693 0.34202 
vn 0 -0.939693 0.34202 
vn 0 -0.939693 0.34202 
vn 0 -0.939693 0.34202 
vn 0 -0.939693 0.34202 
vn 0 -0.939693 0.34202 
vn 0 -0.939693 0.34202 
f 521//521 522//522 523//523 
f 524//524 523//523 522//522 
f 522//522 525//525 524//524 
f 526//526 524//524 525//525 
f 525//525 527//527 526//526 
f 523//523 528//528 521//521 
o mesh11766
v 0.135783 0.180221 0.0881311 
v 0.133243 0.180221 0.0881311 
v 0.133243 0.179837 0.0879518 
v 0.135783 0.179837 0.0879518 
vn 0 -0.422618 0.906308 
vn 0 -0.422618 0.906308 
vn 0 -0.422618 0.906308 
vn 0 -0.422618 0.906308 
f 529//529 530//530 531//531 
f 531//531 532//532 529//529 
o mesh11767
v 0.135783 0.180221 0.0881311 
v 0.135783 0.182044 0.0874675 
v 0.133243 0.182044 0.0874675 
v 0.133243 0.180221 0.0881311 
vn 0 0.34202 0.939693 
vn 0 0.34202 0.939693 
vn 0 0.34202 0.939693 
vn 0 0.34202 0.939693 
f 533//533 534//534 535//535 
f 535//535 536//536 533//533 
o mesh11768
v 0.135783 0.182224 0.087083 
v 0.133243 0.182224 0.087083 
v 0.133243 0.182044 0.0874675 
v 0.135783 0.182044 0.0874675 
vn 0 0.906308 0.422618 
vn 0 0.906308 0.422618 
vn 0 0.906308 0.422618 
vn 0 0.906308 0.422618 
f 537//537 538//538 539//539 
f 539//539 540//540 537//537 
o mesh11769
v 0.135783 0.182608 0.0872623 
v 0.133243 0.182608 0.0872623 
v 0.133243 0.182224 0.087083 
v 0.135783 0.182224 0.087083 
vn 0 -0.422618 0.906308 
vn 0 -0.422618 0.906308 
vn 0 -0.422618 0.906308 
vn 0 -0.422618 0.906308 
f 541//541 542//542 543//543 
f 543//543 544//544 541//541 
o mesh11770
v 0.133243 0.184431 0.0865988 
v 0.133243 0.182608 0.0872623 
v 0.135783 0.182608 0.0872623 
v 0.135783 0.184431 0.0865988 
vn 0 0.34202 0.939693 
vn 0 0.34202 0.939693 
vn 0 0.34202 0.939693 
vn 0 0.34202 0.939693 
f 545//545 546//546 547//547 
f 547//547 548//548 545//545 
o mesh11771
v 0.135783 0.18461 0.0862143 
v 0.133243 0.18461 0.0862143 
v 0.133243 0.184431 0.0865988 
v 0.135783 0.184431 0.0865988 
vn 0 0.906308 0.422618 
vn 0 0.906308 0.422618 
vn 0 0.906308 0.422618 
vn 0 0.906308 0.422618 
f 549//549 550//550 551//551 
f 551//551 552//552 549//549 
o mesh11772
v 0.135783 0.184995 0.0863936 
v 0.133243 0.184995 0.0863936 
v 0.133243 0.18461 0.0862143 
v 0.135783 0.18461 0.0862143 
vn 0 -0.422618 0.906308 
vn 0 -0.422618 0.906308 
vn 0 -0.422618 0.906308 
vn 0 -0.422618 0.906308 
f 553//553 554//554 555//555 
f 555//555 556//556 553//553 
o mesh11773
v 0.135783 0.184995 0.0863936 
v 0.135783 0.186818 0.0857301 
v 0.133243 0.186818 0.0857301 
v 0.133243 0.184995 0.0863936 
vn 0 0.34202 0.939693 
vn 0 0.34202 0.939693 
vn 0 0.34202 0.939693 
vn 0 0.34202 0.939693 
f 557//557 558//558 559//559 
f 559//559 560//560 557//557 
o mesh11774
v 0.135783 0.186997 0.0853456 
v 0.133243 0.186997 0.0853456 
v 0.133243 0.186818 0.0857301 
v 0.135783 0.186818 0.0857301 
vn 0 0.906308 0.422618 
vn 0 0.906308 0.422618 
vn 0 0.906308 0.422618 
vn 0 0.906308 0.422618 
f 561//561 562//562 563//563 
f 563//563 564//564 561//561 
o mesh11775
v 0.135783 0.187382 0.0855249 
v 0.133243 0.187382 0.0855249 
v 0.133243 0.186997 0.0853456 
v 0.135783 0.186997 0.0853456 
vn 0 -0.422618 0.906308 
vn 0 -0.422618 0.906308 
vn 0 -0.422618 0.906308 
vn 0 -0.422618 0.906308 
f 565//565 566//566 567//567 
f 567//567 568//568 565//565 
o mesh11776
v 0.133243 0.187382 0.0855249 
v 0.135783 0.187382 0.0855249 
v 0.135783 0.189205 0.0848613 
v 0.133243 0.189205 0.0848613 
vn 0 0.34202 0.939693 
vn 0 0.34202 0.939693 
vn 0 0.34202 0.939693 
vn 0 0.34202 0.939693 
f 569//569 570//570 571//571 
f 571//571 572//572 569//569 
o mesh11777
v 0.135783 0.189384 0.0844768 
v 0.133243 0.189384 0.0844768 
v 0.133243 0.189205 0.0848613 
v 0.135783 0.189205 0.0848613 
vn 0 0.906308 0.422618 
vn 0 0.906308 0.422618 
vn 0 0.906308 0.422618 
vn 0 0.906308 0.422618 
f 573//573 574//574 575//575 
f 575//575 576//576 573//573 
o mesh11778
v 0.135783 0.189769 0.0846561 
v 0.133243 0.189769 0.0846561 
v 0.133243 0.189384 0.0844768 
v 0.135783 0.189384 0.0844768 
vn 0 -0.422618 0.906308 
vn 0 -0.422618 0.906308 
vn 0 -0.422618 0.906308 
vn 0 -0.422618 0.906308 
f 577//577 578//578 579//579 
f 579//579 580//580 577//577 
o mesh11779
v 0.133243 0.189769 0.0846561 
v 0.135783 0.189769 0.0846561 
v 0.135783 0.191592 0.0839926 
v 0.133243 0.191592 0.0839926 
vn 0 0.34202 0.939693 
vn 0 0.34202 0.939693 
vn 0 0.34202 0.939693 
vn 0 0.34202 0.939693 
f 581//581 582//582 583//583 
f 583//583 584//584 581//581 
o mesh11780
v 0.135783 0.191771 0.0836081 
v 0.133243 0.191771 0.0836081 
v 0.133243 0.191592 0.0839926 
v 0.135783 0.191592 0.0839926 
vn 0 0.906308 0.422618 
vn 0 0.906308 0.422618 
vn 0 0.906308 0.422618 
vn 0 0.906308 0.422618 
f 585//585 586//586 587//587 
f 587//587 588//588 585//585 
o mesh11781
v 0.135783 0.192155 0.0837874 
v 0.133243 0.192155 0.0837874 
v 0.133243 0.191771 0.0836081 
v 0.135783 0.191771 0.0836081 
vn 0 -0.422618 0.906308 
vn 0 -0.422618 0.906308 
vn 0 -0.422618 0.906308 
vn 0 -0.422618 0.906308 
f 589//589 590//590 591//591 
f 591//591 592//592 589//589 
o mesh11782
v 0.133243 0.193978 0.0831239 
v 0.133243 0.192155 0.0837874 
v 0.135783 0.192155 0.0837874 
v 0.135783 0.193978 0.0831239 
vn 0 0.34202 0.939693 
vn 0 0.34202 0.939693 
vn 0 0.34202 0.939693 
vn 0 0.34202 0.939693 
f 593//593 594//594 595//595 
f 595//595 596//596 593//593 
o mesh11783
v 0.135783 0.194158 0.0827394 
v 0.133243 0.194158 0.0827394 
v 0.133243 0.193978 0.0831239 
v 0.135783 0.193978 0.0831239 
vn 0 0.906308 0.422618 
vn 0 0.906308 0.422618 
vn 0 0.906308 0.422618 
vn 0 0.906308 0.422618 
f 597//597 598//598 599//599 
f 599//599 600//600 597//597 
o mesh11784
v 0.135783 0.194542 0.0829187 
v 0.133243 0.194542 0.0829187 
v 0.133243 0.194158 0.0827394 
v 0.135783 0.194158 0.0827394 
vn 0 -0.422618 0.906308 
vn 0 -0.422618 0.906308 
vn 0 -0.422618 0.906308 
vn 0 -0.422618 0.906308 
f 601//601 602//602 603//603 
f 603//603 604//604 601//601 
o mesh11785
v 0.135783 0.194542 0.0829187 
v 0.135783 0.196365 0.0822551 
v 0.133243 0.196365 0.0822551 
v 0.133243 0.194542 0.0829187 
vn 0 0.34202 0.939693 
vn 0 0.34202 0.939693 
vn 0 0.34202 0.939693 
vn 0 0.34202 0.939693 
f 605//605 606//606 607//607 
f 607//607 608//608 605//605 
o mesh11786
v 0.135783 0.196545 0.0818706 
v 0.133243 0.196545 0.0818706 
v 0.133243 0.196365 0.0822551 
v 0.135783 0.196365 0.0822551 
vn 0 0.906308 0.422618 
vn 0 0.906308 0.422618 
vn 0 0.906308 0.422618 
vn 0 0.906308 0.422618 
f 609//609 610//610 611//611 
f 611//611 612//612 609//609 
o mesh11787
v 0.135783 0.196929 0.0820499 
v 0.133243 0.196929 0.0820499 
v 0.133243 0.196545 0.0818706 
v 0.135783 0.196545 0.0818706 
vn 0 -0.422618 0.906308 
vn 0 -0.422618 0.906308 
vn 0 -0.422618 0.906308 
vn 0 -0.422618 0.906308 
f 613//613 614//614 615//615 
f 615//615 616//616 613//613 
o mesh11788
v 0.133243 0.198752 0.0813864 
v 0.133243 0.196929 0.0820499 
v 0.135783 0.196929 0.0820499 
v 0.135783 0.198752 0.0813864 
vn 0 0.34202 0.939693 
vn 0 0.34202 0.939693 
vn 0 0.34202 0.939693 
vn 0 0.34202 0.939693 
f 617//617 618//618 619//619 
f 619//619 620//620 617//617 
o mesh11789
v 0.135783 0.198931 0.0810019 
v 0.133243 0.198931 0.0810019 
v 0.133243 0.198752 0.0813864 
v 0.135783 0.198752 0.0813864 
vn 0 0.906308 0.422618 
vn 0 0.906308 0.422618 
vn 0 0.906308 0.422618 
vn 0 0.906308 0.422618 
f 621//621 622//622 623//623 
f 623//623 624//624 621//621 
o mesh11790
v 0.135783 0.199316 0.0811812 
v 0.133243 0.199316 0.0811812 
v 0.133243 0.198931 0.0810019 
v 0.135783 0.198931 0.0810019 
vn 0 -0.422618 0.906308 
vn 0 -0.422618 0.906308 
vn 0 -0.422618 0.906308 
vn 0 -0.422618 0.906308 
f 625//625 626//626 627//627 
f 627//627 628//628 625//625 
o mesh11791
v 0.133243 0.201139 0.0805177 
v 0.133243 0.200974 0.0805775 
v 0.135783 0.200974 0.0805775 
v 0.135783 0.199316 0.0811812 
v 0.133243 0.199316 0.0811812 
v 0.135783 0.201139 0.0805177 
vn 0 0.34202 0.939693 
vn 0 0.34202 0.939693 
vn 0 0.34202 0.939693 
vn 0 0.34202 0.939693 
vn 0 0.34202 0.939693 
vn 0 0.34202 0.939693 
f 629//629 630//630 631//631 
f 632//632 631//631 630//630 
f 630//630 633//633 632//632 
f 631//631 634//634 629//629 
o mesh11792
v 0.135783 0.201318 0.0801332 
v 0.133243 0.201318 0.0801332 
v 0.133243 0.201139 0.0805177 
v 0.135783 0.201139 0.0805177 
vn 0 0.906308 0.422618 
vn 0 0.906308 0.422618 
vn 0 0.906308 0.422618 
vn 0 0.906308 0.422618 
f 635//635 636//636 637//637 
f 637//637 638//638 635//635 
o mesh11793
v 0.133243 0.201318 0.0801332 
v 0.135783 0.201318 0.0801332 
v 0.135783 0.201258 0.0799687 
v 0.135783 0.200552 0.0780283 
v 0.133243 0.200552 0.0780283 
v 0.133243 0.201258 0.0799687 
v 0.135783 0.199786 0.0759233 
v 0.133243 0.199786 0.0759233 
vn 0 0.939693 -0.34202 
vn 0 0.939693 -0.34202 
vn 0 0.939693 -0.34202 
vn 0 0.939693 -0.34202 
vn 0 0.939693 -0.34202 
vn 0 0.939693 -0.34202 
vn 0 0.939693 -0.34202 
vn 0 0.939693 -0.34202 
f 639//639 640//640 641//641 
f 642//642 643//643 644//644 
f 644//644 641//641 642//642 
f 645//645 646//646 643//643 
f 643//643 642//642 645//645 
f 641//641 644//644 639//639 
o mesh11794
v 0.135783 0.199401 0.075744 
v 0.133243 0.199401 0.075744 
v 0.133243 0.199786 0.0759233 
v 0.135783 0.199786 0.0759233 
vn 0 0.422618 -0.906308 
vn 0 0.422618 -0.906308 
vn 0 0.422618 -0.906308 
vn 0 0.422618 -0.906308 
f 647//647 648//648 649//649 
f 649//649 650//650 647//647 
o mesh11795
v 0.133243 0.199401 0.075744 
v 0.135783 0.199401 0.075744 
v 0.135783 0.199237 0.0758039 
v 0.135783 0.197578 0.0764076 
v 0.133243 0.197578 0.0764076 
v 0.133243 0.199237 0.0758039 
vn 0 -0.34202 -0.939693 
vn 0 -0.34202 -0.939693 
vn 0 -0.34202 -0.939693 
vn 0 -0.34202 -0.939693 
vn 0 -0.34202 -0.939693 
vn 0 -0.34202 -0.939693 
f 651//651 652//652 653//653 
f 654//654 655//655 656//656 
f 656//656 653//653 654//654 
f 653//653 656//656 651//651 
usemtl 0.168627_0.780392_0.219608_0.000000_0.000000
o mesh11796
v 0.135783 0.197399 0.0767921 
v 0.133243 0.197399 0.0767921 
v 0.133243 0.197578 0.0764076 
v 0.135783 0.197578 0.0764076 
vn 0 -0.906308 -0.422618 
vn 0 -0.906308 -0.422618 
vn 0 -0.906308 -0.422618 
vn 0 -0.906308 -0.422618 
f 657//657 658//658 659//659 
f 659//659 660//660 657//657 
usemtl 0.372549_0.372549_0.372549_0.000000_0.000000
o mesh11797
v 0.135783 0.197015 0.0766128 
v 0.133243 0.197015 0.0766128 
v 0.133243 0.197399 0.0767921 
v 0.135783 0.197399 0.0767921 
vn 0 0.422618 -0.906308 
vn 0 0.422618 -0.906308 
vn 0 0.422618 -0.906308 
vn 0 0.422618 -0.906308 
f 661//661 662//662 663//663 
f 663//663 664//664 661//661 
o mesh11798
v 0.133243 0.195192 0.0772763 
v 0.133243 0.197015 0.0766128 
v 0.135783 0.197015 0.0766128 
v 0.135783 0.195192 0.0772763 
vn 0 -0.34202 -0.939693 
vn 0 -0.34202 -0.939693 
vn 0 -0.34202 -0.939693 
vn 0 -0.34202 -0.939693 
f 665//665 666//666 667//667 
f 667//667 668//668 665//665 
o mesh11799
v 0.135783 0.195012 0.0776608 
v 0.133243 0.195012 0.0776608 
v 0.133243 0.195192 0.0772763 
v 0.135783 0.195192 0.0772763 
vn 0 -0.906308 -0.422618 
vn 0 -0.906308 -0.422618 
vn 0 -0.906308 -0.422618 
vn 0 -0.906308 -0.422618 
f 669//669 670//670 671//671 
f 671//671 672//672 669//669 
o mesh11800
v 0.135783 0.194628 0.0774815 
v 0.133243 0.194628 0.0774815 
v 0.133243 0.195012 0.0776608 
v 0.135783 0.195012 0.0776608 
vn 0 0.422618 -0.906308 
vn 0 0.422618 -0.906308 
vn 0 0.422618 -0.906308 
vn 0 0.422618 -0.906308 
f 673//673 674//674 675//675 
f 675//675 676//676 673//673 
o mesh11801
v 0.133243 0.192805 0.078145 
v 0.133243 0.194628 0.0774815 
v 0.135783 0.194628 0.0774815 
v 0.135783 0.192805 0.078145 
vn 0 -0.34202 -0.939693 
vn 0 -0.34202 -0.939693 
vn 0 -0.34202 -0.939693 
vn 0 -0.34202 -0.939693 
f 677//677 678//678 679//679 
f 679//679 680//680 677//677 
o mesh11802
v 0.135783 0.192626 0.0785295 
v 0.133243 0.192626 0.0785295 
v 0.133243 0.192805 0.078145 
v 0.135783 0.192805 0.078145 
vn 0 -0.906308 -0.422618 
vn 0 -0.906308 -0.422618 
vn 0 -0.906308 -0.422618 
vn 0 -0.906308 -0.422618 
f 681//681 682//682 683//683 
f 683//683 684//684 681//681 
o mesh11803
v 0.135783 0.192241 0.0783502 
v 0.133243 0.192241 0.0783502 
v 0.133243 0.192626 0.0785295 
v 0.135783 0.192626 0.0785295 
vn 0 0.422618 -0.906308 
vn 0 0.422618 -0.906308 
vn 0 0.422618 -0.906308 
vn 0 0.422618 -0.906308 
f 685//685 686//686 687//687 
f 687//687 688//688 685//685 
o mesh11804
v 0.133243 0.190418 0.0790138 
v 0.133243 0.192241 0.0783502 
v 0.135783 0.192241 0.0783502 
v 0.135783 0.190418 0.0790138 
vn 0 -0.34202 -0.939693 
vn 0 -0.34202 -0.939693 
vn 0 -0.34202 -0.939693 
vn 0 -0.34202 -0.939693 
f 689//689 690//690 691//691 
f 691//691 692//692 689//689 
o mesh11805
v 0.135783 0.190239 0.0793983 
v 0.133243 0.190239 0.0793983 
v 0.133243 0.190418 0.0790138 
v 0.135783 0.190418 0.0790138 
vn 0 -0.906308 -0.422618 
vn 0 -0.906308 -0.422618 
vn 0 -0.906308 -0.422618 
vn 0 -0.906308 -0.422618 
f 693//693 694//694 695//695 
f 695//695 696//696 693//693 
o mesh11806
v 0.135783 0.189854 0.079219 
v 0.133243 0.189854 0.079219 
v 0.133243 0.190239 0.0793983 
v 0.135783 0.190239 0.0793983 
vn 0 0.422618 -0.906308 
vn 0 0.422618 -0.906308 
vn 0 0.422618 -0.906308 
vn 0 0.422618 -0.906308 
f 697//697 698//698 699//699 
f 699//699 700//700 697//697 
o mesh11807
v 0.133243 0.188031 0.0798825 
v 0.133243 0.189854 0.079219 
v 0.135783 0.189854 0.079219 
v 0.135783 0.188031 0.0798825 
vn 0 -0.34202 -0.939693 
vn 0 -0.34202 -0.939693 
vn 0 -0.34202 -0.939693 
vn 0 -0.34202 -0.939693 
f 701//701 702//702 703//703 
f 703//703 704//704 701//701 
o mesh11808
v 0.135783 0.187852 0.080267 
v 0.133243 0.187852 0.080267 
v 0.133243 0.188031 0.0798825 
v 0.135783 0.188031 0.0798825 
vn 0 -0.906308 -0.422618 
vn 0 -0.906308 -0.422618 
vn 0 -0.906308 -0.422618 
vn 0 -0.906308 -0.422618 
f 705//705 706//706 707//707 
f 707//707 708//708 705//705 
o mesh11809
v 0.135783 0.187467 0.0800877 
v 0.133243 0.187467 0.0800877 
v 0.133243 0.187852 0.080267 
v 0.135783 0.187852 0.080267 
vn 0 0.422618 -0.906308 
vn 0 0.422618 -0.906308 
vn 0 0.422618 -0.906308 
vn 0 0.422618 -0.906308 
f 709//709 710//710 711//711 
f 711//711 712//712 709//709 
o mesh11810
v 0.133243 0.185644 0.0807512 
v 0.133243 0.187467 0.0800877 
v 0.135783 0.187467 0.0800877 
v 0.135783 0.185644 0.0807512 
vn 0 -0.34202 -0.939693 
vn 0 -0.34202 -0.939693 
vn 0 -0.34202 -0.939693 
vn 0 -0.34202 -0.939693 
f 713//713 714//714 715//715 
f 715//715 716//716 713//713 
o mesh11811
v 0.135783 0.185465 0.0811357 
v 0.133243 0.185465 0.0811357 
v 0.133243 0.185644 0.0807512 
v 0.135783 0.185644 0.0807512 
vn 0 -0.906308 -0.422618 
vn 0 -0.906308 -0.422618 
vn 0 -0.906308 -0.422618 
vn 0 -0.906308 -0.422618 
f 717//717 718//718 719//719 
f 719//719 720//720 717//717 
o mesh11812
v 0.135783 0.185081 0.0809564 
v 0.133243 0.185081 0.0809564 
v 0.133243 0.185465 0.0811357 
v 0.135783 0.185465 0.0811357 
vn 0 0.422618 -0.906308 
vn 0 0.422618 -0.906308 
vn 0 0.422618 -0.906308 
vn 0 0.422618 -0.906308 
f 721//721 722//722 723//723 
f 723//723 724//724 721//721 
o mesh11813
v 0.135783 0.183258 0.08162 
v 0.133243 0.183258 0.08162 
v 0.133243 0.185081 0.0809564 
v 0.135783 0.185081 0.0809564 
vn 0 -0.34202 -0.939693 
vn 0 -0.34202 -0.939693 
vn 0 -0.34202 -0.939693 
vn 0 -0.34202 -0.939693 
f 725//725 726//726 727//727 
f 727//727 728//728 725//725 
usemtl 0.043137_0.070588_0.294118_0.000000_0.000000
o mesh11814
v 0.135783 0.180307 0.0826939 
v 0.133243 0.180307 0.0826939 
v 0.133243 0.180691 0.0828732 
v 0.135783 0.180691 0.0828732 
vn 0 0.422618 -0.906308 
vn 0 0.422618 -0.906308 
vn 0 0.422618 -0.906308 
vn 0 0.422618 -0.906308 
f 729//729 730//730 731//731 
f 731//731 732//732 729//729 
usemtl 0.372549_0.372549_0.372549_0.000000_0.000000
o mesh11815
v 0.133243 0.183078 0.0820045 
v 0.133243 0.183258 0.08162 
v 0.135783 0.183258 0.08162 
v 0.135783 0.183078 0.0820045 
vn 0 -0.906308 -0.422618 
vn 0 -0.906308 -0.422618 
vn 0 -0.906308 -0.422618 
vn 0 -0.906308 -0.422618 
f 733//733 734//734 735//735 
f 735//735 736//736 733//733 
usemtl 0.960784_0.960784_0.964706_0.000000_0.000000
o mesh11816
v 0.133243 0.180871 0.0824887 
v 0.135783 0.180871 0.0824887 
v 0.135783 0.180691 0.0828732 
v 0.133243 0.180691 0.0828732 
vn 0 -0.906308 -0.422618 
vn 0 -0.906308 -0.422618 
vn 0 -0.906308 -0.422618 
vn 0 -0.906308 -0.422618 
f 737//737 738//738 739//739 
f 739//739 740//740 737//737 
o mesh11817
v 0.135783 0.182694 0.0818252 
v 0.133243 0.182694 0.0818252 
v 0.133243 0.183078 0.0820045 
v 0.135783 0.183078 0.0820045 
vn 0 0.422618 -0.906308 
vn 0 0.422618 -0.906308 
vn 0 0.422618 -0.906308 
vn 0 0.422618 -0.906308 
f 741//741 742//742 743//743 
f 743//743 744//744 741//741 
usemtl 0.043137_0.070588_0.294118_0.000000_0.000000
o mesh11818
v 0.133243 0.180871 0.0824887 
v 0.133243 0.182694 0.0818252 
v 0.135783 0.182694 0.0818252 
v 0.135783 0.180871 0.0824887 
vn 0 -0.34202 -0.939693 
vn 0 -0.34202 -0.939693 
vn 0 -0.34202 -0.939693 
vn 0 -0.34202 -0.939693 
f 745//745 746//746 747//747 
f 747//747 748//748 745//745 
usemtl 0.372549_0.372549_0.372549_0.000000_0.000000
o mesh11819
v 0.133243 0.200552 0.0780283 
v 0.133243 0.200106 0.0781907 
v 0.133243 0.200812 0.0801312 
v 0.133243 0.199984 0.0792459 
v 0.133243 0.198165 0.078897 
v 0.133243 0.199383 0.0794648 
v 0.133243 0.198872 0.0808375 
v 0.133243 0.199602 0.0800662 
v 0.133243 0.200203 0.0798473 
v 0.133243 0.197597 0.0801146 
v 0.133243 0.195778 0.0797657 
v 0.133243 0.196996 0.0803335 
v 0.133243 0.196485 0.0817062 
v 0.133243 0.197215 0.0809349 
v 0.133243 0.197816 0.080716 
v 0.133243 0.195211 0.0809833 
v 0.133243 0.193392 0.0806345 
v 0.133243 0.194609 0.0812022 
v 0.133243 0.194098 0.0825749 
v 0.133243 0.194828 0.0818036 
v 0.133243 0.19543 0.0815848 
v 0.133243 0.192824 0.0818521 
v 0.133243 0.191005 0.0815032 
v 0.133243 0.192222 0.082071 
v 0.133243 0.191711 0.0834436 
v 0.133243 0.192441 0.0826724 
v 0.133243 0.193043 0.0824535 
v 0.133243 0.190656 0.0833222 
v 0.133243 0.190055 0.0835411 
v 0.133243 0.190437 0.0827208 
v 0.133243 0.188618 0.0823719 
v 0.133243 0.189836 0.0829397 
v 0.133243 0.189324 0.0843124 
v 0.133243 0.186937 0.0851811 
v 0.133243 0.188269 0.0841909 
v 0.133243 0.18805 0.0835895 
v 0.133243 0.186231 0.0832406 
v 0.133243 0.187449 0.0838084 
v 0.133243 0.187668 0.0844098 
v 0.133243 0.184551 0.0860498 
v 0.133243 0.185882 0.0850597 
v 0.133243 0.185663 0.0844583 
v 0.133243 0.183844 0.0841094 
v 0.133243 0.185062 0.0846772 
v 0.133243 0.185281 0.0852786 
v 0.133243 0.182164 0.0869186 
v 0.133243 0.183495 0.0859284 
v 0.133243 0.183277 0.085327 
v 0.133243 0.181458 0.0849781 
v 0.133243 0.182675 0.0855459 
v 0.133243 0.182894 0.0861473 
v 0.133243 0.18089 0.0861957 
v 0.133243 0.179071 0.0858468 
v 0.133243 0.180288 0.0864146 
v 0.133243 0.179777 0.0877873 
v 0.133243 0.180507 0.087016 
v 0.133243 0.181109 0.0867971 
v 0.133243 0.180021 0.0838089 
v 0.133243 0.180691 0.0828732 
v 0.133243 0.180307 0.0826939 
v 0.133243 0.178484 0.0833574 
v 0.133243 0.178305 0.0837419 
v 0.133243 0.17942 0.0840278 
v 0.133243 0.18024 0.0844103 
v 0.133243 0.179639 0.0846292 
v 0.133243 0.180221 0.0881311 
v 0.133243 0.182044 0.0874675 
v 0.133243 0.179837 0.0879518 
v 0.133243 0.182224 0.087083 
v 0.133243 0.182608 0.0872623 
v 0.133243 0.184431 0.0865988 
v 0.133243 0.18461 0.0862143 
v 0.133243 0.184995 0.0863936 
v 0.133243 0.186818 0.0857301 
v 0.133243 0.186997 0.0853456 
v 0.133243 0.187382 0.0855249 
v 0.133243 0.189205 0.0848613 
v 0.133243 0.189384 0.0844768 
v 0.133243 0.189769 0.0846561 
v 0.133243 0.191592 0.0839926 
v 0.133243 0.191771 0.0836081 
v 0.133243 0.192155 0.0837874 
v 0.133243 0.193978 0.0831239 
v 0.133243 0.194158 0.0827394 
v 0.133243 0.194542 0.0829187 
v 0.133243 0.196365 0.0822551 
v 0.133243 0.196545 0.0818706 
v 0.133243 0.196929 0.0820499 
v 0.133243 0.198752 0.0813864 
v 0.133243 0.198931 0.0810019 
v 0.133243 0.199316 0.0811812 
v 0.133243 0.201139 0.0805177 
v 0.133243 0.201318 0.0801332 
v 0.133243 0.200974 0.0805775 
v 0.133243 0.199786 0.0759233 
v 0.133243 0.199401 0.075744 
v 0.133243 0.198514 0.077078 
v 0.133243 0.199237 0.0758039 
v 0.133243 0.197578 0.0764076 
v 0.133243 0.199116 0.0768591 
v 0.133243 0.197399 0.0767921 
v 0.133243 0.198733 0.0776794 
v 0.133243 0.199334 0.0774605 
v 0.133243 0.196729 0.0777278 
v 0.133243 0.197015 0.0766128 
v 0.133243 0.195192 0.0772763 
v 0.133243 0.195012 0.0776608 
v 0.133243 0.196127 0.0779467 
v 0.133243 0.196948 0.0783292 
v 0.133243 0.196346 0.0785481 
v 0.133243 0.194342 0.0785965 
v 0.133243 0.193741 0.0788154 
v 0.133243 0.192805 0.078145 
v 0.133243 0.192626 0.0785295 
v 0.133243 0.194561 0.0791979 
v 0.133243 0.193959 0.0794168 
v 0.133243 0.194628 0.0774815 
v 0.133243 0.191955 0.0794653 
v 0.133243 0.192241 0.0783502 
v 0.133243 0.190418 0.0790138 
v 0.133243 0.191354 0.0796842 
v 0.133243 0.190239 0.0793983 
v 0.133243 0.191573 0.0802856 
v 0.133243 0.192174 0.0800667 
v 0.133243 0.189568 0.080334 
v 0.133243 0.189854 0.079219 
v 0.133243 0.188031 0.0798825 
v 0.133243 0.188967 0.0805529 
v 0.133243 0.187852 0.080267 
v 0.133243 0.189186 0.0811543 
v 0.133243 0.189787 0.0809354 
v 0.133243 0.187181 0.0812027 
v 0.133243 0.18658 0.0814216 
v 0.133243 0.185644 0.0807512 
v 0.133243 0.185465 0.0811357 
v 0.133243 0.1874 0.0818041 
v 0.133243 0.187467 0.0800877 
v 0.133243 0.186799 0.082023 
v 0.133243 0.184795 0.0820715 
v 0.133243 0.184193 0.0822903 
v 0.133243 0.185081 0.0809564 
v 0.133243 0.183258 0.08162 
v 0.133243 0.183078 0.0820045 
v 0.133243 0.184412 0.0828918 
v 0.133243 0.185014 0.0826729 
v 0.133243 0.182694 0.0818252 
v 0.133243 0.181806 0.0831591 
v 0.133243 0.182408 0.0829402 
v 0.133243 0.180871 0.0824887 
v 0.133243 0.182627 0.0835416 
v 0.133243 0.182025 0.0837605 
v 0.133243 0.201258 0.0799687 
vn -1 0 0 
vn -1 0 0 
vn -1 0 0 
vn -1 0 0 
vn -1 0 0 
vn -1 0 0 
vn -1 0 0 
vn -1 0 0 
vn -1 0 0 
vn -1 0 0 
vn -1 0 0 
vn -1 0 0 
vn -1 0 0 
vn -1 0 0 
vn -1 0 0 
vn -1 0 0 
vn -1 0 0 
vn -1 0 0 
vn -1 0 0 
vn -1 0 0 
vn -1 0 0 
vn -1 0 0 
vn -1 0 0 
vn -1 0 0 
vn -1 0 0 
vn -1 0 0 
vn -1 0 0 
vn -1 0 0 
vn -1 0 0 
vn -1 0 0 
vn -1 0 0 
vn -1 0 0 
vn -1 0 0 
vn -1 0 0 
vn -1 0 0 
vn -1 0 0 
vn -1 0 0 
vn -1 0 0 
vn -1 0 0 
vn -1 0 0 
vn -1 0 0 
vn -1 0 0 
vn -1 0 0 
vn -1 0 0 
vn -1 0 0 
vn -1 0 0 
vn -1 0 0 
vn -1 0 0 
vn -1 0 0 
vn -1 0 0 
vn -1 0 0 
vn -1 0 0 
vn -1 0 0 
vn -1 0 0 
vn -1 0 0 
vn -1 0 0 
vn -1 0 0 
vn -1 0 0 
vn -1 0 0 
vn -1 0 0 
vn -1 0 0 
vn -1 0 0 
vn -1 0 0 
vn -1 0 0 
vn -1 0 0 
vn -1 0 0 
vn -1 0 0 
vn -1 0 0 
vn -1 0 0 
vn -1 0 0 
vn -1 0 0 
vn -1 0 0 
vn -1 0 0 
vn -1 0 0 
vn -1 0 0 
vn -1 0 0 
vn -1 0 0 
vn -1 0 0 
vn -1 0 0 
vn -1 0 0 
vn -1 0 0 
vn -1 0 0 
vn -1 0 0 
vn -1 0 0 
vn -1 0 0 
vn -1 0 0 
vn -1 0 0 
vn -1 0 0 
vn -1 0 0 
vn -1 0 0 
vn -1 0 0 
vn -1 0 0 
vn -1 0 0 
vn -1 0 0 
vn -1 0 0 
vn -1 0 0 
vn -1 0 0 
vn -1 0 0 
vn -1 0 0 
vn -1 0 0 
vn -1 0 0 
vn -1 0 0 
vn -1 0 0 
vn -1 0 0 
vn -1 0 0 
vn -1 0 0 
vn -1 0 0 
vn -1 0 0 
vn -1 0 0 
vn -1 0 0 
vn -1 0 0 
vn -1 0 0 
vn -1 0 0 
vn -1 0 0 
vn -1 0 0 
vn -1 0 0 
vn -1 0 0 
vn -1 0 0 
vn -1 0 0 
vn -1 0 0 
vn -1 0 0 
vn -1 0 0 
vn -1 0 0 
vn -1 0 0 
vn -1 0 0 
vn -1 0 0 
vn -1 0 0 
vn -1 0 0 
vn -1 0 0 
vn -1 0 0 
vn -1 0 0 
vn -1 0 0 
vn -1 0 0 
vn -1 0 0 
vn -1 0 0 
vn -1 0 0 
vn -1 0 0 
vn -1 0 0 
vn -1 0 0 
vn -1 0 0 
vn -1 0 0 
vn -1 0 0 
vn -1 0 0 
vn -1 0 0 
vn -1 0 0 
vn -1 0 0 
vn -1 0 0 
vn -1 0 0 
vn -1 0 0 
vn -1 0 0 
vn -1 0 0 
vn -1 0 0 
f 749//749 750//750 751//751 
f 751//751 750//750 752//752 
f 750//750 753//753 754//754 
f 754//754 752//752 750//750 
f 755//755 756//756 754//754 
f 751//751 757//757 756//756 
f 754//754 753//753 755//755 
f 752//752 757//757 751//751 
f 755//755 753//753 758//758 
f 753//753 759//759 760//760 
f 760//760 758//758 753//753 
f 761//761 762//762 760//760 
f 755//755 763//763 762//762 
f 760//760 759//759 761//761 
f 758//758 763//763 755//755 
f 761//761 759//759 764//764 
f 759//759 765//765 766//766 
f 766//766 764//764 759//759 
f 767//767 768//768 766//766 
f 761//761 769//769 768//768 
f 766//766 765//765 767//767 
f 764//764 769//769 761//761 
f 767//767 765//765 770//770 
f 765//765 771//771 772//772 
f 772//772 770//770 765//765 
f 773//773 774//774 772//772 
f 767//767 775//775 774//774 
f 772//772 771//771 773//773 
f 770//770 775//775 767//767 
f 773//773 776//776 777//777 
f 773//773 771//771 778//778 
f 771//771 779//779 780//780 
f 781//781 777//777 780//780 
f 778//778 776//776 773//773 
f 780//780 779//779 781//781 
f 780//780 778//778 771//771 
f 782//782 781//781 783//783 
f 781//781 779//779 784//784 
f 785//785 786//786 784//784 
f 782//782 787//787 786//786 
f 784//784 783//783 781//781 
f 786//786 785//785 782//782 
f 784//784 779//779 785//785 
f 788//788 782//782 789//789 
f 782//782 785//785 790//790 
f 791//791 792//792 790//790 
f 788//788 793//793 792//792 
f 790//790 789//789 782//782 
f 792//792 791//791 788//788 
f 790//790 785//785 791//791 
f 794//794 788//788 795//795 
f 788//788 791//791 796//796 
f 797//797 798//798 796//796 
f 794//794 799//799 798//798 
f 796//796 795//795 788//788 
f 798//798 797//797 794//794 
f 796//796 791//791 797//797 
f 794//794 797//797 800//800 
f 801//801 802//802 800//800 
f 800//800 797//797 801//801 
f 803//803 804//804 802//802 
f 803//803 794//794 805//805 
f 802//802 801//801 803//803 
f 800//800 805//805 794//794 
f 806//806 807//807 808//808 
f 809//809 810//810 811//811 
f 801//801 797//797 812//812 
f 807//807 806//806 812//812 
f 811//811 806//806 809//809 
f 810//810 801//801 813//813 
f 812//812 797//797 807//807 
f 813//813 811//811 810//810 
f 808//808 809//809 806//806 
f 803//803 814//814 815//815 
f 803//803 816//816 814//814 
f 815//815 817//817 803//803 
f 794//794 818//818 819//819 
f 794//794 817//817 818//818 
f 819//819 820//820 794//794 
f 788//788 821//821 822//822 
f 788//788 820//820 821//821 
f 822//822 823//823 788//788 
f 782//782 824//824 825//825 
f 782//782 823//823 824//824 
f 825//825 826//826 782//782 
f 781//781 827//827 828//828 
f 781//781 826//826 827//827 
f 828//828 773//773 781//781 
f 767//767 829//829 830//830 
f 830//830 831//831 767//767 
f 767//767 773//773 829//829 
f 761//761 832//832 833//833 
f 833//833 834//834 761//761 
f 761//761 767//767 832//832 
f 755//755 835//835 836//836 
f 836//836 837//837 755//755 
f 755//755 761//761 835//835 
f 751//751 838//838 839//839 
f 751//751 755//755 838//838 
f 751//751 840//840 841//841 
f 751//751 842//842 840//840 
f 750//750 749//749 843//843 
f 843//843 844//844 750//750 
f 845//845 846//846 847//847 
f 750//750 846//846 848//848 
f 847//847 849//849 845//845 
f 845//845 848//848 846//846 
f 849//849 753//753 850//850 
f 750//750 851//851 850//850 
f 850//850 845//845 849//849 
f 848//848 851//851 750//750 
f 852//852 849//849 853//853 
f 854//854 855//855 856//856 
f 753//753 857//857 858//858 
f 849//849 852//852 857//857 
f 856//856 852//852 854//854 
f 855//855 759//759 858//858 
f 857//857 753//753 849//849 
f 858//858 856//856 855//855 
f 853//853 854//854 852//852 
f 859//859 759//759 855//855 
f 860//860 861//861 862//862 
f 759//759 863//863 864//864 
f 855//855 865//865 859//859 
f 865//865 861//861 860//860 
f 765//765 864//864 860//860 
f 859//859 863//863 759//759 
f 862//862 765//765 860//860 
f 860//860 859//859 865//865 
f 866//866 765//765 862//862 
f 862//862 867//867 866//866 
f 867//867 868//868 869//869 
f 869//869 868//868 870//870 
f 869//869 866//866 867//867 
f 771//771 871//871 869//869 
f 765//765 872//872 871//871 
f 870//870 771//771 869//869 
f 866//866 872//872 765//765 
f 873//873 771//771 870//870 
f 870//870 874//874 873//873 
f 874//874 875//875 876//876 
f 876//876 875//875 877//877 
f 876//876 873//873 874//874 
f 779//779 878//878 876//876 
f 771//771 879//879 878//878 
f 877//877 779//779 876//876 
f 873//873 879//879 771//771 
f 880//880 779//779 877//877 
f 881//881 882//882 883//883 
f 785//785 779//779 884//884 
f 877//877 885//885 880//880 
f 882//882 881//881 880//880 
f 785//785 886//886 881//881 
f 880//880 884//884 779//779 
f 883//883 785//785 881//881 
f 880//880 885//885 882//882 
f 887//887 785//785 883//883 
f 888//888 889//889 890//890 
f 883//883 889//889 887//887 
f 890//890 891//891 888//888 
f 888//888 887//887 889//889 
f 891//891 791//791 892//892 
f 791//791 785//785 893//893 
f 892//892 888//888 891//891 
f 887//887 893//893 785//785 
f 894//894 895//895 896//896 
f 895//895 894//894 897//897 
f 797//797 791//791 898//898 
f 891//891 896//896 898//898 
f 897//897 807//807 895//895 
f 807//807 797//797 899//899 
f 898//898 791//791 891//891 
f 899//899 895//895 807//807 
f 896//896 891//891 894//894 
f 898//898 899//899 797//797 
f 893//893 892//892 791//791 
f 884//884 886//886 785//785 
f 878//878 779//779 771//771 
f 871//871 771//771 765//765 
f 864//864 765//765 759//759 
f 858//858 759//759 753//753 
f 850//850 753//753 750//750 
f 844//844 846//846 750//750 
f 841//841 900//900 751//751 
f 839//839 842//842 751//751 
f 837//837 838//838 755//755 
f 834//834 835//835 761//761 
f 831//831 832//832 767//767 
f 828//828 829//829 773//773 
f 826//826 781//781 782//782 
f 823//823 782//782 788//788 
f 820//820 788//788 794//794 
f 817//817 794//794 803//803 
f 812//812 813//813 801//801 
f 805//805 804//804 803//803 
f 795//795 799//799 794//794 
f 789//789 793//793 788//788 
f 783//783 787//787 782//782 
f 777//777 781//781 773//773 
f 774//774 773//773 767//767 
f 768//768 767//767 761//761 
f 762//762 761//761 755//755 
f 756//756 755//755 751//751 
f 751//751 900//900 749//749 
usemtl 0.823529_0.823529_1.000000_0.000000_0.000000
o mesh11820
v 0.133243 0.181109 0.0867971 
v 0.130193 0.181109 0.0867971 
v 0.130193 0.180507 0.087016 
v 0.133243 0.180507 0.087016 
vn 0 0.34202 0.939693 
vn 0 0.34202 0.939693 
vn 0 0.34202 0.939693 
vn 0 0.34202 0.939693 
f 901//901 902//902 903//903 
f 903//903 904//904 901//901 
o mesh11821
v 0.130193 0.180288 0.0864146 
v 0.130193 0.180507 0.087016 
v 0.130193 0.181109 0.0867971 
v 0.130193 0.18089 0.0861957 
vn -1 0 0 
vn -1 0 0 
vn -1 0 0 
vn -1 0 0 
f 905//905 906//906 907//907 
f 907//907 908//908 905//905 
o mesh11822
v 0.133243 0.180288 0.0864146 
v 0.133243 0.180507 0.087016 
v 0.130193 0.180507 0.087016 
v 0.130193 0.180288 0.0864146 
vn 0 -0.939693 0.34202 
vn 0 -0.939693 0.34202 
vn 0 -0.939693 0.34202 
vn 0 -0.939693 0.34202 
f 909//909 910//910 911//911 
f 911//911 912//912 909//909 
o mesh11823
v 0.133243 0.180288 0.0864146 
v 0.130193 0.180288 0.0864146 
v 0.130193 0.18089 0.0861957 
v 0.133243 0.18089 0.0861957 
vn 0 -0.34202 -0.939693 
vn 0 -0.34202 -0.939693 
vn 0 -0.34202 -0.939693 
vn 0 -0.34202 -0.939693 
f 913//913 914//914 915//915 
f 915//915 916//916 913//913 
o mesh11824
v 0.133243 0.18089 0.0861957 
v 0.130193 0.18089 0.0861957 
v 0.130193 0.181109 0.0867971 
v 0.133243 0.181109 0.0867971 
vn 0 0.939693 -0.34202 
vn 0 0.939693 -0.34202 
vn 0 0.939693 -0.34202 
vn 0 0.939693 -0.34202 
f 917//917 918//918 919//919 
f 919//919 920//920 917//917 
o mesh11825
v 0.133243 0.182894 0.0861473 
v 0.133243 0.183495 0.0859284 
v 0.130193 0.183495 0.0859284 
v 0.130193 0.182894 0.0861473 
vn 0 0.34202 0.939693 
vn 0 0.34202 0.939693 
vn 0 0.34202 0.939693 
vn 0 0.34202 0.939693 
f 921//921 922//922 923//923 
f 923//923 924//924 921//921 
o mesh11826
v 0.130193 0.182675 0.0855459 
v 0.130193 0.182894 0.0861473 
v 0.130193 0.183495 0.0859284 
v 0.130193 0.183277 0.085327 
vn -1 0 0 
vn -1 0 0 
vn -1 0 0 
vn -1 0 0 
f 925//925 926//926 927//927 
f 927//927 928//928 925//925 
o mesh11827
v 0.133243 0.182675 0.0855459 
v 0.133243 0.182894 0.0861473 
v 0.130193 0.182894 0.0861473 
v 0.130193 0.182675 0.0855459 
vn 0 -0.939693 0.34202 
vn 0 -0.939693 0.34202 
vn 0 -0.939693 0.34202 
vn 0 -0.939693 0.34202 
f 929//929 930//930 931//931 
f 931//931 932//932 929//929 
o mesh11828
v 0.133243 0.182675 0.0855459 
v 0.130193 0.182675 0.0855459 
v 0.130193 0.183277 0.085327 
v 0.133243 0.183277 0.085327 
vn 0 -0.34202 -0.939693 
vn 0 -0.34202 -0.939693 
vn 0 -0.34202 -0.939693 
vn 0 -0.34202 -0.939693 
f 933//933 934//934 935//935 
f 935//935 936//936 933//933 
o mesh11829
v 0.133243 0.183277 0.085327 
v 0.130193 0.183277 0.085327 
v 0.130193 0.183495 0.0859284 
v 0.133243 0.183495 0.0859284 
vn 0 0.939693 -0.34202 
vn 0 0.939693 -0.34202 
vn 0 0.939693 -0.34202 
vn 0 0.939693 -0.34202 
f 937//937 938//938 939//939 
f 939//939 940//940 937//937 
o mesh11830
v 0.130193 0.185882 0.0850597 
v 0.130193 0.185281 0.0852786 
v 0.133243 0.185281 0.0852786 
v 0.133243 0.185882 0.0850597 
vn 0 0.34202 0.939693 
vn 0 0.34202 0.939693 
vn 0 0.34202 0.939693 
vn 0 0.34202 0.939693 
f 941//941 942//942 943//943 
f 943//943 944//944 941//941 
o mesh11831
v 0.130193 0.185062 0.0846772 
v 0.130193 0.185281 0.0852786 
v 0.130193 0.185882 0.0850597 
v 0.130193 0.185663 0.0844583 
vn -1 0 0 
vn -1 0 0 
vn -1 0 0 
vn -1 0 0 
f 945//945 946//946 947//947 
f 947//947 948//948 945//945 
o mesh11832
v 0.133243 0.185062 0.0846772 
v 0.133243 0.185281 0.0852786 
v 0.130193 0.185281 0.0852786 
v 0.130193 0.185062 0.0846772 
vn 0 -0.939693 0.34202 
vn 0 -0.939693 0.34202 
vn 0 -0.939693 0.34202 
vn 0 -0.939693 0.34202 
f 949//949 950//950 951//951 
f 951//951 952//952 949//949 
o mesh11833
v 0.130193 0.185663 0.0844583 
v 0.133243 0.185663 0.0844583 
v 0.133243 0.185062 0.0846772 
v 0.130193 0.185062 0.0846772 
vn 0 -0.34202 -0.939693 
vn 0 -0.34202 -0.939693 
vn 0 -0.34202 -0.939693 
vn 0 -0.34202 -0.939693 
f 953//953 954//954 955//955 
f 955//955 956//956 953//953 
o mesh11834
v 0.133243 0.185663 0.0844583 
v 0.130193 0.185663 0.0844583 
v 0.130193 0.185882 0.0850597 
v 0.133243 0.185882 0.0850597 
vn 0 0.939693 -0.34202 
vn 0 0.939693 -0.34202 
vn 0 0.939693 -0.34202 
vn 0 0.939693 -0.34202 
f 957//957 958//958 959//959 
f 959//959 960//960 957//957 
o mesh11835
v 0.130193 0.187668 0.0844098 
v 0.133243 0.187668 0.0844098 
v 0.133243 0.188269 0.0841909 
v 0.130193 0.188269 0.0841909 
vn 0 0.34202 0.939693 
vn 0 0.34202 0.939693 
vn 0 0.34202 0.939693 
vn 0 0.34202 0.939693 
f 961//961 962//962 963//963 
f 963//963 964//964 961//961 
o mesh11836
v 0.130193 0.187449 0.0838084 
v 0.130193 0.187668 0.0844098 
v 0.130193 0.188269 0.0841909 
v 0.130193 0.18805 0.0835895 
vn -1 0 0 
vn -1 0 0 
vn -1 0 0 
vn -1 0 0 
f 965//965 966//966 967//967 
f 967//967 968//968 965//965 
o mesh11837
v 0.133243 0.187449 0.0838084 
v 0.133243 0.187668 0.0844098 
v 0.130193 0.187668 0.0844098 
v 0.130193 0.187449 0.0838084 
vn 0 -0.939693 0.34202 
vn 0 -0.939693 0.34202 
vn 0 -0.939693 0.34202 
vn 0 -0.939693 0.34202 
f 969//969 970//970 971//971 
f 971//971 972//972 969//969 
o mesh11838
v 0.130193 0.187449 0.0838084 
v 0.130193 0.18805 0.0835895 
v 0.133243 0.18805 0.0835895 
v 0.133243 0.187449 0.0838084 
vn 0 -0.34202 -0.939693 
vn 0 -0.34202 -0.939693 
vn 0 -0.34202 -0.939693 
vn 0 -0.34202 -0.939693 
f 973//973 974//974 975//975 
f 975//975 976//976 973//973 
o mesh11839
v 0.133243 0.18805 0.0835895 
v 0.130193 0.18805 0.0835895 
v 0.130193 0.188269 0.0841909 
v 0.133243 0.188269 0.0841909 
vn 0 0.939693 -0.34202 
vn 0 0.939693 -0.34202 
vn 0 0.939693 -0.34202 
vn 0 0.939693 -0.34202 
f 977//977 978//978 979//979 
f 979//979 980//980 977//977 
o mesh11840
v 0.130193 0.190055 0.0835411 
v 0.133243 0.190055 0.0835411 
v 0.133243 0.190656 0.0833222 
v 0.130193 0.190656 0.0833222 
vn 0 0.34202 0.939693 
vn 0 0.34202 0.939693 
vn 0 0.34202 0.939693 
vn 0 0.34202 0.939693 
f 981//981 982//982 983//983 
f 983//983 984//984 981//981 
o mesh11841
v 0.130193 0.189836 0.0829397 
v 0.130193 0.190055 0.0835411 
v 0.130193 0.190656 0.0833222 
v 0.130193 0.190437 0.0827208 
vn -1 0 0 
vn -1 0 0 
vn -1 0 0 
vn -1 0 0 
f 985//985 986//986 987//987 
f 987//987 988//988 985//985 
o mesh11842
v 0.133243 0.189836 0.0829397 
v 0.133243 0.190055 0.0835411 
v 0.130193 0.190055 0.0835411 
v 0.130193 0.189836 0.0829397 
vn 0 -0.939693 0.34202 
vn 0 -0.939693 0.34202 
vn 0 -0.939693 0.34202 
vn 0 -0.939693 0.34202 
f 989//989 990//990 991//991 
f 991//991 992//992 989//989 
o mesh11843
v 0.130193 0.189836 0.0829397 
v 0.130193 0.190437 0.0827208 
v 0.133243 0.190437 0.0827208 
v 0.133243 0.189836 0.0829397 
vn 0 -0.34202 -0.939693 
vn 0 -0.34202 -0.939693 
vn 0 -0.34202 -0.939693 
vn 0 -0.34202 -0.939693 
f 993//993 994//994 995//995 
f 995//995 996//996 993//993 
o mesh11844
v 0.133243 0.190437 0.0827208 
v 0.130193 0.190437 0.0827208 
v 0.130193 0.190656 0.0833222 
v 0.133243 0.190656 0.0833222 
vn 0 0.939693 -0.34202 
vn 0 0.939693 -0.34202 
vn 0 0.939693 -0.34202 
vn 0 0.939693 -0.34202 
f 997//997 998//998 999//999 
f 999//999 1000//1000 997//997 
o mesh11845
v 0.130193 0.193043 0.0824535 
v 0.130193 0.192441 0.0826724 
v 0.133243 0.192441 0.0826724 
v 0.133243 0.193043 0.0824535 
vn 0 0.34202 0.939693 
vn 0 0.34202 0.939693 
vn 0 0.34202 0.939693 
vn 0 0.34202 0.939693 
f 1001//1001 1002//1002 1003//1003 
f 1003//1003 1004//1004 1001//1001 
o mesh11846
v 0.130193 0.192222 0.082071 
v 0.130193 0.192441 0.0826724 
v 0.130193 0.193043 0.0824535 
v 0.130193 0.192824 0.0818521 
vn -1 0 0 
vn -1 0 0 
vn -1 0 0 
vn -1 0 0 
f 1005//1005 1006//1006 1007//1007 
f 1007//1007 1008//1008 1005//1005 
o mesh11847
v 0.133243 0.192222 0.082071 
v 0.133243 0.192441 0.0826724 
v 0.130193 0.192441 0.0826724 
v 0.130193 0.192222 0.082071 
vn 0 -0.939693 0.34202 
vn 0 -0.939693 0.34202 
vn 0 -0.939693 0.34202 
vn 0 -0.939693 0.34202 
f 1009//1009 1010//1010 1011//1011 
f 1011//1011 1012//1012 1009//1009 
o mesh11848
v 0.130193 0.192824 0.0818521 
v 0.133243 0.192824 0.0818521 
v 0.133243 0.192222 0.082071 
v 0.130193 0.192222 0.082071 
vn 0 -0.34202 -0.939693 
vn 0 -0.34202 -0.939693 
vn 0 -0.34202 -0.939693 
vn 0 -0.34202 -0.939693 
f 1013//1013 1014//1014 1015//1015 
f 1015//1015 1016//1016 1013//1013 
o mesh11849
v 0.133243 0.192824 0.0818521 
v 0.130193 0.192824 0.0818521 
v 0.130193 0.193043 0.0824535 
v 0.133243 0.193043 0.0824535 
vn 0 0.939693 -0.34202 
vn 0 0.939693 -0.34202 
vn 0 0.939693 -0.34202 
vn 0 0.939693 -0.34202 
f 1017//1017 1018//1018 1019//1019 
f 1019//1019 1020//1020 1017//1017 
o mesh11850
v 0.130193 0.194828 0.0818036 
v 0.133243 0.194828 0.0818036 
v 0.133243 0.19543 0.0815848 
v 0.130193 0.19543 0.0815848 
vn 0 0.34202 0.939693 
vn 0 0.34202 0.939693 
vn 0 0.34202 0.939693 
vn 0 0.34202 0.939693 
f 1021//1021 1022//1022 1023//1023 
f 1023//1023 1024//1024 1021//1021 
o mesh11851
v 0.130193 0.194609 0.0812022 
v 0.130193 0.194828 0.0818036 
v 0.130193 0.19543 0.0815848 
v 0.130193 0.195211 0.0809833 
vn -1 0 0 
vn -1 0 0 
vn -1 0 0 
vn -1 0 0 
f 1025//1025 1026//1026 1027//1027 
f 1027//1027 1028//1028 1025//1025 
o mesh11852
v 0.133243 0.194609 0.0812022 
v 0.133243 0.194828 0.0818036 
v 0.130193 0.194828 0.0818036 
v 0.130193 0.194609 0.0812022 
vn 0 -0.939693 0.34202 
vn 0 -0.939693 0.34202 
vn 0 -0.939693 0.34202 
vn 0 -0.939693 0.34202 
f 1029//1029 1030//1030 1031//1031 
f 1031//1031 1032//1032 1029//1029 
o mesh11853
v 0.130193 0.194609 0.0812022 
v 0.130193 0.195211 0.0809833 
v 0.133243 0.195211 0.0809833 
v 0.133243 0.194609 0.0812022 
vn 0 -0.34202 -0.939693 
vn 0 -0.34202 -0.939693 
vn 0 -0.34202 -0.939693 
vn 0 -0.34202 -0.939693 
f 1033//1033 1034//1034 1035//1035 
f 1035//1035 1036//1036 1033//1033 
o mesh11854
v 0.133243 0.195211 0.0809833 
v 0.130193 0.195211 0.0809833 
v 0.130193 0.19543 0.0815848 
v 0.133243 0.19543 0.0815848 
vn 0 0.939693 -0.34202 
vn 0 0.939693 -0.34202 
vn 0 0.939693 -0.34202 
vn 0 0.939693 -0.34202 
f 1037//1037 1038//1038 1039//1039 
f 1039//1039 1040//1040 1037//1037 
o mesh11855
v 0.133243 0.197816 0.080716 
v 0.130193 0.197816 0.080716 
v 0.130193 0.197215 0.0809349 
v 0.133243 0.197215 0.0809349 
vn 0 0.34202 0.939693 
vn 0 0.34202 0.939693 
vn 0 0.34202 0.939693 
vn 0 0.34202 0.939693 
f 1041//1041 1042//1042 1043//1043 
f 1043//1043 1044//1044 1041//1041 
o mesh11856
v 0.130193 0.196996 0.0803335 
v 0.130193 0.197215 0.0809349 
v 0.130193 0.197816 0.080716 
v 0.130193 0.197597 0.0801146 
vn -1 0 0 
vn -1 0 0 
vn -1 0 0 
vn -1 0 0 
f 1045//1045 1046//1046 1047//1047 
f 1047//1047 1048//1048 1045//1045 
o mesh11857
v 0.133243 0.196996 0.0803335 
v 0.133243 0.197215 0.0809349 
v 0.130193 0.197215 0.0809349 
v 0.130193 0.196996 0.0803335 
vn 0 -0.939693 0.34202 
vn 0 -0.939693 0.34202 
vn 0 -0.939693 0.34202 
vn 0 -0.939693 0.34202 
f 1049//1049 1050//1050 1051//1051 
f 1051//1051 1052//1052 1049//1049 
o mesh11858
v 0.133243 0.197597 0.0801146 
v 0.133243 0.196996 0.0803335 
v 0.130193 0.196996 0.0803335 
v 0.130193 0.197597 0.0801146 
vn 0 -0.34202 -0.939693 
vn 0 -0.34202 -0.939693 
vn 0 -0.34202 -0.939693 
vn 0 -0.34202 -0.939693 
f 1053//1053 1054//1054 1055//1055 
f 1055//1055 1056//1056 1053//1053 
o mesh11859
v 0.133243 0.197597 0.0801146 
v 0.130193 0.197597 0.0801146 
v 0.130193 0.197816 0.080716 
v 0.133243 0.197816 0.080716 
vn 0 0.939693 -0.34202 
vn 0 0.939693 -0.34202 
vn 0 0.939693 -0.34202 
vn 0 0.939693 -0.34202 
f 1057//1057 1058//1058 1059//1059 
f 1059//1059 1060//1060 1057//1057 
o mesh11860
v 0.133243 0.200203 0.0798473 
v 0.130193 0.200203 0.0798473 
v 0.130193 0.199602 0.0800662 
v 0.133243 0.199602 0.0800662 
vn 0 0.34202 0.939693 
vn 0 0.34202 0.939693 
vn 0 0.34202 0.939693 
vn 0 0.34202 0.939693 
f 1061//1061 1062//1062 1063//1063 
f 1063//1063 1064//1064 1061//1061 
o mesh11861
v 0.130193 0.199383 0.0794648 
v 0.130193 0.199602 0.0800662 
v 0.130193 0.200203 0.0798473 
v 0.130193 0.199984 0.0792459 
vn -1 0 0 
vn -1 0 0 
vn -1 0 0 
vn -1 0 0 
f 1065//1065 1066//1066 1067//1067 
f 1067//1067 1068//1068 1065//1065 
o mesh11862
v 0.133243 0.199383 0.0794648 
v 0.133243 0.199602 0.0800662 
v 0.130193 0.199602 0.0800662 
v 0.130193 0.199383 0.0794648 
vn 0 -0.939693 0.34202 
vn 0 -0.939693 0.34202 
vn 0 -0.939693 0.34202 
vn 0 -0.939693 0.34202 
f 1069//1069 1070//1070 1071//1071 
f 1071//1071 1072//1072 1069//1069 
o mesh11863
v 0.133243 0.199984 0.0792459 
v 0.133243 0.199383 0.0794648 
v 0.130193 0.199383 0.0794648 
v 0.130193 0.199984 0.0792459 
vn 0 -0.34202 -0.939693 
vn 0 -0.34202 -0.939693 
vn 0 -0.34202 -0.939693 
vn 0 -0.34202 -0.939693 
f 1073//1073 1074//1074 1075//1075 
f 1075//1075 1076//1076 1073//1073 
o mesh11864
v 0.133243 0.199984 0.0792459 
v 0.130193 0.199984 0.0792459 
v 0.130193 0.200203 0.0798473 
v 0.133243 0.200203 0.0798473 
vn 0 0.939693 -0.34202 
vn 0 0.939693 -0.34202 
vn 0 0.939693 -0.34202 
vn 0 0.939693 -0.34202 
f 1077//1077 1078//1078 1079//1079 
f 1079//1079 1080//1080 1077//1077 
o mesh11865
v 0.133243 0.199334 0.0774605 
v 0.130193 0.199334 0.0774605 
v 0.130193 0.198733 0.0776794 
v 0.133243 0.198733 0.0776794 
vn 0 0.34202 0.939693 
vn 0 0.34202 0.939693 
vn 0 0.34202 0.939693 
vn 0 0.34202 0.939693 
f 1081//1081 1082//1082 1083//1083 
f 1083//1083 1084//1084 1081//1081 
o mesh11866
v 0.130193 0.198514 0.077078 
v 0.130193 0.198733 0.0776794 
v 0.130193 0.199334 0.0774605 
v 0.130193 0.199116 0.0768591 
vn -1 0 0 
vn -1 0 0 
vn -1 0 0 
vn -1 0 0 
f 1085//1085 1086//1086 1087//1087 
f 1087//1087 1088//1088 1085//1085 
o mesh11867
v 0.133243 0.198514 0.077078 
v 0.133243 0.198733 0.0776794 
v 0.130193 0.198733 0.0776794 
v 0.130193 0.198514 0.077078 
vn 0 -0.939693 0.34202 
vn 0 -0.939693 0.34202 
vn 0 -0.939693 0.34202 
vn 0 -0.939693 0.34202 
f 1089//1089 1090//1090 1091//1091 
f 1091//1091 1092//1092 1089//1089 
usemtl 0.043137_0.070588_0.294118_0.000000_0.000000
o mesh11868
v 0.133243 0.199116 0.0768591 
v 0.133243 0.198514 0.077078 
v 0.130193 0.198514 0.077078 
v 0.130193 0.199116 0.0768591 
vn 0 -0.34202 -0.939693 
vn 0 -0.34202 -0.939693 
vn 0 -0.34202 -0.939693 
vn 0 -0.34202 -0.939693 
f 1093//1093 1094//1094 1095//1095 
f 1095//1095 1096//1096 1093//1093 
usemtl 0.823529_0.823529_1.000000_0.000000_0.000000
o mesh11869
v 0.133243 0.199116 0.0768591 
v 0.130193 0.199116 0.0768591 
v 0.130193 0.199334 0.0774605 
v 0.133243 0.199334 0.0774605 
vn 0 0.939693 -0.34202 
vn 0 0.939693 -0.34202 
vn 0 0.939693 -0.34202 
vn 0 0.939693 -0.34202 
f 1097//1097 1098//1098 1099//1099 
f 1099//1099 1100//1100 1097//1097 
o mesh11870
v 0.133243 0.196948 0.0783292 
v 0.130193 0.196948 0.0783292 
v 0.130193 0.196346 0.0785481 
v 0.133243 0.196346 0.0785481 
vn 0 0.34202 0.939693 
vn 0 0.34202 0.939693 
vn 0 0.34202 0.939693 
vn 0 0.34202 0.939693 
f 1101//1101 1102//1102 1103//1103 
f 1103//1103 1104//1104 1101//1101 
o mesh11871
v 0.130193 0.196127 0.0779467 
v 0.130193 0.196346 0.0785481 
v 0.130193 0.196948 0.0783292 
v 0.130193 0.196729 0.0777278 
vn -1 0 0 
vn -1 0 0 
vn -1 0 0 
vn -1 0 0 
f 1105//1105 1106//1106 1107//1107 
f 1107//1107 1108//1108 1105//1105 
o mesh11872
v 0.133243 0.196127 0.0779467 
v 0.133243 0.196346 0.0785481 
v 0.130193 0.196346 0.0785481 
v 0.130193 0.196127 0.0779467 
vn 0 -0.939693 0.34202 
vn 0 -0.939693 0.34202 
vn 0 -0.939693 0.34202 
vn 0 -0.939693 0.34202 
f 1109//1109 1110//1110 1111//1111 
f 1111//1111 1112//1112 1109//1109 
o mesh11873
v 0.133243 0.196729 0.0777278 
v 0.133243 0.196127 0.0779467 
v 0.130193 0.196127 0.0779467 
v 0.130193 0.196729 0.0777278 
vn 0 -0.34202 -0.939693 
vn 0 -0.34202 -0.939693 
vn 0 -0.34202 -0.939693 
vn 0 -0.34202 -0.939693 
f 1113//1113 1114//1114 1115//1115 
f 1115//1115 1116//1116 1113//1113 
o mesh11874
v 0.133243 0.196729 0.0777278 
v 0.130193 0.196729 0.0777278 
v 0.130193 0.196948 0.0783292 
v 0.133243 0.196948 0.0783292 
vn 0 0.939693 -0.34202 
vn 0 0.939693 -0.34202 
vn 0 0.939693 -0.34202 
vn 0 0.939693 -0.34202 
f 1117//1117 1118//1118 1119//1119 
f 1119//1119 1120//1120 1117//1117 
o mesh11875
v 0.130193 0.193959 0.0794168 
v 0.133243 0.193959 0.0794168 
v 0.133243 0.194561 0.0791979 
v 0.130193 0.194561 0.0791979 
vn 0 0.34202 0.939693 
vn 0 0.34202 0.939693 
vn 0 0.34202 0.939693 
vn 0 0.34202 0.939693 
f 1121//1121 1122//1122 1123//1123 
f 1123//1123 1124//1124 1121//1121 
o mesh11876
v 0.130193 0.193741 0.0788154 
v 0.130193 0.193959 0.0794168 
v 0.130193 0.194561 0.0791979 
v 0.130193 0.194342 0.0785965 
vn -1 0 0 
vn -1 0 0 
vn -1 0 0 
vn -1 0 0 
f 1125//1125 1126//1126 1127//1127 
f 1127//1127 1128//1128 1125//1125 
o mesh11877
v 0.133243 0.193741 0.0788154 
v 0.133243 0.193959 0.0794168 
v 0.130193 0.193959 0.0794168 
v 0.130193 0.193741 0.0788154 
vn 0 -0.939693 0.34202 
vn 0 -0.939693 0.34202 
vn 0 -0.939693 0.34202 
vn 0 -0.939693 0.34202 
f 1129//1129 1130//1130 1131//1131 
f 1131//1131 1132//1132 1129//1129 
o mesh11878
v 0.130193 0.193741 0.0788154 
v 0.130193 0.194342 0.0785965 
v 0.133243 0.194342 0.0785965 
v 0.133243 0.193741 0.0788154 
vn 0 -0.34202 -0.939693 
vn 0 -0.34202 -0.939693 
vn 0 -0.34202 -0.939693 
vn 0 -0.34202 -0.939693 
f 1133//1133 1134//1134 1135//1135 
f 1135//1135 1136//1136 1133//1133 
o mesh11879
v 0.133243 0.194342 0.0785965 
v 0.130193 0.194342 0.0785965 
v 0.130193 0.194561 0.0791979 
v 0.133243 0.194561 0.0791979 
vn 0 0.939693 -0.34202 
vn 0 0.939693 -0.34202 
vn 0 0.939693 -0.34202 
vn 0 0.939693 -0.34202 
f 1137//1137 1138//1138 1139//1139 
f 1139//1139 1140//1140 1137//1137 
o mesh11880
v 0.130193 0.192174 0.0800667 
v 0.130193 0.191573 0.0802856 
v 0.133243 0.191573 0.0802856 
v 0.133243 0.192174 0.0800667 
vn 0 0.34202 0.939693 
vn 0 0.34202 0.939693 
vn 0 0.34202 0.939693 
vn 0 0.34202 0.939693 
f 1141//1141 1142//1142 1143//1143 
f 1143//1143 1144//1144 1141//1141 
o mesh11881
v 0.130193 0.191354 0.0796842 
v 0.130193 0.191573 0.0802856 
v 0.130193 0.192174 0.0800667 
v 0.130193 0.191955 0.0794653 
vn -1 0 0 
vn -1 0 0 
vn -1 0 0 
vn -1 0 0 
f 1145//1145 1146//1146 1147//1147 
f 1147//1147 1148//1148 1145//1145 
o mesh11882
v 0.133243 0.191354 0.0796842 
v 0.133243 0.191573 0.0802856 
v 0.130193 0.191573 0.0802856 
v 0.130193 0.191354 0.0796842 
vn 0 -0.939693 0.34202 
vn 0 -0.939693 0.34202 
vn 0 -0.939693 0.34202 
vn 0 -0.939693 0.34202 
f 1149//1149 1150//1150 1151//1151 
f 1151//1151 1152//1152 1149//1149 
o mesh11883
v 0.130193 0.191955 0.0794653 
v 0.133243 0.191955 0.0794653 
v 0.133243 0.191354 0.0796842 
v 0.130193 0.191354 0.0796842 
vn 0 -0.34202 -0.939693 
vn 0 -0.34202 -0.939693 
vn 0 -0.34202 -0.939693 
vn 0 -0.34202 -0.939693 
f 1153//1153 1154//1154 1155//1155 
f 1155//1155 1156//1156 1153//1153 
o mesh11884
v 0.133243 0.191955 0.0794653 
v 0.130193 0.191955 0.0794653 
v 0.130193 0.192174 0.0800667 
v 0.133243 0.192174 0.0800667 
vn 0 0.939693 -0.34202 
vn 0 0.939693 -0.34202 
vn 0 0.939693 -0.34202 
vn 0 0.939693 -0.34202 
f 1157//1157 1158//1158 1159//1159 
f 1159//1159 1160//1160 1157//1157 
o mesh11885
v 0.130193 0.189186 0.0811543 
v 0.133243 0.189186 0.0811543 
v 0.133243 0.189787 0.0809354 
v 0.130193 0.189787 0.0809354 
vn 0 0.34202 0.939693 
vn 0 0.34202 0.939693 
vn 0 0.34202 0.939693 
vn 0 0.34202 0.939693 
f 1161//1161 1162//1162 1163//1163 
f 1163//1163 1164//1164 1161//1161 
o mesh11886
v 0.130193 0.188967 0.0805529 
v 0.130193 0.189186 0.0811543 
v 0.130193 0.189787 0.0809354 
v 0.130193 0.189568 0.080334 
vn -1 0 0 
vn -1 0 0 
vn -1 0 0 
vn -1 0 0 
f 1165//1165 1166//1166 1167//1167 
f 1167//1167 1168//1168 1165//1165 
o mesh11887
v 0.133243 0.188967 0.0805529 
v 0.133243 0.189186 0.0811543 
v 0.130193 0.189186 0.0811543 
v 0.130193 0.188967 0.0805529 
vn 0 -0.939693 0.34202 
vn 0 -0.939693 0.34202 
vn 0 -0.939693 0.34202 
vn 0 -0.939693 0.34202 
f 1169//1169 1170//1170 1171//1171 
f 1171//1171 1172//1172 1169//1169 
o mesh11888
v 0.130193 0.188967 0.0805529 
v 0.130193 0.189568 0.080334 
v 0.133243 0.189568 0.080334 
v 0.133243 0.188967 0.0805529 
vn 0 -0.34202 -0.939693 
vn 0 -0.34202 -0.939693 
vn 0 -0.34202 -0.939693 
vn 0 -0.34202 -0.939693 
f 1173//1173 1174//1174 1175//1175 
f 1175//1175 1176//1176 1173//1173 
o mesh11889
v 0.133243 0.189568 0.080334 
v 0.130193 0.189568 0.080334 
v 0.130193 0.189787 0.0809354 
v 0.133243 0.189787 0.0809354 
vn 0 0.939693 -0.34202 
vn 0 0.939693 -0.34202 
vn 0 0.939693 -0.34202 
vn 0 0.939693 -0.34202 
f 1177//1177 1178//1178 1179//1179 
f 1179//1179 1180//1180 1177//1177 
o mesh11890
v 0.130193 0.186799 0.082023 
v 0.133243 0.186799 0.082023 
v 0.133243 0.1874 0.0818041 
v 0.130193 0.1874 0.0818041 
vn 0 0.34202 0.939693 
vn 0 0.34202 0.939693 
vn 0 0.34202 0.939693 
vn 0 0.34202 0.939693 
f 1181//1181 1182//1182 1183//1183 
f 1183//1183 1184//1184 1181//1181 
o mesh11891
v 0.130193 0.18658 0.0814216 
v 0.130193 0.186799 0.082023 
v 0.130193 0.1874 0.0818041 
v 0.130193 0.187181 0.0812027 
vn -1 0 0 
vn -1 0 0 
vn -1 0 0 
vn -1 0 0 
f 1185//1185 1186//1186 1187//1187 
f 1187//1187 1188//1188 1185//1185 
o mesh11892
v 0.133243 0.186799 0.082023 
v 0.130193 0.186799 0.082023 
v 0.130193 0.18658 0.0814216 
v 0.133243 0.18658 0.0814216 
vn 0 -0.939693 0.34202 
vn 0 -0.939693 0.34202 
vn 0 -0.939693 0.34202 
vn 0 -0.939693 0.34202 
f 1189//1189 1190//1190 1191//1191 
f 1191//1191 1192//1192 1189//1189 
usemtl 0.043137_0.070588_0.294118_0.000000_0.000000
o mesh11893
v 0.130193 0.18658 0.0814216 
v 0.130193 0.187181 0.0812027 
v 0.133243 0.187181 0.0812027 
v 0.133243 0.18658 0.0814216 
vn 0 -0.34202 -0.939693 
vn 0 -0.34202 -0.939693 
vn 0 -0.34202 -0.939693 
vn 0 -0.34202 -0.939693 
f 1193//1193 1194//1194 1195//1195 
f 1195//1195 1196//1196 1193//1193 
usemtl 0.823529_0.823529_1.000000_0.000000_0.000000
o mesh11894
v 0.133243 0.187181 0.0812027 
v 0.130193 0.187181 0.0812027 
v 0.130193 0.1874 0.0818041 
v 0.133243 0.1874 0.0818041 
vn 0 0.939693 -0.34202 
vn 0 0.939693 -0.34202 
vn 0 0.939693 -0.34202 
vn 0 0.939693 -0.34202 
f 1197//1197 1198//1198 1199//1199 
f 1199//1199 1200//1200 1197//1197 
o mesh11895
v 0.130193 0.185014 0.0826729 
v 0.130193 0.184412 0.0828918 
v 0.133243 0.184412 0.0828918 
v 0.133243 0.185014 0.0826729 
vn 0 0.34202 0.939693 
vn 0 0.34202 0.939693 
vn 0 0.34202 0.939693 
vn 0 0.34202 0.939693 
f 1201//1201 1202//1202 1203//1203 
f 1203//1203 1204//1204 1201//1201 
o mesh11896
v 0.130193 0.184193 0.0822903 
v 0.130193 0.184412 0.0828918 
v 0.130193 0.185014 0.0826729 
v 0.130193 0.184795 0.0820715 
vn -1 0 0 
vn -1 0 0 
vn -1 0 0 
vn -1 0 0 
f 1205//1205 1206//1206 1207//1207 
f 1207//1207 1208//1208 1205//1205 
o mesh11897
v 0.133243 0.184193 0.0822903 
v 0.133243 0.184412 0.0828918 
v 0.130193 0.184412 0.0828918 
v 0.130193 0.184193 0.0822903 
vn 0 -0.939693 0.34202 
vn 0 -0.939693 0.34202 
vn 0 -0.939693 0.34202 
vn 0 -0.939693 0.34202 
f 1209//1209 1210//1210 1211//1211 
f 1211//1211 1212//1212 1209//1209 
o mesh11898
v 0.130193 0.184795 0.0820715 
v 0.133243 0.184795 0.0820715 
v 0.133243 0.184193 0.0822903 
v 0.130193 0.184193 0.0822903 
vn 0 -0.34202 -0.939693 
vn 0 -0.34202 -0.939693 
vn 0 -0.34202 -0.939693 
vn 0 -0.34202 -0.939693 
f 1213//1213 1214//1214 1215//1215 
f 1215//1215 1216//1216 1213//1213 
o mesh11899
v 0.133243 0.184795 0.0820715 
v 0.130193 0.184795 0.0820715 
v 0.130193 0.185014 0.0826729 
v 0.133243 0.185014 0.0826729 
vn 0 0.939693 -0.34202 
vn 0 0.939693 -0.34202 
vn 0 0.939693 -0.34202 
vn 0 0.939693 -0.34202 
f 1217//1217 1218//1218 1219//1219 
f 1219//1219 1220//1220 1217//1217 
o mesh11900
v 0.133243 0.182025 0.0837605 
v 0.133243 0.182627 0.0835416 
v 0.130193 0.182627 0.0835416 
v 0.130193 0.182025 0.0837605 
vn 0 0.34202 0.939693 
vn 0 0.34202 0.939693 
vn 0 0.34202 0.939693 
vn 0 0.34202 0.939693 
f 1221//1221 1222//1222 1223//1223 
f 1223//1223 1224//1224 1221//1221 
usemtl 1.000000_1.000000_0.949020_0.000000_0.000000
o mesh11901
v 0.130193 0.181806 0.0831591 
v 0.130193 0.182025 0.0837605 
v 0.130193 0.182627 0.0835416 
v 0.130193 0.182408 0.0829402 
vn -1 0 0 
vn -1 0 0 
vn -1 0 0 
vn -1 0 0 
f 1225//1225 1226//1226 1227//1227 
f 1227//1227 1228//1228 1225//1225 
usemtl 0.823529_0.823529_1.000000_0.000000_0.000000
o mesh11902
v 0.133243 0.181806 0.0831591 
v 0.133243 0.182025 0.0837605 
v 0.130193 0.182025 0.0837605 
v 0.130193 0.181806 0.0831591 
vn 0 -0.939693 0.34202 
vn 0 -0.939693 0.34202 
vn 0 -0.939693 0.34202 
vn 0 -0.939693 0.34202 
f 1229//1229 1230//1230 1231//1231 
f 1231//1231 1232//1232 1229//1229 
o mesh11903
v 0.133243 0.181806 0.0831591 
v 0.130193 0.181806 0.0831591 
v 0.130193 0.182408 0.0829402 
v 0.133243 0.182408 0.0829402 
vn 0 -0.34202 -0.939693 
vn 0 -0.34202 -0.939693 
vn 0 -0.34202 -0.939693 
vn 0 -0.34202 -0.939693 
f 1233//1233 1234//1234 1235//1235 
f 1235//1235 1236//1236 1233//1233 
o mesh11904
v 0.133243 0.182408 0.0829402 
v 0.130193 0.182408 0.0829402 
v 0.130193 0.182627 0.0835416 
v 0.133243 0.182627 0.0835416 
vn 0 0.939693 -0.34202 
vn 0 0.939693 -0.34202 
vn 0 0.939693 -0.34202 
vn 0 0.939693 -0.34202 
f 1237//1237 1238//1238 1239//1239 
f 1239//1239 1240//1240 1237//1237 
o mesh11905
v 0.133243 0.18024 0.0844103 
v 0.130193 0.18024 0.0844103 
v 0.130193 0.179639 0.0846292 
v 0.133243 0.179639 0.0846292 
vn 0 0.34202 0.939693 
vn 0 0.34202 0.939693 
vn 0 0.34202 0.939693 
vn 0 0.34202 0.939693 
f 1241//1241 1242//1242 1243//1243 
f 1243//1243 1244//1244 1241//1241 
o mesh11906
v 0.130193 0.17942 0.0840278 
v 0.130193 0.179639 0.0846292 
v 0.130193 0.18024 0.0844103 
v 0.130193 0.180021 0.0838089 
vn -1 0 0 
vn -1 0 0 
vn -1 0 0 
vn -1 0 0 
f 1245//1245 1246//1246 1247//1247 
f 1247//1247 1248//1248 1245//1245 
o mesh11907
v 0.133243 0.17942 0.0840278 
v 0.133243 0.179639 0.0846292 
v 0.130193 0.179639 0.0846292 
v 0.130193 0.17942 0.0840278 
vn 0 -0.939693 0.34202 
vn 0 -0.939693 0.34202 
vn 0 -0.939693 0.34202 
vn 0 -0.939693 0.34202 
f 1249//1249 1250//1250 1251//1251 
f 1251//1251 1252//1252 1249//1249 
o mesh11908
v 0.133243 0.17942 0.0840278 
v 0.130193 0.17942 0.0840278 
v 0.130193 0.180021 0.0838089 
v 0.133243 0.180021 0.0838089 
vn 0 -0.34202 -0.939693 
vn 0 -0.34202 -0.939693 
vn 0 -0.34202 -0.939693 
vn 0 -0.34202 -0.939693 
f 1253//1253 1254//1254 1255//1255 
f 1255//1255 1256//1256 1253//1253 
o mesh11909
v 0.133243 0.180021 0.0838089 
v 0.130193 0.180021 0.0838089 
v 0.130193 0.18024 0.0844103 
v 0.133243 0.18024 0.0844103 
vn 0 0.939693 -0.34202 
vn 0 0.939693 -0.34202 
vn 0 0.939693 -0.34202 
vn 0 0.939693 -0.34202 
f 1257//1257 1258//1258 1259//1259 
f 1259//1259 1260//1260 1257//1257 
