# OBJ generated by ONSHAPE BY PTC INC, 1.215 Units = meters
mtllib EBoxNewAsm_stp_1_Beelink_mini_PC_v4_stp_1_Beelink_mini_PC_v4_60_stp_1_solid1.mtl
g EBoxNewAsm.stp-1/Beelink mini PC v4.stp-1/Beelink mini PC v4-60.stp-1-solid1
usemtl 0.960784_0.960784_0.964706_0.000000_0.000000
o mesh13393
v 0.20715 0.21161 0.194769 
v 0.21915 0.21161 0.194769 
v 0.21915 0.200052 0.198975 
v 0.20715 0.200052 0.198975 
vn 5.09196e-14 -0.34202 -0.939693 
vn 5.09196e-14 -0.34202 -0.939693 
vn 5.09196e-14 -0.34202 -0.939693 
vn 5.09196e-14 -0.34202 -0.939693 
f 1//1 2//2 3//3 
f 3//3 4//4 1//1 
o mesh13394
v 0.21915 0.200052 0.198975 
v 0.21915 0.201762 0.203674 
v 0.20715 0.201762 0.203674 
v 0.20715 0.200052 0.198975 
vn 0 -0.939693 0.34202 
vn 0 -0.939693 0.34202 
vn 0 -0.939693 0.34202 
vn 0 -0.939693 0.34202 
f 5//5 6//6 7//7 
f 7//7 8//8 5//5 
o mesh13395
v 0.20715 0.201762 0.203674 
v 0.21915 0.201762 0.203674 
v 0.21915 0.213321 0.199467 
v 0.20715 0.213321 0.199467 
vn -5.09196e-14 0.34202 0.939693 
vn -5.09196e-14 0.34202 0.939693 
vn -5.09196e-14 0.34202 0.939693 
vn -5.09196e-14 0.34202 0.939693 
f 9//9 10//10 11//11 
f 11//11 12//12 9//9 
o mesh13396
v 0.21915 0.21161 0.194769 
v 0.20715 0.21161 0.194769 
v 0.20715 0.213321 0.199467 
v 0.21915 0.213321 0.199467 
vn 0 0.939693 -0.34202 
vn 0 0.939693 -0.34202 
vn 0 0.939693 -0.34202 
vn 0 0.939693 -0.34202 
f 13//13 14//14 15//15 
f 15//15 16//16 13//13 
o mesh13397
v 0.21915 0.21161 0.194769 
v 0.21915 0.213321 0.199467 
v 0.21915 0.213192 0.199407 
v 0.21915 0.201762 0.203674 
v 0.21915 0.201822 0.203546 
v 0.21915 0.200052 0.198975 
v 0.21915 0.20018 0.199035 
v 0.21915 0.211551 0.194897 
vn 1 1.74155e-14 4.78488e-14 
vn 1 1.74155e-14 4.78488e-14 
vn 1 1.74155e-14 4.78488e-14 
vn 1 1.74155e-14 4.78488e-14 
vn 1 1.74155e-14 4.78488e-14 
vn 1 1.74155e-14 4.78488e-14 
vn 1 1.74155e-14 4.78488e-14 
vn 1 1.74155e-14 4.78488e-14 
f 17//17 18//18 19//19 
f 18//18 20//20 21//21 
f 22//22 23//23 21//21 
f 17//17 24//24 23//23 
f 21//21 19//19 18//18 
f 23//23 22//22 17//17 
f 21//21 20//20 22//22 
f 19//19 24//24 17//17 
o mesh13398
v 0.20715 0.213321 0.199467 
v 0.20715 0.213192 0.199407 
v 0.20715 0.201822 0.203546 
v 0.20715 0.21161 0.194769 
v 0.20715 0.211551 0.194897 
v 0.20715 0.200052 0.198975 
v 0.20715 0.20018 0.199035 
v 0.20715 0.201762 0.203674 
vn -1 -1.74155e-14 -4.78488e-14 
vn -1 -1.74155e-14 -4.78488e-14 
vn -1 -1.74155e-14 -4.78488e-14 
vn -1 -1.74155e-14 -4.78488e-14 
vn -1 -1.74155e-14 -4.78488e-14 
vn -1 -1.74155e-14 -4.78488e-14 
vn -1 -1.74155e-14 -4.78488e-14 
vn -1 -1.74155e-14 -4.78488e-14 
f 25//25 26//26 27//27 
f 28//28 29//29 26//26 
f 26//26 25//25 28//28 
f 30//30 31//31 29//29 
f 29//29 28//28 30//30 
f 32//32 27//27 31//31 
f 31//31 30//30 32//32 
f 27//27 32//32 25//25 
o mesh13399
v 0.21915 0.20018 0.199035 
v 0.20715 0.20018 0.199035 
v 0.20715 0.201822 0.203546 
v 0.21915 0.201822 0.203546 
vn 0 0.939693 -0.34202 
vn 0 0.939693 -0.34202 
vn 0 0.939693 -0.34202 
vn 0 0.939693 -0.34202 
f 33//33 34//34 35//35 
f 35//35 36//36 33//33 
o mesh13400
v 0.20715 0.211551 0.194897 
v 0.20715 0.20018 0.199035 
v 0.21915 0.20018 0.199035 
v 0.21915 0.211551 0.194897 
vn -5.09196e-14 0.34202 0.939693 
vn -5.09196e-14 0.34202 0.939693 
vn -5.09196e-14 0.34202 0.939693 
vn -5.09196e-14 0.34202 0.939693 
f 37//37 38//38 39//39 
f 39//39 40//40 37//37 
o mesh13401
v 0.21915 0.211551 0.194897 
v 0.21915 0.213192 0.199407 
v 0.20715 0.213192 0.199407 
v 0.20715 0.211551 0.194897 
vn 0 -0.939693 0.34202 
vn 0 -0.939693 0.34202 
vn 0 -0.939693 0.34202 
vn 0 -0.939693 0.34202 
f 41//41 42//42 43//43 
f 43//43 44//44 41//41 
o mesh13402
v 0.20715 0.201822 0.203546 
v 0.20715 0.213192 0.199407 
v 0.21915 0.213192 0.199407 
v 0.21915 0.201822 0.203546 
vn 5.09196e-14 -0.34202 -0.939693 
vn 5.09196e-14 -0.34202 -0.939693 
vn 5.09196e-14 -0.34202 -0.939693 
vn 5.09196e-14 -0.34202 -0.939693 
f 45//45 46//46 47//47 
f 47//47 48//48 45//45 
