# OBJ generated by ONSHAPE BY PTC INC, 1.215 Units = meters
mtllib EBoxNewAsm_stp_1_Beelink_mini_PC_v4_stp_1_Beelink_mini_PC_v4_82_stp_1_solid1.mtl
g EBoxNewAsm.stp-1/Beelink mini PC v4.stp-1/Beelink mini PC v4-82.stp-1-solid1
usemtl 0.000000_0.000000_0.000000_0.000000_0.000000
o mesh16155
v 0.30818 0.146203 0.201016 
v 0.30489 0.143956 0.201834 
v 0.305395 0.144083 0.201788 
v 0.306789 0.144751 0.201545 
v 0.307566 0.145408 0.201305 
v 0.307895 0.14579 0.201166 
v 0.305884 0.14426 0.201723 
v 0.30385 0.143853 0.201871 
v 0.308605 0.1471 0.20069 
v 0.308741 0.147575 0.200517 
v 0.308418 0.146641 0.200857 
v 0.307196 0.14506 0.201432 
v 0.30635 0.144483 0.201642 
v 0.304373 0.143879 0.201862 
v 0.308823 0.148061 0.20034 
v 0.30885 0.148552 0.200161 
v 0.30885 0.157385 0.196946 
v 0.29445 0.143853 0.201871 
vn -5.09196e-14 0.34202 0.939693 
vn -5.09196e-14 0.34202 0.939693 
vn -5.09196e-14 0.34202 0.939693 
vn -5.09196e-14 0.34202 0.939693 
vn -5.09196e-14 0.34202 0.939693 
vn -5.09196e-14 0.34202 0.939693 
vn -5.09196e-14 0.34202 0.939693 
vn -5.09196e-14 0.34202 0.939693 
vn -5.09196e-14 0.34202 0.939693 
vn -5.09196e-14 0.34202 0.939693 
vn -5.09196e-14 0.34202 0.939693 
vn -5.09196e-14 0.34202 0.939693 
vn -5.09196e-14 0.34202 0.939693 
vn -5.09196e-14 0.34202 0.939693 
vn -5.09196e-14 0.34202 0.939693 
vn -5.09196e-14 0.34202 0.939693 
vn -5.09196e-14 0.34202 0.939693 
vn -5.09196e-14 0.34202 0.939693 
f 1//1 2//2 3//3 
f 4//4 5//5 6//6 
f 3//3 7//7 1//1 
f 8//8 9//9 10//10 
f 8//8 1//1 11//11 
f 4//4 12//12 5//5 
f 7//7 13//13 1//1 
f 11//11 9//9 8//8 
f 13//13 4//4 1//1 
f 1//1 8//8 14//14 
f 10//10 15//15 8//8 
f 14//14 2//2 1//1 
f 6//6 1//1 4//4 
f 15//15 16//16 8//8 
f 17//17 18//18 8//8 
f 16//16 17//17 8//8 
o mesh16156
v 0.29445 0.143853 0.201871 
v 0.30885 0.157385 0.196946 
v 0.30885 0.156701 0.195067 
v 0.29445 0.143169 0.199992 
vn -0.707107 0.664463 -0.241845 
vn -0.707107 0.664463 -0.241845 
vn -0.707107 0.664463 -0.241845 
vn -0.707107 0.664463 -0.241845 
f 19//19 20//20 21//21 
f 21//21 22//22 19//19 
o mesh16157
v 0.30818 0.145519 0.199137 
v 0.305395 0.143399 0.199908 
v 0.30489 0.143272 0.199954 
v 0.305884 0.143576 0.199844 
v 0.30635 0.143799 0.199763 
v 0.307566 0.144724 0.199426 
v 0.307196 0.144376 0.199553 
v 0.307895 0.145106 0.199287 
v 0.304373 0.143195 0.199982 
v 0.308605 0.146416 0.19881 
v 0.308418 0.145957 0.198977 
v 0.308823 0.147377 0.198461 
v 0.308741 0.146891 0.198637 
v 0.306789 0.144067 0.199665 
v 0.30885 0.147868 0.198282 
v 0.30385 0.143169 0.199992 
v 0.29445 0.143169 0.199992 
v 0.30885 0.156701 0.195067 
vn 5.09196e-14 -0.34202 -0.939693 
vn 5.09196e-14 -0.34202 -0.939693 
vn 5.09196e-14 -0.34202 -0.939693 
vn 5.09196e-14 -0.34202 -0.939693 
vn 5.09196e-14 -0.34202 -0.939693 
vn 5.09196e-14 -0.34202 -0.939693 
vn 5.09196e-14 -0.34202 -0.939693 
vn 5.09196e-14 -0.34202 -0.939693 
vn 5.09196e-14 -0.34202 -0.939693 
vn 5.09196e-14 -0.34202 -0.939693 
vn 5.09196e-14 -0.34202 -0.939693 
vn 5.09196e-14 -0.34202 -0.939693 
vn 5.09196e-14 -0.34202 -0.939693 
vn 5.09196e-14 -0.34202 -0.939693 
vn 5.09196e-14 -0.34202 -0.939693 
vn 5.09196e-14 -0.34202 -0.939693 
vn 5.09196e-14 -0.34202 -0.939693 
vn 5.09196e-14 -0.34202 -0.939693 
f 23//23 24//24 25//25 
f 23//23 26//26 24//24 
f 27//27 28//28 29//29 
f 27//27 23//23 30//30 
f 31//31 32//32 33//33 
f 31//31 34//34 35//35 
f 23//23 27//27 26//26 
f 30//30 28//28 27//27 
f 35//35 32//32 31//31 
f 29//29 36//36 27//27 
f 31//31 37//37 34//34 
f 33//33 23//23 31//31 
f 25//25 31//31 23//23 
f 31//31 38//38 37//37 
f 39//39 40//40 37//37 
f 38//38 39//39 37//37 
o mesh16158
v 0.30885 0.148552 0.200161 
v 0.30885 0.147868 0.198282 
v 0.30885 0.156701 0.195067 
v 0.30885 0.157385 0.196946 
vn 1 1.74155e-14 4.78488e-14 
vn 1 1.74155e-14 4.78488e-14 
vn 1 1.74155e-14 4.78488e-14 
vn 1 1.74155e-14 4.78488e-14 
f 41//41 42//42 43//43 
f 43//43 44//44 41//41 
o mesh16159
v 0.30885 0.147868 0.198282 
v 0.30885 0.148552 0.200161 
v 0.308823 0.148061 0.20034 
v 0.308823 0.147377 0.198461 
v 0.308741 0.147575 0.200517 
v 0.308741 0.146891 0.198637 
v 0.308605 0.1471 0.20069 
v 0.308605 0.146416 0.19881 
v 0.308418 0.146641 0.200857 
v 0.308418 0.145957 0.198977 
v 0.30818 0.146203 0.201016 
v 0.30818 0.145519 0.199137 
v 0.307895 0.14579 0.201166 
v 0.307895 0.145106 0.199287 
v 0.307566 0.145408 0.201305 
v 0.307566 0.144724 0.199426 
v 0.307196 0.14506 0.201432 
v 0.307196 0.144376 0.199553 
v 0.306789 0.144751 0.201545 
v 0.306789 0.144067 0.199665 
v 0.30635 0.144483 0.201642 
v 0.30635 0.143799 0.199763 
v 0.305884 0.14426 0.201723 
v 0.305884 0.143576 0.199844 
v 0.305395 0.144083 0.201788 
v 0.305395 0.143399 0.199908 
v 0.30489 0.143956 0.201834 
v 0.30489 0.143272 0.199954 
v 0.304373 0.143879 0.201862 
v 0.304373 0.143195 0.199982 
v 0.30385 0.143853 0.201871 
v 0.30385 0.143169 0.199992 
vn 1 1.74155e-14 4.78488e-14 
vn 1 1.74155e-14 4.78488e-14 
vn 0.994522 -0.0982246 0.0357508 
vn 0.994522 -0.0982246 0.0357508 
vn 0.978148 -0.195373 0.07111 
vn 0.978148 -0.195373 0.07111 
vn 0.951057 -0.290381 0.10569 
vn 0.951057 -0.290381 0.10569 
vn 0.913545 -0.382207 0.139112 
vn 0.913545 -0.382207 0.139112 
vn 0.866025 -0.469846 0.17101 
vn 0.866025 -0.469846 0.17101 
vn 0.809017 -0.552337 0.201034 
vn 0.809017 -0.552337 0.201034 
vn 0.743145 -0.628777 0.228856 
vn 0.743145 -0.628777 0.228856 
vn 0.669131 -0.698328 0.25417 
vn 0.669131 -0.698328 0.25417 
vn 0.587785 -0.760227 0.2767 
vn 0.587785 -0.760227 0.2767 
vn 0.5 -0.813798 0.296198 
vn 0.5 -0.813798 0.296198 
vn 0.406737 -0.858452 0.312451 
vn 0.406737 -0.858452 0.312451 
vn 0.309017 -0.893701 0.32528 
vn 0.309017 -0.893701 0.32528 
vn 0.207912 -0.919158 0.334546 
vn 0.207912 -0.919158 0.334546 
vn 0.104528 -0.934545 0.340147 
vn 0.104528 -0.934545 0.340147 
vn 9.49411e-16 -0.939693 0.34202 
vn 9.49411e-16 -0.939693 0.34202 
f 45//45 46//46 47//47 
f 48//48 47//47 49//49 
f 50//50 49//49 51//51 
f 52//52 51//51 53//53 
f 54//54 53//53 55//55 
f 56//56 55//55 57//57 
f 58//58 57//57 59//59 
f 60//60 59//59 61//61 
f 62//62 61//61 63//63 
f 64//64 63//63 65//65 
f 66//66 65//65 67//67 
f 68//68 67//67 69//69 
f 70//70 69//69 71//71 
f 72//72 71//71 73//73 
f 74//74 73//73 75//75 
f 75//75 76//76 74//74 
f 73//73 74//74 72//72 
f 71//71 72//72 70//70 
f 69//69 70//70 68//68 
f 67//67 68//68 66//66 
f 65//65 66//66 64//64 
f 63//63 64//64 62//62 
f 61//61 62//62 60//60 
f 59//59 60//60 58//58 
f 57//57 58//58 56//56 
f 55//55 56//56 54//54 
f 53//53 54//54 52//52 
f 51//51 52//52 50//50 
f 49//49 50//50 48//48 
f 47//47 48//48 45//45 
o mesh16160
v 0.30385 0.143169 0.199992 
v 0.30385 0.143853 0.201871 
v 0.29445 0.143853 0.201871 
v 0.29445 0.143169 0.199992 
vn 9.49411e-16 -0.939693 0.34202 
vn 9.49411e-16 -0.939693 0.34202 
vn 9.49411e-16 -0.939693 0.34202 
vn 9.49411e-16 -0.939693 0.34202 
f 77//77 78//78 79//79 
f 79//79 80//80 77//77 
