# OBJ generated by ONSHAPE BY PTC INC, 1.215 Units = meters
mtllib EBoxNewAsm_stp_1_Beelink_mini_PC_v4_stp_1_Beelink_mini_PC_v4_81_stp_1_solid1.mtl
g EBoxNewAsm.stp-1/Beelink mini PC v4.stp-1/Beelink mini PC v4-81.stp-1-solid1
usemtl 0.000000_0.000000_0.000000_0.000000_0.000000
o mesh8028
v 0.209105 0.14579 0.201166 
v 0.208259 0.147575 0.200517 
v 0.208395 0.1471 0.20069 
v 0.209434 0.145408 0.201305 
v 0.208582 0.146641 0.200857 
v 0.20882 0.146203 0.201016 
v 0.209804 0.14506 0.201432 
v 0.20815 0.148552 0.200161 
v 0.208177 0.148061 0.20034 
v 0.21065 0.144483 0.201642 
v 0.211116 0.14426 0.201723 
v 0.21211 0.143956 0.201834 
v 0.212627 0.143879 0.201862 
v 0.210211 0.144751 0.201545 
v 0.211605 0.144083 0.201788 
v 0.21315 0.143853 0.201871 
v 0.20815 0.157385 0.196946 
v 0.22255 0.143853 0.201871 
vn -5.09196e-14 0.34202 0.939693 
vn -5.09196e-14 0.34202 0.939693 
vn -5.09196e-14 0.34202 0.939693 
vn -5.09196e-14 0.34202 0.939693 
vn -5.09196e-14 0.34202 0.939693 
vn -5.09196e-14 0.34202 0.939693 
vn -5.09196e-14 0.34202 0.939693 
vn -5.09196e-14 0.34202 0.939693 
vn -5.09196e-14 0.34202 0.939693 
vn -5.09196e-14 0.34202 0.939693 
vn -5.09196e-14 0.34202 0.939693 
vn -5.09196e-14 0.34202 0.939693 
vn -5.09196e-14 0.34202 0.939693 
vn -5.09196e-14 0.34202 0.939693 
vn -5.09196e-14 0.34202 0.939693 
vn -5.09196e-14 0.34202 0.939693 
vn -5.09196e-14 0.34202 0.939693 
vn -5.09196e-14 0.34202 0.939693 
f 1//1 2//2 3//3 
f 2//2 1//1 4//4 
f 3//3 5//5 1//1 
f 5//5 6//6 1//1 
f 7//7 8//8 9//9 
f 8//8 10//10 11//11 
f 9//9 2//2 7//7 
f 8//8 12//12 13//13 
f 8//8 14//14 10//10 
f 4//4 7//7 2//2 
f 8//8 15//15 12//12 
f 7//7 14//14 8//8 
f 11//11 15//15 8//8 
f 16//16 17//17 8//8 
f 13//13 16//16 8//8 
f 16//16 18//18 17//17 
o mesh8029
v 0.21315 0.143169 0.199992 
v 0.21315 0.143853 0.201871 
v 0.212627 0.143879 0.201862 
v 0.212627 0.143195 0.199982 
v 0.21211 0.143956 0.201834 
v 0.21211 0.143272 0.199954 
v 0.211605 0.144083 0.201788 
v 0.211605 0.143399 0.199908 
v 0.211116 0.14426 0.201723 
v 0.211116 0.143576 0.199844 
v 0.21065 0.144483 0.201642 
v 0.21065 0.143799 0.199763 
v 0.210211 0.144751 0.201545 
v 0.210211 0.144067 0.199665 
v 0.209804 0.14506 0.201432 
v 0.209804 0.144376 0.199553 
v 0.209434 0.145408 0.201305 
v 0.209434 0.144724 0.199426 
v 0.209105 0.14579 0.201166 
v 0.209105 0.145106 0.199287 
v 0.20882 0.146203 0.201016 
v 0.20882 0.145519 0.199137 
v 0.208582 0.146641 0.200857 
v 0.208582 0.145957 0.198977 
v 0.208395 0.1471 0.20069 
v 0.208395 0.146416 0.19881 
v 0.208259 0.147575 0.200517 
v 0.208259 0.146891 0.198637 
v 0.208177 0.148061 0.20034 
v 0.208177 0.147377 0.198461 
v 0.20815 0.148552 0.200161 
v 0.20815 0.147868 0.198282 
vn 8.88178e-16 -0.939693 0.34202 
vn 8.88178e-16 -0.939693 0.34202 
vn -0.104528 -0.934545 0.340147 
vn -0.104528 -0.934545 0.340147 
vn -0.207912 -0.919158 0.334546 
vn -0.207912 -0.919158 0.334546 
vn -0.309017 -0.893701 0.32528 
vn -0.309017 -0.893701 0.32528 
vn -0.406737 -0.858452 0.312451 
vn -0.406737 -0.858452 0.312451 
vn -0.5 -0.813798 0.296198 
vn -0.5 -0.813798 0.296198 
vn -0.587785 -0.760227 0.2767 
vn -0.587785 -0.760227 0.2767 
vn -0.669131 -0.698328 0.25417 
vn -0.669131 -0.698328 0.25417 
vn -0.743145 -0.628777 0.228856 
vn -0.743145 -0.628777 0.228856 
vn -0.809017 -0.552337 0.201034 
vn -0.809017 -0.552337 0.201034 
vn -0.866025 -0.469846 0.17101 
vn -0.866025 -0.469846 0.17101 
vn -0.913545 -0.382207 0.139112 
vn -0.913545 -0.382207 0.139112 
vn -0.951057 -0.290381 0.10569 
vn -0.951057 -0.290381 0.10569 
vn -0.978148 -0.195373 0.07111 
vn -0.978148 -0.195373 0.07111 
vn -0.994522 -0.0982246 0.0357508 
vn -0.994522 -0.0982246 0.0357508 
vn -1 -1.95596e-14 -4.70684e-14 
vn -1 -1.95596e-14 -4.70684e-14 
f 19//19 20//20 21//21 
f 22//22 21//21 23//23 
f 24//24 23//23 25//25 
f 26//26 25//25 27//27 
f 28//28 27//27 29//29 
f 30//30 29//29 31//31 
f 32//32 31//31 33//33 
f 34//34 33//33 35//35 
f 36//36 35//35 37//37 
f 38//38 37//37 39//39 
f 40//40 39//39 41//41 
f 42//42 41//41 43//43 
f 44//44 43//43 45//45 
f 46//46 45//45 47//47 
f 48//48 47//47 49//49 
f 49//49 50//50 48//48 
f 47//47 48//48 46//46 
f 45//45 46//46 44//44 
f 43//43 44//44 42//42 
f 41//41 42//42 40//40 
f 39//39 40//40 38//38 
f 37//37 38//38 36//36 
f 35//35 36//36 34//34 
f 33//33 34//34 32//32 
f 31//31 32//32 30//30 
f 29//29 30//30 28//28 
f 27//27 28//28 26//26 
f 25//25 26//26 24//24 
f 23//23 24//24 22//22 
f 21//21 22//22 19//19 
o mesh8030
v 0.209105 0.145106 0.199287 
v 0.208582 0.145957 0.198977 
v 0.208395 0.146416 0.19881 
v 0.20882 0.145519 0.199137 
v 0.208259 0.146891 0.198637 
v 0.209804 0.144376 0.199553 
v 0.209434 0.144724 0.199426 
v 0.208177 0.147377 0.198461 
v 0.211605 0.143399 0.199908 
v 0.211116 0.143576 0.199844 
v 0.210211 0.144067 0.199665 
v 0.21065 0.143799 0.199763 
v 0.21315 0.143169 0.199992 
v 0.212627 0.143195 0.199982 
v 0.21211 0.143272 0.199954 
v 0.20815 0.147868 0.198282 
v 0.20815 0.156701 0.195067 
v 0.22255 0.143169 0.199992 
vn 5.09196e-14 -0.34202 -0.939693 
vn 5.09196e-14 -0.34202 -0.939693 
vn 5.09196e-14 -0.34202 -0.939693 
vn 5.09196e-14 -0.34202 -0.939693 
vn 5.09196e-14 -0.34202 -0.939693 
vn 5.09196e-14 -0.34202 -0.939693 
vn 5.09196e-14 -0.34202 -0.939693 
vn 5.09196e-14 -0.34202 -0.939693 
vn 5.09196e-14 -0.34202 -0.939693 
vn 5.09196e-14 -0.34202 -0.939693 
vn 5.09196e-14 -0.34202 -0.939693 
vn 5.09196e-14 -0.34202 -0.939693 
vn 5.09196e-14 -0.34202 -0.939693 
vn 5.09196e-14 -0.34202 -0.939693 
vn 5.09196e-14 -0.34202 -0.939693 
vn 5.09196e-14 -0.34202 -0.939693 
vn 5.09196e-14 -0.34202 -0.939693 
vn 5.09196e-14 -0.34202 -0.939693 
f 51//51 52//52 53//53 
f 51//51 54//54 52//52 
f 55//55 56//56 57//57 
f 57//57 51//51 55//55 
f 53//53 55//55 51//51 
f 58//58 59//59 60//60 
f 58//58 61//61 56//56 
f 60//60 62//62 58//58 
f 58//58 63//63 64//64 
f 62//62 61//61 58//58 
f 64//64 65//65 58//58 
f 65//65 59//59 58//58 
f 55//55 58//58 56//56 
f 58//58 66//66 63//63 
f 67//67 68//68 63//63 
f 66//66 67//67 63//63 
o mesh8031
v 0.20815 0.147868 0.198282 
v 0.20815 0.148552 0.200161 
v 0.20815 0.157385 0.196946 
v 0.20815 0.156701 0.195067 
vn -1 -1.95596e-14 -4.70684e-14 
vn -1 -1.95596e-14 -4.70684e-14 
vn -1 -1.95596e-14 -4.70684e-14 
vn -1 -1.95596e-14 -4.70684e-14 
f 69//69 70//70 71//71 
f 71//71 72//72 69//69 
o mesh8032
v 0.20815 0.157385 0.196946 
v 0.22255 0.143853 0.201871 
v 0.22255 0.143169 0.199992 
v 0.20815 0.156701 0.195067 
vn 0.707107 0.664463 -0.241845 
vn 0.707107 0.664463 -0.241845 
vn 0.707107 0.664463 -0.241845 
vn 0.707107 0.664463 -0.241845 
f 73//73 74//74 75//75 
f 75//75 76//76 73//73 
o mesh8033
v 0.22255 0.143169 0.199992 
v 0.22255 0.143853 0.201871 
v 0.21315 0.143853 0.201871 
v 0.21315 0.143169 0.199992 
vn 0 -0.939693 0.34202 
vn 0 -0.939693 0.34202 
vn 0 -0.939693 0.34202 
vn 0 -0.939693 0.34202 
f 77//77 78//78 79//79 
f 79//79 80//80 77//77 
