# OBJ generated by ONSHAPE BY PTC INC, 1.215 Units = meters
mtllib EBoxNewAsm_stp_1_IMC413_1_stp_1_IMC413_1_27_stp_1_solid1.mtl
g EBoxNewAsm.stp-1/IMC413_1.stp-1/IMC413_1-27.stp-1-solid1
usemtl 0.823529_0.823529_1.000000_0.000000_0.000000
o mesh8843
v 0.141623 0.181973 0.0892407 
v 0.141623 0.181371 0.0894596 
v 0.141623 0.181153 0.0888582 
v 0.141623 0.181754 0.0886393 
vn 1 0 0 
vn 1 0 0 
vn 1 0 0 
vn 1 0 0 
f 1//1 2//2 3//3 
f 3//3 4//4 1//1 
o mesh8844
v 0.141623 0.181153 0.0888582 
v 0.135783 0.181153 0.0888582 
v 0.135783 0.181754 0.0886393 
v 0.141623 0.181754 0.0886393 
vn 0 -0.34202 -0.939693 
vn 0 -0.34202 -0.939693 
vn 0 -0.34202 -0.939693 
vn 0 -0.34202 -0.939693 
f 5//5 6//6 7//7 
f 7//7 8//8 5//5 
o mesh8845
v 0.135783 0.181754 0.0886393 
v 0.135783 0.181973 0.0892407 
v 0.141623 0.181973 0.0892407 
v 0.141623 0.181754 0.0886393 
vn 0 0.939693 -0.34202 
vn 0 0.939693 -0.34202 
vn 0 0.939693 -0.34202 
vn 0 0.939693 -0.34202 
f 9//9 10//10 11//11 
f 11//11 12//12 9//9 
o mesh8846
v 0.141623 0.181371 0.0894596 
v 0.141623 0.181973 0.0892407 
v 0.135783 0.181973 0.0892407 
v 0.135783 0.181371 0.0894596 
vn 0 0.34202 0.939693 
vn 0 0.34202 0.939693 
vn 0 0.34202 0.939693 
vn 0 0.34202 0.939693 
f 13//13 14//14 15//15 
f 15//15 16//16 13//13 
o mesh8847
v 0.135783 0.181153 0.0888582 
v 0.141623 0.181153 0.0888582 
v 0.141623 0.181371 0.0894596 
v 0.135783 0.181371 0.0894596 
vn 0 -0.939693 0.34202 
vn 0 -0.939693 0.34202 
vn 0 -0.939693 0.34202 
vn 0 -0.939693 0.34202 
f 17//17 18//18 19//19 
f 19//19 20//20 17//17 
usemtl 0.372549_0.372549_0.372549_0.000000_0.000000
o mesh8848
v 0.135783 0.186528 0.0869019 
v 0.135783 0.186813 0.0857869 
v 0.135783 0.187198 0.0859662 
v 0.135783 0.187802 0.0876247 
v 0.135783 0.186746 0.0875033 
v 0.135783 0.18436 0.088372 
v 0.135783 0.186145 0.0877222 
v 0.135783 0.185926 0.0871208 
v 0.135783 0.184427 0.0866556 
v 0.135783 0.184811 0.0868349 
v 0.135783 0.184141 0.0877706 
v 0.135783 0.180641 0.0902309 
v 0.135783 0.183758 0.0885909 
v 0.135783 0.183539 0.0879895 
v 0.135783 0.181973 0.0892407 
v 0.135783 0.181754 0.0886393 
v 0.135783 0.181371 0.0894596 
v 0.135783 0.181153 0.0888582 
v 0.135783 0.180038 0.0885724 
v 0.135783 0.180217 0.0881878 
v 0.135783 0.18204 0.0875243 
v 0.135783 0.182424 0.0877036 
v 0.135783 0.18499 0.0864504 
v 0.135783 0.191301 0.0851644 
v 0.135783 0.191587 0.0840494 
v 0.135783 0.191972 0.0842287 
v 0.135783 0.192575 0.0858873 
v 0.135783 0.19152 0.0857658 
v 0.135783 0.190919 0.0859847 
v 0.135783 0.188532 0.0868534 
v 0.135783 0.189133 0.0866345 
v 0.135783 0.188313 0.086252 
v 0.135783 0.1907 0.0853833 
v 0.135783 0.187377 0.0855816 
v 0.135783 0.188914 0.0860331 
v 0.135783 0.1892 0.0849181 
v 0.135783 0.189585 0.0850974 
v 0.135783 0.189764 0.0847129 
v 0.135783 0.192635 0.0860517 
v 0.135783 0.192456 0.0864362 
v 0.135783 0.190248 0.0869204 
v 0.135783 0.190069 0.0873049 
v 0.135783 0.190633 0.0870997 
v 0.135783 0.188246 0.0879685 
v 0.135783 0.185475 0.0886579 
v 0.135783 0.185295 0.0890424 
v 0.135783 0.183472 0.0897059 
v 0.135783 0.183088 0.0895266 
v 0.135783 0.182909 0.0899111 
v 0.135783 0.181086 0.0905747 
v 0.135783 0.187862 0.0877892 
v 0.135783 0.187682 0.0881737 
v 0.135783 0.185859 0.0888372 
v 0.135783 0.180701 0.0903954 
v 0.135783 0.182604 0.0873191 
vn 1 0 0 
vn 1 0 0 
vn 1 0 0 
vn 1 0 0 
vn 1 0 0 
vn 1 0 0 
vn 1 0 0 
vn 1 0 0 
vn 1 0 0 
vn 1 0 0 
vn 1 0 0 
vn 1 0 0 
vn 1 0 0 
vn 1 0 0 
vn 1 0 0 
vn 1 0 0 
vn 1 0 0 
vn 1 0 0 
vn 1 0 0 
vn 1 0 0 
vn 1 0 0 
vn 1 0 0 
vn 1 0 0 
vn 1 0 0 
vn 1 0 0 
vn 1 0 0 
vn 1 0 0 
vn 1 0 0 
vn 1 0 0 
vn 1 0 0 
vn 1 0 0 
vn 1 0 0 
vn 1 0 0 
vn 1 0 0 
vn 1 0 0 
vn 1 0 0 
vn 1 0 0 
vn 1 0 0 
vn 1 0 0 
vn 1 0 0 
vn 1 0 0 
vn 1 0 0 
vn 1 0 0 
vn 1 0 0 
vn 1 0 0 
vn 1 0 0 
vn 1 0 0 
vn 1 0 0 
vn 1 0 0 
vn 1 0 0 
vn 1 0 0 
vn 1 0 0 
vn 1 0 0 
vn 1 0 0 
vn 1 0 0 
f 21//21 22//22 23//23 
f 24//24 25//25 21//21 
f 24//24 26//26 27//27 
f 27//27 25//25 24//24 
f 28//28 27//27 26//26 
f 29//29 30//30 31//31 
f 26//26 31//31 28//28 
f 24//24 32//32 33//33 
f 34//34 33//33 35//35 
f 31//31 34//34 29//29 
f 33//33 26//26 24//24 
f 22//22 21//21 28//28 
f 34//34 36//36 29//29 
f 32//32 37//37 35//35 
f 38//38 32//32 39//39 
f 36//36 40//40 41//41 
f 28//28 31//31 22//22 
f 35//35 33//33 32//32 
f 39//39 40//40 38//38 
f 41//41 42//42 36//36 
f 35//35 36//36 34//34 
f 36//36 38//38 40//40 
f 22//22 31//31 30//30 
f 38//38 37//37 32//32 
f 29//29 36//36 42//42 
f 23//23 24//24 21//21 
f 30//30 43//43 22//22 
f 44//44 45//45 46//46 
f 47//47 48//48 44//44 
f 47//47 24//24 49//49 
f 24//24 50//50 51//51 
f 49//49 48//48 47//47 
f 51//51 49//49 24//24 
f 52//52 24//24 23//23 
f 51//51 53//53 49//49 
f 23//23 54//54 52//52 
f 55//55 45//45 53//53 
f 55//55 54//54 56//56 
f 52//52 50//50 24//24 
f 45//45 44//44 53//53 
f 45//45 55//55 57//57 
f 56//56 57//57 55//55 
f 53//53 51//51 55//55 
f 55//55 52//52 54//54 
f 57//57 58//58 45//45 
f 47//47 59//59 60//60 
f 24//24 61//61 62//62 
f 60//60 63//63 47//47 
f 62//62 64//64 24//24 
f 63//63 61//61 47//47 
f 61//61 24//24 47//47 
f 65//65 66//66 67//67 
f 32//32 68//68 69//69 
f 67//67 68//68 65//65 
f 69//69 70//70 32//32 
f 32//32 24//24 65//65 
f 24//24 71//71 72//72 
f 68//68 32//32 65//65 
f 72//72 73//73 24//24 
f 73//73 65//65 24//24 
f 70//70 74//74 32//32 
f 64//64 71//71 24//24 
f 46//46 47//47 44//44 
f 42//42 75//75 29//29 
usemtl 0.823529_0.823529_1.000000_0.000000_0.000000
o mesh8849
v 0.141623 0.183539 0.0879895 
v 0.135783 0.183539 0.0879895 
v 0.135783 0.184141 0.0877706 
v 0.141623 0.184141 0.0877706 
vn 0 -0.34202 -0.939693 
vn 0 -0.34202 -0.939693 
vn 0 -0.34202 -0.939693 
vn 0 -0.34202 -0.939693 
f 76//76 77//77 78//78 
f 78//78 79//79 76//76 
o mesh8850
v 0.141623 0.18436 0.088372 
v 0.141623 0.183758 0.0885909 
v 0.141623 0.183539 0.0879895 
v 0.141623 0.184141 0.0877706 
vn 1 0 0 
vn 1 0 0 
vn 1 0 0 
vn 1 0 0 
f 80//80 81//81 82//82 
f 82//82 83//83 80//80 
o mesh8851
v 0.135783 0.184141 0.0877706 
v 0.135783 0.18436 0.088372 
v 0.141623 0.18436 0.088372 
v 0.141623 0.184141 0.0877706 
vn 0 0.939693 -0.34202 
vn 0 0.939693 -0.34202 
vn 0 0.939693 -0.34202 
vn 0 0.939693 -0.34202 
f 84//84 85//85 86//86 
f 86//86 87//87 84//84 
o mesh8852
v 0.141623 0.183758 0.0885909 
v 0.141623 0.18436 0.088372 
v 0.135783 0.18436 0.088372 
v 0.135783 0.183758 0.0885909 
vn 0 0.34202 0.939693 
vn 0 0.34202 0.939693 
vn 0 0.34202 0.939693 
vn 0 0.34202 0.939693 
f 88//88 89//89 90//90 
f 90//90 91//91 88//88 
o mesh8853
v 0.135783 0.183539 0.0879895 
v 0.141623 0.183539 0.0879895 
v 0.141623 0.183758 0.0885909 
v 0.135783 0.183758 0.0885909 
vn 0 -0.939693 0.34202 
vn 0 -0.939693 0.34202 
vn 0 -0.939693 0.34202 
vn 0 -0.939693 0.34202 
f 92//92 93//93 94//94 
f 94//94 95//95 92//92 
o mesh8854
v 0.141623 0.185926 0.0871208 
v 0.135783 0.185926 0.0871208 
v 0.135783 0.186528 0.0869019 
v 0.141623 0.186528 0.0869019 
vn 0 -0.34202 -0.939693 
vn 0 -0.34202 -0.939693 
vn 0 -0.34202 -0.939693 
vn 0 -0.34202 -0.939693 
f 96//96 97//97 98//98 
f 98//98 99//99 96//96 
usemtl 0.168627_0.780392_0.219608_0.000000_0.000000
o mesh8855
v 0.141623 0.186746 0.0875033 
v 0.141623 0.186145 0.0877222 
v 0.141623 0.185926 0.0871208 
v 0.141623 0.186528 0.0869019 
vn 1 0 0 
vn 1 0 0 
vn 1 0 0 
vn 1 0 0 
f 100//100 101//101 102//102 
f 102//102 103//103 100//100 
usemtl 0.823529_0.823529_1.000000_0.000000_0.000000
o mesh8856
v 0.135783 0.186528 0.0869019 
v 0.135783 0.186746 0.0875033 
v 0.141623 0.186746 0.0875033 
v 0.141623 0.186528 0.0869019 
vn 0 0.939693 -0.34202 
vn 0 0.939693 -0.34202 
vn 0 0.939693 -0.34202 
vn 0 0.939693 -0.34202 
f 104//104 105//105 106//106 
f 106//106 107//107 104//104 
o mesh8857
v 0.141623 0.186145 0.0877222 
v 0.141623 0.186746 0.0875033 
v 0.135783 0.186746 0.0875033 
v 0.135783 0.186145 0.0877222 
vn 0 0.34202 0.939693 
vn 0 0.34202 0.939693 
vn 0 0.34202 0.939693 
vn 0 0.34202 0.939693 
f 108//108 109//109 110//110 
f 110//110 111//111 108//108 
o mesh8858
v 0.135783 0.185926 0.0871208 
v 0.141623 0.185926 0.0871208 
v 0.141623 0.186145 0.0877222 
v 0.135783 0.186145 0.0877222 
vn 0 -0.939693 0.34202 
vn 0 -0.939693 0.34202 
vn 0 -0.939693 0.34202 
vn 0 -0.939693 0.34202 
f 112//112 113//113 114//114 
f 114//114 115//115 112//112 
o mesh8859
v 0.135783 0.188914 0.0860331 
v 0.135783 0.189133 0.0866345 
v 0.141623 0.189133 0.0866345 
v 0.141623 0.188914 0.0860331 
vn 0 0.939693 -0.34202 
vn 0 0.939693 -0.34202 
vn 0 0.939693 -0.34202 
vn 0 0.939693 -0.34202 
f 116//116 117//117 118//118 
f 118//118 119//119 116//116 
o mesh8860
v 0.141623 0.188532 0.0868534 
v 0.141623 0.188313 0.086252 
v 0.141623 0.188914 0.0860331 
v 0.141623 0.189133 0.0866345 
vn 1 0 0 
vn 1 0 0 
vn 1 0 0 
vn 1 0 0 
f 120//120 121//121 122//122 
f 122//122 123//123 120//120 
o mesh8861
v 0.141623 0.188532 0.0868534 
v 0.141623 0.189133 0.0866345 
v 0.135783 0.189133 0.0866345 
v 0.135783 0.188532 0.0868534 
vn 0 0.34202 0.939693 
vn 0 0.34202 0.939693 
vn 0 0.34202 0.939693 
vn 0 0.34202 0.939693 
f 124//124 125//125 126//126 
f 126//126 127//127 124//124 
o mesh8862
v 0.135783 0.188313 0.086252 
v 0.141623 0.188313 0.086252 
v 0.141623 0.188532 0.0868534 
v 0.135783 0.188532 0.0868534 
vn 0 -0.939693 0.34202 
vn 0 -0.939693 0.34202 
vn 0 -0.939693 0.34202 
vn 0 -0.939693 0.34202 
f 128//128 129//129 130//130 
f 130//130 131//131 128//128 
usemtl 0.168627_0.780392_0.219608_0.000000_0.000000
o mesh8863
v 0.141623 0.188914 0.0860331 
v 0.141623 0.188313 0.086252 
v 0.135783 0.188313 0.086252 
v 0.135783 0.188914 0.0860331 
vn 0 -0.34202 -0.939693 
vn 0 -0.34202 -0.939693 
vn 0 -0.34202 -0.939693 
vn 0 -0.34202 -0.939693 
f 132//132 133//133 134//134 
f 134//134 135//135 132//132 
usemtl 0.823529_0.823529_1.000000_0.000000_0.000000
o mesh8864
v 0.135783 0.191301 0.0851644 
v 0.135783 0.19152 0.0857658 
v 0.141623 0.19152 0.0857658 
v 0.141623 0.191301 0.0851644 
vn 0 0.939693 -0.34202 
vn 0 0.939693 -0.34202 
vn 0 0.939693 -0.34202 
vn 0 0.939693 -0.34202 
f 136//136 137//137 138//138 
f 138//138 139//139 136//136 
o mesh8865
v 0.141623 0.190919 0.0859847 
v 0.141623 0.1907 0.0853833 
v 0.141623 0.191301 0.0851644 
v 0.141623 0.19152 0.0857658 
vn 1 0 0 
vn 1 0 0 
vn 1 0 0 
vn 1 0 0 
f 140//140 141//141 142//142 
f 142//142 143//143 140//140 
o mesh8866
v 0.141623 0.190919 0.0859847 
v 0.141623 0.19152 0.0857658 
v 0.135783 0.19152 0.0857658 
v 0.135783 0.190919 0.0859847 
vn 0 0.34202 0.939693 
vn 0 0.34202 0.939693 
vn 0 0.34202 0.939693 
vn 0 0.34202 0.939693 
f 144//144 145//145 146//146 
f 146//146 147//147 144//144 
o mesh8867
v 0.135783 0.1907 0.0853833 
v 0.141623 0.1907 0.0853833 
v 0.141623 0.190919 0.0859847 
v 0.135783 0.190919 0.0859847 
vn 0 -0.939693 0.34202 
vn 0 -0.939693 0.34202 
vn 0 -0.939693 0.34202 
vn 0 -0.939693 0.34202 
f 148//148 149//149 150//150 
f 150//150 151//151 148//148 
o mesh8868
v 0.141623 0.191301 0.0851644 
v 0.141623 0.1907 0.0853833 
v 0.135783 0.1907 0.0853833 
v 0.135783 0.191301 0.0851644 
vn 0 -0.34202 -0.939693 
vn 0 -0.34202 -0.939693 
vn 0 -0.34202 -0.939693 
vn 0 -0.34202 -0.939693 
f 152//152 153//153 154//154 
f 154//154 155//155 152//152 
usemtl 0.372549_0.372549_0.372549_0.000000_0.000000
o mesh8869
v 0.133243 0.180217 0.0881878 
v 0.133243 0.18204 0.0875243 
v 0.135783 0.18204 0.0875243 
v 0.135783 0.180217 0.0881878 
vn 0 -0.34202 -0.939693 
vn 0 -0.34202 -0.939693 
vn 0 -0.34202 -0.939693 
vn 0 -0.34202 -0.939693 
f 156//156 157//157 158//158 
f 158//158 159//159 156//156 
o mesh8870
v 0.135783 0.180038 0.0885724 
v 0.133243 0.180038 0.0885724 
v 0.133243 0.180217 0.0881878 
v 0.135783 0.180217 0.0881878 
vn 0 -0.906308 -0.422618 
vn 0 -0.906308 -0.422618 
vn 0 -0.906308 -0.422618 
vn 0 -0.906308 -0.422618 
f 160//160 161//161 162//162 
f 162//162 163//163 160//160 
o mesh8871
v 0.135783 0.180641 0.0902309 
v 0.133243 0.180641 0.0902309 
v 0.133243 0.180038 0.0885724 
v 0.133243 0.180701 0.0903954 
v 0.135783 0.180701 0.0903954 
v 0.135783 0.180038 0.0885724 
vn 0 -0.939693 0.34202 
vn 0 -0.939693 0.34202 
vn 0 -0.939693 0.34202 
vn 0 -0.939693 0.34202 
vn 0 -0.939693 0.34202 
vn 0 -0.939693 0.34202 
f 164//164 165//165 166//166 
f 167//167 165//165 164//164 
f 164//164 168//168 167//167 
f 166//166 169//169 164//164 
o mesh8872
v 0.135783 0.181086 0.0905747 
v 0.133243 0.181086 0.0905747 
v 0.133243 0.180701 0.0903954 
v 0.135783 0.180701 0.0903954 
vn 0 -0.422618 0.906308 
vn 0 -0.422618 0.906308 
vn 0 -0.422618 0.906308 
vn 0 -0.422618 0.906308 
f 170//170 171//171 172//172 
f 172//172 173//173 170//170 
o mesh8873
v 0.135783 0.181086 0.0905747 
v 0.135783 0.182909 0.0899111 
v 0.133243 0.182909 0.0899111 
v 0.133243 0.181086 0.0905747 
vn 0 0.34202 0.939693 
vn 0 0.34202 0.939693 
vn 0 0.34202 0.939693 
vn 0 0.34202 0.939693 
f 174//174 175//175 176//176 
f 176//176 177//177 174//174 
o mesh8874
v 0.135783 0.183088 0.0895266 
v 0.133243 0.183088 0.0895266 
v 0.133243 0.182909 0.0899111 
v 0.135783 0.182909 0.0899111 
vn 0 0.906308 0.422618 
vn 0 0.906308 0.422618 
vn 0 0.906308 0.422618 
vn 0 0.906308 0.422618 
f 178//178 179//179 180//180 
f 180//180 181//181 178//178 
o mesh8875
v 0.135783 0.183472 0.0897059 
v 0.133243 0.183472 0.0897059 
v 0.133243 0.183088 0.0895266 
v 0.135783 0.183088 0.0895266 
vn 0 -0.422618 0.906308 
vn 0 -0.422618 0.906308 
vn 0 -0.422618 0.906308 
vn 0 -0.422618 0.906308 
f 182//182 183//183 184//184 
f 184//184 185//185 182//182 
o mesh8876
v 0.135783 0.183472 0.0897059 
v 0.135783 0.185295 0.0890424 
v 0.133243 0.185295 0.0890424 
v 0.133243 0.183472 0.0897059 
vn 0 0.34202 0.939693 
vn 0 0.34202 0.939693 
vn 0 0.34202 0.939693 
vn 0 0.34202 0.939693 
f 186//186 187//187 188//188 
f 188//188 189//189 186//186 
o mesh8877
v 0.135783 0.185475 0.0886579 
v 0.133243 0.185475 0.0886579 
v 0.133243 0.185295 0.0890424 
v 0.135783 0.185295 0.0890424 
vn 0 0.906308 0.422618 
vn 0 0.906308 0.422618 
vn 0 0.906308 0.422618 
vn 0 0.906308 0.422618 
f 190//190 191//191 192//192 
f 192//192 193//193 190//190 
o mesh8878
v 0.135783 0.185859 0.0888372 
v 0.133243 0.185859 0.0888372 
v 0.133243 0.185475 0.0886579 
v 0.135783 0.185475 0.0886579 
vn 0 -0.422618 0.906308 
vn 0 -0.422618 0.906308 
vn 0 -0.422618 0.906308 
vn 0 -0.422618 0.906308 
f 194//194 195//195 196//196 
f 196//196 197//197 194//194 
o mesh8879
v 0.135783 0.185859 0.0888372 
v 0.135783 0.187682 0.0881737 
v 0.133243 0.187682 0.0881737 
v 0.133243 0.185859 0.0888372 
vn 0 0.34202 0.939693 
vn 0 0.34202 0.939693 
vn 0 0.34202 0.939693 
vn 0 0.34202 0.939693 
f 198//198 199//199 200//200 
f 200//200 201//201 198//198 
o mesh8880
v 0.135783 0.187862 0.0877892 
v 0.133243 0.187862 0.0877892 
v 0.133243 0.187682 0.0881737 
v 0.135783 0.187682 0.0881737 
vn 0 0.906308 0.422618 
vn 0 0.906308 0.422618 
vn 0 0.906308 0.422618 
vn 0 0.906308 0.422618 
f 202//202 203//203 204//204 
f 204//204 205//205 202//202 
o mesh8881
v 0.135783 0.188246 0.0879685 
v 0.133243 0.188246 0.0879685 
v 0.133243 0.187862 0.0877892 
v 0.135783 0.187862 0.0877892 
vn 0 -0.422618 0.906308 
vn 0 -0.422618 0.906308 
vn 0 -0.422618 0.906308 
vn 0 -0.422618 0.906308 
f 206//206 207//207 208//208 
f 208//208 209//209 206//206 
o mesh8882
v 0.135783 0.188246 0.0879685 
v 0.135783 0.190069 0.0873049 
v 0.133243 0.190069 0.0873049 
v 0.133243 0.188246 0.0879685 
vn 0 0.34202 0.939693 
vn 0 0.34202 0.939693 
vn 0 0.34202 0.939693 
vn 0 0.34202 0.939693 
f 210//210 211//211 212//212 
f 212//212 213//213 210//210 
o mesh8883
v 0.135783 0.190248 0.0869204 
v 0.133243 0.190248 0.0869204 
v 0.133243 0.190069 0.0873049 
v 0.135783 0.190069 0.0873049 
vn 0 0.906308 0.422618 
vn 0 0.906308 0.422618 
vn 0 0.906308 0.422618 
vn 0 0.906308 0.422618 
f 214//214 215//215 216//216 
f 216//216 217//217 214//214 
o mesh8884
v 0.135783 0.190633 0.0870997 
v 0.133243 0.190633 0.0870997 
v 0.133243 0.190248 0.0869204 
v 0.135783 0.190248 0.0869204 
vn 0 -0.422618 0.906308 
vn 0 -0.422618 0.906308 
vn 0 -0.422618 0.906308 
vn 0 -0.422618 0.906308 
f 218//218 219//219 220//220 
f 220//220 221//221 218//218 
o mesh8885
v 0.133243 0.192456 0.0864362 
v 0.133243 0.190633 0.0870997 
v 0.135783 0.190633 0.0870997 
v 0.135783 0.192456 0.0864362 
vn 0 0.34202 0.939693 
vn 0 0.34202 0.939693 
vn 0 0.34202 0.939693 
vn 0 0.34202 0.939693 
f 222//222 223//223 224//224 
f 224//224 225//225 222//222 
o mesh8886
v 0.135783 0.192635 0.0860517 
v 0.133243 0.192635 0.0860517 
v 0.133243 0.192456 0.0864362 
v 0.135783 0.192456 0.0864362 
vn 0 0.906308 0.422618 
vn 0 0.906308 0.422618 
vn 0 0.906308 0.422618 
vn 0 0.906308 0.422618 
f 226//226 227//227 228//228 
f 228//228 229//229 226//226 
o mesh8887
v 0.133243 0.192575 0.0858873 
v 0.133243 0.192635 0.0860517 
v 0.135783 0.192635 0.0860517 
v 0.133243 0.191972 0.0842287 
v 0.135783 0.192575 0.0858873 
v 0.135783 0.191972 0.0842287 
vn 0 0.939693 -0.34202 
vn 0 0.939693 -0.34202 
vn 0 0.939693 -0.34202 
vn 0 0.939693 -0.34202 
vn 0 0.939693 -0.34202 
vn 0 0.939693 -0.34202 
f 230//230 231//231 232//232 
f 233//233 230//230 234//234 
f 234//234 235//235 233//233 
f 232//232 234//234 230//230 
o mesh8888
v 0.135783 0.191587 0.0840494 
v 0.133243 0.191587 0.0840494 
v 0.133243 0.191972 0.0842287 
v 0.135783 0.191972 0.0842287 
vn 0 0.422618 -0.906308 
vn 0 0.422618 -0.906308 
vn 0 0.422618 -0.906308 
vn 0 0.422618 -0.906308 
f 236//236 237//237 238//238 
f 238//238 239//239 236//236 
o mesh8889
v 0.133243 0.189764 0.0847129 
v 0.133243 0.191587 0.0840494 
v 0.135783 0.191587 0.0840494 
v 0.135783 0.189764 0.0847129 
vn 0 -0.34202 -0.939693 
vn 0 -0.34202 -0.939693 
vn 0 -0.34202 -0.939693 
vn 0 -0.34202 -0.939693 
f 240//240 241//241 242//242 
f 242//242 243//243 240//240 
o mesh8890
v 0.135783 0.189585 0.0850974 
v 0.133243 0.189585 0.0850974 
v 0.133243 0.189764 0.0847129 
v 0.135783 0.189764 0.0847129 
vn 0 -0.906308 -0.422618 
vn 0 -0.906308 -0.422618 
vn 0 -0.906308 -0.422618 
vn 0 -0.906308 -0.422618 
f 244//244 245//245 246//246 
f 246//246 247//247 244//244 
o mesh8891
v 0.135783 0.1892 0.0849181 
v 0.133243 0.1892 0.0849181 
v 0.133243 0.189585 0.0850974 
v 0.135783 0.189585 0.0850974 
vn 0 0.422618 -0.906308 
vn 0 0.422618 -0.906308 
vn 0 0.422618 -0.906308 
vn 0 0.422618 -0.906308 
f 248//248 249//249 250//250 
f 250//250 251//251 248//248 
o mesh8892
v 0.135783 0.187377 0.0855816 
v 0.133243 0.187377 0.0855816 
v 0.133243 0.1892 0.0849181 
v 0.135783 0.1892 0.0849181 
vn 0 -0.34202 -0.939693 
vn 0 -0.34202 -0.939693 
vn 0 -0.34202 -0.939693 
vn 0 -0.34202 -0.939693 
f 252//252 253//253 254//254 
f 254//254 255//255 252//252 
o mesh8893
v 0.135783 0.187198 0.0859662 
v 0.133243 0.187198 0.0859662 
v 0.133243 0.187377 0.0855816 
v 0.135783 0.187377 0.0855816 
vn 0 -0.906308 -0.422618 
vn 0 -0.906308 -0.422618 
vn 0 -0.906308 -0.422618 
vn 0 -0.906308 -0.422618 
f 256//256 257//257 258//258 
f 258//258 259//259 256//256 
o mesh8894
v 0.135783 0.186813 0.0857869 
v 0.133243 0.186813 0.0857869 
v 0.133243 0.187198 0.0859662 
v 0.135783 0.187198 0.0859662 
vn 0 0.422618 -0.906308 
vn 0 0.422618 -0.906308 
vn 0 0.422618 -0.906308 
vn 0 0.422618 -0.906308 
f 260//260 261//261 262//262 
f 262//262 263//263 260//260 
o mesh8895
v 0.133243 0.18499 0.0864504 
v 0.133243 0.186813 0.0857869 
v 0.135783 0.186813 0.0857869 
v 0.135783 0.18499 0.0864504 
vn 0 -0.34202 -0.939693 
vn 0 -0.34202 -0.939693 
vn 0 -0.34202 -0.939693 
vn 0 -0.34202 -0.939693 
f 264//264 265//265 266//266 
f 266//266 267//267 264//264 
o mesh8896
v 0.135783 0.18204 0.0875243 
v 0.133243 0.18204 0.0875243 
v 0.133243 0.182424 0.0877036 
v 0.135783 0.182424 0.0877036 
vn 0 0.422618 -0.906308 
vn 0 0.422618 -0.906308 
vn 0 0.422618 -0.906308 
vn 0 0.422618 -0.906308 
f 268//268 269//269 270//270 
f 270//270 271//271 268//268 
o mesh8897
v 0.133243 0.184811 0.0868349 
v 0.133243 0.18499 0.0864504 
v 0.135783 0.18499 0.0864504 
v 0.135783 0.184811 0.0868349 
vn 0 -0.906308 -0.422618 
vn 0 -0.906308 -0.422618 
vn 0 -0.906308 -0.422618 
vn 0 -0.906308 -0.422618 
f 272//272 273//273 274//274 
f 274//274 275//275 272//272 
o mesh8898
v 0.135783 0.182604 0.0873191 
v 0.135783 0.182424 0.0877036 
v 0.133243 0.182424 0.0877036 
v 0.133243 0.182604 0.0873191 
vn 0 -0.906308 -0.422618 
vn 0 -0.906308 -0.422618 
vn 0 -0.906308 -0.422618 
vn 0 -0.906308 -0.422618 
f 276//276 277//277 278//278 
f 278//278 279//279 276//276 
usemtl 0.749020_0.749020_0.749020_0.000000_0.000000
o mesh8899
v 0.135783 0.184427 0.0866556 
v 0.133243 0.184427 0.0866556 
v 0.133243 0.184811 0.0868349 
v 0.135783 0.184811 0.0868349 
vn 0 0.422618 -0.906308 
vn 0 0.422618 -0.906308 
vn 0 0.422618 -0.906308 
vn 0 0.422618 -0.906308 
f 280//280 281//281 282//282 
f 282//282 283//283 280//280 
usemtl 0.372549_0.372549_0.372549_0.000000_0.000000
o mesh8900
v 0.133243 0.182604 0.0873191 
v 0.133243 0.184427 0.0866556 
v 0.135783 0.184427 0.0866556 
v 0.135783 0.182604 0.0873191 
vn 0 -0.34202 -0.939693 
vn 0 -0.34202 -0.939693 
vn 0 -0.34202 -0.939693 
vn 0 -0.34202 -0.939693 
f 284//284 285//285 286//286 
f 286//286 287//287 284//284 
o mesh8901
v 0.133243 0.185475 0.0886579 
v 0.133243 0.183088 0.0895266 
v 0.133243 0.183472 0.0897059 
v 0.133243 0.180641 0.0902309 
v 0.133243 0.181086 0.0905747 
v 0.133243 0.182909 0.0899111 
v 0.133243 0.187802 0.0876247 
v 0.133243 0.185859 0.0888372 
v 0.133243 0.187682 0.0881737 
v 0.133243 0.185295 0.0890424 
v 0.133243 0.180701 0.0903954 
v 0.133243 0.192575 0.0858873 
v 0.133243 0.190633 0.0870997 
v 0.133243 0.192456 0.0864362 
v 0.133243 0.190248 0.0869204 
v 0.133243 0.188246 0.0879685 
v 0.133243 0.190069 0.0873049 
v 0.133243 0.187862 0.0877892 
v 0.133243 0.190919 0.0859847 
v 0.133243 0.189585 0.0850974 
v 0.133243 0.188914 0.0860331 
v 0.133243 0.1907 0.0853833 
v 0.133243 0.189133 0.0866345 
v 0.133243 0.189764 0.0847129 
v 0.133243 0.1892 0.0849181 
v 0.133243 0.188313 0.086252 
v 0.133243 0.187377 0.0855816 
v 0.133243 0.187198 0.0859662 
v 0.133243 0.191301 0.0851644 
v 0.133243 0.191972 0.0842287 
v 0.133243 0.191587 0.0840494 
v 0.133243 0.188532 0.0868534 
v 0.133243 0.19152 0.0857658 
v 0.133243 0.181973 0.0892407 
v 0.133243 0.184811 0.0868349 
v 0.133243 0.182424 0.0877036 
v 0.133243 0.184427 0.0866556 
v 0.133243 0.182604 0.0873191 
v 0.133243 0.181754 0.0886393 
v 0.133243 0.18204 0.0875243 
v 0.133243 0.186746 0.0875033 
v 0.133243 0.186145 0.0877222 
v 0.133243 0.183539 0.0879895 
v 0.133243 0.184141 0.0877706 
v 0.133243 0.183758 0.0885909 
v 0.133243 0.180217 0.0881878 
v 0.133243 0.181153 0.0888582 
v 0.133243 0.180038 0.0885724 
v 0.133243 0.18436 0.088372 
v 0.133243 0.186528 0.0869019 
v 0.133243 0.181371 0.0894596 
v 0.133243 0.186813 0.0857869 
v 0.133243 0.18499 0.0864504 
v 0.133243 0.185926 0.0871208 
v 0.133243 0.192635 0.0860517 
vn -1 0 0 
vn -1 0 0 
vn -1 0 0 
vn -1 0 0 
vn -1 0 0 
vn -1 0 0 
vn -1 0 0 
vn -1 0 0 
vn -1 0 0 
vn -1 0 0 
vn -1 0 0 
vn -1 0 0 
vn -1 0 0 
vn -1 0 0 
vn -1 0 0 
vn -1 0 0 
vn -1 0 0 
vn -1 0 0 
vn -1 0 0 
vn -1 0 0 
vn -1 0 0 
vn -1 0 0 
vn -1 0 0 
vn -1 0 0 
vn -1 0 0 
vn -1 0 0 
vn -1 0 0 
vn -1 0 0 
vn -1 0 0 
vn -1 0 0 
vn -1 0 0 
vn -1 0 0 
vn -1 0 0 
vn -1 0 0 
vn -1 0 0 
vn -1 0 0 
vn -1 0 0 
vn -1 0 0 
vn -1 0 0 
vn -1 0 0 
vn -1 0 0 
vn -1 0 0 
vn -1 0 0 
vn -1 0 0 
vn -1 0 0 
vn -1 0 0 
vn -1 0 0 
vn -1 0 0 
vn -1 0 0 
vn -1 0 0 
vn -1 0 0 
vn -1 0 0 
vn -1 0 0 
vn -1 0 0 
vn -1 0 0 
f 288//288 289//289 290//290 
f 288//288 291//291 289//289 
f 291//291 292//292 293//293 
f 294//294 295//295 296//296 
f 290//290 297//297 288//288 
f 291//291 298//298 292//292 
f 294//294 288//288 295//295 
f 293//293 289//289 291//291 
f 288//288 294//294 291//291 
f 299//299 300//300 301//301 
f 299//299 302//302 300//300 
f 294//294 303//303 304//304 
f 299//299 294//294 302//302 
f 294//294 305//305 303//303 
f 304//304 302//302 294//294 
f 306//306 307//307 308//308 
f 307//307 306//306 309//309 
f 294//294 306//306 310//310 
f 309//309 311//311 307//307 
f 308//308 307//307 312//312 
f 313//313 314//314 315//315 
f 316//316 299//299 317//317 
f 318//318 311//311 309//309 
f 308//308 310//310 306//306 
f 314//314 313//313 308//308 
f 294//294 319//319 313//313 
f 299//299 320//320 306//306 
f 317//317 318//318 316//316 
f 310//310 319//319 294//294 
f 315//315 294//294 313//313 
f 316//316 320//320 299//299 
f 312//312 314//314 308//308 
f 309//309 316//316 318//318 
f 321//321 322//322 323//323 
f 322//322 324//324 325//325 
f 326//326 323//323 327//327 
f 294//294 328//328 329//329 
f 322//322 330//330 331//331 
f 291//291 332//332 321//321 
f 325//325 323//323 322//322 
f 333//333 334//334 326//326 
f 334//334 333//333 335//335 
f 294//294 336//336 332//332 
f 329//329 336//336 294//294 
f 337//337 294//294 315//315 
f 322//322 321//321 330//330 
f 332//332 330//330 321//321 
f 327//327 333//333 326//326 
f 291//291 338//338 334//334 
f 329//329 331//331 336//336 
f 315//315 339//339 337//337 
f 339//339 340//340 341//341 
f 322//322 329//329 341//341 
f 321//321 338//338 291//291 
f 335//335 291//291 334//334 
f 337//337 328//328 294//294 
f 341//341 340//340 322//322 
f 323//323 326//326 321//321 
f 341//341 337//337 339//339 
f 332//332 291//291 294//294 
f 331//331 329//329 322//322 
f 306//306 294//294 299//299 
f 301//301 342//342 299//299 
f 296//296 305//305 294//294 
usemtl 0.168627_0.780392_0.219608_0.000000_0.000000
o mesh8902
v 0.130193 0.181371 0.0894596 
v 0.133243 0.181371 0.0894596 
v 0.133243 0.181973 0.0892407 
v 0.130193 0.181973 0.0892407 
vn 0 0.34202 0.939693 
vn 0 0.34202 0.939693 
vn 0 0.34202 0.939693 
vn 0 0.34202 0.939693 
f 343//343 344//344 345//345 
f 345//345 346//346 343//343 
usemtl 0.823529_0.823529_1.000000_0.000000_0.000000
o mesh8903
v 0.130193 0.181153 0.0888582 
v 0.130193 0.181371 0.0894596 
v 0.130193 0.181973 0.0892407 
v 0.130193 0.181754 0.0886393 
vn -1 0 0 
vn -1 0 0 
vn -1 0 0 
vn -1 0 0 
f 347//347 348//348 349//349 
f 349//349 350//350 347//347 
o mesh8904
v 0.133243 0.181153 0.0888582 
v 0.133243 0.181371 0.0894596 
v 0.130193 0.181371 0.0894596 
v 0.130193 0.181153 0.0888582 
vn 0 -0.939693 0.34202 
vn 0 -0.939693 0.34202 
vn 0 -0.939693 0.34202 
vn 0 -0.939693 0.34202 
f 351//351 352//352 353//353 
f 353//353 354//354 351//351 
o mesh8905
v 0.130193 0.181153 0.0888582 
v 0.130193 0.181754 0.0886393 
v 0.133243 0.181754 0.0886393 
v 0.133243 0.181153 0.0888582 
vn 0 -0.34202 -0.939693 
vn 0 -0.34202 -0.939693 
vn 0 -0.34202 -0.939693 
vn 0 -0.34202 -0.939693 
f 355//355 356//356 357//357 
f 357//357 358//358 355//355 
o mesh8906
v 0.133243 0.181754 0.0886393 
v 0.130193 0.181754 0.0886393 
v 0.130193 0.181973 0.0892407 
v 0.133243 0.181973 0.0892407 
vn 0 0.939693 -0.34202 
vn 0 0.939693 -0.34202 
vn 0 0.939693 -0.34202 
vn 0 0.939693 -0.34202 
f 359//359 360//360 361//361 
f 361//361 362//362 359//359 
o mesh8907
v 0.130193 0.186145 0.0877222 
v 0.133243 0.186145 0.0877222 
v 0.133243 0.186746 0.0875033 
v 0.130193 0.186746 0.0875033 
vn 0 0.34202 0.939693 
vn 0 0.34202 0.939693 
vn 0 0.34202 0.939693 
vn 0 0.34202 0.939693 
f 363//363 364//364 365//365 
f 365//365 366//366 363//363 
o mesh8908
v 0.130193 0.185926 0.0871208 
v 0.130193 0.186145 0.0877222 
v 0.130193 0.186746 0.0875033 
v 0.130193 0.186528 0.0869019 
vn -1 0 0 
vn -1 0 0 
vn -1 0 0 
vn -1 0 0 
f 367//367 368//368 369//369 
f 369//369 370//370 367//367 
usemtl 1.000000_1.000000_0.949020_0.000000_0.000000
o mesh8909
v 0.133243 0.185926 0.0871208 
v 0.133243 0.186145 0.0877222 
v 0.130193 0.186145 0.0877222 
v 0.130193 0.185926 0.0871208 
vn 0 -0.939693 0.34202 
vn 0 -0.939693 0.34202 
vn 0 -0.939693 0.34202 
vn 0 -0.939693 0.34202 
f 371//371 372//372 373//373 
f 373//373 374//374 371//371 
o mesh8910
v 0.130193 0.185926 0.0871208 
v 0.130193 0.186528 0.0869019 
v 0.133243 0.186528 0.0869019 
v 0.133243 0.185926 0.0871208 
vn 0 -0.34202 -0.939693 
vn 0 -0.34202 -0.939693 
vn 0 -0.34202 -0.939693 
vn 0 -0.34202 -0.939693 
f 375//375 376//376 377//377 
f 377//377 378//378 375//375 
usemtl 0.823529_0.823529_1.000000_0.000000_0.000000
o mesh8911
v 0.133243 0.186528 0.0869019 
v 0.130193 0.186528 0.0869019 
v 0.130193 0.186746 0.0875033 
v 0.133243 0.186746 0.0875033 
vn 0 0.939693 -0.34202 
vn 0 0.939693 -0.34202 
vn 0 0.939693 -0.34202 
vn 0 0.939693 -0.34202 
f 379//379 380//380 381//381 
f 381//381 382//382 379//379 
o mesh8912
v 0.130193 0.19152 0.0857658 
v 0.130193 0.190919 0.0859847 
v 0.133243 0.190919 0.0859847 
v 0.133243 0.19152 0.0857658 
vn 0 0.34202 0.939693 
vn 0 0.34202 0.939693 
vn 0 0.34202 0.939693 
vn 0 0.34202 0.939693 
f 383//383 384//384 385//385 
f 385//385 386//386 383//383 
o mesh8913
v 0.130193 0.1907 0.0853833 
v 0.130193 0.190919 0.0859847 
v 0.130193 0.19152 0.0857658 
v 0.130193 0.191301 0.0851644 
vn -1 0 0 
vn -1 0 0 
vn -1 0 0 
vn -1 0 0 
f 387//387 388//388 389//389 
f 389//389 390//390 387//387 
o mesh8914
v 0.133243 0.1907 0.0853833 
v 0.133243 0.190919 0.0859847 
v 0.130193 0.190919 0.0859847 
v 0.130193 0.1907 0.0853833 
vn 0 -0.939693 0.34202 
vn 0 -0.939693 0.34202 
vn 0 -0.939693 0.34202 
vn 0 -0.939693 0.34202 
f 391//391 392//392 393//393 
f 393//393 394//394 391//391 
o mesh8915
v 0.130193 0.191301 0.0851644 
v 0.133243 0.191301 0.0851644 
v 0.133243 0.1907 0.0853833 
v 0.130193 0.1907 0.0853833 
vn 0 -0.34202 -0.939693 
vn 0 -0.34202 -0.939693 
vn 0 -0.34202 -0.939693 
vn 0 -0.34202 -0.939693 
f 395//395 396//396 397//397 
f 397//397 398//398 395//395 
o mesh8916
v 0.133243 0.191301 0.0851644 
v 0.130193 0.191301 0.0851644 
v 0.130193 0.19152 0.0857658 
v 0.133243 0.19152 0.0857658 
vn 0 0.939693 -0.34202 
vn 0 0.939693 -0.34202 
vn 0 0.939693 -0.34202 
vn 0 0.939693 -0.34202 
f 399//399 400//400 401//401 
f 401//401 402//402 399//399 
o mesh8917
v 0.130193 0.188532 0.0868534 
v 0.133243 0.188532 0.0868534 
v 0.133243 0.189133 0.0866345 
v 0.130193 0.189133 0.0866345 
vn 0 0.34202 0.939693 
vn 0 0.34202 0.939693 
vn 0 0.34202 0.939693 
vn 0 0.34202 0.939693 
f 403//403 404//404 405//405 
f 405//405 406//406 403//403 
o mesh8918
v 0.130193 0.188313 0.086252 
v 0.130193 0.188532 0.0868534 
v 0.130193 0.189133 0.0866345 
v 0.130193 0.188914 0.0860331 
vn -1 0 0 
vn -1 0 0 
vn -1 0 0 
vn -1 0 0 
f 407//407 408//408 409//409 
f 409//409 410//410 407//407 
o mesh8919
v 0.133243 0.188313 0.086252 
v 0.133243 0.188532 0.0868534 
v 0.130193 0.188532 0.0868534 
v 0.130193 0.188313 0.086252 
vn 0 -0.939693 0.34202 
vn 0 -0.939693 0.34202 
vn 0 -0.939693 0.34202 
vn 0 -0.939693 0.34202 
f 411//411 412//412 413//413 
f 413//413 414//414 411//411 
o mesh8920
v 0.130193 0.188914 0.0860331 
v 0.133243 0.188914 0.0860331 
v 0.133243 0.188313 0.086252 
v 0.130193 0.188313 0.086252 
vn 0 -0.34202 -0.939693 
vn 0 -0.34202 -0.939693 
vn 0 -0.34202 -0.939693 
vn 0 -0.34202 -0.939693 
f 415//415 416//416 417//417 
f 417//417 418//418 415//415 
o mesh8921
v 0.133243 0.188914 0.0860331 
v 0.130193 0.188914 0.0860331 
v 0.130193 0.189133 0.0866345 
v 0.133243 0.189133 0.0866345 
vn 0 0.939693 -0.34202 
vn 0 0.939693 -0.34202 
vn 0 0.939693 -0.34202 
vn 0 0.939693 -0.34202 
f 419//419 420//420 421//421 
f 421//421 422//422 419//419 
o mesh8922
v 0.130193 0.183758 0.0885909 
v 0.133243 0.183758 0.0885909 
v 0.133243 0.18436 0.088372 
v 0.130193 0.18436 0.088372 
vn 0 0.34202 0.939693 
vn 0 0.34202 0.939693 
vn 0 0.34202 0.939693 
vn 0 0.34202 0.939693 
f 423//423 424//424 425//425 
f 425//425 426//426 423//423 
o mesh8923
v 0.130193 0.183539 0.0879895 
v 0.130193 0.183758 0.0885909 
v 0.130193 0.18436 0.088372 
v 0.130193 0.184141 0.0877706 
vn -1 0 0 
vn -1 0 0 
vn -1 0 0 
vn -1 0 0 
f 427//427 428//428 429//429 
f 429//429 430//430 427//427 
o mesh8924
v 0.133243 0.183539 0.0879895 
v 0.133243 0.183758 0.0885909 
v 0.130193 0.183758 0.0885909 
v 0.130193 0.183539 0.0879895 
vn 0 -0.939693 0.34202 
vn 0 -0.939693 0.34202 
vn 0 -0.939693 0.34202 
vn 0 -0.939693 0.34202 
f 431//431 432//432 433//433 
f 433//433 434//434 431//431 
o mesh8925
v 0.130193 0.183539 0.0879895 
v 0.130193 0.184141 0.0877706 
v 0.133243 0.184141 0.0877706 
v 0.133243 0.183539 0.0879895 
vn 0 -0.34202 -0.939693 
vn 0 -0.34202 -0.939693 
vn 0 -0.34202 -0.939693 
vn 0 -0.34202 -0.939693 
f 435//435 436//436 437//437 
f 437//437 438//438 435//435 
o mesh8926
v 0.133243 0.184141 0.0877706 
v 0.130193 0.184141 0.0877706 
v 0.130193 0.18436 0.088372 
v 0.133243 0.18436 0.088372 
vn 0 0.939693 -0.34202 
vn 0 0.939693 -0.34202 
vn 0 0.939693 -0.34202 
vn 0 0.939693 -0.34202 
f 439//439 440//440 441//441 
f 441//441 442//442 439//439 
