# OBJ generated by ONSHAPE BY PTC INC, 1.215 Units = meters
mtllib EBoxNewAsm_stp_1_Beelink_mini_PC_v4_stp_1_Beelink_mini_PC_v4_58_stp_1_solid1.mtl
g EBoxNewAsm.stp-1/Beelink mini PC v4.stp-1/Beelink mini PC v4-58.stp-1-solid1
usemtl 0.000000_0.000000_0.000000_0.000000_0.000000
o mesh10390
v 0.21915 0.20018 0.199035 
v 0.21915 0.201822 0.203546 
v 0.21815 0.201822 0.203546 
v 0.21815 0.20018 0.199035 
vn 0 -0.939693 0.34202 
vn 0 -0.939693 0.34202 
vn 0 -0.939693 0.34202 
vn 0 -0.939693 0.34202 
f 1//1 2//2 3//3 
f 3//3 4//4 1//1 
o mesh10391
v 0.21815 0.201822 0.203546 
v 0.21915 0.201822 0.203546 
v 0.21915 0.213192 0.199407 
v 0.21815 0.213192 0.199407 
vn -5.09196e-14 0.34202 0.939693 
vn -5.09196e-14 0.34202 0.939693 
vn -5.09196e-14 0.34202 0.939693 
vn -5.09196e-14 0.34202 0.939693 
f 5//5 6//6 7//7 
f 7//7 8//8 5//5 
o mesh10392
v 0.21915 0.211551 0.194897 
v 0.21815 0.211551 0.194897 
v 0.21815 0.213192 0.199407 
v 0.21915 0.213192 0.199407 
vn 0 0.939693 -0.34202 
vn 0 0.939693 -0.34202 
vn 0 0.939693 -0.34202 
vn 0 0.939693 -0.34202 
f 9//9 10//10 11//11 
f 11//11 12//12 9//9 
o mesh10393
v 0.21815 0.211551 0.194897 
v 0.21915 0.211551 0.194897 
v 0.21915 0.20018 0.199035 
v 0.21815 0.20018 0.199035 
vn 5.09196e-14 -0.34202 -0.939693 
vn 5.09196e-14 -0.34202 -0.939693 
vn 5.09196e-14 -0.34202 -0.939693 
vn 5.09196e-14 -0.34202 -0.939693 
f 13//13 14//14 15//15 
f 15//15 16//16 13//13 
o mesh10394
v 0.21915 0.213192 0.199407 
v 0.21915 0.201822 0.203546 
v 0.21915 0.201646 0.199992 
v 0.21915 0.20018 0.199035 
v 0.21915 0.201304 0.199052 
v 0.21915 0.211551 0.194897 
v 0.21915 0.211043 0.196571 
v 0.21915 0.210701 0.195632 
vn 1 1.74155e-14 4.78488e-14 
vn 1 1.74155e-14 4.78488e-14 
vn 1 1.74155e-14 4.78488e-14 
vn 1 1.74155e-14 4.78488e-14 
vn 1 1.74155e-14 4.78488e-14 
vn 1 1.74155e-14 4.78488e-14 
vn 1 1.74155e-14 4.78488e-14 
vn 1 1.74155e-14 4.78488e-14 
f 17//17 18//18 19//19 
f 20//20 21//21 19//19 
f 22//22 17//17 23//23 
f 19//19 18//18 20//20 
f 19//19 23//23 17//17 
f 20//20 22//22 24//24 
f 24//24 21//21 20//20 
f 23//23 24//24 22//22 
o mesh10395
v 0.21815 0.211551 0.194897 
v 0.21815 0.210701 0.195632 
v 0.21815 0.211043 0.196571 
v 0.21815 0.20018 0.199035 
v 0.21815 0.201304 0.199052 
v 0.21815 0.201822 0.203546 
v 0.21815 0.201646 0.199992 
v 0.21815 0.213192 0.199407 
vn -1 -1.74155e-14 -4.78488e-14 
vn -1 -1.74155e-14 -4.78488e-14 
vn -1 -1.74155e-14 -4.78488e-14 
vn -1 -1.74155e-14 -4.78488e-14 
vn -1 -1.74155e-14 -4.78488e-14 
vn -1 -1.74155e-14 -4.78488e-14 
vn -1 -1.74155e-14 -4.78488e-14 
vn -1 -1.74155e-14 -4.78488e-14 
f 25//25 26//26 27//27 
f 28//28 29//29 26//26 
f 26//26 25//25 28//28 
f 28//28 30//30 31//31 
f 32//32 27//27 31//31 
f 31//31 29//29 28//28 
f 27//27 32//32 25//25 
f 31//31 30//30 32//32 
o mesh10396
v 0.21915 0.210701 0.195632 
v 0.21915 0.211043 0.196571 
v 0.21815 0.211043 0.196571 
v 0.21815 0.210701 0.195632 
vn 0 -0.939693 0.34202 
vn 0 -0.939693 0.34202 
vn 0 -0.939693 0.34202 
vn 0 -0.939693 0.34202 
f 33//33 34//34 35//35 
f 35//35 36//36 33//33 
o mesh10397
v 0.21815 0.201646 0.199992 
v 0.21815 0.211043 0.196571 
v 0.21915 0.211043 0.196571 
v 0.21915 0.201646 0.199992 
vn 5.09196e-14 -0.34202 -0.939693 
vn 5.09196e-14 -0.34202 -0.939693 
vn 5.09196e-14 -0.34202 -0.939693 
vn 5.09196e-14 -0.34202 -0.939693 
f 37//37 38//38 39//39 
f 39//39 40//40 37//37 
o mesh10398
v 0.21815 0.201646 0.199992 
v 0.21915 0.201646 0.199992 
v 0.21915 0.201304 0.199052 
v 0.21815 0.201304 0.199052 
vn 0 0.939693 -0.34202 
vn 0 0.939693 -0.34202 
vn 0 0.939693 -0.34202 
vn 0 0.939693 -0.34202 
f 41//41 42//42 43//43 
f 43//43 44//44 41//41 
o mesh10399
v 0.21915 0.201304 0.199052 
v 0.21915 0.210701 0.195632 
v 0.21815 0.210701 0.195632 
v 0.21815 0.201304 0.199052 
vn -5.09196e-14 0.34202 0.939693 
vn -5.09196e-14 0.34202 0.939693 
vn -5.09196e-14 0.34202 0.939693 
vn -5.09196e-14 0.34202 0.939693 
f 45//45 46//46 47//47 
f 47//47 48//48 45//45 
