# OBJ generated by ONSHAPE BY PTC INC, 1.215 Units = meters
mtllib EBoxNewAsm_stp_1_eBoxDamper_stp_2_solid1.mtl
g EBoxNewAsm.stp-1/eBoxDamper.stp-2-solid1
usemtl 0.152941_0.152941_0.152941_0.000000_0.000000
o mesh9894
v 0.01 0.175255 0.0377045 
v 0.01 0.175393 0.0380282 
v 0.00365 0.175393 0.0380282 
v 0.01 0.175083 0.0373976 
v 0.00365 0.175255 0.0377045 
v 0.01 0.174878 0.0371112 
v 0.00365 0.175083 0.0373976 
v 0.01 0.174644 0.0368486 
v 0.00365 0.174878 0.0371112 
v 0.01 0.174383 0.0366128 
v 0.00365 0.174644 0.0368486 
v 0.01 0.174097 0.0364066 
v 0.00365 0.174383 0.0366128 
v 0.01 0.173792 0.0362325 
v 0.00365 0.174097 0.0364066 
v 0.01 0.173469 0.0360925 
v 0.00365 0.173792 0.0362325 
v 0.01 0.173133 0.0359882 
v 0.00365 0.173469 0.0360925 
v 0.01 0.172787 0.0359208 
v 0.00365 0.173133 0.0359882 
v 0.01 0.172437 0.0358912 
v 0.00365 0.172787 0.0359208 
v 0.01 0.172085 0.0358997 
v 0.00365 0.172437 0.0358912 
v 0.01 0.171736 0.0359461 
v 0.00365 0.172085 0.0358997 
v 0.01 0.171394 0.03603 
v 0.00365 0.171736 0.0359461 
v 0.01 0.171064 0.0361504 
v 0.00365 0.171394 0.03603 
v 0.01 0.170748 0.0363058 
v 0.00365 0.171064 0.0361504 
v 0.01 0.170451 0.0364944 
v 0.00365 0.170748 0.0363058 
v 0.01 0.170176 0.0367141 
v 0.00365 0.170451 0.0364944 
v 0.01 0.169926 0.0369622 
v 0.00365 0.170176 0.0367141 
v 0.01 0.169705 0.0372358 
v 0.00365 0.169926 0.0369622 
v 0.01 0.169515 0.0375317 
v 0.00365 0.169705 0.0372358 
v 0.01 0.169357 0.0378465 
v 0.00365 0.169515 0.0375317 
v 0.01 0.169235 0.0381764 
v 0.00365 0.169357 0.0378465 
v 0.01 0.169149 0.0385177 
v 0.00365 0.169235 0.0381764 
v 0.01 0.1691 0.0388662 
v 0.00365 0.169149 0.0385177 
v 0.01 0.16909 0.039218 
v 0.00365 0.1691 0.0388662 
v 0.01 0.169117 0.0395688 
v 0.00365 0.16909 0.039218 
v 0.01 0.169183 0.0399146 
v 0.00365 0.169117 0.0395688 
v 0.01 0.169285 0.0402513 
v 0.00365 0.169183 0.0399146 
v 0.01 0.169423 0.040575 
v 0.00365 0.169285 0.0402513 
v 0.01 0.169595 0.0408818 
v 0.00365 0.169423 0.040575 
v 0.01 0.1698 0.0411683 
v 0.00365 0.169595 0.0408818 
v 0.01 0.170034 0.0414309 
v 0.00365 0.1698 0.0411683 
v 0.01 0.170295 0.0416667 
v 0.00365 0.170034 0.0414309 
v 0.01 0.17058 0.0418728 
v 0.00365 0.170295 0.0416667 
v 0.01 0.170886 0.042047 
v 0.00365 0.17058 0.0418728 
v 0.01 0.171209 0.042187 
v 0.00365 0.170886 0.042047 
v 0.01 0.171545 0.0422913 
v 0.00365 0.171209 0.042187 
v 0.01 0.17189 0.0423587 
v 0.00365 0.171545 0.0422913 
v 0.01 0.172241 0.0423883 
v 0.00365 0.17189 0.0423587 
v 0.01 0.172593 0.0423798 
v 0.00365 0.172241 0.0423883 
v 0.01 0.172942 0.0423333 
v 0.00365 0.172593 0.0423798 
v 0.01 0.173283 0.0422494 
v 0.00365 0.172942 0.0423333 
v 0.01 0.173614 0.0421291 
v 0.00365 0.173283 0.0422494 
v 0.01 0.17393 0.0419737 
v 0.00365 0.173614 0.0421291 
v 0.01 0.174227 0.041785 
v 0.00365 0.17393 0.0419737 
v 0.01 0.174502 0.0415654 
v 0.00365 0.174227 0.041785 
v 0.01 0.174752 0.0413173 
v 0.00365 0.174502 0.0415654 
v 0.01 0.174973 0.0410437 
v 0.00365 0.174752 0.0413173 
v 0.01 0.175163 0.0407478 
v 0.00365 0.174973 0.0410437 
v 0.01 0.175321 0.040433 
v 0.00365 0.175163 0.0407478 
v 0.01 0.175443 0.040103 
v 0.00365 0.175321 0.040433 
v 0.01 0.175529 0.0397618 
v 0.00365 0.175443 0.040103 
v 0.01 0.175577 0.0394132 
v 0.00365 0.175529 0.0397618 
v 0.01 0.175588 0.0390615 
v 0.00365 0.175577 0.0394132 
v 0.01 0.17556 0.0387107 
v 0.00365 0.175588 0.0390615 
v 0.01 0.175495 0.0383649 
v 0.00365 0.17556 0.0387107 
v 0.00365 0.175495 0.0383649 
vn -2.29499e-14 -0.897205 0.441614 
vn -1.75294e-14 -0.939693 0.34202 
vn -1.75294e-14 -0.939693 0.34202 
vn -2.81014e-14 -0.844199 0.53603 
vn -2.29499e-14 -0.897205 0.441614 
vn -3.29234e-14 -0.781295 0.624162 
vn -2.81014e-14 -0.844199 0.53603 
vn -3.73595e-14 -0.709231 0.704976 
vn -3.29234e-14 -0.781295 0.624162 
vn -4.13575e-14 -0.628853 0.777525 
vn -3.73595e-14 -0.709231 0.704976 
vn -4.48706e-14 -0.541101 0.840958 
vn -4.13575e-14 -0.628853 0.777525 
vn -4.78577e-14 -0.447006 0.894531 
vn -4.48706e-14 -0.541101 0.840958 
vn -5.02837e-14 -0.347669 0.937617 
vn -4.78577e-14 -0.447006 0.894531 
vn -5.21201e-14 -0.244257 0.969711 
vn -5.02837e-14 -0.347669 0.937617 
vn -5.33455e-14 -0.137981 0.990435 
vn -5.21201e-14 -0.244257 0.969711 
vn -5.39455e-14 -0.0300873 0.999547 
vn -5.33455e-14 -0.137981 0.990435 
vn -5.3913e-14 0.0781591 0.996941 
vn -5.39455e-14 -0.0300873 0.999547 
vn -5.32484e-14 0.185489 0.982646 
vn -5.3913e-14 0.0781591 0.996941 
vn -5.19595e-14 0.290645 0.956831 
vn -5.32484e-14 0.185489 0.982646 
vn -5.00615e-14 0.392392 0.919798 
vn -5.19595e-14 0.290645 0.956831 
vn -4.75765e-14 0.48954 0.871981 
vn -5.00615e-14 0.392392 0.919798 
vn -4.45337e-14 0.580948 0.813941 
vn -4.75765e-14 0.48954 0.871981 
vn -4.09689e-14 0.665545 0.746358 
vn -4.45337e-14 0.580948 0.813941 
vn -3.69237e-14 0.742339 0.670025 
vn -4.09689e-14 0.665545 0.746358 
vn -3.24456e-14 0.81043 0.585836 
vn -3.69237e-14 0.742339 0.670025 
vn -2.75871e-14 0.869019 0.494779 
vn -3.24456e-14 0.81043 0.585836 
vn -2.24052e-14 0.91742 0.397921 
vn -2.75871e-14 0.869019 0.494779 
vn -1.69606e-14 0.955065 0.296398 
vn -2.24052e-14 0.91742 0.397921 
vn -1.13171e-14 0.981512 0.1914 
vn -1.69606e-14 0.955065 0.296398 
vn -5.54096e-15 0.996452 0.0841576 
vn -1.13171e-14 0.981512 0.1914 
vn 3.00134e-16 0.99971 -0.0240712 
vn -5.54096e-15 0.996452 0.0841576 
vn 6.13771e-15 0.991247 -0.132018 
vn 3.00134e-16 0.99971 -0.0240712 
vn 1.19033e-14 0.971163 -0.238417 
vn 6.13771e-15 0.991247 -0.132018 
vn 1.75294e-14 0.939693 -0.34202 
vn 1.19033e-14 0.971163 -0.238417 
vn 2.29499e-14 0.897205 -0.441614 
vn 1.75294e-14 0.939693 -0.34202 
vn 2.81014e-14 0.844199 -0.53603 
vn 2.29499e-14 0.897205 -0.441614 
vn 3.29234e-14 0.781295 -0.624162 
vn 2.81014e-14 0.844199 -0.53603 
vn 3.73595e-14 0.709231 -0.704976 
vn 3.29234e-14 0.781295 -0.624162 
vn 4.13575e-14 0.628853 -0.777525 
vn 3.73595e-14 0.709231 -0.704976 
vn 4.48706e-14 0.541101 -0.840958 
vn 4.13575e-14 0.628853 -0.777525 
vn 4.78577e-14 0.447006 -0.894531 
vn 4.48706e-14 0.541101 -0.840958 
vn 5.02837e-14 0.347669 -0.937617 
vn 4.78577e-14 0.447006 -0.894531 
vn 5.21201e-14 0.244257 -0.969711 
vn 5.02837e-14 0.347669 -0.937617 
vn 5.33455e-14 0.137981 -0.990435 
vn 5.21201e-14 0.244257 -0.969711 
vn 5.39455e-14 0.0300873 -0.999547 
vn 5.33455e-14 0.137981 -0.990435 
vn 5.3913e-14 -0.0781591 -0.996941 
vn 5.39455e-14 0.0300873 -0.999547 
vn 5.32484e-14 -0.185489 -0.982646 
vn 5.3913e-14 -0.0781591 -0.996941 
vn 5.19595e-14 -0.290645 -0.956831 
vn 5.32484e-14 -0.185489 -0.982646 
vn 5.00615e-14 -0.392392 -0.919798 
vn 5.19595e-14 -0.290645 -0.956831 
vn 4.75765e-14 -0.48954 -0.871981 
vn 5.00615e-14 -0.392392 -0.919798 
vn 4.45337e-14 -0.580948 -0.813941 
vn 4.75765e-14 -0.48954 -0.871981 
vn 4.09689e-14 -0.665545 -0.746358 
vn 4.45337e-14 -0.580948 -0.813941 
vn 3.69237e-14 -0.742339 -0.670025 
vn 4.09689e-14 -0.665545 -0.746358 
vn 3.24456e-14 -0.81043 -0.585836 
vn 3.69237e-14 -0.742339 -0.670025 
vn 2.75871e-14 -0.869019 -0.494779 
vn 3.24456e-14 -0.81043 -0.585836 
vn 2.24052e-14 -0.91742 -0.397921 
vn 2.75871e-14 -0.869019 -0.494779 
vn 1.69606e-14 -0.955065 -0.296398 
vn 2.24052e-14 -0.91742 -0.397921 
vn 1.13171e-14 -0.981512 -0.1914 
vn 1.69606e-14 -0.955065 -0.296398 
vn 5.54096e-15 -0.996452 -0.0841576 
vn 1.13171e-14 -0.981512 -0.1914 
vn -3.00134e-16 -0.99971 0.0240712 
vn 5.54096e-15 -0.996452 -0.0841576 
vn -6.13771e-15 -0.991247 0.132018 
vn -3.00134e-16 -0.99971 0.0240712 
vn -1.19033e-14 -0.971163 0.238417 
vn -6.13771e-15 -0.991247 0.132018 
vn -1.19033e-14 -0.971163 0.238417 
f 1//1 2//2 3//3 
f 4//4 1//1 5//5 
f 6//6 4//4 7//7 
f 8//8 6//6 9//9 
f 10//10 8//8 11//11 
f 12//12 10//10 13//13 
f 14//14 12//12 15//15 
f 16//16 14//14 17//17 
f 18//18 16//16 19//19 
f 20//20 18//18 21//21 
f 22//22 20//20 23//23 
f 24//24 22//22 25//25 
f 26//26 24//24 27//27 
f 28//28 26//26 29//29 
f 30//30 28//28 31//31 
f 32//32 30//30 33//33 
f 34//34 32//32 35//35 
f 36//36 34//34 37//37 
f 38//38 36//36 39//39 
f 40//40 38//38 41//41 
f 42//42 40//40 43//43 
f 44//44 42//42 45//45 
f 46//46 44//44 47//47 
f 48//48 46//46 49//49 
f 50//50 48//48 51//51 
f 52//52 50//50 53//53 
f 54//54 52//52 55//55 
f 56//56 54//54 57//57 
f 58//58 56//56 59//59 
f 60//60 58//58 61//61 
f 62//62 60//60 63//63 
f 64//64 62//62 65//65 
f 66//66 64//64 67//67 
f 68//68 66//66 69//69 
f 70//70 68//68 71//71 
f 72//72 70//70 73//73 
f 74//74 72//72 75//75 
f 76//76 74//74 77//77 
f 78//78 76//76 79//79 
f 80//80 78//78 81//81 
f 82//82 80//80 83//83 
f 84//84 82//82 85//85 
f 86//86 84//84 87//87 
f 88//88 86//86 89//89 
f 90//90 88//88 91//91 
f 92//92 90//90 93//93 
f 94//94 92//92 95//95 
f 96//96 94//94 97//97 
f 98//98 96//96 99//99 
f 100//100 98//98 101//101 
f 102//102 100//100 103//103 
f 104//104 102//102 105//105 
f 106//106 104//104 107//107 
f 108//108 106//106 109//109 
f 110//110 108//108 111//111 
f 112//112 110//110 113//113 
f 114//114 112//112 115//115 
f 2//2 114//114 116//116 
f 116//116 3//3 2//2 
f 115//115 116//116 114//114 
f 113//113 115//115 112//112 
f 111//111 113//113 110//110 
f 109//109 111//111 108//108 
f 107//107 109//109 106//106 
f 105//105 107//107 104//104 
f 103//103 105//105 102//102 
f 101//101 103//103 100//100 
f 99//99 101//101 98//98 
f 97//97 99//99 96//96 
f 95//95 97//97 94//94 
f 93//93 95//95 92//92 
f 91//91 93//93 90//90 
f 89//89 91//91 88//88 
f 87//87 89//89 86//86 
f 85//85 87//87 84//84 
f 83//83 85//85 82//82 
f 81//81 83//83 80//80 
f 79//79 81//81 78//78 
f 77//77 79//79 76//76 
f 75//75 77//77 74//74 
f 73//73 75//75 72//72 
f 71//71 73//73 70//70 
f 69//69 71//71 68//68 
f 67//67 69//69 66//66 
f 65//65 67//67 64//64 
f 63//63 65//65 62//62 
f 61//61 63//63 60//60 
f 59//59 61//61 58//58 
f 57//57 59//59 56//56 
f 55//55 57//57 54//54 
f 53//53 55//55 52//52 
f 51//51 53//53 50//50 
f 49//49 51//51 48//48 
f 47//47 49//49 46//46 
f 45//45 47//47 44//44 
f 43//43 45//45 42//42 
f 41//41 43//43 40//40 
f 39//39 41//41 38//38 
f 37//37 39//39 36//36 
f 35//35 37//37 34//34 
f 33//33 35//35 32//32 
f 31//31 33//33 30//30 
f 29//29 31//31 28//28 
f 27//27 29//29 26//26 
f 25//25 27//27 24//24 
f 23//23 25//25 22//22 
f 21//21 23//23 20//20 
f 19//19 21//21 18//18 
f 17//17 19//19 16//16 
f 15//15 17//17 14//14 
f 13//13 15//15 12//12 
f 11//11 13//13 10//10 
f 9//9 11//11 8//8 
f 7//7 9//9 6//6 
f 5//5 7//7 4//4 
f 3//3 5//5 1//1 
o mesh9895
v 0.00365 0.138865 -0.0533437 
v 0.00365 0.174097 0.0364066 
v 0.00365 0.174383 0.0366128 
v 0.00365 0.172085 0.0358997 
v 0.00365 0.172437 0.0358912 
v 0.00365 0.171064 0.0361504 
v 0.00365 0.171394 0.03603 
v 0.00365 0.124225 -0.0649837 
v 0.00365 0.134674 -0.0548978 
v 0.00365 0.134536 -0.0552215 
v 0.00365 0.175083 0.0373976 
v 0.00365 0.175255 0.0377045 
v 0.00365 0.173792 0.0362325 
v 0.00365 0.172787 0.0359208 
v 0.00365 0.171736 0.0359461 
v 0.00365 0.136987 -0.0595266 
v 0.00365 0.137336 -0.0595731 
v 0.00365 0.135702 -0.0589783 
v 0.00365 0.135999 -0.059167 
v 0.00365 0.134433 -0.0555582 
v 0.00365 0.13505 -0.0543045 
v 0.00365 0.134846 -0.0545909 
v 0.00365 0.167662 0.0543572 
v 0.00365 0.135285 -0.0540419 
v 0.00365 0.136137 -0.0534258 
v 0.00365 0.135831 -0.0535999 
v 0.00365 0.174878 0.0371112 
v 0.00365 0.174644 0.0368486 
v 0.00365 0.173133 0.0359882 
v 0.00365 0.173469 0.0360925 
v 0.00365 0.171545 0.0422913 
v 0.00365 0.171209 0.042187 
v 0.00365 0.215398 0.0369826 
v 0.00365 0.171961 -0.0823584 
v 0.00365 0.140828 -0.0560595 
v 0.00365 0.139042 -0.0592403 
v 0.00365 0.139348 -0.0590661 
v 0.00365 0.136314 -0.0593224 
v 0.00365 0.136645 -0.0594427 
v 0.00365 0.135427 -0.0587587 
v 0.00365 0.134341 -0.0562548 
v 0.00365 0.134351 -0.0566065 
v 0.00365 0.134368 -0.055904 
v 0.00365 0.135546 -0.0538061 
v 0.00365 0.170176 0.0367141 
v 0.00365 0.170451 0.0364944 
v 0.00365 0.138534 -0.0532233 
v 0.00365 0.169515 0.0375317 
v 0.00365 0.169705 0.0372358 
v 0.00365 0.139478 -0.0536877 
v 0.00365 0.139181 -0.0534991 
v 0.00365 0.175393 0.0380282 
v 0.00365 0.17058 0.0418728 
v 0.00365 0.170295 0.0416667 
v 0.00365 0.170886 0.042047 
v 0.00365 0.140839 -0.0564113 
v 0.00365 0.140746 -0.0571079 
v 0.00365 0.140811 -0.0567621 
v 0.00365 0.140333 -0.0580751 
v 0.00365 0.140506 -0.0577683 
v 0.00365 0.13872 -0.0593803 
v 0.00365 0.138038 -0.0595519 
v 0.00365 0.138383 -0.0594846 
v 0.00365 0.137687 -0.0595816 
v 0.00365 0.170748 0.0363058 
v 0.00365 0.17393 0.0419737 
v 0.00365 0.173614 0.0421291 
v 0.00365 0.174227 0.041785 
v 0.00365 0.174752 0.0413173 
v 0.00365 0.174502 0.0415654 
v 0.00365 0.175321 0.040433 
v 0.00365 0.175163 0.0407478 
v 0.00365 0.175577 0.0394132 
v 0.00365 0.175529 0.0397618 
v 0.00365 0.175495 0.0383649 
v 0.00365 0.17556 0.0387107 
v 0.00365 0.1698 0.0411683 
v 0.00365 0.169595 0.0408818 
v 0.00365 0.140644 -0.0574446 
v 0.00365 0.1344 -0.0569551 
v 0.00365 0.134486 -0.0572963 
v 0.00365 0.169926 0.0369622 
v 0.00365 0.138192 -0.0531394 
v 0.00365 0.173283 0.0422494 
v 0.00365 0.174973 0.0410437 
v 0.00365 0.175443 0.040103 
v 0.00365 0.175588 0.0390615 
v 0.00365 0.169423 0.040575 
v 0.00365 0.170034 0.0414309 
v 0.00365 0.14078 -0.055711 
v 0.00365 0.140694 -0.0553697 
v 0.00365 0.139633 -0.05886 
v 0.00365 0.139895 -0.0586242 
v 0.00365 0.134956 -0.058237 
v 0.00365 0.135177 -0.0585106 
v 0.00365 0.134608 -0.0576263 
v 0.00365 0.134765 -0.0579411 
v 0.00365 0.137844 -0.053093 
v 0.00365 0.137492 -0.0530845 
v 0.00365 0.169235 0.0381764 
v 0.00365 0.169357 0.0378465 
v 0.00365 0.172942 0.0423333 
v 0.00365 0.172593 0.0423798 
v 0.00365 0.169117 0.0395688 
v 0.00365 0.169285 0.0402513 
v 0.00365 0.169183 0.0399146 
v 0.00365 0.172241 0.0423883 
v 0.00365 0.17189 0.0423587 
v 0.00365 0.140129 -0.0583616 
v 0.00365 0.169149 0.0385177 
v 0.00365 0.140224 -0.0544291 
v 0.00365 0.140002 -0.0541555 
v 0.00365 0.136796 -0.0531815 
v 0.00365 0.13646 -0.0532858 
v 0.00365 0.137141 -0.0531141 
v 0.00365 0.16909 0.039218 
v 0.00365 0.1691 0.0388662 
v 0.00365 0.139753 -0.0539074 
v 0.00365 0.140571 -0.0550398 
v 0.00365 0.140414 -0.054725 
vn -1 -1e-15 -5.4e-14 
vn -1 -1e-15 -5.4e-14 
vn -1 -1e-15 -5.4e-14 
vn -1 -1e-15 -5.4e-14 
vn -1 -1e-15 -5.4e-14 
vn -1 -1e-15 -5.4e-14 
vn -1 -1e-15 -5.4e-14 
vn -1 -1e-15 -5.4e-14 
vn -1 -1e-15 -5.4e-14 
vn -1 -1e-15 -5.4e-14 
vn -1 -1e-15 -5.4e-14 
vn -1 -1e-15 -5.4e-14 
vn -1 -1e-15 -5.4e-14 
vn -1 -1e-15 -5.4e-14 
vn -1 -1e-15 -5.4e-14 
vn -1 -1e-15 -5.4e-14 
vn -1 -1e-15 -5.4e-14 
vn -1 -1e-15 -5.4e-14 
vn -1 -1e-15 -5.4e-14 
vn -1 -1e-15 -5.4e-14 
vn -1 -1e-15 -5.4e-14 
vn -1 -1e-15 -5.4e-14 
vn -1 -1e-15 -5.4e-14 
vn -1 -1e-15 -5.4e-14 
vn -1 -1e-15 -5.4e-14 
vn -1 -1e-15 -5.4e-14 
vn -1 -1e-15 -5.4e-14 
vn -1 -1e-15 -5.4e-14 
vn -1 -1e-15 -5.4e-14 
vn -1 -1e-15 -5.4e-14 
vn -1 -1e-15 -5.4e-14 
vn -1 -1e-15 -5.4e-14 
vn -1 -1e-15 -5.4e-14 
vn -1 -1e-15 -5.4e-14 
vn -1 -1e-15 -5.4e-14 
vn -1 -1e-15 -5.4e-14 
vn -1 -1e-15 -5.4e-14 
vn -1 -1e-15 -5.4e-14 
vn -1 -1e-15 -5.4e-14 
vn -1 -1e-15 -5.4e-14 
vn -1 -1e-15 -5.4e-14 
vn -1 -1e-15 -5.4e-14 
vn -1 -1e-15 -5.4e-14 
vn -1 -1e-15 -5.4e-14 
vn -1 -1e-15 -5.4e-14 
vn -1 -1e-15 -5.4e-14 
vn -1 -1e-15 -5.4e-14 
vn -1 -1e-15 -5.4e-14 
vn -1 -1e-15 -5.4e-14 
vn -1 -1e-15 -5.4e-14 
vn -1 -1e-15 -5.4e-14 
vn -1 -1e-15 -5.4e-14 
vn -1 -1e-15 -5.4e-14 
vn -1 -1e-15 -5.4e-14 
vn -1 -1e-15 -5.4e-14 
vn -1 -1e-15 -5.4e-14 
vn -1 -1e-15 -5.4e-14 
vn -1 -1e-15 -5.4e-14 
vn -1 -1e-15 -5.4e-14 
vn -1 -1e-15 -5.4e-14 
vn -1 -1e-15 -5.4e-14 
vn -1 -1e-15 -5.4e-14 
vn -1 -1e-15 -5.4e-14 
vn -1 -1e-15 -5.4e-14 
vn -1 -1e-15 -5.4e-14 
vn -1 -1e-15 -5.4e-14 
vn -1 -1e-15 -5.4e-14 
vn -1 -1e-15 -5.4e-14 
vn -1 -1e-15 -5.4e-14 
vn -1 -1e-15 -5.4e-14 
vn -1 -1e-15 -5.4e-14 
vn -1 -1e-15 -5.4e-14 
vn -1 -1e-15 -5.4e-14 
vn -1 -1e-15 -5.4e-14 
vn -1 -1e-15 -5.4e-14 
vn -1 -1e-15 -5.4e-14 
vn -1 -1e-15 -5.4e-14 
vn -1 -1e-15 -5.4e-14 
vn -1 -1e-15 -5.4e-14 
vn -1 -1e-15 -5.4e-14 
vn -1 -1e-15 -5.4e-14 
vn -1 -1e-15 -5.4e-14 
vn -1 -1e-15 -5.4e-14 
vn -1 -1e-15 -5.4e-14 
vn -1 -1e-15 -5.4e-14 
vn -1 -1e-15 -5.4e-14 
vn -1 -1e-15 -5.4e-14 
vn -1 -1e-15 -5.4e-14 
vn -1 -1e-15 -5.4e-14 
vn -1 -1e-15 -5.4e-14 
vn -1 -1e-15 -5.4e-14 
vn -1 -1e-15 -5.4e-14 
vn -1 -1e-15 -5.4e-14 
vn -1 -1e-15 -5.4e-14 
vn -1 -1e-15 -5.4e-14 
vn -1 -1e-15 -5.4e-14 
vn -1 -1e-15 -5.4e-14 
vn -1 -1e-15 -5.4e-14 
vn -1 -1e-15 -5.4e-14 
vn -1 -1e-15 -5.4e-14 
vn -1 -1e-15 -5.4e-14 
vn -1 -1e-15 -5.4e-14 
vn -1 -1e-15 -5.4e-14 
vn -1 -1e-15 -5.4e-14 
vn -1 -1e-15 -5.4e-14 
vn -1 -1e-15 -5.4e-14 
vn -1 -1e-15 -5.4e-14 
vn -1 -1e-15 -5.4e-14 
vn -1 -1e-15 -5.4e-14 
vn -1 -1e-15 -5.4e-14 
vn -1 -1e-15 -5.4e-14 
vn -1 -1e-15 -5.4e-14 
vn -1 -1e-15 -5.4e-14 
vn -1 -1e-15 -5.4e-14 
vn -1 -1e-15 -5.4e-14 
vn -1 -1e-15 -5.4e-14 
vn -1 -1e-15 -5.4e-14 
vn -1 -1e-15 -5.4e-14 
vn -1 -1e-15 -5.4e-14 
vn -1 -1e-15 -5.4e-14 
f 117//117 118//118 119//119 
f 117//117 120//120 121//121 
f 117//117 122//122 123//123 
f 124//124 125//125 126//126 
f 117//117 127//127 128//128 
f 117//117 129//129 118//118 
f 121//121 130//130 117//117 
f 123//123 131//131 117//117 
f 124//124 132//132 133//133 
f 124//124 134//134 135//135 
f 126//126 136//136 124//124 
f 124//124 137//137 138//138 
f 139//139 140//140 137//137 
f 139//139 141//141 142//142 
f 117//117 143//143 127//127 
f 119//119 144//144 117//117 
f 117//117 145//145 146//146 
f 131//131 120//120 117//117 
f 139//139 147//147 148//148 
f 149//149 150//150 151//151 
f 150//150 152//152 153//153 
f 133//133 150//150 124//124 
f 124//124 154//154 155//155 
f 124//124 156//156 134//134 
f 124//124 157//157 158//158 
f 136//136 159//159 124//124 
f 137//137 124//124 139//139 
f 142//142 160//160 139//139 
f 144//144 143//143 117//117 
f 130//130 145//145 117//117 
f 117//117 161//161 162//162 
f 163//163 164//164 165//165 
f 166//166 167//167 168//168 
f 139//139 169//169 170//170 
f 148//148 171//171 139//139 
f 150//150 172//172 151//151 
f 150//150 173//173 174//174 
f 150//150 175//175 176//176 
f 150//150 177//177 152//152 
f 150//150 178//178 179//179 
f 133//133 180//180 150//150 
f 135//135 154//154 124//124 
f 159//159 157//157 124//124 
f 160//160 140//140 139//139 
f 146//146 129//129 117//117 
f 162//162 181//181 117//117 
f 165//165 117//117 163//163 
f 139//139 182//182 183//183 
f 139//139 149//149 184//184 
f 149//149 185//185 186//186 
f 149//149 187//187 188//188 
f 149//149 189//189 190//190 
f 149//149 191//191 192//192 
f 168//168 149//149 166//166 
f 139//139 193//193 194//194 
f 171//171 169//169 139//139 
f 174//174 172//172 150//150 
f 176//176 195//195 150//150 
f 179//179 177//177 150//150 
f 155//155 132//132 124//124 
f 124//124 196//196 197//197 
f 138//138 125//125 124//124 
f 181//181 122//122 117//117 
f 117//117 165//165 198//198 
f 163//163 199//199 164//164 
f 183//183 200//200 139//139 
f 186//186 184//184 149//149 
f 188//188 201//201 149//149 
f 190//190 202//202 149//149 
f 192//192 203//203 149//149 
f 168//168 191//191 149//149 
f 194//194 204//204 139//139 
f 170//170 205//205 139//139 
f 149//149 206//206 207//207 
f 195//195 173//173 150//150 
f 150//150 208//208 209//209 
f 180//180 178//178 150//150 
f 124//124 210//210 211//211 
f 124//124 212//212 213//213 
f 158//158 196//196 124//124 
f 198//198 161//161 117//117 
f 199//199 214//214 164//164 
f 215//215 216//216 217//217 
f 139//139 218//218 219//219 
f 184//184 182//182 139//139 
f 202//202 187//187 149//149 
f 167//167 117//117 168//168 
f 215//215 139//139 220//220 
f 139//139 221//221 222//222 
f 205//205 193//193 139//139 
f 139//139 223//223 224//224 
f 151//151 206//206 149//149 
f 209//209 225//225 150//150 
f 211//211 156//156 124//124 
f 197//197 212//212 124//124 
f 214//214 215//215 164//164 
f 215//215 226//226 216//216 
f 200//200 218//218 139//139 
f 203//203 189//189 149//149 
f 222//222 220//220 139//139 
f 224//224 147//147 139//139 
f 149//149 227//227 228//228 
f 225//225 175//175 150//150 
f 213//213 210//210 124//124 
f 139//139 229//229 230//230 
f 139//139 215//215 231//231 
f 217//217 164//164 215//215 
f 201//201 185//185 149//149 
f 215//215 232//232 233//233 
f 204//204 221//221 139//139 
f 228//228 234//234 149//149 
f 149//149 235//235 236//236 
f 153//153 208//208 150//150 
f 231//231 229//229 139//139 
f 219//219 223//223 139//139 
f 220//220 232//232 215//215 
f 236//236 227//227 149//149 
f 230//230 141//141 139//139 
f 233//233 226//226 215//215 
f 207//207 235//235 149//149 
f 234//234 166//166 149//149 
f 128//128 168//168 117//117 
o mesh9896
v 0.01 0.170748 0.0363058 
v 0.01 0.124225 -0.0649837 
v 0.01 0.134536 -0.0552215 
v 0.01 0.215398 0.0369826 
v 0.01 0.175393 0.0380282 
v 0.01 0.140746 -0.0571079 
v 0.01 0.167662 0.0543572 
v 0.01 0.173283 0.0422494 
v 0.01 0.173614 0.0421291 
v 0.01 0.169423 0.040575 
v 0.01 0.169595 0.0408818 
v 0.01 0.170176 0.0367141 
v 0.01 0.169926 0.0369622 
v 0.01 0.170451 0.0364944 
v 0.01 0.134433 -0.0555582 
v 0.01 0.134608 -0.0576263 
v 0.01 0.134486 -0.0572963 
v 0.01 0.171961 -0.0823584 
v 0.01 0.17393 0.0419737 
v 0.01 0.174227 0.041785 
v 0.01 0.172942 0.0423333 
v 0.01 0.17189 0.0423587 
v 0.01 0.172241 0.0423883 
v 0.01 0.1698 0.0411683 
v 0.01 0.16909 0.039218 
v 0.01 0.169117 0.0395688 
v 0.01 0.169357 0.0378465 
v 0.01 0.169235 0.0381764 
v 0.01 0.169705 0.0372358 
v 0.01 0.171064 0.0361504 
v 0.01 0.134765 -0.0579411 
v 0.01 0.139633 -0.05886 
v 0.01 0.139348 -0.0590661 
v 0.01 0.140644 -0.0574446 
v 0.01 0.140506 -0.0577683 
v 0.01 0.175495 0.0383649 
v 0.01 0.175321 0.040433 
v 0.01 0.175443 0.040103 
v 0.01 0.172593 0.0423798 
v 0.01 0.170886 0.042047 
v 0.01 0.171209 0.042187 
v 0.01 0.169285 0.0402513 
v 0.01 0.169183 0.0399146 
v 0.01 0.169149 0.0385177 
v 0.01 0.1691 0.0388662 
v 0.01 0.169515 0.0375317 
v 0.01 0.134341 -0.0562548 
v 0.01 0.134368 -0.055904 
v 0.01 0.134956 -0.058237 
v 0.01 0.135427 -0.0587587 
v 0.01 0.135177 -0.0585106 
v 0.01 0.139753 -0.0539074 
v 0.01 0.140002 -0.0541555 
v 0.01 0.139895 -0.0586242 
v 0.01 0.175163 0.0407478 
v 0.01 0.174502 0.0415654 
v 0.01 0.171545 0.0422913 
v 0.01 0.170034 0.0414309 
v 0.01 0.170295 0.0416667 
v 0.01 0.134351 -0.0566065 
v 0.01 0.140571 -0.0550398 
v 0.01 0.140694 -0.0553697 
v 0.01 0.140224 -0.0544291 
v 0.01 0.139181 -0.0534991 
v 0.01 0.139478 -0.0536877 
v 0.01 0.138534 -0.0532233 
v 0.01 0.138865 -0.0533437 
v 0.01 0.175255 0.0377045 
v 0.01 0.137492 -0.0530845 
v 0.01 0.137844 -0.053093 
v 0.01 0.136796 -0.0531815 
v 0.01 0.137141 -0.0531141 
v 0.01 0.140129 -0.0583616 
v 0.01 0.140333 -0.0580751 
v 0.01 0.175588 0.0390615 
v 0.01 0.17556 0.0387107 
v 0.01 0.175529 0.0397618 
v 0.01 0.175577 0.0394132 
v 0.01 0.174973 0.0410437 
v 0.01 0.174752 0.0413173 
v 0.01 0.17058 0.0418728 
v 0.01 0.1344 -0.0569551 
v 0.01 0.135999 -0.059167 
v 0.01 0.135702 -0.0589783 
v 0.01 0.136645 -0.0594427 
v 0.01 0.136314 -0.0593224 
v 0.01 0.137687 -0.0595816 
v 0.01 0.137336 -0.0595731 
v 0.01 0.140839 -0.0564113 
v 0.01 0.140811 -0.0567621 
v 0.01 0.14078 -0.055711 
v 0.01 0.140828 -0.0560595 
v 0.01 0.140414 -0.054725 
v 0.01 0.138192 -0.0531394 
v 0.01 0.136137 -0.0534258 
v 0.01 0.13646 -0.0532858 
v 0.01 0.139042 -0.0592403 
v 0.01 0.13872 -0.0593803 
v 0.01 0.136987 -0.0595266 
v 0.01 0.135831 -0.0535999 
v 0.01 0.135285 -0.0540419 
v 0.01 0.135546 -0.0538061 
v 0.01 0.172787 0.0359208 
v 0.01 0.134674 -0.0548978 
v 0.01 0.174097 0.0364066 
v 0.01 0.173792 0.0362325 
v 0.01 0.175083 0.0373976 
v 0.01 0.174878 0.0371112 
v 0.01 0.138383 -0.0594846 
v 0.01 0.171736 0.0359461 
v 0.01 0.171394 0.03603 
v 0.01 0.172437 0.0358912 
v 0.01 0.172085 0.0358997 
v 0.01 0.13505 -0.0543045 
v 0.01 0.134846 -0.0545909 
v 0.01 0.173133 0.0359882 
v 0.01 0.173469 0.0360925 
v 0.01 0.174644 0.0368486 
v 0.01 0.174383 0.0366128 
v 0.01 0.138038 -0.0595519 
vn 1 1e-15 5.4e-14 
vn 1 1e-15 5.4e-14 
vn 1 1e-15 5.4e-14 
vn 1 1e-15 5.4e-14 
vn 1 1e-15 5.4e-14 
vn 1 1e-15 5.4e-14 
vn 1 1e-15 5.4e-14 
vn 1 1e-15 5.4e-14 
vn 1 1e-15 5.4e-14 
vn 1 1e-15 5.4e-14 
vn 1 1e-15 5.4e-14 
vn 1 1e-15 5.4e-14 
vn 1 1e-15 5.4e-14 
vn 1 1e-15 5.4e-14 
vn 1 1e-15 5.4e-14 
vn 1 1e-15 5.4e-14 
vn 1 1e-15 5.4e-14 
vn 1 1e-15 5.4e-14 
vn 1 1e-15 5.4e-14 
vn 1 1e-15 5.4e-14 
vn 1 1e-15 5.4e-14 
vn 1 1e-15 5.4e-14 
vn 1 1e-15 5.4e-14 
vn 1 1e-15 5.4e-14 
vn 1 1e-15 5.4e-14 
vn 1 1e-15 5.4e-14 
vn 1 1e-15 5.4e-14 
vn 1 1e-15 5.4e-14 
vn 1 1e-15 5.4e-14 
vn 1 1e-15 5.4e-14 
vn 1 1e-15 5.4e-14 
vn 1 1e-15 5.4e-14 
vn 1 1e-15 5.4e-14 
vn 1 1e-15 5.4e-14 
vn 1 1e-15 5.4e-14 
vn 1 1e-15 5.4e-14 
vn 1 1e-15 5.4e-14 
vn 1 1e-15 5.4e-14 
vn 1 1e-15 5.4e-14 
vn 1 1e-15 5.4e-14 
vn 1 1e-15 5.4e-14 
vn 1 1e-15 5.4e-14 
vn 1 1e-15 5.4e-14 
vn 1 1e-15 5.4e-14 
vn 1 1e-15 5.4e-14 
vn 1 1e-15 5.4e-14 
vn 1 1e-15 5.4e-14 
vn 1 1e-15 5.4e-14 
vn 1 1e-15 5.4e-14 
vn 1 1e-15 5.4e-14 
vn 1 1e-15 5.4e-14 
vn 1 1e-15 5.4e-14 
vn 1 1e-15 5.4e-14 
vn 1 1e-15 5.4e-14 
vn 1 1e-15 5.4e-14 
vn 1 1e-15 5.4e-14 
vn 1 1e-15 5.4e-14 
vn 1 1e-15 5.4e-14 
vn 1 1e-15 5.4e-14 
vn 1 1e-15 5.4e-14 
vn 1 1e-15 5.4e-14 
vn 1 1e-15 5.4e-14 
vn 1 1e-15 5.4e-14 
vn 1 1e-15 5.4e-14 
vn 1 1e-15 5.4e-14 
vn 1 1e-15 5.4e-14 
vn 1 1e-15 5.4e-14 
vn 1 1e-15 5.4e-14 
vn 1 1e-15 5.4e-14 
vn 1 1e-15 5.4e-14 
vn 1 1e-15 5.4e-14 
vn 1 1e-15 5.4e-14 
vn 1 1e-15 5.4e-14 
vn 1 1e-15 5.4e-14 
vn 1 1e-15 5.4e-14 
vn 1 1e-15 5.4e-14 
vn 1 1e-15 5.4e-14 
vn 1 1e-15 5.4e-14 
vn 1 1e-15 5.4e-14 
vn 1 1e-15 5.4e-14 
vn 1 1e-15 5.4e-14 
vn 1 1e-15 5.4e-14 
vn 1 1e-15 5.4e-14 
vn 1 1e-15 5.4e-14 
vn 1 1e-15 5.4e-14 
vn 1 1e-15 5.4e-14 
vn 1 1e-15 5.4e-14 
vn 1 1e-15 5.4e-14 
vn 1 1e-15 5.4e-14 
vn 1 1e-15 5.4e-14 
vn 1 1e-15 5.4e-14 
vn 1 1e-15 5.4e-14 
vn 1 1e-15 5.4e-14 
vn 1 1e-15 5.4e-14 
vn 1 1e-15 5.4e-14 
vn 1 1e-15 5.4e-14 
vn 1 1e-15 5.4e-14 
vn 1 1e-15 5.4e-14 
vn 1 1e-15 5.4e-14 
vn 1 1e-15 5.4e-14 
vn 1 1e-15 5.4e-14 
vn 1 1e-15 5.4e-14 
vn 1 1e-15 5.4e-14 
vn 1 1e-15 5.4e-14 
vn 1 1e-15 5.4e-14 
vn 1 1e-15 5.4e-14 
vn 1 1e-15 5.4e-14 
vn 1 1e-15 5.4e-14 
vn 1 1e-15 5.4e-14 
vn 1 1e-15 5.4e-14 
vn 1 1e-15 5.4e-14 
vn 1 1e-15 5.4e-14 
vn 1 1e-15 5.4e-14 
vn 1 1e-15 5.4e-14 
vn 1 1e-15 5.4e-14 
vn 1 1e-15 5.4e-14 
vn 1 1e-15 5.4e-14 
vn 1 1e-15 5.4e-14 
vn 1 1e-15 5.4e-14 
vn 1 1e-15 5.4e-14 
f 237//237 238//238 239//239 
f 240//240 241//241 242//242 
f 243//243 244//244 245//245 
f 243//243 246//246 247//247 
f 238//238 248//248 249//249 
f 238//238 237//237 250//250 
f 238//238 251//251 239//239 
f 238//238 252//252 253//253 
f 242//242 254//254 240//240 
f 243//243 255//255 256//256 
f 243//243 257//257 244//244 
f 243//243 258//258 259//259 
f 247//247 260//260 243//243 
f 243//243 261//261 262//262 
f 238//238 263//263 264//264 
f 249//249 265//265 238//238 
f 239//239 266//266 237//237 
f 238//238 267//267 252//252 
f 254//254 268//268 269//269 
f 254//254 270//270 271//271 
f 240//240 272//272 241//241 
f 240//240 273//273 274//274 
f 245//245 255//255 243//243 
f 259//259 275//275 243//243 
f 243//243 276//276 277//277 
f 243//243 278//278 246//246 
f 262//262 279//279 243//243 
f 238//238 280//280 281//281 
f 238//238 282//282 263//263 
f 250//250 248//248 238//238 
f 238//238 283//283 284//284 
f 238//238 285//285 267//267 
f 238//238 286//286 287//287 
f 241//241 288//288 289//289 
f 254//254 290//290 268//268 
f 242//242 270//270 254//254 
f 240//240 291//291 273//273 
f 240//240 256//256 292//292 
f 275//275 257//257 243//243 
f 277//277 293//293 243//243 
f 243//243 294//294 295//295 
f 279//279 278//278 243//243 
f 281//281 243//243 238//238 
f 265//265 282//282 238//238 
f 238//238 296//296 283//283 
f 287//287 285//285 238//238 
f 241//241 297//297 298//298 
f 289//289 299//299 241//241 
f 241//241 300//300 301//301 
f 241//241 302//302 303//303 
f 302//302 241//241 304//304 
f 304//304 305//305 306//306 
f 304//304 307//307 308//308 
f 254//254 309//309 290//290 
f 271//271 310//310 254//254 
f 240//240 311//311 312//312 
f 240//240 313//313 314//314 
f 240//240 315//315 291//291 
f 292//292 316//316 240//240 
f 293//293 258//258 243//243 
f 295//295 317//317 243//243 
f 281//281 261//261 243//243 
f 284//284 251//251 238//238 
f 253//253 318//318 238//238 
f 238//238 319//319 320//320 
f 238//238 321//321 322//322 
f 254//254 323//323 324//324 
f 241//241 325//325 326//326 
f 241//241 327//327 328//328 
f 241//241 329//329 297//297 
f 301//301 288//288 241//241 
f 304//304 330//330 302//302 
f 308//308 305//305 304//304 
f 304//304 331//331 332//332 
f 254//254 333//333 334//334 
f 310//310 309//309 254//254 
f 314//314 311//311 240//240 
f 316//316 315//315 240//240 
f 317//317 276//276 243//243 
f 264//264 280//280 238//238 
f 320//320 286//286 238//238 
f 238//238 335//335 321//321 
f 324//324 238//238 254//254 
f 328//328 325//325 241//241 
f 299//299 329//329 241//241 
f 306//306 330//330 304//304 
f 304//304 336//336 331//331 
f 304//304 337//337 338//338 
f 339//339 239//239 340//340 
f 340//340 341//341 342//342 
f 340//340 343//343 344//344 
f 334//334 345//345 254//254 
f 312//312 272//272 240//240 
f 256//256 240//240 243//243 
f 318//318 296//296 238//238 
f 324//324 335//335 238//238 
f 239//239 346//346 347//347 
f 239//239 348//348 349//349 
f 298//298 327//327 241//241 
f 332//332 307//307 304//304 
f 304//304 350//350 337//337 
f 304//304 340//340 351//351 
f 340//340 352//352 339//339 
f 342//342 353//353 340//340 
f 340//340 354//354 355//355 
f 340//340 304//304 343//343 
f 345//345 356//356 254//254 
f 274//274 313//313 240//240 
f 322//322 319//319 238//238 
f 349//349 346//346 239//239 
f 303//303 300//300 241//241 
f 351//351 350//350 304//304 
f 353//353 352//352 340//340 
f 344//344 354//354 340//340 
f 269//269 333//333 254//254 
f 347//347 266//266 239//239 
f 338//338 336//336 304//304 
f 355//355 341//341 340//340 
f 260//260 294//294 243//243 
f 339//339 348//348 239//239 
f 326//326 242//242 241//241 
f 356//356 323//323 254//254 
o mesh9897
v 0.01 0.124225 -0.0649837 
v 0.00365 0.124225 -0.0649837 
v 0.00365 0.171961 -0.0823584 
v 0.01 0.171961 -0.0823584 
vn 5.10854e-14 -0.34202 -0.939693 
vn 5.10854e-14 -0.34202 -0.939693 
vn 5.10854e-14 -0.34202 -0.939693 
vn 5.10854e-14 -0.34202 -0.939693 
f 357//357 358//358 359//359 
f 359//359 360//360 357//357 
o mesh9898
v 0.01 0.215398 0.0369826 
v 0.01 0.171961 -0.0823584 
v 0.00365 0.171961 -0.0823584 
v 0.00365 0.215398 0.0369826 
vn 1.75294e-14 0.939693 -0.34202 
vn 1.75294e-14 0.939693 -0.34202 
vn 1.75294e-14 0.939693 -0.34202 
vn 1.75294e-14 0.939693 -0.34202 
f 361//361 362//362 363//363 
f 363//363 364//364 361//361 
o mesh9899
v 0.01 0.215398 0.0369826 
v 0.00365 0.215398 0.0369826 
v 0.00365 0.167662 0.0543572 
v 0.01 0.167662 0.0543572 
vn -5.10854e-14 0.34202 0.939693 
vn -5.10854e-14 0.34202 0.939693 
vn -5.10854e-14 0.34202 0.939693 
vn -5.10854e-14 0.34202 0.939693 
f 365//365 366//366 367//367 
f 367//367 368//368 365//365 
o mesh9900
v 0.01 0.124225 -0.0649837 
v 0.01 0.167662 0.0543572 
v 0.00365 0.167662 0.0543572 
v 0.00365 0.124225 -0.0649837 
vn -1.75294e-14 -0.939693 0.34202 
vn -1.75294e-14 -0.939693 0.34202 
vn -1.75294e-14 -0.939693 0.34202 
vn -1.75294e-14 -0.939693 0.34202 
f 369//369 370//370 371//371 
f 371//371 372//372 369//369 
o mesh9901
v 0.01 0.140506 -0.0577683 
v 0.01 0.140644 -0.0574446 
v 0.00365 0.140644 -0.0574446 
v 0.01 0.140333 -0.0580751 
v 0.00365 0.140506 -0.0577683 
v 0.01 0.140129 -0.0583616 
v 0.00365 0.140333 -0.0580751 
v 0.01 0.139895 -0.0586242 
v 0.00365 0.140129 -0.0583616 
v 0.01 0.139633 -0.05886 
v 0.00365 0.139895 -0.0586242 
v 0.01 0.139348 -0.0590661 
v 0.00365 0.139633 -0.05886 
v 0.01 0.139042 -0.0592403 
v 0.00365 0.139348 -0.0590661 
v 0.01 0.13872 -0.0593803 
v 0.00365 0.139042 -0.0592403 
v 0.01 0.138383 -0.0594846 
v 0.00365 0.13872 -0.0593803 
v 0.01 0.138038 -0.0595519 
v 0.00365 0.138383 -0.0594846 
v 0.01 0.137687 -0.0595816 
v 0.00365 0.138038 -0.0595519 
v 0.01 0.137336 -0.0595731 
v 0.00365 0.137687 -0.0595816 
v 0.01 0.136987 -0.0595266 
v 0.00365 0.137336 -0.0595731 
v 0.01 0.136645 -0.0594427 
v 0.00365 0.136987 -0.0595266 
v 0.01 0.136314 -0.0593224 
v 0.00365 0.136645 -0.0594427 
v 0.01 0.135999 -0.059167 
v 0.00365 0.136314 -0.0593224 
v 0.01 0.135702 -0.0589783 
v 0.00365 0.135999 -0.059167 
v 0.01 0.135427 -0.0587587 
v 0.00365 0.135702 -0.0589783 
v 0.01 0.135177 -0.0585106 
v 0.00365 0.135427 -0.0587587 
v 0.01 0.134956 -0.058237 
v 0.00365 0.135177 -0.0585106 
v 0.01 0.134765 -0.0579411 
v 0.00365 0.134956 -0.058237 
v 0.01 0.134608 -0.0576263 
v 0.00365 0.134765 -0.0579411 
v 0.01 0.134486 -0.0572963 
v 0.00365 0.134608 -0.0576263 
v 0.01 0.1344 -0.0569551 
v 0.00365 0.134486 -0.0572963 
v 0.01 0.134351 -0.0566065 
v 0.00365 0.1344 -0.0569551 
v 0.01 0.134341 -0.0562548 
v 0.00365 0.134351 -0.0566065 
v 0.01 0.134368 -0.055904 
v 0.00365 0.134341 -0.0562548 
v 0.01 0.134433 -0.0555582 
v 0.00365 0.134368 -0.055904 
v 0.01 0.134536 -0.0552215 
v 0.00365 0.134433 -0.0555582 
v 0.01 0.134674 -0.0548978 
v 0.00365 0.134536 -0.0552215 
v 0.01 0.134846 -0.0545909 
v 0.00365 0.134674 -0.0548978 
v 0.01 0.13505 -0.0543045 
v 0.00365 0.134846 -0.0545909 
v 0.01 0.135285 -0.0540419 
v 0.00365 0.13505 -0.0543045 
v 0.01 0.135546 -0.0538061 
v 0.00365 0.135285 -0.0540419 
v 0.01 0.135831 -0.0535999 
v 0.00365 0.135546 -0.0538061 
v 0.01 0.136137 -0.0534258 
v 0.00365 0.135831 -0.0535999 
v 0.01 0.13646 -0.0532858 
v 0.00365 0.136137 -0.0534258 
v 0.01 0.136796 -0.0531815 
v 0.00365 0.13646 -0.0532858 
v 0.01 0.137141 -0.0531141 
v 0.00365 0.136796 -0.0531815 
v 0.01 0.137492 -0.0530845 
v 0.00365 0.137141 -0.0531141 
v 0.01 0.137844 -0.053093 
v 0.00365 0.137492 -0.0530845 
v 0.01 0.138192 -0.0531394 
v 0.00365 0.137844 -0.053093 
v 0.01 0.138534 -0.0532233 
v 0.00365 0.138192 -0.0531394 
v 0.01 0.138865 -0.0533437 
v 0.00365 0.138534 -0.0532233 
v 0.01 0.139181 -0.0534991 
v 0.00365 0.138865 -0.0533437 
v 0.01 0.139478 -0.0536877 
v 0.00365 0.139181 -0.0534991 
v 0.01 0.139753 -0.0539074 
v 0.00365 0.139478 -0.0536877 
v 0.01 0.140002 -0.0541555 
v 0.00365 0.139753 -0.0539074 
v 0.01 0.140224 -0.0544291 
v 0.00365 0.140002 -0.0541555 
v 0.01 0.140414 -0.054725 
v 0.00365 0.140224 -0.0544291 
v 0.01 0.140571 -0.0550398 
v 0.00365 0.140414 -0.054725 
v 0.01 0.140694 -0.0553697 
v 0.00365 0.140571 -0.0550398 
v 0.01 0.14078 -0.055711 
v 0.00365 0.140694 -0.0553697 
v 0.01 0.140828 -0.0560595 
v 0.00365 0.14078 -0.055711 
v 0.01 0.140839 -0.0564113 
v 0.00365 0.140828 -0.0560595 
v 0.01 0.140811 -0.0567621 
v 0.00365 0.140839 -0.0564113 
v 0.01 0.140746 -0.0571079 
v 0.00365 0.140811 -0.0567621 
v 0.00365 0.140746 -0.0571079 
vn -2.29499e-14 -0.897205 0.441614 
vn -1.75294e-14 -0.939693 0.34202 
vn -1.75294e-14 -0.939693 0.34202 
vn -2.81014e-14 -0.844199 0.53603 
vn -2.29499e-14 -0.897205 0.441614 
vn -3.29234e-14 -0.781295 0.624162 
vn -2.81014e-14 -0.844199 0.53603 
vn -3.73595e-14 -0.709231 0.704976 
vn -3.29234e-14 -0.781295 0.624162 
vn -4.13575e-14 -0.628853 0.777525 
vn -3.73595e-14 -0.709231 0.704976 
vn -4.48706e-14 -0.541101 0.840958 
vn -4.13575e-14 -0.628853 0.777525 
vn -4.78577e-14 -0.447006 0.894531 
vn -4.48706e-14 -0.541101 0.840958 
vn -5.02837e-14 -0.347669 0.937617 
vn -4.78577e-14 -0.447006 0.894531 
vn -5.21201e-14 -0.244257 0.969711 
vn -5.02837e-14 -0.347669 0.937617 
vn -5.33455e-14 -0.137981 0.990435 
vn -5.21201e-14 -0.244257 0.969711 
vn -5.39455e-14 -0.0300873 0.999547 
vn -5.33455e-14 -0.137981 0.990435 
vn -5.3913e-14 0.0781591 0.996941 
vn -5.39455e-14 -0.0300873 0.999547 
vn -5.32484e-14 0.185489 0.982646 
vn -5.3913e-14 0.0781591 0.996941 
vn -5.19595e-14 0.290645 0.956831 
vn -5.32484e-14 0.185489 0.982646 
vn -5.00615e-14 0.392392 0.919798 
vn -5.19595e-14 0.290645 0.956831 
vn -4.75765e-14 0.48954 0.871981 
vn -5.00615e-14 0.392392 0.919798 
vn -4.45337e-14 0.580948 0.813941 
vn -4.75765e-14 0.48954 0.871981 
vn -4.09689e-14 0.665545 0.746358 
vn -4.45337e-14 0.580948 0.813941 
vn -3.69237e-14 0.742339 0.670025 
vn -4.09689e-14 0.665545 0.746358 
vn -3.24456e-14 0.81043 0.585836 
vn -3.69237e-14 0.742339 0.670025 
vn -2.75871e-14 0.869019 0.494779 
vn -3.24456e-14 0.81043 0.585836 
vn -2.24052e-14 0.91742 0.397921 
vn -2.75871e-14 0.869019 0.494779 
vn -1.69606e-14 0.955065 0.296398 
vn -2.24052e-14 0.91742 0.397921 
vn -1.13171e-14 0.981512 0.1914 
vn -1.69606e-14 0.955065 0.296398 
vn -5.54096e-15 0.996452 0.0841576 
vn -1.13171e-14 0.981512 0.1914 
vn 3.00134e-16 0.99971 -0.0240712 
vn -5.54096e-15 0.996452 0.0841576 
vn 6.13771e-15 0.991247 -0.132018 
vn 3.00134e-16 0.99971 -0.0240712 
vn 1.19033e-14 0.971163 -0.238417 
vn 6.13771e-15 0.991247 -0.132018 
vn 1.75294e-14 0.939693 -0.34202 
vn 1.19033e-14 0.971163 -0.238417 
vn 2.29499e-14 0.897205 -0.441614 
vn 1.75294e-14 0.939693 -0.34202 
vn 2.81014e-14 0.844199 -0.53603 
vn 2.29499e-14 0.897205 -0.441614 
vn 3.29234e-14 0.781295 -0.624162 
vn 2.81014e-14 0.844199 -0.53603 
vn 3.73595e-14 0.709231 -0.704976 
vn 3.29234e-14 0.781295 -0.624162 
vn 4.13575e-14 0.628853 -0.777525 
vn 3.73595e-14 0.709231 -0.704976 
vn 4.48706e-14 0.541101 -0.840958 
vn 4.13575e-14 0.628853 -0.777525 
vn 4.78577e-14 0.447006 -0.894531 
vn 4.48706e-14 0.541101 -0.840958 
vn 5.02837e-14 0.347669 -0.937617 
vn 4.78577e-14 0.447006 -0.894531 
vn 5.21201e-14 0.244257 -0.969711 
vn 5.02837e-14 0.347669 -0.937617 
vn 5.33455e-14 0.137981 -0.990435 
vn 5.21201e-14 0.244257 -0.969711 
vn 5.39455e-14 0.0300873 -0.999547 
vn 5.33455e-14 0.137981 -0.990435 
vn 5.3913e-14 -0.0781591 -0.996941 
vn 5.39455e-14 0.0300873 -0.999547 
vn 5.32484e-14 -0.185489 -0.982646 
vn 5.3913e-14 -0.0781591 -0.996941 
vn 5.19595e-14 -0.290645 -0.956831 
vn 5.32484e-14 -0.185489 -0.982646 
vn 5.00615e-14 -0.392392 -0.919798 
vn 5.19595e-14 -0.290645 -0.956831 
vn 4.75765e-14 -0.48954 -0.871981 
vn 5.00615e-14 -0.392392 -0.919798 
vn 4.45337e-14 -0.580948 -0.813941 
vn 4.75765e-14 -0.48954 -0.871981 
vn 4.09689e-14 -0.665545 -0.746358 
vn 4.45337e-14 -0.580948 -0.813941 
vn 3.69237e-14 -0.742339 -0.670025 
vn 4.09689e-14 -0.665545 -0.746358 
vn 3.24456e-14 -0.81043 -0.585836 
vn 3.69237e-14 -0.742339 -0.670025 
vn 2.75871e-14 -0.869019 -0.494779 
vn 3.24456e-14 -0.81043 -0.585836 
vn 2.24052e-14 -0.91742 -0.397921 
vn 2.75871e-14 -0.869019 -0.494779 
vn 1.69606e-14 -0.955065 -0.296398 
vn 2.24052e-14 -0.91742 -0.397921 
vn 1.13171e-14 -0.981512 -0.1914 
vn 1.69606e-14 -0.955065 -0.296398 
vn 5.54096e-15 -0.996452 -0.0841576 
vn 1.13171e-14 -0.981512 -0.1914 
vn -3.00134e-16 -0.99971 0.0240712 
vn 5.54096e-15 -0.996452 -0.0841576 
vn -6.13771e-15 -0.991247 0.132018 
vn -3.00134e-16 -0.99971 0.0240712 
vn -1.19033e-14 -0.971163 0.238417 
vn -6.13771e-15 -0.991247 0.132018 
vn -1.19033e-14 -0.971163 0.238417 
f 373//373 374//374 375//375 
f 376//376 373//373 377//377 
f 378//378 376//376 379//379 
f 380//380 378//378 381//381 
f 382//382 380//380 383//383 
f 384//384 382//382 385//385 
f 386//386 384//384 387//387 
f 388//388 386//386 389//389 
f 390//390 388//388 391//391 
f 392//392 390//390 393//393 
f 394//394 392//392 395//395 
f 396//396 394//394 397//397 
f 398//398 396//396 399//399 
f 400//400 398//398 401//401 
f 402//402 400//400 403//403 
f 404//404 402//402 405//405 
f 406//406 404//404 407//407 
f 408//408 406//406 409//409 
f 410//410 408//408 411//411 
f 412//412 410//410 413//413 
f 414//414 412//412 415//415 
f 416//416 414//414 417//417 
f 418//418 416//416 419//419 
f 420//420 418//418 421//421 
f 422//422 420//420 423//423 
f 424//424 422//422 425//425 
f 426//426 424//424 427//427 
f 428//428 426//426 429//429 
f 430//430 428//428 431//431 
f 432//432 430//430 433//433 
f 434//434 432//432 435//435 
f 436//436 434//434 437//437 
f 438//438 436//436 439//439 
f 440//440 438//438 441//441 
f 442//442 440//440 443//443 
f 444//444 442//442 445//445 
f 446//446 444//444 447//447 
f 448//448 446//446 449//449 
f 450//450 448//448 451//451 
f 452//452 450//450 453//453 
f 454//454 452//452 455//455 
f 456//456 454//454 457//457 
f 458//458 456//456 459//459 
f 460//460 458//458 461//461 
f 462//462 460//460 463//463 
f 464//464 462//462 465//465 
f 466//466 464//464 467//467 
f 468//468 466//466 469//469 
f 470//470 468//468 471//471 
f 472//472 470//470 473//473 
f 474//474 472//472 475//475 
f 476//476 474//474 477//477 
f 478//478 476//476 479//479 
f 480//480 478//478 481//481 
f 482//482 480//480 483//483 
f 484//484 482//482 485//485 
f 486//486 484//484 487//487 
f 374//374 486//486 488//488 
f 488//488 375//375 374//374 
f 487//487 488//488 486//486 
f 485//485 487//487 484//484 
f 483//483 485//485 482//482 
f 481//481 483//483 480//480 
f 479//479 481//481 478//478 
f 477//477 479//479 476//476 
f 475//475 477//477 474//474 
f 473//473 475//475 472//472 
f 471//471 473//473 470//470 
f 469//469 471//471 468//468 
f 467//467 469//469 466//466 
f 465//465 467//467 464//464 
f 463//463 465//465 462//462 
f 461//461 463//463 460//460 
f 459//459 461//461 458//458 
f 457//457 459//459 456//456 
f 455//455 457//457 454//454 
f 453//453 455//455 452//452 
f 451//451 453//453 450//450 
f 449//449 451//451 448//448 
f 447//447 449//449 446//446 
f 445//445 447//447 444//444 
f 443//443 445//445 442//442 
f 441//441 443//443 440//440 
f 439//439 441//441 438//438 
f 437//437 439//439 436//436 
f 435//435 437//437 434//434 
f 433//433 435//435 432//432 
f 431//431 433//433 430//430 
f 429//429 431//431 428//428 
f 427//427 429//429 426//426 
f 425//425 427//427 424//424 
f 423//423 425//425 422//422 
f 421//421 423//423 420//420 
f 419//419 421//421 418//418 
f 417//417 419//419 416//416 
f 415//415 417//417 414//414 
f 413//413 415//415 412//412 
f 411//411 413//413 410//410 
f 409//409 411//411 408//408 
f 407//407 409//409 406//406 
f 405//405 407//407 404//404 
f 403//403 405//405 402//402 
f 401//401 403//403 400//400 
f 399//399 401//401 398//398 
f 397//397 399//399 396//396 
f 395//395 397//397 394//394 
f 393//393 395//395 392//392 
f 391//391 393//393 390//390 
f 389//389 391//391 388//388 
f 387//387 389//389 386//386 
f 385//385 387//387 384//384 
f 383//383 385//385 382//382 
f 381//381 383//383 380//380 
f 379//379 381//381 378//378 
f 377//377 379//379 376//376 
f 375//375 377//377 373//373 
