# OBJ generated by ONSHAPE BY PTC INC, 1.215 Units = meters
mtllib EBoxNewAsm_stp_1_IMC413_stp_1_IMC413_12_stp_1_solid1.mtl
g EBoxNewAsm.stp-1/IMC413.stp-1/IMC413-12.stp-1-solid1
usemtl 0.823529_0.823529_1.000000_0.000000_0.000000
o mesh8269
v 0.163243 0.201838 0.0682948 
v 0.163243 0.202117 0.0690606 
v 0.163243 0.203292 0.0686331 
v 0.163243 0.203013 0.0678673 
vn -1 0 0 
vn -1 0 0 
vn -1 0 0 
vn -1 0 0 
f 1//1 2//2 3//3 
f 3//3 4//4 1//1 
o mesh8270
v 0.163643 0.202254 0.0694365 
v 0.163643 0.203428 0.069009 
v 0.163601 0.203428 0.0690069 
v 0.163601 0.202253 0.0694345 
v 0.16356 0.203425 0.0690008 
v 0.16356 0.202251 0.0694283 
v 0.16352 0.203422 0.0689906 
v 0.16352 0.202247 0.0694181 
v 0.163481 0.203417 0.0689765 
v 0.163481 0.202242 0.069404 
v 0.163443 0.20341 0.0689586 
v 0.163443 0.202235 0.0693862 
v 0.163408 0.203402 0.0689372 
v 0.163408 0.202228 0.0693647 
v 0.163376 0.203393 0.0689124 
v 0.163376 0.202219 0.06934 
v 0.163346 0.203383 0.0688846 
v 0.163346 0.202209 0.0693121 
v 0.16332 0.203372 0.068854 
v 0.16332 0.202197 0.0692816 
v 0.163297 0.20336 0.068821 
v 0.163297 0.202185 0.0692486 
v 0.163278 0.203347 0.068786 
v 0.163278 0.202173 0.0692135 
v 0.163263 0.203334 0.0687493 
v 0.163263 0.202159 0.0691768 
v 0.163252 0.20332 0.0687113 
v 0.163252 0.202145 0.0691388 
v 0.163245 0.203306 0.0686724 
v 0.163245 0.202131 0.0690999 
v 0.163243 0.203292 0.0686331 
v 0.163243 0.202117 0.0690606 
vn 2.65611e-16 0.34202 0.939693 
vn 2.65611e-16 0.34202 0.939693 
vn -0.104528 0.340147 0.934545 
vn -0.104528 0.340147 0.934545 
vn -0.207912 0.334546 0.919158 
vn -0.207912 0.334546 0.919158 
vn -0.309017 0.32528 0.893701 
vn -0.309017 0.32528 0.893701 
vn -0.406737 0.312451 0.858452 
vn -0.406737 0.312451 0.858452 
vn -0.5 0.296198 0.813798 
vn -0.5 0.296198 0.813798 
vn -0.587785 0.2767 0.760227 
vn -0.587785 0.2767 0.760227 
vn -0.669131 0.25417 0.698328 
vn -0.669131 0.25417 0.698328 
vn -0.743145 0.228856 0.628777 
vn -0.743145 0.228856 0.628777 
vn -0.809017 0.201034 0.552337 
vn -0.809017 0.201034 0.552337 
vn -0.866025 0.17101 0.469846 
vn -0.866025 0.17101 0.469846 
vn -0.913545 0.139112 0.382207 
vn -0.913545 0.139112 0.382207 
vn -0.951057 0.10569 0.290381 
vn -0.951057 0.10569 0.290381 
vn -0.978148 0.07111 0.195373 
vn -0.978148 0.07111 0.195373 
vn -0.994522 0.0357508 0.0982246 
vn -0.994522 0.0357508 0.0982246 
vn -1 1.31612e-10 3.61602e-10 
vn -1 1.31612e-10 3.61602e-10 
f 5//5 6//6 7//7 
f 8//8 7//7 9//9 
f 10//10 9//9 11//11 
f 12//12 11//11 13//13 
f 14//14 13//13 15//15 
f 16//16 15//15 17//17 
f 18//18 17//17 19//19 
f 20//20 19//19 21//21 
f 22//22 21//21 23//23 
f 24//24 23//23 25//25 
f 26//26 25//25 27//27 
f 28//28 27//27 29//29 
f 30//30 29//29 31//31 
f 32//32 31//31 33//33 
f 34//34 33//33 35//35 
f 35//35 36//36 34//34 
f 33//33 34//34 32//32 
f 31//31 32//32 30//30 
f 29//29 30//30 28//28 
f 27//27 28//28 26//26 
f 25//25 26//26 24//24 
f 23//23 24//24 22//22 
f 21//21 22//22 20//20 
f 19//19 20//20 18//18 
f 17//17 18//18 16//16 
f 15//15 16//16 14//14 
f 13//13 14//14 12//12 
f 11//11 12//12 10//10 
f 9//9 10//10 8//8 
f 7//7 8//8 5//5 
o mesh8271
v 0.163873 0.203428 0.069009 
v 0.163643 0.203428 0.069009 
v 0.163643 0.202254 0.0694365 
v 0.163873 0.202254 0.0694365 
vn 0 0.34202 0.939693 
vn 0 0.34202 0.939693 
vn 0 0.34202 0.939693 
vn 0 0.34202 0.939693 
f 37//37 38//38 39//39 
f 39//39 40//40 37//37 
o mesh8272
v 0.164273 0.202117 0.0690606 
v 0.164273 0.203292 0.0686331 
v 0.164271 0.203306 0.0686724 
v 0.164271 0.202131 0.0690999 
v 0.164264 0.20332 0.0687113 
v 0.164264 0.202145 0.0691388 
v 0.164254 0.203334 0.0687493 
v 0.164254 0.202159 0.0691768 
v 0.164239 0.203347 0.068786 
v 0.164239 0.202173 0.0692135 
v 0.16422 0.20336 0.068821 
v 0.16422 0.202185 0.0692486 
v 0.164197 0.203372 0.068854 
v 0.164197 0.202197 0.0692816 
v 0.16417 0.203383 0.0688846 
v 0.16417 0.202209 0.0693121 
v 0.164141 0.203393 0.0689124 
v 0.164141 0.202219 0.06934 
v 0.164108 0.203402 0.0689372 
v 0.164108 0.202228 0.0693647 
v 0.164073 0.20341 0.0689586 
v 0.164073 0.202235 0.0693862 
v 0.164036 0.203417 0.0689765 
v 0.164036 0.202242 0.069404 
v 0.163997 0.203422 0.0689906 
v 0.163997 0.202247 0.0694181 
v 0.163956 0.203425 0.0690008 
v 0.163956 0.202251 0.0694283 
v 0.163915 0.203428 0.0690069 
v 0.163915 0.202253 0.0694345 
v 0.163873 0.203428 0.069009 
v 0.163873 0.202254 0.0694365 
vn 1 8.77947e-13 2.41214e-12 
vn 1 8.77947e-13 2.41214e-12 
vn 0.994522 0.0357508 0.0982246 
vn 0.994522 0.0357508 0.0982246 
vn 0.978148 0.07111 0.195373 
vn 0.978148 0.07111 0.195373 
vn 0.951057 0.10569 0.290381 
vn 0.951057 0.10569 0.290381 
vn 0.913545 0.139112 0.382207 
vn 0.913545 0.139112 0.382207 
vn 0.866025 0.17101 0.469846 
vn 0.866025 0.17101 0.469846 
vn 0.809017 0.201034 0.552337 
vn 0.809017 0.201034 0.552337 
vn 0.743145 0.228856 0.628777 
vn 0.743145 0.228856 0.628777 
vn 0.669131 0.25417 0.698328 
vn 0.669131 0.25417 0.698328 
vn 0.587785 0.2767 0.760227 
vn 0.587785 0.2767 0.760227 
vn 0.5 0.296198 0.813798 
vn 0.5 0.296198 0.813798 
vn 0.406737 0.312451 0.858452 
vn 0.406737 0.312451 0.858452 
vn 0.309017 0.32528 0.893701 
vn 0.309017 0.32528 0.893701 
vn 0.207912 0.334546 0.919158 
vn 0.207912 0.334546 0.919158 
vn 0.104528 0.340147 0.934545 
vn 0.104528 0.340147 0.934545 
vn -4.10019e-10 0.34202 0.939693 
vn -4.10019e-10 0.34202 0.939693 
f 41//41 42//42 43//43 
f 44//44 43//43 45//45 
f 46//46 45//45 47//47 
f 48//48 47//47 49//49 
f 50//50 49//49 51//51 
f 52//52 51//51 53//53 
f 54//54 53//53 55//55 
f 56//56 55//55 57//57 
f 58//58 57//57 59//59 
f 60//60 59//59 61//61 
f 62//62 61//61 63//63 
f 64//64 63//63 65//65 
f 66//66 65//65 67//67 
f 68//68 67//67 69//69 
f 70//70 69//69 71//71 
f 71//71 72//72 70//70 
f 69//69 70//70 68//68 
f 67//67 68//68 66//66 
f 65//65 66//66 64//64 
f 63//63 64//64 62//62 
f 61//61 62//62 60//60 
f 59//59 60//60 58//58 
f 57//57 58//58 56//56 
f 55//55 56//56 54//54 
f 53//53 54//54 52//52 
f 51//51 52//52 50//50 
f 49//49 50//50 48//48 
f 47//47 48//48 46//46 
f 45//45 46//46 44//44 
f 43//43 44//44 41//41 
o mesh8273
v 0.163243 0.203013 0.0678673 
v 0.163493 0.203013 0.0678673 
v 0.163493 0.201838 0.0682948 
v 0.163243 0.201838 0.0682948 
vn 0 -0.34202 -0.939693 
vn 0 -0.34202 -0.939693 
vn 0 -0.34202 -0.939693 
vn 0 -0.34202 -0.939693 
f 73//73 74//74 75//75 
f 75//75 76//76 73//73 
o mesh8274
v 0.163493 0.203013 0.0678673 
v 0.163493 0.203292 0.0686331 
v 0.163493 0.202117 0.0690606 
v 0.163493 0.201838 0.0682948 
vn 1 0 0 
vn 1 0 0 
vn 1 0 0 
vn 1 0 0 
f 77//77 78//78 79//79 
f 79//79 80//80 77//77 
o mesh8275
v 0.163628 0.203343 0.0687733 
v 0.163643 0.203343 0.0687741 
v 0.163643 0.202168 0.0692016 
v 0.163612 0.203342 0.068771 
v 0.163628 0.202168 0.0692008 
v 0.163597 0.20334 0.0687672 
v 0.163612 0.202167 0.0691985 
v 0.163582 0.203338 0.0687619 
v 0.163597 0.202166 0.0691947 
v 0.163568 0.203336 0.0687552 
v 0.163582 0.202164 0.0691894 
v 0.163555 0.203333 0.0687471 
v 0.163568 0.202161 0.0691827 
v 0.163543 0.20333 0.0687379 
v 0.163555 0.202158 0.0691747 
v 0.163532 0.203326 0.0687274 
v 0.163543 0.202155 0.0691654 
v 0.163522 0.203322 0.068716 
v 0.163532 0.202151 0.069155 
v 0.163513 0.203317 0.0687036 
v 0.163522 0.202147 0.0691435 
v 0.163506 0.203312 0.0686904 
v 0.163513 0.202143 0.0691311 
v 0.163501 0.203307 0.0686767 
v 0.163506 0.202138 0.069118 
v 0.163496 0.203302 0.0686624 
v 0.163501 0.202133 0.0691042 
v 0.163494 0.203297 0.0686478 
v 0.163496 0.202128 0.0690899 
v 0.163493 0.203292 0.0686331 
v 0.163494 0.202122 0.0690754 
v 0.163493 0.202117 0.0690606 
vn 0.104528 -0.340147 -0.934545 
vn 2.44929e-16 -0.34202 -0.939693 
vn 2.44929e-16 -0.34202 -0.939693 
vn 0.207912 -0.334546 -0.919158 
vn 0.104528 -0.340147 -0.934545 
vn 0.309017 -0.32528 -0.893701 
vn 0.207912 -0.334546 -0.919158 
vn 0.406737 -0.312451 -0.858452 
vn 0.309017 -0.32528 -0.893701 
vn 0.5 -0.296198 -0.813798 
vn 0.406737 -0.312451 -0.858452 
vn 0.587785 -0.2767 -0.760227 
vn 0.5 -0.296198 -0.813798 
vn 0.669131 -0.25417 -0.698328 
vn 0.587785 -0.2767 -0.760227 
vn 0.743145 -0.228856 -0.628777 
vn 0.669131 -0.25417 -0.698328 
vn 0.809017 -0.201034 -0.552337 
vn 0.743145 -0.228856 -0.628777 
vn 0.866025 -0.17101 -0.469846 
vn 0.809017 -0.201034 -0.552337 
vn 0.913545 -0.139112 -0.382207 
vn 0.866025 -0.17101 -0.469846 
vn 0.951057 -0.10569 -0.290381 
vn 0.913545 -0.139112 -0.382207 
vn 0.978148 -0.07111 -0.195373 
vn 0.951057 -0.10569 -0.290381 
vn 0.994522 -0.0357508 -0.0982246 
vn 0.978148 -0.07111 -0.195373 
vn 1 -3.62245e-12 -9.95261e-12 
vn 0.994522 -0.0357508 -0.0982246 
vn 1 -3.62245e-12 -9.95261e-12 
f 81//81 82//82 83//83 
f 84//84 81//81 85//85 
f 86//86 84//84 87//87 
f 88//88 86//86 89//89 
f 90//90 88//88 91//91 
f 92//92 90//90 93//93 
f 94//94 92//92 95//95 
f 96//96 94//94 97//97 
f 98//98 96//96 99//99 
f 100//100 98//98 101//101 
f 102//102 100//100 103//103 
f 104//104 102//102 105//105 
f 106//106 104//104 107//107 
f 108//108 106//106 109//109 
f 110//110 108//108 111//111 
f 111//111 112//112 110//110 
f 109//109 111//111 108//108 
f 107//107 109//109 106//106 
f 105//105 107//107 104//104 
f 103//103 105//105 102//102 
f 101//101 103//103 100//100 
f 99//99 101//101 98//98 
f 97//97 99//99 96//96 
f 95//95 97//97 94//94 
f 93//93 95//95 92//92 
f 91//91 93//93 90//90 
f 89//89 91//91 88//88 
f 87//87 89//89 86//86 
f 85//85 87//87 84//84 
f 83//83 85//85 81//81 
o mesh8276
v 0.163873 0.202168 0.0692016 
v 0.163643 0.202168 0.0692016 
v 0.163643 0.203343 0.0687741 
v 0.163873 0.203343 0.0687741 
vn 0 -0.34202 -0.939693 
vn 0 -0.34202 -0.939693 
vn 0 -0.34202 -0.939693 
vn 0 -0.34202 -0.939693 
f 113//113 114//114 115//115 
f 115//115 116//116 113//113 
o mesh8277
v 0.164022 0.203297 0.0686478 
v 0.164023 0.203292 0.0686331 
v 0.164023 0.202117 0.0690606 
v 0.16402 0.203302 0.0686624 
v 0.164022 0.202122 0.0690754 
v 0.164016 0.203307 0.0686767 
v 0.16402 0.202128 0.0690899 
v 0.16401 0.203312 0.0686904 
v 0.164016 0.202133 0.0691042 
v 0.164003 0.203317 0.0687036 
v 0.16401 0.202138 0.069118 
v 0.163995 0.203322 0.068716 
v 0.164003 0.202143 0.0691311 
v 0.163985 0.203326 0.0687274 
v 0.163995 0.202147 0.0691435 
v 0.163974 0.20333 0.0687379 
v 0.163985 0.202151 0.069155 
v 0.163961 0.203333 0.0687471 
v 0.163974 0.202155 0.0691654 
v 0.163948 0.203336 0.0687552 
v 0.163961 0.202158 0.0691747 
v 0.163934 0.203338 0.0687619 
v 0.163948 0.202161 0.0691827 
v 0.16392 0.20334 0.0687672 
v 0.163934 0.202164 0.0691894 
v 0.163904 0.203342 0.068771 
v 0.16392 0.202166 0.0691947 
v 0.163889 0.203343 0.0687733 
v 0.163904 0.202167 0.0691985 
v 0.163873 0.203343 0.0687741 
v 0.163889 0.202168 0.0692008 
v 0.163873 0.202168 0.0692016 
vn -0.994522 -0.0357508 -0.0982246 
vn -1 -1.77665e-12 -4.8813e-12 
vn -1 -1.77665e-12 -4.8813e-12 
vn -0.978148 -0.07111 -0.195373 
vn -0.994522 -0.0357508 -0.0982246 
vn -0.951057 -0.10569 -0.290381 
vn -0.978148 -0.07111 -0.195373 
vn -0.913545 -0.139112 -0.382207 
vn -0.951057 -0.10569 -0.290381 
vn -0.866025 -0.17101 -0.469846 
vn -0.913545 -0.139112 -0.382207 
vn -0.809017 -0.201034 -0.552337 
vn -0.866025 -0.17101 -0.469846 
vn -0.743145 -0.228856 -0.628777 
vn -0.809017 -0.201034 -0.552337 
vn -0.669131 -0.25417 -0.698328 
vn -0.743145 -0.228856 -0.628777 
vn -0.587785 -0.2767 -0.760227 
vn -0.669131 -0.25417 -0.698328 
vn -0.5 -0.296198 -0.813798 
vn -0.587785 -0.2767 -0.760227 
vn -0.406737 -0.312451 -0.858452 
vn -0.5 -0.296198 -0.813798 
vn -0.309017 -0.32528 -0.893701 
vn -0.406737 -0.312451 -0.858452 
vn -0.207912 -0.334546 -0.919158 
vn -0.309017 -0.32528 -0.893701 
vn -0.104528 -0.340147 -0.934545 
vn -0.207912 -0.334546 -0.919158 
vn 0 -0.34202 -0.939693 
vn -0.104528 -0.340147 -0.934545 
vn 0 -0.34202 -0.939693 
f 117//117 118//118 119//119 
f 120//120 117//117 121//121 
f 122//122 120//120 123//123 
f 124//124 122//122 125//125 
f 126//126 124//124 127//127 
f 128//128 126//126 129//129 
f 130//130 128//128 131//131 
f 132//132 130//130 133//133 
f 134//134 132//132 135//135 
f 136//136 134//134 137//137 
f 138//138 136//136 139//139 
f 140//140 138//138 141//141 
f 142//142 140//140 143//143 
f 144//144 142//142 145//145 
f 146//146 144//144 147//147 
f 147//147 148//148 146//146 
f 145//145 147//147 144//144 
f 143//143 145//145 142//142 
f 141//141 143//143 140//140 
f 139//139 141//141 138//138 
f 137//137 139//139 136//136 
f 135//135 137//137 134//134 
f 133//133 135//135 132//132 
f 131//131 133//133 130//130 
f 129//129 131//131 128//128 
f 127//127 129//129 126//126 
f 125//125 127//127 124//124 
f 123//123 125//125 122//122 
f 121//121 123//123 120//120 
f 119//119 121//121 117//117 
o mesh8278
v 0.164073 0.202235 0.0693862 
v 0.164036 0.202242 0.069404 
v 0.163934 0.202164 0.0691894 
v 0.163997 0.202247 0.0694181 
v 0.16392 0.202166 0.0691947 
v 0.164264 0.202145 0.0691388 
v 0.164254 0.202159 0.0691768 
v 0.164016 0.202133 0.0691042 
v 0.164239 0.202173 0.0692135 
v 0.16401 0.202138 0.069118 
v 0.16417 0.202209 0.0693121 
v 0.164141 0.202219 0.06934 
v 0.163974 0.202155 0.0691654 
v 0.164108 0.202228 0.0693647 
v 0.163961 0.202158 0.0691747 
v 0.163948 0.202161 0.0691827 
v 0.163408 0.202228 0.0693647 
v 0.163555 0.202158 0.0691747 
v 0.163568 0.202161 0.0691827 
v 0.163376 0.202219 0.06934 
v 0.163543 0.202155 0.0691654 
v 0.163346 0.202209 0.0693121 
v 0.163532 0.202151 0.069155 
v 0.16332 0.202197 0.0692816 
v 0.163522 0.202147 0.0691435 
v 0.16422 0.202185 0.0692486 
v 0.164003 0.202143 0.0691311 
v 0.164197 0.202197 0.0692816 
v 0.163995 0.202147 0.0691435 
v 0.163985 0.202151 0.069155 
v 0.163956 0.202251 0.0694283 
v 0.163904 0.202167 0.0691985 
v 0.163915 0.202253 0.0694345 
v 0.163889 0.202168 0.0692008 
v 0.163481 0.202242 0.069404 
v 0.163582 0.202164 0.0691894 
v 0.163597 0.202166 0.0691947 
v 0.163443 0.202235 0.0693862 
v 0.163252 0.202145 0.0691388 
v 0.163496 0.202128 0.0690899 
v 0.163501 0.202133 0.0691042 
v 0.163245 0.202131 0.0690999 
v 0.163494 0.202122 0.0690754 
v 0.164023 0.202117 0.0690606 
v 0.164023 0.202086 0.0689743 
v 0.164273 0.202093 0.0689949 
v 0.164273 0.202117 0.0690606 
v 0.164271 0.202131 0.0690999 
v 0.164022 0.202122 0.0690754 
v 0.16356 0.202251 0.0694283 
v 0.163612 0.202167 0.0691985 
v 0.163628 0.202168 0.0692008 
v 0.16352 0.202247 0.0694181 
v 0.163297 0.202185 0.0692486 
v 0.163513 0.202143 0.0691311 
v 0.163278 0.202173 0.0692135 
v 0.163506 0.202138 0.069118 
v 0.163263 0.202159 0.0691768 
v 0.16402 0.202128 0.0690899 
v 0.163643 0.202254 0.0694365 
v 0.163643 0.202168 0.0692016 
v 0.163873 0.202168 0.0692016 
v 0.163601 0.202253 0.0694345 
v 0.163873 0.202254 0.0694365 
v 0.163243 0.202117 0.0690606 
v 0.163493 0.202117 0.0690606 
v 0.163243 0.201838 0.0682948 
v 0.163493 0.201838 0.0682948 
vn 0 -0.939693 0.34202 
vn 0 -0.939693 0.34202 
vn 0 -0.939693 0.34202 
vn 0 -0.939693 0.34202 
vn 0 -0.939693 0.34202 
vn 0 -0.939693 0.34202 
vn 0 -0.939693 0.34202 
vn 0 -0.939693 0.34202 
vn 0 -0.939693 0.34202 
vn 0 -0.939693 0.34202 
vn 0 -0.939693 0.34202 
vn 0 -0.939693 0.34202 
vn 0 -0.939693 0.34202 
vn 0 -0.939693 0.34202 
vn 0 -0.939693 0.34202 
vn 0 -0.939693 0.34202 
vn 0 -0.939693 0.34202 
vn 0 -0.939693 0.34202 
vn 0 -0.939693 0.34202 
vn 0 -0.939693 0.34202 
vn 0 -0.939693 0.34202 
vn 0 -0.939693 0.34202 
vn 0 -0.939693 0.34202 
vn 0 -0.939693 0.34202 
vn 0 -0.939693 0.34202 
vn 0 -0.939693 0.34202 
vn 0 -0.939693 0.34202 
vn 0 -0.939693 0.34202 
vn 0 -0.939693 0.34202 
vn 0 -0.939693 0.34202 
vn 0 -0.939693 0.34202 
vn 0 -0.939693 0.34202 
vn 0 -0.939693 0.34202 
vn 0 -0.939693 0.34202 
vn 0 -0.939693 0.34202 
vn 0 -0.939693 0.34202 
vn 0 -0.939693 0.34202 
vn 0 -0.939693 0.34202 
vn 0 -0.939693 0.34202 
vn 0 -0.939693 0.34202 
vn 0 -0.939693 0.34202 
vn 0 -0.939693 0.34202 
vn 0 -0.939693 0.34202 
vn 0 -0.939693 0.34202 
vn 0 -0.939693 0.34202 
vn 0 -0.939693 0.34202 
vn 0 -0.939693 0.34202 
vn 0 -0.939693 0.34202 
vn 0 -0.939693 0.34202 
vn 0 -0.939693 0.34202 
vn 0 -0.939693 0.34202 
vn 0 -0.939693 0.34202 
vn 0 -0.939693 0.34202 
vn 0 -0.939693 0.34202 
vn 0 -0.939693 0.34202 
vn 0 -0.939693 0.34202 
vn 0 -0.939693 0.34202 
vn 0 -0.939693 0.34202 
vn 0 -0.939693 0.34202 
vn 0 -0.939693 0.34202 
vn 0 -0.939693 0.34202 
vn 0 -0.939693 0.34202 
vn 0 -0.939693 0.34202 
vn 0 -0.939693 0.34202 
vn 0 -0.939693 0.34202 
vn 0 -0.939693 0.34202 
vn 0 -0.939693 0.34202 
vn 0 -0.939693 0.34202 
f 149//149 150//150 151//151 
f 150//150 152//152 153//153 
f 154//154 155//155 156//156 
f 155//155 157//157 158//158 
f 159//159 160//160 161//161 
f 160//160 162//162 163//163 
f 162//162 149//149 164//164 
f 153//153 151//151 150//150 
f 165//165 166//166 167//167 
f 168//168 169//169 166//166 
f 170//170 171//171 169//169 
f 172//172 173//173 171//171 
f 158//158 156//156 155//155 
f 157//157 174//174 175//175 
f 174//174 176//176 177//177 
f 176//176 159//159 178//178 
f 163//163 161//161 160//160 
f 151//151 164//164 149//149 
f 152//152 179//179 180//180 
f 179//179 181//181 182//182 
f 183//183 184//184 185//185 
f 186//186 167//167 184//184 
f 166//166 165//165 168//168 
f 171//171 170//170 172//172 
f 187//187 188//188 189//189 
f 190//190 191//191 188//188 
f 192//192 193//193 194//194 
f 195//195 196//196 197//197 
f 175//175 158//158 157//157 
f 178//178 177//177 176//176 
f 164//164 163//163 162//162 
f 182//182 180//180 179//179 
f 198//198 199//199 200//200 
f 201//201 185//185 199//199 
f 184//184 183//183 186//186 
f 169//169 168//168 170//170 
f 202//202 203//203 173//173 
f 204//204 205//205 203//203 
f 206//206 189//189 205//205 
f 188//188 187//187 190//190 
f 197//197 192//192 195//195 
f 196//196 154//154 207//207 
f 177//177 175//175 174//174 
f 180//180 153//153 152//152 
f 208//208 209//209 210//210 
f 208//208 211//211 200//200 
f 199//199 198//198 201//201 
f 167//167 186//186 165//165 
f 203//203 202//202 204//204 
f 189//189 206//206 187//187 
f 207//207 197//197 196//196 
f 161//161 178//178 159//159 
f 212//212 210//210 182//182 
f 200//200 209//209 208//208 
f 185//185 201//201 183//183 
f 205//205 204//204 206//206 
f 213//213 214//214 191//191 
f 215//215 216//216 214//214 
f 156//156 207//207 154//154 
f 210//210 212//212 208//208 
f 173//173 172//172 202//202 
f 214//214 213//213 215//215 
f 182//182 181//181 212//212 
f 191//191 190//190 213//213 
f 200//200 211//211 198//198 
f 194//194 195//195 192//192 
o mesh8279
v 0.163376 0.203393 0.0689124 
v 0.163408 0.203402 0.0689372 
v 0.163555 0.203333 0.0687471 
v 0.163443 0.20341 0.0689586 
v 0.163568 0.203336 0.0687552 
v 0.16352 0.203422 0.0689906 
v 0.16356 0.203425 0.0690008 
v 0.163612 0.203342 0.068771 
v 0.163601 0.203428 0.0690069 
v 0.163628 0.203343 0.0687733 
v 0.164108 0.203402 0.0689372 
v 0.163961 0.203333 0.0687471 
v 0.163948 0.203336 0.0687552 
v 0.164141 0.203393 0.0689124 
v 0.163974 0.20333 0.0687379 
v 0.163245 0.203306 0.0686724 
v 0.163252 0.20332 0.0687113 
v 0.163496 0.203302 0.0686624 
v 0.163263 0.203334 0.0687493 
v 0.163501 0.203307 0.0686767 
v 0.163481 0.203417 0.0689765 
v 0.163582 0.203338 0.0687619 
v 0.163597 0.20334 0.0687672 
v 0.163956 0.203425 0.0690008 
v 0.163904 0.203342 0.068771 
v 0.163889 0.203343 0.0687733 
v 0.163997 0.203422 0.0689906 
v 0.16392 0.20334 0.0687672 
v 0.164036 0.203417 0.0689765 
v 0.163934 0.203338 0.0687619 
v 0.164073 0.20341 0.0689586 
v 0.16417 0.203383 0.0688846 
v 0.163985 0.203326 0.0687274 
v 0.164197 0.203372 0.068854 
v 0.163995 0.203322 0.068716 
v 0.16422 0.20336 0.068821 
v 0.164003 0.203317 0.0687036 
v 0.163278 0.203347 0.068786 
v 0.163506 0.203312 0.0686904 
v 0.163297 0.20336 0.068821 
v 0.163513 0.203317 0.0687036 
v 0.16332 0.203372 0.068854 
v 0.163522 0.203322 0.068716 
v 0.163346 0.203383 0.0688846 
v 0.163532 0.203326 0.0687274 
v 0.163543 0.20333 0.0687379 
v 0.164254 0.203334 0.0687493 
v 0.164016 0.203307 0.0686767 
v 0.16401 0.203312 0.0686904 
v 0.164264 0.20332 0.0687113 
v 0.16402 0.203302 0.0686624 
v 0.163873 0.203428 0.069009 
v 0.163873 0.203343 0.0687741 
v 0.163643 0.203343 0.0687741 
v 0.163915 0.203428 0.0690069 
v 0.164239 0.203347 0.068786 
v 0.164273 0.203292 0.0686331 
v 0.164023 0.203292 0.0686331 
v 0.164022 0.203297 0.0686478 
v 0.164273 0.203268 0.0685673 
v 0.163643 0.203428 0.069009 
v 0.164271 0.203306 0.0686724 
v 0.164023 0.20326 0.0685468 
v 0.163243 0.203013 0.0678673 
v 0.163243 0.203292 0.0686331 
v 0.163493 0.203292 0.0686331 
v 0.163494 0.203297 0.0686478 
v 0.163493 0.203013 0.0678673 
vn 0 0.939693 -0.34202 
vn 0 0.939693 -0.34202 
vn 0 0.939693 -0.34202 
vn 0 0.939693 -0.34202 
vn 0 0.939693 -0.34202 
vn 0 0.939693 -0.34202 
vn 0 0.939693 -0.34202 
vn 0 0.939693 -0.34202 
vn 0 0.939693 -0.34202 
vn 0 0.939693 -0.34202 
vn 0 0.939693 -0.34202 
vn 0 0.939693 -0.34202 
vn 0 0.939693 -0.34202 
vn 0 0.939693 -0.34202 
vn 0 0.939693 -0.34202 
vn 0 0.939693 -0.34202 
vn 0 0.939693 -0.34202 
vn 0 0.939693 -0.34202 
vn 0 0.939693 -0.34202 
vn 0 0.939693 -0.34202 
vn 0 0.939693 -0.34202 
vn 0 0.939693 -0.34202 
vn 0 0.939693 -0.34202 
vn 0 0.939693 -0.34202 
vn 0 0.939693 -0.34202 
vn 0 0.939693 -0.34202 
vn 0 0.939693 -0.34202 
vn 0 0.939693 -0.34202 
vn 0 0.939693 -0.34202 
vn 0 0.939693 -0.34202 
vn 0 0.939693 -0.34202 
vn 0 0.939693 -0.34202 
vn 0 0.939693 -0.34202 
vn 0 0.939693 -0.34202 
vn 0 0.939693 -0.34202 
vn 0 0.939693 -0.34202 
vn 0 0.939693 -0.34202 
vn 0 0.939693 -0.34202 
vn 0 0.939693 -0.34202 
vn 0 0.939693 -0.34202 
vn 0 0.939693 -0.34202 
vn 0 0.939693 -0.34202 
vn 0 0.939693 -0.34202 
vn 0 0.939693 -0.34202 
vn 0 0.939693 -0.34202 
vn 0 0.939693 -0.34202 
vn 0 0.939693 -0.34202 
vn 0 0.939693 -0.34202 
vn 0 0.939693 -0.34202 
vn 0 0.939693 -0.34202 
vn 0 0.939693 -0.34202 
vn 0 0.939693 -0.34202 
vn 0 0.939693 -0.34202 
vn 0 0.939693 -0.34202 
vn 0 0.939693 -0.34202 
vn 0 0.939693 -0.34202 
vn 0 0.939693 -0.34202 
vn 0 0.939693 -0.34202 
vn 0 0.939693 -0.34202 
vn 0 0.939693 -0.34202 
vn 0 0.939693 -0.34202 
vn 0 0.939693 -0.34202 
vn 0 0.939693 -0.34202 
vn 0 0.939693 -0.34202 
vn 0 0.939693 -0.34202 
vn 0 0.939693 -0.34202 
vn 0 0.939693 -0.34202 
vn 0 0.939693 -0.34202 
f 217//217 218//218 219//219 
f 218//218 220//220 221//221 
f 222//222 223//223 224//224 
f 223//223 225//225 226//226 
f 227//227 228//228 229//229 
f 230//230 231//231 228//228 
f 232//232 233//233 234//234 
f 233//233 235//235 236//236 
f 221//221 219//219 218//218 
f 220//220 237//237 238//238 
f 237//237 222//222 239//239 
f 226//226 224//224 223//223 
f 240//240 241//241 242//242 
f 243//243 244//244 241//241 
f 245//245 246//246 244//244 
f 247//247 229//229 246//246 
f 228//228 227//227 230//230 
f 248//248 249//249 231//231 
f 250//250 251//251 249//249 
f 252//252 253//253 251//251 
f 236//236 234//234 233//233 
f 235//235 254//254 255//255 
f 254//254 256//256 257//257 
f 256//256 258//258 259//259 
f 258//258 260//260 261//261 
f 260//260 217//217 262//262 
f 238//238 221//221 220//220 
f 224//224 239//239 222//222 
f 241//241 240//240 243//243 
f 246//246 245//245 247//247 
f 231//231 230//230 248//248 
f 251//251 250//250 252//252 
f 263//263 264//264 265//265 
f 266//266 267//267 264//264 
f 255//255 236//236 235//235 
f 259//259 257//257 256//256 
f 262//262 261//261 260//260 
f 239//239 238//238 237//237 
f 268//268 269//269 270//270 
f 268//268 271//271 242//242 
f 244//244 243//243 245//245 
f 249//249 248//248 250//250 
f 272//272 265//265 253//253 
f 264//264 263//263 266//266 
f 273//273 274//274 275//275 
f 274//274 273//273 276//276 
f 257//257 255//255 254//254 
f 219//219 262//262 217//217 
f 277//277 270//270 226//226 
f 242//242 269//269 268//268 
f 229//229 247//247 227//227 
f 265//265 272//272 263//263 
f 278//278 275//275 267//267 
f 276//276 279//279 274//274 
f 261//261 259//259 258//258 
f 270//270 277//277 268//268 
f 253//253 252//252 272//272 
f 275//275 278//278 273//273 
f 280//280 281//281 282//282 
f 281//281 232//232 283//283 
f 226//226 225//225 277//277 
f 267//267 266//266 278//278 
f 283//283 282//282 281//281 
f 242//242 271//271 240//240 
f 234//234 283//283 232//232 
f 282//282 284//284 280//280 
o mesh8280
v 0.164023 0.203292 0.0686331 
v 0.164023 0.20326 0.0685468 
v 0.164023 0.202086 0.0689743 
v 0.164023 0.202117 0.0690606 
vn -1 0 0 
vn -1 0 0 
vn -1 0 0 
vn -1 0 0 
f 285//285 286//286 287//287 
f 287//287 288//288 285//285 
o mesh8281
v 0.164273 0.203292 0.0686331 
v 0.164273 0.202117 0.0690606 
v 0.164273 0.202093 0.0689949 
v 0.164273 0.203268 0.0685673 
vn 1 0 0 
vn 1 0 0 
vn 1 0 0 
vn 1 0 0 
f 289//289 290//290 291//291 
f 291//291 292//292 289//289 
usemtl 0.372549_0.372549_0.372549_0.000000_0.000000
o mesh8282
v 0.163523 0.20379 0.0683075 
v 0.163523 0.201526 0.0691314 
v 0.164023 0.202086 0.0689743 
v 0.164273 0.201487 0.0692155 
v 0.164273 0.202093 0.0689949 
v 0.164273 0.203874 0.0683467 
v 0.164023 0.20326 0.0685468 
v 0.164273 0.203268 0.0685673 
vn -0.0871557 0.340719 0.936117 
vn -0.0871557 0.340719 0.936117 
vn -0.0871557 0.340719 0.936117 
vn -0.0871557 0.340719 0.936117 
vn -0.0871557 0.340719 0.936117 
vn -0.0871557 0.340719 0.936117 
vn -0.0871557 0.340719 0.936117 
vn -0.0871557 0.340719 0.936117 
f 293//293 294//294 295//295 
f 296//296 297//297 295//295 
f 298//298 293//293 299//299 
f 295//295 294//294 296//296 
f 295//295 299//299 293//293 
f 299//299 300//300 298//298 
o mesh8283
v 0.163523 0.20379 0.0683075 
v 0.163523 0.203472 0.0674342 
v 0.163523 0.201208 0.068258 
v 0.163523 0.201526 0.0691314 
vn -1 0 0 
vn -1 0 0 
vn -1 0 0 
vn -1 0 0 
f 301//301 302//302 303//303 
f 303//303 304//304 301//301 
o mesh8284
v 0.163523 0.201208 0.068258 
v 0.163523 0.203472 0.0674342 
v 0.163323 0.203455 0.0674402 
v 0.163323 0.201225 0.068252 
vn 0 0.34202 0.939693 
vn 0 0.34202 0.939693 
vn 0 0.34202 0.939693 
vn 0 0.34202 0.939693 
f 305//305 306//306 307//307 
f 307//307 308//308 305//305 
o mesh8285
v 0.163323 0.200541 0.0663727 
v 0.163323 0.201225 0.068252 
v 0.163323 0.203455 0.0674402 
v 0.163323 0.202771 0.0655608 
vn -1 0 0 
vn -1 0 0 
vn -1 0 0 
vn -1 0 0 
f 309//309 310//310 311//311 
f 311//311 312//312 309//309 
o mesh8286
v 0.163523 0.202788 0.0655548 
v 0.163523 0.200524 0.0663786 
v 0.163323 0.200541 0.0663727 
v 0.163323 0.202771 0.0655608 
vn 0 -0.34202 -0.939693 
vn 0 -0.34202 -0.939693 
vn 0 -0.34202 -0.939693 
vn 0 -0.34202 -0.939693 
f 313//313 314//314 315//315 
f 315//315 316//316 313//313 
o mesh8287
v 0.163523 0.202788 0.0655548 
v 0.163523 0.20247 0.0646815 
v 0.163523 0.200206 0.0655053 
v 0.163523 0.200524 0.0663786 
vn -1 0 0 
vn -1 0 0 
vn -1 0 0 
vn -1 0 0 
f 317//317 318//318 319//319 
f 319//319 320//320 317//317 
o mesh8288
v 0.163523 0.203472 0.0674342 
v 0.163523 0.202788 0.0655548 
v 0.163323 0.202771 0.0655608 
v 0.164273 0.202509 0.0645974 
v 0.163523 0.20247 0.0646815 
v 0.164273 0.203874 0.0683467 
v 0.163323 0.203455 0.0674402 
v 0.163523 0.20379 0.0683075 
vn -0.0871557 0.936117 -0.340719 
vn -0.0871557 0.936117 -0.340719 
vn -0.0871557 0.936117 -0.340719 
vn -0.0871557 0.936117 -0.340719 
vn -0.0871557 0.936117 -0.340719 
vn -0.0871557 0.936117 -0.340719 
vn -0.0871557 0.936117 -0.340719 
vn -0.0871557 0.936117 -0.340719 
f 321//321 322//322 323//323 
f 324//324 325//325 322//322 
f 326//326 324//324 321//321 
f 322//322 321//321 324//324 
f 323//323 327//327 321//321 
f 321//321 328//328 326//326 
o mesh8289
v 0.163323 0.201225 0.068252 
v 0.163323 0.200541 0.0663727 
v 0.163523 0.200524 0.0663786 
v 0.164273 0.201487 0.0692155 
v 0.163523 0.201526 0.0691314 
v 0.163523 0.201208 0.068258 
v 0.164273 0.200122 0.0654661 
v 0.163523 0.200206 0.0655053 
vn -0.0871557 -0.936117 0.340719 
vn -0.0871557 -0.936117 0.340719 
vn -0.0871557 -0.936117 0.340719 
vn -0.0871557 -0.936117 0.340719 
vn -0.0871557 -0.936117 0.340719 
vn -0.0871557 -0.936117 0.340719 
vn -0.0871557 -0.936117 0.340719 
vn -0.0871557 -0.936117 0.340719 
f 329//329 330//330 331//331 
f 332//332 333//333 334//334 
f 335//335 332//332 331//331 
f 334//334 331//331 332//332 
f 331//331 334//334 329//329 
f 331//331 336//336 335//335 
o mesh8290
v 0.165223 0.203767 0.0682971 
v 0.164273 0.203268 0.0685673 
v 0.164273 0.202093 0.0689949 
v 0.164273 0.203874 0.0683467 
v 0.165223 0.201537 0.0691089 
v 0.164273 0.201487 0.0692155 
vn 0.0871557 0.340719 0.936117 
vn 0.0871557 0.340719 0.936117 
vn 0.0871557 0.340719 0.936117 
vn 0.0871557 0.340719 0.936117 
vn 0.0871557 0.340719 0.936117 
vn 0.0871557 0.340719 0.936117 
f 337//337 338//338 339//339 
f 337//337 340//340 338//338 
f 339//339 341//341 337//337 
f 339//339 342//342 341//341 
o mesh8291
v 0.164273 0.202509 0.0645974 
v 0.164273 0.203874 0.0683467 
v 0.165223 0.203767 0.0682971 
v 0.165223 0.202459 0.0647039 
vn 0.0871557 0.936117 -0.340719 
vn 0.0871557 0.936117 -0.340719 
vn 0.0871557 0.936117 -0.340719 
vn 0.0871557 0.936117 -0.340719 
f 343//343 344//344 345//345 
f 345//345 346//346 343//343 
o mesh8292
v 0.165223 0.200229 0.0655158 
v 0.165223 0.202459 0.0647039 
v 0.165223 0.203767 0.0682971 
v 0.165223 0.201537 0.0691089 
vn 1 0 0 
vn 1 0 0 
vn 1 0 0 
vn 1 0 0 
f 347//347 348//348 349//349 
f 349//349 350//350 347//347 
o mesh8293
v 0.164273 0.201487 0.0692155 
v 0.164273 0.200122 0.0654661 
v 0.165223 0.200229 0.0655158 
v 0.165223 0.201537 0.0691089 
vn 0.0871557 -0.936117 0.340719 
vn 0.0871557 -0.936117 0.340719 
vn 0.0871557 -0.936117 0.340719 
vn 0.0871557 -0.936117 0.340719 
f 351//351 352//352 353//353 
f 353//353 354//354 351//351 
o mesh8294
v 0.165223 0.200229 0.0655158 
v 0.164273 0.200728 0.0652455 
v 0.164273 0.201903 0.064818 
v 0.164273 0.200122 0.0654661 
v 0.165223 0.202459 0.0647039 
v 0.164273 0.202509 0.0645974 
vn 0.0871557 -0.340719 -0.936117 
vn 0.0871557 -0.340719 -0.936117 
vn 0.0871557 -0.340719 -0.936117 
vn 0.0871557 -0.340719 -0.936117 
vn 0.0871557 -0.340719 -0.936117 
vn 0.0871557 -0.340719 -0.936117 
f 355//355 356//356 357//357 
f 355//355 358//358 356//356 
f 357//357 359//359 355//355 
f 357//357 360//360 359//359 
o mesh8295
v 0.164273 0.200122 0.0654661 
v 0.163523 0.200206 0.0655053 
v 0.164023 0.200736 0.065266 
v 0.163523 0.20247 0.0646815 
v 0.164023 0.20191 0.0648385 
v 0.164273 0.202509 0.0645974 
v 0.164273 0.201903 0.064818 
v 0.164273 0.200728 0.0652455 
vn -0.0871557 -0.340719 -0.936117 
vn -0.0871557 -0.340719 -0.936117 
vn -0.0871557 -0.340719 -0.936117 
vn -0.0871557 -0.340719 -0.936117 
vn -0.0871557 -0.340719 -0.936117 
vn -0.0871557 -0.340719 -0.936117 
vn -0.0871557 -0.340719 -0.936117 
vn -0.0871557 -0.340719 -0.936117 
f 361//361 362//362 363//363 
f 364//364 365//365 363//363 
f 363//363 362//362 364//364 
f 366//366 367//367 365//365 
f 365//365 364//364 366//366 
f 363//363 368//368 361//361 
usemtl 0.823529_0.823529_1.000000_0.000000_0.000000
o mesh8296
v 0.164273 0.200704 0.0651797 
v 0.164273 0.201879 0.0647522 
v 0.164273 0.201903 0.064818 
v 0.164273 0.200728 0.0652455 
vn 1 0 0 
vn 1 0 0 
vn 1 0 0 
vn 1 0 0 
f 369//369 370//370 371//371 
f 371//371 372//372 369//369 
o mesh8297
v 0.163873 0.200568 0.0648038 
v 0.163873 0.201742 0.0643763 
v 0.163915 0.201743 0.0643784 
v 0.163915 0.200568 0.0648059 
v 0.163956 0.201745 0.0643845 
v 0.163956 0.200571 0.064812 
v 0.163997 0.201749 0.0643947 
v 0.163997 0.200574 0.0648222 
v 0.164036 0.201754 0.0644088 
v 0.164036 0.200579 0.0648363 
v 0.164073 0.201761 0.0644267 
v 0.164073 0.200586 0.0648542 
v 0.164108 0.201768 0.0644481 
v 0.164108 0.200594 0.0648756 
v 0.164141 0.201777 0.0644728 
v 0.164141 0.200603 0.0649004 
v 0.16417 0.201788 0.0645007 
v 0.16417 0.200613 0.0649282 
v 0.164197 0.201799 0.0645312 
v 0.164197 0.200624 0.0649588 
v 0.16422 0.201811 0.0645642 
v 0.16422 0.200636 0.0649918 
v 0.164239 0.201823 0.0645993 
v 0.164239 0.200649 0.0650268 
v 0.164254 0.201837 0.064636 
v 0.164254 0.200662 0.0650636 
v 0.164264 0.201851 0.064674 
v 0.164264 0.200676 0.0651016 
v 0.164271 0.201865 0.0647129 
v 0.164271 0.20069 0.0651404 
v 0.164273 0.201879 0.0647522 
v 0.164273 0.200704 0.0651797 
vn 0 -0.34202 -0.939693 
vn 0 -0.34202 -0.939693 
vn 0.104528 -0.340147 -0.934545 
vn 0.104528 -0.340147 -0.934545 
vn 0.207912 -0.334546 -0.919158 
vn 0.207912 -0.334546 -0.919158 
vn 0.309017 -0.32528 -0.893701 
vn 0.309017 -0.32528 -0.893701 
vn 0.406737 -0.312451 -0.858452 
vn 0.406737 -0.312451 -0.858452 
vn 0.5 -0.296198 -0.813798 
vn 0.5 -0.296198 -0.813798 
vn 0.587785 -0.2767 -0.760227 
vn 0.587785 -0.2767 -0.760227 
vn 0.669131 -0.25417 -0.698328 
vn 0.669131 -0.25417 -0.698328 
vn 0.743145 -0.228856 -0.628777 
vn 0.743145 -0.228856 -0.628777 
vn 0.809017 -0.201034 -0.552337 
vn 0.809017 -0.201034 -0.552337 
vn 0.866025 -0.17101 -0.469846 
vn 0.866025 -0.17101 -0.469846 
vn 0.913545 -0.139112 -0.382207 
vn 0.913545 -0.139112 -0.382207 
vn 0.951057 -0.10569 -0.290381 
vn 0.951057 -0.10569 -0.290381 
vn 0.978148 -0.07111 -0.195373 
vn 0.978148 -0.07111 -0.195373 
vn 0.994522 -0.0357508 -0.0982246 
vn 0.994522 -0.0357508 -0.0982246 
vn 1 -1.34869e-13 -3.70548e-13 
vn 1 -1.34869e-13 -3.70548e-13 
f 373//373 374//374 375//375 
f 376//376 375//375 377//377 
f 378//378 377//377 379//379 
f 380//380 379//379 381//381 
f 382//382 381//381 383//383 
f 384//384 383//383 385//385 
f 386//386 385//385 387//387 
f 388//388 387//387 389//389 
f 390//390 389//389 391//391 
f 392//392 391//391 393//393 
f 394//394 393//393 395//395 
f 396//396 395//395 397//397 
f 398//398 397//397 399//399 
f 400//400 399//399 401//401 
f 402//402 401//401 403//403 
f 403//403 404//404 402//402 
f 401//401 402//402 400//400 
f 399//399 400//400 398//398 
f 397//397 398//398 396//396 
f 395//395 396//396 394//394 
f 393//393 394//394 392//392 
f 391//391 392//392 390//390 
f 389//389 390//390 388//388 
f 387//387 388//388 386//386 
f 385//385 386//386 384//384 
f 383//383 384//384 382//382 
f 381//381 382//382 380//380 
f 379//379 380//380 378//378 
f 377//377 378//378 376//376 
f 375//375 376//376 373//373 
o mesh8298
v 0.163873 0.200568 0.0648038 
v 0.163643 0.200568 0.0648038 
v 0.163643 0.201742 0.0643763 
v 0.163873 0.201742 0.0643763 
vn 0 -0.34202 -0.939693 
vn 0 -0.34202 -0.939693 
vn 0 -0.34202 -0.939693 
vn 0 -0.34202 -0.939693 
f 405//405 406//406 407//407 
f 407//407 408//408 405//405 
o mesh8299
v 0.163243 0.200704 0.0651797 
v 0.163243 0.201879 0.0647522 
v 0.163245 0.201865 0.0647129 
v 0.163245 0.20069 0.0651404 
v 0.163252 0.201851 0.064674 
v 0.163252 0.200676 0.0651016 
v 0.163263 0.201837 0.064636 
v 0.163263 0.200662 0.0650636 
v 0.163278 0.201823 0.0645993 
v 0.163278 0.200649 0.0650268 
v 0.163297 0.201811 0.0645642 
v 0.163297 0.200636 0.0649918 
v 0.16332 0.201799 0.0645312 
v 0.16332 0.200624 0.0649588 
v 0.163346 0.201788 0.0645007 
v 0.163346 0.200613 0.0649282 
v 0.163376 0.201777 0.0644728 
v 0.163376 0.200603 0.0649004 
v 0.163408 0.201768 0.0644481 
v 0.163408 0.200594 0.0648756 
v 0.163443 0.201761 0.0644267 
v 0.163443 0.200586 0.0648542 
v 0.163481 0.201754 0.0644088 
v 0.163481 0.200579 0.0648363 
v 0.16352 0.201749 0.0643947 
v 0.16352 0.200574 0.0648222 
v 0.16356 0.201745 0.0643845 
v 0.16356 0.200571 0.064812 
v 0.163601 0.201743 0.0643784 
v 0.163601 0.200568 0.0648059 
v 0.163643 0.201742 0.0643763 
v 0.163643 0.200568 0.0648038 
vn -1 -1.66273e-12 -4.56831e-12 
vn -1 -1.66273e-12 -4.56831e-12 
vn -0.994522 -0.0357508 -0.0982246 
vn -0.994522 -0.0357508 -0.0982246 
vn -0.978148 -0.07111 -0.195373 
vn -0.978148 -0.07111 -0.195373 
vn -0.951057 -0.10569 -0.290381 
vn -0.951057 -0.10569 -0.290381 
vn -0.913545 -0.139112 -0.382207 
vn -0.913545 -0.139112 -0.382207 
vn -0.866025 -0.17101 -0.469846 
vn -0.866025 -0.17101 -0.469846 
vn -0.809017 -0.201034 -0.552337 
vn -0.809017 -0.201034 -0.552337 
vn -0.743145 -0.228856 -0.628777 
vn -0.743145 -0.228856 -0.628777 
vn -0.669131 -0.25417 -0.698328 
vn -0.669131 -0.25417 -0.698328 
vn -0.587785 -0.2767 -0.760227 
vn -0.587785 -0.2767 -0.760227 
vn -0.5 -0.296198 -0.813798 
vn -0.5 -0.296198 -0.813798 
vn -0.406737 -0.312451 -0.858452 
vn -0.406737 -0.312451 -0.858452 
vn -0.309017 -0.32528 -0.893701 
vn -0.309017 -0.32528 -0.893701 
vn -0.207912 -0.334546 -0.919158 
vn -0.207912 -0.334546 -0.919158 
vn -0.104528 -0.340147 -0.934545 
vn -0.104528 -0.340147 -0.934545 
vn -4.53096e-16 -0.34202 -0.939693 
vn -4.53096e-16 -0.34202 -0.939693 
f 409//409 410//410 411//411 
f 412//412 411//411 413//413 
f 414//414 413//413 415//415 
f 416//416 415//415 417//417 
f 418//418 417//417 419//419 
f 420//420 419//419 421//421 
f 422//422 421//421 423//423 
f 424//424 423//423 425//425 
f 426//426 425//425 427//427 
f 428//428 427//427 429//429 
f 430//430 429//429 431//431 
f 432//432 431//431 433//433 
f 434//434 433//433 435//435 
f 436//436 435//435 437//437 
f 438//438 437//437 439//439 
f 439//439 440//440 438//438 
f 437//437 438//438 436//436 
f 435//435 436//436 434//434 
f 433//433 434//434 432//432 
f 431//431 432//432 430//430 
f 429//429 430//430 428//428 
f 427//427 428//428 426//426 
f 425//425 426//426 424//424 
f 423//423 424//424 422//422 
f 421//421 422//422 420//420 
f 419//419 420//420 418//418 
f 417//417 418//418 416//416 
f 415//415 416//416 414//414 
f 413//413 414//414 412//412 
f 411//411 412//412 409//409 
o mesh8300
v 0.163243 0.202158 0.065518 
v 0.163243 0.201879 0.0647522 
v 0.163243 0.200704 0.0651797 
v 0.163243 0.200983 0.0659456 
vn -1 0 0 
vn -1 0 0 
vn -1 0 0 
vn -1 0 0 
f 441//441 442//442 443//443 
f 443//443 444//444 441//441 
o mesh8301
v 0.163493 0.202158 0.065518 
v 0.163243 0.202158 0.065518 
v 0.163243 0.200983 0.0659456 
v 0.163493 0.200983 0.0659456 
vn 0 0.34202 0.939693 
vn 0 0.34202 0.939693 
vn 0 0.34202 0.939693 
vn 0 0.34202 0.939693 
f 445//445 446//446 447//447 
f 447//447 448//448 445//445 
o mesh8302
v 0.163493 0.200983 0.0659456 
v 0.163493 0.200704 0.0651797 
v 0.163493 0.201879 0.0647522 
v 0.163493 0.202158 0.065518 
vn 1 0 0 
vn 1 0 0 
vn 1 0 0 
vn 1 0 0 
f 449//449 450//450 451//451 
f 451//451 452//452 449//449 
o mesh8303
v 0.163494 0.201874 0.0647374 
v 0.163493 0.201879 0.0647522 
v 0.163493 0.200704 0.0651797 
v 0.163496 0.201868 0.0647229 
v 0.163494 0.200699 0.065165 
v 0.163501 0.201863 0.0647086 
v 0.163496 0.200694 0.0651504 
v 0.163506 0.201858 0.0646948 
v 0.163501 0.200689 0.0651361 
v 0.163513 0.201853 0.0646817 
v 0.163506 0.200684 0.0651224 
v 0.163522 0.201849 0.0646693 
v 0.163513 0.200679 0.0651092 
v 0.163532 0.201845 0.0646579 
v 0.163522 0.200674 0.0650969 
v 0.163543 0.201841 0.0646474 
v 0.163532 0.20067 0.0650854 
v 0.163555 0.201838 0.0646381 
v 0.163543 0.200666 0.065075 
v 0.163568 0.201835 0.0646301 
v 0.163555 0.200663 0.0650657 
v 0.163582 0.201832 0.0646234 
v 0.163568 0.20066 0.0650576 
v 0.163597 0.20183 0.0646181 
v 0.163582 0.200658 0.0650509 
v 0.163612 0.201829 0.0646143 
v 0.163597 0.200656 0.0650456 
v 0.163628 0.201828 0.064612 
v 0.163612 0.200654 0.0650418 
v 0.163643 0.201828 0.0646112 
v 0.163628 0.200653 0.0650395 
v 0.163643 0.200653 0.0650388 
vn 0.994522 0.0357508 0.0982246 
vn 1 1.31724e-10 3.61908e-10 
vn 1 1.31724e-10 3.61908e-10 
vn 0.978148 0.07111 0.195373 
vn 0.994522 0.0357508 0.0982246 
vn 0.951057 0.10569 0.290381 
vn 0.978148 0.07111 0.195373 
vn 0.913545 0.139112 0.382207 
vn 0.951057 0.10569 0.290381 
vn 0.866025 0.17101 0.469846 
vn 0.913545 0.139112 0.382207 
vn 0.809017 0.201034 0.552337 
vn 0.866025 0.17101 0.469846 
vn 0.743145 0.228856 0.628777 
vn 0.809017 0.201034 0.552337 
vn 0.669131 0.25417 0.698328 
vn 0.743145 0.228856 0.628777 
vn 0.587785 0.2767 0.760227 
vn 0.669131 0.25417 0.698328 
vn 0.5 0.296198 0.813798 
vn 0.587785 0.2767 0.760227 
vn 0.406737 0.312451 0.858452 
vn 0.5 0.296198 0.813798 
vn 0.309017 0.32528 0.893701 
vn 0.406737 0.312451 0.858452 
vn 0.207912 0.334546 0.919158 
vn 0.309017 0.32528 0.893701 
vn 0.104528 0.340147 0.934545 
vn 0.207912 0.334546 0.919158 
vn -4.22102e-16 0.34202 0.939693 
vn 0.104528 0.340147 0.934545 
vn -4.22102e-16 0.34202 0.939693 
f 453//453 454//454 455//455 
f 456//456 453//453 457//457 
f 458//458 456//456 459//459 
f 460//460 458//458 461//461 
f 462//462 460//460 463//463 
f 464//464 462//462 465//465 
f 466//466 464//464 467//467 
f 468//468 466//466 469//469 
f 470//470 468//468 471//471 
f 472//472 470//470 473//473 
f 474//474 472//472 475//475 
f 476//476 474//474 477//477 
f 478//478 476//476 479//479 
f 480//480 478//478 481//481 
f 482//482 480//480 483//483 
f 483//483 484//484 482//482 
f 481//481 483//483 480//480 
f 479//479 481//481 478//478 
f 477//477 479//479 476//476 
f 475//475 477//477 474//474 
f 473//473 475//475 472//472 
f 471//471 473//473 470//470 
f 469//469 471//471 468//468 
f 467//467 469//469 466//466 
f 465//465 467//467 464//464 
f 463//463 465//465 462//462 
f 461//461 463//463 460//460 
f 459//459 461//461 458//458 
f 457//457 459//459 456//456 
f 455//455 457//457 453//453 
o mesh8304
v 0.164271 0.20069 0.0651404 
v 0.164273 0.200704 0.0651797 
v 0.164023 0.200704 0.0651797 
v 0.164273 0.200728 0.0652455 
v 0.163252 0.200676 0.0651016 
v 0.163496 0.200694 0.0651504 
v 0.163494 0.200699 0.065165 
v 0.163263 0.200662 0.0650636 
v 0.163501 0.200689 0.0651361 
v 0.163278 0.200649 0.0650268 
v 0.163506 0.200684 0.0651224 
v 0.163297 0.200636 0.0649918 
v 0.163513 0.200679 0.0651092 
v 0.16332 0.200624 0.0649588 
v 0.163522 0.200674 0.0650969 
v 0.163346 0.200613 0.0649282 
v 0.163532 0.20067 0.0650854 
v 0.163376 0.200603 0.0649004 
v 0.163543 0.200666 0.065075 
v 0.163408 0.200594 0.0648756 
v 0.163555 0.200663 0.0650657 
v 0.163443 0.200586 0.0648542 
v 0.163568 0.20066 0.0650576 
v 0.163481 0.200579 0.0648363 
v 0.163582 0.200658 0.0650509 
v 0.16352 0.200574 0.0648222 
v 0.163597 0.200656 0.0650456 
v 0.16356 0.200571 0.064812 
v 0.163612 0.200654 0.0650418 
v 0.164036 0.200579 0.0648363 
v 0.164073 0.200586 0.0648542 
v 0.163948 0.20066 0.0650576 
v 0.164108 0.200594 0.0648756 
v 0.163961 0.200663 0.0650657 
v 0.164141 0.200603 0.0649004 
v 0.163974 0.200666 0.065075 
v 0.16417 0.200613 0.0649282 
v 0.163985 0.20067 0.0650854 
v 0.164264 0.200676 0.0651016 
v 0.164022 0.200699 0.065165 
v 0.164023 0.200736 0.065266 
v 0.163997 0.200574 0.0648222 
v 0.163934 0.200658 0.0650509 
v 0.164197 0.200624 0.0649588 
v 0.163995 0.200674 0.0650969 
v 0.16422 0.200636 0.0649918 
v 0.164003 0.200679 0.0651092 
v 0.164239 0.200649 0.0650268 
v 0.16401 0.200684 0.0651224 
v 0.164254 0.200662 0.0650636 
v 0.16402 0.200694 0.0651504 
v 0.163601 0.200568 0.0648059 
v 0.163628 0.200653 0.0650395 
v 0.163873 0.200568 0.0648038 
v 0.163873 0.200653 0.0650388 
v 0.163643 0.200653 0.0650388 
v 0.163915 0.200568 0.0648059 
v 0.163889 0.200653 0.0650395 
v 0.163956 0.200571 0.064812 
v 0.16392 0.200656 0.0650456 
v 0.164016 0.200689 0.0651361 
v 0.163643 0.200568 0.0648038 
v 0.163904 0.200654 0.0650418 
v 0.163243 0.200983 0.0659456 
v 0.163243 0.200704 0.0651797 
v 0.163493 0.200704 0.0651797 
v 0.163245 0.20069 0.0651404 
v 0.163493 0.200983 0.0659456 
vn 0 -0.939693 0.34202 
vn 0 -0.939693 0.34202 
vn 0 -0.939693 0.34202 
vn 0 -0.939693 0.34202 
vn 0 -0.939693 0.34202 
vn 0 -0.939693 0.34202 
vn 0 -0.939693 0.34202 
vn 0 -0.939693 0.34202 
vn 0 -0.939693 0.34202 
vn 0 -0.939693 0.34202 
vn 0 -0.939693 0.34202 
vn 0 -0.939693 0.34202 
vn 0 -0.939693 0.34202 
vn 0 -0.939693 0.34202 
vn 0 -0.939693 0.34202 
vn 0 -0.939693 0.34202 
vn 0 -0.939693 0.34202 
vn 0 -0.939693 0.34202 
vn 0 -0.939693 0.34202 
vn 0 -0.939693 0.34202 
vn 0 -0.939693 0.34202 
vn 0 -0.939693 0.34202 
vn 0 -0.939693 0.34202 
vn 0 -0.939693 0.34202 
vn 0 -0.939693 0.34202 
vn 0 -0.939693 0.34202 
vn 0 -0.939693 0.34202 
vn 0 -0.939693 0.34202 
vn 0 -0.939693 0.34202 
vn 0 -0.939693 0.34202 
vn 0 -0.939693 0.34202 
vn 0 -0.939693 0.34202 
vn 0 -0.939693 0.34202 
vn 0 -0.939693 0.34202 
vn 0 -0.939693 0.34202 
vn 0 -0.939693 0.34202 
vn 0 -0.939693 0.34202 
vn 0 -0.939693 0.34202 
vn 0 -0.939693 0.34202 
vn 0 -0.939693 0.34202 
vn 0 -0.939693 0.34202 
vn 0 -0.939693 0.34202 
vn 0 -0.939693 0.34202 
vn 0 -0.939693 0.34202 
vn 0 -0.939693 0.34202 
vn 0 -0.939693 0.34202 
vn 0 -0.939693 0.34202 
vn 0 -0.939693 0.34202 
vn 0 -0.939693 0.34202 
vn 0 -0.939693 0.34202 
vn 0 -0.939693 0.34202 
vn 0 -0.939693 0.34202 
vn 0 -0.939693 0.34202 
vn 0 -0.939693 0.34202 
vn 0 -0.939693 0.34202 
vn 0 -0.939693 0.34202 
vn 0 -0.939693 0.34202 
vn 0 -0.939693 0.34202 
vn 0 -0.939693 0.34202 
vn 0 -0.939693 0.34202 
vn 0 -0.939693 0.34202 
vn 0 -0.939693 0.34202 
vn 0 -0.939693 0.34202 
vn 0 -0.939693 0.34202 
vn 0 -0.939693 0.34202 
vn 0 -0.939693 0.34202 
vn 0 -0.939693 0.34202 
vn 0 -0.939693 0.34202 
f 485//485 486//486 487//487 
f 487//487 486//486 488//488 
f 489//489 490//490 491//491 
f 492//492 493//493 490//490 
f 494//494 495//495 493//493 
f 496//496 497//497 495//495 
f 498//498 499//499 497//497 
f 500//500 501//501 499//499 
f 502//502 503//503 501//501 
f 504//504 505//505 503//503 
f 506//506 507//507 505//505 
f 508//508 509//509 507//507 
f 510//510 511//511 509//509 
f 512//512 513//513 511//511 
f 514//514 515//515 516//516 
f 515//515 517//517 518//518 
f 517//517 519//519 520//520 
f 519//519 521//521 522//522 
f 523//523 485//485 524//524 
f 488//488 525//525 487//487 
f 490//490 489//489 492//492 
f 495//495 494//494 496//496 
f 499//499 498//498 500//500 
f 503//503 502//502 504//504 
f 507//507 506//506 508//508 
f 511//511 510//510 512//512 
f 526//526 514//514 527//527 
f 518//518 516//516 515//515 
f 522//522 520//520 519//519 
f 521//521 528//528 529//529 
f 528//528 530//530 531//531 
f 530//530 532//532 533//533 
f 534//534 523//523 535//535 
f 487//487 524//524 485//485 
f 493//493 492//492 494//494 
f 501//501 500//500 502//502 
f 509//509 508//508 510//510 
f 536//536 537//537 513//513 
f 538//538 539//539 540//540 
f 538//538 541//541 542//542 
f 543//543 526//526 544//544 
f 516//516 527//527 514//514 
f 529//529 522//522 521//521 
f 533//533 531//531 530//530 
f 532//532 534//534 545//545 
f 524//524 535//535 523//523 
f 497//497 496//496 498//498 
f 513//513 512//512 536//536 
f 546//546 540//540 537//537 
f 542//542 539//539 538//538 
f 541//541 543//543 547//547 
f 527//527 544//544 526//526 
f 531//531 529//529 528//528 
f 535//535 545//545 534//534 
f 505//505 504//504 506//506 
f 540//540 546//546 538//538 
f 544//544 547//547 543//543 
f 545//545 533//533 532//532 
f 548//548 549//549 550//550 
f 549//549 551//551 491//491 
f 537//537 536//536 546//546 
f 520//520 518//518 517//517 
f 491//491 550//550 549//549 
f 547//547 542//542 541//541 
f 491//491 551//551 489//489 
f 550//550 552//552 548//548 
o mesh8305
v 0.164073 0.201761 0.0644267 
v 0.163948 0.201835 0.0646301 
v 0.163961 0.201838 0.0646381 
v 0.164036 0.201754 0.0644088 
v 0.163934 0.201832 0.0646234 
v 0.163643 0.201742 0.0643763 
v 0.163643 0.201828 0.0646112 
v 0.163873 0.201828 0.0646112 
v 0.163601 0.201743 0.0643784 
v 0.163628 0.201828 0.064612 
v 0.163481 0.201754 0.0644088 
v 0.163443 0.201761 0.0644267 
v 0.163568 0.201835 0.0646301 
v 0.163408 0.201768 0.0644481 
v 0.163555 0.201838 0.0646381 
v 0.164141 0.201777 0.0644728 
v 0.163974 0.201841 0.0646474 
v 0.163985 0.201845 0.0646579 
v 0.164108 0.201768 0.0644481 
v 0.163997 0.201749 0.0643947 
v 0.16392 0.20183 0.0646181 
v 0.163873 0.201742 0.0643763 
v 0.163889 0.201828 0.064612 
v 0.16356 0.201745 0.0643845 
v 0.163612 0.201829 0.0646143 
v 0.16352 0.201749 0.0643947 
v 0.163597 0.20183 0.0646181 
v 0.163582 0.201832 0.0646234 
v 0.163376 0.201777 0.0644728 
v 0.163543 0.201841 0.0646474 
v 0.163346 0.201788 0.0645007 
v 0.163532 0.201845 0.0646579 
v 0.16332 0.201799 0.0645312 
v 0.163522 0.201849 0.0646693 
v 0.163297 0.201811 0.0645642 
v 0.163513 0.201853 0.0646817 
v 0.16422 0.201811 0.0645642 
v 0.164003 0.201853 0.0646817 
v 0.16401 0.201858 0.0646948 
v 0.164197 0.201799 0.0645312 
v 0.163995 0.201849 0.0646693 
v 0.16417 0.201788 0.0645007 
v 0.163956 0.201745 0.0643845 
v 0.163904 0.201829 0.0646143 
v 0.163915 0.201743 0.0643784 
v 0.163278 0.201823 0.0645993 
v 0.163506 0.201858 0.0646948 
v 0.163263 0.201837 0.064636 
v 0.163501 0.201863 0.0647086 
v 0.163252 0.201851 0.064674 
v 0.163496 0.201868 0.0647229 
v 0.163245 0.201865 0.0647129 
v 0.163494 0.201874 0.0647374 
v 0.164264 0.201851 0.064674 
v 0.16402 0.201868 0.0647229 
v 0.164022 0.201874 0.0647374 
v 0.164254 0.201837 0.064636 
v 0.164016 0.201863 0.0647086 
v 0.164239 0.201823 0.0645993 
v 0.163243 0.201879 0.0647522 
v 0.163493 0.201879 0.0647522 
v 0.163243 0.202158 0.065518 
v 0.163493 0.202158 0.065518 
v 0.164023 0.201879 0.0647522 
v 0.164023 0.20191 0.0648385 
v 0.164273 0.201903 0.064818 
v 0.164273 0.201879 0.0647522 
v 0.164271 0.201865 0.0647129 
vn 0 0.939693 -0.34202 
vn 0 0.939693 -0.34202 
vn 0 0.939693 -0.34202 
vn 0 0.939693 -0.34202 
vn 0 0.939693 -0.34202 
vn 0 0.939693 -0.34202 
vn 0 0.939693 -0.34202 
vn 0 0.939693 -0.34202 
vn 0 0.939693 -0.34202 
vn 0 0.939693 -0.34202 
vn 0 0.939693 -0.34202 
vn 0 0.939693 -0.34202 
vn 0 0.939693 -0.34202 
vn 0 0.939693 -0.34202 
vn 0 0.939693 -0.34202 
vn 0 0.939693 -0.34202 
vn 0 0.939693 -0.34202 
vn 0 0.939693 -0.34202 
vn 0 0.939693 -0.34202 
vn 0 0.939693 -0.34202 
vn 0 0.939693 -0.34202 
vn 0 0.939693 -0.34202 
vn 0 0.939693 -0.34202 
vn 0 0.939693 -0.34202 
vn 0 0.939693 -0.34202 
vn 0 0.939693 -0.34202 
vn 0 0.939693 -0.34202 
vn 0 0.939693 -0.34202 
vn 0 0.939693 -0.34202 
vn 0 0.939693 -0.34202 
vn 0 0.939693 -0.34202 
vn 0 0.939693 -0.34202 
vn 0 0.939693 -0.34202 
vn 0 0.939693 -0.34202 
vn 0 0.939693 -0.34202 
vn 0 0.939693 -0.34202 
vn 0 0.939693 -0.34202 
vn 0 0.939693 -0.34202 
vn 0 0.939693 -0.34202 
vn 0 0.939693 -0.34202 
vn 0 0.939693 -0.34202 
vn 0 0.939693 -0.34202 
vn 0 0.939693 -0.34202 
vn 0 0.939693 -0.34202 
vn 0 0.939693 -0.34202 
vn 0 0.939693 -0.34202 
vn 0 0.939693 -0.34202 
vn 0 0.939693 -0.34202 
vn 0 0.939693 -0.34202 
vn 0 0.939693 -0.34202 
vn 0 0.939693 -0.34202 
vn 0 0.939693 -0.34202 
vn 0 0.939693 -0.34202 
vn 0 0.939693 -0.34202 
vn 0 0.939693 -0.34202 
vn 0 0.939693 -0.34202 
vn 0 0.939693 -0.34202 
vn 0 0.939693 -0.34202 
vn 0 0.939693 -0.34202 
vn 0 0.939693 -0.34202 
vn 0 0.939693 -0.34202 
vn 0 0.939693 -0.34202 
vn 0 0.939693 -0.34202 
vn 0 0.939693 -0.34202 
vn 0 0.939693 -0.34202 
vn 0 0.939693 -0.34202 
vn 0 0.939693 -0.34202 
vn 0 0.939693 -0.34202 
f 553//553 554//554 555//555 
f 556//556 557//557 554//554 
f 558//558 559//559 560//560 
f 558//558 561//561 562//562 
f 563//563 564//564 565//565 
f 564//564 566//566 567//567 
f 568//568 569//569 570//570 
f 571//571 555//555 569//569 
f 554//554 553//553 556//556 
f 572//572 573//573 557//557 
f 574//574 560//560 575//575 
f 562//562 559//559 558//558 
f 561//561 576//576 577//577 
f 576//576 578//578 579//579 
f 578//578 563//563 580//580 
f 567//567 565//565 564//564 
f 566//566 581//581 582//582 
f 581//581 583//583 584//584 
f 583//583 585//585 586//586 
f 585//585 587//587 588//588 
f 589//589 590//590 591//591 
f 592//592 593//593 590//590 
f 594//594 570//570 593//593 
f 569//569 568//568 571//571 
f 557//557 556//556 572//572 
f 595//595 596//596 573//573 
f 597//597 575//575 596//596 
f 560//560 574//574 558//558 
f 579//579 577//577 576//576 
f 565//565 580//580 563//563 
f 584//584 582//582 581//581 
f 588//588 586//586 585//585 
f 587//587 598//598 599//599 
f 598//598 600//600 601//601 
f 600//600 602//602 603//603 
f 602//602 604//604 605//605 
f 606//606 607//607 608//608 
f 609//609 610//610 607//607 
f 590//590 589//589 592//592 
f 570//570 594//594 568//568 
f 573//573 572//572 595//595 
f 575//575 597//597 574//574 
f 580//580 579//579 578//578 
f 586//586 584//584 583//583 
f 601//601 599//599 598//598 
f 605//605 603//603 602//602 
f 607//607 606//606 609//609 
f 611//611 591//591 610//610 
f 593//593 592//592 594//594 
f 596//596 595//595 597//597 
f 582//582 567//567 566//566 
f 603//603 601//601 600//600 
f 604//604 612//612 613//613 
f 614//614 615//615 613//613 
f 610//610 609//609 611//611 
f 555//555 571//571 553//553 
f 599//599 588//588 587//587 
f 613//613 612//612 614//614 
f 616//616 617//617 618//618 
f 619//619 620//620 608//608 
f 591//591 611//611 589//589 
f 613//613 605//605 604//604 
f 608//608 616//616 619//619 
f 577//577 562//562 561//561 
f 608//608 620//620 606//606 
f 618//618 619//619 616//616 
o mesh8306
v 0.163873 0.201828 0.0646112 
v 0.163643 0.201828 0.0646112 
v 0.163643 0.200653 0.0650388 
v 0.163873 0.200653 0.0650388 
vn 0 0.34202 0.939693 
vn 0 0.34202 0.939693 
vn 0 0.34202 0.939693 
vn 0 0.34202 0.939693 
f 621//621 622//622 623//623 
f 623//623 624//624 621//621 
o mesh8307
v 0.163889 0.201828 0.064612 
v 0.163873 0.201828 0.0646112 
v 0.163873 0.200653 0.0650388 
v 0.163904 0.201829 0.0646143 
v 0.163889 0.200653 0.0650395 
v 0.16392 0.20183 0.0646181 
v 0.163904 0.200654 0.0650418 
v 0.163934 0.201832 0.0646234 
v 0.16392 0.200656 0.0650456 
v 0.163948 0.201835 0.0646301 
v 0.163934 0.200658 0.0650509 
v 0.163961 0.201838 0.0646381 
v 0.163948 0.20066 0.0650576 
v 0.163974 0.201841 0.0646474 
v 0.163961 0.200663 0.0650657 
v 0.163985 0.201845 0.0646579 
v 0.163974 0.200666 0.065075 
v 0.163995 0.201849 0.0646693 
v 0.163985 0.20067 0.0650854 
v 0.164003 0.201853 0.0646817 
v 0.163995 0.200674 0.0650969 
v 0.16401 0.201858 0.0646948 
v 0.164003 0.200679 0.0651092 
v 0.164016 0.201863 0.0647086 
v 0.16401 0.200684 0.0651224 
v 0.16402 0.201868 0.0647229 
v 0.164016 0.200689 0.0651361 
v 0.164022 0.201874 0.0647374 
v 0.16402 0.200694 0.0651504 
v 0.164023 0.201879 0.0647522 
v 0.164022 0.200699 0.065165 
v 0.164023 0.200704 0.0651797 
vn -0.104528 0.340147 0.934545 
vn 2.99335e-09 0.34202 0.939693 
vn 2.99335e-09 0.34202 0.939693 
vn -0.207912 0.334546 0.919158 
vn -0.104528 0.340147 0.934545 
vn -0.309017 0.32528 0.893701 
vn -0.207912 0.334546 0.919158 
vn -0.406737 0.312451 0.858452 
vn -0.309017 0.32528 0.893701 
vn -0.5 0.296198 0.813798 
vn -0.406737 0.312451 0.858452 
vn -0.587785 0.2767 0.760227 
vn -0.5 0.296198 0.813798 
vn -0.669131 0.254171 0.698328 
vn -0.587785 0.2767 0.760227 
vn -0.743145 0.228856 0.628777 
vn -0.669131 0.254171 0.698328 
vn -0.809017 0.201034 0.552337 
vn -0.743145 0.228856 0.628777 
vn -0.866025 0.17101 0.469846 
vn -0.809017 0.201034 0.552337 
vn -0.913545 0.139112 0.382207 
vn -0.866025 0.17101 0.469846 
vn -0.951057 0.10569 0.290381 
vn -0.913545 0.139112 0.382207 
vn -0.978148 0.07111 0.195373 
vn -0.951057 0.10569 0.290381 
vn -0.994522 0.0357508 0.0982246 
vn -0.978148 0.07111 0.195373 
vn -1 -7.44474e-12 -2.04543e-11 
vn -0.994522 0.0357508 0.0982246 
vn -1 -7.44474e-12 -2.04543e-11 
f 625//625 626//626 627//627 
f 628//628 625//625 629//629 
f 630//630 628//628 631//631 
f 632//632 630//630 633//633 
f 634//634 632//632 635//635 
f 636//636 634//634 637//637 
f 638//638 636//636 639//639 
f 640//640 638//638 641//641 
f 642//642 640//640 643//643 
f 644//644 642//642 645//645 
f 646//646 644//644 647//647 
f 648//648 646//646 649//649 
f 650//650 648//648 651//651 
f 652//652 650//650 653//653 
f 654//654 652//652 655//655 
f 655//655 656//656 654//654 
f 653//653 655//655 652//652 
f 651//651 653//653 650//650 
f 649//649 651//651 648//648 
f 647//647 649//649 646//646 
f 645//645 647//647 644//644 
f 643//643 645//645 642//642 
f 641//641 643//643 640//640 
f 639//639 641//641 638//638 
f 637//637 639//639 636//636 
f 635//635 637//637 634//634 
f 633//633 635//635 632//632 
f 631//631 633//633 630//630 
f 629//629 631//631 628//628 
f 627//627 629//629 625//625 
o mesh8308
v 0.164023 0.200704 0.0651797 
v 0.164023 0.200736 0.065266 
v 0.164023 0.20191 0.0648385 
v 0.164023 0.201879 0.0647522 
vn -1 0 0 
vn -1 0 0 
vn -1 0 0 
vn -1 0 0 
f 657//657 658//658 659//659 
f 659//659 660//660 657//657 
