# OBJ generated by ONSHAPE BY PTC INC, 1.215 Units = meters
mtllib EBoxNewAsm_stp_1_Beelink_mini_PC_v4_stp_1_Beelink_mini_PC_v4_63_stp_1_solid1.mtl
g EBoxNewAsm.stp-1/Beelink mini PC v4.stp-1/Beelink mini PC v4-63.stp-1-solid1
usemtl 0.000000_0.000000_0.000000_0.000000_0.000000
o mesh9129
v 0.21915 0.23213 0.187407 
v 0.21815 0.23213 0.187407 
v 0.21815 0.233772 0.191917 
v 0.21915 0.233772 0.191917 
vn 0 0.939693 -0.34202 
vn 0 0.939693 -0.34202 
vn 0 0.939693 -0.34202 
vn 0 0.939693 -0.34202 
f 1//1 2//2 3//3 
f 3//3 4//4 1//1 
o mesh9130
v 0.21815 0.233772 0.191917 
v 0.21815 0.222401 0.196056 
v 0.21915 0.222401 0.196056 
v 0.21915 0.233772 0.191917 
vn -5.09196e-14 0.34202 0.939693 
vn -5.09196e-14 0.34202 0.939693 
vn -5.09196e-14 0.34202 0.939693 
vn -5.09196e-14 0.34202 0.939693 
f 5//5 6//6 7//7 
f 7//7 8//8 5//5 
o mesh9131
v 0.21815 0.222401 0.196056 
v 0.21815 0.22076 0.191545 
v 0.21915 0.22076 0.191545 
v 0.21915 0.222401 0.196056 
vn 0 -0.939693 0.34202 
vn 0 -0.939693 0.34202 
vn 0 -0.939693 0.34202 
vn 0 -0.939693 0.34202 
f 9//9 10//10 11//11 
f 11//11 12//12 9//9 
o mesh9132
v 0.21815 0.23213 0.187407 
v 0.21915 0.23213 0.187407 
v 0.21915 0.22076 0.191545 
v 0.21815 0.22076 0.191545 
vn 5.09196e-14 -0.34202 -0.939693 
vn 5.09196e-14 -0.34202 -0.939693 
vn 5.09196e-14 -0.34202 -0.939693 
vn 5.09196e-14 -0.34202 -0.939693 
f 13//13 14//14 15//15 
f 15//15 16//16 13//13 
o mesh9133
v 0.21915 0.233772 0.191917 
v 0.21915 0.222401 0.196056 
v 0.21915 0.222225 0.192501 
v 0.21915 0.22076 0.191545 
v 0.21915 0.221883 0.191562 
v 0.21915 0.23213 0.187407 
v 0.21915 0.231622 0.189081 
v 0.21915 0.23128 0.188142 
vn 1 1.74155e-14 4.78488e-14 
vn 1 1.74155e-14 4.78488e-14 
vn 1 1.74155e-14 4.78488e-14 
vn 1 1.74155e-14 4.78488e-14 
vn 1 1.74155e-14 4.78488e-14 
vn 1 1.74155e-14 4.78488e-14 
vn 1 1.74155e-14 4.78488e-14 
vn 1 1.74155e-14 4.78488e-14 
f 17//17 18//18 19//19 
f 20//20 21//21 19//19 
f 22//22 17//17 23//23 
f 19//19 18//18 20//20 
f 19//19 23//23 17//17 
f 20//20 22//22 24//24 
f 24//24 21//21 20//20 
f 23//23 24//24 22//22 
o mesh9134
v 0.21815 0.23213 0.187407 
v 0.21815 0.23128 0.188142 
v 0.21815 0.231622 0.189081 
v 0.21815 0.22076 0.191545 
v 0.21815 0.221883 0.191562 
v 0.21815 0.233772 0.191917 
v 0.21815 0.222225 0.192501 
v 0.21815 0.222401 0.196056 
vn -1 -1.74155e-14 -4.78488e-14 
vn -1 -1.74155e-14 -4.78488e-14 
vn -1 -1.74155e-14 -4.78488e-14 
vn -1 -1.74155e-14 -4.78488e-14 
vn -1 -1.74155e-14 -4.78488e-14 
vn -1 -1.74155e-14 -4.78488e-14 
vn -1 -1.74155e-14 -4.78488e-14 
vn -1 -1.74155e-14 -4.78488e-14 
f 25//25 26//26 27//27 
f 28//28 29//29 26//26 
f 30//30 27//27 31//31 
f 26//26 25//25 28//28 
f 27//27 30//30 25//25 
f 28//28 32//32 31//31 
f 31//31 29//29 28//28 
f 31//31 32//32 30//30 
o mesh9135
v 0.21915 0.221883 0.191562 
v 0.21815 0.221883 0.191562 
v 0.21815 0.222225 0.192501 
v 0.21915 0.222225 0.192501 
vn 0 0.939693 -0.34202 
vn 0 0.939693 -0.34202 
vn 0 0.939693 -0.34202 
vn 0 0.939693 -0.34202 
f 33//33 34//34 35//35 
f 35//35 36//36 33//33 
o mesh9136
v 0.21815 0.231622 0.189081 
v 0.21915 0.231622 0.189081 
v 0.21915 0.222225 0.192501 
v 0.21815 0.222225 0.192501 
vn 5.09196e-14 -0.34202 -0.939693 
vn 5.09196e-14 -0.34202 -0.939693 
vn 5.09196e-14 -0.34202 -0.939693 
vn 5.09196e-14 -0.34202 -0.939693 
f 37//37 38//38 39//39 
f 39//39 40//40 37//37 
o mesh9137
v 0.21815 0.23128 0.188142 
v 0.21915 0.23128 0.188142 
v 0.21915 0.231622 0.189081 
v 0.21815 0.231622 0.189081 
vn 0 -0.939693 0.34202 
vn 0 -0.939693 0.34202 
vn 0 -0.939693 0.34202 
vn 0 -0.939693 0.34202 
f 41//41 42//42 43//43 
f 43//43 44//44 41//41 
o mesh9138
v 0.21915 0.221883 0.191562 
v 0.21915 0.23128 0.188142 
v 0.21815 0.23128 0.188142 
v 0.21815 0.221883 0.191562 
vn -5.09196e-14 0.34202 0.939693 
vn -5.09196e-14 0.34202 0.939693 
vn -5.09196e-14 0.34202 0.939693 
vn -5.09196e-14 0.34202 0.939693 
f 45//45 46//46 47//47 
f 47//47 48//48 45//45 
