# OBJ generated by ONSHAPE BY PTC INC, 1.215 Units = meters
mtllib EBoxNewAsm_stp_1_eBoxDamper_stp_4_solid1.mtl
g EBoxNewAsm.stp-1/eBoxDamper.stp-4-solid1
usemtl 0.152941_0.152941_0.152941_0.000000_0.000000
o mesh16161
v -0.0328191 0.210934 0.0247183 
v -0.0328 0.211054 0.0250485 
v -0.0328 0.217021 0.0228767 
v -0.032876 0.210815 0.024392 
v -0.0328191 0.216901 0.0225465 
v -0.0329701 0.210699 0.0240734 
v -0.032876 0.216782 0.0222202 
v -0.0331004 0.210588 0.0237662 
v -0.0329701 0.216666 0.0219015 
v -0.0332652 0.210481 0.023474 
v -0.0331004 0.216555 0.0215943 
v -0.0334627 0.210382 0.0232003 
v -0.0332652 0.216448 0.0213022 
v -0.0336905 0.21029 0.0229483 
v -0.0334627 0.216349 0.0210285 
v -0.033946 0.210207 0.0227209 
v -0.0336905 0.216257 0.0207764 
v -0.0342261 0.210134 0.0225207 
v -0.033946 0.216174 0.020549 
v -0.0345277 0.210072 0.0223503 
v -0.0342261 0.216101 0.0203489 
v -0.0348471 0.210022 0.0222114 
v -0.0345277 0.216039 0.0201784 
v -0.0351805 0.209983 0.0221058 
v -0.0348471 0.215989 0.0200396 
v -0.0355242 0.209957 0.0220347 
v -0.0351805 0.21595 0.019934 
v -0.035874 0.209944 0.021999 
v -0.0355242 0.215924 0.0198629 
v -0.036226 0.209944 0.021999 
v -0.035874 0.215911 0.0198272 
v -0.0365758 0.209957 0.0220347 
v -0.036226 0.215911 0.0198272 
v -0.0369195 0.209983 0.0221058 
v -0.0365758 0.215924 0.0198629 
v -0.0372529 0.210022 0.0222114 
v -0.0369195 0.21595 0.019934 
v -0.0375723 0.210072 0.0223503 
v -0.0372529 0.215989 0.0200396 
v -0.0378739 0.210134 0.0225207 
v -0.0375723 0.216039 0.0201784 
v -0.038154 0.210207 0.0227209 
v -0.0378739 0.216101 0.0203489 
v -0.0384095 0.21029 0.0229483 
v -0.038154 0.216174 0.020549 
v -0.0386373 0.210382 0.0232003 
v -0.0384095 0.216257 0.0207764 
v -0.0388348 0.210481 0.023474 
v -0.0386373 0.216349 0.0210285 
v -0.0389996 0.210588 0.0237662 
v -0.0388348 0.216448 0.0213022 
v -0.0391299 0.210699 0.0240734 
v -0.0389996 0.216555 0.0215943 
v -0.039224 0.210815 0.024392 
v -0.0391299 0.216666 0.0219015 
v -0.0392809 0.210934 0.0247183 
v -0.039224 0.216782 0.0222202 
v -0.0393 0.211054 0.0250485 
v -0.0392809 0.216901 0.0225465 
v -0.0392809 0.211174 0.0253787 
v -0.0393 0.217021 0.0228767 
v -0.039224 0.211293 0.025705 
v -0.0392809 0.217141 0.0232069 
v -0.0391299 0.211409 0.0260237 
v -0.039224 0.21726 0.0235332 
v -0.0389996 0.211521 0.0263308 
v -0.0391299 0.217376 0.0238518 
v -0.0388348 0.211627 0.026623 
v -0.0389996 0.217488 0.024159 
v -0.0386373 0.211727 0.0268967 
v -0.0388348 0.217594 0.0244512 
v -0.0384095 0.211819 0.0271487 
v -0.0386373 0.217694 0.0247249 
v -0.038154 0.211901 0.0273762 
v -0.0384095 0.217786 0.0249769 
v -0.0378739 0.211974 0.0275763 
v -0.038154 0.217868 0.0252043 
v -0.0375723 0.212036 0.0277468 
v -0.0378739 0.217941 0.0254044 
v -0.0372529 0.212087 0.0278856 
v -0.0375723 0.218003 0.0255749 
v -0.0369195 0.212125 0.0279912 
v -0.0372529 0.218054 0.0257138 
v -0.0365758 0.212151 0.0280623 
v -0.0369195 0.218092 0.0258194 
v -0.036226 0.212164 0.028098 
v -0.0365758 0.218118 0.0258904 
v -0.035874 0.212164 0.028098 
v -0.036226 0.218131 0.0259262 
v -0.0355242 0.212151 0.0280623 
v -0.035874 0.218131 0.0259262 
v -0.0351805 0.212125 0.0279912 
v -0.0355242 0.218118 0.0258904 
v -0.0348471 0.212087 0.0278856 
v -0.0351805 0.218092 0.0258194 
v -0.0345277 0.212036 0.0277468 
v -0.0348471 0.218054 0.0257138 
v -0.0342261 0.211974 0.0275763 
v -0.0345277 0.218003 0.0255749 
v -0.033946 0.211901 0.0273762 
v -0.0342261 0.217941 0.0254044 
v -0.0336905 0.211819 0.0271487 
v -0.033946 0.217868 0.0252043 
v -0.0334627 0.211727 0.0268967 
v -0.0336905 0.217786 0.0249769 
v -0.0332652 0.211627 0.026623 
v -0.0334627 0.217694 0.0247249 
v -0.0331004 0.211521 0.0263308 
v -0.0332652 0.217594 0.0244512 
v -0.0329701 0.211409 0.0260237 
v -0.0331004 0.217488 0.024159 
v -0.032876 0.211293 0.025705 
v -0.0329701 0.217376 0.0238518 
v -0.0328191 0.211174 0.0253787 
v -0.032876 0.21726 0.0235332 
v -0.0328191 0.217141 0.0232069 
vn -0.994138 0.0369789 0.101599 
vn -1 -8.41655e-14 -4.70431e-14 
vn -1 -8.41655e-14 -4.70431e-14 
vn -0.976621 0.0735242 0.202006 
vn -0.994138 0.0369789 0.101599 
vn -0.947653 0.109208 0.300045 
vn -0.976621 0.0735242 0.202006 
vn -0.907575 0.143611 0.394567 
vn -0.947653 0.109208 0.300045 
vn -0.856857 0.17633 0.484462 
vn -0.907575 0.143611 0.394567 
vn -0.796093 0.206982 0.568678 
vn -0.856857 0.17633 0.484462 
vn -0.725995 0.235207 0.646226 
vn -0.796093 0.206982 0.568678 
vn -0.647386 0.260675 0.716198 
vn -0.725995 0.235207 0.646226 
vn -0.561187 0.283086 0.777773 
vn -0.647386 0.260675 0.716198 
vn -0.468408 0.302179 0.83023 
vn -0.561187 0.283086 0.777773 
vn -0.370138 0.317729 0.872953 
vn -0.468408 0.302179 0.83023 
vn -0.267528 0.329554 0.905441 
vn -0.370138 0.317729 0.872953 
vn -0.161782 0.337515 0.927314 
vn -0.267528 0.329554 0.905441 
vn -0.0541389 0.341519 0.938314 
vn -0.161782 0.337515 0.927314 
vn 0.0541389 0.341519 0.938314 
vn -0.0541389 0.341519 0.938314 
vn 0.161782 0.337515 0.927314 
vn 0.0541389 0.341519 0.938314 
vn 0.267528 0.329554 0.905441 
vn 0.161782 0.337515 0.927314 
vn 0.370138 0.317729 0.872953 
vn 0.267528 0.329554 0.905441 
vn 0.468408 0.302179 0.83023 
vn 0.370138 0.317729 0.872953 
vn 0.561187 0.283086 0.777773 
vn 0.468408 0.302179 0.83023 
vn 0.647386 0.260675 0.716198 
vn 0.561187 0.283086 0.777773 
vn 0.725995 0.235207 0.646226 
vn 0.647386 0.260675 0.716198 
vn 0.796093 0.206982 0.568678 
vn 0.725995 0.235207 0.646226 
vn 0.856857 0.17633 0.484462 
vn 0.796093 0.206982 0.568678 
vn 0.907575 0.143611 0.394567 
vn 0.856857 0.17633 0.484462 
vn 0.947653 0.109208 0.300045 
vn 0.907575 0.143611 0.394567 
vn 0.976621 0.0735242 0.202006 
vn 0.947653 0.109208 0.300045 
vn 0.994138 0.0369789 0.101599 
vn 0.976621 0.0735242 0.202006 
vn 1 8.48149e-14 4.88274e-14 
vn 0.994138 0.0369789 0.101599 
vn 0.994138 -0.0369789 -0.101599 
vn 1 8.48149e-14 4.88274e-14 
vn 0.976621 -0.0735242 -0.202006 
vn 0.994138 -0.0369789 -0.101599 
vn 0.947653 -0.109208 -0.300045 
vn 0.976621 -0.0735242 -0.202006 
vn 0.907575 -0.143611 -0.394567 
vn 0.947653 -0.109208 -0.300045 
vn 0.856857 -0.17633 -0.484462 
vn 0.907575 -0.143611 -0.394567 
vn 0.796093 -0.206982 -0.568678 
vn 0.856857 -0.17633 -0.484462 
vn 0.725995 -0.235207 -0.646226 
vn 0.796093 -0.206982 -0.568678 
vn 0.647386 -0.260675 -0.716198 
vn 0.725995 -0.235207 -0.646226 
vn 0.561187 -0.283086 -0.777773 
vn 0.647386 -0.260675 -0.716198 
vn 0.468408 -0.302179 -0.83023 
vn 0.561187 -0.283086 -0.777773 
vn 0.370138 -0.317729 -0.872953 
vn 0.468408 -0.302179 -0.83023 
vn 0.267528 -0.329554 -0.905441 
vn 0.370138 -0.317729 -0.872953 
vn 0.161782 -0.337515 -0.927314 
vn 0.267528 -0.329554 -0.905441 
vn 0.0541389 -0.341519 -0.938314 
vn 0.161782 -0.337515 -0.927314 
vn -0.0541389 -0.341519 -0.938314 
vn 0.0541389 -0.341519 -0.938314 
vn -0.161782 -0.337515 -0.927314 
vn -0.0541389 -0.341519 -0.938314 
vn -0.267528 -0.329554 -0.905441 
vn -0.161782 -0.337515 -0.927314 
vn -0.370138 -0.317729 -0.872953 
vn -0.267528 -0.329554 -0.905441 
vn -0.468408 -0.302179 -0.83023 
vn -0.370138 -0.317729 -0.872953 
vn -0.561187 -0.283086 -0.777773 
vn -0.468408 -0.302179 -0.83023 
vn -0.647386 -0.260675 -0.716198 
vn -0.561187 -0.283086 -0.777773 
vn -0.725995 -0.235207 -0.646226 
vn -0.647386 -0.260675 -0.716198 
vn -0.796093 -0.206982 -0.568678 
vn -0.725995 -0.235207 -0.646226 
vn -0.856857 -0.17633 -0.484462 
vn -0.796093 -0.206982 -0.568678 
vn -0.907575 -0.143611 -0.394567 
vn -0.856857 -0.17633 -0.484462 
vn -0.947653 -0.109208 -0.300045 
vn -0.907575 -0.143611 -0.394567 
vn -0.976621 -0.0735242 -0.202006 
vn -0.947653 -0.109208 -0.300045 
vn -0.994138 -0.0369789 -0.101599 
vn -0.976621 -0.0735242 -0.202006 
vn -0.994138 -0.0369789 -0.101599 
f 1//1 2//2 3//3 
f 4//4 1//1 5//5 
f 6//6 4//4 7//7 
f 8//8 6//6 9//9 
f 10//10 8//8 11//11 
f 12//12 10//10 13//13 
f 14//14 12//12 15//15 
f 16//16 14//14 17//17 
f 18//18 16//16 19//19 
f 20//20 18//18 21//21 
f 22//22 20//20 23//23 
f 24//24 22//22 25//25 
f 26//26 24//24 27//27 
f 28//28 26//26 29//29 
f 30//30 28//28 31//31 
f 32//32 30//30 33//33 
f 34//34 32//32 35//35 
f 36//36 34//34 37//37 
f 38//38 36//36 39//39 
f 40//40 38//38 41//41 
f 42//42 40//40 43//43 
f 44//44 42//42 45//45 
f 46//46 44//44 47//47 
f 48//48 46//46 49//49 
f 50//50 48//48 51//51 
f 52//52 50//50 53//53 
f 54//54 52//52 55//55 
f 56//56 54//54 57//57 
f 58//58 56//56 59//59 
f 60//60 58//58 61//61 
f 62//62 60//60 63//63 
f 64//64 62//62 65//65 
f 66//66 64//64 67//67 
f 68//68 66//66 69//69 
f 70//70 68//68 71//71 
f 72//72 70//70 73//73 
f 74//74 72//72 75//75 
f 76//76 74//74 77//77 
f 78//78 76//76 79//79 
f 80//80 78//78 81//81 
f 82//82 80//80 83//83 
f 84//84 82//82 85//85 
f 86//86 84//84 87//87 
f 88//88 86//86 89//89 
f 90//90 88//88 91//91 
f 92//92 90//90 93//93 
f 94//94 92//92 95//95 
f 96//96 94//94 97//97 
f 98//98 96//96 99//99 
f 100//100 98//98 101//101 
f 102//102 100//100 103//103 
f 104//104 102//102 105//105 
f 106//106 104//104 107//107 
f 108//108 106//106 109//109 
f 110//110 108//108 111//111 
f 112//112 110//110 113//113 
f 114//114 112//112 115//115 
f 2//2 114//114 116//116 
f 116//116 3//3 2//2 
f 115//115 116//116 114//114 
f 113//113 115//115 112//112 
f 111//111 113//113 110//110 
f 109//109 111//111 108//108 
f 107//107 109//109 106//106 
f 105//105 107//107 104//104 
f 103//103 105//105 102//102 
f 101//101 103//103 100//100 
f 99//99 101//101 98//98 
f 97//97 99//99 96//96 
f 95//95 97//97 94//94 
f 93//93 95//95 92//92 
f 91//91 93//93 90//90 
f 89//89 91//91 88//88 
f 87//87 89//89 86//86 
f 85//85 87//87 84//84 
f 83//83 85//85 82//82 
f 81//81 83//83 80//80 
f 79//79 81//81 78//78 
f 77//77 79//79 76//76 
f 75//75 77//77 74//74 
f 73//73 75//75 72//72 
f 71//71 73//73 70//70 
f 69//69 71//71 68//68 
f 67//67 69//69 66//66 
f 65//65 67//67 64//64 
f 63//63 65//65 62//62 
f 61//61 63//63 60//60 
f 59//59 61//61 58//58 
f 57//57 59//59 56//56 
f 55//55 57//57 54//54 
f 53//53 55//55 52//52 
f 51//51 53//53 50//50 
f 49//49 51//51 48//48 
f 47//47 49//49 46//46 
f 45//45 47//47 44//44 
f 43//43 45//45 42//42 
f 41//41 43//43 40//40 
f 39//39 41//41 38//38 
f 37//37 39//39 36//36 
f 35//35 37//37 34//34 
f 33//33 35//35 32//32 
f 31//31 33//33 30//30 
f 29//29 31//31 28//28 
f 27//27 29//29 26//26 
f 25//25 27//27 24//24 
f 23//23 25//25 22//22 
f 21//21 23//23 20//20 
f 19//19 21//21 18//18 
f 17//17 19//19 16//16 
f 15//15 17//17 14//14 
f 13//13 15//15 12//12 
f 11//11 13//13 10//10 
f 9//9 11//11 8//8 
f 7//7 9//9 6//6 
f 5//5 7//7 4//4 
f 3//3 5//5 1//1 
o mesh16162
v 0.00515 0.221365 0.0348108 
v 0.00515 0.177928 -0.0845302 
v -0.0331004 0.182739 -0.0713137 
v -0.035874 0.183382 -0.0695466 
v -0.0348471 0.215989 0.0200396 
v -0.0345277 0.216039 0.0201784 
v -0.036226 0.183382 -0.0695466 
v -0.0365758 0.215924 0.0198629 
v -0.036226 0.215911 0.0198272 
v -0.0348471 0.183305 -0.069759 
v -0.0351805 0.183343 -0.0696534 
v -0.0328 0.217021 0.0228767 
v -0.0332652 0.182845 -0.0710216 
v -0.032876 0.182511 -0.0719396 
v -0.0329701 0.182627 -0.0716209 
v -0.0336905 0.181508 -0.0746963 
v -0.0334627 0.181599 -0.0744443 
v -0.04565 0.177928 -0.0845302 
v -0.0392809 0.182152 -0.0729263 
v -0.039224 0.182033 -0.0732526 
v -0.0392809 0.182392 -0.0722659 
v -0.0393 0.182272 -0.0725961 
v -0.0391299 0.182627 -0.0716209 
v -0.039224 0.182511 -0.0719396 
v -0.0389996 0.182739 -0.0713137 
v -0.0342261 0.216101 0.0203489 
v -0.0355242 0.215924 0.0198629 
v -0.0351805 0.21595 0.019934 
v -0.033946 0.181425 -0.0749237 
v -0.0384095 0.183036 -0.0704959 
v -0.0386373 0.182945 -0.0707479 
v -0.0369195 0.183343 -0.0696534 
v -0.0372529 0.183305 -0.069759 
v -0.0336905 0.216257 0.0207764 
v -0.0334627 0.216349 0.0210285 
v -0.035874 0.215911 0.0198272 
v -0.0328191 0.217141 0.0232069 
v -0.032876 0.21726 0.0235332 
v -0.0334627 0.182945 -0.0707479 
v -0.0328 0.182272 -0.0725961 
v -0.0328191 0.182392 -0.0722659 
v -0.0331004 0.181805 -0.0738784 
v -0.0329701 0.181917 -0.0735712 
v -0.0332652 0.181699 -0.0741706 
v -0.0355242 0.181175 -0.0756099 
v -0.0351805 0.181201 -0.0755388 
v -0.0365758 0.181175 -0.0756099 
v -0.036226 0.181162 -0.0756456 
v -0.0391299 0.181917 -0.0735712 
v -0.0389996 0.181805 -0.0738784 
v -0.0388348 0.182845 -0.0710216 
v -0.0375723 0.183254 -0.0698978 
v -0.0365758 0.183369 -0.0695823 
v -0.033946 0.216174 0.020549 
v -0.0342261 0.217941 0.0254044 
v -0.0345277 0.218003 0.0255749 
v -0.0334627 0.217694 0.0247249 
v -0.0336905 0.217786 0.0249769 
v -0.0329701 0.217376 0.0238518 
v -0.0331004 0.217488 0.024159 
v -0.0355242 0.183369 -0.0695823 
v -0.0336905 0.183036 -0.0704959 
v -0.033946 0.183119 -0.0702684 
v -0.032876 0.182033 -0.0732526 
v -0.0328191 0.182152 -0.0729263 
v -0.0345277 0.18129 -0.0752943 
v -0.0342261 0.181352 -0.0751239 
v -0.035874 0.181162 -0.0756456 
v -0.0384095 0.181508 -0.0746963 
v -0.038154 0.181425 -0.0749237 
v -0.0388348 0.181699 -0.0741706 
v -0.0378739 0.183192 -0.0700683 
v -0.038154 0.183119 -0.0702684 
v -0.04565 0.221365 0.0348108 
v -0.0372529 0.218054 0.0257138 
v -0.0375723 0.218003 0.0255749 
v -0.033946 0.217868 0.0252043 
v -0.0332652 0.217594 0.0244512 
v -0.0348471 0.181239 -0.0754332 
v -0.0375723 0.18129 -0.0752943 
v -0.0372529 0.181239 -0.0754332 
v -0.0378739 0.181352 -0.0751239 
v -0.0386373 0.181599 -0.0744443 
v -0.0332652 0.216448 0.0213022 
v -0.0384095 0.217786 0.0249769 
v -0.0386373 0.217694 0.0247249 
v -0.0369195 0.218092 0.0258194 
v -0.0342261 0.183192 -0.0700683 
v -0.0345277 0.183254 -0.0698978 
v -0.0369195 0.181201 -0.0755388 
v -0.0392809 0.216901 0.0225465 
v -0.039224 0.216782 0.0222202 
v -0.038154 0.217868 0.0252043 
v -0.0365758 0.218118 0.0258904 
v -0.0348471 0.218054 0.0257138 
v -0.0351805 0.218092 0.0258194 
v -0.0384095 0.216257 0.0207764 
v -0.038154 0.216174 0.020549 
v -0.0389996 0.216555 0.0215943 
v -0.0388348 0.216448 0.0213022 
v -0.0391299 0.216666 0.0219015 
v -0.0393 0.217021 0.0228767 
v -0.039224 0.21726 0.0235332 
v -0.0392809 0.217141 0.0232069 
v -0.0389996 0.217488 0.024159 
v -0.0391299 0.217376 0.0238518 
v -0.0388348 0.217594 0.0244512 
v -0.0378739 0.217941 0.0254044 
v -0.0329701 0.216666 0.0219015 
v -0.032876 0.216782 0.0222202 
v -0.0331004 0.216555 0.0215943 
v -0.0375723 0.216039 0.0201784 
v -0.0372529 0.215989 0.0200396 
v -0.0378739 0.216101 0.0203489 
v -0.0386373 0.216349 0.0210285 
v -0.035874 0.218131 0.0259262 
v -0.036226 0.218131 0.0259262 
v -0.0355242 0.218118 0.0258904 
v -0.0369195 0.21595 0.019934 
v -0.0328191 0.216901 0.0225465 
vn -6.3e-14 0.939693 -0.34202 
vn -6.3e-14 0.939693 -0.34202 
vn -6.3e-14 0.939693 -0.34202 
vn -6.3e-14 0.939693 -0.34202 
vn -6.3e-14 0.939693 -0.34202 
vn -6.3e-14 0.939693 -0.34202 
vn -6.3e-14 0.939693 -0.34202 
vn -6.3e-14 0.939693 -0.34202 
vn -6.3e-14 0.939693 -0.34202 
vn -6.3e-14 0.939693 -0.34202 
vn -6.3e-14 0.939693 -0.34202 
vn -6.3e-14 0.939693 -0.34202 
vn -6.3e-14 0.939693 -0.34202 
vn -6.3e-14 0.939693 -0.34202 
vn -6.3e-14 0.939693 -0.34202 
vn -6.3e-14 0.939693 -0.34202 
vn -6.3e-14 0.939693 -0.34202 
vn -6.3e-14 0.939693 -0.34202 
vn -6.3e-14 0.939693 -0.34202 
vn -6.3e-14 0.939693 -0.34202 
vn -6.3e-14 0.939693 -0.34202 
vn -6.3e-14 0.939693 -0.34202 
vn -6.3e-14 0.939693 -0.34202 
vn -6.3e-14 0.939693 -0.34202 
vn -6.3e-14 0.939693 -0.34202 
vn -6.3e-14 0.939693 -0.34202 
vn -6.3e-14 0.939693 -0.34202 
vn -6.3e-14 0.939693 -0.34202 
vn -6.3e-14 0.939693 -0.34202 
vn -6.3e-14 0.939693 -0.34202 
vn -6.3e-14 0.939693 -0.34202 
vn -6.3e-14 0.939693 -0.34202 
vn -6.3e-14 0.939693 -0.34202 
vn -6.3e-14 0.939693 -0.34202 
vn -6.3e-14 0.939693 -0.34202 
vn -6.3e-14 0.939693 -0.34202 
vn -6.3e-14 0.939693 -0.34202 
vn -6.3e-14 0.939693 -0.34202 
vn -6.3e-14 0.939693 -0.34202 
vn -6.3e-14 0.939693 -0.34202 
vn -6.3e-14 0.939693 -0.34202 
vn -6.3e-14 0.939693 -0.34202 
vn -6.3e-14 0.939693 -0.34202 
vn -6.3e-14 0.939693 -0.34202 
vn -6.3e-14 0.939693 -0.34202 
vn -6.3e-14 0.939693 -0.34202 
vn -6.3e-14 0.939693 -0.34202 
vn -6.3e-14 0.939693 -0.34202 
vn -6.3e-14 0.939693 -0.34202 
vn -6.3e-14 0.939693 -0.34202 
vn -6.3e-14 0.939693 -0.34202 
vn -6.3e-14 0.939693 -0.34202 
vn -6.3e-14 0.939693 -0.34202 
vn -6.3e-14 0.939693 -0.34202 
vn -6.3e-14 0.939693 -0.34202 
vn -6.3e-14 0.939693 -0.34202 
vn -6.3e-14 0.939693 -0.34202 
vn -6.3e-14 0.939693 -0.34202 
vn -6.3e-14 0.939693 -0.34202 
vn -6.3e-14 0.939693 -0.34202 
vn -6.3e-14 0.939693 -0.34202 
vn -6.3e-14 0.939693 -0.34202 
vn -6.3e-14 0.939693 -0.34202 
vn -6.3e-14 0.939693 -0.34202 
vn -6.3e-14 0.939693 -0.34202 
vn -6.3e-14 0.939693 -0.34202 
vn -6.3e-14 0.939693 -0.34202 
vn -6.3e-14 0.939693 -0.34202 
vn -6.3e-14 0.939693 -0.34202 
vn -6.3e-14 0.939693 -0.34202 
vn -6.3e-14 0.939693 -0.34202 
vn -6.3e-14 0.939693 -0.34202 
vn -6.3e-14 0.939693 -0.34202 
vn -6.3e-14 0.939693 -0.34202 
vn -6.3e-14 0.939693 -0.34202 
vn -6.3e-14 0.939693 -0.34202 
vn -6.3e-14 0.939693 -0.34202 
vn -6.3e-14 0.939693 -0.34202 
vn -6.3e-14 0.939693 -0.34202 
vn -6.3e-14 0.939693 -0.34202 
vn -6.3e-14 0.939693 -0.34202 
vn -6.3e-14 0.939693 -0.34202 
vn -6.3e-14 0.939693 -0.34202 
vn -6.3e-14 0.939693 -0.34202 
vn -6.3e-14 0.939693 -0.34202 
vn -6.3e-14 0.939693 -0.34202 
vn -6.3e-14 0.939693 -0.34202 
vn -6.3e-14 0.939693 -0.34202 
vn -6.3e-14 0.939693 -0.34202 
vn -6.3e-14 0.939693 -0.34202 
vn -6.3e-14 0.939693 -0.34202 
vn -6.3e-14 0.939693 -0.34202 
vn -6.3e-14 0.939693 -0.34202 
vn -6.3e-14 0.939693 -0.34202 
vn -6.3e-14 0.939693 -0.34202 
vn -6.3e-14 0.939693 -0.34202 
vn -6.3e-14 0.939693 -0.34202 
vn -6.3e-14 0.939693 -0.34202 
vn -6.3e-14 0.939693 -0.34202 
vn -6.3e-14 0.939693 -0.34202 
vn -6.3e-14 0.939693 -0.34202 
vn -6.3e-14 0.939693 -0.34202 
vn -6.3e-14 0.939693 -0.34202 
vn -6.3e-14 0.939693 -0.34202 
vn -6.3e-14 0.939693 -0.34202 
vn -6.3e-14 0.939693 -0.34202 
vn -6.3e-14 0.939693 -0.34202 
vn -6.3e-14 0.939693 -0.34202 
vn -6.3e-14 0.939693 -0.34202 
vn -6.3e-14 0.939693 -0.34202 
vn -6.3e-14 0.939693 -0.34202 
vn -6.3e-14 0.939693 -0.34202 
vn -6.3e-14 0.939693 -0.34202 
vn -6.3e-14 0.939693 -0.34202 
vn -6.3e-14 0.939693 -0.34202 
vn -6.3e-14 0.939693 -0.34202 
vn -6.3e-14 0.939693 -0.34202 
vn -6.3e-14 0.939693 -0.34202 
vn -6.3e-14 0.939693 -0.34202 
vn -6.3e-14 0.939693 -0.34202 
f 117//117 118//118 119//119 
f 120//120 121//121 122//122 
f 123//123 124//124 125//125 
f 126//126 127//127 128//128 
f 119//119 129//129 117//117 
f 118//118 130//130 131//131 
f 118//118 132//132 133//133 
f 134//134 135//135 136//136 
f 134//134 137//137 138//138 
f 134//134 139//139 140//140 
f 124//124 141//141 139//139 
f 122//122 142//142 120//120 
f 120//120 143//143 144//144 
f 125//125 120//120 123//123 
f 128//128 117//117 126//126 
f 131//131 119//119 118//118 
f 118//118 145//145 132//132 
f 138//138 135//135 134//134 
f 139//139 134//134 124//124 
f 124//124 146//146 147//147 
f 124//124 148//148 149//149 
f 120//120 150//150 151//151 
f 144//144 121//121 120//120 
f 125//125 152//152 120//120 
f 117//117 153//153 154//154 
f 128//128 153//153 117//117 
f 129//129 155//155 117//117 
f 118//118 156//156 157//157 
f 118//118 158//158 159//159 
f 133//133 160//160 118//118 
f 134//134 161//161 162//162 
f 134//134 163//163 164//164 
f 134//134 165//165 166//166 
f 140//140 137//137 134//134 
f 147//147 167//167 124//124 
f 149//149 168//168 124//124 
f 124//124 123//123 169//169 
f 120//120 170//170 150//150 
f 152//152 143//143 120//120 
f 117//117 171//171 172//172 
f 117//117 173//173 174//174 
f 117//117 175//175 176//176 
f 127//127 177//177 128//128 
f 117//117 178//178 179//179 
f 157//157 130//130 118//118 
f 118//118 180//180 181//181 
f 160//160 158//158 118//118 
f 118//118 182//182 183//183 
f 162//162 118//118 134//134 
f 164//164 184//184 134//134 
f 134//134 185//185 186//186 
f 166//166 187//187 134//134 
f 167//167 141//141 124//124 
f 124//124 188//188 189//189 
f 169//169 148//148 124//124 
f 142//142 170//170 120//120 
f 190//190 191//191 192//192 
f 117//117 193//193 171//171 
f 117//117 194//194 173//173 
f 154//154 175//175 117//117 
f 155//155 178//178 117//117 
f 159//159 180//180 118//118 
f 118//118 195//195 182//182 
f 184//184 161//161 134//134 
f 134//134 196//196 197//197 
f 186//186 198//198 134//134 
f 187//187 199//199 134//134 
f 189//189 146//146 124//124 
f 151//151 200//200 120//120 
f 190//190 201//201 202//202 
f 190//190 203//203 191//191 
f 174//174 193//193 117//117 
f 176//176 194//194 117//117 
f 117//117 204//204 205//205 
f 181//181 156//156 118//118 
f 162//162 195//195 118//118 
f 197//197 206//206 134//134 
f 199//199 185//185 134//134 
f 168//168 188//188 124//124 
f 190//190 207//207 208//208 
f 190//190 209//209 201//201 
f 190//190 210//210 203//203 
f 117//117 211//211 212//212 
f 177//177 120//120 128//128 
f 179//179 204//204 117//117 
f 206//206 163//163 134//134 
f 136//136 165//165 134//134 
f 134//134 213//213 214//214 
f 134//134 215//215 216//216 
f 134//134 208//208 217//217 
f 190//190 218//218 207//207 
f 190//190 219//219 220//220 
f 190//190 221//221 222//222 
f 202//202 223//223 190//190 
f 192//192 224//224 190//190 
f 120//120 225//225 226//226 
f 120//120 200//200 227//227 
f 212//212 190//190 117//117 
f 205//205 126//126 117//117 
f 198//198 196//196 134//134 
f 134//134 228//228 229//229 
f 214//214 230//230 134//134 
f 216//216 231//231 134//134 
f 208//208 134//134 190//190 
f 222//222 219//219 190//190 
f 224//224 209//209 190//190 
f 190//190 232//232 233//233 
f 227//227 225//225 120//120 
f 212//212 234//234 190//190 
f 183//183 145//145 118//118 
f 229//229 235//235 134//134 
f 231//231 213//213 134//134 
f 220//220 218//218 190//190 
f 233//233 210//210 190//190 
f 226//226 236//236 120//120 
f 172//172 211//211 117//117 
f 230//230 228//228 134//134 
f 223//223 221//221 190//190 
f 234//234 232//232 190//190 
f 217//217 215//215 134//134 
f 235//235 124//124 134//134 
f 236//236 128//128 120//120 
o mesh16163
v 0.00515 0.215398 0.0369826 
v -0.0334627 0.211727 0.0268967 
v -0.0332652 0.211627 0.026623 
v -0.0328191 0.211174 0.0253787 
v -0.0328 0.211054 0.0250485 
v -0.0329701 0.211409 0.0260237 
v -0.032876 0.211293 0.025705 
v -0.0336905 0.211819 0.0271487 
v -0.0331004 0.211521 0.0263308 
v -0.0348471 0.210022 0.0222114 
v -0.0351805 0.209983 0.0221058 
v -0.0328 0.176305 -0.0704243 
v -0.0342261 0.211974 0.0275763 
v -0.033946 0.211901 0.0273762 
v 0.00515 0.171961 -0.0823584 
v -0.0331004 0.210588 0.0237662 
v -0.0348471 0.212087 0.0278856 
v -0.0345277 0.212036 0.0277468 
v -0.04565 0.215398 0.0369826 
v -0.0355242 0.212151 0.0280623 
v -0.0351805 0.212125 0.0279912 
v -0.0378739 0.211974 0.0275763 
v -0.0375723 0.212036 0.0277468 
v -0.039224 0.211293 0.025705 
v -0.0391299 0.211409 0.0260237 
v -0.04565 0.171961 -0.0823584 
v -0.0389996 0.210588 0.0237662 
v -0.0391299 0.210699 0.0240734 
v -0.0328191 0.176185 -0.0707545 
v -0.0329701 0.210699 0.0240734 
v -0.0328191 0.210934 0.0247183 
v -0.032876 0.210815 0.024392 
v -0.0372529 0.212087 0.0278856 
v -0.0392809 0.211174 0.0253787 
v -0.039224 0.210815 0.024392 
v -0.0392809 0.210934 0.0247183 
v -0.035874 0.209944 0.021999 
v -0.0331004 0.176772 -0.0691419 
v -0.0329701 0.17666 -0.0694491 
v -0.0334627 0.175632 -0.0722725 
v -0.0336905 0.175541 -0.0725245 
v -0.0355242 0.209957 0.0220347 
v -0.0365758 0.212151 0.0280623 
v -0.036226 0.212164 0.028098 
v -0.0369195 0.212125 0.0279912 
v -0.0384095 0.211819 0.0271487 
v -0.038154 0.211901 0.0273762 
v -0.0388348 0.211627 0.026623 
v -0.0386373 0.211727 0.0268967 
v -0.0393 0.211054 0.0250485 
v -0.0386373 0.210382 0.0232003 
v -0.0388348 0.210481 0.023474 
v -0.0375723 0.210072 0.0223503 
v -0.0378739 0.210134 0.0225207 
v -0.0365758 0.209957 0.0220347 
v -0.0369195 0.209983 0.0221058 
v -0.0332652 0.176878 -0.0688498 
v -0.0345277 0.177287 -0.067726 
v -0.0342261 0.177225 -0.0678965 
v -0.036226 0.209944 0.021999 
v -0.0365758 0.177402 -0.0674105 
v -0.036226 0.177415 -0.0673747 
v -0.039224 0.176544 -0.0697677 
v -0.0391299 0.17595 -0.0713994 
v -0.039224 0.176066 -0.0710808 
v -0.0332652 0.175732 -0.0719988 
v -0.032876 0.176066 -0.0710808 
v -0.0329701 0.17595 -0.0713994 
v -0.033946 0.210207 0.0227209 
v -0.0342261 0.210134 0.0225207 
v -0.0332652 0.210481 0.023474 
v -0.0334627 0.210382 0.0232003 
v -0.035874 0.212164 0.028098 
v -0.0389996 0.211521 0.0263308 
v -0.0384095 0.21029 0.0229483 
v -0.038154 0.210207 0.0227209 
v -0.0372529 0.210022 0.0222114 
v -0.032876 0.176544 -0.0697677 
v -0.0328191 0.176425 -0.0700941 
v -0.0334627 0.176978 -0.0685761 
v -0.033946 0.177152 -0.0680966 
v -0.035874 0.177415 -0.0673747 
v -0.0375723 0.177287 -0.067726 
v -0.0372529 0.177338 -0.0675872 
v -0.0388348 0.176878 -0.0688498 
v -0.0386373 0.176978 -0.0685761 
v -0.0391299 0.17666 -0.0694491 
v -0.0389996 0.176772 -0.0691419 
v -0.0392809 0.176425 -0.0700941 
v -0.0392809 0.176185 -0.0707545 
v -0.0388348 0.175732 -0.0719988 
v -0.0389996 0.175838 -0.0717066 
v -0.038154 0.175458 -0.0727519 
v -0.0384095 0.175541 -0.0725245 
v -0.0375723 0.175323 -0.0731225 
v -0.0378739 0.175385 -0.072952 
v -0.0348471 0.175272 -0.0732614 
v -0.0351805 0.175234 -0.0733669 
v -0.0331004 0.175838 -0.0717066 
v -0.0345277 0.210072 0.0223503 
v -0.0336905 0.21029 0.0229483 
v -0.0336905 0.177069 -0.068324 
v -0.0355242 0.177402 -0.0674105 
v -0.0351805 0.177376 -0.0674816 
v -0.0369195 0.177376 -0.0674816 
v -0.038154 0.177152 -0.0680966 
v -0.0378739 0.177225 -0.0678965 
v -0.0384095 0.177069 -0.068324 
v -0.0393 0.176305 -0.0704243 
v -0.0386373 0.175632 -0.0722725 
v -0.033946 0.175458 -0.0727519 
v -0.0342261 0.175385 -0.072952 
v -0.0348471 0.177338 -0.0675872 
v -0.0365758 0.175208 -0.073438 
v -0.0369195 0.175234 -0.0733669 
v -0.0355242 0.175208 -0.073438 
v -0.0345277 0.175323 -0.0731225 
v -0.0372529 0.175272 -0.0732614 
v -0.035874 0.175195 -0.0734738 
v -0.036226 0.175195 -0.0734738 
vn 6.3e-14 -0.939693 0.34202 
vn 6.3e-14 -0.939693 0.34202 
vn 6.3e-14 -0.939693 0.34202 
vn 6.3e-14 -0.939693 0.34202 
vn 6.3e-14 -0.939693 0.34202 
vn 6.3e-14 -0.939693 0.34202 
vn 6.3e-14 -0.939693 0.34202 
vn 6.3e-14 -0.939693 0.34202 
vn 6.3e-14 -0.939693 0.34202 
vn 6.3e-14 -0.939693 0.34202 
vn 6.3e-14 -0.939693 0.34202 
vn 6.3e-14 -0.939693 0.34202 
vn 6.3e-14 -0.939693 0.34202 
vn 6.3e-14 -0.939693 0.34202 
vn 6.3e-14 -0.939693 0.34202 
vn 6.3e-14 -0.939693 0.34202 
vn 6.3e-14 -0.939693 0.34202 
vn 6.3e-14 -0.939693 0.34202 
vn 6.3e-14 -0.939693 0.34202 
vn 6.3e-14 -0.939693 0.34202 
vn 6.3e-14 -0.939693 0.34202 
vn 6.3e-14 -0.939693 0.34202 
vn 6.3e-14 -0.939693 0.34202 
vn 6.3e-14 -0.939693 0.34202 
vn 6.3e-14 -0.939693 0.34202 
vn 6.3e-14 -0.939693 0.34202 
vn 6.3e-14 -0.939693 0.34202 
vn 6.3e-14 -0.939693 0.34202 
vn 6.3e-14 -0.939693 0.34202 
vn 6.3e-14 -0.939693 0.34202 
vn 6.3e-14 -0.939693 0.34202 
vn 6.3e-14 -0.939693 0.34202 
vn 6.3e-14 -0.939693 0.34202 
vn 6.3e-14 -0.939693 0.34202 
vn 6.3e-14 -0.939693 0.34202 
vn 6.3e-14 -0.939693 0.34202 
vn 6.3e-14 -0.939693 0.34202 
vn 6.3e-14 -0.939693 0.34202 
vn 6.3e-14 -0.939693 0.34202 
vn 6.3e-14 -0.939693 0.34202 
vn 6.3e-14 -0.939693 0.34202 
vn 6.3e-14 -0.939693 0.34202 
vn 6.3e-14 -0.939693 0.34202 
vn 6.3e-14 -0.939693 0.34202 
vn 6.3e-14 -0.939693 0.34202 
vn 6.3e-14 -0.939693 0.34202 
vn 6.3e-14 -0.939693 0.34202 
vn 6.3e-14 -0.939693 0.34202 
vn 6.3e-14 -0.939693 0.34202 
vn 6.3e-14 -0.939693 0.34202 
vn 6.3e-14 -0.939693 0.34202 
vn 6.3e-14 -0.939693 0.34202 
vn 6.3e-14 -0.939693 0.34202 
vn 6.3e-14 -0.939693 0.34202 
vn 6.3e-14 -0.939693 0.34202 
vn 6.3e-14 -0.939693 0.34202 
vn 6.3e-14 -0.939693 0.34202 
vn 6.3e-14 -0.939693 0.34202 
vn 6.3e-14 -0.939693 0.34202 
vn 6.3e-14 -0.939693 0.34202 
vn 6.3e-14 -0.939693 0.34202 
vn 6.3e-14 -0.939693 0.34202 
vn 6.3e-14 -0.939693 0.34202 
vn 6.3e-14 -0.939693 0.34202 
vn 6.3e-14 -0.939693 0.34202 
vn 6.3e-14 -0.939693 0.34202 
vn 6.3e-14 -0.939693 0.34202 
vn 6.3e-14 -0.939693 0.34202 
vn 6.3e-14 -0.939693 0.34202 
vn 6.3e-14 -0.939693 0.34202 
vn 6.3e-14 -0.939693 0.34202 
vn 6.3e-14 -0.939693 0.34202 
vn 6.3e-14 -0.939693 0.34202 
vn 6.3e-14 -0.939693 0.34202 
vn 6.3e-14 -0.939693 0.34202 
vn 6.3e-14 -0.939693 0.34202 
vn 6.3e-14 -0.939693 0.34202 
vn 6.3e-14 -0.939693 0.34202 
vn 6.3e-14 -0.939693 0.34202 
vn 6.3e-14 -0.939693 0.34202 
vn 6.3e-14 -0.939693 0.34202 
vn 6.3e-14 -0.939693 0.34202 
vn 6.3e-14 -0.939693 0.34202 
vn 6.3e-14 -0.939693 0.34202 
vn 6.3e-14 -0.939693 0.34202 
vn 6.3e-14 -0.939693 0.34202 
vn 6.3e-14 -0.939693 0.34202 
vn 6.3e-14 -0.939693 0.34202 
vn 6.3e-14 -0.939693 0.34202 
vn 6.3e-14 -0.939693 0.34202 
vn 6.3e-14 -0.939693 0.34202 
vn 6.3e-14 -0.939693 0.34202 
vn 6.3e-14 -0.939693 0.34202 
vn 6.3e-14 -0.939693 0.34202 
vn 6.3e-14 -0.939693 0.34202 
vn 6.3e-14 -0.939693 0.34202 
vn 6.3e-14 -0.939693 0.34202 
vn 6.3e-14 -0.939693 0.34202 
vn 6.3e-14 -0.939693 0.34202 
vn 6.3e-14 -0.939693 0.34202 
vn 6.3e-14 -0.939693 0.34202 
vn 6.3e-14 -0.939693 0.34202 
vn 6.3e-14 -0.939693 0.34202 
vn 6.3e-14 -0.939693 0.34202 
vn 6.3e-14 -0.939693 0.34202 
vn 6.3e-14 -0.939693 0.34202 
vn 6.3e-14 -0.939693 0.34202 
vn 6.3e-14 -0.939693 0.34202 
vn 6.3e-14 -0.939693 0.34202 
vn 6.3e-14 -0.939693 0.34202 
vn 6.3e-14 -0.939693 0.34202 
vn 6.3e-14 -0.939693 0.34202 
vn 6.3e-14 -0.939693 0.34202 
vn 6.3e-14 -0.939693 0.34202 
vn 6.3e-14 -0.939693 0.34202 
vn 6.3e-14 -0.939693 0.34202 
vn 6.3e-14 -0.939693 0.34202 
vn 6.3e-14 -0.939693 0.34202 
vn 6.3e-14 -0.939693 0.34202 
vn 6.3e-14 -0.939693 0.34202 
f 237//237 238//238 239//239 
f 237//237 240//240 241//241 
f 237//237 242//242 243//243 
f 237//237 244//244 238//238 
f 243//243 240//240 237//237 
f 239//239 245//245 237//237 
f 246//246 247//247 248//248 
f 245//245 242//242 237//237 
f 237//237 249//249 250//250 
f 248//248 251//251 246//246 
f 251//251 237//237 252//252 
f 250//250 244//244 237//237 
f 237//237 253//253 254//254 
f 255//255 256//256 257//257 
f 255//255 258//258 259//259 
f 255//255 260//260 261//261 
f 262//262 263//263 264//264 
f 248//248 265//265 251//251 
f 237//237 266//266 252//252 
f 237//237 267//267 268//268 
f 254//254 249//249 237//237 
f 257//257 237//237 255//255 
f 259//259 269//269 255//255 
f 255//255 270//270 260//260 
f 255//255 271//271 272//272 
f 264//264 255//255 262//262 
f 273//273 274//274 275//275 
f 251//251 276//276 277//277 
f 247//247 278//278 248//248 
f 268//268 266//266 237//237 
f 257//257 253//253 237//237 
f 255//255 279//279 280//280 
f 269//269 281//281 255//255 
f 255//255 282//282 283//283 
f 255//255 284//284 285//285 
f 255//255 286//286 270//270 
f 264//264 271//271 255//255 
f 262//262 287//287 288//288 
f 262//262 289//289 290//290 
f 262//262 291//291 292//292 
f 273//273 293//293 274//274 
f 273//273 294//294 295//295 
f 296//296 297//297 298//298 
f 291//291 262//262 299//299 
f 262//262 300//300 301//301 
f 251//251 302//302 276//276 
f 251//251 303//303 304//304 
f 278//278 273//273 248//248 
f 251//251 305//305 306//306 
f 251//251 307//307 308//308 
f 241//241 267//267 237//237 
f 280//280 309//309 255//255 
f 283//283 258//258 255//255 
f 255//255 310//310 284//284 
f 272//272 286//286 255//255 
f 262//262 311//311 287//287 
f 290//290 312//312 262//262 
f 292//292 313//313 262//262 
f 273//273 314//314 315//315 
f 273//273 316//316 293//293 
f 295//295 317//317 273//273 
f 273//273 298//298 318//318 
f 298//298 273//273 296//296 
f 291//291 319//319 320//320 
f 291//291 321//321 322//322 
f 291//291 323//323 324//324 
f 262//262 325//325 299//299 
f 301//301 326//326 262//262 
f 262//262 327//327 328//328 
f 262//262 329//329 330//330 
f 262//262 331//331 332//332 
f 251//251 333//333 334//334 
f 251//251 335//335 302//302 
f 265//265 303//303 251//251 
f 306//306 336//336 251//251 
f 308//308 337//337 251//251 
f 309//309 256//256 255//255 
f 285//285 282//282 255//255 
f 288//288 263//263 262//262 
f 313//313 289//289 262//262 
f 275//275 314//314 273//273 
f 317//317 338//338 273//273 
f 273//273 339//339 340//340 
f 296//296 291//291 297//297 
f 320//320 341//341 291//291 
f 291//291 342//342 343//343 
f 322//322 344//344 291//291 
f 299//299 323//323 291//291 
f 326//326 345//345 262//262 
f 262//262 346//346 327//327 
f 332//332 329//329 262//262 
f 334//334 262//262 251//251 
f 251//251 347//347 348//348 
f 304//304 335//335 251//251 
f 337//337 305//305 251//251 
f 281//281 279//279 255//255 
f 312//312 311//311 262//262 
f 338//338 316//316 273//273 
f 340//340 349//349 273//273 
f 341//341 297//297 291//291 
f 344//344 342//342 291//291 
f 345//345 325//325 262//262 
f 330//330 346//346 262//262 
f 262//262 350//350 351//351 
f 334//334 352//352 262//262 
f 348//348 353//353 251//251 
f 336//336 246//246 251//251 
f 261//261 310//310 255//255 
f 349//349 294//294 273//273 
f 343//343 319//319 291//291 
f 328//328 300//300 262//262 
f 351//351 354//354 262//262 
f 353//353 333//333 251//251 
f 252//252 307//307 251//251 
f 318//318 339//339 273//273 
f 354//354 331//331 262//262 
f 277//277 347//347 251//251 
f 324//324 321//321 291//291 
f 315//315 248//248 273//273 
f 262//262 355//355 356//356 
f 356//356 350//350 262//262 
f 352//352 355//355 262//262 
o mesh16164
v -0.04565 0.171961 -0.0823584 
v -0.04565 0.177928 -0.0845302 
v 0.00515 0.177928 -0.0845302 
v 0.00515 0.171961 -0.0823584 
vn 7.30624e-14 -0.34202 -0.939693 
vn 7.30624e-14 -0.34202 -0.939693 
vn 7.30624e-14 -0.34202 -0.939693 
vn 7.30624e-14 -0.34202 -0.939693 
f 357//357 358//358 359//359 
f 359//359 360//360 357//357 
o mesh16165
v 0.00515 0.171961 -0.0823584 
v 0.00515 0.177928 -0.0845302 
v 0.00515 0.221365 0.0348108 
v 0.00515 0.215398 0.0369826 
vn 1 8.42493e-14 4.72732e-14 
vn 1 8.42493e-14 4.72732e-14 
vn 1 8.42493e-14 4.72732e-14 
vn 1 8.42493e-14 4.72732e-14 
f 361//361 362//362 363//363 
f 363//363 364//364 361//361 
o mesh16166
v -0.04565 0.221365 0.0348108 
v -0.04565 0.215398 0.0369826 
v 0.00515 0.215398 0.0369826 
v 0.00515 0.221365 0.0348108 
vn -7.32373e-14 0.34202 0.939693 
vn -7.32373e-14 0.34202 0.939693 
vn -7.32373e-14 0.34202 0.939693 
vn -7.32373e-14 0.34202 0.939693 
f 365//365 366//366 367//367 
f 367//367 368//368 365//365 
o mesh16167
v -0.04565 0.215398 0.0369826 
v -0.04565 0.221365 0.0348108 
v -0.04565 0.177928 -0.0845302 
v -0.04565 0.171961 -0.0823584 
vn -1 -8.42493e-14 -4.72732e-14 
vn -1 -8.42493e-14 -4.72732e-14 
vn -1 -8.42493e-14 -4.72732e-14 
vn -1 -8.42493e-14 -4.72732e-14 
f 369//369 370//370 371//371 
f 371//371 372//372 369//369 
o mesh16168
v -0.0328191 0.176185 -0.0707545 
v -0.0328 0.176305 -0.0704243 
v -0.0328 0.182272 -0.0725961 
v -0.032876 0.176066 -0.0710808 
v -0.0328191 0.182152 -0.0729263 
v -0.0329701 0.17595 -0.0713994 
v -0.032876 0.182033 -0.0732526 
v -0.0331004 0.175838 -0.0717066 
v -0.0329701 0.181917 -0.0735712 
v -0.0332652 0.175732 -0.0719988 
v -0.0331004 0.181805 -0.0738784 
v -0.0334627 0.175632 -0.0722725 
v -0.0332652 0.181699 -0.0741706 
v -0.0336905 0.175541 -0.0725245 
v -0.0334627 0.181599 -0.0744443 
v -0.033946 0.175458 -0.0727519 
v -0.0336905 0.181508 -0.0746963 
v -0.0342261 0.175385 -0.072952 
v -0.033946 0.181425 -0.0749237 
v -0.0345277 0.175323 -0.0731225 
v -0.0342261 0.181352 -0.0751239 
v -0.0348471 0.175272 -0.0732614 
v -0.0345277 0.18129 -0.0752943 
v -0.0351805 0.175234 -0.0733669 
v -0.0348471 0.181239 -0.0754332 
v -0.0355242 0.175208 -0.073438 
v -0.0351805 0.181201 -0.0755388 
v -0.035874 0.175195 -0.0734738 
v -0.0355242 0.181175 -0.0756099 
v -0.036226 0.175195 -0.0734738 
v -0.035874 0.181162 -0.0756456 
v -0.0365758 0.175208 -0.073438 
v -0.036226 0.181162 -0.0756456 
v -0.0369195 0.175234 -0.0733669 
v -0.0365758 0.181175 -0.0756099 
v -0.0372529 0.175272 -0.0732614 
v -0.0369195 0.181201 -0.0755388 
v -0.0375723 0.175323 -0.0731225 
v -0.0372529 0.181239 -0.0754332 
v -0.0378739 0.175385 -0.072952 
v -0.0375723 0.18129 -0.0752943 
v -0.038154 0.175458 -0.0727519 
v -0.0378739 0.181352 -0.0751239 
v -0.0384095 0.175541 -0.0725245 
v -0.038154 0.181425 -0.0749237 
v -0.0386373 0.175632 -0.0722725 
v -0.0384095 0.181508 -0.0746963 
v -0.0388348 0.175732 -0.0719988 
v -0.0386373 0.181599 -0.0744443 
v -0.0389996 0.175838 -0.0717066 
v -0.0388348 0.181699 -0.0741706 
v -0.0391299 0.17595 -0.0713994 
v -0.0389996 0.181805 -0.0738784 
v -0.039224 0.176066 -0.0710808 
v -0.0391299 0.181917 -0.0735712 
v -0.0392809 0.176185 -0.0707545 
v -0.039224 0.182033 -0.0732526 
v -0.0393 0.176305 -0.0704243 
v -0.0392809 0.182152 -0.0729263 
v -0.0392809 0.176425 -0.0700941 
v -0.0393 0.182272 -0.0725961 
v -0.039224 0.176544 -0.0697677 
v -0.0392809 0.182392 -0.0722659 
v -0.0391299 0.17666 -0.0694491 
v -0.039224 0.182511 -0.0719396 
v -0.0389996 0.176772 -0.0691419 
v -0.0391299 0.182627 -0.0716209 
v -0.0388348 0.176878 -0.0688498 
v -0.0389996 0.182739 -0.0713137 
v -0.0386373 0.176978 -0.0685761 
v -0.0388348 0.182845 -0.0710216 
v -0.0384095 0.177069 -0.068324 
v -0.0386373 0.182945 -0.0707479 
v -0.038154 0.177152 -0.0680966 
v -0.0384095 0.183036 -0.0704959 
v -0.0378739 0.177225 -0.0678965 
v -0.038154 0.183119 -0.0702684 
v -0.0375723 0.177287 -0.067726 
v -0.0378739 0.183192 -0.0700683 
v -0.0372529 0.177338 -0.0675872 
v -0.0375723 0.183254 -0.0698978 
v -0.0369195 0.177376 -0.0674816 
v -0.0372529 0.183305 -0.069759 
v -0.0365758 0.177402 -0.0674105 
v -0.0369195 0.183343 -0.0696534 
v -0.036226 0.177415 -0.0673747 
v -0.0365758 0.183369 -0.0695823 
v -0.035874 0.177415 -0.0673747 
v -0.036226 0.183382 -0.0695466 
v -0.0355242 0.177402 -0.0674105 
v -0.035874 0.183382 -0.0695466 
v -0.0351805 0.177376 -0.0674816 
v -0.0355242 0.183369 -0.0695823 
v -0.0348471 0.177338 -0.0675872 
v -0.0351805 0.183343 -0.0696534 
v -0.0345277 0.177287 -0.067726 
v -0.0348471 0.183305 -0.069759 
v -0.0342261 0.177225 -0.0678965 
v -0.0345277 0.183254 -0.0698978 
v -0.033946 0.177152 -0.0680966 
v -0.0342261 0.183192 -0.0700683 
v -0.0336905 0.177069 -0.068324 
v -0.033946 0.183119 -0.0702684 
v -0.0334627 0.176978 -0.0685761 
v -0.0336905 0.183036 -0.0704959 
v -0.0332652 0.176878 -0.0688498 
v -0.0334627 0.182945 -0.0707479 
v -0.0331004 0.176772 -0.0691419 
v -0.0332652 0.182845 -0.0710216 
v -0.0329701 0.17666 -0.0694491 
v -0.0331004 0.182739 -0.0713137 
v -0.032876 0.176544 -0.0697677 
v -0.0329701 0.182627 -0.0716209 
v -0.0328191 0.176425 -0.0700941 
v -0.032876 0.182511 -0.0719396 
v -0.0328191 0.182392 -0.0722659 
vn -0.994138 0.0369789 0.101599 
vn -1 -8.42493e-14 -4.72732e-14 
vn -1 -8.42493e-14 -4.72732e-14 
vn -0.976621 0.0735242 0.202006 
vn -0.994138 0.0369789 0.101599 
vn -0.947653 0.109208 0.300045 
vn -0.976621 0.0735242 0.202006 
vn -0.907575 0.143611 0.394567 
vn -0.947653 0.109208 0.300045 
vn -0.856857 0.17633 0.484462 
vn -0.907575 0.143611 0.394567 
vn -0.796093 0.206982 0.568678 
vn -0.856857 0.17633 0.484462 
vn -0.725995 0.235207 0.646226 
vn -0.796093 0.206982 0.568678 
vn -0.647386 0.260675 0.716198 
vn -0.725995 0.235207 0.646226 
vn -0.561187 0.283086 0.777773 
vn -0.647386 0.260675 0.716198 
vn -0.468408 0.302179 0.83023 
vn -0.561187 0.283086 0.777773 
vn -0.370138 0.317729 0.872953 
vn -0.468408 0.302179 0.83023 
vn -0.267528 0.329554 0.905441 
vn -0.370138 0.317729 0.872953 
vn -0.161782 0.337515 0.927314 
vn -0.267528 0.329554 0.905441 
vn -0.0541389 0.341519 0.938314 
vn -0.161782 0.337515 0.927314 
vn 0.0541389 0.341519 0.938314 
vn -0.0541389 0.341519 0.938314 
vn 0.161782 0.337515 0.927314 
vn 0.0541389 0.341519 0.938314 
vn 0.267528 0.329554 0.905441 
vn 0.161782 0.337515 0.927314 
vn 0.370138 0.317729 0.872953 
vn 0.267528 0.329554 0.905441 
vn 0.468408 0.302179 0.83023 
vn 0.370138 0.317729 0.872953 
vn 0.561187 0.283086 0.777773 
vn 0.468408 0.302179 0.83023 
vn 0.647386 0.260675 0.716198 
vn 0.561187 0.283086 0.777773 
vn 0.725995 0.235207 0.646226 
vn 0.647386 0.260675 0.716198 
vn 0.796093 0.206982 0.568678 
vn 0.725995 0.235207 0.646226 
vn 0.856857 0.17633 0.484462 
vn 0.796093 0.206982 0.568678 
vn 0.907575 0.143611 0.394567 
vn 0.856857 0.17633 0.484462 
vn 0.947653 0.109208 0.300045 
vn 0.907575 0.143611 0.394567 
vn 0.976621 0.0735242 0.202006 
vn 0.947653 0.109208 0.300045 
vn 0.994138 0.0369789 0.101599 
vn 0.976621 0.0735242 0.202006 
vn 1 8.48149e-14 4.88274e-14 
vn 0.994138 0.0369789 0.101599 
vn 0.994138 -0.0369789 -0.101599 
vn 1 8.48149e-14 4.88274e-14 
vn 0.976621 -0.0735242 -0.202006 
vn 0.994138 -0.0369789 -0.101599 
vn 0.947653 -0.109208 -0.300045 
vn 0.976621 -0.0735242 -0.202006 
vn 0.907575 -0.143611 -0.394567 
vn 0.947653 -0.109208 -0.300045 
vn 0.856857 -0.17633 -0.484462 
vn 0.907575 -0.143611 -0.394567 
vn 0.796093 -0.206982 -0.568678 
vn 0.856857 -0.17633 -0.484462 
vn 0.725995 -0.235207 -0.646226 
vn 0.796093 -0.206982 -0.568678 
vn 0.647386 -0.260675 -0.716198 
vn 0.725995 -0.235207 -0.646226 
vn 0.561187 -0.283086 -0.777773 
vn 0.647386 -0.260675 -0.716198 
vn 0.468408 -0.302179 -0.83023 
vn 0.561187 -0.283086 -0.777773 
vn 0.370138 -0.317729 -0.872953 
vn 0.468408 -0.302179 -0.83023 
vn 0.267528 -0.329554 -0.905441 
vn 0.370138 -0.317729 -0.872953 
vn 0.161782 -0.337515 -0.927314 
vn 0.267528 -0.329554 -0.905441 
vn 0.0541389 -0.341519 -0.938314 
vn 0.161782 -0.337515 -0.927314 
vn -0.0541389 -0.341519 -0.938314 
vn 0.0541389 -0.341519 -0.938314 
vn -0.161782 -0.337515 -0.927314 
vn -0.0541389 -0.341519 -0.938314 
vn -0.267528 -0.329554 -0.905441 
vn -0.161782 -0.337515 -0.927314 
vn -0.370138 -0.317729 -0.872953 
vn -0.267528 -0.329554 -0.905441 
vn -0.468408 -0.302179 -0.83023 
vn -0.370138 -0.317729 -0.872953 
vn -0.561187 -0.283086 -0.777773 
vn -0.468408 -0.302179 -0.83023 
vn -0.647386 -0.260675 -0.716198 
vn -0.561187 -0.283086 -0.777773 
vn -0.725995 -0.235207 -0.646226 
vn -0.647386 -0.260675 -0.716198 
vn -0.796093 -0.206982 -0.568678 
vn -0.725995 -0.235207 -0.646226 
vn -0.856857 -0.17633 -0.484462 
vn -0.796093 -0.206982 -0.568678 
vn -0.907575 -0.143611 -0.394567 
vn -0.856857 -0.17633 -0.484462 
vn -0.947653 -0.109208 -0.300045 
vn -0.907575 -0.143611 -0.394567 
vn -0.976621 -0.0735242 -0.202006 
vn -0.947653 -0.109208 -0.300045 
vn -0.994138 -0.0369789 -0.101599 
vn -0.976621 -0.0735242 -0.202006 
vn -0.994138 -0.0369789 -0.101599 
f 373//373 374//374 375//375 
f 376//376 373//373 377//377 
f 378//378 376//376 379//379 
f 380//380 378//378 381//381 
f 382//382 380//380 383//383 
f 384//384 382//382 385//385 
f 386//386 384//384 387//387 
f 388//388 386//386 389//389 
f 390//390 388//388 391//391 
f 392//392 390//390 393//393 
f 394//394 392//392 395//395 
f 396//396 394//394 397//397 
f 398//398 396//396 399//399 
f 400//400 398//398 401//401 
f 402//402 400//400 403//403 
f 404//404 402//402 405//405 
f 406//406 404//404 407//407 
f 408//408 406//406 409//409 
f 410//410 408//408 411//411 
f 412//412 410//410 413//413 
f 414//414 412//412 415//415 
f 416//416 414//414 417//417 
f 418//418 416//416 419//419 
f 420//420 418//418 421//421 
f 422//422 420//420 423//423 
f 424//424 422//422 425//425 
f 426//426 424//424 427//427 
f 428//428 426//426 429//429 
f 430//430 428//428 431//431 
f 432//432 430//430 433//433 
f 434//434 432//432 435//435 
f 436//436 434//434 437//437 
f 438//438 436//436 439//439 
f 440//440 438//438 441//441 
f 442//442 440//440 443//443 
f 444//444 442//442 445//445 
f 446//446 444//444 447//447 
f 448//448 446//446 449//449 
f 450//450 448//448 451//451 
f 452//452 450//450 453//453 
f 454//454 452//452 455//455 
f 456//456 454//454 457//457 
f 458//458 456//456 459//459 
f 460//460 458//458 461//461 
f 462//462 460//460 463//463 
f 464//464 462//462 465//465 
f 466//466 464//464 467//467 
f 468//468 466//466 469//469 
f 470//470 468//468 471//471 
f 472//472 470//470 473//473 
f 474//474 472//472 475//475 
f 476//476 474//474 477//477 
f 478//478 476//476 479//479 
f 480//480 478//478 481//481 
f 482//482 480//480 483//483 
f 484//484 482//482 485//485 
f 486//486 484//484 487//487 
f 374//374 486//486 488//488 
f 488//488 375//375 374//374 
f 487//487 488//488 486//486 
f 485//485 487//487 484//484 
f 483//483 485//485 482//482 
f 481//481 483//483 480//480 
f 479//479 481//481 478//478 
f 477//477 479//479 476//476 
f 475//475 477//477 474//474 
f 473//473 475//475 472//472 
f 471//471 473//473 470//470 
f 469//469 471//471 468//468 
f 467//467 469//469 466//466 
f 465//465 467//467 464//464 
f 463//463 465//465 462//462 
f 461//461 463//463 460//460 
f 459//459 461//461 458//458 
f 457//457 459//459 456//456 
f 455//455 457//457 454//454 
f 453//453 455//455 452//452 
f 451//451 453//453 450//450 
f 449//449 451//451 448//448 
f 447//447 449//449 446//446 
f 445//445 447//447 444//444 
f 443//443 445//445 442//442 
f 441//441 443//443 440//440 
f 439//439 441//441 438//438 
f 437//437 439//439 436//436 
f 435//435 437//437 434//434 
f 433//433 435//435 432//432 
f 431//431 433//433 430//430 
f 429//429 431//431 428//428 
f 427//427 429//429 426//426 
f 425//425 427//427 424//424 
f 423//423 425//425 422//422 
f 421//421 423//423 420//420 
f 419//419 421//421 418//418 
f 417//417 419//419 416//416 
f 415//415 417//417 414//414 
f 413//413 415//415 412//412 
f 411//411 413//413 410//410 
f 409//409 411//411 408//408 
f 407//407 409//409 406//406 
f 405//405 407//407 404//404 
f 403//403 405//405 402//402 
f 401//401 403//403 400//400 
f 399//399 401//401 398//398 
f 397//397 399//399 396//396 
f 395//395 397//397 394//394 
f 393//393 395//395 392//392 
f 391//391 393//393 390//390 
f 389//389 391//391 388//388 
f 387//387 389//389 386//386 
f 385//385 387//387 384//384 
f 383//383 385//385 382//382 
f 381//381 383//383 380//380 
f 379//379 381//381 378//378 
f 377//377 379//379 376//376 
f 375//375 377//377 373//373 
