# OBJ generated by ONSHAPE BY PTC INC, 1.215 Units = meters
mtllib EBoxNewAsm_stp_1_Beelink_mini_PC_v4_stp_1_Beelink_mini_PC_v4_83_stp_1_solid1.mtl
g EBoxNewAsm.stp-1/Beelink mini PC v4.stp-1/Beelink mini PC v4-83.stp-1-solid1
usemtl 0.960784_0.960784_0.964706_0.000000_0.000000
o mesh13403
v 0.208177 0.161092 0.236142 
v 0.20882 0.159234 0.236818 
v 0.208582 0.159672 0.236659 
v 0.208395 0.160131 0.236492 
v 0.20815 0.161583 0.235963 
v 0.212627 0.15691 0.237664 
v 0.21211 0.156987 0.237636 
v 0.208259 0.160606 0.236319 
v 0.209434 0.158439 0.237108 
v 0.209105 0.158821 0.236969 
v 0.211605 0.157114 0.23759 
v 0.210211 0.157782 0.237347 
v 0.209804 0.158091 0.237234 
v 0.211116 0.157291 0.237526 
v 0.21065 0.157514 0.237444 
v 0.21315 0.156884 0.237674 
v 0.20815 0.183196 0.228097 
v 0.23615 0.156884 0.237674 
vn 5.09196e-14 -0.34202 -0.939693 
vn 5.09196e-14 -0.34202 -0.939693 
vn 5.09196e-14 -0.34202 -0.939693 
vn 5.09196e-14 -0.34202 -0.939693 
vn 5.09196e-14 -0.34202 -0.939693 
vn 5.09196e-14 -0.34202 -0.939693 
vn 5.09196e-14 -0.34202 -0.939693 
vn 5.09196e-14 -0.34202 -0.939693 
vn 5.09196e-14 -0.34202 -0.939693 
vn 5.09196e-14 -0.34202 -0.939693 
vn 5.09196e-14 -0.34202 -0.939693 
vn 5.09196e-14 -0.34202 -0.939693 
vn 5.09196e-14 -0.34202 -0.939693 
vn 5.09196e-14 -0.34202 -0.939693 
vn 5.09196e-14 -0.34202 -0.939693 
vn 5.09196e-14 -0.34202 -0.939693 
vn 5.09196e-14 -0.34202 -0.939693 
vn 5.09196e-14 -0.34202 -0.939693 
f 1//1 2//2 3//3 
f 3//3 4//4 1//1 
f 5//5 6//6 7//7 
f 4//4 8//8 1//1 
f 5//5 9//9 10//10 
f 7//7 11//11 5//5 
f 10//10 2//2 5//5 
f 5//5 12//12 13//13 
f 5//5 14//14 15//15 
f 5//5 16//16 6//6 
f 13//13 9//9 5//5 
f 11//11 14//14 5//5 
f 15//15 12//12 5//5 
f 1//1 5//5 2//2 
f 17//17 18//18 16//16 
f 5//5 17//17 16//16 
o mesh13404
v 0.23615 0.156884 0.237674 
v 0.20815 0.183196 0.228097 
v 0.20815 0.18323 0.228191 
v 0.23615 0.156919 0.237767 
vn 0.707107 0.664463 -0.241845 
vn 0.707107 0.664463 -0.241845 
vn 0.707107 0.664463 -0.241845 
vn 0.707107 0.664463 -0.241845 
f 19//19 20//20 21//21 
f 21//21 22//22 19//19 
usemtl 0.000000_0.000000_0.000000_0.000000_0.000000
o mesh13405
v 0.212627 0.156944 0.237758 
v 0.208395 0.160165 0.236586 
v 0.208582 0.159706 0.236753 
v 0.208177 0.161126 0.236236 
v 0.208259 0.16064 0.236413 
v 0.209434 0.158473 0.237202 
v 0.211116 0.157325 0.23762 
v 0.211605 0.157149 0.237684 
v 0.210211 0.157816 0.237441 
v 0.21065 0.157548 0.237538 
v 0.21211 0.157021 0.23773 
v 0.209804 0.158125 0.237328 
v 0.20882 0.159268 0.236912 
v 0.209105 0.158855 0.237063 
v 0.20815 0.161617 0.236057 
v 0.21315 0.156919 0.237767 
v 0.23615 0.156919 0.237767 
v 0.20815 0.18323 0.228191 
vn -5.09196e-14 0.34202 0.939693 
vn -5.09196e-14 0.34202 0.939693 
vn -5.09196e-14 0.34202 0.939693 
vn -5.09196e-14 0.34202 0.939693 
vn -5.09196e-14 0.34202 0.939693 
vn -5.09196e-14 0.34202 0.939693 
vn -5.09196e-14 0.34202 0.939693 
vn -5.09196e-14 0.34202 0.939693 
vn -5.09196e-14 0.34202 0.939693 
vn -5.09196e-14 0.34202 0.939693 
vn -5.09196e-14 0.34202 0.939693 
vn -5.09196e-14 0.34202 0.939693 
vn -5.09196e-14 0.34202 0.939693 
vn -5.09196e-14 0.34202 0.939693 
vn -5.09196e-14 0.34202 0.939693 
vn -5.09196e-14 0.34202 0.939693 
vn -5.09196e-14 0.34202 0.939693 
vn -5.09196e-14 0.34202 0.939693 
f 23//23 24//24 25//25 
f 23//23 26//26 27//27 
f 28//28 29//29 30//30 
f 28//28 31//31 32//32 
f 27//27 24//24 23//23 
f 30//30 33//33 28//28 
f 28//28 34//34 31//31 
f 23//23 35//35 36//36 
f 23//23 37//37 26//26 
f 32//32 29//29 28//28 
f 25//25 35//35 23//23 
f 36//36 28//28 23//23 
f 33//33 23//23 28//28 
f 23//23 38//38 37//37 
f 39//39 40//40 37//37 
f 38//38 39//39 37//37 
usemtl 0.960784_0.960784_0.964706_0.000000_0.000000
o mesh13406
v 0.20815 0.161583 0.235963 
v 0.20815 0.161617 0.236057 
v 0.20815 0.18323 0.228191 
v 0.20815 0.183196 0.228097 
vn -1 -1.73645e-14 -4.78673e-14 
vn -1 -1.73645e-14 -4.78673e-14 
vn -1 -1.73645e-14 -4.78673e-14 
vn -1 -1.73645e-14 -4.78673e-14 
f 41//41 42//42 43//43 
f 43//43 44//44 41//41 
o mesh13407
v 0.20815 0.161617 0.236057 
v 0.20815 0.161583 0.235963 
v 0.208177 0.161092 0.236142 
v 0.208177 0.161126 0.236236 
v 0.208259 0.160606 0.236319 
v 0.208259 0.16064 0.236413 
v 0.208395 0.160131 0.236492 
v 0.208395 0.160165 0.236586 
v 0.208582 0.159672 0.236659 
v 0.208582 0.159706 0.236753 
v 0.20882 0.159234 0.236818 
v 0.20882 0.159268 0.236912 
v 0.209105 0.158821 0.236969 
v 0.209105 0.158855 0.237063 
v 0.209434 0.158439 0.237108 
v 0.209434 0.158473 0.237202 
v 0.209804 0.158091 0.237234 
v 0.209804 0.158125 0.237328 
v 0.210211 0.157782 0.237347 
v 0.210211 0.157816 0.237441 
v 0.21065 0.157514 0.237444 
v 0.21065 0.157548 0.237538 
v 0.211116 0.157291 0.237526 
v 0.211116 0.157325 0.23762 
v 0.211605 0.157114 0.23759 
v 0.211605 0.157149 0.237684 
v 0.21211 0.156987 0.237636 
v 0.21211 0.157021 0.23773 
v 0.212627 0.15691 0.237664 
v 0.212627 0.156944 0.237758 
v 0.21315 0.156884 0.237674 
v 0.21315 0.156919 0.237767 
vn -1 -1.73645e-14 -4.78673e-14 
vn -1 -1.73645e-14 -4.78673e-14 
vn -0.994522 -0.0982246 0.0357508 
vn -0.994522 -0.0982246 0.0357508 
vn -0.978148 -0.195373 0.07111 
vn -0.978148 -0.195373 0.07111 
vn -0.951057 -0.290381 0.10569 
vn -0.951057 -0.290381 0.10569 
vn -0.913545 -0.382207 0.139112 
vn -0.913545 -0.382207 0.139112 
vn -0.866025 -0.469846 0.17101 
vn -0.866025 -0.469846 0.17101 
vn -0.809017 -0.552337 0.201034 
vn -0.809017 -0.552337 0.201034 
vn -0.743145 -0.628777 0.228856 
vn -0.743145 -0.628777 0.228856 
vn -0.669131 -0.698328 0.25417 
vn -0.669131 -0.698328 0.25417 
vn -0.587785 -0.760227 0.2767 
vn -0.587785 -0.760227 0.2767 
vn -0.5 -0.813798 0.296198 
vn -0.5 -0.813798 0.296198 
vn -0.406737 -0.858452 0.312451 
vn -0.406737 -0.858452 0.312451 
vn -0.309017 -0.893701 0.32528 
vn -0.309017 -0.893701 0.32528 
vn -0.207912 -0.919158 0.334546 
vn -0.207912 -0.919158 0.334546 
vn -0.104528 -0.934545 0.340147 
vn -0.104528 -0.934545 0.340147 
vn 6.04901e-16 -0.939693 0.34202 
vn 6.04901e-16 -0.939693 0.34202 
f 45//45 46//46 47//47 
f 48//48 47//47 49//49 
f 50//50 49//49 51//51 
f 52//52 51//51 53//53 
f 54//54 53//53 55//55 
f 56//56 55//55 57//57 
f 58//58 57//57 59//59 
f 60//60 59//59 61//61 
f 62//62 61//61 63//63 
f 64//64 63//63 65//65 
f 66//66 65//65 67//67 
f 68//68 67//67 69//69 
f 70//70 69//69 71//71 
f 72//72 71//71 73//73 
f 74//74 73//73 75//75 
f 75//75 76//76 74//74 
f 73//73 74//74 72//72 
f 71//71 72//72 70//70 
f 69//69 70//70 68//68 
f 67//67 68//68 66//66 
f 65//65 66//66 64//64 
f 63//63 64//64 62//62 
f 61//61 62//62 60//60 
f 59//59 60//60 58//58 
f 57//57 58//58 56//56 
f 55//55 56//56 54//54 
f 53//53 54//54 52//52 
f 51//51 52//52 50//50 
f 49//49 50//50 48//48 
f 47//47 48//48 45//45 
o mesh13408
v 0.23615 0.156884 0.237674 
v 0.23615 0.156919 0.237767 
v 0.21315 0.156919 0.237767 
v 0.21315 0.156884 0.237674 
vn 6.04901e-16 -0.939693 0.34202 
vn 6.04901e-16 -0.939693 0.34202 
vn 6.04901e-16 -0.939693 0.34202 
vn 6.04901e-16 -0.939693 0.34202 
f 77//77 78//78 79//79 
f 79//79 80//80 77//77 
