# OBJ generated by ONSHAPE BY PTC INC, 1.215 Units = meters
mtllib EBoxNewAsm_stp_1_Beelink_mini_PC_v4_stp_1_Beelink_mini_PC_v4_53_stp_1_solid1.mtl
g EBoxNewAsm.stp-1/Beelink mini PC v4.stp-1/Beelink mini PC v4-53.stp-1-solid1
usemtl 0.964706_0.964706_0.952941_0.000000_0.000000
o mesh6237
v 0.20765 0.175481 0.212333 
v 0.20765 0.17523 0.212084 
v 0.20765 0.175697 0.211849 
v 0.20765 0.175007 0.21181 
v 0.20765 0.175497 0.211628 
v 0.20765 0.174416 0.209467 
v 0.20765 0.174482 0.20912 
v 0.20765 0.174937 0.209381 
v 0.20765 0.174586 0.208782 
v 0.20765 0.175009 0.209092 
v 0.20765 0.174725 0.208458 
v 0.20765 0.175112 0.208812 
v 0.20765 0.174899 0.20815 
v 0.20765 0.175245 0.208544 
v 0.20765 0.176864 0.206744 
v 0.20765 0.177128 0.207198 
v 0.20765 0.176838 0.207269 
v 0.20765 0.177211 0.206679 
v 0.20765 0.177424 0.207159 
v 0.20765 0.178267 0.206712 
v 0.20765 0.178313 0.207235 
v 0.20765 0.17802 0.207178 
v 0.20765 0.178609 0.2068 
v 0.20765 0.178598 0.207324 
v 0.20765 0.176057 0.212741 
v 0.20765 0.175758 0.212552 
v 0.20765 0.176162 0.212222 
v 0.20765 0.175919 0.212048 
v 0.20765 0.174815 0.211513 
v 0.20765 0.175322 0.211385 
v 0.20765 0.174657 0.211197 
v 0.20765 0.175175 0.211126 
v 0.20765 0.174534 0.210866 
v 0.20765 0.175057 0.210852 
v 0.20765 0.174447 0.210523 
v 0.20765 0.174969 0.210566 
v 0.20765 0.174399 0.210173 
v 0.20765 0.174912 0.210273 
v 0.20765 0.174388 0.20982 
v 0.20765 0.174888 0.209976 
v 0.20765 0.174896 0.209677 
v 0.20765 0.175342 0.2076 
v 0.20765 0.175605 0.207364 
v 0.20765 0.175805 0.20785 
v 0.20765 0.175892 0.207159 
v 0.20765 0.176038 0.207664 
v 0.20765 0.177563 0.206652 
v 0.20765 0.177723 0.207152 
v 0.20765 0.177917 0.206663 
v 0.20765 0.179256 0.207083 
v 0.20765 0.179131 0.207592 
v 0.20765 0.178871 0.207443 
v 0.20765 0.179552 0.207275 
v 0.20765 0.179372 0.207767 
v 0.20765 0.180673 0.211061 
v 0.20765 0.180154 0.21101 
v 0.20765 0.180259 0.210731 
v 0.20765 0.180529 0.211384 
v 0.20765 0.180019 0.211276 
v 0.20765 0.177402 0.213142 
v 0.20765 0.177051 0.213098 
v 0.20765 0.177276 0.212627 
v 0.20765 0.176707 0.213015 
v 0.20765 0.176375 0.212896 
v 0.20765 0.176697 0.212485 
v 0.20765 0.176422 0.212368 
v 0.20765 0.176201 0.206986 
v 0.20765 0.17629 0.207503 
v 0.20765 0.176526 0.206847 
v 0.20765 0.176558 0.207371 
v 0.20765 0.17894 0.206923 
v 0.20765 0.180879 0.209673 
v 0.20765 0.180387 0.209848 
v 0.20765 0.180365 0.20955 
v 0.20765 0.180885 0.210026 
v 0.20765 0.180376 0.210146 
v 0.20765 0.180852 0.210378 
v 0.20765 0.180333 0.210442 
v 0.20765 0.180781 0.210724 
v 0.20765 0.180351 0.211689 
v 0.20765 0.179855 0.211526 
v 0.20765 0.177574 0.21265 
v 0.20765 0.177755 0.213149 
v 0.20765 0.176983 0.212572 
v 0.20765 0.175105 0.207863 
v 0.20765 0.175406 0.208293 
v 0.20765 0.175593 0.208061 
v 0.20765 0.179826 0.207498 
v 0.20765 0.179593 0.207968 
v 0.20765 0.180074 0.20775 
v 0.20765 0.179791 0.208191 
v 0.20765 0.180481 0.208327 
v 0.20765 0.180109 0.208695 
v 0.20765 0.179964 0.208435 
v 0.20765 0.180635 0.208645 
v 0.20765 0.180225 0.208971 
v 0.20765 0.180753 0.208978 
v 0.20765 0.180311 0.209256 
v 0.20765 0.180835 0.209322 
v 0.20765 0.180141 0.211973 
v 0.20765 0.179666 0.211757 
v 0.20765 0.180293 0.208028 
v 0.20765 0.179901 0.212233 
v 0.20765 0.179453 0.211966 
v 0.20765 0.179634 0.212465 
vn 1 1.74155e-14 4.78488e-14 
vn 1 1.74155e-14 4.78488e-14 
vn 1 1.74155e-14 4.78488e-14 
vn 1 1.74155e-14 4.78488e-14 
vn 1 1.74155e-14 4.78488e-14 
vn 1 1.74155e-14 4.78488e-14 
vn 1 1.74155e-14 4.78488e-14 
vn 1 1.74155e-14 4.78488e-14 
vn 1 1.74155e-14 4.78488e-14 
vn 1 1.74155e-14 4.78488e-14 
vn 1 1.74155e-14 4.78488e-14 
vn 1 1.74155e-14 4.78488e-14 
vn 1 1.74155e-14 4.78488e-14 
vn 1 1.74155e-14 4.78488e-14 
vn 1 1.74155e-14 4.78488e-14 
vn 1 1.74155e-14 4.78488e-14 
vn 1 1.74155e-14 4.78488e-14 
vn 1 1.74155e-14 4.78488e-14 
vn 1 1.74155e-14 4.78488e-14 
vn 1 1.74155e-14 4.78488e-14 
vn 1 1.74155e-14 4.78488e-14 
vn 1 1.74155e-14 4.78488e-14 
vn 1 1.74155e-14 4.78488e-14 
vn 1 1.74155e-14 4.78488e-14 
vn 1 1.74155e-14 4.78488e-14 
vn 1 1.74155e-14 4.78488e-14 
vn 1 1.74155e-14 4.78488e-14 
vn 1 1.74155e-14 4.78488e-14 
vn 1 1.74155e-14 4.78488e-14 
vn 1 1.74155e-14 4.78488e-14 
vn 1 1.74155e-14 4.78488e-14 
vn 1 1.74155e-14 4.78488e-14 
vn 1 1.74155e-14 4.78488e-14 
vn 1 1.74155e-14 4.78488e-14 
vn 1 1.74155e-14 4.78488e-14 
vn 1 1.74155e-14 4.78488e-14 
vn 1 1.74155e-14 4.78488e-14 
vn 1 1.74155e-14 4.78488e-14 
vn 1 1.74155e-14 4.78488e-14 
vn 1 1.74155e-14 4.78488e-14 
vn 1 1.74155e-14 4.78488e-14 
vn 1 1.74155e-14 4.78488e-14 
vn 1 1.74155e-14 4.78488e-14 
vn 1 1.74155e-14 4.78488e-14 
vn 1 1.74155e-14 4.78488e-14 
vn 1 1.74155e-14 4.78488e-14 
vn 1 1.74155e-14 4.78488e-14 
vn 1 1.74155e-14 4.78488e-14 
vn 1 1.74155e-14 4.78488e-14 
vn 1 1.74155e-14 4.78488e-14 
vn 1 1.74155e-14 4.78488e-14 
vn 1 1.74155e-14 4.78488e-14 
vn 1 1.74155e-14 4.78488e-14 
vn 1 1.74155e-14 4.78488e-14 
vn 1 1.74155e-14 4.78488e-14 
vn 1 1.74155e-14 4.78488e-14 
vn 1 1.74155e-14 4.78488e-14 
vn 1 1.74155e-14 4.78488e-14 
vn 1 1.74155e-14 4.78488e-14 
vn 1 1.74155e-14 4.78488e-14 
vn 1 1.74155e-14 4.78488e-14 
vn 1 1.74155e-14 4.78488e-14 
vn 1 1.74155e-14 4.78488e-14 
vn 1 1.74155e-14 4.78488e-14 
vn 1 1.74155e-14 4.78488e-14 
vn 1 1.74155e-14 4.78488e-14 
vn 1 1.74155e-14 4.78488e-14 
vn 1 1.74155e-14 4.78488e-14 
vn 1 1.74155e-14 4.78488e-14 
vn 1 1.74155e-14 4.78488e-14 
vn 1 1.74155e-14 4.78488e-14 
vn 1 1.74155e-14 4.78488e-14 
vn 1 1.74155e-14 4.78488e-14 
vn 1 1.74155e-14 4.78488e-14 
vn 1 1.74155e-14 4.78488e-14 
vn 1 1.74155e-14 4.78488e-14 
vn 1 1.74155e-14 4.78488e-14 
vn 1 1.74155e-14 4.78488e-14 
vn 1 1.74155e-14 4.78488e-14 
vn 1 1.74155e-14 4.78488e-14 
vn 1 1.74155e-14 4.78488e-14 
vn 1 1.74155e-14 4.78488e-14 
vn 1 1.74155e-14 4.78488e-14 
vn 1 1.74155e-14 4.78488e-14 
vn 1 1.74155e-14 4.78488e-14 
vn 1 1.74155e-14 4.78488e-14 
vn 1 1.74155e-14 4.78488e-14 
vn 1 1.74155e-14 4.78488e-14 
vn 1 1.74155e-14 4.78488e-14 
vn 1 1.74155e-14 4.78488e-14 
vn 1 1.74155e-14 4.78488e-14 
vn 1 1.74155e-14 4.78488e-14 
vn 1 1.74155e-14 4.78488e-14 
vn 1 1.74155e-14 4.78488e-14 
vn 1 1.74155e-14 4.78488e-14 
vn 1 1.74155e-14 4.78488e-14 
vn 1 1.74155e-14 4.78488e-14 
vn 1 1.74155e-14 4.78488e-14 
vn 1 1.74155e-14 4.78488e-14 
vn 1 1.74155e-14 4.78488e-14 
vn 1 1.74155e-14 4.78488e-14 
vn 1 1.74155e-14 4.78488e-14 
vn 1 1.74155e-14 4.78488e-14 
vn 1 1.74155e-14 4.78488e-14 
vn 1 1.74155e-14 4.78488e-14 
f 1//1 2//2 3//3 
f 2//2 4//4 5//5 
f 6//6 7//7 8//8 
f 7//7 9//9 10//10 
f 9//9 11//11 12//12 
f 11//11 13//13 14//14 
f 15//15 16//16 17//17 
f 18//18 19//19 16//16 
f 20//20 21//21 22//22 
f 23//23 24//24 21//21 
f 25//25 26//26 27//27 
f 26//26 1//1 28//28 
f 5//5 3//3 2//2 
f 4//4 29//29 30//30 
f 29//29 31//31 32//32 
f 31//31 33//33 34//34 
f 33//33 35//35 36//36 
f 35//35 37//37 38//38 
f 37//37 39//39 40//40 
f 39//39 6//6 41//41 
f 10//10 8//8 7//7 
f 14//14 12//12 11//11 
f 42//42 43//43 44//44 
f 43//43 45//45 46//46 
f 16//16 15//15 18//18 
f 47//47 48//48 19//19 
f 49//49 22//22 48//48 
f 21//21 20//20 23//23 
f 50//50 51//51 52//52 
f 53//53 54//54 51//51 
f 55//55 56//56 57//57 
f 58//58 59//59 56//56 
f 60//60 61//61 62//62 
f 63//63 64//64 65//65 
f 64//64 25//25 66//66 
f 28//28 27//27 26//26 
f 30//30 5//5 4//4 
f 34//34 32//32 31//31 
f 38//38 36//36 35//35 
f 41//41 40//40 39//39 
f 12//12 10//10 9//9 
f 46//46 44//44 43//43 
f 45//45 67//67 68//68 
f 67//67 69//69 70//70 
f 19//19 18//18 47//47 
f 22//22 49//49 20//20 
f 71//71 52//52 24//24 
f 51//51 50//50 53//53 
f 72//72 73//73 74//74 
f 75//75 76//76 73//73 
f 77//77 78//78 76//76 
f 79//79 57//57 78//78 
f 56//56 55//55 58//58 
f 80//80 81//81 59//59 
f 82//82 83//83 60//60 
f 61//61 63//63 84//84 
f 66//66 65//65 64//64 
f 3//3 28//28 1//1 
f 36//36 34//34 33//33 
f 8//8 41//41 6//6 
f 13//13 85//85 86//86 
f 85//85 42//42 87//87 
f 68//68 46//46 45//45 
f 69//69 17//17 70//70 
f 48//48 47//47 49//49 
f 52//52 71//71 50//50 
f 88//88 89//89 54//54 
f 90//90 91//91 89//89 
f 92//92 93//93 94//94 
f 95//95 96//96 93//93 
f 97//97 98//98 96//96 
f 99//99 74//74 98//98 
f 73//73 72//72 75//75 
f 78//78 77//77 79//79 
f 59//59 58//58 80//80 
f 100//100 101//101 81//81 
f 84//84 62//62 61//61 
f 27//27 66//66 25//25 
f 40//40 38//38 37//37 
f 87//87 86//86 85//85 
f 70//70 68//68 67//67 
f 24//24 23//23 71//71 
f 89//89 88//88 90//90 
f 102//102 94//94 91//91 
f 93//93 92//92 95//95 
f 98//98 97//97 99//99 
f 76//76 75//75 77//77 
f 81//81 80//80 100//100 
f 65//65 84//84 63//63 
f 86//86 14//14 13//13 
f 17//17 69//69 15//15 
f 91//91 90//90 102//102 
f 96//96 95//95 97//97 
f 57//57 79//79 55//55 
f 103//103 104//104 101//101 
f 32//32 30//30 29//29 
f 54//54 53//53 88//88 
f 74//74 99//99 72//72 
f 101//101 100//100 103//103 
f 44//44 87//87 42//42 
f 103//103 105//105 104//104 
f 94//94 102//102 92//92 
f 62//62 82//82 60//60 
o mesh6238
v 0.20665 0.179634 0.212465 
v 0.20765 0.179634 0.212465 
v 0.20765 0.179901 0.212233 
v 0.20665 0.179901 0.212233 
v 0.20765 0.180141 0.211973 
v 0.20665 0.180141 0.211973 
v 0.20765 0.180351 0.211689 
v 0.20665 0.180351 0.211689 
v 0.20765 0.180529 0.211384 
v 0.20665 0.180529 0.211384 
v 0.20765 0.180673 0.211061 
v 0.20665 0.180673 0.211061 
v 0.20765 0.180781 0.210724 
v 0.20665 0.180781 0.210724 
v 0.20765 0.180852 0.210378 
v 0.20665 0.180852 0.210378 
v 0.20765 0.180885 0.210026 
v 0.20665 0.180885 0.210026 
v 0.20765 0.180879 0.209673 
v 0.20665 0.180879 0.209673 
v 0.20765 0.180835 0.209322 
v 0.20665 0.180835 0.209322 
v 0.20765 0.180753 0.208978 
v 0.20665 0.180753 0.208978 
v 0.20765 0.180635 0.208645 
v 0.20665 0.180635 0.208645 
v 0.20765 0.180481 0.208327 
v 0.20665 0.180481 0.208327 
v 0.20765 0.180293 0.208028 
v 0.20665 0.180293 0.208028 
v 0.20765 0.180074 0.20775 
v 0.20665 0.180074 0.20775 
v 0.20765 0.179826 0.207498 
v 0.20665 0.179826 0.207498 
v 0.20765 0.179552 0.207275 
v 0.20665 0.179552 0.207275 
v 0.20765 0.179256 0.207083 
v 0.20665 0.179256 0.207083 
v 0.20765 0.17894 0.206923 
v 0.20665 0.17894 0.206923 
v 0.20765 0.178609 0.2068 
v 0.20665 0.178609 0.2068 
v 0.20765 0.178267 0.206712 
v 0.20665 0.178267 0.206712 
v 0.20765 0.177917 0.206663 
v 0.20665 0.177917 0.206663 
v 0.20765 0.177563 0.206652 
v 0.20665 0.177563 0.206652 
v 0.20765 0.177211 0.206679 
v 0.20665 0.177211 0.206679 
v 0.20765 0.176864 0.206744 
v 0.20665 0.176864 0.206744 
v 0.20765 0.176526 0.206847 
v 0.20665 0.176526 0.206847 
v 0.20765 0.176201 0.206986 
v 0.20665 0.176201 0.206986 
v 0.20765 0.175892 0.207159 
v 0.20665 0.175892 0.207159 
v 0.20765 0.175605 0.207364 
v 0.20665 0.175605 0.207364 
v 0.20765 0.175342 0.2076 
v 0.20665 0.175342 0.2076 
v 0.20765 0.175105 0.207863 
v 0.20665 0.175105 0.207863 
v 0.20765 0.174899 0.20815 
v 0.20665 0.174899 0.20815 
v 0.20765 0.174725 0.208458 
v 0.20665 0.174725 0.208458 
v 0.20765 0.174586 0.208782 
v 0.20665 0.174586 0.208782 
v 0.20765 0.174482 0.20912 
v 0.20665 0.174482 0.20912 
v 0.20765 0.174416 0.209467 
v 0.20665 0.174416 0.209467 
v 0.20765 0.174388 0.20982 
v 0.20665 0.174388 0.20982 
v 0.20765 0.174399 0.210173 
v 0.20665 0.174399 0.210173 
v 0.20765 0.174447 0.210523 
v 0.20665 0.174447 0.210523 
v 0.20765 0.174534 0.210866 
v 0.20665 0.174534 0.210866 
v 0.20765 0.174657 0.211197 
v 0.20665 0.174657 0.211197 
v 0.20765 0.174815 0.211513 
v 0.20665 0.174815 0.211513 
v 0.20765 0.175007 0.21181 
v 0.20665 0.175007 0.21181 
v 0.20765 0.17523 0.212084 
v 0.20665 0.17523 0.212084 
v 0.20765 0.175481 0.212333 
v 0.20665 0.175481 0.212333 
v 0.20765 0.175758 0.212552 
v 0.20665 0.175758 0.212552 
v 0.20765 0.176057 0.212741 
v 0.20665 0.176057 0.212741 
v 0.20765 0.176375 0.212896 
v 0.20665 0.176375 0.212896 
v 0.20765 0.176707 0.213015 
v 0.20665 0.176707 0.213015 
v 0.20765 0.177051 0.213098 
v 0.20665 0.177051 0.213098 
v 0.20765 0.177402 0.213142 
v 0.20665 0.177402 0.213142 
v 0.20765 0.177755 0.213149 
v 0.20665 0.177755 0.213149 
vn -4.84493e-14 0.614564 0.788867 
vn -4.84493e-14 0.614564 0.788867 
vn -4.64615e-14 0.69659 0.717469 
vn -4.64615e-14 0.69659 0.717469 
vn -4.39243e-14 0.770378 0.637587 
vn -4.39243e-14 0.770378 0.637587 
vn -4.08676e-14 0.835057 0.550164 
vn -4.08676e-14 0.835057 0.550164 
vn -3.73277e-14 0.889859 0.456235 
vn -3.73277e-14 0.889859 0.456235 
vn -3.33463e-14 0.934138 0.356911 
vn -3.33463e-14 0.934138 0.356911 
vn -2.89705e-14 0.967371 0.253366 
vn -2.89705e-14 0.967371 0.253366 
vn -2.42521e-14 0.989163 0.146824 
vn -2.42521e-14 0.989163 0.146824 
vn -1.9247e-14 0.999257 0.0385462 
vn -1.9247e-14 0.999257 0.0385462 
vn -1.40142e-14 0.997534 -0.0701875 
vn -1.40142e-14 0.997534 -0.0701875 
vn -8.61568e-15 0.984014 -0.178091 
vn -8.61568e-15 0.984014 -0.178091 
vn -3.11528e-15 0.958857 -0.283889 
vn -3.11528e-15 0.958857 -0.283889 
vn 2.42196e-15 0.922361 -0.386329 
vn 2.42196e-15 0.922361 -0.386329 
vn 7.93056e-15 0.874957 -0.484201 
vn 7.93056e-15 0.874957 -0.484201 
vn 1.33454e-14 0.817206 -0.576346 
vn 1.33454e-14 0.817206 -0.576346 
vn 1.86024e-14 0.74979 -0.661676 
vn 1.86024e-14 0.74979 -0.661676 
vn 2.36394e-14 0.673508 -0.73918 
vn 2.36394e-14 0.673508 -0.73918 
vn 2.83968e-14 0.58926 -0.807943 
vn 2.83968e-14 0.58926 -0.807943 
vn 3.28184e-14 0.498044 -0.867152 
vn 3.28184e-14 0.498044 -0.867152 
vn 3.68519e-14 0.400939 -0.916105 
vn 3.68519e-14 0.400939 -0.916105 
vn 4.04496e-14 0.299091 -0.954225 
vn 4.04496e-14 0.299091 -0.954225 
vn 4.3569e-14 0.193707 -0.981059 
vn 4.3569e-14 0.193707 -0.981059 
vn 4.61731e-14 0.0860317 -0.996292 
vn 4.61731e-14 0.0860317 -0.996292 
vn 4.82311e-14 -0.0226609 -0.999743 
vn 4.82311e-14 -0.0226609 -0.999743 
vn 4.97188e-14 -0.131086 -0.991371 
vn 4.97188e-14 -0.131086 -0.991371 
vn 5.06185e-14 -0.23796 -0.971275 
vn 5.06185e-14 -0.23796 -0.971275 
vn 5.09196e-14 -0.34202 -0.939693 
vn 5.09196e-14 -0.34202 -0.939693 
vn 5.06185e-14 -0.442036 -0.896997 
vn 5.06185e-14 -0.442036 -0.896997 
vn 4.97188e-14 -0.536824 -0.843694 
vn 4.97188e-14 -0.536824 -0.843694 
vn 4.82311e-14 -0.625263 -0.780414 
vn 4.82311e-14 -0.625263 -0.780414 
vn 4.61731e-14 -0.706308 -0.707904 
vn 4.61731e-14 -0.706308 -0.707904 
vn 4.3569e-14 -0.779001 -0.627023 
vn 4.3569e-14 -0.779001 -0.627023 
vn 4.04496e-14 -0.842481 -0.538726 
vn 4.04496e-14 -0.842481 -0.538726 
vn 3.68519e-14 -0.895998 -0.444059 
vn 3.68519e-14 -0.895998 -0.444059 
vn 3.28184e-14 -0.938918 -0.34414 
vn 3.28184e-14 -0.938918 -0.34414 
vn 2.83968e-14 -0.970736 -0.240151 
vn 2.83968e-14 -0.970736 -0.240151 
vn 2.36394e-14 -0.991073 -0.133322 
vn 2.36394e-14 -0.991073 -0.133322 
vn 1.86024e-14 -0.99969 -0.0249169 
vn 1.86024e-14 -0.99969 -0.0249169 
vn 1.33454e-14 -0.996484 0.0837832 
vn 1.33454e-14 -0.996484 0.0837832 
vn 7.93056e-15 -0.981494 0.191492 
vn 7.93056e-15 -0.981494 0.191492 
vn 2.42196e-15 -0.954897 0.296937 
vn 2.42196e-15 -0.954897 0.296937 
vn -3.11528e-15 -0.917007 0.39887 
vn -3.11528e-15 -0.917007 0.39887 
vn -8.61568e-15 -0.868273 0.496086 
vn -8.61568e-15 -0.868273 0.496086 
vn -1.40142e-14 -0.809271 0.587436 
vn -1.40142e-14 -0.809271 0.587436 
vn -1.9247e-14 -0.740698 0.671838 
vn -1.9247e-14 -0.740698 0.671838 
vn -2.42521e-14 -0.663366 0.748295 
vn -2.42521e-14 -0.663366 0.748295 
vn -2.89705e-14 -0.578189 0.815903 
vn -2.89705e-14 -0.578189 0.815903 
vn -3.33463e-14 -0.486174 0.873862 
vn -3.33463e-14 -0.486174 0.873862 
vn -3.73277e-14 -0.388409 0.921487 
vn -3.73277e-14 -0.388409 0.921487 
vn -4.08676e-14 -0.286052 0.958214 
vn -4.08676e-14 -0.286052 0.958214 
vn -4.39243e-14 -0.180311 0.98361 
vn -4.39243e-14 -0.180311 0.98361 
vn -4.64615e-14 -0.0724384 0.997373 
vn -4.64615e-14 -0.0724384 0.997373 
vn -4.84493e-14 0.0362912 0.999341 
vn -4.84493e-14 0.0362912 0.999341 
f 106//106 107//107 108//108 
f 109//109 108//108 110//110 
f 111//111 110//110 112//112 
f 113//113 112//112 114//114 
f 115//115 114//114 116//116 
f 117//117 116//116 118//118 
f 119//119 118//118 120//120 
f 121//121 120//120 122//122 
f 123//123 122//122 124//124 
f 125//125 124//124 126//126 
f 127//127 126//126 128//128 
f 129//129 128//128 130//130 
f 131//131 130//130 132//132 
f 133//133 132//132 134//134 
f 135//135 134//134 136//136 
f 137//137 136//136 138//138 
f 139//139 138//138 140//140 
f 141//141 140//140 142//142 
f 143//143 142//142 144//144 
f 145//145 144//144 146//146 
f 147//147 146//146 148//148 
f 149//149 148//148 150//150 
f 151//151 150//150 152//152 
f 153//153 152//152 154//154 
f 155//155 154//154 156//156 
f 157//157 156//156 158//158 
f 159//159 158//158 160//160 
f 161//161 160//160 162//162 
f 163//163 162//162 164//164 
f 165//165 164//164 166//166 
f 167//167 166//166 168//168 
f 169//169 168//168 170//170 
f 171//171 170//170 172//172 
f 173//173 172//172 174//174 
f 175//175 174//174 176//176 
f 177//177 176//176 178//178 
f 179//179 178//178 180//180 
f 181//181 180//180 182//182 
f 183//183 182//182 184//184 
f 185//185 184//184 186//186 
f 187//187 186//186 188//188 
f 189//189 188//188 190//190 
f 191//191 190//190 192//192 
f 193//193 192//192 194//194 
f 195//195 194//194 196//196 
f 197//197 196//196 198//198 
f 199//199 198//198 200//200 
f 201//201 200//200 202//202 
f 203//203 202//202 204//204 
f 205//205 204//204 206//206 
f 207//207 206//206 208//208 
f 209//209 208//208 210//210 
f 210//210 211//211 209//209 
f 208//208 209//209 207//207 
f 206//206 207//207 205//205 
f 204//204 205//205 203//203 
f 202//202 203//203 201//201 
f 200//200 201//201 199//199 
f 198//198 199//199 197//197 
f 196//196 197//197 195//195 
f 194//194 195//195 193//193 
f 192//192 193//193 191//191 
f 190//190 191//191 189//189 
f 188//188 189//189 187//187 
f 186//186 187//187 185//185 
f 184//184 185//185 183//183 
f 182//182 183//183 181//181 
f 180//180 181//181 179//179 
f 178//178 179//179 177//177 
f 176//176 177//177 175//175 
f 174//174 175//175 173//173 
f 172//172 173//173 171//171 
f 170//170 171//171 169//169 
f 168//168 169//169 167//167 
f 166//166 167//167 165//165 
f 164//164 165//165 163//163 
f 162//162 163//163 161//161 
f 160//160 161//161 159//159 
f 158//158 159//159 157//157 
f 156//156 157//157 155//155 
f 154//154 155//155 153//153 
f 152//152 153//153 151//151 
f 150//150 151//151 149//149 
f 148//148 149//149 147//147 
f 146//146 147//147 145//145 
f 144//144 145//145 143//143 
f 142//142 143//143 141//141 
f 140//140 141//141 139//139 
f 138//138 139//139 137//137 
f 136//136 137//137 135//135 
f 134//134 135//135 133//133 
f 132//132 133//133 131//131 
f 130//130 131//131 129//129 
f 128//128 129//129 127//127 
f 126//126 127//127 125//125 
f 124//124 125//125 123//123 
f 122//122 123//123 121//121 
f 120//120 121//121 119//119 
f 118//118 119//119 117//117 
f 116//116 117//117 115//115 
f 114//114 115//115 113//113 
f 112//112 113//113 111//111 
f 110//110 111//111 109//109 
f 108//108 109//109 106//106 
o mesh6239
v 0.20665 0.179256 0.207083 
v 0.20665 0.17894 0.206923 
v 0.20665 0.178871 0.207443 
v 0.20665 0.178609 0.2068 
v 0.20665 0.178598 0.207324 
v 0.20665 0.174534 0.210866 
v 0.20665 0.175057 0.210852 
v 0.20665 0.174969 0.210566 
v 0.20665 0.174657 0.211197 
v 0.20665 0.175175 0.211126 
v 0.20665 0.17523 0.212084 
v 0.20665 0.175697 0.211849 
v 0.20665 0.175497 0.211628 
v 0.20665 0.175481 0.212333 
v 0.20665 0.175919 0.212048 
v 0.20665 0.180885 0.210026 
v 0.20665 0.180879 0.209673 
v 0.20665 0.180387 0.209848 
v 0.20665 0.180835 0.209322 
v 0.20665 0.180365 0.20955 
v 0.20665 0.180753 0.208978 
v 0.20665 0.180635 0.208645 
v 0.20665 0.180225 0.208971 
v 0.20665 0.180481 0.208327 
v 0.20665 0.180109 0.208695 
v 0.20665 0.180074 0.20775 
v 0.20665 0.179826 0.207498 
v 0.20665 0.179593 0.207968 
v 0.20665 0.179552 0.207275 
v 0.20665 0.179372 0.207767 
v 0.20665 0.178267 0.206712 
v 0.20665 0.178313 0.207235 
v 0.20665 0.174447 0.210523 
v 0.20665 0.174912 0.210273 
v 0.20665 0.175007 0.21181 
v 0.20665 0.175322 0.211385 
v 0.20665 0.175758 0.212552 
v 0.20665 0.176162 0.212222 
v 0.20665 0.176057 0.212741 
v 0.20665 0.176422 0.212368 
v 0.20665 0.180311 0.209256 
v 0.20665 0.180293 0.208028 
v 0.20665 0.179964 0.208435 
v 0.20665 0.179791 0.208191 
v 0.20665 0.179131 0.207592 
v 0.20665 0.177211 0.206679 
v 0.20665 0.176864 0.206744 
v 0.20665 0.177128 0.207198 
v 0.20665 0.176526 0.206847 
v 0.20665 0.176838 0.207269 
v 0.20665 0.175605 0.207364 
v 0.20665 0.175805 0.20785 
v 0.20665 0.176038 0.207664 
v 0.20665 0.175342 0.2076 
v 0.20665 0.175593 0.208061 
v 0.20665 0.174815 0.211513 
v 0.20665 0.177917 0.206663 
v 0.20665 0.17802 0.207178 
v 0.20665 0.177563 0.206652 
v 0.20665 0.177723 0.207152 
v 0.20665 0.177424 0.207159 
v 0.20665 0.175892 0.207159 
v 0.20665 0.17629 0.207503 
v 0.20665 0.175105 0.207863 
v 0.20665 0.175406 0.208293 
v 0.20665 0.174899 0.20815 
v 0.20665 0.175245 0.208544 
v 0.20665 0.174725 0.208458 
v 0.20665 0.175112 0.208812 
v 0.20665 0.174586 0.208782 
v 0.20665 0.175009 0.209092 
v 0.20665 0.174388 0.20982 
v 0.20665 0.174888 0.209976 
v 0.20665 0.174896 0.209677 
v 0.20665 0.174399 0.210173 
v 0.20665 0.176375 0.212896 
v 0.20665 0.176697 0.212485 
v 0.20665 0.176707 0.213015 
v 0.20665 0.176983 0.212572 
v 0.20665 0.177051 0.213098 
v 0.20665 0.177276 0.212627 
v 0.20665 0.177402 0.213142 
v 0.20665 0.177574 0.21265 
v 0.20665 0.180781 0.210724 
v 0.20665 0.180852 0.210378 
v 0.20665 0.180333 0.210442 
v 0.20665 0.180376 0.210146 
v 0.20665 0.176201 0.206986 
v 0.20665 0.176558 0.207371 
v 0.20665 0.174482 0.20912 
v 0.20665 0.174937 0.209381 
v 0.20665 0.174416 0.209467 
v 0.20665 0.177755 0.213149 
v 0.20665 0.180141 0.211973 
v 0.20665 0.180351 0.211689 
v 0.20665 0.179855 0.211526 
v 0.20665 0.180529 0.211384 
v 0.20665 0.180019 0.211276 
v 0.20665 0.180673 0.211061 
v 0.20665 0.180154 0.21101 
v 0.20665 0.180259 0.210731 
v 0.20665 0.179901 0.212233 
v 0.20665 0.179666 0.211757 
v 0.20665 0.179453 0.211966 
v 0.20665 0.179634 0.212465 
vn -1 -1.74155e-14 -4.78488e-14 
vn -1 -1.74155e-14 -4.78488e-14 
vn -1 -1.74155e-14 -4.78488e-14 
vn -1 -1.74155e-14 -4.78488e-14 
vn -1 -1.74155e-14 -4.78488e-14 
vn -1 -1.74155e-14 -4.78488e-14 
vn -1 -1.74155e-14 -4.78488e-14 
vn -1 -1.74155e-14 -4.78488e-14 
vn -1 -1.74155e-14 -4.78488e-14 
vn -1 -1.74155e-14 -4.78488e-14 
vn -1 -1.74155e-14 -4.78488e-14 
vn -1 -1.74155e-14 -4.78488e-14 
vn -1 -1.74155e-14 -4.78488e-14 
vn -1 -1.74155e-14 -4.78488e-14 
vn -1 -1.74155e-14 -4.78488e-14 
vn -1 -1.74155e-14 -4.78488e-14 
vn -1 -1.74155e-14 -4.78488e-14 
vn -1 -1.74155e-14 -4.78488e-14 
vn -1 -1.74155e-14 -4.78488e-14 
vn -1 -1.74155e-14 -4.78488e-14 
vn -1 -1.74155e-14 -4.78488e-14 
vn -1 -1.74155e-14 -4.78488e-14 
vn -1 -1.74155e-14 -4.78488e-14 
vn -1 -1.74155e-14 -4.78488e-14 
vn -1 -1.74155e-14 -4.78488e-14 
vn -1 -1.74155e-14 -4.78488e-14 
vn -1 -1.74155e-14 -4.78488e-14 
vn -1 -1.74155e-14 -4.78488e-14 
vn -1 -1.74155e-14 -4.78488e-14 
vn -1 -1.74155e-14 -4.78488e-14 
vn -1 -1.74155e-14 -4.78488e-14 
vn -1 -1.74155e-14 -4.78488e-14 
vn -1 -1.74155e-14 -4.78488e-14 
vn -1 -1.74155e-14 -4.78488e-14 
vn -1 -1.74155e-14 -4.78488e-14 
vn -1 -1.74155e-14 -4.78488e-14 
vn -1 -1.74155e-14 -4.78488e-14 
vn -1 -1.74155e-14 -4.78488e-14 
vn -1 -1.74155e-14 -4.78488e-14 
vn -1 -1.74155e-14 -4.78488e-14 
vn -1 -1.74155e-14 -4.78488e-14 
vn -1 -1.74155e-14 -4.78488e-14 
vn -1 -1.74155e-14 -4.78488e-14 
vn -1 -1.74155e-14 -4.78488e-14 
vn -1 -1.74155e-14 -4.78488e-14 
vn -1 -1.74155e-14 -4.78488e-14 
vn -1 -1.74155e-14 -4.78488e-14 
vn -1 -1.74155e-14 -4.78488e-14 
vn -1 -1.74155e-14 -4.78488e-14 
vn -1 -1.74155e-14 -4.78488e-14 
vn -1 -1.74155e-14 -4.78488e-14 
vn -1 -1.74155e-14 -4.78488e-14 
vn -1 -1.74155e-14 -4.78488e-14 
vn -1 -1.74155e-14 -4.78488e-14 
vn -1 -1.74155e-14 -4.78488e-14 
vn -1 -1.74155e-14 -4.78488e-14 
vn -1 -1.74155e-14 -4.78488e-14 
vn -1 -1.74155e-14 -4.78488e-14 
vn -1 -1.74155e-14 -4.78488e-14 
vn -1 -1.74155e-14 -4.78488e-14 
vn -1 -1.74155e-14 -4.78488e-14 
vn -1 -1.74155e-14 -4.78488e-14 
vn -1 -1.74155e-14 -4.78488e-14 
vn -1 -1.74155e-14 -4.78488e-14 
vn -1 -1.74155e-14 -4.78488e-14 
vn -1 -1.74155e-14 -4.78488e-14 
vn -1 -1.74155e-14 -4.78488e-14 
vn -1 -1.74155e-14 -4.78488e-14 
vn -1 -1.74155e-14 -4.78488e-14 
vn -1 -1.74155e-14 -4.78488e-14 
vn -1 -1.74155e-14 -4.78488e-14 
vn -1 -1.74155e-14 -4.78488e-14 
vn -1 -1.74155e-14 -4.78488e-14 
vn -1 -1.74155e-14 -4.78488e-14 
vn -1 -1.74155e-14 -4.78488e-14 
vn -1 -1.74155e-14 -4.78488e-14 
vn -1 -1.74155e-14 -4.78488e-14 
vn -1 -1.74155e-14 -4.78488e-14 
vn -1 -1.74155e-14 -4.78488e-14 
vn -1 -1.74155e-14 -4.78488e-14 
vn -1 -1.74155e-14 -4.78488e-14 
vn -1 -1.74155e-14 -4.78488e-14 
vn -1 -1.74155e-14 -4.78488e-14 
vn -1 -1.74155e-14 -4.78488e-14 
vn -1 -1.74155e-14 -4.78488e-14 
vn -1 -1.74155e-14 -4.78488e-14 
vn -1 -1.74155e-14 -4.78488e-14 
vn -1 -1.74155e-14 -4.78488e-14 
vn -1 -1.74155e-14 -4.78488e-14 
vn -1 -1.74155e-14 -4.78488e-14 
vn -1 -1.74155e-14 -4.78488e-14 
vn -1 -1.74155e-14 -4.78488e-14 
vn -1 -1.74155e-14 -4.78488e-14 
vn -1 -1.74155e-14 -4.78488e-14 
vn -1 -1.74155e-14 -4.78488e-14 
vn -1 -1.74155e-14 -4.78488e-14 
vn -1 -1.74155e-14 -4.78488e-14 
vn -1 -1.74155e-14 -4.78488e-14 
vn -1 -1.74155e-14 -4.78488e-14 
vn -1 -1.74155e-14 -4.78488e-14 
vn -1 -1.74155e-14 -4.78488e-14 
vn -1 -1.74155e-14 -4.78488e-14 
vn -1 -1.74155e-14 -4.78488e-14 
vn -1 -1.74155e-14 -4.78488e-14 
vn -1 -1.74155e-14 -4.78488e-14 
f 212//212 213//213 214//214 
f 213//213 215//215 216//216 
f 217//217 218//218 219//219 
f 220//220 221//221 218//218 
f 222//222 223//223 224//224 
f 225//225 226//226 223//223 
f 227//227 228//228 229//229 
f 228//228 230//230 231//231 
f 232//232 233//233 234//234 
f 233//233 235//235 236//236 
f 237//237 238//238 239//239 
f 238//238 240//240 241//241 
f 216//216 214//214 213//213 
f 215//215 242//242 243//243 
f 244//244 219//219 245//245 
f 218//218 217//217 220//220 
f 246//246 224//224 247//247 
f 223//223 222//222 225//225 
f 248//248 249//249 226//226 
f 250//250 251//251 249//249 
f 231//231 229//229 228//228 
f 230//230 232//232 252//252 
f 236//236 234//234 233//233 
f 235//235 253//253 254//254 
f 253//253 237//237 255//255 
f 241//241 239//239 238//238 
f 240//240 212//212 256//256 
f 243//243 216//216 215//215 
f 257//257 258//258 259//259 
f 258//258 260//260 261//261 
f 262//262 263//263 264//264 
f 265//265 266//266 263//263 
f 219//219 244//244 217//217 
f 267//267 247//247 221//221 
f 224//224 246//246 222//222 
f 249//249 248//248 250//250 
f 252//252 231//231 230//230 
f 254//254 236//236 235//235 
f 239//239 255//255 237//237 
f 214//214 256//256 212//212 
f 242//242 268//268 269//269 
f 268//268 270//270 271//271 
f 270//270 257//257 272//272 
f 261//261 259//259 258//258 
f 273//273 264//264 274//274 
f 263//263 262//262 265//265 
f 275//275 276//276 266//266 
f 277//277 278//278 276//276 
f 221//221 220//220 267//267 
f 226//226 225//225 248//248 
f 234//234 252//252 232//232 
f 256//256 241//241 240//240 
f 271//271 269//269 268//268 
f 259//259 272//272 257//257 
f 264//264 273//273 262//262 
f 276//276 275//275 277//277 
f 279//279 280//280 278//278 
f 281//281 282//282 280//280 
f 283//283 284//284 285//285 
f 286//286 245//245 284//284 
f 247//247 267//267 246//246 
f 287//287 288//288 251//251 
f 289//289 290//290 288//288 
f 291//291 292//292 290//290 
f 293//293 294//294 292//292 
f 295//295 296//296 297//297 
f 296//296 227//227 298//298 
f 255//255 254//254 253//253 
f 272//272 271//271 270//270 
f 299//299 274//274 300//300 
f 266//266 265//265 275//275 
f 280//280 279//279 281//281 
f 284//284 283//283 286//286 
f 251//251 250//250 287//287 
f 290//290 289//289 291//291 
f 292//292 291//291 293//293 
f 298//298 297//297 296//296 
f 269//269 243//243 242//242 
f 300//300 260//260 299//299 
f 278//278 277//277 279//279 
f 301//301 302//302 282//282 
f 303//303 285//285 302//302 
f 245//245 286//286 244//244 
f 293//293 304//304 294//294 
f 305//305 306//306 307//307 
f 306//306 308//308 309//309 
f 308//308 310//310 311//311 
f 310//310 295//295 312//312 
f 229//229 298//298 227//227 
f 274//274 299//299 273//273 
f 302//302 301//301 303//303 
f 288//288 287//287 289//289 
f 309//309 307//307 306//306 
f 312//312 311//311 310//310 
f 300//300 261//261 260//260 
f 285//285 303//303 283//283 
f 313//313 305//305 314//314 
f 311//311 309//309 308//308 
f 282//282 281//281 301//301 
f 315//315 316//316 313//313 
f 297//297 312//312 295//295 
f 307//307 314//314 305//305 
f 314//314 315//315 313//313 
o mesh6240
v 0.20765 0.177755 0.213149 
v 0.20765 0.177574 0.21265 
v 0.20665 0.177574 0.21265 
v 0.20665 0.177755 0.213149 
vn 0 0.939693 -0.34202 
vn 0 0.939693 -0.34202 
vn 0 0.939693 -0.34202 
vn 0 0.939693 -0.34202 
f 317//317 318//318 319//319 
f 319//319 320//320 317//317 
o mesh6241
v 0.20665 0.177276 0.212627 
v 0.20665 0.177574 0.21265 
v 0.20765 0.177574 0.21265 
v 0.20665 0.176983 0.212572 
v 0.20765 0.177276 0.212627 
v 0.20665 0.176697 0.212485 
v 0.20765 0.176983 0.212572 
v 0.20665 0.176422 0.212368 
v 0.20765 0.176697 0.212485 
v 0.20665 0.176162 0.212222 
v 0.20765 0.176422 0.212368 
v 0.20665 0.175919 0.212048 
v 0.20765 0.176162 0.212222 
v 0.20665 0.175697 0.211849 
v 0.20765 0.175919 0.212048 
v 0.20665 0.175497 0.211628 
v 0.20765 0.175697 0.211849 
v 0.20665 0.175322 0.211385 
v 0.20765 0.175497 0.211628 
v 0.20665 0.175175 0.211126 
v 0.20765 0.175322 0.211385 
v 0.20665 0.175057 0.210852 
v 0.20765 0.175175 0.211126 
v 0.20665 0.174969 0.210566 
v 0.20765 0.175057 0.210852 
v 0.20665 0.174912 0.210273 
v 0.20765 0.174969 0.210566 
v 0.20665 0.174888 0.209976 
v 0.20765 0.174912 0.210273 
v 0.20665 0.174896 0.209677 
v 0.20765 0.174888 0.209976 
v 0.20665 0.174937 0.209381 
v 0.20765 0.174896 0.209677 
v 0.20665 0.175009 0.209092 
v 0.20765 0.174937 0.209381 
v 0.20665 0.175112 0.208812 
v 0.20765 0.175009 0.209092 
v 0.20665 0.175245 0.208544 
v 0.20765 0.175112 0.208812 
v 0.20665 0.175406 0.208293 
v 0.20765 0.175245 0.208544 
v 0.20665 0.175593 0.208061 
v 0.20765 0.175406 0.208293 
v 0.20665 0.175805 0.20785 
v 0.20765 0.175593 0.208061 
v 0.20665 0.176038 0.207664 
v 0.20765 0.175805 0.20785 
v 0.20665 0.17629 0.207503 
v 0.20765 0.176038 0.207664 
v 0.20665 0.176558 0.207371 
v 0.20765 0.17629 0.207503 
v 0.20665 0.176838 0.207269 
v 0.20765 0.176558 0.207371 
v 0.20665 0.177128 0.207198 
v 0.20765 0.176838 0.207269 
v 0.20665 0.177424 0.207159 
v 0.20765 0.177128 0.207198 
v 0.20665 0.177723 0.207152 
v 0.20765 0.177424 0.207159 
v 0.20665 0.17802 0.207178 
v 0.20765 0.177723 0.207152 
v 0.20665 0.178313 0.207235 
v 0.20765 0.17802 0.207178 
v 0.20665 0.178598 0.207324 
v 0.20765 0.178313 0.207235 
v 0.20665 0.178871 0.207443 
v 0.20765 0.178598 0.207324 
v 0.20665 0.179131 0.207592 
v 0.20765 0.178871 0.207443 
v 0.20665 0.179372 0.207767 
v 0.20765 0.179131 0.207592 
v 0.20665 0.179593 0.207968 
v 0.20765 0.179372 0.207767 
v 0.20665 0.179791 0.208191 
v 0.20765 0.179593 0.207968 
v 0.20665 0.179964 0.208435 
v 0.20765 0.179791 0.208191 
v 0.20665 0.180109 0.208695 
v 0.20765 0.179964 0.208435 
v 0.20665 0.180225 0.208971 
v 0.20765 0.180109 0.208695 
v 0.20665 0.180311 0.209256 
v 0.20765 0.180225 0.208971 
v 0.20665 0.180365 0.20955 
v 0.20765 0.180311 0.209256 
v 0.20665 0.180387 0.209848 
v 0.20765 0.180365 0.20955 
v 0.20665 0.180376 0.210146 
v 0.20765 0.180387 0.209848 
v 0.20665 0.180333 0.210442 
v 0.20765 0.180376 0.210146 
v 0.20665 0.180259 0.210731 
v 0.20765 0.180333 0.210442 
v 0.20665 0.180154 0.21101 
v 0.20765 0.180259 0.210731 
v 0.20665 0.180019 0.211276 
v 0.20765 0.180154 0.21101 
v 0.20665 0.179855 0.211526 
v 0.20765 0.180019 0.211276 
v 0.20665 0.179666 0.211757 
v 0.20765 0.179855 0.211526 
v 0.20665 0.179453 0.211966 
v 0.20765 0.179666 0.211757 
v 0.20765 0.179453 0.211966 
vn 4.51472e-14 0.131327 -0.991339 
vn 4.74337e-14 0.0231006 -0.999733 
vn 4.74337e-14 0.0231006 -0.999733 
vn 4.23288e-14 0.238006 -0.971264 
vn 4.51472e-14 0.131327 -0.991339 
vn 3.90115e-14 0.341881 -0.939743 
vn 4.23288e-14 0.238006 -0.971264 
vn 3.52346e-14 0.441726 -0.89715 
vn 3.90115e-14 0.341881 -0.939743 
vn 3.10425e-14 0.536367 -0.843985 
vn 3.52346e-14 0.441726 -0.89715 
vn 2.64846e-14 0.624688 -0.780874 
vn 3.10425e-14 0.536367 -0.843985 
vn 2.16146e-14 0.705648 -0.708563 
vn 2.64846e-14 0.624688 -0.780874 
vn 1.649e-14 0.778292 -0.627902 
vn 2.16146e-14 0.705648 -0.708563 
vn 1.1171e-14 0.841766 -0.539842 
vn 1.649e-14 0.778292 -0.627902 
vn 5.72038e-15 0.895321 -0.445421 
vn 1.1171e-14 0.841766 -0.539842 
vn 2.02367e-16 0.938326 -0.345752 
vn 5.72038e-15 0.895321 -0.445421 
vn -5.31803e-15 0.970274 -0.242008 
vn 2.02367e-16 0.938326 -0.345752 
vn -1.07758e-14 0.990789 -0.135413 
vn -5.31803e-15 0.970274 -0.242008 
vn -1.61065e-14 0.999629 -0.0272221 
vn -1.07758e-14 0.990789 -0.135413 
vn -2.12475e-14 0.996691 0.0812896 
vn -1.61065e-14 0.999629 -0.0272221 
vn -2.61381e-14 0.982007 0.188843 
vn -2.12475e-14 0.996691 0.0812896 
vn -3.07207e-14 0.955752 0.294172 
vn -2.61381e-14 0.982007 0.188843 
vn -3.49413e-14 0.918236 0.396034 
vn -3.07207e-14 0.955752 0.294172 
vn -3.87502e-14 0.869899 0.49323 
vn -3.49413e-14 0.918236 0.396034 
vn -4.21025e-14 0.811312 0.584614 
vn -3.87502e-14 0.869899 0.49323 
vn -4.49586e-14 0.743165 0.669109 
vn -4.21025e-14 0.811312 0.584614 
vn -4.7285e-14 0.666261 0.745719 
vn -4.49586e-14 0.743165 0.669109 
vn -4.90542e-14 0.581506 0.813542 
vn -4.7285e-14 0.666261 0.745719 
vn -5.02454e-14 0.489898 0.87178 
vn -4.90542e-14 0.581506 0.813542 
vn -5.08445e-14 0.392519 0.919744 
vn -5.02454e-14 0.489898 0.87178 
vn -5.08445e-14 0.290513 0.956871 
vn -5.08445e-14 0.392519 0.919744 
vn -5.02454e-14 0.185085 0.982722 
vn -5.08445e-14 0.290513 0.956871 
vn -4.90542e-14 0.077476 0.996994 
vn -5.02454e-14 0.185085 0.982722 
vn -4.7285e-14 -0.0310462 0.999518 
vn -4.90542e-14 0.077476 0.996994 
vn -4.49586e-14 -0.139203 0.990264 
vn -4.7285e-14 -0.0310462 0.999518 
vn -4.21025e-14 -0.245719 0.969341 
vn -4.49586e-14 -0.139203 0.990264 
vn -3.87502e-14 -0.349339 0.936996 
vn -4.21025e-14 -0.245719 0.969341 
vn -3.49413e-14 -0.448843 0.89361 
vn -3.87502e-14 -0.349339 0.936996 
vn -3.07207e-14 -0.543059 0.839695 
vn -3.49413e-14 -0.448843 0.89361 
vn -2.61381e-14 -0.630875 0.775885 
vn -3.07207e-14 -0.543059 0.839695 
vn -2.12475e-14 -0.711257 0.702932 
vn -2.61381e-14 -0.630875 0.775885 
vn -1.61065e-14 -0.783259 0.621696 
vn -2.12475e-14 -0.711257 0.702932 
vn -1.07758e-14 -0.84603 0.533135 
vn -1.61065e-14 -0.783259 0.621696 
vn -5.31803e-15 -0.898833 0.438291 
vn -1.07758e-14 -0.84603 0.533135 
vn 2.02367e-16 -0.941044 0.338283 
vn -5.31803e-15 -0.898833 0.438291 
vn 5.72038e-15 -0.972167 0.234289 
vn 2.02367e-16 -0.941044 0.338283 
vn 1.1171e-14 -0.991834 0.127534 
vn 5.72038e-15 -0.972167 0.234289 
vn 1.649e-14 -0.999814 0.0192758 
vn 1.1171e-14 -0.991834 0.127534 
vn 2.16146e-14 -0.996013 -0.0892091 
vn 1.649e-14 -0.999814 0.0192758 
vn 2.64846e-14 -0.980475 -0.196643 
vn 2.16146e-14 -0.996013 -0.0892091 
vn 3.10425e-14 -0.953384 -0.301759 
vn 2.64846e-14 -0.980475 -0.196643 
vn 3.52346e-14 -0.915059 -0.40332 
vn 3.10425e-14 -0.953384 -0.301759 
vn 3.90115e-14 -0.865951 -0.500129 
vn 3.52346e-14 -0.915059 -0.40332 
vn 4.23288e-14 -0.806639 -0.591044 
vn 3.90115e-14 -0.865951 -0.500129 
vn 4.51472e-14 -0.737823 -0.674994 
vn 4.23288e-14 -0.806639 -0.591044 
vn 4.74337e-14 -0.660312 -0.750991 
vn 4.51472e-14 -0.737823 -0.674994 
vn 4.74337e-14 -0.660312 -0.750991 
f 321//321 322//322 323//323 
f 324//324 321//321 325//325 
f 326//326 324//324 327//327 
f 328//328 326//326 329//329 
f 330//330 328//328 331//331 
f 332//332 330//330 333//333 
f 334//334 332//332 335//335 
f 336//336 334//334 337//337 
f 338//338 336//336 339//339 
f 340//340 338//338 341//341 
f 342//342 340//340 343//343 
f 344//344 342//342 345//345 
f 346//346 344//344 347//347 
f 348//348 346//346 349//349 
f 350//350 348//348 351//351 
f 352//352 350//350 353//353 
f 354//354 352//352 355//355 
f 356//356 354//354 357//357 
f 358//358 356//356 359//359 
f 360//360 358//358 361//361 
f 362//362 360//360 363//363 
f 364//364 362//362 365//365 
f 366//366 364//364 367//367 
f 368//368 366//366 369//369 
f 370//370 368//368 371//371 
f 372//372 370//370 373//373 
f 374//374 372//372 375//375 
f 376//376 374//374 377//377 
f 378//378 376//376 379//379 
f 380//380 378//378 381//381 
f 382//382 380//380 383//383 
f 384//384 382//382 385//385 
f 386//386 384//384 387//387 
f 388//388 386//386 389//389 
f 390//390 388//388 391//391 
f 392//392 390//390 393//393 
f 394//394 392//392 395//395 
f 396//396 394//394 397//397 
f 398//398 396//396 399//399 
f 400//400 398//398 401//401 
f 402//402 400//400 403//403 
f 404//404 402//402 405//405 
f 406//406 404//404 407//407 
f 408//408 406//406 409//409 
f 410//410 408//408 411//411 
f 412//412 410//410 413//413 
f 414//414 412//412 415//415 
f 416//416 414//414 417//417 
f 418//418 416//416 419//419 
f 420//420 418//418 421//421 
f 422//422 420//420 423//423 
f 423//423 424//424 422//422 
f 421//421 423//423 420//420 
f 419//419 421//421 418//418 
f 417//417 419//419 416//416 
f 415//415 417//417 414//414 
f 413//413 415//415 412//412 
f 411//411 413//413 410//410 
f 409//409 411//411 408//408 
f 407//407 409//409 406//406 
f 405//405 407//407 404//404 
f 403//403 405//405 402//402 
f 401//401 403//403 400//400 
f 399//399 401//401 398//398 
f 397//397 399//399 396//396 
f 395//395 397//397 394//394 
f 393//393 395//395 392//392 
f 391//391 393//393 390//390 
f 389//389 391//391 388//388 
f 387//387 389//389 386//386 
f 385//385 387//387 384//384 
f 383//383 385//385 382//382 
f 381//381 383//383 380//380 
f 379//379 381//381 378//378 
f 377//377 379//379 376//376 
f 375//375 377//377 374//374 
f 373//373 375//375 372//372 
f 371//371 373//373 370//370 
f 369//369 371//371 368//368 
f 367//367 369//369 366//366 
f 365//365 367//367 364//364 
f 363//363 365//365 362//362 
f 361//361 363//363 360//360 
f 359//359 361//361 358//358 
f 357//357 359//359 356//356 
f 355//355 357//357 354//354 
f 353//353 355//355 352//352 
f 351//351 353//353 350//350 
f 349//349 351//351 348//348 
f 347//347 349//349 346//346 
f 345//345 347//347 344//344 
f 343//343 345//345 342//342 
f 341//341 343//343 340//340 
f 339//339 341//341 338//338 
f 337//337 339//339 336//336 
f 335//335 337//337 334//334 
f 333//333 335//335 332//332 
f 331//331 333//333 330//330 
f 329//329 331//331 328//328 
f 327//327 329//329 326//326 
f 325//325 327//327 324//324 
f 323//323 325//325 321//321 
o mesh6242
v 0.20765 0.179453 0.211966 
v 0.20765 0.179634 0.212465 
v 0.20665 0.179634 0.212465 
v 0.20665 0.179453 0.211966 
vn 0 -0.939693 0.34202 
vn 0 -0.939693 0.34202 
vn 0 -0.939693 0.34202 
vn 0 -0.939693 0.34202 
f 425//425 426//426 427//427 
f 427//427 428//428 425//425 
