# OBJ generated by ONSHAPE BY PTC INC, 1.215 Units = meters
mtllib EBoxNewAsm_stp_1_AngleBracket_stp_1_solid1.mtl
g EBoxNewAsm.stp-1/AngleBracket.stp-1-solid1
usemtl 0.627451_0.627451_0.627451_0.000000_0.000000
o mesh16220
v 0.000475 0.140746 -0.0571079 
v 0.000475 0.140644 -0.0574446 
v 0.00365 0.140644 -0.0574446 
v 0.000475 0.140811 -0.0567621 
v 0.00365 0.140746 -0.0571079 
v 0.000475 0.140839 -0.0564113 
v 0.00365 0.140811 -0.0567621 
v 0.000475 0.140828 -0.0560595 
v 0.00365 0.140839 -0.0564113 
v 0.000475 0.14078 -0.055711 
v 0.00365 0.140828 -0.0560595 
v 0.000475 0.140694 -0.0553697 
v 0.00365 0.14078 -0.055711 
v 0.000475 0.140571 -0.0550398 
v 0.00365 0.140694 -0.0553697 
v 0.000475 0.140414 -0.054725 
v 0.00365 0.140571 -0.0550398 
v 0.000475 0.140224 -0.0544291 
v 0.00365 0.140414 -0.054725 
v 0.000475 0.140002 -0.0541555 
v 0.00365 0.140224 -0.0544291 
v 0.000475 0.139753 -0.0539074 
v 0.00365 0.140002 -0.0541555 
v 0.000475 0.139478 -0.0536877 
v 0.00365 0.139753 -0.0539074 
v 0.000475 0.139181 -0.0534991 
v 0.00365 0.139478 -0.0536877 
v 0.000475 0.138865 -0.0533437 
v 0.00365 0.139181 -0.0534991 
v 0.000475 0.138534 -0.0532233 
v 0.00365 0.138865 -0.0533437 
v 0.000475 0.138192 -0.0531394 
v 0.00365 0.138534 -0.0532233 
v 0.000475 0.137844 -0.053093 
v 0.00365 0.138192 -0.0531394 
v 0.000475 0.137492 -0.0530845 
v 0.00365 0.137844 -0.053093 
v 0.000475 0.137141 -0.0531141 
v 0.00365 0.137492 -0.0530845 
v 0.000475 0.136796 -0.0531815 
v 0.00365 0.137141 -0.0531141 
v 0.000475 0.13646 -0.0532858 
v 0.00365 0.136796 -0.0531815 
v 0.000475 0.136137 -0.0534258 
v 0.00365 0.13646 -0.0532858 
v 0.000475 0.135831 -0.0535999 
v 0.00365 0.136137 -0.0534258 
v 0.000475 0.135546 -0.0538061 
v 0.00365 0.135831 -0.0535999 
v 0.000475 0.135285 -0.0540419 
v 0.00365 0.135546 -0.0538061 
v 0.000475 0.13505 -0.0543045 
v 0.00365 0.135285 -0.0540419 
v 0.000475 0.134846 -0.0545909 
v 0.00365 0.13505 -0.0543045 
v 0.000475 0.134674 -0.0548978 
v 0.00365 0.134846 -0.0545909 
v 0.000475 0.134536 -0.0552215 
v 0.00365 0.134674 -0.0548978 
v 0.000475 0.134433 -0.0555582 
v 0.00365 0.134536 -0.0552215 
v 0.000475 0.134368 -0.055904 
v 0.00365 0.134433 -0.0555582 
v 0.000475 0.134341 -0.0562548 
v 0.00365 0.134368 -0.055904 
v 0.000475 0.134351 -0.0566065 
v 0.00365 0.134341 -0.0562548 
v 0.000475 0.1344 -0.0569551 
v 0.00365 0.134351 -0.0566065 
v 0.000475 0.134486 -0.0572963 
v 0.00365 0.1344 -0.0569551 
v 0.000475 0.134608 -0.0576263 
v 0.00365 0.134486 -0.0572963 
v 0.000475 0.134765 -0.0579411 
v 0.00365 0.134608 -0.0576263 
v 0.000475 0.134956 -0.058237 
v 0.00365 0.134765 -0.0579411 
v 0.000475 0.135177 -0.0585106 
v 0.00365 0.134956 -0.058237 
v 0.000475 0.135427 -0.0587587 
v 0.00365 0.135177 -0.0585106 
v 0.000475 0.135702 -0.0589783 
v 0.00365 0.135427 -0.0587587 
v 0.000475 0.135999 -0.059167 
v 0.00365 0.135702 -0.0589783 
v 0.000475 0.136314 -0.0593224 
v 0.00365 0.135999 -0.059167 
v 0.000475 0.136645 -0.0594427 
v 0.00365 0.136314 -0.0593224 
v 0.000475 0.136987 -0.0595266 
v 0.00365 0.136645 -0.0594427 
v 0.000475 0.137336 -0.0595731 
v 0.00365 0.136987 -0.0595266 
v 0.000475 0.137687 -0.0595816 
v 0.00365 0.137336 -0.0595731 
v 0.000475 0.138038 -0.0595519 
v 0.00365 0.137687 -0.0595816 
v 0.000475 0.138383 -0.0594846 
v 0.00365 0.138038 -0.0595519 
v 0.000475 0.13872 -0.0593803 
v 0.00365 0.138383 -0.0594846 
v 0.000475 0.139042 -0.0592403 
v 0.00365 0.13872 -0.0593803 
v 0.000475 0.139348 -0.0590661 
v 0.00365 0.139042 -0.0592403 
v 0.000475 0.139633 -0.05886 
v 0.00365 0.139348 -0.0590661 
v 0.000475 0.139895 -0.0586242 
v 0.00365 0.139633 -0.05886 
v 0.000475 0.140129 -0.0583616 
v 0.00365 0.139895 -0.0586242 
v 0.000475 0.140333 -0.0580751 
v 0.00365 0.140129 -0.0583616 
v 0.000475 0.140506 -0.0577683 
v 0.00365 0.140333 -0.0580751 
v 0.00365 0.140506 -0.0577683 
vn -1.31129e-14 -0.971163 0.238417 
vn -1.88111e-14 -0.939693 0.34202 
vn -1.88111e-14 -0.939693 0.34202 
vn -7.26098e-15 -0.991247 0.132018 
vn -1.31129e-14 -0.971163 0.238417 
vn -1.32391e-15 -0.99971 0.0240712 
vn -7.26098e-15 -0.991247 0.132018 
vn 4.62867e-15 -0.996452 -0.0841576 
vn -1.32391e-15 -0.99971 0.0240712 
vn 1.0527e-14 -0.981512 -0.1914 
vn 4.62867e-15 -0.996452 -0.0841576 
vn 1.63019e-14 -0.955065 -0.296398 
vn 1.0527e-14 -0.981512 -0.1914 
vn 2.18857e-14 -0.91742 -0.397921 
vn 1.63019e-14 -0.955065 -0.296398 
vn 2.72128e-14 -0.869019 -0.494779 
vn 2.18857e-14 -0.91742 -0.397921 
vn 3.2221e-14 -0.81043 -0.585836 
vn 2.72128e-14 -0.869019 -0.494779 
vn 3.68514e-14 -0.742339 -0.670025 
vn 3.2221e-14 -0.81043 -0.585836 
vn 4.10497e-14 -0.665545 -0.746358 
vn 3.68514e-14 -0.742339 -0.670025 
vn 4.47667e-14 -0.580948 -0.813941 
vn 4.10497e-14 -0.665545 -0.746358 
vn 4.79589e-14 -0.48954 -0.871981 
vn 4.47667e-14 -0.580948 -0.813941 
vn 5.05889e-14 -0.392392 -0.919798 
vn 4.79589e-14 -0.48954 -0.871981 
vn 5.26257e-14 -0.290645 -0.956831 
vn 5.05889e-14 -0.392392 -0.919798 
vn 5.40455e-14 -0.185489 -0.982646 
vn 5.26257e-14 -0.290645 -0.956831 
vn 5.48317e-14 -0.0781591 -0.996941 
vn 5.40455e-14 -0.185489 -0.982646 
vn 5.49751e-14 0.0300873 -0.999547 
vn 5.48317e-14 -0.0781591 -0.996941 
vn 5.44739e-14 0.137981 -0.990435 
vn 5.49751e-14 0.0300873 -0.999547 
vn 5.33341e-14 0.244257 -0.969711 
vn 5.44739e-14 0.137981 -0.990435 
vn 5.15689e-14 0.347669 -0.937617 
vn 5.33341e-14 0.244257 -0.969711 
vn 4.91992e-14 0.447006 -0.894531 
vn 5.15689e-14 0.347669 -0.937617 
vn 4.62527e-14 0.541101 -0.840958 
vn 4.91992e-14 0.447006 -0.894531 
vn 4.27639e-14 0.628853 -0.777525 
vn 4.62527e-14 0.541101 -0.840958 
vn 3.87737e-14 0.709231 -0.704976 
vn 4.27639e-14 0.628853 -0.777525 
vn 3.43289e-14 0.781295 -0.624162 
vn 3.87737e-14 0.709231 -0.704976 
vn 2.94817e-14 0.844199 -0.53603 
vn 3.43289e-14 0.781295 -0.624162 
vn 2.42888e-14 0.897205 -0.441614 
vn 2.94817e-14 0.844199 -0.53603 
vn 1.88111e-14 0.939693 -0.34202 
vn 2.42888e-14 0.897205 -0.441614 
vn 1.31129e-14 0.971163 -0.238417 
vn 1.88111e-14 0.939693 -0.34202 
vn 7.26098e-15 0.991247 -0.132018 
vn 1.31129e-14 0.971163 -0.238417 
vn 1.32391e-15 0.99971 -0.0240712 
vn 7.26098e-15 0.991247 -0.132018 
vn -4.62867e-15 0.996452 0.0841576 
vn 1.32391e-15 0.99971 -0.0240712 
vn -1.0527e-14 0.981512 0.1914 
vn -4.62867e-15 0.996452 0.0841576 
vn -1.63019e-14 0.955065 0.296398 
vn -1.0527e-14 0.981512 0.1914 
vn -2.18857e-14 0.91742 0.397921 
vn -1.63019e-14 0.955065 0.296398 
vn -2.72128e-14 0.869019 0.494779 
vn -2.18857e-14 0.91742 0.397921 
vn -3.2221e-14 0.81043 0.585836 
vn -2.72128e-14 0.869019 0.494779 
vn -3.68514e-14 0.742339 0.670025 
vn -3.2221e-14 0.81043 0.585836 
vn -4.10497e-14 0.665545 0.746358 
vn -3.68514e-14 0.742339 0.670025 
vn -4.47667e-14 0.580948 0.813941 
vn -4.10497e-14 0.665545 0.746358 
vn -4.79589e-14 0.48954 0.871981 
vn -4.47667e-14 0.580948 0.813941 
vn -5.05889e-14 0.392392 0.919798 
vn -4.79589e-14 0.48954 0.871981 
vn -5.26257e-14 0.290645 0.956831 
vn -5.05889e-14 0.392392 0.919798 
vn -5.40455e-14 0.185489 0.982646 
vn -5.26257e-14 0.290645 0.956831 
vn -5.48317e-14 0.0781591 0.996941 
vn -5.40455e-14 0.185489 0.982646 
vn -5.49751e-14 -0.0300873 0.999547 
vn -5.48317e-14 0.0781591 0.996941 
vn -5.44739e-14 -0.137981 0.990435 
vn -5.49751e-14 -0.0300873 0.999547 
vn -5.33341e-14 -0.244257 0.969711 
vn -5.44739e-14 -0.137981 0.990435 
vn -5.15689e-14 -0.347669 0.937617 
vn -5.33341e-14 -0.244257 0.969711 
vn -4.91992e-14 -0.447006 0.894531 
vn -5.15689e-14 -0.347669 0.937617 
vn -4.62527e-14 -0.541101 0.840958 
vn -4.91992e-14 -0.447006 0.894531 
vn -4.27639e-14 -0.628853 0.777525 
vn -4.62527e-14 -0.541101 0.840958 
vn -3.87737e-14 -0.709231 0.704976 
vn -4.27639e-14 -0.628853 0.777525 
vn -3.43289e-14 -0.781295 0.624162 
vn -3.87737e-14 -0.709231 0.704976 
vn -2.94817e-14 -0.844199 0.53603 
vn -3.43289e-14 -0.781295 0.624162 
vn -2.42888e-14 -0.897205 0.441614 
vn -2.94817e-14 -0.844199 0.53603 
vn -2.42888e-14 -0.897205 0.441614 
f 1//1 2//2 3//3 
f 4//4 1//1 5//5 
f 6//6 4//4 7//7 
f 8//8 6//6 9//9 
f 10//10 8//8 11//11 
f 12//12 10//10 13//13 
f 14//14 12//12 15//15 
f 16//16 14//14 17//17 
f 18//18 16//16 19//19 
f 20//20 18//18 21//21 
f 22//22 20//20 23//23 
f 24//24 22//22 25//25 
f 26//26 24//24 27//27 
f 28//28 26//26 29//29 
f 30//30 28//28 31//31 
f 32//32 30//30 33//33 
f 34//34 32//32 35//35 
f 36//36 34//34 37//37 
f 38//38 36//36 39//39 
f 40//40 38//38 41//41 
f 42//42 40//40 43//43 
f 44//44 42//42 45//45 
f 46//46 44//44 47//47 
f 48//48 46//46 49//49 
f 50//50 48//48 51//51 
f 52//52 50//50 53//53 
f 54//54 52//52 55//55 
f 56//56 54//54 57//57 
f 58//58 56//56 59//59 
f 60//60 58//58 61//61 
f 62//62 60//60 63//63 
f 64//64 62//62 65//65 
f 66//66 64//64 67//67 
f 68//68 66//66 69//69 
f 70//70 68//68 71//71 
f 72//72 70//70 73//73 
f 74//74 72//72 75//75 
f 76//76 74//74 77//77 
f 78//78 76//76 79//79 
f 80//80 78//78 81//81 
f 82//82 80//80 83//83 
f 84//84 82//82 85//85 
f 86//86 84//84 87//87 
f 88//88 86//86 89//89 
f 90//90 88//88 91//91 
f 92//92 90//90 93//93 
f 94//94 92//92 95//95 
f 96//96 94//94 97//97 
f 98//98 96//96 99//99 
f 100//100 98//98 101//101 
f 102//102 100//100 103//103 
f 104//104 102//102 105//105 
f 106//106 104//104 107//107 
f 108//108 106//106 109//109 
f 110//110 108//108 111//111 
f 112//112 110//110 113//113 
f 114//114 112//112 115//115 
f 2//2 114//114 116//116 
f 116//116 3//3 2//2 
f 115//115 116//116 114//114 
f 113//113 115//115 112//112 
f 111//111 113//113 110//110 
f 109//109 111//111 108//108 
f 107//107 109//109 106//106 
f 105//105 107//107 104//104 
f 103//103 105//105 102//102 
f 101//101 103//103 100//100 
f 99//99 101//101 98//98 
f 97//97 99//99 96//96 
f 95//95 97//97 94//94 
f 93//93 95//95 92//92 
f 91//91 93//93 90//90 
f 89//89 91//91 88//88 
f 87//87 89//89 86//86 
f 85//85 87//87 84//84 
f 83//83 85//85 82//82 
f 81//81 83//83 80//80 
f 79//79 81//81 78//78 
f 77//77 79//79 76//76 
f 75//75 77//77 74//74 
f 73//73 75//75 72//72 
f 71//71 73//73 70//70 
f 69//69 71//71 68//68 
f 67//67 69//69 66//66 
f 65//65 67//67 64//64 
f 63//63 65//65 62//62 
f 61//61 63//63 60//60 
f 59//59 61//61 58//58 
f 57//57 59//59 56//56 
f 55//55 57//57 54//54 
f 53//53 55//55 52//52 
f 51//51 53//53 50//50 
f 49//49 51//51 48//48 
f 47//47 49//49 46//46 
f 45//45 47//47 44//44 
f 43//43 45//45 42//42 
f 41//41 43//43 40//40 
f 39//39 41//41 38//38 
f 37//37 39//39 36//36 
f 35//35 37//37 34//34 
f 33//33 35//35 32//32 
f 31//31 33//33 30//30 
f 29//29 31//31 28//28 
f 27//27 29//29 26//26 
f 25//25 27//27 24//24 
f 23//23 25//25 22//22 
f 21//21 23//23 20//20 
f 19//19 21//21 18//18 
f 17//17 19//19 16//16 
f 15//15 17//17 14//14 
f 13//13 15//15 12//12 
f 11//11 13//13 10//10 
f 9//9 11//11 8//8 
f 7//7 9//9 6//6 
f 5//5 7//7 4//4 
f 3//3 5//5 1//1 
o mesh16221
v 0.000475 0.212414 0.0380685 
v 0.000475 0.172437 0.0358912 
v 0.000475 0.172787 0.0359208 
v 0.000475 0.174383 0.0366128 
v 0.000475 0.174644 0.0368486 
v 0.000475 0.173792 0.0362325 
v 0.000475 0.174097 0.0364066 
v 0.000475 0.173133 0.0359882 
v 0.000475 0.173469 0.0360925 
v 0.000475 0.171394 0.03603 
v 0.000475 0.168978 -0.0812724 
v 0.000475 0.140644 -0.0574446 
v 0.000475 0.124225 -0.0649837 
v 0.000475 0.134956 -0.058237 
v 0.000475 0.135177 -0.0585106 
v 0.000475 0.134486 -0.0572963 
v 0.000475 0.134608 -0.0576263 
v 0.000475 0.138192 -0.0531394 
v 0.000475 0.167662 0.0543572 
v 0.000475 0.169285 0.0402513 
v 0.000475 0.175393 0.0380282 
v 0.000475 0.175495 0.0383649 
v 0.000475 0.172085 0.0358997 
v 0.000475 0.140506 -0.0577683 
v 0.000475 0.138038 -0.0595519 
v 0.000475 0.138383 -0.0594846 
v 0.000475 0.135427 -0.0587587 
v 0.000475 0.135702 -0.0589783 
v 0.000475 0.134765 -0.0579411 
v 0.000475 0.1344 -0.0569551 
v 0.000475 0.169423 0.040575 
v 0.000475 0.17556 0.0387107 
v 0.000475 0.175083 0.0373976 
v 0.000475 0.175255 0.0377045 
v 0.000475 0.171736 0.0359461 
v 0.000475 0.140333 -0.0580751 
v 0.000475 0.139042 -0.0592403 
v 0.000475 0.139348 -0.0590661 
v 0.000475 0.13872 -0.0593803 
v 0.000475 0.135999 -0.059167 
v 0.000475 0.169595 0.0408818 
v 0.000475 0.174878 0.0371112 
v 0.000475 0.171064 0.0361504 
v 0.000475 0.139633 -0.05886 
v 0.000475 0.139895 -0.0586242 
v 0.000475 0.137336 -0.0595731 
v 0.000475 0.137687 -0.0595816 
v 0.000475 0.136987 -0.0595266 
v 0.000475 0.136314 -0.0593224 
v 0.000475 0.136645 -0.0594427 
v 0.000475 0.137844 -0.053093 
v 0.000475 0.1698 0.0411683 
v 0.000475 0.140129 -0.0583616 
v 0.000475 0.134341 -0.0562548 
v 0.000475 0.134351 -0.0566065 
v 0.000475 0.138534 -0.0532233 
v 0.000475 0.139181 -0.0534991 
v 0.000475 0.138865 -0.0533437 
v 0.000475 0.140002 -0.0541555 
v 0.000475 0.169183 0.0399146 
v 0.000475 0.140694 -0.0553697 
v 0.000475 0.140571 -0.0550398 
v 0.000475 0.140839 -0.0564113 
v 0.000475 0.140828 -0.0560595 
v 0.000475 0.140746 -0.0571079 
v 0.000475 0.140811 -0.0567621 
v 0.000475 0.170451 0.0364944 
v 0.000475 0.170748 0.0363058 
v 0.000475 0.170295 0.0416667 
v 0.000475 0.170034 0.0414309 
v 0.000475 0.140224 -0.0544291 
v 0.000475 0.140414 -0.054725 
v 0.000475 0.1691 0.0388662 
v 0.000475 0.169149 0.0385177 
v 0.000475 0.139753 -0.0539074 
v 0.000475 0.139478 -0.0536877 
v 0.000475 0.169117 0.0395688 
v 0.000475 0.14078 -0.055711 
v 0.000475 0.173614 0.0421291 
v 0.000475 0.173283 0.0422494 
v 0.000475 0.174227 0.041785 
v 0.000475 0.175588 0.0390615 
v 0.000475 0.175577 0.0394132 
v 0.000475 0.169705 0.0372358 
v 0.000475 0.169926 0.0369622 
v 0.000475 0.169235 0.0381764 
v 0.000475 0.170886 0.042047 
v 0.000475 0.17058 0.0418728 
v 0.000475 0.16909 0.039218 
v 0.000475 0.135285 -0.0540419 
v 0.000475 0.13505 -0.0543045 
v 0.000475 0.17393 0.0419737 
v 0.000475 0.174502 0.0415654 
v 0.000475 0.170176 0.0367141 
v 0.000475 0.169357 0.0378465 
v 0.000475 0.134846 -0.0545909 
v 0.000475 0.134674 -0.0548978 
v 0.000475 0.136137 -0.0534258 
v 0.000475 0.135831 -0.0535999 
v 0.000475 0.174973 0.0410437 
v 0.000475 0.174752 0.0413173 
v 0.000475 0.169515 0.0375317 
v 0.000475 0.171545 0.0422913 
v 0.000475 0.171209 0.042187 
v 0.000475 0.134433 -0.0555582 
v 0.000475 0.134368 -0.055904 
v 0.000475 0.135546 -0.0538061 
v 0.000475 0.172942 0.0423333 
v 0.000475 0.172593 0.0423798 
v 0.000475 0.134536 -0.0552215 
v 0.000475 0.136796 -0.0531815 
v 0.000475 0.13646 -0.0532858 
v 0.000475 0.137492 -0.0530845 
v 0.000475 0.137141 -0.0531141 
v 0.000475 0.175321 0.040433 
v 0.000475 0.175163 0.0407478 
v 0.000475 0.172241 0.0423883 
v 0.000475 0.17189 0.0423587 
v 0.000475 0.175529 0.0397618 
v 0.000475 0.175443 0.040103 
vn -1 6.57177e-17 -5.50239e-14 
vn -1 6.57177e-17 -5.50239e-14 
vn -1 6.57177e-17 -5.50239e-14 
vn -1 6.57177e-17 -5.50239e-14 
vn -1 6.57177e-17 -5.50239e-14 
vn -1 6.57177e-17 -5.50239e-14 
vn -1 6.57177e-17 -5.50239e-14 
vn -1 6.57177e-17 -5.50239e-14 
vn -1 6.57177e-17 -5.50239e-14 
vn -1 6.57177e-17 -5.50239e-14 
vn -1 6.57177e-17 -5.50239e-14 
vn -1 6.57177e-17 -5.50239e-14 
vn -1 6.57177e-17 -5.50239e-14 
vn -1 6.57177e-17 -5.50239e-14 
vn -1 6.57177e-17 -5.50239e-14 
vn -1 6.57177e-17 -5.50239e-14 
vn -1 6.57177e-17 -5.50239e-14 
vn -1 6.57177e-17 -5.50239e-14 
vn -1 6.57177e-17 -5.50239e-14 
vn -1 6.57177e-17 -5.50239e-14 
vn -1 6.57177e-17 -5.50239e-14 
vn -1 6.57177e-17 -5.50239e-14 
vn -1 6.57177e-17 -5.50239e-14 
vn -1 6.57177e-17 -5.50239e-14 
vn -1 6.57177e-17 -5.50239e-14 
vn -1 6.57177e-17 -5.50239e-14 
vn -1 6.57177e-17 -5.50239e-14 
vn -1 6.57177e-17 -5.50239e-14 
vn -1 6.57177e-17 -5.50239e-14 
vn -1 6.57177e-17 -5.50239e-14 
vn -1 6.57177e-17 -5.50239e-14 
vn -1 6.57177e-17 -5.50239e-14 
vn -1 6.57177e-17 -5.50239e-14 
vn -1 6.57177e-17 -5.50239e-14 
vn -1 6.57177e-17 -5.50239e-14 
vn -1 6.57177e-17 -5.50239e-14 
vn -1 6.57177e-17 -5.50239e-14 
vn -1 6.57177e-17 -5.50239e-14 
vn -1 6.57177e-17 -5.50239e-14 
vn -1 6.57177e-17 -5.50239e-14 
vn -1 6.57177e-17 -5.50239e-14 
vn -1 6.57177e-17 -5.50239e-14 
vn -1 6.57177e-17 -5.50239e-14 
vn -1 6.57177e-17 -5.50239e-14 
vn -1 6.57177e-17 -5.50239e-14 
vn -1 6.57177e-17 -5.50239e-14 
vn -1 6.57177e-17 -5.50239e-14 
vn -1 6.57177e-17 -5.50239e-14 
vn -1 6.57177e-17 -5.50239e-14 
vn -1 6.57177e-17 -5.50239e-14 
vn -1 6.57177e-17 -5.50239e-14 
vn -1 6.57177e-17 -5.50239e-14 
vn -1 6.57177e-17 -5.50239e-14 
vn -1 6.57177e-17 -5.50239e-14 
vn -1 6.57177e-17 -5.50239e-14 
vn -1 6.57177e-17 -5.50239e-14 
vn -1 6.57177e-17 -5.50239e-14 
vn -1 6.57177e-17 -5.50239e-14 
vn -1 6.57177e-17 -5.50239e-14 
vn -1 6.57177e-17 -5.50239e-14 
vn -1 6.57177e-17 -5.50239e-14 
vn -1 6.57177e-17 -5.50239e-14 
vn -1 6.57177e-17 -5.50239e-14 
vn -1 6.57177e-17 -5.50239e-14 
vn -1 6.57177e-17 -5.50239e-14 
vn -1 6.57177e-17 -5.50239e-14 
vn -1 6.57177e-17 -5.50239e-14 
vn -1 6.57177e-17 -5.50239e-14 
vn -1 6.57177e-17 -5.50239e-14 
vn -1 6.57177e-17 -5.50239e-14 
vn -1 6.57177e-17 -5.50239e-14 
vn -1 6.57177e-17 -5.50239e-14 
vn -1 6.57177e-17 -5.50239e-14 
vn -1 6.57177e-17 -5.50239e-14 
vn -1 6.57177e-17 -5.50239e-14 
vn -1 6.57177e-17 -5.50239e-14 
vn -1 6.57177e-17 -5.50239e-14 
vn -1 6.57177e-17 -5.50239e-14 
vn -1 6.57177e-17 -5.50239e-14 
vn -1 6.57177e-17 -5.50239e-14 
vn -1 6.57177e-17 -5.50239e-14 
vn -1 6.57177e-17 -5.50239e-14 
vn -1 6.57177e-17 -5.50239e-14 
vn -1 6.57177e-17 -5.50239e-14 
vn -1 6.57177e-17 -5.50239e-14 
vn -1 6.57177e-17 -5.50239e-14 
vn -1 6.57177e-17 -5.50239e-14 
vn -1 6.57177e-17 -5.50239e-14 
vn -1 6.57177e-17 -5.50239e-14 
vn -1 6.57177e-17 -5.50239e-14 
vn -1 6.57177e-17 -5.50239e-14 
vn -1 6.57177e-17 -5.50239e-14 
vn -1 6.57177e-17 -5.50239e-14 
vn -1 6.57177e-17 -5.50239e-14 
vn -1 6.57177e-17 -5.50239e-14 
vn -1 6.57177e-17 -5.50239e-14 
vn -1 6.57177e-17 -5.50239e-14 
vn -1 6.57177e-17 -5.50239e-14 
vn -1 6.57177e-17 -5.50239e-14 
vn -1 6.57177e-17 -5.50239e-14 
vn -1 6.57177e-17 -5.50239e-14 
vn -1 6.57177e-17 -5.50239e-14 
vn -1 6.57177e-17 -5.50239e-14 
vn -1 6.57177e-17 -5.50239e-14 
vn -1 6.57177e-17 -5.50239e-14 
vn -1 6.57177e-17 -5.50239e-14 
vn -1 6.57177e-17 -5.50239e-14 
vn -1 6.57177e-17 -5.50239e-14 
vn -1 6.57177e-17 -5.50239e-14 
vn -1 6.57177e-17 -5.50239e-14 
vn -1 6.57177e-17 -5.50239e-14 
vn -1 6.57177e-17 -5.50239e-14 
vn -1 6.57177e-17 -5.50239e-14 
vn -1 6.57177e-17 -5.50239e-14 
vn -1 6.57177e-17 -5.50239e-14 
vn -1 6.57177e-17 -5.50239e-14 
vn -1 6.57177e-17 -5.50239e-14 
vn -1 6.57177e-17 -5.50239e-14 
vn -1 6.57177e-17 -5.50239e-14 
vn -1 6.57177e-17 -5.50239e-14 
f 117//117 118//118 119//119 
f 117//117 120//120 121//121 
f 117//117 122//122 123//123 
f 119//119 124//124 117//117 
f 123//123 120//120 117//117 
f 124//124 125//125 117//117 
f 126//126 127//127 128//128 
f 129//129 130//130 131//131 
f 129//129 132//132 133//133 
f 134//134 135//135 136//136 
f 117//117 137//137 138//138 
f 125//125 122//122 117//117 
f 127//127 139//139 118//118 
f 127//127 140//140 128//128 
f 127//127 141//141 142//142 
f 129//129 143//143 144//144 
f 129//129 145//145 130//130 
f 129//129 146//146 132//132 
f 135//135 147//147 136//136 
f 138//138 148//148 117//117 
f 117//117 149//149 150//150 
f 118//118 117//117 127//127 
f 127//127 126//126 151//151 
f 127//127 152//152 140//140 
f 127//127 153//153 154//154 
f 142//142 155//155 127//127 
f 144//144 156//156 129//129 
f 133//133 145//145 129//129 
f 135//135 157//157 147//147 
f 150//150 137//137 117//117 
f 121//121 158//158 117//117 
f 128//128 159//159 126//126 
f 127//127 160//160 161//161 
f 155//155 153//153 127//127 
f 127//127 162//162 163//163 
f 129//129 164//164 162//162 
f 129//129 165//165 166//166 
f 131//131 143//143 129//129 
f 135//135 134//134 167//167 
f 135//135 168//168 157//157 
f 158//158 149//149 117//117 
f 127//127 169//169 152//152 
f 154//154 160//160 127//127 
f 162//162 127//127 129//129 
f 156//156 165//165 129//129 
f 129//129 170//170 171//171 
f 136//136 172//172 134//134 
f 136//136 173//173 174//174 
f 175//175 136//136 176//176 
f 176//176 177//177 178//178 
f 176//176 179//179 180//180 
f 176//176 181//181 182//182 
f 151//151 139//139 127//127 
f 128//128 183//183 184//184 
f 163//163 141//141 127//127 
f 171//171 146//146 129//129 
f 174//174 172//172 136//136 
f 135//135 185//185 186//186 
f 176//176 187//187 175//175 
f 178//178 188//188 176//176 
f 182//182 179//179 176//176 
f 184//184 159//159 128//128 
f 166//166 164//164 129//129 
f 181//181 189//189 190//190 
f 186//186 168//168 135//135 
f 136//136 191//191 192//192 
f 181//181 176//176 193//193 
f 188//188 187//187 176//176 
f 180//180 194//194 176//176 
f 135//135 195//195 196//196 
f 135//135 117//117 197//197 
f 117//117 198//198 199//199 
f 161//161 169//169 127//127 
f 183//183 128//128 181//181 
f 181//181 200//200 201//201 
f 190//190 202//202 181//181 
f 192//192 173//173 136//136 
f 135//135 203//203 204//204 
f 193//193 205//205 181//181 
f 194//194 177//177 176//176 
f 135//135 206//206 207//207 
f 135//135 208//208 195//195 
f 117//117 209//209 197//197 
f 148//148 198//198 117//117 
f 201//201 210//210 181//181 
f 202//202 211//211 181//181 
f 204//204 185//185 135//135 
f 175//175 191//191 136//136 
f 129//129 212//212 213//213 
f 207//207 129//129 135//135 
f 135//135 214//214 215//215 
f 197//197 208//208 135//135 
f 117//117 216//216 217//217 
f 181//181 210//210 183//183 
f 211//211 218//218 181//181 
f 205//205 189//189 181//181 
f 135//135 219//219 220//220 
f 129//129 221//221 222//222 
f 207//207 212//212 129//129 
f 215//215 223//223 135//135 
f 135//135 224//224 225//225 
f 217//217 209//209 117//117 
f 218//218 200//200 181//181 
f 220//220 203//203 135//135 
f 129//129 226//226 221//221 
f 223//223 206//206 135//135 
f 135//135 227//227 228//228 
f 135//135 229//229 230//230 
f 196//196 224//224 135//135 
f 117//117 231//231 232//232 
f 167//167 229//229 135//135 
f 135//135 233//233 234//234 
f 213//213 226//226 129//129 
f 230//230 227//227 135//135 
f 232//232 216//216 117//117 
f 117//117 235//235 236//236 
f 234//234 219//219 135//135 
f 228//228 214//214 135//135 
f 236//236 231//231 117//117 
f 222//222 170//170 129//129 
f 199//199 235//235 117//117 
f 225//225 233//233 135//135 
o mesh16222
v 0.00365 0.124225 -0.0649837 
v 0.00365 0.167662 0.0543572 
v 0.000475 0.167662 0.0543572 
v 0.000475 0.124225 -0.0649837 
vn -1.88111e-14 -0.939693 0.34202 
vn -1.88111e-14 -0.939693 0.34202 
vn -1.88111e-14 -0.939693 0.34202 
vn -1.88111e-14 -0.939693 0.34202 
f 237//237 238//238 239//239 
f 239//239 240//240 237//237 
o mesh16223
v 0.000475 0.175495 0.0383649 
v 0.000475 0.175393 0.0380282 
v 0.00365 0.175393 0.0380282 
v 0.000475 0.17556 0.0387107 
v 0.00365 0.175495 0.0383649 
v 0.000475 0.175588 0.0390615 
v 0.00365 0.17556 0.0387107 
v 0.000475 0.175577 0.0394132 
v 0.00365 0.175588 0.0390615 
v 0.000475 0.175529 0.0397618 
v 0.00365 0.175577 0.0394132 
v 0.000475 0.175443 0.040103 
v 0.00365 0.175529 0.0397618 
v 0.000475 0.175321 0.040433 
v 0.00365 0.175443 0.040103 
v 0.000475 0.175163 0.0407478 
v 0.00365 0.175321 0.040433 
v 0.000475 0.174973 0.0410437 
v 0.00365 0.175163 0.0407478 
v 0.000475 0.174752 0.0413173 
v 0.00365 0.174973 0.0410437 
v 0.000475 0.174502 0.0415654 
v 0.00365 0.174752 0.0413173 
v 0.000475 0.174227 0.041785 
v 0.00365 0.174502 0.0415654 
v 0.000475 0.17393 0.0419737 
v 0.00365 0.174227 0.041785 
v 0.000475 0.173614 0.0421291 
v 0.00365 0.17393 0.0419737 
v 0.000475 0.173283 0.0422494 
v 0.00365 0.173614 0.0421291 
v 0.000475 0.172942 0.0423333 
v 0.00365 0.173283 0.0422494 
v 0.000475 0.172593 0.0423798 
v 0.00365 0.172942 0.0423333 
v 0.000475 0.172241 0.0423883 
v 0.00365 0.172593 0.0423798 
v 0.000475 0.17189 0.0423587 
v 0.00365 0.172241 0.0423883 
v 0.000475 0.171545 0.0422913 
v 0.00365 0.17189 0.0423587 
v 0.000475 0.171209 0.042187 
v 0.00365 0.171545 0.0422913 
v 0.000475 0.170886 0.042047 
v 0.00365 0.171209 0.042187 
v 0.000475 0.17058 0.0418728 
v 0.00365 0.170886 0.042047 
v 0.000475 0.170295 0.0416667 
v 0.00365 0.17058 0.0418728 
v 0.000475 0.170034 0.0414309 
v 0.00365 0.170295 0.0416667 
v 0.000475 0.1698 0.0411683 
v 0.00365 0.170034 0.0414309 
v 0.000475 0.169595 0.0408818 
v 0.00365 0.1698 0.0411683 
v 0.000475 0.169423 0.040575 
v 0.00365 0.169595 0.0408818 
v 0.000475 0.169285 0.0402513 
v 0.00365 0.169423 0.040575 
v 0.000475 0.169183 0.0399146 
v 0.00365 0.169285 0.0402513 
v 0.000475 0.169117 0.0395688 
v 0.00365 0.169183 0.0399146 
v 0.000475 0.16909 0.039218 
v 0.00365 0.169117 0.0395688 
v 0.000475 0.1691 0.0388662 
v 0.00365 0.16909 0.039218 
v 0.000475 0.169149 0.0385177 
v 0.00365 0.1691 0.0388662 
v 0.000475 0.169235 0.0381764 
v 0.00365 0.169149 0.0385177 
v 0.000475 0.169357 0.0378465 
v 0.00365 0.169235 0.0381764 
v 0.000475 0.169515 0.0375317 
v 0.00365 0.169357 0.0378465 
v 0.000475 0.169705 0.0372358 
v 0.00365 0.169515 0.0375317 
v 0.000475 0.169926 0.0369622 
v 0.00365 0.169705 0.0372358 
v 0.000475 0.170176 0.0367141 
v 0.00365 0.169926 0.0369622 
v 0.000475 0.170451 0.0364944 
v 0.00365 0.170176 0.0367141 
v 0.000475 0.170748 0.0363058 
v 0.00365 0.170451 0.0364944 
v 0.000475 0.171064 0.0361504 
v 0.00365 0.170748 0.0363058 
v 0.000475 0.171394 0.03603 
v 0.00365 0.171064 0.0361504 
v 0.000475 0.171736 0.0359461 
v 0.00365 0.171394 0.03603 
v 0.000475 0.172085 0.0358997 
v 0.00365 0.171736 0.0359461 
v 0.000475 0.172437 0.0358912 
v 0.00365 0.172085 0.0358997 
v 0.000475 0.172787 0.0359208 
v 0.00365 0.172437 0.0358912 
v 0.000475 0.173133 0.0359882 
v 0.00365 0.172787 0.0359208 
v 0.000475 0.173469 0.0360925 
v 0.00365 0.173133 0.0359882 
v 0.000475 0.173792 0.0362325 
v 0.00365 0.173469 0.0360925 
v 0.000475 0.174097 0.0364066 
v 0.00365 0.173792 0.0362325 
v 0.000475 0.174383 0.0366128 
v 0.00365 0.174097 0.0364066 
v 0.000475 0.174644 0.0368486 
v 0.00365 0.174383 0.0366128 
v 0.000475 0.174878 0.0371112 
v 0.00365 0.174644 0.0368486 
v 0.000475 0.175083 0.0373976 
v 0.00365 0.174878 0.0371112 
v 0.000475 0.175255 0.0377045 
v 0.00365 0.175083 0.0373976 
v 0.00365 0.175255 0.0377045 
vn -1.31129e-14 -0.971163 0.238417 
vn -1.88111e-14 -0.939693 0.34202 
vn -1.88111e-14 -0.939693 0.34202 
vn -7.26098e-15 -0.991247 0.132018 
vn -1.31129e-14 -0.971163 0.238417 
vn -1.32391e-15 -0.99971 0.0240712 
vn -7.26098e-15 -0.991247 0.132018 
vn 4.62867e-15 -0.996452 -0.0841576 
vn -1.32391e-15 -0.99971 0.0240712 
vn 1.0527e-14 -0.981512 -0.1914 
vn 4.62867e-15 -0.996452 -0.0841576 
vn 1.63019e-14 -0.955065 -0.296398 
vn 1.0527e-14 -0.981512 -0.1914 
vn 2.18857e-14 -0.91742 -0.397921 
vn 1.63019e-14 -0.955065 -0.296398 
vn 2.72128e-14 -0.869019 -0.494779 
vn 2.18857e-14 -0.91742 -0.397921 
vn 3.2221e-14 -0.81043 -0.585836 
vn 2.72128e-14 -0.869019 -0.494779 
vn 3.68514e-14 -0.742339 -0.670025 
vn 3.2221e-14 -0.81043 -0.585836 
vn 4.10497e-14 -0.665545 -0.746358 
vn 3.68514e-14 -0.742339 -0.670025 
vn 4.47667e-14 -0.580948 -0.813941 
vn 4.10497e-14 -0.665545 -0.746358 
vn 4.79589e-14 -0.48954 -0.871981 
vn 4.47667e-14 -0.580948 -0.813941 
vn 5.05889e-14 -0.392392 -0.919798 
vn 4.79589e-14 -0.48954 -0.871981 
vn 5.26257e-14 -0.290645 -0.956831 
vn 5.05889e-14 -0.392392 -0.919798 
vn 5.40455e-14 -0.185489 -0.982646 
vn 5.26257e-14 -0.290645 -0.956831 
vn 5.48317e-14 -0.0781591 -0.996941 
vn 5.40455e-14 -0.185489 -0.982646 
vn 5.49751e-14 0.0300873 -0.999547 
vn 5.48317e-14 -0.0781591 -0.996941 
vn 5.44739e-14 0.137981 -0.990435 
vn 5.49751e-14 0.0300873 -0.999547 
vn 5.33341e-14 0.244257 -0.969711 
vn 5.44739e-14 0.137981 -0.990435 
vn 5.15689e-14 0.347669 -0.937617 
vn 5.33341e-14 0.244257 -0.969711 
vn 4.91992e-14 0.447006 -0.894531 
vn 5.15689e-14 0.347669 -0.937617 
vn 4.62527e-14 0.541101 -0.840958 
vn 4.91992e-14 0.447006 -0.894531 
vn 4.27639e-14 0.628853 -0.777525 
vn 4.62527e-14 0.541101 -0.840958 
vn 3.87737e-14 0.709231 -0.704976 
vn 4.27639e-14 0.628853 -0.777525 
vn 3.43289e-14 0.781295 -0.624162 
vn 3.87737e-14 0.709231 -0.704976 
vn 2.94817e-14 0.844199 -0.53603 
vn 3.43289e-14 0.781295 -0.624162 
vn 2.42888e-14 0.897205 -0.441614 
vn 2.94817e-14 0.844199 -0.53603 
vn 1.88111e-14 0.939693 -0.34202 
vn 2.42888e-14 0.897205 -0.441614 
vn 1.31129e-14 0.971163 -0.238417 
vn 1.88111e-14 0.939693 -0.34202 
vn 7.26098e-15 0.991247 -0.132018 
vn 1.31129e-14 0.971163 -0.238417 
vn 1.32391e-15 0.99971 -0.0240712 
vn 7.26098e-15 0.991247 -0.132018 
vn -4.62867e-15 0.996452 0.0841576 
vn 1.32391e-15 0.99971 -0.0240712 
vn -1.0527e-14 0.981512 0.1914 
vn -4.62867e-15 0.996452 0.0841576 
vn -1.63019e-14 0.955065 0.296398 
vn -1.0527e-14 0.981512 0.1914 
vn -2.18857e-14 0.91742 0.397921 
vn -1.63019e-14 0.955065 0.296398 
vn -2.72128e-14 0.869019 0.494779 
vn -2.18857e-14 0.91742 0.397921 
vn -3.2221e-14 0.81043 0.585836 
vn -2.72128e-14 0.869019 0.494779 
vn -3.68514e-14 0.742339 0.670025 
vn -3.2221e-14 0.81043 0.585836 
vn -4.10497e-14 0.665545 0.746358 
vn -3.68514e-14 0.742339 0.670025 
vn -4.47667e-14 0.580948 0.813941 
vn -4.10497e-14 0.665545 0.746358 
vn -4.79589e-14 0.48954 0.871981 
vn -4.47667e-14 0.580948 0.813941 
vn -5.05889e-14 0.392392 0.919798 
vn -4.79589e-14 0.48954 0.871981 
vn -5.26257e-14 0.290645 0.956831 
vn -5.05889e-14 0.392392 0.919798 
vn -5.40455e-14 0.185489 0.982646 
vn -5.26257e-14 0.290645 0.956831 
vn -5.48317e-14 0.0781591 0.996941 
vn -5.40455e-14 0.185489 0.982646 
vn -5.49751e-14 -0.0300873 0.999547 
vn -5.48317e-14 0.0781591 0.996941 
vn -5.44739e-14 -0.137981 0.990435 
vn -5.49751e-14 -0.0300873 0.999547 
vn -5.33341e-14 -0.244257 0.969711 
vn -5.44739e-14 -0.137981 0.990435 
vn -5.15689e-14 -0.347669 0.937617 
vn -5.33341e-14 -0.244257 0.969711 
vn -4.91992e-14 -0.447006 0.894531 
vn -5.15689e-14 -0.347669 0.937617 
vn -4.62527e-14 -0.541101 0.840958 
vn -4.91992e-14 -0.447006 0.894531 
vn -4.27639e-14 -0.628853 0.777525 
vn -4.62527e-14 -0.541101 0.840958 
vn -3.87737e-14 -0.709231 0.704976 
vn -4.27639e-14 -0.628853 0.777525 
vn -3.43289e-14 -0.781295 0.624162 
vn -3.87737e-14 -0.709231 0.704976 
vn -2.94817e-14 -0.844199 0.53603 
vn -3.43289e-14 -0.781295 0.624162 
vn -2.42888e-14 -0.897205 0.441614 
vn -2.94817e-14 -0.844199 0.53603 
vn -2.42888e-14 -0.897205 0.441614 
f 241//241 242//242 243//243 
f 244//244 241//241 245//245 
f 246//246 244//244 247//247 
f 248//248 246//246 249//249 
f 250//250 248//248 251//251 
f 252//252 250//250 253//253 
f 254//254 252//252 255//255 
f 256//256 254//254 257//257 
f 258//258 256//256 259//259 
f 260//260 258//258 261//261 
f 262//262 260//260 263//263 
f 264//264 262//262 265//265 
f 266//266 264//264 267//267 
f 268//268 266//266 269//269 
f 270//270 268//268 271//271 
f 272//272 270//270 273//273 
f 274//274 272//272 275//275 
f 276//276 274//274 277//277 
f 278//278 276//276 279//279 
f 280//280 278//278 281//281 
f 282//282 280//280 283//283 
f 284//284 282//282 285//285 
f 286//286 284//284 287//287 
f 288//288 286//286 289//289 
f 290//290 288//288 291//291 
f 292//292 290//290 293//293 
f 294//294 292//292 295//295 
f 296//296 294//294 297//297 
f 298//298 296//296 299//299 
f 300//300 298//298 301//301 
f 302//302 300//300 303//303 
f 304//304 302//302 305//305 
f 306//306 304//304 307//307 
f 308//308 306//306 309//309 
f 310//310 308//308 311//311 
f 312//312 310//310 313//313 
f 314//314 312//312 315//315 
f 316//316 314//314 317//317 
f 318//318 316//316 319//319 
f 320//320 318//318 321//321 
f 322//322 320//320 323//323 
f 324//324 322//322 325//325 
f 326//326 324//324 327//327 
f 328//328 326//326 329//329 
f 330//330 328//328 331//331 
f 332//332 330//330 333//333 
f 334//334 332//332 335//335 
f 336//336 334//334 337//337 
f 338//338 336//336 339//339 
f 340//340 338//338 341//341 
f 342//342 340//340 343//343 
f 344//344 342//342 345//345 
f 346//346 344//344 347//347 
f 348//348 346//346 349//349 
f 350//350 348//348 351//351 
f 352//352 350//350 353//353 
f 354//354 352//352 355//355 
f 242//242 354//354 356//356 
f 356//356 243//243 242//242 
f 355//355 356//356 354//354 
f 353//353 355//355 352//352 
f 351//351 353//353 350//350 
f 349//349 351//351 348//348 
f 347//347 349//349 346//346 
f 345//345 347//347 344//344 
f 343//343 345//345 342//342 
f 341//341 343//343 340//340 
f 339//339 341//341 338//338 
f 337//337 339//339 336//336 
f 335//335 337//337 334//334 
f 333//333 335//335 332//332 
f 331//331 333//333 330//330 
f 329//329 331//331 328//328 
f 327//327 329//329 326//326 
f 325//325 327//327 324//324 
f 323//323 325//325 322//322 
f 321//321 323//323 320//320 
f 319//319 321//321 318//318 
f 317//317 319//319 316//316 
f 315//315 317//317 314//314 
f 313//313 315//315 312//312 
f 311//311 313//313 310//310 
f 309//309 311//311 308//308 
f 307//307 309//309 306//306 
f 305//305 307//307 304//304 
f 303//303 305//305 302//302 
f 301//301 303//303 300//300 
f 299//299 301//301 298//298 
f 297//297 299//299 296//296 
f 295//295 297//297 294//294 
f 293//293 295//295 292//292 
f 291//291 293//293 290//290 
f 289//289 291//291 288//288 
f 287//287 289//289 286//286 
f 285//285 287//287 284//284 
f 283//283 285//285 282//282 
f 281//281 283//283 280//280 
f 279//279 281//281 278//278 
f 277//277 279//279 276//276 
f 275//275 277//277 274//274 
f 273//273 275//275 272//272 
f 271//271 273//273 270//270 
f 269//269 271//271 268//268 
f 267//267 269//269 266//266 
f 265//265 267//267 264//264 
f 263//263 265//265 262//262 
f 261//261 263//263 260//260 
f 259//259 261//261 258//258 
f 257//257 259//259 256//256 
f 255//255 257//257 254//254 
f 253//253 255//255 252//252 
f 251//251 253//253 250//250 
f 249//249 251//251 248//248 
f 247//247 249//249 246//246 
f 245//245 247//247 244//244 
f 243//243 245//245 241//241 
o mesh16224
v 0.00365 0.135285 -0.0540419 
v 0.00365 0.173792 0.0362325 
v 0.00365 0.173469 0.0360925 
v 0.00365 0.124225 -0.0649837 
v 0.00365 0.169357 0.0378465 
v 0.00365 0.169235 0.0381764 
v 0.00365 0.171394 0.03603 
v 0.00365 0.171064 0.0361504 
v 0.00365 0.215398 0.0369826 
v 0.00365 0.139753 -0.0539074 
v 0.00365 0.140002 -0.0541555 
v 0.00365 0.138192 -0.0531394 
v 0.00365 0.138534 -0.0532233 
v 0.00365 0.137492 -0.0530845 
v 0.00365 0.137844 -0.053093 
v 0.00365 0.174097 0.0364066 
v 0.00365 0.174383 0.0366128 
v 0.00365 0.174878 0.0371112 
v 0.00365 0.174644 0.0368486 
v 0.00365 0.167662 0.0543572 
v 0.00365 0.173283 0.0422494 
v 0.00365 0.173614 0.0421291 
v 0.00365 0.16909 0.039218 
v 0.00365 0.169117 0.0395688 
v 0.00365 0.1691 0.0388662 
v 0.00365 0.169515 0.0375317 
v 0.00365 0.170451 0.0364944 
v 0.00365 0.170176 0.0367141 
v 0.00365 0.170748 0.0363058 
v 0.00365 0.140224 -0.0544291 
v 0.00365 0.139181 -0.0534991 
v 0.00365 0.139478 -0.0536877 
v 0.00365 0.138865 -0.0533437 
v 0.00365 0.137141 -0.0531141 
v 0.00365 0.136137 -0.0534258 
v 0.00365 0.13646 -0.0532858 
v 0.00365 0.135546 -0.0538061 
v 0.00365 0.135831 -0.0535999 
v 0.00365 0.172437 0.0358912 
v 0.00365 0.134536 -0.0552215 
v 0.00365 0.134674 -0.0548978 
v 0.00365 0.173133 0.0359882 
v 0.00365 0.175393 0.0380282 
v 0.00365 0.175255 0.0377045 
v 0.00365 0.172942 0.0423333 
v 0.00365 0.17058 0.0418728 
v 0.00365 0.170886 0.042047 
v 0.00365 0.169149 0.0385177 
v 0.00365 0.172085 0.0358997 
v 0.00365 0.171736 0.0359461 
v 0.00365 0.171961 -0.0823584 
v 0.00365 0.139348 -0.0590661 
v 0.00365 0.139042 -0.0592403 
v 0.00365 0.136796 -0.0531815 
v 0.00365 0.172787 0.0359208 
v 0.00365 0.134846 -0.0545909 
v 0.00365 0.13505 -0.0543045 
v 0.00365 0.175083 0.0373976 
v 0.00365 0.172593 0.0423798 
v 0.00365 0.17189 0.0423587 
v 0.00365 0.172241 0.0423883 
v 0.00365 0.171209 0.042187 
v 0.00365 0.169926 0.0369622 
v 0.00365 0.169705 0.0372358 
v 0.00365 0.134433 -0.0555582 
v 0.00365 0.135177 -0.0585106 
v 0.00365 0.134956 -0.058237 
v 0.00365 0.138383 -0.0594846 
v 0.00365 0.138038 -0.0595519 
v 0.00365 0.13872 -0.0593803 
v 0.00365 0.140828 -0.0560595 
v 0.00365 0.140839 -0.0564113 
v 0.00365 0.14078 -0.055711 
v 0.00365 0.140414 -0.054725 
v 0.00365 0.140571 -0.0550398 
v 0.00365 0.174227 0.041785 
v 0.00365 0.174502 0.0415654 
v 0.00365 0.171545 0.0422913 
v 0.00365 0.1698 0.0411683 
v 0.00365 0.170034 0.0414309 
v 0.00365 0.169423 0.040575 
v 0.00365 0.169595 0.0408818 
v 0.00365 0.134608 -0.0576263 
v 0.00365 0.134486 -0.0572963 
v 0.00365 0.135427 -0.0587587 
v 0.00365 0.135999 -0.059167 
v 0.00365 0.135702 -0.0589783 
v 0.00365 0.139895 -0.0586242 
v 0.00365 0.139633 -0.05886 
v 0.00365 0.140333 -0.0580751 
v 0.00365 0.140129 -0.0583616 
v 0.00365 0.140644 -0.0574446 
v 0.00365 0.140506 -0.0577683 
v 0.00365 0.140694 -0.0553697 
v 0.00365 0.17556 0.0387107 
v 0.00365 0.175495 0.0383649 
v 0.00365 0.175321 0.040433 
v 0.00365 0.175443 0.040103 
v 0.00365 0.174973 0.0410437 
v 0.00365 0.175163 0.0407478 
v 0.00365 0.174752 0.0413173 
v 0.00365 0.17393 0.0419737 
v 0.00365 0.170295 0.0416667 
v 0.00365 0.169285 0.0402513 
v 0.00365 0.134341 -0.0562548 
v 0.00365 0.134368 -0.055904 
v 0.00365 0.134765 -0.0579411 
v 0.00365 0.136987 -0.0595266 
v 0.00365 0.136645 -0.0594427 
v 0.00365 0.137687 -0.0595816 
v 0.00365 0.137336 -0.0595731 
v 0.00365 0.140811 -0.0567621 
v 0.00365 0.140746 -0.0571079 
v 0.00365 0.175588 0.0390615 
v 0.00365 0.175529 0.0397618 
v 0.00365 0.175577 0.0394132 
v 0.00365 0.169183 0.0399146 
v 0.00365 0.1344 -0.0569551 
v 0.00365 0.134351 -0.0566065 
v 0.00365 0.136314 -0.0593224 
vn 1 0 5.5e-14 
vn 1 0 5.5e-14 
vn 1 0 5.5e-14 
vn 1 0 5.5e-14 
vn 1 0 5.5e-14 
vn 1 0 5.5e-14 
vn 1 0 5.5e-14 
vn 1 0 5.5e-14 
vn 1 0 5.5e-14 
vn 1 0 5.5e-14 
vn 1 0 5.5e-14 
vn 1 0 5.5e-14 
vn 1 0 5.5e-14 
vn 1 0 5.5e-14 
vn 1 0 5.5e-14 
vn 1 0 5.5e-14 
vn 1 0 5.5e-14 
vn 1 0 5.5e-14 
vn 1 0 5.5e-14 
vn 1 0 5.5e-14 
vn 1 0 5.5e-14 
vn 1 0 5.5e-14 
vn 1 0 5.5e-14 
vn 1 0 5.5e-14 
vn 1 0 5.5e-14 
vn 1 0 5.5e-14 
vn 1 0 5.5e-14 
vn 1 0 5.5e-14 
vn 1 0 5.5e-14 
vn 1 0 5.5e-14 
vn 1 0 5.5e-14 
vn 1 0 5.5e-14 
vn 1 0 5.5e-14 
vn 1 0 5.5e-14 
vn 1 0 5.5e-14 
vn 1 0 5.5e-14 
vn 1 0 5.5e-14 
vn 1 0 5.5e-14 
vn 1 0 5.5e-14 
vn 1 0 5.5e-14 
vn 1 0 5.5e-14 
vn 1 0 5.5e-14 
vn 1 0 5.5e-14 
vn 1 0 5.5e-14 
vn 1 0 5.5e-14 
vn 1 0 5.5e-14 
vn 1 0 5.5e-14 
vn 1 0 5.5e-14 
vn 1 0 5.5e-14 
vn 1 0 5.5e-14 
vn 1 0 5.5e-14 
vn 1 0 5.5e-14 
vn 1 0 5.5e-14 
vn 1 0 5.5e-14 
vn 1 0 5.5e-14 
vn 1 0 5.5e-14 
vn 1 0 5.5e-14 
vn 1 0 5.5e-14 
vn 1 0 5.5e-14 
vn 1 0 5.5e-14 
vn 1 0 5.5e-14 
vn 1 0 5.5e-14 
vn 1 0 5.5e-14 
vn 1 0 5.5e-14 
vn 1 0 5.5e-14 
vn 1 0 5.5e-14 
vn 1 0 5.5e-14 
vn 1 0 5.5e-14 
vn 1 0 5.5e-14 
vn 1 0 5.5e-14 
vn 1 0 5.5e-14 
vn 1 0 5.5e-14 
vn 1 0 5.5e-14 
vn 1 0 5.5e-14 
vn 1 0 5.5e-14 
vn 1 0 5.5e-14 
vn 1 0 5.5e-14 
vn 1 0 5.5e-14 
vn 1 0 5.5e-14 
vn 1 0 5.5e-14 
vn 1 0 5.5e-14 
vn 1 0 5.5e-14 
vn 1 0 5.5e-14 
vn 1 0 5.5e-14 
vn 1 0 5.5e-14 
vn 1 0 5.5e-14 
vn 1 0 5.5e-14 
vn 1 0 5.5e-14 
vn 1 0 5.5e-14 
vn 1 0 5.5e-14 
vn 1 0 5.5e-14 
vn 1 0 5.5e-14 
vn 1 0 5.5e-14 
vn 1 0 5.5e-14 
vn 1 0 5.5e-14 
vn 1 0 5.5e-14 
vn 1 0 5.5e-14 
vn 1 0 5.5e-14 
vn 1 0 5.5e-14 
vn 1 0 5.5e-14 
vn 1 0 5.5e-14 
vn 1 0 5.5e-14 
vn 1 0 5.5e-14 
vn 1 0 5.5e-14 
vn 1 0 5.5e-14 
vn 1 0 5.5e-14 
vn 1 0 5.5e-14 
vn 1 0 5.5e-14 
vn 1 0 5.5e-14 
vn 1 0 5.5e-14 
vn 1 0 5.5e-14 
vn 1 0 5.5e-14 
vn 1 0 5.5e-14 
vn 1 0 5.5e-14 
vn 1 0 5.5e-14 
vn 1 0 5.5e-14 
vn 1 0 5.5e-14 
vn 1 0 5.5e-14 
vn 1 0 5.5e-14 
vn 1 0 5.5e-14 
f 357//357 358//358 359//359 
f 360//360 361//361 362//362 
f 360//360 363//363 364//364 
f 365//365 366//366 367//367 
f 365//365 368//368 369//369 
f 365//365 370//370 371//371 
f 357//357 372//372 358//358 
f 365//365 373//373 372//372 
f 365//365 374//374 375//375 
f 376//376 377//377 378//378 
f 376//376 379//379 380//380 
f 360//360 381//381 379//379 
f 360//360 382//382 361//361 
f 360//360 383//383 384//384 
f 364//364 385//385 360//360 
f 367//367 386//386 365//365 
f 365//365 387//387 388//388 
f 369//369 389//389 365//365 
f 365//365 390//390 370//370 
f 365//365 391//391 392//392 
f 365//365 393//393 394//394 
f 395//395 396//396 397//397 
f 359//359 398//398 357//357 
f 375//375 373//373 365//365 
f 365//365 399//399 400//400 
f 376//376 401//401 377//377 
f 376//376 402//402 403//403 
f 379//379 376//376 360//360 
f 362//362 404//404 360//360 
f 385//385 383//383 360//360 
f 360//360 405//405 406//406 
f 405//405 360//360 396//396 
f 407//407 408//408 409//409 
f 388//388 366//366 365//365 
f 371//371 368//368 365//365 
f 392//392 410//410 365//365 
f 365//365 357//357 393//393 
f 411//411 412//412 413//413 
f 397//397 411//411 395//395 
f 372//372 357//357 365//365 
f 400//400 414//414 365//365 
f 376//376 415//415 401//401 
f 376//376 416//416 417//417 
f 403//403 418//418 376//376 
f 404//404 381//381 360//360 
f 360//360 419//419 420//420 
f 406//406 363//363 360//360 
f 360//360 421//421 396//396 
f 360//360 422//422 423//423 
f 407//407 424//424 425//425 
f 409//409 426//426 407//407 
f 407//407 427//427 428//428 
f 365//365 429//429 427//427 
f 365//365 430//430 431//431 
f 389//389 387//387 365//365 
f 394//394 391//391 365//365 
f 397//397 412//412 411//411 
f 414//414 374//374 365//365 
f 365//365 432//432 433//433 
f 417//417 415//415 376//376 
f 418//418 434//434 376//376 
f 376//376 435//435 436//436 
f 376//376 437//437 438//438 
f 420//420 382//382 360//360 
f 396//396 395//395 405//405 
f 360//360 439//439 440//440 
f 360//360 441//441 422//422 
f 360//360 442//442 443//443 
f 426//426 424//424 407//407 
f 407//407 444//444 445//445 
f 407//407 446//446 447//447 
f 407//407 448//448 449//449 
f 427//427 407//407 365//365 
f 431//431 450//450 365//365 
f 410//410 390//390 365//365 
f 398//398 411//411 357//357 
f 365//365 451//451 452//452 
f 365//365 453//453 454//454 
f 365//365 455//455 456//456 
f 433//433 457//457 365//365 
f 376//376 458//458 432//432 
f 434//434 416//416 376//376 
f 436//436 459//459 376//376 
f 376//376 460//460 437//437 
f 384//384 419//419 360//360 
f 360//360 461//461 462//462 
f 360//360 463//463 439//439 
f 443//443 441//441 360//360 
f 360//360 464//464 465//465 
f 407//407 466//466 467//467 
f 445//445 408//408 407//407 
f 449//449 446//446 407//407 
f 407//407 468//468 469//469 
f 450//450 429//429 365//365 
f 413//413 357//357 411//411 
f 365//365 470//470 451//451 
f 365//365 471//471 472//472 
f 456//456 453//453 365//365 
f 432//432 365//365 376//376 
f 459//459 402//402 376//376 
f 376//376 473//473 460//460 
f 462//462 421//421 360//360 
f 360//360 474//474 475//475 
f 423//423 463//463 360//360 
f 465//465 476//476 360//360 
f 467//467 360//360 407//407 
f 447//447 444//444 407//407 
f 428//428 468//468 407//407 
f 452//452 399//399 365//365 
f 454//454 471//471 365//365 
f 378//378 458//458 376//376 
f 380//380 473//473 376//376 
f 440//440 474//474 360//360 
f 467//467 464//464 360//360 
f 469//469 448//448 407//407 
f 472//472 470//470 365//365 
f 438//438 435//435 376//376 
f 476//476 442//442 360//360 
f 386//386 430//430 365//365 
f 475//475 461//461 360//360 
f 457//457 455//455 365//365 
f 425//425 466//466 407//407 
o mesh16225
v -0.04715 0.171961 -0.0823584 
v 0.00365 0.171961 -0.0823584 
v 0.000475 0.168978 -0.0812724 
v 0.00365 0.124225 -0.0649837 
v 0.000475 0.124225 -0.0649837 
v -0.04715 0.168978 -0.0812724 
vn 5.16831e-14 -0.34202 -0.939693 
vn 5.16831e-14 -0.34202 -0.939693 
vn 5.16831e-14 -0.34202 -0.939693 
vn 5.16831e-14 -0.34202 -0.939693 
vn 5.16831e-14 -0.34202 -0.939693 
vn 5.16831e-14 -0.34202 -0.939693 
f 477//477 478//478 479//479 
f 480//480 481//481 479//479 
f 479//479 478//478 480//480 
f 479//479 482//482 477//477 
o mesh16226
v 0.00365 0.167662 0.0543572 
v 0.00365 0.215398 0.0369826 
v 0.000475 0.212414 0.0380685 
v -0.04715 0.215398 0.0369826 
v -0.04715 0.212414 0.0380685 
v 0.000475 0.167662 0.0543572 
vn -5.16831e-14 0.34202 0.939693 
vn -5.16831e-14 0.34202 0.939693 
vn -5.16831e-14 0.34202 0.939693 
vn -5.16831e-14 0.34202 0.939693 
vn -5.16831e-14 0.34202 0.939693 
vn -5.16831e-14 0.34202 0.939693 
f 483//483 484//484 485//485 
f 486//486 487//487 485//485 
f 485//485 484//484 486//486 
f 485//485 488//488 483//483 
o mesh16227
v -0.04715 0.215398 0.0369826 
v -0.04715 0.171961 -0.0823584 
v -0.04715 0.168978 -0.0812724 
v -0.04715 0.212414 0.0380685 
vn -1 0 -5.5e-14 
vn -1 0 -5.5e-14 
vn -1 0 -5.5e-14 
vn -1 0 -5.5e-14 
f 489//489 490//490 491//491 
f 491//491 492//492 489//489 
o mesh16228
v 0.000475 0.168978 -0.0812724 
v -0.00944021 0.172748 -0.0709129 
v -0.0096377 0.172649 -0.0711866 
v 0.000475 0.212414 0.0380685 
v -0.010121 0.208918 0.0284621 
v -0.00986551 0.208835 0.0282347 
v -0.04715 0.168978 -0.0812724 
v -0.0130945 0.207 0.0231917 
v -0.0134279 0.207038 0.0232973 
v -0.012401 0.206961 0.0230849 
v -0.0127508 0.174418 -0.0663246 
v -0.012401 0.174431 -0.0662888 
v -0.00986551 0.172557 -0.0714386 
v -0.00914513 0.172967 -0.0703135 
v -0.00927538 0.172855 -0.0706207 
v -0.0116992 0.206974 0.0231207 
v -0.012049 0.206961 0.0230849 
v -0.008975 0.173321 -0.0693383 
v -0.00905098 0.207832 0.0254779 
v -0.008975 0.208071 0.0261344 
v -0.00899405 0.207951 0.0258042 
v -0.00905098 0.20831 0.0267909 
v -0.00899405 0.208191 0.0264646 
v -0.0096377 0.208743 0.0279826 
v -0.00944021 0.208644 0.0277089 
v -0.0104011 0.208991 0.0286622 
v -0.0145845 0.207306 0.0240342 
v -0.0148123 0.207398 0.0242862 
v -0.0137473 0.207089 0.0234362 
v -0.0137473 0.172339 -0.0720366 
v -0.0140489 0.172401 -0.0718661 
v -0.0104011 0.172401 -0.0718661 
v -0.0107027 0.172339 -0.0720366 
v -0.00927538 0.207604 0.0248521 
v -0.00944021 0.207498 0.0245599 
v -0.00914513 0.208426 0.0271096 
v -0.0110221 0.209103 0.0289715 
v -0.0107027 0.209053 0.0288327 
v -0.04715 0.212414 0.0380685 
v -0.0154559 0.207951 0.0258042 
v -0.015475 0.208071 0.0261344 
v -0.0150098 0.207498 0.0245599 
v -0.0151746 0.207604 0.0248521 
v -0.0140489 0.207151 0.0236067 
v -0.0148123 0.172649 -0.0711866 
v -0.0150098 0.172748 -0.0709129 
v -0.014329 0.172474 -0.071666 
v -0.0145845 0.172557 -0.0714386 
v -0.0134279 0.172289 -0.0721754 
v -0.0116992 0.174418 -0.0663246 
v -0.0113555 0.174393 -0.0663957 
v -0.012049 0.174431 -0.0662888 
v -0.0110221 0.172289 -0.0721754 
v -0.0113555 0.17225 -0.072281 
v -0.010121 0.172474 -0.071666 
v -0.00905098 0.173083 -0.0699949 
v -0.00899405 0.173201 -0.0696685 
v -0.0096377 0.207398 0.0242862 
v -0.00914513 0.207716 0.0251593 
v -0.00927538 0.208537 0.0274168 
v -0.0154559 0.208191 0.0264646 
v -0.0153049 0.207716 0.0251593 
v -0.015399 0.207832 0.0254779 
v -0.014329 0.207224 0.0238068 
v -0.0127508 0.206974 0.0231207 
v -0.015475 0.173321 -0.0693383 
v -0.0151746 0.172855 -0.0706207 
v -0.0153049 0.172967 -0.0703135 
v -0.0130945 0.17225 -0.072281 
v -0.010121 0.174169 -0.0670107 
v -0.00986551 0.174086 -0.0672381 
v -0.0153049 0.173676 -0.0683632 
v -0.0151746 0.173788 -0.068056 
v -0.0154559 0.173442 -0.0690082 
v -0.015399 0.17356 -0.0686818 
v -0.0104011 0.207151 0.0236067 
v -0.0107027 0.207089 0.0234362 
v -0.012049 0.209181 0.0291839 
v -0.0116992 0.209168 0.0291482 
v -0.0130945 0.209142 0.0290771 
v -0.0127508 0.209168 0.0291482 
v -0.0145845 0.208835 0.0282347 
v -0.014329 0.208918 0.0284621 
v -0.015399 0.20831 0.0267909 
v -0.0153049 0.208426 0.0271096 
v -0.0154559 0.173201 -0.0696685 
v -0.015399 0.173083 -0.0699949 
v -0.00914513 0.173676 -0.0683632 
v -0.00905098 0.17356 -0.0686818 
v -0.00944021 0.173895 -0.0677638 
v -0.00927538 0.173788 -0.068056 
v -0.0096377 0.173994 -0.0674901 
v -0.0107027 0.174304 -0.0666401 
v -0.0104011 0.174241 -0.0668106 
v -0.0110221 0.174354 -0.0665013 
v -0.0134279 0.174354 -0.0665013 
v -0.0130945 0.174393 -0.0663957 
v -0.0140489 0.174241 -0.0668106 
v -0.0137473 0.174304 -0.0666401 
v -0.0110221 0.207038 0.0232973 
v -0.0113555 0.209142 0.0290771 
v -0.0140489 0.208991 0.0286622 
v -0.0137473 0.209053 0.0288327 
v -0.0148123 0.208743 0.0279826 
v -0.0151746 0.208537 0.0274168 
v -0.0127508 0.172225 -0.0723521 
v -0.00899405 0.173442 -0.0690082 
v -0.0148123 0.173994 -0.0674901 
v -0.0145845 0.174086 -0.0672381 
v -0.0150098 0.173895 -0.0677638 
v -0.0116992 0.172225 -0.0723521 
v -0.0113555 0.207 0.0231917 
v -0.00986551 0.207306 0.0240342 
v -0.010121 0.207224 0.0238068 
v -0.012401 0.209181 0.0291839 
v -0.0134279 0.209103 0.0289715 
v -0.0150098 0.208644 0.0277089 
v -0.012401 0.172212 -0.0723879 
v -0.014329 0.174169 -0.0670107 
v -0.012049 0.172212 -0.0723879 
vn -1.9289e-14 -0.939693 0.34202 
vn -1.9289e-14 -0.939693 0.34202 
vn -1.9289e-14 -0.939693 0.34202 
vn -1.9289e-14 -0.939693 0.34202 
vn -1.9289e-14 -0.939693 0.34202 
vn -1.9289e-14 -0.939693 0.34202 
vn -1.9289e-14 -0.939693 0.34202 
vn -1.9289e-14 -0.939693 0.34202 
vn -1.9289e-14 -0.939693 0.34202 
vn -1.9289e-14 -0.939693 0.34202 
vn -1.9289e-14 -0.939693 0.34202 
vn -1.9289e-14 -0.939693 0.34202 
vn -1.9289e-14 -0.939693 0.34202 
vn -1.9289e-14 -0.939693 0.34202 
vn -1.9289e-14 -0.939693 0.34202 
vn -1.9289e-14 -0.939693 0.34202 
vn -1.9289e-14 -0.939693 0.34202 
vn -1.9289e-14 -0.939693 0.34202 
vn -1.9289e-14 -0.939693 0.34202 
vn -1.9289e-14 -0.939693 0.34202 
vn -1.9289e-14 -0.939693 0.34202 
vn -1.9289e-14 -0.939693 0.34202 
vn -1.9289e-14 -0.939693 0.34202 
vn -1.9289e-14 -0.939693 0.34202 
vn -1.9289e-14 -0.939693 0.34202 
vn -1.9289e-14 -0.939693 0.34202 
vn -1.9289e-14 -0.939693 0.34202 
vn -1.9289e-14 -0.939693 0.34202 
vn -1.9289e-14 -0.939693 0.34202 
vn -1.9289e-14 -0.939693 0.34202 
vn -1.9289e-14 -0.939693 0.34202 
vn -1.9289e-14 -0.939693 0.34202 
vn -1.9289e-14 -0.939693 0.34202 
vn -1.9289e-14 -0.939693 0.34202 
vn -1.9289e-14 -0.939693 0.34202 
vn -1.9289e-14 -0.939693 0.34202 
vn -1.9289e-14 -0.939693 0.34202 
vn -1.9289e-14 -0.939693 0.34202 
vn -1.9289e-14 -0.939693 0.34202 
vn -1.9289e-14 -0.939693 0.34202 
vn -1.9289e-14 -0.939693 0.34202 
vn -1.9289e-14 -0.939693 0.34202 
vn -1.9289e-14 -0.939693 0.34202 
vn -1.9289e-14 -0.939693 0.34202 
vn -1.9289e-14 -0.939693 0.34202 
vn -1.9289e-14 -0.939693 0.34202 
vn -1.9289e-14 -0.939693 0.34202 
vn -1.9289e-14 -0.939693 0.34202 
vn -1.9289e-14 -0.939693 0.34202 
vn -1.9289e-14 -0.939693 0.34202 
vn -1.9289e-14 -0.939693 0.34202 
vn -1.9289e-14 -0.939693 0.34202 
vn -1.9289e-14 -0.939693 0.34202 
vn -1.9289e-14 -0.939693 0.34202 
vn -1.9289e-14 -0.939693 0.34202 
vn -1.9289e-14 -0.939693 0.34202 
vn -1.9289e-14 -0.939693 0.34202 
vn -1.9289e-14 -0.939693 0.34202 
vn -1.9289e-14 -0.939693 0.34202 
vn -1.9289e-14 -0.939693 0.34202 
vn -1.9289e-14 -0.939693 0.34202 
vn -1.9289e-14 -0.939693 0.34202 
vn -1.9289e-14 -0.939693 0.34202 
vn -1.9289e-14 -0.939693 0.34202 
vn -1.9289e-14 -0.939693 0.34202 
vn -1.9289e-14 -0.939693 0.34202 
vn -1.9289e-14 -0.939693 0.34202 
vn -1.9289e-14 -0.939693 0.34202 
vn -1.9289e-14 -0.939693 0.34202 
vn -1.9289e-14 -0.939693 0.34202 
vn -1.9289e-14 -0.939693 0.34202 
vn -1.9289e-14 -0.939693 0.34202 
vn -1.9289e-14 -0.939693 0.34202 
vn -1.9289e-14 -0.939693 0.34202 
vn -1.9289e-14 -0.939693 0.34202 
vn -1.9289e-14 -0.939693 0.34202 
vn -1.9289e-14 -0.939693 0.34202 
vn -1.9289e-14 -0.939693 0.34202 
vn -1.9289e-14 -0.939693 0.34202 
vn -1.9289e-14 -0.939693 0.34202 
vn -1.9289e-14 -0.939693 0.34202 
vn -1.9289e-14 -0.939693 0.34202 
vn -1.9289e-14 -0.939693 0.34202 
vn -1.9289e-14 -0.939693 0.34202 
vn -1.9289e-14 -0.939693 0.34202 
vn -1.9289e-14 -0.939693 0.34202 
vn -1.9289e-14 -0.939693 0.34202 
vn -1.9289e-14 -0.939693 0.34202 
vn -1.9289e-14 -0.939693 0.34202 
vn -1.9289e-14 -0.939693 0.34202 
vn -1.9289e-14 -0.939693 0.34202 
vn -1.9289e-14 -0.939693 0.34202 
vn -1.9289e-14 -0.939693 0.34202 
vn -1.9289e-14 -0.939693 0.34202 
vn -1.9289e-14 -0.939693 0.34202 
vn -1.9289e-14 -0.939693 0.34202 
vn -1.9289e-14 -0.939693 0.34202 
vn -1.9289e-14 -0.939693 0.34202 
vn -1.9289e-14 -0.939693 0.34202 
vn -1.9289e-14 -0.939693 0.34202 
vn -1.9289e-14 -0.939693 0.34202 
vn -1.9289e-14 -0.939693 0.34202 
vn -1.9289e-14 -0.939693 0.34202 
vn -1.9289e-14 -0.939693 0.34202 
vn -1.9289e-14 -0.939693 0.34202 
vn -1.9289e-14 -0.939693 0.34202 
vn -1.9289e-14 -0.939693 0.34202 
vn -1.9289e-14 -0.939693 0.34202 
vn -1.9289e-14 -0.939693 0.34202 
vn -1.9289e-14 -0.939693 0.34202 
vn -1.9289e-14 -0.939693 0.34202 
vn -1.9289e-14 -0.939693 0.34202 
vn -1.9289e-14 -0.939693 0.34202 
vn -1.9289e-14 -0.939693 0.34202 
vn -1.9289e-14 -0.939693 0.34202 
vn -1.9289e-14 -0.939693 0.34202 
vn -1.9289e-14 -0.939693 0.34202 
vn -1.9289e-14 -0.939693 0.34202 
vn -1.9289e-14 -0.939693 0.34202 
vn -1.9289e-14 -0.939693 0.34202 
f 493//493 494//494 495//495 
f 496//496 497//497 498//498 
f 499//499 500//500 501//501 
f 502//502 503//503 504//504 
f 495//495 505//505 493//493 
f 493//493 506//506 507//507 
f 508//508 509//509 510//510 
f 493//493 496//496 511//511 
f 496//496 512//512 513//513 
f 496//496 514//514 515//515 
f 496//496 516//516 517//517 
f 496//496 518//518 497//497 
f 499//499 519//519 520//520 
f 501//501 521//521 499//499 
f 499//499 522//522 523//523 
f 504//504 509//509 502//502 
f 493//493 524//524 525//525 
f 507//507 494//494 493//493 
f 510//510 493//493 508//508 
f 493//493 526//526 527//527 
f 513//513 511//511 496//496 
f 496//496 528//528 514//514 
f 498//498 516//516 496//496 
f 496//496 529//529 530//530 
f 531//531 532//532 533//533 
f 531//531 534//534 535//535 
f 520//520 531//531 499//499 
f 521//521 536//536 499//499 
f 499//499 537//537 538//538 
f 499//499 539//539 540//540 
f 499//499 541//541 522//522 
f 509//509 542//542 543//543 
f 504//504 544//544 509//509 
f 493//493 545//545 546//546 
f 493//493 547//547 524//524 
f 493//493 548//548 506//506 
f 510//510 549//549 493//493 
f 527//527 550//550 493//493 
f 511//511 551//551 493//493 
f 496//496 552//552 528//528 
f 530//530 518//518 496//496 
f 533//533 553//553 531//531 
f 531//531 554//554 555//555 
f 520//520 534//534 531//531 
f 536//536 556//556 499//499 
f 557//557 499//499 558//558 
f 499//499 559//559 560//560 
f 540//540 537//537 499//499 
f 499//499 561//561 541//541 
f 509//509 562//562 563//563 
f 544//544 542//542 509//509 
f 502//502 564//564 565//565 
f 502//502 566//566 567//567 
f 525//525 545//545 493//493 
f 549//549 548//548 493//493 
f 493//493 568//568 569//569 
f 551//551 526//526 493//493 
f 517//517 552//552 496//496 
f 496//496 570//570 571//571 
f 531//531 572//572 573//573 
f 531//531 574//574 575//575 
f 531//531 576//576 577//577 
f 555//555 532//532 531//531 
f 556//556 519//519 499//499 
f 499//499 578//578 558//558 
f 560//560 579//579 499//499 
f 523//523 539//539 499//499 
f 509//509 580//580 581//581 
f 509//509 582//582 583//583 
f 563//563 584//584 509//509 
f 509//509 585//585 586//586 
f 543//543 587//587 509//509 
f 502//502 588//588 589//589 
f 502//502 590//590 591//591 
f 567//567 564//564 502//502 
f 505//505 547//547 493//493 
f 569//569 592//592 493//493 
f 515//515 512//512 496//496 
f 571//571 593//593 496//496 
f 573//573 496//496 531//531 
f 531//531 594//594 595//595 
f 531//531 596//596 574//574 
f 577//577 597//597 531//531 
f 535//535 554//554 531//531 
f 558//558 502//502 557//557 
f 538//538 559//559 499//499 
f 499//499 493//493 598//598 
f 581//581 599//599 509//509 
f 584//584 582//582 509//509 
f 587//587 585//585 509//509 
f 591//591 588//588 502//502 
f 502//502 600//600 601//601 
f 565//565 602//602 502//502 
f 546//546 603//603 493//493 
f 592//592 604//604 493//493 
f 493//493 605//605 606//606 
f 593//593 529//529 496//496 
f 573//573 607//607 496//496 
f 595//595 608//608 531//531 
f 531//531 609//609 596//596 
f 553//553 576//576 531//531 
f 579//579 578//578 499//499 
f 493//493 610//610 598//598 
f 583//583 580//580 509//509 
f 589//589 503//503 502//502 
f 601//601 611//611 502//502 
f 502//502 558//558 566//566 
f 604//604 508//508 493//493 
f 550//550 605//605 493//493 
f 608//608 572//572 531//531 
f 597//597 609//609 531//531 
f 598//598 561//561 499//499 
f 586//586 562//562 509//509 
f 602//602 600//600 502//502 
f 606//606 568//568 493//493 
f 575//575 594//594 531//531 
f 493//493 612//612 610//610 
f 611//611 590//590 502//502 
f 607//607 570//570 496//496 
f 599//599 510//510 509//509 
f 557//557 500//500 499//499 
f 603//603 612//612 493//493 
o mesh16229
v 0.00365 0.171961 -0.0823584 
v -0.04715 0.171961 -0.0823584 
v -0.0127508 0.175208 -0.073438 
v -0.0134279 0.175272 -0.0732614 
v -0.0130945 0.175234 -0.0733669 
v -0.0153049 0.17666 -0.0694491 
v -0.015399 0.176544 -0.0697677 
v -0.0140489 0.175385 -0.072952 
v -0.0137473 0.175323 -0.0731225 
v -0.0150098 0.175732 -0.0719988 
v -0.0148123 0.175632 -0.0722725 
v -0.0154559 0.176425 -0.0700941 
v -0.0150098 0.176878 -0.0688498 
v -0.0151746 0.176772 -0.0691419 
v -0.012049 0.177415 -0.0673747 
v -0.0113555 0.209983 0.0221058 
v -0.0110221 0.210022 0.0222114 
v -0.0107027 0.177287 -0.067726 
v -0.0110221 0.177338 -0.0675872 
v -0.008975 0.211054 0.0250485 
v -0.00914513 0.17595 -0.0713994 
v -0.00905098 0.176066 -0.0710808 
v -0.012401 0.175195 -0.0734738 
v -0.012049 0.175195 -0.0734738 
v -0.0151746 0.175838 -0.0717066 
v -0.015399 0.176066 -0.0710808 
v -0.0153049 0.17595 -0.0713994 
v -0.015475 0.176305 -0.0704243 
v -0.0154559 0.176185 -0.0707545 
v -0.012049 0.209944 0.021999 
v -0.0145845 0.177069 -0.068324 
v -0.0148123 0.176978 -0.0685761 
v -0.0137473 0.177287 -0.067726 
v -0.0140489 0.177225 -0.0678965 
v -0.00927538 0.210588 0.0237662 
v -0.00914513 0.210699 0.0240734 
v -0.0096377 0.210382 0.0232003 
v -0.00944021 0.210481 0.023474 
v -0.0107027 0.210072 0.0223503 
v -0.012401 0.177415 -0.0673747 
v -0.04715 0.215398 0.0369826 
v -0.015475 0.211054 0.0250485 
v -0.0154559 0.210934 0.0247183 
v -0.0113555 0.177376 -0.0674816 
v 0.00365 0.215398 0.0369826 
v -0.00899405 0.211174 0.0253787 
v -0.00905098 0.211293 0.025705 
v -0.00914513 0.17666 -0.0694491 
v -0.00927538 0.176772 -0.0691419 
v -0.00905098 0.176544 -0.0697677 
v -0.008975 0.176305 -0.0704243 
v -0.00899405 0.176425 -0.0700941 
v -0.00899405 0.176185 -0.0707545 
v -0.00986551 0.175541 -0.0725245 
v -0.0096377 0.175632 -0.0722725 
v -0.0113555 0.175234 -0.0733669 
v -0.0110221 0.175272 -0.0732614 
v -0.0145845 0.175541 -0.0725245 
v -0.014329 0.175458 -0.0727519 
v -0.014329 0.177152 -0.0680966 
v -0.0130945 0.177376 -0.0674816 
v -0.0134279 0.177338 -0.0675872 
v -0.00905098 0.210815 0.024392 
v -0.00899405 0.210934 0.0247183 
v -0.010121 0.210207 0.0227209 
v -0.00986551 0.21029 0.0229483 
v -0.0104011 0.210134 0.0225207 
v -0.0116992 0.209957 0.0220347 
v -0.015399 0.210815 0.024392 
v -0.0153049 0.210699 0.0240734 
v -0.0154559 0.211174 0.0253787 
v -0.0153049 0.211409 0.0260237 
v -0.015399 0.211293 0.025705 
v -0.0116992 0.177402 -0.0674105 
v -0.0096377 0.176978 -0.0685761 
v -0.00986551 0.177069 -0.068324 
v -0.00944021 0.175732 -0.0719988 
v -0.00927538 0.175838 -0.0717066 
v -0.010121 0.175458 -0.0727519 
v -0.0107027 0.175323 -0.0731225 
v -0.0116992 0.175208 -0.073438 
v -0.0127508 0.177402 -0.0674105 
v -0.0151746 0.211521 0.0263308 
v -0.0148123 0.211727 0.0268967 
v -0.0150098 0.211627 0.026623 
v -0.00944021 0.211627 0.026623 
v -0.0096377 0.211727 0.0268967 
v -0.00914513 0.211409 0.0260237 
v -0.00927538 0.211521 0.0263308 
v -0.010121 0.177152 -0.0680966 
v -0.0104011 0.177225 -0.0678965 
v -0.00944021 0.176878 -0.0688498 
v -0.0104011 0.175385 -0.072952 
v -0.0151746 0.210588 0.0237662 
v -0.0145845 0.211819 0.0271487 
v -0.0130945 0.209983 0.0221058 
v -0.0127508 0.209957 0.0220347 
v -0.0137473 0.210072 0.0223503 
v -0.0134279 0.210022 0.0222114 
v -0.014329 0.210207 0.0227209 
v -0.0140489 0.210134 0.0225207 
v -0.0148123 0.210382 0.0232003 
v -0.0145845 0.21029 0.0229483 
v -0.0150098 0.210481 0.023474 
v -0.0140489 0.211974 0.0275763 
v -0.014329 0.211901 0.0273762 
v -0.0130945 0.212125 0.0279912 
v -0.0134279 0.212087 0.0278856 
v -0.012401 0.209944 0.021999 
v -0.0137473 0.212036 0.0277468 
v -0.0104011 0.211974 0.0275763 
v -0.0107027 0.212036 0.0277468 
v -0.0113555 0.212125 0.0279912 
v -0.0116992 0.212151 0.0280623 
v -0.0110221 0.212087 0.0278856 
v -0.00986551 0.211819 0.0271487 
v -0.010121 0.211901 0.0273762 
v -0.012401 0.212164 0.028098 
v -0.0127508 0.212151 0.0280623 
v -0.012049 0.212164 0.028098 
vn 1.89313e-14 0.939693 -0.34202 
vn 1.89313e-14 0.939693 -0.34202 
vn 1.89313e-14 0.939693 -0.34202 
vn 1.89313e-14 0.939693 -0.34202 
vn 1.89313e-14 0.939693 -0.34202 
vn 1.89313e-14 0.939693 -0.34202 
vn 1.89313e-14 0.939693 -0.34202 
vn 1.89313e-14 0.939693 -0.34202 
vn 1.89313e-14 0.939693 -0.34202 
vn 1.89313e-14 0.939693 -0.34202 
vn 1.89313e-14 0.939693 -0.34202 
vn 1.89313e-14 0.939693 -0.34202 
vn 1.89313e-14 0.939693 -0.34202 
vn 1.89313e-14 0.939693 -0.34202 
vn 1.89313e-14 0.939693 -0.34202 
vn 1.89313e-14 0.939693 -0.34202 
vn 1.89313e-14 0.939693 -0.34202 
vn 1.89313e-14 0.939693 -0.34202 
vn 1.89313e-14 0.939693 -0.34202 
vn 1.89313e-14 0.939693 -0.34202 
vn 1.89313e-14 0.939693 -0.34202 
vn 1.89313e-14 0.939693 -0.34202 
vn 1.89313e-14 0.939693 -0.34202 
vn 1.89313e-14 0.939693 -0.34202 
vn 1.89313e-14 0.939693 -0.34202 
vn 1.89313e-14 0.939693 -0.34202 
vn 1.89313e-14 0.939693 -0.34202 
vn 1.89313e-14 0.939693 -0.34202 
vn 1.89313e-14 0.939693 -0.34202 
vn 1.89313e-14 0.939693 -0.34202 
vn 1.89313e-14 0.939693 -0.34202 
vn 1.89313e-14 0.939693 -0.34202 
vn 1.89313e-14 0.939693 -0.34202 
vn 1.89313e-14 0.939693 -0.34202 
vn 1.89313e-14 0.939693 -0.34202 
vn 1.89313e-14 0.939693 -0.34202 
vn 1.89313e-14 0.939693 -0.34202 
vn 1.89313e-14 0.939693 -0.34202 
vn 1.89313e-14 0.939693 -0.34202 
vn 1.89313e-14 0.939693 -0.34202 
vn 1.89313e-14 0.939693 -0.34202 
vn 1.89313e-14 0.939693 -0.34202 
vn 1.89313e-14 0.939693 -0.34202 
vn 1.89313e-14 0.939693 -0.34202 
vn 1.89313e-14 0.939693 -0.34202 
vn 1.89313e-14 0.939693 -0.34202 
vn 1.89313e-14 0.939693 -0.34202 
vn 1.89313e-14 0.939693 -0.34202 
vn 1.89313e-14 0.939693 -0.34202 
vn 1.89313e-14 0.939693 -0.34202 
vn 1.89313e-14 0.939693 -0.34202 
vn 1.89313e-14 0.939693 -0.34202 
vn 1.89313e-14 0.939693 -0.34202 
vn 1.89313e-14 0.939693 -0.34202 
vn 1.89313e-14 0.939693 -0.34202 
vn 1.89313e-14 0.939693 -0.34202 
vn 1.89313e-14 0.939693 -0.34202 
vn 1.89313e-14 0.939693 -0.34202 
vn 1.89313e-14 0.939693 -0.34202 
vn 1.89313e-14 0.939693 -0.34202 
vn 1.89313e-14 0.939693 -0.34202 
vn 1.89313e-14 0.939693 -0.34202 
vn 1.89313e-14 0.939693 -0.34202 
vn 1.89313e-14 0.939693 -0.34202 
vn 1.89313e-14 0.939693 -0.34202 
vn 1.89313e-14 0.939693 -0.34202 
vn 1.89313e-14 0.939693 -0.34202 
vn 1.89313e-14 0.939693 -0.34202 
vn 1.89313e-14 0.939693 -0.34202 
vn 1.89313e-14 0.939693 -0.34202 
vn 1.89313e-14 0.939693 -0.34202 
vn 1.89313e-14 0.939693 -0.34202 
vn 1.89313e-14 0.939693 -0.34202 
vn 1.89313e-14 0.939693 -0.34202 
vn 1.89313e-14 0.939693 -0.34202 
vn 1.89313e-14 0.939693 -0.34202 
vn 1.89313e-14 0.939693 -0.34202 
vn 1.89313e-14 0.939693 -0.34202 
vn 1.89313e-14 0.939693 -0.34202 
vn 1.89313e-14 0.939693 -0.34202 
vn 1.89313e-14 0.939693 -0.34202 
vn 1.89313e-14 0.939693 -0.34202 
vn 1.89313e-14 0.939693 -0.34202 
vn 1.89313e-14 0.939693 -0.34202 
vn 1.89313e-14 0.939693 -0.34202 
vn 1.89313e-14 0.939693 -0.34202 
vn 1.89313e-14 0.939693 -0.34202 
vn 1.89313e-14 0.939693 -0.34202 
vn 1.89313e-14 0.939693 -0.34202 
vn 1.89313e-14 0.939693 -0.34202 
vn 1.89313e-14 0.939693 -0.34202 
vn 1.89313e-14 0.939693 -0.34202 
vn 1.89313e-14 0.939693 -0.34202 
vn 1.89313e-14 0.939693 -0.34202 
vn 1.89313e-14 0.939693 -0.34202 
vn 1.89313e-14 0.939693 -0.34202 
vn 1.89313e-14 0.939693 -0.34202 
vn 1.89313e-14 0.939693 -0.34202 
vn 1.89313e-14 0.939693 -0.34202 
vn 1.89313e-14 0.939693 -0.34202 
vn 1.89313e-14 0.939693 -0.34202 
vn 1.89313e-14 0.939693 -0.34202 
vn 1.89313e-14 0.939693 -0.34202 
vn 1.89313e-14 0.939693 -0.34202 
vn 1.89313e-14 0.939693 -0.34202 
vn 1.89313e-14 0.939693 -0.34202 
vn 1.89313e-14 0.939693 -0.34202 
vn 1.89313e-14 0.939693 -0.34202 
vn 1.89313e-14 0.939693 -0.34202 
vn 1.89313e-14 0.939693 -0.34202 
vn 1.89313e-14 0.939693 -0.34202 
vn 1.89313e-14 0.939693 -0.34202 
vn 1.89313e-14 0.939693 -0.34202 
vn 1.89313e-14 0.939693 -0.34202 
vn 1.89313e-14 0.939693 -0.34202 
vn 1.89313e-14 0.939693 -0.34202 
vn 1.89313e-14 0.939693 -0.34202 
vn 1.89313e-14 0.939693 -0.34202 
vn 1.89313e-14 0.939693 -0.34202 
vn 1.89313e-14 0.939693 -0.34202 
f 613//613 614//614 615//615 
f 614//614 616//616 617//617 
f 614//614 618//618 619//619 
f 617//617 615//615 614//614 
f 614//614 620//620 621//621 
f 614//614 622//622 623//623 
f 619//619 624//624 614//614 
f 614//614 625//625 626//626 
f 627//627 628//628 629//629 
f 630//630 631//631 632//632 
f 613//613 633//633 634//634 
f 613//613 635//635 636//636 
f 621//621 616//616 614//614 
f 614//614 637//637 622//622 
f 614//614 638//638 639//639 
f 614//614 640//640 641//641 
f 626//626 618//618 614//614 
f 642//642 643//643 644//644 
f 642//642 645//645 646//646 
f 627//627 647//647 648//648 
f 627//627 649//649 650//650 
f 629//629 651//651 627//627 
f 627//627 652//652 642//642 
f 653//653 654//654 655//655 
f 632//632 631//631 656//656 
f 657//657 658//658 659//659 
f 632//632 657//657 630//630 
f 657//657 660//660 661//661 
f 613//613 662//662 660//660 
f 613//613 663//663 664//664 
f 634//634 665//665 613//613 
f 613//613 666//666 667//667 
f 613//613 668//668 669//669 
f 615//615 635//635 613//613 
f 614//614 670//670 671//671 
f 639//639 637//637 614//614 
f 624//624 640//640 614//614 
f 644//644 614//614 642//642 
f 646//646 672//672 642//642 
f 642//642 673//673 674//674 
f 627//627 675//675 676//676 
f 650//650 647//647 627//627 
f 627//627 677//677 678//678 
f 651//651 679//679 627//627 
f 642//642 680//680 627//627 
f 653//653 681//681 682//682 
f 653//653 683//683 654//654 
f 653//653 684//684 685//685 
f 656//656 686//686 632//632 
f 632//632 658//658 657//657 
f 657//657 687//687 688//688 
f 660//660 657//657 613//613 
f 665//665 663//663 613//613 
f 613//613 689//689 690//690 
f 613//613 691//691 666//666 
f 669//669 692//692 613//613 
f 636//636 693//693 613//613 
f 623//623 670//670 614//614 
f 644//644 625//625 614//614 
f 674//674 645//645 642//642 
f 648//648 675//675 627//627 
f 679//679 677//677 627//627 
f 652//652 694//694 642//642 
f 655//655 681//681 653//653 
f 653//653 695//695 684//684 
f 653//653 696//696 697//697 
f 657//657 698//698 699//699 
f 657//657 700//700 701//701 
f 659//659 700//700 657//657 
f 657//657 702//702 703//703 
f 657//657 704//704 687//687 
f 664//664 662//662 613//613 
f 667//667 689//689 613//613 
f 692//692 705//705 613//613 
f 671//671 620//620 614//614 
f 672//672 643//643 642//642 
f 678//678 649//649 627//627 
f 680//680 628//628 627//627 
f 614//614 653//653 706//706 
f 685//685 683//683 653//653 
f 653//653 707//707 696//696 
f 701//701 698//698 657//657 
f 703//703 630//630 657//657 
f 661//661 704//704 657//657 
f 705//705 691//691 613//613 
f 641//641 638//638 614//614 
f 694//694 673//673 642//642 
f 614//614 708//708 709//709 
f 614//614 710//710 711//711 
f 614//614 712//712 713//713 
f 614//614 714//714 715//715 
f 706//706 716//716 614//614 
f 697//697 695//695 653//653 
f 653//653 717//717 718//718 
f 653//653 719//719 720//720 
f 686//686 627//627 632//632 
f 690//690 633//633 613//613 
f 676//676 632//632 627//627 
f 709//709 721//721 614//614 
f 713//713 710//710 614//614 
f 716//716 714//714 614//614 
f 718//718 707//707 653//653 
f 720//720 722//722 653//653 
f 688//688 702//702 657//657 
f 721//721 642//642 614//614 
f 715//715 712//712 614//614 
f 722//722 717//717 653//653 
f 657//657 723//723 724//724 
f 693//693 668//668 613//613 
f 682//682 706//706 653//653 
f 657//657 725//725 726//726 
f 724//724 727//727 657//657 
f 657//657 728//728 729//729 
f 711//711 708//708 614//614 
f 657//657 730//730 731//731 
f 727//727 725//725 657//657 
f 699//699 728//728 657//657 
f 731//731 653//653 657//657 
f 729//729 723//723 657//657 
f 657//657 732//732 730//730 
f 731//731 719//719 653//653 
f 726//726 732//732 657//657 
o mesh16230
v -0.0154559 0.173442 -0.0690082 
v -0.015475 0.173321 -0.0693383 
v -0.015475 0.176305 -0.0704243 
v -0.015399 0.17356 -0.0686818 
v -0.0154559 0.176425 -0.0700941 
v -0.0153049 0.173676 -0.0683632 
v -0.015399 0.176544 -0.0697677 
v -0.0151746 0.173788 -0.068056 
v -0.0153049 0.17666 -0.0694491 
v -0.0150098 0.173895 -0.0677638 
v -0.0151746 0.176772 -0.0691419 
v -0.0148123 0.173994 -0.0674901 
v -0.0150098 0.176878 -0.0688498 
v -0.0145845 0.174086 -0.0672381 
v -0.0148123 0.176978 -0.0685761 
v -0.014329 0.174169 -0.0670107 
v -0.0145845 0.177069 -0.068324 
v -0.0140489 0.174241 -0.0668106 
v -0.014329 0.177152 -0.0680966 
v -0.0137473 0.174304 -0.0666401 
v -0.0140489 0.177225 -0.0678965 
v -0.0134279 0.174354 -0.0665013 
v -0.0137473 0.177287 -0.067726 
v -0.0130945 0.174393 -0.0663957 
v -0.0134279 0.177338 -0.0675872 
v -0.0127508 0.174418 -0.0663246 
v -0.0130945 0.177376 -0.0674816 
v -0.012401 0.174431 -0.0662888 
v -0.0127508 0.177402 -0.0674105 
v -0.012049 0.174431 -0.0662888 
v -0.012401 0.177415 -0.0673747 
v -0.0116992 0.174418 -0.0663246 
v -0.012049 0.177415 -0.0673747 
v -0.0113555 0.174393 -0.0663957 
v -0.0116992 0.177402 -0.0674105 
v -0.0110221 0.174354 -0.0665013 
v -0.0113555 0.177376 -0.0674816 
v -0.0107027 0.174304 -0.0666401 
v -0.0110221 0.177338 -0.0675872 
v -0.0104011 0.174241 -0.0668106 
v -0.0107027 0.177287 -0.067726 
v -0.010121 0.174169 -0.0670107 
v -0.0104011 0.177225 -0.0678965 
v -0.00986551 0.174086 -0.0672381 
v -0.010121 0.177152 -0.0680966 
v -0.0096377 0.173994 -0.0674901 
v -0.00986551 0.177069 -0.068324 
v -0.00944021 0.173895 -0.0677638 
v -0.0096377 0.176978 -0.0685761 
v -0.00927538 0.173788 -0.068056 
v -0.00944021 0.176878 -0.0688498 
v -0.00914513 0.173676 -0.0683632 
v -0.00927538 0.176772 -0.0691419 
v -0.00905098 0.17356 -0.0686818 
v -0.00914513 0.17666 -0.0694491 
v -0.00899405 0.173442 -0.0690082 
v -0.00905098 0.176544 -0.0697677 
v -0.008975 0.173321 -0.0693383 
v -0.00899405 0.176425 -0.0700941 
v -0.00899405 0.173201 -0.0696685 
v -0.008975 0.176305 -0.0704243 
v -0.00905098 0.173083 -0.0699949 
v -0.00899405 0.176185 -0.0707545 
v -0.00914513 0.172967 -0.0703135 
v -0.00905098 0.176066 -0.0710808 
v -0.00927538 0.172855 -0.0706207 
v -0.00914513 0.17595 -0.0713994 
v -0.00944021 0.172748 -0.0709129 
v -0.00927538 0.175838 -0.0717066 
v -0.0096377 0.172649 -0.0711866 
v -0.00944021 0.175732 -0.0719988 
v -0.00986551 0.172557 -0.0714386 
v -0.0096377 0.175632 -0.0722725 
v -0.010121 0.172474 -0.071666 
v -0.00986551 0.175541 -0.0725245 
v -0.0104011 0.172401 -0.0718661 
v -0.010121 0.175458 -0.0727519 
v -0.0107027 0.172339 -0.0720366 
v -0.0104011 0.175385 -0.072952 
v -0.0110221 0.172289 -0.0721754 
v -0.0107027 0.175323 -0.0731225 
v -0.0113555 0.17225 -0.072281 
v -0.0110221 0.175272 -0.0732614 
v -0.0116992 0.172225 -0.0723521 
v -0.0113555 0.175234 -0.0733669 
v -0.012049 0.172212 -0.0723879 
v -0.0116992 0.175208 -0.073438 
v -0.012401 0.172212 -0.0723879 
v -0.012049 0.175195 -0.0734738 
v -0.0127508 0.172225 -0.0723521 
v -0.012401 0.175195 -0.0734738 
v -0.0130945 0.17225 -0.072281 
v -0.0127508 0.175208 -0.073438 
v -0.0134279 0.172289 -0.0721754 
v -0.0130945 0.175234 -0.0733669 
v -0.0137473 0.172339 -0.0720366 
v -0.0134279 0.175272 -0.0732614 
v -0.0140489 0.172401 -0.0718661 
v -0.0137473 0.175323 -0.0731225 
v -0.014329 0.172474 -0.071666 
v -0.0140489 0.175385 -0.072952 
v -0.0145845 0.172557 -0.0714386 
v -0.014329 0.175458 -0.0727519 
v -0.0148123 0.172649 -0.0711866 
v -0.0145845 0.175541 -0.0725245 
v -0.0150098 0.172748 -0.0709129 
v -0.0148123 0.175632 -0.0722725 
v -0.0151746 0.172855 -0.0706207 
v -0.0150098 0.175732 -0.0719988 
v -0.0153049 0.172967 -0.0703135 
v -0.0151746 0.175838 -0.0717066 
v -0.015399 0.173083 -0.0699949 
v -0.0153049 0.17595 -0.0713994 
v -0.0154559 0.173201 -0.0696685 
v -0.015399 0.176066 -0.0710808 
v -0.0154559 0.176185 -0.0707545 
vn 0.994138 -0.0369789 -0.101599 
vn 1 -8.37708e-17 5.47698e-14 
vn 1 -8.37708e-17 5.47698e-14 
vn 0.976621 -0.0735242 -0.202006 
vn 0.994138 -0.0369789 -0.101599 
vn 0.947653 -0.109208 -0.300045 
vn 0.976621 -0.0735242 -0.202006 
vn 0.907575 -0.143611 -0.394567 
vn 0.947653 -0.109208 -0.300045 
vn 0.856857 -0.17633 -0.484462 
vn 0.907575 -0.143611 -0.394567 
vn 0.796093 -0.206982 -0.568678 
vn 0.856857 -0.17633 -0.484462 
vn 0.725995 -0.235207 -0.646226 
vn 0.796093 -0.206982 -0.568678 
vn 0.647386 -0.260675 -0.716198 
vn 0.725995 -0.235207 -0.646226 
vn 0.561187 -0.283086 -0.777773 
vn 0.647386 -0.260675 -0.716198 
vn 0.468408 -0.302179 -0.83023 
vn 0.561187 -0.283086 -0.777773 
vn 0.370138 -0.317729 -0.872953 
vn 0.468408 -0.302179 -0.83023 
vn 0.267528 -0.329554 -0.905441 
vn 0.370138 -0.317729 -0.872953 
vn 0.161782 -0.337515 -0.927314 
vn 0.267528 -0.329554 -0.905441 
vn 0.0541389 -0.341519 -0.938314 
vn 0.161782 -0.337515 -0.927314 
vn -0.0541389 -0.341519 -0.938314 
vn 0.0541389 -0.341519 -0.938314 
vn -0.161782 -0.337515 -0.927314 
vn -0.0541389 -0.341519 -0.938314 
vn -0.267528 -0.329554 -0.905441 
vn -0.161782 -0.337515 -0.927314 
vn -0.370138 -0.317729 -0.872953 
vn -0.267528 -0.329554 -0.905441 
vn -0.468408 -0.302179 -0.83023 
vn -0.370138 -0.317729 -0.872953 
vn -0.561187 -0.283086 -0.777773 
vn -0.468408 -0.302179 -0.83023 
vn -0.647386 -0.260675 -0.716198 
vn -0.561187 -0.283086 -0.777773 
vn -0.725995 -0.235207 -0.646226 
vn -0.647386 -0.260675 -0.716198 
vn -0.796093 -0.206982 -0.568678 
vn -0.725995 -0.235207 -0.646226 
vn -0.856857 -0.17633 -0.484462 
vn -0.796093 -0.206982 -0.568678 
vn -0.907575 -0.143611 -0.394567 
vn -0.856857 -0.17633 -0.484462 
vn -0.947653 -0.109208 -0.300045 
vn -0.907575 -0.143611 -0.394567 
vn -0.976621 -0.0735242 -0.202006 
vn -0.947653 -0.109208 -0.300045 
vn -0.994138 -0.0369789 -0.101599 
vn -0.976621 -0.0735242 -0.202006 
vn -1 -1.10002e-16 -5.53022e-14 
vn -0.994138 -0.0369789 -0.101599 
vn -0.994138 0.0369789 0.101599 
vn -1 -1.10002e-16 -5.53022e-14 
vn -0.976621 0.0735242 0.202006 
vn -0.994138 0.0369789 0.101599 
vn -0.947653 0.109208 0.300045 
vn -0.976621 0.0735242 0.202006 
vn -0.907575 0.143611 0.394567 
vn -0.947653 0.109208 0.300045 
vn -0.856857 0.17633 0.484462 
vn -0.907575 0.143611 0.394567 
vn -0.796093 0.206982 0.568678 
vn -0.856857 0.17633 0.484462 
vn -0.725995 0.235207 0.646226 
vn -0.796093 0.206982 0.568678 
vn -0.647386 0.260675 0.716198 
vn -0.725995 0.235207 0.646226 
vn -0.561187 0.283086 0.777773 
vn -0.647386 0.260675 0.716198 
vn -0.468408 0.302179 0.83023 
vn -0.561187 0.283086 0.777773 
vn -0.370138 0.317729 0.872953 
vn -0.468408 0.302179 0.83023 
vn -0.267528 0.329554 0.905441 
vn -0.370138 0.317729 0.872953 
vn -0.161782 0.337515 0.927314 
vn -0.267528 0.329554 0.905441 
vn -0.0541389 0.341519 0.938314 
vn -0.161782 0.337515 0.927314 
vn 0.0541389 0.341519 0.938314 
vn -0.0541389 0.341519 0.938314 
vn 0.161782 0.337515 0.927314 
vn 0.0541389 0.341519 0.938314 
vn 0.267528 0.329554 0.905441 
vn 0.161782 0.337515 0.927314 
vn 0.370138 0.317729 0.872953 
vn 0.267528 0.329554 0.905441 
vn 0.468408 0.302179 0.83023 
vn 0.370138 0.317729 0.872953 
vn 0.561187 0.283086 0.777773 
vn 0.468408 0.302179 0.83023 
vn 0.647386 0.260675 0.716198 
vn 0.561187 0.283086 0.777773 
vn 0.725995 0.235207 0.646226 
vn 0.647386 0.260675 0.716198 
vn 0.796093 0.206982 0.568678 
vn 0.725995 0.235207 0.646226 
vn 0.856857 0.17633 0.484462 
vn 0.796093 0.206982 0.568678 
vn 0.907575 0.143611 0.394567 
vn 0.856857 0.17633 0.484462 
vn 0.947653 0.109208 0.300045 
vn 0.907575 0.143611 0.394567 
vn 0.976621 0.0735242 0.202006 
vn 0.947653 0.109208 0.300045 
vn 0.994138 0.0369789 0.101599 
vn 0.976621 0.0735242 0.202006 
vn 0.994138 0.0369789 0.101599 
f 733//733 734//734 735//735 
f 736//736 733//733 737//737 
f 738//738 736//736 739//739 
f 740//740 738//738 741//741 
f 742//742 740//740 743//743 
f 744//744 742//742 745//745 
f 746//746 744//744 747//747 
f 748//748 746//746 749//749 
f 750//750 748//748 751//751 
f 752//752 750//750 753//753 
f 754//754 752//752 755//755 
f 756//756 754//754 757//757 
f 758//758 756//756 759//759 
f 760//760 758//758 761//761 
f 762//762 760//760 763//763 
f 764//764 762//762 765//765 
f 766//766 764//764 767//767 
f 768//768 766//766 769//769 
f 770//770 768//768 771//771 
f 772//772 770//770 773//773 
f 774//774 772//772 775//775 
f 776//776 774//774 777//777 
f 778//778 776//776 779//779 
f 780//780 778//778 781//781 
f 782//782 780//780 783//783 
f 784//784 782//782 785//785 
f 786//786 784//784 787//787 
f 788//788 786//786 789//789 
f 790//790 788//788 791//791 
f 792//792 790//790 793//793 
f 794//794 792//792 795//795 
f 796//796 794//794 797//797 
f 798//798 796//796 799//799 
f 800//800 798//798 801//801 
f 802//802 800//800 803//803 
f 804//804 802//802 805//805 
f 806//806 804//804 807//807 
f 808//808 806//806 809//809 
f 810//810 808//808 811//811 
f 812//812 810//810 813//813 
f 814//814 812//812 815//815 
f 816//816 814//814 817//817 
f 818//818 816//816 819//819 
f 820//820 818//818 821//821 
f 822//822 820//820 823//823 
f 824//824 822//822 825//825 
f 826//826 824//824 827//827 
f 828//828 826//826 829//829 
f 830//830 828//828 831//831 
f 832//832 830//830 833//833 
f 834//834 832//832 835//835 
f 836//836 834//834 837//837 
f 838//838 836//836 839//839 
f 840//840 838//838 841//841 
f 842//842 840//840 843//843 
f 844//844 842//842 845//845 
f 846//846 844//844 847//847 
f 734//734 846//846 848//848 
f 848//848 735//735 734//734 
f 847//847 848//848 846//846 
f 845//845 847//847 844//844 
f 843//843 845//845 842//842 
f 841//841 843//843 840//840 
f 839//839 841//841 838//838 
f 837//837 839//839 836//836 
f 835//835 837//837 834//834 
f 833//833 835//835 832//832 
f 831//831 833//833 830//830 
f 829//829 831//831 828//828 
f 827//827 829//829 826//826 
f 825//825 827//827 824//824 
f 823//823 825//825 822//822 
f 821//821 823//823 820//820 
f 819//819 821//821 818//818 
f 817//817 819//819 816//816 
f 815//815 817//817 814//814 
f 813//813 815//815 812//812 
f 811//811 813//813 810//810 
f 809//809 811//811 808//808 
f 807//807 809//809 806//806 
f 805//805 807//807 804//804 
f 803//803 805//805 802//802 
f 801//801 803//803 800//800 
f 799//799 801//801 798//798 
f 797//797 799//799 796//796 
f 795//795 797//797 794//794 
f 793//793 795//795 792//792 
f 791//791 793//793 790//790 
f 789//789 791//791 788//788 
f 787//787 789//789 786//786 
f 785//785 787//787 784//784 
f 783//783 785//785 782//782 
f 781//781 783//783 780//780 
f 779//779 781//781 778//778 
f 777//777 779//779 776//776 
f 775//775 777//777 774//774 
f 773//773 775//775 772//772 
f 771//771 773//773 770//770 
f 769//769 771//771 768//768 
f 767//767 769//769 766//766 
f 765//765 767//767 764//764 
f 763//763 765//765 762//762 
f 761//761 763//763 760//760 
f 759//759 761//761 758//758 
f 757//757 759//759 756//756 
f 755//755 757//757 754//754 
f 753//753 755//755 752//752 
f 751//751 753//753 750//750 
f 749//749 751//751 748//748 
f 747//747 749//749 746//746 
f 745//745 747//747 744//744 
f 743//743 745//745 742//742 
f 741//741 743//743 740//740 
f 739//739 741//741 738//738 
f 737//737 739//739 736//736 
f 735//735 737//737 733//733 
o mesh16231
v -0.0154559 0.208191 0.0264646 
v -0.015475 0.208071 0.0261344 
v -0.015475 0.211054 0.0250485 
v -0.015399 0.20831 0.0267909 
v -0.0154559 0.211174 0.0253787 
v -0.0153049 0.208426 0.0271096 
v -0.015399 0.211293 0.025705 
v -0.0151746 0.208537 0.0274168 
v -0.0153049 0.211409 0.0260237 
v -0.0150098 0.208644 0.0277089 
v -0.0151746 0.211521 0.0263308 
v -0.0148123 0.208743 0.0279826 
v -0.0150098 0.211627 0.026623 
v -0.0145845 0.208835 0.0282347 
v -0.0148123 0.211727 0.0268967 
v -0.014329 0.208918 0.0284621 
v -0.0145845 0.211819 0.0271487 
v -0.0140489 0.208991 0.0286622 
v -0.014329 0.211901 0.0273762 
v -0.0137473 0.209053 0.0288327 
v -0.0140489 0.211974 0.0275763 
v -0.0134279 0.209103 0.0289715 
v -0.0137473 0.212036 0.0277468 
v -0.0130945 0.209142 0.0290771 
v -0.0134279 0.212087 0.0278856 
v -0.0127508 0.209168 0.0291482 
v -0.0130945 0.212125 0.0279912 
v -0.012401 0.209181 0.0291839 
v -0.0127508 0.212151 0.0280623 
v -0.012049 0.209181 0.0291839 
v -0.012401 0.212164 0.028098 
v -0.0116992 0.209168 0.0291482 
v -0.012049 0.212164 0.028098 
v -0.0113555 0.209142 0.0290771 
v -0.0116992 0.212151 0.0280623 
v -0.0110221 0.209103 0.0289715 
v -0.0113555 0.212125 0.0279912 
v -0.0107027 0.209053 0.0288327 
v -0.0110221 0.212087 0.0278856 
v -0.0104011 0.208991 0.0286622 
v -0.0107027 0.212036 0.0277468 
v -0.010121 0.208918 0.0284621 
v -0.0104011 0.211974 0.0275763 
v -0.00986551 0.208835 0.0282347 
v -0.010121 0.211901 0.0273762 
v -0.0096377 0.208743 0.0279826 
v -0.00986551 0.211819 0.0271487 
v -0.00944021 0.208644 0.0277089 
v -0.0096377 0.211727 0.0268967 
v -0.00927538 0.208537 0.0274168 
v -0.00944021 0.211627 0.026623 
v -0.00914513 0.208426 0.0271096 
v -0.00927538 0.211521 0.0263308 
v -0.00905098 0.20831 0.0267909 
v -0.00914513 0.211409 0.0260237 
v -0.00899405 0.208191 0.0264646 
v -0.00905098 0.211293 0.025705 
v -0.008975 0.208071 0.0261344 
v -0.00899405 0.211174 0.0253787 
v -0.00899405 0.207951 0.0258042 
v -0.008975 0.211054 0.0250485 
v -0.00905098 0.207832 0.0254779 
v -0.00899405 0.210934 0.0247183 
v -0.00914513 0.207716 0.0251593 
v -0.00905098 0.210815 0.024392 
v -0.00927538 0.207604 0.0248521 
v -0.00914513 0.210699 0.0240734 
v -0.00944021 0.207498 0.0245599 
v -0.00927538 0.210588 0.0237662 
v -0.0096377 0.207398 0.0242862 
v -0.00944021 0.210481 0.023474 
v -0.00986551 0.207306 0.0240342 
v -0.0096377 0.210382 0.0232003 
v -0.010121 0.207224 0.0238068 
v -0.00986551 0.21029 0.0229483 
v -0.0104011 0.207151 0.0236067 
v -0.010121 0.210207 0.0227209 
v -0.0107027 0.207089 0.0234362 
v -0.0104011 0.210134 0.0225207 
v -0.0110221 0.207038 0.0232973 
v -0.0107027 0.210072 0.0223503 
v -0.0113555 0.207 0.0231917 
v -0.0110221 0.210022 0.0222114 
v -0.0116992 0.206974 0.0231207 
v -0.0113555 0.209983 0.0221058 
v -0.012049 0.206961 0.0230849 
v -0.0116992 0.209957 0.0220347 
v -0.012401 0.206961 0.0230849 
v -0.012049 0.209944 0.021999 
v -0.0127508 0.206974 0.0231207 
v -0.012401 0.209944 0.021999 
v -0.0130945 0.207 0.0231917 
v -0.0127508 0.209957 0.0220347 
v -0.0134279 0.207038 0.0232973 
v -0.0130945 0.209983 0.0221058 
v -0.0137473 0.207089 0.0234362 
v -0.0134279 0.210022 0.0222114 
v -0.0140489 0.207151 0.0236067 
v -0.0137473 0.210072 0.0223503 
v -0.014329 0.207224 0.0238068 
v -0.0140489 0.210134 0.0225207 
v -0.0145845 0.207306 0.0240342 
v -0.014329 0.210207 0.0227209 
v -0.0148123 0.207398 0.0242862 
v -0.0145845 0.21029 0.0229483 
v -0.0150098 0.207498 0.0245599 
v -0.0148123 0.210382 0.0232003 
v -0.0151746 0.207604 0.0248521 
v -0.0150098 0.210481 0.023474 
v -0.0153049 0.207716 0.0251593 
v -0.0151746 0.210588 0.0237662 
v -0.015399 0.207832 0.0254779 
v -0.0153049 0.210699 0.0240734 
v -0.0154559 0.207951 0.0258042 
v -0.015399 0.210815 0.024392 
v -0.0154559 0.210934 0.0247183 
vn 0.994138 -0.0369789 -0.101599 
vn 1 -8.37708e-17 5.47698e-14 
vn 1 -8.37708e-17 5.47698e-14 
vn 0.976621 -0.0735242 -0.202006 
vn 0.994138 -0.0369789 -0.101599 
vn 0.947653 -0.109208 -0.300045 
vn 0.976621 -0.0735242 -0.202006 
vn 0.907575 -0.143611 -0.394567 
vn 0.947653 -0.109208 -0.300045 
vn 0.856857 -0.17633 -0.484462 
vn 0.907575 -0.143611 -0.394567 
vn 0.796093 -0.206982 -0.568678 
vn 0.856857 -0.17633 -0.484462 
vn 0.725995 -0.235207 -0.646226 
vn 0.796093 -0.206982 -0.568678 
vn 0.647386 -0.260675 -0.716198 
vn 0.725995 -0.235207 -0.646226 
vn 0.561187 -0.283086 -0.777773 
vn 0.647386 -0.260675 -0.716198 
vn 0.468408 -0.302179 -0.83023 
vn 0.561187 -0.283086 -0.777773 
vn 0.370138 -0.317729 -0.872953 
vn 0.468408 -0.302179 -0.83023 
vn 0.267528 -0.329554 -0.905441 
vn 0.370138 -0.317729 -0.872953 
vn 0.161782 -0.337515 -0.927314 
vn 0.267528 -0.329554 -0.905441 
vn 0.0541389 -0.341519 -0.938314 
vn 0.161782 -0.337515 -0.927314 
vn -0.0541389 -0.341519 -0.938314 
vn 0.0541389 -0.341519 -0.938314 
vn -0.161782 -0.337515 -0.927314 
vn -0.0541389 -0.341519 -0.938314 
vn -0.267528 -0.329554 -0.905441 
vn -0.161782 -0.337515 -0.927314 
vn -0.370138 -0.317729 -0.872953 
vn -0.267528 -0.329554 -0.905441 
vn -0.468408 -0.302179 -0.83023 
vn -0.370138 -0.317729 -0.872953 
vn -0.561187 -0.283086 -0.777773 
vn -0.468408 -0.302179 -0.83023 
vn -0.647386 -0.260675 -0.716198 
vn -0.561187 -0.283086 -0.777773 
vn -0.725995 -0.235207 -0.646226 
vn -0.647386 -0.260675 -0.716198 
vn -0.796093 -0.206982 -0.568678 
vn -0.725995 -0.235207 -0.646226 
vn -0.856857 -0.17633 -0.484462 
vn -0.796093 -0.206982 -0.568678 
vn -0.907575 -0.143611 -0.394567 
vn -0.856857 -0.17633 -0.484462 
vn -0.947653 -0.109208 -0.300045 
vn -0.907575 -0.143611 -0.394567 
vn -0.976621 -0.0735242 -0.202006 
vn -0.947653 -0.109208 -0.300045 
vn -0.994138 -0.0369789 -0.101599 
vn -0.976621 -0.0735242 -0.202006 
vn -1 -4.13777e-16 -5.61368e-14 
vn -0.994138 -0.0369789 -0.101599 
vn -0.994138 0.0369789 0.101599 
vn -1 -4.13777e-16 -5.61368e-14 
vn -0.976621 0.0735242 0.202006 
vn -0.994138 0.0369789 0.101599 
vn -0.947653 0.109208 0.300045 
vn -0.976621 0.0735242 0.202006 
vn -0.907575 0.143611 0.394567 
vn -0.947653 0.109208 0.300045 
vn -0.856857 0.17633 0.484462 
vn -0.907575 0.143611 0.394567 
vn -0.796093 0.206982 0.568678 
vn -0.856857 0.17633 0.484462 
vn -0.725995 0.235207 0.646226 
vn -0.796093 0.206982 0.568678 
vn -0.647386 0.260675 0.716198 
vn -0.725995 0.235207 0.646226 
vn -0.561187 0.283086 0.777773 
vn -0.647386 0.260675 0.716198 
vn -0.468408 0.302179 0.83023 
vn -0.561187 0.283086 0.777773 
vn -0.370138 0.317729 0.872953 
vn -0.468408 0.302179 0.83023 
vn -0.267528 0.329554 0.905441 
vn -0.370138 0.317729 0.872953 
vn -0.161782 0.337515 0.927314 
vn -0.267528 0.329554 0.905441 
vn -0.0541389 0.341519 0.938314 
vn -0.161782 0.337515 0.927314 
vn 0.0541389 0.341519 0.938314 
vn -0.0541389 0.341519 0.938314 
vn 0.161782 0.337515 0.927314 
vn 0.0541389 0.341519 0.938314 
vn 0.267528 0.329554 0.905441 
vn 0.161782 0.337515 0.927314 
vn 0.370138 0.317729 0.872953 
vn 0.267528 0.329554 0.905441 
vn 0.468408 0.302179 0.83023 
vn 0.370138 0.317729 0.872953 
vn 0.561187 0.283086 0.777773 
vn 0.468408 0.302179 0.83023 
vn 0.647386 0.260675 0.716198 
vn 0.561187 0.283086 0.777773 
vn 0.725995 0.235207 0.646226 
vn 0.647386 0.260675 0.716198 
vn 0.796093 0.206982 0.568678 
vn 0.725995 0.235207 0.646226 
vn 0.856857 0.17633 0.484462 
vn 0.796093 0.206982 0.568678 
vn 0.907575 0.143611 0.394567 
vn 0.856857 0.17633 0.484462 
vn 0.947653 0.109208 0.300045 
vn 0.907575 0.143611 0.394567 
vn 0.976621 0.0735242 0.202006 
vn 0.947653 0.109208 0.300045 
vn 0.994138 0.0369789 0.101599 
vn 0.976621 0.0735242 0.202006 
vn 0.994138 0.0369789 0.101599 
f 849//849 850//850 851//851 
f 852//852 849//849 853//853 
f 854//854 852//852 855//855 
f 856//856 854//854 857//857 
f 858//858 856//856 859//859 
f 860//860 858//858 861//861 
f 862//862 860//860 863//863 
f 864//864 862//862 865//865 
f 866//866 864//864 867//867 
f 868//868 866//866 869//869 
f 870//870 868//868 871//871 
f 872//872 870//870 873//873 
f 874//874 872//872 875//875 
f 876//876 874//874 877//877 
f 878//878 876//876 879//879 
f 880//880 878//878 881//881 
f 882//882 880//880 883//883 
f 884//884 882//882 885//885 
f 886//886 884//884 887//887 
f 888//888 886//886 889//889 
f 890//890 888//888 891//891 
f 892//892 890//890 893//893 
f 894//894 892//892 895//895 
f 896//896 894//894 897//897 
f 898//898 896//896 899//899 
f 900//900 898//898 901//901 
f 902//902 900//900 903//903 
f 904//904 902//902 905//905 
f 906//906 904//904 907//907 
f 908//908 906//906 909//909 
f 910//910 908//908 911//911 
f 912//912 910//910 913//913 
f 914//914 912//912 915//915 
f 916//916 914//914 917//917 
f 918//918 916//916 919//919 
f 920//920 918//918 921//921 
f 922//922 920//920 923//923 
f 924//924 922//922 925//925 
f 926//926 924//924 927//927 
f 928//928 926//926 929//929 
f 930//930 928//928 931//931 
f 932//932 930//930 933//933 
f 934//934 932//932 935//935 
f 936//936 934//934 937//937 
f 938//938 936//936 939//939 
f 940//940 938//938 941//941 
f 942//942 940//940 943//943 
f 944//944 942//942 945//945 
f 946//946 944//944 947//947 
f 948//948 946//946 949//949 
f 950//950 948//948 951//951 
f 952//952 950//950 953//953 
f 954//954 952//952 955//955 
f 956//956 954//954 957//957 
f 958//958 956//956 959//959 
f 960//960 958//958 961//961 
f 962//962 960//960 963//963 
f 850//850 962//962 964//964 
f 964//964 851//851 850//850 
f 963//963 964//964 962//962 
f 961//961 963//963 960//960 
f 959//959 961//961 958//958 
f 957//957 959//959 956//956 
f 955//955 957//957 954//954 
f 953//953 955//955 952//952 
f 951//951 953//953 950//950 
f 949//949 951//951 948//948 
f 947//947 949//949 946//946 
f 945//945 947//947 944//944 
f 943//943 945//945 942//942 
f 941//941 943//943 940//940 
f 939//939 941//941 938//938 
f 937//937 939//939 936//936 
f 935//935 937//937 934//934 
f 933//933 935//935 932//932 
f 931//931 933//933 930//930 
f 929//929 931//931 928//928 
f 927//927 929//929 926//926 
f 925//925 927//927 924//924 
f 923//923 925//925 922//922 
f 921//921 923//923 920//920 
f 919//919 921//921 918//918 
f 917//917 919//919 916//916 
f 915//915 917//917 914//914 
f 913//913 915//915 912//912 
f 911//911 913//913 910//910 
f 909//909 911//911 908//908 
f 907//907 909//909 906//906 
f 905//905 907//907 904//904 
f 903//903 905//905 902//902 
f 901//901 903//903 900//900 
f 899//899 901//901 898//898 
f 897//897 899//899 896//896 
f 895//895 897//897 894//894 
f 893//893 895//895 892//892 
f 891//891 893//893 890//890 
f 889//889 891//891 888//888 
f 887//887 889//889 886//886 
f 885//885 887//887 884//884 
f 883//883 885//885 882//882 
f 881//881 883//883 880//880 
f 879//879 881//881 878//878 
f 877//877 879//879 876//876 
f 875//875 877//877 874//874 
f 873//873 875//875 872//872 
f 871//871 873//873 870//870 
f 869//869 871//871 868//868 
f 867//867 869//869 866//866 
f 865//865 867//867 864//864 
f 863//863 865//865 862//862 
f 861//861 863//863 860//860 
f 859//859 861//861 858//858 
f 857//857 859//859 856//856 
f 855//855 857//857 854//854 
f 853//853 855//855 852//852 
f 851//851 853//853 849//849 
