# OBJ generated by ONSHAPE BY PTC INC, 1.215 Units = meters
mtllib EBoxNewAsm_stp_1_EStop_stp_1_solid1.mtl
g EBoxNewAsm.stp-1/EStop.stp-1-solid1
usemtl 0.964706_0.964706_0.952941_0.000000_0.000000
o mesh9121
v 0.148175 0.232439 0.220709 
v 0.146661 0.245517 0.215949 
v 0.145165 0.245287 0.216033 
v 0.143705 0.244906 0.216172 
v 0.142297 0.244379 0.216364 
v 0.140957 0.243711 0.216606 
v 0.139703 0.242912 0.216897 
v 0.138547 0.24199 0.217233 
v 0.137505 0.240956 0.217609 
v 0.136587 0.239822 0.218022 
v 0.135806 0.238601 0.218466 
v 0.135169 0.237308 0.218937 
v 0.134685 0.235958 0.219428 
v 0.134359 0.234567 0.219935 
v 0.134196 0.233151 0.22045 
v 0.134196 0.231727 0.220969 
v 0.134359 0.23031 0.221484 
v 0.134685 0.228919 0.22199 
v 0.135169 0.227569 0.222482 
v 0.135806 0.226277 0.222952 
v 0.136587 0.225056 0.223396 
v 0.137505 0.223922 0.223809 
v 0.138547 0.222888 0.224186 
v 0.139703 0.221966 0.224521 
v 0.140957 0.221166 0.224812 
v 0.142297 0.220499 0.225055 
v 0.143705 0.219972 0.225247 
v 0.145165 0.219591 0.225386 
v 0.146661 0.21936 0.22547 
v 0.148175 0.219283 0.225498 
v 0.149689 0.21936 0.22547 
v 0.151185 0.219591 0.225386 
v 0.152645 0.219972 0.225247 
v 0.154053 0.220499 0.225055 
v 0.155393 0.221166 0.224812 
v 0.156647 0.221966 0.224521 
v 0.157803 0.222888 0.224186 
v 0.158845 0.223922 0.223809 
v 0.159763 0.225056 0.223396 
v 0.160544 0.226277 0.222952 
v 0.161181 0.227569 0.222482 
v 0.161665 0.228919 0.22199 
v 0.161991 0.23031 0.221484 
v 0.162154 0.231727 0.220969 
v 0.162154 0.233151 0.22045 
v 0.161991 0.234567 0.219935 
v 0.161665 0.235958 0.219428 
v 0.161181 0.237308 0.218937 
v 0.160544 0.238601 0.218466 
v 0.159763 0.239822 0.218022 
v 0.158845 0.240956 0.217609 
v 0.157803 0.24199 0.217233 
v 0.156647 0.242912 0.216897 
v 0.155393 0.243711 0.216606 
v 0.154053 0.244379 0.216364 
v 0.152645 0.244906 0.216172 
v 0.151185 0.245287 0.216033 
v 0.149689 0.245517 0.215949 
v 0.148175 0.245595 0.215921 
vn -5.09196e-14 0.34202 0.939693 
vn -5.09196e-14 0.34202 0.939693 
vn -5.09196e-14 0.34202 0.939693 
vn -5.09196e-14 0.34202 0.939693 
vn -5.09196e-14 0.34202 0.939693 
vn -5.09196e-14 0.34202 0.939693 
vn -5.09196e-14 0.34202 0.939693 
vn -5.09196e-14 0.34202 0.939693 
vn -5.09196e-14 0.34202 0.939693 
vn -5.09196e-14 0.34202 0.939693 
vn -5.09196e-14 0.34202 0.939693 
vn -5.09196e-14 0.34202 0.939693 
vn -5.09196e-14 0.34202 0.939693 
vn -5.09196e-14 0.34202 0.939693 
vn -5.09196e-14 0.34202 0.939693 
vn -5.09196e-14 0.34202 0.939693 
vn -5.09196e-14 0.34202 0.939693 
vn -5.09196e-14 0.34202 0.939693 
vn -5.09196e-14 0.34202 0.939693 
vn -5.09196e-14 0.34202 0.939693 
vn -5.09196e-14 0.34202 0.939693 
vn -5.09196e-14 0.34202 0.939693 
vn -5.09196e-14 0.34202 0.939693 
vn -5.09196e-14 0.34202 0.939693 
vn -5.09196e-14 0.34202 0.939693 
vn -5.09196e-14 0.34202 0.939693 
vn -5.09196e-14 0.34202 0.939693 
vn -5.09196e-14 0.34202 0.939693 
vn -5.09196e-14 0.34202 0.939693 
vn -5.09196e-14 0.34202 0.939693 
vn -5.09196e-14 0.34202 0.939693 
vn -5.09196e-14 0.34202 0.939693 
vn -5.09196e-14 0.34202 0.939693 
vn -5.09196e-14 0.34202 0.939693 
vn -5.09196e-14 0.34202 0.939693 
vn -5.09196e-14 0.34202 0.939693 
vn -5.09196e-14 0.34202 0.939693 
vn -5.09196e-14 0.34202 0.939693 
vn -5.09196e-14 0.34202 0.939693 
vn -5.09196e-14 0.34202 0.939693 
vn -5.09196e-14 0.34202 0.939693 
vn -5.09196e-14 0.34202 0.939693 
vn -5.09196e-14 0.34202 0.939693 
vn -5.09196e-14 0.34202 0.939693 
vn -5.09196e-14 0.34202 0.939693 
vn -5.09196e-14 0.34202 0.939693 
vn -5.09196e-14 0.34202 0.939693 
vn -5.09196e-14 0.34202 0.939693 
vn -5.09196e-14 0.34202 0.939693 
vn -5.09196e-14 0.34202 0.939693 
vn -5.09196e-14 0.34202 0.939693 
vn -5.09196e-14 0.34202 0.939693 
vn -5.09196e-14 0.34202 0.939693 
vn -5.09196e-14 0.34202 0.939693 
vn -5.09196e-14 0.34202 0.939693 
vn -5.09196e-14 0.34202 0.939693 
vn -5.09196e-14 0.34202 0.939693 
vn -5.09196e-14 0.34202 0.939693 
vn -5.09196e-14 0.34202 0.939693 
f 1//1 2//2 3//3 
f 3//3 4//4 1//1 
f 4//4 5//5 1//1 
f 5//5 6//6 1//1 
f 6//6 7//7 1//1 
f 7//7 8//8 1//1 
f 8//8 9//9 1//1 
f 9//9 10//10 1//1 
f 10//10 11//11 1//1 
f 11//11 12//12 1//1 
f 12//12 13//13 1//1 
f 13//13 14//14 1//1 
f 14//14 15//15 1//1 
f 15//15 16//16 1//1 
f 16//16 17//17 1//1 
f 17//17 18//18 1//1 
f 18//18 19//19 1//1 
f 19//19 20//20 1//1 
f 20//20 21//21 1//1 
f 21//21 22//22 1//1 
f 22//22 23//23 1//1 
f 23//23 24//24 1//1 
f 24//24 25//25 1//1 
f 25//25 26//26 1//1 
f 26//26 27//27 1//1 
f 27//27 28//28 1//1 
f 28//28 29//29 1//1 
f 29//29 30//30 1//1 
f 30//30 31//31 1//1 
f 31//31 32//32 1//1 
f 32//32 33//33 1//1 
f 33//33 34//34 1//1 
f 34//34 35//35 1//1 
f 35//35 36//36 1//1 
f 36//36 37//37 1//1 
f 37//37 38//38 1//1 
f 38//38 39//39 1//1 
f 39//39 40//40 1//1 
f 40//40 41//41 1//1 
f 41//41 42//42 1//1 
f 42//42 43//43 1//1 
f 43//43 44//44 1//1 
f 44//44 45//45 1//1 
f 45//45 46//46 1//1 
f 46//46 47//47 1//1 
f 47//47 48//48 1//1 
f 48//48 49//49 1//1 
f 49//49 50//50 1//1 
f 50//50 51//51 1//1 
f 51//51 52//52 1//1 
f 52//52 53//53 1//1 
f 53//53 54//54 1//1 
f 54//54 55//55 1//1 
f 55//55 56//56 1//1 
f 56//56 57//57 1//1 
f 57//57 58//58 1//1 
f 58//58 59//59 1//1 
f 59//59 2//2 1//1 
o mesh9122
v 0.148175 0.219283 0.225498 
v 0.148175 0.215863 0.216101 
v 0.149689 0.21594 0.216073 
v 0.149689 0.21936 0.22547 
v 0.151185 0.216171 0.215989 
v 0.151185 0.219591 0.225386 
v 0.152645 0.216552 0.21585 
v 0.152645 0.219972 0.225247 
v 0.154053 0.217079 0.215658 
v 0.154053 0.220499 0.225055 
v 0.155393 0.217746 0.215415 
v 0.155393 0.221166 0.224812 
v 0.156647 0.218545 0.215124 
v 0.156647 0.221966 0.224521 
v 0.157803 0.219468 0.214789 
v 0.157803 0.222888 0.224186 
v 0.158845 0.220502 0.214412 
v 0.158845 0.223922 0.223809 
v 0.159763 0.221636 0.214 
v 0.159763 0.225056 0.223396 
v 0.160544 0.222856 0.213555 
v 0.160544 0.226277 0.222952 
v 0.161181 0.224149 0.213085 
v 0.161181 0.227569 0.222482 
v 0.161665 0.225499 0.212593 
v 0.161665 0.228919 0.22199 
v 0.161991 0.22689 0.212087 
v 0.161991 0.23031 0.221484 
v 0.162154 0.228306 0.211572 
v 0.162154 0.231727 0.220969 
v 0.162154 0.229731 0.211053 
v 0.162154 0.233151 0.22045 
v 0.161991 0.231147 0.210538 
v 0.161991 0.234567 0.219935 
v 0.161665 0.232538 0.210031 
v 0.161665 0.235958 0.219428 
v 0.161181 0.233888 0.20954 
v 0.161181 0.237308 0.218937 
v 0.160544 0.235181 0.20907 
v 0.160544 0.238601 0.218466 
v 0.159763 0.236401 0.208625 
v 0.159763 0.239822 0.218022 
v 0.158845 0.237535 0.208213 
v 0.158845 0.240956 0.217609 
v 0.157803 0.23857 0.207836 
v 0.157803 0.24199 0.217233 
v 0.156647 0.239492 0.2075 
v 0.156647 0.242912 0.216897 
v 0.155393 0.240291 0.20721 
v 0.155393 0.243711 0.216606 
v 0.154053 0.240958 0.206967 
v 0.154053 0.244379 0.216364 
v 0.152645 0.241486 0.206775 
v 0.152645 0.244906 0.216172 
v 0.151185 0.241867 0.206636 
v 0.151185 0.245287 0.216033 
v 0.149689 0.242097 0.206552 
v 0.149689 0.245517 0.215949 
v 0.148175 0.242174 0.206524 
v 0.148175 0.245595 0.215921 
v 0.146661 0.242097 0.206552 
v 0.146661 0.245517 0.215949 
v 0.145165 0.241867 0.206636 
v 0.145165 0.245287 0.216033 
v 0.143705 0.241486 0.206775 
v 0.143705 0.244906 0.216172 
v 0.142297 0.240958 0.206967 
v 0.142297 0.244379 0.216364 
v 0.140957 0.240291 0.20721 
v 0.140957 0.243711 0.216606 
v 0.139703 0.239492 0.2075 
v 0.139703 0.242912 0.216897 
v 0.138547 0.23857 0.207836 
v 0.138547 0.24199 0.217233 
v 0.137505 0.237535 0.208213 
v 0.137505 0.240956 0.217609 
v 0.136587 0.236401 0.208625 
v 0.136587 0.239822 0.218022 
v 0.135806 0.235181 0.20907 
v 0.135806 0.238601 0.218466 
v 0.135169 0.233888 0.20954 
v 0.135169 0.237308 0.218937 
v 0.134685 0.232538 0.210031 
v 0.134685 0.235958 0.219428 
v 0.134359 0.231147 0.210538 
v 0.134359 0.234567 0.219935 
v 0.134196 0.229731 0.211053 
v 0.134196 0.233151 0.22045 
v 0.134196 0.228306 0.211572 
v 0.134196 0.231727 0.220969 
v 0.134359 0.22689 0.212087 
v 0.134359 0.23031 0.221484 
v 0.134685 0.225499 0.212593 
v 0.134685 0.228919 0.22199 
v 0.135169 0.224149 0.213085 
v 0.135169 0.227569 0.222482 
v 0.135806 0.222856 0.213555 
v 0.135806 0.226277 0.222952 
v 0.136587 0.221636 0.214 
v 0.136587 0.225056 0.223396 
v 0.137505 0.220502 0.214412 
v 0.137505 0.223922 0.223809 
v 0.138547 0.219468 0.214789 
v 0.138547 0.222888 0.224186 
v 0.139703 0.218545 0.215124 
v 0.139703 0.221966 0.224521 
v 0.140957 0.217746 0.215415 
v 0.140957 0.221166 0.224812 
v 0.142297 0.217079 0.215658 
v 0.142297 0.220499 0.225055 
v 0.143705 0.216552 0.21585 
v 0.143705 0.219972 0.225247 
v 0.145165 0.216171 0.215989 
v 0.145165 0.219591 0.225386 
v 0.146661 0.21594 0.216073 
v 0.146661 0.21936 0.22547 
vn 0 -0.939693 0.34202 
vn 0 -0.939693 0.34202 
vn 0.108119 -0.934184 0.340015 
vn 0.108119 -0.934184 0.340015 
vn 0.21497 -0.917723 0.334024 
vn 0.21497 -0.917723 0.334024 
vn 0.319302 -0.890503 0.324116 
vn 0.319302 -0.890503 0.324116 
vn 0.419889 -0.852842 0.310409 
vn 0.419889 -0.852842 0.310409 
vn 0.515554 -0.805182 0.293062 
vn 0.515554 -0.805182 0.293062 
vn 0.605174 -0.748083 0.27228 
vn 0.605174 -0.748083 0.27228 
vn 0.687699 -0.682213 0.248305 
vn 0.687699 -0.682213 0.248305 
vn 0.762162 -0.608344 0.221419 
vn 0.762162 -0.608344 0.221419 
vn 0.827689 -0.527343 0.191937 
vn 0.827689 -0.527343 0.191937 
vn 0.883512 -0.44016 0.160205 
vn 0.883512 -0.44016 0.160205 
vn 0.928977 -0.347816 0.126595 
vn 0.928977 -0.347816 0.126595 
vn 0.96355 -0.251394 0.0915001 
vn 0.96355 -0.251394 0.0915001 
vn 0.986827 -0.152025 0.0553327 
vn 0.986827 -0.152025 0.0553327 
vn 0.998533 -0.0508739 0.0185166 
vn 0.998533 -0.0508739 0.0185166 
vn 0.998533 0.0508739 -0.0185166 
vn 0.998533 0.0508739 -0.0185166 
vn 0.986827 0.152025 -0.0553327 
vn 0.986827 0.152025 -0.0553327 
vn 0.96355 0.251394 -0.0915001 
vn 0.96355 0.251394 -0.0915001 
vn 0.928977 0.347816 -0.126595 
vn 0.928977 0.347816 -0.126595 
vn 0.883512 0.44016 -0.160205 
vn 0.883512 0.44016 -0.160205 
vn 0.827689 0.527343 -0.191937 
vn 0.827689 0.527343 -0.191937 
vn 0.762162 0.608344 -0.221419 
vn 0.762162 0.608344 -0.221419 
vn 0.687699 0.682213 -0.248305 
vn 0.687699 0.682213 -0.248305 
vn 0.605174 0.748083 -0.27228 
vn 0.605174 0.748083 -0.27228 
vn 0.515554 0.805182 -0.293062 
vn 0.515554 0.805182 -0.293062 
vn 0.419889 0.852842 -0.310409 
vn 0.419889 0.852842 -0.310409 
vn 0.319302 0.890503 -0.324116 
vn 0.319302 0.890503 -0.324116 
vn 0.21497 0.917723 -0.334024 
vn 0.21497 0.917723 -0.334024 
vn 0.108119 0.934184 -0.340015 
vn 0.108119 0.934184 -0.340015 
vn 1.22465e-16 0.939693 -0.34202 
vn 1.22465e-16 0.939693 -0.34202 
vn -0.108119 0.934184 -0.340015 
vn -0.108119 0.934184 -0.340015 
vn -0.21497 0.917723 -0.334024 
vn -0.21497 0.917723 -0.334024 
vn -0.319302 0.890503 -0.324116 
vn -0.319302 0.890503 -0.324116 
vn -0.419889 0.852842 -0.310409 
vn -0.419889 0.852842 -0.310409 
vn -0.515554 0.805182 -0.293062 
vn -0.515554 0.805182 -0.293062 
vn -0.605174 0.748083 -0.27228 
vn -0.605174 0.748083 -0.27228 
vn -0.687699 0.682213 -0.248305 
vn -0.687699 0.682213 -0.248305 
vn -0.762162 0.608344 -0.221419 
vn -0.762162 0.608344 -0.221419 
vn -0.827689 0.527343 -0.191937 
vn -0.827689 0.527343 -0.191937 
vn -0.883512 0.44016 -0.160205 
vn -0.883512 0.44016 -0.160205 
vn -0.928977 0.347816 -0.126595 
vn -0.928977 0.347816 -0.126595 
vn -0.96355 0.251394 -0.0915001 
vn -0.96355 0.251394 -0.0915001 
vn -0.986827 0.152025 -0.0553327 
vn -0.986827 0.152025 -0.0553327 
vn -0.998533 0.0508739 -0.0185166 
vn -0.998533 0.0508739 -0.0185166 
vn -0.998533 -0.0508739 0.0185166 
vn -0.998533 -0.0508739 0.0185166 
vn -0.986827 -0.152025 0.0553327 
vn -0.986827 -0.152025 0.0553327 
vn -0.96355 -0.251394 0.0915001 
vn -0.96355 -0.251394 0.0915001 
vn -0.928977 -0.347816 0.126595 
vn -0.928977 -0.347816 0.126595 
vn -0.883512 -0.44016 0.160205 
vn -0.883512 -0.44016 0.160205 
vn -0.827689 -0.527343 0.191937 
vn -0.827689 -0.527343 0.191937 
vn -0.762162 -0.608344 0.221419 
vn -0.762162 -0.608344 0.221419 
vn -0.687699 -0.682213 0.248305 
vn -0.687699 -0.682213 0.248305 
vn -0.605174 -0.748083 0.27228 
vn -0.605174 -0.748083 0.27228 
vn -0.515554 -0.805182 0.293062 
vn -0.515554 -0.805182 0.293062 
vn -0.419889 -0.852842 0.310409 
vn -0.419889 -0.852842 0.310409 
vn -0.319302 -0.890503 0.324116 
vn -0.319302 -0.890503 0.324116 
vn -0.21497 -0.917723 0.334024 
vn -0.21497 -0.917723 0.334024 
vn -0.108119 -0.934184 0.340015 
vn -0.108119 -0.934184 0.340015 
f 60//60 61//61 62//62 
f 63//63 62//62 64//64 
f 65//65 64//64 66//66 
f 67//67 66//66 68//68 
f 69//69 68//68 70//70 
f 71//71 70//70 72//72 
f 73//73 72//72 74//74 
f 75//75 74//74 76//76 
f 77//77 76//76 78//78 
f 79//79 78//78 80//80 
f 81//81 80//80 82//82 
f 83//83 82//82 84//84 
f 85//85 84//84 86//86 
f 87//87 86//86 88//88 
f 89//89 88//88 90//90 
f 91//91 90//90 92//92 
f 93//93 92//92 94//94 
f 95//95 94//94 96//96 
f 97//97 96//96 98//98 
f 99//99 98//98 100//100 
f 101//101 100//100 102//102 
f 103//103 102//102 104//104 
f 105//105 104//104 106//106 
f 107//107 106//106 108//108 
f 109//109 108//108 110//110 
f 111//111 110//110 112//112 
f 113//113 112//112 114//114 
f 115//115 114//114 116//116 
f 117//117 116//116 118//118 
f 119//119 118//118 120//120 
f 121//121 120//120 122//122 
f 123//123 122//122 124//124 
f 125//125 124//124 126//126 
f 127//127 126//126 128//128 
f 129//129 128//128 130//130 
f 131//131 130//130 132//132 
f 133//133 132//132 134//134 
f 135//135 134//134 136//136 
f 137//137 136//136 138//138 
f 139//139 138//138 140//140 
f 141//141 140//140 142//142 
f 143//143 142//142 144//144 
f 145//145 144//144 146//146 
f 147//147 146//146 148//148 
f 149//149 148//148 150//150 
f 151//151 150//150 152//152 
f 153//153 152//152 154//154 
f 155//155 154//154 156//156 
f 157//157 156//156 158//158 
f 159//159 158//158 160//160 
f 161//161 160//160 162//162 
f 163//163 162//162 164//164 
f 165//165 164//164 166//166 
f 167//167 166//166 168//168 
f 169//169 168//168 170//170 
f 171//171 170//170 172//172 
f 173//173 172//172 174//174 
f 175//175 174//174 61//61 
f 61//61 60//60 175//175 
f 174//174 175//175 173//173 
f 172//172 173//173 171//171 
f 170//170 171//171 169//169 
f 168//168 169//169 167//167 
f 166//166 167//167 165//165 
f 164//164 165//165 163//163 
f 162//162 163//163 161//161 
f 160//160 161//161 159//159 
f 158//158 159//159 157//157 
f 156//156 157//157 155//155 
f 154//154 155//155 153//153 
f 152//152 153//153 151//151 
f 150//150 151//151 149//149 
f 148//148 149//149 147//147 
f 146//146 147//147 145//145 
f 144//144 145//145 143//143 
f 142//142 143//143 141//141 
f 140//140 141//141 139//139 
f 138//138 139//139 137//137 
f 136//136 137//137 135//135 
f 134//134 135//135 133//133 
f 132//132 133//133 131//131 
f 130//130 131//131 129//129 
f 128//128 129//129 127//127 
f 126//126 127//127 125//125 
f 124//124 125//125 123//123 
f 122//122 123//123 121//121 
f 120//120 121//121 119//119 
f 118//118 119//119 117//117 
f 116//116 117//117 115//115 
f 114//114 115//115 113//113 
f 112//112 113//113 111//111 
f 110//110 111//111 109//109 
f 108//108 109//109 107//107 
f 106//106 107//107 105//105 
f 104//104 105//105 103//103 
f 102//102 103//103 101//101 
f 100//100 101//101 99//99 
f 98//98 99//99 97//97 
f 96//96 97//97 95//95 
f 94//94 95//95 93//93 
f 92//92 93//93 91//91 
f 90//90 91//91 89//89 
f 88//88 89//89 87//87 
f 86//86 87//87 85//85 
f 84//84 85//85 83//83 
f 82//82 83//83 81//81 
f 80//80 81//81 79//79 
f 78//78 79//79 77//77 
f 76//76 77//77 75//75 
f 74//74 75//75 73//73 
f 72//72 73//73 71//71 
f 70//70 71//71 69//69 
f 68//68 69//69 67//67 
f 66//66 67//67 65//65 
f 64//64 65//65 63//63 
f 62//62 63//63 60//60 
o mesh9123
v 0.166675 0.214923 0.216443 
v 0.158845 0.220502 0.214412 
v 0.157803 0.219468 0.214789 
v 0.159763 0.221636 0.214 
v 0.161665 0.225499 0.212593 
v 0.161181 0.224149 0.213085 
v 0.166675 0.243114 0.206182 
v 0.162154 0.229731 0.211053 
v 0.156647 0.218545 0.215124 
v 0.155393 0.217746 0.215415 
v 0.160544 0.222856 0.213555 
v 0.161991 0.22689 0.212087 
v 0.162154 0.228306 0.211572 
v 0.161665 0.232538 0.210031 
v 0.161991 0.231147 0.210538 
v 0.129675 0.243114 0.206182 
v 0.138547 0.23857 0.207836 
v 0.139703 0.239492 0.2075 
v 0.129675 0.214923 0.216443 
v 0.137505 0.220502 0.214412 
v 0.136587 0.221636 0.214 
v 0.161181 0.233888 0.20954 
v 0.157803 0.23857 0.207836 
v 0.158845 0.237535 0.208213 
v 0.154053 0.240958 0.206967 
v 0.155393 0.240291 0.20721 
v 0.151185 0.241867 0.206636 
v 0.152645 0.241486 0.206775 
v 0.142297 0.240958 0.206967 
v 0.143705 0.241486 0.206775 
v 0.140957 0.240291 0.20721 
v 0.135806 0.235181 0.20907 
v 0.136587 0.236401 0.208625 
v 0.134359 0.231147 0.210538 
v 0.134685 0.232538 0.210031 
v 0.134196 0.228306 0.211572 
v 0.134196 0.229731 0.211053 
v 0.135806 0.222856 0.213555 
v 0.154053 0.217079 0.215658 
v 0.152645 0.216552 0.21585 
v 0.159763 0.236401 0.208625 
v 0.148175 0.242174 0.206524 
v 0.149689 0.242097 0.206552 
v 0.146661 0.242097 0.206552 
v 0.137505 0.237535 0.208213 
v 0.135169 0.233888 0.20954 
v 0.134685 0.225499 0.212593 
v 0.134359 0.22689 0.212087 
v 0.135169 0.224149 0.213085 
v 0.160544 0.235181 0.20907 
v 0.145165 0.241867 0.206636 
v 0.139703 0.218545 0.215124 
v 0.138547 0.219468 0.214789 
v 0.142297 0.217079 0.215658 
v 0.140957 0.217746 0.215415 
v 0.145165 0.216171 0.215989 
v 0.143705 0.216552 0.21585 
v 0.148175 0.215863 0.216101 
v 0.146661 0.21594 0.216073 
v 0.149689 0.21594 0.216073 
v 0.156647 0.239492 0.2075 
v 0.151185 0.216171 0.215989 
vn -5.09196e-14 0.34202 0.939693 
vn -5.09196e-14 0.34202 0.939693 
vn -5.09196e-14 0.34202 0.939693 
vn -5.09196e-14 0.34202 0.939693 
vn -5.09196e-14 0.34202 0.939693 
vn -5.09196e-14 0.34202 0.939693 
vn -5.09196e-14 0.34202 0.939693 
vn -5.09196e-14 0.34202 0.939693 
vn -5.09196e-14 0.34202 0.939693 
vn -5.09196e-14 0.34202 0.939693 
vn -5.09196e-14 0.34202 0.939693 
vn -5.09196e-14 0.34202 0.939693 
vn -5.09196e-14 0.34202 0.939693 
vn -5.09196e-14 0.34202 0.939693 
vn -5.09196e-14 0.34202 0.939693 
vn -5.09196e-14 0.34202 0.939693 
vn -5.09196e-14 0.34202 0.939693 
vn -5.09196e-14 0.34202 0.939693 
vn -5.09196e-14 0.34202 0.939693 
vn -5.09196e-14 0.34202 0.939693 
vn -5.09196e-14 0.34202 0.939693 
vn -5.09196e-14 0.34202 0.939693 
vn -5.09196e-14 0.34202 0.939693 
vn -5.09196e-14 0.34202 0.939693 
vn -5.09196e-14 0.34202 0.939693 
vn -5.09196e-14 0.34202 0.939693 
vn -5.09196e-14 0.34202 0.939693 
vn -5.09196e-14 0.34202 0.939693 
vn -5.09196e-14 0.34202 0.939693 
vn -5.09196e-14 0.34202 0.939693 
vn -5.09196e-14 0.34202 0.939693 
vn -5.09196e-14 0.34202 0.939693 
vn -5.09196e-14 0.34202 0.939693 
vn -5.09196e-14 0.34202 0.939693 
vn -5.09196e-14 0.34202 0.939693 
vn -5.09196e-14 0.34202 0.939693 
vn -5.09196e-14 0.34202 0.939693 
vn -5.09196e-14 0.34202 0.939693 
vn -5.09196e-14 0.34202 0.939693 
vn -5.09196e-14 0.34202 0.939693 
vn -5.09196e-14 0.34202 0.939693 
vn -5.09196e-14 0.34202 0.939693 
vn -5.09196e-14 0.34202 0.939693 
vn -5.09196e-14 0.34202 0.939693 
vn -5.09196e-14 0.34202 0.939693 
vn -5.09196e-14 0.34202 0.939693 
vn -5.09196e-14 0.34202 0.939693 
vn -5.09196e-14 0.34202 0.939693 
vn -5.09196e-14 0.34202 0.939693 
vn -5.09196e-14 0.34202 0.939693 
vn -5.09196e-14 0.34202 0.939693 
vn -5.09196e-14 0.34202 0.939693 
vn -5.09196e-14 0.34202 0.939693 
vn -5.09196e-14 0.34202 0.939693 
vn -5.09196e-14 0.34202 0.939693 
vn -5.09196e-14 0.34202 0.939693 
vn -5.09196e-14 0.34202 0.939693 
vn -5.09196e-14 0.34202 0.939693 
vn -5.09196e-14 0.34202 0.939693 
vn -5.09196e-14 0.34202 0.939693 
vn -5.09196e-14 0.34202 0.939693 
vn -5.09196e-14 0.34202 0.939693 
f 176//176 177//177 178//178 
f 176//176 179//179 177//177 
f 176//176 180//180 181//181 
f 176//176 182//182 183//183 
f 176//176 184//184 185//185 
f 176//176 186//186 179//179 
f 176//176 187//187 180//180 
f 183//183 188//188 176//176 
f 178//178 184//184 176//176 
f 188//188 187//187 176//176 
f 182//182 189//189 190//190 
f 191//191 192//192 193//193 
f 194//194 195//195 196//196 
f 181//181 186//186 176//176 
f 182//182 197//197 189//189 
f 182//182 198//198 199//199 
f 182//182 200//200 201//201 
f 182//182 202//202 203//203 
f 191//191 204//204 205//205 
f 193//193 206//206 191//191 
f 191//191 207//207 208//208 
f 191//191 209//209 210//210 
f 194//194 211//211 212//212 
f 196//196 213//213 194//194 
f 176//176 214//214 215//215 
f 190//190 183//183 182//182 
f 199//199 216//216 182//182 
f 203//203 200//200 182//182 
f 182//182 217//217 218//218 
f 191//191 219//219 217//217 
f 206//206 204//204 191//191 
f 208//208 220//220 191//191 
f 210//210 221//221 191//191 
f 212//212 191//191 194//194 
f 194//194 222//222 223//223 
f 213//213 224//224 194//194 
f 185//185 214//214 176//176 
f 216//216 225//225 182//182 
f 218//218 202//202 182//182 
f 191//191 226//226 219//219 
f 220//220 192//192 191//191 
f 212//212 209//209 191//191 
f 224//224 222//222 194//194 
f 194//194 227//227 228//228 
f 194//194 229//229 230//230 
f 194//194 231//231 232//232 
f 194//194 233//233 234//234 
f 176//176 235//235 233//233 
f 225//225 197//197 182//182 
f 201//201 236//236 182//182 
f 205//205 226//226 191//191 
f 223//223 211//211 194//194 
f 230//230 227//227 194//194 
f 234//234 231//231 194//194 
f 176//176 237//237 235//235 
f 236//236 198//198 182//182 
f 221//221 207//207 191//191 
f 232//232 229//229 194//194 
f 215//215 237//237 176//176 
f 228//228 195//195 194//194 
f 217//217 182//182 191//191 
f 233//233 194//194 176//176 
o mesh9124
v 0.166675 0.202953 0.183553 
v 0.166675 0.214923 0.216443 
v 0.129675 0.214923 0.216443 
v 0.129675 0.202953 0.183553 
vn 0 -0.939693 0.34202 
vn 0 -0.939693 0.34202 
vn 0 -0.939693 0.34202 
vn 0 -0.939693 0.34202 
f 238//238 239//239 240//240 
f 240//240 241//241 238//238 
o mesh9125
v 0.166675 0.243114 0.206182 
v 0.166675 0.231143 0.173293 
v 0.129675 0.231143 0.173293 
v 0.129675 0.243114 0.206182 
vn 0 0.939693 -0.34202 
vn 0 0.939693 -0.34202 
vn 0 0.939693 -0.34202 
vn 0 0.939693 -0.34202 
f 242//242 243//243 244//244 
f 244//244 245//245 242//242 
o mesh9126
v 0.166675 0.231143 0.173293 
v 0.166675 0.243114 0.206182 
v 0.166675 0.214923 0.216443 
v 0.166675 0.202953 0.183553 
vn 1 1.74155e-14 4.78488e-14 
vn 1 1.74155e-14 4.78488e-14 
vn 1 1.74155e-14 4.78488e-14 
vn 1 1.74155e-14 4.78488e-14 
f 246//246 247//247 248//248 
f 248//248 249//249 246//246 
o mesh9127
v 0.166675 0.202953 0.183553 
v 0.129675 0.202953 0.183553 
v 0.129675 0.231143 0.173293 
v 0.166675 0.231143 0.173293 
vn 5.09196e-14 -0.34202 -0.939693 
vn 5.09196e-14 -0.34202 -0.939693 
vn 5.09196e-14 -0.34202 -0.939693 
vn 5.09196e-14 -0.34202 -0.939693 
f 250//250 251//251 252//252 
f 252//252 253//253 250//250 
o mesh9128
v 0.129675 0.214923 0.216443 
v 0.129675 0.243114 0.206182 
v 0.129675 0.231143 0.173293 
v 0.129675 0.202953 0.183553 
vn -1 -1.74155e-14 -4.78488e-14 
vn -1 -1.74155e-14 -4.78488e-14 
vn -1 -1.74155e-14 -4.78488e-14 
vn -1 -1.74155e-14 -4.78488e-14 
f 254//254 255//255 256//256 
f 256//256 257//257 254//254 
