# OBJ generated by ONSHAPE BY PTC INC, 1.215 Units = meters
mtllib EBoxNewAsm_stp_1_IMC413_1_stp_1_IMC413_1_26_stp_1_solid1.mtl
g EBoxNewAsm.stp-1/IMC413_1.stp-1/IMC413_1-26.stp-1-solid1
usemtl 0.823529_0.823529_1.000000_0.000000_0.000000
o mesh10140
v 0.141623 0.201195 0.0767833 
v 0.141623 0.200976 0.0761819 
v 0.141623 0.201577 0.075963 
v 0.141623 0.201796 0.0765645 
vn 1 0 0 
vn 1 0 0 
vn 1 0 0 
vn 1 0 0 
f 1//1 2//2 3//3 
f 3//3 4//4 1//1 
o mesh10141
v 0.135783 0.201577 0.075963 
v 0.135783 0.201796 0.0765645 
v 0.141623 0.201796 0.0765645 
v 0.141623 0.201577 0.075963 
vn 0 0.939693 -0.34202 
vn 0 0.939693 -0.34202 
vn 0 0.939693 -0.34202 
vn 0 0.939693 -0.34202 
f 5//5 6//6 7//7 
f 7//7 8//8 5//5 
o mesh10142
v 0.135783 0.201796 0.0765645 
v 0.135783 0.201195 0.0767833 
v 0.141623 0.201195 0.0767833 
v 0.141623 0.201796 0.0765645 
vn 0 0.34202 0.939693 
vn 0 0.34202 0.939693 
vn 0 0.34202 0.939693 
vn 0 0.34202 0.939693 
f 9//9 10//10 11//11 
f 11//11 12//12 9//9 
o mesh10143
v 0.135783 0.200976 0.0761819 
v 0.141623 0.200976 0.0761819 
v 0.141623 0.201195 0.0767833 
v 0.135783 0.201195 0.0767833 
vn 0 -0.939693 0.34202 
vn 0 -0.939693 0.34202 
vn 0 -0.939693 0.34202 
vn 0 -0.939693 0.34202 
f 13//13 14//14 15//15 
f 15//15 16//16 13//13 
o mesh10144
v 0.135783 0.201577 0.075963 
v 0.141623 0.201577 0.075963 
v 0.141623 0.200976 0.0761819 
v 0.135783 0.200976 0.0761819 
vn 0 -0.34202 -0.939693 
vn 0 -0.34202 -0.939693 
vn 0 -0.34202 -0.939693 
vn 0 -0.34202 -0.939693 
f 17//17 18//18 19//19 
f 19//19 20//20 17//17 
usemtl 0.372549_0.372549_0.372549_0.000000_0.000000
o mesh10145
v 0.135783 0.199861 0.0758961 
v 0.135783 0.202248 0.0750273 
v 0.135783 0.201577 0.075963 
v 0.135783 0.202446 0.0783499 
v 0.135783 0.204232 0.0777 
v 0.135783 0.20445 0.0783014 
v 0.135783 0.20425 0.0739793 
v 0.135783 0.204635 0.0741586 
v 0.135783 0.203964 0.0750943 
v 0.135783 0.200976 0.0761819 
v 0.135783 0.204183 0.0756957 
v 0.135783 0.206167 0.0783684 
v 0.135783 0.204833 0.0774811 
v 0.135783 0.205988 0.0787529 
v 0.135783 0.205052 0.0780825 
v 0.135783 0.203582 0.0759146 
v 0.135783 0.203363 0.0753132 
v 0.135783 0.201796 0.0765645 
v 0.135783 0.201393 0.0801059 
v 0.135783 0.201195 0.0767833 
v 0.135783 0.201845 0.0785688 
v 0.135783 0.204165 0.0794165 
v 0.135783 0.201778 0.0802852 
v 0.135783 0.202064 0.0791702 
v 0.135783 0.202427 0.0746428 
v 0.135783 0.20004 0.0755115 
v 0.135783 0.20378 0.0792372 
v 0.135783 0.202665 0.0789513 
v 0.135783 0.201863 0.074848 
v 0.135783 0.203601 0.0796217 
vn 1 0 0 
vn 1 0 0 
vn 1 0 0 
vn 1 0 0 
vn 1 0 0 
vn 1 0 0 
vn 1 0 0 
vn 1 0 0 
vn 1 0 0 
vn 1 0 0 
vn 1 0 0 
vn 1 0 0 
vn 1 0 0 
vn 1 0 0 
vn 1 0 0 
vn 1 0 0 
vn 1 0 0 
vn 1 0 0 
vn 1 0 0 
vn 1 0 0 
vn 1 0 0 
vn 1 0 0 
vn 1 0 0 
vn 1 0 0 
vn 1 0 0 
vn 1 0 0 
vn 1 0 0 
vn 1 0 0 
vn 1 0 0 
vn 1 0 0 
f 21//21 22//22 23//23 
f 24//24 25//25 26//26 
f 27//27 28//28 29//29 
f 23//23 30//30 21//21 
f 31//31 32//32 33//33 
f 32//32 34//34 35//35 
f 24//24 36//36 25//25 
f 37//37 24//24 38//38 
f 29//29 37//37 27//27 
f 39//39 40//40 41//41 
f 38//38 24//24 41//41 
f 21//21 30//30 40//40 
f 22//22 27//27 23//23 
f 28//28 32//32 31//31 
f 35//35 33//33 32//32 
f 26//26 34//34 42//42 
f 24//24 37//37 36//36 
f 43//43 39//39 44//44 
f 37//37 23//23 27//27 
f 41//41 40//40 38//38 
f 22//22 45//45 27//27 
f 22//22 21//21 46//46 
f 33//33 36//36 31//31 
f 42//42 47//47 26//26 
f 36//36 33//33 25//25 
f 44//44 48//48 43//43 
f 41//41 44//44 39//39 
f 46//46 49//49 22//22 
f 43//43 26//26 47//47 
f 26//26 35//35 34//34 
f 48//48 26//26 43//43 
f 40//40 39//39 21//21 
f 31//31 29//29 28//28 
f 38//38 23//23 37//37 
f 26//26 48//48 24//24 
f 47//47 50//50 43//43 
usemtl 0.823529_0.823529_1.000000_0.000000_0.000000
o mesh10146
v 0.135783 0.204833 0.0774811 
v 0.135783 0.205052 0.0780825 
v 0.141623 0.205052 0.0780825 
v 0.141623 0.204833 0.0774811 
vn 0 0.939693 -0.34202 
vn 0 0.939693 -0.34202 
vn 0 0.939693 -0.34202 
vn 0 0.939693 -0.34202 
f 51//51 52//52 53//53 
f 53//53 54//54 51//51 
o mesh10147
v 0.141623 0.20445 0.0783014 
v 0.141623 0.204232 0.0777 
v 0.141623 0.204833 0.0774811 
v 0.141623 0.205052 0.0780825 
vn 1 0 0 
vn 1 0 0 
vn 1 0 0 
vn 1 0 0 
f 55//55 56//56 57//57 
f 57//57 58//58 55//55 
o mesh10148
v 0.135783 0.205052 0.0780825 
v 0.135783 0.20445 0.0783014 
v 0.141623 0.20445 0.0783014 
v 0.141623 0.205052 0.0780825 
vn 0 0.34202 0.939693 
vn 0 0.34202 0.939693 
vn 0 0.34202 0.939693 
vn 0 0.34202 0.939693 
f 59//59 60//60 61//61 
f 61//61 62//62 59//59 
o mesh10149
v 0.135783 0.204232 0.0777 
v 0.141623 0.204232 0.0777 
v 0.141623 0.20445 0.0783014 
v 0.135783 0.20445 0.0783014 
vn 0 -0.939693 0.34202 
vn 0 -0.939693 0.34202 
vn 0 -0.939693 0.34202 
vn 0 -0.939693 0.34202 
f 63//63 64//64 65//65 
f 65//65 66//66 63//63 
o mesh10150
v 0.135783 0.204833 0.0774811 
v 0.141623 0.204833 0.0774811 
v 0.141623 0.204232 0.0777 
v 0.135783 0.204232 0.0777 
vn 0 -0.34202 -0.939693 
vn 0 -0.34202 -0.939693 
vn 0 -0.34202 -0.939693 
vn 0 -0.34202 -0.939693 
f 67//67 68//68 69//69 
f 69//69 70//70 67//67 
o mesh10151
v 0.135783 0.203964 0.0750943 
v 0.135783 0.204183 0.0756957 
v 0.141623 0.204183 0.0756957 
v 0.141623 0.203964 0.0750943 
vn 0 0.939693 -0.34202 
vn 0 0.939693 -0.34202 
vn 0 0.939693 -0.34202 
vn 0 0.939693 -0.34202 
f 71//71 72//72 73//73 
f 73//73 74//74 71//71 
o mesh10152
v 0.141623 0.203582 0.0759146 
v 0.141623 0.203363 0.0753132 
v 0.141623 0.203964 0.0750943 
v 0.141623 0.204183 0.0756957 
vn 1 0 0 
vn 1 0 0 
vn 1 0 0 
vn 1 0 0 
f 75//75 76//76 77//77 
f 77//77 78//78 75//75 
o mesh10153
v 0.135783 0.204183 0.0756957 
v 0.135783 0.203582 0.0759146 
v 0.141623 0.203582 0.0759146 
v 0.141623 0.204183 0.0756957 
vn 0 0.34202 0.939693 
vn 0 0.34202 0.939693 
vn 0 0.34202 0.939693 
vn 0 0.34202 0.939693 
f 79//79 80//80 81//81 
f 81//81 82//82 79//79 
o mesh10154
v 0.135783 0.203363 0.0753132 
v 0.141623 0.203363 0.0753132 
v 0.141623 0.203582 0.0759146 
v 0.135783 0.203582 0.0759146 
vn 0 -0.939693 0.34202 
vn 0 -0.939693 0.34202 
vn 0 -0.939693 0.34202 
vn 0 -0.939693 0.34202 
f 83//83 84//84 85//85 
f 85//85 86//86 83//83 
o mesh10155
v 0.135783 0.203964 0.0750943 
v 0.141623 0.203964 0.0750943 
v 0.141623 0.203363 0.0753132 
v 0.135783 0.203363 0.0753132 
vn 0 -0.34202 -0.939693 
vn 0 -0.34202 -0.939693 
vn 0 -0.34202 -0.939693 
vn 0 -0.34202 -0.939693 
f 87//87 88//88 89//89 
f 89//89 90//90 87//87 
o mesh10156
v 0.135783 0.202446 0.0783499 
v 0.135783 0.202665 0.0789513 
v 0.141623 0.202665 0.0789513 
v 0.141623 0.202446 0.0783499 
vn 0 0.939693 -0.34202 
vn 0 0.939693 -0.34202 
vn 0 0.939693 -0.34202 
vn 0 0.939693 -0.34202 
f 91//91 92//92 93//93 
f 93//93 94//94 91//91 
o mesh10157
v 0.141623 0.202064 0.0791702 
v 0.141623 0.201845 0.0785688 
v 0.141623 0.202446 0.0783499 
v 0.141623 0.202665 0.0789513 
vn 1 0 0 
vn 1 0 0 
vn 1 0 0 
vn 1 0 0 
f 95//95 96//96 97//97 
f 97//97 98//98 95//95 
o mesh10158
v 0.135783 0.202665 0.0789513 
v 0.135783 0.202064 0.0791702 
v 0.141623 0.202064 0.0791702 
v 0.141623 0.202665 0.0789513 
vn 0 0.34202 0.939693 
vn 0 0.34202 0.939693 
vn 0 0.34202 0.939693 
vn 0 0.34202 0.939693 
f 99//99 100//100 101//101 
f 101//101 102//102 99//99 
o mesh10159
v 0.135783 0.201845 0.0785688 
v 0.141623 0.201845 0.0785688 
v 0.141623 0.202064 0.0791702 
v 0.135783 0.202064 0.0791702 
vn 0 -0.939693 0.34202 
vn 0 -0.939693 0.34202 
vn 0 -0.939693 0.34202 
vn 0 -0.939693 0.34202 
f 103//103 104//104 105//105 
f 105//105 106//106 103//103 
o mesh10160
v 0.135783 0.202446 0.0783499 
v 0.141623 0.202446 0.0783499 
v 0.141623 0.201845 0.0785688 
v 0.135783 0.201845 0.0785688 
vn 0 -0.34202 -0.939693 
vn 0 -0.34202 -0.939693 
vn 0 -0.34202 -0.939693 
vn 0 -0.34202 -0.939693 
f 107//107 108//108 109//109 
f 109//109 110//110 107//107 
usemtl 0.372549_0.372549_0.372549_0.000000_0.000000
o mesh10161
v 0.133243 0.203601 0.0796217 
v 0.133243 0.201778 0.0802852 
v 0.135783 0.201778 0.0802852 
v 0.135783 0.203601 0.0796217 
vn 0 0.34202 0.939693 
vn 0 0.34202 0.939693 
vn 0 0.34202 0.939693 
vn 0 0.34202 0.939693 
f 111//111 112//112 113//113 
f 113//113 114//114 111//111 
o mesh10162
v 0.135783 0.203601 0.0796217 
v 0.135783 0.20378 0.0792372 
v 0.133243 0.20378 0.0792372 
v 0.133243 0.203601 0.0796217 
vn 0 0.906308 0.422618 
vn 0 0.906308 0.422618 
vn 0 0.906308 0.422618 
vn 0 0.906308 0.422618 
f 115//115 116//116 117//117 
f 117//117 118//118 115//115 
o mesh10163
v 0.135783 0.204165 0.0794165 
v 0.133243 0.204165 0.0794165 
v 0.133243 0.20378 0.0792372 
v 0.135783 0.20378 0.0792372 
vn 0 -0.422618 0.906308 
vn 0 -0.422618 0.906308 
vn 0 -0.422618 0.906308 
vn 0 -0.422618 0.906308 
f 119//119 120//120 121//121 
f 121//121 122//122 119//119 
o mesh10164
v 0.133243 0.205988 0.0787529 
v 0.133243 0.204165 0.0794165 
v 0.135783 0.204165 0.0794165 
v 0.135783 0.205988 0.0787529 
vn 0 0.34202 0.939693 
vn 0 0.34202 0.939693 
vn 0 0.34202 0.939693 
vn 0 0.34202 0.939693 
f 123//123 124//124 125//125 
f 125//125 126//126 123//123 
o mesh10165
v 0.135783 0.205988 0.0787529 
v 0.135783 0.206167 0.0783684 
v 0.133243 0.206167 0.0783684 
v 0.133243 0.205988 0.0787529 
vn 0 0.906308 0.422618 
vn 0 0.906308 0.422618 
vn 0 0.906308 0.422618 
vn 0 0.906308 0.422618 
f 127//127 128//128 129//129 
f 129//129 130//130 127//127 
o mesh10166
v 0.133243 0.204635 0.0741586 
v 0.133243 0.206167 0.0783684 
v 0.135783 0.206167 0.0783684 
v 0.135783 0.204635 0.0741586 
vn 0 0.939693 -0.34202 
vn 0 0.939693 -0.34202 
vn 0 0.939693 -0.34202 
vn 0 0.939693 -0.34202 
f 131//131 132//132 133//133 
f 133//133 134//134 131//131 
o mesh10167
v 0.135783 0.204635 0.0741586 
v 0.135783 0.20425 0.0739793 
v 0.133243 0.20425 0.0739793 
v 0.133243 0.204635 0.0741586 
vn 0 0.422618 -0.906308 
vn 0 0.422618 -0.906308 
vn 0 0.422618 -0.906308 
vn 0 0.422618 -0.906308 
f 135//135 136//136 137//137 
f 137//137 138//138 135//135 
o mesh10168
v 0.133243 0.20425 0.0739793 
v 0.135783 0.20425 0.0739793 
v 0.135783 0.202427 0.0746428 
v 0.133243 0.202427 0.0746428 
vn 0 -0.34202 -0.939693 
vn 0 -0.34202 -0.939693 
vn 0 -0.34202 -0.939693 
vn 0 -0.34202 -0.939693 
f 139//139 140//140 141//141 
f 141//141 142//142 139//139 
o mesh10169
v 0.135783 0.202248 0.0750273 
v 0.133243 0.202248 0.0750273 
v 0.133243 0.202427 0.0746428 
v 0.135783 0.202427 0.0746428 
vn 0 -0.906308 -0.422618 
vn 0 -0.906308 -0.422618 
vn 0 -0.906308 -0.422618 
vn 0 -0.906308 -0.422618 
f 143//143 144//144 145//145 
f 145//145 146//146 143//143 
o mesh10170
v 0.135783 0.201863 0.074848 
v 0.133243 0.201863 0.074848 
v 0.133243 0.202248 0.0750273 
v 0.135783 0.202248 0.0750273 
vn 0 0.422618 -0.906308 
vn 0 0.422618 -0.906308 
vn 0 0.422618 -0.906308 
vn 0 0.422618 -0.906308 
f 147//147 148//148 149//149 
f 149//149 150//150 147//147 
o mesh10171
v 0.133243 0.201863 0.074848 
v 0.135783 0.201863 0.074848 
v 0.135783 0.20004 0.0755115 
v 0.133243 0.20004 0.0755115 
vn 0 -0.34202 -0.939693 
vn 0 -0.34202 -0.939693 
vn 0 -0.34202 -0.939693 
vn 0 -0.34202 -0.939693 
f 151//151 152//152 153//153 
f 153//153 154//154 151//151 
o mesh10172
v 0.135783 0.199861 0.0758961 
v 0.133243 0.199861 0.0758961 
v 0.133243 0.20004 0.0755115 
v 0.135783 0.20004 0.0755115 
vn 0 -0.906308 -0.422618 
vn 0 -0.906308 -0.422618 
vn 0 -0.906308 -0.422618 
vn 0 -0.906308 -0.422618 
f 155//155 156//156 157//157 
f 157//157 158//158 155//155 
o mesh10173
v 0.133243 0.199861 0.0758961 
v 0.135783 0.199861 0.0758961 
v 0.135783 0.201393 0.0801059 
v 0.133243 0.201393 0.0801059 
vn 0 -0.939693 0.34202 
vn 0 -0.939693 0.34202 
vn 0 -0.939693 0.34202 
vn 0 -0.939693 0.34202 
f 159//159 160//160 161//161 
f 161//161 162//162 159//159 
o mesh10174
v 0.135783 0.201393 0.0801059 
v 0.135783 0.201778 0.0802852 
v 0.133243 0.201778 0.0802852 
v 0.133243 0.201393 0.0801059 
vn 0 -0.422618 0.906308 
vn 0 -0.422618 0.906308 
vn 0 -0.422618 0.906308 
vn 0 -0.422618 0.906308 
f 163//163 164//164 165//165 
f 165//165 166//166 163//163 
o mesh10175
v 0.133243 0.204183 0.0756957 
v 0.133243 0.202446 0.0783499 
v 0.133243 0.204232 0.0777 
v 0.133243 0.204635 0.0741586 
v 0.133243 0.203964 0.0750943 
v 0.133243 0.20378 0.0792372 
v 0.133243 0.20445 0.0783014 
v 0.133243 0.202665 0.0789513 
v 0.133243 0.202064 0.0791702 
v 0.133243 0.201393 0.0801059 
v 0.133243 0.201778 0.0802852 
v 0.133243 0.204833 0.0774811 
v 0.133243 0.203601 0.0796217 
v 0.133243 0.20425 0.0739793 
v 0.133243 0.201845 0.0785688 
v 0.133243 0.203582 0.0759146 
v 0.133243 0.201796 0.0765645 
v 0.133243 0.201577 0.075963 
v 0.133243 0.202248 0.0750273 
v 0.133243 0.201863 0.074848 
v 0.133243 0.199861 0.0758961 
v 0.133243 0.201195 0.0767833 
v 0.133243 0.200976 0.0761819 
v 0.133243 0.204165 0.0794165 
v 0.133243 0.206167 0.0783684 
v 0.133243 0.205052 0.0780825 
v 0.133243 0.202427 0.0746428 
v 0.133243 0.203363 0.0753132 
v 0.133243 0.20004 0.0755115 
v 0.133243 0.205988 0.0787529 
vn -1 0 0 
vn -1 0 0 
vn -1 0 0 
vn -1 0 0 
vn -1 0 0 
vn -1 0 0 
vn -1 0 0 
vn -1 0 0 
vn -1 0 0 
vn -1 0 0 
vn -1 0 0 
vn -1 0 0 
vn -1 0 0 
vn -1 0 0 
vn -1 0 0 
vn -1 0 0 
vn -1 0 0 
vn -1 0 0 
vn -1 0 0 
vn -1 0 0 
vn -1 0 0 
vn -1 0 0 
vn -1 0 0 
vn -1 0 0 
vn -1 0 0 
vn -1 0 0 
vn -1 0 0 
vn -1 0 0 
vn -1 0 0 
vn -1 0 0 
f 167//167 168//168 169//169 
f 170//170 171//171 167//167 
f 168//168 172//172 173//173 
f 172//172 168//168 174//174 
f 175//175 176//176 177//177 
f 167//167 178//178 170//170 
f 174//174 179//179 172//172 
f 179//179 174//174 175//175 
f 173//173 169//169 168//168 
f 171//171 170//170 180//180 
f 181//181 182//182 183//183 
f 176//176 175//175 181//181 
f 184//184 185//185 186//186 
f 187//187 188//188 189//189 
f 173//173 172//172 190//190 
f 191//191 178//178 192//192 
f 169//169 178//178 167//167 
f 168//168 167//167 182//182 
f 193//193 194//194 171//171 
f 185//185 182//182 194//194 
f 181//181 188//188 176//176 
f 182//182 185//185 184//184 
f 195//195 189//189 184//184 
f 187//187 176//176 188//188 
f 196//196 192//192 173//173 
f 191//191 170//170 178//178 
f 182//182 181//181 168//168 
f 194//194 193//193 185//185 
f 184//184 183//183 182//182 
f 189//189 195//195 187//187 
f 192//192 196//196 191//191 
f 180//180 193//193 171//171 
f 186//186 195//195 184//184 
f 177//177 179//179 175//175 
f 190//190 196//196 173//173 
f 183//183 188//188 181//181 
usemtl 0.823529_0.823529_1.000000_0.000000_0.000000
o mesh10176
v 0.133243 0.202665 0.0789513 
v 0.130193 0.202665 0.0789513 
v 0.130193 0.202064 0.0791702 
v 0.133243 0.202064 0.0791702 
vn 0 0.34202 0.939693 
vn 0 0.34202 0.939693 
vn 0 0.34202 0.939693 
vn 0 0.34202 0.939693 
f 197//197 198//198 199//199 
f 199//199 200//200 197//197 
o mesh10177
v 0.130193 0.201845 0.0785688 
v 0.130193 0.202064 0.0791702 
v 0.130193 0.202665 0.0789513 
v 0.130193 0.202446 0.0783499 
vn -1 0 0 
vn -1 0 0 
vn -1 0 0 
vn -1 0 0 
f 201//201 202//202 203//203 
f 203//203 204//204 201//201 
o mesh10178
v 0.133243 0.201845 0.0785688 
v 0.133243 0.202064 0.0791702 
v 0.130193 0.202064 0.0791702 
v 0.130193 0.201845 0.0785688 
vn 0 -0.939693 0.34202 
vn 0 -0.939693 0.34202 
vn 0 -0.939693 0.34202 
vn 0 -0.939693 0.34202 
f 205//205 206//206 207//207 
f 207//207 208//208 205//205 
o mesh10179
v 0.133243 0.202446 0.0783499 
v 0.133243 0.201845 0.0785688 
v 0.130193 0.201845 0.0785688 
v 0.130193 0.202446 0.0783499 
vn 0 -0.34202 -0.939693 
vn 0 -0.34202 -0.939693 
vn 0 -0.34202 -0.939693 
vn 0 -0.34202 -0.939693 
f 209//209 210//210 211//211 
f 211//211 212//212 209//209 
o mesh10180
v 0.133243 0.202446 0.0783499 
v 0.130193 0.202446 0.0783499 
v 0.130193 0.202665 0.0789513 
v 0.133243 0.202665 0.0789513 
vn 0 0.939693 -0.34202 
vn 0 0.939693 -0.34202 
vn 0 0.939693 -0.34202 
vn 0 0.939693 -0.34202 
f 213//213 214//214 215//215 
f 215//215 216//216 213//213 
o mesh10181
v 0.133243 0.205052 0.0780825 
v 0.130193 0.205052 0.0780825 
v 0.130193 0.20445 0.0783014 
v 0.133243 0.20445 0.0783014 
vn 0 0.34202 0.939693 
vn 0 0.34202 0.939693 
vn 0 0.34202 0.939693 
vn 0 0.34202 0.939693 
f 217//217 218//218 219//219 
f 219//219 220//220 217//217 
o mesh10182
v 0.130193 0.204232 0.0777 
v 0.130193 0.20445 0.0783014 
v 0.130193 0.205052 0.0780825 
v 0.130193 0.204833 0.0774811 
vn -1 0 0 
vn -1 0 0 
vn -1 0 0 
vn -1 0 0 
f 221//221 222//222 223//223 
f 223//223 224//224 221//221 
o mesh10183
v 0.133243 0.204232 0.0777 
v 0.133243 0.20445 0.0783014 
v 0.130193 0.20445 0.0783014 
v 0.130193 0.204232 0.0777 
vn 0 -0.939693 0.34202 
vn 0 -0.939693 0.34202 
vn 0 -0.939693 0.34202 
vn 0 -0.939693 0.34202 
f 225//225 226//226 227//227 
f 227//227 228//228 225//225 
o mesh10184
v 0.133243 0.204833 0.0774811 
v 0.133243 0.204232 0.0777 
v 0.130193 0.204232 0.0777 
v 0.130193 0.204833 0.0774811 
vn 0 -0.34202 -0.939693 
vn 0 -0.34202 -0.939693 
vn 0 -0.34202 -0.939693 
vn 0 -0.34202 -0.939693 
f 229//229 230//230 231//231 
f 231//231 232//232 229//229 
o mesh10185
v 0.133243 0.204833 0.0774811 
v 0.130193 0.204833 0.0774811 
v 0.130193 0.205052 0.0780825 
v 0.133243 0.205052 0.0780825 
vn 0 0.939693 -0.34202 
vn 0 0.939693 -0.34202 
vn 0 0.939693 -0.34202 
vn 0 0.939693 -0.34202 
f 233//233 234//234 235//235 
f 235//235 236//236 233//233 
o mesh10186
v 0.133243 0.204183 0.0756957 
v 0.130193 0.204183 0.0756957 
v 0.130193 0.203582 0.0759146 
v 0.133243 0.203582 0.0759146 
vn 0 0.34202 0.939693 
vn 0 0.34202 0.939693 
vn 0 0.34202 0.939693 
vn 0 0.34202 0.939693 
f 237//237 238//238 239//239 
f 239//239 240//240 237//237 
o mesh10187
v 0.130193 0.203363 0.0753132 
v 0.130193 0.203582 0.0759146 
v 0.130193 0.204183 0.0756957 
v 0.130193 0.203964 0.0750943 
vn -1 0 0 
vn -1 0 0 
vn -1 0 0 
vn -1 0 0 
f 241//241 242//242 243//243 
f 243//243 244//244 241//241 
o mesh10188
v 0.133243 0.203363 0.0753132 
v 0.133243 0.203582 0.0759146 
v 0.130193 0.203582 0.0759146 
v 0.130193 0.203363 0.0753132 
vn 0 -0.939693 0.34202 
vn 0 -0.939693 0.34202 
vn 0 -0.939693 0.34202 
vn 0 -0.939693 0.34202 
f 245//245 246//246 247//247 
f 247//247 248//248 245//245 
o mesh10189
v 0.133243 0.203964 0.0750943 
v 0.133243 0.203363 0.0753132 
v 0.130193 0.203363 0.0753132 
v 0.130193 0.203964 0.0750943 
vn 0 -0.34202 -0.939693 
vn 0 -0.34202 -0.939693 
vn 0 -0.34202 -0.939693 
vn 0 -0.34202 -0.939693 
f 249//249 250//250 251//251 
f 251//251 252//252 249//249 
o mesh10190
v 0.133243 0.203964 0.0750943 
v 0.130193 0.203964 0.0750943 
v 0.130193 0.204183 0.0756957 
v 0.133243 0.204183 0.0756957 
vn 0 0.939693 -0.34202 
vn 0 0.939693 -0.34202 
vn 0 0.939693 -0.34202 
vn 0 0.939693 -0.34202 
f 253//253 254//254 255//255 
f 255//255 256//256 253//253 
o mesh10191
v 0.133243 0.201796 0.0765645 
v 0.130193 0.201796 0.0765645 
v 0.130193 0.201195 0.0767833 
v 0.133243 0.201195 0.0767833 
vn 0 0.34202 0.939693 
vn 0 0.34202 0.939693 
vn 0 0.34202 0.939693 
vn 0 0.34202 0.939693 
f 257//257 258//258 259//259 
f 259//259 260//260 257//257 
o mesh10192
v 0.130193 0.200976 0.0761819 
v 0.130193 0.201195 0.0767833 
v 0.130193 0.201796 0.0765645 
v 0.130193 0.201577 0.075963 
vn -1 0 0 
vn -1 0 0 
vn -1 0 0 
vn -1 0 0 
f 261//261 262//262 263//263 
f 263//263 264//264 261//261 
o mesh10193
v 0.133243 0.200976 0.0761819 
v 0.133243 0.201195 0.0767833 
v 0.130193 0.201195 0.0767833 
v 0.130193 0.200976 0.0761819 
vn 0 -0.939693 0.34202 
vn 0 -0.939693 0.34202 
vn 0 -0.939693 0.34202 
vn 0 -0.939693 0.34202 
f 265//265 266//266 267//267 
f 267//267 268//268 265//265 
o mesh10194
v 0.133243 0.201577 0.075963 
v 0.133243 0.200976 0.0761819 
v 0.130193 0.200976 0.0761819 
v 0.130193 0.201577 0.075963 
vn 0 -0.34202 -0.939693 
vn 0 -0.34202 -0.939693 
vn 0 -0.34202 -0.939693 
vn 0 -0.34202 -0.939693 
f 269//269 270//270 271//271 
f 271//271 272//272 269//269 
o mesh10195
v 0.133243 0.201577 0.075963 
v 0.130193 0.201577 0.075963 
v 0.130193 0.201796 0.0765645 
v 0.133243 0.201796 0.0765645 
vn 0 0.939693 -0.34202 
vn 0 0.939693 -0.34202 
vn 0 0.939693 -0.34202 
vn 0 0.939693 -0.34202 
f 273//273 274//274 275//275 
f 275//275 276//276 273//273 
