# OBJ generated by ONSHAPE BY PTC INC, 1.215 Units = meters
mtllib EBoxNewAsm_stp_1_Beelink_mini_PC_v4_stp_1_Beelink_mini_PC_v4_54_stp_1_solid1.mtl
g EBoxNewAsm.stp-1/Beelink mini PC v4.stp-1/Beelink mini PC v4-54.stp-1-solid1
usemtl 0.964706_0.964706_0.952941_0.000000_0.000000
o mesh10011
v 0.20765 0.178107 0.20973 
v 0.20765 0.179475 0.213489 
v 0.20765 0.178535 0.213831 
v 0.20765 0.177167 0.210072 
vn 1 1.74155e-14 4.78488e-14 
vn 1 1.74155e-14 4.78488e-14 
vn 1 1.74155e-14 4.78488e-14 
vn 1 1.74155e-14 4.78488e-14 
f 1//1 2//2 3//3 
f 3//3 4//4 1//1 
o mesh10012
v 0.20665 0.178107 0.20973 
v 0.20765 0.178107 0.20973 
v 0.20765 0.177167 0.210072 
v 0.20665 0.177167 0.210072 
vn 5.09196e-14 -0.34202 -0.939693 
vn 5.09196e-14 -0.34202 -0.939693 
vn 5.09196e-14 -0.34202 -0.939693 
vn 5.09196e-14 -0.34202 -0.939693 
f 5//5 6//6 7//7 
f 7//7 8//8 5//5 
o mesh10013
v 0.20665 0.178107 0.20973 
v 0.20665 0.177167 0.210072 
v 0.20665 0.178535 0.213831 
v 0.20665 0.179475 0.213489 
vn -1 -1.74155e-14 -4.78488e-14 
vn -1 -1.74155e-14 -4.78488e-14 
vn -1 -1.74155e-14 -4.78488e-14 
vn -1 -1.74155e-14 -4.78488e-14 
f 9//9 10//10 11//11 
f 11//11 12//12 9//9 
o mesh10014
v 0.20765 0.177167 0.210072 
v 0.20765 0.178535 0.213831 
v 0.20665 0.178535 0.213831 
v 0.20665 0.177167 0.210072 
vn -2.26128e-28 -0.939693 0.34202 
vn -2.26128e-28 -0.939693 0.34202 
vn -2.26128e-28 -0.939693 0.34202 
vn -2.26128e-28 -0.939693 0.34202 
f 13//13 14//14 15//15 
f 15//15 16//16 13//13 
o mesh10015
v 0.20765 0.178535 0.213831 
v 0.20765 0.179475 0.213489 
v 0.20665 0.179475 0.213489 
v 0.20665 0.178535 0.213831 
vn -5.09196e-14 0.34202 0.939693 
vn -5.09196e-14 0.34202 0.939693 
vn -5.09196e-14 0.34202 0.939693 
vn -5.09196e-14 0.34202 0.939693 
f 17//17 18//18 19//19 
f 19//19 20//20 17//17 
o mesh10016
v 0.20665 0.179475 0.213489 
v 0.20765 0.179475 0.213489 
v 0.20765 0.178107 0.20973 
v 0.20665 0.178107 0.20973 
vn 0 0.939693 -0.34202 
vn 0 0.939693 -0.34202 
vn 0 0.939693 -0.34202 
vn 0 0.939693 -0.34202 
f 21//21 22//22 23//23 
f 23//23 24//24 21//21 
