# OBJ generated by ONSHAPE BY PTC INC, 1.215 Units = meters
mtllib EBoxNewAsm_stp_1_FuseBox_stp_1_solid1.mtl
g EBoxNewAsm.stp-1/FuseBox.stp-1-solid1
usemtl 0.188235_0.231373_0.588235_0.000000_0.000000
o mesh8064
v 0.104836 0.228044 0.120922 
v 0.104848 0.228118 0.121125 
v 0.104848 0.242214 0.115994 
v 0.104801 0.227971 0.120721 
v 0.104836 0.24214 0.115791 
v 0.104743 0.2279 0.120525 
v 0.104801 0.242067 0.11559 
v 0.104663 0.227831 0.120336 
v 0.104743 0.241995 0.115394 
v 0.104561 0.227766 0.120156 
v 0.104663 0.241926 0.115205 
v 0.10444 0.227704 0.119987 
v 0.104561 0.241861 0.115025 
v 0.1043 0.227648 0.119832 
v 0.10444 0.2418 0.114857 
v 0.104142 0.227597 0.119692 
v 0.1043 0.241743 0.114702 
v 0.10397 0.227552 0.119569 
v 0.104142 0.241692 0.114562 
v 0.103784 0.227514 0.119464 
v 0.10397 0.241648 0.114439 
v 0.103588 0.227483 0.119379 
v 0.103784 0.241609 0.114334 
v 0.103383 0.227459 0.119314 
v 0.103588 0.241578 0.114249 
v 0.103171 0.227443 0.11927 
v 0.103383 0.241555 0.114184 
v 0.102956 0.227435 0.119248 
v 0.103171 0.241539 0.11414 
v 0.102739 0.227435 0.119248 
v 0.102956 0.241531 0.114118 
v 0.102524 0.227443 0.11927 
v 0.102739 0.241531 0.114118 
v 0.102313 0.227459 0.119314 
v 0.102524 0.241539 0.11414 
v 0.102107 0.227483 0.119379 
v 0.102313 0.241555 0.114184 
v 0.101911 0.227514 0.119464 
v 0.102107 0.241578 0.114249 
v 0.101725 0.227552 0.119569 
v 0.101911 0.241609 0.114334 
v 0.101553 0.227597 0.119692 
v 0.101725 0.241648 0.114439 
v 0.101396 0.227648 0.119832 
v 0.101553 0.241692 0.114562 
v 0.101255 0.227704 0.119987 
v 0.101396 0.241743 0.114702 
v 0.101134 0.227766 0.120156 
v 0.101255 0.2418 0.114857 
v 0.101033 0.227831 0.120336 
v 0.101134 0.241861 0.115025 
v 0.100952 0.2279 0.120525 
v 0.101033 0.241926 0.115205 
v 0.100894 0.227971 0.120721 
v 0.100952 0.241995 0.115394 
v 0.100859 0.228044 0.120922 
v 0.100894 0.242067 0.11559 
v 0.100848 0.228118 0.121125 
v 0.100859 0.24214 0.115791 
v 0.100859 0.228192 0.121328 
v 0.100848 0.242214 0.115994 
v 0.100894 0.228265 0.121529 
v 0.100859 0.242288 0.116198 
v 0.100952 0.228337 0.121725 
v 0.100894 0.242361 0.116398 
v 0.101033 0.228406 0.121914 
v 0.100952 0.242432 0.116594 
v 0.101134 0.228471 0.122094 
v 0.101033 0.242501 0.116784 
v 0.101255 0.228532 0.122262 
v 0.101134 0.242566 0.116963 
v 0.101396 0.228589 0.122417 
v 0.101255 0.242628 0.117132 
v 0.101553 0.22864 0.122557 
v 0.101396 0.242684 0.117287 
v 0.101725 0.228684 0.12268 
v 0.101553 0.242735 0.117427 
v 0.101911 0.228723 0.122785 
v 0.101725 0.24278 0.11755 
v 0.102107 0.228754 0.122871 
v 0.101911 0.242818 0.117655 
v 0.102313 0.228777 0.122936 
v 0.102107 0.242849 0.11774 
v 0.102524 0.228793 0.122979 
v 0.102313 0.242873 0.117805 
v 0.102739 0.228801 0.123001 
v 0.102524 0.242889 0.117849 
v 0.102956 0.228801 0.123001 
v 0.102739 0.242897 0.117871 
v 0.103171 0.228793 0.122979 
v 0.102956 0.242897 0.117871 
v 0.103383 0.228777 0.122936 
v 0.103171 0.242889 0.117849 
v 0.103588 0.228754 0.122871 
v 0.103383 0.242873 0.117805 
v 0.103784 0.228723 0.122785 
v 0.103588 0.242849 0.11774 
v 0.10397 0.228684 0.12268 
v 0.103784 0.242818 0.117655 
v 0.104142 0.22864 0.122557 
v 0.10397 0.24278 0.11755 
v 0.1043 0.228589 0.122417 
v 0.104142 0.242735 0.117427 
v 0.10444 0.228532 0.122262 
v 0.1043 0.242684 0.117287 
v 0.104561 0.228471 0.122094 
v 0.10444 0.242628 0.117132 
v 0.104663 0.228406 0.121914 
v 0.104561 0.242566 0.116963 
v 0.104743 0.228337 0.121725 
v 0.104663 0.242501 0.116784 
v 0.104801 0.228265 0.121529 
v 0.104743 0.242432 0.116594 
v 0.104836 0.228192 0.121328 
v 0.104801 0.242361 0.116398 
v 0.104836 0.242288 0.116198 
vn -0.994138 0.0369789 0.101599 
vn -1 8.37708e-17 2.30158e-16 
vn -1 8.37708e-17 2.30158e-16 
vn -0.976621 0.0735242 0.202006 
vn -0.994138 0.0369789 0.101599 
vn -0.947653 0.109208 0.300045 
vn -0.976621 0.0735242 0.202006 
vn -0.907575 0.143611 0.394567 
vn -0.947653 0.109208 0.300045 
vn -0.856857 0.17633 0.484462 
vn -0.907575 0.143611 0.394567 
vn -0.796093 0.206982 0.568678 
vn -0.856857 0.17633 0.484462 
vn -0.725995 0.235207 0.646226 
vn -0.796093 0.206982 0.568678 
vn -0.647386 0.260675 0.716198 
vn -0.725995 0.235207 0.646226 
vn -0.561187 0.283086 0.777773 
vn -0.647386 0.260675 0.716198 
vn -0.468408 0.302179 0.83023 
vn -0.561187 0.283086 0.777773 
vn -0.370138 0.317729 0.872953 
vn -0.468408 0.302179 0.83023 
vn -0.267528 0.329554 0.905441 
vn -0.370138 0.317729 0.872953 
vn -0.161782 0.337515 0.927314 
vn -0.267528 0.329554 0.905441 
vn -0.0541389 0.341519 0.938314 
vn -0.161782 0.337515 0.927314 
vn 0.0541389 0.341519 0.938314 
vn -0.0541389 0.341519 0.938314 
vn 0.161782 0.337515 0.927314 
vn 0.0541389 0.341519 0.938314 
vn 0.267528 0.329554 0.905441 
vn 0.161782 0.337515 0.927314 
vn 0.370138 0.317729 0.872953 
vn 0.267528 0.329554 0.905441 
vn 0.468408 0.302179 0.83023 
vn 0.370138 0.317729 0.872953 
vn 0.561187 0.283086 0.777773 
vn 0.468408 0.302179 0.83023 
vn 0.647386 0.260675 0.716198 
vn 0.561187 0.283086 0.777773 
vn 0.725995 0.235207 0.646226 
vn 0.647386 0.260675 0.716198 
vn 0.796093 0.206982 0.568678 
vn 0.725995 0.235207 0.646226 
vn 0.856857 0.17633 0.484462 
vn 0.796093 0.206982 0.568678 
vn 0.907575 0.143611 0.394567 
vn 0.856857 0.17633 0.484462 
vn 0.947653 0.109208 0.300045 
vn 0.907575 0.143611 0.394567 
vn 0.976621 0.0735242 0.202006 
vn 0.947653 0.109208 0.300045 
vn 0.994138 0.0369789 0.101599 
vn 0.976621 0.0735242 0.202006 
vn 1 -4.18854e-17 -1.15079e-16 
vn 0.994138 0.0369789 0.101599 
vn 0.994138 -0.0369789 -0.101599 
vn 1 -4.18854e-17 -1.15079e-16 
vn 0.976621 -0.0735242 -0.202006 
vn 0.994138 -0.0369789 -0.101599 
vn 0.947653 -0.109208 -0.300045 
vn 0.976621 -0.0735242 -0.202006 
vn 0.907575 -0.143611 -0.394567 
vn 0.947653 -0.109208 -0.300045 
vn 0.856857 -0.17633 -0.484462 
vn 0.907575 -0.143611 -0.394567 
vn 0.796093 -0.206982 -0.568678 
vn 0.856857 -0.17633 -0.484462 
vn 0.725995 -0.235207 -0.646226 
vn 0.796093 -0.206982 -0.568678 
vn 0.647386 -0.260675 -0.716198 
vn 0.725995 -0.235207 -0.646226 
vn 0.561187 -0.283086 -0.777773 
vn 0.647386 -0.260675 -0.716198 
vn 0.468408 -0.302179 -0.83023 
vn 0.561187 -0.283086 -0.777773 
vn 0.370138 -0.317729 -0.872953 
vn 0.468408 -0.302179 -0.83023 
vn 0.267528 -0.329554 -0.905441 
vn 0.370138 -0.317729 -0.872953 
vn 0.161782 -0.337515 -0.927314 
vn 0.267528 -0.329554 -0.905441 
vn 0.0541389 -0.341519 -0.938314 
vn 0.161782 -0.337515 -0.927314 
vn -0.0541389 -0.341519 -0.938314 
vn 0.0541389 -0.341519 -0.938314 
vn -0.161782 -0.337515 -0.927314 
vn -0.0541389 -0.341519 -0.938314 
vn -0.267528 -0.329554 -0.905441 
vn -0.161782 -0.337515 -0.927314 
vn -0.370138 -0.317729 -0.872953 
vn -0.267528 -0.329554 -0.905441 
vn -0.468408 -0.302179 -0.83023 
vn -0.370138 -0.317729 -0.872953 
vn -0.561187 -0.283086 -0.777773 
vn -0.468408 -0.302179 -0.83023 
vn -0.647386 -0.260675 -0.716198 
vn -0.561187 -0.283086 -0.777773 
vn -0.725995 -0.235207 -0.646226 
vn -0.647386 -0.260675 -0.716198 
vn -0.796093 -0.206982 -0.568678 
vn -0.725995 -0.235207 -0.646226 
vn -0.856857 -0.17633 -0.484462 
vn -0.796093 -0.206982 -0.568678 
vn -0.907575 -0.143611 -0.394567 
vn -0.856857 -0.17633 -0.484462 
vn -0.947653 -0.109208 -0.300045 
vn -0.907575 -0.143611 -0.394567 
vn -0.976621 -0.0735242 -0.202006 
vn -0.947653 -0.109208 -0.300045 
vn -0.994138 -0.0369789 -0.101599 
vn -0.976621 -0.0735242 -0.202006 
vn -0.994138 -0.0369789 -0.101599 
f 1//1 2//2 3//3 
f 4//4 1//1 5//5 
f 6//6 4//4 7//7 
f 8//8 6//6 9//9 
f 10//10 8//8 11//11 
f 12//12 10//10 13//13 
f 14//14 12//12 15//15 
f 16//16 14//14 17//17 
f 18//18 16//16 19//19 
f 20//20 18//18 21//21 
f 22//22 20//20 23//23 
f 24//24 22//22 25//25 
f 26//26 24//24 27//27 
f 28//28 26//26 29//29 
f 30//30 28//28 31//31 
f 32//32 30//30 33//33 
f 34//34 32//32 35//35 
f 36//36 34//34 37//37 
f 38//38 36//36 39//39 
f 40//40 38//38 41//41 
f 42//42 40//40 43//43 
f 44//44 42//42 45//45 
f 46//46 44//44 47//47 
f 48//48 46//46 49//49 
f 50//50 48//48 51//51 
f 52//52 50//50 53//53 
f 54//54 52//52 55//55 
f 56//56 54//54 57//57 
f 58//58 56//56 59//59 
f 60//60 58//58 61//61 
f 62//62 60//60 63//63 
f 64//64 62//62 65//65 
f 66//66 64//64 67//67 
f 68//68 66//66 69//69 
f 70//70 68//68 71//71 
f 72//72 70//70 73//73 
f 74//74 72//72 75//75 
f 76//76 74//74 77//77 
f 78//78 76//76 79//79 
f 80//80 78//78 81//81 
f 82//82 80//80 83//83 
f 84//84 82//82 85//85 
f 86//86 84//84 87//87 
f 88//88 86//86 89//89 
f 90//90 88//88 91//91 
f 92//92 90//90 93//93 
f 94//94 92//92 95//95 
f 96//96 94//94 97//97 
f 98//98 96//96 99//99 
f 100//100 98//98 101//101 
f 102//102 100//100 103//103 
f 104//104 102//102 105//105 
f 106//106 104//104 107//107 
f 108//108 106//106 109//109 
f 110//110 108//108 111//111 
f 112//112 110//110 113//113 
f 114//114 112//112 115//115 
f 2//2 114//114 116//116 
f 116//116 3//3 2//2 
f 115//115 116//116 114//114 
f 113//113 115//115 112//112 
f 111//111 113//113 110//110 
f 109//109 111//111 108//108 
f 107//107 109//109 106//106 
f 105//105 107//107 104//104 
f 103//103 105//105 102//102 
f 101//101 103//103 100//100 
f 99//99 101//101 98//98 
f 97//97 99//99 96//96 
f 95//95 97//97 94//94 
f 93//93 95//95 92//92 
f 91//91 93//93 90//90 
f 89//89 91//91 88//88 
f 87//87 89//89 86//86 
f 85//85 87//87 84//84 
f 83//83 85//85 82//82 
f 81//81 83//83 80//80 
f 79//79 81//81 78//78 
f 77//77 79//79 76//76 
f 75//75 77//77 74//74 
f 73//73 75//75 72//72 
f 71//71 73//73 70//70 
f 69//69 71//71 68//68 
f 67//67 69//69 66//66 
f 65//65 67//67 64//64 
f 63//63 65//65 62//62 
f 61//61 63//63 60//60 
f 59//59 61//61 58//58 
f 57//57 59//59 56//56 
f 55//55 57//57 54//54 
f 53//53 55//55 52//52 
f 51//51 53//53 50//50 
f 49//49 51//51 48//48 
f 47//47 49//49 46//46 
f 45//45 47//47 44//44 
f 43//43 45//45 42//42 
f 41//41 43//43 40//40 
f 39//39 41//41 38//38 
f 37//37 39//39 36//36 
f 35//35 37//37 34//34 
f 33//33 35//35 32//32 
f 31//31 33//33 30//30 
f 29//29 31//31 28//28 
f 27//27 29//29 26//26 
f 25//25 27//27 24//24 
f 23//23 25//25 22//22 
f 21//21 23//23 20//20 
f 19//19 21//21 18//18 
f 17//17 19//19 16//16 
f 15//15 17//17 14//14 
f 13//13 15//15 12//12 
f 11//11 13//13 10//10 
f 9//9 11//11 8//8 
f 7//7 9//9 6//6 
f 5//5 7//7 4//4 
f 3//3 5//5 1//1 
o mesh8065
v 0.0348359 0.200219 0.000615413 
v 0.102313 0.200804 0.0022231 
v 0.102107 0.200781 0.00215812 
v 0.0348477 0.200145 0.000412216 
v 0.0348477 0.242214 0.115994 
v 0.0337845 0.20075 0.00207268 
v 0.0335879 0.200781 0.00215812 
v 0.0342997 0.200616 0.00170467 
v 0.0348009 0.200292 0.000816228 
v 0.0248477 0.197409 -0.00710533 
v 0.100952 0.199927 -0.000187875 
v 0.101033 0.199858 -0.000376917 
v 0.100848 0.200145 0.000412216 
v 0.0329559 0.199462 -0.00146441 
v 0.101553 0.200667 0.00184461 
v 0.101396 0.200616 0.00170467 
v 0.03397 0.200711 0.00196776 
v 0.0341424 0.200667 0.00184461 
v 0.034743 0.200364 0.00101231 
v 0.0346628 0.200432 0.00120135 
v 0.101911 0.20075 0.00207268 
v 0.101134 0.199793 -0.000556708 
v 0.100859 0.200071 0.000209019 
v 0.100894 0.199998 8.20361e-06 
v 0.0327394 0.199462 -0.00146441 
v 0.101033 0.200432 0.00120135 
v 0.100952 0.200364 0.00101231 
v 0.101255 0.200559 0.00154957 
v 0.0317253 0.199579 -0.00114333 
v 0.0319108 0.199541 -0.00124824 
v 0.031134 0.200498 0.00138114 
v 0.0310325 0.200432 0.00120135 
v 0.0325241 0.241539 0.11414 
v 0.0313957 0.200616 0.00170467 
v 0.0312555 0.200559 0.00154957 
v 0.0321074 0.200781 0.00215812 
v 0.0319108 0.20075 0.00207268 
v 0.0348009 0.242361 0.116398 
v 0.034743 0.242432 0.116594 
v 0.0348359 0.242288 0.116198 
v 0.0345614 0.200498 0.00138114 
v 0.0344399 0.200559 0.00154957 
v 0.034743 0.199927 -0.000187875 
v 0.0348009 0.199998 8.20361e-06 
v 0.110848 0.197409 -0.00710533 
v 0.103588 0.19951 -0.00133369 
v 0.103784 0.199541 -0.00124824 
v 0.100859 0.200219 0.000615413 
v 0.100894 0.200292 0.000816228 
v 0.101134 0.200498 0.00138114 
v 0.0315529 0.199624 -0.00102018 
v 0.0309524 0.200364 0.00101231 
v 0.0323126 0.200804 0.0022231 
v 0.0346628 0.242501 0.116784 
v 0.101725 0.200711 0.00196776 
v 0.0348359 0.200071 0.000209019 
v 0.0345614 0.199793 -0.000556708 
v 0.0346628 0.199858 -0.000376917 
v 0.0342997 0.199675 -0.000880236 
v 0.0344399 0.199731 -0.00072514 
v 0.0335879 0.19951 -0.00133369 
v 0.0337845 0.199541 -0.00124824 
v 0.1043 0.199675 -0.000880236 
v 0.10444 0.199731 -0.00072514 
v 0.10397 0.199579 -0.00114333 
v 0.101725 0.199579 -0.00114333 
v 0.101911 0.199541 -0.00124824 
v 0.0323126 0.199486 -0.00139867 
v 0.0325241 0.19947 -0.00144241 
v 0.0321074 0.19951 -0.00133369 
v 0.0309524 0.199927 -0.000187875 
v 0.0310325 0.199858 -0.000376917 
v 0.0308944 0.200292 0.000816228 
v 0.0308594 0.200219 0.000615413 
v 0.0317253 0.200711 0.00196776 
v 0.0333827 0.200804 0.0022231 
v 0.0341424 0.199624 -0.00102018 
v 0.03397 0.199579 -0.00114333 
v 0.0345614 0.242566 0.116963 
v 0.100859 0.242288 0.116198 
v 0.100848 0.242214 0.115994 
v 0.100952 0.242432 0.116594 
v 0.100894 0.242361 0.116398 
v 0.101134 0.242566 0.116963 
v 0.101033 0.242501 0.116784 
v 0.102739 0.241531 0.114118 
v 0.104848 0.200145 0.000412216 
v 0.104561 0.199793 -0.000556708 
v 0.104663 0.199858 -0.000376917 
v 0.104142 0.199624 -0.00102018 
v 0.103383 0.199486 -0.00139867 
v 0.102956 0.199462 -0.00146441 
v 0.103171 0.19947 -0.00144241 
v 0.102313 0.199486 -0.00139867 
v 0.101553 0.199624 -0.00102018 
v 0.0308944 0.199998 8.20361e-06 
v 0.0308477 0.200145 0.000412216 
v 0.0308594 0.200071 0.000209019 
v 0.0315529 0.200667 0.00184461 
v 0.0329559 0.200828 0.00228884 
v 0.0327394 0.241531 0.114118 
v 0.0329559 0.241531 0.114118 
v 0.0327394 0.200828 0.00228884 
v 0.0333827 0.199486 -0.00139867 
v 0.0331712 0.19947 -0.00144241 
v 0.102956 0.200828 0.00228884 
v 0.101911 0.242818 0.117655 
v 0.101725 0.24278 0.11755 
v 0.110848 0.24495 0.123512 
v 0.104743 0.242432 0.116594 
v 0.104663 0.242501 0.116784 
v 0.104836 0.242288 0.116198 
v 0.104801 0.242361 0.116398 
v 0.102956 0.241531 0.114118 
v 0.104836 0.200071 0.000209019 
v 0.104743 0.199927 -0.000187875 
v 0.104801 0.199998 8.20361e-06 
v 0.102524 0.19947 -0.00144241 
v 0.102107 0.19951 -0.00133369 
v 0.101255 0.199731 -0.00072514 
v 0.101396 0.199675 -0.000880236 
v 0.031134 0.199793 -0.000556708 
v 0.0312555 0.199731 -0.00072514 
v 0.0325241 0.20082 0.00226684 
v 0.102739 0.200828 0.00228884 
v 0.102524 0.20082 0.00226684 
v 0.101396 0.242684 0.117287 
v 0.101255 0.242628 0.117132 
v 0.101553 0.242735 0.117427 
v 0.104561 0.242566 0.116963 
v 0.10444 0.242628 0.117132 
v 0.104836 0.24214 0.115791 
v 0.104848 0.242214 0.115994 
v 0.104663 0.241926 0.115205 
v 0.104743 0.241995 0.115394 
v 0.103171 0.241539 0.11414 
v 0.103383 0.241555 0.114184 
v 0.102524 0.241539 0.11414 
v 0.102739 0.199462 -0.00146441 
v 0.0313957 0.199675 -0.000880236 
v 0.0331712 0.241539 0.11414 
v 0.0342997 0.242684 0.117287 
v 0.0341424 0.242735 0.117427 
v 0.0344399 0.242628 0.117132 
v 0.0331712 0.20082 0.00226684 
v 0.104142 0.242735 0.117427 
v 0.10397 0.24278 0.11755 
v 0.1043 0.242684 0.117287 
v 0.104801 0.242067 0.11559 
v 0.103588 0.241578 0.114249 
v 0.103383 0.200804 0.0022231 
v 0.100859 0.24214 0.115791 
v 0.100894 0.242067 0.11559 
v 0.103171 0.20082 0.00226684 
v 0.101255 0.2418 0.114857 
v 0.104743 0.200364 0.00101231 
v 0.104663 0.200432 0.00120135 
v 0.10444 0.2418 0.114857 
v 0.104561 0.241861 0.115025 
v 0.103784 0.241609 0.114334 
v 0.0337845 0.242818 0.117655 
v 0.0335879 0.242849 0.11774 
v 0.03397 0.24278 0.11755 
v 0.102524 0.242889 0.117849 
v 0.102313 0.242873 0.117805 
v 0.100952 0.241995 0.115394 
v 0.101033 0.241926 0.115205 
v 0.103784 0.20075 0.00207268 
v 0.103588 0.200781 0.00215812 
v 0.104142 0.200667 0.00184461 
v 0.10397 0.200711 0.00196776 
v 0.10444 0.200559 0.00154957 
v 0.1043 0.200616 0.00170467 
v 0.104561 0.200498 0.00138114 
v 0.0248477 0.24495 0.123512 
v 0.0308944 0.242067 0.11559 
v 0.0309524 0.241995 0.115394 
v 0.0308477 0.242214 0.115994 
v 0.0308594 0.24214 0.115791 
v 0.0333827 0.241555 0.114184 
v 0.104142 0.241692 0.114562 
v 0.1043 0.241743 0.114702 
v 0.10397 0.241648 0.114439 
v 0.0333827 0.242873 0.117805 
v 0.0331712 0.242889 0.117849 
v 0.102739 0.242897 0.117871 
v 0.104836 0.200219 0.000615413 
v 0.104801 0.200292 0.000816228 
v 0.0337845 0.241609 0.114334 
v 0.03397 0.241648 0.114439 
v 0.0335879 0.241578 0.114249 
v 0.103383 0.242873 0.117805 
v 0.103171 0.242889 0.117849 
v 0.103784 0.242818 0.117655 
v 0.103588 0.242849 0.11774 
v 0.102107 0.242849 0.11774 
v 0.102956 0.242897 0.117871 
v 0.102107 0.241578 0.114249 
v 0.102313 0.241555 0.114184 
v 0.101553 0.241692 0.114562 
v 0.101725 0.241648 0.114439 
v 0.101396 0.241743 0.114702 
v 0.101134 0.241861 0.115025 
v 0.0310325 0.241926 0.115205 
v 0.031134 0.241861 0.115025 
v 0.0341424 0.241692 0.114562 
v 0.0342997 0.241743 0.114702 
v 0.101911 0.241609 0.114334 
v 0.0321074 0.241578 0.114249 
v 0.0323126 0.241555 0.114184 
v 0.0315529 0.241692 0.114562 
v 0.0317253 0.241648 0.114439 
v 0.0312555 0.2418 0.114857 
v 0.0313957 0.241743 0.114702 
v 0.0308944 0.242361 0.116398 
v 0.0308594 0.242288 0.116198 
v 0.031134 0.242566 0.116963 
v 0.0310325 0.242501 0.116784 
v 0.0313957 0.242684 0.117287 
v 0.0312555 0.242628 0.117132 
v 0.0317253 0.24278 0.11755 
v 0.0315529 0.242735 0.117427 
v 0.0327394 0.242897 0.117871 
v 0.0325241 0.242889 0.117849 
v 0.0348009 0.242067 0.11559 
v 0.0348359 0.24214 0.115791 
v 0.0346628 0.241926 0.115205 
v 0.034743 0.241995 0.115394 
v 0.0344399 0.2418 0.114857 
v 0.0345614 0.241861 0.115025 
v 0.0319108 0.241609 0.114334 
v 0.0309524 0.242432 0.116594 
v 0.0323126 0.242873 0.117805 
v 0.0321074 0.242849 0.11774 
v 0.0329559 0.242897 0.117871 
v 0.0319108 0.242818 0.117655 
vn 0 0.939693 -0.34202 
vn 0 0.939693 -0.34202 
vn 0 0.939693 -0.34202 
vn 0 0.939693 -0.34202 
vn 0 0.939693 -0.34202 
vn 0 0.939693 -0.34202 
vn 0 0.939693 -0.34202 
vn 0 0.939693 -0.34202 
vn 0 0.939693 -0.34202 
vn 0 0.939693 -0.34202 
vn 0 0.939693 -0.34202 
vn 0 0.939693 -0.34202 
vn 0 0.939693 -0.34202 
vn 0 0.939693 -0.34202 
vn 0 0.939693 -0.34202 
vn 0 0.939693 -0.34202 
vn 0 0.939693 -0.34202 
vn 0 0.939693 -0.34202 
vn 0 0.939693 -0.34202 
vn 0 0.939693 -0.34202 
vn 0 0.939693 -0.34202 
vn 0 0.939693 -0.34202 
vn 0 0.939693 -0.34202 
vn 0 0.939693 -0.34202 
vn 0 0.939693 -0.34202 
vn 0 0.939693 -0.34202 
vn 0 0.939693 -0.34202 
vn 0 0.939693 -0.34202 
vn 0 0.939693 -0.34202 
vn 0 0.939693 -0.34202 
vn 0 0.939693 -0.34202 
vn 0 0.939693 -0.34202 
vn 0 0.939693 -0.34202 
vn 0 0.939693 -0.34202 
vn 0 0.939693 -0.34202 
vn 0 0.939693 -0.34202 
vn 0 0.939693 -0.34202 
vn 0 0.939693 -0.34202 
vn 0 0.939693 -0.34202 
vn 0 0.939693 -0.34202 
vn 0 0.939693 -0.34202 
vn 0 0.939693 -0.34202 
vn 0 0.939693 -0.34202 
vn 0 0.939693 -0.34202 
vn 0 0.939693 -0.34202 
vn 0 0.939693 -0.34202 
vn 0 0.939693 -0.34202 
vn 0 0.939693 -0.34202 
vn 0 0.939693 -0.34202 
vn 0 0.939693 -0.34202 
vn 0 0.939693 -0.34202 
vn 0 0.939693 -0.34202 
vn 0 0.939693 -0.34202 
vn 0 0.939693 -0.34202 
vn 0 0.939693 -0.34202 
vn 0 0.939693 -0.34202 
vn 0 0.939693 -0.34202 
vn 0 0.939693 -0.34202 
vn 0 0.939693 -0.34202 
vn 0 0.939693 -0.34202 
vn 0 0.939693 -0.34202 
vn 0 0.939693 -0.34202 
vn 0 0.939693 -0.34202 
vn 0 0.939693 -0.34202 
vn 0 0.939693 -0.34202 
vn 0 0.939693 -0.34202 
vn 0 0.939693 -0.34202 
vn 0 0.939693 -0.34202 
vn 0 0.939693 -0.34202 
vn 0 0.939693 -0.34202 
vn 0 0.939693 -0.34202 
vn 0 0.939693 -0.34202 
vn 0 0.939693 -0.34202 
vn 0 0.939693 -0.34202 
vn 0 0.939693 -0.34202 
vn 0 0.939693 -0.34202 
vn 0 0.939693 -0.34202 
vn 0 0.939693 -0.34202 
vn 0 0.939693 -0.34202 
vn 0 0.939693 -0.34202 
vn 0 0.939693 -0.34202 
vn 0 0.939693 -0.34202 
vn 0 0.939693 -0.34202 
vn 0 0.939693 -0.34202 
vn 0 0.939693 -0.34202 
vn 0 0.939693 -0.34202 
vn 0 0.939693 -0.34202 
vn 0 0.939693 -0.34202 
vn 0 0.939693 -0.34202 
vn 0 0.939693 -0.34202 
vn 0 0.939693 -0.34202 
vn 0 0.939693 -0.34202 
vn 0 0.939693 -0.34202 
vn 0 0.939693 -0.34202 
vn 0 0.939693 -0.34202 
vn 0 0.939693 -0.34202 
vn 0 0.939693 -0.34202 
vn 0 0.939693 -0.34202 
vn 0 0.939693 -0.34202 
vn 0 0.939693 -0.34202 
vn 0 0.939693 -0.34202 
vn 0 0.939693 -0.34202 
vn 0 0.939693 -0.34202 
vn 0 0.939693 -0.34202 
vn 0 0.939693 -0.34202 
vn 0 0.939693 -0.34202 
vn 0 0.939693 -0.34202 
vn 0 0.939693 -0.34202 
vn 0 0.939693 -0.34202 
vn 0 0.939693 -0.34202 
vn 0 0.939693 -0.34202 
vn 0 0.939693 -0.34202 
vn 0 0.939693 -0.34202 
vn 0 0.939693 -0.34202 
vn 0 0.939693 -0.34202 
vn 0 0.939693 -0.34202 
vn 0 0.939693 -0.34202 
vn 0 0.939693 -0.34202 
vn 0 0.939693 -0.34202 
vn 0 0.939693 -0.34202 
vn 0 0.939693 -0.34202 
vn 0 0.939693 -0.34202 
vn 0 0.939693 -0.34202 
vn 0 0.939693 -0.34202 
vn 0 0.939693 -0.34202 
vn 0 0.939693 -0.34202 
vn 0 0.939693 -0.34202 
vn 0 0.939693 -0.34202 
vn 0 0.939693 -0.34202 
vn 0 0.939693 -0.34202 
vn 0 0.939693 -0.34202 
vn 0 0.939693 -0.34202 
vn 0 0.939693 -0.34202 
vn 0 0.939693 -0.34202 
vn 0 0.939693 -0.34202 
vn 0 0.939693 -0.34202 
vn 0 0.939693 -0.34202 
vn 0 0.939693 -0.34202 
vn 0 0.939693 -0.34202 
vn 0 0.939693 -0.34202 
vn 0 0.939693 -0.34202 
vn 0 0.939693 -0.34202 
vn 0 0.939693 -0.34202 
vn 0 0.939693 -0.34202 
vn 0 0.939693 -0.34202 
vn 0 0.939693 -0.34202 
vn 0 0.939693 -0.34202 
vn 0 0.939693 -0.34202 
vn 0 0.939693 -0.34202 
vn 0 0.939693 -0.34202 
vn 0 0.939693 -0.34202 
vn 0 0.939693 -0.34202 
vn 0 0.939693 -0.34202 
vn 0 0.939693 -0.34202 
vn 0 0.939693 -0.34202 
vn 0 0.939693 -0.34202 
vn 0 0.939693 -0.34202 
vn 0 0.939693 -0.34202 
vn 0 0.939693 -0.34202 
vn 0 0.939693 -0.34202 
vn 0 0.939693 -0.34202 
vn 0 0.939693 -0.34202 
vn 0 0.939693 -0.34202 
vn 0 0.939693 -0.34202 
vn 0 0.939693 -0.34202 
vn 0 0.939693 -0.34202 
vn 0 0.939693 -0.34202 
vn 0 0.939693 -0.34202 
vn 0 0.939693 -0.34202 
vn 0 0.939693 -0.34202 
vn 0 0.939693 -0.34202 
vn 0 0.939693 -0.34202 
vn 0 0.939693 -0.34202 
vn 0 0.939693 -0.34202 
vn 0 0.939693 -0.34202 
vn 0 0.939693 -0.34202 
vn 0 0.939693 -0.34202 
vn 0 0.939693 -0.34202 
vn 0 0.939693 -0.34202 
vn 0 0.939693 -0.34202 
vn 0 0.939693 -0.34202 
vn 0 0.939693 -0.34202 
vn 0 0.939693 -0.34202 
vn 0 0.939693 -0.34202 
vn 0 0.939693 -0.34202 
vn 0 0.939693 -0.34202 
vn 0 0.939693 -0.34202 
vn 0 0.939693 -0.34202 
vn 0 0.939693 -0.34202 
vn 0 0.939693 -0.34202 
vn 0 0.939693 -0.34202 
vn 0 0.939693 -0.34202 
vn 0 0.939693 -0.34202 
vn 0 0.939693 -0.34202 
vn 0 0.939693 -0.34202 
vn 0 0.939693 -0.34202 
vn 0 0.939693 -0.34202 
vn 0 0.939693 -0.34202 
vn 0 0.939693 -0.34202 
vn 0 0.939693 -0.34202 
vn 0 0.939693 -0.34202 
vn 0 0.939693 -0.34202 
vn 0 0.939693 -0.34202 
vn 0 0.939693 -0.34202 
vn 0 0.939693 -0.34202 
vn 0 0.939693 -0.34202 
vn 0 0.939693 -0.34202 
vn 0 0.939693 -0.34202 
vn 0 0.939693 -0.34202 
vn 0 0.939693 -0.34202 
vn 0 0.939693 -0.34202 
vn 0 0.939693 -0.34202 
vn 0 0.939693 -0.34202 
vn 0 0.939693 -0.34202 
vn 0 0.939693 -0.34202 
vn 0 0.939693 -0.34202 
vn 0 0.939693 -0.34202 
vn 0 0.939693 -0.34202 
vn 0 0.939693 -0.34202 
vn 0 0.939693 -0.34202 
vn 0 0.939693 -0.34202 
vn 0 0.939693 -0.34202 
vn 0 0.939693 -0.34202 
vn 0 0.939693 -0.34202 
vn 0 0.939693 -0.34202 
vn 0 0.939693 -0.34202 
vn 0 0.939693 -0.34202 
vn 0 0.939693 -0.34202 
vn 0 0.939693 -0.34202 
vn 0 0.939693 -0.34202 
vn 0 0.939693 -0.34202 
vn 0 0.939693 -0.34202 
vn 0 0.939693 -0.34202 
vn 0 0.939693 -0.34202 
vn 0 0.939693 -0.34202 
vn 0 0.939693 -0.34202 
f 117//117 118//118 119//119 
f 119//119 120//120 117//117 
f 121//121 122//122 123//123 
f 121//121 118//118 124//124 
f 117//117 125//125 118//118 
f 126//126 127//127 128//128 
f 129//129 126//126 130//130 
f 130//130 131//131 132//132 
f 121//121 133//133 122//122 
f 124//124 134//134 121//121 
f 118//118 135//135 136//136 
f 119//119 137//137 120//120 
f 128//128 138//138 126//126 
f 126//126 139//139 140//140 
f 126//126 141//141 130//130 
f 130//130 142//142 143//143 
f 132//132 144//144 130//130 
f 126//126 145//145 146//146 
f 126//126 147//147 148//148 
f 149//149 150//150 151//151 
f 149//149 152//152 153//153 
f 118//118 154//154 155//155 
f 121//121 134//134 133//133 
f 121//121 156//156 118//118 
f 118//118 157//157 158//158 
f 125//125 135//135 118//118 
f 131//131 159//159 160//160 
f 161//161 162//162 163//163 
f 140//140 127//127 126//126 
f 130//130 164//164 129//129 
f 143//143 165//165 130//130 
f 144//144 166//166 130//130 
f 126//126 167//167 145//145 
f 148//148 168//168 126//126 
f 151//151 126//126 149//149 
f 149//149 169//169 152//152 
f 155//155 170//170 118//118 
f 156//156 154//154 118//118 
f 120//120 137//137 171//171 
f 136//136 157//157 118//118 
f 160//160 172//172 131//131 
f 131//131 173//173 174//174 
f 131//131 175//175 176//176 
f 131//131 177//177 178//178 
f 161//161 179//179 180//180 
f 163//163 181//181 161//161 
f 126//126 182//182 183//183 
f 129//129 139//139 126//126 
f 166//166 142//142 130//130 
f 126//126 184//184 185//185 
f 146//146 186//186 126//126 
f 126//126 187//187 188//188 
f 126//126 189//189 190//190 
f 151//151 147//147 126//126 
f 153//153 191//191 149//149 
f 123//123 192//192 121//121 
f 158//158 124//124 118//118 
f 174//174 159//159 131//131 
f 131//131 193//193 175//175 
f 178//178 194//194 131//131 
f 195//195 196//196 197//197 
f 195//195 198//198 199//199 
f 195//195 200//200 201//201 
f 202//202 161//161 203//203 
f 161//161 204//204 205//205 
f 161//161 206//206 179//179 
f 161//161 207//207 162//162 
f 161//161 208//208 209//209 
f 161//161 126//126 210//210 
f 126//126 211//211 182//182 
f 165//165 164//164 130//130 
f 186//186 184//184 126//126 
f 126//126 212//212 187//187 
f 126//126 213//213 214//214 
f 168//168 189//189 126//126 
f 191//191 215//215 149//149 
f 216//216 217//217 218//218 
f 219//219 149//149 217//217 
f 171//171 131//131 120//120 
f 176//176 173//173 131//131 
f 131//131 220//220 177//177 
f 131//131 130//130 221//221 
f 197//197 222//222 195//195 
f 201//201 198//198 195//195 
f 195//195 223//223 224//224 
f 225//225 226//226 227//227 
f 225//225 228//228 229//229 
f 161//161 202//202 230//230 
f 161//161 231//231 203//203 
f 161//161 232//232 233//233 
f 180//180 204//204 161//161 
f 209//209 207//207 161//161 
f 210//210 234//234 161//161 
f 183//183 235//235 126//126 
f 126//126 236//236 237//237 
f 185//185 141//141 126//126 
f 126//126 238//238 239//239 
f 214//214 212//212 126//126 
f 215//215 150//150 149//149 
f 149//149 219//219 240//240 
f 217//217 216//216 219//219 
f 172//172 120//120 131//131 
f 221//221 220//220 131//131 
f 195//195 241//241 242//242 
f 199//199 196//196 195//195 
f 195//195 243//243 244//244 
f 224//224 245//245 195//195 
f 225//225 246//246 247//247 
f 229//229 226//226 225//225 
f 225//225 248//248 249//249 
f 225//225 250//250 251//251 
f 161//161 252//252 253//253 
f 203//203 254//254 202//202 
f 205//205 232//232 161//161 
f 161//161 255//255 208//208 
f 235//235 210//210 126//126 
f 138//138 236//236 126//126 
f 239//239 256//256 126//126 
f 190//190 213//213 126//126 
f 218//218 257//257 216//216 
f 223//223 258//258 259//259 
f 223//223 195//195 260//260 
f 121//121 192//192 261//261 
f 194//194 193//193 131//131 
f 222//222 241//241 195//195 
f 245//245 243//243 195//195 
f 225//225 262//262 263//263 
f 247//247 264//264 225//225 
f 249//249 228//228 225//225 
f 251//251 265//265 225//225 
f 253//253 266//266 161//161 
f 233//233 231//231 161//161 
f 234//234 255//255 161//161 
f 256//256 167//167 126//126 
f 240//240 169//169 149//149 
f 260//260 258//258 223//223 
f 170//170 195//195 118//118 
f 244//244 200//200 195//195 
f 267//267 268//268 269//269 
f 270//270 197//197 268//268 
f 271//271 272//272 273//273 
f 264//264 262//262 225//225 
f 265//265 248//248 225//225 
f 161//161 274//274 275//275 
f 266//266 276//276 161//161 
f 223//223 277//277 278//278 
f 181//181 206//206 161//161 
f 188//188 238//238 126//126 
f 259//259 279//279 223//223 
f 242//242 118//118 195//195 
f 225//225 280//280 281//281 
f 269//269 282//282 267//267 
f 268//268 267//267 270//270 
f 283//283 284//284 285//285 
f 283//283 286//286 287//287 
f 271//271 288//288 289//289 
f 273//273 290//290 271//271 
f 291//291 292//292 293//293 
f 291//291 294//294 295//295 
f 216//216 257//257 296//296 
f 227//227 246//246 225//225 
f 275//275 225//225 161//161 
f 161//161 297//297 298//298 
f 276//276 299//299 161//161 
f 291//291 300//300 301//301 
f 278//278 291//291 223//223 
f 237//237 211//211 126//126 
f 261//261 216//216 121//121 
f 225//225 302//302 280//280 
f 270//270 222//222 197//197 
f 287//287 284//284 283//283 
f 290//290 288//288 271//271 
f 271//271 303//303 304//304 
f 295//295 292//292 291//291 
f 216//216 305//305 306//306 
f 296//296 307//307 216//216 
f 225//225 308//308 309//309 
f 225//225 310//310 311//311 
f 275//275 250//250 225//225 
f 299//299 297//297 161//161 
f 278//278 300//300 291//291 
f 279//279 277//277 223//223 
f 291//291 281//281 312//312 
f 225//225 313//313 302//302 
f 203//203 314//314 315//315 
f 203//203 316//316 317//317 
f 203//203 271//271 318//318 
f 286//286 283//283 319//319 
f 285//285 267//267 283//283 
f 304//304 272//272 271//271 
f 126//126 320//320 321//321 
f 293//293 126//126 291//291 
f 216//216 322//322 323//323 
f 307//307 305//305 216//216 
f 311//311 308//308 225//225 
f 298//298 274//274 161//161 
f 230//230 252//252 161//161 
f 281//281 291//291 225//225 
f 203//203 324//324 314//314 
f 318//318 316//316 203//203 
f 282//282 283//283 267//267 
f 271//271 203//203 303//303 
f 126//126 325//325 326//326 
f 126//126 327//327 328//328 
f 126//126 329//329 330//330 
f 293//293 320//320 126//126 
f 291//291 331//331 332//332 
f 291//291 333//333 334//334 
f 291//291 335//335 336//336 
f 291//291 337//337 338//338 
f 291//291 339//339 340//340 
f 216//216 341//341 342//342 
f 216//216 343//343 344//344 
f 216//216 345//345 346//346 
f 306//306 322//322 216//216 
f 263//263 310//310 225//225 
f 312//312 223//223 291//291 
f 317//317 324//324 203//203 
f 289//289 286//286 271//271 
f 126//126 347//347 325//325 
f 330//330 327//327 126//126 
f 332//332 294//294 291//291 
f 334//334 348//348 291//291 
f 338//338 335//335 291//291 
f 291//291 349//349 350//350 
f 291//291 351//351 339//339 
f 344//344 341//341 216//216 
f 323//323 345//345 216//216 
f 301//301 351//351 291//291 
f 319//319 271//271 286//286 
f 328//328 347//347 126//126 
f 348//348 331//331 291//291 
f 291//291 352//352 337//337 
f 340//340 349//349 291//291 
f 346//346 343//343 216//216 
f 315//315 254//254 203//203 
f 321//321 329//329 126//126 
f 350//350 352//352 291//291 
f 309//309 313//313 225//225 
f 336//336 333//333 291//291 
f 326//326 149//149 126//126 
f 342//342 121//121 216//216 
o mesh8066
v 0.110848 0.183314 -0.00197502 
v 0.10444 0.186464 0.00667987 
v 0.104561 0.186403 0.00651144 
v 0.104743 0.185831 0.00494243 
v 0.104663 0.185763 0.00475338 
v 0.104743 0.186268 0.00614261 
v 0.104801 0.186197 0.00594653 
v 0.104663 0.186337 0.00633165 
v 0.104561 0.185697 0.00457359 
v 0.104836 0.185976 0.00533932 
v 0.104801 0.185903 0.00513851 
v 0.104836 0.186124 0.00574572 
v 0.104848 0.18605 0.00554252 
v 0.0248477 0.183314 -0.00197502 
v 0.0308944 0.186197 0.00594653 
v 0.0309524 0.186268 0.00614261 
v 0.0348359 0.228044 0.120922 
v 0.101553 0.227597 0.119692 
v 0.101396 0.227648 0.119832 
v 0.101255 0.227704 0.119987 
v 0.0345614 0.228471 0.122094 
v 0.0346628 0.228406 0.121914 
v 0.0342997 0.228589 0.122417 
v 0.0344399 0.228532 0.122262 
v 0.0335879 0.228754 0.122871 
v 0.0337845 0.228723 0.122785 
v 0.0348359 0.185976 0.00533932 
v 0.101553 0.185528 0.00411012 
v 0.101396 0.185579 0.00425007 
v 0.104142 0.185528 0.00411012 
v 0.10397 0.185484 0.00398697 
v 0.0325241 0.227443 0.11927 
v 0.0312555 0.186464 0.00667987 
v 0.0313957 0.18652 0.00683497 
v 0.031134 0.185697 0.00457359 
v 0.0310325 0.185763 0.00475338 
v 0.0348477 0.18605 0.00554252 
v 0.03397 0.227552 0.119569 
v 0.0337845 0.227514 0.119464 
v 0.100894 0.185903 0.00513851 
v 0.0344399 0.227704 0.119987 
v 0.0342997 0.227648 0.119832 
v 0.0348477 0.228118 0.121125 
v 0.034743 0.228337 0.121725 
v 0.0341424 0.22864 0.122557 
v 0.03397 0.228684 0.12268 
v 0.103784 0.185445 0.00388206 
v 0.10444 0.185636 0.00440516 
v 0.1043 0.185579 0.00425007 
v 0.031134 0.186403 0.00651144 
v 0.0310325 0.186337 0.00633165 
v 0.0308944 0.185903 0.00513851 
v 0.0308594 0.185976 0.00533932 
v 0.0309524 0.185831 0.00494243 
v 0.0315529 0.185528 0.00411012 
v 0.0313957 0.185579 0.00425007 
v 0.0341424 0.227597 0.119692 
v 0.100952 0.185831 0.00494243 
v 0.0348009 0.228265 0.121529 
v 0.0348359 0.228192 0.121328 
v 0.0333827 0.228777 0.122936 
v 0.0329559 0.228801 0.123001 
v 0.0331712 0.228793 0.122979 
v 0.0341424 0.185528 0.00411012 
v 0.03397 0.185484 0.00398697 
v 0.101255 0.185636 0.00440516 
v 0.103588 0.185414 0.00379661 
v 0.102956 0.227435 0.119248 
v 0.1043 0.18652 0.00683497 
v 0.100859 0.228192 0.121328 
v 0.0248477 0.230854 0.128642 
v 0.100952 0.2279 0.120525 
v 0.100894 0.227971 0.120721 
v 0.0329559 0.227435 0.119248 
v 0.0346628 0.186337 0.00633165 
v 0.034743 0.186268 0.00614261 
v 0.0344399 0.186464 0.00667987 
v 0.0345614 0.186403 0.00651144 
v 0.0315529 0.186571 0.00697491 
v 0.0317253 0.186616 0.00709806 
v 0.0308477 0.18605 0.00554252 
v 0.0308594 0.186124 0.00574572 
v 0.0312555 0.185636 0.00440516 
v 0.0335879 0.227483 0.119379 
v 0.100859 0.185976 0.00533932 
v 0.0348009 0.227971 0.120721 
v 0.0345614 0.185697 0.00457359 
v 0.0344399 0.185636 0.00440516 
v 0.034743 0.185831 0.00494243 
v 0.0346628 0.185763 0.00475338 
v 0.0348009 0.185903 0.00513851 
v 0.104142 0.186571 0.00697491 
v 0.100859 0.186124 0.00574572 
v 0.100894 0.186197 0.00594653 
v 0.110848 0.230854 0.128642 
v 0.104801 0.227971 0.120721 
v 0.104743 0.2279 0.120525 
v 0.104836 0.228192 0.121328 
v 0.104848 0.228118 0.121125 
v 0.104743 0.228337 0.121725 
v 0.104801 0.228265 0.121529 
v 0.102956 0.228801 0.123001 
v 0.103171 0.228793 0.122979 
v 0.102313 0.228777 0.122936 
v 0.0327394 0.228801 0.123001 
v 0.100859 0.228044 0.120922 
v 0.0317253 0.228684 0.12268 
v 0.0319108 0.228723 0.122785 
v 0.0312555 0.227704 0.119987 
v 0.031134 0.227766 0.120156 
v 0.0341424 0.186571 0.00697491 
v 0.0342997 0.18652 0.00683497 
v 0.0337845 0.186654 0.00720298 
v 0.03397 0.186616 0.00709806 
v 0.0327394 0.227435 0.119248 
v 0.0323126 0.186709 0.0073534 
v 0.0325241 0.186725 0.00739715 
v 0.0319108 0.186654 0.00720298 
v 0.0319108 0.185445 0.00388206 
v 0.0317253 0.185484 0.00398697 
v 0.0333827 0.227459 0.119314 
v 0.101134 0.185697 0.00457359 
v 0.0346628 0.227831 0.120336 
v 0.0345614 0.227766 0.120156 
v 0.034743 0.2279 0.120525 
v 0.0337845 0.185445 0.00388206 
v 0.0342997 0.185579 0.00425007 
v 0.103383 0.185391 0.00373164 
v 0.103171 0.185375 0.00368789 
v 0.103784 0.186654 0.00720298 
v 0.10397 0.186616 0.00709806 
v 0.103383 0.186709 0.0073534 
v 0.103588 0.186685 0.00728842 
v 0.102313 0.186709 0.0073534 
v 0.102524 0.186725 0.00739715 
v 0.101033 0.186337 0.00633165 
v 0.101134 0.186403 0.00651144 
v 0.100952 0.186268 0.00614261 
v 0.104663 0.227831 0.120336 
v 0.104561 0.227766 0.120156 
v 0.104836 0.228044 0.120922 
v 0.104561 0.228471 0.122094 
v 0.104663 0.228406 0.121914 
v 0.103784 0.228723 0.122785 
v 0.10397 0.228684 0.12268 
v 0.103383 0.228777 0.122936 
v 0.103588 0.228754 0.122871 
v 0.102739 0.228801 0.123001 
v 0.102524 0.228793 0.122979 
v 0.100848 0.228118 0.121125 
v 0.0323126 0.228777 0.122936 
v 0.0325241 0.228793 0.122979 
v 0.0315529 0.22864 0.122557 
v 0.0308944 0.227971 0.120721 
v 0.0308594 0.228044 0.120922 
v 0.0321074 0.227483 0.119379 
v 0.0319108 0.227514 0.119464 
v 0.0323126 0.227459 0.119314 
v 0.0348009 0.186197 0.00594653 
v 0.0348359 0.186124 0.00574572 
v 0.0335879 0.186685 0.00728842 
v 0.0329559 0.186733 0.00741915 
v 0.0331712 0.186725 0.00739715 
v 0.0321074 0.186685 0.00728842 
v 0.0321074 0.185414 0.00379661 
v 0.100848 0.18605 0.00554252 
v 0.101033 0.185763 0.00475338 
v 0.0335879 0.185414 0.00379661 
v 0.101911 0.185445 0.00388206 
v 0.101725 0.185484 0.00398697 
v 0.102524 0.185375 0.00368789 
v 0.102313 0.185391 0.00373164 
v 0.102956 0.186733 0.00741915 
v 0.103171 0.186725 0.00739715 
v 0.102739 0.186733 0.00741915 
v 0.101911 0.186654 0.00720298 
v 0.102107 0.186685 0.00728842 
v 0.101553 0.186571 0.00697491 
v 0.101725 0.186616 0.00709806 
v 0.101255 0.186464 0.00667987 
v 0.101396 0.18652 0.00683497 
v 0.10444 0.228532 0.122262 
v 0.104142 0.22864 0.122557 
v 0.1043 0.228589 0.122417 
v 0.101911 0.228723 0.122785 
v 0.102107 0.228754 0.122871 
v 0.101553 0.22864 0.122557 
v 0.101725 0.228684 0.12268 
v 0.100952 0.228337 0.121725 
v 0.101033 0.228406 0.121914 
v 0.0321074 0.228754 0.122871 
v 0.031134 0.228471 0.122094 
v 0.0312555 0.228532 0.122262 
v 0.0309524 0.2279 0.120525 
v 0.0310325 0.227831 0.120336 
v 0.0333827 0.186709 0.0073534 
v 0.0327394 0.186733 0.00741915 
v 0.0323126 0.185391 0.00373164 
v 0.0327394 0.185367 0.00366589 
v 0.0325241 0.185375 0.00368789 
v 0.0333827 0.185391 0.00373164 
v 0.0331712 0.185375 0.00368789 
v 0.102107 0.185414 0.00379661 
v 0.102739 0.185367 0.00366589 
v 0.101255 0.228532 0.122262 
v 0.101396 0.228589 0.122417 
v 0.101134 0.228471 0.122094 
v 0.0313957 0.228589 0.122417 
v 0.0309524 0.228337 0.121725 
v 0.0310325 0.228406 0.121914 
v 0.0308594 0.228192 0.121328 
v 0.0308944 0.228265 0.121529 
v 0.0315529 0.227597 0.119692 
v 0.0313957 0.227648 0.119832 
v 0.0317253 0.227552 0.119569 
v 0.0329559 0.185367 0.00366589 
v 0.102956 0.185367 0.00366589 
v 0.102524 0.227443 0.11927 
v 0.102313 0.227459 0.119314 
v 0.102739 0.227435 0.119248 
v 0.103588 0.227483 0.119379 
v 0.103383 0.227459 0.119314 
v 0.104142 0.227597 0.119692 
v 0.10397 0.227552 0.119569 
v 0.10444 0.227704 0.119987 
v 0.1043 0.227648 0.119832 
v 0.100894 0.228265 0.121529 
v 0.101134 0.227766 0.120156 
v 0.0308477 0.228118 0.121125 
v 0.101911 0.227514 0.119464 
v 0.101725 0.227552 0.119569 
v 0.102107 0.227483 0.119379 
v 0.103784 0.227514 0.119464 
v 0.101033 0.227831 0.120336 
v 0.0331712 0.227443 0.11927 
v 0.103171 0.227443 0.11927 
vn 0 -0.939693 0.34202 
vn 0 -0.939693 0.34202 
vn 0 -0.939693 0.34202 
vn 0 -0.939693 0.34202 
vn 0 -0.939693 0.34202 
vn 0 -0.939693 0.34202 
vn 0 -0.939693 0.34202 
vn 0 -0.939693 0.34202 
vn 0 -0.939693 0.34202 
vn 0 -0.939693 0.34202 
vn 0 -0.939693 0.34202 
vn 0 -0.939693 0.34202 
vn 0 -0.939693 0.34202 
vn 0 -0.939693 0.34202 
vn 0 -0.939693 0.34202 
vn 0 -0.939693 0.34202 
vn 0 -0.939693 0.34202 
vn 0 -0.939693 0.34202 
vn 0 -0.939693 0.34202 
vn 0 -0.939693 0.34202 
vn 0 -0.939693 0.34202 
vn 0 -0.939693 0.34202 
vn 0 -0.939693 0.34202 
vn 0 -0.939693 0.34202 
vn 0 -0.939693 0.34202 
vn 0 -0.939693 0.34202 
vn 0 -0.939693 0.34202 
vn 0 -0.939693 0.34202 
vn 0 -0.939693 0.34202 
vn 0 -0.939693 0.34202 
vn 0 -0.939693 0.34202 
vn 0 -0.939693 0.34202 
vn 0 -0.939693 0.34202 
vn 0 -0.939693 0.34202 
vn 0 -0.939693 0.34202 
vn 0 -0.939693 0.34202 
vn 0 -0.939693 0.34202 
vn 0 -0.939693 0.34202 
vn 0 -0.939693 0.34202 
vn 0 -0.939693 0.34202 
vn 0 -0.939693 0.34202 
vn 0 -0.939693 0.34202 
vn 0 -0.939693 0.34202 
vn 0 -0.939693 0.34202 
vn 0 -0.939693 0.34202 
vn 0 -0.939693 0.34202 
vn 0 -0.939693 0.34202 
vn 0 -0.939693 0.34202 
vn 0 -0.939693 0.34202 
vn 0 -0.939693 0.34202 
vn 0 -0.939693 0.34202 
vn 0 -0.939693 0.34202 
vn 0 -0.939693 0.34202 
vn 0 -0.939693 0.34202 
vn 0 -0.939693 0.34202 
vn 0 -0.939693 0.34202 
vn 0 -0.939693 0.34202 
vn 0 -0.939693 0.34202 
vn 0 -0.939693 0.34202 
vn 0 -0.939693 0.34202 
vn 0 -0.939693 0.34202 
vn 0 -0.939693 0.34202 
vn 0 -0.939693 0.34202 
vn 0 -0.939693 0.34202 
vn 0 -0.939693 0.34202 
vn 0 -0.939693 0.34202 
vn 0 -0.939693 0.34202 
vn 0 -0.939693 0.34202 
vn 0 -0.939693 0.34202 
vn 0 -0.939693 0.34202 
vn 0 -0.939693 0.34202 
vn 0 -0.939693 0.34202 
vn 0 -0.939693 0.34202 
vn 0 -0.939693 0.34202 
vn 0 -0.939693 0.34202 
vn 0 -0.939693 0.34202 
vn 0 -0.939693 0.34202 
vn 0 -0.939693 0.34202 
vn 0 -0.939693 0.34202 
vn 0 -0.939693 0.34202 
vn 0 -0.939693 0.34202 
vn 0 -0.939693 0.34202 
vn 0 -0.939693 0.34202 
vn 0 -0.939693 0.34202 
vn 0 -0.939693 0.34202 
vn 0 -0.939693 0.34202 
vn 0 -0.939693 0.34202 
vn 0 -0.939693 0.34202 
vn 0 -0.939693 0.34202 
vn 0 -0.939693 0.34202 
vn 0 -0.939693 0.34202 
vn 0 -0.939693 0.34202 
vn 0 -0.939693 0.34202 
vn 0 -0.939693 0.34202 
vn 0 -0.939693 0.34202 
vn 0 -0.939693 0.34202 
vn 0 -0.939693 0.34202 
vn 0 -0.939693 0.34202 
vn 0 -0.939693 0.34202 
vn 0 -0.939693 0.34202 
vn 0 -0.939693 0.34202 
vn 0 -0.939693 0.34202 
vn 0 -0.939693 0.34202 
vn 0 -0.939693 0.34202 
vn 0 -0.939693 0.34202 
vn 0 -0.939693 0.34202 
vn 0 -0.939693 0.34202 
vn 0 -0.939693 0.34202 
vn 0 -0.939693 0.34202 
vn 0 -0.939693 0.34202 
vn 0 -0.939693 0.34202 
vn 0 -0.939693 0.34202 
vn 0 -0.939693 0.34202 
vn 0 -0.939693 0.34202 
vn 0 -0.939693 0.34202 
vn 0 -0.939693 0.34202 
vn 0 -0.939693 0.34202 
vn 0 -0.939693 0.34202 
vn 0 -0.939693 0.34202 
vn 0 -0.939693 0.34202 
vn 0 -0.939693 0.34202 
vn 0 -0.939693 0.34202 
vn 0 -0.939693 0.34202 
vn 0 -0.939693 0.34202 
vn 0 -0.939693 0.34202 
vn 0 -0.939693 0.34202 
vn 0 -0.939693 0.34202 
vn 0 -0.939693 0.34202 
vn 0 -0.939693 0.34202 
vn 0 -0.939693 0.34202 
vn 0 -0.939693 0.34202 
vn 0 -0.939693 0.34202 
vn 0 -0.939693 0.34202 
vn 0 -0.939693 0.34202 
vn 0 -0.939693 0.34202 
vn 0 -0.939693 0.34202 
vn 0 -0.939693 0.34202 
vn 0 -0.939693 0.34202 
vn 0 -0.939693 0.34202 
vn 0 -0.939693 0.34202 
vn 0 -0.939693 0.34202 
vn 0 -0.939693 0.34202 
vn 0 -0.939693 0.34202 
vn 0 -0.939693 0.34202 
vn 0 -0.939693 0.34202 
vn 0 -0.939693 0.34202 
vn 0 -0.939693 0.34202 
vn 0 -0.939693 0.34202 
vn 0 -0.939693 0.34202 
vn 0 -0.939693 0.34202 
vn 0 -0.939693 0.34202 
vn 0 -0.939693 0.34202 
vn 0 -0.939693 0.34202 
vn 0 -0.939693 0.34202 
vn 0 -0.939693 0.34202 
vn 0 -0.939693 0.34202 
vn 0 -0.939693 0.34202 
vn 0 -0.939693 0.34202 
vn 0 -0.939693 0.34202 
vn 0 -0.939693 0.34202 
vn 0 -0.939693 0.34202 
vn 0 -0.939693 0.34202 
vn 0 -0.939693 0.34202 
vn 0 -0.939693 0.34202 
vn 0 -0.939693 0.34202 
vn 0 -0.939693 0.34202 
vn 0 -0.939693 0.34202 
vn 0 -0.939693 0.34202 
vn 0 -0.939693 0.34202 
vn 0 -0.939693 0.34202 
vn 0 -0.939693 0.34202 
vn 0 -0.939693 0.34202 
vn 0 -0.939693 0.34202 
vn 0 -0.939693 0.34202 
vn 0 -0.939693 0.34202 
vn 0 -0.939693 0.34202 
vn 0 -0.939693 0.34202 
vn 0 -0.939693 0.34202 
vn 0 -0.939693 0.34202 
vn 0 -0.939693 0.34202 
vn 0 -0.939693 0.34202 
vn 0 -0.939693 0.34202 
vn 0 -0.939693 0.34202 
vn 0 -0.939693 0.34202 
vn 0 -0.939693 0.34202 
vn 0 -0.939693 0.34202 
vn 0 -0.939693 0.34202 
vn 0 -0.939693 0.34202 
vn 0 -0.939693 0.34202 
vn 0 -0.939693 0.34202 
vn 0 -0.939693 0.34202 
vn 0 -0.939693 0.34202 
vn 0 -0.939693 0.34202 
vn 0 -0.939693 0.34202 
vn 0 -0.939693 0.34202 
vn 0 -0.939693 0.34202 
vn 0 -0.939693 0.34202 
vn 0 -0.939693 0.34202 
vn 0 -0.939693 0.34202 
vn 0 -0.939693 0.34202 
vn 0 -0.939693 0.34202 
vn 0 -0.939693 0.34202 
vn 0 -0.939693 0.34202 
vn 0 -0.939693 0.34202 
vn 0 -0.939693 0.34202 
vn 0 -0.939693 0.34202 
vn 0 -0.939693 0.34202 
vn 0 -0.939693 0.34202 
vn 0 -0.939693 0.34202 
vn 0 -0.939693 0.34202 
vn 0 -0.939693 0.34202 
vn 0 -0.939693 0.34202 
vn 0 -0.939693 0.34202 
vn 0 -0.939693 0.34202 
vn 0 -0.939693 0.34202 
vn 0 -0.939693 0.34202 
vn 0 -0.939693 0.34202 
vn 0 -0.939693 0.34202 
vn 0 -0.939693 0.34202 
vn 0 -0.939693 0.34202 
vn 0 -0.939693 0.34202 
vn 0 -0.939693 0.34202 
vn 0 -0.939693 0.34202 
vn 0 -0.939693 0.34202 
vn 0 -0.939693 0.34202 
vn 0 -0.939693 0.34202 
vn 0 -0.939693 0.34202 
vn 0 -0.939693 0.34202 
vn 0 -0.939693 0.34202 
vn 0 -0.939693 0.34202 
vn 0 -0.939693 0.34202 
vn 0 -0.939693 0.34202 
vn 0 -0.939693 0.34202 
vn 0 -0.939693 0.34202 
vn 0 -0.939693 0.34202 
vn 0 -0.939693 0.34202 
f 353//353 354//354 355//355 
f 353//353 356//356 357//357 
f 353//353 358//358 359//359 
f 355//355 360//360 353//353 
f 357//357 361//361 353//353 
f 353//353 362//362 363//363 
f 353//353 364//364 365//365 
f 360//360 358//358 353//353 
f 366//366 367//367 368//368 
f 369//369 370//370 371//371 
f 372//372 373//373 374//374 
f 372//372 375//375 376//376 
f 372//372 377//377 378//378 
f 379//379 380//380 381//381 
f 353//353 382//382 383//383 
f 363//363 356//356 353//353 
f 359//359 364//364 353//353 
f 384//384 385//385 386//386 
f 368//368 384//384 366//366 
f 366//366 387//387 388//388 
f 389//389 390//390 391//391 
f 392//392 393//393 394//394 
f 371//371 395//395 369//369 
f 374//374 396//396 372//372 
f 372//372 397//397 375//375 
f 378//378 398//398 372//372 
f 381//381 389//389 379//379 
f 383//383 399//399 353//353 
f 353//353 400//400 401//401 
f 365//365 362//362 353//353 
f 384//384 402//402 385//385 
f 368//368 403//403 384//384 
f 366//366 404//404 405//405 
f 388//388 406//406 366//366 
f 366//366 407//407 408//408 
f 389//389 409//409 390//390 
f 389//389 410//410 392//392 
f 371//371 372//372 395//395 
f 372//372 411//411 412//412 
f 376//376 373//373 372//372 
f 372//372 413//413 377//377 
f 372//372 414//414 415//415 
f 380//380 416//416 417//417 
f 381//381 418//418 389//389 
f 399//399 419//419 353//353 
f 361//361 400//400 353//353 
f 420//420 421//421 354//354 
f 422//422 423//423 414//414 
f 414//414 424//424 425//425 
f 426//426 427//427 428//428 
f 426//426 429//429 430//430 
f 384//384 431//431 432//432 
f 403//403 402//402 384//384 
f 366//366 433//433 434//434 
f 406//406 404//404 366//366 
f 408//408 435//435 366//366 
f 391//391 436//436 389//389 
f 393//393 392//392 437//437 
f 394//394 389//389 392//392 
f 369//369 438//438 370//370 
f 396//396 411//411 372//372 
f 415//415 413//413 372//372 
f 417//417 366//366 380//380 
f 380//380 439//439 440//440 
f 380//380 441//441 442//442 
f 379//379 443//443 380//380 
f 401//401 382//382 353//353 
f 420//420 444//444 421//421 
f 420//420 445//445 446//446 
f 447//447 448//448 449//449 
f 447//447 450//450 451//451 
f 447//447 452//452 453//453 
f 447//447 454//454 455//455 
f 447//447 423//423 456//456 
f 423//423 457//457 414//414 
f 425//425 458//458 414//414 
f 423//423 459//459 460//460 
f 366//366 461//461 462//462 
f 430//430 427//427 426//426 
f 426//426 463//463 464//464 
f 426//426 465//465 466//466 
f 467//467 468//468 469//469 
f 432//432 470//470 384//384 
f 434//434 367//367 366//366 
f 435//435 387//387 366//366 
f 366//366 471//471 472//472 
f 436//436 473//473 389//389 
f 394//394 409//409 389//389 
f 389//389 418//418 474//474 
f 370//370 475//475 476//476 
f 438//438 477//477 370//370 
f 398//398 397//397 372//372 
f 417//417 478//478 366//366 
f 440//440 479//479 380//380 
f 443//443 441//441 380//380 
f 353//353 480//480 481//481 
f 354//354 353//353 420//420 
f 420//420 482//482 483//483 
f 420//420 484//484 485//485 
f 420//420 486//486 487//487 
f 420//420 488//488 489//489 
f 446//446 490//490 420//420 
f 353//353 491//491 492//492 
f 447//447 493//493 448//448 
f 453//453 450//450 447//447 
f 447//447 494//494 495//495 
f 447//447 496//496 497//497 
f 447//447 498//498 499//499 
f 447//447 500//500 454//454 
f 456//456 501//501 447//447 
f 458//458 502//502 414//414 
f 423//423 503//503 504//504 
f 423//423 505//505 459//459 
f 423//423 506//506 507//507 
f 462//462 423//423 366//366 
f 366//366 508//508 509//509 
f 366//366 384//384 510//510 
f 426//426 511//511 512//512 
f 464//464 429//429 426//426 
f 426//426 513//513 465//465 
f 426//426 514//514 515//515 
f 469//469 426//426 467//467 
f 470//470 516//516 384//384 
f 405//405 433//433 366//366 
f 366//366 517//517 471//471 
f 437//437 518//518 393//393 
f 474//474 519//519 389//389 
f 476//476 518//518 370//370 
f 412//412 395//395 372//372 
f 478//478 520//520 366//366 
f 442//442 439//439 380//380 
f 366//366 521//521 522//522 
f 353//353 523//523 524//524 
f 419//419 480//480 353//353 
f 485//485 482//482 420//420 
f 420//420 525//525 526//526 
f 487//487 527//527 420//420 
f 420//420 528//528 529//529 
f 420//420 530//530 531//531 
f 420//420 532//532 533//533 
f 490//490 488//488 420//420 
f 353//353 449//449 491//491 
f 451//451 493//493 447//447 
f 447//447 534//534 494//494 
f 447//447 535//535 536//536 
f 499//499 496//496 447//447 
f 501//501 500//500 447//447 
f 423//423 537//537 538//538 
f 423//423 539//539 540//540 
f 423//423 541//541 542//542 
f 504//504 457//457 423//423 
f 460//460 543//543 423//423 
f 423//423 544//544 545//545 
f 423//423 546//546 506//506 
f 462//462 547//547 423//423 
f 510//510 508//508 366//366 
f 428//428 511//511 426//426 
f 426//426 548//548 513//513 
f 426//426 549//549 514//514 
f 469//469 549//549 426//426 
f 386//386 431//431 384//384 
f 366//366 550//550 517//517 
f 366//366 551//551 552//552 
f 519//519 410//410 389//389 
f 477//477 475//475 370//370 
f 366//366 553//553 554//554 
f 479//479 416//416 380//380 
f 366//366 555//555 521//521 
f 353//353 556//556 523//523 
f 483//483 444//444 420//420 
f 527//527 525//525 420//420 
f 531//531 528//528 420//420 
f 489//489 532//532 420//420 
f 449//449 353//353 447//447 
f 536//536 534//534 447//447 
f 455//455 498//498 447//447 
f 540//540 537//537 423//423 
f 423//423 557//557 558//558 
f 542//542 559//559 423//423 
f 543//543 503//503 423//423 
f 545//545 560//560 423//423 
f 423//423 561//561 562//562 
f 423//423 563//563 564//564 
f 547//547 546//546 423//423 
f 366//366 565//565 566//566 
f 509//509 567//567 366//366 
f 466//466 463//463 426//426 
f 467//467 384//384 468//468 
f 472//472 407//407 366//366 
f 366//366 568//568 551//551 
f 476//476 393//393 518//518 
f 520//520 553//553 366//366 
f 366//366 524//524 555//555 
f 353//353 569//569 556//556 
f 518//518 570//570 571//571 
f 526//526 484//484 420//420 
f 533//533 530//530 420//420 
f 572//572 518//518 445//445 
f 353//353 573//573 574//574 
f 353//353 575//575 576//576 
f 353//353 577//577 578//578 
f 495//495 452//452 447//447 
f 538//538 456//456 423//423 
f 559//559 557//557 423//423 
f 423//423 422//422 579//579 
f 560//560 505//505 423//423 
f 564//564 561//561 423//423 
f 414//414 372//372 580//580 
f 507//507 581//581 423//423 
f 567//567 565//565 366//366 
f 515//515 548//548 426//426 
f 552//552 550//550 366//366 
f 554//554 568//568 366//366 
f 524//524 366//366 353//353 
f 518//518 582//582 583//583 
f 571//571 584//584 518//518 
f 529//529 486//486 420//420 
f 445//445 420//420 572//572 
f 353//353 585//585 573//573 
f 578//578 575//575 353//353 
f 497//497 535//535 447//447 
f 579//579 541//541 423//423 
f 562//562 544//544 423//423 
f 580//580 586//586 414//414 
f 566//566 461//461 366//366 
f 516//516 468//468 384//384 
f 522//522 380//380 366//366 
f 584//584 582//582 518//518 
f 572//572 570//570 518//518 
f 576//576 585//585 353//353 
f 558//558 539//539 423//423 
f 586//586 424//424 414//414 
f 512//512 389//389 426//426 
f 473//473 587//587 389//389 
f 481//481 569//569 353//353 
f 492//492 577//577 353//353 
f 581//581 563//563 423//423 
f 583//583 370//370 518//518 
f 574//574 588//588 353//353 
f 587//587 426//426 389//389 
f 414//414 502//502 422//422 
f 588//588 420//420 353//353 
o mesh8067
v 0.0248477 0.24495 0.123512 
v 0.0248477 0.197409 -0.00710533 
v 0.0248477 0.183314 -0.00197502 
v 0.0248477 0.230854 0.128642 
vn -1 -1.21316e-33 -3.33312e-33 
vn -1 -1.21316e-33 -3.33312e-33 
vn -1 -1.21316e-33 -3.33312e-33 
vn -1 -1.21316e-33 -3.33312e-33 
f 589//589 590//590 591//591 
f 591//591 592//592 589//589 
o mesh8068
v 0.0248477 0.183314 -0.00197502 
v 0.0248477 0.197409 -0.00710533 
v 0.110848 0.197409 -0.00710533 
v 0.110848 0.183314 -0.00197502 
vn -2.8665e-33 -0.34202 -0.939693 
vn -2.8665e-33 -0.34202 -0.939693 
vn -2.8665e-33 -0.34202 -0.939693 
vn -2.8665e-33 -0.34202 -0.939693 
f 593//593 594//594 595//595 
f 595//595 596//596 593//593 
o mesh8069
v 0.110848 0.24495 0.123512 
v 0.110848 0.230854 0.128642 
v 0.110848 0.183314 -0.00197502 
v 0.110848 0.197409 -0.00710533 
vn 1 0 0 
vn 1 0 0 
vn 1 0 0 
vn 1 0 0 
f 597//597 598//598 599//599 
f 599//599 600//600 597//597 
o mesh8070
v 0.110848 0.230854 0.128642 
v 0.110848 0.24495 0.123512 
v 0.0248477 0.24495 0.123512 
v 0.0248477 0.230854 0.128642 
vn 0 0.34202 0.939693 
vn 0 0.34202 0.939693 
vn 0 0.34202 0.939693 
vn 0 0.34202 0.939693 
f 601//601 602//602 603//603 
f 603//603 604//604 601//601 
o mesh8071
v 0.0348359 0.185976 0.00533932 
v 0.0348477 0.18605 0.00554252 
v 0.0348477 0.200145 0.000412216 
v 0.0348009 0.185903 0.00513851 
v 0.0348359 0.200071 0.000209019 
v 0.034743 0.185831 0.00494243 
v 0.0348009 0.199998 8.20361e-06 
v 0.0346628 0.185763 0.00475338 
v 0.034743 0.199927 -0.000187875 
v 0.0345614 0.185697 0.00457359 
v 0.0346628 0.199858 -0.000376917 
v 0.0344399 0.185636 0.00440516 
v 0.0345614 0.199793 -0.000556708 
v 0.0342997 0.185579 0.00425007 
v 0.0344399 0.199731 -0.00072514 
v 0.0341424 0.185528 0.00411012 
v 0.0342997 0.199675 -0.000880236 
v 0.03397 0.185484 0.00398697 
v 0.0341424 0.199624 -0.00102018 
v 0.0337845 0.185445 0.00388206 
v 0.03397 0.199579 -0.00114333 
v 0.0335879 0.185414 0.00379661 
v 0.0337845 0.199541 -0.00124824 
v 0.0333827 0.185391 0.00373164 
v 0.0335879 0.19951 -0.00133369 
v 0.0331712 0.185375 0.00368789 
v 0.0333827 0.199486 -0.00139867 
v 0.0329559 0.185367 0.00366589 
v 0.0331712 0.19947 -0.00144241 
v 0.0327394 0.185367 0.00366589 
v 0.0329559 0.199462 -0.00146441 
v 0.0325241 0.185375 0.00368789 
v 0.0327394 0.199462 -0.00146441 
v 0.0323126 0.185391 0.00373164 
v 0.0325241 0.19947 -0.00144241 
v 0.0321074 0.185414 0.00379661 
v 0.0323126 0.199486 -0.00139867 
v 0.0319108 0.185445 0.00388206 
v 0.0321074 0.19951 -0.00133369 
v 0.0317253 0.185484 0.00398697 
v 0.0319108 0.199541 -0.00124824 
v 0.0315529 0.185528 0.00411012 
v 0.0317253 0.199579 -0.00114333 
v 0.0313957 0.185579 0.00425007 
v 0.0315529 0.199624 -0.00102018 
v 0.0312555 0.185636 0.00440516 
v 0.0313957 0.199675 -0.000880236 
v 0.031134 0.185697 0.00457359 
v 0.0312555 0.199731 -0.00072514 
v 0.0310325 0.185763 0.00475338 
v 0.031134 0.199793 -0.000556708 
v 0.0309524 0.185831 0.00494243 
v 0.0310325 0.199858 -0.000376917 
v 0.0308944 0.185903 0.00513851 
v 0.0309524 0.199927 -0.000187875 
v 0.0308594 0.185976 0.00533932 
v 0.0308944 0.199998 8.20361e-06 
v 0.0308477 0.18605 0.00554252 
v 0.0308594 0.200071 0.000209019 
v 0.0308594 0.186124 0.00574572 
v 0.0308477 0.200145 0.000412216 
v 0.0308944 0.186197 0.00594653 
v 0.0308594 0.200219 0.000615413 
v 0.0309524 0.186268 0.00614261 
v 0.0308944 0.200292 0.000816228 
v 0.0310325 0.186337 0.00633165 
v 0.0309524 0.200364 0.00101231 
v 0.031134 0.186403 0.00651144 
v 0.0310325 0.200432 0.00120135 
v 0.0312555 0.186464 0.00667987 
v 0.031134 0.200498 0.00138114 
v 0.0313957 0.18652 0.00683497 
v 0.0312555 0.200559 0.00154957 
v 0.0315529 0.186571 0.00697491 
v 0.0313957 0.200616 0.00170467 
v 0.0317253 0.186616 0.00709806 
v 0.0315529 0.200667 0.00184461 
v 0.0319108 0.186654 0.00720298 
v 0.0317253 0.200711 0.00196776 
v 0.0321074 0.186685 0.00728842 
v 0.0319108 0.20075 0.00207268 
v 0.0323126 0.186709 0.0073534 
v 0.0321074 0.200781 0.00215812 
v 0.0325241 0.186725 0.00739715 
v 0.0323126 0.200804 0.0022231 
v 0.0327394 0.186733 0.00741915 
v 0.0325241 0.20082 0.00226684 
v 0.0329559 0.186733 0.00741915 
v 0.0327394 0.200828 0.00228884 
v 0.0331712 0.186725 0.00739715 
v 0.0329559 0.200828 0.00228884 
v 0.0333827 0.186709 0.0073534 
v 0.0331712 0.20082 0.00226684 
v 0.0335879 0.186685 0.00728842 
v 0.0333827 0.200804 0.0022231 
v 0.0337845 0.186654 0.00720298 
v 0.0335879 0.200781 0.00215812 
v 0.03397 0.186616 0.00709806 
v 0.0337845 0.20075 0.00207268 
v 0.0341424 0.186571 0.00697491 
v 0.03397 0.200711 0.00196776 
v 0.0342997 0.18652 0.00683497 
v 0.0341424 0.200667 0.00184461 
v 0.0344399 0.186464 0.00667987 
v 0.0342997 0.200616 0.00170467 
v 0.0345614 0.186403 0.00651144 
v 0.0344399 0.200559 0.00154957 
v 0.0346628 0.186337 0.00633165 
v 0.0345614 0.200498 0.00138114 
v 0.034743 0.186268 0.00614261 
v 0.0346628 0.200432 0.00120135 
v 0.0348009 0.186197 0.00594653 
v 0.034743 0.200364 0.00101231 
v 0.0348359 0.186124 0.00574572 
v 0.0348009 0.200292 0.000816228 
v 0.0348359 0.200219 0.000615413 
vn -0.994138 0.0369789 0.101599 
vn -1 8.37708e-17 2.30158e-16 
vn -1 8.37708e-17 2.30158e-16 
vn -0.976621 0.0735242 0.202006 
vn -0.994138 0.0369789 0.101599 
vn -0.947653 0.109208 0.300045 
vn -0.976621 0.0735242 0.202006 
vn -0.907575 0.143611 0.394567 
vn -0.947653 0.109208 0.300045 
vn -0.856857 0.17633 0.484462 
vn -0.907575 0.143611 0.394567 
vn -0.796093 0.206982 0.568678 
vn -0.856857 0.17633 0.484462 
vn -0.725995 0.235207 0.646226 
vn -0.796093 0.206982 0.568678 
vn -0.647386 0.260675 0.716198 
vn -0.725995 0.235207 0.646226 
vn -0.561187 0.283086 0.777773 
vn -0.647386 0.260675 0.716198 
vn -0.468408 0.302179 0.83023 
vn -0.561187 0.283086 0.777773 
vn -0.370138 0.317729 0.872953 
vn -0.468408 0.302179 0.83023 
vn -0.267528 0.329554 0.905441 
vn -0.370138 0.317729 0.872953 
vn -0.161782 0.337515 0.927314 
vn -0.267528 0.329554 0.905441 
vn -0.0541389 0.341519 0.938314 
vn -0.161782 0.337515 0.927314 
vn 0.0541389 0.341519 0.938314 
vn -0.0541389 0.341519 0.938314 
vn 0.161782 0.337515 0.927314 
vn 0.0541389 0.341519 0.938314 
vn 0.267528 0.329554 0.905441 
vn 0.161782 0.337515 0.927314 
vn 0.370138 0.317729 0.872953 
vn 0.267528 0.329554 0.905441 
vn 0.468408 0.302179 0.83023 
vn 0.370138 0.317729 0.872953 
vn 0.561187 0.283086 0.777773 
vn 0.468408 0.302179 0.83023 
vn 0.647386 0.260675 0.716198 
vn 0.561187 0.283086 0.777773 
vn 0.725995 0.235207 0.646226 
vn 0.647386 0.260675 0.716198 
vn 0.796093 0.206982 0.568678 
vn 0.725995 0.235207 0.646226 
vn 0.856857 0.17633 0.484462 
vn 0.796093 0.206982 0.568678 
vn 0.907575 0.143611 0.394567 
vn 0.856857 0.17633 0.484462 
vn 0.947653 0.109208 0.300045 
vn 0.907575 0.143611 0.394567 
vn 0.976621 0.0735242 0.202006 
vn 0.947653 0.109208 0.300045 
vn 0.994138 0.0369789 0.101599 
vn 0.976621 0.0735242 0.202006 
vn 1 -4.18854e-17 -1.15079e-16 
vn 0.994138 0.0369789 0.101599 
vn 0.994138 -0.0369789 -0.101599 
vn 1 -4.18854e-17 -1.15079e-16 
vn 0.976621 -0.0735242 -0.202006 
vn 0.994138 -0.0369789 -0.101599 
vn 0.947653 -0.109208 -0.300045 
vn 0.976621 -0.0735242 -0.202006 
vn 0.907575 -0.143611 -0.394567 
vn 0.947653 -0.109208 -0.300045 
vn 0.856857 -0.17633 -0.484462 
vn 0.907575 -0.143611 -0.394567 
vn 0.796093 -0.206982 -0.568678 
vn 0.856857 -0.17633 -0.484462 
vn 0.725995 -0.235207 -0.646226 
vn 0.796093 -0.206982 -0.568678 
vn 0.647386 -0.260675 -0.716198 
vn 0.725995 -0.235207 -0.646226 
vn 0.561187 -0.283086 -0.777773 
vn 0.647386 -0.260675 -0.716198 
vn 0.468408 -0.302179 -0.83023 
vn 0.561187 -0.283086 -0.777773 
vn 0.370138 -0.317729 -0.872953 
vn 0.468408 -0.302179 -0.83023 
vn 0.267528 -0.329554 -0.905441 
vn 0.370138 -0.317729 -0.872953 
vn 0.161782 -0.337515 -0.927314 
vn 0.267528 -0.329554 -0.905441 
vn 0.0541389 -0.341519 -0.938314 
vn 0.161782 -0.337515 -0.927314 
vn -0.0541389 -0.341519 -0.938314 
vn 0.0541389 -0.341519 -0.938314 
vn -0.161782 -0.337515 -0.927314 
vn -0.0541389 -0.341519 -0.938314 
vn -0.267528 -0.329554 -0.905441 
vn -0.161782 -0.337515 -0.927314 
vn -0.370138 -0.317729 -0.872953 
vn -0.267528 -0.329554 -0.905441 
vn -0.468408 -0.302179 -0.83023 
vn -0.370138 -0.317729 -0.872953 
vn -0.561187 -0.283086 -0.777773 
vn -0.468408 -0.302179 -0.83023 
vn -0.647386 -0.260675 -0.716198 
vn -0.561187 -0.283086 -0.777773 
vn -0.725995 -0.235207 -0.646226 
vn -0.647386 -0.260675 -0.716198 
vn -0.796093 -0.206982 -0.568678 
vn -0.725995 -0.235207 -0.646226 
vn -0.856857 -0.17633 -0.484462 
vn -0.796093 -0.206982 -0.568678 
vn -0.907575 -0.143611 -0.394567 
vn -0.856857 -0.17633 -0.484462 
vn -0.947653 -0.109208 -0.300045 
vn -0.907575 -0.143611 -0.394567 
vn -0.976621 -0.0735242 -0.202006 
vn -0.947653 -0.109208 -0.300045 
vn -0.994138 -0.0369789 -0.101599 
vn -0.976621 -0.0735242 -0.202006 
vn -0.994138 -0.0369789 -0.101599 
f 605//605 606//606 607//607 
f 608//608 605//605 609//609 
f 610//610 608//608 611//611 
f 612//612 610//610 613//613 
f 614//614 612//612 615//615 
f 616//616 614//614 617//617 
f 618//618 616//616 619//619 
f 620//620 618//618 621//621 
f 622//622 620//620 623//623 
f 624//624 622//622 625//625 
f 626//626 624//624 627//627 
f 628//628 626//626 629//629 
f 630//630 628//628 631//631 
f 632//632 630//630 633//633 
f 634//634 632//632 635//635 
f 636//636 634//634 637//637 
f 638//638 636//636 639//639 
f 640//640 638//638 641//641 
f 642//642 640//640 643//643 
f 644//644 642//642 645//645 
f 646//646 644//644 647//647 
f 648//648 646//646 649//649 
f 650//650 648//648 651//651 
f 652//652 650//650 653//653 
f 654//654 652//652 655//655 
f 656//656 654//654 657//657 
f 658//658 656//656 659//659 
f 660//660 658//658 661//661 
f 662//662 660//660 663//663 
f 664//664 662//662 665//665 
f 666//666 664//664 667//667 
f 668//668 666//666 669//669 
f 670//670 668//668 671//671 
f 672//672 670//670 673//673 
f 674//674 672//672 675//675 
f 676//676 674//674 677//677 
f 678//678 676//676 679//679 
f 680//680 678//678 681//681 
f 682//682 680//680 683//683 
f 684//684 682//682 685//685 
f 686//686 684//684 687//687 
f 688//688 686//686 689//689 
f 690//690 688//688 691//691 
f 692//692 690//690 693//693 
f 694//694 692//692 695//695 
f 696//696 694//694 697//697 
f 698//698 696//696 699//699 
f 700//700 698//698 701//701 
f 702//702 700//700 703//703 
f 704//704 702//702 705//705 
f 706//706 704//704 707//707 
f 708//708 706//706 709//709 
f 710//710 708//708 711//711 
f 712//712 710//710 713//713 
f 714//714 712//712 715//715 
f 716//716 714//714 717//717 
f 718//718 716//716 719//719 
f 606//606 718//718 720//720 
f 720//720 607//607 606//606 
f 719//719 720//720 718//718 
f 717//717 719//719 716//716 
f 715//715 717//717 714//714 
f 713//713 715//715 712//712 
f 711//711 713//713 710//710 
f 709//709 711//711 708//708 
f 707//707 709//709 706//706 
f 705//705 707//707 704//704 
f 703//703 705//705 702//702 
f 701//701 703//703 700//700 
f 699//699 701//701 698//698 
f 697//697 699//699 696//696 
f 695//695 697//697 694//694 
f 693//693 695//695 692//692 
f 691//691 693//693 690//690 
f 689//689 691//691 688//688 
f 687//687 689//689 686//686 
f 685//685 687//687 684//684 
f 683//683 685//685 682//682 
f 681//681 683//683 680//680 
f 679//679 681//681 678//678 
f 677//677 679//679 676//676 
f 675//675 677//677 674//674 
f 673//673 675//675 672//672 
f 671//671 673//673 670//670 
f 669//669 671//671 668//668 
f 667//667 669//669 666//666 
f 665//665 667//667 664//664 
f 663//663 665//665 662//662 
f 661//661 663//663 660//660 
f 659//659 661//661 658//658 
f 657//657 659//659 656//656 
f 655//655 657//657 654//654 
f 653//653 655//655 652//652 
f 651//651 653//653 650//650 
f 649//649 651//651 648//648 
f 647//647 649//649 646//646 
f 645//645 647//647 644//644 
f 643//643 645//645 642//642 
f 641//641 643//643 640//640 
f 639//639 641//641 638//638 
f 637//637 639//639 636//636 
f 635//635 637//637 634//634 
f 633//633 635//635 632//632 
f 631//631 633//633 630//630 
f 629//629 631//631 628//628 
f 627//627 629//629 626//626 
f 625//625 627//627 624//624 
f 623//623 625//625 622//622 
f 621//621 623//623 620//620 
f 619//619 621//621 618//618 
f 617//617 619//619 616//616 
f 615//615 617//617 614//614 
f 613//613 615//615 612//612 
f 611//611 613//613 610//610 
f 609//609 611//611 608//608 
f 607//607 609//609 605//605 
o mesh8072
v 0.104836 0.185976 0.00533932 
v 0.104848 0.18605 0.00554252 
v 0.104848 0.200145 0.000412216 
v 0.104801 0.185903 0.00513851 
v 0.104836 0.200071 0.000209019 
v 0.104743 0.185831 0.00494243 
v 0.104801 0.199998 8.20361e-06 
v 0.104663 0.185763 0.00475338 
v 0.104743 0.199927 -0.000187875 
v 0.104561 0.185697 0.00457359 
v 0.104663 0.199858 -0.000376917 
v 0.10444 0.185636 0.00440516 
v 0.104561 0.199793 -0.000556708 
v 0.1043 0.185579 0.00425007 
v 0.10444 0.199731 -0.00072514 
v 0.104142 0.185528 0.00411012 
v 0.1043 0.199675 -0.000880236 
v 0.10397 0.185484 0.00398697 
v 0.104142 0.199624 -0.00102018 
v 0.103784 0.185445 0.00388206 
v 0.10397 0.199579 -0.00114333 
v 0.103588 0.185414 0.00379661 
v 0.103784 0.199541 -0.00124824 
v 0.103383 0.185391 0.00373164 
v 0.103588 0.19951 -0.00133369 
v 0.103171 0.185375 0.00368789 
v 0.103383 0.199486 -0.00139867 
v 0.102956 0.185367 0.00366589 
v 0.103171 0.19947 -0.00144241 
v 0.102739 0.185367 0.00366589 
v 0.102956 0.199462 -0.00146441 
v 0.102524 0.185375 0.00368789 
v 0.102739 0.199462 -0.00146441 
v 0.102313 0.185391 0.00373164 
v 0.102524 0.19947 -0.00144241 
v 0.102107 0.185414 0.00379661 
v 0.102313 0.199486 -0.00139867 
v 0.101911 0.185445 0.00388206 
v 0.102107 0.19951 -0.00133369 
v 0.101725 0.185484 0.00398697 
v 0.101911 0.199541 -0.00124824 
v 0.101553 0.185528 0.00411012 
v 0.101725 0.199579 -0.00114333 
v 0.101396 0.185579 0.00425007 
v 0.101553 0.199624 -0.00102018 
v 0.101255 0.185636 0.00440516 
v 0.101396 0.199675 -0.000880236 
v 0.101134 0.185697 0.00457359 
v 0.101255 0.199731 -0.00072514 
v 0.101033 0.185763 0.00475338 
v 0.101134 0.199793 -0.000556708 
v 0.100952 0.185831 0.00494243 
v 0.101033 0.199858 -0.000376917 
v 0.100894 0.185903 0.00513851 
v 0.100952 0.199927 -0.000187875 
v 0.100859 0.185976 0.00533932 
v 0.100894 0.199998 8.20361e-06 
v 0.100848 0.18605 0.00554252 
v 0.100859 0.200071 0.000209019 
v 0.100859 0.186124 0.00574572 
v 0.100848 0.200145 0.000412216 
v 0.100894 0.186197 0.00594653 
v 0.100859 0.200219 0.000615413 
v 0.100952 0.186268 0.00614261 
v 0.100894 0.200292 0.000816228 
v 0.101033 0.186337 0.00633165 
v 0.100952 0.200364 0.00101231 
v 0.101134 0.186403 0.00651144 
v 0.101033 0.200432 0.00120135 
v 0.101255 0.186464 0.00667987 
v 0.101134 0.200498 0.00138114 
v 0.101396 0.18652 0.00683497 
v 0.101255 0.200559 0.00154957 
v 0.101553 0.186571 0.00697491 
v 0.101396 0.200616 0.00170467 
v 0.101725 0.186616 0.00709806 
v 0.101553 0.200667 0.00184461 
v 0.101911 0.186654 0.00720298 
v 0.101725 0.200711 0.00196776 
v 0.102107 0.186685 0.00728842 
v 0.101911 0.20075 0.00207268 
v 0.102313 0.186709 0.0073534 
v 0.102107 0.200781 0.00215812 
v 0.102524 0.186725 0.00739715 
v 0.102313 0.200804 0.0022231 
v 0.102739 0.186733 0.00741915 
v 0.102524 0.20082 0.00226684 
v 0.102956 0.186733 0.00741915 
v 0.102739 0.200828 0.00228884 
v 0.103171 0.186725 0.00739715 
v 0.102956 0.200828 0.00228884 
v 0.103383 0.186709 0.0073534 
v 0.103171 0.20082 0.00226684 
v 0.103588 0.186685 0.00728842 
v 0.103383 0.200804 0.0022231 
v 0.103784 0.186654 0.00720298 
v 0.103588 0.200781 0.00215812 
v 0.10397 0.186616 0.00709806 
v 0.103784 0.20075 0.00207268 
v 0.104142 0.186571 0.00697491 
v 0.10397 0.200711 0.00196776 
v 0.1043 0.18652 0.00683497 
v 0.104142 0.200667 0.00184461 
v 0.10444 0.186464 0.00667987 
v 0.1043 0.200616 0.00170467 
v 0.104561 0.186403 0.00651144 
v 0.10444 0.200559 0.00154957 
v 0.104663 0.186337 0.00633165 
v 0.104561 0.200498 0.00138114 
v 0.104743 0.186268 0.00614261 
v 0.104663 0.200432 0.00120135 
v 0.104801 0.186197 0.00594653 
v 0.104743 0.200364 0.00101231 
v 0.104836 0.186124 0.00574572 
v 0.104801 0.200292 0.000816228 
v 0.104836 0.200219 0.000615413 
vn -0.994138 0.0369789 0.101599 
vn -1 8.37708e-17 2.30158e-16 
vn -1 8.37708e-17 2.30158e-16 
vn -0.976621 0.0735242 0.202006 
vn -0.994138 0.0369789 0.101599 
vn -0.947653 0.109208 0.300045 
vn -0.976621 0.0735242 0.202006 
vn -0.907575 0.143611 0.394567 
vn -0.947653 0.109208 0.300045 
vn -0.856857 0.17633 0.484462 
vn -0.907575 0.143611 0.394567 
vn -0.796093 0.206982 0.568678 
vn -0.856857 0.17633 0.484462 
vn -0.725995 0.235207 0.646226 
vn -0.796093 0.206982 0.568678 
vn -0.647386 0.260675 0.716198 
vn -0.725995 0.235207 0.646226 
vn -0.561187 0.283086 0.777773 
vn -0.647386 0.260675 0.716198 
vn -0.468408 0.302179 0.83023 
vn -0.561187 0.283086 0.777773 
vn -0.370138 0.317729 0.872953 
vn -0.468408 0.302179 0.83023 
vn -0.267528 0.329554 0.905441 
vn -0.370138 0.317729 0.872953 
vn -0.161782 0.337515 0.927314 
vn -0.267528 0.329554 0.905441 
vn -0.0541389 0.341519 0.938314 
vn -0.161782 0.337515 0.927314 
vn 0.0541389 0.341519 0.938314 
vn -0.0541389 0.341519 0.938314 
vn 0.161782 0.337515 0.927314 
vn 0.0541389 0.341519 0.938314 
vn 0.267528 0.329554 0.905441 
vn 0.161782 0.337515 0.927314 
vn 0.370138 0.317729 0.872953 
vn 0.267528 0.329554 0.905441 
vn 0.468408 0.302179 0.83023 
vn 0.370138 0.317729 0.872953 
vn 0.561187 0.283086 0.777773 
vn 0.468408 0.302179 0.83023 
vn 0.647386 0.260675 0.716198 
vn 0.561187 0.283086 0.777773 
vn 0.725995 0.235207 0.646226 
vn 0.647386 0.260675 0.716198 
vn 0.796093 0.206982 0.568678 
vn 0.725995 0.235207 0.646226 
vn 0.856857 0.17633 0.484462 
vn 0.796093 0.206982 0.568678 
vn 0.907575 0.143611 0.394567 
vn 0.856857 0.17633 0.484462 
vn 0.947653 0.109208 0.300045 
vn 0.907575 0.143611 0.394567 
vn 0.976621 0.0735242 0.202006 
vn 0.947653 0.109208 0.300045 
vn 0.994138 0.0369789 0.101599 
vn 0.976621 0.0735242 0.202006 
vn 1 -4.18854e-17 -1.15079e-16 
vn 0.994138 0.0369789 0.101599 
vn 0.994138 -0.0369789 -0.101599 
vn 1 -4.18854e-17 -1.15079e-16 
vn 0.976621 -0.0735242 -0.202006 
vn 0.994138 -0.0369789 -0.101599 
vn 0.947653 -0.109208 -0.300045 
vn 0.976621 -0.0735242 -0.202006 
vn 0.907575 -0.143611 -0.394567 
vn 0.947653 -0.109208 -0.300045 
vn 0.856857 -0.17633 -0.484462 
vn 0.907575 -0.143611 -0.394567 
vn 0.796093 -0.206982 -0.568678 
vn 0.856857 -0.17633 -0.484462 
vn 0.725995 -0.235207 -0.646226 
vn 0.796093 -0.206982 -0.568678 
vn 0.647386 -0.260675 -0.716198 
vn 0.725995 -0.235207 -0.646226 
vn 0.561187 -0.283086 -0.777773 
vn 0.647386 -0.260675 -0.716198 
vn 0.468408 -0.302179 -0.83023 
vn 0.561187 -0.283086 -0.777773 
vn 0.370138 -0.317729 -0.872953 
vn 0.468408 -0.302179 -0.83023 
vn 0.267528 -0.329554 -0.905441 
vn 0.370138 -0.317729 -0.872953 
vn 0.161782 -0.337515 -0.927314 
vn 0.267528 -0.329554 -0.905441 
vn 0.0541389 -0.341519 -0.938314 
vn 0.161782 -0.337515 -0.927314 
vn -0.0541389 -0.341519 -0.938314 
vn 0.0541389 -0.341519 -0.938314 
vn -0.161782 -0.337515 -0.927314 
vn -0.0541389 -0.341519 -0.938314 
vn -0.267528 -0.329554 -0.905441 
vn -0.161782 -0.337515 -0.927314 
vn -0.370138 -0.317729 -0.872953 
vn -0.267528 -0.329554 -0.905441 
vn -0.468408 -0.302179 -0.83023 
vn -0.370138 -0.317729 -0.872953 
vn -0.561187 -0.283086 -0.777773 
vn -0.468408 -0.302179 -0.83023 
vn -0.647386 -0.260675 -0.716198 
vn -0.561187 -0.283086 -0.777773 
vn -0.725995 -0.235207 -0.646226 
vn -0.647386 -0.260675 -0.716198 
vn -0.796093 -0.206982 -0.568678 
vn -0.725995 -0.235207 -0.646226 
vn -0.856857 -0.17633 -0.484462 
vn -0.796093 -0.206982 -0.568678 
vn -0.907575 -0.143611 -0.394567 
vn -0.856857 -0.17633 -0.484462 
vn -0.947653 -0.109208 -0.300045 
vn -0.907575 -0.143611 -0.394567 
vn -0.976621 -0.0735242 -0.202006 
vn -0.947653 -0.109208 -0.300045 
vn -0.994138 -0.0369789 -0.101599 
vn -0.976621 -0.0735242 -0.202006 
vn -0.994138 -0.0369789 -0.101599 
f 721//721 722//722 723//723 
f 724//724 721//721 725//725 
f 726//726 724//724 727//727 
f 728//728 726//726 729//729 
f 730//730 728//728 731//731 
f 732//732 730//730 733//733 
f 734//734 732//732 735//735 
f 736//736 734//734 737//737 
f 738//738 736//736 739//739 
f 740//740 738//738 741//741 
f 742//742 740//740 743//743 
f 744//744 742//742 745//745 
f 746//746 744//744 747//747 
f 748//748 746//746 749//749 
f 750//750 748//748 751//751 
f 752//752 750//750 753//753 
f 754//754 752//752 755//755 
f 756//756 754//754 757//757 
f 758//758 756//756 759//759 
f 760//760 758//758 761//761 
f 762//762 760//760 763//763 
f 764//764 762//762 765//765 
f 766//766 764//764 767//767 
f 768//768 766//766 769//769 
f 770//770 768//768 771//771 
f 772//772 770//770 773//773 
f 774//774 772//772 775//775 
f 776//776 774//774 777//777 
f 778//778 776//776 779//779 
f 780//780 778//778 781//781 
f 782//782 780//780 783//783 
f 784//784 782//782 785//785 
f 786//786 784//784 787//787 
f 788//788 786//786 789//789 
f 790//790 788//788 791//791 
f 792//792 790//790 793//793 
f 794//794 792//792 795//795 
f 796//796 794//794 797//797 
f 798//798 796//796 799//799 
f 800//800 798//798 801//801 
f 802//802 800//800 803//803 
f 804//804 802//802 805//805 
f 806//806 804//804 807//807 
f 808//808 806//806 809//809 
f 810//810 808//808 811//811 
f 812//812 810//810 813//813 
f 814//814 812//812 815//815 
f 816//816 814//814 817//817 
f 818//818 816//816 819//819 
f 820//820 818//818 821//821 
f 822//822 820//820 823//823 
f 824//824 822//822 825//825 
f 826//826 824//824 827//827 
f 828//828 826//826 829//829 
f 830//830 828//828 831//831 
f 832//832 830//830 833//833 
f 834//834 832//832 835//835 
f 722//722 834//834 836//836 
f 836//836 723//723 722//722 
f 835//835 836//836 834//834 
f 833//833 835//835 832//832 
f 831//831 833//833 830//830 
f 829//829 831//831 828//828 
f 827//827 829//829 826//826 
f 825//825 827//827 824//824 
f 823//823 825//825 822//822 
f 821//821 823//823 820//820 
f 819//819 821//821 818//818 
f 817//817 819//819 816//816 
f 815//815 817//817 814//814 
f 813//813 815//815 812//812 
f 811//811 813//813 810//810 
f 809//809 811//811 808//808 
f 807//807 809//809 806//806 
f 805//805 807//807 804//804 
f 803//803 805//805 802//802 
f 801//801 803//803 800//800 
f 799//799 801//801 798//798 
f 797//797 799//799 796//796 
f 795//795 797//797 794//794 
f 793//793 795//795 792//792 
f 791//791 793//793 790//790 
f 789//789 791//791 788//788 
f 787//787 789//789 786//786 
f 785//785 787//787 784//784 
f 783//783 785//785 782//782 
f 781//781 783//783 780//780 
f 779//779 781//781 778//778 
f 777//777 779//779 776//776 
f 775//775 777//777 774//774 
f 773//773 775//775 772//772 
f 771//771 773//773 770//770 
f 769//769 771//771 768//768 
f 767//767 769//769 766//766 
f 765//765 767//767 764//764 
f 763//763 765//765 762//762 
f 761//761 763//763 760//760 
f 759//759 761//761 758//758 
f 757//757 759//759 756//756 
f 755//755 757//757 754//754 
f 753//753 755//755 752//752 
f 751//751 753//753 750//750 
f 749//749 751//751 748//748 
f 747//747 749//749 746//746 
f 745//745 747//747 744//744 
f 743//743 745//745 742//742 
f 741//741 743//743 740//740 
f 739//739 741//741 738//738 
f 737//737 739//739 736//736 
f 735//735 737//737 734//734 
f 733//733 735//735 732//732 
f 731//731 733//733 730//730 
f 729//729 731//731 728//728 
f 727//727 729//729 726//726 
f 725//725 727//727 724//724 
f 723//723 725//725 721//721 
o mesh8073
v 0.0348359 0.228044 0.120922 
v 0.0348477 0.228118 0.121125 
v 0.0348477 0.242214 0.115994 
v 0.0348009 0.227971 0.120721 
v 0.0348359 0.24214 0.115791 
v 0.034743 0.2279 0.120525 
v 0.0348009 0.242067 0.11559 
v 0.0346628 0.227831 0.120336 
v 0.034743 0.241995 0.115394 
v 0.0345614 0.227766 0.120156 
v 0.0346628 0.241926 0.115205 
v 0.0344399 0.227704 0.119987 
v 0.0345614 0.241861 0.115025 
v 0.0342997 0.227648 0.119832 
v 0.0344399 0.2418 0.114857 
v 0.0341424 0.227597 0.119692 
v 0.0342997 0.241743 0.114702 
v 0.03397 0.227552 0.119569 
v 0.0341424 0.241692 0.114562 
v 0.0337845 0.227514 0.119464 
v 0.03397 0.241648 0.114439 
v 0.0335879 0.227483 0.119379 
v 0.0337845 0.241609 0.114334 
v 0.0333827 0.227459 0.119314 
v 0.0335879 0.241578 0.114249 
v 0.0331712 0.227443 0.11927 
v 0.0333827 0.241555 0.114184 
v 0.0329559 0.227435 0.119248 
v 0.0331712 0.241539 0.11414 
v 0.0327394 0.227435 0.119248 
v 0.0329559 0.241531 0.114118 
v 0.0325241 0.227443 0.11927 
v 0.0327394 0.241531 0.114118 
v 0.0323126 0.227459 0.119314 
v 0.0325241 0.241539 0.11414 
v 0.0321074 0.227483 0.119379 
v 0.0323126 0.241555 0.114184 
v 0.0319108 0.227514 0.119464 
v 0.0321074 0.241578 0.114249 
v 0.0317253 0.227552 0.119569 
v 0.0319108 0.241609 0.114334 
v 0.0315529 0.227597 0.119692 
v 0.0317253 0.241648 0.114439 
v 0.0313957 0.227648 0.119832 
v 0.0315529 0.241692 0.114562 
v 0.0312555 0.227704 0.119987 
v 0.0313957 0.241743 0.114702 
v 0.031134 0.227766 0.120156 
v 0.0312555 0.2418 0.114857 
v 0.0310325 0.227831 0.120336 
v 0.031134 0.241861 0.115025 
v 0.0309524 0.2279 0.120525 
v 0.0310325 0.241926 0.115205 
v 0.0308944 0.227971 0.120721 
v 0.0309524 0.241995 0.115394 
v 0.0308594 0.228044 0.120922 
v 0.0308944 0.242067 0.11559 
v 0.0308477 0.228118 0.121125 
v 0.0308594 0.24214 0.115791 
v 0.0308594 0.228192 0.121328 
v 0.0308477 0.242214 0.115994 
v 0.0308944 0.228265 0.121529 
v 0.0308594 0.242288 0.116198 
v 0.0309524 0.228337 0.121725 
v 0.0308944 0.242361 0.116398 
v 0.0310325 0.228406 0.121914 
v 0.0309524 0.242432 0.116594 
v 0.031134 0.228471 0.122094 
v 0.0310325 0.242501 0.116784 
v 0.0312555 0.228532 0.122262 
v 0.031134 0.242566 0.116963 
v 0.0313957 0.228589 0.122417 
v 0.0312555 0.242628 0.117132 
v 0.0315529 0.22864 0.122557 
v 0.0313957 0.242684 0.117287 
v 0.0317253 0.228684 0.12268 
v 0.0315529 0.242735 0.117427 
v 0.0319108 0.228723 0.122785 
v 0.0317253 0.24278 0.11755 
v 0.0321074 0.228754 0.122871 
v 0.0319108 0.242818 0.117655 
v 0.0323126 0.228777 0.122936 
v 0.0321074 0.242849 0.11774 
v 0.0325241 0.228793 0.122979 
v 0.0323126 0.242873 0.117805 
v 0.0327394 0.228801 0.123001 
v 0.0325241 0.242889 0.117849 
v 0.0329559 0.228801 0.123001 
v 0.0327394 0.242897 0.117871 
v 0.0331712 0.228793 0.122979 
v 0.0329559 0.242897 0.117871 
v 0.0333827 0.228777 0.122936 
v 0.0331712 0.242889 0.117849 
v 0.0335879 0.228754 0.122871 
v 0.0333827 0.242873 0.117805 
v 0.0337845 0.228723 0.122785 
v 0.0335879 0.242849 0.11774 
v 0.03397 0.228684 0.12268 
v 0.0337845 0.242818 0.117655 
v 0.0341424 0.22864 0.122557 
v 0.03397 0.24278 0.11755 
v 0.0342997 0.228589 0.122417 
v 0.0341424 0.242735 0.117427 
v 0.0344399 0.228532 0.122262 
v 0.0342997 0.242684 0.117287 
v 0.0345614 0.228471 0.122094 
v 0.0344399 0.242628 0.117132 
v 0.0346628 0.228406 0.121914 
v 0.0345614 0.242566 0.116963 
v 0.034743 0.228337 0.121725 
v 0.0346628 0.242501 0.116784 
v 0.0348009 0.228265 0.121529 
v 0.034743 0.242432 0.116594 
v 0.0348359 0.228192 0.121328 
v 0.0348009 0.242361 0.116398 
v 0.0348359 0.242288 0.116198 
vn -0.994138 0.0369789 0.101599 
vn -1 8.37708e-17 2.30158e-16 
vn -1 8.37708e-17 2.30158e-16 
vn -0.976621 0.0735242 0.202006 
vn -0.994138 0.0369789 0.101599 
vn -0.947653 0.109208 0.300045 
vn -0.976621 0.0735242 0.202006 
vn -0.907575 0.143611 0.394567 
vn -0.947653 0.109208 0.300045 
vn -0.856857 0.17633 0.484462 
vn -0.907575 0.143611 0.394567 
vn -0.796093 0.206982 0.568678 
vn -0.856857 0.17633 0.484462 
vn -0.725995 0.235207 0.646226 
vn -0.796093 0.206982 0.568678 
vn -0.647386 0.260675 0.716198 
vn -0.725995 0.235207 0.646226 
vn -0.561187 0.283086 0.777773 
vn -0.647386 0.260675 0.716198 
vn -0.468408 0.302179 0.83023 
vn -0.561187 0.283086 0.777773 
vn -0.370138 0.317729 0.872953 
vn -0.468408 0.302179 0.83023 
vn -0.267528 0.329554 0.905441 
vn -0.370138 0.317729 0.872953 
vn -0.161782 0.337515 0.927314 
vn -0.267528 0.329554 0.905441 
vn -0.0541389 0.341519 0.938314 
vn -0.161782 0.337515 0.927314 
vn 0.0541389 0.341519 0.938314 
vn -0.0541389 0.341519 0.938314 
vn 0.161782 0.337515 0.927314 
vn 0.0541389 0.341519 0.938314 
vn 0.267528 0.329554 0.905441 
vn 0.161782 0.337515 0.927314 
vn 0.370138 0.317729 0.872953 
vn 0.267528 0.329554 0.905441 
vn 0.468408 0.302179 0.83023 
vn 0.370138 0.317729 0.872953 
vn 0.561187 0.283086 0.777773 
vn 0.468408 0.302179 0.83023 
vn 0.647386 0.260675 0.716198 
vn 0.561187 0.283086 0.777773 
vn 0.725995 0.235207 0.646226 
vn 0.647386 0.260675 0.716198 
vn 0.796093 0.206982 0.568678 
vn 0.725995 0.235207 0.646226 
vn 0.856857 0.17633 0.484462 
vn 0.796093 0.206982 0.568678 
vn 0.907575 0.143611 0.394567 
vn 0.856857 0.17633 0.484462 
vn 0.947653 0.109208 0.300045 
vn 0.907575 0.143611 0.394567 
vn 0.976621 0.0735242 0.202006 
vn 0.947653 0.109208 0.300045 
vn 0.994138 0.0369789 0.101599 
vn 0.976621 0.0735242 0.202006 
vn 1 -4.18854e-17 -1.15079e-16 
vn 0.994138 0.0369789 0.101599 
vn 0.994138 -0.0369789 -0.101599 
vn 1 -4.18854e-17 -1.15079e-16 
vn 0.976621 -0.0735242 -0.202006 
vn 0.994138 -0.0369789 -0.101599 
vn 0.947653 -0.109208 -0.300045 
vn 0.976621 -0.0735242 -0.202006 
vn 0.907575 -0.143611 -0.394567 
vn 0.947653 -0.109208 -0.300045 
vn 0.856857 -0.17633 -0.484462 
vn 0.907575 -0.143611 -0.394567 
vn 0.796093 -0.206982 -0.568678 
vn 0.856857 -0.17633 -0.484462 
vn 0.725995 -0.235207 -0.646226 
vn 0.796093 -0.206982 -0.568678 
vn 0.647386 -0.260675 -0.716198 
vn 0.725995 -0.235207 -0.646226 
vn 0.561187 -0.283086 -0.777773 
vn 0.647386 -0.260675 -0.716198 
vn 0.468408 -0.302179 -0.83023 
vn 0.561187 -0.283086 -0.777773 
vn 0.370138 -0.317729 -0.872953 
vn 0.468408 -0.302179 -0.83023 
vn 0.267528 -0.329554 -0.905441 
vn 0.370138 -0.317729 -0.872953 
vn 0.161782 -0.337515 -0.927314 
vn 0.267528 -0.329554 -0.905441 
vn 0.0541389 -0.341519 -0.938314 
vn 0.161782 -0.337515 -0.927314 
vn -0.0541389 -0.341519 -0.938314 
vn 0.0541389 -0.341519 -0.938314 
vn -0.161782 -0.337515 -0.927314 
vn -0.0541389 -0.341519 -0.938314 
vn -0.267528 -0.329554 -0.905441 
vn -0.161782 -0.337515 -0.927314 
vn -0.370138 -0.317729 -0.872953 
vn -0.267528 -0.329554 -0.905441 
vn -0.468408 -0.302179 -0.83023 
vn -0.370138 -0.317729 -0.872953 
vn -0.561187 -0.283086 -0.777773 
vn -0.468408 -0.302179 -0.83023 
vn -0.647386 -0.260675 -0.716198 
vn -0.561187 -0.283086 -0.777773 
vn -0.725995 -0.235207 -0.646226 
vn -0.647386 -0.260675 -0.716198 
vn -0.796093 -0.206982 -0.568678 
vn -0.725995 -0.235207 -0.646226 
vn -0.856857 -0.17633 -0.484462 
vn -0.796093 -0.206982 -0.568678 
vn -0.907575 -0.143611 -0.394567 
vn -0.856857 -0.17633 -0.484462 
vn -0.947653 -0.109208 -0.300045 
vn -0.907575 -0.143611 -0.394567 
vn -0.976621 -0.0735242 -0.202006 
vn -0.947653 -0.109208 -0.300045 
vn -0.994138 -0.0369789 -0.101599 
vn -0.976621 -0.0735242 -0.202006 
vn -0.994138 -0.0369789 -0.101599 
f 837//837 838//838 839//839 
f 840//840 837//837 841//841 
f 842//842 840//840 843//843 
f 844//844 842//842 845//845 
f 846//846 844//844 847//847 
f 848//848 846//846 849//849 
f 850//850 848//848 851//851 
f 852//852 850//850 853//853 
f 854//854 852//852 855//855 
f 856//856 854//854 857//857 
f 858//858 856//856 859//859 
f 860//860 858//858 861//861 
f 862//862 860//860 863//863 
f 864//864 862//862 865//865 
f 866//866 864//864 867//867 
f 868//868 866//866 869//869 
f 870//870 868//868 871//871 
f 872//872 870//870 873//873 
f 874//874 872//872 875//875 
f 876//876 874//874 877//877 
f 878//878 876//876 879//879 
f 880//880 878//878 881//881 
f 882//882 880//880 883//883 
f 884//884 882//882 885//885 
f 886//886 884//884 887//887 
f 888//888 886//886 889//889 
f 890//890 888//888 891//891 
f 892//892 890//890 893//893 
f 894//894 892//892 895//895 
f 896//896 894//894 897//897 
f 898//898 896//896 899//899 
f 900//900 898//898 901//901 
f 902//902 900//900 903//903 
f 904//904 902//902 905//905 
f 906//906 904//904 907//907 
f 908//908 906//906 909//909 
f 910//910 908//908 911//911 
f 912//912 910//910 913//913 
f 914//914 912//912 915//915 
f 916//916 914//914 917//917 
f 918//918 916//916 919//919 
f 920//920 918//918 921//921 
f 922//922 920//920 923//923 
f 924//924 922//922 925//925 
f 926//926 924//924 927//927 
f 928//928 926//926 929//929 
f 930//930 928//928 931//931 
f 932//932 930//930 933//933 
f 934//934 932//932 935//935 
f 936//936 934//934 937//937 
f 938//938 936//936 939//939 
f 940//940 938//938 941//941 
f 942//942 940//940 943//943 
f 944//944 942//942 945//945 
f 946//946 944//944 947//947 
f 948//948 946//946 949//949 
f 950//950 948//948 951//951 
f 838//838 950//950 952//952 
f 952//952 839//839 838//838 
f 951//951 952//952 950//950 
f 949//949 951//951 948//948 
f 947//947 949//949 946//946 
f 945//945 947//947 944//944 
f 943//943 945//945 942//942 
f 941//941 943//943 940//940 
f 939//939 941//941 938//938 
f 937//937 939//939 936//936 
f 935//935 937//937 934//934 
f 933//933 935//935 932//932 
f 931//931 933//933 930//930 
f 929//929 931//931 928//928 
f 927//927 929//929 926//926 
f 925//925 927//927 924//924 
f 923//923 925//925 922//922 
f 921//921 923//923 920//920 
f 919//919 921//921 918//918 
f 917//917 919//919 916//916 
f 915//915 917//917 914//914 
f 913//913 915//915 912//912 
f 911//911 913//913 910//910 
f 909//909 911//911 908//908 
f 907//907 909//909 906//906 
f 905//905 907//907 904//904 
f 903//903 905//905 902//902 
f 901//901 903//903 900//900 
f 899//899 901//901 898//898 
f 897//897 899//899 896//896 
f 895//895 897//897 894//894 
f 893//893 895//895 892//892 
f 891//891 893//893 890//890 
f 889//889 891//891 888//888 
f 887//887 889//889 886//886 
f 885//885 887//887 884//884 
f 883//883 885//885 882//882 
f 881//881 883//883 880//880 
f 879//879 881//881 878//878 
f 877//877 879//879 876//876 
f 875//875 877//877 874//874 
f 873//873 875//875 872//872 
f 871//871 873//873 870//870 
f 869//869 871//871 868//868 
f 867//867 869//869 866//866 
f 865//865 867//867 864//864 
f 863//863 865//865 862//862 
f 861//861 863//863 860//860 
f 859//859 861//861 858//858 
f 857//857 859//859 856//856 
f 855//855 857//857 854//854 
f 853//853 855//855 852//852 
f 851//851 853//853 850//850 
f 849//849 851//851 848//848 
f 847//847 849//849 846//846 
f 845//845 847//847 844//844 
f 843//843 845//845 842//842 
f 841//841 843//843 840//840 
f 839//839 841//841 837//837 
