# OBJ generated by ONSHAPE BY PTC INC, 1.215 Units = meters
mtllib Exc_Shaft.mtl
g Exc_Shaft
usemtl 0.796078_0.823529_0.937255_0.000000_0.000000
o mesh28537
v 0.00404145 1.06726e-19 0.34 
v 0.00404145 1.06726e-19 0 
v 0.00202073 0.0035 0 
v 0.00202073 0.0035 0.34 
vn 0.866025 0.5 0 
vn 0.866025 0.5 0 
vn 0.866025 0.5 0 
vn 0.866025 0.5 0 
f 1//1 2//2 3//3 
f 3//3 4//4 1//1 
o mesh28538
v 0.00202073 0.0035 0.34 
v 0.00202073 0.0035 0 
v -0.00202073 0.0035 0 
v -0.00202073 0.0035 0.34 
vn 1.07308e-16 1 0 
vn 1.07308e-16 1 0 
vn 1.07308e-16 1 0 
vn 1.07308e-16 1 0 
f 5//5 6//6 7//7 
f 7//7 8//8 5//5 
o mesh28539
v -0.00202073 0.0035 0.34 
v -0.00202073 0.0035 0 
v -0.00404145 3.02899e-18 0 
v -0.00404145 3.02899e-18 0.34 
vn -0.866025 0.5 0 
vn -0.866025 0.5 0 
vn -0.866025 0.5 0 
vn -0.866025 0.5 0 
f 9//9 10//10 11//11 
f 11//11 12//12 9//9 
o mesh28540
v 0.00202073 -0.0035 0.34 
v -0.00202073 0.0035 0.34 
v -0.00404145 3.02899e-18 0.34 
v 0.00404145 1.06726e-19 0.34 
v 0.00202073 0.0035 0.34 
v -0.00202073 -0.0035 0.34 
vn 0 0 1 
vn 0 0 1 
vn 0 0 1 
vn 0 0 1 
vn 0 0 1 
vn 0 0 1 
f 13//13 14//14 15//15 
f 14//14 13//13 16//16 
f 16//16 17//17 14//14 
f 15//15 18//18 13//13 
o mesh28541
v -0.00404145 3.02899e-18 0 
v 0.00404145 1.06726e-19 0 
v 0.00202073 -0.0035 0 
v -0.00202073 0.0035 0 
v 0.00202073 0.0035 0 
v -0.00202073 -0.0035 0 
vn 0 0 -1 
vn 0 0 -1 
vn 0 0 -1 
vn 0 0 -1 
vn 0 0 -1 
vn 0 0 -1 
f 19//19 20//20 21//21 
f 20//20 19//19 22//22 
f 22//22 23//23 20//20 
f 21//21 24//24 19//19 
o mesh28542
v -0.00404145 3.02899e-18 0.34 
v -0.00404145 3.02899e-18 0 
v -0.00202073 -0.0035 0 
v -0.00202073 -0.0035 0.34 
vn -0.866025 -0.5 0 
vn -0.866025 -0.5 0 
vn -0.866025 -0.5 0 
vn -0.866025 -0.5 0 
f 25//25 26//26 27//27 
f 27//27 28//28 25//25 
o mesh28543
v -0.00202073 -0.0035 0.34 
v -0.00202073 -0.0035 0 
v 0.00202073 -0.0035 0 
v 0.00202073 -0.0035 0.34 
vn -2.14616e-16 -1 0 
vn -2.14616e-16 -1 0 
vn -2.14616e-16 -1 0 
vn -2.14616e-16 -1 0 
f 29//29 30//30 31//31 
f 31//31 32//32 29//29 
o mesh28544
v 0.00202073 -0.0035 0.34 
v 0.00202073 -0.0035 0 
v 0.00404145 1.06726e-19 0 
v 0.00404145 1.06726e-19 0.34 
vn 0.866025 -0.5 0 
vn 0.866025 -0.5 0 
vn 0.866025 -0.5 0 
vn 0.866025 -0.5 0 
f 33//33 34//34 35//35 
f 35//35 36//36 33//33 
