# OBJ generated by ONSHAPE BY PTC INC, 1.215 Units = meters
mtllib Exc_Conveyor_belt.mtl
g Exc_Conveyor belt
usemtl 0.301961_0.301961_0.301961_0.000000_0.000000
o mesh28082
v -3.17637e-24 0.0415 0.29 
v -3.17637e-24 0.0415 0 
v -0.2 0.0415 0 
v -0.2 0.0415 0.29 
vn 3.46945e-17 1 0 
vn 3.46945e-17 1 0 
vn 3.46945e-17 1 0 
vn 3.46945e-17 1 0 
f 1//1 2//2 3//3 
f 3//3 4//4 1//1 
o mesh28083
v -0.2 -0.0415 0 
v -0.2 -0.0415 0.29 
v -0.204487 -0.0412567 0.29 
v -0.204487 -0.0412567 0 
v -0.208921 -0.0405298 0.29 
v -0.208921 -0.0405298 0 
v -0.213251 -0.0393276 0.29 
v -0.213251 -0.0393276 0 
v -0.217425 -0.0376644 0.29 
v -0.217425 -0.0376644 0 
v -0.221395 -0.0355596 0.29 
v -0.221395 -0.0355596 0 
v -0.225115 -0.0330379 0.29 
v -0.225115 -0.0330379 0 
v -0.22854 -0.0301288 0.29 
v -0.22854 -0.0301288 0 
v -0.23163 -0.0268665 0.29 
v -0.23163 -0.0268665 0 
v -0.234349 -0.0232893 0.29 
v -0.234349 -0.0232893 0 
v -0.236666 -0.019439 0.29 
v -0.236666 -0.019439 0 
v -0.238553 -0.0153607 0.29 
v -0.238553 -0.0153607 0 
v -0.239987 -0.0111024 0.29 
v -0.239987 -0.0111024 0 
v -0.240953 -0.00671395 0.29 
v -0.240953 -0.00671395 0 
v -0.241439 -0.00224676 0.29 
v -0.241439 -0.00224676 0 
v -0.241439 0.00224676 0.29 
v -0.241439 0.00224676 0 
v -0.240953 0.00671395 0.29 
v -0.240953 0.00671395 0 
v -0.239987 0.0111024 0.29 
v -0.239987 0.0111024 0 
v -0.238553 0.0153607 0.29 
v -0.238553 0.0153607 0 
v -0.236666 0.019439 0.29 
v -0.236666 0.019439 0 
v -0.234349 0.0232893 0.29 
v -0.234349 0.0232893 0 
v -0.23163 0.0268665 0.29 
v -0.23163 0.0268665 0 
v -0.22854 0.0301288 0.29 
v -0.22854 0.0301288 0 
v -0.225115 0.0330379 0.29 
v -0.225115 0.0330379 0 
v -0.221395 0.0355596 0.29 
v -0.221395 0.0355596 0 
v -0.217425 0.0376644 0.29 
v -0.217425 0.0376644 0 
v -0.213251 0.0393276 0.29 
v -0.213251 0.0393276 0 
v -0.208921 0.0405298 0.29 
v -0.208921 0.0405298 0 
v -0.204487 0.0412567 0.29 
v -0.204487 0.0412567 0 
v -0.2 0.0415 0.29 
v -0.2 0.0415 0 
vn 1.83697e-16 -1 0 
vn 1.83697e-16 -1 0 
vn -0.108119 -0.994138 0 
vn -0.108119 -0.994138 0 
vn -0.21497 -0.976621 0 
vn -0.21497 -0.976621 0 
vn -0.319302 -0.947653 0 
vn -0.319302 -0.947653 0 
vn -0.419889 -0.907575 0 
vn -0.419889 -0.907575 0 
vn -0.515554 -0.856857 0 
vn -0.515554 -0.856857 0 
vn -0.605174 -0.796093 0 
vn -0.605174 -0.796093 0 
vn -0.687699 -0.725995 0 
vn -0.687699 -0.725995 0 
vn -0.762162 -0.647386 0 
vn -0.762162 -0.647386 0 
vn -0.827689 -0.561187 0 
vn -0.827689 -0.561187 0 
vn -0.883512 -0.468408 0 
vn -0.883512 -0.468408 0 
vn -0.928977 -0.370138 0 
vn -0.928977 -0.370138 0 
vn -0.96355 -0.267528 0 
vn -0.96355 -0.267528 0 
vn -0.986827 -0.161782 0 
vn -0.986827 -0.161782 0 
vn -0.998533 -0.0541389 0 
vn -0.998533 -0.0541389 0 
vn -0.998533 0.0541389 0 
vn -0.998533 0.0541389 0 
vn -0.986827 0.161782 0 
vn -0.986827 0.161782 0 
vn -0.96355 0.267528 0 
vn -0.96355 0.267528 0 
vn -0.928977 0.370138 0 
vn -0.928977 0.370138 0 
vn -0.883512 0.468408 0 
vn -0.883512 0.468408 0 
vn -0.827689 0.561187 0 
vn -0.827689 0.561187 0 
vn -0.762162 0.647386 0 
vn -0.762162 0.647386 0 
vn -0.687699 0.725995 0 
vn -0.687699 0.725995 0 
vn -0.605174 0.796093 0 
vn -0.605174 0.796093 0 
vn -0.515554 0.856857 0 
vn -0.515554 0.856857 0 
vn -0.419889 0.907575 0 
vn -0.419889 0.907575 0 
vn -0.319302 0.947653 0 
vn -0.319302 0.947653 0 
vn -0.21497 0.976621 0 
vn -0.21497 0.976621 0 
vn -0.108119 0.994138 0 
vn -0.108119 0.994138 0 
vn -3.06162e-16 1 0 
vn -3.06162e-16 1 0 
f 5//5 6//6 7//7 
f 8//8 7//7 9//9 
f 10//10 9//9 11//11 
f 12//12 11//11 13//13 
f 14//14 13//13 15//15 
f 16//16 15//15 17//17 
f 18//18 17//17 19//19 
f 20//20 19//19 21//21 
f 22//22 21//21 23//23 
f 24//24 23//23 25//25 
f 26//26 25//25 27//27 
f 28//28 27//27 29//29 
f 30//30 29//29 31//31 
f 32//32 31//31 33//33 
f 34//34 33//33 35//35 
f 36//36 35//35 37//37 
f 38//38 37//37 39//39 
f 40//40 39//39 41//41 
f 42//42 41//41 43//43 
f 44//44 43//43 45//45 
f 46//46 45//45 47//47 
f 48//48 47//47 49//49 
f 50//50 49//49 51//51 
f 52//52 51//51 53//53 
f 54//54 53//53 55//55 
f 56//56 55//55 57//57 
f 58//58 57//57 59//59 
f 60//60 59//59 61//61 
f 62//62 61//61 63//63 
f 63//63 64//64 62//62 
f 61//61 62//62 60//60 
f 59//59 60//60 58//58 
f 57//57 58//58 56//56 
f 55//55 56//56 54//54 
f 53//53 54//54 52//52 
f 51//51 52//52 50//50 
f 49//49 50//50 48//48 
f 47//47 48//48 46//46 
f 45//45 46//46 44//44 
f 43//43 44//44 42//42 
f 41//41 42//42 40//40 
f 39//39 40//40 38//38 
f 37//37 38//38 36//36 
f 35//35 36//36 34//34 
f 33//33 34//34 32//32 
f 31//31 32//32 30//30 
f 29//29 30//30 28//28 
f 27//27 28//28 26//26 
f 25//25 26//26 24//24 
f 23//23 24//24 22//22 
f 21//21 22//22 20//20 
f 19//19 20//20 18//18 
f 17//17 18//18 16//16 
f 15//15 16//16 14//14 
f 13//13 14//14 12//12 
f 11//11 12//12 10//10 
f 9//9 10//10 8//8 
f 7//7 8//8 5//5 
o mesh28084
v -0.2 -0.0415 0.29 
v -0.2 -0.0415 0 
v 3.17637e-24 -0.0415 0 
v 3.17637e-24 -0.0415 0.29 
vn -3.46945e-17 -1 0 
vn -3.46945e-17 -1 0 
vn -3.46945e-17 -1 0 
vn -3.46945e-17 -1 0 
f 65//65 66//66 67//67 
f 67//67 68//68 65//65 
o mesh28085
v -3.17637e-24 0.0415 0 
v -3.17637e-24 0.0415 0.29 
v 0.00448694 0.0412567 0.29 
v 0.00448694 0.0412567 0 
v 0.00892127 0.0405298 0.29 
v 0.00892127 0.0405298 0 
v 0.013251 0.0393276 0.29 
v 0.013251 0.0393276 0 
v 0.0174254 0.0376644 0.29 
v 0.0174254 0.0376644 0 
v 0.0213955 0.0355596 0.29 
v 0.0213955 0.0355596 0 
v 0.0251147 0.0330379 0.29 
v 0.0251147 0.0330379 0 
v 0.0285395 0.0301288 0.29 
v 0.0285395 0.0301288 0 
v 0.0316297 0.0268665 0.29 
v 0.0316297 0.0268665 0 
v 0.0343491 0.0232893 0.29 
v 0.0343491 0.0232893 0 
v 0.0366657 0.019439 0.29 
v 0.0366657 0.019439 0 
v 0.0385525 0.0153607 0.29 
v 0.0385525 0.0153607 0 
v 0.0399873 0.0111024 0.29 
v 0.0399873 0.0111024 0 
v 0.0409533 0.00671395 0.29 
v 0.0409533 0.00671395 0 
v 0.0414391 0.00224676 0.29 
v 0.0414391 0.00224676 0 
v 0.0414391 -0.00224676 0.29 
v 0.0414391 -0.00224676 0 
v 0.0409533 -0.00671395 0.29 
v 0.0409533 -0.00671395 0 
v 0.0399873 -0.0111024 0.29 
v 0.0399873 -0.0111024 0 
v 0.0385525 -0.0153607 0.29 
v 0.0385525 -0.0153607 0 
v 0.0366657 -0.019439 0.29 
v 0.0366657 -0.019439 0 
v 0.0343491 -0.0232893 0.29 
v 0.0343491 -0.0232893 0 
v 0.0316297 -0.0268665 0.29 
v 0.0316297 -0.0268665 0 
v 0.0285395 -0.0301288 0.29 
v 0.0285395 -0.0301288 0 
v 0.0251147 -0.0330379 0.29 
v 0.0251147 -0.0330379 0 
v 0.0213955 -0.0355596 0.29 
v 0.0213955 -0.0355596 0 
v 0.0174254 -0.0376644 0.29 
v 0.0174254 -0.0376644 0 
v 0.013251 -0.0393276 0.29 
v 0.013251 -0.0393276 0 
v 0.00892127 -0.0405298 0.29 
v 0.00892127 -0.0405298 0 
v 0.00448694 -0.0412567 0.29 
v 0.00448694 -0.0412567 0 
v 3.17637e-24 -0.0415 0.29 
v 3.17637e-24 -0.0415 0 
vn -3.06162e-16 1 0 
vn -3.06162e-16 1 0 
vn 0.108119 0.994138 0 
vn 0.108119 0.994138 0 
vn 0.21497 0.976621 0 
vn 0.21497 0.976621 0 
vn 0.319302 0.947653 0 
vn 0.319302 0.947653 0 
vn 0.419889 0.907575 0 
vn 0.419889 0.907575 0 
vn 0.515554 0.856857 0 
vn 0.515554 0.856857 0 
vn 0.605174 0.796093 0 
vn 0.605174 0.796093 0 
vn 0.687699 0.725995 0 
vn 0.687699 0.725995 0 
vn 0.762162 0.647386 0 
vn 0.762162 0.647386 0 
vn 0.827689 0.561187 0 
vn 0.827689 0.561187 0 
vn 0.883512 0.468408 0 
vn 0.883512 0.468408 0 
vn 0.928977 0.370138 0 
vn 0.928977 0.370138 0 
vn 0.96355 0.267528 0 
vn 0.96355 0.267528 0 
vn 0.986827 0.161782 0 
vn 0.986827 0.161782 0 
vn 0.998533 0.0541389 0 
vn 0.998533 0.0541389 0 
vn 0.998533 -0.0541389 0 
vn 0.998533 -0.0541389 0 
vn 0.986827 -0.161782 0 
vn 0.986827 -0.161782 0 
vn 0.96355 -0.267528 0 
vn 0.96355 -0.267528 0 
vn 0.928977 -0.370138 0 
vn 0.928977 -0.370138 0 
vn 0.883512 -0.468408 0 
vn 0.883512 -0.468408 0 
vn 0.827689 -0.561187 0 
vn 0.827689 -0.561187 0 
vn 0.762162 -0.647386 0 
vn 0.762162 -0.647386 0 
vn 0.687699 -0.725995 0 
vn 0.687699 -0.725995 0 
vn 0.605174 -0.796093 0 
vn 0.605174 -0.796093 0 
vn 0.515554 -0.856857 0 
vn 0.515554 -0.856857 0 
vn 0.419889 -0.907575 0 
vn 0.419889 -0.907575 0 
vn 0.319302 -0.947653 0 
vn 0.319302 -0.947653 0 
vn 0.21497 -0.976621 0 
vn 0.21497 -0.976621 0 
vn 0.108119 -0.994138 0 
vn 0.108119 -0.994138 0 
vn 1.83697e-16 -1 0 
vn 1.83697e-16 -1 0 
f 69//69 70//70 71//71 
f 72//72 71//71 73//73 
f 74//74 73//73 75//75 
f 76//76 75//75 77//77 
f 78//78 77//77 79//79 
f 80//80 79//79 81//81 
f 82//82 81//81 83//83 
f 84//84 83//83 85//85 
f 86//86 85//85 87//87 
f 88//88 87//87 89//89 
f 90//90 89//89 91//91 
f 92//92 91//91 93//93 
f 94//94 93//93 95//95 
f 96//96 95//95 97//97 
f 98//98 97//97 99//99 
f 100//100 99//99 101//101 
f 102//102 101//101 103//103 
f 104//104 103//103 105//105 
f 106//106 105//105 107//107 
f 108//108 107//107 109//109 
f 110//110 109//109 111//111 
f 112//112 111//111 113//113 
f 114//114 113//113 115//115 
f 116//116 115//115 117//117 
f 118//118 117//117 119//119 
f 120//120 119//119 121//121 
f 122//122 121//121 123//123 
f 124//124 123//123 125//125 
f 126//126 125//125 127//127 
f 127//127 128//128 126//126 
f 125//125 126//126 124//124 
f 123//123 124//124 122//122 
f 121//121 122//122 120//120 
f 119//119 120//120 118//118 
f 117//117 118//118 116//116 
f 115//115 116//116 114//114 
f 113//113 114//114 112//112 
f 111//111 112//112 110//110 
f 109//109 110//110 108//108 
f 107//107 108//108 106//106 
f 105//105 106//106 104//104 
f 103//103 104//104 102//102 
f 101//101 102//102 100//100 
f 99//99 100//100 98//98 
f 97//97 98//98 96//96 
f 95//95 96//96 94//94 
f 93//93 94//94 92//92 
f 91//91 92//92 90//90 
f 89//89 90//90 88//88 
f 87//87 88//88 86//86 
f 85//85 86//86 84//84 
f 83//83 84//84 82//82 
f 81//81 82//82 80//80 
f 79//79 80//80 78//78 
f 77//77 78//78 76//76 
f 75//75 76//76 74//74 
f 73//73 74//74 72//72 
f 71//71 72//72 69//69 
o mesh28086
v -0.204487 -0.0412567 0.29 
v -0.2 -0.0415 0.29 
v -0.2 -0.04 0.29 
v 3.17637e-24 -0.0415 0.29 
v -1.85829e-24 -0.04 0.29 
v 0.0174254 -0.0376644 0.29 
v 0.0167956 -0.036303 0.29 
v 0.0127721 -0.0379061 0.29 
v 0.0213955 -0.0355596 0.29 
v 0.0206222 -0.0342743 0.29 
v 0.0409533 -0.00671395 0.29 
v 0.0394731 -0.00647128 0.29 
v 0.038542 -0.0107011 0.29 
v 0.0414391 -0.00224676 0.29 
v 0.0399413 -0.00216556 0.29 
v -0.2 0.04 0.29 
v 0 0.04 0.29 
v -3.17637e-24 0.0415 0.29 
v -0.204487 0.0412567 0.29 
v -0.204325 0.0397655 0.29 
v 0.00448694 -0.0412567 0.29 
v 0.00432476 -0.0397655 0.29 
v 0.00892127 -0.0405298 0.29 
v 0.013251 -0.0393276 0.29 
v 0.0251147 -0.0330379 0.29 
v 0.024207 -0.0318437 0.29 
v 0.0285395 -0.0301288 0.29 
v 0.027508 -0.0290398 0.29 
v 0.0385525 -0.0153607 0.29 
v 0.0371591 -0.0148055 0.29 
v 0.0353405 -0.0187363 0.29 
v 0.0399873 -0.0111024 0.29 
v 0.0414391 0.00224676 0.29 
v 0.0399413 0.00216556 0.29 
v 0.0366657 0.019439 0.29 
v 0.0353405 0.0187363 0.29 
v 0.0371591 0.0148055 0.29 
v 0.0343491 0.0232893 0.29 
v 0.0331076 0.0224475 0.29 
v 0.0251147 0.0330379 0.29 
v 0.024207 0.0318437 0.29 
v 0.027508 0.0290398 0.29 
v 0.0213955 0.0355596 0.29 
v 0.0206222 0.0342743 0.29 
v 0.00448694 0.0412567 0.29 
v -0.2 0.0415 0.29 
v 0.00859882 -0.0390648 0.29 
v 0.0316297 -0.0268665 0.29 
v 0.0304865 -0.0258955 0.29 
v 0.0343491 -0.0232893 0.29 
v 0.0331076 -0.0224475 0.29 
v 0.0316297 0.0268665 0.29 
v 0.0304865 0.0258955 0.29 
v 0.0174254 0.0376644 0.29 
v 0.0167956 0.036303 0.29 
v 0.00432476 0.0397655 0.29 
v 0.00859882 0.0390648 0.29 
v -0.213251 -0.0393276 0.29 
v -0.212772 -0.0379061 0.29 
v -0.216796 -0.036303 0.29 
v -0.208921 -0.0405298 0.29 
v -0.208599 -0.0390648 0.29 
v -0.204325 -0.0397655 0.29 
v 0.0366657 -0.019439 0.29 
v 0.0285395 0.0301288 0.29 
v 0.013251 0.0393276 0.29 
v 0.0127721 0.0379061 0.29 
v 0.00892127 0.0405298 0.29 
v -0.208921 0.0405298 0.29 
v -0.208599 0.0390648 0.29 
v -0.213251 0.0393276 0.29 
v -0.212772 0.0379061 0.29 
v -0.239987 0.0111024 0.29 
v -0.238542 0.0107011 0.29 
v -0.237159 0.0148055 0.29 
v -0.240953 0.00671395 0.29 
v -0.239473 0.00647128 0.29 
v -0.217425 0.0376644 0.29 
v -0.221395 0.0355596 0.29 
v -0.220622 0.0342743 0.29 
v -0.225115 0.0330379 0.29 
v -0.224207 0.0318437 0.29 
v -0.241439 0.00224676 0.29 
v -0.239941 0.00216556 0.29 
v -0.239987 -0.0111024 0.29 
v -0.238542 -0.0107011 0.29 
v -0.239473 -0.00647128 0.29 
v -0.238553 -0.0153607 0.29 
v -0.237159 -0.0148055 0.29 
v -0.236666 -0.019439 0.29 
v -0.23534 -0.0187363 0.29 
v -0.234349 -0.0232893 0.29 
v -0.233108 -0.0224475 0.29 
v 0.0399873 0.0111024 0.29 
v 0.038542 0.0107011 0.29 
v 0.0394731 0.00647128 0.29 
v 0.0385525 0.0153607 0.29 
v -0.216796 0.036303 0.29 
v -0.234349 0.0232893 0.29 
v -0.233108 0.0224475 0.29 
v -0.230486 0.0258955 0.29 
v -0.236666 0.019439 0.29 
v -0.23534 0.0187363 0.29 
v -0.241439 -0.00224676 0.29 
v -0.239941 -0.00216556 0.29 
v -0.240953 -0.00671395 0.29 
v -0.23163 -0.0268665 0.29 
v -0.230486 -0.0258955 0.29 
v -0.225115 -0.0330379 0.29 
v -0.224207 -0.0318437 0.29 
v -0.227508 -0.0290398 0.29 
v -0.221395 -0.0355596 0.29 
v -0.220622 -0.0342743 0.29 
v -0.217425 -0.0376644 0.29 
v 0.0409533 0.00671395 0.29 
v -0.238553 0.0153607 0.29 
v -0.22854 -0.0301288 0.29 
v -0.22854 0.0301288 0.29 
v -0.227508 0.0290398 0.29 
v -0.23163 0.0268665 0.29 
vn 0 0 1 
vn 0 0 1 
vn 0 0 1 
vn 0 0 1 
vn 0 0 1 
vn 0 0 1 
vn 0 0 1 
vn 0 0 1 
vn 0 0 1 
vn 0 0 1 
vn 0 0 1 
vn 0 0 1 
vn 0 0 1 
vn 0 0 1 
vn 0 0 1 
vn 0 0 1 
vn 0 0 1 
vn 0 0 1 
vn 0 0 1 
vn 0 0 1 
vn 0 0 1 
vn 0 0 1 
vn 0 0 1 
vn 0 0 1 
vn 0 0 1 
vn 0 0 1 
vn 0 0 1 
vn 0 0 1 
vn 0 0 1 
vn 0 0 1 
vn 0 0 1 
vn 0 0 1 
vn 0 0 1 
vn 0 0 1 
vn 0 0 1 
vn 0 0 1 
vn 0 0 1 
vn 0 0 1 
vn 0 0 1 
vn 0 0 1 
vn 0 0 1 
vn 0 0 1 
vn 0 0 1 
vn 0 0 1 
vn 0 0 1 
vn 0 0 1 
vn 0 0 1 
vn 0 0 1 
vn 0 0 1 
vn 0 0 1 
vn 0 0 1 
vn 0 0 1 
vn 0 0 1 
vn 0 0 1 
vn 0 0 1 
vn 0 0 1 
vn 0 0 1 
vn 0 0 1 
vn 0 0 1 
vn 0 0 1 
vn 0 0 1 
vn 0 0 1 
vn 0 0 1 
vn 0 0 1 
vn 0 0 1 
vn 0 0 1 
vn 0 0 1 
vn 0 0 1 
vn 0 0 1 
vn 0 0 1 
vn 0 0 1 
vn 0 0 1 
vn 0 0 1 
vn 0 0 1 
vn 0 0 1 
vn 0 0 1 
vn 0 0 1 
vn 0 0 1 
vn 0 0 1 
vn 0 0 1 
vn 0 0 1 
vn 0 0 1 
vn 0 0 1 
vn 0 0 1 
vn 0 0 1 
vn 0 0 1 
vn 0 0 1 
vn 0 0 1 
vn 0 0 1 
vn 0 0 1 
vn 0 0 1 
vn 0 0 1 
vn 0 0 1 
vn 0 0 1 
vn 0 0 1 
vn 0 0 1 
vn 0 0 1 
vn 0 0 1 
vn 0 0 1 
vn 0 0 1 
vn 0 0 1 
vn 0 0 1 
vn 0 0 1 
vn 0 0 1 
vn 0 0 1 
vn 0 0 1 
vn 0 0 1 
vn 0 0 1 
vn 0 0 1 
vn 0 0 1 
vn 0 0 1 
vn 0 0 1 
vn 0 0 1 
vn 0 0 1 
vn 0 0 1 
vn 0 0 1 
vn 0 0 1 
vn 0 0 1 
vn 0 0 1 
vn 0 0 1 
f 129//129 130//130 131//131 
f 130//130 132//132 133//133 
f 134//134 135//135 136//136 
f 134//134 137//137 138//138 
f 139//139 140//140 141//141 
f 139//139 142//142 143//143 
f 144//144 145//145 146//146 
f 147//147 148//148 144//144 
f 133//133 131//131 130//130 
f 149//149 150//150 133//133 
f 151//151 152//152 136//136 
f 138//138 135//135 134//134 
f 137//137 153//153 154//154 
f 153//153 155//155 156//156 
f 157//157 158//158 159//159 
f 160//160 141//141 158//158 
f 143//143 140//140 139//139 
f 142//142 161//161 162//162 
f 163//163 164//164 165//165 
f 163//163 166//166 167//167 
f 168//168 169//169 170//170 
f 168//168 171//171 172//172 
f 173//173 146//146 145//145 
f 144//144 174//174 147//147 
f 133//133 132//132 149//149 
f 149//149 151//151 175//175 
f 136//136 152//152 134//134 
f 156//156 154//154 153//153 
f 176//176 177//177 156//156 
f 176//176 178//178 179//179 
f 158//158 157//157 160//160 
f 162//162 143//143 142//142 
f 167//167 164//164 163//163 
f 166//166 180//180 181//181 
f 172//172 169//169 168//168 
f 171//171 182//182 183//183 
f 173//173 184//184 185//185 
f 146//146 174//174 144//144 
f 186//186 187//187 188//188 
f 189//189 190//190 187//187 
f 129//129 191//191 190//190 
f 175//175 150//150 149//149 
f 154//154 138//138 137//137 
f 179//179 177//177 176//176 
f 178//178 192//192 159//159 
f 141//141 160//160 139//139 
f 181//181 167//167 166//166 
f 180//180 193//193 170//170 
f 183//183 172//172 171//171 
f 182//182 194//194 195//195 
f 196//196 185//185 195//195 
f 145//145 184//184 173//173 
f 147//147 197//197 198//198 
f 197//197 199//199 200//200 
f 201//201 202//202 203//203 
f 201//201 204//204 205//205 
f 187//187 186//186 189//189 
f 131//131 191//191 129//129 
f 156//156 155//155 176//176 
f 159//159 192//192 157//157 
f 170//170 181//181 180//180 
f 195//195 183//183 182//182 
f 185//185 196//196 173//173 
f 200//200 198//198 197//197 
f 206//206 207//207 208//208 
f 207//207 209//209 210//210 
f 205//205 202//202 201//201 
f 204//204 211//211 212//212 
f 213//213 214//214 215//215 
f 213//213 216//216 217//217 
f 218//218 219//219 217//217 
f 220//220 221//221 219//219 
f 190//190 189//189 129//129 
f 159//159 179//179 178//178 
f 222//222 223//223 224//224 
f 222//222 225//225 165//165 
f 170//170 193//193 168//168 
f 198//198 148//148 147//147 
f 199//199 206//206 226//226 
f 210//210 208//208 207//207 
f 227//227 228//228 229//229 
f 227//227 230//230 231//231 
f 212//212 205//205 204//204 
f 211//211 232//232 233//233 
f 234//234 215//215 233//233 
f 217//217 214//214 213//213 
f 219//219 218//218 220//220 
f 220//220 235//235 236//236 
f 237//237 238//238 239//239 
f 240//240 241//241 238//238 
f 240//240 242//242 188//188 
f 136//136 175//175 151//151 
f 161//161 243//243 224//224 
f 165//165 223//223 222//222 
f 195//195 194//194 196//196 
f 208//208 226//226 206//206 
f 231//231 228//228 227//227 
f 230//230 244//244 203//203 
f 233//233 212//212 211//211 
f 215//215 234//234 213//213 
f 236//236 221//221 220//220 
f 235//235 245//245 239//239 
f 238//238 237//237 240//240 
f 188//188 242//242 186//186 
f 224//224 243//243 222//222 
f 226//226 200//200 199//199 
f 209//209 246//246 247//247 
f 248//248 229//229 247//247 
f 203//203 231//231 230//230 
f 233//233 232//232 234//234 
f 239//239 236//236 235//235 
f 188//188 241//241 240//240 
f 165//165 225//225 163//163 
f 247//247 246//246 248//248 
f 203//203 244//244 201//201 
f 239//239 245//245 237//237 
f 247//247 210//210 209//209 
f 217//217 216//216 218//218 
f 229//229 248//248 227//227 
f 224//224 162//162 161//161 
o mesh28087
v -0.204487 0.0412567 0 
v -0.2 0.0415 0 
v -0.2 0.04 0 
v -3.17637e-24 0.0415 0 
v 0.0414391 0.00224676 0 
v 0.0399413 0.00216556 0 
v 0.0394731 0.00647128 0 
v 0.0414391 -0.00224676 0 
v 0.0399413 -0.00216556 0 
v 0 0.04 0 
v 0.00448694 0.0412567 0 
v 0.00432476 0.0397655 0 
v 0.0251147 0.0330379 0 
v 0.024207 0.0318437 0 
v 0.0206222 0.0342743 0 
v 0.0285395 0.0301288 0 
v 0.027508 0.0290398 0 
v 0.0409533 -0.00671395 0 
v 0.0394731 -0.00647128 0 
v 0.00892127 0.0405298 0 
v 0.00859882 0.0390648 0 
v 0.0213955 0.0355596 0 
v 0.0167956 0.036303 0 
v 0.0316297 0.0268665 0 
v 0.0304865 0.0258955 0 
v 0.0343491 0.0232893 0 
v 0.0331076 0.0224475 0 
v 0.0366657 0.019439 0 
v 0.0353405 0.0187363 0 
v 0.0385525 0.0153607 0 
v 0.0371591 0.0148055 0 
v 0.0399873 -0.0111024 0 
v 0.038542 -0.0107011 0 
v 0.0385525 -0.0153607 0 
v 0.0371591 -0.0148055 0 
v 0.0366657 -0.019439 0 
v 0.0353405 -0.0187363 0 
v 0.0316297 -0.0268665 0 
v 0.0304865 -0.0258955 0 
v 0.0331076 -0.0224475 0 
v 0.0285395 -0.0301288 0 
v 0.027508 -0.0290398 0 
v 0.0251147 -0.0330379 0 
v 0.024207 -0.0318437 0 
v 0.0213955 -0.0355596 0 
v 0.0206222 -0.0342743 0 
v 0.0174254 -0.0376644 0 
v 0.0167956 -0.036303 0 
v 0.013251 -0.0393276 0 
v 0.0127721 -0.0379061 0 
v -0.208921 0.0405298 0 
v -0.208599 0.0390648 0 
v -0.212772 0.0379061 0 
v -0.204325 0.0397655 0 
v 0.013251 0.0393276 0 
v 0.0127721 0.0379061 0 
v 0.0174254 0.0376644 0 
v 0.00892127 -0.0405298 0 
v 0.00859882 -0.0390648 0 
v 0.00448694 -0.0412567 0 
v 3.17637e-24 -0.0415 0 
v -1.85829e-24 -0.04 0 
v -0.2 -0.04 0 
v -0.221395 0.0355596 0 
v -0.220622 0.0342743 0 
v -0.224207 0.0318437 0 
v -0.217425 0.0376644 0 
v -0.216796 0.036303 0 
v 0.0343491 -0.0232893 0 
v -0.2 -0.0415 0 
v -0.204487 -0.0412567 0 
v -0.204325 -0.0397655 0 
v -0.213251 0.0393276 0 
v 0.0399873 0.0111024 0 
v 0.038542 0.0107011 0 
v 0.0409533 0.00671395 0 
v 0.00432476 -0.0397655 0 
v -0.208921 -0.0405298 0 
v -0.208599 -0.0390648 0 
v -0.213251 -0.0393276 0 
v -0.212772 -0.0379061 0 
v -0.217425 -0.0376644 0 
v -0.216796 -0.036303 0 
v -0.221395 -0.0355596 0 
v -0.220622 -0.0342743 0 
v -0.225115 -0.0330379 0 
v -0.224207 -0.0318437 0 
v -0.22854 -0.0301288 0 
v -0.227508 -0.0290398 0 
v -0.234349 -0.0232893 0 
v -0.233108 -0.0224475 0 
v -0.230486 -0.0258955 0 
v -0.236666 -0.019439 0 
v -0.23534 -0.0187363 0 
v -0.23163 0.0268665 0 
v -0.22854 0.0301288 0 
v -0.227508 0.0290398 0 
v -0.225115 0.0330379 0 
v -0.238553 -0.0153607 0 
v -0.237159 -0.0148055 0 
v -0.239987 -0.0111024 0 
v -0.238542 -0.0107011 0 
v -0.240953 -0.00671395 0 
v -0.239473 -0.00647128 0 
v -0.239987 0.0111024 0 
v -0.238542 0.0107011 0 
v -0.239473 0.00647128 0 
v -0.238553 0.0153607 0 
v -0.237159 0.0148055 0 
v -0.234349 0.0232893 0 
v -0.233108 0.0224475 0 
v -0.23534 0.0187363 0 
v -0.230486 0.0258955 0 
v -0.23163 -0.0268665 0 
v -0.241439 -0.00224676 0 
v -0.239941 -0.00216556 0 
v -0.240953 0.00671395 0 
v -0.239941 0.00216556 0 
v -0.236666 0.019439 0 
v -0.241439 0.00224676 0 
vn 0 0 -1 
vn 0 0 -1 
vn 0 0 -1 
vn 0 0 -1 
vn 0 0 -1 
vn 0 0 -1 
vn 0 0 -1 
vn 0 0 -1 
vn 0 0 -1 
vn 0 0 -1 
vn 0 0 -1 
vn 0 0 -1 
vn 0 0 -1 
vn 0 0 -1 
vn 0 0 -1 
vn 0 0 -1 
vn 0 0 -1 
vn 0 0 -1 
vn 0 0 -1 
vn 0 0 -1 
vn 0 0 -1 
vn 0 0 -1 
vn 0 0 -1 
vn 0 0 -1 
vn 0 0 -1 
vn 0 0 -1 
vn 0 0 -1 
vn 0 0 -1 
vn 0 0 -1 
vn 0 0 -1 
vn 0 0 -1 
vn 0 0 -1 
vn 0 0 -1 
vn 0 0 -1 
vn 0 0 -1 
vn 0 0 -1 
vn 0 0 -1 
vn 0 0 -1 
vn 0 0 -1 
vn 0 0 -1 
vn 0 0 -1 
vn 0 0 -1 
vn 0 0 -1 
vn 0 0 -1 
vn 0 0 -1 
vn 0 0 -1 
vn 0 0 -1 
vn 0 0 -1 
vn 0 0 -1 
vn 0 0 -1 
vn 0 0 -1 
vn 0 0 -1 
vn 0 0 -1 
vn 0 0 -1 
vn 0 0 -1 
vn 0 0 -1 
vn 0 0 -1 
vn 0 0 -1 
vn 0 0 -1 
vn 0 0 -1 
vn 0 0 -1 
vn 0 0 -1 
vn 0 0 -1 
vn 0 0 -1 
vn 0 0 -1 
vn 0 0 -1 
vn 0 0 -1 
vn 0 0 -1 
vn 0 0 -1 
vn 0 0 -1 
vn 0 0 -1 
vn 0 0 -1 
vn 0 0 -1 
vn 0 0 -1 
vn 0 0 -1 
vn 0 0 -1 
vn 0 0 -1 
vn 0 0 -1 
vn 0 0 -1 
vn 0 0 -1 
vn 0 0 -1 
vn 0 0 -1 
vn 0 0 -1 
vn 0 0 -1 
vn 0 0 -1 
vn 0 0 -1 
vn 0 0 -1 
vn 0 0 -1 
vn 0 0 -1 
vn 0 0 -1 
vn 0 0 -1 
vn 0 0 -1 
vn 0 0 -1 
vn 0 0 -1 
vn 0 0 -1 
vn 0 0 -1 
vn 0 0 -1 
vn 0 0 -1 
vn 0 0 -1 
vn 0 0 -1 
vn 0 0 -1 
vn 0 0 -1 
vn 0 0 -1 
vn 0 0 -1 
vn 0 0 -1 
vn 0 0 -1 
vn 0 0 -1 
vn 0 0 -1 
vn 0 0 -1 
vn 0 0 -1 
vn 0 0 -1 
vn 0 0 -1 
vn 0 0 -1 
vn 0 0 -1 
vn 0 0 -1 
vn 0 0 -1 
vn 0 0 -1 
vn 0 0 -1 
vn 0 0 -1 
vn 0 0 -1 
f 249//249 250//250 251//251 
f 251//251 250//250 252//252 
f 253//253 254//254 255//255 
f 256//256 257//257 254//254 
f 252//252 258//258 251//251 
f 259//259 260//260 258//258 
f 261//261 262//262 263//263 
f 261//261 264//264 265//265 
f 254//254 253//253 256//256 
f 266//266 267//267 257//257 
f 258//258 252//252 259//259 
f 259//259 268//268 269//269 
f 270//270 263//263 271//271 
f 265//265 262//262 261//261 
f 272//272 273//273 265//265 
f 274//274 275//275 273//273 
f 276//276 277//277 275//275 
f 276//276 278//278 279//279 
f 257//257 256//256 266//266 
f 266//266 280//280 281//281 
f 280//280 282//282 283//283 
f 282//282 284//284 285//285 
f 286//286 287//287 288//288 
f 286//286 289//289 290//290 
f 291//291 292//292 290//290 
f 293//293 294//294 292//292 
f 295//295 296//296 294//294 
f 295//295 297//297 298//298 
f 299//299 300//300 301//301 
f 249//249 302//302 300//300 
f 269//269 260//260 259//259 
f 268//268 303//303 304//304 
f 305//305 271//271 304//304 
f 263//263 270//270 261//261 
f 273//273 272//272 274//274 
f 279//279 277//277 276//276 
f 281//281 267//267 266//266 
f 285//285 283//283 282//282 
f 290//290 287//287 286//286 
f 292//292 291//291 293//293 
f 298//298 296//296 295//295 
f 297//297 306//306 307//307 
f 308//308 309//309 310//310 
f 311//311 310//310 309//309 
f 312//312 313//313 314//314 
f 315//315 316//316 313//313 
f 300//300 299//299 249//249 
f 304//304 269//269 268//268 
f 271//271 305//305 270//270 
f 275//275 274//274 276//276 
f 283//283 281//281 280//280 
f 317//317 288//288 285//285 
f 290//290 289//289 291//291 
f 307//307 298//298 297//297 
f 309//309 318//318 311//311 
f 319//319 320//320 311//311 
f 313//313 312//312 315//315 
f 321//321 301//301 316//316 
f 251//251 302//302 249//249 
f 265//265 264//264 272//272 
f 322//322 323//323 279//279 
f 322//322 324//324 255//255 
f 285//285 284//284 317//317 
f 294//294 293//293 295//295 
f 308//308 325//325 307//307 
f 311//311 318//318 319//319 
f 316//316 315//315 321//321 
f 304//304 303//303 305//305 
f 255//255 323//323 322//322 
f 288//288 317//317 286//286 
f 310//310 325//325 308//308 
f 319//319 326//326 327//327 
f 326//326 328//328 329//329 
f 328//328 330//330 331//331 
f 301//301 321//321 299//299 
f 255//255 324//324 253//253 
f 327//327 320//320 319//319 
f 331//331 329//329 328//328 
f 279//279 278//278 322//322 
f 329//329 327//327 326//326 
f 307//307 306//306 308//308 
f 332//332 333//333 331//331 
f 332//332 334//334 335//335 
f 334//334 336//336 337//337 
f 338//338 339//339 340//340 
f 338//338 341//341 342//342 
f 343//343 344//344 345//345 
f 346//346 314//314 345//345 
f 331//331 330//330 332//332 
f 337//337 335//335 334//334 
f 342//342 339//339 338//338 
f 341//341 347//347 348//348 
f 349//349 350//350 348//348 
f 349//349 351//351 352//352 
f 353//353 354//354 355//355 
f 353//353 356//356 357//357 
f 358//358 359//359 360//360 
f 358//358 343//343 361//361 
f 345//345 344//344 346//346 
f 335//335 333//333 332//332 
f 362//362 340//340 337//337 
f 348//348 342//342 341//341 
f 352//352 350//350 349//349 
f 351//351 363//363 364//364 
f 365//365 355//355 366//366 
f 357//357 354//354 353//353 
f 367//367 360//360 357//357 
f 361//361 359//359 358//358 
f 314//314 346//346 312//312 
f 340//340 362//362 338//338 
f 364//364 352//352 351//351 
f 368//368 366//366 364//364 
f 355//355 365//365 353//353 
f 360//360 367//367 358//358 
f 337//337 336//336 362//362 
f 364//364 363//363 368//368 
f 357//357 356//356 367//367 
f 348//348 347//347 349//349 
f 345//345 361//361 343//343 
f 366//366 368//368 365//365 
o mesh28088
v -1.85829e-24 -0.04 0.29 
v -1.85829e-24 -0.04 0 
v -0.2 -0.04 0 
v -0.2 -0.04 0.29 
vn 3.15373e-17 1 0 
vn 3.15373e-17 1 0 
vn 3.15373e-17 1 0 
vn 3.15373e-17 1 0 
f 369//369 370//370 371//371 
f 371//371 372//372 369//369 
o mesh28089
v -0.204325 0.0397655 0 
v -0.2 0.04 0 
v -0.2 0.04 0.29 
v -0.208599 0.0390648 0 
v -0.204325 0.0397655 0.29 
v -0.212772 0.0379061 0 
v -0.208599 0.0390648 0.29 
v -0.216796 0.036303 0 
v -0.212772 0.0379061 0.29 
v -0.220622 0.0342743 0 
v -0.216796 0.036303 0.29 
v -0.224207 0.0318437 0 
v -0.220622 0.0342743 0.29 
v -0.227508 0.0290398 0 
v -0.224207 0.0318437 0.29 
v -0.230486 0.0258955 0 
v -0.227508 0.0290398 0.29 
v -0.233108 0.0224475 0 
v -0.230486 0.0258955 0.29 
v -0.23534 0.0187363 0 
v -0.233108 0.0224475 0.29 
v -0.237159 0.0148055 0 
v -0.23534 0.0187363 0.29 
v -0.238542 0.0107011 0 
v -0.237159 0.0148055 0.29 
v -0.239473 0.00647128 0 
v -0.238542 0.0107011 0.29 
v -0.239941 0.00216556 0 
v -0.239473 0.00647128 0.29 
v -0.239941 -0.00216556 0 
v -0.239941 0.00216556 0.29 
v -0.239473 -0.00647128 0 
v -0.239941 -0.00216556 0.29 
v -0.238542 -0.0107011 0 
v -0.239473 -0.00647128 0.29 
v -0.237159 -0.0148055 0 
v -0.238542 -0.0107011 0.29 
v -0.23534 -0.0187363 0 
v -0.237159 -0.0148055 0.29 
v -0.233108 -0.0224475 0 
v -0.23534 -0.0187363 0.29 
v -0.230486 -0.0258955 0 
v -0.233108 -0.0224475 0.29 
v -0.227508 -0.0290398 0 
v -0.230486 -0.0258955 0.29 
v -0.224207 -0.0318437 0 
v -0.227508 -0.0290398 0.29 
v -0.220622 -0.0342743 0 
v -0.224207 -0.0318437 0.29 
v -0.216796 -0.036303 0 
v -0.220622 -0.0342743 0.29 
v -0.212772 -0.0379061 0 
v -0.216796 -0.036303 0.29 
v -0.208599 -0.0390648 0 
v -0.212772 -0.0379061 0.29 
v -0.204325 -0.0397655 0 
v -0.208599 -0.0390648 0.29 
v -0.2 -0.04 0 
v -0.204325 -0.0397655 0.29 
v -0.2 -0.04 0.29 
vn 0.108119 -0.994138 0 
vn 3.06162e-16 -1 0 
vn 3.06162e-16 -1 0 
vn 0.21497 -0.976621 0 
vn 0.108119 -0.994138 0 
vn 0.319302 -0.947653 0 
vn 0.21497 -0.976621 0 
vn 0.419889 -0.907575 0 
vn 0.319302 -0.947653 0 
vn 0.515554 -0.856857 0 
vn 0.419889 -0.907575 0 
vn 0.605174 -0.796093 0 
vn 0.515554 -0.856857 0 
vn 0.687699 -0.725995 0 
vn 0.605174 -0.796093 0 
vn 0.762162 -0.647386 0 
vn 0.687699 -0.725995 0 
vn 0.827689 -0.561187 0 
vn 0.762162 -0.647386 0 
vn 0.883512 -0.468408 0 
vn 0.827689 -0.561187 0 
vn 0.928977 -0.370138 0 
vn 0.883512 -0.468408 0 
vn 0.96355 -0.267528 0 
vn 0.928977 -0.370138 0 
vn 0.986827 -0.161782 0 
vn 0.96355 -0.267528 0 
vn 0.998533 -0.0541389 0 
vn 0.986827 -0.161782 0 
vn 0.998533 0.0541389 0 
vn 0.998533 -0.0541389 0 
vn 0.986827 0.161782 0 
vn 0.998533 0.0541389 0 
vn 0.96355 0.267528 0 
vn 0.986827 0.161782 0 
vn 0.928977 0.370138 0 
vn 0.96355 0.267528 0 
vn 0.883512 0.468408 0 
vn 0.928977 0.370138 0 
vn 0.827689 0.561187 0 
vn 0.883512 0.468408 0 
vn 0.762162 0.647386 0 
vn 0.827689 0.561187 0 
vn 0.687699 0.725995 0 
vn 0.762162 0.647386 0 
vn 0.605174 0.796093 0 
vn 0.687699 0.725995 0 
vn 0.515554 0.856857 0 
vn 0.605174 0.796093 0 
vn 0.419889 0.907575 0 
vn 0.515554 0.856857 0 
vn 0.319302 0.947653 0 
vn 0.419889 0.907575 0 
vn 0.21497 0.976621 0 
vn 0.319302 0.947653 0 
vn 0.108119 0.994138 0 
vn 0.21497 0.976621 0 
vn -1.83697e-16 1 0 
vn 0.108119 0.994138 0 
vn -1.83697e-16 1 0 
f 373//373 374//374 375//375 
f 376//376 373//373 377//377 
f 378//378 376//376 379//379 
f 380//380 378//378 381//381 
f 382//382 380//380 383//383 
f 384//384 382//382 385//385 
f 386//386 384//384 387//387 
f 388//388 386//386 389//389 
f 390//390 388//388 391//391 
f 392//392 390//390 393//393 
f 394//394 392//392 395//395 
f 396//396 394//394 397//397 
f 398//398 396//396 399//399 
f 400//400 398//398 401//401 
f 402//402 400//400 403//403 
f 404//404 402//402 405//405 
f 406//406 404//404 407//407 
f 408//408 406//406 409//409 
f 410//410 408//408 411//411 
f 412//412 410//410 413//413 
f 414//414 412//412 415//415 
f 416//416 414//414 417//417 
f 418//418 416//416 419//419 
f 420//420 418//418 421//421 
f 422//422 420//420 423//423 
f 424//424 422//422 425//425 
f 426//426 424//424 427//427 
f 428//428 426//426 429//429 
f 430//430 428//428 431//431 
f 431//431 432//432 430//430 
f 429//429 431//431 428//428 
f 427//427 429//429 426//426 
f 425//425 427//427 424//424 
f 423//423 425//425 422//422 
f 421//421 423//423 420//420 
f 419//419 421//421 418//418 
f 417//417 419//419 416//416 
f 415//415 417//417 414//414 
f 413//413 415//415 412//412 
f 411//411 413//413 410//410 
f 409//409 411//411 408//408 
f 407//407 409//409 406//406 
f 405//405 407//407 404//404 
f 403//403 405//405 402//402 
f 401//401 403//403 400//400 
f 399//399 401//401 398//398 
f 397//397 399//399 396//396 
f 395//395 397//397 394//394 
f 393//393 395//395 392//392 
f 391//391 393//393 390//390 
f 389//389 391//391 388//388 
f 387//387 389//389 386//386 
f 385//385 387//387 384//384 
f 383//383 385//385 382//382 
f 381//381 383//383 380//380 
f 379//379 381//381 378//378 
f 377//377 379//379 376//376 
f 375//375 377//377 373//373 
o mesh28090
v -0.2 0.04 0.29 
v -0.2 0.04 0 
v 0 0.04 0 
v 0 0.04 0.29 
vn 0 -1 0 
vn 0 -1 0 
vn 0 -1 0 
vn 0 -1 0 
f 433//433 434//434 435//435 
f 435//435 436//436 433//433 
o mesh28091
v 0.00432476 -0.0397655 0 
v -1.85829e-24 -0.04 0 
v -1.85829e-24 -0.04 0.29 
v 0.00859882 -0.0390648 0 
v 0.00432476 -0.0397655 0.29 
v 0.0127721 -0.0379061 0 
v 0.00859882 -0.0390648 0.29 
v 0.0167956 -0.036303 0 
v 0.0127721 -0.0379061 0.29 
v 0.0206222 -0.0342743 0 
v 0.0167956 -0.036303 0.29 
v 0.024207 -0.0318437 0 
v 0.0206222 -0.0342743 0.29 
v 0.027508 -0.0290398 0 
v 0.024207 -0.0318437 0.29 
v 0.0304865 -0.0258955 0 
v 0.027508 -0.0290398 0.29 
v 0.0331076 -0.0224475 0 
v 0.0304865 -0.0258955 0.29 
v 0.0353405 -0.0187363 0 
v 0.0331076 -0.0224475 0.29 
v 0.0371591 -0.0148055 0 
v 0.0353405 -0.0187363 0.29 
v 0.038542 -0.0107011 0 
v 0.0371591 -0.0148055 0.29 
v 0.0394731 -0.00647128 0 
v 0.038542 -0.0107011 0.29 
v 0.0399413 -0.00216556 0 
v 0.0394731 -0.00647128 0.29 
v 0.0399413 0.00216556 0 
v 0.0399413 -0.00216556 0.29 
v 0.0394731 0.00647128 0 
v 0.0399413 0.00216556 0.29 
v 0.038542 0.0107011 0 
v 0.0394731 0.00647128 0.29 
v 0.0371591 0.0148055 0 
v 0.038542 0.0107011 0.29 
v 0.0353405 0.0187363 0 
v 0.0371591 0.0148055 0.29 
v 0.0331076 0.0224475 0 
v 0.0353405 0.0187363 0.29 
v 0.0304865 0.0258955 0 
v 0.0331076 0.0224475 0.29 
v 0.027508 0.0290398 0 
v 0.0304865 0.0258955 0.29 
v 0.024207 0.0318437 0 
v 0.027508 0.0290398 0.29 
v 0.0206222 0.0342743 0 
v 0.024207 0.0318437 0.29 
v 0.0167956 0.036303 0 
v 0.0206222 0.0342743 0.29 
v 0.0127721 0.0379061 0 
v 0.0167956 0.036303 0.29 
v 0.00859882 0.0390648 0 
v 0.0127721 0.0379061 0.29 
v 0.00432476 0.0397655 0 
v 0.00859882 0.0390648 0.29 
v 0 0.04 0 
v 0.00432476 0.0397655 0.29 
v 0 0.04 0.29 
vn -0.108119 0.994138 0 
vn -1.83697e-16 1 0 
vn -1.83697e-16 1 0 
vn -0.21497 0.976621 0 
vn -0.108119 0.994138 0 
vn -0.319302 0.947653 0 
vn -0.21497 0.976621 0 
vn -0.419889 0.907575 0 
vn -0.319302 0.947653 0 
vn -0.515554 0.856857 0 
vn -0.419889 0.907575 0 
vn -0.605174 0.796093 0 
vn -0.515554 0.856857 0 
vn -0.687699 0.725995 0 
vn -0.605174 0.796093 0 
vn -0.762162 0.647386 0 
vn -0.687699 0.725995 0 
vn -0.827689 0.561187 0 
vn -0.762162 0.647386 0 
vn -0.883512 0.468408 0 
vn -0.827689 0.561187 0 
vn -0.928977 0.370138 0 
vn -0.883512 0.468408 0 
vn -0.96355 0.267528 0 
vn -0.928977 0.370138 0 
vn -0.986827 0.161782 0 
vn -0.96355 0.267528 0 
vn -0.998533 0.0541389 0 
vn -0.986827 0.161782 0 
vn -0.998533 -0.0541389 0 
vn -0.998533 0.0541389 0 
vn -0.986827 -0.161782 0 
vn -0.998533 -0.0541389 0 
vn -0.96355 -0.267528 0 
vn -0.986827 -0.161782 0 
vn -0.928977 -0.370138 0 
vn -0.96355 -0.267528 0 
vn -0.883512 -0.468408 0 
vn -0.928977 -0.370138 0 
vn -0.827689 -0.561187 0 
vn -0.883512 -0.468408 0 
vn -0.762162 -0.647386 0 
vn -0.827689 -0.561187 0 
vn -0.687699 -0.725995 0 
vn -0.762162 -0.647386 0 
vn -0.605174 -0.796093 0 
vn -0.687699 -0.725995 0 
vn -0.515554 -0.856857 0 
vn -0.605174 -0.796093 0 
vn -0.419889 -0.907575 0 
vn -0.515554 -0.856857 0 
vn -0.319302 -0.947653 0 
vn -0.419889 -0.907575 0 
vn -0.21497 -0.976621 0 
vn -0.319302 -0.947653 0 
vn -0.108119 -0.994138 0 
vn -0.21497 -0.976621 0 
vn 6.12323e-17 -1 0 
vn -0.108119 -0.994138 0 
vn 6.12323e-17 -1 0 
f 437//437 438//438 439//439 
f 440//440 437//437 441//441 
f 442//442 440//440 443//443 
f 444//444 442//442 445//445 
f 446//446 444//444 447//447 
f 448//448 446//446 449//449 
f 450//450 448//448 451//451 
f 452//452 450//450 453//453 
f 454//454 452//452 455//455 
f 456//456 454//454 457//457 
f 458//458 456//456 459//459 
f 460//460 458//458 461//461 
f 462//462 460//460 463//463 
f 464//464 462//462 465//465 
f 466//466 464//464 467//467 
f 468//468 466//466 469//469 
f 470//470 468//468 471//471 
f 472//472 470//470 473//473 
f 474//474 472//472 475//475 
f 476//476 474//474 477//477 
f 478//478 476//476 479//479 
f 480//480 478//478 481//481 
f 482//482 480//480 483//483 
f 484//484 482//482 485//485 
f 486//486 484//484 487//487 
f 488//488 486//486 489//489 
f 490//490 488//488 491//491 
f 492//492 490//490 493//493 
f 494//494 492//492 495//495 
f 495//495 496//496 494//494 
f 493//493 495//495 492//492 
f 491//491 493//493 490//490 
f 489//489 491//491 488//488 
f 487//487 489//489 486//486 
f 485//485 487//487 484//484 
f 483//483 485//485 482//482 
f 481//481 483//483 480//480 
f 479//479 481//481 478//478 
f 477//477 479//479 476//476 
f 475//475 477//477 474//474 
f 473//473 475//475 472//472 
f 471//471 473//473 470//470 
f 469//469 471//471 468//468 
f 467//467 469//469 466//466 
f 465//465 467//467 464//464 
f 463//463 465//465 462//462 
f 461//461 463//463 460//460 
f 459//459 461//461 458//458 
f 457//457 459//459 456//456 
f 455//455 457//457 454//454 
f 453//453 455//455 452//452 
f 451//451 453//453 450//450 
f 449//449 451//451 448//448 
f 447//447 449//449 446//446 
f 445//445 447//447 444//444 
f 443//443 445//445 442//442 
f 441//441 443//443 440//440 
f 439//439 441//441 437//437 
