# OBJ generated by ONSHAPE BY PTC INC, 1.215 Units = meters
mtllib Exc_Paddle_With_Holes.mtl
g Exc_Paddle With Holes
usemtl 1.000000_1.000000_1.000000_0.000000_0.650980
o mesh28350
v 0.0548728 0.0357811 0.2175 
v 0.0548728 0.0359968 0.219483 
v 0.0548728 0.03621 0.219448 
v 0.0548728 0.0364181 0.219391 
v 0.0548728 0.0366188 0.219311 
v 0.0548728 0.0368097 0.219209 
v 0.0548728 0.0369885 0.219088 
v 0.0548728 0.0371531 0.218948 
v 0.0548728 0.0373017 0.218792 
v 0.0548728 0.0374324 0.21862 
v 0.0548728 0.0375437 0.218434 
v 0.0548728 0.0376344 0.218238 
v 0.0548728 0.0377034 0.218034 
v 0.0548728 0.0377499 0.217823 
v 0.0548728 0.0377732 0.217608 
v 0.0548728 0.0377732 0.217392 
v 0.0548728 0.0377499 0.217177 
v 0.0548728 0.0377034 0.216966 
v 0.0548728 0.0376344 0.216762 
v 0.0548728 0.0375437 0.216566 
v 0.0548728 0.0374324 0.21638 
v 0.0548728 0.0373017 0.216208 
v 0.0548728 0.0371531 0.216052 
v 0.0548728 0.0369885 0.215912 
v 0.0548728 0.0368097 0.215791 
v 0.0548728 0.0366188 0.215689 
v 0.0548728 0.0364181 0.215609 
v 0.0548728 0.03621 0.215552 
v 0.0548728 0.0359968 0.215517 
v 0.0548728 0.0357811 0.215505 
v 0.0548728 0.0355654 0.215517 
v 0.0548728 0.0353523 0.215552 
v 0.0548728 0.0351441 0.215609 
v 0.0548728 0.0349435 0.215689 
v 0.0548728 0.0347526 0.215791 
v 0.0548728 0.0345738 0.215912 
v 0.0548728 0.0344092 0.216052 
v 0.0548728 0.0342606 0.216208 
v 0.0548728 0.0341299 0.21638 
v 0.0548728 0.0340185 0.216566 
v 0.0548728 0.0339278 0.216762 
v 0.0548728 0.0338589 0.216966 
v 0.0548728 0.0338124 0.217177 
v 0.0548728 0.0337891 0.217392 
v 0.0548728 0.0337891 0.217608 
v 0.0548728 0.0338124 0.217823 
v 0.0548728 0.0338589 0.218034 
v 0.0548728 0.0339278 0.218238 
v 0.0548728 0.0340185 0.218434 
v 0.0548728 0.0341299 0.21862 
v 0.0548728 0.0342606 0.218792 
v 0.0548728 0.0344092 0.218948 
v 0.0548728 0.0345738 0.219088 
v 0.0548728 0.0347526 0.219209 
v 0.0548728 0.0349435 0.219311 
v 0.0548728 0.0351441 0.219391 
v 0.0548728 0.0353523 0.219448 
v 0.0548728 0.0355654 0.219483 
v 0.0548728 0.0357811 0.219495 
vn -1 0 0 
vn -1 0 0 
vn -1 0 0 
vn -1 0 0 
vn -1 0 0 
vn -1 0 0 
vn -1 0 0 
vn -1 0 0 
vn -1 0 0 
vn -1 0 0 
vn -1 0 0 
vn -1 0 0 
vn -1 0 0 
vn -1 0 0 
vn -1 0 0 
vn -1 0 0 
vn -1 0 0 
vn -1 0 0 
vn -1 0 0 
vn -1 0 0 
vn -1 0 0 
vn -1 0 0 
vn -1 0 0 
vn -1 0 0 
vn -1 0 0 
vn -1 0 0 
vn -1 0 0 
vn -1 0 0 
vn -1 0 0 
vn -1 0 0 
vn -1 0 0 
vn -1 0 0 
vn -1 0 0 
vn -1 0 0 
vn -1 0 0 
vn -1 0 0 
vn -1 0 0 
vn -1 0 0 
vn -1 0 0 
vn -1 0 0 
vn -1 0 0 
vn -1 0 0 
vn -1 0 0 
vn -1 0 0 
vn -1 0 0 
vn -1 0 0 
vn -1 0 0 
vn -1 0 0 
vn -1 0 0 
vn -1 0 0 
vn -1 0 0 
vn -1 0 0 
vn -1 0 0 
vn -1 0 0 
vn -1 0 0 
vn -1 0 0 
vn -1 0 0 
vn -1 0 0 
vn -1 0 0 
f 1//1 2//2 3//3 
f 3//3 4//4 1//1 
f 4//4 5//5 1//1 
f 5//5 6//6 1//1 
f 6//6 7//7 1//1 
f 7//7 8//8 1//1 
f 8//8 9//9 1//1 
f 9//9 10//10 1//1 
f 10//10 11//11 1//1 
f 11//11 12//12 1//1 
f 12//12 13//13 1//1 
f 13//13 14//14 1//1 
f 14//14 15//15 1//1 
f 15//15 16//16 1//1 
f 16//16 17//17 1//1 
f 17//17 18//18 1//1 
f 18//18 19//19 1//1 
f 19//19 20//20 1//1 
f 20//20 21//21 1//1 
f 21//21 22//22 1//1 
f 22//22 23//23 1//1 
f 23//23 24//24 1//1 
f 24//24 25//25 1//1 
f 25//25 26//26 1//1 
f 26//26 27//27 1//1 
f 27//27 28//28 1//1 
f 28//28 29//29 1//1 
f 29//29 30//30 1//1 
f 30//30 31//31 1//1 
f 31//31 32//32 1//1 
f 32//32 33//33 1//1 
f 33//33 34//34 1//1 
f 34//34 35//35 1//1 
f 35//35 36//36 1//1 
f 36//36 37//37 1//1 
f 37//37 38//38 1//1 
f 38//38 39//39 1//1 
f 39//39 40//40 1//1 
f 40//40 41//41 1//1 
f 41//41 42//42 1//1 
f 42//42 43//43 1//1 
f 43//43 44//44 1//1 
f 44//44 45//45 1//1 
f 45//45 46//46 1//1 
f 46//46 47//47 1//1 
f 47//47 48//48 1//1 
f 48//48 49//49 1//1 
f 49//49 50//50 1//1 
f 50//50 51//51 1//1 
f 51//51 52//52 1//1 
f 52//52 53//53 1//1 
f 53//53 54//54 1//1 
f 54//54 55//55 1//1 
f 55//55 56//56 1//1 
f 56//56 57//57 1//1 
f 57//57 58//58 1//1 
f 58//58 59//59 1//1 
f 59//59 2//2 1//1 
o mesh28351
v 0.0491728 0.0355654 0.219483 
v 0.0491728 0.0357811 0.219495 
v 0.0548728 0.0357811 0.219495 
v 0.0491728 0.0353523 0.219448 
v 0.0548728 0.0355654 0.219483 
v 0.0491728 0.0351441 0.219391 
v 0.0548728 0.0353523 0.219448 
v 0.0491728 0.0349435 0.219311 
v 0.0548728 0.0351441 0.219391 
v 0.0491728 0.0347526 0.219209 
v 0.0548728 0.0349435 0.219311 
v 0.0491728 0.0345738 0.219088 
v 0.0548728 0.0347526 0.219209 
v 0.0491728 0.0344092 0.218948 
v 0.0548728 0.0345738 0.219088 
v 0.0491728 0.0342606 0.218792 
v 0.0548728 0.0344092 0.218948 
v 0.0491728 0.0341299 0.21862 
v 0.0548728 0.0342606 0.218792 
v 0.0491728 0.0340185 0.218434 
v 0.0548728 0.0341299 0.21862 
v 0.0491728 0.0339278 0.218238 
v 0.0548728 0.0340185 0.218434 
v 0.0491728 0.0338589 0.218034 
v 0.0548728 0.0339278 0.218238 
v 0.0491728 0.0338124 0.217823 
v 0.0548728 0.0338589 0.218034 
v 0.0491728 0.0337891 0.217608 
v 0.0548728 0.0338124 0.217823 
v 0.0491728 0.0337891 0.217392 
v 0.0548728 0.0337891 0.217608 
v 0.0491728 0.0338124 0.217177 
v 0.0548728 0.0337891 0.217392 
v 0.0491728 0.0338589 0.216966 
v 0.0548728 0.0338124 0.217177 
v 0.0491728 0.0339278 0.216762 
v 0.0548728 0.0338589 0.216966 
v 0.0491728 0.0340185 0.216566 
v 0.0548728 0.0339278 0.216762 
v 0.0491728 0.0341299 0.21638 
v 0.0548728 0.0340185 0.216566 
v 0.0491728 0.0342606 0.216208 
v 0.0548728 0.0341299 0.21638 
v 0.0491728 0.0344092 0.216052 
v 0.0548728 0.0342606 0.216208 
v 0.0491728 0.0345738 0.215912 
v 0.0548728 0.0344092 0.216052 
v 0.0491728 0.0347526 0.215791 
v 0.0548728 0.0345738 0.215912 
v 0.0491728 0.0349435 0.215689 
v 0.0548728 0.0347526 0.215791 
v 0.0491728 0.0351441 0.215609 
v 0.0548728 0.0349435 0.215689 
v 0.0491728 0.0353523 0.215552 
v 0.0548728 0.0351441 0.215609 
v 0.0491728 0.0355654 0.215517 
v 0.0548728 0.0353523 0.215552 
v 0.0491728 0.0357811 0.215505 
v 0.0548728 0.0355654 0.215517 
v 0.0491728 0.0359968 0.215517 
v 0.0548728 0.0357811 0.215505 
v 0.0491728 0.03621 0.215552 
v 0.0548728 0.0359968 0.215517 
v 0.0491728 0.0364181 0.215609 
v 0.0548728 0.03621 0.215552 
v 0.0491728 0.0366188 0.215689 
v 0.0548728 0.0364181 0.215609 
v 0.0491728 0.0368097 0.215791 
v 0.0548728 0.0366188 0.215689 
v 0.0491728 0.0369885 0.215912 
v 0.0548728 0.0368097 0.215791 
v 0.0491728 0.0371531 0.216052 
v 0.0548728 0.0369885 0.215912 
v 0.0491728 0.0373017 0.216208 
v 0.0548728 0.0371531 0.216052 
v 0.0491728 0.0374324 0.21638 
v 0.0548728 0.0373017 0.216208 
v 0.0491728 0.0375437 0.216566 
v 0.0548728 0.0374324 0.21638 
v 0.0491728 0.0376344 0.216762 
v 0.0548728 0.0375437 0.216566 
v 0.0491728 0.0377034 0.216966 
v 0.0548728 0.0376344 0.216762 
v 0.0491728 0.0377499 0.217177 
v 0.0548728 0.0377034 0.216966 
v 0.0491728 0.0377732 0.217392 
v 0.0548728 0.0377499 0.217177 
v 0.0491728 0.0377732 0.217608 
v 0.0548728 0.0377732 0.217392 
v 0.0491728 0.0377499 0.217823 
v 0.0548728 0.0377732 0.217608 
v 0.0491728 0.0377034 0.218034 
v 0.0548728 0.0377499 0.217823 
v 0.0491728 0.0376344 0.218238 
v 0.0548728 0.0377034 0.218034 
v 0.0491728 0.0375437 0.218434 
v 0.0548728 0.0376344 0.218238 
v 0.0491728 0.0374324 0.21862 
v 0.0548728 0.0375437 0.218434 
v 0.0491728 0.0373017 0.218792 
v 0.0548728 0.0374324 0.21862 
v 0.0491728 0.0371531 0.218948 
v 0.0548728 0.0373017 0.218792 
v 0.0491728 0.0369885 0.219088 
v 0.0548728 0.0371531 0.218948 
v 0.0491728 0.0368097 0.219209 
v 0.0548728 0.0369885 0.219088 
v 0.0491728 0.0366188 0.219311 
v 0.0548728 0.0368097 0.219209 
v 0.0491728 0.0364181 0.219391 
v 0.0548728 0.0366188 0.219311 
v 0.0491728 0.03621 0.219448 
v 0.0548728 0.0364181 0.219391 
v 0.0491728 0.0359968 0.219483 
v 0.0548728 0.03621 0.219448 
v 0.0548728 0.0359968 0.219483 
vn 0 0.108119 -0.994138 
vn 0 2.44929e-16 -1 
vn 0 2.44929e-16 -1 
vn 0 0.21497 -0.976621 
vn 0 0.108119 -0.994138 
vn 0 0.319302 -0.947653 
vn 0 0.21497 -0.976621 
vn 0 0.419889 -0.907575 
vn 0 0.319302 -0.947653 
vn 0 0.515554 -0.856857 
vn 0 0.419889 -0.907575 
vn 0 0.605174 -0.796093 
vn 0 0.515554 -0.856857 
vn 0 0.687699 -0.725995 
vn 0 0.605174 -0.796093 
vn 0 0.762162 -0.647386 
vn 0 0.687699 -0.725995 
vn 0 0.827689 -0.561187 
vn 0 0.762162 -0.647386 
vn 0 0.883512 -0.468408 
vn 0 0.827689 -0.561187 
vn 0 0.928977 -0.370138 
vn 0 0.883512 -0.468408 
vn 0 0.96355 -0.267528 
vn 0 0.928977 -0.370138 
vn 0 0.986827 -0.161782 
vn 0 0.96355 -0.267528 
vn 0 0.998533 -0.0541389 
vn 0 0.986827 -0.161782 
vn 0 0.998533 0.0541389 
vn 0 0.998533 -0.0541389 
vn 0 0.986827 0.161782 
vn 0 0.998533 0.0541389 
vn 0 0.96355 0.267528 
vn 0 0.986827 0.161782 
vn 0 0.928977 0.370138 
vn 0 0.96355 0.267528 
vn 0 0.883512 0.468408 
vn 0 0.928977 0.370138 
vn 0 0.827689 0.561187 
vn 0 0.883512 0.468408 
vn 0 0.762162 0.647386 
vn 0 0.827689 0.561187 
vn 0 0.687699 0.725995 
vn 0 0.762162 0.647386 
vn 0 0.605174 0.796093 
vn 0 0.687699 0.725995 
vn 0 0.515554 0.856857 
vn 0 0.605174 0.796093 
vn 0 0.419889 0.907575 
vn 0 0.515554 0.856857 
vn 0 0.319302 0.947653 
vn 0 0.419889 0.907575 
vn 0 0.21497 0.976621 
vn 0 0.319302 0.947653 
vn 0 0.108119 0.994138 
vn 0 0.21497 0.976621 
vn 0 -1.22465e-16 1 
vn 0 0.108119 0.994138 
vn 0 -0.108119 0.994138 
vn 0 -1.22465e-16 1 
vn 0 -0.21497 0.976621 
vn 0 -0.108119 0.994138 
vn 0 -0.319302 0.947653 
vn 0 -0.21497 0.976621 
vn 0 -0.419889 0.907575 
vn 0 -0.319302 0.947653 
vn 0 -0.515554 0.856857 
vn 0 -0.419889 0.907575 
vn 0 -0.605174 0.796093 
vn 0 -0.515554 0.856857 
vn 0 -0.687699 0.725995 
vn 0 -0.605174 0.796093 
vn 0 -0.762162 0.647386 
vn 0 -0.687699 0.725995 
vn 0 -0.827689 0.561187 
vn 0 -0.762162 0.647386 
vn 0 -0.883512 0.468408 
vn 0 -0.827689 0.561187 
vn 0 -0.928977 0.370138 
vn 0 -0.883512 0.468408 
vn 0 -0.96355 0.267528 
vn 0 -0.928977 0.370138 
vn 0 -0.986827 0.161782 
vn 0 -0.96355 0.267528 
vn 0 -0.998533 0.0541389 
vn 0 -0.986827 0.161782 
vn 0 -0.998533 -0.0541389 
vn 0 -0.998533 0.0541389 
vn 0 -0.986827 -0.161782 
vn 0 -0.998533 -0.0541389 
vn 0 -0.96355 -0.267528 
vn 0 -0.986827 -0.161782 
vn 0 -0.928977 -0.370138 
vn 0 -0.96355 -0.267528 
vn 0 -0.883512 -0.468408 
vn 0 -0.928977 -0.370138 
vn 0 -0.827689 -0.561187 
vn 0 -0.883512 -0.468408 
vn 0 -0.762162 -0.647386 
vn 0 -0.827689 -0.561187 
vn 0 -0.687699 -0.725995 
vn 0 -0.762162 -0.647386 
vn 0 -0.605174 -0.796093 
vn 0 -0.687699 -0.725995 
vn 0 -0.515554 -0.856857 
vn 0 -0.605174 -0.796093 
vn 0 -0.419889 -0.907575 
vn 0 -0.515554 -0.856857 
vn 0 -0.319302 -0.947653 
vn 0 -0.419889 -0.907575 
vn 0 -0.21497 -0.976621 
vn 0 -0.319302 -0.947653 
vn 0 -0.108119 -0.994138 
vn 0 -0.21497 -0.976621 
vn 0 -0.108119 -0.994138 
f 60//60 61//61 62//62 
f 63//63 60//60 64//64 
f 65//65 63//63 66//66 
f 67//67 65//65 68//68 
f 69//69 67//67 70//70 
f 71//71 69//69 72//72 
f 73//73 71//71 74//74 
f 75//75 73//73 76//76 
f 77//77 75//75 78//78 
f 79//79 77//77 80//80 
f 81//81 79//79 82//82 
f 83//83 81//81 84//84 
f 85//85 83//83 86//86 
f 87//87 85//85 88//88 
f 89//89 87//87 90//90 
f 91//91 89//89 92//92 
f 93//93 91//91 94//94 
f 95//95 93//93 96//96 
f 97//97 95//95 98//98 
f 99//99 97//97 100//100 
f 101//101 99//99 102//102 
f 103//103 101//101 104//104 
f 105//105 103//103 106//106 
f 107//107 105//105 108//108 
f 109//109 107//107 110//110 
f 111//111 109//109 112//112 
f 113//113 111//111 114//114 
f 115//115 113//113 116//116 
f 117//117 115//115 118//118 
f 119//119 117//117 120//120 
f 121//121 119//119 122//122 
f 123//123 121//121 124//124 
f 125//125 123//123 126//126 
f 127//127 125//125 128//128 
f 129//129 127//127 130//130 
f 131//131 129//129 132//132 
f 133//133 131//131 134//134 
f 135//135 133//133 136//136 
f 137//137 135//135 138//138 
f 139//139 137//137 140//140 
f 141//141 139//139 142//142 
f 143//143 141//141 144//144 
f 145//145 143//143 146//146 
f 147//147 145//145 148//148 
f 149//149 147//147 150//150 
f 151//151 149//149 152//152 
f 153//153 151//151 154//154 
f 155//155 153//153 156//156 
f 157//157 155//155 158//158 
f 159//159 157//157 160//160 
f 161//161 159//159 162//162 
f 163//163 161//161 164//164 
f 165//165 163//163 166//166 
f 167//167 165//165 168//168 
f 169//169 167//167 170//170 
f 171//171 169//169 172//172 
f 173//173 171//171 174//174 
f 61//61 173//173 175//175 
f 175//175 62//62 61//61 
f 174//174 175//175 173//173 
f 172//172 174//174 171//171 
f 170//170 172//172 169//169 
f 168//168 170//170 167//167 
f 166//166 168//168 165//165 
f 164//164 166//166 163//163 
f 162//162 164//164 161//161 
f 160//160 162//162 159//159 
f 158//158 160//160 157//157 
f 156//156 158//158 155//155 
f 154//154 156//156 153//153 
f 152//152 154//154 151//151 
f 150//150 152//152 149//149 
f 148//148 150//150 147//147 
f 146//146 148//148 145//145 
f 144//144 146//146 143//143 
f 142//142 144//144 141//141 
f 140//140 142//142 139//139 
f 138//138 140//140 137//137 
f 136//136 138//138 135//135 
f 134//134 136//136 133//133 
f 132//132 134//134 131//131 
f 130//130 132//132 129//129 
f 128//128 130//130 127//127 
f 126//126 128//128 125//125 
f 124//124 126//126 123//123 
f 122//122 124//124 121//121 
f 120//120 122//122 119//119 
f 118//118 120//120 117//117 
f 116//116 118//118 115//115 
f 114//114 116//116 113//113 
f 112//112 114//114 111//111 
f 110//110 112//112 109//109 
f 108//108 110//110 107//107 
f 106//106 108//108 105//105 
f 104//104 106//106 103//103 
f 102//102 104//104 101//101 
f 100//100 102//102 99//99 
f 98//98 100//100 97//97 
f 96//96 98//98 95//95 
f 94//94 96//96 93//93 
f 92//92 94//94 91//91 
f 90//90 92//92 89//89 
f 88//88 90//90 87//87 
f 86//86 88//88 85//85 
f 84//84 86//86 83//83 
f 82//82 84//84 81//81 
f 80//80 82//82 79//79 
f 78//78 80//80 77//77 
f 76//76 78//78 75//75 
f 74//74 76//76 73//73 
f 72//72 74//74 71//71 
f 70//70 72//72 69//69 
f 68//68 70//70 67//67 
f 66//66 68//68 65//65 
f 64//64 66//66 63//63 
f 62//62 64//64 60//60 
o mesh28352
v 0.0491728 0.0407811 0 
v 0.0491728 0.0377732 0.072392 
v 0.0491728 0.0377732 0.072608 
v 0.0491728 0.0364181 0.215609 
v 0.0491728 0.0377732 0.145108 
v 0.0491728 0.0377732 0.144892 
v 0.0491728 0.0377499 0.0728228 
v 0.0491728 0.0377034 0.0730337 
v 0.0491728 0.03621 0.215552 
v 0.0491728 0.0376344 0.0717616 
v 0.0491728 0.0377034 0.0719663 
v 0.0491728 0.0357811 0.074495 
v 0.0491728 0.0339278 0.144262 
v 0.0491728 0.0340185 0.144066 
v 0.0491728 0.0376344 0.0732384 
v 0.0491728 0.0375437 0.0734345 
v 0.0491728 0.0366188 0.215689 
v 0.0491728 0.0377499 0.0721772 
v 0.0491728 0.0374324 0.0713804 
v 0.0491728 0.0375437 0.0715655 
v 0.0491728 0.0407811 0.29 
v 0.0491728 0.0377499 0.217823 
v 0.0491728 0.0377034 0.218034 
v 0.0491728 0.0366188 0.0743106 
v 0.0491728 0.0371531 0.143552 
v 0.0491728 0.0373017 0.143708 
v 0.0491728 0.0338589 0.144466 
v 0.0491728 0.0307811 0 
v 0.0491728 0.0338124 0.0721772 
v 0.0491728 0.0338589 0.0719663 
v 0.0491728 0.0351441 0.0743906 
v 0.0491728 0.0307811 0.29 
v 0.0491728 0.0337891 0.144892 
v 0.0491728 0.0377732 0.217608 
v 0.0491728 0.0377499 0.217177 
v 0.0491728 0.0377732 0.217392 
v 0.0491728 0.0375437 0.144066 
v 0.0491728 0.0376344 0.144262 
v 0.0491728 0.0374324 0.14388 
v 0.0491728 0.0341299 0.14388 
v 0.0491728 0.0374324 0.0736196 
v 0.0491728 0.0373017 0.0737915 
v 0.0491728 0.0371531 0.0710516 
v 0.0491728 0.0373017 0.0712085 
v 0.0491728 0.0357811 0.215505 
v 0.0491728 0.0376344 0.145738 
v 0.0491728 0.0375437 0.145934 
v 0.0491728 0.0337891 0.072392 
v 0.0491728 0.0338124 0.0728228 
v 0.0491728 0.0337891 0.072608 
v 0.0491728 0.0337891 0.145108 
v 0.0491728 0.0339278 0.218238 
v 0.0491728 0.0338589 0.218034 
v 0.0491728 0.0377034 0.216966 
v 0.0491728 0.0374324 0.21638 
v 0.0491728 0.0375437 0.216566 
v 0.0491728 0.0377034 0.144466 
v 0.0491728 0.0377499 0.144677 
v 0.0491728 0.0368097 0.143291 
v 0.0491728 0.0369885 0.143412 
v 0.0491728 0.0364181 0.143109 
v 0.0491728 0.0366188 0.143189 
v 0.0491728 0.0357811 0.143005 
v 0.0491728 0.03621 0.0744484 
v 0.0491728 0.0359968 0.0744833 
v 0.0491728 0.0344092 0.143552 
v 0.0491728 0.0345738 0.143412 
v 0.0491728 0.0338124 0.144677 
v 0.0491728 0.0369885 0.0709118 
v 0.0491728 0.0377034 0.145534 
v 0.0491728 0.0338589 0.0730337 
v 0.0491728 0.0341299 0.0736196 
v 0.0491728 0.0340185 0.0734345 
v 0.0491728 0.0353523 0.0744484 
v 0.0491728 0.0340185 0.145934 
v 0.0491728 0.0339278 0.145738 
v 0.0491728 0.0345738 0.146588 
v 0.0491728 0.0344092 0.146448 
v 0.0491728 0.0337891 0.217608 
v 0.0491728 0.0337891 0.217392 
v 0.0491728 0.0338124 0.217823 
v 0.0491728 0.0375437 0.218434 
v 0.0491728 0.0374324 0.21862 
v 0.0491728 0.0376344 0.216762 
v 0.0491728 0.0355654 0.143017 
v 0.0491728 0.0347526 0.143291 
v 0.0491728 0.0371531 0.0739484 
v 0.0491728 0.0369885 0.0740882 
v 0.0491728 0.0359968 0.215517 
v 0.0491728 0.0373017 0.146292 
v 0.0491728 0.0371531 0.146448 
v 0.0491728 0.0374324 0.14612 
v 0.0491728 0.0357811 0.146995 
v 0.0491728 0.0339278 0.216762 
v 0.0491728 0.0340185 0.216566 
v 0.0491728 0.0341299 0.0713804 
v 0.0491728 0.0342606 0.0712085 
v 0.0491728 0.0339278 0.0717616 
v 0.0491728 0.0340185 0.0715655 
v 0.0491728 0.0339278 0.0732384 
v 0.0491728 0.0344092 0.0739484 
v 0.0491728 0.0342606 0.0737915 
v 0.0491728 0.0347526 0.0742094 
v 0.0491728 0.0345738 0.0740882 
v 0.0491728 0.0338124 0.145323 
v 0.0491728 0.0338589 0.145534 
v 0.0491728 0.0342606 0.146292 
v 0.0491728 0.0341299 0.14612 
v 0.0491728 0.0347526 0.146709 
v 0.0491728 0.0371531 0.218948 
v 0.0491728 0.0369885 0.219088 
v 0.0491728 0.0373017 0.218792 
v 0.0491728 0.0376344 0.218238 
v 0.0491728 0.0373017 0.216208 
v 0.0491728 0.0369885 0.215912 
v 0.0491728 0.0371531 0.216052 
v 0.0491728 0.0359968 0.143017 
v 0.0491728 0.03621 0.143052 
v 0.0491728 0.0364181 0.0743906 
v 0.0491728 0.0349435 0.143189 
v 0.0491728 0.0342606 0.143708 
v 0.0491728 0.0368097 0.0742094 
v 0.0491728 0.0357811 0.070505 
v 0.0491728 0.0368097 0.146709 
v 0.0491728 0.0366188 0.146811 
v 0.0491728 0.0369885 0.146588 
v 0.0491728 0.0377499 0.145323 
v 0.0491728 0.0338589 0.216966 
v 0.0491728 0.0344092 0.0710516 
v 0.0491728 0.0349435 0.0743106 
v 0.0491728 0.0340185 0.218434 
v 0.0491728 0.0342606 0.218792 
v 0.0491728 0.0341299 0.21862 
v 0.0491728 0.03621 0.219448 
v 0.0491728 0.0359968 0.219483 
v 0.0491728 0.0368097 0.219209 
v 0.0491728 0.0368097 0.215791 
v 0.0491728 0.0351441 0.143109 
v 0.0491728 0.0353523 0.143052 
v 0.0491728 0.0366188 0.0706894 
v 0.0491728 0.0368097 0.0707906 
v 0.0491728 0.03621 0.0705516 
v 0.0491728 0.0364181 0.0706094 
v 0.0491728 0.0359968 0.0705167 
v 0.0491728 0.0353523 0.215552 
v 0.0491728 0.0355654 0.215517 
v 0.0491728 0.0341299 0.21638 
v 0.0491728 0.0338124 0.217177 
v 0.0491728 0.0355654 0.0744833 
v 0.0491728 0.0351441 0.146891 
v 0.0491728 0.0349435 0.146811 
v 0.0491728 0.0355654 0.146983 
v 0.0491728 0.0353523 0.146948 
v 0.0491728 0.0344092 0.218948 
v 0.0491728 0.0349435 0.219311 
v 0.0491728 0.0347526 0.219209 
v 0.0491728 0.0366188 0.219311 
v 0.0491728 0.0364181 0.219391 
v 0.0491728 0.0359968 0.146983 
v 0.0491728 0.0349435 0.215689 
v 0.0491728 0.0351441 0.215609 
v 0.0491728 0.0364181 0.146891 
v 0.0491728 0.03621 0.146948 
v 0.0491728 0.0342606 0.216208 
v 0.0491728 0.0344092 0.216052 
v 0.0491728 0.0353523 0.0705516 
v 0.0491728 0.0355654 0.0705167 
v 0.0491728 0.0349435 0.0706894 
v 0.0491728 0.0351441 0.0706094 
v 0.0491728 0.0345738 0.0709118 
v 0.0491728 0.0347526 0.0707906 
v 0.0491728 0.0345738 0.219088 
v 0.0491728 0.0345738 0.215912 
v 0.0491728 0.0347526 0.215791 
v 0.0491728 0.0353523 0.219448 
v 0.0491728 0.0351441 0.219391 
v 0.0491728 0.0357811 0.219495 
v 0.0491728 0.0355654 0.219483 
vn -1 0 0 
vn -1 0 0 
vn -1 0 0 
vn -1 0 0 
vn -1 0 0 
vn -1 0 0 
vn -1 0 0 
vn -1 0 0 
vn -1 0 0 
vn -1 0 0 
vn -1 0 0 
vn -1 0 0 
vn -1 0 0 
vn -1 0 0 
vn -1 0 0 
vn -1 0 0 
vn -1 0 0 
vn -1 0 0 
vn -1 0 0 
vn -1 0 0 
vn -1 0 0 
vn -1 0 0 
vn -1 0 0 
vn -1 0 0 
vn -1 0 0 
vn -1 0 0 
vn -1 0 0 
vn -1 0 0 
vn -1 0 0 
vn -1 0 0 
vn -1 0 0 
vn -1 0 0 
vn -1 0 0 
vn -1 0 0 
vn -1 0 0 
vn -1 0 0 
vn -1 0 0 
vn -1 0 0 
vn -1 0 0 
vn -1 0 0 
vn -1 0 0 
vn -1 0 0 
vn -1 0 0 
vn -1 0 0 
vn -1 0 0 
vn -1 0 0 
vn -1 0 0 
vn -1 0 0 
vn -1 0 0 
vn -1 0 0 
vn -1 0 0 
vn -1 0 0 
vn -1 0 0 
vn -1 0 0 
vn -1 0 0 
vn -1 0 0 
vn -1 0 0 
vn -1 0 0 
vn -1 0 0 
vn -1 0 0 
vn -1 0 0 
vn -1 0 0 
vn -1 0 0 
vn -1 0 0 
vn -1 0 0 
vn -1 0 0 
vn -1 0 0 
vn -1 0 0 
vn -1 0 0 
vn -1 0 0 
vn -1 0 0 
vn -1 0 0 
vn -1 0 0 
vn -1 0 0 
vn -1 0 0 
vn -1 0 0 
vn -1 0 0 
vn -1 0 0 
vn -1 0 0 
vn -1 0 0 
vn -1 0 0 
vn -1 0 0 
vn -1 0 0 
vn -1 0 0 
vn -1 0 0 
vn -1 0 0 
vn -1 0 0 
vn -1 0 0 
vn -1 0 0 
vn -1 0 0 
vn -1 0 0 
vn -1 0 0 
vn -1 0 0 
vn -1 0 0 
vn -1 0 0 
vn -1 0 0 
vn -1 0 0 
vn -1 0 0 
vn -1 0 0 
vn -1 0 0 
vn -1 0 0 
vn -1 0 0 
vn -1 0 0 
vn -1 0 0 
vn -1 0 0 
vn -1 0 0 
vn -1 0 0 
vn -1 0 0 
vn -1 0 0 
vn -1 0 0 
vn -1 0 0 
vn -1 0 0 
vn -1 0 0 
vn -1 0 0 
vn -1 0 0 
vn -1 0 0 
vn -1 0 0 
vn -1 0 0 
vn -1 0 0 
vn -1 0 0 
vn -1 0 0 
vn -1 0 0 
vn -1 0 0 
vn -1 0 0 
vn -1 0 0 
vn -1 0 0 
vn -1 0 0 
vn -1 0 0 
vn -1 0 0 
vn -1 0 0 
vn -1 0 0 
vn -1 0 0 
vn -1 0 0 
vn -1 0 0 
vn -1 0 0 
vn -1 0 0 
vn -1 0 0 
vn -1 0 0 
vn -1 0 0 
vn -1 0 0 
vn -1 0 0 
vn -1 0 0 
vn -1 0 0 
vn -1 0 0 
vn -1 0 0 
vn -1 0 0 
vn -1 0 0 
vn -1 0 0 
vn -1 0 0 
vn -1 0 0 
vn -1 0 0 
vn -1 0 0 
vn -1 0 0 
vn -1 0 0 
vn -1 0 0 
vn -1 0 0 
vn -1 0 0 
vn -1 0 0 
vn -1 0 0 
vn -1 0 0 
vn -1 0 0 
vn -1 0 0 
vn -1 0 0 
vn -1 0 0 
vn -1 0 0 
vn -1 0 0 
vn -1 0 0 
vn -1 0 0 
vn -1 0 0 
vn -1 0 0 
vn -1 0 0 
vn -1 0 0 
vn -1 0 0 
vn -1 0 0 
vn -1 0 0 
vn -1 0 0 
vn -1 0 0 
vn -1 0 0 
f 176//176 177//177 178//178 
f 179//179 176//176 180//180 
f 178//178 181//181 176//176 
f 181//181 182//182 183//183 
f 181//181 180//180 176//176 
f 181//181 178//178 182//182 
f 180//180 184//184 179//179 
f 176//176 185//185 186//186 
f 187//187 188//188 189//189 
f 181//181 190//190 191//191 
f 179//179 192//192 176//176 
f 186//186 193//193 176//176 
f 176//176 194//194 195//195 
f 196//196 197//197 198//198 
f 199//199 200//200 201//201 
f 187//187 202//202 188//188 
f 183//183 190//190 181//181 
f 195//195 185//185 176//176 
f 203//203 204//204 205//205 
f 206//206 207//207 208//208 
f 196//196 209//209 197//197 
f 176//176 210//210 211//211 
f 199//199 212//212 213//213 
f 201//201 214//214 199//199 
f 189//189 215//215 187//187 
f 181//181 216//216 217//217 
f 193//193 177//177 176//176 
f 176//176 218//218 219//219 
f 220//220 221//221 222//222 
f 203//203 223//223 204//204 
f 207//207 224//224 225//225 
f 207//207 226//226 208//208 
f 207//207 227//227 228//228 
f 196//196 211//211 209//209 
f 176//176 229//229 210//210 
f 176//176 230//230 231//231 
f 199//199 232//232 233//233 
f 214//214 212//212 199//199 
f 199//199 234//234 235//235 
f 199//199 236//236 237//237 
f 238//238 239//239 240//240 
f 187//187 241//241 242//242 
f 187//187 243//243 202//202 
f 191//191 216//216 181//181 
f 176//176 244//244 218//218 
f 220//220 245//245 221//221 
f 203//203 225//225 223//223 
f 207//207 246//246 224//224 
f 207//207 247//247 248//248 
f 208//208 249//249 206//206 
f 207//207 250//250 251//251 
f 207//207 252//252 253//253 
f 207//207 254//254 255//255 
f 228//228 256//256 207//207 
f 196//196 257//257 258//258 
f 211//211 196//196 176//176 
f 231//231 259//259 176//176 
f 213//213 232//232 199//199 
f 237//237 234//234 199//199 
f 240//240 260//260 238//238 
f 242//242 261//261 187//187 
f 187//187 208//208 243//243 
f 181//181 262//262 263//263 
f 219//219 194//194 176//176 
f 180//180 220//220 264//264 
f 220//220 265//265 266//266 
f 222//222 267//267 220//220 
f 268//268 269//269 270//270 
f 203//203 271//271 272//272 
f 203//203 273//273 274//274 
f 225//225 203//203 207//207 
f 248//248 275//275 207//207 
f 207//207 276//276 277//277 
f 207//207 278//278 279//279 
f 207//207 280//280 226//226 
f 251//251 281//281 207//207 
f 207//207 282//282 283//283 
f 207//207 284//284 252//252 
f 256//256 254//254 207//207 
f 196//196 285//285 286//286 
f 258//258 287//287 196//196 
f 198//198 288//288 196//196 
f 176//176 289//289 230//230 
f 176//176 290//290 291//291 
f 235//235 200//200 199//199 
f 199//199 292//292 293//293 
f 240//240 187//187 260//260 
f 292//292 199//199 294//294 
f 261//261 295//295 187//187 
f 215//215 296//296 187//187 
f 263//263 297//297 181//181 
f 264//264 184//184 180//180 
f 176//176 203//203 298//298 
f 220//220 299//299 300//300 
f 266//266 301//301 220//220 
f 220//220 302//302 245//245 
f 268//268 303//303 269//269 
f 272//272 304//304 203//203 
f 205//205 273//273 203//203 
f 277//277 247//247 207//207 
f 207//207 305//305 278//278 
f 281//281 280//280 207//207 
f 253//253 282//282 207//207 
f 207//207 306//306 227//227 
f 207//207 307//307 308//308 
f 196//196 309//309 310//310 
f 286//286 311//311 196//196 
f 288//288 257//257 196//196 
f 291//291 289//289 176//176 
f 176//176 192//192 312//312 
f 293//293 236//236 199//199 
f 294//294 239//239 292//292 
f 187//187 313//313 314//314 
f 296//296 241//241 187//187 
f 217//217 262//262 181//181 
f 176//176 315//315 316//316 
f 176//176 317//317 318//318 
f 298//298 319//319 176//176 
f 268//268 320//320 321//321 
f 301//301 299//299 220//220 
f 220//220 180//180 302//302 
f 270//270 322//322 268//268 
f 268//268 255//255 323//323 
f 274//274 271//271 203//203 
f 279//279 276//276 207//207 
f 283//283 250//250 207//207 
f 208//208 187//187 324//324 
f 207//207 325//325 326//326 
f 207//207 327//327 328//328 
f 255//255 268//268 207//207 
f 207//207 329//329 307//307 
f 207//207 330//330 331//331 
f 310//310 207//207 196//196 
f 196//196 332//332 333//333 
f 287//287 285//285 196//196 
f 312//312 290//290 176//176 
f 238//238 292//292 239//239 
f 295//295 313//313 187//187 
f 316//316 244//244 176//176 
f 319//319 317//317 176//176 
f 321//321 334//334 268//268 
f 268//268 335//335 336//336 
f 220//220 337//337 338//338 
f 267//267 265//265 220//220 
f 268//268 339//339 340//340 
f 323//323 303//303 268//268 
f 203//203 341//341 342//342 
f 203//203 343//343 344//344 
f 203//203 345//345 346//346 
f 275//275 246//246 207//207 
f 324//324 249//249 208//208 
f 328//328 325//325 207//207 
f 308//308 306//306 207//207 
f 331//331 347//347 207//207 
f 333//333 309//309 196//196 
f 259//259 229//229 176//176 
f 314//314 260//260 187//187 
f 318//318 315//315 176//176 
f 336//336 320//320 268//268 
f 300//300 337//337 220//220 
f 268//268 348//348 349//349 
f 322//322 339//339 268//268 
f 344//344 341//341 203//203 
f 304//304 345//345 203//203 
f 326//326 284//284 207//207 
f 347//347 329//329 207//207 
f 311//311 332//332 196//196 
f 297//297 199//199 181//181 
f 338//338 334//334 220//220 
f 340//340 348//348 268//268 
f 346//346 343//343 203//203 
f 268//268 327//327 207//207 
f 207//207 350//350 351//351 
f 207//207 352//352 353//353 
f 233//233 181//181 199//199 
f 349//349 335//335 268//268 
f 206//206 305//305 207//207 
f 353//353 350//350 207//207 
f 321//321 220//220 334//334 
f 351//351 330//330 207//207 
f 342//342 298//298 203//203 
f 310//310 352//352 207//207 
o mesh28353
v 0.0457087 0.0387811 0.29 
v 0.0457087 0.0387811 0 
v 0.0491728 0.0407811 0 
v 0.0491728 0.0407811 0.29 
vn 0.5 -0.866025 0 
vn 0.5 -0.866025 0 
vn 0.5 -0.866025 0 
vn 0.5 -0.866025 0 
f 354//354 355//355 356//356 
f 356//356 357//357 354//354 
o mesh28354
v 0.0427087 0.0387811 0.29 
v 0.0427087 0.0387811 0 
v 0.0457087 0.0387811 0 
v 0.0457087 0.0387811 0.29 
vn 0 -1 0 
vn 0 -1 0 
vn 0 -1 0 
vn 0 -1 0 
f 358//358 359//359 360//360 
f 360//360 361//361 358//358 
o mesh28355
v 0.0427087 0.0437227 0.29 
v 0.0427087 0.0437227 0 
v 0.0427087 0.0387811 0 
v 0.0427087 0.0387811 0.29 
vn -1 0 0 
vn -1 0 0 
vn -1 0 0 
vn -1 0 0 
f 362//362 363//363 364//364 
f 364//364 365//365 362//362 
o mesh28356
v 0.0427087 0.0437227 0 
v 0.0427087 0.0437227 0.29 
v 0.0427117 0.0437768 0.29 
v 0.0427117 0.0437768 0 
v 0.0427204 0.0438302 0.29 
v 0.0427204 0.0438302 0 
v 0.0427349 0.0438824 0.29 
v 0.0427349 0.0438824 0 
v 0.042755 0.0439327 0.29 
v 0.042755 0.0439327 0 
v 0.0427803 0.0439805 0.29 
v 0.0427803 0.0439805 0 
v 0.0428107 0.0440254 0.29 
v 0.0428107 0.0440254 0 
v 0.0428458 0.0440666 0.29 
v 0.0428458 0.0440666 0 
v 0.0428851 0.0441039 0.29 
v 0.0428851 0.0441039 0 
v 0.0429282 0.0441366 0.29 
v 0.0429282 0.0441366 0 
v 0.0429746 0.0441645 0.29 
v 0.0429746 0.0441645 0 
v 0.0430237 0.0441873 0.29 
v 0.0430237 0.0441873 0 
v 0.0430751 0.0442045 0.29 
v 0.0430751 0.0442045 0 
v 0.0431279 0.0442162 0.29 
v 0.0431279 0.0442162 0 
v 0.0431818 0.044222 0.29 
v 0.0431818 0.044222 0 
v 0.0432359 0.044222 0.29 
v 0.0432359 0.044222 0 
v 0.0432898 0.0442161 0.29 
v 0.0432898 0.0442161 0 
vn -1 0 0 
vn -1 0 0 
vn -0.994136 0.108136 0 
vn -0.994136 0.108136 0 
vn -0.976613 0.215005 0 
vn -0.976613 0.215005 0 
vn -0.947636 0.319351 0 
vn -0.947636 0.319351 0 
vn -0.907546 0.419953 0 
vn -0.907546 0.419953 0 
vn -0.856812 0.515629 0 
vn -0.856812 0.515629 0 
vn -0.796029 0.605258 0 
vn -0.796029 0.605258 0 
vn -0.725911 0.687789 0 
vn -0.725911 0.687789 0 
vn -0.647279 0.762253 0 
vn -0.647279 0.762253 0 
vn -0.561056 0.827778 0 
vn -0.561056 0.827778 0 
vn -0.468253 0.883594 0 
vn -0.468253 0.883594 0 
vn -0.369959 0.929048 0 
vn -0.369959 0.929048 0 
vn -0.267325 0.963606 0 
vn -0.267325 0.963606 0 
vn -0.161557 0.986863 0 
vn -0.161557 0.986863 0 
vn -0.0538935 0.998547 0 
vn -0.0538935 0.998547 0 
vn 0.0544018 0.998519 0 
vn 0.0544018 0.998519 0 
vn 0.162059 0.986781 0 
vn 0.162059 0.986781 0 
f 366//366 367//367 368//368 
f 369//369 368//368 370//370 
f 371//371 370//370 372//372 
f 373//373 372//372 374//374 
f 375//375 374//374 376//376 
f 377//377 376//376 378//378 
f 379//379 378//378 380//380 
f 381//381 380//380 382//382 
f 383//383 382//382 384//384 
f 385//385 384//384 386//386 
f 387//387 386//386 388//388 
f 389//389 388//388 390//390 
f 391//391 390//390 392//392 
f 393//393 392//392 394//394 
f 395//395 394//394 396//396 
f 397//397 396//396 398//398 
f 398//398 399//399 397//397 
f 396//396 397//397 395//395 
f 394//394 395//395 393//393 
f 392//392 393//393 391//391 
f 390//390 391//391 389//389 
f 388//388 389//389 387//387 
f 386//386 387//387 385//385 
f 384//384 385//385 383//383 
f 382//382 383//383 381//381 
f 380//380 381//381 379//379 
f 378//378 379//379 377//377 
f 376//376 377//377 375//375 
f 374//374 375//375 373//373 
f 372//372 373//373 371//371 
f 370//370 371//371 369//369 
f 368//368 369//369 366//366 
o mesh28357
v 0.0538426 0.0427133 0.29 
v 0.0538426 0.0427133 0 
v 0.0432898 0.0442161 0 
v 0.0668541 0.0414808 0.29 
v 0.0668541 0.0414808 0 
v 0.0799087 0.0409091 0.29 
v 0.0799087 0.0409091 0 
v 0.0432898 0.0442161 0.29 
vn 0.119927 0.992783 0 
vn 0.119927 0.992783 0 
vn 0.162059 0.986781 0 
vn 0.0688017 0.99763 0 
vn 0.0688017 0.99763 0 
vn 0.0189621 0.99982 0 
vn 0.0189621 0.99982 0 
vn 0.162059 0.986781 0 
f 400//400 401//401 402//402 
f 403//403 404//404 401//401 
f 405//405 406//406 404//404 
f 404//404 403//403 405//405 
f 401//401 400//400 403//403 
f 402//402 407//407 400//400 
o mesh28358
v 0.0491728 0.0307811 0.29 
v 0.0491728 0.0307811 0 
v 0.0457087 0.0327811 0 
v 0.0457087 0.0327811 0.29 
vn 0.5 0.866025 0 
vn 0.5 0.866025 0 
vn 0.5 0.866025 0 
vn 0.5 0.866025 0 
f 408//408 409//409 410//410 
f 410//410 411//411 408//408 
o mesh28359
v 0.0457087 0.0327811 0.29 
v 0.0457087 0.0327811 0 
v 0.0427087 0.0327811 0 
v 0.0427087 0.0327811 0.29 
vn 0 1 0 
vn 0 1 0 
vn 0 1 0 
vn 0 1 0 
f 412//412 413//413 414//414 
f 414//414 415//415 412//412 
o mesh28360
v 0.0427087 0.0278395 0 
v 0.0427087 0.0278395 0.29 
v 0.0427087 0.0327811 0.29 
v 0.0427087 0.0327811 0 
vn -1 0 0 
vn -1 0 0 
vn -1 0 0 
vn -1 0 0 
f 416//416 417//417 418//418 
f 418//418 419//419 416//416 
o mesh28361
v 0.0431623 0.0273417 0 
v 0.0431623 0.0273417 0.29 
v 0.0431101 0.0273494 0.29 
v 0.0431101 0.0273494 0 
v 0.043059 0.0273625 0.29 
v 0.043059 0.0273625 0 
v 0.0430095 0.0273809 0.29 
v 0.0430095 0.0273809 0 
v 0.0429623 0.0274045 0.29 
v 0.0429623 0.0274045 0 
v 0.0429179 0.0274329 0.29 
v 0.0429179 0.0274329 0 
v 0.0428766 0.0274658 0.29 
v 0.0428766 0.0274658 0 
v 0.0428391 0.0275028 0.29 
v 0.0428391 0.0275028 0 
v 0.0428057 0.0275436 0.29 
v 0.0428057 0.0275436 0 
v 0.0427768 0.0275878 0.29 
v 0.0427768 0.0275878 0 
v 0.0427526 0.0276347 0.29 
v 0.0427526 0.0276347 0 
v 0.0427336 0.0276839 0.29 
v 0.0427336 0.0276839 0 
v 0.0427198 0.0277348 0.29 
v 0.0427198 0.0277348 0 
v 0.0427115 0.0277869 0.29 
v 0.0427115 0.0277869 0 
v 0.0427087 0.0278395 0.29 
v 0.0427087 0.0278395 0 
vn -0.0929448 -0.995671 0 
vn -0.0929448 -0.995671 0 
vn -0.197327 -0.980338 0 
vn -0.197327 -0.980338 0 
vn -0.299512 -0.954092 0 
vn -0.299512 -0.954092 0 
vn -0.398364 -0.917227 0 
vn -0.398364 -0.917227 0 
vn -0.492782 -0.870153 0 
vn -0.492782 -0.870153 0 
vn -0.581715 -0.813393 0 
vn -0.581715 -0.813393 0 
vn -0.664173 -0.747579 0 
vn -0.664173 -0.747579 0 
vn -0.739238 -0.673445 0 
vn -0.739238 -0.673445 0 
vn -0.806075 -0.591814 0 
vn -0.806075 -0.591814 0 
vn -0.863939 -0.503596 0 
vn -0.863939 -0.503596 0 
vn -0.912188 -0.409773 0 
vn -0.912188 -0.409773 0 
vn -0.950283 -0.311388 0 
vn -0.950283 -0.311388 0 
vn -0.977801 -0.209538 0 
vn -0.977801 -0.209538 0 
vn -0.994435 -0.105355 0 
vn -0.994435 -0.105355 0 
vn -1 -2.44929e-16 0 
vn -1 -2.44929e-16 0 
f 420//420 421//421 422//422 
f 423//423 422//422 424//424 
f 425//425 424//424 426//426 
f 427//427 426//426 428//428 
f 429//429 428//428 430//430 
f 431//431 430//430 432//432 
f 433//433 432//432 434//434 
f 435//435 434//434 436//436 
f 437//437 436//436 438//438 
f 439//439 438//438 440//440 
f 441//441 440//440 442//442 
f 443//443 442//442 444//444 
f 445//445 444//444 446//446 
f 447//447 446//446 448//448 
f 448//448 449//449 447//447 
f 446//446 447//447 445//445 
f 444//444 445//445 443//443 
f 442//442 443//443 441//441 
f 440//440 441//441 439//439 
f 438//438 439//439 437//437 
f 436//436 437//437 435//435 
f 434//434 435//435 433//433 
f 432//432 433//433 431//431 
f 430//430 431//431 429//429 
f 428//428 429//429 427//427 
f 426//426 427//427 425//425 
f 424//424 425//425 423//423 
f 422//422 423//423 420//420 
o mesh28362
v 0.0470393 0.028024 0 
v 0.0470393 0.028024 0.29 
v 0.0431623 0.0273417 0.29 
v 0.0537767 0.0288684 0 
v 0.0537767 0.0288684 0.29 
v 0.0603811 0.0292663 0 
v 0.0603811 0.0292663 0.29 
v 0.0643702 0.029585 0 
v 0.0643702 0.029585 0.29 
v 0.0431623 0.0273417 0 
vn 0.15725 -0.987559 0 
vn 0.15725 -0.987559 0 
vn 0.188269 -0.982118 0 
vn 0.0887686 -0.996052 0 
vn 0.0887686 -0.996052 0 
vn 0.0484978 -0.998823 0 
vn 0.0484978 -0.998823 0 
vn 0.131603 -0.991302 0 
vn 0.131603 -0.991302 0 
vn 0.188269 -0.982118 0 
f 450//450 451//451 452//452 
f 453//453 454//454 451//451 
f 455//455 456//456 454//454 
f 457//457 458//458 456//456 
f 456//456 455//455 457//457 
f 454//454 453//453 455//455 
f 451//451 450//450 453//453 
f 452//452 459//459 450//450 
o mesh28363
v 0.0799087 0.0409091 0 
v 0.0799087 0.0409091 0.29 
v 0.0799087 0.0393622 0.29 
v 0.0799087 0.0393622 0 
vn 1 8.97148e-15 0 
vn 1 8.97148e-15 0 
vn 1 8.97148e-15 0 
vn 1 8.97148e-15 0 
f 460//460 461//461 462//462 
f 462//462 463//463 460//460 
o mesh28364
v 0.0797878 0.0381143 0.29 
v 0.0797878 0.0381143 0 
v 0.0798784 0.0387353 0 
v 0.0798784 0.0387353 0.29 
v 0.0799087 0.0393622 0 
v 0.0799087 0.0393622 0.29 
vn 0.981397 -0.19199 0 
vn 0.981397 -0.19199 0 
vn 0.995338 -0.0964446 0 
vn 0.995338 -0.0964446 0 
vn 1 -2.44929e-16 0 
vn 1 -2.44929e-16 0 
f 464//464 465//465 466//466 
f 467//467 466//466 468//468 
f 468//468 469//469 467//467 
f 466//466 467//467 464//464 
o mesh28365
v 0.0564327 0.0381143 0.29 
v 0.0564327 0.0381143 0 
v 0.0797878 0.0381143 0 
v 0.0797878 0.0381143 0.29 
vn 0 -1 0 
vn 0 -1 0 
vn 0 -1 0 
vn 0 -1 0 
f 470//470 471//471 472//472 
f 472//472 473//473 470//470 
o mesh28366
v 0.0470393 0.028024 0.29 
v 0.0430095 0.0273809 0.29 
v 0.043059 0.0273625 0.29 
v 0.0431101 0.0273494 0.29 
v 0.0429179 0.0274329 0.29 
v 0.0429623 0.0274045 0.29 
v 0.0428391 0.0275028 0.29 
v 0.0428766 0.0274658 0.29 
v 0.0491728 0.0407811 0.29 
v 0.0428458 0.0440666 0.29 
v 0.0428107 0.0440254 0.29 
v 0.0428057 0.0275436 0.29 
v 0.0427526 0.0276347 0.29 
v 0.0427768 0.0275878 0.29 
v 0.0427198 0.0277348 0.29 
v 0.0427336 0.0276839 0.29 
v 0.042755 0.0439327 0.29 
v 0.0427349 0.0438824 0.29 
v 0.0427803 0.0439805 0.29 
v 0.0430237 0.0441873 0.29 
v 0.0429746 0.0441645 0.29 
v 0.0431279 0.0442162 0.29 
v 0.0430751 0.0442045 0.29 
v 0.0799087 0.0393622 0.29 
v 0.0799087 0.0409091 0.29 
v 0.0668541 0.0414808 0.29 
v 0.0564327 0.0381143 0.29 
v 0.0797878 0.0381143 0.29 
v 0.0798784 0.0387353 0.29 
v 0.0427204 0.0438302 0.29 
v 0.0427117 0.0437768 0.29 
v 0.0427087 0.0278395 0.29 
v 0.0427115 0.0277869 0.29 
v 0.0457087 0.0327811 0.29 
v 0.0538426 0.0427133 0.29 
v 0.0491728 0.0307811 0.29 
v 0.0537767 0.0288684 0.29 
v 0.0429282 0.0441366 0.29 
v 0.0428851 0.0441039 0.29 
v 0.0431818 0.044222 0.29 
v 0.0432898 0.0442161 0.29 
v 0.0432359 0.044222 0.29 
v 0.0564327 0.0301768 0.29 
v 0.0643702 0.0301768 0.29 
v 0.0603811 0.0292663 0.29 
v 0.0427087 0.0327811 0.29 
v 0.0427087 0.0437227 0.29 
v 0.0427087 0.0387811 0.29 
v 0.0457087 0.0387811 0.29 
v 0.0643702 0.029585 0.29 
v 0.0431623 0.0273417 0.29 
vn 0 0 1 
vn 0 0 1 
vn 0 0 1 
vn 0 0 1 
vn 0 0 1 
vn 0 0 1 
vn 0 0 1 
vn 0 0 1 
vn 0 0 1 
vn 0 0 1 
vn 0 0 1 
vn 0 0 1 
vn 0 0 1 
vn 0 0 1 
vn 0 0 1 
vn 0 0 1 
vn 0 0 1 
vn 0 0 1 
vn 0 0 1 
vn 0 0 1 
vn 0 0 1 
vn 0 0 1 
vn 0 0 1 
vn 0 0 1 
vn 0 0 1 
vn 0 0 1 
vn 0 0 1 
vn 0 0 1 
vn 0 0 1 
vn 0 0 1 
vn 0 0 1 
vn 0 0 1 
vn 0 0 1 
vn 0 0 1 
vn 0 0 1 
vn 0 0 1 
vn 0 0 1 
vn 0 0 1 
vn 0 0 1 
vn 0 0 1 
vn 0 0 1 
vn 0 0 1 
vn 0 0 1 
vn 0 0 1 
vn 0 0 1 
vn 0 0 1 
vn 0 0 1 
vn 0 0 1 
vn 0 0 1 
vn 0 0 1 
vn 0 0 1 
f 474//474 475//475 476//476 
f 476//476 477//477 474//474 
f 474//474 478//478 479//479 
f 474//474 480//480 481//481 
f 482//482 483//483 484//484 
f 479//479 475//475 474//474 
f 474//474 485//485 480//480 
f 474//474 486//486 487//487 
f 474//474 488//488 489//489 
f 482//482 490//490 491//491 
f 484//484 492//492 482//482 
f 482//482 493//493 494//494 
f 482//482 495//495 496//496 
f 481//481 478//478 474//474 
f 489//489 486//486 474//474 
f 497//497 498//498 499//499 
f 500//500 501//501 502//502 
f 482//482 503//503 504//504 
f 492//492 490//490 482//482 
f 496//496 493//493 482//482 
f 487//487 485//485 474//474 
f 474//474 505//505 506//506 
f 507//507 505//505 474//474 
f 502//502 497//497 500//500 
f 500//500 508//508 482//482 
f 500//500 509//509 510//510 
f 491//491 503//503 482//482 
f 482//482 511//511 512//512 
f 482//482 513//513 495//495 
f 482//482 514//514 515//515 
f 506//506 488//488 474//474 
f 474//474 509//509 507//507 
f 499//499 500//500 497//497 
f 510//510 516//516 500//500 
f 517//517 516//516 518//518 
f 512//512 483//483 482//482 
f 515//515 513//513 482//482 
f 507//507 519//519 505//505 
f 482//482 509//509 500//500 
f 516//516 510//510 518//518 
f 520//520 521//521 522//522 
f 494//494 511//511 482//482 
f 474//474 510//510 509//509 
f 518//518 523//523 517//517 
f 504//504 520//520 482//482 
f 499//499 508//508 500//500 
f 522//522 482//482 520//520 
f 482//482 508//508 514//514 
f 477//477 524//524 474//474 
o mesh28367
v 0.0427087 0.0437227 0 
v 0.0430237 0.0441873 0 
v 0.0430751 0.0442045 0 
v 0.0429282 0.0441366 0 
v 0.0429746 0.0441645 0 
v 0.0428458 0.0440666 0 
v 0.042755 0.0439327 0 
v 0.0427803 0.0439805 0 
v 0.0427204 0.0438302 0 
v 0.0427349 0.0438824 0 
v 0.0427117 0.0437768 0 
v 0.0470393 0.028024 0 
v 0.0431101 0.0273494 0 
v 0.043059 0.0273625 0 
v 0.0431279 0.0442162 0 
v 0.0428851 0.0441039 0 
v 0.0429179 0.0274329 0 
v 0.0428766 0.0274658 0 
v 0.0430095 0.0273809 0 
v 0.0429623 0.0274045 0 
v 0.0431623 0.0273417 0 
v 0.0431818 0.044222 0 
v 0.0428107 0.0440254 0 
v 0.0564327 0.0381143 0 
v 0.0799087 0.0393622 0 
v 0.0798784 0.0387353 0 
v 0.0668541 0.0414808 0 
v 0.0427526 0.0276347 0 
v 0.0427336 0.0276839 0 
v 0.0428057 0.0275436 0 
v 0.0427768 0.0275878 0 
v 0.0428391 0.0275028 0 
v 0.0432359 0.044222 0 
v 0.0432898 0.0442161 0 
v 0.0564327 0.0301768 0 
v 0.0537767 0.0288684 0 
v 0.0491728 0.0307811 0 
v 0.0491728 0.0407811 0 
v 0.0799087 0.0409091 0 
v 0.0457087 0.0387811 0 
v 0.0643702 0.0301768 0 
v 0.0643702 0.029585 0 
v 0.0603811 0.0292663 0 
v 0.0538426 0.0427133 0 
v 0.0457087 0.0327811 0 
v 0.0427198 0.0277348 0 
v 0.0427115 0.0277869 0 
v 0.0427087 0.0387811 0 
v 0.0797878 0.0381143 0 
v 0.0427087 0.0278395 0 
v 0.0427087 0.0327811 0 
vn 0 0 -1 
vn 0 0 -1 
vn 0 0 -1 
vn 0 0 -1 
vn 0 0 -1 
vn 0 0 -1 
vn 0 0 -1 
vn 0 0 -1 
vn 0 0 -1 
vn 0 0 -1 
vn 0 0 -1 
vn 0 0 -1 
vn 0 0 -1 
vn 0 0 -1 
vn 0 0 -1 
vn 0 0 -1 
vn 0 0 -1 
vn 0 0 -1 
vn 0 0 -1 
vn 0 0 -1 
vn 0 0 -1 
vn 0 0 -1 
vn 0 0 -1 
vn 0 0 -1 
vn 0 0 -1 
vn 0 0 -1 
vn 0 0 -1 
vn 0 0 -1 
vn 0 0 -1 
vn 0 0 -1 
vn 0 0 -1 
vn 0 0 -1 
vn 0 0 -1 
vn 0 0 -1 
vn 0 0 -1 
vn 0 0 -1 
vn 0 0 -1 
vn 0 0 -1 
vn 0 0 -1 
vn 0 0 -1 
vn 0 0 -1 
vn 0 0 -1 
vn 0 0 -1 
vn 0 0 -1 
vn 0 0 -1 
vn 0 0 -1 
vn 0 0 -1 
vn 0 0 -1 
vn 0 0 -1 
vn 0 0 -1 
vn 0 0 -1 
f 525//525 526//526 527//527 
f 525//525 528//528 529//529 
f 530//530 531//531 532//532 
f 530//530 533//533 534//534 
f 529//529 526//526 525//525 
f 534//534 531//531 530//530 
f 530//530 525//525 535//535 
f 536//536 537//537 538//538 
f 527//527 539//539 525//525 
f 525//525 530//530 540//540 
f 535//535 533//533 530//530 
f 536//536 541//541 542//542 
f 536//536 543//543 544//544 
f 536//536 545//545 537//537 
f 539//539 546//546 525//525 
f 532//532 547//547 530//530 
f 548//548 549//549 550//550 
f 549//549 548//548 551//551 
f 536//536 552//552 553//553 
f 536//536 554//554 555//555 
f 542//542 556//556 536//536 
f 538//538 543//543 536//536 
f 525//525 557//557 558//558 
f 540//540 528//528 525//525 
f 548//548 559//559 560//560 
f 548//548 561//561 562//562 
f 551//551 563//563 549//549 
f 555//555 552//552 536//536 
f 544//544 541//541 536//536 
f 546//546 557//557 525//525 
f 525//525 562//562 564//564 
f 565//565 566//566 567//567 
f 562//562 568//568 548//548 
f 548//548 568//568 551//551 
f 569//569 561//561 536//536 
f 536//536 570//570 571//571 
f 556//556 554//554 536//536 
f 564//564 572//572 525//525 
f 567//567 559//559 565//565 
f 550//550 573//573 548//548 
f 574//574 575//575 569//569 
f 553//553 570//570 536//536 
f 558//558 568//568 562//562 
f 560//560 561//561 548//548 
f 571//571 574//574 536//536 
f 567//567 560//560 559//559 
f 536//536 574//574 569//569 
f 561//561 560//560 536//536 
f 558//558 562//562 525//525 
o mesh28368
v 0.0564327 0.0301768 0.29 
v 0.0643702 0.0301768 0.29 
v 0.0643702 0.0301768 0 
v 0.0564327 0.0301768 0 
vn 0 1 0 
vn 0 1 0 
vn 0 1 0 
vn 0 1 0 
f 576//576 577//577 578//578 
f 578//578 579//579 576//576 
o mesh28369
v 0.0564327 0.0301768 0.29 
v 0.0564327 0.0301768 0 
v 0.0564327 0.0381143 0 
v 0.0564327 0.0381143 0.29 
vn 1 0 0 
vn 1 0 0 
vn 1 0 0 
vn 1 0 0 
f 580//580 581//581 582//582 
f 582//582 583//583 580//580 
o mesh28370
v 0.0643702 0.029585 0.29 
v 0.0643702 0.029585 0 
v 0.0643702 0.0301768 0 
v 0.0643702 0.0301768 0.29 
vn 1 0 0 
vn 1 0 0 
vn 1 0 0 
vn 1 0 0 
f 584//584 585//585 586//586 
f 586//586 587//587 584//584 
o mesh28371
v 0.0491728 0.0355654 0.146983 
v 0.0491728 0.0357811 0.146995 
v 0.0548728 0.0357811 0.146995 
v 0.0491728 0.0353523 0.146948 
v 0.0548728 0.0355654 0.146983 
v 0.0491728 0.0351441 0.146891 
v 0.0548728 0.0353523 0.146948 
v 0.0491728 0.0349435 0.146811 
v 0.0548728 0.0351441 0.146891 
v 0.0491728 0.0347526 0.146709 
v 0.0548728 0.0349435 0.146811 
v 0.0491728 0.0345738 0.146588 
v 0.0548728 0.0347526 0.146709 
v 0.0491728 0.0344092 0.146448 
v 0.0548728 0.0345738 0.146588 
v 0.0491728 0.0342606 0.146292 
v 0.0548728 0.0344092 0.146448 
v 0.0491728 0.0341299 0.14612 
v 0.0548728 0.0342606 0.146292 
v 0.0491728 0.0340185 0.145934 
v 0.0548728 0.0341299 0.14612 
v 0.0491728 0.0339278 0.145738 
v 0.0548728 0.0340185 0.145934 
v 0.0491728 0.0338589 0.145534 
v 0.0548728 0.0339278 0.145738 
v 0.0491728 0.0338124 0.145323 
v 0.0548728 0.0338589 0.145534 
v 0.0491728 0.0337891 0.145108 
v 0.0548728 0.0338124 0.145323 
v 0.0491728 0.0337891 0.144892 
v 0.0548728 0.0337891 0.145108 
v 0.0491728 0.0338124 0.144677 
v 0.0548728 0.0337891 0.144892 
v 0.0491728 0.0338589 0.144466 
v 0.0548728 0.0338124 0.144677 
v 0.0491728 0.0339278 0.144262 
v 0.0548728 0.0338589 0.144466 
v 0.0491728 0.0340185 0.144066 
v 0.0548728 0.0339278 0.144262 
v 0.0491728 0.0341299 0.14388 
v 0.0548728 0.0340185 0.144066 
v 0.0491728 0.0342606 0.143708 
v 0.0548728 0.0341299 0.14388 
v 0.0491728 0.0344092 0.143552 
v 0.0548728 0.0342606 0.143708 
v 0.0491728 0.0345738 0.143412 
v 0.0548728 0.0344092 0.143552 
v 0.0491728 0.0347526 0.143291 
v 0.0548728 0.0345738 0.143412 
v 0.0491728 0.0349435 0.143189 
v 0.0548728 0.0347526 0.143291 
v 0.0491728 0.0351441 0.143109 
v 0.0548728 0.0349435 0.143189 
v 0.0491728 0.0353523 0.143052 
v 0.0548728 0.0351441 0.143109 
v 0.0491728 0.0355654 0.143017 
v 0.0548728 0.0353523 0.143052 
v 0.0491728 0.0357811 0.143005 
v 0.0548728 0.0355654 0.143017 
v 0.0491728 0.0359968 0.143017 
v 0.0548728 0.0357811 0.143005 
v 0.0491728 0.03621 0.143052 
v 0.0548728 0.0359968 0.143017 
v 0.0491728 0.0364181 0.143109 
v 0.0548728 0.03621 0.143052 
v 0.0491728 0.0366188 0.143189 
v 0.0548728 0.0364181 0.143109 
v 0.0491728 0.0368097 0.143291 
v 0.0548728 0.0366188 0.143189 
v 0.0491728 0.0369885 0.143412 
v 0.0548728 0.0368097 0.143291 
v 0.0491728 0.0371531 0.143552 
v 0.0548728 0.0369885 0.143412 
v 0.0491728 0.0373017 0.143708 
v 0.0548728 0.0371531 0.143552 
v 0.0491728 0.0374324 0.14388 
v 0.0548728 0.0373017 0.143708 
v 0.0491728 0.0375437 0.144066 
v 0.0548728 0.0374324 0.14388 
v 0.0491728 0.0376344 0.144262 
v 0.0548728 0.0375437 0.144066 
v 0.0491728 0.0377034 0.144466 
v 0.0548728 0.0376344 0.144262 
v 0.0491728 0.0377499 0.144677 
v 0.0548728 0.0377034 0.144466 
v 0.0491728 0.0377732 0.144892 
v 0.0548728 0.0377499 0.144677 
v 0.0491728 0.0377732 0.145108 
v 0.0548728 0.0377732 0.144892 
v 0.0491728 0.0377499 0.145323 
v 0.0548728 0.0377732 0.145108 
v 0.0491728 0.0377034 0.145534 
v 0.0548728 0.0377499 0.145323 
v 0.0491728 0.0376344 0.145738 
v 0.0548728 0.0377034 0.145534 
v 0.0491728 0.0375437 0.145934 
v 0.0548728 0.0376344 0.145738 
v 0.0491728 0.0374324 0.14612 
v 0.0548728 0.0375437 0.145934 
v 0.0491728 0.0373017 0.146292 
v 0.0548728 0.0374324 0.14612 
v 0.0491728 0.0371531 0.146448 
v 0.0548728 0.0373017 0.146292 
v 0.0491728 0.0369885 0.146588 
v 0.0548728 0.0371531 0.146448 
v 0.0491728 0.0368097 0.146709 
v 0.0548728 0.0369885 0.146588 
v 0.0491728 0.0366188 0.146811 
v 0.0548728 0.0368097 0.146709 
v 0.0491728 0.0364181 0.146891 
v 0.0548728 0.0366188 0.146811 
v 0.0491728 0.03621 0.146948 
v 0.0548728 0.0364181 0.146891 
v 0.0491728 0.0359968 0.146983 
v 0.0548728 0.03621 0.146948 
v 0.0548728 0.0359968 0.146983 
vn 0 0.108119 -0.994138 
vn 0 2.44929e-16 -1 
vn 0 2.44929e-16 -1 
vn 0 0.21497 -0.976621 
vn 0 0.108119 -0.994138 
vn 0 0.319302 -0.947653 
vn 0 0.21497 -0.976621 
vn 0 0.419889 -0.907575 
vn 0 0.319302 -0.947653 
vn 0 0.515554 -0.856857 
vn 0 0.419889 -0.907575 
vn 0 0.605174 -0.796093 
vn 0 0.515554 -0.856857 
vn 0 0.687699 -0.725995 
vn 0 0.605174 -0.796093 
vn 0 0.762162 -0.647386 
vn 0 0.687699 -0.725995 
vn 0 0.827689 -0.561187 
vn 0 0.762162 -0.647386 
vn 0 0.883512 -0.468408 
vn 0 0.827689 -0.561187 
vn 0 0.928977 -0.370138 
vn 0 0.883512 -0.468408 
vn 0 0.96355 -0.267528 
vn 0 0.928977 -0.370138 
vn 0 0.986827 -0.161782 
vn 0 0.96355 -0.267528 
vn 0 0.998533 -0.0541389 
vn 0 0.986827 -0.161782 
vn 0 0.998533 0.0541389 
vn 0 0.998533 -0.0541389 
vn 0 0.986827 0.161782 
vn 0 0.998533 0.0541389 
vn 0 0.96355 0.267528 
vn 0 0.986827 0.161782 
vn 0 0.928977 0.370138 
vn 0 0.96355 0.267528 
vn 0 0.883512 0.468408 
vn 0 0.928977 0.370138 
vn 0 0.827689 0.561187 
vn 0 0.883512 0.468408 
vn 0 0.762162 0.647386 
vn 0 0.827689 0.561187 
vn 0 0.687699 0.725995 
vn 0 0.762162 0.647386 
vn 0 0.605174 0.796093 
vn 0 0.687699 0.725995 
vn 0 0.515554 0.856857 
vn 0 0.605174 0.796093 
vn 0 0.419889 0.907575 
vn 0 0.515554 0.856857 
vn 0 0.319302 0.947653 
vn 0 0.419889 0.907575 
vn 0 0.21497 0.976621 
vn 0 0.319302 0.947653 
vn 0 0.108119 0.994138 
vn 0 0.21497 0.976621 
vn 0 -1.22465e-16 1 
vn 0 0.108119 0.994138 
vn 0 -0.108119 0.994138 
vn 0 -1.22465e-16 1 
vn 0 -0.21497 0.976621 
vn 0 -0.108119 0.994138 
vn 0 -0.319302 0.947653 
vn 0 -0.21497 0.976621 
vn 0 -0.419889 0.907575 
vn 0 -0.319302 0.947653 
vn 0 -0.515554 0.856857 
vn 0 -0.419889 0.907575 
vn 0 -0.605174 0.796093 
vn 0 -0.515554 0.856857 
vn 0 -0.687699 0.725995 
vn 0 -0.605174 0.796093 
vn 0 -0.762162 0.647386 
vn 0 -0.687699 0.725995 
vn 0 -0.827689 0.561187 
vn 0 -0.762162 0.647386 
vn 0 -0.883512 0.468408 
vn 0 -0.827689 0.561187 
vn 0 -0.928977 0.370138 
vn 0 -0.883512 0.468408 
vn 0 -0.96355 0.267528 
vn 0 -0.928977 0.370138 
vn 0 -0.986827 0.161782 
vn 0 -0.96355 0.267528 
vn 0 -0.998533 0.0541389 
vn 0 -0.986827 0.161782 
vn 0 -0.998533 -0.0541389 
vn 0 -0.998533 0.0541389 
vn 0 -0.986827 -0.161782 
vn 0 -0.998533 -0.0541389 
vn 0 -0.96355 -0.267528 
vn 0 -0.986827 -0.161782 
vn 0 -0.928977 -0.370138 
vn 0 -0.96355 -0.267528 
vn 0 -0.883512 -0.468408 
vn 0 -0.928977 -0.370138 
vn 0 -0.827689 -0.561187 
vn 0 -0.883512 -0.468408 
vn 0 -0.762162 -0.647386 
vn 0 -0.827689 -0.561187 
vn 0 -0.687699 -0.725995 
vn 0 -0.762162 -0.647386 
vn 0 -0.605174 -0.796093 
vn 0 -0.687699 -0.725995 
vn 0 -0.515554 -0.856857 
vn 0 -0.605174 -0.796093 
vn 0 -0.419889 -0.907575 
vn 0 -0.515554 -0.856857 
vn 0 -0.319302 -0.947653 
vn 0 -0.419889 -0.907575 
vn 0 -0.21497 -0.976621 
vn 0 -0.319302 -0.947653 
vn 0 -0.108119 -0.994138 
vn 0 -0.21497 -0.976621 
vn 0 -0.108119 -0.994138 
f 588//588 589//589 590//590 
f 591//591 588//588 592//592 
f 593//593 591//591 594//594 
f 595//595 593//593 596//596 
f 597//597 595//595 598//598 
f 599//599 597//597 600//600 
f 601//601 599//599 602//602 
f 603//603 601//601 604//604 
f 605//605 603//603 606//606 
f 607//607 605//605 608//608 
f 609//609 607//607 610//610 
f 611//611 609//609 612//612 
f 613//613 611//611 614//614 
f 615//615 613//613 616//616 
f 617//617 615//615 618//618 
f 619//619 617//617 620//620 
f 621//621 619//619 622//622 
f 623//623 621//621 624//624 
f 625//625 623//623 626//626 
f 627//627 625//625 628//628 
f 629//629 627//627 630//630 
f 631//631 629//629 632//632 
f 633//633 631//631 634//634 
f 635//635 633//633 636//636 
f 637//637 635//635 638//638 
f 639//639 637//637 640//640 
f 641//641 639//639 642//642 
f 643//643 641//641 644//644 
f 645//645 643//643 646//646 
f 647//647 645//645 648//648 
f 649//649 647//647 650//650 
f 651//651 649//649 652//652 
f 653//653 651//651 654//654 
f 655//655 653//653 656//656 
f 657//657 655//655 658//658 
f 659//659 657//657 660//660 
f 661//661 659//659 662//662 
f 663//663 661//661 664//664 
f 665//665 663//663 666//666 
f 667//667 665//665 668//668 
f 669//669 667//667 670//670 
f 671//671 669//669 672//672 
f 673//673 671//671 674//674 
f 675//675 673//673 676//676 
f 677//677 675//675 678//678 
f 679//679 677//677 680//680 
f 681//681 679//679 682//682 
f 683//683 681//681 684//684 
f 685//685 683//683 686//686 
f 687//687 685//685 688//688 
f 689//689 687//687 690//690 
f 691//691 689//689 692//692 
f 693//693 691//691 694//694 
f 695//695 693//693 696//696 
f 697//697 695//695 698//698 
f 699//699 697//697 700//700 
f 701//701 699//699 702//702 
f 589//589 701//701 703//703 
f 703//703 590//590 589//589 
f 702//702 703//703 701//701 
f 700//700 702//702 699//699 
f 698//698 700//700 697//697 
f 696//696 698//698 695//695 
f 694//694 696//696 693//693 
f 692//692 694//694 691//691 
f 690//690 692//692 689//689 
f 688//688 690//690 687//687 
f 686//686 688//688 685//685 
f 684//684 686//686 683//683 
f 682//682 684//684 681//681 
f 680//680 682//682 679//679 
f 678//678 680//680 677//677 
f 676//676 678//678 675//675 
f 674//674 676//676 673//673 
f 672//672 674//674 671//671 
f 670//670 672//672 669//669 
f 668//668 670//670 667//667 
f 666//666 668//668 665//665 
f 664//664 666//666 663//663 
f 662//662 664//664 661//661 
f 660//660 662//662 659//659 
f 658//658 660//660 657//657 
f 656//656 658//658 655//655 
f 654//654 656//656 653//653 
f 652//652 654//654 651//651 
f 650//650 652//652 649//649 
f 648//648 650//650 647//647 
f 646//646 648//648 645//645 
f 644//644 646//646 643//643 
f 642//642 644//644 641//641 
f 640//640 642//642 639//639 
f 638//638 640//640 637//637 
f 636//636 638//638 635//635 
f 634//634 636//636 633//633 
f 632//632 634//634 631//631 
f 630//630 632//632 629//629 
f 628//628 630//630 627//627 
f 626//626 628//628 625//625 
f 624//624 626//626 623//623 
f 622//622 624//624 621//621 
f 620//620 622//622 619//619 
f 618//618 620//620 617//617 
f 616//616 618//618 615//615 
f 614//614 616//616 613//613 
f 612//612 614//614 611//611 
f 610//610 612//612 609//609 
f 608//608 610//610 607//607 
f 606//606 608//608 605//605 
f 604//604 606//606 603//603 
f 602//602 604//604 601//601 
f 600//600 602//602 599//599 
f 598//598 600//600 597//597 
f 596//596 598//598 595//595 
f 594//594 596//596 593//593 
f 592//592 594//594 591//591 
f 590//590 592//592 588//588 
o mesh28372
v 0.0548728 0.0357811 0.145 
v 0.0548728 0.0359968 0.146983 
v 0.0548728 0.03621 0.146948 
v 0.0548728 0.0364181 0.146891 
v 0.0548728 0.0366188 0.146811 
v 0.0548728 0.0368097 0.146709 
v 0.0548728 0.0369885 0.146588 
v 0.0548728 0.0371531 0.146448 
v 0.0548728 0.0373017 0.146292 
v 0.0548728 0.0374324 0.14612 
v 0.0548728 0.0375437 0.145934 
v 0.0548728 0.0376344 0.145738 
v 0.0548728 0.0377034 0.145534 
v 0.0548728 0.0377499 0.145323 
v 0.0548728 0.0377732 0.145108 
v 0.0548728 0.0377732 0.144892 
v 0.0548728 0.0377499 0.144677 
v 0.0548728 0.0377034 0.144466 
v 0.0548728 0.0376344 0.144262 
v 0.0548728 0.0375437 0.144066 
v 0.0548728 0.0374324 0.14388 
v 0.0548728 0.0373017 0.143708 
v 0.0548728 0.0371531 0.143552 
v 0.0548728 0.0369885 0.143412 
v 0.0548728 0.0368097 0.143291 
v 0.0548728 0.0366188 0.143189 
v 0.0548728 0.0364181 0.143109 
v 0.0548728 0.03621 0.143052 
v 0.0548728 0.0359968 0.143017 
v 0.0548728 0.0357811 0.143005 
v 0.0548728 0.0355654 0.143017 
v 0.0548728 0.0353523 0.143052 
v 0.0548728 0.0351441 0.143109 
v 0.0548728 0.0349435 0.143189 
v 0.0548728 0.0347526 0.143291 
v 0.0548728 0.0345738 0.143412 
v 0.0548728 0.0344092 0.143552 
v 0.0548728 0.0342606 0.143708 
v 0.0548728 0.0341299 0.14388 
v 0.0548728 0.0340185 0.144066 
v 0.0548728 0.0339278 0.144262 
v 0.0548728 0.0338589 0.144466 
v 0.0548728 0.0338124 0.144677 
v 0.0548728 0.0337891 0.144892 
v 0.0548728 0.0337891 0.145108 
v 0.0548728 0.0338124 0.145323 
v 0.0548728 0.0338589 0.145534 
v 0.0548728 0.0339278 0.145738 
v 0.0548728 0.0340185 0.145934 
v 0.0548728 0.0341299 0.14612 
v 0.0548728 0.0342606 0.146292 
v 0.0548728 0.0344092 0.146448 
v 0.0548728 0.0345738 0.146588 
v 0.0548728 0.0347526 0.146709 
v 0.0548728 0.0349435 0.146811 
v 0.0548728 0.0351441 0.146891 
v 0.0548728 0.0353523 0.146948 
v 0.0548728 0.0355654 0.146983 
v 0.0548728 0.0357811 0.146995 
vn -1 0 0 
vn -1 0 0 
vn -1 0 0 
vn -1 0 0 
vn -1 0 0 
vn -1 0 0 
vn -1 0 0 
vn -1 0 0 
vn -1 0 0 
vn -1 0 0 
vn -1 0 0 
vn -1 0 0 
vn -1 0 0 
vn -1 0 0 
vn -1 0 0 
vn -1 0 0 
vn -1 0 0 
vn -1 0 0 
vn -1 0 0 
vn -1 0 0 
vn -1 0 0 
vn -1 0 0 
vn -1 0 0 
vn -1 0 0 
vn -1 0 0 
vn -1 0 0 
vn -1 0 0 
vn -1 0 0 
vn -1 0 0 
vn -1 0 0 
vn -1 0 0 
vn -1 0 0 
vn -1 0 0 
vn -1 0 0 
vn -1 0 0 
vn -1 0 0 
vn -1 0 0 
vn -1 0 0 
vn -1 0 0 
vn -1 0 0 
vn -1 0 0 
vn -1 0 0 
vn -1 0 0 
vn -1 0 0 
vn -1 0 0 
vn -1 0 0 
vn -1 0 0 
vn -1 0 0 
vn -1 0 0 
vn -1 0 0 
vn -1 0 0 
vn -1 0 0 
vn -1 0 0 
vn -1 0 0 
vn -1 0 0 
vn -1 0 0 
vn -1 0 0 
vn -1 0 0 
vn -1 0 0 
f 704//704 705//705 706//706 
f 706//706 707//707 704//704 
f 707//707 708//708 704//704 
f 708//708 709//709 704//704 
f 709//709 710//710 704//704 
f 710//710 711//711 704//704 
f 711//711 712//712 704//704 
f 712//712 713//713 704//704 
f 713//713 714//714 704//704 
f 714//714 715//715 704//704 
f 715//715 716//716 704//704 
f 716//716 717//717 704//704 
f 717//717 718//718 704//704 
f 718//718 719//719 704//704 
f 719//719 720//720 704//704 
f 720//720 721//721 704//704 
f 721//721 722//722 704//704 
f 722//722 723//723 704//704 
f 723//723 724//724 704//704 
f 724//724 725//725 704//704 
f 725//725 726//726 704//704 
f 726//726 727//727 704//704 
f 727//727 728//728 704//704 
f 728//728 729//729 704//704 
f 729//729 730//730 704//704 
f 730//730 731//731 704//704 
f 731//731 732//732 704//704 
f 732//732 733//733 704//704 
f 733//733 734//734 704//704 
f 734//734 735//735 704//704 
f 735//735 736//736 704//704 
f 736//736 737//737 704//704 
f 737//737 738//738 704//704 
f 738//738 739//739 704//704 
f 739//739 740//740 704//704 
f 740//740 741//741 704//704 
f 741//741 742//742 704//704 
f 742//742 743//743 704//704 
f 743//743 744//744 704//704 
f 744//744 745//745 704//704 
f 745//745 746//746 704//704 
f 746//746 747//747 704//704 
f 747//747 748//748 704//704 
f 748//748 749//749 704//704 
f 749//749 750//750 704//704 
f 750//750 751//751 704//704 
f 751//751 752//752 704//704 
f 752//752 753//753 704//704 
f 753//753 754//754 704//704 
f 754//754 755//755 704//704 
f 755//755 756//756 704//704 
f 756//756 757//757 704//704 
f 757//757 758//758 704//704 
f 758//758 759//759 704//704 
f 759//759 760//760 704//704 
f 760//760 761//761 704//704 
f 761//761 762//762 704//704 
f 762//762 705//705 704//704 
o mesh28373
v 0.0491728 0.0355654 0.0744833 
v 0.0491728 0.0357811 0.074495 
v 0.0548728 0.0357811 0.074495 
v 0.0491728 0.0353523 0.0744484 
v 0.0548728 0.0355654 0.0744833 
v 0.0491728 0.0351441 0.0743906 
v 0.0548728 0.0353523 0.0744484 
v 0.0491728 0.0349435 0.0743106 
v 0.0548728 0.0351441 0.0743906 
v 0.0491728 0.0347526 0.0742094 
v 0.0548728 0.0349435 0.0743106 
v 0.0491728 0.0345738 0.0740882 
v 0.0548728 0.0347526 0.0742094 
v 0.0491728 0.0344092 0.0739484 
v 0.0548728 0.0345738 0.0740882 
v 0.0491728 0.0342606 0.0737915 
v 0.0548728 0.0344092 0.0739484 
v 0.0491728 0.0341299 0.0736196 
v 0.0548728 0.0342606 0.0737915 
v 0.0491728 0.0340185 0.0734345 
v 0.0548728 0.0341299 0.0736196 
v 0.0491728 0.0339278 0.0732384 
v 0.0548728 0.0340185 0.0734345 
v 0.0491728 0.0338589 0.0730337 
v 0.0548728 0.0339278 0.0732384 
v 0.0491728 0.0338124 0.0728228 
v 0.0548728 0.0338589 0.0730337 
v 0.0491728 0.0337891 0.072608 
v 0.0548728 0.0338124 0.0728228 
v 0.0491728 0.0337891 0.072392 
v 0.0548728 0.0337891 0.072608 
v 0.0491728 0.0338124 0.0721772 
v 0.0548728 0.0337891 0.072392 
v 0.0491728 0.0338589 0.0719663 
v 0.0548728 0.0338124 0.0721772 
v 0.0491728 0.0339278 0.0717616 
v 0.0548728 0.0338589 0.0719663 
v 0.0491728 0.0340185 0.0715655 
v 0.0548728 0.0339278 0.0717616 
v 0.0491728 0.0341299 0.0713804 
v 0.0548728 0.0340185 0.0715655 
v 0.0491728 0.0342606 0.0712085 
v 0.0548728 0.0341299 0.0713804 
v 0.0491728 0.0344092 0.0710516 
v 0.0548728 0.0342606 0.0712085 
v 0.0491728 0.0345738 0.0709118 
v 0.0548728 0.0344092 0.0710516 
v 0.0491728 0.0347526 0.0707906 
v 0.0548728 0.0345738 0.0709118 
v 0.0491728 0.0349435 0.0706894 
v 0.0548728 0.0347526 0.0707906 
v 0.0491728 0.0351441 0.0706094 
v 0.0548728 0.0349435 0.0706894 
v 0.0491728 0.0353523 0.0705516 
v 0.0548728 0.0351441 0.0706094 
v 0.0491728 0.0355654 0.0705167 
v 0.0548728 0.0353523 0.0705516 
v 0.0491728 0.0357811 0.070505 
v 0.0548728 0.0355654 0.0705167 
v 0.0491728 0.0359968 0.0705167 
v 0.0548728 0.0357811 0.070505 
v 0.0491728 0.03621 0.0705516 
v 0.0548728 0.0359968 0.0705167 
v 0.0491728 0.0364181 0.0706094 
v 0.0548728 0.03621 0.0705516 
v 0.0491728 0.0366188 0.0706894 
v 0.0548728 0.0364181 0.0706094 
v 0.0491728 0.0368097 0.0707906 
v 0.0548728 0.0366188 0.0706894 
v 0.0491728 0.0369885 0.0709118 
v 0.0548728 0.0368097 0.0707906 
v 0.0491728 0.0371531 0.0710516 
v 0.0548728 0.0369885 0.0709118 
v 0.0491728 0.0373017 0.0712085 
v 0.0548728 0.0371531 0.0710516 
v 0.0491728 0.0374324 0.0713804 
v 0.0548728 0.0373017 0.0712085 
v 0.0491728 0.0375437 0.0715655 
v 0.0548728 0.0374324 0.0713804 
v 0.0491728 0.0376344 0.0717616 
v 0.0548728 0.0375437 0.0715655 
v 0.0491728 0.0377034 0.0719663 
v 0.0548728 0.0376344 0.0717616 
v 0.0491728 0.0377499 0.0721772 
v 0.0548728 0.0377034 0.0719663 
v 0.0491728 0.0377732 0.072392 
v 0.0548728 0.0377499 0.0721772 
v 0.0491728 0.0377732 0.072608 
v 0.0548728 0.0377732 0.072392 
v 0.0491728 0.0377499 0.0728228 
v 0.0548728 0.0377732 0.072608 
v 0.0491728 0.0377034 0.0730337 
v 0.0548728 0.0377499 0.0728228 
v 0.0491728 0.0376344 0.0732384 
v 0.0548728 0.0377034 0.0730337 
v 0.0491728 0.0375437 0.0734345 
v 0.0548728 0.0376344 0.0732384 
v 0.0491728 0.0374324 0.0736196 
v 0.0548728 0.0375437 0.0734345 
v 0.0491728 0.0373017 0.0737915 
v 0.0548728 0.0374324 0.0736196 
v 0.0491728 0.0371531 0.0739484 
v 0.0548728 0.0373017 0.0737915 
v 0.0491728 0.0369885 0.0740882 
v 0.0548728 0.0371531 0.0739484 
v 0.0491728 0.0368097 0.0742094 
v 0.0548728 0.0369885 0.0740882 
v 0.0491728 0.0366188 0.0743106 
v 0.0548728 0.0368097 0.0742094 
v 0.0491728 0.0364181 0.0743906 
v 0.0548728 0.0366188 0.0743106 
v 0.0491728 0.03621 0.0744484 
v 0.0548728 0.0364181 0.0743906 
v 0.0491728 0.0359968 0.0744833 
v 0.0548728 0.03621 0.0744484 
v 0.0548728 0.0359968 0.0744833 
vn 0 0.108119 -0.994138 
vn 0 2.44929e-16 -1 
vn 0 2.44929e-16 -1 
vn 0 0.21497 -0.976621 
vn 0 0.108119 -0.994138 
vn 0 0.319302 -0.947653 
vn 0 0.21497 -0.976621 
vn 0 0.419889 -0.907575 
vn 0 0.319302 -0.947653 
vn 0 0.515554 -0.856857 
vn 0 0.419889 -0.907575 
vn 0 0.605174 -0.796093 
vn 0 0.515554 -0.856857 
vn 0 0.687699 -0.725995 
vn 0 0.605174 -0.796093 
vn 0 0.762162 -0.647386 
vn 0 0.687699 -0.725995 
vn 0 0.827689 -0.561187 
vn 0 0.762162 -0.647386 
vn 0 0.883512 -0.468408 
vn 0 0.827689 -0.561187 
vn 0 0.928977 -0.370138 
vn 0 0.883512 -0.468408 
vn 0 0.96355 -0.267528 
vn 0 0.928977 -0.370138 
vn 0 0.986827 -0.161782 
vn 0 0.96355 -0.267528 
vn 0 0.998533 -0.0541389 
vn 0 0.986827 -0.161782 
vn 0 0.998533 0.0541389 
vn 0 0.998533 -0.0541389 
vn 0 0.986827 0.161782 
vn 0 0.998533 0.0541389 
vn 0 0.96355 0.267528 
vn 0 0.986827 0.161782 
vn 0 0.928977 0.370138 
vn 0 0.96355 0.267528 
vn 0 0.883512 0.468408 
vn 0 0.928977 0.370138 
vn 0 0.827689 0.561187 
vn 0 0.883512 0.468408 
vn 0 0.762162 0.647386 
vn 0 0.827689 0.561187 
vn 0 0.687699 0.725995 
vn 0 0.762162 0.647386 
vn 0 0.605174 0.796093 
vn 0 0.687699 0.725995 
vn 0 0.515554 0.856857 
vn 0 0.605174 0.796093 
vn 0 0.419889 0.907575 
vn 0 0.515554 0.856857 
vn 0 0.319302 0.947653 
vn 0 0.419889 0.907575 
vn 0 0.21497 0.976621 
vn 0 0.319302 0.947653 
vn 0 0.108119 0.994138 
vn 0 0.21497 0.976621 
vn 0 -1.22465e-16 1 
vn 0 0.108119 0.994138 
vn 0 -0.108119 0.994138 
vn 0 -1.22465e-16 1 
vn 0 -0.21497 0.976621 
vn 0 -0.108119 0.994138 
vn 0 -0.319302 0.947653 
vn 0 -0.21497 0.976621 
vn 0 -0.419889 0.907575 
vn 0 -0.319302 0.947653 
vn 0 -0.515554 0.856857 
vn 0 -0.419889 0.907575 
vn 0 -0.605174 0.796093 
vn 0 -0.515554 0.856857 
vn 0 -0.687699 0.725995 
vn 0 -0.605174 0.796093 
vn 0 -0.762162 0.647386 
vn 0 -0.687699 0.725995 
vn 0 -0.827689 0.561187 
vn 0 -0.762162 0.647386 
vn 0 -0.883512 0.468408 
vn 0 -0.827689 0.561187 
vn 0 -0.928977 0.370138 
vn 0 -0.883512 0.468408 
vn 0 -0.96355 0.267528 
vn 0 -0.928977 0.370138 
vn 0 -0.986827 0.161782 
vn 0 -0.96355 0.267528 
vn 0 -0.998533 0.0541389 
vn 0 -0.986827 0.161782 
vn 0 -0.998533 -0.0541389 
vn 0 -0.998533 0.0541389 
vn 0 -0.986827 -0.161782 
vn 0 -0.998533 -0.0541389 
vn 0 -0.96355 -0.267528 
vn 0 -0.986827 -0.161782 
vn 0 -0.928977 -0.370138 
vn 0 -0.96355 -0.267528 
vn 0 -0.883512 -0.468408 
vn 0 -0.928977 -0.370138 
vn 0 -0.827689 -0.561187 
vn 0 -0.883512 -0.468408 
vn 0 -0.762162 -0.647386 
vn 0 -0.827689 -0.561187 
vn 0 -0.687699 -0.725995 
vn 0 -0.762162 -0.647386 
vn 0 -0.605174 -0.796093 
vn 0 -0.687699 -0.725995 
vn 0 -0.515554 -0.856857 
vn 0 -0.605174 -0.796093 
vn 0 -0.419889 -0.907575 
vn 0 -0.515554 -0.856857 
vn 0 -0.319302 -0.947653 
vn 0 -0.419889 -0.907575 
vn 0 -0.21497 -0.976621 
vn 0 -0.319302 -0.947653 
vn 0 -0.108119 -0.994138 
vn 0 -0.21497 -0.976621 
vn 0 -0.108119 -0.994138 
f 763//763 764//764 765//765 
f 766//766 763//763 767//767 
f 768//768 766//766 769//769 
f 770//770 768//768 771//771 
f 772//772 770//770 773//773 
f 774//774 772//772 775//775 
f 776//776 774//774 777//777 
f 778//778 776//776 779//779 
f 780//780 778//778 781//781 
f 782//782 780//780 783//783 
f 784//784 782//782 785//785 
f 786//786 784//784 787//787 
f 788//788 786//786 789//789 
f 790//790 788//788 791//791 
f 792//792 790//790 793//793 
f 794//794 792//792 795//795 
f 796//796 794//794 797//797 
f 798//798 796//796 799//799 
f 800//800 798//798 801//801 
f 802//802 800//800 803//803 
f 804//804 802//802 805//805 
f 806//806 804//804 807//807 
f 808//808 806//806 809//809 
f 810//810 808//808 811//811 
f 812//812 810//810 813//813 
f 814//814 812//812 815//815 
f 816//816 814//814 817//817 
f 818//818 816//816 819//819 
f 820//820 818//818 821//821 
f 822//822 820//820 823//823 
f 824//824 822//822 825//825 
f 826//826 824//824 827//827 
f 828//828 826//826 829//829 
f 830//830 828//828 831//831 
f 832//832 830//830 833//833 
f 834//834 832//832 835//835 
f 836//836 834//834 837//837 
f 838//838 836//836 839//839 
f 840//840 838//838 841//841 
f 842//842 840//840 843//843 
f 844//844 842//842 845//845 
f 846//846 844//844 847//847 
f 848//848 846//846 849//849 
f 850//850 848//848 851//851 
f 852//852 850//850 853//853 
f 854//854 852//852 855//855 
f 856//856 854//854 857//857 
f 858//858 856//856 859//859 
f 860//860 858//858 861//861 
f 862//862 860//860 863//863 
f 864//864 862//862 865//865 
f 866//866 864//864 867//867 
f 868//868 866//866 869//869 
f 870//870 868//868 871//871 
f 872//872 870//870 873//873 
f 874//874 872//872 875//875 
f 876//876 874//874 877//877 
f 764//764 876//876 878//878 
f 878//878 765//765 764//764 
f 877//877 878//878 876//876 
f 875//875 877//877 874//874 
f 873//873 875//875 872//872 
f 871//871 873//873 870//870 
f 869//869 871//871 868//868 
f 867//867 869//869 866//866 
f 865//865 867//867 864//864 
f 863//863 865//865 862//862 
f 861//861 863//863 860//860 
f 859//859 861//861 858//858 
f 857//857 859//859 856//856 
f 855//855 857//857 854//854 
f 853//853 855//855 852//852 
f 851//851 853//853 850//850 
f 849//849 851//851 848//848 
f 847//847 849//849 846//846 
f 845//845 847//847 844//844 
f 843//843 845//845 842//842 
f 841//841 843//843 840//840 
f 839//839 841//841 838//838 
f 837//837 839//839 836//836 
f 835//835 837//837 834//834 
f 833//833 835//835 832//832 
f 831//831 833//833 830//830 
f 829//829 831//831 828//828 
f 827//827 829//829 826//826 
f 825//825 827//827 824//824 
f 823//823 825//825 822//822 
f 821//821 823//823 820//820 
f 819//819 821//821 818//818 
f 817//817 819//819 816//816 
f 815//815 817//817 814//814 
f 813//813 815//815 812//812 
f 811//811 813//813 810//810 
f 809//809 811//811 808//808 
f 807//807 809//809 806//806 
f 805//805 807//807 804//804 
f 803//803 805//805 802//802 
f 801//801 803//803 800//800 
f 799//799 801//801 798//798 
f 797//797 799//799 796//796 
f 795//795 797//797 794//794 
f 793//793 795//795 792//792 
f 791//791 793//793 790//790 
f 789//789 791//791 788//788 
f 787//787 789//789 786//786 
f 785//785 787//787 784//784 
f 783//783 785//785 782//782 
f 781//781 783//783 780//780 
f 779//779 781//781 778//778 
f 777//777 779//779 776//776 
f 775//775 777//777 774//774 
f 773//773 775//775 772//772 
f 771//771 773//773 770//770 
f 769//769 771//771 768//768 
f 767//767 769//769 766//766 
f 765//765 767//767 763//763 
o mesh28374
v 0.0548728 0.0357811 0.0725 
v 0.0548728 0.0359968 0.0744833 
v 0.0548728 0.03621 0.0744484 
v 0.0548728 0.0364181 0.0743906 
v 0.0548728 0.0366188 0.0743106 
v 0.0548728 0.0368097 0.0742094 
v 0.0548728 0.0369885 0.0740882 
v 0.0548728 0.0371531 0.0739484 
v 0.0548728 0.0373017 0.0737915 
v 0.0548728 0.0374324 0.0736196 
v 0.0548728 0.0375437 0.0734345 
v 0.0548728 0.0376344 0.0732384 
v 0.0548728 0.0377034 0.0730337 
v 0.0548728 0.0377499 0.0728228 
v 0.0548728 0.0377732 0.072608 
v 0.0548728 0.0377732 0.072392 
v 0.0548728 0.0377499 0.0721772 
v 0.0548728 0.0377034 0.0719663 
v 0.0548728 0.0376344 0.0717616 
v 0.0548728 0.0375437 0.0715655 
v 0.0548728 0.0374324 0.0713804 
v 0.0548728 0.0373017 0.0712085 
v 0.0548728 0.0371531 0.0710516 
v 0.0548728 0.0369885 0.0709118 
v 0.0548728 0.0368097 0.0707906 
v 0.0548728 0.0366188 0.0706894 
v 0.0548728 0.0364181 0.0706094 
v 0.0548728 0.03621 0.0705516 
v 0.0548728 0.0359968 0.0705167 
v 0.0548728 0.0357811 0.070505 
v 0.0548728 0.0355654 0.0705167 
v 0.0548728 0.0353523 0.0705516 
v 0.0548728 0.0351441 0.0706094 
v 0.0548728 0.0349435 0.0706894 
v 0.0548728 0.0347526 0.0707906 
v 0.0548728 0.0345738 0.0709118 
v 0.0548728 0.0344092 0.0710516 
v 0.0548728 0.0342606 0.0712085 
v 0.0548728 0.0341299 0.0713804 
v 0.0548728 0.0340185 0.0715655 
v 0.0548728 0.0339278 0.0717616 
v 0.0548728 0.0338589 0.0719663 
v 0.0548728 0.0338124 0.0721772 
v 0.0548728 0.0337891 0.072392 
v 0.0548728 0.0337891 0.072608 
v 0.0548728 0.0338124 0.0728228 
v 0.0548728 0.0338589 0.0730337 
v 0.0548728 0.0339278 0.0732384 
v 0.0548728 0.0340185 0.0734345 
v 0.0548728 0.0341299 0.0736196 
v 0.0548728 0.0342606 0.0737915 
v 0.0548728 0.0344092 0.0739484 
v 0.0548728 0.0345738 0.0740882 
v 0.0548728 0.0347526 0.0742094 
v 0.0548728 0.0349435 0.0743106 
v 0.0548728 0.0351441 0.0743906 
v 0.0548728 0.0353523 0.0744484 
v 0.0548728 0.0355654 0.0744833 
v 0.0548728 0.0357811 0.074495 
vn -1 0 0 
vn -1 0 0 
vn -1 0 0 
vn -1 0 0 
vn -1 0 0 
vn -1 0 0 
vn -1 0 0 
vn -1 0 0 
vn -1 0 0 
vn -1 0 0 
vn -1 0 0 
vn -1 0 0 
vn -1 0 0 
vn -1 0 0 
vn -1 0 0 
vn -1 0 0 
vn -1 0 0 
vn -1 0 0 
vn -1 0 0 
vn -1 0 0 
vn -1 0 0 
vn -1 0 0 
vn -1 0 0 
vn -1 0 0 
vn -1 0 0 
vn -1 0 0 
vn -1 0 0 
vn -1 0 0 
vn -1 0 0 
vn -1 0 0 
vn -1 0 0 
vn -1 0 0 
vn -1 0 0 
vn -1 0 0 
vn -1 0 0 
vn -1 0 0 
vn -1 0 0 
vn -1 0 0 
vn -1 0 0 
vn -1 0 0 
vn -1 0 0 
vn -1 0 0 
vn -1 0 0 
vn -1 0 0 
vn -1 0 0 
vn -1 0 0 
vn -1 0 0 
vn -1 0 0 
vn -1 0 0 
vn -1 0 0 
vn -1 0 0 
vn -1 0 0 
vn -1 0 0 
vn -1 0 0 
vn -1 0 0 
vn -1 0 0 
vn -1 0 0 
vn -1 0 0 
vn -1 0 0 
f 879//879 880//880 881//881 
f 881//881 882//882 879//879 
f 882//882 883//883 879//879 
f 883//883 884//884 879//879 
f 884//884 885//885 879//879 
f 885//885 886//886 879//879 
f 886//886 887//887 879//879 
f 887//887 888//888 879//879 
f 888//888 889//889 879//879 
f 889//889 890//890 879//879 
f 890//890 891//891 879//879 
f 891//891 892//892 879//879 
f 892//892 893//893 879//879 
f 893//893 894//894 879//879 
f 894//894 895//895 879//879 
f 895//895 896//896 879//879 
f 896//896 897//897 879//879 
f 897//897 898//898 879//879 
f 898//898 899//899 879//879 
f 899//899 900//900 879//879 
f 900//900 901//901 879//879 
f 901//901 902//902 879//879 
f 902//902 903//903 879//879 
f 903//903 904//904 879//879 
f 904//904 905//905 879//879 
f 905//905 906//906 879//879 
f 906//906 907//907 879//879 
f 907//907 908//908 879//879 
f 908//908 909//909 879//879 
f 909//909 910//910 879//879 
f 910//910 911//911 879//879 
f 911//911 912//912 879//879 
f 912//912 913//913 879//879 
f 913//913 914//914 879//879 
f 914//914 915//915 879//879 
f 915//915 916//916 879//879 
f 916//916 917//917 879//879 
f 917//917 918//918 879//879 
f 918//918 919//919 879//879 
f 919//919 920//920 879//879 
f 920//920 921//921 879//879 
f 921//921 922//922 879//879 
f 922//922 923//923 879//879 
f 923//923 924//924 879//879 
f 924//924 925//925 879//879 
f 925//925 926//926 879//879 
f 926//926 927//927 879//879 
f 927//927 928//928 879//879 
f 928//928 929//929 879//879 
f 929//929 930//930 879//879 
f 930//930 931//931 879//879 
f 931//931 932//932 879//879 
f 932//932 933//933 879//879 
f 933//933 934//934 879//879 
f 934//934 935//935 879//879 
f 935//935 936//936 879//879 
f 936//936 937//937 879//879 
f 937//937 880//880 879//879 
