# OBJ generated by ONSHAPE BY PTC INC, 1.215 Units = meters
mtllib Exc_Hopper_VibesMount.mtl
g Exc_Hopper_VibesMount
usemtl 0.796078_0.823529_0.937255_0.000000_0.000000
o mesh4313
v 0.0475 0.0330017 0.0165877 
v 0.0475 0.0332288 0.0166 
v 0.0525 0.0332288 0.0166 
v 0.0475 0.0327773 0.0165509 
v 0.0525 0.0330017 0.0165877 
v 0.0475 0.0325582 0.0164901 
v 0.0525 0.0327773 0.0165509 
v 0.0475 0.032347 0.0164059 
v 0.0525 0.0325582 0.0164901 
v 0.0475 0.0321461 0.0162994 
v 0.0525 0.032347 0.0164059 
v 0.0475 0.0319579 0.0161718 
v 0.0525 0.0321461 0.0162994 
v 0.0475 0.0317846 0.0160246 
v 0.0525 0.0319579 0.0161718 
v 0.0475 0.0316282 0.0158595 
v 0.0525 0.0317846 0.0160246 
v 0.0475 0.0314906 0.0156785 
v 0.0525 0.0316282 0.0158595 
v 0.0475 0.0313734 0.0154837 
v 0.0525 0.0314906 0.0156785 
v 0.0475 0.0312779 0.0152773 
v 0.0525 0.0313734 0.0154837 
v 0.0475 0.0312053 0.0150618 
v 0.0525 0.0312779 0.0152773 
v 0.0475 0.0311564 0.0148397 
v 0.0525 0.0312053 0.0150618 
v 0.0475 0.0311318 0.0146137 
v 0.0525 0.0311564 0.0148397 
v 0.0475 0.0311318 0.0143863 
v 0.0525 0.0311318 0.0146137 
v 0.0475 0.0311564 0.0141603 
v 0.0525 0.0311318 0.0143863 
v 0.0475 0.0312053 0.0139382 
v 0.0525 0.0311564 0.0141603 
v 0.0475 0.0312779 0.0137227 
v 0.0525 0.0312053 0.0139382 
v 0.0475 0.0313734 0.0135163 
v 0.0525 0.0312779 0.0137227 
v 0.0475 0.0314906 0.0133215 
v 0.0525 0.0313734 0.0135163 
v 0.0475 0.0316282 0.0131405 
v 0.0525 0.0314906 0.0133215 
v 0.0475 0.0317846 0.0129754 
v 0.0525 0.0316282 0.0131405 
v 0.0475 0.0319579 0.0128282 
v 0.0525 0.0317846 0.0129754 
v 0.0475 0.0321461 0.0127006 
v 0.0525 0.0319579 0.0128282 
v 0.0475 0.032347 0.0125941 
v 0.0525 0.0321461 0.0127006 
v 0.0475 0.0325582 0.0125099 
v 0.0525 0.032347 0.0125941 
v 0.0475 0.0327773 0.0124491 
v 0.0525 0.0325582 0.0125099 
v 0.0475 0.0330017 0.0124123 
v 0.0525 0.0327773 0.0124491 
v 0.0475 0.0332288 0.0124 
v 0.0525 0.0330017 0.0124123 
v 0.0475 0.0334558 0.0124123 
v 0.0525 0.0332288 0.0124 
v 0.0475 0.0336802 0.0124491 
v 0.0525 0.0334558 0.0124123 
v 0.0475 0.0338993 0.0125099 
v 0.0525 0.0336802 0.0124491 
v 0.0475 0.0341105 0.0125941 
v 0.0525 0.0338993 0.0125099 
v 0.0475 0.0343114 0.0127006 
v 0.0525 0.0341105 0.0125941 
v 0.0475 0.0344996 0.0128282 
v 0.0525 0.0343114 0.0127006 
v 0.0475 0.0346729 0.0129754 
v 0.0525 0.0344996 0.0128282 
v 0.0475 0.0348293 0.0131405 
v 0.0525 0.0346729 0.0129754 
v 0.0475 0.0349669 0.0133215 
v 0.0525 0.0348293 0.0131405 
v 0.0475 0.0350841 0.0135163 
v 0.0525 0.0349669 0.0133215 
v 0.0475 0.0351796 0.0137227 
v 0.0525 0.0350841 0.0135163 
v 0.0475 0.0352522 0.0139382 
v 0.0525 0.0351796 0.0137227 
v 0.0475 0.0353011 0.0141603 
v 0.0525 0.0352522 0.0139382 
v 0.0475 0.0353257 0.0143863 
v 0.0525 0.0353011 0.0141603 
v 0.0475 0.0353257 0.0146137 
v 0.0525 0.0353257 0.0143863 
v 0.0475 0.0353011 0.0148397 
v 0.0525 0.0353257 0.0146137 
v 0.0475 0.0352522 0.0150618 
v 0.0525 0.0353011 0.0148397 
v 0.0475 0.0351796 0.0152773 
v 0.0525 0.0352522 0.0150618 
v 0.0475 0.0350841 0.0154837 
v 0.0525 0.0351796 0.0152773 
v 0.0475 0.0349669 0.0156785 
v 0.0525 0.0350841 0.0154837 
v 0.0475 0.0348293 0.0158595 
v 0.0525 0.0349669 0.0156785 
v 0.0475 0.0346729 0.0160246 
v 0.0525 0.0348293 0.0158595 
v 0.0475 0.0344996 0.0161718 
v 0.0525 0.0346729 0.0160246 
v 0.0475 0.0343114 0.0162994 
v 0.0525 0.0344996 0.0161718 
v 0.0475 0.0341105 0.0164059 
v 0.0525 0.0343114 0.0162994 
v 0.0475 0.0338993 0.0164901 
v 0.0525 0.0341105 0.0164059 
v 0.0475 0.0336802 0.0165509 
v 0.0525 0.0338993 0.0164901 
v 0.0475 0.0334558 0.0165877 
v 0.0525 0.0336802 0.0165509 
v 0.0525 0.0334558 0.0165877 
vn 0 0.108119 -0.994138 
vn 0 2.44929e-16 -1 
vn 0 2.44929e-16 -1 
vn 0 0.21497 -0.976621 
vn 0 0.108119 -0.994138 
vn 0 0.319302 -0.947653 
vn 0 0.21497 -0.976621 
vn 0 0.419889 -0.907575 
vn 0 0.319302 -0.947653 
vn 0 0.515554 -0.856857 
vn 0 0.419889 -0.907575 
vn 0 0.605174 -0.796093 
vn 0 0.515554 -0.856857 
vn 0 0.687699 -0.725995 
vn 0 0.605174 -0.796093 
vn 0 0.762162 -0.647386 
vn 0 0.687699 -0.725995 
vn 0 0.827689 -0.561187 
vn 0 0.762162 -0.647386 
vn 0 0.883512 -0.468408 
vn 0 0.827689 -0.561187 
vn 0 0.928977 -0.370138 
vn 0 0.883512 -0.468408 
vn 0 0.96355 -0.267528 
vn 0 0.928977 -0.370138 
vn 0 0.986827 -0.161782 
vn 0 0.96355 -0.267528 
vn 0 0.998533 -0.0541389 
vn 0 0.986827 -0.161782 
vn 0 0.998533 0.0541389 
vn 0 0.998533 -0.0541389 
vn 0 0.986827 0.161782 
vn 0 0.998533 0.0541389 
vn 0 0.96355 0.267528 
vn 0 0.986827 0.161782 
vn 0 0.928977 0.370138 
vn 0 0.96355 0.267528 
vn 0 0.883512 0.468408 
vn 0 0.928977 0.370138 
vn 0 0.827689 0.561187 
vn 0 0.883512 0.468408 
vn 0 0.762162 0.647386 
vn 0 0.827689 0.561187 
vn 0 0.687699 0.725995 
vn 0 0.762162 0.647386 
vn 0 0.605174 0.796093 
vn 0 0.687699 0.725995 
vn 0 0.515554 0.856857 
vn 0 0.605174 0.796093 
vn 0 0.419889 0.907575 
vn 0 0.515554 0.856857 
vn 0 0.319302 0.947653 
vn 0 0.419889 0.907575 
vn 0 0.21497 0.976621 
vn 0 0.319302 0.947653 
vn 0 0.108119 0.994138 
vn 0 0.21497 0.976621 
vn 0 -1.22465e-16 1 
vn 0 0.108119 0.994138 
vn 0 -0.108119 0.994138 
vn 0 -1.22465e-16 1 
vn 0 -0.21497 0.976621 
vn 0 -0.108119 0.994138 
vn 0 -0.319302 0.947653 
vn 0 -0.21497 0.976621 
vn 0 -0.419889 0.907575 
vn 0 -0.319302 0.947653 
vn 0 -0.515554 0.856857 
vn 0 -0.419889 0.907575 
vn 0 -0.605174 0.796093 
vn 0 -0.515554 0.856857 
vn 0 -0.687699 0.725995 
vn 0 -0.605174 0.796093 
vn 0 -0.762162 0.647386 
vn 0 -0.687699 0.725995 
vn 0 -0.827689 0.561187 
vn 0 -0.762162 0.647386 
vn 0 -0.883512 0.468408 
vn 0 -0.827689 0.561187 
vn 0 -0.928977 0.370138 
vn 0 -0.883512 0.468408 
vn 0 -0.96355 0.267528 
vn 0 -0.928977 0.370138 
vn 0 -0.986827 0.161782 
vn 0 -0.96355 0.267528 
vn 0 -0.998533 0.0541389 
vn 0 -0.986827 0.161782 
vn 0 -0.998533 -0.0541389 
vn 0 -0.998533 0.0541389 
vn 0 -0.986827 -0.161782 
vn 0 -0.998533 -0.0541389 
vn 0 -0.96355 -0.267528 
vn 0 -0.986827 -0.161782 
vn 0 -0.928977 -0.370138 
vn 0 -0.96355 -0.267528 
vn 0 -0.883512 -0.468408 
vn 0 -0.928977 -0.370138 
vn 0 -0.827689 -0.561187 
vn 0 -0.883512 -0.468408 
vn 0 -0.762162 -0.647386 
vn 0 -0.827689 -0.561187 
vn 0 -0.687699 -0.725995 
vn 0 -0.762162 -0.647386 
vn 0 -0.605174 -0.796093 
vn 0 -0.687699 -0.725995 
vn 0 -0.515554 -0.856857 
vn 0 -0.605174 -0.796093 
vn 0 -0.419889 -0.907575 
vn 0 -0.515554 -0.856857 
vn 0 -0.319302 -0.947653 
vn 0 -0.419889 -0.907575 
vn 0 -0.21497 -0.976621 
vn 0 -0.319302 -0.947653 
vn 0 -0.108119 -0.994138 
vn 0 -0.21497 -0.976621 
vn 0 -0.108119 -0.994138 
f 1//1 2//2 3//3 
f 4//4 1//1 5//5 
f 6//6 4//4 7//7 
f 8//8 6//6 9//9 
f 10//10 8//8 11//11 
f 12//12 10//10 13//13 
f 14//14 12//12 15//15 
f 16//16 14//14 17//17 
f 18//18 16//16 19//19 
f 20//20 18//18 21//21 
f 22//22 20//20 23//23 
f 24//24 22//22 25//25 
f 26//26 24//24 27//27 
f 28//28 26//26 29//29 
f 30//30 28//28 31//31 
f 32//32 30//30 33//33 
f 34//34 32//32 35//35 
f 36//36 34//34 37//37 
f 38//38 36//36 39//39 
f 40//40 38//38 41//41 
f 42//42 40//40 43//43 
f 44//44 42//42 45//45 
f 46//46 44//44 47//47 
f 48//48 46//46 49//49 
f 50//50 48//48 51//51 
f 52//52 50//50 53//53 
f 54//54 52//52 55//55 
f 56//56 54//54 57//57 
f 58//58 56//56 59//59 
f 60//60 58//58 61//61 
f 62//62 60//60 63//63 
f 64//64 62//62 65//65 
f 66//66 64//64 67//67 
f 68//68 66//66 69//69 
f 70//70 68//68 71//71 
f 72//72 70//70 73//73 
f 74//74 72//72 75//75 
f 76//76 74//74 77//77 
f 78//78 76//76 79//79 
f 80//80 78//78 81//81 
f 82//82 80//80 83//83 
f 84//84 82//82 85//85 
f 86//86 84//84 87//87 
f 88//88 86//86 89//89 
f 90//90 88//88 91//91 
f 92//92 90//90 93//93 
f 94//94 92//92 95//95 
f 96//96 94//94 97//97 
f 98//98 96//96 99//99 
f 100//100 98//98 101//101 
f 102//102 100//100 103//103 
f 104//104 102//102 105//105 
f 106//106 104//104 107//107 
f 108//108 106//106 109//109 
f 110//110 108//108 111//111 
f 112//112 110//110 113//113 
f 114//114 112//112 115//115 
f 2//2 114//114 116//116 
f 116//116 3//3 2//2 
f 115//115 116//116 114//114 
f 113//113 115//115 112//112 
f 111//111 113//113 110//110 
f 109//109 111//111 108//108 
f 107//107 109//109 106//106 
f 105//105 107//107 104//104 
f 103//103 105//105 102//102 
f 101//101 103//103 100//100 
f 99//99 101//101 98//98 
f 97//97 99//99 96//96 
f 95//95 97//97 94//94 
f 93//93 95//95 92//92 
f 91//91 93//93 90//90 
f 89//89 91//91 88//88 
f 87//87 89//89 86//86 
f 85//85 87//87 84//84 
f 83//83 85//85 82//82 
f 81//81 83//83 80//80 
f 79//79 81//81 78//78 
f 77//77 79//79 76//76 
f 75//75 77//77 74//74 
f 73//73 75//75 72//72 
f 71//71 73//73 70//70 
f 69//69 71//71 68//68 
f 67//67 69//69 66//66 
f 65//65 67//67 64//64 
f 63//63 65//65 62//62 
f 61//61 63//63 60//60 
f 59//59 61//61 58//58 
f 57//57 59//59 56//56 
f 55//55 57//57 54//54 
f 53//53 55//55 52//52 
f 51//51 53//53 50//50 
f 49//49 51//51 48//48 
f 47//47 49//49 46//46 
f 45//45 47//47 44//44 
f 43//43 45//45 42//42 
f 41//41 43//43 40//40 
f 39//39 41//41 38//38 
f 37//37 39//39 36//36 
f 35//35 37//37 34//34 
f 33//33 35//35 32//32 
f 31//31 33//33 30//30 
f 29//29 31//31 28//28 
f 27//27 29//29 26//26 
f 25//25 27//27 24//24 
f 23//23 25//25 22//22 
f 21//21 23//23 20//20 
f 19//19 21//21 18//18 
f 17//17 19//19 16//16 
f 15//15 17//17 14//14 
f 13//13 15//15 12//12 
f 11//11 13//13 10//10 
f 9//9 11//11 8//8 
f 7//7 9//9 6//6 
f 5//5 7//7 4//4 
f 3//3 5//5 1//1 
o mesh4314
v 0.0525 0.0266024 0.00351306 
v 0.0525 0.0314906 0.0133215 
v 0.0525 0.0313734 0.0135163 
v 0.0525 0 0.015 
v 0.0525 0.0262614 0.00277604 
v 0.0525 0.0317846 -0.0129754 
v 0.0525 0.0319579 -0.0128282 
v 0.0525 0.0266024 -0.00351306 
v 0.0525 0.0260021 0.00200646 
v 0.0525 0.0257398 -0.000406042 
v 0.0525 0.0257398 0.000406042 
v 0.0525 0.0260021 -0.00200646 
v 0.0525 0.0258276 -0.00121336 
v 0.0525 0.0311318 0.0146137 
v 0.0525 0.0311564 0.0148397 
v 0.0525 0.0213349 0.0161676 
v 0.0525 0.0258276 0.00121336 
v 0.0525 0.0316282 -0.0131405 
v 0.0525 0.0382288 0.02 
v 0.0525 0.0346729 0.0160246 
v 0.0525 0.0348293 0.0158595 
v 0.0525 0.0332288 0.02 
v 0.0525 0.0338993 0.0164901 
v 0.0525 0.0313734 0.0154837 
v 0.0525 0.0314906 0.0156785 
v 0.0525 0.0274553 0.0191485 
v 0.0525 0.0312779 0.0152773 
v 0.0525 0.0256165 0.0184947 
v 0.0525 0.0312053 0.0150618 
v 0.0525 0.0238503 0.0176648 
v 0.0525 0.0204517 0.0157526 
v 0.0525 0.0311318 0.0143863 
v 0.0525 0.0176202 0.0150476 
v 0.0525 0.0166456 0.015 
v 0.0525 0.0185855 0.01519 
v 0.0525 0.0262614 -0.00277604 
v 0.0525 0.0311318 -0.0146137 
v 0.0525 0.0204517 -0.0157526 
v 0.0525 0.0213349 -0.0161676 
v 0.0525 0.0344996 0.0161718 
v 0.0525 0.0336802 0.0165509 
v 0.0525 0.0330017 0.0165877 
v 0.0525 0.0332288 0.0166 
v 0.0525 0.0316282 0.0158595 
v 0.0525 0.0317846 0.0160246 
v 0.0525 0.0293489 0.0196201 
v 0.0525 0.0221733 0.0166667 
v 0.0525 0.0195324 0.0154257 
v 0.0525 0.0312053 0.0139382 
v 0.0525 0.0311564 0.0141603 
v 0.0525 0.0317846 0.0129754 
v 0.0525 0.0316282 0.0131405 
v 0.0525 0.0319579 0.0128282 
v 0.0525 0.0270211 0.0042089 
v 0.0525 0.0195324 -0.0154257 
v 0.0525 0.0311564 -0.0148397 
v 0.0525 0.0221733 -0.0166667 
v 0.0525 0.0238503 -0.0176648 
v 0.0525 0.0382288 -0.02 
v 0.0525 0.0382288 -0.0075 
v 0.0525 0.0353257 -0.0143863 
v 0.0525 0.0332288 0.0075 
v 0.0525 0.0334558 0.0124123 
v 0.0525 0.0332288 0.0124 
v 0.0525 0.030834 0.0071074 
v 0.0525 0.0316165 0.00732465 
v 0.0525 0.0286899 0.0059707 
v 0.0525 0.0293621 0.00642643 
v 0.0525 0.0382288 0.0075 
v 0.0525 0.0338993 0.0125099 
v 0.0525 0.0343114 0.0127006 
v 0.0525 0.0341105 0.0125941 
v 0.0525 0.0343114 0.0162994 
v 0.0525 0.0341105 0.0164059 
v 0.0525 0.0334558 0.0165877 
v 0.0525 0.0312796 0.0199048 
v 0.0525 0.0327773 0.0165509 
v 0.0525 0.0321461 0.0162994 
v 0.0525 0.0312779 0.0137227 
v 0.0525 0.032347 0.0125941 
v 0.0525 0.0321461 0.0127006 
v 0.0525 0.0330017 0.0124123 
v 0.0525 0.0327773 0.0124491 
v 0.0525 0.0185855 -0.01519 
v 0.0525 0.0353257 -0.0146137 
v 0.0525 0.0324179 0.00745603 
v 0.0525 0.0300796 0.00680682 
v 0.0525 0.0336802 0.0124491 
v 0.0525 0.0344996 0.0128282 
v 0.0525 0.0349669 0.0133215 
v 0.0525 0.0348293 0.0131405 
v 0.0525 0.0353257 0.0146137 
v 0.0525 0.0353257 0.0143863 
v 0.0525 0.032347 0.0164059 
v 0.0525 0.0325582 0.0125099 
v 0.0525 0 -0.015 
v 0.0525 0.0312053 -0.0139382 
v 0.0525 0.0312779 -0.0137227 
v 0.0525 0.0311318 -0.0143863 
v 0.0525 0.0311564 -0.0141603 
v 0.0525 0.0312053 -0.0150618 
v 0.0525 0.0312779 -0.0152773 
v 0.0525 0.0256165 -0.0184947 
v 0.0525 0.0313734 -0.0154837 
v 0.0525 0.0274553 -0.0191485 
v 0.0525 0.0353011 -0.0148397 
v 0.0525 0.0352522 -0.0150618 
v 0.0525 0.0353011 -0.0141603 
v 0.0525 0.0275125 0.0048554 
v 0.0525 0.028071 0.00544497 
v 0.0525 0.0346729 0.0129754 
v 0.0525 0.0325582 0.0164901 
v 0.0525 0.0319579 0.0161718 
v 0.0525 0.0313734 -0.0135163 
v 0.0525 0.0176202 -0.0150476 
v 0.0525 0.0166456 -0.015 
v 0.0525 0.0314906 -0.0156785 
v 0.0525 0.0351796 -0.0137227 
v 0.0525 0.0352522 -0.0139382 
v 0.0525 0.0353011 0.0141603 
v 0.0525 0.0352522 0.0139382 
v 0.0525 0.0353011 0.0148397 
v 0.0525 0.0349669 0.0156785 
v 0.0525 0.0350841 0.0154837 
v 0.0525 0.0349669 -0.0156785 
v 0.0525 0.0348293 -0.0158595 
v 0.0525 0.0351796 -0.0152773 
v 0.0525 0.0350841 -0.0154837 
v 0.0525 0.0275125 -0.0048554 
v 0.0525 0.0270211 -0.0042089 
v 0.0525 0.0286899 -0.0059707 
v 0.0525 0.028071 -0.00544497 
v 0.0525 0.0316165 -0.00732465 
v 0.0525 0.032347 -0.0125941 
v 0.0525 0.0325582 -0.0125099 
v 0.0525 0.0321461 -0.0127006 
v 0.0525 0.0351796 0.0137227 
v 0.0525 0.0350841 0.0135163 
v 0.0525 0.0351796 0.0152773 
v 0.0525 0.0352522 0.0150618 
v 0.0525 0.0314906 -0.0133215 
v 0.0525 0.0344996 -0.0161718 
v 0.0525 0.0343114 -0.0162994 
v 0.0525 0.0346729 -0.0160246 
v 0.0525 0.0349669 -0.0133215 
v 0.0525 0.0350841 -0.0135163 
v 0.0525 0.0346729 -0.0129754 
v 0.0525 0.0348293 -0.0131405 
v 0.0525 0.0341105 -0.0125941 
v 0.0525 0.0343114 -0.0127006 
v 0.0525 0.0300796 -0.00680682 
v 0.0525 0.0293621 -0.00642643 
v 0.0525 0.030834 -0.0071074 
v 0.0525 0.0316282 -0.0158595 
v 0.0525 0.0293489 -0.0196201 
v 0.0525 0.0341105 -0.0164059 
v 0.0525 0.0338993 -0.0164901 
v 0.0525 0.0344996 -0.0128282 
v 0.0525 0.0338993 -0.0125099 
v 0.0525 0.0332288 -0.0075 
v 0.0525 0.0336802 -0.0124491 
v 0.0525 0.0324179 -0.00745603 
v 0.0525 0.0330017 -0.0124123 
v 0.0525 0.0317846 -0.0160246 
v 0.0525 0.0312796 -0.0199048 
v 0.0525 0.032347 -0.0164059 
v 0.0525 0.0321461 -0.0162994 
v 0.0525 0.0332288 -0.02 
v 0.0525 0.0334558 -0.0124123 
v 0.0525 0.0332288 -0.0124 
v 0.0525 0.0319579 -0.0161718 
v 0.0525 0.0336802 -0.0165509 
v 0.0525 0.0327773 -0.0124491 
v 0.0525 0.0327773 -0.0165509 
v 0.0525 0.0325582 -0.0164901 
v 0.0525 0.0330017 -0.0165877 
v 0.0525 0.0334558 -0.0165877 
v 0.0525 0.0332288 -0.0166 
vn 1 0 0 
vn 1 0 0 
vn 1 0 0 
vn 1 0 0 
vn 1 0 0 
vn 1 0 0 
vn 1 0 0 
vn 1 0 0 
vn 1 0 0 
vn 1 0 0 
vn 1 0 0 
vn 1 0 0 
vn 1 0 0 
vn 1 0 0 
vn 1 0 0 
vn 1 0 0 
vn 1 0 0 
vn 1 0 0 
vn 1 0 0 
vn 1 0 0 
vn 1 0 0 
vn 1 0 0 
vn 1 0 0 
vn 1 0 0 
vn 1 0 0 
vn 1 0 0 
vn 1 0 0 
vn 1 0 0 
vn 1 0 0 
vn 1 0 0 
vn 1 0 0 
vn 1 0 0 
vn 1 0 0 
vn 1 0 0 
vn 1 0 0 
vn 1 0 0 
vn 1 0 0 
vn 1 0 0 
vn 1 0 0 
vn 1 0 0 
vn 1 0 0 
vn 1 0 0 
vn 1 0 0 
vn 1 0 0 
vn 1 0 0 
vn 1 0 0 
vn 1 0 0 
vn 1 0 0 
vn 1 0 0 
vn 1 0 0 
vn 1 0 0 
vn 1 0 0 
vn 1 0 0 
vn 1 0 0 
vn 1 0 0 
vn 1 0 0 
vn 1 0 0 
vn 1 0 0 
vn 1 0 0 
vn 1 0 0 
vn 1 0 0 
vn 1 0 0 
vn 1 0 0 
vn 1 0 0 
vn 1 0 0 
vn 1 0 0 
vn 1 0 0 
vn 1 0 0 
vn 1 0 0 
vn 1 0 0 
vn 1 0 0 
vn 1 0 0 
vn 1 0 0 
vn 1 0 0 
vn 1 0 0 
vn 1 0 0 
vn 1 0 0 
vn 1 0 0 
vn 1 0 0 
vn 1 0 0 
vn 1 0 0 
vn 1 0 0 
vn 1 0 0 
vn 1 0 0 
vn 1 0 0 
vn 1 0 0 
vn 1 0 0 
vn 1 0 0 
vn 1 0 0 
vn 1 0 0 
vn 1 0 0 
vn 1 0 0 
vn 1 0 0 
vn 1 0 0 
vn 1 0 0 
vn 1 0 0 
vn 1 0 0 
vn 1 0 0 
vn 1 0 0 
vn 1 0 0 
vn 1 0 0 
vn 1 0 0 
vn 1 0 0 
vn 1 0 0 
vn 1 0 0 
vn 1 0 0 
vn 1 0 0 
vn 1 0 0 
vn 1 0 0 
vn 1 0 0 
vn 1 0 0 
vn 1 0 0 
vn 1 0 0 
vn 1 0 0 
vn 1 0 0 
vn 1 0 0 
vn 1 0 0 
vn 1 0 0 
vn 1 0 0 
vn 1 0 0 
vn 1 0 0 
vn 1 0 0 
vn 1 0 0 
vn 1 0 0 
vn 1 0 0 
vn 1 0 0 
vn 1 0 0 
vn 1 0 0 
vn 1 0 0 
vn 1 0 0 
vn 1 0 0 
vn 1 0 0 
vn 1 0 0 
vn 1 0 0 
vn 1 0 0 
vn 1 0 0 
vn 1 0 0 
vn 1 0 0 
vn 1 0 0 
vn 1 0 0 
vn 1 0 0 
vn 1 0 0 
vn 1 0 0 
vn 1 0 0 
vn 1 0 0 
vn 1 0 0 
vn 1 0 0 
vn 1 0 0 
vn 1 0 0 
vn 1 0 0 
vn 1 0 0 
vn 1 0 0 
vn 1 0 0 
vn 1 0 0 
vn 1 0 0 
vn 1 0 0 
vn 1 0 0 
vn 1 0 0 
vn 1 0 0 
vn 1 0 0 
vn 1 0 0 
vn 1 0 0 
vn 1 0 0 
vn 1 0 0 
vn 1 0 0 
vn 1 0 0 
vn 1 0 0 
vn 1 0 0 
vn 1 0 0 
vn 1 0 0 
vn 1 0 0 
vn 1 0 0 
vn 1 0 0 
vn 1 0 0 
vn 1 0 0 
vn 1 0 0 
vn 1 0 0 
vn 1 0 0 
f 117//117 118//118 119//119 
f 120//120 121//121 117//117 
f 119//119 120//120 117//117 
f 122//122 123//123 124//124 
f 120//120 125//125 121//121 
f 120//120 126//126 127//127 
f 120//120 128//128 129//129 
f 124//124 120//120 122//122 
f 130//130 131//131 132//132 
f 120//120 133//133 125//125 
f 129//129 126//126 120//120 
f 120//120 134//134 122//122 
f 135//135 136//136 137//137 
f 135//135 138//138 139//139 
f 140//140 141//141 142//142 
f 143//143 140//140 144//144 
f 131//131 145//145 146//146 
f 132//132 147//147 130//130 
f 148//148 149//149 150//150 
f 148//148 130//130 151//151 
f 127//127 133//133 120//120 
f 124//124 152//152 120//120 
f 153//153 154//154 155//155 
f 135//135 156//156 136//136 
f 138//138 157//157 139//139 
f 138//138 158//158 159//159 
f 160//160 161//161 162//162 
f 144//144 146//146 143//143 
f 146//146 163//163 131//131 
f 147//147 164//164 130//130 
f 151//151 149//149 148//148 
f 120//120 165//165 166//166 
f 152//152 128//128 120//120 
f 117//117 167//167 168//168 
f 169//169 117//117 170//170 
f 153//153 171//171 154//154 
f 172//172 173//173 174//174 
f 175//175 176//176 177//177 
f 178//178 179//179 180//180 
f 180//180 181//181 182//182 
f 180//180 183//183 184//184 
f 178//178 185//185 186//186 
f 185//185 187//187 188//188 
f 135//135 189//189 156//156 
f 139//139 190//190 135//135 
f 159//159 191//191 138//138 
f 138//138 192//192 193//193 
f 192//192 162//162 194//194 
f 142//142 141//141 160//160 
f 146//146 145//145 143//143 
f 164//164 151//151 130//130 
f 166//166 148//148 120//120 
f 119//119 195//195 120//120 
f 117//117 169//169 167//167 
f 170//170 196//196 197//197 
f 170//170 198//198 199//199 
f 153//153 200//200 171//171 
f 172//172 155//155 173//173 
f 177//177 201//201 175//175 
f 182//182 202//202 180//180 
f 184//184 203//203 180//180 
f 186//186 204//204 178//178 
f 185//185 205//205 187//187 
f 185//185 206//206 207//207 
f 135//135 208//208 209//209 
f 190//190 189//189 135//135 
f 193//193 158//158 138//138 
f 194//194 210//210 192//192 
f 162//162 142//142 160//160 
f 163//163 132//132 131//131 
f 195//195 165//165 120//120 
f 170//170 197//197 169//169 
f 199//199 211//211 170//170 
f 212//212 213//213 214//214 
f 212//212 215//215 216//216 
f 174//174 217//217 172//172 
f 218//218 174//174 219//219 
f 220//220 219//219 221//221 
f 175//175 222//222 223//223 
f 176//176 224//224 177//177 
f 203//203 181//181 180//180 
f 180//180 225//225 226//226 
f 188//188 186//186 185//185 
f 207//207 227//227 185//185 
f 209//209 185//185 135//135 
f 191//191 157//157 138//138 
f 210//210 228//228 192//192 
f 161//161 229//229 162//162 
f 150//150 120//120 148//148 
f 211//211 196//196 170//170 
f 198//198 170//170 225//225 
f 120//120 214//214 230//230 
f 216//216 213//213 212//212 
f 215//215 231//231 200//200 
f 215//215 212//212 232//232 
f 174//174 218//218 217//217 
f 221//221 233//233 220//220 
f 201//201 222//222 175//175 
f 176//176 234//234 235//235 
f 226//226 183//183 180//180 
f 227//227 205//205 185//185 
f 185//185 236//236 237//237 
f 135//135 238//238 208//208 
f 135//135 239//239 240//240 
f 228//228 193//193 192//192 
f 142//142 144//144 140//140 
f 225//225 180//180 198//198 
f 214//214 120//120 212//212 
f 232//232 231//231 215//215 
f 219//219 220//220 218//218 
f 175//175 241//241 242//242 
f 175//175 243//243 244//244 
f 235//235 224//224 176//176 
f 123//123 245//245 246//246 
f 123//123 247//247 248//248 
f 249//249 250//250 251//251 
f 249//249 123//123 252//252 
f 204//204 179//179 178//178 
f 185//185 253//253 254//254 
f 209//209 236//236 185//185 
f 135//135 255//255 256//256 
f 137//137 239//239 135//135 
f 168//168 118//118 117//117 
f 230//230 257//257 120//120 
f 155//155 172//172 153//153 
f 175//175 258//258 259//259 
f 242//242 260//260 175//175 
f 223//223 243//243 175//175 
f 176//176 261//261 262//262 
f 176//176 263//263 264//264 
f 176//176 265//265 266//266 
f 248//248 245//245 123//123 
f 123//123 267//267 268//268 
f 123//123 249//249 269//269 
f 252//252 250//250 249//249 
f 254//254 206//206 185//185 
f 256//256 238//238 135//135 
f 229//229 194//194 162//162 
f 200//200 153//153 215//215 
f 270//270 221//221 271//271 
f 175//175 272//272 273//273 
f 260//260 258//258 175//175 
f 262//262 234//234 176//176 
f 176//176 274//274 263//263 
f 176//176 275//275 265//265 
f 276//276 277//277 275//275 
f 276//276 278//278 279//279 
f 268//268 247//247 123//123 
f 251//251 278//278 249//249 
f 237//237 253//253 185//185 
f 257//257 134//134 120//120 
f 271//271 280//280 270//270 
f 281//281 282//282 283//283 
f 273//273 284//284 175//175 
f 244//244 241//241 175//175 
f 266//266 274//274 176//176 
f 276//276 285//285 277//277 
f 279//279 286//286 276//276 
f 269//269 267//267 123//123 
f 240//240 255//255 135//135 
f 271//271 287//287 280//280 
f 283//283 271//271 281//281 
f 273//273 288//288 284//284 
f 264//264 261//261 176//176 
f 286//286 285//285 276//276 
f 278//278 251//251 289//289 
f 180//180 202//202 178//178 
f 283//283 287//287 271//271 
f 281//281 290//290 291//291 
f 284//284 292//292 290//290 
f 259//259 272//272 175//175 
f 289//289 279//279 278//278 
f 270//270 233//233 221//221 
f 290//290 281//281 284//284 
f 275//275 176//176 276//276 
f 291//291 282//282 281//281 
f 246//246 124//124 123//123 
f 288//288 293//293 284//284 
f 284//284 294//294 292//292 
f 293//293 294//294 284//284 
o mesh4315
v 0.0475 0.0213349 -0.0161676 
v 0.0475 0.0221733 -0.0166667 
v 0.0525 0.0221733 -0.0166667 
v 0.0475 0.0204517 -0.0157526 
v 0.0525 0.0213349 -0.0161676 
v 0.0475 0.0195324 -0.0154257 
v 0.0525 0.0204517 -0.0157526 
v 0.0475 0.0185855 -0.01519 
v 0.0525 0.0195324 -0.0154257 
v 0.0475 0.0176202 -0.0150476 
v 0.0525 0.0185855 -0.01519 
v 0.0475 0.0166456 -0.015 
v 0.0525 0.0176202 -0.0150476 
v 0.0525 0.0166456 -0.015 
vn 0 -0.468923 -0.883239 
vn 0 -0.552771 -0.833333 
vn 0 -0.552771 -0.833333 
vn 0 -0.380611 -0.924735 
vn 0 -0.468923 -0.883239 
vn 0 -0.288675 -0.957427 
vn 0 -0.380611 -0.924735 
vn 0 -0.193991 -0.981003 
vn 0 -0.288675 -0.957427 
vn 0 -0.0974593 -0.99524 
vn 0 -0.193991 -0.981003 
vn 0 0 -1 
vn 0 -0.0974593 -0.99524 
vn 0 0 -1 
f 295//295 296//296 297//297 
f 298//298 295//295 299//299 
f 300//300 298//298 301//301 
f 302//302 300//300 303//303 
f 304//304 302//302 305//305 
f 306//306 304//304 307//307 
f 307//307 308//308 306//306 
f 305//305 307//307 304//304 
f 303//303 305//305 302//302 
f 301//301 303//303 300//300 
f 299//299 301//301 298//298 
f 297//297 299//299 295//295 
o mesh4316
v 0.0475 0.0332288 -0.02 
v 0.0525 0.0332288 -0.02 
v 0.0525 0.0312796 -0.0199048 
v 0.0475 0.0312796 -0.0199048 
v 0.0525 0.0293489 -0.0196201 
v 0.0475 0.0293489 -0.0196201 
v 0.0525 0.0274553 -0.0191485 
v 0.0475 0.0274553 -0.0191485 
v 0.0525 0.0256165 -0.0184947 
v 0.0475 0.0256165 -0.0184947 
v 0.0525 0.0238503 -0.0176648 
v 0.0475 0.0238503 -0.0176648 
v 0.0525 0.0221733 -0.0166667 
v 0.0475 0.0221733 -0.0166667 
vn 0 0 -1 
vn 0 0 -1 
vn 0 -0.0974593 -0.99524 
vn 0 -0.0974593 -0.99524 
vn 0 -0.193991 -0.981003 
vn 0 -0.193991 -0.981003 
vn 0 -0.288675 -0.957427 
vn 0 -0.288675 -0.957427 
vn 0 -0.380611 -0.924735 
vn 0 -0.380611 -0.924735 
vn 0 -0.468923 -0.883239 
vn 0 -0.468923 -0.883239 
vn 0 -0.552771 -0.833333 
vn 0 -0.552771 -0.833333 
f 309//309 310//310 311//311 
f 312//312 311//311 313//313 
f 314//314 313//313 315//315 
f 316//316 315//315 317//317 
f 318//318 317//317 319//319 
f 320//320 319//319 321//321 
f 321//321 322//322 320//320 
f 319//319 320//320 318//318 
f 317//317 318//318 316//316 
f 315//315 316//316 314//314 
f 313//313 314//314 312//312 
f 311//311 312//312 309//309 
o mesh4317
v 0.0525 0.0332288 -0.02 
v 0.0475 0.0332288 -0.02 
v 0.0475 0.0382288 -0.02 
v 0.0525 0.0382288 -0.02 
vn 0 1.38778e-15 -1 
vn 0 1.38778e-15 -1 
vn 0 1.38778e-15 -1 
vn 0 1.38778e-15 -1 
f 323//323 324//324 325//325 
f 325//325 326//326 323//323 
o mesh4318
v 0.0525 0.0382288 -0.02 
v 0.0475 0.0382288 -0.02 
v 0.0475 0.0382288 -0.0075 
v 0.0525 0.0382288 -0.0075 
vn 0 1 0 
vn 0 1 0 
vn 0 1 0 
vn 0 1 0 
f 327//327 328//328 329//329 
f 329//329 330//330 327//327 
o mesh4319
v 0.0525 0.0382288 -0.0075 
v 0.0475 0.0382288 -0.0075 
v 0.0475 0.0332288 -0.0075 
v 0.0525 0.0332288 -0.0075 
vn 0 0 1 
vn 0 0 1 
vn 0 0 1 
vn 0 0 1 
f 331//331 332//332 333//333 
f 333//333 334//334 331//331 
o mesh4320
v 0.0475 0.0324179 0.00745603 
v 0.0475 0.0332288 0.0075 
v 0.0525 0.0332288 0.0075 
v 0.0475 0.0316165 0.00732465 
v 0.0525 0.0324179 0.00745603 
v 0.0475 0.030834 0.0071074 
v 0.0525 0.0316165 0.00732465 
v 0.0475 0.0300796 0.00680682 
v 0.0525 0.030834 0.0071074 
v 0.0475 0.0293621 0.00642643 
v 0.0525 0.0300796 0.00680682 
v 0.0475 0.0286899 0.0059707 
v 0.0525 0.0293621 0.00642643 
v 0.0475 0.028071 0.00544497 
v 0.0525 0.0286899 0.0059707 
v 0.0475 0.0275125 0.0048554 
v 0.0525 0.028071 0.00544497 
v 0.0475 0.0270211 0.0042089 
v 0.0525 0.0275125 0.0048554 
v 0.0475 0.0266024 0.00351306 
v 0.0525 0.0270211 0.0042089 
v 0.0475 0.0262614 0.00277604 
v 0.0525 0.0266024 0.00351306 
v 0.0475 0.0260021 0.00200646 
v 0.0525 0.0262614 0.00277604 
v 0.0475 0.0258276 0.00121336 
v 0.0525 0.0260021 0.00200646 
v 0.0475 0.0257398 0.000406042 
v 0.0525 0.0258276 0.00121336 
v 0.0475 0.0257398 -0.000406042 
v 0.0525 0.0257398 0.000406042 
v 0.0475 0.0258276 -0.00121336 
v 0.0525 0.0257398 -0.000406042 
v 0.0475 0.0260021 -0.00200646 
v 0.0525 0.0258276 -0.00121336 
v 0.0475 0.0262614 -0.00277604 
v 0.0525 0.0260021 -0.00200646 
v 0.0475 0.0266024 -0.00351306 
v 0.0525 0.0262614 -0.00277604 
v 0.0475 0.0270211 -0.0042089 
v 0.0525 0.0266024 -0.00351306 
v 0.0475 0.0275125 -0.0048554 
v 0.0525 0.0270211 -0.0042089 
v 0.0475 0.028071 -0.00544497 
v 0.0525 0.0275125 -0.0048554 
v 0.0475 0.0286899 -0.0059707 
v 0.0525 0.028071 -0.00544497 
v 0.0475 0.0293621 -0.00642643 
v 0.0525 0.0286899 -0.0059707 
v 0.0475 0.0300796 -0.00680682 
v 0.0525 0.0293621 -0.00642643 
v 0.0475 0.030834 -0.0071074 
v 0.0525 0.0300796 -0.00680682 
v 0.0475 0.0316165 -0.00732465 
v 0.0525 0.030834 -0.0071074 
v 0.0475 0.0324179 -0.00745603 
v 0.0525 0.0316165 -0.00732465 
v 0.0475 0.0332288 -0.0075 
v 0.0525 0.0324179 -0.00745603 
v 0.0525 0.0332288 -0.0075 
vn 0 0.108119 -0.994138 
vn 0 2.44929e-16 -1 
vn 0 2.44929e-16 -1 
vn 0 0.21497 -0.976621 
vn 0 0.108119 -0.994138 
vn 0 0.319302 -0.947653 
vn 0 0.21497 -0.976621 
vn 0 0.419889 -0.907575 
vn 0 0.319302 -0.947653 
vn 0 0.515554 -0.856857 
vn 0 0.419889 -0.907575 
vn 0 0.605174 -0.796093 
vn 0 0.515554 -0.856857 
vn 0 0.687699 -0.725995 
vn 0 0.605174 -0.796093 
vn 0 0.762162 -0.647386 
vn 0 0.687699 -0.725995 
vn 0 0.827689 -0.561187 
vn 0 0.762162 -0.647386 
vn 0 0.883512 -0.468408 
vn 0 0.827689 -0.561187 
vn 0 0.928977 -0.370138 
vn 0 0.883512 -0.468408 
vn 0 0.96355 -0.267528 
vn 0 0.928977 -0.370138 
vn 0 0.986827 -0.161782 
vn 0 0.96355 -0.267528 
vn 0 0.998533 -0.0541389 
vn 0 0.986827 -0.161782 
vn 0 0.998533 0.0541389 
vn 0 0.998533 -0.0541389 
vn 0 0.986827 0.161782 
vn 0 0.998533 0.0541389 
vn 0 0.96355 0.267528 
vn 0 0.986827 0.161782 
vn 0 0.928977 0.370138 
vn 0 0.96355 0.267528 
vn 0 0.883512 0.468408 
vn 0 0.928977 0.370138 
vn 0 0.827689 0.561187 
vn 0 0.883512 0.468408 
vn 0 0.762162 0.647386 
vn 0 0.827689 0.561187 
vn 0 0.687699 0.725995 
vn 0 0.762162 0.647386 
vn 0 0.605174 0.796093 
vn 0 0.687699 0.725995 
vn 0 0.515554 0.856857 
vn 0 0.605174 0.796093 
vn 0 0.419889 0.907575 
vn 0 0.515554 0.856857 
vn 0 0.319302 0.947653 
vn 0 0.419889 0.907575 
vn 0 0.21497 0.976621 
vn 0 0.319302 0.947653 
vn 0 0.108119 0.994138 
vn 0 0.21497 0.976621 
vn 0 -1.22465e-16 1 
vn 0 0.108119 0.994138 
vn 0 -1.22465e-16 1 
f 335//335 336//336 337//337 
f 338//338 335//335 339//339 
f 340//340 338//338 341//341 
f 342//342 340//340 343//343 
f 344//344 342//342 345//345 
f 346//346 344//344 347//347 
f 348//348 346//346 349//349 
f 350//350 348//348 351//351 
f 352//352 350//350 353//353 
f 354//354 352//352 355//355 
f 356//356 354//354 357//357 
f 358//358 356//356 359//359 
f 360//360 358//358 361//361 
f 362//362 360//360 363//363 
f 364//364 362//362 365//365 
f 366//366 364//364 367//367 
f 368//368 366//366 369//369 
f 370//370 368//368 371//371 
f 372//372 370//370 373//373 
f 374//374 372//372 375//375 
f 376//376 374//374 377//377 
f 378//378 376//376 379//379 
f 380//380 378//378 381//381 
f 382//382 380//380 383//383 
f 384//384 382//382 385//385 
f 386//386 384//384 387//387 
f 388//388 386//386 389//389 
f 390//390 388//388 391//391 
f 392//392 390//390 393//393 
f 393//393 394//394 392//392 
f 391//391 393//393 390//390 
f 389//389 391//391 388//388 
f 387//387 389//389 386//386 
f 385//385 387//387 384//384 
f 383//383 385//385 382//382 
f 381//381 383//383 380//380 
f 379//379 381//381 378//378 
f 377//377 379//379 376//376 
f 375//375 377//377 374//374 
f 373//373 375//375 372//372 
f 371//371 373//373 370//370 
f 369//369 371//371 368//368 
f 367//367 369//369 366//366 
f 365//365 367//367 364//364 
f 363//363 365//365 362//362 
f 361//361 363//363 360//360 
f 359//359 361//361 358//358 
f 357//357 359//359 356//356 
f 355//355 357//357 354//354 
f 353//353 355//355 352//352 
f 351//351 353//353 350//350 
f 349//349 351//351 348//348 
f 347//347 349//349 346//346 
f 345//345 347//347 344//344 
f 343//343 345//345 342//342 
f 341//341 343//343 340//340 
f 339//339 341//341 338//338 
f 337//337 339//339 335//335 
o mesh4321
v 0.0525 0.0332288 0.0075 
v 0.0475 0.0332288 0.0075 
v 0.0475 0.0382288 0.0075 
v 0.0525 0.0382288 0.0075 
vn 0 0 -1 
vn 0 0 -1 
vn 0 0 -1 
vn 0 0 -1 
f 395//395 396//396 397//397 
f 397//397 398//398 395//395 
o mesh4322
v 0.0525 0.0382288 0.0075 
v 0.0475 0.0382288 0.0075 
v 0.0475 0.0382288 0.02 
v 0.0525 0.0382288 0.02 
vn 0 1 0 
vn 0 1 0 
vn 0 1 0 
vn 0 1 0 
f 399//399 400//400 401//401 
f 401//401 402//402 399//399 
o mesh4323
v 0.0525 0.0382288 0.02 
v 0.0475 0.0382288 0.02 
v 0.0475 0.0332288 0.02 
v 0.0525 0.0332288 0.02 
vn 0 1.38778e-15 1 
vn 0 1.38778e-15 1 
vn 0 1.38778e-15 1 
vn 0 1.38778e-15 1 
f 403//403 404//404 405//405 
f 405//405 406//406 403//403 
o mesh4324
v 0.0475 0.0221733 0.0166667 
v 0.0525 0.0221733 0.0166667 
v 0.0525 0.0238503 0.0176648 
v 0.0475 0.0238503 0.0176648 
v 0.0525 0.0256165 0.0184947 
v 0.0475 0.0256165 0.0184947 
v 0.0525 0.0274553 0.0191485 
v 0.0475 0.0274553 0.0191485 
v 0.0525 0.0293489 0.0196201 
v 0.0475 0.0293489 0.0196201 
v 0.0525 0.0312796 0.0199048 
v 0.0475 0.0312796 0.0199048 
v 0.0525 0.0332288 0.02 
v 0.0475 0.0332288 0.02 
vn 0 -0.552771 0.833333 
vn 0 -0.552771 0.833333 
vn 0 -0.468923 0.883239 
vn 0 -0.468923 0.883239 
vn 0 -0.380611 0.924735 
vn 0 -0.380611 0.924735 
vn 0 -0.288675 0.957427 
vn 0 -0.288675 0.957427 
vn 0 -0.193991 0.981003 
vn 0 -0.193991 0.981003 
vn 0 -0.0974593 0.99524 
vn 0 -0.0974593 0.99524 
vn 0 -2.44929e-16 1 
vn 0 -2.44929e-16 1 
f 407//407 408//408 409//409 
f 410//410 409//409 411//411 
f 412//412 411//411 413//413 
f 414//414 413//413 415//415 
f 416//416 415//415 417//417 
f 418//418 417//417 419//419 
f 419//419 420//420 418//418 
f 417//417 418//418 416//416 
f 415//415 416//416 414//414 
f 413//413 414//414 412//412 
f 411//411 412//412 410//410 
f 409//409 410//410 407//407 
o mesh4325
v 0.0475 0.0176202 0.0150476 
v 0.0475 0.0166456 0.015 
v 0.0525 0.0166456 0.015 
v 0.0475 0.0185855 0.01519 
v 0.0525 0.0176202 0.0150476 
v 0.0475 0.0195324 0.0154257 
v 0.0525 0.0185855 0.01519 
v 0.0475 0.0204517 0.0157526 
v 0.0525 0.0195324 0.0154257 
v 0.0475 0.0213349 0.0161676 
v 0.0525 0.0204517 0.0157526 
v 0.0475 0.0221733 0.0166667 
v 0.0525 0.0213349 0.0161676 
v 0.0525 0.0221733 0.0166667 
vn 0 -0.0974593 0.99524 
vn 0 -2.44929e-16 1 
vn 0 -2.44929e-16 1 
vn 0 -0.193991 0.981003 
vn 0 -0.0974593 0.99524 
vn 0 -0.288675 0.957427 
vn 0 -0.193991 0.981003 
vn 0 -0.380611 0.924735 
vn 0 -0.288675 0.957427 
vn 0 -0.468923 0.883239 
vn 0 -0.380611 0.924735 
vn 0 -0.552771 0.833333 
vn 0 -0.468923 0.883239 
vn 0 -0.552771 0.833333 
f 421//421 422//422 423//423 
f 424//424 421//421 425//425 
f 426//426 424//424 427//427 
f 428//428 426//426 429//429 
f 430//430 428//428 431//431 
f 432//432 430//430 433//433 
f 433//433 434//434 432//432 
f 431//431 433//433 430//430 
f 429//429 431//431 428//428 
f 427//427 429//429 426//426 
f 425//425 427//427 424//424 
f 423//423 425//425 421//421 
o mesh4326
v 0.0475 0.0330017 -0.0124123 
v 0.0475 0.0332288 -0.0124 
v 0.0525 0.0332288 -0.0124 
v 0.0475 0.0327773 -0.0124491 
v 0.0525 0.0330017 -0.0124123 
v 0.0475 0.0325582 -0.0125099 
v 0.0525 0.0327773 -0.0124491 
v 0.0475 0.032347 -0.0125941 
v 0.0525 0.0325582 -0.0125099 
v 0.0475 0.0321461 -0.0127006 
v 0.0525 0.032347 -0.0125941 
v 0.0475 0.0319579 -0.0128282 
v 0.0525 0.0321461 -0.0127006 
v 0.0475 0.0317846 -0.0129754 
v 0.0525 0.0319579 -0.0128282 
v 0.0475 0.0316282 -0.0131405 
v 0.0525 0.0317846 -0.0129754 
v 0.0475 0.0314906 -0.0133215 
v 0.0525 0.0316282 -0.0131405 
v 0.0475 0.0313734 -0.0135163 
v 0.0525 0.0314906 -0.0133215 
v 0.0475 0.0312779 -0.0137227 
v 0.0525 0.0313734 -0.0135163 
v 0.0475 0.0312053 -0.0139382 
v 0.0525 0.0312779 -0.0137227 
v 0.0475 0.0311564 -0.0141603 
v 0.0525 0.0312053 -0.0139382 
v 0.0475 0.0311318 -0.0143863 
v 0.0525 0.0311564 -0.0141603 
v 0.0475 0.0311318 -0.0146137 
v 0.0525 0.0311318 -0.0143863 
v 0.0475 0.0311564 -0.0148397 
v 0.0525 0.0311318 -0.0146137 
v 0.0475 0.0312053 -0.0150618 
v 0.0525 0.0311564 -0.0148397 
v 0.0475 0.0312779 -0.0152773 
v 0.0525 0.0312053 -0.0150618 
v 0.0475 0.0313734 -0.0154837 
v 0.0525 0.0312779 -0.0152773 
v 0.0475 0.0314906 -0.0156785 
v 0.0525 0.0313734 -0.0154837 
v 0.0475 0.0316282 -0.0158595 
v 0.0525 0.0314906 -0.0156785 
v 0.0475 0.0317846 -0.0160246 
v 0.0525 0.0316282 -0.0158595 
v 0.0475 0.0319579 -0.0161718 
v 0.0525 0.0317846 -0.0160246 
v 0.0475 0.0321461 -0.0162994 
v 0.0525 0.0319579 -0.0161718 
v 0.0475 0.032347 -0.0164059 
v 0.0525 0.0321461 -0.0162994 
v 0.0475 0.0325582 -0.0164901 
v 0.0525 0.032347 -0.0164059 
v 0.0475 0.0327773 -0.0165509 
v 0.0525 0.0325582 -0.0164901 
v 0.0475 0.0330017 -0.0165877 
v 0.0525 0.0327773 -0.0165509 
v 0.0475 0.0332288 -0.0166 
v 0.0525 0.0330017 -0.0165877 
v 0.0475 0.0334558 -0.0165877 
v 0.0525 0.0332288 -0.0166 
v 0.0475 0.0336802 -0.0165509 
v 0.0525 0.0334558 -0.0165877 
v 0.0475 0.0338993 -0.0164901 
v 0.0525 0.0336802 -0.0165509 
v 0.0475 0.0341105 -0.0164059 
v 0.0525 0.0338993 -0.0164901 
v 0.0475 0.0343114 -0.0162994 
v 0.0525 0.0341105 -0.0164059 
v 0.0475 0.0344996 -0.0161718 
v 0.0525 0.0343114 -0.0162994 
v 0.0475 0.0346729 -0.0160246 
v 0.0525 0.0344996 -0.0161718 
v 0.0475 0.0348293 -0.0158595 
v 0.0525 0.0346729 -0.0160246 
v 0.0475 0.0349669 -0.0156785 
v 0.0525 0.0348293 -0.0158595 
v 0.0475 0.0350841 -0.0154837 
v 0.0525 0.0349669 -0.0156785 
v 0.0475 0.0351796 -0.0152773 
v 0.0525 0.0350841 -0.0154837 
v 0.0475 0.0352522 -0.0150618 
v 0.0525 0.0351796 -0.0152773 
v 0.0475 0.0353011 -0.0148397 
v 0.0525 0.0352522 -0.0150618 
v 0.0475 0.0353257 -0.0146137 
v 0.0525 0.0353011 -0.0148397 
v 0.0475 0.0353257 -0.0143863 
v 0.0525 0.0353257 -0.0146137 
v 0.0475 0.0353011 -0.0141603 
v 0.0525 0.0353257 -0.0143863 
v 0.0475 0.0352522 -0.0139382 
v 0.0525 0.0353011 -0.0141603 
v 0.0475 0.0351796 -0.0137227 
v 0.0525 0.0352522 -0.0139382 
v 0.0475 0.0350841 -0.0135163 
v 0.0525 0.0351796 -0.0137227 
v 0.0475 0.0349669 -0.0133215 
v 0.0525 0.0350841 -0.0135163 
v 0.0475 0.0348293 -0.0131405 
v 0.0525 0.0349669 -0.0133215 
v 0.0475 0.0346729 -0.0129754 
v 0.0525 0.0348293 -0.0131405 
v 0.0475 0.0344996 -0.0128282 
v 0.0525 0.0346729 -0.0129754 
v 0.0475 0.0343114 -0.0127006 
v 0.0525 0.0344996 -0.0128282 
v 0.0475 0.0341105 -0.0125941 
v 0.0525 0.0343114 -0.0127006 
v 0.0475 0.0338993 -0.0125099 
v 0.0525 0.0341105 -0.0125941 
v 0.0475 0.0336802 -0.0124491 
v 0.0525 0.0338993 -0.0125099 
v 0.0475 0.0334558 -0.0124123 
v 0.0525 0.0336802 -0.0124491 
v 0.0525 0.0334558 -0.0124123 
vn 0 0.108119 -0.994138 
vn 0 2.44929e-16 -1 
vn 0 2.44929e-16 -1 
vn 0 0.21497 -0.976621 
vn 0 0.108119 -0.994138 
vn 0 0.319302 -0.947653 
vn 0 0.21497 -0.976621 
vn 0 0.419889 -0.907575 
vn 0 0.319302 -0.947653 
vn 0 0.515554 -0.856857 
vn 0 0.419889 -0.907575 
vn 0 0.605174 -0.796093 
vn 0 0.515554 -0.856857 
vn 0 0.687699 -0.725995 
vn 0 0.605174 -0.796093 
vn 0 0.762162 -0.647386 
vn 0 0.687699 -0.725995 
vn 0 0.827689 -0.561187 
vn 0 0.762162 -0.647386 
vn 0 0.883512 -0.468408 
vn 0 0.827689 -0.561187 
vn 0 0.928977 -0.370138 
vn 0 0.883512 -0.468408 
vn 0 0.96355 -0.267528 
vn 0 0.928977 -0.370138 
vn 0 0.986827 -0.161782 
vn 0 0.96355 -0.267528 
vn 0 0.998533 -0.0541389 
vn 0 0.986827 -0.161782 
vn 0 0.998533 0.0541389 
vn 0 0.998533 -0.0541389 
vn 0 0.986827 0.161782 
vn 0 0.998533 0.0541389 
vn 0 0.96355 0.267528 
vn 0 0.986827 0.161782 
vn 0 0.928977 0.370138 
vn 0 0.96355 0.267528 
vn 0 0.883512 0.468408 
vn 0 0.928977 0.370138 
vn 0 0.827689 0.561187 
vn 0 0.883512 0.468408 
vn 0 0.762162 0.647386 
vn 0 0.827689 0.561187 
vn 0 0.687699 0.725995 
vn 0 0.762162 0.647386 
vn 0 0.605174 0.796093 
vn 0 0.687699 0.725995 
vn 0 0.515554 0.856857 
vn 0 0.605174 0.796093 
vn 0 0.419889 0.907575 
vn 0 0.515554 0.856857 
vn 0 0.319302 0.947653 
vn 0 0.419889 0.907575 
vn 0 0.21497 0.976621 
vn 0 0.319302 0.947653 
vn 0 0.108119 0.994138 
vn 0 0.21497 0.976621 
vn 0 -1.22465e-16 1 
vn 0 0.108119 0.994138 
vn 0 -0.108119 0.994138 
vn 0 -1.22465e-16 1 
vn 0 -0.21497 0.976621 
vn 0 -0.108119 0.994138 
vn 0 -0.319302 0.947653 
vn 0 -0.21497 0.976621 
vn 0 -0.419889 0.907575 
vn 0 -0.319302 0.947653 
vn 0 -0.515554 0.856857 
vn 0 -0.419889 0.907575 
vn 0 -0.605174 0.796093 
vn 0 -0.515554 0.856857 
vn 0 -0.687699 0.725995 
vn 0 -0.605174 0.796093 
vn 0 -0.762162 0.647386 
vn 0 -0.687699 0.725995 
vn 0 -0.827689 0.561187 
vn 0 -0.762162 0.647386 
vn 0 -0.883512 0.468408 
vn 0 -0.827689 0.561187 
vn 0 -0.928977 0.370138 
vn 0 -0.883512 0.468408 
vn 0 -0.96355 0.267528 
vn 0 -0.928977 0.370138 
vn 0 -0.986827 0.161782 
vn 0 -0.96355 0.267528 
vn 0 -0.998533 0.0541389 
vn 0 -0.986827 0.161782 
vn 0 -0.998533 -0.0541389 
vn 0 -0.998533 0.0541389 
vn 0 -0.986827 -0.161782 
vn 0 -0.998533 -0.0541389 
vn 0 -0.96355 -0.267528 
vn 0 -0.986827 -0.161782 
vn 0 -0.928977 -0.370138 
vn 0 -0.96355 -0.267528 
vn 0 -0.883512 -0.468408 
vn 0 -0.928977 -0.370138 
vn 0 -0.827689 -0.561187 
vn 0 -0.883512 -0.468408 
vn 0 -0.762162 -0.647386 
vn 0 -0.827689 -0.561187 
vn 0 -0.687699 -0.725995 
vn 0 -0.762162 -0.647386 
vn 0 -0.605174 -0.796093 
vn 0 -0.687699 -0.725995 
vn 0 -0.515554 -0.856857 
vn 0 -0.605174 -0.796093 
vn 0 -0.419889 -0.907575 
vn 0 -0.515554 -0.856857 
vn 0 -0.319302 -0.947653 
vn 0 -0.419889 -0.907575 
vn 0 -0.21497 -0.976621 
vn 0 -0.319302 -0.947653 
vn 0 -0.108119 -0.994138 
vn 0 -0.21497 -0.976621 
vn 0 -0.108119 -0.994138 
f 435//435 436//436 437//437 
f 438//438 435//435 439//439 
f 440//440 438//438 441//441 
f 442//442 440//440 443//443 
f 444//444 442//442 445//445 
f 446//446 444//444 447//447 
f 448//448 446//446 449//449 
f 450//450 448//448 451//451 
f 452//452 450//450 453//453 
f 454//454 452//452 455//455 
f 456//456 454//454 457//457 
f 458//458 456//456 459//459 
f 460//460 458//458 461//461 
f 462//462 460//460 463//463 
f 464//464 462//462 465//465 
f 466//466 464//464 467//467 
f 468//468 466//466 469//469 
f 470//470 468//468 471//471 
f 472//472 470//470 473//473 
f 474//474 472//472 475//475 
f 476//476 474//474 477//477 
f 478//478 476//476 479//479 
f 480//480 478//478 481//481 
f 482//482 480//480 483//483 
f 484//484 482//482 485//485 
f 486//486 484//484 487//487 
f 488//488 486//486 489//489 
f 490//490 488//488 491//491 
f 492//492 490//490 493//493 
f 494//494 492//492 495//495 
f 496//496 494//494 497//497 
f 498//498 496//496 499//499 
f 500//500 498//498 501//501 
f 502//502 500//500 503//503 
f 504//504 502//502 505//505 
f 506//506 504//504 507//507 
f 508//508 506//506 509//509 
f 510//510 508//508 511//511 
f 512//512 510//510 513//513 
f 514//514 512//512 515//515 
f 516//516 514//514 517//517 
f 518//518 516//516 519//519 
f 520//520 518//518 521//521 
f 522//522 520//520 523//523 
f 524//524 522//522 525//525 
f 526//526 524//524 527//527 
f 528//528 526//526 529//529 
f 530//530 528//528 531//531 
f 532//532 530//530 533//533 
f 534//534 532//532 535//535 
f 536//536 534//534 537//537 
f 538//538 536//536 539//539 
f 540//540 538//538 541//541 
f 542//542 540//540 543//543 
f 544//544 542//542 545//545 
f 546//546 544//544 547//547 
f 548//548 546//546 549//549 
f 436//436 548//548 550//550 
f 550//550 437//437 436//436 
f 549//549 550//550 548//548 
f 547//547 549//549 546//546 
f 545//545 547//547 544//544 
f 543//543 545//545 542//542 
f 541//541 543//543 540//540 
f 539//539 541//541 538//538 
f 537//537 539//539 536//536 
f 535//535 537//537 534//534 
f 533//533 535//535 532//532 
f 531//531 533//533 530//530 
f 529//529 531//531 528//528 
f 527//527 529//529 526//526 
f 525//525 527//527 524//524 
f 523//523 525//525 522//522 
f 521//521 523//523 520//520 
f 519//519 521//521 518//518 
f 517//517 519//519 516//516 
f 515//515 517//517 514//514 
f 513//513 515//515 512//512 
f 511//511 513//513 510//510 
f 509//509 511//511 508//508 
f 507//507 509//509 506//506 
f 505//505 507//507 504//504 
f 503//503 505//505 502//502 
f 501//501 503//503 500//500 
f 499//499 501//501 498//498 
f 497//497 499//499 496//496 
f 495//495 497//497 494//494 
f 493//493 495//495 492//492 
f 491//491 493//493 490//490 
f 489//489 491//491 488//488 
f 487//487 489//489 486//486 
f 485//485 487//487 484//484 
f 483//483 485//485 482//482 
f 481//481 483//483 480//480 
f 479//479 481//481 478//478 
f 477//477 479//479 476//476 
f 475//475 477//477 474//474 
f 473//473 475//475 472//472 
f 471//471 473//473 470//470 
f 469//469 471//471 468//468 
f 467//467 469//469 466//466 
f 465//465 467//467 464//464 
f 463//463 465//465 462//462 
f 461//461 463//463 460//460 
f 459//459 461//461 458//458 
f 457//457 459//459 456//456 
f 455//455 457//457 454//454 
f 453//453 455//455 452//452 
f 451//451 453//453 450//450 
f 449//449 451//451 448//448 
f 447//447 449//449 446//446 
f 445//445 447//447 444//444 
f 443//443 445//445 442//442 
f 441//441 443//443 440//440 
f 439//439 441//441 438//438 
f 437//437 439//439 435//435 
o mesh4327
v 0.0475 0.0266024 0.00351306 
v 0.0475 0.005 0.015 
v 0.0475 0.0313734 0.0135163 
v 0.0475 0.0319579 -0.0128282 
v 0.0475 0.0270211 -0.0042089 
v 0.0475 0.0314906 0.0133215 
v 0.0475 0.0327773 0.0124491 
v 0.0475 0.0330017 0.0124123 
v 0.0475 0.0324179 0.00745603 
v 0.0475 0.0266024 -0.00351306 
v 0.0475 0.0312779 0.0137227 
v 0.0475 0.0382288 0.0075 
v 0.0475 0.0338993 0.0125099 
v 0.0475 0.0341105 0.0125941 
v 0.0475 0.0332288 0.0075 
v 0.0475 0.0336802 0.0124491 
v 0.0475 0.0316165 0.00732465 
v 0.0475 0.0325582 0.0125099 
v 0.0475 0.0319579 0.0128282 
v 0.0475 0.0275125 0.0048554 
v 0.0475 0.0270211 0.0042089 
v 0.0475 0.0286899 0.0059707 
v 0.0475 0.028071 0.00544497 
v 0.0475 0.0321461 0.0127006 
v 0.0475 0.032347 0.0125941 
v 0.0475 0.0293621 0.00642643 
v 0.0475 0.032347 -0.0125941 
v 0.0475 0.0321461 -0.0127006 
v 0.0475 0.0260021 -0.00200646 
v 0.0475 0.0262614 -0.00277604 
v 0.0475 0.0257398 -0.000406042 
v 0.0475 0.0258276 -0.00121336 
v 0.0475 0.0258276 0.00121336 
v 0.0475 0.0257398 0.000406042 
v 0.0475 0.0262614 0.00277604 
v 0.0475 0.0346729 0.0129754 
v 0.0475 0.0348293 0.0131405 
v 0.0475 0.0343114 0.0127006 
v 0.0475 0.0334558 0.0124123 
v 0.0475 0.0316282 0.0131405 
v 0.0475 0.0260021 0.00200646 
v 0.0475 0.0311318 0.0146137 
v 0.0475 0.0204517 0.0157526 
v 0.0475 0.0213349 0.0161676 
v 0.0475 0.0311318 -0.0146137 
v 0.0475 0.0311564 -0.0148397 
v 0.0475 0.0213349 -0.0161676 
v 0.0475 0.0344996 0.0128282 
v 0.0475 0.030834 0.0071074 
v 0.0475 0.0300796 0.00680682 
v 0.0475 0.0317846 0.0129754 
v 0.0475 0.0325582 -0.0125099 
v 0.0475 0.0311318 0.0143863 
v 0.0475 0.0176202 0.0150476 
v 0.0475 0.0185855 0.01519 
v 0.0475 0.0166456 0.015 
v 0.0475 0.0195324 0.0154257 
v 0.0475 0.0311564 0.0148397 
v 0.0475 0.0221733 0.0166667 
v 0.0475 0.0238503 0.0176648 
v 0.0475 0.0312779 0.0152773 
v 0.0475 0.0256165 0.0184947 
v 0.0475 0.0313734 0.0154837 
v 0.0475 0.0274553 0.0191485 
v 0.0475 0.0312053 -0.0150618 
v 0.0475 0.0238503 -0.0176648 
v 0.0475 0.0204517 -0.0157526 
v 0.0475 0.0382288 0.02 
v 0.0475 0.0341105 0.0164059 
v 0.0475 0.0338993 0.0164901 
v 0.0475 0.0349669 0.0156785 
v 0.0475 0.0348293 0.0158595 
v 0.0475 0.0332288 0.0124 
v 0.0475 0.0311564 0.0141603 
v 0.0475 0.0314906 0.0156785 
v 0.0475 0.0221733 -0.0166667 
v 0.0475 0.0195324 -0.0154257 
v 0.0475 0.005 -0.015 
v 0.0475 0.005 0 
v 0.0475 0.0312053 -0.0139382 
v 0.0475 0.0332288 0.02 
v 0.0475 0.0346729 0.0160246 
v 0.0475 0.0353257 0.0143863 
v 0.0475 0.0312053 0.0139382 
v 0.0475 0.0312053 0.0150618 
v 0.0475 0.0316282 0.0158595 
v 0.0475 0.0293489 0.0196201 
v 0.0475 0.0382288 -0.02 
v 0.0475 0.0353257 -0.0146137 
v 0.0475 0.0353257 -0.0143863 
v 0.0475 0.0313734 -0.0154837 
v 0.0475 0.0314906 -0.0156785 
v 0.0475 0.0274553 -0.0191485 
v 0.0475 0.0312779 -0.0152773 
v 0.0475 0.0256165 -0.0184947 
v 0.0475 0.0185855 -0.01519 
v 0.0475 0.0311564 -0.0141603 
v 0.0475 0.0343114 0.0162994 
v 0.0475 0.0344996 0.0161718 
v 0.0475 0.0353257 0.0146137 
v 0.0475 0.0349669 0.0133215 
v 0.0475 0.0350841 0.0135163 
v 0.0475 0.0317846 0.0160246 
v 0.0475 0.0312796 0.0199048 
v 0.0475 0.032347 0.0164059 
v 0.0475 0.0321461 0.0162994 
v 0.0475 0.0382288 -0.0075 
v 0.0475 0.0311318 -0.0143863 
v 0.0475 0.0176202 -0.0150476 
v 0.0475 0.0166456 -0.015 
v 0.0475 0.0312779 -0.0137227 
v 0.0475 0.0314906 -0.0133215 
v 0.0475 0.0313734 -0.0135163 
v 0.0475 0.0336802 0.0165509 
v 0.0475 0.0334558 0.0165877 
v 0.0475 0.0353011 0.0148397 
v 0.0475 0.0352522 0.0150618 
v 0.0475 0.0353011 0.0141603 
v 0.0475 0.0319579 0.0161718 
v 0.0475 0.0325582 0.0164901 
v 0.0475 0.0330017 0.0165877 
v 0.0475 0.0327773 0.0165509 
v 0.0475 0.0353011 -0.0148397 
v 0.0475 0.0351796 -0.0152773 
v 0.0475 0.0352522 -0.0150618 
v 0.0475 0.0316282 -0.0131405 
v 0.0475 0.0351796 0.0152773 
v 0.0475 0.0350841 0.0154837 
v 0.0475 0.0351796 0.0137227 
v 0.0475 0.0352522 0.0139382 
v 0.0475 0.0332288 0.0166 
v 0.0475 0.0353011 -0.0141603 
v 0.0475 0.0352522 -0.0139382 
v 0.0475 0.0316282 -0.0158595 
v 0.0475 0.0317846 -0.0160246 
v 0.0475 0.0293489 -0.0196201 
v 0.0475 0.0344996 -0.0128282 
v 0.0475 0.0343114 -0.0127006 
v 0.0475 0.0349669 -0.0133215 
v 0.0475 0.0348293 -0.0131405 
v 0.0475 0.0351796 -0.0137227 
v 0.0475 0.0350841 -0.0135163 
v 0.0475 0.0312796 -0.0199048 
v 0.0475 0.0321461 -0.0162994 
v 0.0475 0.0317846 -0.0129754 
v 0.0475 0.0332288 -0.0075 
v 0.0475 0.0334558 -0.0124123 
v 0.0475 0.0332288 -0.0124 
v 0.0475 0.0341105 -0.0125941 
v 0.0475 0.0346729 -0.0129754 
v 0.0475 0.0349669 -0.0156785 
v 0.0475 0.0350841 -0.0154837 
v 0.0475 0.0346729 -0.0160246 
v 0.0475 0.0348293 -0.0158595 
v 0.0475 0.0319579 -0.0161718 
v 0.0475 0.0316165 -0.00732465 
v 0.0475 0.0324179 -0.00745603 
v 0.0475 0.0300796 -0.00680682 
v 0.0475 0.030834 -0.0071074 
v 0.0475 0.0286899 -0.0059707 
v 0.0475 0.0293621 -0.00642643 
v 0.0475 0.0275125 -0.0048554 
v 0.0475 0.028071 -0.00544497 
v 0.0475 0.0344996 -0.0161718 
v 0.0475 0.0341105 -0.0164059 
v 0.0475 0.0343114 -0.0162994 
v 0.0475 0.0332288 -0.02 
v 0.0475 0.0338993 -0.0164901 
v 0.0475 0.0327773 -0.0165509 
v 0.0475 0.032347 -0.0164059 
v 0.0475 0.0325582 -0.0164901 
v 0.0475 0.0338993 -0.0125099 
v 0.0475 0.0336802 -0.0165509 
v 0.0475 0.0330017 -0.0124123 
v 0.0475 0.0327773 -0.0124491 
v 0.0475 0.0336802 -0.0124491 
v 0.0475 0.0334558 -0.0165877 
v 0.0475 0.0330017 -0.0165877 
v 0.0475 0.0332288 -0.0166 
vn -1 0 0 
vn -1 0 0 
vn -1 0 0 
vn -1 0 0 
vn -1 0 0 
vn -1 0 0 
vn -1 0 0 
vn -1 0 0 
vn -1 0 0 
vn -1 0 0 
vn -1 0 0 
vn -1 0 0 
vn -1 0 0 
vn -1 0 0 
vn -1 0 0 
vn -1 0 0 
vn -1 0 0 
vn -1 0 0 
vn -1 0 0 
vn -1 0 0 
vn -1 0 0 
vn -1 0 0 
vn -1 0 0 
vn -1 0 0 
vn -1 0 0 
vn -1 0 0 
vn -1 0 0 
vn -1 0 0 
vn -1 0 0 
vn -1 0 0 
vn -1 0 0 
vn -1 0 0 
vn -1 0 0 
vn -1 0 0 
vn -1 0 0 
vn -1 0 0 
vn -1 0 0 
vn -1 0 0 
vn -1 0 0 
vn -1 0 0 
vn -1 0 0 
vn -1 0 0 
vn -1 0 0 
vn -1 0 0 
vn -1 0 0 
vn -1 0 0 
vn -1 0 0 
vn -1 0 0 
vn -1 0 0 
vn -1 0 0 
vn -1 0 0 
vn -1 0 0 
vn -1 0 0 
vn -1 0 0 
vn -1 0 0 
vn -1 0 0 
vn -1 0 0 
vn -1 0 0 
vn -1 0 0 
vn -1 0 0 
vn -1 0 0 
vn -1 0 0 
vn -1 0 0 
vn -1 0 0 
vn -1 0 0 
vn -1 0 0 
vn -1 0 0 
vn -1 0 0 
vn -1 0 0 
vn -1 0 0 
vn -1 0 0 
vn -1 0 0 
vn -1 0 0 
vn -1 0 0 
vn -1 0 0 
vn -1 0 0 
vn -1 0 0 
vn -1 0 0 
vn -1 0 0 
vn -1 0 0 
vn -1 0 0 
vn -1 0 0 
vn -1 0 0 
vn -1 0 0 
vn -1 0 0 
vn -1 0 0 
vn -1 0 0 
vn -1 0 0 
vn -1 0 0 
vn -1 0 0 
vn -1 0 0 
vn -1 0 0 
vn -1 0 0 
vn -1 0 0 
vn -1 0 0 
vn -1 0 0 
vn -1 0 0 
vn -1 0 0 
vn -1 0 0 
vn -1 0 0 
vn -1 0 0 
vn -1 0 0 
vn -1 0 0 
vn -1 0 0 
vn -1 0 0 
vn -1 0 0 
vn -1 0 0 
vn -1 0 0 
vn -1 0 0 
vn -1 0 0 
vn -1 0 0 
vn -1 0 0 
vn -1 0 0 
vn -1 0 0 
vn -1 0 0 
vn -1 0 0 
vn -1 0 0 
vn -1 0 0 
vn -1 0 0 
vn -1 0 0 
vn -1 0 0 
vn -1 0 0 
vn -1 0 0 
vn -1 0 0 
vn -1 0 0 
vn -1 0 0 
vn -1 0 0 
vn -1 0 0 
vn -1 0 0 
vn -1 0 0 
vn -1 0 0 
vn -1 0 0 
vn -1 0 0 
vn -1 0 0 
vn -1 0 0 
vn -1 0 0 
vn -1 0 0 
vn -1 0 0 
vn -1 0 0 
vn -1 0 0 
vn -1 0 0 
vn -1 0 0 
vn -1 0 0 
vn -1 0 0 
vn -1 0 0 
vn -1 0 0 
vn -1 0 0 
vn -1 0 0 
vn -1 0 0 
vn -1 0 0 
vn -1 0 0 
vn -1 0 0 
vn -1 0 0 
vn -1 0 0 
vn -1 0 0 
vn -1 0 0 
vn -1 0 0 
vn -1 0 0 
vn -1 0 0 
vn -1 0 0 
vn -1 0 0 
vn -1 0 0 
vn -1 0 0 
vn -1 0 0 
vn -1 0 0 
vn -1 0 0 
vn -1 0 0 
vn -1 0 0 
vn -1 0 0 
vn -1 0 0 
vn -1 0 0 
vn -1 0 0 
vn -1 0 0 
vn -1 0 0 
vn -1 0 0 
vn -1 0 0 
vn -1 0 0 
vn -1 0 0 
vn -1 0 0 
f 551//551 552//552 553//553 
f 554//554 552//552 555//555 
f 553//553 556//556 551//551 
f 557//557 558//558 559//559 
f 552//552 560//560 555//555 
f 552//552 561//561 553//553 
f 562//562 563//563 564//564 
f 565//565 566//566 563//563 
f 567//567 568//568 557//557 
f 569//569 570//570 571//571 
f 569//569 572//572 573//573 
f 574//574 575//575 576//576 
f 555//555 577//577 578//578 
f 552//552 579//579 580//580 
f 552//552 581//581 582//582 
f 552//552 583//583 584//584 
f 551//551 585//585 552//552 
f 562//562 586//586 587//587 
f 564//564 588//588 562//562 
f 565//565 589//589 566//566 
f 567//567 575//575 568//568 
f 573//573 570//570 569//569 
f 572//572 569//569 574//574 
f 551//551 556//556 590//590 
f 580//580 560//560 552//552 
f 584//584 581//581 552//552 
f 585//585 591//591 552//552 
f 592//592 593//593 594//594 
f 595//595 596//596 597//597 
f 562//562 598//598 586//586 
f 563//563 562//562 565//565 
f 565//565 559//559 558//558 
f 575//575 599//599 600//600 
f 559//559 567//567 557//557 
f 576//576 572//572 574//574 
f 590//590 601//601 551//551 
f 555//555 602//602 577//577 
f 591//591 583//583 552//552 
f 603//603 604//604 605//605 
f 603//603 552//552 606//606 
f 592//592 607//607 593//593 
f 608//608 609//609 610//610 
f 611//611 610//610 612//612 
f 613//613 612//612 614//614 
f 596//596 615//615 616//616 
f 597//597 617//617 595//595 
f 618//618 619//619 620//620 
f 618//618 621//621 622//622 
f 588//588 598//598 562//562 
f 558//558 623//623 565//565 
f 567//567 599//599 575//575 
f 601//601 569//569 551//551 
f 582//582 579//579 552//552 
f 552//552 603//603 624//624 
f 606//606 604//604 603//603 
f 592//592 605//605 607//607 
f 608//608 594//594 609//609 
f 614//614 625//625 613//613 
f 616//616 626//626 596//596 
f 617//617 627//627 595//595 
f 628//628 629//629 630//630 
f 620//620 631//631 618//618 
f 622//622 632//632 618//618 
f 618//618 562//562 633//633 
f 623//623 589//589 565//565 
f 571//571 551//551 569//569 
f 552//552 634//634 561//561 
f 605//605 592//592 603//603 
f 610//610 635//635 608//608 
f 612//612 613//613 611//611 
f 636//636 614//614 637//637 
f 638//638 639//639 640//640 
f 641//641 642//642 643//643 
f 644//644 641//641 645//645 
f 627//627 646//646 595//595 
f 630//630 647//647 628//628 
f 618//618 648//648 619//619 
f 632//632 649//649 618//618 
f 633//633 650//650 618//618 
f 562//562 651//651 652//652 
f 600//600 576//576 575//575 
f 624//624 634//634 552//552 
f 611//611 635//635 610//610 
f 637//637 653//653 636//636 
f 654//654 655//655 656//656 
f 640//640 657//657 638//638 
f 645//645 616//616 644//644 
f 626//626 597//597 596//596 
f 658//658 659//659 660//660 
f 658//658 595//595 646//646 
f 629//629 661//661 630//630 
f 629//629 662//662 663//663 
f 631//631 664//664 665//665 
f 649//649 648//648 618//618 
f 618//618 666//666 667//667 
f 562//562 668//668 633//633 
f 587//587 651//651 562//562 
f 594//594 608//608 592//592 
f 637//637 669//669 653//653 
f 654//654 670//670 655//655 
f 631//631 671//671 672//672 
f 638//638 673//673 639//639 
f 638//638 674//674 675//675 
f 615//615 644//644 616//616 
f 646//646 659//659 658//658 
f 663//663 661//661 629//629 
f 676//676 662//662 629//629 
f 620//620 664//664 631//631 
f 618//618 677//677 678//678 
f 650//650 666//666 618//618 
f 562//562 679//679 680//680 
f 555//555 578//578 554//554 
f 637//637 656//656 669//669 
f 654//654 672//672 670//670 
f 631//631 681//681 671//671 
f 657//657 682//682 683//683 
f 675//675 673//673 638//638 
f 684//684 685//685 686//686 
f 660//660 628//628 658//658 
f 629//629 552//552 676//676 
f 678//678 621//621 618//618 
f 680//680 668//668 562//562 
f 636//636 625//625 614//614 
f 672//672 654//654 631//631 
f 657//657 687//687 688//688 
f 657//657 689//689 690//690 
f 657//657 691//691 692//692 
f 640//640 682//682 657//657 
f 693//693 686//686 694//694 
f 643//643 642//642 684//684 
f 647//647 658//658 628//628 
f 552//552 554//554 695//695 
f 667//667 677//677 618//618 
f 656//656 637//637 654//654 
f 696//696 697//697 698//698 
f 688//688 699//699 657//657 
f 690//690 700//700 657//657 
f 683//683 691//691 657//657 
f 638//638 701//701 702//702 
f 638//638 703//703 704//704 
f 686//686 705//705 694//694 
f 686//686 643//643 684//684 
f 695//695 676//676 552//552 
f 652//652 679//679 562//562 
f 698//698 706//706 707//707 
f 698//698 708//708 709//709 
f 698//698 710//710 711//711 
f 698//698 712//712 713//713 
f 700//700 687//687 657//657 
f 702//702 674//674 638//638 
f 638//638 714//714 703//703 
f 638//638 715//715 716//716 
f 638//638 717//717 718//718 
f 717//717 693//693 719//719 
f 693//693 720//720 721//721 
f 685//685 705//705 686//686 
f 665//665 681//681 631//631 
f 602//602 555//555 712//712 
f 709//709 706//706 698//698 
f 713//713 710//710 698//698 
f 696//696 657//657 722//722 
f 692//692 689//689 657//657 
f 716//716 714//714 638//638 
f 717//717 723//723 718//718 
f 721//721 719//719 693//693 
f 643//643 645//645 641//641 
f 712//712 724//724 725//725 
f 711//711 708//708 698//698 
f 722//722 726//726 696//696 
f 704//704 701//701 638//638 
f 717//717 727//727 723//723 
f 694//694 720//720 693//693 
f 712//712 698//698 724//724 
f 726//726 697//697 696//696 
f 718//718 715//715 638//638 
f 717//717 728//728 729//729 
f 712//712 725//725 602//602 
f 699//699 722//722 657//657 
f 719//719 728//728 717//717 
f 729//729 727//727 717//717 
f 698//698 707//707 696//696 
o mesh4328
v -0.0475 0 0.015 
v 0.0525 0 0.015 
v 0.0475 0.005 0.015 
v 0.0525 0.0166456 0.015 
v 0.0475 0.0166456 0.015 
v -0.0475 0.005 0.015 
vn 0 0 1 
vn 0 0 1 
vn 0 0 1 
vn 0 0 1 
vn 0 0 1 
vn 0 0 1 
f 730//730 731//731 732//732 
f 733//733 734//734 732//732 
f 732//732 731//731 733//733 
f 732//732 735//735 730//730 
o mesh4329
v 0.0525 0.0166456 -0.015 
v 0.0525 0 -0.015 
v 0.0475 0.005 -0.015 
v -0.0475 0 -0.015 
v -0.0475 0.005 -0.015 
v 0.0475 0.0166456 -0.015 
vn 0 0 -1 
vn 0 0 -1 
vn 0 0 -1 
vn 0 0 -1 
vn 0 0 -1 
vn 0 0 -1 
f 736//736 737//737 738//738 
f 739//739 740//740 738//738 
f 738//738 737//737 739//739 
f 738//738 741//741 736//736 
o mesh4330
v -0.0475 0 -0.015 
v -0.0475 0 0.015 
v -0.0475 0.005 0 
v -0.0475 0.005 0.015 
v -0.0475 0.005 -0.015 
vn -1 0 0 
vn -1 0 0 
vn -1 0 0 
vn -1 0 0 
vn -1 0 0 
f 742//742 743//743 744//744 
f 743//743 745//745 744//744 
f 744//744 746//746 742//742 
o mesh4331
v 0.0292231 0.005 0.00561187 
v -0.0292231 0.005 0.00561187 
v -0.0298784 0.005 0.00647386 
v -0.0276317 0.005 0.00161782 
v -0.0278645 0.005 0.00267528 
v 0.0286649 0.005 0.00468408 
v 0.0282102 0.005 0.00370138 
v 0.0275147 0.005 0.000541389 
v 0.0275147 0.005 -0.000541389 
v -0.0275147 0.005 -0.000541389 
v -0.0278645 0.005 -0.00267528 
v -0.0276317 0.005 -0.00161782 
v 0.0475 0.005 0.015 
v 0.0385812 0.005 0.00994138 
v 0.0375 0.005 0.01 
v -0.030623 0.005 0.00725995 
v -0.0314483 0.005 0.00796093 
v -0.0286649 0.005 0.00468408 
v -0.0282102 0.005 0.00370138 
v 0.0276317 0.005 -0.00161782 
v -0.0275147 0.005 0.000541389 
v 0.0278645 0.005 0.00267528 
v 0.0276317 0.005 0.00161782 
v -0.0323445 0.005 0.00856857 
v 0.0323445 0.005 0.00856857 
v 0.0314483 0.005 0.00796093 
v 0.0396497 0.005 0.00976621 
v 0.0333011 0.005 0.00907575 
v 0.0353503 0.005 0.00976621 
v 0.034307 0.005 0.00947653 
v 0.0364188 0.005 0.00994138 
v 0.040693 0.005 0.00947653 
v -0.0475 0.005 0.015 
v -0.0364188 0.005 0.00994138 
v -0.0375 0.005 0.01 
v 0.0451216 0.005 0.00647386 
v 0.044377 0.005 0.00725995 
v 0.0463351 0.005 0.00468408 
v 0.0457769 0.005 0.00561187 
v -0.0426555 0.005 0.00856857 
v -0.0435517 0.005 0.00796093 
v -0.0353503 0.005 0.00976621 
v -0.034307 0.005 0.00947653 
v 0.0278645 0.005 -0.00267528 
v 0.030623 0.005 0.00725995 
v 0.0298784 0.005 0.00647386 
v 0.0426555 0.005 0.00856857 
v 0.0416989 0.005 0.00907575 
v 0.0435517 0.005 0.00796093 
v 0.0467898 0.005 0.00370138 
v -0.0416989 0.005 0.00907575 
v -0.0396497 0.005 0.00976621 
v -0.040693 0.005 0.00947653 
v 0.0473683 0.005 0.00161782 
v 0.0471355 0.005 0.00267528 
v -0.0385812 0.005 0.00994138 
v 0.0475 0.005 -0.015 
v 0.040693 0.005 -0.00947653 
v 0.0416989 0.005 -0.00907575 
v 0.0298784 0.005 -0.00647386 
v 0.030623 0.005 -0.00725995 
v 0.0286649 0.005 -0.00468408 
v 0.0292231 0.005 -0.00561187 
v -0.0333011 0.005 0.00907575 
v 0.0475 0.005 0 
v 0.0474853 0.005 0.000541389 
v 0.0314483 0.005 -0.00796093 
v -0.0298784 0.005 -0.00647386 
v -0.0292231 0.005 -0.00561187 
v -0.034307 0.005 -0.00947653 
v -0.0333011 0.005 -0.00907575 
v -0.0475 0.005 -0.015 
v -0.0353503 0.005 -0.00976621 
v 0.0426555 0.005 -0.00856857 
v 0.0435517 0.005 -0.00796093 
v 0.0396497 0.005 -0.00976621 
v 0.0282102 0.005 -0.00370138 
v -0.030623 0.005 -0.00725995 
v -0.0323445 0.005 -0.00856857 
v -0.0314483 0.005 -0.00796093 
v 0.044377 0.005 -0.00725995 
v 0.0385812 0.005 -0.00994138 
v 0.0353503 0.005 -0.00976621 
v -0.0364188 0.005 -0.00994138 
v -0.0463351 0.005 0.00468408 
v -0.0467898 0.005 0.00370138 
v 0.0364188 0.005 -0.00994138 
v 0.0333011 0.005 -0.00907575 
v 0.034307 0.005 -0.00947653 
v -0.044377 0.005 0.00725995 
v -0.0286649 0.005 -0.00468408 
v -0.0282102 0.005 -0.00370138 
v -0.0396497 0.005 -0.00976621 
v -0.0385812 0.005 -0.00994138 
v -0.0416989 0.005 -0.00907575 
v -0.040693 0.005 -0.00947653 
v -0.0471355 0.005 0.00267528 
v 0.0451216 0.005 -0.00647386 
v 0.0457769 0.005 -0.00561187 
v 0.0375 0.005 -0.01 
v 0.0323445 0.005 -0.00856857 
v -0.0375 0.005 -0.01 
v -0.0435517 0.005 -0.00796093 
v -0.0426555 0.005 -0.00856857 
v -0.0473683 0.005 0.00161782 
v -0.0474853 0.005 0.000541389 
v -0.0457769 0.005 0.00561187 
v -0.0471355 0.005 -0.00267528 
v -0.0467898 0.005 -0.00370138 
v -0.0475 0.005 0 
v -0.0474853 0.005 -0.000541389 
v -0.0451216 0.005 0.00647386 
v -0.0451216 0.005 -0.00647386 
v -0.044377 0.005 -0.00725995 
v -0.0463351 0.005 -0.00468408 
v -0.0473683 0.005 -0.00161782 
v -0.0457769 0.005 -0.00561187 
v 0.0463351 0.005 -0.00468408 
v 0.0473683 0.005 -0.00161782 
v 0.0474853 0.005 -0.000541389 
v 0.0467898 0.005 -0.00370138 
v 0.0471355 0.005 -0.00267528 
vn 0 1 0 
vn 0 1 0 
vn 0 1 0 
vn 0 1 0 
vn 0 1 0 
vn 0 1 0 
vn 0 1 0 
vn 0 1 0 
vn 0 1 0 
vn 0 1 0 
vn 0 1 0 
vn 0 1 0 
vn 0 1 0 
vn 0 1 0 
vn 0 1 0 
vn 0 1 0 
vn 0 1 0 
vn 0 1 0 
vn 0 1 0 
vn 0 1 0 
vn 0 1 0 
vn 0 1 0 
vn 0 1 0 
vn 0 1 0 
vn 0 1 0 
vn 0 1 0 
vn 0 1 0 
vn 0 1 0 
vn 0 1 0 
vn 0 1 0 
vn 0 1 0 
vn 0 1 0 
vn 0 1 0 
vn 0 1 0 
vn 0 1 0 
vn 0 1 0 
vn 0 1 0 
vn 0 1 0 
vn 0 1 0 
vn 0 1 0 
vn 0 1 0 
vn 0 1 0 
vn 0 1 0 
vn 0 1 0 
vn 0 1 0 
vn 0 1 0 
vn 0 1 0 
vn 0 1 0 
vn 0 1 0 
vn 0 1 0 
vn 0 1 0 
vn 0 1 0 
vn 0 1 0 
vn 0 1 0 
vn 0 1 0 
vn 0 1 0 
vn 0 1 0 
vn 0 1 0 
vn 0 1 0 
vn 0 1 0 
vn 0 1 0 
vn 0 1 0 
vn 0 1 0 
vn 0 1 0 
vn 0 1 0 
vn 0 1 0 
vn 0 1 0 
vn 0 1 0 
vn 0 1 0 
vn 0 1 0 
vn 0 1 0 
vn 0 1 0 
vn 0 1 0 
vn 0 1 0 
vn 0 1 0 
vn 0 1 0 
vn 0 1 0 
vn 0 1 0 
vn 0 1 0 
vn 0 1 0 
vn 0 1 0 
vn 0 1 0 
vn 0 1 0 
vn 0 1 0 
vn 0 1 0 
vn 0 1 0 
vn 0 1 0 
vn 0 1 0 
vn 0 1 0 
vn 0 1 0 
vn 0 1 0 
vn 0 1 0 
vn 0 1 0 
vn 0 1 0 
vn 0 1 0 
vn 0 1 0 
vn 0 1 0 
vn 0 1 0 
vn 0 1 0 
vn 0 1 0 
vn 0 1 0 
vn 0 1 0 
vn 0 1 0 
vn 0 1 0 
vn 0 1 0 
vn 0 1 0 
vn 0 1 0 
vn 0 1 0 
vn 0 1 0 
vn 0 1 0 
vn 0 1 0 
vn 0 1 0 
vn 0 1 0 
vn 0 1 0 
vn 0 1 0 
vn 0 1 0 
vn 0 1 0 
vn 0 1 0 
vn 0 1 0 
vn 0 1 0 
vn 0 1 0 
vn 0 1 0 
f 747//747 748//748 749//749 
f 747//747 750//750 751//751 
f 750//750 752//752 753//753 
f 754//754 755//755 756//756 
f 755//755 757//757 758//758 
f 759//759 760//760 761//761 
f 747//747 762//762 763//763 
f 747//747 764//764 748//748 
f 751//751 765//765 747//747 
f 750//750 747//747 752//752 
f 757//757 755//755 766//766 
f 758//758 756//756 755//755 
f 767//767 768//768 769//769 
f 770//770 771//771 772//772 
f 759//759 773//773 760//760 
f 749//749 762//762 747//747 
f 753//753 767//767 750//750 
f 756//756 767//767 754//754 
f 767//767 753//753 768//768 
f 770//770 774//774 771//771 
f 770//770 775//775 776//776 
f 759//759 777//777 775//775 
f 759//759 778//778 773//773 
f 779//779 780//780 781//781 
f 765//765 764//764 747//747 
f 769//769 754//754 767//767 
f 776//776 774//774 770//770 
f 761//761 777//777 759//759 
f 759//759 782//782 783//783 
f 759//759 784//784 785//785 
f 779//779 786//786 787//787 
f 779//779 788//788 780//780 
f 759//759 789//789 788//788 
f 766//766 790//790 757//757 
f 770//770 791//791 792//792 
f 775//775 770//770 759//759 
f 759//759 793//793 794//794 
f 783//783 795//795 759//759 
f 759//759 796//796 784//784 
f 779//779 797//797 786//786 
f 779//779 798//798 799//799 
f 788//788 779//779 759//759 
f 792//792 747//747 770//770 
f 794//794 778//778 759//759 
f 785//785 782//782 759//759 
f 759//759 800//800 801//801 
f 799//799 797//797 779//779 
f 781//781 802//802 779//779 
f 772//772 791//791 770//770 
f 801//801 796//796 759//759 
f 803//803 804//804 805//805 
f 757//757 806//806 807//807 
f 757//757 808//808 809//809 
f 802//802 798//798 779//779 
f 759//759 770//770 810//810 
f 795//795 793//793 759//759 
f 759//759 811//811 812//812 
f 813//813 814//814 815//815 
f 813//813 816//816 817//817 
f 813//813 818//818 819//819 
f 803//803 820//820 821//821 
f 803//803 822//822 804//804 
f 809//809 806//806 757//757 
f 757//757 790//790 823//823 
f 810//810 789//789 759//759 
f 812//812 800//800 759//759 
f 813//813 824//824 814//814 
f 813//813 825//825 826//826 
f 819//819 816//816 813//813 
f 821//821 827//827 803//803 
f 803//803 828//828 822//822 
f 803//803 818//818 829//829 
f 823//823 808//808 757//757 
f 763//763 770//770 747//747 
f 826//826 824//824 813//813 
f 818//818 830//830 819//819 
f 779//779 831//831 832//832 
f 805//805 820//820 803//803 
f 829//829 833//833 803//803 
f 818//818 834//834 835//835 
f 787//787 836//836 779//779 
f 813//813 837//837 838//838 
f 817//817 825//825 813//813 
f 818//818 839//839 840//840 
f 818//818 841//841 842//842 
f 832//832 843//843 779//779 
f 803//803 844//844 845//845 
f 803//803 846//846 828//828 
f 835//835 829//829 818//818 
f 818//818 813//813 847//847 
f 838//838 757//757 813//813 
f 818//818 848//848 830//830 
f 842//842 839//839 818//818 
f 818//818 849//849 850//850 
f 779//779 851//851 852//852 
f 779//779 853//853 831//831 
f 827//827 844//844 803//803 
f 847//847 834//834 818//818 
f 815//815 837//837 813//813 
f 850//850 841//841 818//818 
f 818//818 854//854 855//855 
f 818//818 856//856 857//857 
f 843//843 851//851 779//779 
f 779//779 836//836 858//858 
f 833//833 846//846 803//803 
f 840//840 848//848 818//818 
f 818//818 859//859 860//860 
f 855//855 861//861 818//818 
f 857//857 862//862 818//818 
f 858//858 853//853 779//779 
f 807//807 813//813 757//757 
f 818//818 863//863 859//859 
f 862//862 854//854 818//818 
f 845//845 864//864 803//803 
f 861//861 863//863 818//818 
f 803//803 865//865 866//866 
f 803//803 864//864 867//867 
f 860//860 849//849 818//818 
f 803//803 868//868 865//865 
f 852//852 856//856 779//779 
f 867//867 868//868 803//803 
f 866//866 811//811 803//803 
o mesh4332
v 0.0525 0 0.015 
v 0.0375 0 0.005 
v 0.0380406 0 0.00497069 
v 0.0385749 0 0.0048831 
v 0.0390965 0 0.00473827 
v 0.0369594 0 0.00497069 
v 0.0395994 0 0.00453788 
v 0.0364251 0 0.0048831 
v -0.0325073 0 -0.000270695 
v 0.0325073 0 -0.000270695 
v 0.0325073 0 0.000270695 
v -0.0325659 0 -0.00080891 
v 0.0336892 0 -0.00323693 
v 0.0333616 0 -0.00280594 
v 0.0344741 0 -0.00398047 
v 0.0340615 0 -0.00362998 
v -0.0475 0 0.015 
v -0.0364251 0 0.0048831 
v -0.0359035 0 0.00473827 
v -0.0375 0 0.005 
v -0.0369594 0 0.00497069 
v 0.0354006 0 0.00453788 
v 0.0359035 0 0.00473827 
v -0.0326823 0 0.00133764 
v 0.0340615 0 0.00362998 
v 0.0344741 0 0.00398047 
v -0.0325073 0 0.000270695 
v 0.0325659 0 0.00080891 
v 0.0330824 0 -0.00234204 
v 0.0328551 0 -0.00185069 
v 0.0359035 0 -0.00473827 
v 0.0354006 0 -0.00453788 
v -0.0380406 0 0.00497069 
v 0.0349222 0 0.00428429 
v 0.0336892 0 0.00323693 
v 0.0330824 0 0.00234204 
v 0.0333616 0 0.00280594 
v 0.0525 0 -0.015 
v -0.0336892 0 -0.00323693 
v -0.0340615 0 -0.00362998 
v 0.0326823 0 -0.00133764 
v 0.0325659 0 -0.00080891 
v 0.0349222 0 -0.00428429 
v 0.0364251 0 -0.0048831 
v 0.0375 0 -0.005 
v 0.0369594 0 -0.00497069 
v -0.0354006 0 0.00453788 
v -0.0385749 0 0.0048831 
v -0.0333616 0 -0.00280594 
v -0.0328551 0 -0.00185069 
v -0.0330824 0 -0.00234204 
v 0.0326823 0 0.00133764 
v -0.0325659 0 0.00080891 
v -0.0395994 0 0.00453788 
v -0.0390965 0 0.00473827 
v -0.0409385 0 0.00362998 
v -0.0405259 0 0.00398047 
v -0.0475 0 -0.015 
v -0.0413108 0 -0.00323693 
v -0.0416384 0 -0.00280594 
v -0.0405259 0 -0.00398047 
v -0.0409385 0 -0.00362998 
v 0.0413108 0 -0.00323693 
v 0.0409385 0 -0.00362998 
v 0.0400778 0 0.00428429 
v 0.0405259 0 0.00398047 
v -0.0326823 0 -0.00133764 
v -0.0413108 0 0.00323693 
v -0.0419176 0 0.00234204 
v -0.0416384 0 0.00280594 
v -0.0419176 0 -0.00234204 
v -0.0421449 0 -0.00185069 
v -0.0390965 0 -0.00473827 
v -0.0395994 0 -0.00453788 
v 0.0416384 0 -0.00280594 
v 0.0421449 0 -0.00185069 
v 0.0419176 0 -0.00234204 
v 0.0424927 0 0.000270695 
v 0.0424927 0 -0.000270695 
v -0.0344741 0 -0.00398047 
v -0.0349222 0 -0.00428429 
v 0.0328551 0 0.00185069 
v -0.0340615 0 0.00362998 
v -0.0336892 0 0.00323693 
v -0.0400778 0 0.00428429 
v -0.0424927 0 0.000270695 
v -0.0424341 0 0.00080891 
v -0.0424927 0 -0.000270695 
v -0.0400778 0 -0.00428429 
v -0.0375 0 -0.005 
v -0.0380406 0 -0.00497069 
v 0.0405259 0 -0.00398047 
v 0.0400778 0 -0.00428429 
v 0.0424341 0 -0.00080891 
v 0.0423177 0 -0.00133764 
v 0.0423177 0 0.00133764 
v 0.0424341 0 0.00080891 
v 0.0409385 0 0.00362998 
v 0.0413108 0 0.00323693 
v -0.0359035 0 -0.00473827 
v -0.0354006 0 -0.00453788 
v -0.0330824 0 0.00234204 
v -0.0328551 0 0.00185069 
v -0.0333616 0 0.00280594 
v -0.0349222 0 0.00428429 
v -0.0344741 0 0.00398047 
v -0.0423177 0 -0.00133764 
v -0.0424341 0 -0.00080891 
v -0.0385749 0 -0.0048831 
v 0.0395994 0 -0.00453788 
v 0.0419176 0 0.00234204 
v 0.0421449 0 0.00185069 
v 0.0416384 0 0.00280594 
v -0.0364251 0 -0.0048831 
v -0.0369594 0 -0.00497069 
v -0.0423177 0 0.00133764 
v -0.0421449 0 0.00185069 
v 0.0385749 0 -0.0048831 
v 0.0380406 0 -0.00497069 
v 0.0390965 0 -0.00473827 
vn 0 -1 0 
vn 0 -1 0 
vn 0 -1 0 
vn 0 -1 0 
vn 0 -1 0 
vn 0 -1 0 
vn 0 -1 0 
vn 0 -1 0 
vn 0 -1 0 
vn 0 -1 0 
vn 0 -1 0 
vn 0 -1 0 
vn 0 -1 0 
vn 0 -1 0 
vn 0 -1 0 
vn 0 -1 0 
vn 0 -1 0 
vn 0 -1 0 
vn 0 -1 0 
vn 0 -1 0 
vn 0 -1 0 
vn 0 -1 0 
vn 0 -1 0 
vn 0 -1 0 
vn 0 -1 0 
vn 0 -1 0 
vn 0 -1 0 
vn 0 -1 0 
vn 0 -1 0 
vn 0 -1 0 
vn 0 -1 0 
vn 0 -1 0 
vn 0 -1 0 
vn 0 -1 0 
vn 0 -1 0 
vn 0 -1 0 
vn 0 -1 0 
vn 0 -1 0 
vn 0 -1 0 
vn 0 -1 0 
vn 0 -1 0 
vn 0 -1 0 
vn 0 -1 0 
vn 0 -1 0 
vn 0 -1 0 
vn 0 -1 0 
vn 0 -1 0 
vn 0 -1 0 
vn 0 -1 0 
vn 0 -1 0 
vn 0 -1 0 
vn 0 -1 0 
vn 0 -1 0 
vn 0 -1 0 
vn 0 -1 0 
vn 0 -1 0 
vn 0 -1 0 
vn 0 -1 0 
vn 0 -1 0 
vn 0 -1 0 
vn 0 -1 0 
vn 0 -1 0 
vn 0 -1 0 
vn 0 -1 0 
vn 0 -1 0 
vn 0 -1 0 
vn 0 -1 0 
vn 0 -1 0 
vn 0 -1 0 
vn 0 -1 0 
vn 0 -1 0 
vn 0 -1 0 
vn 0 -1 0 
vn 0 -1 0 
vn 0 -1 0 
vn 0 -1 0 
vn 0 -1 0 
vn 0 -1 0 
vn 0 -1 0 
vn 0 -1 0 
vn 0 -1 0 
vn 0 -1 0 
vn 0 -1 0 
vn 0 -1 0 
vn 0 -1 0 
vn 0 -1 0 
vn 0 -1 0 
vn 0 -1 0 
vn 0 -1 0 
vn 0 -1 0 
vn 0 -1 0 
vn 0 -1 0 
vn 0 -1 0 
vn 0 -1 0 
vn 0 -1 0 
vn 0 -1 0 
vn 0 -1 0 
vn 0 -1 0 
vn 0 -1 0 
vn 0 -1 0 
vn 0 -1 0 
vn 0 -1 0 
vn 0 -1 0 
vn 0 -1 0 
vn 0 -1 0 
vn 0 -1 0 
vn 0 -1 0 
vn 0 -1 0 
vn 0 -1 0 
vn 0 -1 0 
vn 0 -1 0 
vn 0 -1 0 
vn 0 -1 0 
vn 0 -1 0 
vn 0 -1 0 
vn 0 -1 0 
vn 0 -1 0 
vn 0 -1 0 
vn 0 -1 0 
vn 0 -1 0 
f 869//869 870//870 871//871 
f 869//869 872//872 873//873 
f 869//869 874//874 870//870 
f 873//873 875//875 869//869 
f 869//869 876//876 874//874 
f 877//877 878//878 879//879 
f 880//880 881//881 882//882 
f 880//880 883//883 884//884 
f 885//885 886//886 887//887 
f 885//885 888//888 889//889 
f 871//871 872//872 869//869 
f 869//869 890//890 891//891 
f 892//892 893//893 894//894 
f 895//895 879//879 896//896 
f 879//879 895//895 877//877 
f 880//880 897//897 898//898 
f 884//884 881//881 880//880 
f 880//880 899//899 900//900 
f 887//887 869//869 885//885 
f 885//885 901//901 888//888 
f 891//891 876//876 869//869 
f 892//892 902//902 890//890 
f 892//892 903//903 893//893 
f 892//892 904//904 905//905 
f 906//906 907//907 908//908 
f 877//877 880//880 878//878 
f 880//880 909//909 910//910 
f 882//882 897//897 880//880 
f 900//900 911//911 880//880 
f 906//906 912//912 899//899 
f 906//906 913//913 914//914 
f 887//887 915//915 869//869 
f 885//885 916//916 901//901 
f 890//890 869//869 892//892 
f 905//905 903//903 892//892 
f 906//906 917//917 907//907 
f 906//906 918//918 919//919 
f 910//910 878//878 880//880 
f 920//920 892//892 921//921 
f 911//911 883//883 880//880 
f 914//914 912//912 906//906 
f 889//889 886//886 885//885 
f 885//885 922//922 923//923 
f 885//885 924//924 925//925 
f 926//926 927//927 928//928 
f 926//926 929//929 930//930 
f 906//906 931//931 932//932 
f 869//869 933//933 934//934 
f 894//894 902//902 892//892 
f 919//919 917//917 906//906 
f 906//906 880//880 935//935 
f 921//921 895//895 920//920 
f 899//899 880//880 906//906 
f 923//923 916//916 885//885 
f 885//885 936//936 924//924 
f 885//885 937//937 938//938 
f 926//926 939//939 940//940 
f 930//930 927//927 926//926 
f 926//926 941//941 942//942 
f 906//906 943//943 931//931 
f 906//906 944//944 945//945 
f 869//869 946//946 947//947 
f 906//906 948//948 949//949 
f 875//875 933//933 869//869 
f 892//892 920//920 950//950 
f 935//935 918//918 906//906 
f 898//898 909//909 880//880 
f 869//869 951//951 952//952 
f 885//885 953//953 922//922 
f 938//938 936//936 885//885 
f 885//885 954//954 955//955 
f 885//885 926//926 956//956 
f 928//928 939//939 926//926 
f 942//942 957//957 926//926 
f 926//926 958//958 959//959 
f 906//906 960//960 961//961 
f 945//945 943//943 906//906 
f 906//906 962//962 963//963 
f 947//947 906//906 869//869 
f 869//869 964//964 965//965 
f 869//869 966//966 967//967 
f 926//926 906//906 968//968 
f 949//949 969//969 906//906 
f 950//950 904//904 892//892 
f 896//896 920//920 895//895 
f 869//869 970//970 971//971 
f 952//952 972//972 869//869 
f 869//869 973//973 974//974 
f 925//925 953//953 885//885 
f 956//956 954//954 885//885 
f 926//926 975//975 976//976 
f 957//957 929//929 926//926 
f 959//959 977//977 926//926 
f 961//961 978//978 906//906 
f 963//963 944//944 906//906 
f 965//965 946//946 869//869 
f 869//869 979//979 980//980 
f 967//967 981//981 869//869 
f 926//926 982//982 983//983 
f 969//969 968//968 906//906 
f 908//908 948//948 906//906 
f 972//972 970//970 869//869 
f 915//915 973//973 869//869 
f 885//885 984//984 985//985 
f 976//976 956//956 926//926 
f 977//977 941//941 926//926 
f 906//906 986//986 987//987 
f 978//978 988//988 906//906 
f 947//947 962//962 906//906 
f 981//981 979//979 869//869 
f 968//968 982//982 926//926 
f 971//971 892//892 869//869 
f 985//985 937//937 885//885 
f 940//940 975//975 926//926 
f 988//988 986//986 906//906 
f 980//980 964//964 869//869 
f 934//934 966//966 869//869 
f 955//955 984//984 885//885 
f 932//932 960//960 906//906 
f 974//974 951//951 869//869 
f 983//983 958//958 926//926 
f 987//987 913//913 906//906 
o mesh4333
v 0.0375 0.005 -0.01 
v 0.0364188 0.005 -0.00994138 
v 0.0369594 0 -0.00497069 
v 0.0353503 0.005 -0.00976621 
v 0.0364251 0 -0.0048831 
v 0.034307 0.005 -0.00947653 
v 0.0359035 0 -0.00473827 
v 0.0333011 0.005 -0.00907575 
v 0.0354006 0 -0.00453788 
v 0.0323445 0.005 -0.00856857 
v 0.0349222 0 -0.00428429 
v 0.0314483 0.005 -0.00796093 
v 0.0344741 0 -0.00398047 
v 0.030623 0.005 -0.00725995 
v 0.0340615 0 -0.00362998 
v 0.0298784 0.005 -0.00647386 
v 0.0336892 0 -0.00323693 
v 0.0292231 0.005 -0.00561187 
v 0.0333616 0 -0.00280594 
v 0.0286649 0.005 -0.00468408 
v 0.0330824 0 -0.00234204 
v 0.0282102 0.005 -0.00370138 
v 0.0328551 0 -0.00185069 
v 0.0278645 0.005 -0.00267528 
v 0.0326823 0 -0.00133764 
v 0.0276317 0.005 -0.00161782 
v 0.0325659 0 -0.00080891 
v 0.0275147 0.005 -0.000541389 
v 0.0325073 0 -0.000270695 
v 0.0275147 0.005 0.000541389 
v 0.0325073 0 0.000270695 
v 0.0276317 0.005 0.00161782 
v 0.0325659 0 0.00080891 
v 0.0278645 0.005 0.00267528 
v 0.0326823 0 0.00133764 
v 0.0282102 0.005 0.00370138 
v 0.0328551 0 0.00185069 
v 0.0286649 0.005 0.00468408 
v 0.0330824 0 0.00234204 
v 0.0292231 0.005 0.00561187 
v 0.0333616 0 0.00280594 
v 0.0298784 0.005 0.00647386 
v 0.0336892 0 0.00323693 
v 0.030623 0.005 0.00725995 
v 0.0340615 0 0.00362998 
v 0.0314483 0.005 0.00796093 
v 0.0344741 0 0.00398047 
v 0.0323445 0.005 0.00856857 
v 0.0349222 0 0.00428429 
v 0.0333011 0.005 0.00907575 
v 0.0354006 0 0.00453788 
v 0.034307 0.005 0.00947653 
v 0.0359035 0 0.00473827 
v 0.0353503 0.005 0.00976621 
v 0.0364251 0 0.0048831 
v 0.0364188 0.005 0.00994138 
v 0.0369594 0 0.00497069 
v 0.0375 0.005 0.01 
v 0.0375 0 0.005 
v 0.0385812 0.005 0.00994138 
v 0.0380406 0 0.00497069 
v 0.0396497 0.005 0.00976621 
v 0.0385749 0 0.0048831 
v 0.040693 0.005 0.00947653 
v 0.0390965 0 0.00473827 
v 0.0416989 0.005 0.00907575 
v 0.0395994 0 0.00453788 
v 0.0426555 0.005 0.00856857 
v 0.0400778 0 0.00428429 
v 0.0435517 0.005 0.00796093 
v 0.0405259 0 0.00398047 
v 0.044377 0.005 0.00725995 
v 0.0409385 0 0.00362998 
v 0.0451216 0.005 0.00647386 
v 0.0413108 0 0.00323693 
v 0.0457769 0.005 0.00561187 
v 0.0416384 0 0.00280594 
v 0.0463351 0.005 0.00468408 
v 0.0419176 0 0.00234204 
v 0.0467898 0.005 0.00370138 
v 0.0421449 0 0.00185069 
v 0.0471355 0.005 0.00267528 
v 0.0423177 0 0.00133764 
v 0.0473683 0.005 0.00161782 
v 0.0424341 0 0.00080891 
v 0.0474853 0.005 0.000541389 
v 0.0424927 0 0.000270695 
v 0.0475 0.005 0 
v 0.0474853 0.005 -0.000541389 
v 0.0424927 0 -0.000270695 
v 0.0473683 0.005 -0.00161782 
v 0.0424341 0 -0.00080891 
v 0.0471355 0.005 -0.00267528 
v 0.0423177 0 -0.00133764 
v 0.0467898 0.005 -0.00370138 
v 0.0421449 0 -0.00185069 
v 0.0463351 0.005 -0.00468408 
v 0.0419176 0 -0.00234204 
v 0.0457769 0.005 -0.00561187 
v 0.0416384 0 -0.00280594 
v 0.0451216 0.005 -0.00647386 
v 0.0413108 0 -0.00323693 
v 0.044377 0.005 -0.00725995 
v 0.0409385 0 -0.00362998 
v 0.0435517 0.005 -0.00796093 
v 0.0405259 0 -0.00398047 
v 0.0426555 0.005 -0.00856857 
v 0.0400778 0 -0.00428429 
v 0.0416989 0.005 -0.00907575 
v 0.0395994 0 -0.00453788 
v 0.040693 0.005 -0.00947653 
v 0.0390965 0 -0.00473827 
v 0.0396497 0.005 -0.00976621 
v 0.0385749 0 -0.0048831 
v 0.0385812 0.005 -0.00994138 
v 0.0380406 0 -0.00497069 
v 0.0375 0 -0.005 
vn 0 0.707107 0.707107 
vn 0.0764517 0.707107 0.702962 
vn 0.0764517 0.707107 0.702962 
vn 0.152007 0.707107 0.690575 
vn 0.152007 0.707107 0.690575 
vn 0.22578 0.707107 0.670092 
vn 0.22578 0.707107 0.670092 
vn 0.296906 0.707107 0.641753 
vn 0.296906 0.707107 0.641753 
vn 0.364552 0.707107 0.60589 
vn 0.364552 0.707107 0.60589 
vn 0.427923 0.707107 0.562923 
vn 0.427923 0.707107 0.562923 
vn 0.486277 0.707107 0.513356 
vn 0.486277 0.707107 0.513356 
vn 0.53893 0.707107 0.457771 
vn 0.53893 0.707107 0.457771 
vn 0.585265 0.707107 0.396819 
vn 0.585265 0.707107 0.396819 
vn 0.624737 0.707107 0.331215 
vn 0.624737 0.707107 0.331215 
vn 0.656886 0.707107 0.261727 
vn 0.656886 0.707107 0.261727 
vn 0.681333 0.707107 0.189171 
vn 0.681333 0.707107 0.189171 
vn 0.697792 0.707107 0.114397 
vn 0.697792 0.707107 0.114397 
vn 0.70607 0.707107 0.038282 
vn 0.70607 0.707107 0.038282 
vn 0.70607 0.707107 -0.038282 
vn 0.70607 0.707107 -0.038282 
vn 0.697792 0.707107 -0.114397 
vn 0.697792 0.707107 -0.114397 
vn 0.681333 0.707107 -0.189171 
vn 0.681333 0.707107 -0.189171 
vn 0.656886 0.707107 -0.261727 
vn 0.656886 0.707107 -0.261727 
vn 0.624737 0.707107 -0.331215 
vn 0.624737 0.707107 -0.331215 
vn 0.585265 0.707107 -0.396819 
vn 0.585265 0.707107 -0.396819 
vn 0.53893 0.707107 -0.457771 
vn 0.53893 0.707107 -0.457771 
vn 0.486277 0.707107 -0.513356 
vn 0.486277 0.707107 -0.513356 
vn 0.427923 0.707107 -0.562923 
vn 0.427923 0.707107 -0.562923 
vn 0.364552 0.707107 -0.60589 
vn 0.364552 0.707107 -0.60589 
vn 0.296906 0.707107 -0.641753 
vn 0.296906 0.707107 -0.641753 
vn 0.22578 0.707107 -0.670092 
vn 0.22578 0.707107 -0.670092 
vn 0.152007 0.707107 -0.690575 
vn 0.152007 0.707107 -0.690575 
vn 0.0764517 0.707107 -0.702962 
vn 0.0764517 0.707107 -0.702962 
vn -1.47196e-16 0.707107 -0.707107 
vn -1.47196e-16 0.707107 -0.707107 
vn -0.0764517 0.707107 -0.702962 
vn -0.0764517 0.707107 -0.702962 
vn -0.152007 0.707107 -0.690575 
vn -0.152007 0.707107 -0.690575 
vn -0.22578 0.707107 -0.670092 
vn -0.22578 0.707107 -0.670092 
vn -0.296906 0.707107 -0.641753 
vn -0.296906 0.707107 -0.641753 
vn -0.364552 0.707107 -0.60589 
vn -0.364552 0.707107 -0.60589 
vn -0.427923 0.707107 -0.562923 
vn -0.427923 0.707107 -0.562923 
vn -0.486277 0.707107 -0.513356 
vn -0.486277 0.707107 -0.513356 
vn -0.53893 0.707107 -0.457771 
vn -0.53893 0.707107 -0.457771 
vn -0.585265 0.707107 -0.396819 
vn -0.585265 0.707107 -0.396819 
vn -0.624737 0.707107 -0.331215 
vn -0.624737 0.707107 -0.331215 
vn -0.656886 0.707107 -0.261727 
vn -0.656886 0.707107 -0.261727 
vn -0.681333 0.707107 -0.189171 
vn -0.681333 0.707107 -0.189171 
vn -0.697792 0.707107 -0.114397 
vn -0.697792 0.707107 -0.114397 
vn -0.70607 0.707107 -0.038282 
vn -0.70607 0.707107 -0.038282 
vn -0.707107 0.707107 -3.03085e-16 
vn -0.70607 0.707107 0.038282 
vn -0.70607 0.707107 0.038282 
vn -0.697792 0.707107 0.114397 
vn -0.697792 0.707107 0.114397 
vn -0.681333 0.707107 0.189171 
vn -0.681333 0.707107 0.189171 
vn -0.656886 0.707107 0.261727 
vn -0.656886 0.707107 0.261727 
vn -0.624737 0.707107 0.331215 
vn -0.624737 0.707107 0.331215 
vn -0.585265 0.707107 0.396819 
vn -0.585265 0.707107 0.396819 
vn -0.53893 0.707107 0.457771 
vn -0.53893 0.707107 0.457771 
vn -0.486277 0.707107 0.513356 
vn -0.486277 0.707107 0.513356 
vn -0.427923 0.707107 0.562923 
vn -0.427923 0.707107 0.562923 
vn -0.364552 0.707107 0.60589 
vn -0.364552 0.707107 0.60589 
vn -0.296906 0.707107 0.641753 
vn -0.296906 0.707107 0.641753 
vn -0.22578 0.707107 0.670092 
vn -0.22578 0.707107 0.670092 
vn -0.152007 0.707107 0.690575 
vn -0.152007 0.707107 0.690575 
vn -0.0764517 0.707107 0.702962 
vn -0.0764517 0.707107 0.702962 
vn 0 0.707107 0.707107 
f 989//989 990//990 991//991 
f 990//990 992//992 993//993 
f 992//992 994//994 995//995 
f 994//994 996//996 997//997 
f 996//996 998//998 999//999 
f 998//998 1000//1000 1001//1001 
f 1000//1000 1002//1002 1003//1003 
f 1002//1002 1004//1004 1005//1005 
f 1004//1004 1006//1006 1007//1007 
f 1006//1006 1008//1008 1009//1009 
f 1008//1008 1010//1010 1011//1011 
f 1010//1010 1012//1012 1013//1013 
f 1012//1012 1014//1014 1015//1015 
f 1014//1014 1016//1016 1017//1017 
f 1016//1016 1018//1018 1019//1019 
f 1018//1018 1020//1020 1021//1021 
f 1020//1020 1022//1022 1023//1023 
f 1022//1022 1024//1024 1025//1025 
f 1024//1024 1026//1026 1027//1027 
f 1026//1026 1028//1028 1029//1029 
f 1028//1028 1030//1030 1031//1031 
f 1030//1030 1032//1032 1033//1033 
f 1032//1032 1034//1034 1035//1035 
f 1034//1034 1036//1036 1037//1037 
f 1036//1036 1038//1038 1039//1039 
f 1038//1038 1040//1040 1041//1041 
f 1040//1040 1042//1042 1043//1043 
f 1042//1042 1044//1044 1045//1045 
f 1044//1044 1046//1046 1047//1047 
f 1046//1046 1048//1048 1049//1049 
f 1048//1048 1050//1050 1051//1051 
f 1050//1050 1052//1052 1053//1053 
f 1052//1052 1054//1054 1055//1055 
f 1054//1054 1056//1056 1057//1057 
f 1056//1056 1058//1058 1059//1059 
f 1058//1058 1060//1060 1061//1061 
f 1060//1060 1062//1062 1063//1063 
f 1062//1062 1064//1064 1065//1065 
f 1064//1064 1066//1066 1067//1067 
f 1066//1066 1068//1068 1069//1069 
f 1068//1068 1070//1070 1071//1071 
f 1070//1070 1072//1072 1073//1073 
f 1072//1072 1074//1074 1075//1075 
f 1076//1076 1077//1077 1078//1078 
f 1075//1075 1074//1074 1076//1076 
f 1077//1077 1079//1079 1080//1080 
f 1079//1079 1081//1081 1082//1082 
f 1081//1081 1083//1083 1084//1084 
f 1083//1083 1085//1085 1086//1086 
f 1085//1085 1087//1087 1088//1088 
f 1087//1087 1089//1089 1090//1090 
f 1089//1089 1091//1091 1092//1092 
f 1091//1091 1093//1093 1094//1094 
f 1093//1093 1095//1095 1096//1096 
f 1095//1095 1097//1097 1098//1098 
f 1097//1097 1099//1099 1100//1100 
f 1099//1099 1101//1101 1102//1102 
f 1101//1101 1103//1103 1104//1104 
f 1103//1103 989//989 1105//1105 
f 1105//1105 1104//1104 1103//1103 
f 1104//1104 1102//1102 1101//1101 
f 1102//1102 1100//1100 1099//1099 
f 1100//1100 1098//1098 1097//1097 
f 1098//1098 1096//1096 1095//1095 
f 1096//1096 1094//1094 1093//1093 
f 1094//1094 1092//1092 1091//1091 
f 1092//1092 1090//1090 1089//1089 
f 1090//1090 1088//1088 1087//1087 
f 1088//1088 1086//1086 1085//1085 
f 1086//1086 1084//1084 1083//1083 
f 1084//1084 1082//1082 1081//1081 
f 1082//1082 1080//1080 1079//1079 
f 1080//1080 1078//1078 1077//1077 
f 1078//1078 1075//1075 1076//1076 
f 1075//1075 1073//1073 1072//1072 
f 1073//1073 1071//1071 1070//1070 
f 1071//1071 1069//1069 1068//1068 
f 1069//1069 1067//1067 1066//1066 
f 1067//1067 1065//1065 1064//1064 
f 1065//1065 1063//1063 1062//1062 
f 1063//1063 1061//1061 1060//1060 
f 1061//1061 1059//1059 1058//1058 
f 1059//1059 1057//1057 1056//1056 
f 1057//1057 1055//1055 1054//1054 
f 1055//1055 1053//1053 1052//1052 
f 1053//1053 1051//1051 1050//1050 
f 1051//1051 1049//1049 1048//1048 
f 1049//1049 1047//1047 1046//1046 
f 1047//1047 1045//1045 1044//1044 
f 1045//1045 1043//1043 1042//1042 
f 1043//1043 1041//1041 1040//1040 
f 1041//1041 1039//1039 1038//1038 
f 1039//1039 1037//1037 1036//1036 
f 1037//1037 1035//1035 1034//1034 
f 1035//1035 1033//1033 1032//1032 
f 1033//1033 1031//1031 1030//1030 
f 1031//1031 1029//1029 1028//1028 
f 1029//1029 1027//1027 1026//1026 
f 1027//1027 1025//1025 1024//1024 
f 1025//1025 1023//1023 1022//1022 
f 1023//1023 1021//1021 1020//1020 
f 1021//1021 1019//1019 1018//1018 
f 1019//1019 1017//1017 1016//1016 
f 1017//1017 1015//1015 1014//1014 
f 1015//1015 1013//1013 1012//1012 
f 1013//1013 1011//1011 1010//1010 
f 1011//1011 1009//1009 1008//1008 
f 1009//1009 1007//1007 1006//1006 
f 1007//1007 1005//1005 1004//1004 
f 1005//1005 1003//1003 1002//1002 
f 1003//1003 1001//1001 1000//1000 
f 1001//1001 999//999 998//998 
f 999//999 997//997 996//996 
f 997//997 995//995 994//994 
f 995//995 993//993 992//992 
f 993//993 991//991 990//990 
f 991//991 1105//1105 989//989 
o mesh4334
v -0.0375 0.005 -0.01 
v -0.0385812 0.005 -0.00994138 
v -0.0380406 0 -0.00497069 
v -0.0396497 0.005 -0.00976621 
v -0.0385749 0 -0.0048831 
v -0.040693 0.005 -0.00947653 
v -0.0390965 0 -0.00473827 
v -0.0416989 0.005 -0.00907575 
v -0.0395994 0 -0.00453788 
v -0.0426555 0.005 -0.00856857 
v -0.0400778 0 -0.00428429 
v -0.0435517 0.005 -0.00796093 
v -0.0405259 0 -0.00398047 
v -0.044377 0.005 -0.00725995 
v -0.0409385 0 -0.00362998 
v -0.0451216 0.005 -0.00647386 
v -0.0413108 0 -0.00323693 
v -0.0457769 0.005 -0.00561187 
v -0.0416384 0 -0.00280594 
v -0.0463351 0.005 -0.00468408 
v -0.0419176 0 -0.00234204 
v -0.0467898 0.005 -0.00370138 
v -0.0421449 0 -0.00185069 
v -0.0471355 0.005 -0.00267528 
v -0.0423177 0 -0.00133764 
v -0.0473683 0.005 -0.00161782 
v -0.0424341 0 -0.00080891 
v -0.0474853 0.005 -0.000541389 
v -0.0424927 0 -0.000270695 
v -0.0475 0.005 0 
v -0.0474853 0.005 0.000541389 
v -0.0424927 0 0.000270695 
v -0.0473683 0.005 0.00161782 
v -0.0424341 0 0.00080891 
v -0.0471355 0.005 0.00267528 
v -0.0423177 0 0.00133764 
v -0.0467898 0.005 0.00370138 
v -0.0421449 0 0.00185069 
v -0.0463351 0.005 0.00468408 
v -0.0419176 0 0.00234204 
v -0.0457769 0.005 0.00561187 
v -0.0416384 0 0.00280594 
v -0.0451216 0.005 0.00647386 
v -0.0413108 0 0.00323693 
v -0.044377 0.005 0.00725995 
v -0.0409385 0 0.00362998 
v -0.0435517 0.005 0.00796093 
v -0.0405259 0 0.00398047 
v -0.0426555 0.005 0.00856857 
v -0.0400778 0 0.00428429 
v -0.0416989 0.005 0.00907575 
v -0.0395994 0 0.00453788 
v -0.040693 0.005 0.00947653 
v -0.0390965 0 0.00473827 
v -0.0396497 0.005 0.00976621 
v -0.0385749 0 0.0048831 
v -0.0385812 0.005 0.00994138 
v -0.0380406 0 0.00497069 
v -0.0375 0.005 0.01 
v -0.0375 0 0.005 
v -0.0364188 0.005 0.00994138 
v -0.0369594 0 0.00497069 
v -0.0353503 0.005 0.00976621 
v -0.0364251 0 0.0048831 
v -0.034307 0.005 0.00947653 
v -0.0359035 0 0.00473827 
v -0.0333011 0.005 0.00907575 
v -0.0354006 0 0.00453788 
v -0.0323445 0.005 0.00856857 
v -0.0349222 0 0.00428429 
v -0.0314483 0.005 0.00796093 
v -0.0344741 0 0.00398047 
v -0.030623 0.005 0.00725995 
v -0.0340615 0 0.00362998 
v -0.0298784 0.005 0.00647386 
v -0.0336892 0 0.00323693 
v -0.0292231 0.005 0.00561187 
v -0.0333616 0 0.00280594 
v -0.0286649 0.005 0.00468408 
v -0.0330824 0 0.00234204 
v -0.0282102 0.005 0.00370138 
v -0.0328551 0 0.00185069 
v -0.0278645 0.005 0.00267528 
v -0.0326823 0 0.00133764 
v -0.0276317 0.005 0.00161782 
v -0.0325659 0 0.00080891 
v -0.0275147 0.005 0.000541389 
v -0.0325073 0 0.000270695 
v -0.0275147 0.005 -0.000541389 
v -0.0325073 0 -0.000270695 
v -0.0276317 0.005 -0.00161782 
v -0.0325659 0 -0.00080891 
v -0.0278645 0.005 -0.00267528 
v -0.0326823 0 -0.00133764 
v -0.0282102 0.005 -0.00370138 
v -0.0328551 0 -0.00185069 
v -0.0286649 0.005 -0.00468408 
v -0.0330824 0 -0.00234204 
v -0.0292231 0.005 -0.00561187 
v -0.0333616 0 -0.00280594 
v -0.0298784 0.005 -0.00647386 
v -0.0336892 0 -0.00323693 
v -0.030623 0.005 -0.00725995 
v -0.0340615 0 -0.00362998 
v -0.0314483 0.005 -0.00796093 
v -0.0344741 0 -0.00398047 
v -0.0323445 0.005 -0.00856857 
v -0.0349222 0 -0.00428429 
v -0.0333011 0.005 -0.00907575 
v -0.0354006 0 -0.00453788 
v -0.034307 0.005 -0.00947653 
v -0.0359035 0 -0.00473827 
v -0.0353503 0.005 -0.00976621 
v -0.0364251 0 -0.0048831 
v -0.0364188 0.005 -0.00994138 
v -0.0369594 0 -0.00497069 
v -0.0375 0 -0.005 
vn 0 0.707107 0.707107 
vn 0.0764517 0.707107 0.702962 
vn 0.0764517 0.707107 0.702962 
vn 0.152007 0.707107 0.690575 
vn 0.152007 0.707107 0.690575 
vn 0.22578 0.707107 0.670092 
vn 0.22578 0.707107 0.670092 
vn 0.296906 0.707107 0.641753 
vn 0.296906 0.707107 0.641753 
vn 0.364552 0.707107 0.60589 
vn 0.364552 0.707107 0.60589 
vn 0.427923 0.707107 0.562923 
vn 0.427923 0.707107 0.562923 
vn 0.486277 0.707107 0.513356 
vn 0.486277 0.707107 0.513356 
vn 0.53893 0.707107 0.457771 
vn 0.53893 0.707107 0.457771 
vn 0.585265 0.707107 0.396819 
vn 0.585265 0.707107 0.396819 
vn 0.624737 0.707107 0.331215 
vn 0.624737 0.707107 0.331215 
vn 0.656886 0.707107 0.261727 
vn 0.656886 0.707107 0.261727 
vn 0.681333 0.707107 0.189171 
vn 0.681333 0.707107 0.189171 
vn 0.697792 0.707107 0.114397 
vn 0.697792 0.707107 0.114397 
vn 0.70607 0.707107 0.038282 
vn 0.70607 0.707107 0.038282 
vn 0.707107 0.707107 2.16489e-16 
vn 0.70607 0.707107 -0.038282 
vn 0.70607 0.707107 -0.038282 
vn 0.697792 0.707107 -0.114397 
vn 0.697792 0.707107 -0.114397 
vn 0.681333 0.707107 -0.189171 
vn 0.681333 0.707107 -0.189171 
vn 0.656886 0.707107 -0.261727 
vn 0.656886 0.707107 -0.261727 
vn 0.624737 0.707107 -0.331215 
vn 0.624737 0.707107 -0.331215 
vn 0.585265 0.707107 -0.396819 
vn 0.585265 0.707107 -0.396819 
vn 0.53893 0.707107 -0.457771 
vn 0.53893 0.707107 -0.457771 
vn 0.486277 0.707107 -0.513356 
vn 0.486277 0.707107 -0.513356 
vn 0.427923 0.707107 -0.562923 
vn 0.427923 0.707107 -0.562923 
vn 0.364552 0.707107 -0.60589 
vn 0.364552 0.707107 -0.60589 
vn 0.296906 0.707107 -0.641753 
vn 0.296906 0.707107 -0.641753 
vn 0.22578 0.707107 -0.670092 
vn 0.22578 0.707107 -0.670092 
vn 0.152007 0.707107 -0.690575 
vn 0.152007 0.707107 -0.690575 
vn 0.0764517 0.707107 -0.702962 
vn 0.0764517 0.707107 -0.702962 
vn -1.47196e-16 0.707107 -0.707107 
vn -1.47196e-16 0.707107 -0.707107 
vn -0.0764517 0.707107 -0.702962 
vn -0.0764517 0.707107 -0.702962 
vn -0.152007 0.707107 -0.690575 
vn -0.152007 0.707107 -0.690575 
vn -0.22578 0.707107 -0.670092 
vn -0.22578 0.707107 -0.670092 
vn -0.296906 0.707107 -0.641753 
vn -0.296906 0.707107 -0.641753 
vn -0.364552 0.707107 -0.60589 
vn -0.364552 0.707107 -0.60589 
vn -0.427923 0.707107 -0.562923 
vn -0.427923 0.707107 -0.562923 
vn -0.486277 0.707107 -0.513356 
vn -0.486277 0.707107 -0.513356 
vn -0.53893 0.707107 -0.457771 
vn -0.53893 0.707107 -0.457771 
vn -0.585265 0.707107 -0.396819 
vn -0.585265 0.707107 -0.396819 
vn -0.624737 0.707107 -0.331215 
vn -0.624737 0.707107 -0.331215 
vn -0.656886 0.707107 -0.261727 
vn -0.656886 0.707107 -0.261727 
vn -0.681333 0.707107 -0.189171 
vn -0.681333 0.707107 -0.189171 
vn -0.697792 0.707107 -0.114397 
vn -0.697792 0.707107 -0.114397 
vn -0.70607 0.707107 -0.038282 
vn -0.70607 0.707107 -0.038282 
vn -0.70607 0.707107 0.038282 
vn -0.70607 0.707107 0.038282 
vn -0.697792 0.707107 0.114397 
vn -0.697792 0.707107 0.114397 
vn -0.681333 0.707107 0.189171 
vn -0.681333 0.707107 0.189171 
vn -0.656886 0.707107 0.261727 
vn -0.656886 0.707107 0.261727 
vn -0.624737 0.707107 0.331215 
vn -0.624737 0.707107 0.331215 
vn -0.585265 0.707107 0.396819 
vn -0.585265 0.707107 0.396819 
vn -0.53893 0.707107 0.457771 
vn -0.53893 0.707107 0.457771 
vn -0.486277 0.707107 0.513356 
vn -0.486277 0.707107 0.513356 
vn -0.427923 0.707107 0.562923 
vn -0.427923 0.707107 0.562923 
vn -0.364552 0.707107 0.60589 
vn -0.364552 0.707107 0.60589 
vn -0.296906 0.707107 0.641753 
vn -0.296906 0.707107 0.641753 
vn -0.22578 0.707107 0.670092 
vn -0.22578 0.707107 0.670092 
vn -0.152007 0.707107 0.690575 
vn -0.152007 0.707107 0.690575 
vn -0.0764517 0.707107 0.702962 
vn -0.0764517 0.707107 0.702962 
vn 0 0.707107 0.707107 
f 1106//1106 1107//1107 1108//1108 
f 1107//1107 1109//1109 1110//1110 
f 1109//1109 1111//1111 1112//1112 
f 1111//1111 1113//1113 1114//1114 
f 1113//1113 1115//1115 1116//1116 
f 1115//1115 1117//1117 1118//1118 
f 1117//1117 1119//1119 1120//1120 
f 1119//1119 1121//1121 1122//1122 
f 1121//1121 1123//1123 1124//1124 
f 1123//1123 1125//1125 1126//1126 
f 1125//1125 1127//1127 1128//1128 
f 1127//1127 1129//1129 1130//1130 
f 1129//1129 1131//1131 1132//1132 
f 1131//1131 1133//1133 1134//1134 
f 1135//1135 1136//1136 1137//1137 
f 1134//1134 1133//1133 1135//1135 
f 1136//1136 1138//1138 1139//1139 
f 1138//1138 1140//1140 1141//1141 
f 1140//1140 1142//1142 1143//1143 
f 1142//1142 1144//1144 1145//1145 
f 1144//1144 1146//1146 1147//1147 
f 1146//1146 1148//1148 1149//1149 
f 1148//1148 1150//1150 1151//1151 
f 1150//1150 1152//1152 1153//1153 
f 1152//1152 1154//1154 1155//1155 
f 1154//1154 1156//1156 1157//1157 
f 1156//1156 1158//1158 1159//1159 
f 1158//1158 1160//1160 1161//1161 
f 1160//1160 1162//1162 1163//1163 
f 1162//1162 1164//1164 1165//1165 
f 1164//1164 1166//1166 1167//1167 
f 1166//1166 1168//1168 1169//1169 
f 1168//1168 1170//1170 1171//1171 
f 1170//1170 1172//1172 1173//1173 
f 1172//1172 1174//1174 1175//1175 
f 1174//1174 1176//1176 1177//1177 
f 1176//1176 1178//1178 1179//1179 
f 1178//1178 1180//1180 1181//1181 
f 1180//1180 1182//1182 1183//1183 
f 1182//1182 1184//1184 1185//1185 
f 1184//1184 1186//1186 1187//1187 
f 1186//1186 1188//1188 1189//1189 
f 1188//1188 1190//1190 1191//1191 
f 1190//1190 1192//1192 1193//1193 
f 1192//1192 1194//1194 1195//1195 
f 1194//1194 1196//1196 1197//1197 
f 1196//1196 1198//1198 1199//1199 
f 1198//1198 1200//1200 1201//1201 
f 1200//1200 1202//1202 1203//1203 
f 1202//1202 1204//1204 1205//1205 
f 1204//1204 1206//1206 1207//1207 
f 1206//1206 1208//1208 1209//1209 
f 1208//1208 1210//1210 1211//1211 
f 1210//1210 1212//1212 1213//1213 
f 1212//1212 1214//1214 1215//1215 
f 1214//1214 1216//1216 1217//1217 
f 1216//1216 1218//1218 1219//1219 
f 1218//1218 1220//1220 1221//1221 
f 1220//1220 1106//1106 1222//1222 
f 1222//1222 1221//1221 1220//1220 
f 1221//1221 1219//1219 1218//1218 
f 1219//1219 1217//1217 1216//1216 
f 1217//1217 1215//1215 1214//1214 
f 1215//1215 1213//1213 1212//1212 
f 1213//1213 1211//1211 1210//1210 
f 1211//1211 1209//1209 1208//1208 
f 1209//1209 1207//1207 1206//1206 
f 1207//1207 1205//1205 1204//1204 
f 1205//1205 1203//1203 1202//1202 
f 1203//1203 1201//1201 1200//1200 
f 1201//1201 1199//1199 1198//1198 
f 1199//1199 1197//1197 1196//1196 
f 1197//1197 1195//1195 1194//1194 
f 1195//1195 1193//1193 1192//1192 
f 1193//1193 1191//1191 1190//1190 
f 1191//1191 1189//1189 1188//1188 
f 1189//1189 1187//1187 1186//1186 
f 1187//1187 1185//1185 1184//1184 
f 1185//1185 1183//1183 1182//1182 
f 1183//1183 1181//1181 1180//1180 
f 1181//1181 1179//1179 1178//1178 
f 1179//1179 1177//1177 1176//1176 
f 1177//1177 1175//1175 1174//1174 
f 1175//1175 1173//1173 1172//1172 
f 1173//1173 1171//1171 1170//1170 
f 1171//1171 1169//1169 1168//1168 
f 1169//1169 1167//1167 1166//1166 
f 1167//1167 1165//1165 1164//1164 
f 1165//1165 1163//1163 1162//1162 
f 1163//1163 1161//1161 1160//1160 
f 1161//1161 1159//1159 1158//1158 
f 1159//1159 1157//1157 1156//1156 
f 1157//1157 1155//1155 1154//1154 
f 1155//1155 1153//1153 1152//1152 
f 1153//1153 1151//1151 1150//1150 
f 1151//1151 1149//1149 1148//1148 
f 1149//1149 1147//1147 1146//1146 
f 1147//1147 1145//1145 1144//1144 
f 1145//1145 1143//1143 1142//1142 
f 1143//1143 1141//1141 1140//1140 
f 1141//1141 1139//1139 1138//1138 
f 1139//1139 1137//1137 1136//1136 
f 1137//1137 1134//1134 1135//1135 
f 1134//1134 1132//1132 1131//1131 
f 1132//1132 1130//1130 1129//1129 
f 1130//1130 1128//1128 1127//1127 
f 1128//1128 1126//1126 1125//1125 
f 1126//1126 1124//1124 1123//1123 
f 1124//1124 1122//1122 1121//1121 
f 1122//1122 1120//1120 1119//1119 
f 1120//1120 1118//1118 1117//1117 
f 1118//1118 1116//1116 1115//1115 
f 1116//1116 1114//1114 1113//1113 
f 1114//1114 1112//1112 1111//1111 
f 1112//1112 1110//1110 1109//1109 
f 1110//1110 1108//1108 1107//1107 
f 1108//1108 1222//1222 1106//1106 
