# OBJ generated by ONSHAPE BY PTC INC, 1.215 Units = meters
mtllib Exc_Roller_V4.mtl
g Exc_Roller_V4
usemtl 0.501961_0.501961_1.000000_0.000000_0.000000
o mesh28027
v 0 0 0.04 
v 0.29 -9.79706e-18 0.0399995 
v 0.29 0.00432471 0.039765 
v 0 0.00432476 0.0397655 
v 0.29 0.00859872 0.0390644 
v 0 0.00859882 0.0390648 
v 0.29 0.0127719 0.0379057 
v 0 0.0127721 0.0379061 
v 0.29 0.0167954 0.0363026 
v 0 0.0167956 0.036303 
v 0.29 0.0206219 0.0342739 
v 0 0.0206222 0.0342743 
v 0.29 0.0242067 0.0318433 
v 0 0.024207 0.0318437 
v 0.29 0.0275077 0.0290395 
v 0 0.027508 0.0290398 
v 0.29 0.0304861 0.0258951 
v 0 0.0304865 0.0258955 
v 0.29 0.0331072 0.0224472 
v 0 0.0331076 0.0224475 
v 0.29 0.0353401 0.0187361 
v 0 0.0353405 0.0187363 
v 0.29 0.0371586 0.0148054 
v 0 0.0371591 0.0148055 
v 0.29 0.0385415 0.010701 
v 0 0.038542 0.0107011 
v 0.29 0.0394726 0.0064712 
v 0 0.0394731 0.00647128 
v 0.29 0.0399409 0.00216553 
v 0 0.0399413 0.00216556 
v 0.29 0.0399409 -0.00216553 
v 0 0.0399413 -0.00216556 
v 0.29 0.0394726 -0.0064712 
v 0 0.0394731 -0.00647128 
v 0.29 0.0385415 -0.010701 
v 0 0.038542 -0.0107011 
v 0.29 0.0371586 -0.0148054 
v 0 0.0371591 -0.0148055 
v 0.29 0.0353401 -0.0187361 
v 0 0.0353405 -0.0187363 
v 0.29 0.0331072 -0.0224472 
v 0 0.0331076 -0.0224475 
v 0.29 0.0304861 -0.0258951 
v 0 0.0304865 -0.0258955 
v 0.29 0.0275077 -0.0290395 
v 0 0.027508 -0.0290398 
v 0.29 0.0242067 -0.0318433 
v 0 0.024207 -0.0318437 
v 0.29 0.0206219 -0.0342739 
v 0 0.0206222 -0.0342743 
v 0.29 0.0167954 -0.0363026 
v 0 0.0167956 -0.036303 
v 0.29 0.0127719 -0.0379057 
v 0 0.0127721 -0.0379061 
v 0.29 0.00859872 -0.0390644 
v 0 0.00859882 -0.0390648 
v 0.29 0.00432471 -0.039765 
v 0 0.00432476 -0.0397655 
v 0.29 -3.06282e-17 -0.0399995 
v 0 -3.06285e-17 -0.04 
v 0.29 -0.00432471 -0.039765 
v 0 -0.00432476 -0.0397655 
v 0.29 -0.00859872 -0.0390644 
v 0 -0.00859882 -0.0390648 
v 0.29 -0.0127719 -0.0379057 
v 0 -0.0127721 -0.0379061 
v 0.29 -0.0167954 -0.0363026 
v 0 -0.0167956 -0.036303 
v 0.29 -0.0206219 -0.0342739 
v 0 -0.0206222 -0.0342743 
v 0.29 -0.0242067 -0.0318433 
v 0 -0.024207 -0.0318437 
v 0.29 -0.0275077 -0.0290395 
v 0 -0.027508 -0.0290398 
v 0.29 -0.0304861 -0.0258951 
v 0 -0.0304865 -0.0258955 
v 0.29 -0.0331072 -0.0224472 
v 0 -0.0331076 -0.0224475 
v 0.29 -0.0353401 -0.0187361 
v 0 -0.0353405 -0.0187363 
v 0.29 -0.0371586 -0.0148054 
v 0 -0.0371591 -0.0148055 
v 0.29 -0.0385415 -0.010701 
v 0 -0.038542 -0.0107011 
v 0.29 -0.0394726 -0.0064712 
v 0 -0.0394731 -0.00647128 
v 0.29 -0.0399409 -0.00216553 
v 0 -0.0399413 -0.00216556 
v 0.29 -0.0399409 0.00216553 
v 0 -0.0399413 0.00216556 
v 0.29 -0.0394726 0.0064712 
v 0 -0.0394731 0.00647128 
v 0.29 -0.0385415 0.010701 
v 0 -0.038542 0.0107011 
v 0.29 -0.0371586 0.0148054 
v 0 -0.0371591 0.0148055 
v 0.29 -0.0353401 0.0187361 
v 0 -0.0353405 0.0187363 
v 0.29 -0.0331072 0.0224472 
v 0 -0.0331076 0.0224475 
v 0.29 -0.0304861 0.0258951 
v 0 -0.0304865 0.0258955 
v 0.29 -0.0275077 0.0290395 
v 0 -0.027508 0.0290398 
v 0.29 -0.0242067 0.0318433 
v 0 -0.024207 0.0318437 
v 0.29 -0.0206219 0.0342739 
v 0 -0.0206222 0.0342743 
v 0.29 -0.0167954 0.0363026 
v 0 -0.0167956 0.036303 
v 0.29 -0.0127719 0.0379057 
v 0 -0.0127721 0.0379061 
v 0.29 -0.00859872 0.0390644 
v 0 -0.00859882 0.0390648 
v 0.29 -0.00432471 0.039765 
v 0 -0.00432476 0.0397655 
vn 1.62647e-06 0 1 
vn 1.62647e-06 0 1 
vn 1.62647e-06 0.108119 0.994138 
vn 1.62647e-06 0.108119 0.994138 
vn 1.62647e-06 0.21497 0.976621 
vn 1.62647e-06 0.21497 0.976621 
vn 1.62647e-06 0.319302 0.947653 
vn 1.62647e-06 0.319302 0.947653 
vn 1.62647e-06 0.419889 0.907575 
vn 1.62647e-06 0.419889 0.907575 
vn 1.62647e-06 0.515554 0.856857 
vn 1.62647e-06 0.515554 0.856857 
vn 1.62647e-06 0.605174 0.796093 
vn 1.62647e-06 0.605174 0.796093 
vn 1.62647e-06 0.687699 0.725995 
vn 1.62647e-06 0.687699 0.725995 
vn 1.62647e-06 0.762162 0.647386 
vn 1.62647e-06 0.762162 0.647386 
vn 1.62647e-06 0.827689 0.561187 
vn 1.62647e-06 0.827689 0.561187 
vn 1.62647e-06 0.883512 0.468408 
vn 1.62647e-06 0.883512 0.468408 
vn 1.62647e-06 0.928977 0.370138 
vn 1.62647e-06 0.928977 0.370138 
vn 1.62647e-06 0.96355 0.267528 
vn 1.62647e-06 0.96355 0.267528 
vn 1.62647e-06 0.986827 0.161782 
vn 1.62647e-06 0.986827 0.161782 
vn 1.62647e-06 0.998533 0.0541389 
vn 1.62647e-06 0.998533 0.0541389 
vn 1.62647e-06 0.998533 -0.0541389 
vn 1.62647e-06 0.998533 -0.0541389 
vn 1.62647e-06 0.986827 -0.161782 
vn 1.62647e-06 0.986827 -0.161782 
vn 1.62647e-06 0.96355 -0.267528 
vn 1.62647e-06 0.96355 -0.267528 
vn 1.62647e-06 0.928977 -0.370138 
vn 1.62647e-06 0.928977 -0.370138 
vn 1.62647e-06 0.883512 -0.468408 
vn 1.62647e-06 0.883512 -0.468408 
vn 1.62647e-06 0.827689 -0.561187 
vn 1.62647e-06 0.827689 -0.561187 
vn 1.62647e-06 0.762162 -0.647386 
vn 1.62647e-06 0.762162 -0.647386 
vn 1.62647e-06 0.687699 -0.725995 
vn 1.62647e-06 0.687699 -0.725995 
vn 1.62647e-06 0.605174 -0.796093 
vn 1.62647e-06 0.605174 -0.796093 
vn 1.62647e-06 0.515554 -0.856857 
vn 1.62647e-06 0.515554 -0.856857 
vn 1.62647e-06 0.419889 -0.907575 
vn 1.62647e-06 0.419889 -0.907575 
vn 1.62647e-06 0.319302 -0.947653 
vn 1.62647e-06 0.319302 -0.947653 
vn 1.62647e-06 0.21497 -0.976621 
vn 1.62647e-06 0.21497 -0.976621 
vn 1.62647e-06 0.108119 -0.994138 
vn 1.62647e-06 0.108119 -0.994138 
vn 1.62647e-06 -2.08167e-16 -1 
vn 1.62647e-06 -2.08167e-16 -1 
vn 1.62647e-06 -0.108119 -0.994138 
vn 1.62647e-06 -0.108119 -0.994138 
vn 1.62647e-06 -0.21497 -0.976621 
vn 1.62647e-06 -0.21497 -0.976621 
vn 1.62647e-06 -0.319302 -0.947653 
vn 1.62647e-06 -0.319302 -0.947653 
vn 1.62647e-06 -0.419889 -0.907575 
vn 1.62647e-06 -0.419889 -0.907575 
vn 1.62647e-06 -0.515554 -0.856857 
vn 1.62647e-06 -0.515554 -0.856857 
vn 1.62647e-06 -0.605174 -0.796093 
vn 1.62647e-06 -0.605174 -0.796093 
vn 1.62647e-06 -0.687699 -0.725995 
vn 1.62647e-06 -0.687699 -0.725995 
vn 1.62647e-06 -0.762162 -0.647386 
vn 1.62647e-06 -0.762162 -0.647386 
vn 1.62647e-06 -0.827689 -0.561187 
vn 1.62647e-06 -0.827689 -0.561187 
vn 1.62647e-06 -0.883512 -0.468408 
vn 1.62647e-06 -0.883512 -0.468408 
vn 1.62647e-06 -0.928977 -0.370138 
vn 1.62647e-06 -0.928977 -0.370138 
vn 1.62647e-06 -0.96355 -0.267528 
vn 1.62647e-06 -0.96355 -0.267528 
vn 1.62647e-06 -0.986827 -0.161782 
vn 1.62647e-06 -0.986827 -0.161782 
vn 1.62647e-06 -0.998533 -0.0541389 
vn 1.62647e-06 -0.998533 -0.0541389 
vn 1.62647e-06 -0.998533 0.0541389 
vn 1.62647e-06 -0.998533 0.0541389 
vn 1.62647e-06 -0.986827 0.161782 
vn 1.62647e-06 -0.986827 0.161782 
vn 1.62647e-06 -0.96355 0.267528 
vn 1.62647e-06 -0.96355 0.267528 
vn 1.62647e-06 -0.928977 0.370138 
vn 1.62647e-06 -0.928977 0.370138 
vn 1.62647e-06 -0.883512 0.468408 
vn 1.62647e-06 -0.883512 0.468408 
vn 1.62647e-06 -0.827689 0.561187 
vn 1.62647e-06 -0.827689 0.561187 
vn 1.62647e-06 -0.762162 0.647386 
vn 1.62647e-06 -0.762162 0.647386 
vn 1.62647e-06 -0.687699 0.725995 
vn 1.62647e-06 -0.687699 0.725995 
vn 1.62647e-06 -0.605174 0.796093 
vn 1.62647e-06 -0.605174 0.796093 
vn 1.62647e-06 -0.515554 0.856857 
vn 1.62647e-06 -0.515554 0.856857 
vn 1.62647e-06 -0.419889 0.907575 
vn 1.62647e-06 -0.419889 0.907575 
vn 1.62647e-06 -0.319302 0.947653 
vn 1.62647e-06 -0.319302 0.947653 
vn 1.62647e-06 -0.21497 0.976621 
vn 1.62647e-06 -0.21497 0.976621 
vn 1.62647e-06 -0.108119 0.994138 
vn 1.62647e-06 -0.108119 0.994138 
f 1//1 2//2 3//3 
f 4//4 3//3 5//5 
f 6//6 5//5 7//7 
f 8//8 7//7 9//9 
f 10//10 9//9 11//11 
f 12//12 11//11 13//13 
f 14//14 13//13 15//15 
f 16//16 15//15 17//17 
f 18//18 17//17 19//19 
f 20//20 19//19 21//21 
f 22//22 21//21 23//23 
f 24//24 23//23 25//25 
f 26//26 25//25 27//27 
f 28//28 27//27 29//29 
f 30//30 29//29 31//31 
f 32//32 31//31 33//33 
f 34//34 33//33 35//35 
f 36//36 35//35 37//37 
f 38//38 37//37 39//39 
f 40//40 39//39 41//41 
f 42//42 41//41 43//43 
f 44//44 43//43 45//45 
f 46//46 45//45 47//47 
f 48//48 47//47 49//49 
f 50//50 49//49 51//51 
f 52//52 51//51 53//53 
f 54//54 53//53 55//55 
f 56//56 55//55 57//57 
f 58//58 57//57 59//59 
f 60//60 59//59 61//61 
f 62//62 61//61 63//63 
f 64//64 63//63 65//65 
f 66//66 65//65 67//67 
f 68//68 67//67 69//69 
f 70//70 69//69 71//71 
f 72//72 71//71 73//73 
f 74//74 73//73 75//75 
f 76//76 75//75 77//77 
f 78//78 77//77 79//79 
f 80//80 79//79 81//81 
f 82//82 81//81 83//83 
f 84//84 83//83 85//85 
f 86//86 85//85 87//87 
f 88//88 87//87 89//89 
f 90//90 89//89 91//91 
f 92//92 91//91 93//93 
f 94//94 93//93 95//95 
f 96//96 95//95 97//97 
f 98//98 97//97 99//99 
f 100//100 99//99 101//101 
f 102//102 101//101 103//103 
f 104//104 103//103 105//105 
f 106//106 105//105 107//107 
f 108//108 107//107 109//109 
f 110//110 109//109 111//111 
f 112//112 111//111 113//113 
f 114//114 113//113 115//115 
f 116//116 115//115 2//2 
f 2//2 1//1 116//116 
f 115//115 116//116 114//114 
f 113//113 114//114 112//112 
f 111//111 112//112 110//110 
f 109//109 110//110 108//108 
f 107//107 108//108 106//106 
f 105//105 106//106 104//104 
f 103//103 104//104 102//102 
f 101//101 102//102 100//100 
f 99//99 100//100 98//98 
f 97//97 98//98 96//96 
f 95//95 96//96 94//94 
f 93//93 94//94 92//92 
f 91//91 92//92 90//90 
f 89//89 90//90 88//88 
f 87//87 88//88 86//86 
f 85//85 86//86 84//84 
f 83//83 84//84 82//82 
f 81//81 82//82 80//80 
f 79//79 80//80 78//78 
f 77//77 78//78 76//76 
f 75//75 76//76 74//74 
f 73//73 74//74 72//72 
f 71//71 72//72 70//70 
f 69//69 70//70 68//68 
f 67//67 68//68 66//66 
f 65//65 66//66 64//64 
f 63//63 64//64 62//62 
f 61//61 62//62 60//60 
f 59//59 60//60 58//58 
f 57//57 58//58 56//56 
f 55//55 56//56 54//54 
f 53//53 54//54 52//52 
f 51//51 52//52 50//50 
f 49//49 50//50 48//48 
f 47//47 48//48 46//46 
f 45//45 46//46 44//44 
f 43//43 44//44 42//42 
f 41//41 42//42 40//40 
f 39//39 40//40 38//38 
f 37//37 38//38 36//36 
f 35//35 36//36 34//34 
f 33//33 34//34 32//32 
f 31//31 32//32 30//30 
f 29//29 30//30 28//28 
f 27//27 28//28 26//26 
f 25//25 26//26 24//24 
f 23//23 24//24 22//22 
f 21//21 22//22 20//20 
f 19//19 20//20 18//18 
f 17//17 18//18 16//16 
f 15//15 16//16 14//14 
f 13//13 14//14 12//12 
f 11//11 12//12 10//10 
f 9//9 10//10 8//8 
f 7//7 8//8 6//6 
f 5//5 6//6 4//4 
f 3//3 4//4 1//1 
o mesh28028
v 0 0.0038 -0.00219393 
v 0 0.0038 0.00219393 
v 0 0.0399413 0.00216556 
v 0 -0.0206222 -0.0342743 
v 0 -0.0038 -0.00219393 
v 0 9.80372e-19 -0.00438786 
v 0 0.0399413 -0.00216556 
v 0 0.0127721 -0.0379061 
v 0 0.00859882 -0.0390648 
v 0 0.0206222 -0.0342743 
v 0 0.0167956 -0.036303 
v 0 -0.0127721 -0.0379061 
v 0 -0.0167956 -0.036303 
v 0 0.0394731 0.00647128 
v 0 0.00432476 -0.0397655 
v 0 0.027508 -0.0290398 
v 0 0.024207 -0.0318437 
v 0 -0.024207 -0.0318437 
v 0 -0.027508 -0.0290398 
v 0 -0.0038 0.00219393 
v 0 -0.0394731 0.00647128 
v 0 -0.038542 0.0107011 
v 0 -0.0399413 -0.00216556 
v 0 -0.0399413 0.00216556 
v 0 -0.0371591 -0.0148055 
v 0 -0.038542 -0.0107011 
v 0 0.0394731 -0.00647128 
v 0 0.038542 -0.0107011 
v 0 0.038542 0.0107011 
v 0 0.0353405 0.0187363 
v 0 0.0371591 0.0148055 
v 0 0.0304865 -0.0258955 
v 0 -0.0304865 -0.0258955 
v 0 -0.0331076 -0.0224475 
v 0 -0.00432476 -0.0397655 
v 0 -0.00859882 -0.0390648 
v 0 -0.0394731 -0.00647128 
v 0 -0.0353405 -0.0187363 
v 0 0.027508 0.0290398 
v 0 0.0304865 0.0258955 
v 0 0.0206222 0.0342743 
v 0 0.024207 0.0318437 
v 0 1.51788e-18 0.00438786 
v 0 0.00859882 0.0390648 
v 0 0.0127721 0.0379061 
v 0 0.0371591 -0.0148055 
v 0 0.0353405 -0.0187363 
v 0 0.0331076 -0.0224475 
v 0 -3.06285e-17 -0.04 
v 0 -0.0371591 0.0148055 
v 0 -0.00859882 0.0390648 
v 0 -0.00432476 0.0397655 
v 0 -0.0167956 0.036303 
v 0 -0.0127721 0.0379061 
v 0 0.0331076 0.0224475 
v 0 0.0167956 0.036303 
v 0 0.00432476 0.0397655 
v 0 -0.0206222 0.0342743 
v 0 0 0.04 
v 0 -0.0353405 0.0187363 
v 0 -0.027508 0.0290398 
v 0 -0.024207 0.0318437 
v 0 -0.0331076 0.0224475 
v 0 -0.0304865 0.0258955 
vn -1 0 0 
vn -1 0 0 
vn -1 0 0 
vn -1 0 0 
vn -1 0 0 
vn -1 0 0 
vn -1 0 0 
vn -1 0 0 
vn -1 0 0 
vn -1 0 0 
vn -1 0 0 
vn -1 0 0 
vn -1 0 0 
vn -1 0 0 
vn -1 0 0 
vn -1 0 0 
vn -1 0 0 
vn -1 0 0 
vn -1 0 0 
vn -1 0 0 
vn -1 0 0 
vn -1 0 0 
vn -1 0 0 
vn -1 0 0 
vn -1 0 0 
vn -1 0 0 
vn -1 0 0 
vn -1 0 0 
vn -1 0 0 
vn -1 0 0 
vn -1 0 0 
vn -1 0 0 
vn -1 0 0 
vn -1 0 0 
vn -1 0 0 
vn -1 0 0 
vn -1 0 0 
vn -1 0 0 
vn -1 0 0 
vn -1 0 0 
vn -1 0 0 
vn -1 0 0 
vn -1 0 0 
vn -1 0 0 
vn -1 0 0 
vn -1 0 0 
vn -1 0 0 
vn -1 0 0 
vn -1 0 0 
vn -1 0 0 
vn -1 0 0 
vn -1 0 0 
vn -1 0 0 
vn -1 0 0 
vn -1 0 0 
vn -1 0 0 
vn -1 0 0 
vn -1 0 0 
vn -1 0 0 
vn -1 0 0 
vn -1 0 0 
vn -1 0 0 
vn -1 0 0 
vn -1 0 0 
f 117//117 118//118 119//119 
f 120//120 121//121 122//122 
f 119//119 123//123 117//117 
f 122//122 124//124 125//125 
f 126//126 127//127 122//122 
f 122//122 128//128 129//129 
f 118//118 130//130 119//119 
f 125//125 131//131 122//122 
f 122//122 117//117 126//126 
f 117//117 132//132 133//133 
f 121//121 134//134 135//135 
f 122//122 129//129 120//120 
f 136//136 137//137 138//138 
f 121//121 139//139 140//140 
f 121//121 141//141 142//142 
f 117//117 143//143 144//144 
f 118//118 145//145 130//130 
f 118//118 146//146 147//147 
f 127//127 124//124 122//122 
f 117//117 148//148 132//132 
f 121//121 149//149 150//150 
f 120//120 134//134 121//121 
f 122//122 151//151 152//152 
f 136//136 140//140 137//137 
f 121//121 153//153 139//139 
f 121//121 154//154 141//141 
f 118//118 155//155 156//156 
f 118//118 157//157 158//158 
f 157//157 118//118 159//159 
f 159//159 160//160 161//161 
f 144//144 162//162 117//117 
f 147//147 145//145 118//118 
f 133//133 126//126 117//117 
f 117//117 163//163 164//164 
f 135//135 149//149 121//121 
f 122//122 165//165 151//151 
f 138//138 166//166 136//136 
f 142//142 153//153 121//121 
f 159//159 167//167 168//168 
f 159//159 169//169 170//170 
f 156//156 171//171 118//118 
f 159//159 172//172 157//157 
f 159//159 173//173 160//160 
f 123//123 143//143 117//117 
f 164//164 148//148 117//117 
f 152//152 128//128 122//122 
f 140//140 136//136 121//121 
f 170//170 167//167 159//159 
f 174//174 169//169 159//159 
f 158//158 155//155 118//118 
f 159//159 175//175 173//173 
f 131//131 165//165 122//122 
f 166//166 176//176 136//136 
f 159//159 136//136 174//174 
f 136//136 177//177 178//178 
f 136//136 176//176 179//179 
f 161//161 172//172 159//159 
f 150//150 154//154 121//121 
f 178//178 174//174 136//136 
f 179//179 180//180 136//136 
f 162//162 163//163 117//117 
f 180//180 177//177 136//136 
f 168//168 175//175 159//159 
f 171//171 146//146 118//118 
o mesh28029
v 0.29 -0.0206219 -0.0342739 
v 0.29 -0.0167954 -0.0363026 
v 0.29 9.80372e-19 -0.00438786 
v 0.29 0.0038 -0.00219393 
v 0.29 0.0206219 -0.0342739 
v 0.29 0.0242067 -0.0318433 
v 0.29 0.0399409 -0.00216553 
v 0.29 0.0399409 0.00216553 
v 0.29 0.0038 0.00219393 
v 0.29 0.0275077 0.0290395 
v 0.29 0.0242067 0.0318433 
v 0.29 -0.0038 0.00219393 
v 0.29 -0.0275077 0.0290395 
v 0.29 -0.0304861 0.0258951 
v 0.29 -0.0038 -0.00219393 
v 0.29 -0.0242067 -0.0318433 
v 0.29 0.0304861 -0.0258951 
v 0.29 0.0331072 -0.0224472 
v 0.29 0.0275077 -0.0290395 
v 0.29 0.0394726 0.0064712 
v 0.29 0.0394726 -0.0064712 
v 0.29 0.0353401 -0.0187361 
v 0.29 0.0371586 -0.0148054 
v 0.29 0.0206219 0.0342739 
v 0.29 0.0167954 0.0363026 
v 0.29 1.41208e-18 0.00438786 
v 0.29 0.0304861 0.0258951 
v 0.29 -0.0331072 0.0224472 
v 0.29 -0.0206219 0.0342739 
v 0.29 -0.0242067 0.0318433 
v 0.29 -0.0399409 0.00216553 
v 0.29 -0.0304861 -0.0258951 
v 0.29 -0.0275077 -0.0290395 
v 0.29 0.0127719 -0.0379057 
v 0.29 0.0167954 -0.0363026 
v 0.29 0.00432471 -0.039765 
v 0.29 0.00859872 -0.0390644 
v 0.29 0.0385415 -0.010701 
v 0.29 0.00859872 0.0390644 
v 0.29 0.00432471 0.039765 
v 0.29 0.0127719 0.0379057 
v 0.29 0.0353401 0.0187361 
v 0.29 0.0331072 0.0224472 
v 0.29 -0.0127719 0.0379057 
v 0.29 -0.0167954 0.0363026 
v 0.29 -0.00432471 0.039765 
v 0.29 -0.00859872 0.0390644 
v 0.29 -0.0399409 -0.00216553 
v 0.29 -0.0353401 -0.0187361 
v 0.29 -0.0331072 -0.0224472 
v 0.29 -3.06282e-17 -0.0399995 
v 0.29 0.0385415 0.010701 
v 0.29 0.0371586 0.0148054 
v 0.29 -9.79706e-18 0.0399995 
v 0.29 -0.0385415 -0.010701 
v 0.29 -0.0371586 -0.0148054 
v 0.29 -0.0394726 -0.0064712 
v 0.29 -0.0385415 0.010701 
v 0.29 -0.0394726 0.0064712 
v 0.29 -0.0353401 0.0187361 
v 0.29 -0.0371586 0.0148054 
v 0.29 -0.0127719 -0.0379057 
v 0.29 -0.00859872 -0.0390644 
v 0.29 -0.00432471 -0.039765 
vn 1 0 0 
vn 1 0 0 
vn 1 0 0 
vn 1 0 0 
vn 1 0 0 
vn 1 0 0 
vn 1 0 0 
vn 1 0 0 
vn 1 0 0 
vn 1 0 0 
vn 1 0 0 
vn 1 0 0 
vn 1 0 0 
vn 1 0 0 
vn 1 0 0 
vn 1 0 0 
vn 1 0 0 
vn 1 0 0 
vn 1 0 0 
vn 1 0 0 
vn 1 0 0 
vn 1 0 0 
vn 1 0 0 
vn 1 0 0 
vn 1 0 0 
vn 1 0 0 
vn 1 0 0 
vn 1 0 0 
vn 1 0 0 
vn 1 0 0 
vn 1 0 0 
vn 1 0 0 
vn 1 0 0 
vn 1 0 0 
vn 1 0 0 
vn 1 0 0 
vn 1 0 0 
vn 1 0 0 
vn 1 0 0 
vn 1 0 0 
vn 1 0 0 
vn 1 0 0 
vn 1 0 0 
vn 1 0 0 
vn 1 0 0 
vn 1 0 0 
vn 1 0 0 
vn 1 0 0 
vn 1 0 0 
vn 1 0 0 
vn 1 0 0 
vn 1 0 0 
vn 1 0 0 
vn 1 0 0 
vn 1 0 0 
vn 1 0 0 
vn 1 0 0 
vn 1 0 0 
vn 1 0 0 
vn 1 0 0 
vn 1 0 0 
vn 1 0 0 
vn 1 0 0 
vn 1 0 0 
f 181//181 182//182 183//183 
f 184//184 185//185 186//186 
f 184//184 187//187 188//188 
f 189//189 190//190 191//191 
f 192//192 193//193 194//194 
f 195//195 196//196 181//181 
f 184//184 197//197 198//198 
f 186//186 199//199 184//184 
f 185//185 184//184 183//183 
f 189//189 188//188 200//200 
f 184//184 201//201 187//187 
f 184//184 202//202 203//203 
f 204//204 205//205 206//206 
f 189//189 207//207 190//190 
f 194//194 208//208 192//192 
f 192//192 209//209 210//210 
f 209//209 192//192 206//206 
f 195//195 192//192 211//211 
f 183//183 195//195 181//181 
f 195//195 212//212 213//213 
f 199//199 197//197 184//184 
f 183//183 214//214 215//215 
f 183//183 216//216 217//217 
f 188//188 189//189 184//184 
f 203//203 218//218 184//184 
f 206//206 219//219 220//220 
f 206//206 205//205 221//221 
f 191//191 204//204 189//189 
f 189//189 222//222 223//223 
f 210//210 193//193 192//192 
f 206//206 224//224 225//225 
f 206//206 226//226 227//227 
f 211//211 228//228 195//195 
f 213//213 196//196 195//195 
f 195//195 229//229 230//230 
f 183//183 215//215 185//185 
f 183//183 231//231 216//216 
f 189//189 232//232 233//233 
f 218//218 201//201 184//184 
f 221//221 219//219 206//206 
f 223//223 207//207 189//189 
f 206//206 225//225 209//209 
f 206//206 234//234 226//226 
f 195//195 235//235 236//236 
f 228//228 237//237 195//195 
f 192//192 238//238 239//239 
f 192//192 240//240 241//241 
f 183//183 242//242 243//243 
f 230//230 212//212 195//195 
f 217//217 214//214 183//183 
f 200//200 232//232 189//189 
f 206//206 189//189 204//204 
f 227//227 224//224 206//206 
f 237//237 235//235 195//195 
f 241//241 238//238 192//192 
f 182//182 242//242 183//183 
f 233//233 222//222 189//189 
f 208//208 240//240 192//192 
f 239//239 211//211 192//192 
f 243//243 244//244 183//183 
f 220//220 234//234 206//206 
f 244//244 231//231 183//183 
f 236//236 229//229 195//195 
f 198//198 202//202 184//184 
o mesh28030
v 0.29 -0.0038 0.00219393 
v 0 -0.0038 0.00219393 
v 0 1.51788e-18 0.00438786 
v 0.29 1.41208e-18 0.00438786 
vn 0 0.5 -0.866025 
vn 0 0.5 -0.866025 
vn 0 0.5 -0.866025 
vn 0 0.5 -0.866025 
f 245//245 246//246 247//247 
f 247//247 248//248 245//245 
o mesh28031
v 0.29 -0.0038 -0.00219393 
v 0 -0.0038 -0.00219393 
v 0 -0.0038 0.00219393 
v 0.29 -0.0038 0.00219393 
vn 0 1 2.96509e-16 
vn 0 1 2.96509e-16 
vn 0 1 2.96509e-16 
vn 0 1 2.96509e-16 
f 249//249 250//250 251//251 
f 251//251 252//252 249//249 
o mesh28032
v 0.29 9.80372e-19 -0.00438786 
v 0 9.80372e-19 -0.00438786 
v 0 -0.0038 -0.00219393 
v 0.29 -0.0038 -0.00219393 
vn 0 0.5 0.866025 
vn 0 0.5 0.866025 
vn 0 0.5 0.866025 
vn 0 0.5 0.866025 
f 253//253 254//254 255//255 
f 255//255 256//256 253//253 
o mesh28033
v 0.29 0.0038 -0.00219393 
v 0 0.0038 -0.00219393 
v 0 9.80372e-19 -0.00438786 
v 0.29 9.80372e-19 -0.00438786 
vn 0 -0.5 0.866025 
vn 0 -0.5 0.866025 
vn 0 -0.5 0.866025 
vn 0 -0.5 0.866025 
f 257//257 258//258 259//259 
f 259//259 260//260 257//257 
o mesh28034
v 0.29 0.0038 0.00219393 
v 0 0.0038 0.00219393 
v 0 0.0038 -0.00219393 
v 0.29 0.0038 -0.00219393 
vn 0 -1 0 
vn 0 -1 0 
vn 0 -1 0 
vn 0 -1 0 
f 261//261 262//262 263//263 
f 263//263 264//264 261//261 
o mesh28035
v 0.29 1.41208e-18 0.00438786 
v 0 1.51788e-18 0.00438786 
v 0 0.0038 0.00219393 
v 0.29 0.0038 0.00219393 
vn 0 -0.5 -0.866025 
vn 0 -0.5 -0.866025 
vn 0 -0.5 -0.866025 
vn 0 -0.5 -0.866025 
f 265//265 266//266 267//267 
f 267//267 268//268 265//265 
