# OBJ generated by ONSHAPE BY PTC INC, 1.215 Units = meters
mtllib Exc_CoverBracket.mtl
g Exc_CoverBracket
usemtl 0.501961_0.501961_1.000000_0.000000_0.000000
o mesh72
v -0.00208769 -0.00022705 0 
v -0.0021 0 0 
v -0.0021 0 0.003 
v -0.0020509 -0.000451438 0 
v -0.00208769 -0.00022705 0.003 
v -0.00199007 -0.000670533 0 
v -0.0020509 -0.000451438 0.003 
v -0.00190591 -0.000881767 0 
v -0.00199007 -0.000670533 0.003 
v -0.0017994 -0.00108266 0 
v -0.00190591 -0.000881767 0.003 
v -0.0016718 -0.00127087 0 
v -0.0017994 -0.00108266 0.003 
v -0.00152459 -0.00144417 0 
v -0.0016718 -0.00127087 0.003 
v -0.00135951 -0.00160054 0 
v -0.00152459 -0.00144417 0.003 
v -0.00117849 -0.00173815 0 
v -0.00135951 -0.00160054 0.003 
v -0.000983658 -0.00185538 0 
v -0.00117849 -0.00173815 0.003 
v -0.00077729 -0.00195085 0 
v -0.000983658 -0.00185538 0.003 
v -0.00056181 -0.00202345 0 
v -0.00077729 -0.00195085 0.003 
v -0.000339742 -0.00207234 0 
v -0.00056181 -0.00202345 0.003 
v -0.000113692 -0.00209692 0 
v -0.000339742 -0.00207234 0.003 
v 0.000113692 -0.00209692 0 
v -0.000113692 -0.00209692 0.003 
v 0.000339742 -0.00207234 0 
v 0.000113692 -0.00209692 0.003 
v 0.00056181 -0.00202345 0 
v 0.000339742 -0.00207234 0.003 
v 0.00077729 -0.00195085 0 
v 0.00056181 -0.00202345 0.003 
v 0.000983658 -0.00185538 0 
v 0.00077729 -0.00195085 0.003 
v 0.00117849 -0.00173815 0 
v 0.000983658 -0.00185538 0.003 
v 0.00135951 -0.00160054 0 
v 0.00117849 -0.00173815 0.003 
v 0.00152459 -0.00144417 0 
v 0.00135951 -0.00160054 0.003 
v 0.0016718 -0.00127087 0 
v 0.00152459 -0.00144417 0.003 
v 0.0017994 -0.00108266 0 
v 0.0016718 -0.00127087 0.003 
v 0.00190591 -0.000881767 0 
v 0.0017994 -0.00108266 0.003 
v 0.00199007 -0.000670533 0 
v 0.00190591 -0.000881767 0.003 
v 0.0020509 -0.000451438 0 
v 0.00199007 -0.000670533 0.003 
v 0.00208769 -0.00022705 0 
v 0.0020509 -0.000451438 0.003 
v 0.0021 7.71527e-19 0 
v 0.00208769 -0.00022705 0.003 
v 0.00208769 0.00022705 0 
v 0.0021 2.57176e-19 0.003 
v 0.0020509 0.000451438 0 
v 0.00208769 0.00022705 0.003 
v 0.00199007 0.000670533 0 
v 0.0020509 0.000451438 0.003 
v 0.00190591 0.000881767 0 
v 0.00199007 0.000670533 0.003 
v 0.0017994 0.00108266 0 
v 0.00190591 0.000881767 0.003 
v 0.0016718 0.00127087 0 
v 0.0017994 0.00108266 0.003 
v 0.00152459 0.00144417 0 
v 0.0016718 0.00127087 0.003 
v 0.00135951 0.00160054 0 
v 0.00152459 0.00144417 0.003 
v 0.00117849 0.00173815 0 
v 0.00135951 0.00160054 0.003 
v 0.000983658 0.00185538 0 
v 0.00117849 0.00173815 0.003 
v 0.00077729 0.00195085 0 
v 0.000983658 0.00185538 0.003 
v 0.00056181 0.00202345 0 
v 0.00077729 0.00195085 0.003 
v 0.000339742 0.00207234 0 
v 0.00056181 0.00202345 0.003 
v 0.000113692 0.00209692 0 
v 0.000339742 0.00207234 0.003 
v -0.000113692 0.00209692 0 
v 0.000113692 0.00209692 0.003 
v -0.000339742 0.00207234 0 
v -0.000113692 0.00209692 0.003 
v -0.00056181 0.00202345 0 
v -0.000339742 0.00207234 0.003 
v -0.00077729 0.00195085 0 
v -0.00056181 0.00202345 0.003 
v -0.000983658 0.00185538 0 
v -0.00077729 0.00195085 0.003 
v -0.00117849 0.00173815 0 
v -0.000983658 0.00185538 0.003 
v -0.00135951 0.00160054 0 
v -0.00117849 0.00173815 0.003 
v -0.00152459 0.00144417 0 
v -0.00135951 0.00160054 0.003 
v -0.0016718 0.00127087 0 
v -0.00152459 0.00144417 0.003 
v -0.0017994 0.00108266 0 
v -0.0016718 0.00127087 0.003 
v -0.00190591 0.000881767 0 
v -0.0017994 0.00108266 0.003 
v -0.00199007 0.000670533 0 
v -0.00190591 0.000881767 0.003 
v -0.0020509 0.000451438 0 
v -0.00199007 0.000670533 0.003 
v -0.00208769 0.00022705 0 
v -0.0020509 0.000451438 0.003 
v -0.00208769 0.00022705 0.003 
vn 0.994138 0.108119 0 
vn 1 2.44929e-16 0 
vn 1 2.44929e-16 0 
vn 0.976621 0.21497 0 
vn 0.994138 0.108119 0 
vn 0.947653 0.319302 0 
vn 0.976621 0.21497 0 
vn 0.907575 0.419889 0 
vn 0.947653 0.319302 0 
vn 0.856857 0.515554 0 
vn 0.907575 0.419889 0 
vn 0.796093 0.605174 0 
vn 0.856857 0.515554 0 
vn 0.725995 0.687699 0 
vn 0.796093 0.605174 0 
vn 0.647386 0.762162 0 
vn 0.725995 0.687699 0 
vn 0.561187 0.827689 0 
vn 0.647386 0.762162 0 
vn 0.468408 0.883512 0 
vn 0.561187 0.827689 0 
vn 0.370138 0.928977 0 
vn 0.468408 0.883512 0 
vn 0.267528 0.96355 0 
vn 0.370138 0.928977 0 
vn 0.161782 0.986827 0 
vn 0.267528 0.96355 0 
vn 0.0541389 0.998533 0 
vn 0.161782 0.986827 0 
vn -0.0541389 0.998533 0 
vn 0.0541389 0.998533 0 
vn -0.161782 0.986827 0 
vn -0.0541389 0.998533 0 
vn -0.267528 0.96355 0 
vn -0.161782 0.986827 0 
vn -0.370138 0.928977 0 
vn -0.267528 0.96355 0 
vn -0.468408 0.883512 0 
vn -0.370138 0.928977 0 
vn -0.561187 0.827689 0 
vn -0.468408 0.883512 0 
vn -0.647386 0.762162 0 
vn -0.561187 0.827689 0 
vn -0.725995 0.687699 0 
vn -0.647386 0.762162 0 
vn -0.796093 0.605174 0 
vn -0.725995 0.687699 0 
vn -0.856857 0.515554 0 
vn -0.796093 0.605174 0 
vn -0.907575 0.419889 0 
vn -0.856857 0.515554 0 
vn -0.947653 0.319302 0 
vn -0.907575 0.419889 0 
vn -0.976621 0.21497 0 
vn -0.947653 0.319302 0 
vn -0.994138 0.108119 0 
vn -0.976621 0.21497 0 
vn -1 -1.22465e-16 0 
vn -0.994138 0.108119 0 
vn -0.994138 -0.108119 0 
vn -1 -1.22465e-16 0 
vn -0.976621 -0.21497 0 
vn -0.994138 -0.108119 0 
vn -0.947653 -0.319302 0 
vn -0.976621 -0.21497 0 
vn -0.907575 -0.419889 0 
vn -0.947653 -0.319302 0 
vn -0.856857 -0.515554 0 
vn -0.907575 -0.419889 0 
vn -0.796093 -0.605174 0 
vn -0.856857 -0.515554 0 
vn -0.725995 -0.687699 0 
vn -0.796093 -0.605174 0 
vn -0.647386 -0.762162 0 
vn -0.725995 -0.687699 0 
vn -0.561187 -0.827689 0 
vn -0.647386 -0.762162 0 
vn -0.468408 -0.883512 0 
vn -0.561187 -0.827689 0 
vn -0.370138 -0.928977 0 
vn -0.468408 -0.883512 0 
vn -0.267528 -0.96355 0 
vn -0.370138 -0.928977 0 
vn -0.161782 -0.986827 0 
vn -0.267528 -0.96355 0 
vn -0.0541389 -0.998533 0 
vn -0.161782 -0.986827 0 
vn 0.0541389 -0.998533 0 
vn -0.0541389 -0.998533 0 
vn 0.161782 -0.986827 0 
vn 0.0541389 -0.998533 0 
vn 0.267528 -0.96355 0 
vn 0.161782 -0.986827 0 
vn 0.370138 -0.928977 0 
vn 0.267528 -0.96355 0 
vn 0.468408 -0.883512 0 
vn 0.370138 -0.928977 0 
vn 0.561187 -0.827689 0 
vn 0.468408 -0.883512 0 
vn 0.647386 -0.762162 0 
vn 0.561187 -0.827689 0 
vn 0.725995 -0.687699 0 
vn 0.647386 -0.762162 0 
vn 0.796093 -0.605174 0 
vn 0.725995 -0.687699 0 
vn 0.856857 -0.515554 0 
vn 0.796093 -0.605174 0 
vn 0.907575 -0.419889 0 
vn 0.856857 -0.515554 0 
vn 0.947653 -0.319302 0 
vn 0.907575 -0.419889 0 
vn 0.976621 -0.21497 0 
vn 0.947653 -0.319302 0 
vn 0.994138 -0.108119 0 
vn 0.976621 -0.21497 0 
vn 0.994138 -0.108119 0 
f 1//1 2//2 3//3 
f 4//4 1//1 5//5 
f 6//6 4//4 7//7 
f 8//8 6//6 9//9 
f 10//10 8//8 11//11 
f 12//12 10//10 13//13 
f 14//14 12//12 15//15 
f 16//16 14//14 17//17 
f 18//18 16//16 19//19 
f 20//20 18//18 21//21 
f 22//22 20//20 23//23 
f 24//24 22//22 25//25 
f 26//26 24//24 27//27 
f 28//28 26//26 29//29 
f 30//30 28//28 31//31 
f 32//32 30//30 33//33 
f 34//34 32//32 35//35 
f 36//36 34//34 37//37 
f 38//38 36//36 39//39 
f 40//40 38//38 41//41 
f 42//42 40//40 43//43 
f 44//44 42//42 45//45 
f 46//46 44//44 47//47 
f 48//48 46//46 49//49 
f 50//50 48//48 51//51 
f 52//52 50//50 53//53 
f 54//54 52//52 55//55 
f 56//56 54//54 57//57 
f 58//58 56//56 59//59 
f 60//60 58//58 61//61 
f 62//62 60//60 63//63 
f 64//64 62//62 65//65 
f 66//66 64//64 67//67 
f 68//68 66//66 69//69 
f 70//70 68//68 71//71 
f 72//72 70//70 73//73 
f 74//74 72//72 75//75 
f 76//76 74//74 77//77 
f 78//78 76//76 79//79 
f 80//80 78//78 81//81 
f 82//82 80//80 83//83 
f 84//84 82//82 85//85 
f 86//86 84//84 87//87 
f 88//88 86//86 89//89 
f 90//90 88//88 91//91 
f 92//92 90//90 93//93 
f 94//94 92//92 95//95 
f 96//96 94//94 97//97 
f 98//98 96//96 99//99 
f 100//100 98//98 101//101 
f 102//102 100//100 103//103 
f 104//104 102//102 105//105 
f 106//106 104//104 107//107 
f 108//108 106//106 109//109 
f 110//110 108//108 111//111 
f 112//112 110//110 113//113 
f 114//114 112//112 115//115 
f 2//2 114//114 116//116 
f 116//116 3//3 2//2 
f 115//115 116//116 114//114 
f 113//113 115//115 112//112 
f 111//111 113//113 110//110 
f 109//109 111//111 108//108 
f 107//107 109//109 106//106 
f 105//105 107//107 104//104 
f 103//103 105//105 102//102 
f 101//101 103//103 100//100 
f 99//99 101//101 98//98 
f 97//97 99//99 96//96 
f 95//95 97//97 94//94 
f 93//93 95//95 92//92 
f 91//91 93//93 90//90 
f 89//89 91//91 88//88 
f 87//87 89//89 86//86 
f 85//85 87//87 84//84 
f 83//83 85//85 82//82 
f 81//81 83//83 80//80 
f 79//79 81//81 78//78 
f 77//77 79//79 76//76 
f 75//75 77//77 74//74 
f 73//73 75//75 72//72 
f 71//71 73//73 70//70 
f 69//69 71//71 68//68 
f 67//67 69//69 66//66 
f 65//65 67//67 64//64 
f 63//63 65//65 62//62 
f 61//61 63//63 60//60 
f 59//59 61//61 58//58 
f 57//57 59//59 56//56 
f 55//55 57//57 54//54 
f 53//53 55//55 52//52 
f 51//51 53//53 50//50 
f 49//49 51//51 48//48 
f 47//47 49//49 46//46 
f 45//45 47//47 44//44 
f 43//43 45//45 42//42 
f 41//41 43//43 40//40 
f 39//39 41//41 38//38 
f 37//37 39//39 36//36 
f 35//35 37//37 34//34 
f 33//33 35//35 32//32 
f 31//31 33//33 30//30 
f 29//29 31//31 28//28 
f 27//27 29//29 26//26 
f 25//25 27//27 24//24 
f 23//23 25//25 22//22 
f 21//21 23//23 20//20 
f 19//19 21//21 18//18 
f 17//17 19//19 16//16 
f 15//15 17//17 14//14 
f 13//13 15//15 12//12 
f 11//11 13//13 10//10 
f 9//9 11//11 8//8 
f 7//7 9//9 6//6 
f 5//5 7//7 4//4 
f 3//3 5//5 1//1 
o mesh73
v 0.208276 0.08 0.003 
v 0.0017994 0.00108266 0.003 
v 0.144561 0.0371374 0.003 
v 0.209498 0.0797398 0.003 
v 0.209204 0.0798527 0.003 
v 0.208901 0.0799342 0.003 
v 0.20859 0.0799835 0.003 
v 0.209778 0.0795967 0.003 
v 0.210286 0.0792269 0.003 
v 0.210042 0.0794252 0.003 
v 0.143674 0.036566 0.003 
v 0.210706 0.0787595 0.003 
v 0.210508 0.0790042 0.003 
v 0.211019 0.0782148 0.003 
v 0.210877 0.0784954 0.003 
v 0.211212 0.0776169 0.003 
v 0.211131 0.0779209 0.003 
v 0.209764 0.0743953 0.003 
v 0.210274 0.0747623 0.003 
v 0.210497 0.0749839 0.003 
v 0.211276 0.076992 0.003 
v 0.21126 0.0773061 0.003 
v 0.210029 0.0745654 0.003 
v 0.211012 0.0757705 0.003 
v 0.211126 0.0760638 0.003 
v 0.211208 0.0763674 0.003 
v 0.211259 0.0766779 0.003 
v 0.210696 0.0752276 0.003 
v 0.210869 0.0754907 0.003 
v 0.142103 0.0351595 0.003 
v 0.142851 0.0359042 0.003 
v 0.108328 0.00127087 0.003 
v 0.108475 0.00144417 0.003 
v 0.108201 0.00108266 0.003 
v -0.0980775 0.0274991 0.003 
v -0.100377 0.0329411 0.003 
v -0.100228 0.0319532 0.003 
v 0.00207912 -0.00978148 0.003 
v 0.00309017 -0.00951057 0.003 
v 0.00056181 -0.00202345 0.003 
v 0.00406737 -0.00913545 0.003 
v 0.00077729 -0.00195085 0.003 
v 0.109223 0.00195085 0.003 
v 0.109438 0.00202345 0.003 
v 0.108822 0.00173815 0.003 
v 0.109016 0.00185538 0.003 
v 0.000339742 0.00207234 0.003 
v 0.00056181 0.00202345 0.003 
v -0.0996384 0.0300464 0.003 
v -0.099204 0.0291466 0.003 
v -0.0986819 0.0282947 0.003 
v -0.0999809 0.030985 0.003 
v 1.83697e-18 -0.01 0.003 
v 0.00104528 -0.00994522 0.003 
v 0.000113692 -0.00209692 0.003 
v 0.005 -0.00866025 0.003 
v 0.000983658 -0.00185538 0.003 
v 0.00587785 -0.00809017 0.003 
v 0.00117849 -0.00173815 0.003 
v 0.00669131 -0.00743145 0.003 
v 0.00135951 -0.00160054 0.003 
v 0.11034 0.00207234 0.003 
v 0.110562 0.00202345 0.003 
v 0.109886 0.00209692 0.003 
v 0.110114 0.00209692 0.003 
v 0.10966 0.00207234 0.003 
v 0.10864 0.00160054 0.003 
v 0.000983658 0.00185538 0.003 
v 0.00117849 0.00173815 0.003 
v 0.00077729 0.00195085 0.003 
v -0.0973966 0.0267678 0.003 
v -0.00309017 -0.00951057 0.003 
v -0.00056181 -0.00202345 0.003 
v -0.00077729 -0.00195085 0.003 
v -0.00207912 -0.00978148 0.003 
v -0.000339742 -0.00207234 0.003 
v -0.00104528 -0.00994522 0.003 
v -0.000113692 -0.00209692 0.003 
v 0.107912 0.00022705 0.003 
v 0.0021 2.57176e-19 0.003 
v 0.0173205 0 0.003 
v 0.111045 -0.00994522 0.003 
v 0.112079 -0.00978148 0.003 
v 0.11034 -0.00207234 0.003 
v 0.11309 -0.00951057 0.003 
v 0.110562 -0.00202345 0.003 
v 0.114067 -0.00913545 0.003 
v 0.110777 -0.00195085 0.003 
v 0.115 -0.00866025 0.003 
v 0.110984 -0.00185538 0.003 
v 0.11136 0.00160054 0.003 
v 0.111525 0.00144417 0.003 
v 0.140862 0.0334549 0.003 
v 0.110984 0.00185538 0.003 
v 0.111178 0.00173815 0.003 
v 0.110777 0.00195085 0.003 
v -0.00199007 0.000670533 0.003 
v -0.100427 0.033939 0.003 
v -0.0958337 0.0255266 0.003 
v -0.0568951 0.000716354 0.003 
v -0.0550709 0.000180722 0.003 
v -0.054129 4.52829e-05 0.003 
v -0.00587785 -0.00809017 0.003 
v -0.00117849 -0.00173815 0.003 
v -0.00135951 -0.00160054 0.003 
v -0.005 -0.00866025 0.003 
v -0.000983658 -0.00185538 0.003 
v -0.00406737 -0.00913545 0.003 
v 0.000339742 -0.00207234 0.003 
v 0.00743145 -0.00669131 0.003 
v 0.00152459 -0.00144417 0.003 
v 0.0926795 0 0.003 
v 0.0937248 -5.4781e-05 0.003 
v 0.0162752 -5.4781e-05 0.003 
v 0.0142303 -0.000489435 0.003 
v 0.0152414 -0.000218524 0.003 
v 0.115878 -0.00809017 0.003 
v 0.111178 -0.00173815 0.003 
v 0.116691 -0.00743145 0.003 
v 0.11136 -0.00160054 0.003 
v 0.11199 0.000670533 0.003 
v 0.112051 0.000451438 0.003 
v 0.111672 0.00127087 0.003 
v 0.141438 0.03434 0.003 
v 0.00190591 0.000881767 0.003 
v 0.00199007 0.000670533 0.003 
v 0.107949 0.000451438 0.003 
v 0.10801 0.000670533 0.003 
v 0.00135951 0.00160054 0.003 
v -0.100427 0.08 0.003 
v -0.00135951 0.00160054 0.003 
v -0.00117849 0.00173815 0.003 
v -0.0966462 0.0261081 0.003 
v -0.0559958 0.000405089 0.003 
v -0.0531784 -4.39132e-18 0.003 
v -0.0585849 0.00158754 0.003 
v -0.0577607 0.0011117 0.003 
v 0.00809017 -0.00587785 0.003 
v 0.0016718 -0.00127087 0.003 
v 0.00866025 -0.005 0.003 
v 0.0017994 -0.00108266 0.003 
v 0.00199007 -0.000670533 0.003 
v 0.00190591 -0.000881767 0.003 
v 0.00923034 -0.00412215 0.003 
v 0.0020509 -0.000451438 0.003 
v 0.00988906 -0.00330869 0.003 
v 0.00208769 -0.00022705 0.003 
v 0.0106292 -0.00256855 0.003 
v 0.0132531 -0.000864545 0.003 
v 0.11 -0.01 0.003 
v 0.110114 -0.00209692 0.003 
v 0.109886 -0.00209692 0.003 
v 0.112088 0.00022705 0.003 
v 0.111799 0.00108266 0.003 
v 0.111906 0.000881767 0.003 
v 0.0020509 0.000451438 0.003 
v 0.00152459 0.00144417 0.003 
v -0.000113692 0.00209692 0.003 
v 0.000113692 0.00209692 0.003 
v -0.000339742 0.00207234 0.003 
v -0.00077729 0.00195085 0.003 
v -0.00056181 0.00202345 0.003 
v -0.000983658 0.00185538 0.003 
v -0.0017994 0.00108266 0.003 
v -0.0016718 0.00127087 0.003 
v -0.0021 0 0.003 
v -0.0132531 -0.000864545 0.003 
v -0.0123205 -0.00133975 0.003 
v -0.0173205 -1.73472e-18 0.003 
v -0.0162752 -5.4781e-05 0.003 
v -0.00208769 -0.00022705 0.003 
v -0.0114427 -0.00190983 0.003 
v -0.0106292 -0.00256855 0.003 
v -0.0020509 -0.000451438 0.003 
v -0.00988906 -0.00330869 0.003 
v -0.00199007 -0.000670533 0.003 
v -0.00923034 -0.00412215 0.003 
v -0.00669131 -0.00743145 0.003 
v -0.00152459 -0.00144417 0.003 
v 0.0114427 -0.00190983 0.003 
v 0.0123205 -0.00133975 0.003 
v 0.104122 -0.00809017 0.003 
v 0.108822 -0.00173815 0.003 
v 0.10864 -0.00160054 0.003 
v 0.105 -0.00866025 0.003 
v 0.109016 -0.00185538 0.003 
v 0.10691 -0.00951057 0.003 
v 0.109438 -0.00202345 0.003 
v 0.109223 -0.00195085 0.003 
v 0.107921 -0.00978148 0.003 
v 0.10966 -0.00207234 0.003 
v 0.108955 -0.00994522 0.003 
v 0.117431 -0.00669131 0.003 
v 0.111525 -0.00144417 0.003 
v 0.00208769 0.00022705 0.003 
v 0.108094 0.000881767 0.003 
v 0.0016718 0.00127087 0.003 
v -0.00152459 0.00144417 0.003 
v -0.0020509 0.000451438 0.003 
v -0.00208769 0.00022705 0.003 
v -0.0142303 -0.000489435 0.003 
v -0.0152414 -0.000218524 0.003 
v -0.00190591 -0.000881767 0.003 
v -0.00809017 -0.00587785 0.003 
v -0.0016718 -0.00127087 0.003 
v -0.0017994 -0.00108266 0.003 
v -0.00743145 -0.00669131 0.003 
v 0.1079 0 0.003 
v 0.0967469 -0.000864545 0.003 
v 0.0976795 -0.00133975 0.003 
v 0.0947586 -0.000218524 0.003 
v 0.0957697 -0.000489435 0.003 
v 0.107912 -0.00022705 0.003 
v 0.0985573 -0.00190983 0.003 
v 0.0993708 -0.00256855 0.003 
v 0.107949 -0.000451438 0.003 
v 0.100111 -0.00330869 0.003 
v 0.10801 -0.000670533 0.003 
v 0.10077 -0.00412215 0.003 
v 0.103309 -0.00743145 0.003 
v 0.108475 -0.00144417 0.003 
v 0.105933 -0.00913545 0.003 
v 0.11809 -0.00587785 0.003 
v 0.111672 -0.00127087 0.003 
v 0.11866 -0.005 0.003 
v 0.111799 -0.00108266 0.003 
v 0.112051 -0.000451438 0.003 
v 0.11199 -0.000670533 0.003 
v 0.108094 -0.000881767 0.003 
v 0.10191 -0.00587785 0.003 
v 0.108328 -0.00127087 0.003 
v 0.108201 -0.00108266 0.003 
v 0.102569 -0.00669131 0.003 
v 0.112088 -0.00022705 0.003 
v 0.1121 2.57176e-19 0.003 
v -0.00866025 -0.005 0.003 
v 0.10134 -0.005 0.003 
v -0.00190591 0.000881767 0.003 
v 0.111906 -0.000881767 0.003 
vn 0 0 1 
vn 0 0 1 
vn 0 0 1 
vn 0 0 1 
vn 0 0 1 
vn 0 0 1 
vn 0 0 1 
vn 0 0 1 
vn 0 0 1 
vn 0 0 1 
vn 0 0 1 
vn 0 0 1 
vn 0 0 1 
vn 0 0 1 
vn 0 0 1 
vn 0 0 1 
vn 0 0 1 
vn 0 0 1 
vn 0 0 1 
vn 0 0 1 
vn 0 0 1 
vn 0 0 1 
vn 0 0 1 
vn 0 0 1 
vn 0 0 1 
vn 0 0 1 
vn 0 0 1 
vn 0 0 1 
vn 0 0 1 
vn 0 0 1 
vn 0 0 1 
vn 0 0 1 
vn 0 0 1 
vn 0 0 1 
vn 0 0 1 
vn 0 0 1 
vn 0 0 1 
vn 0 0 1 
vn 0 0 1 
vn 0 0 1 
vn 0 0 1 
vn 0 0 1 
vn 0 0 1 
vn 0 0 1 
vn 0 0 1 
vn 0 0 1 
vn 0 0 1 
vn 0 0 1 
vn 0 0 1 
vn 0 0 1 
vn 0 0 1 
vn 0 0 1 
vn 0 0 1 
vn 0 0 1 
vn 0 0 1 
vn 0 0 1 
vn 0 0 1 
vn 0 0 1 
vn 0 0 1 
vn 0 0 1 
vn 0 0 1 
vn 0 0 1 
vn 0 0 1 
vn 0 0 1 
vn 0 0 1 
vn 0 0 1 
vn 0 0 1 
vn 0 0 1 
vn 0 0 1 
vn 0 0 1 
vn 0 0 1 
vn 0 0 1 
vn 0 0 1 
vn 0 0 1 
vn 0 0 1 
vn 0 0 1 
vn 0 0 1 
vn 0 0 1 
vn 0 0 1 
vn 0 0 1 
vn 0 0 1 
vn 0 0 1 
vn 0 0 1 
vn 0 0 1 
vn 0 0 1 
vn 0 0 1 
vn 0 0 1 
vn 0 0 1 
vn 0 0 1 
vn 0 0 1 
vn 0 0 1 
vn 0 0 1 
vn 0 0 1 
vn 0 0 1 
vn 0 0 1 
vn 0 0 1 
vn 0 0 1 
vn 0 0 1 
vn 0 0 1 
vn 0 0 1 
vn 0 0 1 
vn 0 0 1 
vn 0 0 1 
vn 0 0 1 
vn 0 0 1 
vn 0 0 1 
vn 0 0 1 
vn 0 0 1 
vn 0 0 1 
vn 0 0 1 
vn 0 0 1 
vn 0 0 1 
vn 0 0 1 
vn 0 0 1 
vn 0 0 1 
vn 0 0 1 
vn 0 0 1 
vn 0 0 1 
vn 0 0 1 
vn 0 0 1 
vn 0 0 1 
vn 0 0 1 
vn 0 0 1 
vn 0 0 1 
vn 0 0 1 
vn 0 0 1 
vn 0 0 1 
vn 0 0 1 
vn 0 0 1 
vn 0 0 1 
vn 0 0 1 
vn 0 0 1 
vn 0 0 1 
vn 0 0 1 
vn 0 0 1 
vn 0 0 1 
vn 0 0 1 
vn 0 0 1 
vn 0 0 1 
vn 0 0 1 
vn 0 0 1 
vn 0 0 1 
vn 0 0 1 
vn 0 0 1 
vn 0 0 1 
vn 0 0 1 
vn 0 0 1 
vn 0 0 1 
vn 0 0 1 
vn 0 0 1 
vn 0 0 1 
vn 0 0 1 
vn 0 0 1 
vn 0 0 1 
vn 0 0 1 
vn 0 0 1 
vn 0 0 1 
vn 0 0 1 
vn 0 0 1 
vn 0 0 1 
vn 0 0 1 
vn 0 0 1 
vn 0 0 1 
vn 0 0 1 
vn 0 0 1 
vn 0 0 1 
vn 0 0 1 
vn 0 0 1 
vn 0 0 1 
vn 0 0 1 
vn 0 0 1 
vn 0 0 1 
vn 0 0 1 
vn 0 0 1 
vn 0 0 1 
vn 0 0 1 
vn 0 0 1 
vn 0 0 1 
vn 0 0 1 
vn 0 0 1 
vn 0 0 1 
vn 0 0 1 
vn 0 0 1 
vn 0 0 1 
vn 0 0 1 
vn 0 0 1 
vn 0 0 1 
vn 0 0 1 
vn 0 0 1 
vn 0 0 1 
vn 0 0 1 
vn 0 0 1 
vn 0 0 1 
vn 0 0 1 
vn 0 0 1 
vn 0 0 1 
vn 0 0 1 
vn 0 0 1 
vn 0 0 1 
vn 0 0 1 
vn 0 0 1 
vn 0 0 1 
vn 0 0 1 
vn 0 0 1 
vn 0 0 1 
vn 0 0 1 
vn 0 0 1 
vn 0 0 1 
vn 0 0 1 
vn 0 0 1 
vn 0 0 1 
vn 0 0 1 
vn 0 0 1 
vn 0 0 1 
vn 0 0 1 
vn 0 0 1 
vn 0 0 1 
vn 0 0 1 
vn 0 0 1 
vn 0 0 1 
vn 0 0 1 
vn 0 0 1 
vn 0 0 1 
vn 0 0 1 
vn 0 0 1 
vn 0 0 1 
vn 0 0 1 
vn 0 0 1 
vn 0 0 1 
vn 0 0 1 
vn 0 0 1 
vn 0 0 1 
vn 0 0 1 
vn 0 0 1 
vn 0 0 1 
vn 0 0 1 
vn 0 0 1 
vn 0 0 1 
vn 0 0 1 
f 117//117 118//118 119//119 
f 119//119 120//120 121//121 
f 119//119 122//122 123//123 
f 119//119 124//124 120//120 
f 121//121 122//122 119//119 
f 119//119 125//125 126//126 
f 118//118 127//127 119//119 
f 119//119 128//128 129//129 
f 119//119 123//123 117//117 
f 119//119 130//130 131//131 
f 126//126 124//124 119//119 
f 119//119 132//132 133//133 
f 129//129 125//125 119//119 
f 134//134 135//135 136//136 
f 119//119 137//137 138//138 
f 131//131 128//128 119//119 
f 134//134 139//139 135//135 
f 119//119 140//140 141//141 
f 119//119 142//142 143//143 
f 133//133 130//130 119//119 
f 136//136 144//144 134//134 
f 119//119 145//145 140//140 
f 138//138 132//132 119//119 
f 145//145 119//119 134//134 
f 143//143 137//137 119//119 
f 141//141 142//142 119//119 
f 118//118 146//146 147//147 
f 118//118 148//148 149//149 
f 147//147 127//127 118//118 
f 118//118 150//150 148//148 
f 151//151 152//152 153//153 
f 154//154 155//155 156//156 
f 155//155 157//157 158//158 
f 146//146 159//159 160//160 
f 146//146 161//161 162//162 
f 149//149 146//146 118//118 
f 117//117 163//163 164//164 
f 165//165 166//166 167//167 
f 153//153 168//168 151//151 
f 169//169 170//170 171//171 
f 158//158 156//156 155//155 
f 157//157 172//172 173//173 
f 172//172 174//174 175//175 
f 174//174 176//176 177//177 
f 146//146 178//178 179//179 
f 146//146 180//180 181//181 
f 160//160 182//182 146//146 
f 146//146 183//183 161//161 
f 144//144 145//145 134//134 
f 117//117 184//184 185//185 
f 164//164 186//186 117//117 
f 152//152 151//151 187//187 
f 168//168 165//165 151//151 
f 188//188 189//189 190//190 
f 191//191 192//192 189//189 
f 193//193 194//194 192//192 
f 194//194 193//193 169//169 
f 173//173 158//158 157//157 
f 177//177 175//175 174//174 
f 195//195 196//196 197//197 
f 198//198 199//199 200//200 
f 199//199 201//201 202//202 
f 201//201 203//203 204//204 
f 203//203 205//205 206//206 
f 207//207 208//208 209//209 
f 146//146 210//210 211//211 
f 179//179 212//212 146//146 
f 182//182 180//180 146//146 
f 149//149 183//183 146//146 
f 186//186 184//184 117//117 
f 213//213 214//214 215//215 
f 167//167 151//151 165//165 
f 216//216 217//217 218//218 
f 219//219 220//220 221//221 
f 222//222 223//223 220//220 
f 224//224 190//190 223//223 
f 189//189 188//188 191//191 
f 171//171 194//194 169//169 
f 170//170 154//154 225//225 
f 175//175 173//173 172//172 
f 176//176 226//226 227//227 
f 195//195 228//228 229//229 
f 196//196 230//230 197//197 
f 196//196 231//231 232//232 
f 202//202 200//200 199//199 
f 206//206 204//204 203//203 
f 205//205 233//233 234//234 
f 233//233 235//235 236//236 
f 209//209 237//237 238//238 
f 209//209 208//208 239//239 
f 209//209 240//240 207//207 
f 212//212 210//210 146//146 
f 162//162 159//159 146//146 
f 195//195 241//241 242//242 
f 118//118 243//243 244//244 
f 243//243 118//118 241//241 
f 185//185 245//245 117//117 
f 246//246 247//247 248//248 
f 214//214 249//249 215//215 
f 249//249 214//214 152//152 
f 216//216 250//250 217//217 
f 251//251 252//252 253//253 
f 220//220 219//219 222//222 
f 190//190 224//224 188//188 
f 225//225 171//171 170//170 
f 227//227 177//177 176//176 
f 226//226 254//254 255//255 
f 254//254 256//256 257//257 
f 258//258 259//259 260//260 
f 261//261 258//258 262//262 
f 263//263 261//261 264//264 
f 197//197 228//228 195//195 
f 196//196 265//265 231//231 
f 266//266 267//267 268//268 
f 204//204 202//202 201//201 
f 236//236 234//234 233//233 
f 238//238 269//269 209//209 
f 209//209 270//270 271//271 
f 240//240 146//146 207//207 
f 181//181 178//178 146//146 
f 242//242 272//272 195//195 
f 241//241 195//195 243//243 
f 245//245 273//273 117//117 
f 117//117 274//274 275//275 
f 246//246 276//276 274//274 
f 246//246 277//277 278//278 
f 248//248 279//279 246//246 
f 246//246 280//280 281//281 
f 187//187 249//249 152//152 
f 253//253 216//216 251//251 
f 282//282 283//283 284//284 
f 282//282 285//285 286//286 
f 287//287 288//288 289//289 
f 290//290 289//289 291//291 
f 292//292 291//291 293//293 
f 294//294 221//221 295//295 
f 223//223 222//222 224//224 
f 156//156 225//225 154//154 
f 257//257 255//255 254//254 
f 262//262 264//264 261//261 
f 264//264 296//296 263//263 
f 232//232 230//230 196//196 
f 196//196 263//263 297//297 
f 298//298 299//299 300//300 
f 301//301 302//302 299//299 
f 303//303 304//304 305//305 
f 306//306 307//307 304//304 
f 308//308 268//268 307//307 
f 268//268 308//308 266//266 
f 234//234 206//206 205//205 
f 235//235 309//309 310//310 
f 271//271 237//237 209//209 
f 211//211 207//207 146//146 
f 272//272 311//311 195//195 
f 244//244 312//312 118//118 
f 273//273 313//313 117//117 
f 274//274 117//117 246//246 
f 279//279 277//277 246//246 
f 281//281 314//314 246//246 
f 215//215 315//315 213//213 
f 315//315 215//215 252//252 
f 316//316 252//252 285//285 
f 218//218 251//251 216//216 
f 282//282 317//317 283//283 
f 286//286 318//318 282//282 
f 287//287 284//284 288//288 
f 293//293 319//319 292//292 
f 320//320 321//321 322//322 
f 323//323 295//295 321//321 
f 221//221 294//294 219//219 
f 255//255 227//227 226//226 
f 296//296 297//297 263//263 
f 297//297 265//265 196//196 
f 324//324 325//325 326//326 
f 324//324 327//327 328//328 
f 329//329 330//330 331//331 
f 332//332 331//331 333//333 
f 334//334 333//333 335//335 
f 336//336 300//300 337//337 
f 299//299 298//298 301//301 
f 338//338 305//305 302//302 
f 304//304 303//303 306//306 
f 266//266 198//198 267//267 
f 310//310 236//236 235//235 
f 309//309 339//339 340//340 
f 339//339 341//341 342//342 
f 341//341 343//343 344//344 
f 239//239 270//270 209//209 
f 312//312 150//150 118//118 
f 275//275 163//163 117//117 
f 314//314 247//247 246//246 
f 252//252 316//316 315//315 
f 251//251 285//285 252//252 
f 318//318 317//317 282//282 
f 291//291 292//292 290//290 
f 321//321 320//320 323//323 
f 192//192 191//191 193//193 
f 256//256 260//260 259//259 
f 229//229 324//324 195//195 
f 328//328 325//325 324//324 
f 329//329 326//326 330//330 
f 335//335 345//345 334//334 
f 346//346 347//347 348//348 
f 349//349 337//337 347//347 
f 300//300 336//336 298//298 
f 305//305 338//338 303//303 
f 200//200 267//267 198//198 
f 342//342 340//340 339//339 
f 341//341 350//350 343//343 
f 341//341 209//209 351//351 
f 311//311 196//196 195//195 
f 278//278 276//276 246//246 
f 280//280 246//246 214//214 
f 285//285 282//282 316//316 
f 289//289 290//290 287//287 
f 352//352 322//322 319//319 
f 295//295 323//323 294//294 
f 260//260 262//262 258//258 
f 324//324 229//229 327//327 
f 333//333 334//334 332//332 
f 353//353 348//348 345//345 
f 347//347 346//346 349//349 
f 302//302 301//301 338//338 
f 340//340 310//310 309//309 
f 351//351 350//350 341//341 
f 313//313 118//118 117//117 
f 213//213 354//354 214//214 
f 319//319 293//293 352//352 
f 259//259 257//257 256//256 
f 331//331 332//332 329//329 
f 348//348 353//353 346//346 
f 307//307 306//306 308//308 
f 344//344 355//355 341//341 
f 214//214 354//354 280//280 
f 322//322 352//352 320//320 
f 345//345 335//335 353//353 
f 355//355 342//342 341//341 
f 284//284 287//287 282//282 
f 337//337 349//349 336//336 
f 326//326 329//329 324//324 
f 269//269 351//351 209//209 
o mesh74
v 0.210706 0.0787595 0 
v 0.209778 0.0795967 0 
v 0.210042 0.0794252 0 
v 0.208901 0.0799342 0 
v 0.209204 0.0798527 0 
v 0.208276 0.08 0 
v 0.211276 0.076992 0 
v 0.211259 0.0766779 0 
v 0.210286 0.0792269 0 
v 0.209498 0.0797398 0 
v 0.211208 0.0763674 0 
v 0.211126 0.0760638 0 
v 0.21126 0.0773061 0 
v 0.211019 0.0782148 0 
v 0.211131 0.0779209 0 
v 0.210877 0.0784954 0 
v 0.20859 0.0799835 0 
v 0.210274 0.0747623 0 
v 0.210029 0.0745654 0 
v 0.210696 0.0752276 0 
v 0.210497 0.0749839 0 
v 0.211012 0.0757705 0 
v 0.210869 0.0754907 0 
v 0.211212 0.0776169 0 
v 0.210508 0.0790042 0 
v -0.00190591 0.000881767 0 
v -0.0999809 0.030985 0 
v -0.100228 0.0319532 0 
v -0.0986819 0.0282947 0 
v -0.099204 0.0291466 0 
v -0.0996384 0.0300464 0 
v -0.0980775 0.0274991 0 
v -0.0966462 0.0261081 0 
v -0.0973966 0.0267678 0 
v -0.00199007 0.000670533 0 
v -0.0958337 0.0255266 0 
v -0.100427 0.08 0 
v -0.000339742 0.00207234 0 
v -0.00056181 0.00202345 0 
v 0.209764 0.0743953 0 
v 0.144561 0.0371374 0 
v -0.0568951 0.000716354 0 
v -0.0531784 -4.39132e-18 0 
v -0.054129 4.52829e-05 0 
v -0.00077729 0.00195085 0 
v 0.0021 7.71527e-19 0 
v 0.142851 0.0359042 0 
v 0.142103 0.0351595 0 
v 0.00208769 0.00022705 0 
v 0.143674 0.036566 0 
v 0.114067 -0.00913545 0 
v 0.110777 -0.00195085 0 
v 0.110984 -0.00185538 0 
v 0.11309 -0.00951057 0 
v 0.110562 -0.00202345 0 
v 0.112079 -0.00978148 0 
v 0.11034 -0.00207234 0 
v 0.111045 -0.00994522 0 
v 0.110114 -0.00209692 0 
v 0.108201 0.00108266 0 
v 0.108094 0.000881767 0 
v 0.0926795 0 0 
v 0.00309017 -0.00951057 0 
v 0.00056181 -0.00202345 0 
v 0.00077729 -0.00195085 0 
v 0.00207912 -0.00978148 0 
v 0.000339742 -0.00207234 0 
v -0.0577607 0.0011117 0 
v -0.0550709 0.000180722 0 
v -0.000983658 0.00185538 0 
v 0.00135951 0.00160054 0 
v 0.00117849 0.00173815 0 
v 0.0020509 0.000451438 0 
v 0.00199007 0.000670533 0 
v 0.115878 -0.00809017 0 
v 0.111178 -0.00173815 0 
v 0.11136 -0.00160054 0 
v 0.115 -0.00866025 0 
v 0.0162752 -5.4781e-05 0 
v 0.0152414 -0.000218524 0 
v 0.0173205 0 0 
v 0.00587785 -0.00809017 0 
v 0.00117849 -0.00173815 0 
v 0.00135951 -0.00160054 0 
v 0.005 -0.00866025 0 
v 0.000983658 -0.00185538 0 
v 0.00406737 -0.00913545 0 
v 1.83697e-18 -0.01 0 
v -0.000113692 -0.00209692 0 
v 0.000113692 -0.00209692 0 
v -0.0559958 0.000405089 0 
v -0.100377 0.0329411 0 
v -0.00117849 0.00173815 0 
v 0.000983658 0.00185538 0 
v 0.110984 0.00185538 0 
v 0.110777 0.00195085 0 
v 0.11 -0.01 0 
v 0.108955 -0.00994522 0 
v 0.109886 -0.00209692 0 
v 0.0142303 -0.000489435 0 
v 0.00208769 -0.00022705 0 
v 0.0114427 -0.00190983 0 
v 0.0106292 -0.00256855 0 
v 0.0020509 -0.000451438 0 
v 0.00988906 -0.00330869 0 
v 0.00199007 -0.000670533 0 
v 0.00923034 -0.00412215 0 
v 0.00104528 -0.00994522 0 
v -0.00104528 -0.00994522 0 
v -0.00207912 -0.00978148 0 
v -0.000339742 -0.00207234 0 
v -0.00309017 -0.00951057 0 
v -0.00056181 -0.00202345 0 
v -0.00406737 -0.00913545 0 
v -0.00077729 -0.00195085 0 
v -0.0585849 0.00158754 0 
v -0.0173205 -1.73472e-18 0 
v -0.00208769 0.00022705 0 
v -0.0021 0 0 
v -0.0020509 0.000451438 0 
v -0.100427 0.033939 0 
v -0.00152459 0.00144417 0 
v -0.0016718 0.00127087 0 
v -0.00135951 0.00160054 0 
v 0.000113692 0.00209692 0 
v -0.000113692 0.00209692 0 
v 0.000339742 0.00207234 0 
v 0.00152459 0.00144417 0 
v 0.0017994 0.00108266 0 
v 0.0016718 0.00127087 0 
v 0.109886 0.00209692 0 
v 0.11034 0.00207234 0 
v 0.110114 0.00209692 0 
v 0.110562 0.00202345 0 
v 0.11136 0.00160054 0 
v 0.111178 0.00173815 0 
v 0.116691 -0.00743145 0 
v 0.111525 -0.00144417 0 
v 0.107921 -0.00978148 0 
v 0.10966 -0.00207234 0 
v 0.10691 -0.00951057 0 
v 0.109438 -0.00202345 0 
v 0.105933 -0.00913545 0 
v 0.109223 -0.00195085 0 
v 0.105 -0.00866025 0 
v 0.104122 -0.00809017 0 
v 0.108822 -0.00173815 0 
v 0.103309 -0.00743145 0 
v 0.10864 -0.00160054 0 
v 0.0132531 -0.000864545 0 
v 0.0123205 -0.00133975 0 
v 0.00190591 -0.000881767 0 
v 0.109223 0.00195085 0 
v 0.109016 0.00185538 0 
v 0.00669131 -0.00743145 0 
v 0.00152459 -0.00144417 0 
v -0.005 -0.00866025 0 
v -0.000983658 -0.00185538 0 
v -0.00587785 -0.00809017 0 
v -0.00117849 -0.00173815 0 
v -0.00669131 -0.00743145 0 
v -0.00135951 -0.00160054 0 
v 0.00077729 0.00195085 0 
v 0.00056181 0.00202345 0 
v 0.112088 -0.00022705 0 
v 0.141438 0.03434 0 
v 0.140862 0.0334549 0 
v 0.1121 7.71527e-19 0 
v 0.11866 -0.005 0 
v 0.111906 -0.000881767 0 
v 0.11199 -0.000670533 0 
v 0.11809 -0.00587785 0 
v 0.111672 -0.00127087 0 
v 0.111799 -0.00108266 0 
v 0.117431 -0.00669131 0 
v 0.109016 -0.00185538 0 
v 0.102569 -0.00669131 0 
v 0.108475 -0.00144417 0 
v 0.10801 -0.000670533 0 
v 0.108094 -0.000881767 0 
v 0.10077 -0.00412215 0 
v 0.107949 -0.000451438 0 
v 0.100111 -0.00330869 0 
v 0.107912 -0.00022705 0 
v 0.0993708 -0.00256855 0 
v 0.1079 0 0 
v 0.0967469 -0.000864545 0 
v 0.0957697 -0.000489435 0 
v 0.0976795 -0.00133975 0 
v 0.10801 0.000670533 0 
v 0.108822 0.00173815 0 
v 0.10966 0.00207234 0 
v 0.109438 0.00202345 0 
v 0.00809017 -0.00587785 0 
v 0.0016718 -0.00127087 0 
v 0.0017994 -0.00108266 0 
v 0.00743145 -0.00669131 0 
v -0.0017994 0.00108266 0 
v 0.111799 0.00108266 0 
v 0.111672 0.00127087 0 
v 0.112051 -0.000451438 0 
v 0.10191 -0.00587785 0 
v 0.108328 -0.00127087 0 
v 0.10134 -0.005 0 
v 0.108201 -0.00108266 0 
v 0.0985573 -0.00190983 0 
v 0.0947586 -0.000218524 0 
v 0.0937248 -5.4781e-05 0 
v 0.107949 0.000451438 0 
v 0.00866025 -0.005 0 
v 0.10864 0.00160054 0 
v -0.00743145 -0.00669131 0 
v -0.00152459 -0.00144417 0 
v -0.00199007 -0.000670533 0 
v -0.00190591 -0.000881767 0 
v -0.00923034 -0.00412215 0 
v -0.0020509 -0.000451438 0 
v -0.00988906 -0.00330869 0 
v -0.00208769 -0.00022705 0 
v -0.0106292 -0.00256855 0 
v -0.0142303 -0.000489435 0 
v -0.0152414 -0.000218524 0 
v -0.0123205 -0.00133975 0 
v 0.00190591 0.000881767 0 
v 0.111525 0.00144417 0 
v 0.112051 0.000451438 0 
v 0.11199 0.000670533 0 
v 0.112088 0.00022705 0 
v 0.107912 0.00022705 0 
v 0.108475 0.00144417 0 
v 0.108328 0.00127087 0 
v -0.00809017 -0.00587785 0 
v -0.0016718 -0.00127087 0 
v -0.00866025 -0.005 0 
v -0.0017994 -0.00108266 0 
v -0.0114427 -0.00190983 0 
v -0.0162752 -5.4781e-05 0 
v -0.0132531 -0.000864545 0 
v 0.111906 0.000881767 0 
vn 0 0 -1 
vn 0 0 -1 
vn 0 0 -1 
vn 0 0 -1 
vn 0 0 -1 
vn 0 0 -1 
vn 0 0 -1 
vn 0 0 -1 
vn 0 0 -1 
vn 0 0 -1 
vn 0 0 -1 
vn 0 0 -1 
vn 0 0 -1 
vn 0 0 -1 
vn 0 0 -1 
vn 0 0 -1 
vn 0 0 -1 
vn 0 0 -1 
vn 0 0 -1 
vn 0 0 -1 
vn 0 0 -1 
vn 0 0 -1 
vn 0 0 -1 
vn 0 0 -1 
vn 0 0 -1 
vn 0 0 -1 
vn 0 0 -1 
vn 0 0 -1 
vn 0 0 -1 
vn 0 0 -1 
vn 0 0 -1 
vn 0 0 -1 
vn 0 0 -1 
vn 0 0 -1 
vn 0 0 -1 
vn 0 0 -1 
vn 0 0 -1 
vn 0 0 -1 
vn 0 0 -1 
vn 0 0 -1 
vn 0 0 -1 
vn 0 0 -1 
vn 0 0 -1 
vn 0 0 -1 
vn 0 0 -1 
vn 0 0 -1 
vn 0 0 -1 
vn 0 0 -1 
vn 0 0 -1 
vn 0 0 -1 
vn 0 0 -1 
vn 0 0 -1 
vn 0 0 -1 
vn 0 0 -1 
vn 0 0 -1 
vn 0 0 -1 
vn 0 0 -1 
vn 0 0 -1 
vn 0 0 -1 
vn 0 0 -1 
vn 0 0 -1 
vn 0 0 -1 
vn 0 0 -1 
vn 0 0 -1 
vn 0 0 -1 
vn 0 0 -1 
vn 0 0 -1 
vn 0 0 -1 
vn 0 0 -1 
vn 0 0 -1 
vn 0 0 -1 
vn 0 0 -1 
vn 0 0 -1 
vn 0 0 -1 
vn 0 0 -1 
vn 0 0 -1 
vn 0 0 -1 
vn 0 0 -1 
vn 0 0 -1 
vn 0 0 -1 
vn 0 0 -1 
vn 0 0 -1 
vn 0 0 -1 
vn 0 0 -1 
vn 0 0 -1 
vn 0 0 -1 
vn 0 0 -1 
vn 0 0 -1 
vn 0 0 -1 
vn 0 0 -1 
vn 0 0 -1 
vn 0 0 -1 
vn 0 0 -1 
vn 0 0 -1 
vn 0 0 -1 
vn 0 0 -1 
vn 0 0 -1 
vn 0 0 -1 
vn 0 0 -1 
vn 0 0 -1 
vn 0 0 -1 
vn 0 0 -1 
vn 0 0 -1 
vn 0 0 -1 
vn 0 0 -1 
vn 0 0 -1 
vn 0 0 -1 
vn 0 0 -1 
vn 0 0 -1 
vn 0 0 -1 
vn 0 0 -1 
vn 0 0 -1 
vn 0 0 -1 
vn 0 0 -1 
vn 0 0 -1 
vn 0 0 -1 
vn 0 0 -1 
vn 0 0 -1 
vn 0 0 -1 
vn 0 0 -1 
vn 0 0 -1 
vn 0 0 -1 
vn 0 0 -1 
vn 0 0 -1 
vn 0 0 -1 
vn 0 0 -1 
vn 0 0 -1 
vn 0 0 -1 
vn 0 0 -1 
vn 0 0 -1 
vn 0 0 -1 
vn 0 0 -1 
vn 0 0 -1 
vn 0 0 -1 
vn 0 0 -1 
vn 0 0 -1 
vn 0 0 -1 
vn 0 0 -1 
vn 0 0 -1 
vn 0 0 -1 
vn 0 0 -1 
vn 0 0 -1 
vn 0 0 -1 
vn 0 0 -1 
vn 0 0 -1 
vn 0 0 -1 
vn 0 0 -1 
vn 0 0 -1 
vn 0 0 -1 
vn 0 0 -1 
vn 0 0 -1 
vn 0 0 -1 
vn 0 0 -1 
vn 0 0 -1 
vn 0 0 -1 
vn 0 0 -1 
vn 0 0 -1 
vn 0 0 -1 
vn 0 0 -1 
vn 0 0 -1 
vn 0 0 -1 
vn 0 0 -1 
vn 0 0 -1 
vn 0 0 -1 
vn 0 0 -1 
vn 0 0 -1 
vn 0 0 -1 
vn 0 0 -1 
vn 0 0 -1 
vn 0 0 -1 
vn 0 0 -1 
vn 0 0 -1 
vn 0 0 -1 
vn 0 0 -1 
vn 0 0 -1 
vn 0 0 -1 
vn 0 0 -1 
vn 0 0 -1 
vn 0 0 -1 
vn 0 0 -1 
vn 0 0 -1 
vn 0 0 -1 
vn 0 0 -1 
vn 0 0 -1 
vn 0 0 -1 
vn 0 0 -1 
vn 0 0 -1 
vn 0 0 -1 
vn 0 0 -1 
vn 0 0 -1 
vn 0 0 -1 
vn 0 0 -1 
vn 0 0 -1 
vn 0 0 -1 
vn 0 0 -1 
vn 0 0 -1 
vn 0 0 -1 
vn 0 0 -1 
vn 0 0 -1 
vn 0 0 -1 
vn 0 0 -1 
vn 0 0 -1 
vn 0 0 -1 
vn 0 0 -1 
vn 0 0 -1 
vn 0 0 -1 
vn 0 0 -1 
vn 0 0 -1 
vn 0 0 -1 
vn 0 0 -1 
vn 0 0 -1 
vn 0 0 -1 
vn 0 0 -1 
vn 0 0 -1 
vn 0 0 -1 
vn 0 0 -1 
vn 0 0 -1 
vn 0 0 -1 
vn 0 0 -1 
vn 0 0 -1 
vn 0 0 -1 
vn 0 0 -1 
vn 0 0 -1 
vn 0 0 -1 
vn 0 0 -1 
vn 0 0 -1 
vn 0 0 -1 
vn 0 0 -1 
vn 0 0 -1 
vn 0 0 -1 
vn 0 0 -1 
vn 0 0 -1 
vn 0 0 -1 
vn 0 0 -1 
vn 0 0 -1 
vn 0 0 -1 
vn 0 0 -1 
vn 0 0 -1 
vn 0 0 -1 
f 356//356 357//357 358//358 
f 356//356 359//359 360//360 
f 361//361 362//362 363//363 
f 358//358 364//364 356//356 
f 360//360 365//365 356//356 
f 361//361 366//366 367//367 
f 361//361 368//368 362//362 
f 361//361 369//369 370//370 
f 361//361 356//356 371//371 
f 365//365 357//357 356//356 
f 356//356 361//361 372//372 
f 361//361 373//373 374//374 
f 361//361 375//375 376//376 
f 363//363 366//366 361//361 
f 371//371 369//369 361//361 
f 372//372 359//359 356//356 
f 376//376 373//373 361//361 
f 361//361 377//377 378//378 
f 361//361 379//379 368//368 
f 364//364 380//380 356//356 
f 381//381 382//382 383//383 
f 381//381 384//384 385//385 
f 378//378 375//375 361//361 
f 370//370 379//379 361//361 
f 381//381 386//386 382//382 
f 381//381 387//387 384//384 
f 381//381 388//388 389//389 
f 381//381 390//390 391//391 
f 392//392 393//393 394//394 
f 361//361 395//395 396//396 
f 367//367 377//377 361//361 
f 397//397 398//398 399//399 
f 385//385 386//386 381//381 
f 391//391 388//388 381//381 
f 394//394 400//400 392//392 
f 401//401 402//402 403//403 
f 404//404 405//405 402//402 
f 374//374 395//395 361//361 
f 406//406 407//407 408//408 
f 409//409 410//410 407//407 
f 411//411 412//412 410//410 
f 413//413 414//414 412//412 
f 415//415 416//416 417//417 
f 418//418 419//419 420//420 
f 421//421 422//422 419//419 
f 398//398 397//397 423//423 
f 399//399 424//424 397//397 
f 389//389 387//387 381//381 
f 400//400 425//425 392//392 
f 361//361 426//426 427//427 
f 361//361 428//428 429//429 
f 402//402 401//401 404//404 
f 396//396 404//404 361//361 
f 430//430 431//431 432//432 
f 433//433 408//408 431//431 
f 407//407 406//406 409//409 
f 412//412 411//411 413//413 
f 401//401 434//434 435//435 
f 417//417 436//436 415//415 
f 437//437 438//438 439//439 
f 440//440 441//441 438//438 
f 442//442 420//420 441//441 
f 419//419 418//418 421//421 
f 443//443 444//444 445//445 
f 424//424 446//446 397//397 
f 383//383 447//447 381//381 
f 425//425 448//448 392//392 
f 427//427 449//449 361//361 
f 361//361 404//404 428//428 
f 396//396 405//405 404//404 
f 403//403 450//450 451//451 
f 431//431 430//430 433//433 
f 410//410 409//409 411//411 
f 452//452 453//453 454//454 
f 435//435 455//455 401//401 
f 436//436 401//401 415//415 
f 456//456 457//457 458//458 
f 459//459 458//458 460//460 
f 461//461 460//460 462//462 
f 438//438 437//437 440//440 
f 420//420 442//442 418//418 
f 445//445 463//463 443//443 
f 464//464 465//465 466//466 
f 465//465 467//467 468//468 
f 467//467 469//469 470//470 
f 471//471 472//472 398//398 
f 473//473 474//474 472//472 
f 475//475 473//473 471//471 
f 447//447 476//476 381//381 
f 392//392 477//477 478//478 
f 448//448 479//479 392//392 
f 392//392 480//480 481//481 
f 392//392 361//361 482//482 
f 361//361 483//483 426//426 
f 361//361 484//484 485//485 
f 403//403 486//486 401//401 
f 403//403 487//487 488//488 
f 451//451 489//489 403//403 
f 403//403 490//490 491//491 
f 492//492 432//432 493//493 
f 408//408 433//433 406//406 
f 414//414 413//413 452//452 
f 453//453 494//494 495//495 
f 494//494 496//496 497//497 
f 496//496 498//498 499//499 
f 500//500 501//501 502//502 
f 501//501 503//503 504//504 
f 401//401 505//505 506//506 
f 436//436 434//434 401//401 
f 456//456 506//506 457//457 
f 462//462 507//507 461//461 
f 401//401 508//508 509//509 
f 510//510 439//439 511//511 
f 441//441 440//440 442//442 
f 463//463 445//445 422//422 
f 466//466 444//444 464//464 
f 470//470 468//468 467//467 
f 469//469 512//512 513//513 
f 512//512 514//514 515//515 
f 514//514 516//516 517//517 
f 472//472 471//471 473//473 
f 390//390 475//475 391//391 
f 479//479 477//477 392//392 
f 482//482 480//480 392//392 
f 361//361 518//518 519//519 
f 485//485 483//483 361//361 
f 488//488 486//486 403//403 
f 491//491 450//450 403//403 
f 520//520 521//521 522//522 
f 523//523 403//403 521//521 
f 524//524 525//525 526//526 
f 527//527 528//528 529//529 
f 530//530 493//493 528//528 
f 432//432 492//492 430//430 
f 495//495 454//454 453//453 
f 499//499 497//497 496//496 
f 498//498 500//500 531//531 
f 504//504 502//502 501//501 
f 503//503 532//532 533//533 
f 534//534 535//535 536//536 
f 537//537 534//534 538//538 
f 539//539 537//537 540//540 
f 541//541 542//542 543//543 
f 541//541 539//539 544//544 
f 417//417 416//416 545//545 
f 455//455 505//505 401//401 
f 460//460 461//461 459//459 
f 509//509 546//546 401//401 
f 401//401 547//547 548//548 
f 549//549 550//550 551//551 
f 552//552 511//511 550//550 
f 439//439 510//510 437//437 
f 443//443 464//464 444//444 
f 513//513 470//470 469//469 
f 517//517 515//515 514//514 
f 471//471 391//391 475//475 
f 553//553 381//381 476//476 
f 481//481 393//393 392//392 
f 449//449 518//518 361//361 
f 489//489 487//487 403//403 
f 403//403 554//554 555//555 
f 521//521 520//520 523//523 
f 526//526 556//556 524//524 
f 528//528 527//527 530//530 
f 454//454 414//414 452//452 
f 531//531 499//499 498//498 
f 533//533 504//504 503//503 
f 532//532 557//557 558//558 
f 557//557 559//559 560//560 
f 538//538 540//540 537//537 
f 540//540 561//561 539//539 
f 541//541 562//562 563//563 
f 544//544 542//542 541//541 
f 545//545 564//564 417//417 
f 458//458 459//459 456//456 
f 565//565 551//551 507//507 
f 546//546 566//566 401//401 
f 401//401 486//486 547//547 
f 550//550 549//549 552//552 
f 422//422 421//421 463//463 
f 515//515 513//513 512//512 
f 516//516 567//567 568//568 
f 569//569 570//570 571//571 
f 572//572 569//569 573//573 
f 574//574 572//572 575//575 
f 474//474 576//576 577//577 
f 474//474 574//574 578//578 
f 476//476 392//392 553//553 
f 519//519 482//482 361//361 
f 429//429 579//579 361//361 
f 555//555 580//580 403//403 
f 403//403 581//581 582//582 
f 403//403 523//523 583//583 
f 556//556 520//520 524//524 
f 493//493 530//530 492//492 
f 502//502 531//531 500//500 
f 560//560 558//558 557//557 
f 559//559 536//536 535//535 
f 561//561 544//544 539//539 
f 543//543 562//562 541//541 
f 564//564 584//584 417//417 
f 507//507 462//462 565//565 
f 401//401 585//585 586//586 
f 548//548 508//508 401//401 
f 511//511 552//552 510//510 
f 568//568 517//517 516//516 
f 567//567 587//587 588//588 
f 587//587 589//589 590//590 
f 573//573 575//575 572//572 
f 575//575 591//591 574//574 
f 577//577 592//592 474//474 
f 578//578 593//593 474//474 
f 478//478 553//553 392//392 
f 580//580 490//490 403//403 
f 583//583 581//581 403//403 
f 524//524 529//529 525//525 
f 497//497 495//495 494//494 
f 535//535 560//560 559//559 
f 563//563 417//417 541//541 
f 506//506 456//456 401//401 
f 566//566 585//585 401//401 
f 468//468 466//466 465//465 
f 590//590 588//588 587//587 
f 591//591 578//578 574//574 
f 593//593 576//576 474//474 
f 579//579 484//484 361//361 
f 582//582 594//594 403//403 
f 529//529 524//524 527//527 
f 536//536 538//538 534//534 
f 586//586 415//415 401//401 
f 588//588 568//568 567//567 
f 589//589 571//571 570//570 
f 592//592 472//472 474//474 
f 594//594 554//554 403//403 
f 558//558 533//533 532//532 
f 551//551 565//565 549//549 
f 571//571 573//573 569//569 
f 522//522 524//524 520//520 
f 570//570 590//590 589//589 
f 584//584 541//541 417//417 
f 423//423 471//471 398//398 
o mesh75
v 0.10077 -0.00412215 0 
v 0.10134 -0.005 0 
v 0.10134 -0.005 0.003 
v 0.100111 -0.00330869 0 
v 0.10077 -0.00412215 0.003 
v 0.0993708 -0.00256855 0 
v 0.100111 -0.00330869 0.003 
v 0.0985573 -0.00190983 0 
v 0.0993708 -0.00256855 0.003 
v 0.0976795 -0.00133975 0 
v 0.0985573 -0.00190983 0.003 
v 0.0967469 -0.000864545 0 
v 0.0976795 -0.00133975 0.003 
v 0.0957697 -0.000489435 0 
v 0.0967469 -0.000864545 0.003 
v 0.0947586 -0.000218524 0 
v 0.0957697 -0.000489435 0.003 
v 0.0937248 -5.4781e-05 0 
v 0.0947586 -0.000218524 0.003 
v 0.0926795 0 0 
v 0.0937248 -5.4781e-05 0.003 
v 0.0926795 0 0.003 
vn -0.809017 -0.587785 0 
vn -0.866025 -0.5 0 
vn -0.866025 -0.5 0 
vn -0.743145 -0.669131 0 
vn -0.809017 -0.587785 0 
vn -0.669131 -0.743145 0 
vn -0.743145 -0.669131 0 
vn -0.587785 -0.809017 0 
vn -0.669131 -0.743145 0 
vn -0.5 -0.866025 0 
vn -0.587785 -0.809017 0 
vn -0.406737 -0.913545 0 
vn -0.5 -0.866025 0 
vn -0.309017 -0.951057 0 
vn -0.406737 -0.913545 0 
vn -0.207912 -0.978148 0 
vn -0.309017 -0.951057 0 
vn -0.104528 -0.994522 0 
vn -0.207912 -0.978148 0 
vn 6.12323e-17 -1 0 
vn -0.104528 -0.994522 0 
vn 6.12323e-17 -1 0 
f 595//595 596//596 597//597 
f 598//598 595//595 599//599 
f 600//600 598//598 601//601 
f 602//602 600//600 603//603 
f 604//604 602//602 605//605 
f 606//606 604//604 607//607 
f 608//608 606//606 609//609 
f 610//610 608//608 611//611 
f 612//612 610//610 613//613 
f 614//614 612//612 615//615 
f 615//615 616//616 614//614 
f 613//613 615//615 612//612 
f 611//611 613//613 610//610 
f 609//609 611//611 608//608 
f 607//607 609//609 606//606 
f 605//605 607//607 604//604 
f 603//603 605//605 602//602 
f 601//601 603//603 600//600 
f 599//599 601//601 598//598 
f 597//597 599//599 595//595 
o mesh76
v 0.11866 -0.005 0 
v 0.11866 -0.005 0.003 
v 0.11809 -0.00587785 0.003 
v 0.11809 -0.00587785 0 
v 0.117431 -0.00669131 0.003 
v 0.117431 -0.00669131 0 
v 0.116691 -0.00743145 0.003 
v 0.116691 -0.00743145 0 
v 0.115878 -0.00809017 0.003 
v 0.115878 -0.00809017 0 
v 0.115 -0.00866025 0.003 
v 0.115 -0.00866025 0 
v 0.114067 -0.00913545 0.003 
v 0.114067 -0.00913545 0 
v 0.11309 -0.00951057 0.003 
v 0.11309 -0.00951057 0 
v 0.112079 -0.00978148 0.003 
v 0.112079 -0.00978148 0 
v 0.111045 -0.00994522 0.003 
v 0.111045 -0.00994522 0 
v 0.11 -0.01 0.003 
v 0.11 -0.01 0 
v 0.108955 -0.00994522 0.003 
v 0.108955 -0.00994522 0 
v 0.107921 -0.00978148 0.003 
v 0.107921 -0.00978148 0 
v 0.10691 -0.00951057 0.003 
v 0.10691 -0.00951057 0 
v 0.105933 -0.00913545 0.003 
v 0.105933 -0.00913545 0 
v 0.105 -0.00866025 0.003 
v 0.105 -0.00866025 0 
v 0.104122 -0.00809017 0.003 
v 0.104122 -0.00809017 0 
v 0.103309 -0.00743145 0.003 
v 0.103309 -0.00743145 0 
v 0.102569 -0.00669131 0.003 
v 0.102569 -0.00669131 0 
v 0.10191 -0.00587785 0.003 
v 0.10191 -0.00587785 0 
v 0.10134 -0.005 0.003 
v 0.10134 -0.005 0 
vn 0.866025 -0.5 0 
vn 0.866025 -0.5 0 
vn 0.809017 -0.587785 0 
vn 0.809017 -0.587785 0 
vn 0.743145 -0.669131 0 
vn 0.743145 -0.669131 0 
vn 0.669131 -0.743145 0 
vn 0.669131 -0.743145 0 
vn 0.587785 -0.809017 0 
vn 0.587785 -0.809017 0 
vn 0.5 -0.866025 0 
vn 0.5 -0.866025 0 
vn 0.406737 -0.913545 0 
vn 0.406737 -0.913545 0 
vn 0.309017 -0.951057 0 
vn 0.309017 -0.951057 0 
vn 0.207912 -0.978148 0 
vn 0.207912 -0.978148 0 
vn 0.104528 -0.994522 0 
vn 0.104528 -0.994522 0 
vn 1.96005e-15 -1 0 
vn 1.96005e-15 -1 0 
vn -0.104528 -0.994522 0 
vn -0.104528 -0.994522 0 
vn -0.207912 -0.978148 0 
vn -0.207912 -0.978148 0 
vn -0.309017 -0.951057 0 
vn -0.309017 -0.951057 0 
vn -0.406737 -0.913545 0 
vn -0.406737 -0.913545 0 
vn -0.5 -0.866025 0 
vn -0.5 -0.866025 0 
vn -0.587785 -0.809017 0 
vn -0.587785 -0.809017 0 
vn -0.669131 -0.743145 0 
vn -0.669131 -0.743145 0 
vn -0.743145 -0.669131 0 
vn -0.743145 -0.669131 0 
vn -0.809017 -0.587785 0 
vn -0.809017 -0.587785 0 
vn -0.866025 -0.5 0 
vn -0.866025 -0.5 0 
f 617//617 618//618 619//619 
f 620//620 619//619 621//621 
f 622//622 621//621 623//623 
f 624//624 623//623 625//625 
f 626//626 625//625 627//627 
f 628//628 627//627 629//629 
f 630//630 629//629 631//631 
f 632//632 631//631 633//633 
f 634//634 633//633 635//635 
f 636//636 635//635 637//637 
f 638//638 637//637 639//639 
f 640//640 639//639 641//641 
f 642//642 641//641 643//643 
f 644//644 643//643 645//645 
f 646//646 645//645 647//647 
f 648//648 647//647 649//649 
f 650//650 649//649 651//651 
f 652//652 651//651 653//653 
f 654//654 653//653 655//655 
f 656//656 655//655 657//657 
f 657//657 658//658 656//656 
f 655//655 656//656 654//654 
f 653//653 654//654 652//652 
f 651//651 652//652 650//650 
f 649//649 650//650 648//648 
f 647//647 648//648 646//646 
f 645//645 646//646 644//644 
f 643//643 644//644 642//642 
f 641//641 642//642 640//640 
f 639//639 640//640 638//638 
f 637//637 638//638 636//636 
f 635//635 636//636 634//634 
f 633//633 634//634 632//632 
f 631//631 632//632 630//630 
f 629//629 630//630 628//628 
f 627//627 628//628 626//626 
f 625//625 626//626 624//624 
f 623//623 624//624 622//622 
f 621//621 622//622 620//620 
f 619//619 620//620 617//617 
o mesh77
v 0.11866 -0.005 0.003 
v 0.11866 -0.005 0 
v 0.140862 0.0334549 0 
v 0.140862 0.0334549 0.003 
vn 0.866025 -0.5 0 
vn 0.866025 -0.5 0 
vn 0.866025 -0.5 0 
vn 0.866025 -0.5 0 
f 659//659 660//660 661//661 
f 661//661 662//662 659//659 
o mesh78
v 0.143674 0.036566 0 
v 0.144561 0.0371374 0 
v 0.144561 0.0371374 0.003 
v 0.142851 0.0359042 0 
v 0.143674 0.036566 0.003 
v 0.142103 0.0351595 0 
v 0.142851 0.0359042 0.003 
v 0.141438 0.03434 0 
v 0.142103 0.0351595 0.003 
v 0.140862 0.0334549 0 
v 0.141438 0.03434 0.003 
v 0.140862 0.0334549 0.003 
vn 0.584892 -0.811111 0 
vn 0.496128 -0.868249 0 
vn 0.496128 -0.868249 0 
vn 0.667137 -0.744935 0 
vn 0.584892 -0.811111 0 
vn 0.741949 -0.670457 0 
vn 0.667137 -0.744935 0 
vn 0.808492 -0.588507 0 
vn 0.741949 -0.670457 0 
vn 0.866025 -0.5 0 
vn 0.808492 -0.588507 0 
vn 0.866025 -0.5 0 
f 663//663 664//664 665//665 
f 666//666 663//663 667//667 
f 668//668 666//666 669//669 
f 670//670 668//668 671//671 
f 672//672 670//670 673//673 
f 673//673 674//674 672//672 
f 671//671 673//673 670//670 
f 669//669 671//671 668//668 
f 667//667 669//669 666//666 
f 665//665 667//667 663//663 
o mesh79
v 0.144561 0.0371374 0.003 
v 0.144561 0.0371374 0 
v 0.209764 0.0743953 0 
v 0.209764 0.0743953 0.003 
vn 0.496128 -0.868249 0 
vn 0.496128 -0.868249 0 
vn 0.496128 -0.868249 0 
vn 0.496128 -0.868249 0 
f 675//675 676//676 677//677 
f 677//677 678//678 675//675 
o mesh80
v 0.208276 0.08 0 
v 0.208276 0.08 0.003 
v 0.20859 0.0799835 0.003 
v 0.20859 0.0799835 0 
v 0.208901 0.0799342 0.003 
v 0.208901 0.0799342 0 
v 0.209204 0.0798527 0.003 
v 0.209204 0.0798527 0 
v 0.209498 0.0797398 0.003 
v 0.209498 0.0797398 0 
v 0.209778 0.0795967 0.003 
v 0.209778 0.0795967 0 
v 0.210042 0.0794252 0.003 
v 0.210042 0.0794252 0 
v 0.210286 0.0792269 0.003 
v 0.210286 0.0792269 0 
v 0.210508 0.0790042 0.003 
v 0.210508 0.0790042 0 
v 0.210706 0.0787595 0.003 
v 0.210706 0.0787595 0 
v 0.210877 0.0784954 0.003 
v 0.210877 0.0784954 0 
v 0.211019 0.0782148 0.003 
v 0.211019 0.0782148 0 
v 0.211131 0.0779209 0.003 
v 0.211131 0.0779209 0 
v 0.211212 0.0776169 0.003 
v 0.211212 0.0776169 0 
v 0.21126 0.0773061 0.003 
v 0.21126 0.0773061 0 
v 0.211276 0.076992 0.003 
v 0.211276 0.076992 0 
v 0.211259 0.0766779 0.003 
v 0.211259 0.0766779 0 
v 0.211208 0.0763674 0.003 
v 0.211208 0.0763674 0 
v 0.211126 0.0760638 0.003 
v 0.211126 0.0760638 0 
v 0.211012 0.0757705 0.003 
v 0.211012 0.0757705 0 
v 0.210869 0.0754907 0.003 
v 0.210869 0.0754907 0 
v 0.210696 0.0752276 0.003 
v 0.210696 0.0752276 0 
v 0.210497 0.0749839 0.003 
v 0.210497 0.0749839 0 
v 0.210274 0.0747623 0.003 
v 0.210274 0.0747623 0 
v 0.210029 0.0745654 0.003 
v 0.210029 0.0745654 0 
v 0.209764 0.0743953 0.003 
v 0.209764 0.0743953 0 
vn -6.12323e-17 1 0 
vn -6.12323e-17 1 0 
vn 0.104706 0.994503 0 
vn 0.104706 0.994503 0 
vn 0.208261 0.978073 0 
vn 0.208261 0.978073 0 
vn 0.309526 0.950891 0 
vn 0.309526 0.950891 0 
vn 0.407389 0.913255 0 
vn 0.407389 0.913255 0 
vn 0.500773 0.865579 0 
vn 0.500773 0.865579 0 
vn 0.588652 0.808387 0 
vn 0.588652 0.808387 0 
vn 0.670059 0.742308 0 
vn 0.670059 0.742308 0 
vn 0.7441 0.668068 0 
vn 0.7441 0.668068 0 
vn 0.809961 0.586484 0 
vn 0.809961 0.586484 0 
vn 0.866917 0.498453 0 
vn 0.866917 0.498453 0 
vn 0.914343 0.404941 0 
vn 0.914343 0.404941 0 
vn 0.951717 0.306978 0 
vn 0.951717 0.306978 0 
vn 0.978628 0.20564 0 
vn 0.978628 0.20564 0 
vn 0.99478 0.102042 0 
vn 0.99478 0.102042 0 
vn 0.999996 -0.00267883 0 
vn 0.999996 -0.00267883 0 
vn 0.994219 -0.10737 0 
vn 0.994219 -0.10737 0 
vn 0.977512 -0.21088 0 
vn 0.977512 -0.21088 0 
vn 0.950058 -0.312073 0 
vn 0.950058 -0.312073 0 
vn 0.91216 -0.409834 0 
vn 0.91216 -0.409834 0 
vn 0.864234 -0.50309 0 
vn 0.864234 -0.50309 0 
vn 0.806807 -0.590815 0 
vn 0.806807 -0.590815 0 
vn 0.74051 -0.672045 0 
vn 0.74051 -0.672045 0 
vn 0.666072 -0.745887 0 
vn 0.666072 -0.745887 0 
vn 0.584312 -0.811529 0 
vn 0.584312 -0.811529 0 
vn 0.496128 -0.868249 0 
vn 0.496128 -0.868249 0 
f 679//679 680//680 681//681 
f 682//682 681//681 683//683 
f 684//684 683//683 685//685 
f 686//686 685//685 687//687 
f 688//688 687//687 689//689 
f 690//690 689//689 691//691 
f 692//692 691//691 693//693 
f 694//694 693//693 695//695 
f 696//696 695//695 697//697 
f 698//698 697//697 699//699 
f 700//700 699//699 701//701 
f 702//702 701//701 703//703 
f 704//704 703//703 705//705 
f 706//706 705//705 707//707 
f 708//708 707//707 709//709 
f 710//710 709//709 711//711 
f 712//712 711//711 713//713 
f 714//714 713//713 715//715 
f 716//716 715//715 717//717 
f 718//718 717//717 719//719 
f 720//720 719//719 721//721 
f 722//722 721//721 723//723 
f 724//724 723//723 725//725 
f 726//726 725//725 727//727 
f 728//728 727//727 729//729 
f 729//729 730//730 728//728 
f 727//727 728//728 726//726 
f 725//725 726//726 724//724 
f 723//723 724//724 722//722 
f 721//721 722//722 720//720 
f 719//719 720//720 718//718 
f 717//717 718//718 716//716 
f 715//715 716//716 714//714 
f 713//713 714//714 712//712 
f 711//711 712//712 710//710 
f 709//709 710//710 708//708 
f 707//707 708//708 706//706 
f 705//705 706//706 704//704 
f 703//703 704//704 702//702 
f 701//701 702//702 700//700 
f 699//699 700//700 698//698 
f 697//697 698//698 696//696 
f 695//695 696//696 694//694 
f 693//693 694//694 692//692 
f 691//691 692//692 690//690 
f 689//689 690//690 688//688 
f 687//687 688//688 686//686 
f 685//685 686//686 684//684 
f 683//683 684//684 682//682 
f 681//681 682//682 679//679 
o mesh81
v 0.208276 0.08 0.003 
v 0.208276 0.08 0 
v -0.100427 0.08 0 
v -0.100427 0.08 0.003 
vn -8.99103e-17 1 0 
vn -8.99103e-17 1 0 
vn -8.99103e-17 1 0 
vn -8.99103e-17 1 0 
f 731//731 732//732 733//733 
f 733//733 734//734 731//731 
o mesh82
v -0.100427 0.08 0.003 
v -0.100427 0.08 0 
v -0.100427 0.033939 0 
v -0.100427 0.033939 0.003 
vn -1 0 0 
vn -1 0 0 
vn -1 0 0 
vn -1 0 0 
f 735//735 736//736 737//737 
f 737//737 738//738 735//735 
o mesh83
v -0.0958337 0.0255266 0 
v -0.0958337 0.0255266 0.003 
v -0.0966462 0.0261081 0.003 
v -0.0966462 0.0261081 0 
v -0.0973966 0.0267678 0.003 
v -0.0973966 0.0267678 0 
v -0.0980775 0.0274991 0.003 
v -0.0980775 0.0274991 0 
v -0.0986819 0.0282947 0.003 
v -0.0986819 0.0282947 0 
v -0.099204 0.0291466 0.003 
v -0.099204 0.0291466 0 
v -0.0996384 0.0300464 0.003 
v -0.0996384 0.0300464 0 
v -0.0999809 0.030985 0.003 
v -0.0999809 0.030985 0 
v -0.100228 0.0319532 0.003 
v -0.100228 0.0319532 0 
v -0.100377 0.0329411 0.003 
v -0.100377 0.0329411 0 
v -0.100427 0.033939 0.003 
v -0.100427 0.033939 0 
vn -0.540652 -0.841246 0 
vn -0.540652 -0.841246 0 
vn -0.621903 -0.783094 0 
vn -0.621903 -0.783094 0 
vn -0.696945 -0.717124 0 
vn -0.696945 -0.717124 0 
vn -0.76503 -0.643995 0 
vn -0.76503 -0.643995 0 
vn -0.825476 -0.564437 0 
vn -0.825476 -0.564437 0 
vn -0.877682 -0.479243 0 
vn -0.877682 -0.479243 0 
vn -0.921126 -0.389265 0 
vn -0.921126 -0.389265 0 
vn -0.955373 -0.295401 0 
vn -0.955373 -0.295401 0 
vn -0.980083 -0.198588 0 
vn -0.980083 -0.198588 0 
vn -0.995008 -0.099792 0 
vn -0.995008 -0.099792 0 
vn -1 -2.44929e-16 0 
vn -1 -2.44929e-16 0 
f 739//739 740//740 741//741 
f 742//742 741//741 743//743 
f 744//744 743//743 745//745 
f 746//746 745//745 747//747 
f 748//748 747//747 749//749 
f 750//750 749//749 751//751 
f 752//752 751//751 753//753 
f 754//754 753//753 755//755 
f 756//756 755//755 757//757 
f 758//758 757//757 759//759 
f 759//759 760//760 758//758 
f 757//757 758//758 756//756 
f 755//755 756//756 754//754 
f 753//753 754//754 752//752 
f 751//751 752//752 750//750 
f 749//749 750//750 748//748 
f 747//747 748//748 746//746 
f 745//745 746//746 744//744 
f 743//743 744//744 742//742 
f 741//741 742//742 739//739 
o mesh84
v -0.0958337 0.0255266 0 
v -0.0585849 0.00158754 0 
v -0.0585849 0.00158754 0.003 
v -0.0958337 0.0255266 0.003 
vn -0.540652 -0.841246 0 
vn -0.540652 -0.841246 0 
vn -0.540652 -0.841246 0 
vn -0.540652 -0.841246 0 
f 761//761 762//762 763//763 
f 763//763 764//764 761//761 
o mesh85
v -0.0531784 -4.39132e-18 0 
v -0.0531784 -4.39132e-18 0.003 
v -0.054129 4.52829e-05 0.003 
v -0.054129 4.52829e-05 0 
v -0.0550709 0.000180722 0.003 
v -0.0550709 0.000180722 0 
v -0.0559958 0.000405089 0.003 
v -0.0559958 0.000405089 0 
v -0.0568951 0.000716354 0.003 
v -0.0568951 0.000716354 0 
v -0.0577607 0.0011117 0.003 
v -0.0577607 0.0011117 0 
v -0.0585849 0.00158754 0.003 
v -0.0585849 0.00158754 0 
vn 1.83697e-16 -1 0 
vn 1.83697e-16 -1 0 
vn -0.0950583 -0.995472 0 
vn -0.0950583 -0.995472 0 
vn -0.189256 -0.981928 0 
vn -0.189256 -0.981928 0 
vn -0.281739 -0.959491 0 
vn -0.281739 -0.959491 0 
vn -0.371671 -0.928365 0 
vn -0.371671 -0.928365 0 
vn -0.458236 -0.88883 0 
vn -0.458236 -0.88883 0 
vn -0.540652 -0.841246 0 
vn -0.540652 -0.841246 0 
f 765//765 766//766 767//767 
f 768//768 767//767 769//769 
f 770//770 769//769 771//771 
f 772//772 771//771 773//773 
f 774//774 773//773 775//775 
f 776//776 775//775 777//777 
f 777//777 778//778 776//776 
f 775//775 776//776 774//774 
f 773//773 774//774 772//772 
f 771//771 772//772 770//770 
f 769//769 770//770 768//768 
f 767//767 768//768 765//765 
o mesh86
v -0.0531784 -4.39132e-18 0.003 
v -0.0531784 -4.39132e-18 0 
v -0.0173205 -1.73472e-18 0 
v -0.0173205 -1.73472e-18 0.003 
vn 1.22465e-16 -1 0 
vn 1.22465e-16 -1 0 
vn 1.22465e-16 -1 0 
vn 1.22465e-16 -1 0 
f 779//779 780//780 781//781 
f 781//781 782//782 779//779 
o mesh87
v -0.00923034 -0.00412215 0 
v -0.00866025 -0.005 0 
v -0.00866025 -0.005 0.003 
v -0.00988906 -0.00330869 0 
v -0.00923034 -0.00412215 0.003 
v -0.0106292 -0.00256855 0 
v -0.00988906 -0.00330869 0.003 
v -0.0114427 -0.00190983 0 
v -0.0106292 -0.00256855 0.003 
v -0.0123205 -0.00133975 0 
v -0.0114427 -0.00190983 0.003 
v -0.0132531 -0.000864545 0 
v -0.0123205 -0.00133975 0.003 
v -0.0142303 -0.000489435 0 
v -0.0132531 -0.000864545 0.003 
v -0.0152414 -0.000218524 0 
v -0.0142303 -0.000489435 0.003 
v -0.0162752 -5.4781e-05 0 
v -0.0152414 -0.000218524 0.003 
v -0.0173205 -1.73472e-18 0 
v -0.0162752 -5.4781e-05 0.003 
v -0.0173205 -1.73472e-18 0.003 
vn -0.809017 -0.587785 0 
vn -0.866025 -0.5 0 
vn -0.866025 -0.5 0 
vn -0.743145 -0.669131 0 
vn -0.809017 -0.587785 0 
vn -0.669131 -0.743145 0 
vn -0.743145 -0.669131 0 
vn -0.587785 -0.809017 0 
vn -0.669131 -0.743145 0 
vn -0.5 -0.866025 0 
vn -0.587785 -0.809017 0 
vn -0.406737 -0.913545 0 
vn -0.5 -0.866025 0 
vn -0.309017 -0.951057 0 
vn -0.406737 -0.913545 0 
vn -0.207912 -0.978148 0 
vn -0.309017 -0.951057 0 
vn -0.104528 -0.994522 0 
vn -0.207912 -0.978148 0 
vn 6.12323e-17 -1 0 
vn -0.104528 -0.994522 0 
vn 6.12323e-17 -1 0 
f 783//783 784//784 785//785 
f 786//786 783//783 787//787 
f 788//788 786//786 789//789 
f 790//790 788//788 791//791 
f 792//792 790//790 793//793 
f 794//794 792//792 795//795 
f 796//796 794//794 797//797 
f 798//798 796//796 799//799 
f 800//800 798//798 801//801 
f 802//802 800//800 803//803 
f 803//803 804//804 802//802 
f 801//801 803//803 800//800 
f 799//799 801//801 798//798 
f 797//797 799//799 796//796 
f 795//795 797//797 794//794 
f 793//793 795//795 792//792 
f 791//791 793//793 790//790 
f 789//789 791//791 788//788 
f 787//787 789//789 786//786 
f 785//785 787//787 783//783 
o mesh88
v 0.00866025 -0.005 0 
v 0.00866025 -0.005 0.003 
v 0.00809017 -0.00587785 0.003 
v 0.00809017 -0.00587785 0 
v 0.00743145 -0.00669131 0.003 
v 0.00743145 -0.00669131 0 
v 0.00669131 -0.00743145 0.003 
v 0.00669131 -0.00743145 0 
v 0.00587785 -0.00809017 0.003 
v 0.00587785 -0.00809017 0 
v 0.005 -0.00866025 0.003 
v 0.005 -0.00866025 0 
v 0.00406737 -0.00913545 0.003 
v 0.00406737 -0.00913545 0 
v 0.00309017 -0.00951057 0.003 
v 0.00309017 -0.00951057 0 
v 0.00207912 -0.00978148 0.003 
v 0.00207912 -0.00978148 0 
v 0.00104528 -0.00994522 0.003 
v 0.00104528 -0.00994522 0 
v 1.83697e-18 -0.01 0.003 
v 1.83697e-18 -0.01 0 
v -0.00104528 -0.00994522 0.003 
v -0.00104528 -0.00994522 0 
v -0.00207912 -0.00978148 0.003 
v -0.00207912 -0.00978148 0 
v -0.00309017 -0.00951057 0.003 
v -0.00309017 -0.00951057 0 
v -0.00406737 -0.00913545 0.003 
v -0.00406737 -0.00913545 0 
v -0.005 -0.00866025 0.003 
v -0.005 -0.00866025 0 
v -0.00587785 -0.00809017 0.003 
v -0.00587785 -0.00809017 0 
v -0.00669131 -0.00743145 0.003 
v -0.00669131 -0.00743145 0 
v -0.00743145 -0.00669131 0.003 
v -0.00743145 -0.00669131 0 
v -0.00809017 -0.00587785 0.003 
v -0.00809017 -0.00587785 0 
v -0.00866025 -0.005 0.003 
v -0.00866025 -0.005 0 
vn 0.866025 -0.5 0 
vn 0.866025 -0.5 0 
vn 0.809017 -0.587785 0 
vn 0.809017 -0.587785 0 
vn 0.743145 -0.669131 0 
vn 0.743145 -0.669131 0 
vn 0.669131 -0.743145 0 
vn 0.669131 -0.743145 0 
vn 0.587785 -0.809017 0 
vn 0.587785 -0.809017 0 
vn 0.5 -0.866025 0 
vn 0.5 -0.866025 0 
vn 0.406737 -0.913545 0 
vn 0.406737 -0.913545 0 
vn 0.309017 -0.951057 0 
vn 0.309017 -0.951057 0 
vn 0.207912 -0.978148 0 
vn 0.207912 -0.978148 0 
vn 0.104528 -0.994522 0 
vn 0.104528 -0.994522 0 
vn 1.83697e-16 -1 0 
vn 1.83697e-16 -1 0 
vn -0.104528 -0.994522 0 
vn -0.104528 -0.994522 0 
vn -0.207912 -0.978148 0 
vn -0.207912 -0.978148 0 
vn -0.309017 -0.951057 0 
vn -0.309017 -0.951057 0 
vn -0.406737 -0.913545 0 
vn -0.406737 -0.913545 0 
vn -0.5 -0.866025 0 
vn -0.5 -0.866025 0 
vn -0.587785 -0.809017 0 
vn -0.587785 -0.809017 0 
vn -0.669131 -0.743145 0 
vn -0.669131 -0.743145 0 
vn -0.743145 -0.669131 0 
vn -0.743145 -0.669131 0 
vn -0.809017 -0.587785 0 
vn -0.809017 -0.587785 0 
vn -0.866025 -0.5 0 
vn -0.866025 -0.5 0 
f 805//805 806//806 807//807 
f 808//808 807//807 809//809 
f 810//810 809//809 811//811 
f 812//812 811//811 813//813 
f 814//814 813//813 815//815 
f 816//816 815//815 817//817 
f 818//818 817//817 819//819 
f 820//820 819//819 821//821 
f 822//822 821//821 823//823 
f 824//824 823//823 825//825 
f 826//826 825//825 827//827 
f 828//828 827//827 829//829 
f 830//830 829//829 831//831 
f 832//832 831//831 833//833 
f 834//834 833//833 835//835 
f 836//836 835//835 837//837 
f 838//838 837//837 839//839 
f 840//840 839//839 841//841 
f 842//842 841//841 843//843 
f 844//844 843//843 845//845 
f 845//845 846//846 844//844 
f 843//843 844//844 842//842 
f 841//841 842//842 840//840 
f 839//839 840//840 838//838 
f 837//837 838//838 836//836 
f 835//835 836//836 834//834 
f 833//833 834//834 832//832 
f 831//831 832//832 830//830 
f 829//829 830//830 828//828 
f 827//827 828//828 826//826 
f 825//825 826//826 824//824 
f 823//823 824//824 822//822 
f 821//821 822//822 820//820 
f 819//819 820//820 818//818 
f 817//817 818//818 816//816 
f 815//815 816//816 814//814 
f 813//813 814//814 812//812 
f 811//811 812//812 810//810 
f 809//809 810//810 808//808 
f 807//807 808//808 805//805 
o mesh89
v 0.0162752 -5.4781e-05 0 
v 0.0173205 0 0 
v 0.0173205 0 0.003 
v 0.0152414 -0.000218524 0 
v 0.0162752 -5.4781e-05 0.003 
v 0.0142303 -0.000489435 0 
v 0.0152414 -0.000218524 0.003 
v 0.0132531 -0.000864545 0 
v 0.0142303 -0.000489435 0.003 
v 0.0123205 -0.00133975 0 
v 0.0132531 -0.000864545 0.003 
v 0.0114427 -0.00190983 0 
v 0.0123205 -0.00133975 0.003 
v 0.0106292 -0.00256855 0 
v 0.0114427 -0.00190983 0.003 
v 0.00988906 -0.00330869 0 
v 0.0106292 -0.00256855 0.003 
v 0.00923034 -0.00412215 0 
v 0.00988906 -0.00330869 0.003 
v 0.00866025 -0.005 0 
v 0.00923034 -0.00412215 0.003 
v 0.00866025 -0.005 0.003 
vn 0.104528 -0.994522 0 
vn 6.12323e-17 -1 0 
vn 6.12323e-17 -1 0 
vn 0.207912 -0.978148 0 
vn 0.104528 -0.994522 0 
vn 0.309017 -0.951057 0 
vn 0.207912 -0.978148 0 
vn 0.406737 -0.913545 0 
vn 0.309017 -0.951057 0 
vn 0.5 -0.866025 0 
vn 0.406737 -0.913545 0 
vn 0.587785 -0.809017 0 
vn 0.5 -0.866025 0 
vn 0.669131 -0.743145 0 
vn 0.587785 -0.809017 0 
vn 0.743145 -0.669131 0 
vn 0.669131 -0.743145 0 
vn 0.809017 -0.587785 0 
vn 0.743145 -0.669131 0 
vn 0.866025 -0.5 0 
vn 0.809017 -0.587785 0 
vn 0.866025 -0.5 0 
f 847//847 848//848 849//849 
f 850//850 847//847 851//851 
f 852//852 850//850 853//853 
f 854//854 852//852 855//855 
f 856//856 854//854 857//857 
f 858//858 856//856 859//859 
f 860//860 858//858 861//861 
f 862//862 860//860 863//863 
f 864//864 862//862 865//865 
f 866//866 864//864 867//867 
f 867//867 868//868 866//866 
f 865//865 867//867 864//864 
f 863//863 865//865 862//862 
f 861//861 863//863 860//860 
f 859//859 861//861 858//858 
f 857//857 859//859 856//856 
f 855//855 857//857 854//854 
f 853//853 855//855 852//852 
f 851//851 853//853 850//850 
f 849//849 851//851 847//847 
o mesh90
v 0.0173205 0 0.003 
v 0.0173205 0 0 
v 0.0926795 0 0 
v 0.0926795 0 0.003 
vn 0 -1 0 
vn 0 -1 0 
vn 0 -1 0 
vn 0 -1 0 
f 869//869 870//870 871//871 
f 871//871 872//872 869//869 
o mesh91
v 0.107912 -0.00022705 0 
v 0.1079 0 0 
v 0.1079 0 0.003 
v 0.107949 -0.000451438 0 
v 0.107912 -0.00022705 0.003 
v 0.10801 -0.000670533 0 
v 0.107949 -0.000451438 0.003 
v 0.108094 -0.000881767 0 
v 0.10801 -0.000670533 0.003 
v 0.108201 -0.00108266 0 
v 0.108094 -0.000881767 0.003 
v 0.108328 -0.00127087 0 
v 0.108201 -0.00108266 0.003 
v 0.108475 -0.00144417 0 
v 0.108328 -0.00127087 0.003 
v 0.10864 -0.00160054 0 
v 0.108475 -0.00144417 0.003 
v 0.108822 -0.00173815 0 
v 0.10864 -0.00160054 0.003 
v 0.109016 -0.00185538 0 
v 0.108822 -0.00173815 0.003 
v 0.109223 -0.00195085 0 
v 0.109016 -0.00185538 0.003 
v 0.109438 -0.00202345 0 
v 0.109223 -0.00195085 0.003 
v 0.10966 -0.00207234 0 
v 0.109438 -0.00202345 0.003 
v 0.109886 -0.00209692 0 
v 0.10966 -0.00207234 0.003 
v 0.110114 -0.00209692 0 
v 0.109886 -0.00209692 0.003 
v 0.11034 -0.00207234 0 
v 0.110114 -0.00209692 0.003 
v 0.110562 -0.00202345 0 
v 0.11034 -0.00207234 0.003 
v 0.110777 -0.00195085 0 
v 0.110562 -0.00202345 0.003 
v 0.110984 -0.00185538 0 
v 0.110777 -0.00195085 0.003 
v 0.111178 -0.00173815 0 
v 0.110984 -0.00185538 0.003 
v 0.11136 -0.00160054 0 
v 0.111178 -0.00173815 0.003 
v 0.111525 -0.00144417 0 
v 0.11136 -0.00160054 0.003 
v 0.111672 -0.00127087 0 
v 0.111525 -0.00144417 0.003 
v 0.111799 -0.00108266 0 
v 0.111672 -0.00127087 0.003 
v 0.111906 -0.000881767 0 
v 0.111799 -0.00108266 0.003 
v 0.11199 -0.000670533 0 
v 0.111906 -0.000881767 0.003 
v 0.112051 -0.000451438 0 
v 0.11199 -0.000670533 0.003 
v 0.112088 -0.00022705 0 
v 0.112051 -0.000451438 0.003 
v 0.1121 7.71527e-19 0 
v 0.112088 -0.00022705 0.003 
v 0.112088 0.00022705 0 
v 0.1121 2.57176e-19 0.003 
v 0.112051 0.000451438 0 
v 0.112088 0.00022705 0.003 
v 0.11199 0.000670533 0 
v 0.112051 0.000451438 0.003 
v 0.111906 0.000881767 0 
v 0.11199 0.000670533 0.003 
v 0.111799 0.00108266 0 
v 0.111906 0.000881767 0.003 
v 0.111672 0.00127087 0 
v 0.111799 0.00108266 0.003 
v 0.111525 0.00144417 0 
v 0.111672 0.00127087 0.003 
v 0.11136 0.00160054 0 
v 0.111525 0.00144417 0.003 
v 0.111178 0.00173815 0 
v 0.11136 0.00160054 0.003 
v 0.110984 0.00185538 0 
v 0.111178 0.00173815 0.003 
v 0.110777 0.00195085 0 
v 0.110984 0.00185538 0.003 
v 0.110562 0.00202345 0 
v 0.110777 0.00195085 0.003 
v 0.11034 0.00207234 0 
v 0.110562 0.00202345 0.003 
v 0.110114 0.00209692 0 
v 0.11034 0.00207234 0.003 
v 0.109886 0.00209692 0 
v 0.110114 0.00209692 0.003 
v 0.10966 0.00207234 0 
v 0.109886 0.00209692 0.003 
v 0.109438 0.00202345 0 
v 0.10966 0.00207234 0.003 
v 0.109223 0.00195085 0 
v 0.109438 0.00202345 0.003 
v 0.109016 0.00185538 0 
v 0.109223 0.00195085 0.003 
v 0.108822 0.00173815 0 
v 0.109016 0.00185538 0.003 
v 0.10864 0.00160054 0 
v 0.108822 0.00173815 0.003 
v 0.108475 0.00144417 0 
v 0.10864 0.00160054 0.003 
v 0.108328 0.00127087 0 
v 0.108475 0.00144417 0.003 
v 0.108201 0.00108266 0 
v 0.108328 0.00127087 0.003 
v 0.108094 0.000881767 0 
v 0.108201 0.00108266 0.003 
v 0.10801 0.000670533 0 
v 0.108094 0.000881767 0.003 
v 0.107949 0.000451438 0 
v 0.10801 0.000670533 0.003 
v 0.107912 0.00022705 0 
v 0.107949 0.000451438 0.003 
v 0.107912 0.00022705 0.003 
vn 0.994138 0.108119 0 
vn 1 2.44929e-16 0 
vn 1 2.44929e-16 0 
vn 0.976621 0.21497 0 
vn 0.994138 0.108119 0 
vn 0.947653 0.319302 0 
vn 0.976621 0.21497 0 
vn 0.907575 0.419889 0 
vn 0.947653 0.319302 0 
vn 0.856857 0.515554 0 
vn 0.907575 0.419889 0 
vn 0.796093 0.605174 0 
vn 0.856857 0.515554 0 
vn 0.725995 0.687699 0 
vn 0.796093 0.605174 0 
vn 0.647386 0.762162 0 
vn 0.725995 0.687699 0 
vn 0.561187 0.827689 0 
vn 0.647386 0.762162 0 
vn 0.468408 0.883512 0 
vn 0.561187 0.827689 0 
vn 0.370138 0.928977 0 
vn 0.468408 0.883512 0 
vn 0.267528 0.96355 0 
vn 0.370138 0.928977 0 
vn 0.161782 0.986827 0 
vn 0.267528 0.96355 0 
vn 0.0541389 0.998533 0 
vn 0.161782 0.986827 0 
vn -0.0541389 0.998533 0 
vn 0.0541389 0.998533 0 
vn -0.161782 0.986827 0 
vn -0.0541389 0.998533 0 
vn -0.267528 0.96355 0 
vn -0.161782 0.986827 0 
vn -0.370138 0.928977 0 
vn -0.267528 0.96355 0 
vn -0.468408 0.883512 0 
vn -0.370138 0.928977 0 
vn -0.561187 0.827689 0 
vn -0.468408 0.883512 0 
vn -0.647386 0.762162 0 
vn -0.561187 0.827689 0 
vn -0.725995 0.687699 0 
vn -0.647386 0.762162 0 
vn -0.796093 0.605174 0 
vn -0.725995 0.687699 0 
vn -0.856857 0.515554 0 
vn -0.796093 0.605174 0 
vn -0.907575 0.419889 0 
vn -0.856857 0.515554 0 
vn -0.947653 0.319302 0 
vn -0.907575 0.419889 0 
vn -0.976621 0.21497 0 
vn -0.947653 0.319302 0 
vn -0.994138 0.108119 0 
vn -0.976621 0.21497 0 
vn -1 -1.22465e-16 0 
vn -0.994138 0.108119 0 
vn -0.994138 -0.108119 0 
vn -1 -1.22465e-16 0 
vn -0.976621 -0.21497 0 
vn -0.994138 -0.108119 0 
vn -0.947653 -0.319302 0 
vn -0.976621 -0.21497 0 
vn -0.907575 -0.419889 0 
vn -0.947653 -0.319302 0 
vn -0.856857 -0.515554 0 
vn -0.907575 -0.419889 0 
vn -0.796093 -0.605174 0 
vn -0.856857 -0.515554 0 
vn -0.725995 -0.687699 0 
vn -0.796093 -0.605174 0 
vn -0.647386 -0.762162 0 
vn -0.725995 -0.687699 0 
vn -0.561187 -0.827689 0 
vn -0.647386 -0.762162 0 
vn -0.468408 -0.883512 0 
vn -0.561187 -0.827689 0 
vn -0.370138 -0.928977 0 
vn -0.468408 -0.883512 0 
vn -0.267528 -0.96355 0 
vn -0.370138 -0.928977 0 
vn -0.161782 -0.986827 0 
vn -0.267528 -0.96355 0 
vn -0.0541389 -0.998533 0 
vn -0.161782 -0.986827 0 
vn 0.0541389 -0.998533 0 
vn -0.0541389 -0.998533 0 
vn 0.161782 -0.986827 0 
vn 0.0541389 -0.998533 0 
vn 0.267528 -0.96355 0 
vn 0.161782 -0.986827 0 
vn 0.370138 -0.928977 0 
vn 0.267528 -0.96355 0 
vn 0.468408 -0.883512 0 
vn 0.370138 -0.928977 0 
vn 0.561187 -0.827689 0 
vn 0.468408 -0.883512 0 
vn 0.647386 -0.762162 0 
vn 0.561187 -0.827689 0 
vn 0.725995 -0.687699 0 
vn 0.647386 -0.762162 0 
vn 0.796093 -0.605174 0 
vn 0.725995 -0.687699 0 
vn 0.856857 -0.515554 0 
vn 0.796093 -0.605174 0 
vn 0.907575 -0.419889 0 
vn 0.856857 -0.515554 0 
vn 0.947653 -0.319302 0 
vn 0.907575 -0.419889 0 
vn 0.976621 -0.21497 0 
vn 0.947653 -0.319302 0 
vn 0.994138 -0.108119 0 
vn 0.976621 -0.21497 0 
vn 0.994138 -0.108119 0 
f 873//873 874//874 875//875 
f 876//876 873//873 877//877 
f 878//878 876//876 879//879 
f 880//880 878//878 881//881 
f 882//882 880//880 883//883 
f 884//884 882//882 885//885 
f 886//886 884//884 887//887 
f 888//888 886//886 889//889 
f 890//890 888//888 891//891 
f 892//892 890//890 893//893 
f 894//894 892//892 895//895 
f 896//896 894//894 897//897 
f 898//898 896//896 899//899 
f 900//900 898//898 901//901 
f 902//902 900//900 903//903 
f 904//904 902//902 905//905 
f 906//906 904//904 907//907 
f 908//908 906//906 909//909 
f 910//910 908//908 911//911 
f 912//912 910//910 913//913 
f 914//914 912//912 915//915 
f 916//916 914//914 917//917 
f 918//918 916//916 919//919 
f 920//920 918//918 921//921 
f 922//922 920//920 923//923 
f 924//924 922//922 925//925 
f 926//926 924//924 927//927 
f 928//928 926//926 929//929 
f 930//930 928//928 931//931 
f 932//932 930//930 933//933 
f 934//934 932//932 935//935 
f 936//936 934//934 937//937 
f 938//938 936//936 939//939 
f 940//940 938//938 941//941 
f 942//942 940//940 943//943 
f 944//944 942//942 945//945 
f 946//946 944//944 947//947 
f 948//948 946//946 949//949 
f 950//950 948//948 951//951 
f 952//952 950//950 953//953 
f 954//954 952//952 955//955 
f 956//956 954//954 957//957 
f 958//958 956//956 959//959 
f 960//960 958//958 961//961 
f 962//962 960//960 963//963 
f 964//964 962//962 965//965 
f 966//966 964//964 967//967 
f 968//968 966//966 969//969 
f 970//970 968//968 971//971 
f 972//972 970//970 973//973 
f 974//974 972//972 975//975 
f 976//976 974//974 977//977 
f 978//978 976//976 979//979 
f 980//980 978//978 981//981 
f 982//982 980//980 983//983 
f 984//984 982//982 985//985 
f 986//986 984//984 987//987 
f 874//874 986//986 988//988 
f 988//988 875//875 874//874 
f 987//987 988//988 986//986 
f 985//985 987//987 984//984 
f 983//983 985//985 982//982 
f 981//981 983//983 980//980 
f 979//979 981//981 978//978 
f 977//977 979//979 976//976 
f 975//975 977//977 974//974 
f 973//973 975//975 972//972 
f 971//971 973//973 970//970 
f 969//969 971//971 968//968 
f 967//967 969//969 966//966 
f 965//965 967//967 964//964 
f 963//963 965//965 962//962 
f 961//961 963//963 960//960 
f 959//959 961//961 958//958 
f 957//957 959//959 956//956 
f 955//955 957//957 954//954 
f 953//953 955//955 952//952 
f 951//951 953//953 950//950 
f 949//949 951//951 948//948 
f 947//947 949//949 946//946 
f 945//945 947//947 944//944 
f 943//943 945//945 942//942 
f 941//941 943//943 940//940 
f 939//939 941//941 938//938 
f 937//937 939//939 936//936 
f 935//935 937//937 934//934 
f 933//933 935//935 932//932 
f 931//931 933//933 930//930 
f 929//929 931//931 928//928 
f 927//927 929//929 926//926 
f 925//925 927//927 924//924 
f 923//923 925//925 922//922 
f 921//921 923//923 920//920 
f 919//919 921//921 918//918 
f 917//917 919//919 916//916 
f 915//915 917//917 914//914 
f 913//913 915//915 912//912 
f 911//911 913//913 910//910 
f 909//909 911//911 908//908 
f 907//907 909//909 906//906 
f 905//905 907//907 904//904 
f 903//903 905//905 902//902 
f 901//901 903//903 900//900 
f 899//899 901//901 898//898 
f 897//897 899//899 896//896 
f 895//895 897//897 894//894 
f 893//893 895//895 892//892 
f 891//891 893//893 890//890 
f 889//889 891//891 888//888 
f 887//887 889//889 886//886 
f 885//885 887//887 884//884 
f 883//883 885//885 882//882 
f 881//881 883//883 880//880 
f 879//879 881//881 878//878 
f 877//877 879//879 876//876 
f 875//875 877//877 873//873 
