# OBJ generated by ONSHAPE BY PTC INC, 1.215 Units = meters
mtllib Exc_SafteyCover.mtl
g Exc_SafteyCover
usemtl 0.501961_0.501961_1.000000_0.000000_0.000000
o mesh277
v 0 0.31 0.002 
v 0 0.31 0 
v 0 0 0 
v 0 0 0.002 
vn -1 0 0 
vn -1 0 0 
vn -1 0 0 
vn -1 0 0 
f 1//1 2//2 3//3 
f 3//3 4//4 1//1 
o mesh278
v 0 0 0.002 
v 0 0 0 
v 0.306 0 0 
v 0.306 0 0.002 
vn 0 -1 0 
vn 0 -1 0 
vn 0 -1 0 
vn 0 -1 0 
f 5//5 6//6 7//7 
f 7//7 8//8 5//5 
o mesh279
v 0.306 0 0.002 
v 0.306 0 0 
v 0.306 0.31 0 
v 0.306 0.31 0.002 
vn 1 0 0 
vn 1 0 0 
vn 1 0 0 
vn 1 0 0 
f 9//9 10//10 11//11 
f 11//11 12//12 9//9 
o mesh280
v 0.306 0.31 0.002 
v 0.306 0.31 0 
v 0 0.31 0 
v 0 0.31 0.002 
vn 0 1 0 
vn 0 1 0 
vn 0 1 0 
vn 0 1 0 
f 13//13 14//14 15//15 
f 15//15 16//16 13//13 
o mesh281
v 0.306 0.31 0.002 
v 0 0.31 0.002 
v 0 0 0.002 
v 0.306 0 0.002 
vn 0 0 1 
vn 0 0 1 
vn 0 0 1 
vn 0 0 1 
f 17//17 18//18 19//19 
f 19//19 20//20 17//17 
o mesh282
v 0.306 0 0 
v 0 0 0 
v 0 0.31 0 
v 0.306 0.31 0 
vn 0 0 -1 
vn 0 0 -1 
vn 0 0 -1 
vn 0 0 -1 
f 21//21 22//22 23//23 
f 23//23 24//24 21//21 
