# OBJ generated by ONSHAPE BY PTC INC, 1.215 Units = meters
mtllib Exc_Motor_5203_2402_0188_3.mtl
g Exc_Motor 5203-2402-0188
usemtl 0.231373_0.380392_0.705882_0.000000_0.000000
o mesh28556
v 0.118122 0.06098 0.00977568 
v 0.118122 0.05696 0.00977568 
v 0.117669 0.05696 0.0102282 
v 0.118122 0.06098 0.00977568 
v 0.117669 0.05696 0.0102282 
v 0.117669 0.06098 0.0102282 
v 0.117669 0.05696 0.0102282 
v 0.118122 0.06098 0.0106808 
v 0.117669 0.06098 0.0102282 
v 0.118122 0.05696 0.0106808 
v 0.118122 0.06098 0.0106808 
v 0.117669 0.05696 0.0102282 
v 0.117669 0.05696 0.0102282 
v 0.118023 0.05671 0.0102282 
v 0.118122 0.05696 0.0106808 
v 0.118122 0.05696 0.00977568 
v 0.118023 0.05671 0.0102282 
v 0.117669 0.05696 0.0102282 
v 0.118574 0.06098 0.0102282 
v 0.118122 0.05696 0.00977568 
v 0.118122 0.06098 0.00977568 
v 0.118122 0.06098 0.00977568 
v 0.117669 0.06098 0.0102282 
v 0.118122 0.06098 0.0106808 
v 0.118574 0.06098 0.0102282 
v 0.118122 0.06098 0.00977568 
v 0.118122 0.06098 0.0106808 
v 0.118574 0.06098 0.0102282 
v 0.118574 0.05696 0.0102282 
v 0.118122 0.05696 0.00977568 
v 0.118221 0.05671 0.0102282 
v 0.118122 0.05671 0.0101292 
v 0.118122 0.05696 0.00977568 
v 0.118574 0.05696 0.0102282 
v 0.118221 0.05671 0.0102282 
v 0.118122 0.05696 0.00977568 
v 0.118122 0.05696 0.00977568 
v 0.118122 0.05671 0.0101292 
v 0.118023 0.05671 0.0102282 
v 0.118574 0.05696 0.0102282 
v 0.118574 0.06098 0.0102282 
v 0.118122 0.06098 0.0106808 
v 0.118574 0.05696 0.0102282 
v 0.118122 0.06098 0.0106808 
v 0.118122 0.05696 0.0106808 
v 0.118122 0.05696 0.0106808 
v 0.118122 0.05671 0.0103272 
v 0.118221 0.05671 0.0102282 
v 0.118122 0.05696 0.0106808 
v 0.118221 0.05671 0.0102282 
v 0.118574 0.05696 0.0102282 
v 0.118023 0.05671 0.0102282 
v 0.118122 0.05671 0.0103272 
v 0.118122 0.05696 0.0106808 
v 0.118221 0.05671 0.0102282 
v 0.118122 0.05671 0.0103272 
v 0.118023 0.05671 0.0102282 
v 0.118221 0.05671 0.0102282 
v 0.118023 0.05671 0.0102282 
v 0.118122 0.05671 0.0101292 
vn -0.70711 0 -0.707104 
vn -0.70711 0 -0.707104 
vn -0.70711 0 -0.707104 
vn -0.70711 0 -0.707104 
vn -0.70711 0 -0.707104 
vn -0.70711 0 -0.707104 
vn -0.70711 0 0.707104 
vn -0.70711 0 0.707104 
vn -0.70711 0 0.707104 
vn -0.70711 0 0.707104 
vn -0.70711 0 0.707104 
vn -0.70711 0 0.707104 
vn -0.499995 -0.707116 0.499991 
vn -0.500011 -0.707106 0.499989 
vn -0.500006 -0.70711 0.49999 
vn -0.500006 -0.70711 -0.49999 
vn -0.500011 -0.707106 -0.499989 
vn -0.499995 -0.707116 -0.499991 
vn 0.707104 0 -0.70711 
vn 0.707104 0 -0.70711 
vn 0.707104 0 -0.70711 
vn 0 1 0 
vn 0 1 0 
vn 0 1 0 
vn 0 1 0 
vn 0 1 0 
vn 0 1 0 
vn 0.707104 0 -0.70711 
vn 0.707104 0 -0.70711 
vn 0.707104 0 -0.70711 
vn 0.499994 -0.707108 -0.500003 
vn 0.499985 -0.707114 -0.500005 
vn 0.499996 -0.707108 -0.500003 
vn 0.499999 -0.707106 -0.500003 
vn 0.499994 -0.707108 -0.500003 
vn 0.499996 -0.707108 -0.500003 
vn -0.500006 -0.70711 -0.49999 
vn -0.500043 -0.707087 -0.499985 
vn -0.500011 -0.707106 -0.499989 
vn 0.707104 0 0.70711 
vn 0.707104 0 0.70711 
vn 0.707104 0 0.70711 
vn 0.707104 0 0.70711 
vn 0.707104 0 0.70711 
vn 0.707104 0 0.70711 
vn 0.499996 -0.707108 0.500003 
vn 0.499985 -0.707114 0.500005 
vn 0.499994 -0.707108 0.500003 
vn 0.499996 -0.707108 0.500003 
vn 0.499994 -0.707108 0.500003 
vn 0.499999 -0.707106 0.500003 
vn -0.500011 -0.707106 0.499989 
vn -0.500043 -0.707087 0.499985 
vn -0.500006 -0.70711 0.49999 
vn 0 -1 0 
vn 0 -1 0 
vn 0 -1 0 
vn 0 -1 0 
vn 0 -1 0 
vn 0 -1 0 
f 1//1 2//2 3//3 
f 4//4 5//5 6//6 
f 7//7 8//8 9//9 
f 10//10 11//11 12//12 
f 13//13 14//14 15//15 
f 16//16 17//17 18//18 
f 19//19 20//20 21//21 
f 22//22 23//23 24//24 
f 25//25 26//26 27//27 
f 28//28 29//29 30//30 
f 31//31 32//32 33//33 
f 34//34 35//35 36//36 
f 37//37 38//38 39//39 
f 40//40 41//41 42//42 
f 43//43 44//44 45//45 
f 46//46 47//47 48//48 
f 49//49 50//50 51//51 
f 52//52 53//53 54//54 
f 55//55 56//56 57//57 
f 58//58 59//59 60//60 
