# OBJ generated by ONSHAPE BY PTC INC, 1.215 Units = meters
mtllib Exc_Connection_With_Holes.mtl
g Exc_Connection With Holes
usemtl 0.796078_0.823529_0.937255_0.000000_0.000000
o mesh28319
v -0.0127292 0.000724633 0.217284 
v -0.0127175 0.000724633 0.2175 
v -0.0127175 0.0107246 0.2175 
v -0.0127642 0.000724633 0.217071 
v -0.0127292 0.0107246 0.217284 
v -0.0128219 0.000724633 0.216863 
v -0.0127642 0.0107246 0.217071 
v -0.0129019 0.000724633 0.216662 
v -0.0128219 0.0107246 0.216863 
v -0.0130031 0.000724633 0.216471 
v -0.0129019 0.0107246 0.216662 
v -0.0131243 0.000724633 0.216293 
v -0.0130031 0.0107246 0.216471 
v -0.0132642 0.000724633 0.216128 
v -0.0131243 0.0107246 0.216293 
v -0.013421 0.000724633 0.215979 
v -0.0132642 0.0107246 0.216128 
v -0.0135929 0.000724633 0.215849 
v -0.013421 0.0107246 0.215979 
v -0.013778 0.000724633 0.215737 
v -0.0135929 0.0107246 0.215849 
v -0.0139741 0.000724633 0.215647 
v -0.013778 0.0107246 0.215737 
v -0.0141788 0.000724633 0.215578 
v -0.0139741 0.0107246 0.215647 
v -0.0143898 0.000724633 0.215531 
v -0.0141788 0.0107246 0.215578 
v -0.0146045 0.000724633 0.215508 
v -0.0143898 0.0107246 0.215531 
v -0.0148205 0.000724633 0.215508 
v -0.0146045 0.0107246 0.215508 
v -0.0150353 0.000724633 0.215531 
v -0.0148205 0.0107246 0.215508 
v -0.0152462 0.000724633 0.215578 
v -0.0150353 0.0107246 0.215531 
v -0.0154509 0.000724633 0.215647 
v -0.0152462 0.0107246 0.215578 
v -0.015647 0.000724633 0.215737 
v -0.0154509 0.0107246 0.215647 
v -0.0158321 0.000724633 0.215849 
v -0.015647 0.0107246 0.215737 
v -0.0160041 0.000724633 0.215979 
v -0.0158321 0.0107246 0.215849 
v -0.0161609 0.000724633 0.216128 
v -0.0160041 0.0107246 0.215979 
v -0.0163007 0.000724633 0.216293 
v -0.0161609 0.0107246 0.216128 
v -0.0164219 0.000724633 0.216471 
v -0.0163007 0.0107246 0.216293 
v -0.0165231 0.000724633 0.216662 
v -0.0164219 0.0107246 0.216471 
v -0.0166031 0.000724633 0.216863 
v -0.0165231 0.0107246 0.216662 
v -0.0166609 0.000724633 0.217071 
v -0.0166031 0.0107246 0.216863 
v -0.0166958 0.000724633 0.217284 
v -0.0166609 0.0107246 0.217071 
v -0.0167075 0.000724633 0.2175 
v -0.0166958 0.0107246 0.217284 
v -0.0166958 0.000724633 0.217716 
v -0.0167075 0.0107246 0.2175 
v -0.0166609 0.000724633 0.217929 
v -0.0166958 0.0107246 0.217716 
v -0.0166031 0.000724633 0.218137 
v -0.0166609 0.0107246 0.217929 
v -0.0165231 0.000724633 0.218338 
v -0.0166031 0.0107246 0.218137 
v -0.0164219 0.000724633 0.218529 
v -0.0165231 0.0107246 0.218338 
v -0.0163007 0.000724633 0.218707 
v -0.0164219 0.0107246 0.218529 
v -0.0161609 0.000724633 0.218872 
v -0.0163007 0.0107246 0.218707 
v -0.0160041 0.000724633 0.219021 
v -0.0161609 0.0107246 0.218872 
v -0.0158321 0.000724633 0.219151 
v -0.0160041 0.0107246 0.219021 
v -0.015647 0.000724633 0.219263 
v -0.0158321 0.0107246 0.219151 
v -0.0154509 0.000724633 0.219353 
v -0.015647 0.0107246 0.219263 
v -0.0152462 0.000724633 0.219422 
v -0.0154509 0.0107246 0.219353 
v -0.0150353 0.000724633 0.219469 
v -0.0152462 0.0107246 0.219422 
v -0.0148205 0.000724633 0.219492 
v -0.0150353 0.0107246 0.219469 
v -0.0146045 0.000724633 0.219492 
v -0.0148205 0.0107246 0.219492 
v -0.0143898 0.000724633 0.219469 
v -0.0146045 0.0107246 0.219492 
v -0.0141788 0.000724633 0.219422 
v -0.0143898 0.0107246 0.219469 
v -0.0139741 0.000724633 0.219353 
v -0.0141788 0.0107246 0.219422 
v -0.013778 0.000724633 0.219263 
v -0.0139741 0.0107246 0.219353 
v -0.0135929 0.000724633 0.219151 
v -0.013778 0.0107246 0.219263 
v -0.013421 0.000724633 0.219021 
v -0.0135929 0.0107246 0.219151 
v -0.0132642 0.000724633 0.218872 
v -0.013421 0.0107246 0.219021 
v -0.0131243 0.000724633 0.218707 
v -0.0132642 0.0107246 0.218872 
v -0.0130031 0.000724633 0.218529 
v -0.0131243 0.0107246 0.218707 
v -0.0129019 0.000724633 0.218338 
v -0.0130031 0.0107246 0.218529 
v -0.0128219 0.000724633 0.218137 
v -0.0129019 0.0107246 0.218338 
v -0.0127642 0.000724633 0.217929 
v -0.0128219 0.0107246 0.218137 
v -0.0127292 0.000724633 0.217716 
v -0.0127642 0.0107246 0.217929 
v -0.0127292 0.0107246 0.217716 
vn -0.994138 -1.15484e-16 0.108119 
vn -1 -1.16165e-16 2.44929e-16 
vn -1 -1.16165e-16 2.44929e-16 
vn -0.976621 -1.13449e-16 0.21497 
vn -0.994138 -1.15484e-16 0.108119 
vn -0.947653 -1.10084e-16 0.319302 
vn -0.976621 -1.13449e-16 0.21497 
vn -0.907575 -1.05428e-16 0.419889 
vn -0.947653 -1.10084e-16 0.319302 
vn -0.856857 -9.95364e-17 0.515554 
vn -0.907575 -1.05428e-16 0.419889 
vn -0.796093 -9.24778e-17 0.605174 
vn -0.856857 -9.95364e-17 0.515554 
vn -0.725995 -8.43349e-17 0.687699 
vn -0.796093 -9.24778e-17 0.605174 
vn -0.647386 -7.52033e-17 0.762162 
vn -0.725995 -8.43349e-17 0.687699 
vn -0.561187 -6.519e-17 0.827689 
vn -0.647386 -7.52033e-17 0.762162 
vn -0.468408 -5.44124e-17 0.883512 
vn -0.561187 -6.519e-17 0.827689 
vn -0.370138 -4.29969e-17 0.928977 
vn -0.468408 -5.44124e-17 0.883512 
vn -0.267528 -3.10773e-17 0.96355 
vn -0.370138 -4.29969e-17 0.928977 
vn -0.161782 -1.87933e-17 0.986827 
vn -0.267528 -3.10773e-17 0.96355 
vn -0.0541389 -6.28902e-18 0.998533 
vn -0.161782 -1.87933e-17 0.986827 
vn 0.0541389 6.28902e-18 0.998533 
vn -0.0541389 -6.28902e-18 0.998533 
vn 0.161782 1.87933e-17 0.986827 
vn 0.0541389 6.28902e-18 0.998533 
vn 0.267528 3.10773e-17 0.96355 
vn 0.161782 1.87933e-17 0.986827 
vn 0.370138 4.29969e-17 0.928977 
vn 0.267528 3.10773e-17 0.96355 
vn 0.468408 5.44124e-17 0.883512 
vn 0.370138 4.29969e-17 0.928977 
vn 0.561187 6.519e-17 0.827689 
vn 0.468408 5.44124e-17 0.883512 
vn 0.647386 7.52033e-17 0.762162 
vn 0.561187 6.519e-17 0.827689 
vn 0.725995 8.43349e-17 0.687699 
vn 0.647386 7.52033e-17 0.762162 
vn 0.796093 9.24778e-17 0.605174 
vn 0.725995 8.43349e-17 0.687699 
vn 0.856857 9.95364e-17 0.515554 
vn 0.796093 9.24778e-17 0.605174 
vn 0.907575 1.05428e-16 0.419889 
vn 0.856857 9.95364e-17 0.515554 
vn 0.947653 1.10084e-16 0.319302 
vn 0.907575 1.05428e-16 0.419889 
vn 0.976621 1.13449e-16 0.21497 
vn 0.947653 1.10084e-16 0.319302 
vn 0.994138 1.15484e-16 0.108119 
vn 0.976621 1.13449e-16 0.21497 
vn 1 1.16165e-16 -1.22465e-16 
vn 0.994138 1.15484e-16 0.108119 
vn 0.994138 1.15484e-16 -0.108119 
vn 1 1.16165e-16 -1.22465e-16 
vn 0.976621 1.13449e-16 -0.21497 
vn 0.994138 1.15484e-16 -0.108119 
vn 0.947653 1.10084e-16 -0.319302 
vn 0.976621 1.13449e-16 -0.21497 
vn 0.907575 1.05428e-16 -0.419889 
vn 0.947653 1.10084e-16 -0.319302 
vn 0.856857 9.95364e-17 -0.515554 
vn 0.907575 1.05428e-16 -0.419889 
vn 0.796093 9.24778e-17 -0.605174 
vn 0.856857 9.95364e-17 -0.515554 
vn 0.725995 8.43349e-17 -0.687699 
vn 0.796093 9.24778e-17 -0.605174 
vn 0.647386 7.52033e-17 -0.762162 
vn 0.725995 8.43349e-17 -0.687699 
vn 0.561187 6.519e-17 -0.827689 
vn 0.647386 7.52033e-17 -0.762162 
vn 0.468408 5.44124e-17 -0.883512 
vn 0.561187 6.519e-17 -0.827689 
vn 0.370138 4.29969e-17 -0.928977 
vn 0.468408 5.44124e-17 -0.883512 
vn 0.267528 3.10773e-17 -0.96355 
vn 0.370138 4.29969e-17 -0.928977 
vn 0.161782 1.87933e-17 -0.986827 
vn 0.267528 3.10773e-17 -0.96355 
vn 0.0541389 6.28902e-18 -0.998533 
vn 0.161782 1.87933e-17 -0.986827 
vn -0.0541389 -6.28902e-18 -0.998533 
vn 0.0541389 6.28902e-18 -0.998533 
vn -0.161782 -1.87933e-17 -0.986827 
vn -0.0541389 -6.28902e-18 -0.998533 
vn -0.267528 -3.10773e-17 -0.96355 
vn -0.161782 -1.87933e-17 -0.986827 
vn -0.370138 -4.29969e-17 -0.928977 
vn -0.267528 -3.10773e-17 -0.96355 
vn -0.468408 -5.44124e-17 -0.883512 
vn -0.370138 -4.29969e-17 -0.928977 
vn -0.561187 -6.519e-17 -0.827689 
vn -0.468408 -5.44124e-17 -0.883512 
vn -0.647386 -7.52033e-17 -0.762162 
vn -0.561187 -6.519e-17 -0.827689 
vn -0.725995 -8.43349e-17 -0.687699 
vn -0.647386 -7.52033e-17 -0.762162 
vn -0.796093 -9.24778e-17 -0.605174 
vn -0.725995 -8.43349e-17 -0.687699 
vn -0.856857 -9.95364e-17 -0.515554 
vn -0.796093 -9.24778e-17 -0.605174 
vn -0.907575 -1.05428e-16 -0.419889 
vn -0.856857 -9.95364e-17 -0.515554 
vn -0.947653 -1.10084e-16 -0.319302 
vn -0.907575 -1.05428e-16 -0.419889 
vn -0.976621 -1.13449e-16 -0.21497 
vn -0.947653 -1.10084e-16 -0.319302 
vn -0.994138 -1.15484e-16 -0.108119 
vn -0.976621 -1.13449e-16 -0.21497 
vn -0.994138 -1.15484e-16 -0.108119 
f 1//1 2//2 3//3 
f 4//4 1//1 5//5 
f 6//6 4//4 7//7 
f 8//8 6//6 9//9 
f 10//10 8//8 11//11 
f 12//12 10//10 13//13 
f 14//14 12//12 15//15 
f 16//16 14//14 17//17 
f 18//18 16//16 19//19 
f 20//20 18//18 21//21 
f 22//22 20//20 23//23 
f 24//24 22//22 25//25 
f 26//26 24//24 27//27 
f 28//28 26//26 29//29 
f 30//30 28//28 31//31 
f 32//32 30//30 33//33 
f 34//34 32//32 35//35 
f 36//36 34//34 37//37 
f 38//38 36//36 39//39 
f 40//40 38//38 41//41 
f 42//42 40//40 43//43 
f 44//44 42//42 45//45 
f 46//46 44//44 47//47 
f 48//48 46//46 49//49 
f 50//50 48//48 51//51 
f 52//52 50//50 53//53 
f 54//54 52//52 55//55 
f 56//56 54//54 57//57 
f 58//58 56//56 59//59 
f 60//60 58//58 61//61 
f 62//62 60//60 63//63 
f 64//64 62//62 65//65 
f 66//66 64//64 67//67 
f 68//68 66//66 69//69 
f 70//70 68//68 71//71 
f 72//72 70//70 73//73 
f 74//74 72//72 75//75 
f 76//76 74//74 77//77 
f 78//78 76//76 79//79 
f 80//80 78//78 81//81 
f 82//82 80//80 83//83 
f 84//84 82//82 85//85 
f 86//86 84//84 87//87 
f 88//88 86//86 89//89 
f 90//90 88//88 91//91 
f 92//92 90//90 93//93 
f 94//94 92//92 95//95 
f 96//96 94//94 97//97 
f 98//98 96//96 99//99 
f 100//100 98//98 101//101 
f 102//102 100//100 103//103 
f 104//104 102//102 105//105 
f 106//106 104//104 107//107 
f 108//108 106//106 109//109 
f 110//110 108//108 111//111 
f 112//112 110//110 113//113 
f 114//114 112//112 115//115 
f 2//2 114//114 116//116 
f 116//116 3//3 2//2 
f 115//115 116//116 114//114 
f 113//113 115//115 112//112 
f 111//111 113//113 110//110 
f 109//109 111//111 108//108 
f 107//107 109//109 106//106 
f 105//105 107//107 104//104 
f 103//103 105//105 102//102 
f 101//101 103//103 100//100 
f 99//99 101//101 98//98 
f 97//97 99//99 96//96 
f 95//95 97//97 94//94 
f 93//93 95//95 92//92 
f 91//91 93//93 90//90 
f 89//89 91//91 88//88 
f 87//87 89//89 86//86 
f 85//85 87//87 84//84 
f 83//83 85//85 82//82 
f 81//81 83//83 80//80 
f 79//79 81//81 78//78 
f 77//77 79//79 76//76 
f 75//75 77//77 74//74 
f 73//73 75//75 72//72 
f 71//71 73//73 70//70 
f 69//69 71//71 68//68 
f 67//67 69//69 66//66 
f 65//65 67//67 64//64 
f 63//63 65//65 62//62 
f 61//61 63//63 60//60 
f 59//59 61//61 58//58 
f 57//57 59//59 56//56 
f 55//55 57//57 54//54 
f 53//53 55//55 52//52 
f 51//51 53//53 50//50 
f 49//49 51//51 48//48 
f 47//47 49//49 46//46 
f 45//45 47//47 44//44 
f 43//43 45//45 42//42 
f 41//41 43//43 40//40 
f 39//39 41//41 38//38 
f 37//37 39//39 36//36 
f 35//35 37//37 34//34 
f 33//33 35//35 32//32 
f 31//31 33//33 30//30 
f 29//29 31//31 28//28 
f 27//27 29//29 26//26 
f 25//25 27//27 24//24 
f 23//23 25//25 22//22 
f 21//21 23//23 20//20 
f 19//19 21//21 18//18 
f 17//17 19//19 16//16 
f 15//15 17//17 14//14 
f 13//13 15//15 12//12 
f 11//11 13//13 10//10 
f 9//9 11//11 8//8 
f 7//7 9//9 6//6 
f 5//5 7//7 4//4 
f 3//3 5//5 1//1 
o mesh28320
v -0.0216625 0.000724633 0.29 
v -0.0167075 0.000724633 0.2175 
v -0.0166958 0.000724633 0.217716 
v -0.0166031 0.000724633 0.218137 
v -0.0165231 0.000724633 0.218338 
v -0.0166609 0.000724633 0.217929 
v -0.0150353 0.000724633 0.215531 
v -0.0216625 0.000724633 0 
v -0.0167075 0.000724633 0.145 
v -0.0163007 0.000724633 0.218707 
v -0.0161609 0.000724633 0.218872 
v -0.0166609 0.000724633 0.217071 
v -0.0166958 0.000724633 0.217284 
v -0.0166958 0.000724633 0.144784 
v -0.0166958 0.000724633 0.0722843 
v -0.0167075 0.000724633 0.0725 
v -0.00776252 0.000724633 0.29 
v -0.0139741 0.000724633 0.0743533 
v -0.013778 0.000724633 0.0742626 
v -0.0158321 0.000724633 0.219151 
v -0.015647 0.000724633 0.219263 
v -0.0160041 0.000724633 0.219021 
v -0.0166031 0.000724633 0.216863 
v -0.0164219 0.000724633 0.216471 
v -0.0165231 0.000724633 0.216662 
v -0.0166609 0.000724633 0.144571 
v -0.0166609 0.000724633 0.0720711 
v -0.0165231 0.000724633 0.0716623 
v -0.0166031 0.000724633 0.071863 
v -0.00776252 0.000724633 0 
v -0.013778 0.000724633 0.0707374 
v -0.0139741 0.000724633 0.0706467 
v -0.013421 0.000724633 0.0740205 
v -0.0132642 0.000724633 0.073872 
v -0.0135929 0.000724633 0.0741512 
v -0.013421 0.000724633 0.219021 
v -0.0132642 0.000724633 0.218872 
v -0.0164219 0.000724633 0.218529 
v -0.0161609 0.000724633 0.216128 
v -0.0163007 0.000724633 0.216293 
v -0.0158321 0.000724633 0.215849 
v -0.0160041 0.000724633 0.215979 
v -0.0154509 0.000724633 0.215647 
v -0.015647 0.000724633 0.215737 
v -0.0166031 0.000724633 0.144363 
v -0.0161609 0.000724633 0.143628 
v -0.0163007 0.000724633 0.143793 
v -0.0158321 0.000724633 0.143349 
v -0.0160041 0.000724633 0.143479 
v -0.0141788 0.000724633 0.0705777 
v -0.0132642 0.000724633 0.071128 
v -0.013421 0.000724633 0.0709795 
v -0.0127642 0.000724633 0.0720711 
v -0.0128219 0.000724633 0.071863 
v -0.0127175 0.000724633 0.0725 
v -0.0127292 0.000724633 0.0722843 
v -0.0131243 0.000724633 0.0737073 
v -0.0130031 0.000724633 0.0735285 
v -0.0127292 0.000724633 0.144784 
v -0.0160041 0.000724633 0.0740205 
v -0.0158321 0.000724633 0.0741512 
v -0.0166031 0.000724633 0.073137 
v -0.0165231 0.000724633 0.0733377 
v -0.0128219 0.000724633 0.218137 
v -0.0127642 0.000724633 0.217929 
v -0.0131243 0.000724633 0.218707 
v -0.0130031 0.000724633 0.218529 
v -0.0135929 0.000724633 0.219151 
v -0.0152462 0.000724633 0.215578 
v -0.0143898 0.000724633 0.215531 
v -0.0146045 0.000724633 0.215508 
v -0.0165231 0.000724633 0.144162 
v -0.0164219 0.000724633 0.0714715 
v -0.015647 0.000724633 0.0707374 
v -0.0158321 0.000724633 0.0708488 
v -0.0152462 0.000724633 0.0705777 
v -0.0154509 0.000724633 0.0706467 
v -0.0148205 0.000724633 0.0705079 
v -0.0150353 0.000724633 0.0705313 
v -0.0146045 0.000724633 0.0705079 
v -0.0143898 0.000724633 0.0705313 
v -0.0131243 0.000724633 0.0712927 
v -0.0129019 0.000724633 0.0716623 
v -0.0130031 0.000724633 0.0714715 
v -0.0127175 0.000724633 0.145 
v -0.0148205 0.000724633 0.0744921 
v -0.0146045 0.000724633 0.0744921 
v -0.0161609 0.000724633 0.073872 
v -0.0164219 0.000724633 0.0735285 
v -0.0132642 0.000724633 0.146372 
v -0.0131243 0.000724633 0.146207 
v -0.0127292 0.000724633 0.217716 
v -0.0139741 0.000724633 0.219353 
v -0.013778 0.000724633 0.219263 
v -0.0148205 0.000724633 0.215508 
v -0.0164219 0.000724633 0.143971 
v -0.0154509 0.000724633 0.143147 
v -0.015647 0.000724633 0.143237 
v -0.0150353 0.000724633 0.143031 
v -0.0152462 0.000724633 0.143078 
v -0.0143898 0.000724633 0.143031 
v -0.0146045 0.000724633 0.143008 
v -0.0148205 0.000724633 0.143008 
v -0.0161609 0.000724633 0.071128 
v -0.0163007 0.000724633 0.0712927 
v -0.0160041 0.000724633 0.0709795 
v -0.0135929 0.000724633 0.0708488 
v -0.0129019 0.000724633 0.0733377 
v -0.0143898 0.000724633 0.0744687 
v -0.0152462 0.000724633 0.0744223 
v -0.0150353 0.000724633 0.0744687 
v -0.015647 0.000724633 0.0742626 
v -0.0163007 0.000724633 0.0737073 
v -0.013421 0.000724633 0.143479 
v -0.0135929 0.000724633 0.143349 
v -0.0128219 0.000724633 0.144363 
v -0.0129019 0.000724633 0.144162 
v -0.0127642 0.000724633 0.144571 
v -0.0128219 0.000724633 0.145637 
v -0.0127642 0.000724633 0.145429 
v -0.013421 0.000724633 0.146521 
v -0.0143898 0.000724633 0.146969 
v -0.013421 0.000724633 0.215979 
v -0.0135929 0.000724633 0.215849 
v -0.0130031 0.000724633 0.216471 
v -0.0131243 0.000724633 0.216293 
v -0.0127292 0.000724633 0.217284 
v -0.0127642 0.000724633 0.217071 
v -0.0127175 0.000724633 0.2175 
v -0.0166958 0.000724633 0.145216 
v -0.0129019 0.000724633 0.218338 
v -0.0154509 0.000724633 0.219353 
v -0.0152462 0.000724633 0.219422 
v -0.0127642 0.000724633 0.0729289 
v -0.0127292 0.000724633 0.0727157 
v -0.0141788 0.000724633 0.0744223 
v -0.0141788 0.000724633 0.143078 
v -0.0166958 0.000724633 0.0727157 
v -0.0132642 0.000724633 0.143628 
v -0.0130031 0.000724633 0.143971 
v -0.0131243 0.000724633 0.143793 
v -0.0127292 0.000724633 0.145216 
v -0.0130031 0.000724633 0.146029 
v -0.0148205 0.000724633 0.146992 
v -0.0139741 0.000724633 0.215647 
v -0.0141788 0.000724633 0.215578 
v -0.013778 0.000724633 0.215737 
v -0.0132642 0.000724633 0.216128 
v -0.0128219 0.000724633 0.216863 
v -0.0129019 0.000724633 0.216662 
v -0.0163007 0.000724633 0.146207 
v -0.0161609 0.000724633 0.146372 
v -0.0166031 0.000724633 0.145637 
v -0.0165231 0.000724633 0.145838 
v -0.0166609 0.000724633 0.145429 
v -0.0143898 0.000724633 0.219469 
v -0.0141788 0.000724633 0.219422 
v -0.0148205 0.000724633 0.219492 
v -0.0146045 0.000724633 0.219492 
v -0.0150353 0.000724633 0.219469 
v -0.0128219 0.000724633 0.073137 
v -0.0154509 0.000724633 0.0743533 
v -0.0139741 0.000724633 0.143147 
v -0.0166609 0.000724633 0.0729289 
v -0.013778 0.000724633 0.143237 
v -0.0129019 0.000724633 0.145838 
v -0.0135929 0.000724633 0.146651 
v -0.0139741 0.000724633 0.146853 
v -0.013778 0.000724633 0.146763 
v -0.0141788 0.000724633 0.146922 
v -0.0146045 0.000724633 0.146992 
v -0.0150353 0.000724633 0.146969 
v -0.0158321 0.000724633 0.146651 
v -0.015647 0.000724633 0.146763 
v -0.0160041 0.000724633 0.146521 
v -0.0164219 0.000724633 0.146029 
v -0.0154509 0.000724633 0.146853 
v -0.0152462 0.000724633 0.146922 
vn 1.16165e-16 -1 0 
vn 1.16165e-16 -1 0 
vn 1.16165e-16 -1 0 
vn 1.16165e-16 -1 0 
vn 1.16165e-16 -1 0 
vn 1.16165e-16 -1 0 
vn 1.16165e-16 -1 0 
vn 1.16165e-16 -1 0 
vn 1.16165e-16 -1 0 
vn 1.16165e-16 -1 0 
vn 1.16165e-16 -1 0 
vn 1.16165e-16 -1 0 
vn 1.16165e-16 -1 0 
vn 1.16165e-16 -1 0 
vn 1.16165e-16 -1 0 
vn 1.16165e-16 -1 0 
vn 1.16165e-16 -1 0 
vn 1.16165e-16 -1 0 
vn 1.16165e-16 -1 0 
vn 1.16165e-16 -1 0 
vn 1.16165e-16 -1 0 
vn 1.16165e-16 -1 0 
vn 1.16165e-16 -1 0 
vn 1.16165e-16 -1 0 
vn 1.16165e-16 -1 0 
vn 1.16165e-16 -1 0 
vn 1.16165e-16 -1 0 
vn 1.16165e-16 -1 0 
vn 1.16165e-16 -1 0 
vn 1.16165e-16 -1 0 
vn 1.16165e-16 -1 0 
vn 1.16165e-16 -1 0 
vn 1.16165e-16 -1 0 
vn 1.16165e-16 -1 0 
vn 1.16165e-16 -1 0 
vn 1.16165e-16 -1 0 
vn 1.16165e-16 -1 0 
vn 1.16165e-16 -1 0 
vn 1.16165e-16 -1 0 
vn 1.16165e-16 -1 0 
vn 1.16165e-16 -1 0 
vn 1.16165e-16 -1 0 
vn 1.16165e-16 -1 0 
vn 1.16165e-16 -1 0 
vn 1.16165e-16 -1 0 
vn 1.16165e-16 -1 0 
vn 1.16165e-16 -1 0 
vn 1.16165e-16 -1 0 
vn 1.16165e-16 -1 0 
vn 1.16165e-16 -1 0 
vn 1.16165e-16 -1 0 
vn 1.16165e-16 -1 0 
vn 1.16165e-16 -1 0 
vn 1.16165e-16 -1 0 
vn 1.16165e-16 -1 0 
vn 1.16165e-16 -1 0 
vn 1.16165e-16 -1 0 
vn 1.16165e-16 -1 0 
vn 1.16165e-16 -1 0 
vn 1.16165e-16 -1 0 
vn 1.16165e-16 -1 0 
vn 1.16165e-16 -1 0 
vn 1.16165e-16 -1 0 
vn 1.16165e-16 -1 0 
vn 1.16165e-16 -1 0 
vn 1.16165e-16 -1 0 
vn 1.16165e-16 -1 0 
vn 1.16165e-16 -1 0 
vn 1.16165e-16 -1 0 
vn 1.16165e-16 -1 0 
vn 1.16165e-16 -1 0 
vn 1.16165e-16 -1 0 
vn 1.16165e-16 -1 0 
vn 1.16165e-16 -1 0 
vn 1.16165e-16 -1 0 
vn 1.16165e-16 -1 0 
vn 1.16165e-16 -1 0 
vn 1.16165e-16 -1 0 
vn 1.16165e-16 -1 0 
vn 1.16165e-16 -1 0 
vn 1.16165e-16 -1 0 
vn 1.16165e-16 -1 0 
vn 1.16165e-16 -1 0 
vn 1.16165e-16 -1 0 
vn 1.16165e-16 -1 0 
vn 1.16165e-16 -1 0 
vn 1.16165e-16 -1 0 
vn 1.16165e-16 -1 0 
vn 1.16165e-16 -1 0 
vn 1.16165e-16 -1 0 
vn 1.16165e-16 -1 0 
vn 1.16165e-16 -1 0 
vn 1.16165e-16 -1 0 
vn 1.16165e-16 -1 0 
vn 1.16165e-16 -1 0 
vn 1.16165e-16 -1 0 
vn 1.16165e-16 -1 0 
vn 1.16165e-16 -1 0 
vn 1.16165e-16 -1 0 
vn 1.16165e-16 -1 0 
vn 1.16165e-16 -1 0 
vn 1.16165e-16 -1 0 
vn 1.16165e-16 -1 0 
vn 1.16165e-16 -1 0 
vn 1.16165e-16 -1 0 
vn 1.16165e-16 -1 0 
vn 1.16165e-16 -1 0 
vn 1.16165e-16 -1 0 
vn 1.16165e-16 -1 0 
vn 1.16165e-16 -1 0 
vn 1.16165e-16 -1 0 
vn 1.16165e-16 -1 0 
vn 1.16165e-16 -1 0 
vn 1.16165e-16 -1 0 
vn 1.16165e-16 -1 0 
vn 1.16165e-16 -1 0 
vn 1.16165e-16 -1 0 
vn 1.16165e-16 -1 0 
vn 1.16165e-16 -1 0 
vn 1.16165e-16 -1 0 
vn 1.16165e-16 -1 0 
vn 1.16165e-16 -1 0 
vn 1.16165e-16 -1 0 
vn 1.16165e-16 -1 0 
vn 1.16165e-16 -1 0 
vn 1.16165e-16 -1 0 
vn 1.16165e-16 -1 0 
vn 1.16165e-16 -1 0 
vn 1.16165e-16 -1 0 
vn 1.16165e-16 -1 0 
vn 1.16165e-16 -1 0 
vn 1.16165e-16 -1 0 
vn 1.16165e-16 -1 0 
vn 1.16165e-16 -1 0 
vn 1.16165e-16 -1 0 
vn 1.16165e-16 -1 0 
vn 1.16165e-16 -1 0 
vn 1.16165e-16 -1 0 
vn 1.16165e-16 -1 0 
vn 1.16165e-16 -1 0 
vn 1.16165e-16 -1 0 
vn 1.16165e-16 -1 0 
vn 1.16165e-16 -1 0 
vn 1.16165e-16 -1 0 
vn 1.16165e-16 -1 0 
vn 1.16165e-16 -1 0 
vn 1.16165e-16 -1 0 
vn 1.16165e-16 -1 0 
vn 1.16165e-16 -1 0 
vn 1.16165e-16 -1 0 
vn 1.16165e-16 -1 0 
vn 1.16165e-16 -1 0 
vn 1.16165e-16 -1 0 
vn 1.16165e-16 -1 0 
vn 1.16165e-16 -1 0 
vn 1.16165e-16 -1 0 
vn 1.16165e-16 -1 0 
vn 1.16165e-16 -1 0 
vn 1.16165e-16 -1 0 
vn 1.16165e-16 -1 0 
vn 1.16165e-16 -1 0 
vn 1.16165e-16 -1 0 
vn 1.16165e-16 -1 0 
vn 1.16165e-16 -1 0 
vn 1.16165e-16 -1 0 
vn 1.16165e-16 -1 0 
vn 1.16165e-16 -1 0 
vn 1.16165e-16 -1 0 
vn 1.16165e-16 -1 0 
vn 1.16165e-16 -1 0 
vn 1.16165e-16 -1 0 
vn 1.16165e-16 -1 0 
vn 1.16165e-16 -1 0 
vn 1.16165e-16 -1 0 
vn 1.16165e-16 -1 0 
vn 1.16165e-16 -1 0 
vn 1.16165e-16 -1 0 
vn 1.16165e-16 -1 0 
f 117//117 118//118 119//119 
f 117//117 120//120 121//121 
f 119//119 122//122 117//117 
f 123//123 124//124 125//125 
f 117//117 126//126 127//127 
f 122//122 120//120 117//117 
f 124//124 128//128 129//129 
f 124//124 130//130 125//125 
f 124//124 131//131 132//132 
f 133//133 134//134 135//135 
f 117//117 136//136 137//137 
f 127//127 138//138 117//117 
f 117//117 129//129 118//118 
f 124//124 139//139 128//128 
f 124//124 140//140 141//141 
f 124//124 142//142 130//130 
f 124//124 143//143 131//131 
f 124//124 144//144 145//145 
f 146//146 147//147 148//148 
f 133//133 149//149 150//150 
f 135//135 151//151 133//133 
f 133//133 152//152 153//153 
f 138//138 136//136 117//117 
f 121//121 154//154 117//117 
f 141//141 139//139 124//124 
f 124//124 155//155 156//156 
f 124//124 157//157 158//158 
f 124//124 159//159 160//160 
f 124//124 161//161 142//142 
f 124//124 162//162 163//163 
f 124//124 164//164 165//165 
f 145//145 143//143 124//124 
f 148//148 166//166 146//146 
f 146//146 167//167 168//168 
f 146//146 169//169 170//170 
f 146//146 171//171 172//172 
f 133//133 173//173 174//174 
f 151//151 149//149 133//133 
f 175//175 176//176 177//177 
f 175//175 178//178 179//179 
f 133//133 180//180 181//181 
f 133//133 182//182 183//183 
f 133//133 184//184 152//152 
f 154//154 126//126 117//117 
f 156//156 140//140 124//124 
f 160//160 157//157 124//124 
f 124//124 123//123 185//185 
f 125//125 186//186 187//187 
f 124//124 188//188 161//161 
f 165//165 162//162 124//124 
f 124//124 189//189 144//144 
f 124//124 190//190 191//191 
f 124//124 192//192 193//193 
f 124//124 194//194 195//195 
f 146//146 196//196 194//194 
f 166//166 197//197 146//146 
f 146//146 198//198 167//167 
f 146//146 199//199 200//200 
f 172//172 169//169 146//146 
f 150//150 173//173 133//133 
f 201//201 202//202 203//203 
f 175//175 204//204 176//176 
f 179//179 205//205 175//175 
f 133//133 206//206 207//207 
f 181//181 208//208 133//133 
f 153//153 182//182 133//133 
f 133//133 209//209 210//210 
f 129//129 117//117 124//124 
f 185//185 159//159 124//124 
f 125//125 211//211 123//123 
f 163//163 212//212 124//124 
f 124//124 213//213 214//214 
f 124//124 215//215 216//216 
f 132//132 217//217 218//218 
f 132//132 219//219 124//124 
f 124//124 220//220 221//221 
f 191//191 222//222 124//124 
f 195//195 192//192 124//124 
f 197//197 196//196 146//146 
f 168//168 223//223 146//146 
f 170//170 199//199 146//146 
f 174//174 224//224 133//133 
f 134//134 133//133 201//201 
f 203//203 225//225 201//201 
f 201//201 226//226 227//227 
f 177//177 228//228 175//175 
f 205//205 229//229 175//175 
f 178//178 230//230 231//231 
f 178//178 232//232 233//233 
f 178//178 175//175 234//234 
f 133//133 235//235 236//236 
f 133//133 237//237 206//206 
f 238//238 239//239 240//240 
f 238//238 241//241 242//242 
f 238//238 243//243 244//244 
f 238//238 133//133 245//245 
f 186//186 125//125 246//246 
f 133//133 247//247 180//180 
f 210//210 184//184 133//133 
f 117//117 248//248 249//249 
f 158//158 155//155 124//124 
f 212//212 188//188 124//124 
f 216//216 213//213 124//124 
f 219//219 215//215 124//124 
f 222//222 220//220 124//124 
f 194//194 124//124 146//146 
f 200//200 198//198 146//146 
f 133//133 250//250 251//251 
f 201//201 252//252 134//134 
f 227//227 202//202 201//201 
f 226//226 201//201 175//175 
f 229//229 204//204 175//175 
f 253//253 132//132 254//254 
f 178//178 255//255 230//230 
f 178//178 256//256 257//257 
f 234//234 232//232 178//178 
f 236//236 258//258 133//133 
f 207//207 259//259 133//133 
f 260//260 261//261 262//262 
f 240//240 263//263 238//238 
f 242//242 264//264 238//238 
f 238//238 265//265 266//266 
f 245//245 243//243 238//238 
f 186//186 267//267 268//268 
f 186//186 269//269 270//270 
f 246//246 271//271 186//186 
f 183//183 247//247 133//133 
f 133//133 272//272 273//273 
f 133//133 274//274 275//275 
f 117//117 276//276 274//274 
f 137//137 248//248 117//117 
f 214//214 164//164 124//124 
f 221//221 189//189 124//124 
f 223//223 147//147 146//146 
f 133//133 277//277 250//250 
f 225//225 252//252 201//201 
f 228//228 278//278 175//175 
f 279//279 254//254 280//280 
f 254//254 279//279 253//253 
f 231//231 281//281 178//178 
f 233//233 256//256 178//178 
f 133//133 282//282 235//235 
f 133//133 283//283 237//237 
f 133//133 284//284 285//285 
f 133//133 238//238 286//286 
f 261//261 260//260 287//287 
f 262//262 288//288 260//260 
f 264//264 239//239 238//238 
f 244//244 265//265 238//238 
f 186//186 289//289 290//290 
f 268//268 291//291 186//186 
f 271//271 269//269 186//186 
f 273//273 209//209 133//133 
f 274//274 133//133 117//117 
f 187//187 211//211 125//125 
f 193//193 190//190 124//124 
f 251//251 146//146 133//133 
f 175//175 278//278 226//226 
f 253//253 217//217 132//132 
f 257//257 255//255 178//178 
f 259//259 282//282 133//133 
f 286//286 284//284 133//133 
f 262//262 186//186 288//288 
f 266//266 241//241 238//238 
f 291//291 289//289 186//186 
f 270//270 292//292 186//186 
f 275//275 272//272 133//133 
f 218//218 219//219 132//132 
f 224//224 277//277 133//133 
f 281//281 279//279 178//178 
f 285//285 283//283 133//133 
f 263//263 261//261 238//238 
f 186//186 293//293 294//294 
f 292//292 267//267 186//186 
f 249//249 276//276 117//117 
f 280//280 178//178 279//279 
f 287//287 238//238 261//261 
f 290//290 293//293 186//186 
f 251//251 171//171 146//146 
f 294//294 288//288 186//186 
f 258//258 201//201 133//133 
f 208//208 245//245 133//133 
o mesh28321
v -0.0127292 0.000724633 0.144784 
v -0.0127175 0.000724633 0.145 
v -0.0127175 0.0107246 0.145 
v -0.0127642 0.000724633 0.144571 
v -0.0127292 0.0107246 0.144784 
v -0.0128219 0.000724633 0.144363 
v -0.0127642 0.0107246 0.144571 
v -0.0129019 0.000724633 0.144162 
v -0.0128219 0.0107246 0.144363 
v -0.0130031 0.000724633 0.143971 
v -0.0129019 0.0107246 0.144162 
v -0.0131243 0.000724633 0.143793 
v -0.0130031 0.0107246 0.143971 
v -0.0132642 0.000724633 0.143628 
v -0.0131243 0.0107246 0.143793 
v -0.013421 0.000724633 0.143479 
v -0.0132642 0.0107246 0.143628 
v -0.0135929 0.000724633 0.143349 
v -0.013421 0.0107246 0.143479 
v -0.013778 0.000724633 0.143237 
v -0.0135929 0.0107246 0.143349 
v -0.0139741 0.000724633 0.143147 
v -0.013778 0.0107246 0.143237 
v -0.0141788 0.000724633 0.143078 
v -0.0139741 0.0107246 0.143147 
v -0.0143898 0.000724633 0.143031 
v -0.0141788 0.0107246 0.143078 
v -0.0146045 0.000724633 0.143008 
v -0.0143898 0.0107246 0.143031 
v -0.0148205 0.000724633 0.143008 
v -0.0146045 0.0107246 0.143008 
v -0.0150353 0.000724633 0.143031 
v -0.0148205 0.0107246 0.143008 
v -0.0152462 0.000724633 0.143078 
v -0.0150353 0.0107246 0.143031 
v -0.0154509 0.000724633 0.143147 
v -0.0152462 0.0107246 0.143078 
v -0.015647 0.000724633 0.143237 
v -0.0154509 0.0107246 0.143147 
v -0.0158321 0.000724633 0.143349 
v -0.015647 0.0107246 0.143237 
v -0.0160041 0.000724633 0.143479 
v -0.0158321 0.0107246 0.143349 
v -0.0161609 0.000724633 0.143628 
v -0.0160041 0.0107246 0.143479 
v -0.0163007 0.000724633 0.143793 
v -0.0161609 0.0107246 0.143628 
v -0.0164219 0.000724633 0.143971 
v -0.0163007 0.0107246 0.143793 
v -0.0165231 0.000724633 0.144162 
v -0.0164219 0.0107246 0.143971 
v -0.0166031 0.000724633 0.144363 
v -0.0165231 0.0107246 0.144162 
v -0.0166609 0.000724633 0.144571 
v -0.0166031 0.0107246 0.144363 
v -0.0166958 0.000724633 0.144784 
v -0.0166609 0.0107246 0.144571 
v -0.0167075 0.000724633 0.145 
v -0.0166958 0.0107246 0.144784 
v -0.0166958 0.000724633 0.145216 
v -0.0167075 0.0107246 0.145 
v -0.0166609 0.000724633 0.145429 
v -0.0166958 0.0107246 0.145216 
v -0.0166031 0.000724633 0.145637 
v -0.0166609 0.0107246 0.145429 
v -0.0165231 0.000724633 0.145838 
v -0.0166031 0.0107246 0.145637 
v -0.0164219 0.000724633 0.146029 
v -0.0165231 0.0107246 0.145838 
v -0.0163007 0.000724633 0.146207 
v -0.0164219 0.0107246 0.146029 
v -0.0161609 0.000724633 0.146372 
v -0.0163007 0.0107246 0.146207 
v -0.0160041 0.000724633 0.146521 
v -0.0161609 0.0107246 0.146372 
v -0.0158321 0.000724633 0.146651 
v -0.0160041 0.0107246 0.146521 
v -0.015647 0.000724633 0.146763 
v -0.0158321 0.0107246 0.146651 
v -0.0154509 0.000724633 0.146853 
v -0.015647 0.0107246 0.146763 
v -0.0152462 0.000724633 0.146922 
v -0.0154509 0.0107246 0.146853 
v -0.0150353 0.000724633 0.146969 
v -0.0152462 0.0107246 0.146922 
v -0.0148205 0.000724633 0.146992 
v -0.0150353 0.0107246 0.146969 
v -0.0146045 0.000724633 0.146992 
v -0.0148205 0.0107246 0.146992 
v -0.0143898 0.000724633 0.146969 
v -0.0146045 0.0107246 0.146992 
v -0.0141788 0.000724633 0.146922 
v -0.0143898 0.0107246 0.146969 
v -0.0139741 0.000724633 0.146853 
v -0.0141788 0.0107246 0.146922 
v -0.013778 0.000724633 0.146763 
v -0.0139741 0.0107246 0.146853 
v -0.0135929 0.000724633 0.146651 
v -0.013778 0.0107246 0.146763 
v -0.013421 0.000724633 0.146521 
v -0.0135929 0.0107246 0.146651 
v -0.0132642 0.000724633 0.146372 
v -0.013421 0.0107246 0.146521 
v -0.0131243 0.000724633 0.146207 
v -0.0132642 0.0107246 0.146372 
v -0.0130031 0.000724633 0.146029 
v -0.0131243 0.0107246 0.146207 
v -0.0129019 0.000724633 0.145838 
v -0.0130031 0.0107246 0.146029 
v -0.0128219 0.000724633 0.145637 
v -0.0129019 0.0107246 0.145838 
v -0.0127642 0.000724633 0.145429 
v -0.0128219 0.0107246 0.145637 
v -0.0127292 0.000724633 0.145216 
v -0.0127642 0.0107246 0.145429 
v -0.0127292 0.0107246 0.145216 
vn -0.994138 -1.15484e-16 0.108119 
vn -1 -1.16165e-16 2.44929e-16 
vn -1 -1.16165e-16 2.44929e-16 
vn -0.976621 -1.13449e-16 0.21497 
vn -0.994138 -1.15484e-16 0.108119 
vn -0.947653 -1.10084e-16 0.319302 
vn -0.976621 -1.13449e-16 0.21497 
vn -0.907575 -1.05428e-16 0.419889 
vn -0.947653 -1.10084e-16 0.319302 
vn -0.856857 -9.95364e-17 0.515554 
vn -0.907575 -1.05428e-16 0.419889 
vn -0.796093 -9.24778e-17 0.605174 
vn -0.856857 -9.95364e-17 0.515554 
vn -0.725995 -8.43349e-17 0.687699 
vn -0.796093 -9.24778e-17 0.605174 
vn -0.647386 -7.52033e-17 0.762162 
vn -0.725995 -8.43349e-17 0.687699 
vn -0.561187 -6.519e-17 0.827689 
vn -0.647386 -7.52033e-17 0.762162 
vn -0.468408 -5.44124e-17 0.883512 
vn -0.561187 -6.519e-17 0.827689 
vn -0.370138 -4.29969e-17 0.928977 
vn -0.468408 -5.44124e-17 0.883512 
vn -0.267528 -3.10773e-17 0.96355 
vn -0.370138 -4.29969e-17 0.928977 
vn -0.161782 -1.87933e-17 0.986827 
vn -0.267528 -3.10773e-17 0.96355 
vn -0.0541389 -6.28902e-18 0.998533 
vn -0.161782 -1.87933e-17 0.986827 
vn 0.0541389 6.28902e-18 0.998533 
vn -0.0541389 -6.28902e-18 0.998533 
vn 0.161782 1.87933e-17 0.986827 
vn 0.0541389 6.28902e-18 0.998533 
vn 0.267528 3.10773e-17 0.96355 
vn 0.161782 1.87933e-17 0.986827 
vn 0.370138 4.29969e-17 0.928977 
vn 0.267528 3.10773e-17 0.96355 
vn 0.468408 5.44124e-17 0.883512 
vn 0.370138 4.29969e-17 0.928977 
vn 0.561187 6.519e-17 0.827689 
vn 0.468408 5.44124e-17 0.883512 
vn 0.647386 7.52033e-17 0.762162 
vn 0.561187 6.519e-17 0.827689 
vn 0.725995 8.43349e-17 0.687699 
vn 0.647386 7.52033e-17 0.762162 
vn 0.796093 9.24778e-17 0.605174 
vn 0.725995 8.43349e-17 0.687699 
vn 0.856857 9.95364e-17 0.515554 
vn 0.796093 9.24778e-17 0.605174 
vn 0.907575 1.05428e-16 0.419889 
vn 0.856857 9.95364e-17 0.515554 
vn 0.947653 1.10084e-16 0.319302 
vn 0.907575 1.05428e-16 0.419889 
vn 0.976621 1.13449e-16 0.21497 
vn 0.947653 1.10084e-16 0.319302 
vn 0.994138 1.15484e-16 0.108119 
vn 0.976621 1.13449e-16 0.21497 
vn 1 1.16165e-16 -1.22465e-16 
vn 0.994138 1.15484e-16 0.108119 
vn 0.994138 1.15484e-16 -0.108119 
vn 1 1.16165e-16 -1.22465e-16 
vn 0.976621 1.13449e-16 -0.21497 
vn 0.994138 1.15484e-16 -0.108119 
vn 0.947653 1.10084e-16 -0.319302 
vn 0.976621 1.13449e-16 -0.21497 
vn 0.907575 1.05428e-16 -0.419889 
vn 0.947653 1.10084e-16 -0.319302 
vn 0.856857 9.95364e-17 -0.515554 
vn 0.907575 1.05428e-16 -0.419889 
vn 0.796093 9.24778e-17 -0.605174 
vn 0.856857 9.95364e-17 -0.515554 
vn 0.725995 8.43349e-17 -0.687699 
vn 0.796093 9.24778e-17 -0.605174 
vn 0.647386 7.52033e-17 -0.762162 
vn 0.725995 8.43349e-17 -0.687699 
vn 0.561187 6.519e-17 -0.827689 
vn 0.647386 7.52033e-17 -0.762162 
vn 0.468408 5.44124e-17 -0.883512 
vn 0.561187 6.519e-17 -0.827689 
vn 0.370138 4.29969e-17 -0.928977 
vn 0.468408 5.44124e-17 -0.883512 
vn 0.267528 3.10773e-17 -0.96355 
vn 0.370138 4.29969e-17 -0.928977 
vn 0.161782 1.87933e-17 -0.986827 
vn 0.267528 3.10773e-17 -0.96355 
vn 0.0541389 6.28902e-18 -0.998533 
vn 0.161782 1.87933e-17 -0.986827 
vn -0.0541389 -6.28902e-18 -0.998533 
vn 0.0541389 6.28902e-18 -0.998533 
vn -0.161782 -1.87933e-17 -0.986827 
vn -0.0541389 -6.28902e-18 -0.998533 
vn -0.267528 -3.10773e-17 -0.96355 
vn -0.161782 -1.87933e-17 -0.986827 
vn -0.370138 -4.29969e-17 -0.928977 
vn -0.267528 -3.10773e-17 -0.96355 
vn -0.468408 -5.44124e-17 -0.883512 
vn -0.370138 -4.29969e-17 -0.928977 
vn -0.561187 -6.519e-17 -0.827689 
vn -0.468408 -5.44124e-17 -0.883512 
vn -0.647386 -7.52033e-17 -0.762162 
vn -0.561187 -6.519e-17 -0.827689 
vn -0.725995 -8.43349e-17 -0.687699 
vn -0.647386 -7.52033e-17 -0.762162 
vn -0.796093 -9.24778e-17 -0.605174 
vn -0.725995 -8.43349e-17 -0.687699 
vn -0.856857 -9.95364e-17 -0.515554 
vn -0.796093 -9.24778e-17 -0.605174 
vn -0.907575 -1.05428e-16 -0.419889 
vn -0.856857 -9.95364e-17 -0.515554 
vn -0.947653 -1.10084e-16 -0.319302 
vn -0.907575 -1.05428e-16 -0.419889 
vn -0.976621 -1.13449e-16 -0.21497 
vn -0.947653 -1.10084e-16 -0.319302 
vn -0.994138 -1.15484e-16 -0.108119 
vn -0.976621 -1.13449e-16 -0.21497 
vn -0.994138 -1.15484e-16 -0.108119 
f 295//295 296//296 297//297 
f 298//298 295//295 299//299 
f 300//300 298//298 301//301 
f 302//302 300//300 303//303 
f 304//304 302//302 305//305 
f 306//306 304//304 307//307 
f 308//308 306//306 309//309 
f 310//310 308//308 311//311 
f 312//312 310//310 313//313 
f 314//314 312//312 315//315 
f 316//316 314//314 317//317 
f 318//318 316//316 319//319 
f 320//320 318//318 321//321 
f 322//322 320//320 323//323 
f 324//324 322//322 325//325 
f 326//326 324//324 327//327 
f 328//328 326//326 329//329 
f 330//330 328//328 331//331 
f 332//332 330//330 333//333 
f 334//334 332//332 335//335 
f 336//336 334//334 337//337 
f 338//338 336//336 339//339 
f 340//340 338//338 341//341 
f 342//342 340//340 343//343 
f 344//344 342//342 345//345 
f 346//346 344//344 347//347 
f 348//348 346//346 349//349 
f 350//350 348//348 351//351 
f 352//352 350//350 353//353 
f 354//354 352//352 355//355 
f 356//356 354//354 357//357 
f 358//358 356//356 359//359 
f 360//360 358//358 361//361 
f 362//362 360//360 363//363 
f 364//364 362//362 365//365 
f 366//366 364//364 367//367 
f 368//368 366//366 369//369 
f 370//370 368//368 371//371 
f 372//372 370//370 373//373 
f 374//374 372//372 375//375 
f 376//376 374//374 377//377 
f 378//378 376//376 379//379 
f 380//380 378//378 381//381 
f 382//382 380//380 383//383 
f 384//384 382//382 385//385 
f 386//386 384//384 387//387 
f 388//388 386//386 389//389 
f 390//390 388//388 391//391 
f 392//392 390//390 393//393 
f 394//394 392//392 395//395 
f 396//396 394//394 397//397 
f 398//398 396//396 399//399 
f 400//400 398//398 401//401 
f 402//402 400//400 403//403 
f 404//404 402//402 405//405 
f 406//406 404//404 407//407 
f 408//408 406//406 409//409 
f 296//296 408//408 410//410 
f 410//410 297//297 296//296 
f 409//409 410//410 408//408 
f 407//407 409//409 406//406 
f 405//405 407//407 404//404 
f 403//403 405//405 402//402 
f 401//401 403//403 400//400 
f 399//399 401//401 398//398 
f 397//397 399//399 396//396 
f 395//395 397//397 394//394 
f 393//393 395//395 392//392 
f 391//391 393//393 390//390 
f 389//389 391//391 388//388 
f 387//387 389//389 386//386 
f 385//385 387//387 384//384 
f 383//383 385//385 382//382 
f 381//381 383//383 380//380 
f 379//379 381//381 378//378 
f 377//377 379//379 376//376 
f 375//375 377//377 374//374 
f 373//373 375//375 372//372 
f 371//371 373//373 370//370 
f 369//369 371//371 368//368 
f 367//367 369//369 366//366 
f 365//365 367//367 364//364 
f 363//363 365//365 362//362 
f 361//361 363//363 360//360 
f 359//359 361//361 358//358 
f 357//357 359//359 356//356 
f 355//355 357//357 354//354 
f 353//353 355//355 352//352 
f 351//351 353//353 350//350 
f 349//349 351//351 348//348 
f 347//347 349//349 346//346 
f 345//345 347//347 344//344 
f 343//343 345//345 342//342 
f 341//341 343//343 340//340 
f 339//339 341//341 338//338 
f 337//337 339//339 336//336 
f 335//335 337//337 334//334 
f 333//333 335//335 332//332 
f 331//331 333//333 330//330 
f 329//329 331//331 328//328 
f 327//327 329//329 326//326 
f 325//325 327//327 324//324 
f 323//323 325//325 322//322 
f 321//321 323//323 320//320 
f 319//319 321//321 318//318 
f 317//317 319//319 316//316 
f 315//315 317//317 314//314 
f 313//313 315//315 312//312 
f 311//311 313//313 310//310 
f 309//309 311//311 308//308 
f 307//307 309//309 306//306 
f 305//305 307//307 304//304 
f 303//303 305//305 302//302 
f 301//301 303//303 300//300 
f 299//299 301//301 298//298 
f 297//297 299//299 295//295 
o mesh28322
v -0.0127292 0.000724633 0.0722843 
v -0.0127175 0.000724633 0.0725 
v -0.0127175 0.0107246 0.0725 
v -0.0127642 0.000724633 0.0720711 
v -0.0127292 0.0107246 0.0722843 
v -0.0128219 0.000724633 0.071863 
v -0.0127642 0.0107246 0.0720711 
v -0.0129019 0.000724633 0.0716623 
v -0.0128219 0.0107246 0.071863 
v -0.0130031 0.000724633 0.0714715 
v -0.0129019 0.0107246 0.0716623 
v -0.0131243 0.000724633 0.0712927 
v -0.0130031 0.0107246 0.0714715 
v -0.0132642 0.000724633 0.071128 
v -0.0131243 0.0107246 0.0712927 
v -0.013421 0.000724633 0.0709795 
v -0.0132642 0.0107246 0.071128 
v -0.0135929 0.000724633 0.0708488 
v -0.013421 0.0107246 0.0709795 
v -0.013778 0.000724633 0.0707374 
v -0.0135929 0.0107246 0.0708488 
v -0.0139741 0.000724633 0.0706467 
v -0.013778 0.0107246 0.0707374 
v -0.0141788 0.000724633 0.0705777 
v -0.0139741 0.0107246 0.0706467 
v -0.0143898 0.000724633 0.0705313 
v -0.0141788 0.0107246 0.0705777 
v -0.0146045 0.000724633 0.0705079 
v -0.0143898 0.0107246 0.0705313 
v -0.0148205 0.000724633 0.0705079 
v -0.0146045 0.0107246 0.0705079 
v -0.0150353 0.000724633 0.0705313 
v -0.0148205 0.0107246 0.0705079 
v -0.0152462 0.000724633 0.0705777 
v -0.0150353 0.0107246 0.0705313 
v -0.0154509 0.000724633 0.0706467 
v -0.0152462 0.0107246 0.0705777 
v -0.015647 0.000724633 0.0707374 
v -0.0154509 0.0107246 0.0706467 
v -0.0158321 0.000724633 0.0708488 
v -0.015647 0.0107246 0.0707374 
v -0.0160041 0.000724633 0.0709795 
v -0.0158321 0.0107246 0.0708488 
v -0.0161609 0.000724633 0.071128 
v -0.0160041 0.0107246 0.0709795 
v -0.0163007 0.000724633 0.0712927 
v -0.0161609 0.0107246 0.071128 
v -0.0164219 0.000724633 0.0714715 
v -0.0163007 0.0107246 0.0712927 
v -0.0165231 0.000724633 0.0716623 
v -0.0164219 0.0107246 0.0714715 
v -0.0166031 0.000724633 0.071863 
v -0.0165231 0.0107246 0.0716623 
v -0.0166609 0.000724633 0.0720711 
v -0.0166031 0.0107246 0.071863 
v -0.0166958 0.000724633 0.0722843 
v -0.0166609 0.0107246 0.0720711 
v -0.0167075 0.000724633 0.0725 
v -0.0166958 0.0107246 0.0722843 
v -0.0166958 0.000724633 0.0727157 
v -0.0167075 0.0107246 0.0725 
v -0.0166609 0.000724633 0.0729289 
v -0.0166958 0.0107246 0.0727157 
v -0.0166031 0.000724633 0.073137 
v -0.0166609 0.0107246 0.0729289 
v -0.0165231 0.000724633 0.0733377 
v -0.0166031 0.0107246 0.073137 
v -0.0164219 0.000724633 0.0735285 
v -0.0165231 0.0107246 0.0733377 
v -0.0163007 0.000724633 0.0737073 
v -0.0164219 0.0107246 0.0735285 
v -0.0161609 0.000724633 0.073872 
v -0.0163007 0.0107246 0.0737073 
v -0.0160041 0.000724633 0.0740205 
v -0.0161609 0.0107246 0.073872 
v -0.0158321 0.000724633 0.0741512 
v -0.0160041 0.0107246 0.0740205 
v -0.015647 0.000724633 0.0742626 
v -0.0158321 0.0107246 0.0741512 
v -0.0154509 0.000724633 0.0743533 
v -0.015647 0.0107246 0.0742626 
v -0.0152462 0.000724633 0.0744223 
v -0.0154509 0.0107246 0.0743533 
v -0.0150353 0.000724633 0.0744687 
v -0.0152462 0.0107246 0.0744223 
v -0.0148205 0.000724633 0.0744921 
v -0.0150353 0.0107246 0.0744687 
v -0.0146045 0.000724633 0.0744921 
v -0.0148205 0.0107246 0.0744921 
v -0.0143898 0.000724633 0.0744687 
v -0.0146045 0.0107246 0.0744921 
v -0.0141788 0.000724633 0.0744223 
v -0.0143898 0.0107246 0.0744687 
v -0.0139741 0.000724633 0.0743533 
v -0.0141788 0.0107246 0.0744223 
v -0.013778 0.000724633 0.0742626 
v -0.0139741 0.0107246 0.0743533 
v -0.0135929 0.000724633 0.0741512 
v -0.013778 0.0107246 0.0742626 
v -0.013421 0.000724633 0.0740205 
v -0.0135929 0.0107246 0.0741512 
v -0.0132642 0.000724633 0.073872 
v -0.013421 0.0107246 0.0740205 
v -0.0131243 0.000724633 0.0737073 
v -0.0132642 0.0107246 0.073872 
v -0.0130031 0.000724633 0.0735285 
v -0.0131243 0.0107246 0.0737073 
v -0.0129019 0.000724633 0.0733377 
v -0.0130031 0.0107246 0.0735285 
v -0.0128219 0.000724633 0.073137 
v -0.0129019 0.0107246 0.0733377 
v -0.0127642 0.000724633 0.0729289 
v -0.0128219 0.0107246 0.073137 
v -0.0127292 0.000724633 0.0727157 
v -0.0127642 0.0107246 0.0729289 
v -0.0127292 0.0107246 0.0727157 
vn -0.994138 -1.15484e-16 0.108119 
vn -1 -1.16165e-16 2.44929e-16 
vn -1 -1.16165e-16 2.44929e-16 
vn -0.976621 -1.13449e-16 0.21497 
vn -0.994138 -1.15484e-16 0.108119 
vn -0.947653 -1.10084e-16 0.319302 
vn -0.976621 -1.13449e-16 0.21497 
vn -0.907575 -1.05428e-16 0.419889 
vn -0.947653 -1.10084e-16 0.319302 
vn -0.856857 -9.95364e-17 0.515554 
vn -0.907575 -1.05428e-16 0.419889 
vn -0.796093 -9.24778e-17 0.605174 
vn -0.856857 -9.95364e-17 0.515554 
vn -0.725995 -8.43349e-17 0.687699 
vn -0.796093 -9.24778e-17 0.605174 
vn -0.647386 -7.52033e-17 0.762162 
vn -0.725995 -8.43349e-17 0.687699 
vn -0.561187 -6.519e-17 0.827689 
vn -0.647386 -7.52033e-17 0.762162 
vn -0.468408 -5.44124e-17 0.883512 
vn -0.561187 -6.519e-17 0.827689 
vn -0.370138 -4.29969e-17 0.928977 
vn -0.468408 -5.44124e-17 0.883512 
vn -0.267528 -3.10773e-17 0.96355 
vn -0.370138 -4.29969e-17 0.928977 
vn -0.161782 -1.87933e-17 0.986827 
vn -0.267528 -3.10773e-17 0.96355 
vn -0.0541389 -6.28902e-18 0.998533 
vn -0.161782 -1.87933e-17 0.986827 
vn 0.0541389 6.28902e-18 0.998533 
vn -0.0541389 -6.28902e-18 0.998533 
vn 0.161782 1.87933e-17 0.986827 
vn 0.0541389 6.28902e-18 0.998533 
vn 0.267528 3.10773e-17 0.96355 
vn 0.161782 1.87933e-17 0.986827 
vn 0.370138 4.29969e-17 0.928977 
vn 0.267528 3.10773e-17 0.96355 
vn 0.468408 5.44124e-17 0.883512 
vn 0.370138 4.29969e-17 0.928977 
vn 0.561187 6.519e-17 0.827689 
vn 0.468408 5.44124e-17 0.883512 
vn 0.647386 7.52033e-17 0.762162 
vn 0.561187 6.519e-17 0.827689 
vn 0.725995 8.43349e-17 0.687699 
vn 0.647386 7.52033e-17 0.762162 
vn 0.796093 9.24778e-17 0.605174 
vn 0.725995 8.43349e-17 0.687699 
vn 0.856857 9.95364e-17 0.515554 
vn 0.796093 9.24778e-17 0.605174 
vn 0.907575 1.05428e-16 0.419889 
vn 0.856857 9.95364e-17 0.515554 
vn 0.947653 1.10084e-16 0.319302 
vn 0.907575 1.05428e-16 0.419889 
vn 0.976621 1.13449e-16 0.21497 
vn 0.947653 1.10084e-16 0.319302 
vn 0.994138 1.15484e-16 0.108119 
vn 0.976621 1.13449e-16 0.21497 
vn 1 1.16165e-16 -1.22465e-16 
vn 0.994138 1.15484e-16 0.108119 
vn 0.994138 1.15484e-16 -0.108119 
vn 1 1.16165e-16 -1.22465e-16 
vn 0.976621 1.13449e-16 -0.21497 
vn 0.994138 1.15484e-16 -0.108119 
vn 0.947653 1.10084e-16 -0.319302 
vn 0.976621 1.13449e-16 -0.21497 
vn 0.907575 1.05428e-16 -0.419889 
vn 0.947653 1.10084e-16 -0.319302 
vn 0.856857 9.95364e-17 -0.515554 
vn 0.907575 1.05428e-16 -0.419889 
vn 0.796093 9.24778e-17 -0.605174 
vn 0.856857 9.95364e-17 -0.515554 
vn 0.725995 8.43349e-17 -0.687699 
vn 0.796093 9.24778e-17 -0.605174 
vn 0.647386 7.52033e-17 -0.762162 
vn 0.725995 8.43349e-17 -0.687699 
vn 0.561187 6.519e-17 -0.827689 
vn 0.647386 7.52033e-17 -0.762162 
vn 0.468408 5.44124e-17 -0.883512 
vn 0.561187 6.519e-17 -0.827689 
vn 0.370138 4.29969e-17 -0.928977 
vn 0.468408 5.44124e-17 -0.883512 
vn 0.267528 3.10773e-17 -0.96355 
vn 0.370138 4.29969e-17 -0.928977 
vn 0.161782 1.87933e-17 -0.986827 
vn 0.267528 3.10773e-17 -0.96355 
vn 0.0541389 6.28902e-18 -0.998533 
vn 0.161782 1.87933e-17 -0.986827 
vn -0.0541389 -6.28902e-18 -0.998533 
vn 0.0541389 6.28902e-18 -0.998533 
vn -0.161782 -1.87933e-17 -0.986827 
vn -0.0541389 -6.28902e-18 -0.998533 
vn -0.267528 -3.10773e-17 -0.96355 
vn -0.161782 -1.87933e-17 -0.986827 
vn -0.370138 -4.29969e-17 -0.928977 
vn -0.267528 -3.10773e-17 -0.96355 
vn -0.468408 -5.44124e-17 -0.883512 
vn -0.370138 -4.29969e-17 -0.928977 
vn -0.561187 -6.519e-17 -0.827689 
vn -0.468408 -5.44124e-17 -0.883512 
vn -0.647386 -7.52033e-17 -0.762162 
vn -0.561187 -6.519e-17 -0.827689 
vn -0.725995 -8.43349e-17 -0.687699 
vn -0.647386 -7.52033e-17 -0.762162 
vn -0.796093 -9.24778e-17 -0.605174 
vn -0.725995 -8.43349e-17 -0.687699 
vn -0.856857 -9.95364e-17 -0.515554 
vn -0.796093 -9.24778e-17 -0.605174 
vn -0.907575 -1.05428e-16 -0.419889 
vn -0.856857 -9.95364e-17 -0.515554 
vn -0.947653 -1.10084e-16 -0.319302 
vn -0.907575 -1.05428e-16 -0.419889 
vn -0.976621 -1.13449e-16 -0.21497 
vn -0.947653 -1.10084e-16 -0.319302 
vn -0.994138 -1.15484e-16 -0.108119 
vn -0.976621 -1.13449e-16 -0.21497 
vn -0.994138 -1.15484e-16 -0.108119 
f 411//411 412//412 413//413 
f 414//414 411//411 415//415 
f 416//416 414//414 417//417 
f 418//418 416//416 419//419 
f 420//420 418//418 421//421 
f 422//422 420//420 423//423 
f 424//424 422//422 425//425 
f 426//426 424//424 427//427 
f 428//428 426//426 429//429 
f 430//430 428//428 431//431 
f 432//432 430//430 433//433 
f 434//434 432//432 435//435 
f 436//436 434//434 437//437 
f 438//438 436//436 439//439 
f 440//440 438//438 441//441 
f 442//442 440//440 443//443 
f 444//444 442//442 445//445 
f 446//446 444//444 447//447 
f 448//448 446//446 449//449 
f 450//450 448//448 451//451 
f 452//452 450//450 453//453 
f 454//454 452//452 455//455 
f 456//456 454//454 457//457 
f 458//458 456//456 459//459 
f 460//460 458//458 461//461 
f 462//462 460//460 463//463 
f 464//464 462//462 465//465 
f 466//466 464//464 467//467 
f 468//468 466//466 469//469 
f 470//470 468//468 471//471 
f 472//472 470//470 473//473 
f 474//474 472//472 475//475 
f 476//476 474//474 477//477 
f 478//478 476//476 479//479 
f 480//480 478//478 481//481 
f 482//482 480//480 483//483 
f 484//484 482//482 485//485 
f 486//486 484//484 487//487 
f 488//488 486//486 489//489 
f 490//490 488//488 491//491 
f 492//492 490//490 493//493 
f 494//494 492//492 495//495 
f 496//496 494//494 497//497 
f 498//498 496//496 499//499 
f 500//500 498//498 501//501 
f 502//502 500//500 503//503 
f 504//504 502//502 505//505 
f 506//506 504//504 507//507 
f 508//508 506//506 509//509 
f 510//510 508//508 511//511 
f 512//512 510//510 513//513 
f 514//514 512//512 515//515 
f 516//516 514//514 517//517 
f 518//518 516//516 519//519 
f 520//520 518//518 521//521 
f 522//522 520//520 523//523 
f 524//524 522//522 525//525 
f 412//412 524//524 526//526 
f 526//526 413//413 412//412 
f 525//525 526//526 524//524 
f 523//523 525//525 522//522 
f 521//521 523//523 520//520 
f 519//519 521//521 518//518 
f 517//517 519//519 516//516 
f 515//515 517//517 514//514 
f 513//513 515//515 512//512 
f 511//511 513//513 510//510 
f 509//509 511//511 508//508 
f 507//507 509//509 506//506 
f 505//505 507//507 504//504 
f 503//503 505//505 502//502 
f 501//501 503//503 500//500 
f 499//499 501//501 498//498 
f 497//497 499//499 496//496 
f 495//495 497//497 494//494 
f 493//493 495//495 492//492 
f 491//491 493//493 490//490 
f 489//489 491//491 488//488 
f 487//487 489//489 486//486 
f 485//485 487//487 484//484 
f 483//483 485//485 482//482 
f 481//481 483//483 480//480 
f 479//479 481//481 478//478 
f 477//477 479//479 476//476 
f 475//475 477//477 474//474 
f 473//473 475//475 472//472 
f 471//471 473//473 470//470 
f 469//469 471//471 468//468 
f 467//467 469//469 466//466 
f 465//465 467//467 464//464 
f 463//463 465//465 462//462 
f 461//461 463//463 460//460 
f 459//459 461//461 458//458 
f 457//457 459//459 456//456 
f 455//455 457//457 454//454 
f 453//453 455//455 452//452 
f 451//451 453//453 450//450 
f 449//449 451//451 448//448 
f 447//447 449//449 446//446 
f 445//445 447//447 444//444 
f 443//443 445//445 442//442 
f 441//441 443//443 440//440 
f 439//439 441//441 438//438 
f 437//437 439//439 436//436 
f 435//435 437//437 434//434 
f 433//433 435//435 432//432 
f 431//431 433//433 430//430 
f 429//429 431//431 428//428 
f 427//427 429//429 426//426 
f 425//425 427//427 424//424 
f 423//423 425//425 422//422 
f 421//421 423//423 420//420 
f 419//419 421//421 418//418 
f 417//417 419//419 416//416 
f 415//415 417//417 414//414 
f 413//413 415//415 411//411 
o mesh28323
v -0.0217625 0.000824633 0.29 
v -0.0217625 0.000824633 0 
v -0.0216625 0.000724633 0 
v -0.0216625 0.000724633 0.29 
vn -0.707107 -0.707107 0 
vn -0.707107 -0.707107 0 
vn -0.707107 -0.707107 0 
vn -0.707107 -0.707107 0 
f 527//527 528//528 529//529 
f 529//529 530//530 527//527 
o mesh28324
v -0.0217625 0.00262463 0.29 
v -0.0217625 0.00262463 0 
v -0.0217625 0.000824633 0 
v -0.0217625 0.000824633 0.29 
vn -1 0 0 
vn -1 0 0 
vn -1 0 0 
vn -1 0 0 
f 531//531 532//532 533//533 
f 533//533 534//534 531//531 
o mesh28325
v -0.0216625 0.00272463 0.29 
v -0.0216625 0.00272463 0 
v -0.0217625 0.00262463 0 
v -0.0217625 0.00262463 0.29 
vn -0.707107 0.707107 0 
vn -0.707107 0.707107 0 
vn -0.707107 0.707107 0 
vn -0.707107 0.707107 0 
f 535//535 536//536 537//537 
f 537//537 538//538 535//535 
o mesh28326
v -0.0176805 0.00272463 0.29 
v -0.0176805 0.00272463 0 
v -0.0216625 0.00272463 0 
v -0.0216625 0.00272463 0.29 
vn 4.14802e-16 1 0 
vn 4.14802e-16 1 0 
vn 4.14802e-16 1 0 
vn 4.14802e-16 1 0 
f 539//539 540//540 541//541 
f 541//541 542//542 539//539 
o mesh28327
v -0.0175805 0.00282463 0.29 
v -0.0175805 0.00282463 0 
v -0.0176805 0.00272463 0 
v -0.0176805 0.00272463 0.29 
vn -0.707107 0.707107 0 
vn -0.707107 0.707107 0 
vn -0.707107 0.707107 0 
vn -0.707107 0.707107 0 
f 543//543 544//544 545//545 
f 545//545 546//546 543//543 
o mesh28328
v -0.0175805 0.00772463 0.29 
v -0.0175805 0.00772463 0 
v -0.0175805 0.00282463 0 
v -0.0175805 0.00282463 0.29 
vn -1 2.47818e-15 0 
vn -1 2.47818e-15 0 
vn -1 2.47818e-15 0 
vn -1 2.47818e-15 0 
f 547//547 548//548 549//549 
f 549//549 550//550 547//547 
o mesh28329
v -0.0193125 0.0107246 0.29 
v -0.0193125 0.0107246 0 
v -0.0175805 0.00772463 0 
v -0.0175805 0.00772463 0.29 
vn -0.866025 -0.5 0 
vn -0.866025 -0.5 0 
vn -0.866025 -0.5 0 
vn -0.866025 -0.5 0 
f 551//551 552//552 553//553 
f 553//553 554//554 551//551 
o mesh28330
v -0.0102484 0.0107246 0.29 
v -0.0130031 0.0107246 0.218529 
v -0.0131243 0.0107246 0.218707 
v -0.0127292 0.0107246 0.217716 
v -0.0127642 0.0107246 0.217929 
v -0.0102484 0.0107246 0 
v -0.0127292 0.0107246 0.217284 
v -0.0127175 0.0107246 0.2175 
v -0.0128219 0.0107246 0.216863 
v -0.0127642 0.0107246 0.217071 
v -0.0127292 0.0107246 0.144784 
v -0.0127175 0.0107246 0.145 
v -0.0128219 0.0107246 0.144363 
v -0.0127642 0.0107246 0.144571 
v -0.0132642 0.0107246 0.216128 
v -0.0131243 0.0107246 0.216293 
v -0.0132642 0.0107246 0.143628 
v -0.0131243 0.0107246 0.143793 
v -0.0164219 0.0107246 0.0735285 
v -0.0193125 0.0107246 0.29 
v -0.0167075 0.0107246 0.145 
v -0.0132642 0.0107246 0.218872 
v -0.0128219 0.0107246 0.218137 
v -0.0129019 0.0107246 0.218338 
v -0.0130031 0.0107246 0.216471 
v -0.0129019 0.0107246 0.216662 
v -0.013421 0.0107246 0.215979 
v -0.0139741 0.0107246 0.215647 
v -0.013778 0.0107246 0.215737 
v -0.013421 0.0107246 0.143479 
v -0.0163007 0.0107246 0.0737073 
v -0.0160041 0.0107246 0.0740205 
v -0.0161609 0.0107246 0.073872 
v -0.015647 0.0107246 0.0742626 
v -0.0158321 0.0107246 0.0741512 
v -0.0166958 0.0107246 0.144784 
v -0.013421 0.0107246 0.0740205 
v -0.0135929 0.0107246 0.0741512 
v -0.0135929 0.0107246 0.219151 
v -0.013778 0.0107246 0.219263 
v -0.013421 0.0107246 0.219021 
v -0.0135929 0.0107246 0.215849 
v -0.0130031 0.0107246 0.143971 
v -0.0129019 0.0107246 0.144162 
v -0.0135929 0.0107246 0.143349 
v -0.0127292 0.0107246 0.0722843 
v -0.0127175 0.0107246 0.0725 
v -0.0193125 0.0107246 0 
v -0.0166609 0.0107246 0.0720711 
v -0.0166031 0.0107246 0.071863 
v -0.0167075 0.0107246 0.0725 
v -0.0166958 0.0107246 0.0722843 
v -0.0165231 0.0107246 0.0733377 
v -0.0146045 0.0107246 0.0744921 
v -0.0148205 0.0107246 0.0744921 
v -0.0132642 0.0107246 0.073872 
v -0.0128219 0.0107246 0.073137 
v -0.0129019 0.0107246 0.0733377 
v -0.0160041 0.0107246 0.143479 
v -0.0158321 0.0107246 0.143349 
v -0.0166031 0.0107246 0.144363 
v -0.0165231 0.0107246 0.144162 
v -0.0166609 0.0107246 0.144571 
v -0.0166031 0.0107246 0.218137 
v -0.0166609 0.0107246 0.217929 
v -0.0164219 0.0107246 0.218529 
v -0.0165231 0.0107246 0.218338 
v -0.0161609 0.0107246 0.218872 
v -0.0163007 0.0107246 0.218707 
v -0.0154509 0.0107246 0.219353 
v -0.015647 0.0107246 0.219263 
v -0.0127642 0.0107246 0.0720711 
v -0.0129019 0.0107246 0.0716623 
v -0.0128219 0.0107246 0.071863 
v -0.013778 0.0107246 0.0707374 
v -0.0135929 0.0107246 0.0708488 
v -0.0141788 0.0107246 0.0705777 
v -0.0139741 0.0107246 0.0706467 
v -0.0146045 0.0107246 0.0705079 
v -0.0143898 0.0107246 0.0705313 
v -0.015647 0.0107246 0.0707374 
v -0.0154509 0.0107246 0.0706467 
v -0.0163007 0.0107246 0.0712927 
v -0.0161609 0.0107246 0.071128 
v -0.0152462 0.0107246 0.0744223 
v -0.0154509 0.0107246 0.0743533 
v -0.0150353 0.0107246 0.0744687 
v -0.0141788 0.0107246 0.0744223 
v -0.0143898 0.0107246 0.0744687 
v -0.013778 0.0107246 0.0742626 
v -0.0130031 0.0107246 0.0735285 
v -0.0152462 0.0107246 0.143078 
v -0.0127292 0.0107246 0.0727157 
v -0.0161609 0.0107246 0.143628 
v -0.0164219 0.0107246 0.143971 
v -0.0163007 0.0107246 0.143793 
v -0.0161609 0.0107246 0.146372 
v -0.0163007 0.0107246 0.146207 
v -0.0150353 0.0107246 0.146969 
v -0.0160041 0.0107246 0.215979 
v -0.0158321 0.0107246 0.215849 
v -0.0164219 0.0107246 0.216471 
v -0.0163007 0.0107246 0.216293 
v -0.0166031 0.0107246 0.216863 
v -0.0165231 0.0107246 0.216662 
v -0.0166958 0.0107246 0.217284 
v -0.0166609 0.0107246 0.217071 
v -0.0160041 0.0107246 0.219021 
v -0.0158321 0.0107246 0.219151 
v -0.0132642 0.0107246 0.071128 
v -0.0131243 0.0107246 0.0712927 
v -0.013421 0.0107246 0.0709795 
v -0.0148205 0.0107246 0.0705079 
v -0.0152462 0.0107246 0.0705777 
v -0.0160041 0.0107246 0.0709795 
v -0.0165231 0.0107246 0.0716623 
v -0.0139741 0.0107246 0.0743533 
v -0.0131243 0.0107246 0.0737073 
v -0.0154509 0.0107246 0.143147 
v -0.0127642 0.0107246 0.0729289 
v -0.015647 0.0107246 0.143237 
v -0.0160041 0.0107246 0.146521 
v -0.015647 0.0107246 0.215737 
v -0.0161609 0.0107246 0.216128 
v -0.0167075 0.0107246 0.2175 
v -0.0143898 0.0107246 0.215531 
v -0.0127292 0.0107246 0.145216 
v -0.0127642 0.0107246 0.145429 
v -0.0166958 0.0107246 0.217716 
v -0.0141788 0.0107246 0.215578 
v -0.0139741 0.0107246 0.143147 
v -0.013778 0.0107246 0.143237 
v -0.0143898 0.0107246 0.143031 
v -0.0141788 0.0107246 0.143078 
v -0.0150353 0.0107246 0.143031 
v -0.0148205 0.0107246 0.143008 
v -0.0146045 0.0107246 0.143008 
v -0.0150353 0.0107246 0.0705313 
v -0.0158321 0.0107246 0.0708488 
v -0.0164219 0.0107246 0.0714715 
v -0.0166031 0.0107246 0.145637 
v -0.0166609 0.0107246 0.145429 
v -0.0164219 0.0107246 0.146029 
v -0.0165231 0.0107246 0.145838 
v -0.0158321 0.0107246 0.146651 
v -0.0150353 0.0107246 0.215531 
v -0.0146045 0.0107246 0.146992 
v -0.0148205 0.0107246 0.146992 
v -0.0148205 0.0107246 0.215508 
v -0.0131243 0.0107246 0.146207 
v -0.0132642 0.0107246 0.146372 
v -0.0128219 0.0107246 0.145637 
v -0.0129019 0.0107246 0.145838 
v -0.0150353 0.0107246 0.219469 
v -0.0152462 0.0107246 0.219422 
v -0.0146045 0.0107246 0.219492 
v -0.0148205 0.0107246 0.219492 
v -0.0143898 0.0107246 0.219469 
v -0.0130031 0.0107246 0.0714715 
v -0.0166958 0.0107246 0.0727157 
v -0.0166031 0.0107246 0.073137 
v -0.0166609 0.0107246 0.0729289 
v -0.0166958 0.0107246 0.145216 
v -0.0154509 0.0107246 0.146853 
v -0.015647 0.0107246 0.146763 
v -0.0152462 0.0107246 0.146922 
v -0.0143898 0.0107246 0.146969 
v -0.0146045 0.0107246 0.215508 
v -0.0154509 0.0107246 0.215647 
v -0.0152462 0.0107246 0.215578 
v -0.0135929 0.0107246 0.146651 
v -0.013778 0.0107246 0.146763 
v -0.013421 0.0107246 0.146521 
v -0.0139741 0.0107246 0.219353 
v -0.0141788 0.0107246 0.219422 
v -0.0130031 0.0107246 0.146029 
v -0.0139741 0.0107246 0.146853 
v -0.0141788 0.0107246 0.146922 
vn 7.65536e-16 1 0 
vn 7.65536e-16 1 0 
vn 7.65536e-16 1 0 
vn 7.65536e-16 1 0 
vn 7.65536e-16 1 0 
vn 7.65536e-16 1 0 
vn 7.65536e-16 1 0 
vn 7.65536e-16 1 0 
vn 7.65536e-16 1 0 
vn 7.65536e-16 1 0 
vn 7.65536e-16 1 0 
vn 7.65536e-16 1 0 
vn 7.65536e-16 1 0 
vn 7.65536e-16 1 0 
vn 7.65536e-16 1 0 
vn 7.65536e-16 1 0 
vn 7.65536e-16 1 0 
vn 7.65536e-16 1 0 
vn 7.65536e-16 1 0 
vn 7.65536e-16 1 0 
vn 7.65536e-16 1 0 
vn 7.65536e-16 1 0 
vn 7.65536e-16 1 0 
vn 7.65536e-16 1 0 
vn 7.65536e-16 1 0 
vn 7.65536e-16 1 0 
vn 7.65536e-16 1 0 
vn 7.65536e-16 1 0 
vn 7.65536e-16 1 0 
vn 7.65536e-16 1 0 
vn 7.65536e-16 1 0 
vn 7.65536e-16 1 0 
vn 7.65536e-16 1 0 
vn 7.65536e-16 1 0 
vn 7.65536e-16 1 0 
vn 7.65536e-16 1 0 
vn 7.65536e-16 1 0 
vn 7.65536e-16 1 0 
vn 7.65536e-16 1 0 
vn 7.65536e-16 1 0 
vn 7.65536e-16 1 0 
vn 7.65536e-16 1 0 
vn 7.65536e-16 1 0 
vn 7.65536e-16 1 0 
vn 7.65536e-16 1 0 
vn 7.65536e-16 1 0 
vn 7.65536e-16 1 0 
vn 7.65536e-16 1 0 
vn 7.65536e-16 1 0 
vn 7.65536e-16 1 0 
vn 7.65536e-16 1 0 
vn 7.65536e-16 1 0 
vn 7.65536e-16 1 0 
vn 7.65536e-16 1 0 
vn 7.65536e-16 1 0 
vn 7.65536e-16 1 0 
vn 7.65536e-16 1 0 
vn 7.65536e-16 1 0 
vn 7.65536e-16 1 0 
vn 7.65536e-16 1 0 
vn 7.65536e-16 1 0 
vn 7.65536e-16 1 0 
vn 7.65536e-16 1 0 
vn 7.65536e-16 1 0 
vn 7.65536e-16 1 0 
vn 7.65536e-16 1 0 
vn 7.65536e-16 1 0 
vn 7.65536e-16 1 0 
vn 7.65536e-16 1 0 
vn 7.65536e-16 1 0 
vn 7.65536e-16 1 0 
vn 7.65536e-16 1 0 
vn 7.65536e-16 1 0 
vn 7.65536e-16 1 0 
vn 7.65536e-16 1 0 
vn 7.65536e-16 1 0 
vn 7.65536e-16 1 0 
vn 7.65536e-16 1 0 
vn 7.65536e-16 1 0 
vn 7.65536e-16 1 0 
vn 7.65536e-16 1 0 
vn 7.65536e-16 1 0 
vn 7.65536e-16 1 0 
vn 7.65536e-16 1 0 
vn 7.65536e-16 1 0 
vn 7.65536e-16 1 0 
vn 7.65536e-16 1 0 
vn 7.65536e-16 1 0 
vn 7.65536e-16 1 0 
vn 7.65536e-16 1 0 
vn 7.65536e-16 1 0 
vn 7.65536e-16 1 0 
vn 7.65536e-16 1 0 
vn 7.65536e-16 1 0 
vn 7.65536e-16 1 0 
vn 7.65536e-16 1 0 
vn 7.65536e-16 1 0 
vn 7.65536e-16 1 0 
vn 7.65536e-16 1 0 
vn 7.65536e-16 1 0 
vn 7.65536e-16 1 0 
vn 7.65536e-16 1 0 
vn 7.65536e-16 1 0 
vn 7.65536e-16 1 0 
vn 7.65536e-16 1 0 
vn 7.65536e-16 1 0 
vn 7.65536e-16 1 0 
vn 7.65536e-16 1 0 
vn 7.65536e-16 1 0 
vn 7.65536e-16 1 0 
vn 7.65536e-16 1 0 
vn 7.65536e-16 1 0 
vn 7.65536e-16 1 0 
vn 7.65536e-16 1 0 
vn 7.65536e-16 1 0 
vn 7.65536e-16 1 0 
vn 7.65536e-16 1 0 
vn 7.65536e-16 1 0 
vn 7.65536e-16 1 0 
vn 7.65536e-16 1 0 
vn 7.65536e-16 1 0 
vn 7.65536e-16 1 0 
vn 7.65536e-16 1 0 
vn 7.65536e-16 1 0 
vn 7.65536e-16 1 0 
vn 7.65536e-16 1 0 
vn 7.65536e-16 1 0 
vn 7.65536e-16 1 0 
vn 7.65536e-16 1 0 
vn 7.65536e-16 1 0 
vn 7.65536e-16 1 0 
vn 7.65536e-16 1 0 
vn 7.65536e-16 1 0 
vn 7.65536e-16 1 0 
vn 7.65536e-16 1 0 
vn 7.65536e-16 1 0 
vn 7.65536e-16 1 0 
vn 7.65536e-16 1 0 
vn 7.65536e-16 1 0 
vn 7.65536e-16 1 0 
vn 7.65536e-16 1 0 
vn 7.65536e-16 1 0 
vn 7.65536e-16 1 0 
vn 7.65536e-16 1 0 
vn 7.65536e-16 1 0 
vn 7.65536e-16 1 0 
vn 7.65536e-16 1 0 
vn 7.65536e-16 1 0 
vn 7.65536e-16 1 0 
vn 7.65536e-16 1 0 
vn 7.65536e-16 1 0 
vn 7.65536e-16 1 0 
vn 7.65536e-16 1 0 
vn 7.65536e-16 1 0 
vn 7.65536e-16 1 0 
vn 7.65536e-16 1 0 
vn 7.65536e-16 1 0 
vn 7.65536e-16 1 0 
vn 7.65536e-16 1 0 
vn 7.65536e-16 1 0 
vn 7.65536e-16 1 0 
vn 7.65536e-16 1 0 
vn 7.65536e-16 1 0 
vn 7.65536e-16 1 0 
vn 7.65536e-16 1 0 
vn 7.65536e-16 1 0 
vn 7.65536e-16 1 0 
vn 7.65536e-16 1 0 
vn 7.65536e-16 1 0 
vn 7.65536e-16 1 0 
vn 7.65536e-16 1 0 
vn 7.65536e-16 1 0 
vn 7.65536e-16 1 0 
vn 7.65536e-16 1 0 
vn 7.65536e-16 1 0 
vn 7.65536e-16 1 0 
vn 7.65536e-16 1 0 
vn 7.65536e-16 1 0 
f 555//555 556//556 557//557 
f 555//555 558//558 559//559 
f 560//560 561//561 562//562 
f 560//560 563//563 564//564 
f 560//560 565//565 566//566 
f 560//560 567//567 568//568 
f 566//566 569//569 570//570 
f 560//560 571//571 572//572 
f 573//573 574//574 575//575 
f 557//557 576//576 555//555 
f 555//555 577//577 578//578 
f 555//555 562//562 558//558 
f 564//564 561//561 560//560 
f 560//560 579//579 580//580 
f 568//568 565//565 560//560 
f 566//566 581//581 569//569 
f 566//566 582//582 583//583 
f 560//560 584//584 571//571 
f 575//575 585//585 573//573 
f 575//575 586//586 587//587 
f 575//575 588//588 589//589 
f 590//590 591//591 592//592 
f 555//555 593//593 594//594 
f 576//576 595//595 555//555 
f 559//559 577//577 555//555 
f 580//580 563//563 560//560 
f 570//570 579//579 566//566 
f 583//583 596//596 566//566 
f 560//560 597//597 598//598 
f 560//560 599//599 584//584 
f 560//560 600//600 601//601 
f 602//602 603//603 604//604 
f 602//602 605//605 606//606 
f 573//573 607//607 574//574 
f 589//589 586//586 575//575 
f 575//575 608//608 609//609 
f 590//590 610//610 591//591 
f 590//590 611//611 612//612 
f 611//611 613//613 614//614 
f 611//611 615//615 616//616 
f 611//611 590//590 617//617 
f 574//574 618//618 619//619 
f 574//574 620//620 621//621 
f 574//574 622//622 623//623 
f 574//574 624//624 625//625 
f 595//595 593//593 555//555 
f 562//562 555//555 560//560 
f 596//596 581//581 566//566 
f 572//572 597//597 560//560 
f 560//560 626//626 600//600 
f 560//560 627//627 628//628 
f 560//560 629//629 630//630 
f 560//560 631//631 632//632 
f 560//560 633//633 634//634 
f 602//602 635//635 636//636 
f 602//602 637//637 638//638 
f 606//606 603//603 602//602 
f 587//587 585//585 575//575 
f 575//575 639//639 640//640 
f 609//609 641//641 575//575 
f 575//575 642//642 643//643 
f 642//642 575//575 590//590 
f 592//592 644//644 590//590 
f 612//612 645//645 590//590 
f 646//646 601//601 647//647 
f 611//611 648//648 613//613 
f 611//611 649//649 650//650 
f 617//617 615//615 611//611 
f 574//574 651//651 652//652 
f 653//653 654//654 655//655 
f 653//653 656//656 657//657 
f 653//653 658//658 659//659 
f 653//653 660//660 661//661 
f 621//621 618//618 574//574 
f 574//574 662//662 622//622 
f 625//625 663//663 574//574 
f 578//578 556//556 555//555 
f 598//598 567//567 560//560 
f 628//628 626//626 560//560 
f 560//560 664//664 665//665 
f 630//630 666//666 560//560 
f 634//634 631//631 560//560 
f 560//560 602//602 667//667 
f 636//636 668//668 602//602 
f 638//638 669//669 602//602 
f 604//604 670//670 602//602 
f 640//640 588//588 575//575 
f 643//643 608//608 575//575 
f 644//644 671//671 590//590 
f 645//645 672//672 590//590 
f 673//673 647//647 674//674 
f 647//647 673//673 646//646 
f 614//614 675//675 611//611 
f 616//616 649//649 611//611 
f 574//574 676//676 651//651 
f 655//655 677//677 653//653 
f 657//657 678//678 653//653 
f 661//661 658//658 653//653 
f 653//653 574//574 679//679 
f 680//680 681//681 682//682 
f 619//619 683//683 574//574 
f 663//663 662//662 574//574 
f 566//566 579//579 560//560 
f 566//566 680//680 684//684 
f 560//560 685//685 686//686 
f 560//560 687//687 688//688 
f 601//601 689//689 690//690 
f 601//601 691//691 560//560 
f 666//666 664//664 560//560 
f 667//667 633//633 560//560 
f 668//668 692//692 602//602 
f 669//669 693//693 602//602 
f 670//670 694//694 602//602 
f 641//641 639//639 575//575 
f 672//672 610//610 590//590 
f 646//646 689//689 601//601 
f 650//650 648//648 611//611 
f 574//574 695//695 696//696 
f 574//574 697//697 698//698 
f 574//574 699//699 676//676 
f 700//700 701//701 702//702 
f 701//701 700//700 703//703 
f 678//678 654//654 653//653 
f 679//679 660//660 653//653 
f 680//680 704//704 705//705 
f 680//680 706//706 707//707 
f 680//680 566//566 681//681 
f 623//623 620//620 574//574 
f 574//574 708//708 709//709 
f 574//574 710//710 711//711 
f 555//555 712//712 710//710 
f 684//684 582//582 566//566 
f 688//688 685//685 560//560 
f 691//691 687//687 560//560 
f 665//665 713//713 560//560 
f 692//692 667//667 602//602 
f 694//694 637//637 602//602 
f 574//574 714//714 605//605 
f 574//574 715//715 716//716 
f 590//590 671//671 642//642 
f 675//675 673//673 611//611 
f 696//696 717//717 574//574 
f 652//652 697//697 574//574 
f 574//574 718//718 719//719 
f 574//574 653//653 720//720 
f 721//721 703//703 722//722 
f 703//703 721//721 701//701 
f 653//653 723//723 724//724 
f 659//659 656//656 653//653 
f 680//680 725//725 726//726 
f 705//705 727//727 680//680 
f 682//682 706//706 680//680 
f 709//709 624//624 574//574 
f 710//710 574//574 555//555 
f 555//555 728//728 729//729 
f 686//686 599//599 560//560 
f 713//713 627//627 560//560 
f 693//693 635//635 602//602 
f 716//716 714//714 574//574 
f 674//674 611//611 673//673 
f 698//698 695//695 574//574 
f 720//720 718//718 574//574 
f 702//702 653//653 700//700 
f 677//677 723//723 653//653 
f 727//727 725//725 680//680 
f 707//707 730//730 680//680 
f 711//711 708//708 574//574 
f 594//594 728//728 555//555 
f 632//632 629//629 560//560 
f 607//607 715//715 574//574 
f 719//719 699//699 574//574 
f 724//724 700//700 653//653 
f 680//680 731//731 732//732 
f 730//730 704//704 680//680 
f 729//729 712//712 555//555 
f 605//605 602//602 574//574 
f 722//722 680//680 721//721 
f 726//726 731//731 680//680 
f 690//690 691//691 601//601 
f 732//732 721//721 680//680 
f 717//717 575//575 574//574 
f 683//683 679//679 574//574 
o mesh28331
v -0.0119805 0.00772463 0.29 
v -0.0119805 0.00772463 0 
v -0.0102484 0.0107246 0 
v -0.0102484 0.0107246 0.29 
vn 0.866025 -0.5 0 
vn 0.866025 -0.5 0 
vn 0.866025 -0.5 0 
vn 0.866025 -0.5 0 
f 733//733 734//734 735//735 
f 735//735 736//736 733//733 
o mesh28332
v -0.0119805 0.00772463 0 
v -0.0119805 0.00772463 0.29 
v -0.0119805 0.00282463 0.29 
v -0.0119805 0.00282463 0 
vn 1 4.95635e-16 0 
vn 1 4.95635e-16 0 
vn 1 4.95635e-16 0 
vn 1 4.95635e-16 0 
f 737//737 738//738 739//739 
f 739//739 740//740 737//737 
o mesh28333
v -0.00776252 0.000724633 0.29 
v -0.00776252 0.000724633 0 
v -0.00766252 0.000824633 0 
v -0.00766252 0.000824633 0.29 
vn 0.707107 -0.707107 0 
vn 0.707107 -0.707107 0 
vn 0.707107 -0.707107 0 
vn 0.707107 -0.707107 0 
f 741//741 742//742 743//743 
f 743//743 744//744 741//741 
o mesh28334
v -0.00766252 0.00262463 0 
v -0.00766252 0.00262463 0.29 
v -0.00766252 0.000824633 0.29 
v -0.00766252 0.000824633 0 
vn 1 4.95635e-16 0 
vn 1 4.95635e-16 0 
vn 1 4.95635e-16 0 
vn 1 4.95635e-16 0 
f 745//745 746//746 747//747 
f 747//747 748//748 745//745 
o mesh28335
v -0.0175805 0.00772463 0.29 
v -0.0175805 0.00282463 0.29 
v -0.0119805 0.00282463 0.29 
v -0.0217625 0.000824633 0.29 
v -0.0176805 0.00272463 0.29 
v -0.0216625 0.00272463 0.29 
v -0.0119805 0.00772463 0.29 
v -0.0118805 0.00272463 0.29 
v -0.00776252 0.000724633 0.29 
v -0.00766252 0.000824633 0.29 
v -0.0217625 0.00262463 0.29 
v -0.0102484 0.0107246 0.29 
v -0.0193125 0.0107246 0.29 
v -0.00766252 0.00262463 0.29 
v -0.0216625 0.000724633 0.29 
v -0.00776252 0.00272463 0.29 
vn 0 0 1 
vn 0 0 1 
vn 0 0 1 
vn 0 0 1 
vn 0 0 1 
vn 0 0 1 
vn 0 0 1 
vn 0 0 1 
vn 0 0 1 
vn 0 0 1 
vn 0 0 1 
vn 0 0 1 
vn 0 0 1 
vn 0 0 1 
vn 0 0 1 
vn 0 0 1 
f 749//749 750//750 751//751 
f 752//752 753//753 754//754 
f 751//751 755//755 749//749 
f 756//756 757//757 758//758 
f 754//754 759//759 752//752 
f 760//760 761//761 749//749 
f 758//758 762//762 756//756 
f 763//763 751//751 753//753 
f 755//755 760//760 749//749 
f 762//762 764//764 756//756 
f 750//750 753//753 751//751 
f 756//756 763//763 757//757 
f 756//756 751//751 763//763 
f 752//752 763//763 753//753 
o mesh28336
v -0.0175805 0.00772463 0 
v -0.0119805 0.00772463 0 
v -0.0119805 0.00282463 0 
v -0.0118805 0.00272463 0 
v -0.00766252 0.00262463 0 
v -0.00766252 0.000824633 0 
v -0.0102484 0.0107246 0 
v -0.0217625 0.000824633 0 
v -0.0217625 0.00262463 0 
v -0.0216625 0.00272463 0 
v -0.00776252 0.00272463 0 
v -0.0175805 0.00282463 0 
v -0.0176805 0.00272463 0 
v -0.0216625 0.000724633 0 
v -0.00776252 0.000724633 0 
v -0.0193125 0.0107246 0 
vn 0 0 -1 
vn 0 0 -1 
vn 0 0 -1 
vn 0 0 -1 
vn 0 0 -1 
vn 0 0 -1 
vn 0 0 -1 
vn 0 0 -1 
vn 0 0 -1 
vn 0 0 -1 
vn 0 0 -1 
vn 0 0 -1 
vn 0 0 -1 
vn 0 0 -1 
vn 0 0 -1 
vn 0 0 -1 
f 765//765 766//766 767//767 
f 768//768 769//769 770//770 
f 765//765 771//771 766//766 
f 772//772 773//773 774//774 
f 768//768 775//775 769//769 
f 767//767 776//776 765//765 
f 777//777 778//778 772//772 
f 779//779 778//778 768//768 
f 767//767 777//777 776//776 
f 774//774 777//777 772//772 
f 778//778 767//767 768//768 
f 777//777 767//767 778//778 
f 765//765 780//780 771//771 
f 770//770 779//779 768//768 
o mesh28337
v -0.0118805 0.00272463 0 
v -0.0118805 0.00272463 0.29 
v -0.00776252 0.00272463 0.29 
v -0.00776252 0.00272463 0 
vn -2.00874e-16 1 0 
vn -2.00874e-16 1 0 
vn -2.00874e-16 1 0 
vn -2.00874e-16 1 0 
f 781//781 782//782 783//783 
f 783//783 784//784 781//781 
o mesh28338
v -0.00766252 0.00262463 0.29 
v -0.00766252 0.00262463 0 
v -0.00776252 0.00272463 0 
v -0.00776252 0.00272463 0.29 
vn 0.707107 0.707107 0 
vn 0.707107 0.707107 0 
vn 0.707107 0.707107 0 
vn 0.707107 0.707107 0 
f 785//785 786//786 787//787 
f 787//787 788//788 785//785 
o mesh28339
v -0.0118805 0.00272463 0.29 
v -0.0118805 0.00272463 0 
v -0.0119805 0.00282463 0 
v -0.0119805 0.00282463 0.29 
vn 0.707107 0.707107 0 
vn 0.707107 0.707107 0 
vn 0.707107 0.707107 0 
vn 0.707107 0.707107 0 
f 789//789 790//790 791//791 
f 791//791 792//792 789//789 
