# OBJ generated by ONSHAPE BY PTC INC, 1.215 Units = meters
mtllib Extrusion_Profile.mtl
g Extrusion Profile
usemtl 0.796078_0.823529_0.937255_0.000000_0.000000
o mesh17125
v 0.00200746 0.000218325 -0.127 
v 0.0020193 2.47293e-19 -0.127 
v 0.0020193 2.47293e-19 0.0381 
v 0.00197209 0.00043409 -0.127 
v 0.00200746 0.000218325 0.0381 
v 0.0019136 0.000644766 -0.127 
v 0.00197209 0.00043409 0.0381 
v 0.00183267 0.000847882 -0.127 
v 0.0019136 0.000644766 0.0381 
v 0.00173025 0.00104106 -0.127 
v 0.00183267 0.000847882 0.0381 
v 0.00160755 0.00122203 -0.127 
v 0.00173025 0.00104106 0.0381 
v 0.001466 0.00138867 -0.127 
v 0.00160755 0.00122203 0.0381 
v 0.00130727 0.00153903 -0.127 
v 0.001466 0.00138867 0.0381 
v 0.00113321 0.00167135 -0.127 
v 0.00130727 0.00153903 0.0381 
v 0.000945857 0.00178408 -0.127 
v 0.00113321 0.00167135 0.0381 
v 0.00074742 0.00187588 -0.127 
v 0.000945857 0.00178408 0.0381 
v 0.00054022 0.0019457 -0.127 
v 0.00074742 0.00187588 0.0381 
v 0.000326686 0.0019927 -0.127 
v 0.00054022 0.0019457 0.0381 
v 0.000109323 0.00201634 -0.127 
v 0.000326686 0.0019927 0.0381 
v -0.000109323 0.00201634 -0.127 
v 0.000109323 0.00201634 0.0381 
v -0.000326686 0.0019927 -0.127 
v -0.000109323 0.00201634 0.0381 
v -0.00054022 0.0019457 -0.127 
v -0.000326686 0.0019927 0.0381 
v -0.00074742 0.00187588 -0.127 
v -0.00054022 0.0019457 0.0381 
v -0.000945857 0.00178408 -0.127 
v -0.00074742 0.00187588 0.0381 
v -0.00113321 0.00167135 -0.127 
v -0.000945857 0.00178408 0.0381 
v -0.00130727 0.00153903 -0.127 
v -0.00113321 0.00167135 0.0381 
v -0.001466 0.00138867 -0.127 
v -0.00130727 0.00153903 0.0381 
v -0.00160755 0.00122203 -0.127 
v -0.001466 0.00138867 0.0381 
v -0.00173025 0.00104106 -0.127 
v -0.00160755 0.00122203 0.0381 
v -0.00183267 0.000847882 -0.127 
v -0.00173025 0.00104106 0.0381 
v -0.0019136 0.000644766 -0.127 
v -0.00183267 0.000847882 0.0381 
v -0.00197209 0.00043409 -0.127 
v -0.0019136 0.000644766 0.0381 
v -0.00200746 0.000218325 -0.127 
v -0.00197209 0.00043409 0.0381 
v -0.0020193 0 -0.127 
v -0.00200746 0.000218325 0.0381 
v -0.0020193 0 0.0381 
vn -0.994138 -0.108119 0 
vn -1 -1.22465e-16 0 
vn -1 -1.22465e-16 0 
vn -0.976621 -0.21497 0 
vn -0.994138 -0.108119 0 
vn -0.947653 -0.319302 0 
vn -0.976621 -0.21497 0 
vn -0.907575 -0.419889 0 
vn -0.947653 -0.319302 0 
vn -0.856857 -0.515554 0 
vn -0.907575 -0.419889 0 
vn -0.796093 -0.605174 0 
vn -0.856857 -0.515554 0 
vn -0.725995 -0.687699 0 
vn -0.796093 -0.605174 0 
vn -0.647386 -0.762162 0 
vn -0.725995 -0.687699 0 
vn -0.561187 -0.827689 0 
vn -0.647386 -0.762162 0 
vn -0.468408 -0.883512 0 
vn -0.561187 -0.827689 0 
vn -0.370138 -0.928977 0 
vn -0.468408 -0.883512 0 
vn -0.267528 -0.96355 0 
vn -0.370138 -0.928977 0 
vn -0.161782 -0.986827 0 
vn -0.267528 -0.96355 0 
vn -0.0541389 -0.998533 0 
vn -0.161782 -0.986827 0 
vn 0.0541389 -0.998533 0 
vn -0.0541389 -0.998533 0 
vn 0.161782 -0.986827 0 
vn 0.0541389 -0.998533 0 
vn 0.267528 -0.96355 0 
vn 0.161782 -0.986827 0 
vn 0.370138 -0.928977 0 
vn 0.267528 -0.96355 0 
vn 0.468408 -0.883512 0 
vn 0.370138 -0.928977 0 
vn 0.561187 -0.827689 0 
vn 0.468408 -0.883512 0 
vn 0.647386 -0.762162 0 
vn 0.561187 -0.827689 0 
vn 0.725995 -0.687699 0 
vn 0.647386 -0.762162 0 
vn 0.796093 -0.605174 0 
vn 0.725995 -0.687699 0 
vn 0.856857 -0.515554 0 
vn 0.796093 -0.605174 0 
vn 0.907575 -0.419889 0 
vn 0.856857 -0.515554 0 
vn 0.947653 -0.319302 0 
vn 0.907575 -0.419889 0 
vn 0.976621 -0.21497 0 
vn 0.947653 -0.319302 0 
vn 0.994138 -0.108119 0 
vn 0.976621 -0.21497 0 
vn 1 0 0 
vn 0.994138 -0.108119 0 
vn 1 0 0 
f 1//1 2//2 3//3 
f 4//4 1//1 5//5 
f 6//6 4//4 7//7 
f 8//8 6//6 9//9 
f 10//10 8//8 11//11 
f 12//12 10//10 13//13 
f 14//14 12//12 15//15 
f 16//16 14//14 17//17 
f 18//18 16//16 19//19 
f 20//20 18//18 21//21 
f 22//22 20//20 23//23 
f 24//24 22//22 25//25 
f 26//26 24//24 27//27 
f 28//28 26//26 29//29 
f 30//30 28//28 31//31 
f 32//32 30//30 33//33 
f 34//34 32//32 35//35 
f 36//36 34//34 37//37 
f 38//38 36//36 39//39 
f 40//40 38//38 41//41 
f 42//42 40//40 43//43 
f 44//44 42//42 45//45 
f 46//46 44//44 47//47 
f 48//48 46//46 49//49 
f 50//50 48//48 51//51 
f 52//52 50//50 53//53 
f 54//54 52//52 55//55 
f 56//56 54//54 57//57 
f 58//58 56//56 59//59 
f 59//59 60//60 58//58 
f 57//57 59//59 56//56 
f 55//55 57//57 54//54 
f 53//53 55//55 52//52 
f 51//51 53//53 50//50 
f 49//49 51//51 48//48 
f 47//47 49//49 46//46 
f 45//45 47//47 44//44 
f 43//43 45//45 42//42 
f 41//41 43//43 40//40 
f 39//39 41//41 38//38 
f 37//37 39//39 36//36 
f 35//35 37//37 34//34 
f 33//33 35//35 32//32 
f 31//31 33//33 30//30 
f 29//29 31//31 28//28 
f 27//27 29//29 26//26 
f 25//25 27//27 24//24 
f 23//23 25//25 22//22 
f 21//21 23//23 20//20 
f 19//19 21//21 18//18 
f 17//17 19//19 16//16 
f 15//15 17//17 14//14 
f 13//13 15//15 12//12 
f 11//11 13//13 10//10 
f 9//9 11//11 8//8 
f 7//7 9//9 6//6 
f 5//5 7//7 4//4 
f 3//3 5//5 1//1 
o mesh17126
v -0.00200746 -0.000218325 -0.127 
v -0.0020193 0 -0.127 
v -0.0020193 0 0.0381 
v -0.00197209 -0.00043409 -0.127 
v -0.00200746 -0.000218325 0.0381 
v -0.0019136 -0.000644766 -0.127 
v -0.00197209 -0.00043409 0.0381 
v -0.00183267 -0.000847882 -0.127 
v -0.0019136 -0.000644766 0.0381 
v -0.00173025 -0.00104106 -0.127 
v -0.00183267 -0.000847882 0.0381 
v -0.00160755 -0.00122203 -0.127 
v -0.00173025 -0.00104106 0.0381 
v -0.001466 -0.00138867 -0.127 
v -0.00160755 -0.00122203 0.0381 
v -0.00130727 -0.00153903 -0.127 
v -0.001466 -0.00138867 0.0381 
v -0.00113321 -0.00167135 -0.127 
v -0.00130727 -0.00153903 0.0381 
v -0.000945857 -0.00178408 -0.127 
v -0.00113321 -0.00167135 0.0381 
v -0.00074742 -0.00187588 -0.127 
v -0.000945857 -0.00178408 0.0381 
v -0.00054022 -0.0019457 -0.127 
v -0.00074742 -0.00187588 0.0381 
v -0.000326686 -0.0019927 -0.127 
v -0.00054022 -0.0019457 0.0381 
v -0.000109323 -0.00201634 -0.127 
v -0.000326686 -0.0019927 0.0381 
v 0.000109323 -0.00201634 -0.127 
v -0.000109323 -0.00201634 0.0381 
v 0.000326686 -0.0019927 -0.127 
v 0.000109323 -0.00201634 0.0381 
v 0.00054022 -0.0019457 -0.127 
v 0.000326686 -0.0019927 0.0381 
v 0.00074742 -0.00187588 -0.127 
v 0.00054022 -0.0019457 0.0381 
v 0.000945857 -0.00178408 -0.127 
v 0.00074742 -0.00187588 0.0381 
v 0.00113321 -0.00167135 -0.127 
v 0.000945857 -0.00178408 0.0381 
v 0.00130727 -0.00153903 -0.127 
v 0.00113321 -0.00167135 0.0381 
v 0.001466 -0.00138867 -0.127 
v 0.00130727 -0.00153903 0.0381 
v 0.00160755 -0.00122203 -0.127 
v 0.001466 -0.00138867 0.0381 
v 0.00173025 -0.00104106 -0.127 
v 0.00160755 -0.00122203 0.0381 
v 0.00183267 -0.000847882 -0.127 
v 0.00173025 -0.00104106 0.0381 
v 0.0019136 -0.000644766 -0.127 
v 0.00183267 -0.000847882 0.0381 
v 0.00197209 -0.00043409 -0.127 
v 0.0019136 -0.000644766 0.0381 
v 0.00200746 -0.000218325 -0.127 
v 0.00197209 -0.00043409 0.0381 
v 0.0020193 2.47293e-19 -0.127 
v 0.00200746 -0.000218325 0.0381 
v 0.0020193 2.47293e-19 0.0381 
vn 0.994138 0.108119 0 
vn 1 2.44929e-16 0 
vn 1 2.44929e-16 0 
vn 0.976621 0.21497 0 
vn 0.994138 0.108119 0 
vn 0.947653 0.319302 0 
vn 0.976621 0.21497 0 
vn 0.907575 0.419889 0 
vn 0.947653 0.319302 0 
vn 0.856857 0.515554 0 
vn 0.907575 0.419889 0 
vn 0.796093 0.605174 0 
vn 0.856857 0.515554 0 
vn 0.725995 0.687699 0 
vn 0.796093 0.605174 0 
vn 0.647386 0.762162 0 
vn 0.725995 0.687699 0 
vn 0.561187 0.827689 0 
vn 0.647386 0.762162 0 
vn 0.468408 0.883512 0 
vn 0.561187 0.827689 0 
vn 0.370138 0.928977 0 
vn 0.468408 0.883512 0 
vn 0.267528 0.96355 0 
vn 0.370138 0.928977 0 
vn 0.161782 0.986827 0 
vn 0.267528 0.96355 0 
vn 0.0541389 0.998533 0 
vn 0.161782 0.986827 0 
vn -0.0541389 0.998533 0 
vn 0.0541389 0.998533 0 
vn -0.161782 0.986827 0 
vn -0.0541389 0.998533 0 
vn -0.267528 0.96355 0 
vn -0.161782 0.986827 0 
vn -0.370138 0.928977 0 
vn -0.267528 0.96355 0 
vn -0.468408 0.883512 0 
vn -0.370138 0.928977 0 
vn -0.561187 0.827689 0 
vn -0.468408 0.883512 0 
vn -0.647386 0.762162 0 
vn -0.561187 0.827689 0 
vn -0.725995 0.687699 0 
vn -0.647386 0.762162 0 
vn -0.796093 0.605174 0 
vn -0.725995 0.687699 0 
vn -0.856857 0.515554 0 
vn -0.796093 0.605174 0 
vn -0.907575 0.419889 0 
vn -0.856857 0.515554 0 
vn -0.947653 0.319302 0 
vn -0.907575 0.419889 0 
vn -0.976621 0.21497 0 
vn -0.947653 0.319302 0 
vn -0.994138 0.108119 0 
vn -0.976621 0.21497 0 
vn -1 -1.22465e-16 0 
vn -0.994138 0.108119 0 
vn -1 -1.22465e-16 0 
f 61//61 62//62 63//63 
f 64//64 61//61 65//65 
f 66//66 64//64 67//67 
f 68//68 66//66 69//69 
f 70//70 68//68 71//71 
f 72//72 70//70 73//73 
f 74//74 72//72 75//75 
f 76//76 74//74 77//77 
f 78//78 76//76 79//79 
f 80//80 78//78 81//81 
f 82//82 80//80 83//83 
f 84//84 82//82 85//85 
f 86//86 84//84 87//87 
f 88//88 86//86 89//89 
f 90//90 88//88 91//91 
f 92//92 90//90 93//93 
f 94//94 92//92 95//95 
f 96//96 94//94 97//97 
f 98//98 96//96 99//99 
f 100//100 98//98 101//101 
f 102//102 100//100 103//103 
f 104//104 102//102 105//105 
f 106//106 104//104 107//107 
f 108//108 106//106 109//109 
f 110//110 108//108 111//111 
f 112//112 110//110 113//113 
f 114//114 112//112 115//115 
f 116//116 114//114 117//117 
f 118//118 116//116 119//119 
f 119//119 120//120 118//118 
f 117//117 119//119 116//116 
f 115//115 117//117 114//114 
f 113//113 115//115 112//112 
f 111//111 113//113 110//110 
f 109//109 111//111 108//108 
f 107//107 109//109 106//106 
f 105//105 107//107 104//104 
f 103//103 105//105 102//102 
f 101//101 103//103 100//100 
f 99//99 101//101 98//98 
f 97//97 99//99 96//96 
f 95//95 97//97 94//94 
f 93//93 95//95 92//92 
f 91//91 93//93 90//90 
f 89//89 91//91 88//88 
f 87//87 89//89 86//86 
f 85//85 87//87 84//84 
f 83//83 85//85 82//82 
f 81//81 83//83 80//80 
f 79//79 81//81 78//78 
f 77//77 79//79 76//76 
f 75//75 77//77 74//74 
f 73//73 75//75 72//72 
f 71//71 73//73 70//70 
f 69//69 71//71 68//68 
f 67//67 69//69 66//66 
f 65//65 67//67 64//64 
f 63//63 65//65 61//61 
o mesh17127
v -0.0054536 0.00417794 -0.127 
v -0.000891402 0.00681192 -0.127 
v -0.000945857 0.00178408 -0.127 
v -0.00579506 -0.00368974 -0.127 
v -0.00173025 -0.00104106 -0.127 
v -0.00160755 -0.00122203 -0.127 
v -0.006345 0.00263398 -0.127 
v -0.0019136 0.000644766 -0.127 
v -0.00197209 0.00043409 -0.127 
v -0.00609294 0.0031738 -0.127 
v -0.00579506 0.00368974 -0.127 
v -0.00173025 0.00104106 -0.127 
v -0.00074742 0.00187588 -0.127 
v -0.000297881 0.00686354 -0.127 
v -0.000109323 0.00201634 -0.127 
v 0.00609294 -0.0031738 -0.127 
v 0.00579506 -0.00368974 -0.127 
v 0.00173025 -0.00104106 -0.127 
v -0.0054536 -0.00417794 -0.127 
v -0.00609294 -0.0031738 -0.127 
v -0.00183267 -0.000847882 -0.127 
v -0.00183267 0.000847882 -0.127 
v -0.00054022 0.0019457 -0.127 
v -0.000326686 0.0019927 -0.127 
v 0.006345 0.00263398 -0.127 
v 0.006345 -0.00263398 -0.127 
v 0.0020193 2.47293e-19 -0.127 
v 0.00183267 -0.000847882 -0.127 
v -0.00113321 -0.00167135 -0.127 
v -0.000945857 -0.00178408 -0.127 
v -0.001466 -0.00138867 -0.127 
v -0.00160755 0.00122203 -0.127 
v 0.000297881 0.00686354 -0.127 
v 0.000109323 0.00201634 -0.127 
v 0.00579506 0.00368974 -0.127 
v 0.00173025 0.00104106 -0.127 
v 0.00160755 0.00122203 -0.127 
v 0.00609294 0.0031738 -0.127 
v 0.00183267 0.000847882 -0.127 
v 0.00200746 0.000218325 -0.127 
v 0.00197209 -0.00043409 -0.127 
v 0.00200746 -0.000218325 -0.127 
v 0.0054536 -0.00417794 -0.127 
v 0.00160755 -0.00122203 -0.127 
v 0.000891402 -0.00681192 -0.127 
v 0.000326686 -0.0019927 -0.127 
v 0.00054022 -0.0019457 -0.127 
v 0.000297881 -0.00686354 -0.127 
v 0.000109323 -0.00201634 -0.127 
v -0.000891402 -0.00681192 -0.127 
v -0.000326686 -0.0019927 -0.127 
v -0.000109323 -0.00201634 -0.127 
v -0.006345 -0.00263398 -0.127 
v -0.00197209 -0.00043409 -0.127 
v -0.0019136 -0.000644766 -0.127 
v -0.00200746 0.000218325 -0.127 
v -0.001466 0.00138867 -0.127 
v 0.000891402 0.00681192 -0.127 
v 0.000326686 0.0019927 -0.127 
v 0.0054536 0.00417794 -0.127 
v 0.00113321 0.00167135 -0.127 
v 0.000945857 0.00178408 -0.127 
v 0.000945857 -0.00178408 -0.127 
v -0.000297881 -0.00686354 -0.127 
v -0.00054022 -0.0019457 -0.127 
v -0.00130727 -0.00153903 -0.127 
v -0.0020193 0 -0.127 
v -0.00113321 0.00167135 -0.127 
v -0.00130727 0.00153903 -0.127 
v 0.00074742 0.00187588 -0.127 
v 0.00054022 0.0019457 -0.127 
v 0.001466 0.00138867 -0.127 
v 0.00130727 0.00153903 -0.127 
v 0.00197209 0.00043409 -0.127 
v 0.0019136 0.000644766 -0.127 
v 0.0019136 -0.000644766 -0.127 
v 0.001466 -0.00138867 -0.127 
v 0.00113321 -0.00167135 -0.127 
v 0.00130727 -0.00153903 -0.127 
v 0.00074742 -0.00187588 -0.127 
v -0.00074742 -0.00187588 -0.127 
v -0.00200746 -0.000218325 -0.127 
vn 0 0 -1 
vn 0 0 -1 
vn 0 0 -1 
vn 0 0 -1 
vn 0 0 -1 
vn 0 0 -1 
vn 0 0 -1 
vn 0 0 -1 
vn 0 0 -1 
vn 0 0 -1 
vn 0 0 -1 
vn 0 0 -1 
vn 0 0 -1 
vn 0 0 -1 
vn 0 0 -1 
vn 0 0 -1 
vn 0 0 -1 
vn 0 0 -1 
vn 0 0 -1 
vn 0 0 -1 
vn 0 0 -1 
vn 0 0 -1 
vn 0 0 -1 
vn 0 0 -1 
vn 0 0 -1 
vn 0 0 -1 
vn 0 0 -1 
vn 0 0 -1 
vn 0 0 -1 
vn 0 0 -1 
vn 0 0 -1 
vn 0 0 -1 
vn 0 0 -1 
vn 0 0 -1 
vn 0 0 -1 
vn 0 0 -1 
vn 0 0 -1 
vn 0 0 -1 
vn 0 0 -1 
vn 0 0 -1 
vn 0 0 -1 
vn 0 0 -1 
vn 0 0 -1 
vn 0 0 -1 
vn 0 0 -1 
vn 0 0 -1 
vn 0 0 -1 
vn 0 0 -1 
vn 0 0 -1 
vn 0 0 -1 
vn 0 0 -1 
vn 0 0 -1 
vn 0 0 -1 
vn 0 0 -1 
vn 0 0 -1 
vn 0 0 -1 
vn 0 0 -1 
vn 0 0 -1 
vn 0 0 -1 
vn 0 0 -1 
vn 0 0 -1 
vn 0 0 -1 
vn 0 0 -1 
vn 0 0 -1 
vn 0 0 -1 
vn 0 0 -1 
vn 0 0 -1 
vn 0 0 -1 
vn 0 0 -1 
vn 0 0 -1 
vn 0 0 -1 
vn 0 0 -1 
vn 0 0 -1 
vn 0 0 -1 
vn 0 0 -1 
vn 0 0 -1 
vn 0 0 -1 
vn 0 0 -1 
vn 0 0 -1 
vn 0 0 -1 
vn 0 0 -1 
vn 0 0 -1 
f 121//121 122//122 123//123 
f 124//124 125//125 126//126 
f 127//127 128//128 129//129 
f 130//130 131//131 132//132 
f 122//122 133//133 123//123 
f 122//122 134//134 135//135 
f 136//136 137//137 138//138 
f 126//126 139//139 124//124 
f 140//140 141//141 125//125 
f 127//127 142//142 128//128 
f 142//142 127//127 130//130 
f 122//122 143//143 133//133 
f 135//135 144//144 122//122 
f 145//145 146//146 147//147 
f 148//148 146//146 136//136 
f 139//139 149//149 150//150 
f 126//126 151//151 139//139 
f 125//125 124//124 140//140 
f 132//132 142//142 130//130 
f 131//131 121//121 152//152 
f 144//144 143//143 122//122 
f 153//153 154//154 135//135 
f 155//155 156//156 157//157 
f 158//158 159//159 156//156 
f 147//147 160//160 145//145 
f 146//146 161//161 162//162 
f 138//138 148//148 136//136 
f 137//137 163//163 164//164 
f 165//165 166//166 167//167 
f 165//165 168//168 169//169 
f 170//170 171//171 172//172 
f 150//150 170//170 139//139 
f 140//140 173//173 141//141 
f 173//173 174//174 175//175 
f 129//129 176//176 127//127 
f 121//121 177//177 152//152 
f 135//135 134//134 153//153 
f 178//178 179//179 154//154 
f 180//180 181//181 182//182 
f 157//157 180//180 155//155 
f 156//156 155//155 158//158 
f 162//162 147//147 146//146 
f 164//164 138//138 137//137 
f 163//163 165//165 183//183 
f 169//169 166//166 165//165 
f 184//184 172//172 169//169 
f 170//170 185//185 171//171 
f 139//139 186//186 149//149 
f 175//175 141//141 173//173 
f 173//173 127//127 187//187 
f 152//152 132//132 131//131 
f 121//121 188//188 189//189 
f 154//154 153//153 178//178 
f 178//178 190//190 191//191 
f 182//182 178//178 180//180 
f 180//180 192//192 193//193 
f 158//158 145//145 159//159 
f 145//145 194//194 195//195 
f 146//146 196//196 161//161 
f 163//163 197//197 164//164 
f 163//163 198//198 199//199 
f 165//165 200//200 183//183 
f 169//169 168//168 184//184 
f 170//170 201//201 185//185 
f 151//151 186//186 139//139 
f 187//187 202//202 173//173 
f 189//189 177//177 121//121 
f 191//191 179//179 178//178 
f 193//193 181//181 180//180 
f 195//195 159//159 145//145 
f 148//148 196//196 146//146 
f 183//183 198//198 163//163 
f 172//172 184//184 170//170 
f 202//202 174//174 173//173 
f 123//123 188//188 121//121 
f 157//157 192//192 180//180 
f 199//199 197//197 163//163 
f 150//150 201//201 170//170 
f 182//182 190//190 178//178 
f 167//167 200//200 165//165 
f 160//160 194//194 145//145 
f 176//176 187//187 127//127 
o mesh17128
v 0.000297881 0.00686354 0.0381 
v -0.000297881 0.00686354 0.0381 
v -0.000109323 0.00201634 0.0381 
v -0.000891402 0.00681192 0.0381 
v -0.000326686 0.0019927 0.0381 
v 0.000891402 0.00681192 0.0381 
v 0.000109323 0.00201634 0.0381 
v -0.006345 0.00263398 0.0381 
v -0.006345 -0.00263398 0.0381 
v -0.0020193 0 0.0381 
v 0.000326686 0.0019927 0.0381 
v 0.00054022 0.0019457 0.0381 
v -0.00200746 0.000218325 0.0381 
v -0.00609294 -0.0031738 0.0381 
v -0.00579506 -0.00368974 0.0381 
v -0.00173025 -0.00104106 0.0381 
v -0.00074742 0.00187588 0.0381 
v -0.00054022 0.0019457 0.0381 
v -0.0054536 0.00417794 0.0381 
v -0.00113321 0.00167135 0.0381 
v -0.000945857 0.00178408 0.0381 
v -0.00609294 0.0031738 0.0381 
v -0.00183267 0.000847882 0.0381 
v -0.00173025 0.00104106 0.0381 
v -0.00197209 0.00043409 0.0381 
v -0.00197209 -0.00043409 0.0381 
v -0.00200746 -0.000218325 0.0381 
v -0.00183267 -0.000847882 0.0381 
v -0.0054536 -0.00417794 0.0381 
v -0.00160755 -0.00122203 0.0381 
v 0.0054536 0.00417794 0.0381 
v 0.000945857 0.00178408 0.0381 
v -0.00579506 0.00368974 0.0381 
v -0.00160755 0.00122203 0.0381 
v 0.00609294 0.0031738 0.0381 
v 0.00579506 0.00368974 0.0381 
v 0.00173025 0.00104106 0.0381 
v 0.00160755 0.00122203 0.0381 
v 0.00074742 0.00187588 0.0381 
v -0.001466 0.00138867 0.0381 
v -0.0019136 0.000644766 0.0381 
v 0.006345 0.00263398 0.0381 
v 0.00200746 0.000218325 0.0381 
v 0.0020193 2.47293e-19 0.0381 
v 0.00183267 0.000847882 0.0381 
v 0.001466 0.00138867 0.0381 
v -0.00130727 0.00153903 0.0381 
v -0.0019136 -0.000644766 0.0381 
v -0.00130727 -0.00153903 0.0381 
v -0.001466 -0.00138867 0.0381 
v -0.000891402 -0.00681192 0.0381 
v -0.000945857 -0.00178408 0.0381 
v -0.000297881 -0.00686354 0.0381 
v -0.000109323 -0.00201634 0.0381 
v 0.00197209 0.00043409 0.0381 
v 0.0019136 0.000644766 0.0381 
v 0.00113321 0.00167135 0.0381 
v 0.00130727 0.00153903 0.0381 
v -0.00113321 -0.00167135 0.0381 
v -0.00074742 -0.00187588 0.0381 
v -0.000326686 -0.0019927 0.0381 
v 0.000891402 -0.00681192 0.0381 
v 0.000326686 -0.0019927 0.0381 
v 0.000109323 -0.00201634 0.0381 
v -0.00054022 -0.0019457 0.0381 
v 0.000297881 -0.00686354 0.0381 
v 0.00054022 -0.0019457 0.0381 
v 0.00074742 -0.00187588 0.0381 
v 0.0054536 -0.00417794 0.0381 
v 0.00113321 -0.00167135 0.0381 
v 0.000945857 -0.00178408 0.0381 
v 0.00160755 -0.00122203 0.0381 
v 0.001466 -0.00138867 0.0381 
v 0.00609294 -0.0031738 0.0381 
v 0.00183267 -0.000847882 0.0381 
v 0.00173025 -0.00104106 0.0381 
v 0.00130727 -0.00153903 0.0381 
v 0.00579506 -0.00368974 0.0381 
v 0.006345 -0.00263398 0.0381 
v 0.00197209 -0.00043409 0.0381 
v 0.0019136 -0.000644766 0.0381 
v 0.00200746 -0.000218325 0.0381 
vn 0 0 1 
vn 0 0 1 
vn 0 0 1 
vn 0 0 1 
vn 0 0 1 
vn 0 0 1 
vn 0 0 1 
vn 0 0 1 
vn 0 0 1 
vn 0 0 1 
vn 0 0 1 
vn 0 0 1 
vn 0 0 1 
vn 0 0 1 
vn 0 0 1 
vn 0 0 1 
vn 0 0 1 
vn 0 0 1 
vn 0 0 1 
vn 0 0 1 
vn 0 0 1 
vn 0 0 1 
vn 0 0 1 
vn 0 0 1 
vn 0 0 1 
vn 0 0 1 
vn 0 0 1 
vn 0 0 1 
vn 0 0 1 
vn 0 0 1 
vn 0 0 1 
vn 0 0 1 
vn 0 0 1 
vn 0 0 1 
vn 0 0 1 
vn 0 0 1 
vn 0 0 1 
vn 0 0 1 
vn 0 0 1 
vn 0 0 1 
vn 0 0 1 
vn 0 0 1 
vn 0 0 1 
vn 0 0 1 
vn 0 0 1 
vn 0 0 1 
vn 0 0 1 
vn 0 0 1 
vn 0 0 1 
vn 0 0 1 
vn 0 0 1 
vn 0 0 1 
vn 0 0 1 
vn 0 0 1 
vn 0 0 1 
vn 0 0 1 
vn 0 0 1 
vn 0 0 1 
vn 0 0 1 
vn 0 0 1 
vn 0 0 1 
vn 0 0 1 
vn 0 0 1 
vn 0 0 1 
vn 0 0 1 
vn 0 0 1 
vn 0 0 1 
vn 0 0 1 
vn 0 0 1 
vn 0 0 1 
vn 0 0 1 
vn 0 0 1 
vn 0 0 1 
vn 0 0 1 
vn 0 0 1 
vn 0 0 1 
vn 0 0 1 
vn 0 0 1 
vn 0 0 1 
vn 0 0 1 
vn 0 0 1 
vn 0 0 1 
f 203//203 204//204 205//205 
f 206//206 207//207 205//205 
f 208//208 203//203 209//209 
f 205//205 204//204 206//206 
f 210//210 211//211 212//212 
f 208//208 213//213 214//214 
f 205//205 209//209 203//203 
f 212//212 215//215 210//210 
f 216//216 217//217 218//218 
f 209//209 213//213 208//208 
f 206//206 219//219 220//220 
f 221//221 222//222 223//223 
f 224//224 225//225 226//226 
f 215//215 227//227 210//210 
f 211//211 228//228 229//229 
f 230//230 211//211 216//216 
f 217//217 231//231 232//232 
f 233//233 208//208 234//234 
f 220//220 207//207 206//206 
f 223//223 206//206 221//221 
f 235//235 226//226 236//236 
f 226//226 235//235 224//224 
f 229//229 212//212 211//211 
f 232//232 218//218 217//217 
f 237//237 238//238 239//239 
f 238//238 233//233 240//240 
f 208//208 241//241 234//234 
f 223//223 219//219 206//206 
f 221//221 236//236 242//242 
f 224//224 210//210 225//225 
f 227//227 243//243 210//210 
f 218//218 230//230 216//216 
f 244//244 245//245 246//246 
f 247//247 244//244 237//237 
f 233//233 248//248 240//240 
f 214//214 241//241 208//208 
f 242//242 249//249 221//221 
f 243//243 225//225 210//210 
f 230//230 250//250 211//211 
f 231//231 251//251 252//252 
f 231//231 253//253 254//254 
f 253//253 255//255 256//256 
f 244//244 257//257 245//245 
f 244//244 247//247 258//258 
f 240//240 239//239 238//238 
f 233//233 259//259 260//260 
f 249//249 222//222 221//221 
f 250//250 228//228 211//211 
f 231//231 261//261 251//251 
f 253//253 262//262 254//254 
f 256//256 263//263 253//253 
f 264//264 265//265 266//266 
f 258//258 257//257 244//244 
f 260//260 248//248 233//233 
f 236//236 221//221 235//235 
f 254//254 261//261 231//231 
f 263//263 267//267 253//253 
f 255//255 268//268 266//266 
f 264//264 269//269 265//265 
f 239//239 247//247 237//237 
f 252//252 232//232 231//231 
f 266//266 256//256 255//255 
f 264//264 270//270 269//269 
f 271//271 272//272 273//273 
f 271//271 274//274 275//275 
f 276//276 277//277 278//278 
f 234//234 259//259 233//233 
f 266//266 268//268 264//264 
f 273//273 264//264 271//271 
f 275//275 279//279 271//271 
f 280//280 278//278 274//274 
f 278//278 280//280 276//276 
f 281//281 282//282 283//283 
f 281//281 246//246 284//284 
f 267//267 262//262 253//253 
f 279//279 272//272 271//271 
f 276//276 281//281 277//277 
f 284//284 282//282 281//281 
f 273//273 270//270 264//264 
f 283//283 277//277 281//281 
f 274//274 271//271 280//280 
f 246//246 281//281 244//244 
o mesh17129
v 0.000891402 -0.00681192 -0.127 
v 0.000891402 -0.00681192 0.0381 
v 0.000297881 -0.00686354 0.0381 
v 0.000297881 -0.00686354 -0.127 
v -0.000297881 -0.00686354 0.0381 
v -0.000297881 -0.00686354 -0.127 
v -0.000891402 -0.00681192 0.0381 
v -0.000891402 -0.00681192 -0.127 
vn 0.129753 -0.991546 0 
vn 0.129753 -0.991546 0 
vn 0.0433597 -0.99906 0 
vn 0.0433597 -0.99906 0 
vn -0.0433597 -0.99906 0 
vn -0.0433597 -0.99906 0 
vn -0.129753 -0.991546 0 
vn -0.129753 -0.991546 0 
f 285//285 286//286 287//287 
f 288//288 287//287 289//289 
f 290//290 289//289 291//291 
f 291//291 292//292 290//290 
f 289//289 290//290 288//288 
f 287//287 288//288 285//285 
o mesh17130
v -0.000891402 0.00681192 -0.127 
v -0.000891402 0.00681192 0.0381 
v -0.000297881 0.00686354 0.0381 
v -0.000297881 0.00686354 -0.127 
v 0.000297881 0.00686354 0.0381 
v 0.000297881 0.00686354 -0.127 
v 0.000891402 0.00681192 0.0381 
v 0.000891402 0.00681192 -0.127 
vn -0.129753 0.991546 0 
vn -0.129753 0.991546 0 
vn -0.0433597 0.99906 0 
vn -0.0433597 0.99906 0 
vn 0.0433597 0.99906 0 
vn 0.0433597 0.99906 0 
vn 0.129753 0.991546 0 
vn 0.129753 0.991546 0 
f 293//293 294//294 295//295 
f 296//296 295//295 297//297 
f 298//298 297//297 299//299 
f 299//299 300//300 298//298 
f 297//297 298//298 296//296 
f 295//295 296//296 293//293 
o mesh17131
v 0.006345 -0.00263398 -0.127 
v 0.006345 -0.00263398 0.0381 
v 0.00609294 -0.0031738 0.0381 
v 0.00609294 -0.0031738 -0.127 
v 0.00579506 -0.00368974 0.0381 
v 0.00579506 -0.00368974 -0.127 
v 0.0054536 -0.00417794 0.0381 
v 0.0054536 -0.00417794 -0.127 
vn 0.923581 -0.383404 0 
vn 0.923581 -0.383404 0 
vn 0.886891 -0.461979 0 
vn 0.886891 -0.461979 0 
vn 0.843531 -0.53708 0 
vn 0.843531 -0.53708 0 
vn 0.793828 -0.608142 0 
vn 0.793828 -0.608142 0 
f 301//301 302//302 303//303 
f 304//304 303//303 305//305 
f 306//306 305//305 307//307 
f 307//307 308//308 306//306 
f 305//305 306//306 304//304 
f 303//303 304//304 301//301 
o mesh17132
v 0.000891402 -0.00681192 -0.127 
v 0.0054536 -0.00417794 -0.127 
v 0.0054536 -0.00417794 0.0381 
v 0.000891402 -0.00681192 0.0381 
vn 0.5 -0.866025 0 
vn 0.5 -0.866025 0 
vn 0.5 -0.866025 0 
vn 0.5 -0.866025 0 
f 309//309 310//310 311//311 
f 311//311 312//312 309//309 
o mesh17133
v -0.0054536 -0.00417794 0.0381 
v -0.0054536 -0.00417794 -0.127 
v -0.000891402 -0.00681192 -0.127 
v -0.000891402 -0.00681192 0.0381 
vn -0.5 -0.866025 0 
vn -0.5 -0.866025 0 
vn -0.5 -0.866025 0 
vn -0.5 -0.866025 0 
f 313//313 314//314 315//315 
f 315//315 316//316 313//313 
o mesh17134
v -0.0054536 -0.00417794 -0.127 
v -0.0054536 -0.00417794 0.0381 
v -0.00579506 -0.00368974 0.0381 
v -0.00579506 -0.00368974 -0.127 
v -0.00609294 -0.0031738 0.0381 
v -0.00609294 -0.0031738 -0.127 
v -0.006345 -0.00263398 0.0381 
v -0.006345 -0.00263398 -0.127 
vn -0.793828 -0.608142 0 
vn -0.793828 -0.608142 0 
vn -0.843531 -0.53708 0 
vn -0.843531 -0.53708 0 
vn -0.886891 -0.461979 0 
vn -0.886891 -0.461979 0 
vn -0.923581 -0.383404 0 
vn -0.923581 -0.383404 0 
f 317//317 318//318 319//319 
f 320//320 319//319 321//321 
f 322//322 321//321 323//323 
f 323//323 324//324 322//322 
f 321//321 322//322 320//320 
f 319//319 320//320 317//317 
o mesh17135
v -0.006345 0.00263398 -0.127 
v -0.006345 -0.00263398 -0.127 
v -0.006345 -0.00263398 0.0381 
v -0.006345 0.00263398 0.0381 
vn -1 0 0 
vn -1 0 0 
vn -1 0 0 
vn -1 0 0 
f 325//325 326//326 327//327 
f 327//327 328//328 325//325 
o mesh17136
v -0.006345 0.00263398 -0.127 
v -0.006345 0.00263398 0.0381 
v -0.00609294 0.0031738 0.0381 
v -0.00609294 0.0031738 -0.127 
v -0.00579506 0.00368974 0.0381 
v -0.00579506 0.00368974 -0.127 
v -0.0054536 0.00417794 0.0381 
v -0.0054536 0.00417794 -0.127 
vn -0.923581 0.383404 0 
vn -0.923581 0.383404 0 
vn -0.886891 0.461979 0 
vn -0.886891 0.461979 0 
vn -0.843531 0.53708 0 
vn -0.843531 0.53708 0 
vn -0.793828 0.608142 0 
vn -0.793828 0.608142 0 
f 329//329 330//330 331//331 
f 332//332 331//331 333//333 
f 334//334 333//333 335//335 
f 335//335 336//336 334//334 
f 333//333 334//334 332//332 
f 331//331 332//332 329//329 
o mesh17137
v -0.000891402 0.00681192 -0.127 
v -0.0054536 0.00417794 -0.127 
v -0.0054536 0.00417794 0.0381 
v -0.000891402 0.00681192 0.0381 
vn -0.5 0.866025 0 
vn -0.5 0.866025 0 
vn -0.5 0.866025 0 
vn -0.5 0.866025 0 
f 337//337 338//338 339//339 
f 339//339 340//340 337//337 
o mesh17138
v 0.0054536 0.00417794 -0.127 
v 0.000891402 0.00681192 -0.127 
v 0.000891402 0.00681192 0.0381 
v 0.0054536 0.00417794 0.0381 
vn 0.5 0.866025 0 
vn 0.5 0.866025 0 
vn 0.5 0.866025 0 
vn 0.5 0.866025 0 
f 341//341 342//342 343//343 
f 343//343 344//344 341//341 
o mesh17139
v 0.0054536 0.00417794 -0.127 
v 0.0054536 0.00417794 0.0381 
v 0.00579506 0.00368974 0.0381 
v 0.00579506 0.00368974 -0.127 
v 0.00609294 0.0031738 0.0381 
v 0.00609294 0.0031738 -0.127 
v 0.006345 0.00263398 0.0381 
v 0.006345 0.00263398 -0.127 
vn 0.793828 0.608142 0 
vn 0.793828 0.608142 0 
vn 0.843531 0.53708 0 
vn 0.843531 0.53708 0 
vn 0.886891 0.461979 0 
vn 0.886891 0.461979 0 
vn 0.923581 0.383404 0 
vn 0.923581 0.383404 0 
f 345//345 346//346 347//347 
f 348//348 347//347 349//349 
f 350//350 349//349 351//351 
f 351//351 352//352 350//350 
f 349//349 350//350 348//348 
f 347//347 348//348 345//345 
o mesh17140
v 0.006345 -0.00263398 -0.127 
v 0.006345 0.00263398 -0.127 
v 0.006345 0.00263398 0.0381 
v 0.006345 -0.00263398 0.0381 
vn 1 1.18386e-16 0 
vn 1 1.18386e-16 0 
vn 1 1.18386e-16 0 
vn 1 1.18386e-16 0 
f 353//353 354//354 355//355 
f 355//355 356//356 353//353 
