# OBJ generated by ONSHAPE BY PTC INC, 1.215 Units = meters
mtllib Middle_Support_Wheel.mtl
g Middle Support Wheel
usemtl 0.796078_0.823529_0.937255_0.000000_0.000000
o mesh17450
v 0.028575 0 0.00889 
v 0.028575 -6.99886e-18 -0.00889 
v 0.0284075 0.0030895 -0.00889 
v 0.0284075 0.0030895 0.00889 
v 0.0279069 0.00614278 -0.00889 
v 0.0279069 0.00614278 0.00889 
v 0.0270792 0.00912404 -0.00889 
v 0.0270792 0.00912404 0.00889 
v 0.025934 0.0119983 -0.00889 
v 0.025934 0.0119983 0.00889 
v 0.0244847 0.014732 -0.00889 
v 0.0244847 0.014732 0.00889 
v 0.0227484 0.0172929 -0.00889 
v 0.0227484 0.0172929 0.00889 
v 0.0207453 0.019651 -0.00889 
v 0.0207453 0.019651 0.00889 
v 0.0184991 0.0217788 -0.00889 
v 0.0184991 0.0217788 0.00889 
v 0.0160359 0.0236512 -0.00889 
v 0.0160359 0.0236512 0.00889 
v 0.0133848 0.0252464 -0.00889 
v 0.0133848 0.0252464 0.00889 
v 0.0105767 0.0265455 -0.00889 
v 0.0105767 0.0265455 0.00889 
v 0.00764462 0.0275334 -0.00889 
v 0.00764462 0.0275334 0.00889 
v 0.00462292 0.0281986 -0.00889 
v 0.00462292 0.0281986 0.00889 
v 0.00154702 0.0285331 -0.00889 
v 0.00154702 0.0285331 0.00889 
v -0.00154702 0.0285331 -0.00889 
v -0.00154702 0.0285331 0.00889 
v -0.00462292 0.0281986 -0.00889 
v -0.00462292 0.0281986 0.00889 
v -0.00764462 0.0275334 -0.00889 
v -0.00764462 0.0275334 0.00889 
v -0.0105767 0.0265455 -0.00889 
v -0.0105767 0.0265455 0.00889 
v -0.0133848 0.0252464 -0.00889 
v -0.0133848 0.0252464 0.00889 
v -0.0160359 0.0236512 -0.00889 
v -0.0160359 0.0236512 0.00889 
v -0.0184991 0.0217788 -0.00889 
v -0.0184991 0.0217788 0.00889 
v -0.0207453 0.019651 -0.00889 
v -0.0207453 0.019651 0.00889 
v -0.0227484 0.0172929 -0.00889 
v -0.0227484 0.0172929 0.00889 
v -0.0244847 0.014732 -0.00889 
v -0.0244847 0.014732 0.00889 
v -0.025934 0.0119983 -0.00889 
v -0.025934 0.0119983 0.00889 
v -0.0270792 0.00912404 -0.00889 
v -0.0270792 0.00912404 0.00889 
v -0.0279069 0.00614278 -0.00889 
v -0.0279069 0.00614278 0.00889 
v -0.0284075 0.0030895 -0.00889 
v -0.0284075 0.0030895 0.00889 
v -0.028575 3.49943e-18 -0.00889 
v -0.028575 3.49943e-18 0.00889 
v -0.0284075 -0.0030895 -0.00889 
v -0.0284075 -0.0030895 0.00889 
v -0.0279069 -0.00614278 -0.00889 
v -0.0279069 -0.00614278 0.00889 
v -0.0270792 -0.00912404 -0.00889 
v -0.0270792 -0.00912404 0.00889 
v -0.025934 -0.0119983 -0.00889 
v -0.025934 -0.0119983 0.00889 
v -0.0244847 -0.014732 -0.00889 
v -0.0244847 -0.014732 0.00889 
v -0.0227484 -0.0172929 -0.00889 
v -0.0227484 -0.0172929 0.00889 
v -0.0207453 -0.019651 -0.00889 
v -0.0207453 -0.019651 0.00889 
v -0.0184991 -0.0217788 -0.00889 
v -0.0184991 -0.0217788 0.00889 
v -0.0160359 -0.0236512 -0.00889 
v -0.0160359 -0.0236512 0.00889 
v -0.0133848 -0.0252464 -0.00889 
v -0.0133848 -0.0252464 0.00889 
v -0.0105767 -0.0265455 -0.00889 
v -0.0105767 -0.0265455 0.00889 
v -0.00764462 -0.0275334 -0.00889 
v -0.00764462 -0.0275334 0.00889 
v -0.00462292 -0.0281986 -0.00889 
v -0.00462292 -0.0281986 0.00889 
v -0.00154702 -0.0285331 -0.00889 
v -0.00154702 -0.0285331 0.00889 
v 0.00154702 -0.0285331 -0.00889 
v 0.00154702 -0.0285331 0.00889 
v 0.00462292 -0.0281986 -0.00889 
v 0.00462292 -0.0281986 0.00889 
v 0.00764462 -0.0275334 -0.00889 
v 0.00764462 -0.0275334 0.00889 
v 0.0105767 -0.0265455 -0.00889 
v 0.0105767 -0.0265455 0.00889 
v 0.0133848 -0.0252464 -0.00889 
v 0.0133848 -0.0252464 0.00889 
v 0.0160359 -0.0236512 -0.00889 
v 0.0160359 -0.0236512 0.00889 
v 0.0184991 -0.0217788 -0.00889 
v 0.0184991 -0.0217788 0.00889 
v 0.0207453 -0.019651 -0.00889 
v 0.0207453 -0.019651 0.00889 
v 0.0227484 -0.0172929 -0.00889 
v 0.0227484 -0.0172929 0.00889 
v 0.0244847 -0.014732 -0.00889 
v 0.0244847 -0.014732 0.00889 
v 0.025934 -0.0119983 -0.00889 
v 0.025934 -0.0119983 0.00889 
v 0.0270792 -0.00912404 -0.00889 
v 0.0270792 -0.00912404 0.00889 
v 0.0279069 -0.00614278 -0.00889 
v 0.0279069 -0.00614278 0.00889 
v 0.0284075 -0.0030895 -0.00889 
v 0.0284075 -0.0030895 0.00889 
vn 1 0 0 
vn 1 0 0 
vn 0.994138 0.108119 0 
vn 0.994138 0.108119 0 
vn 0.976621 0.21497 0 
vn 0.976621 0.21497 0 
vn 0.947653 0.319302 0 
vn 0.947653 0.319302 0 
vn 0.907575 0.419889 0 
vn 0.907575 0.419889 0 
vn 0.856857 0.515554 0 
vn 0.856857 0.515554 0 
vn 0.796093 0.605174 0 
vn 0.796093 0.605174 0 
vn 0.725995 0.687699 0 
vn 0.725995 0.687699 0 
vn 0.647386 0.762162 0 
vn 0.647386 0.762162 0 
vn 0.561187 0.827689 0 
vn 0.561187 0.827689 0 
vn 0.468408 0.883512 0 
vn 0.468408 0.883512 0 
vn 0.370138 0.928977 0 
vn 0.370138 0.928977 0 
vn 0.267528 0.96355 0 
vn 0.267528 0.96355 0 
vn 0.161782 0.986827 0 
vn 0.161782 0.986827 0 
vn 0.0541389 0.998533 0 
vn 0.0541389 0.998533 0 
vn -0.0541389 0.998533 0 
vn -0.0541389 0.998533 0 
vn -0.161782 0.986827 0 
vn -0.161782 0.986827 0 
vn -0.267528 0.96355 0 
vn -0.267528 0.96355 0 
vn -0.370138 0.928977 0 
vn -0.370138 0.928977 0 
vn -0.468408 0.883512 0 
vn -0.468408 0.883512 0 
vn -0.561187 0.827689 0 
vn -0.561187 0.827689 0 
vn -0.647386 0.762162 0 
vn -0.647386 0.762162 0 
vn -0.725995 0.687699 0 
vn -0.725995 0.687699 0 
vn -0.796093 0.605174 0 
vn -0.796093 0.605174 0 
vn -0.856857 0.515554 0 
vn -0.856857 0.515554 0 
vn -0.907575 0.419889 0 
vn -0.907575 0.419889 0 
vn -0.947653 0.319302 0 
vn -0.947653 0.319302 0 
vn -0.976621 0.21497 0 
vn -0.976621 0.21497 0 
vn -0.994138 0.108119 0 
vn -0.994138 0.108119 0 
vn -1 1.22465e-16 0 
vn -1 1.22465e-16 0 
vn -0.994138 -0.108119 0 
vn -0.994138 -0.108119 0 
vn -0.976621 -0.21497 0 
vn -0.976621 -0.21497 0 
vn -0.947653 -0.319302 0 
vn -0.947653 -0.319302 0 
vn -0.907575 -0.419889 0 
vn -0.907575 -0.419889 0 
vn -0.856857 -0.515554 0 
vn -0.856857 -0.515554 0 
vn -0.796093 -0.605174 0 
vn -0.796093 -0.605174 0 
vn -0.725995 -0.687699 0 
vn -0.725995 -0.687699 0 
vn -0.647386 -0.762162 0 
vn -0.647386 -0.762162 0 
vn -0.561187 -0.827689 0 
vn -0.561187 -0.827689 0 
vn -0.468408 -0.883512 0 
vn -0.468408 -0.883512 0 
vn -0.370138 -0.928977 0 
vn -0.370138 -0.928977 0 
vn -0.267528 -0.96355 0 
vn -0.267528 -0.96355 0 
vn -0.161782 -0.986827 0 
vn -0.161782 -0.986827 0 
vn -0.0541389 -0.998533 0 
vn -0.0541389 -0.998533 0 
vn 0.0541389 -0.998533 0 
vn 0.0541389 -0.998533 0 
vn 0.161782 -0.986827 0 
vn 0.161782 -0.986827 0 
vn 0.267528 -0.96355 0 
vn 0.267528 -0.96355 0 
vn 0.370138 -0.928977 0 
vn 0.370138 -0.928977 0 
vn 0.468408 -0.883512 0 
vn 0.468408 -0.883512 0 
vn 0.561187 -0.827689 0 
vn 0.561187 -0.827689 0 
vn 0.647386 -0.762162 0 
vn 0.647386 -0.762162 0 
vn 0.725995 -0.687699 0 
vn 0.725995 -0.687699 0 
vn 0.796093 -0.605174 0 
vn 0.796093 -0.605174 0 
vn 0.856857 -0.515554 0 
vn 0.856857 -0.515554 0 
vn 0.907575 -0.419889 0 
vn 0.907575 -0.419889 0 
vn 0.947653 -0.319302 0 
vn 0.947653 -0.319302 0 
vn 0.976621 -0.21497 0 
vn 0.976621 -0.21497 0 
vn 0.994138 -0.108119 0 
vn 0.994138 -0.108119 0 
f 1//1 2//2 3//3 
f 4//4 3//3 5//5 
f 6//6 5//5 7//7 
f 8//8 7//7 9//9 
f 10//10 9//9 11//11 
f 12//12 11//11 13//13 
f 14//14 13//13 15//15 
f 16//16 15//15 17//17 
f 18//18 17//17 19//19 
f 20//20 19//19 21//21 
f 22//22 21//21 23//23 
f 24//24 23//23 25//25 
f 26//26 25//25 27//27 
f 28//28 27//27 29//29 
f 30//30 29//29 31//31 
f 32//32 31//31 33//33 
f 34//34 33//33 35//35 
f 36//36 35//35 37//37 
f 38//38 37//37 39//39 
f 40//40 39//39 41//41 
f 42//42 41//41 43//43 
f 44//44 43//43 45//45 
f 46//46 45//45 47//47 
f 48//48 47//47 49//49 
f 50//50 49//49 51//51 
f 52//52 51//51 53//53 
f 54//54 53//53 55//55 
f 56//56 55//55 57//57 
f 58//58 57//57 59//59 
f 60//60 59//59 61//61 
f 62//62 61//61 63//63 
f 64//64 63//63 65//65 
f 66//66 65//65 67//67 
f 68//68 67//67 69//69 
f 70//70 69//69 71//71 
f 72//72 71//71 73//73 
f 74//74 73//73 75//75 
f 76//76 75//75 77//77 
f 78//78 77//77 79//79 
f 80//80 79//79 81//81 
f 82//82 81//81 83//83 
f 84//84 83//83 85//85 
f 86//86 85//85 87//87 
f 88//88 87//87 89//89 
f 90//90 89//89 91//91 
f 92//92 91//91 93//93 
f 94//94 93//93 95//95 
f 96//96 95//95 97//97 
f 98//98 97//97 99//99 
f 100//100 99//99 101//101 
f 102//102 101//101 103//103 
f 104//104 103//103 105//105 
f 106//106 105//105 107//107 
f 108//108 107//107 109//109 
f 110//110 109//109 111//111 
f 112//112 111//111 113//113 
f 114//114 113//113 115//115 
f 116//116 115//115 2//2 
f 2//2 1//1 116//116 
f 115//115 116//116 114//114 
f 113//113 114//114 112//112 
f 111//111 112//112 110//110 
f 109//109 110//110 108//108 
f 107//107 108//108 106//106 
f 105//105 106//106 104//104 
f 103//103 104//104 102//102 
f 101//101 102//102 100//100 
f 99//99 100//100 98//98 
f 97//97 98//98 96//96 
f 95//95 96//96 94//94 
f 93//93 94//94 92//92 
f 91//91 92//92 90//90 
f 89//89 90//90 88//88 
f 87//87 88//88 86//86 
f 85//85 86//86 84//84 
f 83//83 84//84 82//82 
f 81//81 82//82 80//80 
f 79//79 80//80 78//78 
f 77//77 78//78 76//76 
f 75//75 76//76 74//74 
f 73//73 74//74 72//72 
f 71//71 72//72 70//70 
f 69//69 70//70 68//68 
f 67//67 68//68 66//66 
f 65//65 66//66 64//64 
f 63//63 64//64 62//62 
f 61//61 62//62 60//60 
f 59//59 60//60 58//58 
f 57//57 58//58 56//56 
f 55//55 56//56 54//54 
f 53//53 54//54 52//52 
f 51//51 52//52 50//50 
f 49//49 50//50 48//48 
f 47//47 48//48 46//46 
f 45//45 46//46 44//44 
f 43//43 44//44 42//42 
f 41//41 42//42 40//40 
f 39//39 40//40 38//38 
f 37//37 38//38 36//36 
f 35//35 36//36 34//34 
f 33//33 34//34 32//32 
f 31//31 32//32 30//30 
f 29//29 30//30 28//28 
f 27//27 28//28 26//26 
f 25//25 26//26 24//24 
f 23//23 24//24 22//22 
f 21//21 22//22 20//20 
f 19//19 20//20 18//18 
f 17//17 18//18 16//16 
f 15//15 16//16 14//14 
f 13//13 14//14 12//12 
f 11//11 12//12 10//10 
f 9//9 10//10 8//8 
f 7//7 8//8 6//6 
f 5//5 6//6 4//4 
f 3//3 4//4 1//1 
o mesh17451
v 0.0207453 0.019651 0.00889 
v 0.00922014 0.00873378 0.00889 
v 0.0101104 0.00768571 0.00889 
v 0.0184991 0.0217788 0.00889 
v 0.00822181 0.00967946 0.00889 
v -0.0133848 0.0252464 0.00889 
v -0.00594879 0.0112206 0.00889 
v -0.00470075 0.011798 0.00889 
v -0.0160359 0.0236512 0.00889 
v -0.00712708 0.0105117 0.00889 
v 0.0279069 0.00614278 0.00889 
v 0.0124031 0.00273012 0.00889 
v 0.0126256 0.00137311 0.00889 
v 0.0270792 0.00912404 0.00889 
v 0.0120352 0.00405513 0.00889 
v 0.025934 0.0119983 0.00889 
v 0.0115262 0.00533259 0.00889 
v 0.0244847 0.014732 0.00889 
v 0.0108821 0.00654753 0.00889 
v 0.0160359 0.0236512 0.00889 
v 0.00712708 0.0105117 0.00889 
v 0.0133848 0.0252464 0.00889 
v 0.00594879 0.0112206 0.00889 
v 0.0105767 0.0265455 0.00889 
v 0.00470075 0.011798 0.00889 
v -0.0184991 0.0217788 0.00889 
v -0.00822181 0.00967946 0.00889 
v 0.0227484 0.0172929 0.00889 
v 0.00764462 0.0275334 0.00889 
v 0.00339761 0.0122371 0.00889 
v 0.00154702 0.0285331 0.00889 
v 0.000687564 0.0126814 0.00889 
v 0.00205463 0.0125327 0.00889 
v -0.00154702 0.0285331 0.00889 
v -0.000687564 0.0126814 0.00889 
v -0.0207453 0.019651 0.00889 
v -0.00922014 0.00873378 0.00889 
v -0.0227484 0.0172929 0.00889 
v -0.0101104 0.00768571 0.00889 
v -0.0244847 0.014732 0.00889 
v -0.0108821 0.00654753 0.00889 
v -0.0270792 0.00912404 0.00889 
v -0.0120352 0.00405513 0.00889 
v -0.0115262 0.00533259 0.00889 
v -0.0279069 0.00614278 0.00889 
v -0.0124031 0.00273012 0.00889 
v -0.0284075 0.0030895 0.00889 
v -0.0126256 0.00137311 0.00889 
v -0.028575 3.49943e-18 0.00889 
v -0.0127 1.5553e-18 0.00889 
v -0.0207453 -0.019651 0.00889 
v -0.00922014 -0.00873378 0.00889 
v -0.0101104 -0.00768571 0.00889 
v -0.0184991 -0.0217788 0.00889 
v -0.00822181 -0.00967946 0.00889 
v 0.0284075 0.0030895 0.00889 
v 0.0127 -3.1106e-18 0.00889 
v -0.00462292 0.0281986 0.00889 
v -0.00205463 0.0125327 0.00889 
v -0.025934 0.0119983 0.00889 
v -0.0284075 -0.0030895 0.00889 
v -0.0126256 -0.00137311 0.00889 
v -0.0279069 -0.00614278 0.00889 
v -0.0124031 -0.00273012 0.00889 
v -0.0270792 -0.00912404 0.00889 
v -0.0120352 -0.00405513 0.00889 
v -0.025934 -0.0119983 0.00889 
v -0.0115262 -0.00533259 0.00889 
v -0.0244847 -0.014732 0.00889 
v -0.0108821 -0.00654753 0.00889 
v -0.0227484 -0.0172929 0.00889 
v -0.0160359 -0.0236512 0.00889 
v -0.00712708 -0.0105117 0.00889 
v -0.0133848 -0.0252464 0.00889 
v -0.00594879 -0.0112206 0.00889 
v 0.00462292 0.0281986 0.00889 
v -0.0105767 -0.0265455 0.00889 
v -0.00470075 -0.011798 0.00889 
v -0.00154702 -0.0285331 0.00889 
v -0.000687564 -0.0126814 0.00889 
v -0.00205463 -0.0125327 0.00889 
v 0.00154702 -0.0285331 0.00889 
v 0.000687564 -0.0126814 0.00889 
v 0.0105767 -0.0265455 0.00889 
v 0.0133848 -0.0252464 0.00889 
v 0.00594879 -0.0112206 0.00889 
v 0.0160359 -0.0236512 0.00889 
v 0.00712708 -0.0105117 0.00889 
v 0.0184991 -0.0217788 0.00889 
v 0.00822181 -0.00967946 0.00889 
v 0.0207453 -0.019651 0.00889 
v 0.00922014 -0.00873378 0.00889 
v -0.00764462 0.0275334 0.00889 
v -0.00339761 0.0122371 0.00889 
v -0.0105767 0.0265455 0.00889 
v -0.00764462 -0.0275334 0.00889 
v -0.00339761 -0.0122371 0.00889 
v -0.00462292 -0.0281986 0.00889 
v 0.00462292 -0.0281986 0.00889 
v 0.00205463 -0.0125327 0.00889 
v 0.00470075 -0.011798 0.00889 
v 0.00339761 -0.0122371 0.00889 
v 0.0227484 -0.0172929 0.00889 
v 0.0101104 -0.00768571 0.00889 
v 0.0270792 -0.00912404 0.00889 
v 0.0120352 -0.00405513 0.00889 
v 0.0115262 -0.00533259 0.00889 
v 0.0279069 -0.00614278 0.00889 
v 0.0124031 -0.00273012 0.00889 
v 0.00764462 -0.0275334 0.00889 
v 0.0244847 -0.014732 0.00889 
v 0.0108821 -0.00654753 0.00889 
v 0.025934 -0.0119983 0.00889 
v 0.0284075 -0.0030895 0.00889 
v 0.0126256 -0.00137311 0.00889 
v 0.028575 0 0.00889 
vn 0 0 1 
vn 0 0 1 
vn 0 0 1 
vn 0 0 1 
vn 0 0 1 
vn 0 0 1 
vn 0 0 1 
vn 0 0 1 
vn 0 0 1 
vn 0 0 1 
vn 0 0 1 
vn 0 0 1 
vn 0 0 1 
vn 0 0 1 
vn 0 0 1 
vn 0 0 1 
vn 0 0 1 
vn 0 0 1 
vn 0 0 1 
vn 0 0 1 
vn 0 0 1 
vn 0 0 1 
vn 0 0 1 
vn 0 0 1 
vn 0 0 1 
vn 0 0 1 
vn 0 0 1 
vn 0 0 1 
vn 0 0 1 
vn 0 0 1 
vn 0 0 1 
vn 0 0 1 
vn 0 0 1 
vn 0 0 1 
vn 0 0 1 
vn 0 0 1 
vn 0 0 1 
vn 0 0 1 
vn 0 0 1 
vn 0 0 1 
vn 0 0 1 
vn 0 0 1 
vn 0 0 1 
vn 0 0 1 
vn 0 0 1 
vn 0 0 1 
vn 0 0 1 
vn 0 0 1 
vn 0 0 1 
vn 0 0 1 
vn 0 0 1 
vn 0 0 1 
vn 0 0 1 
vn 0 0 1 
vn 0 0 1 
vn 0 0 1 
vn 0 0 1 
vn 0 0 1 
vn 0 0 1 
vn 0 0 1 
vn 0 0 1 
vn 0 0 1 
vn 0 0 1 
vn 0 0 1 
vn 0 0 1 
vn 0 0 1 
vn 0 0 1 
vn 0 0 1 
vn 0 0 1 
vn 0 0 1 
vn 0 0 1 
vn 0 0 1 
vn 0 0 1 
vn 0 0 1 
vn 0 0 1 
vn 0 0 1 
vn 0 0 1 
vn 0 0 1 
vn 0 0 1 
vn 0 0 1 
vn 0 0 1 
vn 0 0 1 
vn 0 0 1 
vn 0 0 1 
vn 0 0 1 
vn 0 0 1 
vn 0 0 1 
vn 0 0 1 
vn 0 0 1 
vn 0 0 1 
vn 0 0 1 
vn 0 0 1 
vn 0 0 1 
vn 0 0 1 
vn 0 0 1 
vn 0 0 1 
vn 0 0 1 
vn 0 0 1 
vn 0 0 1 
vn 0 0 1 
vn 0 0 1 
vn 0 0 1 
vn 0 0 1 
vn 0 0 1 
vn 0 0 1 
vn 0 0 1 
vn 0 0 1 
vn 0 0 1 
vn 0 0 1 
vn 0 0 1 
vn 0 0 1 
vn 0 0 1 
vn 0 0 1 
vn 0 0 1 
vn 0 0 1 
vn 0 0 1 
f 117//117 118//118 119//119 
f 120//120 121//121 118//118 
f 122//122 123//123 124//124 
f 122//122 125//125 126//126 
f 127//127 128//128 129//129 
f 127//127 130//130 131//131 
f 130//130 132//132 133//133 
f 132//132 134//134 135//135 
f 118//118 117//117 120//120 
f 120//120 136//136 137//137 
f 138//138 139//139 137//137 
f 138//138 140//140 141//141 
f 126//126 123//123 122//122 
f 125//125 142//142 143//143 
f 131//131 128//128 127//127 
f 135//135 133//133 132//132 
f 144//144 119//119 135//135 
f 137//137 121//121 120//120 
f 141//141 139//139 138//138 
f 140//140 145//145 146//146 
f 147//147 148//148 149//149 
f 147//147 150//150 151//151 
f 143//143 126//126 125//125 
f 142//142 152//152 153//153 
f 154//154 155//155 153//153 
f 154//154 156//156 157//157 
f 158//158 159//159 160//160 
f 158//158 161//161 162//162 
f 163//163 164//164 162//162 
f 163//163 165//165 166//166 
f 167//167 168//168 169//169 
f 167//167 170//170 171//171 
f 172//172 129//129 173//173 
f 133//133 131//131 130//130 
f 119//119 144//144 117//117 
f 146//146 141//141 140//140 
f 151//151 148//148 147//147 
f 150//150 174//174 175//175 
f 153//153 143//143 142//142 
f 157//157 155//155 154//154 
f 176//176 160//160 157//157 
f 162//162 159//159 158//158 
f 166//166 164//164 163//163 
f 165//165 177//177 178//178 
f 179//179 180//180 178//178 
f 179//179 181//181 182//182 
f 183//183 184//184 182//182 
f 183//183 185//185 186//186 
f 187//187 169//169 186//186 
f 171//171 168//168 167//167 
f 188//188 189//189 171//171 
f 188//188 190//190 191//191 
f 129//129 172//172 127//127 
f 137//137 136//136 138//138 
f 192//192 149//149 146//146 
f 175//175 151//151 150//150 
f 153//153 152//152 154//154 
f 160//160 176//176 158//158 
f 178//178 166//166 165//165 
f 182//182 180//180 179//179 
f 186//186 184//184 183//183 
f 169//169 187//187 167//167 
f 191//191 189//189 188//188 
f 190//190 193//193 194//194 
f 195//195 196//196 197//197 
f 198//198 199//199 196//196 
f 200//200 201//201 202//202 
f 201//201 203//203 204//204 
f 205//205 206//206 204//204 
f 205//205 207//207 208//208 
f 135//135 134//134 144//144 
f 149//149 192//192 147//147 
f 209//209 210//210 175//175 
f 209//209 211//211 124//124 
f 157//157 156//156 176//176 
f 178//178 177//177 179//179 
f 186//186 185//185 187//187 
f 194//194 191//191 190//190 
f 212//212 213//213 194//194 
f 212//212 214//214 197//197 
f 196//196 195//195 198//198 
f 198//198 215//215 216//216 
f 200//200 217//217 218//218 
f 204//204 202//202 201//201 
f 208//208 206//206 205//205 
f 207//207 219//219 220//220 
f 221//221 222//222 223//223 
f 221//221 224//224 225//225 
f 146//146 145//145 192//192 
f 124//124 210//210 209//209 
f 162//162 161//161 163//163 
f 171//171 170//170 188//188 
f 197//197 213//213 212//212 
f 216//216 199//199 198//198 
f 215//215 226//226 218//218 
f 202//202 217//217 200//200 
f 220//220 208//208 207//207 
f 219//219 227//227 228//228 
f 229//229 223//223 228//228 
f 225//225 222//222 221//221 
f 175//175 174//174 209//209 
f 182//182 181//181 183//183 
f 197//197 214//214 195//195 
f 218//218 226//226 200//200 
f 228//228 220//220 219//219 
f 223//223 229//229 221//221 
f 224//224 230//230 231//231 
f 232//232 173//173 231//231 
f 124//124 211//211 122//122 
f 218//218 216//216 215//215 
f 228//228 227//227 229//229 
f 231//231 230//230 232//232 
f 194//194 193//193 212//212 
f 231//231 225//225 224//224 
f 204//204 203//203 205//205 
f 173//173 232//232 172//172 
o mesh17452
v 0.0127 0 0.01524 
v 0.0127 -3.1106e-18 0.00889 
v 0.0126256 0.00137311 0.00889 
v 0.0126256 0.00137311 0.01524 
v 0.0124031 0.00273012 0.00889 
v 0.0124031 0.00273012 0.01524 
v 0.0120352 0.00405513 0.00889 
v 0.0120352 0.00405513 0.01524 
v 0.0115262 0.00533259 0.00889 
v 0.0115262 0.00533259 0.01524 
v 0.0108821 0.00654753 0.00889 
v 0.0108821 0.00654753 0.01524 
v 0.0101104 0.00768571 0.00889 
v 0.0101104 0.00768571 0.01524 
v 0.00922014 0.00873378 0.00889 
v 0.00922014 0.00873378 0.01524 
v 0.00822181 0.00967946 0.00889 
v 0.00822181 0.00967946 0.01524 
v 0.00712708 0.0105117 0.00889 
v 0.00712708 0.0105117 0.01524 
v 0.00594879 0.0112206 0.00889 
v 0.00594879 0.0112206 0.01524 
v 0.00470075 0.011798 0.00889 
v 0.00470075 0.011798 0.01524 
v 0.00339761 0.0122371 0.00889 
v 0.00339761 0.0122371 0.01524 
v 0.00205463 0.0125327 0.00889 
v 0.00205463 0.0125327 0.01524 
v 0.000687564 0.0126814 0.00889 
v 0.000687564 0.0126814 0.01524 
v -0.000687564 0.0126814 0.00889 
v -0.000687564 0.0126814 0.01524 
v -0.00205463 0.0125327 0.00889 
v -0.00205463 0.0125327 0.01524 
v -0.00339761 0.0122371 0.00889 
v -0.00339761 0.0122371 0.01524 
v -0.00470075 0.011798 0.00889 
v -0.00470075 0.011798 0.01524 
v -0.00594879 0.0112206 0.00889 
v -0.00594879 0.0112206 0.01524 
v -0.00712708 0.0105117 0.00889 
v -0.00712708 0.0105117 0.01524 
v -0.00822181 0.00967946 0.00889 
v -0.00822181 0.00967946 0.01524 
v -0.00922014 0.00873378 0.00889 
v -0.00922014 0.00873378 0.01524 
v -0.0101104 0.00768571 0.00889 
v -0.0101104 0.00768571 0.01524 
v -0.0108821 0.00654753 0.00889 
v -0.0108821 0.00654753 0.01524 
v -0.0115262 0.00533259 0.00889 
v -0.0115262 0.00533259 0.01524 
v -0.0120352 0.00405513 0.00889 
v -0.0120352 0.00405513 0.01524 
v -0.0124031 0.00273012 0.00889 
v -0.0124031 0.00273012 0.01524 
v -0.0126256 0.00137311 0.00889 
v -0.0126256 0.00137311 0.01524 
v -0.0127 1.5553e-18 0.00889 
v -0.0127 1.5553e-18 0.01524 
v -0.0126256 -0.00137311 0.00889 
v -0.0126256 -0.00137311 0.01524 
v -0.0124031 -0.00273012 0.00889 
v -0.0124031 -0.00273012 0.01524 
v -0.0120352 -0.00405513 0.00889 
v -0.0120352 -0.00405513 0.01524 
v -0.0115262 -0.00533259 0.00889 
v -0.0115262 -0.00533259 0.01524 
v -0.0108821 -0.00654753 0.00889 
v -0.0108821 -0.00654753 0.01524 
v -0.0101104 -0.00768571 0.00889 
v -0.0101104 -0.00768571 0.01524 
v -0.00922014 -0.00873378 0.00889 
v -0.00922014 -0.00873378 0.01524 
v -0.00822181 -0.00967946 0.00889 
v -0.00822181 -0.00967946 0.01524 
v -0.00712708 -0.0105117 0.00889 
v -0.00712708 -0.0105117 0.01524 
v -0.00594879 -0.0112206 0.00889 
v -0.00594879 -0.0112206 0.01524 
v -0.00470075 -0.011798 0.00889 
v -0.00470075 -0.011798 0.01524 
v -0.00339761 -0.0122371 0.00889 
v -0.00339761 -0.0122371 0.01524 
v -0.00205463 -0.0125327 0.00889 
v -0.00205463 -0.0125327 0.01524 
v -0.000687564 -0.0126814 0.00889 
v -0.000687564 -0.0126814 0.01524 
v 0.000687564 -0.0126814 0.00889 
v 0.000687564 -0.0126814 0.01524 
v 0.00205463 -0.0125327 0.00889 
v 0.00205463 -0.0125327 0.01524 
v 0.00339761 -0.0122371 0.00889 
v 0.00339761 -0.0122371 0.01524 
v 0.00470075 -0.011798 0.00889 
v 0.00470075 -0.011798 0.01524 
v 0.00594879 -0.0112206 0.00889 
v 0.00594879 -0.0112206 0.01524 
v 0.00712708 -0.0105117 0.00889 
v 0.00712708 -0.0105117 0.01524 
v 0.00822181 -0.00967946 0.00889 
v 0.00822181 -0.00967946 0.01524 
v 0.00922014 -0.00873378 0.00889 
v 0.00922014 -0.00873378 0.01524 
v 0.0101104 -0.00768571 0.00889 
v 0.0101104 -0.00768571 0.01524 
v 0.0108821 -0.00654753 0.00889 
v 0.0108821 -0.00654753 0.01524 
v 0.0115262 -0.00533259 0.00889 
v 0.0115262 -0.00533259 0.01524 
v 0.0120352 -0.00405513 0.00889 
v 0.0120352 -0.00405513 0.01524 
v 0.0124031 -0.00273012 0.00889 
v 0.0124031 -0.00273012 0.01524 
v 0.0126256 -0.00137311 0.00889 
v 0.0126256 -0.00137311 0.01524 
vn 1 0 0 
vn 1 0 0 
vn 0.994138 0.108119 0 
vn 0.994138 0.108119 0 
vn 0.976621 0.21497 0 
vn 0.976621 0.21497 0 
vn 0.947653 0.319302 0 
vn 0.947653 0.319302 0 
vn 0.907575 0.419889 0 
vn 0.907575 0.419889 0 
vn 0.856857 0.515554 0 
vn 0.856857 0.515554 0 
vn 0.796093 0.605174 0 
vn 0.796093 0.605174 0 
vn 0.725995 0.687699 0 
vn 0.725995 0.687699 0 
vn 0.647386 0.762162 0 
vn 0.647386 0.762162 0 
vn 0.561187 0.827689 0 
vn 0.561187 0.827689 0 
vn 0.468408 0.883512 0 
vn 0.468408 0.883512 0 
vn 0.370138 0.928977 0 
vn 0.370138 0.928977 0 
vn 0.267528 0.96355 0 
vn 0.267528 0.96355 0 
vn 0.161782 0.986827 0 
vn 0.161782 0.986827 0 
vn 0.0541389 0.998533 0 
vn 0.0541389 0.998533 0 
vn -0.0541389 0.998533 0 
vn -0.0541389 0.998533 0 
vn -0.161782 0.986827 0 
vn -0.161782 0.986827 0 
vn -0.267528 0.96355 0 
vn -0.267528 0.96355 0 
vn -0.370138 0.928977 0 
vn -0.370138 0.928977 0 
vn -0.468408 0.883512 0 
vn -0.468408 0.883512 0 
vn -0.561187 0.827689 0 
vn -0.561187 0.827689 0 
vn -0.647386 0.762162 0 
vn -0.647386 0.762162 0 
vn -0.725995 0.687699 0 
vn -0.725995 0.687699 0 
vn -0.796093 0.605174 0 
vn -0.796093 0.605174 0 
vn -0.856857 0.515554 0 
vn -0.856857 0.515554 0 
vn -0.907575 0.419889 0 
vn -0.907575 0.419889 0 
vn -0.947653 0.319302 0 
vn -0.947653 0.319302 0 
vn -0.976621 0.21497 0 
vn -0.976621 0.21497 0 
vn -0.994138 0.108119 0 
vn -0.994138 0.108119 0 
vn -1 1.22465e-16 0 
vn -1 1.22465e-16 0 
vn -0.994138 -0.108119 0 
vn -0.994138 -0.108119 0 
vn -0.976621 -0.21497 0 
vn -0.976621 -0.21497 0 
vn -0.947653 -0.319302 0 
vn -0.947653 -0.319302 0 
vn -0.907575 -0.419889 0 
vn -0.907575 -0.419889 0 
vn -0.856857 -0.515554 0 
vn -0.856857 -0.515554 0 
vn -0.796093 -0.605174 0 
vn -0.796093 -0.605174 0 
vn -0.725995 -0.687699 0 
vn -0.725995 -0.687699 0 
vn -0.647386 -0.762162 0 
vn -0.647386 -0.762162 0 
vn -0.561187 -0.827689 0 
vn -0.561187 -0.827689 0 
vn -0.468408 -0.883512 0 
vn -0.468408 -0.883512 0 
vn -0.370138 -0.928977 0 
vn -0.370138 -0.928977 0 
vn -0.267528 -0.96355 0 
vn -0.267528 -0.96355 0 
vn -0.161782 -0.986827 0 
vn -0.161782 -0.986827 0 
vn -0.0541389 -0.998533 0 
vn -0.0541389 -0.998533 0 
vn 0.0541389 -0.998533 0 
vn 0.0541389 -0.998533 0 
vn 0.161782 -0.986827 0 
vn 0.161782 -0.986827 0 
vn 0.267528 -0.96355 0 
vn 0.267528 -0.96355 0 
vn 0.370138 -0.928977 0 
vn 0.370138 -0.928977 0 
vn 0.468408 -0.883512 0 
vn 0.468408 -0.883512 0 
vn 0.561187 -0.827689 0 
vn 0.561187 -0.827689 0 
vn 0.647386 -0.762162 0 
vn 0.647386 -0.762162 0 
vn 0.725995 -0.687699 0 
vn 0.725995 -0.687699 0 
vn 0.796093 -0.605174 0 
vn 0.796093 -0.605174 0 
vn 0.856857 -0.515554 0 
vn 0.856857 -0.515554 0 
vn 0.907575 -0.419889 0 
vn 0.907575 -0.419889 0 
vn 0.947653 -0.319302 0 
vn 0.947653 -0.319302 0 
vn 0.976621 -0.21497 0 
vn 0.976621 -0.21497 0 
vn 0.994138 -0.108119 0 
vn 0.994138 -0.108119 0 
f 233//233 234//234 235//235 
f 236//236 235//235 237//237 
f 238//238 237//237 239//239 
f 240//240 239//239 241//241 
f 242//242 241//241 243//243 
f 244//244 243//243 245//245 
f 246//246 245//245 247//247 
f 248//248 247//247 249//249 
f 250//250 249//249 251//251 
f 252//252 251//251 253//253 
f 254//254 253//253 255//255 
f 256//256 255//255 257//257 
f 258//258 257//257 259//259 
f 260//260 259//259 261//261 
f 262//262 261//261 263//263 
f 264//264 263//263 265//265 
f 266//266 265//265 267//267 
f 268//268 267//267 269//269 
f 270//270 269//269 271//271 
f 272//272 271//271 273//273 
f 274//274 273//273 275//275 
f 276//276 275//275 277//277 
f 278//278 277//277 279//279 
f 280//280 279//279 281//281 
f 282//282 281//281 283//283 
f 284//284 283//283 285//285 
f 286//286 285//285 287//287 
f 288//288 287//287 289//289 
f 290//290 289//289 291//291 
f 292//292 291//291 293//293 
f 294//294 293//293 295//295 
f 296//296 295//295 297//297 
f 298//298 297//297 299//299 
f 300//300 299//299 301//301 
f 302//302 301//301 303//303 
f 304//304 303//303 305//305 
f 306//306 305//305 307//307 
f 308//308 307//307 309//309 
f 310//310 309//309 311//311 
f 312//312 311//311 313//313 
f 314//314 313//313 315//315 
f 316//316 315//315 317//317 
f 318//318 317//317 319//319 
f 320//320 319//319 321//321 
f 322//322 321//321 323//323 
f 324//324 323//323 325//325 
f 326//326 325//325 327//327 
f 328//328 327//327 329//329 
f 330//330 329//329 331//331 
f 332//332 331//331 333//333 
f 334//334 333//333 335//335 
f 336//336 335//335 337//337 
f 338//338 337//337 339//339 
f 340//340 339//339 341//341 
f 342//342 341//341 343//343 
f 344//344 343//343 345//345 
f 346//346 345//345 347//347 
f 348//348 347//347 234//234 
f 234//234 233//233 348//348 
f 347//347 348//348 346//346 
f 345//345 346//346 344//344 
f 343//343 344//344 342//342 
f 341//341 342//342 340//340 
f 339//339 340//340 338//338 
f 337//337 338//338 336//336 
f 335//335 336//336 334//334 
f 333//333 334//334 332//332 
f 331//331 332//332 330//330 
f 329//329 330//330 328//328 
f 327//327 328//328 326//326 
f 325//325 326//326 324//324 
f 323//323 324//324 322//322 
f 321//321 322//322 320//320 
f 319//319 320//320 318//318 
f 317//317 318//318 316//316 
f 315//315 316//316 314//314 
f 313//313 314//314 312//312 
f 311//311 312//312 310//310 
f 309//309 310//310 308//308 
f 307//307 308//308 306//306 
f 305//305 306//306 304//304 
f 303//303 304//304 302//302 
f 301//301 302//302 300//300 
f 299//299 300//300 298//298 
f 297//297 298//298 296//296 
f 295//295 296//296 294//294 
f 293//293 294//294 292//292 
f 291//291 292//292 290//290 
f 289//289 290//290 288//288 
f 287//287 288//288 286//286 
f 285//285 286//286 284//284 
f 283//283 284//284 282//282 
f 281//281 282//282 280//280 
f 279//279 280//280 278//278 
f 277//277 278//278 276//276 
f 275//275 276//276 274//274 
f 273//273 274//274 272//272 
f 271//271 272//272 270//270 
f 269//269 270//270 268//268 
f 267//267 268//268 266//266 
f 265//265 266//266 264//264 
f 263//263 264//264 262//262 
f 261//261 262//262 260//260 
f 259//259 260//260 258//258 
f 257//257 258//258 256//256 
f 255//255 256//256 254//254 
f 253//253 254//254 252//252 
f 251//251 252//252 250//250 
f 249//249 250//250 248//248 
f 247//247 248//248 246//246 
f 245//245 246//246 244//244 
f 243//243 244//244 242//242 
f 241//241 242//242 240//240 
f 239//239 240//240 238//238 
f 237//237 238//238 236//236 
f 235//235 236//236 233//233 
o mesh17453
v 0.00922014 0.00873378 0.01524 
v 0.00461007 0.00436689 0.01524 
v 0.00505519 0.00384286 0.01524 
v 0.00822181 0.00967946 0.01524 
v 0.0041109 0.00483973 0.01524 
v -0.00594879 0.0112206 0.01524 
v -0.00297439 0.0056103 0.01524 
v -0.00235038 0.005899 0.01524 
v -0.00712708 0.0105117 0.01524 
v -0.00356354 0.00525583 0.01524 
v 0.0124031 0.00273012 0.01524 
v 0.00620154 0.00136506 0.01524 
v 0.00631278 0.000686556 0.01524 
v 0.0120352 0.00405513 0.01524 
v 0.0060176 0.00202756 0.01524 
v 0.0115262 0.00533259 0.01524 
v 0.0057631 0.0026663 0.01524 
v 0.0108821 0.00654753 0.01524 
v 0.00544104 0.00327377 0.01524 
v 0.00712708 0.0105117 0.01524 
v 0.00356354 0.00525583 0.01524 
v 0.00594879 0.0112206 0.01524 
v 0.00297439 0.0056103 0.01524 
v 0.00470075 0.011798 0.01524 
v 0.00235038 0.005899 0.01524 
v -0.00822181 0.00967946 0.01524 
v -0.0041109 0.00483973 0.01524 
v 0.0101104 0.00768571 0.01524 
v 0.00339761 0.0122371 0.01524 
v 0.0016988 0.00611854 0.01524 
v 0.000687564 0.0126814 0.01524 
v 0.000343782 0.00634069 0.01524 
v 0.00102732 0.00626635 0.01524 
v -0.000687564 0.0126814 0.01524 
v -0.000343782 0.00634069 0.01524 
v -0.00922014 0.00873378 0.01524 
v -0.00461007 0.00436689 0.01524 
v -0.0101104 0.00768571 0.01524 
v -0.00505519 0.00384286 0.01524 
v -0.0108821 0.00654753 0.01524 
v -0.00544104 0.00327377 0.01524 
v -0.0120352 0.00405513 0.01524 
v -0.0060176 0.00202756 0.01524 
v -0.0057631 0.0026663 0.01524 
v -0.0124031 0.00273012 0.01524 
v -0.00620154 0.00136506 0.01524 
v -0.0126256 0.00137311 0.01524 
v -0.00631278 0.000686556 0.01524 
v -0.0127 1.5553e-18 0.01524 
v -0.00635 7.77651e-19 0.01524 
v -0.00922014 -0.00873378 0.01524 
v -0.00461007 -0.00436689 0.01524 
v -0.00505519 -0.00384286 0.01524 
v -0.00822181 -0.00967946 0.01524 
v -0.0041109 -0.00483973 0.01524 
v 0.0126256 0.00137311 0.01524 
v 0.00635 -1.5553e-18 0.01524 
v -0.00205463 0.0125327 0.01524 
v -0.00102732 0.00626635 0.01524 
v -0.0115262 0.00533259 0.01524 
v -0.0126256 -0.00137311 0.01524 
v -0.00631278 -0.000686556 0.01524 
v -0.0124031 -0.00273012 0.01524 
v -0.00620154 -0.00136506 0.01524 
v -0.0120352 -0.00405513 0.01524 
v -0.0060176 -0.00202756 0.01524 
v -0.0115262 -0.00533259 0.01524 
v -0.0057631 -0.0026663 0.01524 
v -0.0108821 -0.00654753 0.01524 
v -0.00544104 -0.00327377 0.01524 
v -0.0101104 -0.00768571 0.01524 
v -0.00712708 -0.0105117 0.01524 
v -0.00356354 -0.00525583 0.01524 
v -0.00594879 -0.0112206 0.01524 
v -0.00297439 -0.0056103 0.01524 
v 0.00205463 0.0125327 0.01524 
v -0.00470075 -0.011798 0.01524 
v -0.00235038 -0.005899 0.01524 
v -0.000687564 -0.0126814 0.01524 
v -0.000343782 -0.00634069 0.01524 
v -0.00102732 -0.00626635 0.01524 
v 0.000687564 -0.0126814 0.01524 
v 0.000343782 -0.00634069 0.01524 
v 0.00470075 -0.011798 0.01524 
v 0.00594879 -0.0112206 0.01524 
v 0.00297439 -0.0056103 0.01524 
v 0.00712708 -0.0105117 0.01524 
v 0.00356354 -0.00525583 0.01524 
v 0.00822181 -0.00967946 0.01524 
v 0.0041109 -0.00483973 0.01524 
v 0.00922014 -0.00873378 0.01524 
v 0.00461007 -0.00436689 0.01524 
v -0.00339761 0.0122371 0.01524 
v -0.0016988 0.00611854 0.01524 
v -0.00470075 0.011798 0.01524 
v -0.00339761 -0.0122371 0.01524 
v -0.0016988 -0.00611854 0.01524 
v -0.00205463 -0.0125327 0.01524 
v 0.00205463 -0.0125327 0.01524 
v 0.00102732 -0.00626635 0.01524 
v 0.00235038 -0.005899 0.01524 
v 0.0016988 -0.00611854 0.01524 
v 0.0101104 -0.00768571 0.01524 
v 0.00505519 -0.00384286 0.01524 
v 0.0120352 -0.00405513 0.01524 
v 0.0060176 -0.00202756 0.01524 
v 0.0057631 -0.0026663 0.01524 
v 0.0124031 -0.00273012 0.01524 
v 0.00620154 -0.00136506 0.01524 
v 0.00339761 -0.0122371 0.01524 
v 0.0108821 -0.00654753 0.01524 
v 0.00544104 -0.00327377 0.01524 
v 0.0115262 -0.00533259 0.01524 
v 0.0126256 -0.00137311 0.01524 
v 0.00631278 -0.000686556 0.01524 
v 0.0127 0 0.01524 
vn 0 0 1 
vn 0 0 1 
vn 0 0 1 
vn 0 0 1 
vn 0 0 1 
vn 0 0 1 
vn 0 0 1 
vn 0 0 1 
vn 0 0 1 
vn 0 0 1 
vn 0 0 1 
vn 0 0 1 
vn 0 0 1 
vn 0 0 1 
vn 0 0 1 
vn 0 0 1 
vn 0 0 1 
vn 0 0 1 
vn 0 0 1 
vn 0 0 1 
vn 0 0 1 
vn 0 0 1 
vn 0 0 1 
vn 0 0 1 
vn 0 0 1 
vn 0 0 1 
vn 0 0 1 
vn 0 0 1 
vn 0 0 1 
vn 0 0 1 
vn 0 0 1 
vn 0 0 1 
vn 0 0 1 
vn 0 0 1 
vn 0 0 1 
vn 0 0 1 
vn 0 0 1 
vn 0 0 1 
vn 0 0 1 
vn 0 0 1 
vn 0 0 1 
vn 0 0 1 
vn 0 0 1 
vn 0 0 1 
vn 0 0 1 
vn 0 0 1 
vn 0 0 1 
vn 0 0 1 
vn 0 0 1 
vn 0 0 1 
vn 0 0 1 
vn 0 0 1 
vn 0 0 1 
vn 0 0 1 
vn 0 0 1 
vn 0 0 1 
vn 0 0 1 
vn 0 0 1 
vn 0 0 1 
vn 0 0 1 
vn 0 0 1 
vn 0 0 1 
vn 0 0 1 
vn 0 0 1 
vn 0 0 1 
vn 0 0 1 
vn 0 0 1 
vn 0 0 1 
vn 0 0 1 
vn 0 0 1 
vn 0 0 1 
vn 0 0 1 
vn 0 0 1 
vn 0 0 1 
vn 0 0 1 
vn 0 0 1 
vn 0 0 1 
vn 0 0 1 
vn 0 0 1 
vn 0 0 1 
vn 0 0 1 
vn 0 0 1 
vn 0 0 1 
vn 0 0 1 
vn 0 0 1 
vn 0 0 1 
vn 0 0 1 
vn 0 0 1 
vn 0 0 1 
vn 0 0 1 
vn 0 0 1 
vn 0 0 1 
vn 0 0 1 
vn 0 0 1 
vn 0 0 1 
vn 0 0 1 
vn 0 0 1 
vn 0 0 1 
vn 0 0 1 
vn 0 0 1 
vn 0 0 1 
vn 0 0 1 
vn 0 0 1 
vn 0 0 1 
vn 0 0 1 
vn 0 0 1 
vn 0 0 1 
vn 0 0 1 
vn 0 0 1 
vn 0 0 1 
vn 0 0 1 
vn 0 0 1 
vn 0 0 1 
vn 0 0 1 
vn 0 0 1 
vn 0 0 1 
f 349//349 350//350 351//351 
f 349//349 352//352 353//353 
f 354//354 355//355 356//356 
f 354//354 357//357 358//358 
f 359//359 360//360 361//361 
f 359//359 362//362 363//363 
f 362//362 364//364 365//365 
f 364//364 366//366 367//367 
f 353//353 350//350 349//349 
f 352//352 368//368 369//369 
f 370//370 371//371 369//369 
f 370//370 372//372 373//373 
f 358//358 355//355 354//354 
f 357//357 374//374 375//375 
f 363//363 360//360 359//359 
f 367//367 365//365 364//364 
f 376//376 351//351 367//367 
f 369//369 353//353 352//352 
f 373//373 371//371 370//370 
f 372//372 377//377 378//378 
f 379//379 380//380 381//381 
f 379//379 382//382 383//383 
f 375//375 358//358 357//357 
f 374//374 384//384 385//385 
f 386//386 387//387 385//385 
f 386//386 388//388 389//389 
f 390//390 391//391 392//392 
f 390//390 393//393 394//394 
f 395//395 396//396 394//394 
f 395//395 397//397 398//398 
f 399//399 400//400 401//401 
f 399//399 402//402 403//403 
f 404//404 361//361 405//405 
f 365//365 363//363 362//362 
f 351//351 376//376 349//349 
f 378//378 373//373 372//372 
f 383//383 380//380 379//379 
f 382//382 406//406 407//407 
f 385//385 375//375 374//374 
f 389//389 387//387 386//386 
f 408//408 392//392 389//389 
f 394//394 391//391 390//390 
f 398//398 396//396 395//395 
f 397//397 409//409 410//410 
f 411//411 412//412 410//410 
f 411//411 413//413 414//414 
f 415//415 416//416 414//414 
f 415//415 417//417 418//418 
f 417//417 419//419 401//401 
f 403//403 400//400 399//399 
f 420//420 421//421 403//403 
f 420//420 422//422 423//423 
f 361//361 404//404 359//359 
f 369//369 368//368 370//370 
f 424//424 381//381 378//378 
f 407//407 383//383 382//382 
f 385//385 384//384 386//386 
f 392//392 408//408 390//390 
f 410//410 398//398 397//397 
f 414//414 412//412 411//411 
f 418//418 416//416 415//415 
f 401//401 419//419 399//399 
f 423//423 421//421 420//420 
f 422//422 425//425 426//426 
f 427//427 428//428 429//429 
f 430//430 431//431 428//428 
f 432//432 433//433 434//434 
f 433//433 435//435 436//436 
f 437//437 438//438 436//436 
f 437//437 439//439 440//440 
f 367//367 366//366 376//376 
f 381//381 424//424 379//379 
f 441//441 442//442 407//407 
f 441//441 443//443 356//356 
f 389//389 388//388 408//408 
f 410//410 409//409 411//411 
f 401//401 418//418 417//417 
f 426//426 423//423 422//422 
f 444//444 445//445 426//426 
f 444//444 446//446 429//429 
f 428//428 427//427 430//430 
f 430//430 447//447 448//448 
f 432//432 449//449 450//450 
f 436//436 434//434 433//433 
f 440//440 438//438 437//437 
f 439//439 451//451 452//452 
f 453//453 454//454 455//455 
f 453//453 456//456 457//457 
f 378//378 377//377 424//424 
f 356//356 442//442 441//441 
f 394//394 393//393 395//395 
f 403//403 402//402 420//420 
f 429//429 445//445 444//444 
f 448//448 431//431 430//430 
f 447//447 458//458 450//450 
f 434//434 449//449 432//432 
f 452//452 440//440 439//439 
f 451//451 459//459 460//460 
f 461//461 455//455 460//460 
f 457//457 454//454 453//453 
f 407//407 406//406 441//441 
f 414//414 413//413 415//415 
f 429//429 446//446 427//427 
f 450//450 458//458 432//432 
f 460//460 452//452 451//451 
f 455//455 461//461 453//453 
f 462//462 463//463 457//457 
f 464//464 405//405 463//463 
f 356//356 443//443 354//354 
f 450//450 448//448 447//447 
f 460//460 459//459 461//461 
f 463//463 462//462 464//464 
f 426//426 425//425 444//444 
f 457//457 456//456 462//462 
f 436//436 435//435 437//437 
f 405//405 464//464 404//404 
o mesh17454
v 0.00631278 -0.000686556 0.01524 
v 0.00635 -1.5553e-18 0.01524 
v 0.00635 0 -0.01524 
v 0.00620154 -0.00136506 0.01524 
v 0.00631278 -0.000686556 -0.01524 
v 0.0060176 -0.00202756 0.01524 
v 0.00620154 -0.00136506 -0.01524 
v 0.0057631 -0.0026663 0.01524 
v 0.0060176 -0.00202756 -0.01524 
v 0.00544104 -0.00327377 0.01524 
v 0.0057631 -0.0026663 -0.01524 
v 0.00505519 -0.00384286 0.01524 
v 0.00544104 -0.00327377 -0.01524 
v 0.00461007 -0.00436689 0.01524 
v 0.00505519 -0.00384286 -0.01524 
v 0.0041109 -0.00483973 0.01524 
v 0.00461007 -0.00436689 -0.01524 
v 0.00356354 -0.00525583 0.01524 
v 0.0041109 -0.00483973 -0.01524 
v 0.00297439 -0.0056103 0.01524 
v 0.00356354 -0.00525583 -0.01524 
v 0.00235038 -0.005899 0.01524 
v 0.00297439 -0.0056103 -0.01524 
v 0.0016988 -0.00611854 0.01524 
v 0.00235038 -0.005899 -0.01524 
v 0.00102732 -0.00626635 0.01524 
v 0.0016988 -0.00611854 -0.01524 
v 0.000343782 -0.00634069 0.01524 
v 0.00102732 -0.00626635 -0.01524 
v -0.000343782 -0.00634069 0.01524 
v 0.000343782 -0.00634069 -0.01524 
v -0.00102732 -0.00626635 0.01524 
v -0.000343782 -0.00634069 -0.01524 
v -0.0016988 -0.00611854 0.01524 
v -0.00102732 -0.00626635 -0.01524 
v -0.00235038 -0.005899 0.01524 
v -0.0016988 -0.00611854 -0.01524 
v -0.00297439 -0.0056103 0.01524 
v -0.00235038 -0.005899 -0.01524 
v -0.00356354 -0.00525583 0.01524 
v -0.00297439 -0.0056103 -0.01524 
v -0.0041109 -0.00483973 0.01524 
v -0.00356354 -0.00525583 -0.01524 
v -0.00461007 -0.00436689 0.01524 
v -0.0041109 -0.00483973 -0.01524 
v -0.00505519 -0.00384286 0.01524 
v -0.00461007 -0.00436689 -0.01524 
v -0.00544104 -0.00327377 0.01524 
v -0.00505519 -0.00384286 -0.01524 
v -0.0057631 -0.0026663 0.01524 
v -0.00544104 -0.00327377 -0.01524 
v -0.0060176 -0.00202756 0.01524 
v -0.0057631 -0.0026663 -0.01524 
v -0.00620154 -0.00136506 0.01524 
v -0.0060176 -0.00202756 -0.01524 
v -0.00631278 -0.000686556 0.01524 
v -0.00620154 -0.00136506 -0.01524 
v -0.00635 7.77651e-19 0.01524 
v -0.00631278 -0.000686556 -0.01524 
v -0.00631278 0.000686556 0.01524 
v -0.00635 7.77651e-19 -0.01524 
v -0.00620154 0.00136506 0.01524 
v -0.00631278 0.000686556 -0.01524 
v -0.0060176 0.00202756 0.01524 
v -0.00620154 0.00136506 -0.01524 
v -0.0057631 0.0026663 0.01524 
v -0.0060176 0.00202756 -0.01524 
v -0.00544104 0.00327377 0.01524 
v -0.0057631 0.0026663 -0.01524 
v -0.00505519 0.00384286 0.01524 
v -0.00544104 0.00327377 -0.01524 
v -0.00461007 0.00436689 0.01524 
v -0.00505519 0.00384286 -0.01524 
v -0.0041109 0.00483973 0.01524 
v -0.00461007 0.00436689 -0.01524 
v -0.00356354 0.00525583 0.01524 
v -0.0041109 0.00483973 -0.01524 
v -0.00297439 0.0056103 0.01524 
v -0.00356354 0.00525583 -0.01524 
v -0.00235038 0.005899 0.01524 
v -0.00297439 0.0056103 -0.01524 
v -0.0016988 0.00611854 0.01524 
v -0.00235038 0.005899 -0.01524 
v -0.00102732 0.00626635 0.01524 
v -0.0016988 0.00611854 -0.01524 
v -0.000343782 0.00634069 0.01524 
v -0.00102732 0.00626635 -0.01524 
v 0.000343782 0.00634069 0.01524 
v -0.000343782 0.00634069 -0.01524 
v 0.00102732 0.00626635 0.01524 
v 0.000343782 0.00634069 -0.01524 
v 0.0016988 0.00611854 0.01524 
v 0.00102732 0.00626635 -0.01524 
v 0.00235038 0.005899 0.01524 
v 0.0016988 0.00611854 -0.01524 
v 0.00297439 0.0056103 0.01524 
v 0.00235038 0.005899 -0.01524 
v 0.00356354 0.00525583 0.01524 
v 0.00297439 0.0056103 -0.01524 
v 0.0041109 0.00483973 0.01524 
v 0.00356354 0.00525583 -0.01524 
v 0.00461007 0.00436689 0.01524 
v 0.0041109 0.00483973 -0.01524 
v 0.00505519 0.00384286 0.01524 
v 0.00461007 0.00436689 -0.01524 
v 0.00544104 0.00327377 0.01524 
v 0.00505519 0.00384286 -0.01524 
v 0.0057631 0.0026663 0.01524 
v 0.00544104 0.00327377 -0.01524 
v 0.0060176 0.00202756 0.01524 
v 0.0057631 0.0026663 -0.01524 
v 0.00620154 0.00136506 0.01524 
v 0.0060176 0.00202756 -0.01524 
v 0.00631278 0.000686556 0.01524 
v 0.00620154 0.00136506 -0.01524 
v 0.00631278 0.000686556 -0.01524 
vn -0.994138 0.108119 0 
vn -1 2.44929e-16 0 
vn -1 2.44929e-16 0 
vn -0.976621 0.21497 0 
vn -0.994138 0.108119 0 
vn -0.947653 0.319302 0 
vn -0.976621 0.21497 0 
vn -0.907575 0.419889 0 
vn -0.947653 0.319302 0 
vn -0.856857 0.515554 0 
vn -0.907575 0.419889 0 
vn -0.796093 0.605174 0 
vn -0.856857 0.515554 0 
vn -0.725995 0.687699 0 
vn -0.796093 0.605174 0 
vn -0.647386 0.762162 0 
vn -0.725995 0.687699 0 
vn -0.561187 0.827689 0 
vn -0.647386 0.762162 0 
vn -0.468408 0.883512 0 
vn -0.561187 0.827689 0 
vn -0.370138 0.928977 0 
vn -0.468408 0.883512 0 
vn -0.267528 0.96355 0 
vn -0.370138 0.928977 0 
vn -0.161782 0.986827 0 
vn -0.267528 0.96355 0 
vn -0.0541389 0.998533 0 
vn -0.161782 0.986827 0 
vn 0.0541389 0.998533 0 
vn -0.0541389 0.998533 0 
vn 0.161782 0.986827 0 
vn 0.0541389 0.998533 0 
vn 0.267528 0.96355 0 
vn 0.161782 0.986827 0 
vn 0.370138 0.928977 0 
vn 0.267528 0.96355 0 
vn 0.468408 0.883512 0 
vn 0.370138 0.928977 0 
vn 0.561187 0.827689 0 
vn 0.468408 0.883512 0 
vn 0.647386 0.762162 0 
vn 0.561187 0.827689 0 
vn 0.725995 0.687699 0 
vn 0.647386 0.762162 0 
vn 0.796093 0.605174 0 
vn 0.725995 0.687699 0 
vn 0.856857 0.515554 0 
vn 0.796093 0.605174 0 
vn 0.907575 0.419889 0 
vn 0.856857 0.515554 0 
vn 0.947653 0.319302 0 
vn 0.907575 0.419889 0 
vn 0.976621 0.21497 0 
vn 0.947653 0.319302 0 
vn 0.994138 0.108119 0 
vn 0.976621 0.21497 0 
vn 1 -1.22465e-16 0 
vn 0.994138 0.108119 0 
vn 0.994138 -0.108119 0 
vn 1 -1.22465e-16 0 
vn 0.976621 -0.21497 0 
vn 0.994138 -0.108119 0 
vn 0.947653 -0.319302 0 
vn 0.976621 -0.21497 0 
vn 0.907575 -0.419889 0 
vn 0.947653 -0.319302 0 
vn 0.856857 -0.515554 0 
vn 0.907575 -0.419889 0 
vn 0.796093 -0.605174 0 
vn 0.856857 -0.515554 0 
vn 0.725995 -0.687699 0 
vn 0.796093 -0.605174 0 
vn 0.647386 -0.762162 0 
vn 0.725995 -0.687699 0 
vn 0.561187 -0.827689 0 
vn 0.647386 -0.762162 0 
vn 0.468408 -0.883512 0 
vn 0.561187 -0.827689 0 
vn 0.370138 -0.928977 0 
vn 0.468408 -0.883512 0 
vn 0.267528 -0.96355 0 
vn 0.370138 -0.928977 0 
vn 0.161782 -0.986827 0 
vn 0.267528 -0.96355 0 
vn 0.0541389 -0.998533 0 
vn 0.161782 -0.986827 0 
vn -0.0541389 -0.998533 0 
vn 0.0541389 -0.998533 0 
vn -0.161782 -0.986827 0 
vn -0.0541389 -0.998533 0 
vn -0.267528 -0.96355 0 
vn -0.161782 -0.986827 0 
vn -0.370138 -0.928977 0 
vn -0.267528 -0.96355 0 
vn -0.468408 -0.883512 0 
vn -0.370138 -0.928977 0 
vn -0.561187 -0.827689 0 
vn -0.468408 -0.883512 0 
vn -0.647386 -0.762162 0 
vn -0.561187 -0.827689 0 
vn -0.725995 -0.687699 0 
vn -0.647386 -0.762162 0 
vn -0.796093 -0.605174 0 
vn -0.725995 -0.687699 0 
vn -0.856857 -0.515554 0 
vn -0.796093 -0.605174 0 
vn -0.907575 -0.419889 0 
vn -0.856857 -0.515554 0 
vn -0.947653 -0.319302 0 
vn -0.907575 -0.419889 0 
vn -0.976621 -0.21497 0 
vn -0.947653 -0.319302 0 
vn -0.994138 -0.108119 0 
vn -0.976621 -0.21497 0 
vn -0.994138 -0.108119 0 
f 465//465 466//466 467//467 
f 468//468 465//465 469//469 
f 470//470 468//468 471//471 
f 472//472 470//470 473//473 
f 474//474 472//472 475//475 
f 476//476 474//474 477//477 
f 478//478 476//476 479//479 
f 480//480 478//478 481//481 
f 482//482 480//480 483//483 
f 484//484 482//482 485//485 
f 486//486 484//484 487//487 
f 488//488 486//486 489//489 
f 490//490 488//488 491//491 
f 492//492 490//490 493//493 
f 494//494 492//492 495//495 
f 496//496 494//494 497//497 
f 498//498 496//496 499//499 
f 500//500 498//498 501//501 
f 502//502 500//500 503//503 
f 504//504 502//502 505//505 
f 506//506 504//504 507//507 
f 508//508 506//506 509//509 
f 510//510 508//508 511//511 
f 512//512 510//510 513//513 
f 514//514 512//512 515//515 
f 516//516 514//514 517//517 
f 518//518 516//516 519//519 
f 520//520 518//518 521//521 
f 522//522 520//520 523//523 
f 524//524 522//522 525//525 
f 526//526 524//524 527//527 
f 528//528 526//526 529//529 
f 530//530 528//528 531//531 
f 532//532 530//530 533//533 
f 534//534 532//532 535//535 
f 536//536 534//534 537//537 
f 538//538 536//536 539//539 
f 540//540 538//538 541//541 
f 542//542 540//540 543//543 
f 544//544 542//542 545//545 
f 546//546 544//544 547//547 
f 548//548 546//546 549//549 
f 550//550 548//548 551//551 
f 552//552 550//550 553//553 
f 554//554 552//552 555//555 
f 556//556 554//554 557//557 
f 558//558 556//556 559//559 
f 560//560 558//558 561//561 
f 562//562 560//560 563//563 
f 564//564 562//562 565//565 
f 566//566 564//564 567//567 
f 568//568 566//566 569//569 
f 570//570 568//568 571//571 
f 572//572 570//570 573//573 
f 574//574 572//572 575//575 
f 576//576 574//574 577//577 
f 578//578 576//576 579//579 
f 466//466 578//578 580//580 
f 580//580 467//467 466//466 
f 579//579 580//580 578//578 
f 577//577 579//579 576//576 
f 575//575 577//577 574//574 
f 573//573 575//575 572//572 
f 571//571 573//573 570//570 
f 569//569 571//571 568//568 
f 567//567 569//569 566//566 
f 565//565 567//567 564//564 
f 563//563 565//565 562//562 
f 561//561 563//563 560//560 
f 559//559 561//561 558//558 
f 557//557 559//559 556//556 
f 555//555 557//557 554//554 
f 553//553 555//555 552//552 
f 551//551 553//553 550//550 
f 549//549 551//551 548//548 
f 547//547 549//549 546//546 
f 545//545 547//547 544//544 
f 543//543 545//545 542//542 
f 541//541 543//543 540//540 
f 539//539 541//541 538//538 
f 537//537 539//539 536//536 
f 535//535 537//537 534//534 
f 533//533 535//535 532//532 
f 531//531 533//533 530//530 
f 529//529 531//531 528//528 
f 527//527 529//529 526//526 
f 525//525 527//527 524//524 
f 523//523 525//525 522//522 
f 521//521 523//523 520//520 
f 519//519 521//521 518//518 
f 517//517 519//519 516//516 
f 515//515 517//517 514//514 
f 513//513 515//515 512//512 
f 511//511 513//513 510//510 
f 509//509 511//511 508//508 
f 507//507 509//509 506//506 
f 505//505 507//507 504//504 
f 503//503 505//505 502//502 
f 501//501 503//503 500//500 
f 499//499 501//501 498//498 
f 497//497 499//499 496//496 
f 495//495 497//497 494//494 
f 493//493 495//495 492//492 
f 491//491 493//493 490//490 
f 489//489 491//491 488//488 
f 487//487 489//489 486//486 
f 485//485 487//487 484//484 
f 483//483 485//485 482//482 
f 481//481 483//483 480//480 
f 479//479 481//481 478//478 
f 477//477 479//479 476//476 
f 475//475 477//477 474//474 
f 473//473 475//475 472//472 
f 471//471 473//473 470//470 
f 469//469 471//471 468//468 
f 467//467 469//469 465//465 
o mesh17455
v 0.00470075 0.011798 -0.01524 
v 0.00235038 0.005899 -0.01524 
v 0.0016988 0.00611854 -0.01524 
v 0.00594879 0.0112206 -0.01524 
v 0.00297439 0.0056103 -0.01524 
v 0.00822181 0.00967946 -0.01524 
v 0.0041109 0.00483973 -0.01524 
v 0.00356354 0.00525583 -0.01524 
v 0.00922014 0.00873378 -0.01524 
v 0.00461007 0.00436689 -0.01524 
v 0.00712708 0.0105117 -0.01524 
v 0.0101104 0.00768571 -0.01524 
v 0.00505519 0.00384286 -0.01524 
v -0.000687564 0.0126814 -0.01524 
v -0.000343782 0.00634069 -0.01524 
v -0.00102732 0.00626635 -0.01524 
v 0.000687564 0.0126814 -0.01524 
v 0.000343782 0.00634069 -0.01524 
v 0.0115262 0.00533259 -0.01524 
v 0.0057631 0.0026663 -0.01524 
v 0.00544104 0.00327377 -0.01524 
v 0.0120352 0.00405513 -0.01524 
v 0.0060176 0.00202756 -0.01524 
v 0.0124031 0.00273012 -0.01524 
v 0.00620154 0.00136506 -0.01524 
v 0.0126256 0.00137311 -0.01524 
v 0.00631278 0.000686556 -0.01524 
v 0.0127 1.5553e-18 -0.01524 
v 0.00635 0 -0.01524 
v 0.0126256 -0.00137311 -0.01524 
v 0.00631278 -0.000686556 -0.01524 
v 0.0120352 -0.00405513 -0.01524 
v 0.0060176 -0.00202756 -0.01524 
v 0.00620154 -0.00136506 -0.01524 
v 0.0115262 -0.00533259 -0.01524 
v 0.0057631 -0.0026663 -0.01524 
v 0.00205463 0.0125327 -0.01524 
v 0.00102732 0.00626635 -0.01524 
v 0.0108821 0.00654753 -0.01524 
v 0.0124031 -0.00273012 -0.01524 
v 0.0108821 -0.00654753 -0.01524 
v 0.00544104 -0.00327377 -0.01524 
v 0.0101104 -0.00768571 -0.01524 
v 0.00505519 -0.00384286 -0.01524 
v 0.00922014 -0.00873378 -0.01524 
v 0.00461007 -0.00436689 -0.01524 
v 0.00822181 -0.00967946 -0.01524 
v 0.0041109 -0.00483973 -0.01524 
v 0.00712708 -0.0105117 -0.01524 
v 0.00356354 -0.00525583 -0.01524 
v 0.00594879 -0.0112206 -0.01524 
v 0.00297439 -0.0056103 -0.01524 
v 0.00470075 -0.011798 -0.01524 
v 0.00235038 -0.005899 -0.01524 
v -0.00594879 -0.0112206 -0.01524 
v -0.00297439 -0.0056103 -0.01524 
v -0.00235038 -0.005899 -0.01524 
v -0.00712708 -0.0105117 -0.01524 
v -0.00356354 -0.00525583 -0.01524 
v -0.00822181 -0.00967946 -0.01524 
v -0.00922014 -0.00873378 -0.01524 
v -0.00461007 -0.00436689 -0.01524 
v -0.0101104 -0.00768571 -0.01524 
v -0.00505519 -0.00384286 -0.01524 
v -0.0120352 0.00405513 -0.01524 
v -0.0060176 0.00202756 -0.01524 
v -0.00620154 0.00136506 -0.01524 
v -0.0115262 0.00533259 -0.01524 
v -0.0057631 0.0026663 -0.01524 
v -0.00922014 0.00873378 -0.01524 
v -0.00822181 0.00967946 -0.01524 
v -0.0041109 0.00483973 -0.01524 
v -0.00712708 0.0105117 -0.01524 
v -0.00356354 0.00525583 -0.01524 
v -0.00594879 0.0112206 -0.01524 
v -0.00297439 0.0056103 -0.01524 
v -0.00470075 0.011798 -0.01524 
v -0.00235038 0.005899 -0.01524 
v 0.00339761 0.0122371 -0.01524 
v 0.00339761 -0.0122371 -0.01524 
v 0.0016988 -0.00611854 -0.01524 
v -0.000687564 -0.0126814 -0.01524 
v -0.000343782 -0.00634069 -0.01524 
v 0.000343782 -0.00634069 -0.01524 
v -0.00205463 -0.0125327 -0.01524 
v -0.00102732 -0.00626635 -0.01524 
v -0.0041109 -0.00483973 -0.01524 
v -0.0108821 -0.00654753 -0.01524 
v -0.00544104 -0.00327377 -0.01524 
v -0.0127 0 -0.01524 
v -0.0126256 0.00137311 -0.01524 
v -0.00631278 0.000686556 -0.01524 
v -0.0124031 0.00273012 -0.01524 
v -0.0108821 0.00654753 -0.01524 
v -0.00544104 0.00327377 -0.01524 
v -0.0101104 0.00768571 -0.01524 
v -0.00505519 0.00384286 -0.01524 
v -0.00461007 0.00436689 -0.01524 
v 0.00205463 -0.0125327 -0.01524 
v 0.00102732 -0.00626635 -0.01524 
v 0.000687564 -0.0126814 -0.01524 
v -0.0115262 -0.00533259 -0.01524 
v -0.0057631 -0.0026663 -0.01524 
v -0.0120352 -0.00405513 -0.01524 
v -0.0060176 -0.00202756 -0.01524 
v -0.0124031 -0.00273012 -0.01524 
v -0.00620154 -0.00136506 -0.01524 
v -0.0126256 -0.00137311 -0.01524 
v -0.00631278 -0.000686556 -0.01524 
v -0.00339761 0.0122371 -0.01524 
v -0.0016988 0.00611854 -0.01524 
v -0.00205463 0.0125327 -0.01524 
v -0.00339761 -0.0122371 -0.01524 
v -0.0016988 -0.00611854 -0.01524 
v -0.00470075 -0.011798 -0.01524 
v -0.00635 7.77651e-19 -0.01524 
vn 0 0 -1 
vn 0 0 -1 
vn 0 0 -1 
vn 0 0 -1 
vn 0 0 -1 
vn 0 0 -1 
vn 0 0 -1 
vn 0 0 -1 
vn 0 0 -1 
vn 0 0 -1 
vn 0 0 -1 
vn 0 0 -1 
vn 0 0 -1 
vn 0 0 -1 
vn 0 0 -1 
vn 0 0 -1 
vn 0 0 -1 
vn 0 0 -1 
vn 0 0 -1 
vn 0 0 -1 
vn 0 0 -1 
vn 0 0 -1 
vn 0 0 -1 
vn 0 0 -1 
vn 0 0 -1 
vn 0 0 -1 
vn 0 0 -1 
vn 0 0 -1 
vn 0 0 -1 
vn 0 0 -1 
vn 0 0 -1 
vn 0 0 -1 
vn 0 0 -1 
vn 0 0 -1 
vn 0 0 -1 
vn 0 0 -1 
vn 0 0 -1 
vn 0 0 -1 
vn 0 0 -1 
vn 0 0 -1 
vn 0 0 -1 
vn 0 0 -1 
vn 0 0 -1 
vn 0 0 -1 
vn 0 0 -1 
vn 0 0 -1 
vn 0 0 -1 
vn 0 0 -1 
vn 0 0 -1 
vn 0 0 -1 
vn 0 0 -1 
vn 0 0 -1 
vn 0 0 -1 
vn 0 0 -1 
vn 0 0 -1 
vn 0 0 -1 
vn 0 0 -1 
vn 0 0 -1 
vn 0 0 -1 
vn 0 0 -1 
vn 0 0 -1 
vn 0 0 -1 
vn 0 0 -1 
vn 0 0 -1 
vn 0 0 -1 
vn 0 0 -1 
vn 0 0 -1 
vn 0 0 -1 
vn 0 0 -1 
vn 0 0 -1 
vn 0 0 -1 
vn 0 0 -1 
vn 0 0 -1 
vn 0 0 -1 
vn 0 0 -1 
vn 0 0 -1 
vn 0 0 -1 
vn 0 0 -1 
vn 0 0 -1 
vn 0 0 -1 
vn 0 0 -1 
vn 0 0 -1 
vn 0 0 -1 
vn 0 0 -1 
vn 0 0 -1 
vn 0 0 -1 
vn 0 0 -1 
vn 0 0 -1 
vn 0 0 -1 
vn 0 0 -1 
vn 0 0 -1 
vn 0 0 -1 
vn 0 0 -1 
vn 0 0 -1 
vn 0 0 -1 
vn 0 0 -1 
vn 0 0 -1 
vn 0 0 -1 
vn 0 0 -1 
vn 0 0 -1 
vn 0 0 -1 
vn 0 0 -1 
vn 0 0 -1 
vn 0 0 -1 
vn 0 0 -1 
vn 0 0 -1 
vn 0 0 -1 
vn 0 0 -1 
vn 0 0 -1 
vn 0 0 -1 
vn 0 0 -1 
vn 0 0 -1 
vn 0 0 -1 
vn 0 0 -1 
vn 0 0 -1 
vn 0 0 -1 
f 581//581 582//582 583//583 
f 581//581 584//584 585//585 
f 586//586 587//587 588//588 
f 586//586 589//589 590//590 
f 585//585 582//582 581//581 
f 591//591 588//588 585//585 
f 590//590 587//587 586//586 
f 589//589 592//592 593//593 
f 594//594 595//595 596//596 
f 594//594 597//597 598//598 
f 585//585 584//584 591//591 
f 593//593 590//590 589//589 
f 599//599 600//600 601//601 
f 599//599 602//602 603//603 
f 602//602 604//604 605//605 
f 604//604 606//606 607//607 
f 608//608 609//609 607//607 
f 610//610 611//611 609//609 
f 612//612 613//613 614//614 
f 612//612 615//615 616//616 
f 598//598 595//595 594//594 
f 597//597 617//617 618//618 
f 588//588 591//591 586//586 
f 592//592 619//619 601//601 
f 603//603 600//600 599//599 
f 607//607 605//605 604//604 
f 609//609 608//608 610//610 
f 620//620 614//614 611//611 
f 616//616 613//613 612//612 
f 615//615 621//621 622//622 
f 621//621 623//623 624//624 
f 623//623 625//625 626//626 
f 625//625 627//627 628//628 
f 627//627 629//629 630//630 
f 631//631 632//632 630//630 
f 633//633 634//634 632//632 
f 635//635 636//636 637//637 
f 638//638 639//639 636//636 
f 640//640 641//641 642//642 
f 641//641 643//643 644//644 
f 645//645 646//646 647//647 
f 645//645 648//648 649//649 
f 650//650 651//651 652//652 
f 653//653 654//654 652//652 
f 655//655 656//656 654//654 
f 655//655 657//657 658//658 
f 618//618 598//598 597//597 
f 617//617 659//659 583//583 
f 601//601 593//593 592//592 
f 605//605 603//603 602//602 
f 611//611 610//610 620//620 
f 622//622 616//616 615//615 
f 626//626 624//624 623//623 
f 630//630 628//628 627//627 
f 632//632 631//631 633//633 
f 633//633 660//660 661//661 
f 662//662 663//663 664//664 
f 662//662 665//665 666//666 
f 636//636 635//635 638//638 
f 638//638 640//640 667//667 
f 644//644 642//642 641//641 
f 643//643 668//668 669//669 
f 670//670 671//671 672//672 
f 671//671 673//673 647//647 
f 649//649 646//646 645//645 
f 648//648 674//674 675//675 
f 676//676 677//677 675//675 
f 676//676 650//650 678//678 
f 652//652 651//651 653//653 
f 658//658 656//656 655//655 
f 583//583 618//618 617//617 
f 601//601 619//619 599//599 
f 614//614 620//620 612//612 
f 628//628 626//626 625//625 
f 661//661 634//634 633//633 
f 660//660 679//679 680//680 
f 681//681 664//664 680//680 
f 666//666 663//663 662//662 
f 667//667 639//639 638//638 
f 669//669 644//644 643//643 
f 682//682 683//683 669//669 
f 682//682 684//684 685//685 
f 686//686 687//687 685//685 
f 686//686 688//688 689//689 
f 647//647 672//672 671//671 
f 675//675 649//649 648//648 
f 678//678 677//677 676//676 
f 654//654 653//653 655//655 
f 690//690 691//691 658//658 
f 690//690 692//692 596//596 
f 583//583 659//659 581//581 
f 624//624 622//622 621//621 
f 680//680 661//661 660//660 
f 664//664 681//681 662//662 
f 665//665 693//693 694//694 
f 693//693 695//695 637//637 
f 642//642 667//667 640//640 
f 685//685 683//683 682//682 
f 689//689 687//687 686//686 
f 670//670 696//696 689//689 
f 647//647 673//673 645//645 
f 652//652 678//678 650//650 
f 596//596 691//691 690//690 
f 607//607 606//606 608//608 
f 680//680 679//679 681//681 
f 637//637 694//694 693//693 
f 669//669 668//668 682//682 
f 689//689 688//688 670//670 
f 675//675 674//674 676//676 
f 596//596 692//692 594//594 
f 694//694 666//666 665//665 
f 685//685 684//684 686//686 
f 658//658 657//657 690//690 
f 637//637 695//695 635//635 
f 630//630 629//629 631//631 
f 672//672 696//696 670//670 
o mesh17456
v -0.0127 0 -0.01524 
v -0.0127 0 -0.00889 
v -0.0126256 0.00137311 -0.00889 
v -0.0126256 0.00137311 -0.01524 
v -0.0124031 0.00273012 -0.00889 
v -0.0124031 0.00273012 -0.01524 
v -0.0120352 0.00405513 -0.00889 
v -0.0120352 0.00405513 -0.01524 
v -0.0115262 0.00533259 -0.00889 
v -0.0115262 0.00533259 -0.01524 
v -0.0108821 0.00654753 -0.00889 
v -0.0108821 0.00654753 -0.01524 
v -0.0101104 0.00768571 -0.00889 
v -0.0101104 0.00768571 -0.01524 
v -0.00922014 0.00873378 -0.00889 
v -0.00922014 0.00873378 -0.01524 
v -0.00822181 0.00967946 -0.00889 
v -0.00822181 0.00967946 -0.01524 
v -0.00712708 0.0105117 -0.00889 
v -0.00712708 0.0105117 -0.01524 
v -0.00594879 0.0112206 -0.00889 
v -0.00594879 0.0112206 -0.01524 
v -0.00470075 0.011798 -0.00889 
v -0.00470075 0.011798 -0.01524 
v -0.00339761 0.0122371 -0.00889 
v -0.00339761 0.0122371 -0.01524 
v -0.00205463 0.0125327 -0.00889 
v -0.00205463 0.0125327 -0.01524 
v -0.000687564 0.0126814 -0.00889 
v -0.000687564 0.0126814 -0.01524 
v 0.000687564 0.0126814 -0.00889 
v 0.000687564 0.0126814 -0.01524 
v 0.00205463 0.0125327 -0.00889 
v 0.00205463 0.0125327 -0.01524 
v 0.00339761 0.0122371 -0.00889 
v 0.00339761 0.0122371 -0.01524 
v 0.00470075 0.011798 -0.00889 
v 0.00470075 0.011798 -0.01524 
v 0.00594879 0.0112206 -0.00889 
v 0.00594879 0.0112206 -0.01524 
v 0.00712708 0.0105117 -0.00889 
v 0.00712708 0.0105117 -0.01524 
v 0.00822181 0.00967946 -0.00889 
v 0.00822181 0.00967946 -0.01524 
v 0.00922014 0.00873378 -0.00889 
v 0.00922014 0.00873378 -0.01524 
v 0.0101104 0.00768571 -0.00889 
v 0.0101104 0.00768571 -0.01524 
v 0.0108821 0.00654753 -0.00889 
v 0.0108821 0.00654753 -0.01524 
v 0.0115262 0.00533259 -0.00889 
v 0.0115262 0.00533259 -0.01524 
v 0.0120352 0.00405513 -0.00889 
v 0.0120352 0.00405513 -0.01524 
v 0.0124031 0.00273012 -0.00889 
v 0.0124031 0.00273012 -0.01524 
v 0.0126256 0.00137311 -0.00889 
v 0.0126256 0.00137311 -0.01524 
v 0.0127 4.6659e-18 -0.00889 
v 0.0127 1.5553e-18 -0.01524 
v 0.0126256 -0.00137311 -0.00889 
v 0.0126256 -0.00137311 -0.01524 
v 0.0124031 -0.00273012 -0.00889 
v 0.0124031 -0.00273012 -0.01524 
v 0.0120352 -0.00405513 -0.00889 
v 0.0120352 -0.00405513 -0.01524 
v 0.0115262 -0.00533259 -0.00889 
v 0.0115262 -0.00533259 -0.01524 
v 0.0108821 -0.00654753 -0.00889 
v 0.0108821 -0.00654753 -0.01524 
v 0.0101104 -0.00768571 -0.00889 
v 0.0101104 -0.00768571 -0.01524 
v 0.00922014 -0.00873378 -0.00889 
v 0.00922014 -0.00873378 -0.01524 
v 0.00822181 -0.00967946 -0.00889 
v 0.00822181 -0.00967946 -0.01524 
v 0.00712708 -0.0105117 -0.00889 
v 0.00712708 -0.0105117 -0.01524 
v 0.00594879 -0.0112206 -0.00889 
v 0.00594879 -0.0112206 -0.01524 
v 0.00470075 -0.011798 -0.00889 
v 0.00470075 -0.011798 -0.01524 
v 0.00339761 -0.0122371 -0.00889 
v 0.00339761 -0.0122371 -0.01524 
v 0.00205463 -0.0125327 -0.00889 
v 0.00205463 -0.0125327 -0.01524 
v 0.000687564 -0.0126814 -0.00889 
v 0.000687564 -0.0126814 -0.01524 
v -0.000687564 -0.0126814 -0.00889 
v -0.000687564 -0.0126814 -0.01524 
v -0.00205463 -0.0125327 -0.00889 
v -0.00205463 -0.0125327 -0.01524 
v -0.00339761 -0.0122371 -0.00889 
v -0.00339761 -0.0122371 -0.01524 
v -0.00470075 -0.011798 -0.00889 
v -0.00470075 -0.011798 -0.01524 
v -0.00594879 -0.0112206 -0.00889 
v -0.00594879 -0.0112206 -0.01524 
v -0.00712708 -0.0105117 -0.00889 
v -0.00712708 -0.0105117 -0.01524 
v -0.00822181 -0.00967946 -0.00889 
v -0.00822181 -0.00967946 -0.01524 
v -0.00922014 -0.00873378 -0.00889 
v -0.00922014 -0.00873378 -0.01524 
v -0.0101104 -0.00768571 -0.00889 
v -0.0101104 -0.00768571 -0.01524 
v -0.0108821 -0.00654753 -0.00889 
v -0.0108821 -0.00654753 -0.01524 
v -0.0115262 -0.00533259 -0.00889 
v -0.0115262 -0.00533259 -0.01524 
v -0.0120352 -0.00405513 -0.00889 
v -0.0120352 -0.00405513 -0.01524 
v -0.0124031 -0.00273012 -0.00889 
v -0.0124031 -0.00273012 -0.01524 
v -0.0126256 -0.00137311 -0.00889 
v -0.0126256 -0.00137311 -0.01524 
vn -1 0 0 
vn -1 0 0 
vn -0.994138 0.108119 0 
vn -0.994138 0.108119 0 
vn -0.976621 0.21497 0 
vn -0.976621 0.21497 0 
vn -0.947653 0.319302 0 
vn -0.947653 0.319302 0 
vn -0.907575 0.419889 0 
vn -0.907575 0.419889 0 
vn -0.856857 0.515554 0 
vn -0.856857 0.515554 0 
vn -0.796093 0.605174 0 
vn -0.796093 0.605174 0 
vn -0.725995 0.687699 0 
vn -0.725995 0.687699 0 
vn -0.647386 0.762162 0 
vn -0.647386 0.762162 0 
vn -0.561187 0.827689 0 
vn -0.561187 0.827689 0 
vn -0.468408 0.883512 0 
vn -0.468408 0.883512 0 
vn -0.370138 0.928977 0 
vn -0.370138 0.928977 0 
vn -0.267528 0.96355 0 
vn -0.267528 0.96355 0 
vn -0.161782 0.986827 0 
vn -0.161782 0.986827 0 
vn -0.0541389 0.998533 0 
vn -0.0541389 0.998533 0 
vn 0.0541389 0.998533 0 
vn 0.0541389 0.998533 0 
vn 0.161782 0.986827 0 
vn 0.161782 0.986827 0 
vn 0.267528 0.96355 0 
vn 0.267528 0.96355 0 
vn 0.370138 0.928977 0 
vn 0.370138 0.928977 0 
vn 0.468408 0.883512 0 
vn 0.468408 0.883512 0 
vn 0.561187 0.827689 0 
vn 0.561187 0.827689 0 
vn 0.647386 0.762162 0 
vn 0.647386 0.762162 0 
vn 0.725995 0.687699 0 
vn 0.725995 0.687699 0 
vn 0.796093 0.605174 0 
vn 0.796093 0.605174 0 
vn 0.856857 0.515554 0 
vn 0.856857 0.515554 0 
vn 0.907575 0.419889 0 
vn 0.907575 0.419889 0 
vn 0.947653 0.319302 0 
vn 0.947653 0.319302 0 
vn 0.976621 0.21497 0 
vn 0.976621 0.21497 0 
vn 0.994138 0.108119 0 
vn 0.994138 0.108119 0 
vn 1 1.22465e-16 0 
vn 1 1.22465e-16 0 
vn 0.994138 -0.108119 0 
vn 0.994138 -0.108119 0 
vn 0.976621 -0.21497 0 
vn 0.976621 -0.21497 0 
vn 0.947653 -0.319302 0 
vn 0.947653 -0.319302 0 
vn 0.907575 -0.419889 0 
vn 0.907575 -0.419889 0 
vn 0.856857 -0.515554 0 
vn 0.856857 -0.515554 0 
vn 0.796093 -0.605174 0 
vn 0.796093 -0.605174 0 
vn 0.725995 -0.687699 0 
vn 0.725995 -0.687699 0 
vn 0.647386 -0.762162 0 
vn 0.647386 -0.762162 0 
vn 0.561187 -0.827689 0 
vn 0.561187 -0.827689 0 
vn 0.468408 -0.883512 0 
vn 0.468408 -0.883512 0 
vn 0.370138 -0.928977 0 
vn 0.370138 -0.928977 0 
vn 0.267528 -0.96355 0 
vn 0.267528 -0.96355 0 
vn 0.161782 -0.986827 0 
vn 0.161782 -0.986827 0 
vn 0.0541389 -0.998533 0 
vn 0.0541389 -0.998533 0 
vn -0.0541389 -0.998533 0 
vn -0.0541389 -0.998533 0 
vn -0.161782 -0.986827 0 
vn -0.161782 -0.986827 0 
vn -0.267528 -0.96355 0 
vn -0.267528 -0.96355 0 
vn -0.370138 -0.928977 0 
vn -0.370138 -0.928977 0 
vn -0.468408 -0.883512 0 
vn -0.468408 -0.883512 0 
vn -0.561187 -0.827689 0 
vn -0.561187 -0.827689 0 
vn -0.647386 -0.762162 0 
vn -0.647386 -0.762162 0 
vn -0.725995 -0.687699 0 
vn -0.725995 -0.687699 0 
vn -0.796093 -0.605174 0 
vn -0.796093 -0.605174 0 
vn -0.856857 -0.515554 0 
vn -0.856857 -0.515554 0 
vn -0.907575 -0.419889 0 
vn -0.907575 -0.419889 0 
vn -0.947653 -0.319302 0 
vn -0.947653 -0.319302 0 
vn -0.976621 -0.21497 0 
vn -0.976621 -0.21497 0 
vn -0.994138 -0.108119 0 
vn -0.994138 -0.108119 0 
f 697//697 698//698 699//699 
f 700//700 699//699 701//701 
f 702//702 701//701 703//703 
f 704//704 703//703 705//705 
f 706//706 705//705 707//707 
f 708//708 707//707 709//709 
f 710//710 709//709 711//711 
f 712//712 711//711 713//713 
f 714//714 713//713 715//715 
f 716//716 715//715 717//717 
f 718//718 717//717 719//719 
f 720//720 719//719 721//721 
f 722//722 721//721 723//723 
f 724//724 723//723 725//725 
f 726//726 725//725 727//727 
f 728//728 727//727 729//729 
f 730//730 729//729 731//731 
f 732//732 731//731 733//733 
f 734//734 733//733 735//735 
f 736//736 735//735 737//737 
f 738//738 737//737 739//739 
f 740//740 739//739 741//741 
f 742//742 741//741 743//743 
f 744//744 743//743 745//745 
f 746//746 745//745 747//747 
f 748//748 747//747 749//749 
f 750//750 749//749 751//751 
f 752//752 751//751 753//753 
f 754//754 753//753 755//755 
f 756//756 755//755 757//757 
f 758//758 757//757 759//759 
f 760//760 759//759 761//761 
f 762//762 761//761 763//763 
f 764//764 763//763 765//765 
f 766//766 765//765 767//767 
f 768//768 767//767 769//769 
f 770//770 769//769 771//771 
f 772//772 771//771 773//773 
f 774//774 773//773 775//775 
f 776//776 775//775 777//777 
f 778//778 777//777 779//779 
f 780//780 779//779 781//781 
f 782//782 781//781 783//783 
f 784//784 783//783 785//785 
f 786//786 785//785 787//787 
f 788//788 787//787 789//789 
f 790//790 789//789 791//791 
f 792//792 791//791 793//793 
f 794//794 793//793 795//795 
f 796//796 795//795 797//797 
f 798//798 797//797 799//799 
f 800//800 799//799 801//801 
f 802//802 801//801 803//803 
f 804//804 803//803 805//805 
f 806//806 805//805 807//807 
f 808//808 807//807 809//809 
f 810//810 809//809 811//811 
f 812//812 811//811 698//698 
f 698//698 697//697 812//812 
f 811//811 812//812 810//810 
f 809//809 810//810 808//808 
f 807//807 808//808 806//806 
f 805//805 806//806 804//804 
f 803//803 804//804 802//802 
f 801//801 802//802 800//800 
f 799//799 800//800 798//798 
f 797//797 798//798 796//796 
f 795//795 796//796 794//794 
f 793//793 794//794 792//792 
f 791//791 792//792 790//790 
f 789//789 790//790 788//788 
f 787//787 788//788 786//786 
f 785//785 786//786 784//784 
f 783//783 784//784 782//782 
f 781//781 782//782 780//780 
f 779//779 780//780 778//778 
f 777//777 778//778 776//776 
f 775//775 776//776 774//774 
f 773//773 774//774 772//772 
f 771//771 772//772 770//770 
f 769//769 770//770 768//768 
f 767//767 768//768 766//766 
f 765//765 766//766 764//764 
f 763//763 764//764 762//762 
f 761//761 762//762 760//760 
f 759//759 760//760 758//758 
f 757//757 758//758 756//756 
f 755//755 756//756 754//754 
f 753//753 754//754 752//752 
f 751//751 752//752 750//750 
f 749//749 750//750 748//748 
f 747//747 748//748 746//746 
f 745//745 746//746 744//744 
f 743//743 744//744 742//742 
f 741//741 742//742 740//740 
f 739//739 740//740 738//738 
f 737//737 738//738 736//736 
f 735//735 736//736 734//734 
f 733//733 734//734 732//732 
f 731//731 732//732 730//730 
f 729//729 730//730 728//728 
f 727//727 728//728 726//726 
f 725//725 726//726 724//724 
f 723//723 724//724 722//722 
f 721//721 722//722 720//720 
f 719//719 720//720 718//718 
f 717//717 718//718 716//716 
f 715//715 716//716 714//714 
f 713//713 714//714 712//712 
f 711//711 712//712 710//710 
f 709//709 710//710 708//708 
f 707//707 708//708 706//706 
f 705//705 706//706 704//704 
f 703//703 704//704 702//702 
f 701//701 702//702 700//700 
f 699//699 700//700 697//697 
o mesh17457
v -0.0207453 0.019651 -0.00889 
v -0.00922014 0.00873378 -0.00889 
v -0.0101104 0.00768571 -0.00889 
v -0.0184991 0.0217788 -0.00889 
v -0.00822181 0.00967946 -0.00889 
v 0.0133848 0.0252464 -0.00889 
v 0.00594879 0.0112206 -0.00889 
v 0.00470075 0.011798 -0.00889 
v 0.0160359 0.0236512 -0.00889 
v 0.00712708 0.0105117 -0.00889 
v -0.0279069 0.00614278 -0.00889 
v -0.0124031 0.00273012 -0.00889 
v -0.0126256 0.00137311 -0.00889 
v -0.0270792 0.00912404 -0.00889 
v -0.0120352 0.00405513 -0.00889 
v -0.025934 0.0119983 -0.00889 
v -0.0115262 0.00533259 -0.00889 
v -0.0244847 0.014732 -0.00889 
v -0.0108821 0.00654753 -0.00889 
v -0.0160359 0.0236512 -0.00889 
v -0.00712708 0.0105117 -0.00889 
v -0.0133848 0.0252464 -0.00889 
v -0.00594879 0.0112206 -0.00889 
v -0.0105767 0.0265455 -0.00889 
v -0.00470075 0.011798 -0.00889 
v 0.0184991 0.0217788 -0.00889 
v 0.00822181 0.00967946 -0.00889 
v -0.0227484 0.0172929 -0.00889 
v -0.00764462 0.0275334 -0.00889 
v -0.00339761 0.0122371 -0.00889 
v -0.00154702 0.0285331 -0.00889 
v -0.000687564 0.0126814 -0.00889 
v -0.00205463 0.0125327 -0.00889 
v 0.00154702 0.0285331 -0.00889 
v 0.000687564 0.0126814 -0.00889 
v 0.0207453 0.019651 -0.00889 
v 0.00922014 0.00873378 -0.00889 
v 0.0227484 0.0172929 -0.00889 
v 0.0101104 0.00768571 -0.00889 
v 0.0244847 0.014732 -0.00889 
v 0.0108821 0.00654753 -0.00889 
v 0.0270792 0.00912404 -0.00889 
v 0.0120352 0.00405513 -0.00889 
v 0.0115262 0.00533259 -0.00889 
v 0.0279069 0.00614278 -0.00889 
v 0.0124031 0.00273012 -0.00889 
v 0.0284075 0.0030895 -0.00889 
v 0.0126256 0.00137311 -0.00889 
v 0.028575 -6.99886e-18 -0.00889 
v 0.0127 4.6659e-18 -0.00889 
v 0.0207453 -0.019651 -0.00889 
v 0.00922014 -0.00873378 -0.00889 
v 0.0101104 -0.00768571 -0.00889 
v 0.0184991 -0.0217788 -0.00889 
v 0.00822181 -0.00967946 -0.00889 
v -0.0284075 0.0030895 -0.00889 
v -0.0127 0 -0.00889 
v 0.00462292 0.0281986 -0.00889 
v 0.00205463 0.0125327 -0.00889 
v 0.025934 0.0119983 -0.00889 
v 0.0284075 -0.0030895 -0.00889 
v 0.0126256 -0.00137311 -0.00889 
v 0.0279069 -0.00614278 -0.00889 
v 0.0124031 -0.00273012 -0.00889 
v 0.0270792 -0.00912404 -0.00889 
v 0.0120352 -0.00405513 -0.00889 
v 0.025934 -0.0119983 -0.00889 
v 0.0115262 -0.00533259 -0.00889 
v 0.0244847 -0.014732 -0.00889 
v 0.0108821 -0.00654753 -0.00889 
v 0.0227484 -0.0172929 -0.00889 
v 0.0160359 -0.0236512 -0.00889 
v 0.00712708 -0.0105117 -0.00889 
v 0.0133848 -0.0252464 -0.00889 
v 0.00594879 -0.0112206 -0.00889 
v -0.00462292 0.0281986 -0.00889 
v 0.0105767 -0.0265455 -0.00889 
v 0.00470075 -0.011798 -0.00889 
v 0.00154702 -0.0285331 -0.00889 
v 0.000687564 -0.0126814 -0.00889 
v 0.00205463 -0.0125327 -0.00889 
v -0.00154702 -0.0285331 -0.00889 
v -0.000687564 -0.0126814 -0.00889 
v -0.0105767 -0.0265455 -0.00889 
v -0.0133848 -0.0252464 -0.00889 
v -0.00594879 -0.0112206 -0.00889 
v -0.0160359 -0.0236512 -0.00889 
v -0.00712708 -0.0105117 -0.00889 
v -0.0184991 -0.0217788 -0.00889 
v -0.00822181 -0.00967946 -0.00889 
v -0.0207453 -0.019651 -0.00889 
v -0.00922014 -0.00873378 -0.00889 
v 0.00764462 0.0275334 -0.00889 
v 0.00339761 0.0122371 -0.00889 
v 0.0105767 0.0265455 -0.00889 
v 0.00764462 -0.0275334 -0.00889 
v 0.00339761 -0.0122371 -0.00889 
v 0.00462292 -0.0281986 -0.00889 
v -0.00462292 -0.0281986 -0.00889 
v -0.00205463 -0.0125327 -0.00889 
v -0.00470075 -0.011798 -0.00889 
v -0.00339761 -0.0122371 -0.00889 
v -0.0227484 -0.0172929 -0.00889 
v -0.0101104 -0.00768571 -0.00889 
v -0.0270792 -0.00912404 -0.00889 
v -0.0120352 -0.00405513 -0.00889 
v -0.0115262 -0.00533259 -0.00889 
v -0.0279069 -0.00614278 -0.00889 
v -0.0124031 -0.00273012 -0.00889 
v -0.00764462 -0.0275334 -0.00889 
v -0.0244847 -0.014732 -0.00889 
v -0.0108821 -0.00654753 -0.00889 
v -0.025934 -0.0119983 -0.00889 
v -0.0284075 -0.0030895 -0.00889 
v -0.0126256 -0.00137311 -0.00889 
v -0.028575 3.49943e-18 -0.00889 
vn 0 0 -1 
vn 0 0 -1 
vn 0 0 -1 
vn 0 0 -1 
vn 0 0 -1 
vn 0 0 -1 
vn 0 0 -1 
vn 0 0 -1 
vn 0 0 -1 
vn 0 0 -1 
vn 0 0 -1 
vn 0 0 -1 
vn 0 0 -1 
vn 0 0 -1 
vn 0 0 -1 
vn 0 0 -1 
vn 0 0 -1 
vn 0 0 -1 
vn 0 0 -1 
vn 0 0 -1 
vn 0 0 -1 
vn 0 0 -1 
vn 0 0 -1 
vn 0 0 -1 
vn 0 0 -1 
vn 0 0 -1 
vn 0 0 -1 
vn 0 0 -1 
vn 0 0 -1 
vn 0 0 -1 
vn 0 0 -1 
vn 0 0 -1 
vn 0 0 -1 
vn 0 0 -1 
vn 0 0 -1 
vn 0 0 -1 
vn 0 0 -1 
vn 0 0 -1 
vn 0 0 -1 
vn 0 0 -1 
vn 0 0 -1 
vn 0 0 -1 
vn 0 0 -1 
vn 0 0 -1 
vn 0 0 -1 
vn 0 0 -1 
vn 0 0 -1 
vn 0 0 -1 
vn 0 0 -1 
vn 0 0 -1 
vn 0 0 -1 
vn 0 0 -1 
vn 0 0 -1 
vn 0 0 -1 
vn 0 0 -1 
vn 0 0 -1 
vn 0 0 -1 
vn 0 0 -1 
vn 0 0 -1 
vn 0 0 -1 
vn 0 0 -1 
vn 0 0 -1 
vn 0 0 -1 
vn 0 0 -1 
vn 0 0 -1 
vn 0 0 -1 
vn 0 0 -1 
vn 0 0 -1 
vn 0 0 -1 
vn 0 0 -1 
vn 0 0 -1 
vn 0 0 -1 
vn 0 0 -1 
vn 0 0 -1 
vn 0 0 -1 
vn 0 0 -1 
vn 0 0 -1 
vn 0 0 -1 
vn 0 0 -1 
vn 0 0 -1 
vn 0 0 -1 
vn 0 0 -1 
vn 0 0 -1 
vn 0 0 -1 
vn 0 0 -1 
vn 0 0 -1 
vn 0 0 -1 
vn 0 0 -1 
vn 0 0 -1 
vn 0 0 -1 
vn 0 0 -1 
vn 0 0 -1 
vn 0 0 -1 
vn 0 0 -1 
vn 0 0 -1 
vn 0 0 -1 
vn 0 0 -1 
vn 0 0 -1 
vn 0 0 -1 
vn 0 0 -1 
vn 0 0 -1 
vn 0 0 -1 
vn 0 0 -1 
vn 0 0 -1 
vn 0 0 -1 
vn 0 0 -1 
vn 0 0 -1 
vn 0 0 -1 
vn 0 0 -1 
vn 0 0 -1 
vn 0 0 -1 
vn 0 0 -1 
vn 0 0 -1 
vn 0 0 -1 
vn 0 0 -1 
vn 0 0 -1 
f 813//813 814//814 815//815 
f 813//813 816//816 817//817 
f 818//818 819//819 820//820 
f 818//818 821//821 822//822 
f 823//823 824//824 825//825 
f 823//823 826//826 827//827 
f 828//828 829//829 827//827 
f 828//828 830//830 831//831 
f 817//817 814//814 813//813 
f 816//816 832//832 833//833 
f 832//832 834//834 835//835 
f 834//834 836//836 837//837 
f 822//822 819//819 818//818 
f 821//821 838//838 839//839 
f 827//827 824//824 823//823 
f 831//831 829//829 828//828 
f 840//840 815//815 831//831 
f 833//833 817//817 816//816 
f 837//837 835//835 834//834 
f 836//836 841//841 842//842 
f 843//843 844//844 845//845 
f 846//846 847//847 844//844 
f 839//839 822//822 821//821 
f 838//838 848//848 849//849 
f 850//850 851//851 849//849 
f 850//850 852//852 853//853 
f 854//854 855//855 856//856 
f 854//854 857//857 858//858 
f 859//859 860//860 858//858 
f 859//859 861//861 862//862 
f 863//863 864//864 865//865 
f 866//866 867//867 864//864 
f 868//868 825//825 869//869 
f 827//827 826//826 828//828 
f 815//815 840//840 813//813 
f 842//842 837//837 836//836 
f 844//844 843//843 846//846 
f 846//846 870//870 871//871 
f 849//849 839//839 838//838 
f 853//853 851//851 850//850 
f 872//872 856//856 853//853 
f 858//858 855//855 854//854 
f 862//862 860//860 859//859 
f 861//861 873//873 874//874 
f 875//875 876//876 874//874 
f 875//875 877//877 878//878 
f 879//879 880//880 878//878 
f 879//879 881//881 882//882 
f 883//883 865//865 882//882 
f 864//864 863//863 866//866 
f 884//884 885//885 867//867 
f 884//884 886//886 887//887 
f 825//825 868//868 823//823 
f 835//835 833//833 832//832 
f 888//888 845//845 842//842 
f 871//871 847//847 846//846 
f 849//849 848//848 850//850 
f 856//856 872//872 854//854 
f 874//874 862//862 861//861 
f 878//878 876//876 875//875 
f 882//882 880//880 879//879 
f 865//865 883//883 863//863 
f 887//887 885//885 884//884 
f 886//886 889//889 890//890 
f 891//891 892//892 893//893 
f 891//891 894//894 895//895 
f 896//896 897//897 898//898 
f 897//897 899//899 900//900 
f 901//901 902//902 900//900 
f 903//903 904//904 902//902 
f 831//831 830//830 840//840 
f 845//845 888//888 843//843 
f 905//905 906//906 871//871 
f 905//905 907//907 820//820 
f 853//853 852//852 872//872 
f 874//874 873//873 875//875 
f 882//882 881//881 883//883 
f 890//890 887//887 886//886 
f 908//908 909//909 890//890 
f 910//910 893//893 909//909 
f 895//895 892//892 891//891 
f 894//894 911//911 912//912 
f 896//896 913//913 914//914 
f 900//900 898//898 897//897 
f 902//902 901//901 903//903 
f 903//903 915//915 916//916 
f 917//917 918//918 919//919 
f 917//917 920//920 921//921 
f 842//842 841//841 888//888 
f 820//820 906//906 905//905 
f 858//858 857//857 859//859 
f 867//867 866//866 884//884 
f 909//909 908//908 910//910 
f 912//912 895//895 894//894 
f 922//922 914//914 912//912 
f 898//898 913//913 896//896 
f 916//916 904//904 903//903 
f 923//923 924//924 916//916 
f 925//925 919//919 924//924 
f 921//921 918//918 917//917 
f 871//871 870//870 905//905 
f 878//878 877//877 879//879 
f 893//893 910//910 891//891 
f 914//914 922//922 896//896 
f 916//916 915//915 923//923 
f 919//919 925//925 917//917 
f 920//920 926//926 927//927 
f 926//926 928//928 869//869 
f 820//820 907//907 818//818 
f 912//912 911//911 922//922 
f 924//924 923//923 925//925 
f 869//869 927//927 926//926 
f 890//890 889//889 908//908 
f 927//927 921//921 920//920 
f 900//900 899//899 901//901 
f 869//869 928//928 868//868 
