# OBJ generated by ONSHAPE BY PTC INC, 1.215 Units = meters
mtllib Rear_Camera_Mount_Cap_1in.mtl
g Rear_Camera_Mount_Cap_1in
usemtl 0.796078_0.823529_0.937255_0.000000_0.000000
o mesh4217
v 0.0108391 0.003175 -0.00802596 
v 0.0111824 0.003175 -0.00800735 
v 0.0111824 4.16334e-17 -0.00800735 
v 0.0104998 0.003175 -0.00808158 
v 0.0108391 4.16334e-17 -0.00802596 
v 0.0101686 0.003175 -0.00817355 
v 0.0104998 4.16334e-17 -0.00808158 
v 0.0098492 0.003175 -0.0083008 
v 0.0101686 4.16334e-17 -0.00817355 
v 0.00954547 0.003175 -0.00846183 
v 0.0098492 4.16334e-17 -0.0083008 
v 0.00926092 0.003175 -0.00865475 
v 0.00954547 4.16334e-17 -0.00846183 
v 0.0089989 0.003175 -0.00887731 
v 0.00926092 4.16334e-17 -0.00865475 
v 0.00876249 0.003175 -0.0091269 
v 0.0089989 4.16334e-17 -0.00887731 
v 0.00855444 0.003175 -0.00940058 
v 0.00876249 4.16334e-17 -0.0091269 
v 0.0083772 0.003175 -0.00969515 
v 0.00855444 4.16334e-17 -0.00940058 
v 0.00823285 0.003175 -0.0100072 
v 0.0083772 4.16334e-17 -0.00969515 
v 0.00812308 0.003175 -0.0103329 
v 0.00823285 4.16334e-17 -0.0100072 
v 0.00804918 0.003175 -0.0106687 
v 0.00812308 4.16334e-17 -0.0103329 
v 0.00801201 0.003175 -0.0110105 
v 0.00804918 4.16334e-17 -0.0106687 
v 0.00801201 0.003175 -0.0113542 
v 0.00801201 4.16334e-17 -0.0110105 
v 0.00804918 0.003175 -0.011696 
v 0.00801201 4.16334e-17 -0.0113542 
v 0.00812308 0.003175 -0.0120318 
v 0.00804918 4.16334e-17 -0.011696 
v 0.00823285 0.003175 -0.0123575 
v 0.00812308 4.16334e-17 -0.0120318 
v 0.0083772 0.003175 -0.0126695 
v 0.00823285 4.16334e-17 -0.0123575 
v 0.00855444 0.003175 -0.0129641 
v 0.0083772 4.16334e-17 -0.0126695 
v 0.00876249 0.003175 -0.0132378 
v 0.00855444 4.16334e-17 -0.0129641 
v 0.0089989 0.003175 -0.0134874 
v 0.00876249 4.16334e-17 -0.0132378 
v 0.00926092 0.003175 -0.0137099 
v 0.0089989 4.16334e-17 -0.0134874 
v 0.00954547 0.003175 -0.0139029 
v 0.00926092 4.16334e-17 -0.0137099 
v 0.0098492 0.003175 -0.0140639 
v 0.00954547 4.16334e-17 -0.0139029 
v 0.0101686 0.003175 -0.0141911 
v 0.0098492 4.16334e-17 -0.0140639 
v 0.0104998 0.003175 -0.0142831 
v 0.0101686 4.16334e-17 -0.0141911 
v 0.0108391 0.003175 -0.0143387 
v 0.0104998 4.16334e-17 -0.0142831 
v 0.0111824 0.003175 -0.0143574 
v 0.0108391 4.16334e-17 -0.0143387 
v 0.0115256 0.003175 -0.0143387 
v 0.0111824 4.16334e-17 -0.0143574 
v 0.0118649 0.003175 -0.0142831 
v 0.0115256 4.16334e-17 -0.0143387 
v 0.0121961 0.003175 -0.0141911 
v 0.0118649 4.16334e-17 -0.0142831 
v 0.0125155 0.003175 -0.0140639 
v 0.0121961 4.16334e-17 -0.0141911 
v 0.0128192 0.003175 -0.0139029 
v 0.0125155 4.16334e-17 -0.0140639 
v 0.0131038 0.003175 -0.0137099 
v 0.0128192 4.16334e-17 -0.0139029 
v 0.0133658 0.003175 -0.0134874 
v 0.0131038 4.16334e-17 -0.0137099 
v 0.0136022 0.003175 -0.0132378 
v 0.0133658 4.16334e-17 -0.0134874 
v 0.0138103 0.003175 -0.0129641 
v 0.0136022 4.16334e-17 -0.0132378 
v 0.0139875 0.003175 -0.0126695 
v 0.0138103 4.16334e-17 -0.0129641 
v 0.0141319 0.003175 -0.0123575 
v 0.0139875 4.16334e-17 -0.0126695 
v 0.0142416 0.003175 -0.0120318 
v 0.0141319 4.16334e-17 -0.0123575 
v 0.0143155 0.003175 -0.011696 
v 0.0142416 4.16334e-17 -0.0120318 
v 0.0143527 0.003175 -0.0113542 
v 0.0143155 4.16334e-17 -0.011696 
v 0.0143527 0.003175 -0.0110105 
v 0.0143527 4.16334e-17 -0.0113542 
v 0.0143155 0.003175 -0.0106687 
v 0.0143527 4.16334e-17 -0.0110105 
v 0.0142416 0.003175 -0.0103329 
v 0.0143155 4.16334e-17 -0.0106687 
v 0.0141319 0.003175 -0.0100072 
v 0.0142416 4.16334e-17 -0.0103329 
v 0.0139875 0.003175 -0.00969515 
v 0.0141319 4.16334e-17 -0.0100072 
v 0.0138103 0.003175 -0.00940058 
v 0.0139875 4.16334e-17 -0.00969515 
v 0.0136022 0.003175 -0.0091269 
v 0.0138103 4.16334e-17 -0.00940058 
v 0.0133658 0.003175 -0.00887731 
v 0.0136022 4.16334e-17 -0.0091269 
v 0.0131038 0.003175 -0.00865475 
v 0.0133658 4.16334e-17 -0.00887731 
v 0.0128192 0.003175 -0.00846183 
v 0.0131038 4.16334e-17 -0.00865475 
v 0.0125155 0.003175 -0.0083008 
v 0.0128192 4.16334e-17 -0.00846183 
v 0.0121961 0.003175 -0.00817355 
v 0.0125155 4.16334e-17 -0.0083008 
v 0.0118649 0.003175 -0.00808158 
v 0.0121961 4.16334e-17 -0.00817355 
v 0.0115256 0.003175 -0.00802596 
v 0.0118649 4.16334e-17 -0.00808158 
v 0.0115256 4.16334e-17 -0.00802596 
vn 0.108119 0 -0.994138 
vn 2.44929e-16 0 -1 
vn 2.44929e-16 0 -1 
vn 0.21497 0 -0.976621 
vn 0.108119 0 -0.994138 
vn 0.319302 0 -0.947653 
vn 0.21497 0 -0.976621 
vn 0.419889 0 -0.907575 
vn 0.319302 0 -0.947653 
vn 0.515554 0 -0.856857 
vn 0.419889 0 -0.907575 
vn 0.605174 0 -0.796093 
vn 0.515554 0 -0.856857 
vn 0.687699 0 -0.725995 
vn 0.605174 0 -0.796093 
vn 0.762162 0 -0.647386 
vn 0.687699 0 -0.725995 
vn 0.827689 0 -0.561187 
vn 0.762162 0 -0.647386 
vn 0.883512 0 -0.468408 
vn 0.827689 0 -0.561187 
vn 0.928977 0 -0.370138 
vn 0.883512 0 -0.468408 
vn 0.96355 0 -0.267528 
vn 0.928977 0 -0.370138 
vn 0.986827 0 -0.161782 
vn 0.96355 0 -0.267528 
vn 0.998533 0 -0.0541389 
vn 0.986827 0 -0.161782 
vn 0.998533 0 0.0541389 
vn 0.998533 0 -0.0541389 
vn 0.986827 0 0.161782 
vn 0.998533 0 0.0541389 
vn 0.96355 0 0.267528 
vn 0.986827 0 0.161782 
vn 0.928977 0 0.370138 
vn 0.96355 0 0.267528 
vn 0.883512 0 0.468408 
vn 0.928977 0 0.370138 
vn 0.827689 0 0.561187 
vn 0.883512 0 0.468408 
vn 0.762162 0 0.647386 
vn 0.827689 0 0.561187 
vn 0.687699 0 0.725995 
vn 0.762162 0 0.647386 
vn 0.605174 0 0.796093 
vn 0.687699 0 0.725995 
vn 0.515554 0 0.856857 
vn 0.605174 0 0.796093 
vn 0.419889 0 0.907575 
vn 0.515554 0 0.856857 
vn 0.319302 0 0.947653 
vn 0.419889 0 0.907575 
vn 0.21497 0 0.976621 
vn 0.319302 0 0.947653 
vn 0.108119 0 0.994138 
vn 0.21497 0 0.976621 
vn -1.22465e-16 0 1 
vn 0.108119 0 0.994138 
vn -0.108119 0 0.994138 
vn -1.22465e-16 0 1 
vn -0.21497 0 0.976621 
vn -0.108119 0 0.994138 
vn -0.319302 0 0.947653 
vn -0.21497 0 0.976621 
vn -0.419889 0 0.907575 
vn -0.319302 0 0.947653 
vn -0.515554 0 0.856857 
vn -0.419889 0 0.907575 
vn -0.605174 0 0.796093 
vn -0.515554 0 0.856857 
vn -0.687699 0 0.725995 
vn -0.605174 0 0.796093 
vn -0.762162 0 0.647386 
vn -0.687699 0 0.725995 
vn -0.827689 0 0.561187 
vn -0.762162 0 0.647386 
vn -0.883512 0 0.468408 
vn -0.827689 0 0.561187 
vn -0.928977 0 0.370138 
vn -0.883512 0 0.468408 
vn -0.96355 0 0.267528 
vn -0.928977 0 0.370138 
vn -0.986827 0 0.161782 
vn -0.96355 0 0.267528 
vn -0.998533 0 0.0541389 
vn -0.986827 0 0.161782 
vn -0.998533 0 -0.0541389 
vn -0.998533 0 0.0541389 
vn -0.986827 0 -0.161782 
vn -0.998533 0 -0.0541389 
vn -0.96355 0 -0.267528 
vn -0.986827 0 -0.161782 
vn -0.928977 0 -0.370138 
vn -0.96355 0 -0.267528 
vn -0.883512 0 -0.468408 
vn -0.928977 0 -0.370138 
vn -0.827689 0 -0.561187 
vn -0.883512 0 -0.468408 
vn -0.762162 0 -0.647386 
vn -0.827689 0 -0.561187 
vn -0.687699 0 -0.725995 
vn -0.762162 0 -0.647386 
vn -0.605174 0 -0.796093 
vn -0.687699 0 -0.725995 
vn -0.515554 0 -0.856857 
vn -0.605174 0 -0.796093 
vn -0.419889 0 -0.907575 
vn -0.515554 0 -0.856857 
vn -0.319302 0 -0.947653 
vn -0.419889 0 -0.907575 
vn -0.21497 0 -0.976621 
vn -0.319302 0 -0.947653 
vn -0.108119 0 -0.994138 
vn -0.21497 0 -0.976621 
vn -0.108119 0 -0.994138 
f 1//1 2//2 3//3 
f 4//4 1//1 5//5 
f 6//6 4//4 7//7 
f 8//8 6//6 9//9 
f 10//10 8//8 11//11 
f 12//12 10//10 13//13 
f 14//14 12//12 15//15 
f 16//16 14//14 17//17 
f 18//18 16//16 19//19 
f 20//20 18//18 21//21 
f 22//22 20//20 23//23 
f 24//24 22//22 25//25 
f 26//26 24//24 27//27 
f 28//28 26//26 29//29 
f 30//30 28//28 31//31 
f 32//32 30//30 33//33 
f 34//34 32//32 35//35 
f 36//36 34//34 37//37 
f 38//38 36//36 39//39 
f 40//40 38//38 41//41 
f 42//42 40//40 43//43 
f 44//44 42//42 45//45 
f 46//46 44//44 47//47 
f 48//48 46//46 49//49 
f 50//50 48//48 51//51 
f 52//52 50//50 53//53 
f 54//54 52//52 55//55 
f 56//56 54//54 57//57 
f 58//58 56//56 59//59 
f 60//60 58//58 61//61 
f 62//62 60//60 63//63 
f 64//64 62//62 65//65 
f 66//66 64//64 67//67 
f 68//68 66//66 69//69 
f 70//70 68//68 71//71 
f 72//72 70//70 73//73 
f 74//74 72//72 75//75 
f 76//76 74//74 77//77 
f 78//78 76//76 79//79 
f 80//80 78//78 81//81 
f 82//82 80//80 83//83 
f 84//84 82//82 85//85 
f 86//86 84//84 87//87 
f 88//88 86//86 89//89 
f 90//90 88//88 91//91 
f 92//92 90//90 93//93 
f 94//94 92//92 95//95 
f 96//96 94//94 97//97 
f 98//98 96//96 99//99 
f 100//100 98//98 101//101 
f 102//102 100//100 103//103 
f 104//104 102//102 105//105 
f 106//106 104//104 107//107 
f 108//108 106//106 109//109 
f 110//110 108//108 111//111 
f 112//112 110//110 113//113 
f 114//114 112//112 115//115 
f 2//2 114//114 116//116 
f 116//116 3//3 2//2 
f 115//115 116//116 114//114 
f 113//113 115//115 112//112 
f 111//111 113//113 110//110 
f 109//109 111//111 108//108 
f 107//107 109//109 106//106 
f 105//105 107//107 104//104 
f 103//103 105//105 102//102 
f 101//101 103//103 100//100 
f 99//99 101//101 98//98 
f 97//97 99//99 96//96 
f 95//95 97//97 94//94 
f 93//93 95//95 92//92 
f 91//91 93//93 90//90 
f 89//89 91//91 88//88 
f 87//87 89//89 86//86 
f 85//85 87//87 84//84 
f 83//83 85//85 82//82 
f 81//81 83//83 80//80 
f 79//79 81//81 78//78 
f 77//77 79//79 76//76 
f 75//75 77//77 74//74 
f 73//73 75//75 72//72 
f 71//71 73//73 70//70 
f 69//69 71//71 68//68 
f 67//67 69//69 66//66 
f 65//65 67//67 64//64 
f 63//63 65//65 62//62 
f 61//61 63//63 60//60 
f 59//59 61//61 58//58 
f 57//57 59//59 56//56 
f 55//55 57//57 54//54 
f 53//53 55//55 52//52 
f 51//51 53//53 50//50 
f 49//49 51//51 48//48 
f 47//47 49//49 46//46 
f 45//45 47//47 44//44 
f 43//43 45//45 42//42 
f 41//41 43//43 40//40 
f 39//39 41//41 38//38 
f 37//37 39//39 36//36 
f 35//35 37//37 34//34 
f 33//33 35//35 32//32 
f 31//31 33//33 30//30 
f 29//29 31//31 28//28 
f 27//27 29//29 26//26 
f 25//25 27//27 24//24 
f 23//23 25//25 22//22 
f 21//21 23//23 20//20 
f 19//19 21//21 18//18 
f 17//17 19//19 16//16 
f 15//15 17//17 14//14 
f 13//13 15//15 12//12 
f 11//11 13//13 10//10 
f 9//9 11//11 8//8 
f 7//7 9//9 6//6 
f 5//5 7//7 4//4 
f 3//3 5//5 1//1 
o mesh4218
v 0.0247519 0.003175 -0.0246761 
v 0.0131038 0.003175 -0.0137099 
v 0.0133658 0.003175 -0.0134874 
v 0.0247519 0.003175 0.0023114 
v 0.0121961 0.003175 -0.00817355 
v 0.0118649 0.003175 -0.00808158 
v 0.0136022 0.003175 -0.0132378 
v 0.0138103 0.003175 -0.0129641 
v 0.0128192 0.003175 -0.0139029 
v 0.0115256 0.003175 -0.0143387 
v 0.0118649 0.003175 -0.0142831 
v 0.0125155 0.003175 -0.0083008 
v 0.0139875 0.003175 -0.00969515 
v 0.0138103 0.003175 -0.00940058 
v 0.0141319 0.003175 -0.0123575 
v 0.0142416 0.003175 -0.0120318 
v 0.0139875 0.003175 -0.0126695 
v 0.0125155 0.003175 -0.0140639 
v 0.0121961 0.003175 -0.0141911 
v 0.0128192 0.003175 -0.00846183 
v 0.0133658 0.003175 -0.00887731 
v 0.0131038 0.003175 -0.00865475 
v 0.0136022 0.003175 -0.0091269 
v 0.0143527 0.003175 -0.0113542 
v 0.0143527 0.003175 -0.0110105 
v -0.00238724 0.003175 -0.0246761 
v 0.0111824 0.003175 -0.0143574 
v 0.0141319 0.003175 -0.0100072 
v 0.0108391 0.003175 -0.0143387 
v 0.0101686 0.003175 -0.0141911 
v 0.0104998 0.003175 -0.0142831 
v 0.0143155 0.003175 -0.0106687 
v 0.0142416 0.003175 -0.0103329 
v 0.0143155 0.003175 -0.011696 
v 0.0098492 0.003175 -0.0140639 
v -0.00238724 0.003175 0.0023114 
v 0.00801201 0.003175 -0.0110105 
v 0.0115256 0.003175 -0.00802596 
v 0.0111824 0.003175 -0.00800735 
v 0.00954547 0.003175 -0.0139029 
v 0.0089989 0.003175 -0.0134874 
v 0.00926092 0.003175 -0.0137099 
v 0.00801201 0.003175 -0.0113542 
v 0.00812308 0.003175 -0.0103329 
v 0.00804918 0.003175 -0.0106687 
v 0.00876249 0.003175 -0.0132378 
v 0.0083772 0.003175 -0.00969515 
v 0.00823285 0.003175 -0.0100072 
v 0.0089989 0.003175 -0.00887731 
v 0.00876249 0.003175 -0.0091269 
v 0.00855444 0.003175 -0.0129641 
v 0.00855444 0.003175 -0.00940058 
v 0.0101686 0.003175 -0.00817355 
v 0.0098492 0.003175 -0.0083008 
v 0.0108391 0.003175 -0.00802596 
v 0.0104998 0.003175 -0.00808158 
v 0.00823285 0.003175 -0.0123575 
v 0.0083772 0.003175 -0.0126695 
v 0.00804918 0.003175 -0.011696 
v 0.00812308 0.003175 -0.0120318 
v 0.00954547 0.003175 -0.00846183 
v 0.00926092 0.003175 -0.00865475 
vn 0 1 0 
vn 0 1 0 
vn 0 1 0 
vn 0 1 0 
vn 0 1 0 
vn 0 1 0 
vn 0 1 0 
vn 0 1 0 
vn 0 1 0 
vn 0 1 0 
vn 0 1 0 
vn 0 1 0 
vn 0 1 0 
vn 0 1 0 
vn 0 1 0 
vn 0 1 0 
vn 0 1 0 
vn 0 1 0 
vn 0 1 0 
vn 0 1 0 
vn 0 1 0 
vn 0 1 0 
vn 0 1 0 
vn 0 1 0 
vn 0 1 0 
vn 0 1 0 
vn 0 1 0 
vn 0 1 0 
vn 0 1 0 
vn 0 1 0 
vn 0 1 0 
vn 0 1 0 
vn 0 1 0 
vn 0 1 0 
vn 0 1 0 
vn 0 1 0 
vn 0 1 0 
vn 0 1 0 
vn 0 1 0 
vn 0 1 0 
vn 0 1 0 
vn 0 1 0 
vn 0 1 0 
vn 0 1 0 
vn 0 1 0 
vn 0 1 0 
vn 0 1 0 
vn 0 1 0 
vn 0 1 0 
vn 0 1 0 
vn 0 1 0 
vn 0 1 0 
vn 0 1 0 
vn 0 1 0 
vn 0 1 0 
vn 0 1 0 
vn 0 1 0 
vn 0 1 0 
vn 0 1 0 
vn 0 1 0 
vn 0 1 0 
vn 0 1 0 
f 117//117 118//118 119//119 
f 120//120 121//121 122//122 
f 117//117 123//123 124//124 
f 117//117 125//125 118//118 
f 117//117 126//126 127//127 
f 120//120 128//128 121//121 
f 120//120 129//129 130//130 
f 117//117 131//131 132//132 
f 124//124 133//133 117//117 
f 117//117 134//134 125//125 
f 127//127 135//135 117//117 
f 120//120 136//136 128//128 
f 120//120 137//137 138//138 
f 130//130 139//139 120//120 
f 117//117 140//140 141//141 
f 133//133 131//131 117//117 
f 135//135 134//134 117//117 
f 117//117 142//142 143//143 
f 138//138 136//136 120//120 
f 120//120 144//144 129//129 
f 141//141 120//120 117//117 
f 119//119 123//123 117//117 
f 142//142 145//145 143//143 
f 142//142 146//146 147//147 
f 139//139 137//137 120//120 
f 120//120 148//148 149//149 
f 117//117 150//150 140//140 
f 143//143 126//126 117//117 
f 142//142 151//151 146//146 
f 142//142 152//152 153//153 
f 120//120 154//154 155//155 
f 149//149 144//144 120//120 
f 132//132 150//150 117//117 
f 142//142 156//156 151//151 
f 142//142 157//157 158//158 
f 153//153 159//159 142//142 
f 152//152 160//160 161//161 
f 122//122 154//154 120//120 
f 147//147 145//145 142//142 
f 142//142 162//162 157//157 
f 161//161 153//153 152//152 
f 152//152 163//163 164//164 
f 152//152 165//165 166//166 
f 141//141 148//148 120//120 
f 142//142 167//167 162//162 
f 164//164 160//160 152//152 
f 166//166 168//168 152//152 
f 152//152 169//169 170//170 
f 152//152 171//171 172//172 
f 158//158 156//156 142//142 
f 142//142 173//173 174//174 
f 142//142 175//175 176//176 
f 168//168 163//163 152//152 
f 172//172 169//169 152//152 
f 174//174 167//167 142//142 
f 159//159 175//175 142//142 
f 152//152 177//177 178//178 
f 152//152 155//155 171//171 
f 176//176 173//173 142//142 
f 170//170 177//177 152//152 
f 178//178 165//165 152//152 
f 155//155 152//152 120//120 
o mesh4219
v -0.00238724 0.003175 -0.0246761 
v -0.00238724 0 -0.0246761 
v -0.00238724 0 0.0023114 
v -0.00238724 0.003175 0.0023114 
vn -1 0 0 
vn -1 0 0 
vn -1 0 0 
vn -1 0 0 
f 179//179 180//180 181//181 
f 181//181 182//182 179//179 
o mesh4220
v -0.00238724 0.003175 0.0023114 
v -0.00238724 0 0.0023114 
v 0.0247519 0 0.0023114 
v 0.0247519 0.003175 0.0023114 
vn -1.59799e-17 0 1 
vn -1.59799e-17 0 1 
vn -1.59799e-17 0 1 
vn -1.59799e-17 0 1 
f 183//183 184//184 185//185 
f 185//185 186//186 183//183 
o mesh4221
v 0.0247519 0.003175 0.0023114 
v 0.0247519 0 0.0023114 
v 0.0247519 0 -0.0246761 
v 0.0247519 0.003175 -0.0246761 
vn 1 0 0 
vn 1 0 0 
vn 1 0 0 
vn 1 0 0 
f 187//187 188//188 189//189 
f 189//189 190//190 187//187 
o mesh4222
v 0.0247519 0.003175 -0.0246761 
v 0.0247519 0 -0.0246761 
v -0.00238724 0 -0.0246761 
v -0.00238724 0.003175 -0.0246761 
vn 0 0 -1 
vn 0 0 -1 
vn 0 0 -1 
vn 0 0 -1 
f 191//191 192//192 193//193 
f 193//193 194//194 191//191 
o mesh4223
v -0.00238724 0 -0.0246761 
v 0.0247519 0 -0.0246761 
v 0.0223647 0 -0.0223647 
v 0.0247519 0 0.0023114 
v 0.0223647 0 0 
v -0.00238724 0 0.0023114 
v 0 0 0 
v 0 0 -0.0223647 
vn 0 -1 0 
vn 0 -1 0 
vn 0 -1 0 
vn 0 -1 0 
vn 0 -1 0 
vn 0 -1 0 
vn 0 -1 0 
vn 0 -1 0 
f 195//195 196//196 197//197 
f 196//196 198//198 199//199 
f 199//199 197//197 196//196 
f 200//200 201//201 199//199 
f 199//199 198//198 200//200 
f 195//195 202//202 201//201 
f 201//201 200//200 195//195 
f 197//197 202//202 195//195 
o mesh4224
v 0 -0.0762 0 
v 0 0 0 
v 0 0 -0.0223647 
v 0 -0.0762 -0.0223647 
vn -1 0 0 
vn -1 0 0 
vn -1 0 0 
vn -1 0 0 
f 203//203 204//204 205//205 
f 205//205 206//206 203//203 
o mesh4225
v 0 -0.0762 -0.0223647 
v 0 0 -0.0223647 
v 0.0223647 0 -0.0223647 
v 0.0223647 -0.0762 -0.0223647 
vn 0 0 -1 
vn 0 0 -1 
vn 0 0 -1 
vn 0 0 -1 
f 207//207 208//208 209//209 
f 209//209 210//210 207//207 
o mesh4226
v 0.0223647 -0.0762 -0.0223647 
v 0.0223647 0 -0.0223647 
v 0.0223647 0 0 
v 0.0223647 -0.0762 0 
vn 1 0 0 
vn 1 0 0 
vn 1 0 0 
vn 1 0 0 
f 211//211 212//212 213//213 
f 213//213 214//214 211//211 
o mesh4227
v 0.0223647 -0.0762 0 
v 0.0223647 0 0 
v 0 0 0 
v 0 -0.0762 0 
vn 0 0 1 
vn 0 0 1 
vn 0 0 1 
vn 0 0 1 
f 215//215 216//216 217//217 
f 217//217 218//218 215//215 
o mesh4228
v 0.0223647 -0.0762 0 
v 0 -0.0762 0 
v 0.0111399 -0.0762 -0.00476669 
v 0 -0.0762 -0.0223647 
v 0.00564745 -0.0762 -0.0144269 
v 0.005605 -0.0762 -0.00801128 
v 0.0223647 -0.0762 -0.0223647 
v 0.0112248 -0.0762 -0.017598 
v 0.0167173 -0.0762 -0.00793775 
v 0.0167597 -0.0762 -0.0143534 
vn 0 -1 0 
vn 0 -1 0 
vn 0 -1 0 
vn 0 -1 0 
vn 0 -1 0 
vn 0 -1 0 
vn 0 -1 0 
vn 0 -1 0 
vn 0 -1 0 
vn 0 -1 0 
f 219//219 220//220 221//221 
f 222//222 223//223 224//224 
f 222//222 225//225 226//226 
f 220//220 224//224 221//221 
f 226//226 223//223 222//222 
f 219//219 227//227 228//228 
f 224//224 220//220 222//222 
f 221//221 227//227 219//219 
f 228//228 225//225 219//219 
f 228//228 226//226 225//225 
o mesh4229
v 0.0167597 4.16334e-17 -0.0143534 
v 0.0136022 4.16334e-17 -0.0132378 
v 0.0133658 4.16334e-17 -0.0134874 
v 0.0112248 4.16334e-17 -0.017598 
v 0.0121961 4.16334e-17 -0.0141911 
v 0.0118649 4.16334e-17 -0.0142831 
v 0.0128192 4.16334e-17 -0.0139029 
v 0.0131038 4.16334e-17 -0.0137099 
v 0.0167173 4.16334e-17 -0.00793775 
v 0.0136022 4.16334e-17 -0.0091269 
v 0.0138103 4.16334e-17 -0.00940058 
v 0.0125155 4.16334e-17 -0.0140639 
v 0.0139875 4.16334e-17 -0.0126695 
v 0.0138103 4.16334e-17 -0.0129641 
v 0.0133658 4.16334e-17 -0.00887731 
v 0.0111399 4.16334e-17 -0.00476669 
v 0.0115256 4.16334e-17 -0.00802596 
v 0.0118649 4.16334e-17 -0.00808158 
v 0.0141319 4.16334e-17 -0.0123575 
v 0.0139875 4.16334e-17 -0.00969515 
v 0.0128192 4.16334e-17 -0.00846183 
v 0.0131038 4.16334e-17 -0.00865475 
v 0.0125155 4.16334e-17 -0.0083008 
v 0.0121961 4.16334e-17 -0.00817355 
v 0.005605 4.16334e-17 -0.00801128 
v 0.00954547 4.16334e-17 -0.00846183 
v 0.00564745 4.16334e-17 -0.0144269 
v 0.00954547 4.16334e-17 -0.0139029 
v 0.00926092 4.16334e-17 -0.0137099 
v 0.0108391 4.16334e-17 -0.0143387 
v 0.0104998 4.16334e-17 -0.0142831 
v 0.0143155 4.16334e-17 -0.011696 
v 0.0142416 4.16334e-17 -0.0120318 
v 0.0143527 4.16334e-17 -0.0110105 
v 0.0101686 4.16334e-17 -0.00817355 
v 0.0104998 4.16334e-17 -0.00808158 
v 0.0098492 4.16334e-17 -0.0083008 
v 0.00855444 4.16334e-17 -0.00940058 
v 0.00876249 4.16334e-17 -0.0091269 
v 0.00801201 4.16334e-17 -0.0113542 
v 0.0089989 4.16334e-17 -0.0134874 
v 0.0098492 4.16334e-17 -0.0140639 
v 0.0101686 4.16334e-17 -0.0141911 
v 0.0143155 4.16334e-17 -0.0106687 
v 0.0141319 4.16334e-17 -0.0100072 
v 0.0142416 4.16334e-17 -0.0103329 
v 0.0108391 4.16334e-17 -0.00802596 
v 0.0111824 4.16334e-17 -0.00800735 
v 0.0083772 4.16334e-17 -0.00969515 
v 0.00812308 4.16334e-17 -0.0103329 
v 0.00823285 4.16334e-17 -0.0100072 
v 0.00801201 4.16334e-17 -0.0110105 
v 0.00804918 4.16334e-17 -0.0106687 
v 0.00804918 4.16334e-17 -0.011696 
v 0.00876249 4.16334e-17 -0.0132378 
v 0.0115256 4.16334e-17 -0.0143387 
v 0.0143527 4.16334e-17 -0.0113542 
v 0.00823285 4.16334e-17 -0.0123575 
v 0.00812308 4.16334e-17 -0.0120318 
v 0.00855444 4.16334e-17 -0.0129641 
v 0.0083772 4.16334e-17 -0.0126695 
v 0.0111824 4.16334e-17 -0.0143574 
v 0.0089989 4.16334e-17 -0.00887731 
v 0.00926092 4.16334e-17 -0.00865475 
vn 0 -1 0 
vn 0 -1 0 
vn 0 -1 0 
vn 0 -1 0 
vn 0 -1 0 
vn 0 -1 0 
vn 0 -1 0 
vn 0 -1 0 
vn 0 -1 0 
vn 0 -1 0 
vn 0 -1 0 
vn 0 -1 0 
vn 0 -1 0 
vn 0 -1 0 
vn 0 -1 0 
vn 0 -1 0 
vn 0 -1 0 
vn 0 -1 0 
vn 0 -1 0 
vn 0 -1 0 
vn 0 -1 0 
vn 0 -1 0 
vn 0 -1 0 
vn 0 -1 0 
vn 0 -1 0 
vn 0 -1 0 
vn 0 -1 0 
vn 0 -1 0 
vn 0 -1 0 
vn 0 -1 0 
vn 0 -1 0 
vn 0 -1 0 
vn 0 -1 0 
vn 0 -1 0 
vn 0 -1 0 
vn 0 -1 0 
vn 0 -1 0 
vn 0 -1 0 
vn 0 -1 0 
vn 0 -1 0 
vn 0 -1 0 
vn 0 -1 0 
vn 0 -1 0 
vn 0 -1 0 
vn 0 -1 0 
vn 0 -1 0 
vn 0 -1 0 
vn 0 -1 0 
vn 0 -1 0 
vn 0 -1 0 
vn 0 -1 0 
vn 0 -1 0 
vn 0 -1 0 
vn 0 -1 0 
vn 0 -1 0 
vn 0 -1 0 
vn 0 -1 0 
vn 0 -1 0 
vn 0 -1 0 
vn 0 -1 0 
vn 0 -1 0 
vn 0 -1 0 
vn 0 -1 0 
vn 0 -1 0 
f 229//229 230//230 231//231 
f 232//232 233//233 234//234 
f 232//232 229//229 235//235 
f 231//231 236//236 229//229 
f 237//237 238//238 239//239 
f 232//232 240//240 233//233 
f 236//236 235//235 229//229 
f 229//229 241//241 242//242 
f 237//237 243//243 238//238 
f 244//244 245//245 246//246 
f 235//235 240//240 232//232 
f 229//229 247//247 241//241 
f 239//239 248//248 237//237 
f 237//237 249//249 250//250 
f 244//244 251//251 249//249 
f 246//246 252//252 244//244 
f 244//244 253//253 254//254 
f 255//255 256//256 257//257 
f 232//232 258//258 259//259 
f 242//242 230//230 229//229 
f 229//229 260//260 261//261 
f 229//229 237//237 262//262 
f 250//250 243//243 237//237 
f 252//252 251//251 244//244 
f 244//244 263//263 264//264 
f 254//254 265//265 244//244 
f 253//253 266//266 267//267 
f 253//253 255//255 268//268 
f 257//257 269//269 255//255 
f 232//232 270//270 256//256 
f 259//259 271//271 232//232 
f 261//261 247//247 229//229 
f 237//237 272//272 262//262 
f 237//237 273//273 274//274 
f 249//249 237//237 244//244 
f 244//244 275//275 276//276 
f 265//265 263//263 244//244 
f 253//253 277//277 266//266 
f 253//253 278//278 279//279 
f 253//253 280//280 281//281 
f 255//255 282//282 268//268 
f 269//269 283//283 255//255 
f 271//271 270//270 232//232 
f 234//234 284//284 232//232 
f 262//262 285//285 229//229 
f 248//248 273//273 237//237 
f 264//264 275//275 244//244 
f 279//279 277//277 253//253 
f 268//268 280//280 253//253 
f 256//256 255//255 232//232 
f 285//285 260//260 229//229 
f 276//276 245//245 244//244 
f 281//281 278//278 253//253 
f 255//255 286//286 287//287 
f 255//255 288//288 289//289 
f 232//232 290//290 258//258 
f 274//274 272//272 237//237 
f 253//253 291//291 292//292 
f 287//287 282//282 255//255 
f 283//283 288//288 255//255 
f 292//292 254//254 253//253 
f 289//289 286//286 255//255 
f 267//267 291//291 253//253 
f 284//284 290//290 232//232 
o mesh4230
v 0.0167597 4.16334e-17 -0.0143534 
v 0.0167597 -0.0762 -0.0143534 
v 0.0167173 -0.0762 -0.00793775 
v 0.0167173 4.16334e-17 -0.00793775 
vn -0.999978 0 -0.00661695 
vn -0.999978 0 -0.00661695 
vn -0.999978 0 -0.00661695 
vn -0.999978 0 -0.00661695 
f 293//293 294//294 295//295 
f 295//295 296//296 293//293 
o mesh4231
v 0.0112248 4.16334e-17 -0.017598 
v 0.0112248 -0.0762 -0.017598 
v 0.0167597 -0.0762 -0.0143534 
v 0.0167597 4.16334e-17 -0.0143534 
vn -0.505719 0 0.862698 
vn -0.505719 0 0.862698 
vn -0.505719 0 0.862698 
vn -0.505719 0 0.862698 
f 297//297 298//298 299//299 
f 299//299 300//300 297//297 
o mesh4232
v 0.00564745 4.16334e-17 -0.0144269 
v 0.00564745 -0.0762 -0.0144269 
v 0.0112248 -0.0762 -0.017598 
v 0.0112248 4.16334e-17 -0.017598 
vn 0.494259 0 0.869315 
vn 0.494259 0 0.869315 
vn 0.494259 0 0.869315 
vn 0.494259 0 0.869315 
f 301//301 302//302 303//303 
f 303//303 304//304 301//301 
o mesh4233
v 0.005605 4.16334e-17 -0.00801128 
v 0.005605 -0.0762 -0.00801128 
v 0.00564745 -0.0762 -0.0144269 
v 0.00564745 4.16334e-17 -0.0144269 
vn 0.999978 0 0.00661695 
vn 0.999978 0 0.00661695 
vn 0.999978 0 0.00661695 
vn 0.999978 0 0.00661695 
f 305//305 306//306 307//307 
f 307//307 308//308 305//305 
o mesh4234
v 0.0111399 4.16334e-17 -0.00476669 
v 0.0111399 -0.0762 -0.00476669 
v 0.005605 -0.0762 -0.00801128 
v 0.005605 4.16334e-17 -0.00801128 
vn 0.505719 0 -0.862698 
vn 0.505719 0 -0.862698 
vn 0.505719 0 -0.862698 
vn 0.505719 0 -0.862698 
f 309//309 310//310 311//311 
f 311//311 312//312 309//309 
o mesh4235
v 0.0167173 4.16334e-17 -0.00793775 
v 0.0167173 -0.0762 -0.00793775 
v 0.0111399 -0.0762 -0.00476669 
v 0.0111399 4.16334e-17 -0.00476669 
vn -0.494259 0 -0.869315 
vn -0.494259 0 -0.869315 
vn -0.494259 0 -0.869315 
vn -0.494259 0 -0.869315 
f 313//313 314//314 315//315 
f 315//315 316//316 313//313 
