# OBJ generated by ONSHAPE BY PTC INC, 1.215 Units = meters
mtllib REV_21_2101_A02_1_REV_21_2100_P04_1_solid1.mtl
g REV-21-2101-A02-1/REV-21-2100-P04-1-solid1
usemtl 0.796078_0.823529_0.937255_0.000000_0.000000
o mesh28015
v -0.00273388 0.0178473 0.047198 
v -0.00275 0.01755 0.047198 
v -0.00273388 0.0172527 0.047198 
v -0.00268571 0.0181412 0.047198 
v -0.00268571 0.0169588 0.047198 
v -0.00260605 0.0166719 0.047198 
v 0.00275 0.01755 0.047198 
v 0.00260605 0.0166719 0.047198 
v 0.00268571 0.0169588 0.047198 
v 0.00249583 0.0163953 0.047198 
v 0.00273388 0.0178473 0.047198 
v -0.00249583 0.0163953 0.047198 
v -0.00260605 0.0184281 0.047198 
v -0.00218926 0.0158858 0.047198 
v -0.00218926 0.0192142 0.047198 
v -0.00235636 0.0189678 0.047198 
v 0.00268571 0.0181412 0.047198 
v 0.00260605 0.0184281 0.047198 
v 0.00273388 0.0172527 0.047198 
v 0.00218926 0.0192142 0.047198 
v 0.00218926 0.0158858 0.047198 
v 0.00235636 0.0161322 0.047198 
v 0.00178031 0.0154541 0.047198 
v 0.00199649 0.0156588 0.047198 
v 0.000148882 0.014804 0.047198 
v 0.0004449 0.0148362 0.047198 
v -0.00249583 0.0187047 0.047198 
v -0.00235636 0.0161322 0.047198 
v -0.00199649 0.0194412 0.047198 
v -0.00154326 0.0152739 0.047198 
v 0.000148882 0.020296 0.047198 
v -0.000148882 0.020296 0.047198 
v 0.00249583 0.0187047 0.047198 
v 0.00235636 0.0189678 0.047198 
v -0.000148882 0.014804 0.047198 
v -0.00128812 0.0151203 0.047198 
v -0.00101788 0.0149953 0.047198 
v -0.00178031 0.0196459 0.047198 
v -0.00128812 0.0199797 0.047198 
v -0.00154326 0.0198261 0.047198 
v 0.0004449 0.0202638 0.047198 
v 0.00154326 0.0198261 0.047198 
v 0.00128812 0.0199797 0.047198 
v 0.00154326 0.0152739 0.047198 
v 0.00101788 0.0149953 0.047198 
v 0.00128812 0.0151203 0.047198 
v -0.0004449 0.0148362 0.047198 
v -0.000735703 0.0149002 0.047198 
v -0.00101788 0.0201047 0.047198 
v -0.00199649 0.0156588 0.047198 
v 0.000735703 0.0201998 0.047198 
v 0.00101788 0.0201047 0.047198 
v 0.000735703 0.0149002 0.047198 
v -0.00178031 0.0154541 0.047198 
v -0.0004449 0.0202638 0.047198 
v -0.000735703 0.0201998 0.047198 
v 0.00199649 0.0194412 0.047198 
v 0.00178031 0.0196459 0.047198 
vn -6.30971e-30 -1.14183e-31 1 
vn -6.30971e-30 -1.14183e-31 1 
vn -6.30971e-30 -1.14183e-31 1 
vn -6.30971e-30 -1.14183e-31 1 
vn -6.30971e-30 -1.14183e-31 1 
vn -6.30971e-30 -1.14183e-31 1 
vn -6.30971e-30 -1.14183e-31 1 
vn -6.30971e-30 -1.14183e-31 1 
vn -6.30971e-30 -1.14183e-31 1 
vn -6.30971e-30 -1.14183e-31 1 
vn -6.30971e-30 -1.14183e-31 1 
vn -6.30971e-30 -1.14183e-31 1 
vn -6.30971e-30 -1.14183e-31 1 
vn -6.30971e-30 -1.14183e-31 1 
vn -6.30971e-30 -1.14183e-31 1 
vn -6.30971e-30 -1.14183e-31 1 
vn -6.30971e-30 -1.14183e-31 1 
vn -6.30971e-30 -1.14183e-31 1 
vn -6.30971e-30 -1.14183e-31 1 
vn -6.30971e-30 -1.14183e-31 1 
vn -6.30971e-30 -1.14183e-31 1 
vn -6.30971e-30 -1.14183e-31 1 
vn -6.30971e-30 -1.14183e-31 1 
vn -6.30971e-30 -1.14183e-31 1 
vn -6.30971e-30 -1.14183e-31 1 
vn -6.30971e-30 -1.14183e-31 1 
vn -6.30971e-30 -1.14183e-31 1 
vn -6.30971e-30 -1.14183e-31 1 
vn -6.30971e-30 -1.14183e-31 1 
vn -6.30971e-30 -1.14183e-31 1 
vn -6.30971e-30 -1.14183e-31 1 
vn -6.30971e-30 -1.14183e-31 1 
vn -6.30971e-30 -1.14183e-31 1 
vn -6.30971e-30 -1.14183e-31 1 
vn -6.30971e-30 -1.14183e-31 1 
vn -6.30971e-30 -1.14183e-31 1 
vn -6.30971e-30 -1.14183e-31 1 
vn -6.30971e-30 -1.14183e-31 1 
vn -6.30971e-30 -1.14183e-31 1 
vn -6.30971e-30 -1.14183e-31 1 
vn -6.30971e-30 -1.14183e-31 1 
vn -6.30971e-30 -1.14183e-31 1 
vn -6.30971e-30 -1.14183e-31 1 
vn -6.30971e-30 -1.14183e-31 1 
vn -6.30971e-30 -1.14183e-31 1 
vn -6.30971e-30 -1.14183e-31 1 
vn -6.30971e-30 -1.14183e-31 1 
vn -6.30971e-30 -1.14183e-31 1 
vn -6.30971e-30 -1.14183e-31 1 
vn -6.30971e-30 -1.14183e-31 1 
vn -6.30971e-30 -1.14183e-31 1 
vn -6.30971e-30 -1.14183e-31 1 
vn -6.30971e-30 -1.14183e-31 1 
vn -6.30971e-30 -1.14183e-31 1 
vn -6.30971e-30 -1.14183e-31 1 
vn -6.30971e-30 -1.14183e-31 1 
vn -6.30971e-30 -1.14183e-31 1 
vn -6.30971e-30 -1.14183e-31 1 
f 1//1 2//2 3//3 
f 4//4 5//5 6//6 
f 5//5 4//4 1//1 
f 7//7 8//8 9//9 
f 3//3 5//5 1//1 
f 10//10 7//7 11//11 
f 7//7 10//10 8//8 
f 12//12 13//13 4//4 
f 14//14 15//15 16//16 
f 10//10 17//17 18//18 
f 9//9 19//19 7//7 
f 20//20 21//21 22//22 
f 20//20 23//23 24//24 
f 20//20 25//25 26//26 
f 27//27 12//12 28//28 
f 12//12 27//27 13//13 
f 14//14 29//29 15//15 
f 30//30 31//31 32//32 
f 10//10 33//33 34//34 
f 11//11 17//17 10//10 
f 24//24 21//21 20//20 
f 20//20 35//35 25//25 
f 20//20 36//36 37//37 
f 6//6 12//12 4//4 
f 14//14 38//38 29//29 
f 14//14 39//39 40//40 
f 30//30 41//41 31//31 
f 30//30 42//42 43//43 
f 18//18 33//33 10//10 
f 20//20 44//44 23//23 
f 20//20 45//45 46//46 
f 20//20 47//47 35//35 
f 37//37 48//48 20//20 
f 49//49 14//14 50//50 
f 16//16 27//27 14//14 
f 14//14 49//49 39//39 
f 30//30 51//51 41//41 
f 43//43 52//52 30//30 
f 22//22 10//10 20//20 
f 20//20 53//53 45//45 
f 48//48 47//47 20//20 
f 50//50 54//54 49//49 
f 40//40 38//38 14//14 
f 30//30 55//55 56//56 
f 52//52 51//51 30//30 
f 30//30 20//20 57//57 
f 46//46 44//44 20//20 
f 20//20 30//30 36//36 
f 28//28 14//14 27//27 
f 32//32 55//55 30//30 
f 57//57 58//58 30//30 
f 26//26 53//53 20//20 
f 56//56 49//49 30//30 
f 34//34 20//20 10//10 
f 58//58 42//42 30//30 
f 54//54 30//30 49//49 
o mesh28016
v 0.003 0.01755 0.046948 
v 0.00275 0.01755 0.047198 
v 0.00273388 0.0172527 0.047198 
v 0.00298241 0.0172256 0.046948 
v 0.00268571 0.0169588 0.047198 
v 0.00292986 0.0169051 0.046948 
v 0.00260605 0.0166719 0.047198 
v 0.00284296 0.0165921 0.046948 
v 0.00249583 0.0163953 0.047198 
v 0.00272273 0.0162903 0.046948 
v 0.00235636 0.0161322 0.047198 
v 0.00257057 0.0160033 0.046948 
v 0.00218926 0.0158858 0.047198 
v 0.00238828 0.0157345 0.046948 
v 0.00199649 0.0156588 0.047198 
v 0.00217799 0.0154869 0.046948 
v 0.00178031 0.0154541 0.047198 
v 0.00194216 0.0152635 0.046948 
v 0.00154326 0.0152739 0.047198 
v 0.00168356 0.0150669 0.046948 
v 0.00128812 0.0151203 0.047198 
v 0.00140523 0.0148995 0.046948 
v 0.00101788 0.0149953 0.047198 
v 0.00111041 0.0147631 0.046948 
v 0.000735703 0.0149002 0.047198 
v 0.000802585 0.0146594 0.046948 
v 0.0004449 0.0148362 0.047198 
v 0.000485346 0.0145895 0.046948 
v 0.000148882 0.014804 0.047198 
v 0.000162417 0.0145544 0.046948 
v -0.000148882 0.014804 0.047198 
v -0.000162417 0.0145544 0.046948 
v -0.0004449 0.0148362 0.047198 
v -0.000485346 0.0145895 0.046948 
v -0.000735703 0.0149002 0.047198 
v -0.000802585 0.0146594 0.046948 
v -0.00101788 0.0149953 0.047198 
v -0.00111041 0.0147631 0.046948 
v -0.00128812 0.0151203 0.047198 
v -0.00140523 0.0148995 0.046948 
v -0.00154326 0.0152739 0.047198 
v -0.00168356 0.0150669 0.046948 
v -0.00178031 0.0154541 0.047198 
v -0.00194216 0.0152635 0.046948 
v -0.00199649 0.0156588 0.047198 
v -0.00217799 0.0154869 0.046948 
v -0.00218926 0.0158858 0.047198 
v -0.00238828 0.0157345 0.046948 
v -0.00235636 0.0161322 0.047198 
v -0.00257057 0.0160033 0.046948 
v -0.00249583 0.0163953 0.047198 
v -0.00272273 0.0162903 0.046948 
v -0.00260605 0.0166719 0.047198 
v -0.00284296 0.0165921 0.046948 
v -0.00268571 0.0169588 0.047198 
v -0.00292986 0.0169051 0.046948 
v -0.00273388 0.0172527 0.047198 
v -0.00298241 0.0172256 0.046948 
v -0.00275 0.01755 0.047198 
v -0.003 0.01755 0.046948 
vn 0.707107 8.65956e-17 0.707107 
vn 0.707107 8.65956e-17 0.707107 
vn 0.702962 -0.0764517 0.707107 
vn 0.702962 -0.0764517 0.707107 
vn 0.690575 -0.152007 0.707107 
vn 0.690575 -0.152007 0.707107 
vn 0.670092 -0.22578 0.707107 
vn 0.670092 -0.22578 0.707107 
vn 0.641753 -0.296906 0.707107 
vn 0.641753 -0.296906 0.707107 
vn 0.60589 -0.364552 0.707107 
vn 0.60589 -0.364552 0.707107 
vn 0.562923 -0.427923 0.707107 
vn 0.562923 -0.427923 0.707107 
vn 0.513356 -0.486277 0.707107 
vn 0.513356 -0.486277 0.707107 
vn 0.457771 -0.53893 0.707107 
vn 0.457771 -0.53893 0.707107 
vn 0.396819 -0.585265 0.707107 
vn 0.396819 -0.585265 0.707107 
vn 0.331215 -0.624737 0.707107 
vn 0.331215 -0.624737 0.707107 
vn 0.261727 -0.656886 0.707107 
vn 0.261727 -0.656886 0.707107 
vn 0.189171 -0.681333 0.707107 
vn 0.189171 -0.681333 0.707107 
vn 0.114397 -0.697792 0.707107 
vn 0.114397 -0.697792 0.707107 
vn 0.038282 -0.70607 0.707107 
vn 0.038282 -0.70607 0.707107 
vn -0.038282 -0.70607 0.707107 
vn -0.038282 -0.70607 0.707107 
vn -0.114397 -0.697792 0.707107 
vn -0.114397 -0.697792 0.707107 
vn -0.189171 -0.681333 0.707107 
vn -0.189171 -0.681333 0.707107 
vn -0.261727 -0.656886 0.707107 
vn -0.261727 -0.656886 0.707107 
vn -0.331215 -0.624737 0.707107 
vn -0.331215 -0.624737 0.707107 
vn -0.396819 -0.585265 0.707107 
vn -0.396819 -0.585265 0.707107 
vn -0.457771 -0.53893 0.707107 
vn -0.457771 -0.53893 0.707107 
vn -0.513356 -0.486277 0.707107 
vn -0.513356 -0.486277 0.707107 
vn -0.562923 -0.427923 0.707107 
vn -0.562923 -0.427923 0.707107 
vn -0.60589 -0.364552 0.707107 
vn -0.60589 -0.364552 0.707107 
vn -0.641753 -0.296906 0.707107 
vn -0.641753 -0.296906 0.707107 
vn -0.670092 -0.22578 0.707107 
vn -0.670092 -0.22578 0.707107 
vn -0.690575 -0.152007 0.707107 
vn -0.690575 -0.152007 0.707107 
vn -0.702962 -0.0764517 0.707107 
vn -0.702962 -0.0764517 0.707107 
vn -0.707107 1.47196e-16 0.707107 
vn -0.707107 1.47196e-16 0.707107 
f 59//59 60//60 61//61 
f 62//62 61//61 63//63 
f 64//64 63//63 65//65 
f 66//66 65//65 67//67 
f 68//68 67//67 69//69 
f 70//70 69//69 71//71 
f 72//72 71//71 73//73 
f 74//74 73//73 75//75 
f 76//76 75//75 77//77 
f 78//78 77//77 79//79 
f 80//80 79//79 81//81 
f 82//82 81//81 83//83 
f 84//84 83//83 85//85 
f 86//86 85//85 87//87 
f 88//88 87//87 89//89 
f 90//90 89//89 91//91 
f 92//92 91//91 93//93 
f 94//94 93//93 95//95 
f 96//96 95//95 97//97 
f 98//98 97//97 99//99 
f 100//100 99//99 101//101 
f 102//102 101//101 103//103 
f 104//104 103//103 105//105 
f 106//106 105//105 107//107 
f 108//108 107//107 109//109 
f 110//110 109//109 111//111 
f 112//112 111//111 113//113 
f 114//114 113//113 115//115 
f 116//116 115//115 117//117 
f 117//117 118//118 116//116 
f 115//115 116//116 114//114 
f 113//113 114//114 112//112 
f 111//111 112//112 110//110 
f 109//109 110//110 108//108 
f 107//107 108//108 106//106 
f 105//105 106//106 104//104 
f 103//103 104//104 102//102 
f 101//101 102//102 100//100 
f 99//99 100//100 98//98 
f 97//97 98//98 96//96 
f 95//95 96//96 94//94 
f 93//93 94//94 92//92 
f 91//91 92//92 90//90 
f 89//89 90//90 88//88 
f 87//87 88//88 86//86 
f 85//85 86//86 84//84 
f 83//83 84//84 82//82 
f 81//81 82//82 80//80 
f 79//79 80//80 78//78 
f 77//77 78//78 76//76 
f 75//75 76//76 74//74 
f 73//73 74//74 72//72 
f 71//71 72//72 70//70 
f 69//69 70//70 68//68 
f 67//67 68//68 66//66 
f 65//65 66//66 64//64 
f 63//63 64//64 62//62 
f 61//61 62//62 59//59 
o mesh28017
v -0.003 0.01755 0.046948 
v -0.00275 0.01755 0.047198 
v -0.00273388 0.0178473 0.047198 
v -0.00298241 0.0178744 0.046948 
v -0.00268571 0.0181412 0.047198 
v -0.00292986 0.0181949 0.046948 
v -0.00260605 0.0184281 0.047198 
v -0.00284296 0.0185079 0.046948 
v -0.00249583 0.0187047 0.047198 
v -0.00272273 0.0188097 0.046948 
v -0.00235636 0.0189678 0.047198 
v -0.00257057 0.0190967 0.046948 
v -0.00218926 0.0192142 0.047198 
v -0.00238828 0.0193655 0.046948 
v -0.00199649 0.0194412 0.047198 
v -0.00217799 0.0196131 0.046948 
v -0.00178031 0.0196459 0.047198 
v -0.00194216 0.0198365 0.046948 
v -0.00154326 0.0198261 0.047198 
v -0.00168356 0.0200331 0.046948 
v -0.00128812 0.0199797 0.047198 
v -0.00140523 0.0202005 0.046948 
v -0.00101788 0.0201047 0.047198 
v -0.00111041 0.0203369 0.046948 
v -0.000735703 0.0201998 0.047198 
v -0.000802585 0.0204406 0.046948 
v -0.0004449 0.0202638 0.047198 
v -0.000485346 0.0205105 0.046948 
v -0.000148882 0.020296 0.047198 
v -0.000162417 0.0205456 0.046948 
v 0.000148882 0.020296 0.047198 
v 0.000162417 0.0205456 0.046948 
v 0.0004449 0.0202638 0.047198 
v 0.000485346 0.0205105 0.046948 
v 0.000735703 0.0201998 0.047198 
v 0.000802585 0.0204406 0.046948 
v 0.00101788 0.0201047 0.047198 
v 0.00111041 0.0203369 0.046948 
v 0.00128812 0.0199797 0.047198 
v 0.00140523 0.0202005 0.046948 
v 0.00154326 0.0198261 0.047198 
v 0.00168356 0.0200331 0.046948 
v 0.00178031 0.0196459 0.047198 
v 0.00194216 0.0198365 0.046948 
v 0.00199649 0.0194412 0.047198 
v 0.00217799 0.0196131 0.046948 
v 0.00218926 0.0192142 0.047198 
v 0.00238828 0.0193655 0.046948 
v 0.00235636 0.0189678 0.047198 
v 0.00257057 0.0190967 0.046948 
v 0.00249583 0.0187047 0.047198 
v 0.00272273 0.0188097 0.046948 
v 0.00260605 0.0184281 0.047198 
v 0.00284296 0.0185079 0.046948 
v 0.00268571 0.0181412 0.047198 
v 0.00292986 0.0181949 0.046948 
v 0.00273388 0.0178473 0.047198 
v 0.00298241 0.0178744 0.046948 
v 0.00275 0.01755 0.047198 
v 0.003 0.01755 0.046948 
vn -0.707107 1.47196e-16 0.707107 
vn -0.707107 1.47196e-16 0.707107 
vn -0.702962 0.0764517 0.707107 
vn -0.702962 0.0764517 0.707107 
vn -0.690575 0.152007 0.707107 
vn -0.690575 0.152007 0.707107 
vn -0.670092 0.22578 0.707107 
vn -0.670092 0.22578 0.707107 
vn -0.641753 0.296906 0.707107 
vn -0.641753 0.296906 0.707107 
vn -0.60589 0.364552 0.707107 
vn -0.60589 0.364552 0.707107 
vn -0.562923 0.427923 0.707107 
vn -0.562923 0.427923 0.707107 
vn -0.513356 0.486277 0.707107 
vn -0.513356 0.486277 0.707107 
vn -0.457771 0.53893 0.707107 
vn -0.457771 0.53893 0.707107 
vn -0.396819 0.585265 0.707107 
vn -0.396819 0.585265 0.707107 
vn -0.331215 0.624737 0.707107 
vn -0.331215 0.624737 0.707107 
vn -0.261727 0.656886 0.707107 
vn -0.261727 0.656886 0.707107 
vn -0.189171 0.681333 0.707107 
vn -0.189171 0.681333 0.707107 
vn -0.114397 0.697792 0.707107 
vn -0.114397 0.697792 0.707107 
vn -0.038282 0.70607 0.707107 
vn -0.038282 0.70607 0.707107 
vn 0.038282 0.70607 0.707107 
vn 0.038282 0.70607 0.707107 
vn 0.114397 0.697792 0.707107 
vn 0.114397 0.697792 0.707107 
vn 0.189171 0.681333 0.707107 
vn 0.189171 0.681333 0.707107 
vn 0.261727 0.656886 0.707107 
vn 0.261727 0.656886 0.707107 
vn 0.331215 0.624737 0.707107 
vn 0.331215 0.624737 0.707107 
vn 0.396819 0.585265 0.707107 
vn 0.396819 0.585265 0.707107 
vn 0.457771 0.53893 0.707107 
vn 0.457771 0.53893 0.707107 
vn 0.513356 0.486277 0.707107 
vn 0.513356 0.486277 0.707107 
vn 0.562923 0.427923 0.707107 
vn 0.562923 0.427923 0.707107 
vn 0.60589 0.364552 0.707107 
vn 0.60589 0.364552 0.707107 
vn 0.641753 0.296906 0.707107 
vn 0.641753 0.296906 0.707107 
vn 0.670092 0.22578 0.707107 
vn 0.670092 0.22578 0.707107 
vn 0.690575 0.152007 0.707107 
vn 0.690575 0.152007 0.707107 
vn 0.702962 0.0764517 0.707107 
vn 0.702962 0.0764517 0.707107 
vn 0.707107 -1.47196e-16 0.707107 
vn 0.707107 -1.47196e-16 0.707107 
f 119//119 120//120 121//121 
f 122//122 121//121 123//123 
f 124//124 123//123 125//125 
f 126//126 125//125 127//127 
f 128//128 127//127 129//129 
f 130//130 129//129 131//131 
f 132//132 131//131 133//133 
f 134//134 133//133 135//135 
f 136//136 135//135 137//137 
f 138//138 137//137 139//139 
f 140//140 139//139 141//141 
f 142//142 141//141 143//143 
f 144//144 143//143 145//145 
f 146//146 145//145 147//147 
f 148//148 147//147 149//149 
f 150//150 149//149 151//151 
f 152//152 151//151 153//153 
f 154//154 153//153 155//155 
f 156//156 155//155 157//157 
f 158//158 157//157 159//159 
f 160//160 159//159 161//161 
f 162//162 161//161 163//163 
f 164//164 163//163 165//165 
f 166//166 165//165 167//167 
f 168//168 167//167 169//169 
f 170//170 169//169 171//171 
f 172//172 171//171 173//173 
f 174//174 173//173 175//175 
f 176//176 175//175 177//177 
f 177//177 178//178 176//176 
f 175//175 176//176 174//174 
f 173//173 174//174 172//172 
f 171//171 172//172 170//170 
f 169//169 170//170 168//168 
f 167//167 168//168 166//166 
f 165//165 166//166 164//164 
f 163//163 164//164 162//162 
f 161//161 162//162 160//160 
f 159//159 160//160 158//158 
f 157//157 158//158 156//156 
f 155//155 156//156 154//154 
f 153//153 154//154 152//152 
f 151//151 152//152 150//150 
f 149//149 150//150 148//148 
f 147//147 148//148 146//146 
f 145//145 146//146 144//144 
f 143//143 144//144 142//142 
f 141//141 142//142 140//140 
f 139//139 140//140 138//138 
f 137//137 138//138 136//136 
f 135//135 136//136 134//134 
f 133//133 134//134 132//132 
f 131//131 132//132 130//130 
f 129//129 130//130 128//128 
f 127//127 128//128 126//126 
f 125//125 126//126 124//124 
f 123//123 124//124 122//122 
f 121//121 122//122 119//119 
o mesh28018
v -0.003 0.01755 0.046948 
v -0.003 0.01755 0.035979 
v -0.00298241 0.0172256 0.035979 
v -0.00298241 0.0172256 0.046948 
v -0.00292986 0.0169051 0.035979 
v -0.00292986 0.0169051 0.046948 
v -0.00284296 0.0165921 0.035979 
v -0.00284296 0.0165921 0.046948 
v -0.00272273 0.0162903 0.035979 
v -0.00272273 0.0162903 0.046948 
v -0.00257057 0.0160033 0.035979 
v -0.00257057 0.0160033 0.046948 
v -0.00238828 0.0157345 0.035979 
v -0.00238828 0.0157345 0.046948 
v -0.00217799 0.0154869 0.035979 
v -0.00217799 0.0154869 0.046948 
v -0.00194216 0.0152635 0.035979 
v -0.00194216 0.0152635 0.046948 
v -0.00168356 0.0150669 0.035979 
v -0.00168356 0.0150669 0.046948 
v -0.00140523 0.0148995 0.035979 
v -0.00140523 0.0148995 0.046948 
v -0.00111041 0.0147631 0.035979 
v -0.00111041 0.0147631 0.046948 
v -0.000802585 0.0146594 0.035979 
v -0.000802585 0.0146594 0.046948 
v -0.000485346 0.0145895 0.035979 
v -0.000485346 0.0145895 0.046948 
v -0.000162417 0.0145544 0.035979 
v -0.000162417 0.0145544 0.046948 
v 0.000162417 0.0145544 0.035979 
v 0.000162417 0.0145544 0.046948 
v 0.000485346 0.0145895 0.035979 
v 0.000485346 0.0145895 0.046948 
v 0.000802585 0.0146594 0.035979 
v 0.000802585 0.0146594 0.046948 
v 0.00111041 0.0147631 0.035979 
v 0.00111041 0.0147631 0.046948 
v 0.00140523 0.0148995 0.035979 
v 0.00140523 0.0148995 0.046948 
v 0.00168356 0.0150669 0.035979 
v 0.00168356 0.0150669 0.046948 
v 0.00194216 0.0152635 0.035979 
v 0.00194216 0.0152635 0.046948 
v 0.00217799 0.0154869 0.035979 
v 0.00217799 0.0154869 0.046948 
v 0.00238828 0.0157345 0.035979 
v 0.00238828 0.0157345 0.046948 
v 0.00257057 0.0160033 0.035979 
v 0.00257057 0.0160033 0.046948 
v 0.00272273 0.0162903 0.035979 
v 0.00272273 0.0162903 0.046948 
v 0.00284296 0.0165921 0.035979 
v 0.00284296 0.0165921 0.046948 
v 0.00292986 0.0169051 0.035979 
v 0.00292986 0.0169051 0.046948 
v 0.00298241 0.0172256 0.035979 
v 0.00298241 0.0172256 0.046948 
v 0.003 0.01755 0.035979 
v 0.003 0.01755 0.046948 
vn -1 1.22465e-16 1.39834e-47 
vn -1 1.22465e-16 1.39834e-47 
vn -0.994138 -0.108119 -1.23454e-32 
vn -0.994138 -0.108119 -1.23454e-32 
vn -0.976621 -0.21497 -2.45461e-32 
vn -0.976621 -0.21497 -2.45461e-32 
vn -0.947653 -0.319302 -3.64589e-32 
vn -0.947653 -0.319302 -3.64589e-32 
vn -0.907575 -0.419889 -4.79444e-32 
vn -0.907575 -0.419889 -4.79444e-32 
vn -0.856857 -0.515554 -5.88677e-32 
vn -0.856857 -0.515554 -5.88677e-32 
vn -0.796093 -0.605174 -6.91009e-32 
vn -0.796093 -0.605174 -6.91009e-32 
vn -0.725995 -0.687699 -7.85239e-32 
vn -0.725995 -0.687699 -7.85239e-32 
vn -0.647386 -0.762162 -8.70263e-32 
vn -0.647386 -0.762162 -8.70263e-32 
vn -0.561187 -0.827689 -9.45084e-32 
vn -0.561187 -0.827689 -9.45084e-32 
vn -0.468408 -0.883512 -1.00882e-31 
vn -0.468408 -0.883512 -1.00882e-31 
vn -0.370138 -0.928977 -1.06074e-31 
vn -0.370138 -0.928977 -1.06074e-31 
vn -0.267528 -0.96355 -1.10021e-31 
vn -0.267528 -0.96355 -1.10021e-31 
vn -0.161782 -0.986827 -1.12679e-31 
vn -0.161782 -0.986827 -1.12679e-31 
vn -0.0541389 -0.998533 -1.14016e-31 
vn -0.0541389 -0.998533 -1.14016e-31 
vn 0.0541389 -0.998533 -1.14016e-31 
vn 0.0541389 -0.998533 -1.14016e-31 
vn 0.161782 -0.986827 -1.12679e-31 
vn 0.161782 -0.986827 -1.12679e-31 
vn 0.267528 -0.96355 -1.10021e-31 
vn 0.267528 -0.96355 -1.10021e-31 
vn 0.370138 -0.928977 -1.06074e-31 
vn 0.370138 -0.928977 -1.06074e-31 
vn 0.468408 -0.883512 -1.00882e-31 
vn 0.468408 -0.883512 -1.00882e-31 
vn 0.561187 -0.827689 -9.45084e-32 
vn 0.561187 -0.827689 -9.45084e-32 
vn 0.647386 -0.762162 -8.70263e-32 
vn 0.647386 -0.762162 -8.70263e-32 
vn 0.725995 -0.687699 -7.85239e-32 
vn 0.725995 -0.687699 -7.85239e-32 
vn 0.796093 -0.605174 -6.91009e-32 
vn 0.796093 -0.605174 -6.91009e-32 
vn 0.856857 -0.515554 -5.88677e-32 
vn 0.856857 -0.515554 -5.88677e-32 
vn 0.907575 -0.419889 -4.79444e-32 
vn 0.907575 -0.419889 -4.79444e-32 
vn 0.947653 -0.319302 -3.64589e-32 
vn 0.947653 -0.319302 -3.64589e-32 
vn 0.976621 -0.21497 -2.45461e-32 
vn 0.976621 -0.21497 -2.45461e-32 
vn 0.994138 -0.108119 -1.23454e-32 
vn 0.994138 -0.108119 -1.23454e-32 
vn 1 -2.44929e-16 -2.79669e-47 
vn 1 -2.44929e-16 -2.79669e-47 
f 179//179 180//180 181//181 
f 182//182 181//181 183//183 
f 184//184 183//183 185//185 
f 186//186 185//185 187//187 
f 188//188 187//187 189//189 
f 190//190 189//189 191//191 
f 192//192 191//191 193//193 
f 194//194 193//193 195//195 
f 196//196 195//195 197//197 
f 198//198 197//197 199//199 
f 200//200 199//199 201//201 
f 202//202 201//201 203//203 
f 204//204 203//203 205//205 
f 206//206 205//205 207//207 
f 208//208 207//207 209//209 
f 210//210 209//209 211//211 
f 212//212 211//211 213//213 
f 214//214 213//213 215//215 
f 216//216 215//215 217//217 
f 218//218 217//217 219//219 
f 220//220 219//219 221//221 
f 222//222 221//221 223//223 
f 224//224 223//223 225//225 
f 226//226 225//225 227//227 
f 228//228 227//227 229//229 
f 230//230 229//229 231//231 
f 232//232 231//231 233//233 
f 234//234 233//233 235//235 
f 236//236 235//235 237//237 
f 237//237 238//238 236//236 
f 235//235 236//236 234//234 
f 233//233 234//234 232//232 
f 231//231 232//232 230//230 
f 229//229 230//230 228//228 
f 227//227 228//228 226//226 
f 225//225 226//226 224//224 
f 223//223 224//224 222//222 
f 221//221 222//222 220//220 
f 219//219 220//220 218//218 
f 217//217 218//218 216//216 
f 215//215 216//216 214//214 
f 213//213 214//214 212//212 
f 211//211 212//212 210//210 
f 209//209 210//210 208//208 
f 207//207 208//208 206//206 
f 205//205 206//206 204//204 
f 203//203 204//204 202//202 
f 201//201 202//202 200//200 
f 199//199 200//200 198//198 
f 197//197 198//198 196//196 
f 195//195 196//196 194//194 
f 193//193 194//194 192//192 
f 191//191 192//192 190//190 
f 189//189 190//190 188//188 
f 187//187 188//188 186//186 
f 185//185 186//186 184//184 
f 183//183 184//184 182//182 
f 181//181 182//182 179//179 
o mesh28019
v 0.003 0.01755 0.046948 
v 0.003 0.01755 0.035979 
v 0.00298241 0.0178744 0.035979 
v 0.00298241 0.0178744 0.046948 
v 0.00292986 0.0181949 0.035979 
v 0.00292986 0.0181949 0.046948 
v 0.00284296 0.0185079 0.035979 
v 0.00284296 0.0185079 0.046948 
v 0.00272273 0.0188097 0.035979 
v 0.00272273 0.0188097 0.046948 
v 0.00257057 0.0190967 0.035979 
v 0.00257057 0.0190967 0.046948 
v 0.00238828 0.0193655 0.035979 
v 0.00238828 0.0193655 0.046948 
v 0.00217799 0.0196131 0.035979 
v 0.00217799 0.0196131 0.046948 
v 0.00194216 0.0198365 0.035979 
v 0.00194216 0.0198365 0.046948 
v 0.00168356 0.0200331 0.035979 
v 0.00168356 0.0200331 0.046948 
v 0.00140523 0.0202005 0.035979 
v 0.00140523 0.0202005 0.046948 
v 0.00111041 0.0203369 0.035979 
v 0.00111041 0.0203369 0.046948 
v 0.000802585 0.0204406 0.035979 
v 0.000802585 0.0204406 0.046948 
v 0.000485346 0.0205105 0.035979 
v 0.000485346 0.0205105 0.046948 
v 0.000162417 0.0205456 0.035979 
v 0.000162417 0.0205456 0.046948 
v -0.000162417 0.0205456 0.035979 
v -0.000162417 0.0205456 0.046948 
v -0.000485346 0.0205105 0.035979 
v -0.000485346 0.0205105 0.046948 
v -0.000802585 0.0204406 0.035979 
v -0.000802585 0.0204406 0.046948 
v -0.00111041 0.0203369 0.035979 
v -0.00111041 0.0203369 0.046948 
v -0.00140523 0.0202005 0.035979 
v -0.00140523 0.0202005 0.046948 
v -0.00168356 0.0200331 0.035979 
v -0.00168356 0.0200331 0.046948 
v -0.00194216 0.0198365 0.035979 
v -0.00194216 0.0198365 0.046948 
v -0.00217799 0.0196131 0.035979 
v -0.00217799 0.0196131 0.046948 
v -0.00238828 0.0193655 0.035979 
v -0.00238828 0.0193655 0.046948 
v -0.00257057 0.0190967 0.035979 
v -0.00257057 0.0190967 0.046948 
v -0.00272273 0.0188097 0.035979 
v -0.00272273 0.0188097 0.046948 
v -0.00284296 0.0185079 0.035979 
v -0.00284296 0.0185079 0.046948 
v -0.00292986 0.0181949 0.035979 
v -0.00292986 0.0181949 0.046948 
v -0.00298241 0.0178744 0.035979 
v -0.00298241 0.0178744 0.046948 
v -0.003 0.01755 0.035979 
v -0.003 0.01755 0.046948 
vn 1 -2.44929e-16 -2.79669e-47 
vn 1 -2.44929e-16 -2.79669e-47 
vn 0.994138 0.108119 1.23454e-32 
vn 0.994138 0.108119 1.23454e-32 
vn 0.976621 0.21497 2.45461e-32 
vn 0.976621 0.21497 2.45461e-32 
vn 0.947653 0.319302 3.64589e-32 
vn 0.947653 0.319302 3.64589e-32 
vn 0.907575 0.419889 4.79444e-32 
vn 0.907575 0.419889 4.79444e-32 
vn 0.856857 0.515554 5.88677e-32 
vn 0.856857 0.515554 5.88677e-32 
vn 0.796093 0.605174 6.91009e-32 
vn 0.796093 0.605174 6.91009e-32 
vn 0.725995 0.687699 7.85239e-32 
vn 0.725995 0.687699 7.85239e-32 
vn 0.647386 0.762162 8.70263e-32 
vn 0.647386 0.762162 8.70263e-32 
vn 0.561187 0.827689 9.45084e-32 
vn 0.561187 0.827689 9.45084e-32 
vn 0.468408 0.883512 1.00882e-31 
vn 0.468408 0.883512 1.00882e-31 
vn 0.370138 0.928977 1.06074e-31 
vn 0.370138 0.928977 1.06074e-31 
vn 0.267528 0.96355 1.10021e-31 
vn 0.267528 0.96355 1.10021e-31 
vn 0.161782 0.986827 1.12679e-31 
vn 0.161782 0.986827 1.12679e-31 
vn 0.0541389 0.998533 1.14016e-31 
vn 0.0541389 0.998533 1.14016e-31 
vn -0.0541389 0.998533 1.14016e-31 
vn -0.0541389 0.998533 1.14016e-31 
vn -0.161782 0.986827 1.12679e-31 
vn -0.161782 0.986827 1.12679e-31 
vn -0.267528 0.96355 1.10021e-31 
vn -0.267528 0.96355 1.10021e-31 
vn -0.370138 0.928977 1.06074e-31 
vn -0.370138 0.928977 1.06074e-31 
vn -0.468408 0.883512 1.00882e-31 
vn -0.468408 0.883512 1.00882e-31 
vn -0.561187 0.827689 9.45084e-32 
vn -0.561187 0.827689 9.45084e-32 
vn -0.647386 0.762162 8.70263e-32 
vn -0.647386 0.762162 8.70263e-32 
vn -0.725995 0.687699 7.85239e-32 
vn -0.725995 0.687699 7.85239e-32 
vn -0.796093 0.605174 6.91009e-32 
vn -0.796093 0.605174 6.91009e-32 
vn -0.856857 0.515554 5.88677e-32 
vn -0.856857 0.515554 5.88677e-32 
vn -0.907575 0.419889 4.79444e-32 
vn -0.907575 0.419889 4.79444e-32 
vn -0.947653 0.319302 3.64589e-32 
vn -0.947653 0.319302 3.64589e-32 
vn -0.976621 0.21497 2.45461e-32 
vn -0.976621 0.21497 2.45461e-32 
vn -0.994138 0.108119 1.23454e-32 
vn -0.994138 0.108119 1.23454e-32 
vn -1 1.22465e-16 1.39834e-47 
vn -1 1.22465e-16 1.39834e-47 
f 239//239 240//240 241//241 
f 242//242 241//241 243//243 
f 244//244 243//243 245//245 
f 246//246 245//245 247//247 
f 248//248 247//247 249//249 
f 250//250 249//249 251//251 
f 252//252 251//251 253//253 
f 254//254 253//253 255//255 
f 256//256 255//255 257//257 
f 258//258 257//257 259//259 
f 260//260 259//259 261//261 
f 262//262 261//261 263//263 
f 264//264 263//263 265//265 
f 266//266 265//265 267//267 
f 268//268 267//267 269//269 
f 270//270 269//269 271//271 
f 272//272 271//271 273//273 
f 274//274 273//273 275//275 
f 276//276 275//275 277//277 
f 278//278 277//277 279//279 
f 280//280 279//279 281//281 
f 282//282 281//281 283//283 
f 284//284 283//283 285//285 
f 286//286 285//285 287//287 
f 288//288 287//287 289//289 
f 290//290 289//289 291//291 
f 292//292 291//291 293//293 
f 294//294 293//293 295//295 
f 296//296 295//295 297//297 
f 297//297 298//298 296//296 
f 295//295 296//296 294//294 
f 293//293 294//294 292//292 
f 291//291 292//292 290//290 
f 289//289 290//290 288//288 
f 287//287 288//288 286//286 
f 285//285 286//286 284//284 
f 283//283 284//284 282//282 
f 281//281 282//282 280//280 
f 279//279 280//280 278//278 
f 277//277 278//278 276//276 
f 275//275 276//276 274//274 
f 273//273 274//274 272//272 
f 271//271 272//272 270//270 
f 269//269 270//270 268//268 
f 267//267 268//268 266//266 
f 265//265 266//266 264//264 
f 263//263 264//264 262//262 
f 261//261 262//262 260//260 
f 259//259 260//260 258//258 
f 257//257 258//258 256//256 
f 255//255 256//256 254//254 
f 253//253 254//254 252//252 
f 251//251 252//252 250//250 
f 249//249 250//250 248//248 
f 247//247 248//248 246//246 
f 245//245 246//246 244//244 
f 243//243 244//244 242//242 
f 241//241 242//242 239//239 
o mesh28020
v -0.003 0.01755 0.035979 
v -0.00275 0.01755 0.035729 
v -0.00273388 0.0172527 0.035729 
v -0.00298241 0.0172256 0.035979 
v -0.00268571 0.0169588 0.035729 
v -0.00292986 0.0169051 0.035979 
v -0.00260605 0.0166719 0.035729 
v -0.00284296 0.0165921 0.035979 
v -0.00249583 0.0163953 0.035729 
v -0.00272273 0.0162903 0.035979 
v -0.00235636 0.0161322 0.035729 
v -0.00257057 0.0160033 0.035979 
v -0.00218926 0.0158858 0.035729 
v -0.00238828 0.0157345 0.035979 
v -0.00199649 0.0156588 0.035729 
v -0.00217799 0.0154869 0.035979 
v -0.00178031 0.0154541 0.035729 
v -0.00194216 0.0152635 0.035979 
v -0.00154326 0.0152739 0.035729 
v -0.00168356 0.0150669 0.035979 
v -0.00128812 0.0151203 0.035729 
v -0.00140523 0.0148995 0.035979 
v -0.00101788 0.0149953 0.035729 
v -0.00111041 0.0147631 0.035979 
v -0.000735703 0.0149002 0.035729 
v -0.000802585 0.0146594 0.035979 
v -0.0004449 0.0148362 0.035729 
v -0.000485346 0.0145895 0.035979 
v -0.000148882 0.014804 0.035729 
v -0.000162417 0.0145544 0.035979 
v 0.000148882 0.014804 0.035729 
v 0.000162417 0.0145544 0.035979 
v 0.0004449 0.0148362 0.035729 
v 0.000485346 0.0145895 0.035979 
v 0.000735703 0.0149002 0.035729 
v 0.000802585 0.0146594 0.035979 
v 0.00101788 0.0149953 0.035729 
v 0.00111041 0.0147631 0.035979 
v 0.00128812 0.0151203 0.035729 
v 0.00140523 0.0148995 0.035979 
v 0.00154326 0.0152739 0.035729 
v 0.00168356 0.0150669 0.035979 
v 0.00178031 0.0154541 0.035729 
v 0.00194216 0.0152635 0.035979 
v 0.00199649 0.0156588 0.035729 
v 0.00217799 0.0154869 0.035979 
v 0.00218926 0.0158858 0.035729 
v 0.00238828 0.0157345 0.035979 
v 0.00235636 0.0161322 0.035729 
v 0.00257057 0.0160033 0.035979 
v 0.00249583 0.0163953 0.035729 
v 0.00272273 0.0162903 0.035979 
v 0.00260605 0.0166719 0.035729 
v 0.00284296 0.0165921 0.035979 
v 0.00268571 0.0169588 0.035729 
v 0.00292986 0.0169051 0.035979 
v 0.00273388 0.0172527 0.035729 
v 0.00298241 0.0172256 0.035979 
v 0.00275 0.01755 0.035729 
v 0.003 0.01755 0.035979 
vn -0.707107 8.65956e-17 -0.707107 
vn -0.707107 8.65956e-17 -0.707107 
vn -0.702962 -0.0764517 -0.707107 
vn -0.702962 -0.0764517 -0.707107 
vn -0.690575 -0.152007 -0.707107 
vn -0.690575 -0.152007 -0.707107 
vn -0.670092 -0.22578 -0.707107 
vn -0.670092 -0.22578 -0.707107 
vn -0.641753 -0.296906 -0.707107 
vn -0.641753 -0.296906 -0.707107 
vn -0.60589 -0.364552 -0.707107 
vn -0.60589 -0.364552 -0.707107 
vn -0.562923 -0.427923 -0.707107 
vn -0.562923 -0.427923 -0.707107 
vn -0.513356 -0.486277 -0.707107 
vn -0.513356 -0.486277 -0.707107 
vn -0.457771 -0.53893 -0.707107 
vn -0.457771 -0.53893 -0.707107 
vn -0.396819 -0.585265 -0.707107 
vn -0.396819 -0.585265 -0.707107 
vn -0.331215 -0.624737 -0.707107 
vn -0.331215 -0.624737 -0.707107 
vn -0.261727 -0.656886 -0.707107 
vn -0.261727 -0.656886 -0.707107 
vn -0.189171 -0.681333 -0.707107 
vn -0.189171 -0.681333 -0.707107 
vn -0.114397 -0.697792 -0.707107 
vn -0.114397 -0.697792 -0.707107 
vn -0.038282 -0.70607 -0.707107 
vn -0.038282 -0.70607 -0.707107 
vn 0.038282 -0.70607 -0.707107 
vn 0.038282 -0.70607 -0.707107 
vn 0.114397 -0.697792 -0.707107 
vn 0.114397 -0.697792 -0.707107 
vn 0.189171 -0.681333 -0.707107 
vn 0.189171 -0.681333 -0.707107 
vn 0.261727 -0.656886 -0.707107 
vn 0.261727 -0.656886 -0.707107 
vn 0.331215 -0.624737 -0.707107 
vn 0.331215 -0.624737 -0.707107 
vn 0.396819 -0.585265 -0.707107 
vn 0.396819 -0.585265 -0.707107 
vn 0.457771 -0.53893 -0.707107 
vn 0.457771 -0.53893 -0.707107 
vn 0.513356 -0.486277 -0.707107 
vn 0.513356 -0.486277 -0.707107 
vn 0.562923 -0.427923 -0.707107 
vn 0.562923 -0.427923 -0.707107 
vn 0.60589 -0.364552 -0.707107 
vn 0.60589 -0.364552 -0.707107 
vn 0.641753 -0.296906 -0.707107 
vn 0.641753 -0.296906 -0.707107 
vn 0.670092 -0.22578 -0.707107 
vn 0.670092 -0.22578 -0.707107 
vn 0.690575 -0.152007 -0.707107 
vn 0.690575 -0.152007 -0.707107 
vn 0.702962 -0.0764517 -0.707107 
vn 0.702962 -0.0764517 -0.707107 
vn 0.707107 1.47196e-16 -0.707107 
vn 0.707107 1.47196e-16 -0.707107 
f 299//299 300//300 301//301 
f 302//302 301//301 303//303 
f 304//304 303//303 305//305 
f 306//306 305//305 307//307 
f 308//308 307//307 309//309 
f 310//310 309//309 311//311 
f 312//312 311//311 313//313 
f 314//314 313//313 315//315 
f 316//316 315//315 317//317 
f 318//318 317//317 319//319 
f 320//320 319//319 321//321 
f 322//322 321//321 323//323 
f 324//324 323//323 325//325 
f 326//326 325//325 327//327 
f 328//328 327//327 329//329 
f 330//330 329//329 331//331 
f 332//332 331//331 333//333 
f 334//334 333//333 335//335 
f 336//336 335//335 337//337 
f 338//338 337//337 339//339 
f 340//340 339//339 341//341 
f 342//342 341//341 343//343 
f 344//344 343//343 345//345 
f 346//346 345//345 347//347 
f 348//348 347//347 349//349 
f 350//350 349//349 351//351 
f 352//352 351//351 353//353 
f 354//354 353//353 355//355 
f 356//356 355//355 357//357 
f 357//357 358//358 356//356 
f 355//355 356//356 354//354 
f 353//353 354//354 352//352 
f 351//351 352//352 350//350 
f 349//349 350//350 348//348 
f 347//347 348//348 346//346 
f 345//345 346//346 344//344 
f 343//343 344//344 342//342 
f 341//341 342//342 340//340 
f 339//339 340//340 338//338 
f 337//337 338//338 336//336 
f 335//335 336//336 334//334 
f 333//333 334//334 332//332 
f 331//331 332//332 330//330 
f 329//329 330//330 328//328 
f 327//327 328//328 326//326 
f 325//325 326//326 324//324 
f 323//323 324//324 322//322 
f 321//321 322//322 320//320 
f 319//319 320//320 318//318 
f 317//317 318//318 316//316 
f 315//315 316//316 314//314 
f 313//313 314//314 312//312 
f 311//311 312//312 310//310 
f 309//309 310//310 308//308 
f 307//307 308//308 306//306 
f 305//305 306//306 304//304 
f 303//303 304//304 302//302 
f 301//301 302//302 299//299 
o mesh28021
v 0.003 0.01755 0.035979 
v 0.00275 0.01755 0.035729 
v 0.00273388 0.0178473 0.035729 
v 0.00298241 0.0178744 0.035979 
v 0.00268571 0.0181412 0.035729 
v 0.00292986 0.0181949 0.035979 
v 0.00260605 0.0184281 0.035729 
v 0.00284296 0.0185079 0.035979 
v 0.00249583 0.0187047 0.035729 
v 0.00272273 0.0188097 0.035979 
v 0.00235636 0.0189678 0.035729 
v 0.00257057 0.0190967 0.035979 
v 0.00218926 0.0192142 0.035729 
v 0.00238828 0.0193655 0.035979 
v 0.00199649 0.0194412 0.035729 
v 0.00217799 0.0196131 0.035979 
v 0.00178031 0.0196459 0.035729 
v 0.00194216 0.0198365 0.035979 
v 0.00154326 0.0198261 0.035729 
v 0.00168356 0.0200331 0.035979 
v 0.00128812 0.0199797 0.035729 
v 0.00140523 0.0202005 0.035979 
v 0.00101788 0.0201047 0.035729 
v 0.00111041 0.0203369 0.035979 
v 0.000735703 0.0201998 0.035729 
v 0.000802585 0.0204406 0.035979 
v 0.0004449 0.0202638 0.035729 
v 0.000485346 0.0205105 0.035979 
v 0.000148882 0.020296 0.035729 
v 0.000162417 0.0205456 0.035979 
v -0.000148882 0.020296 0.035729 
v -0.000162417 0.0205456 0.035979 
v -0.0004449 0.0202638 0.035729 
v -0.000485346 0.0205105 0.035979 
v -0.000735703 0.0201998 0.035729 
v -0.000802585 0.0204406 0.035979 
v -0.00101788 0.0201047 0.035729 
v -0.00111041 0.0203369 0.035979 
v -0.00128812 0.0199797 0.035729 
v -0.00140523 0.0202005 0.035979 
v -0.00154326 0.0198261 0.035729 
v -0.00168356 0.0200331 0.035979 
v -0.00178031 0.0196459 0.035729 
v -0.00194216 0.0198365 0.035979 
v -0.00199649 0.0194412 0.035729 
v -0.00217799 0.0196131 0.035979 
v -0.00218926 0.0192142 0.035729 
v -0.00238828 0.0193655 0.035979 
v -0.00235636 0.0189678 0.035729 
v -0.00257057 0.0190967 0.035979 
v -0.00249583 0.0187047 0.035729 
v -0.00272273 0.0188097 0.035979 
v -0.00260605 0.0184281 0.035729 
v -0.00284296 0.0185079 0.035979 
v -0.00268571 0.0181412 0.035729 
v -0.00292986 0.0181949 0.035979 
v -0.00273388 0.0178473 0.035729 
v -0.00298241 0.0178744 0.035979 
v -0.00275 0.01755 0.035729 
v -0.003 0.01755 0.035979 
vn 0.707107 1.47196e-16 -0.707107 
vn 0.707107 1.47196e-16 -0.707107 
vn 0.702962 0.0764517 -0.707107 
vn 0.702962 0.0764517 -0.707107 
vn 0.690575 0.152007 -0.707107 
vn 0.690575 0.152007 -0.707107 
vn 0.670092 0.22578 -0.707107 
vn 0.670092 0.22578 -0.707107 
vn 0.641753 0.296906 -0.707107 
vn 0.641753 0.296906 -0.707107 
vn 0.60589 0.364552 -0.707107 
vn 0.60589 0.364552 -0.707107 
vn 0.562923 0.427923 -0.707107 
vn 0.562923 0.427923 -0.707107 
vn 0.513356 0.486277 -0.707107 
vn 0.513356 0.486277 -0.707107 
vn 0.457771 0.53893 -0.707107 
vn 0.457771 0.53893 -0.707107 
vn 0.396819 0.585265 -0.707107 
vn 0.396819 0.585265 -0.707107 
vn 0.331215 0.624737 -0.707107 
vn 0.331215 0.624737 -0.707107 
vn 0.261727 0.656886 -0.707107 
vn 0.261727 0.656886 -0.707107 
vn 0.189171 0.681333 -0.707107 
vn 0.189171 0.681333 -0.707107 
vn 0.114397 0.697792 -0.707107 
vn 0.114397 0.697792 -0.707107 
vn 0.038282 0.70607 -0.707107 
vn 0.038282 0.70607 -0.707107 
vn -0.038282 0.70607 -0.707107 
vn -0.038282 0.70607 -0.707107 
vn -0.114397 0.697792 -0.707107 
vn -0.114397 0.697792 -0.707107 
vn -0.189171 0.681333 -0.707107 
vn -0.189171 0.681333 -0.707107 
vn -0.261727 0.656886 -0.707107 
vn -0.261727 0.656886 -0.707107 
vn -0.331215 0.624737 -0.707107 
vn -0.331215 0.624737 -0.707107 
vn -0.396819 0.585265 -0.707107 
vn -0.396819 0.585265 -0.707107 
vn -0.457771 0.53893 -0.707107 
vn -0.457771 0.53893 -0.707107 
vn -0.513356 0.486277 -0.707107 
vn -0.513356 0.486277 -0.707107 
vn -0.562923 0.427923 -0.707107 
vn -0.562923 0.427923 -0.707107 
vn -0.60589 0.364552 -0.707107 
vn -0.60589 0.364552 -0.707107 
vn -0.641753 0.296906 -0.707107 
vn -0.641753 0.296906 -0.707107 
vn -0.670092 0.22578 -0.707107 
vn -0.670092 0.22578 -0.707107 
vn -0.690575 0.152007 -0.707107 
vn -0.690575 0.152007 -0.707107 
vn -0.702962 0.0764517 -0.707107 
vn -0.702962 0.0764517 -0.707107 
vn -0.707107 -1.47196e-16 -0.707107 
vn -0.707107 -1.47196e-16 -0.707107 
f 359//359 360//360 361//361 
f 362//362 361//361 363//363 
f 364//364 363//363 365//365 
f 366//366 365//365 367//367 
f 368//368 367//367 369//369 
f 370//370 369//369 371//371 
f 372//372 371//371 373//373 
f 374//374 373//373 375//375 
f 376//376 375//375 377//377 
f 378//378 377//377 379//379 
f 380//380 379//379 381//381 
f 382//382 381//381 383//383 
f 384//384 383//383 385//385 
f 386//386 385//385 387//387 
f 388//388 387//387 389//389 
f 390//390 389//389 391//391 
f 392//392 391//391 393//393 
f 394//394 393//393 395//395 
f 396//396 395//395 397//397 
f 398//398 397//397 399//399 
f 400//400 399//399 401//401 
f 402//402 401//401 403//403 
f 404//404 403//403 405//405 
f 406//406 405//405 407//407 
f 408//408 407//407 409//409 
f 410//410 409//409 411//411 
f 412//412 411//411 413//413 
f 414//414 413//413 415//415 
f 416//416 415//415 417//417 
f 417//417 418//418 416//416 
f 415//415 416//416 414//414 
f 413//413 414//414 412//412 
f 411//411 412//412 410//410 
f 409//409 410//410 408//408 
f 407//407 408//408 406//406 
f 405//405 406//406 404//404 
f 403//403 404//404 402//402 
f 401//401 402//402 400//400 
f 399//399 400//400 398//398 
f 397//397 398//398 396//396 
f 395//395 396//396 394//394 
f 393//393 394//394 392//392 
f 391//391 392//392 390//390 
f 389//389 390//390 388//388 
f 387//387 388//388 386//386 
f 385//385 386//386 384//384 
f 383//383 384//384 382//382 
f 381//381 382//382 380//380 
f 379//379 380//380 378//378 
f 377//377 378//378 376//376 
f 375//375 376//376 374//374 
f 373//373 374//374 372//372 
f 371//371 372//372 370//370 
f 369//369 370//370 368//368 
f 367//367 368//368 366//366 
f 365//365 366//366 364//364 
f 363//363 364//364 362//362 
f 361//361 362//362 359//359 
o mesh28022
v 0.00260605 0.0166719 0.035729 
v 0.00273388 0.0178473 0.035729 
v 0.00275 0.01755 0.035729 
v 0.00273388 0.0172527 0.035729 
v -0.00178031 0.0154541 0.035729 
v -0.00249583 0.0163953 0.035729 
v -0.00260605 0.0166719 0.035729 
v 0.00268571 0.0181412 0.035729 
v 0.00249583 0.0187047 0.035729 
v 0.00260605 0.0184281 0.035729 
v 0.00218926 0.0192142 0.035729 
v 0.00235636 0.0189678 0.035729 
v 0.00178031 0.0196459 0.035729 
v 0.00199649 0.0194412 0.035729 
v -0.00275 0.01755 0.035729 
v -0.00273388 0.0178473 0.035729 
v -0.00268571 0.0169588 0.035729 
v -0.00273388 0.0172527 0.035729 
v -0.00235636 0.0161322 0.035729 
v -0.00199649 0.0156588 0.035729 
v 0.00128812 0.0199797 0.035729 
v 0.00154326 0.0198261 0.035729 
v 0.000735703 0.0201998 0.035729 
v 0.00101788 0.0201047 0.035729 
v -0.00260605 0.0184281 0.035729 
v -0.00249583 0.0187047 0.035729 
v -0.00218926 0.0158858 0.035729 
v 0.00249583 0.0163953 0.035729 
v 0.00235636 0.0161322 0.035729 
v -0.00268571 0.0181412 0.035729 
v 0.00218926 0.0158858 0.035729 
v 0.00199649 0.0156588 0.035729 
v 0.00154326 0.0152739 0.035729 
v 0.000148882 0.020296 0.035729 
v 0.0004449 0.0202638 0.035729 
v -0.00235636 0.0189678 0.035729 
v -0.00128812 0.0151203 0.035729 
v -0.00154326 0.0152739 0.035729 
v -0.00154326 0.0198261 0.035729 
v 0.0004449 0.0148362 0.035729 
v 0.000148882 0.014804 0.035729 
v 0.00101788 0.0149953 0.035729 
v 0.000735703 0.0149002 0.035729 
v 0.00178031 0.0154541 0.035729 
v 0.00268571 0.0169588 0.035729 
v -0.000148882 0.020296 0.035729 
v -0.000735703 0.0201998 0.035729 
v -0.0004449 0.0202638 0.035729 
v -0.00218926 0.0192142 0.035729 
v -0.000735703 0.0149002 0.035729 
v -0.00101788 0.0149953 0.035729 
v -0.000148882 0.014804 0.035729 
v -0.0004449 0.0148362 0.035729 
v 0.00128812 0.0151203 0.035729 
v -0.00128812 0.0199797 0.035729 
v -0.00199649 0.0194412 0.035729 
v -0.00178031 0.0196459 0.035729 
v -0.00101788 0.0201047 0.035729 
vn 6.30971e-30 1.14183e-31 -1 
vn 6.30971e-30 1.14183e-31 -1 
vn 6.30971e-30 1.14183e-31 -1 
vn 6.30971e-30 1.14183e-31 -1 
vn 6.30971e-30 1.14183e-31 -1 
vn 6.30971e-30 1.14183e-31 -1 
vn 6.30971e-30 1.14183e-31 -1 
vn 6.30971e-30 1.14183e-31 -1 
vn 6.30971e-30 1.14183e-31 -1 
vn 6.30971e-30 1.14183e-31 -1 
vn 6.30971e-30 1.14183e-31 -1 
vn 6.30971e-30 1.14183e-31 -1 
vn 6.30971e-30 1.14183e-31 -1 
vn 6.30971e-30 1.14183e-31 -1 
vn 6.30971e-30 1.14183e-31 -1 
vn 6.30971e-30 1.14183e-31 -1 
vn 6.30971e-30 1.14183e-31 -1 
vn 6.30971e-30 1.14183e-31 -1 
vn 6.30971e-30 1.14183e-31 -1 
vn 6.30971e-30 1.14183e-31 -1 
vn 6.30971e-30 1.14183e-31 -1 
vn 6.30971e-30 1.14183e-31 -1 
vn 6.30971e-30 1.14183e-31 -1 
vn 6.30971e-30 1.14183e-31 -1 
vn 6.30971e-30 1.14183e-31 -1 
vn 6.30971e-30 1.14183e-31 -1 
vn 6.30971e-30 1.14183e-31 -1 
vn 6.30971e-30 1.14183e-31 -1 
vn 6.30971e-30 1.14183e-31 -1 
vn 6.30971e-30 1.14183e-31 -1 
vn 6.30971e-30 1.14183e-31 -1 
vn 6.30971e-30 1.14183e-31 -1 
vn 6.30971e-30 1.14183e-31 -1 
vn 6.30971e-30 1.14183e-31 -1 
vn 6.30971e-30 1.14183e-31 -1 
vn 6.30971e-30 1.14183e-31 -1 
vn 6.30971e-30 1.14183e-31 -1 
vn 6.30971e-30 1.14183e-31 -1 
vn 6.30971e-30 1.14183e-31 -1 
vn 6.30971e-30 1.14183e-31 -1 
vn 6.30971e-30 1.14183e-31 -1 
vn 6.30971e-30 1.14183e-31 -1 
vn 6.30971e-30 1.14183e-31 -1 
vn 6.30971e-30 1.14183e-31 -1 
vn 6.30971e-30 1.14183e-31 -1 
vn 6.30971e-30 1.14183e-31 -1 
vn 6.30971e-30 1.14183e-31 -1 
vn 6.30971e-30 1.14183e-31 -1 
vn 6.30971e-30 1.14183e-31 -1 
vn 6.30971e-30 1.14183e-31 -1 
vn 6.30971e-30 1.14183e-31 -1 
vn 6.30971e-30 1.14183e-31 -1 
vn 6.30971e-30 1.14183e-31 -1 
vn 6.30971e-30 1.14183e-31 -1 
vn 6.30971e-30 1.14183e-31 -1 
vn 6.30971e-30 1.14183e-31 -1 
vn 6.30971e-30 1.14183e-31 -1 
vn 6.30971e-30 1.14183e-31 -1 
f 419//419 420//420 421//421 
f 421//421 422//422 419//419 
f 423//423 424//424 425//425 
f 419//419 426//426 420//420 
f 419//419 427//427 428//428 
f 419//419 429//429 430//430 
f 419//419 431//431 432//432 
f 423//423 433//433 434//434 
f 423//423 435//435 436//436 
f 423//423 437//437 424//424 
f 437//437 423//423 438//438 
f 428//428 426//426 419//419 
f 432//432 429//429 419//419 
f 419//419 439//439 440//440 
f 419//419 441//441 442//442 
f 423//423 443//443 444//444 
f 436//436 433//433 423//423 
f 438//438 445//445 437//437 
f 441//441 446//446 447//447 
f 430//430 427//427 419//419 
f 442//442 439//439 419//419 
f 423//423 448//448 443//443 
f 425//425 435//435 423//423 
f 441//441 449//449 450//450 
f 441//441 419//419 446//446 
f 440//440 431//431 419//419 
f 451//451 452//452 453//453 
f 434//434 448//448 423//423 
f 454//454 455//455 456//456 
f 457//457 458//458 459//459 
f 457//457 460//460 461//461 
f 450//450 462//462 441//441 
f 422//422 463//463 419//419 
f 451//451 464//464 452//452 
f 451//451 465//465 466//466 
f 455//455 454//454 467//467 
f 456//456 423//423 454//454 
f 457//457 468//468 469//469 
f 457//457 470//470 471//471 
f 461//461 458//458 457//457 
f 457//457 451//451 472//472 
f 447//447 449//449 441//441 
f 466//466 464//464 451//451 
f 451//451 457//457 473//473 
f 455//455 474//474 475//475 
f 444//444 454//454 423//423 
f 471//471 468//468 457//457 
f 472//472 460//460 457//457 
f 453//453 441//441 451//451 
f 473//473 476//476 451//451 
f 467//467 474//474 455//455 
f 459//459 470//470 457//457 
f 476//476 465//465 451//451 
f 469//469 455//455 457//457 
f 475//475 457//457 455//455 
f 462//462 451//451 441//441 
