# OBJ generated by ONSHAPE BY PTC INC, 1.215 Units = meters
mtllib REV_21_2108_P02_1_solid1.mtl
g REV-21-2108-P02-1-solid1
usemtl 0.796078_0.823529_0.937255_0.000000_0.000000
o mesh24513
v -0.00475675 0.0019687 0.004278 
v -0.00309254 0.00085947 0.004278 
v -0.00308929 0.000864348 0.00438612 
v -0.0047535 0.00197358 0.00438612 
v -0.00307957 0.000878925 0.00449297 
v -0.00474379 0.00198816 0.00449297 
v -0.00306351 0.000903029 0.0045973 
v -0.00472772 0.00201226 0.0045973 
v -0.00304128 0.000936377 0.00469789 
v -0.00470549 0.00204561 0.00469789 
v -0.00301315 0.00097858 0.00479355 
v -0.00467737 0.00208781 0.00479355 
v -0.00297945 0.00102914 0.00488317 
v -0.00464366 0.00213837 0.00488317 
v -0.00294057 0.00108747 0.0049657 
v -0.00460479 0.0021967 0.0049657 
v -0.00289698 0.00115288 0.00504016 
v -0.00456119 0.00226211 0.00504016 
v -0.00284917 0.00122461 0.00510569 
v -0.00451338 0.00233384 0.00510569 
v -0.00279771 0.00130181 0.00516151 
v -0.00446193 0.00241104 0.00516151 
v -0.00274321 0.00138358 0.00520698 
v -0.00440742 0.00249281 0.00520698 
v -0.0026863 0.00146896 0.00524155 
v -0.00435051 0.0025782 0.00524155 
v -0.00262765 0.00155696 0.00526483 
v -0.00429187 0.00266619 0.00526483 
v -0.00256795 0.00164653 0.00527653 
v -0.00423217 0.00275576 0.00527653 
v -0.0025079 0.00173663 0.00527653 
v -0.00417211 0.00284586 0.00527653 
v -0.0024482 0.0018262 0.00526483 
v -0.00411241 0.00293543 0.00526483 
v -0.00238955 0.00191419 0.00524155 
v -0.00405376 0.00302342 0.00524155 
v -0.00233264 0.00199957 0.00520698 
v -0.00399685 0.0031088 0.00520698 
v -0.00227814 0.00208134 0.00516151 
v -0.00394235 0.00319057 0.00516151 
v -0.00222668 0.00215854 0.00510569 
v -0.0038909 0.00326778 0.00510569 
v -0.00217888 0.00223027 0.00504016 
v -0.00384309 0.0033395 0.00504016 
v -0.00213528 0.00229568 0.0049657 
v -0.00379949 0.00340491 0.0049657 
v -0.0020964 0.00235401 0.00488317 
v -0.00376061 0.00346324 0.00488317 
v -0.0020627 0.00240457 0.00479355 
v -0.00372691 0.0035138 0.00479355 
v -0.00203457 0.00244678 0.00469789 
v -0.00369878 0.00355601 0.00469789 
v -0.00201234 0.00248013 0.0045973 
v -0.00367656 0.00358936 0.0045973 
v -0.00199628 0.00250423 0.00449297 
v -0.00366049 0.00361346 0.00449297 
v -0.00198656 0.00251881 0.00438612 
v -0.00365077 0.00362804 0.00438612 
v -0.00198331 0.00252368 0.004278 
v -0.00364752 0.00363291 0.004278 
vn -0.554615 -0.832107 -6.12323e-17 
vn -0.554615 -0.832107 -6.12323e-17 
vn -0.551364 -0.827229 0.108119 
vn -0.551364 -0.827229 0.108119 
vn -0.541649 -0.812653 0.21497 
vn -0.541649 -0.812653 0.21497 
vn -0.525583 -0.788549 0.319302 
vn -0.525583 -0.788549 0.319302 
vn -0.503355 -0.7552 0.419889 
vn -0.503355 -0.7552 0.419889 
vn -0.475226 -0.712997 0.515554 
vn -0.475226 -0.712997 0.515554 
vn -0.441526 -0.662434 0.605174 
vn -0.441526 -0.662434 0.605174 
vn -0.402648 -0.604106 0.687699 
vn -0.402648 -0.604106 0.687699 
vn -0.35905 -0.538695 0.762162 
vn -0.35905 -0.538695 0.762162 
vn -0.311243 -0.466968 0.827689 
vn -0.311243 -0.466968 0.827689 
vn -0.259787 -0.389766 0.883512 
vn -0.259787 -0.389766 0.883512 
vn -0.205284 -0.307994 0.928977 
vn -0.205284 -0.307994 0.928977 
vn -0.148375 -0.222612 0.96355 
vn -0.148375 -0.222612 0.96355 
vn -0.0897268 -0.13462 0.986827 
vn -0.0897268 -0.13462 0.986827 
vn -0.0300263 -0.0450494 0.998533 
vn -0.0300263 -0.0450494 0.998533 
vn 0.0300263 0.0450494 0.998533 
vn 0.0300263 0.0450494 0.998533 
vn 0.0897268 0.13462 0.986827 
vn 0.0897268 0.13462 0.986827 
vn 0.148375 0.222612 0.96355 
vn 0.148375 0.222612 0.96355 
vn 0.205284 0.307994 0.928977 
vn 0.205284 0.307994 0.928977 
vn 0.259787 0.389766 0.883512 
vn 0.259787 0.389766 0.883512 
vn 0.311243 0.466968 0.827689 
vn 0.311243 0.466968 0.827689 
vn 0.35905 0.538695 0.762162 
vn 0.35905 0.538695 0.762162 
vn 0.402648 0.604106 0.687699 
vn 0.402648 0.604106 0.687699 
vn 0.441526 0.662434 0.605174 
vn 0.441526 0.662434 0.605174 
vn 0.475226 0.712997 0.515554 
vn 0.475226 0.712997 0.515554 
vn 0.503355 0.7552 0.419889 
vn 0.503355 0.7552 0.419889 
vn 0.525583 0.788549 0.319302 
vn 0.525583 0.788549 0.319302 
vn 0.541649 0.812653 0.21497 
vn 0.541649 0.812653 0.21497 
vn 0.551364 0.827229 0.108119 
vn 0.551364 0.827229 0.108119 
vn 0.554615 0.832107 1.83697e-16 
vn 0.554615 0.832107 1.83697e-16 
f 1//1 2//2 3//3 
f 4//4 3//3 5//5 
f 6//6 5//5 7//7 
f 8//8 7//7 9//9 
f 10//10 9//9 11//11 
f 12//12 11//11 13//13 
f 14//14 13//13 15//15 
f 16//16 15//15 17//17 
f 18//18 17//17 19//19 
f 20//20 19//19 21//21 
f 22//22 21//21 23//23 
f 24//24 23//23 25//25 
f 26//26 25//25 27//27 
f 28//28 27//27 29//29 
f 30//30 29//29 31//31 
f 32//32 31//31 33//33 
f 34//34 33//33 35//35 
f 36//36 35//35 37//37 
f 38//38 37//37 39//39 
f 40//40 39//39 41//41 
f 42//42 41//41 43//43 
f 44//44 43//43 45//45 
f 46//46 45//45 47//47 
f 48//48 47//47 49//49 
f 50//50 49//49 51//51 
f 52//52 51//51 53//53 
f 54//54 53//53 55//55 
f 56//56 55//55 57//57 
f 58//58 57//57 59//59 
f 59//59 60//60 58//58 
f 57//57 58//58 56//56 
f 55//55 56//56 54//54 
f 53//53 54//54 52//52 
f 51//51 52//52 50//50 
f 49//49 50//50 48//48 
f 47//47 48//48 46//46 
f 45//45 46//46 44//44 
f 43//43 44//44 42//42 
f 41//41 42//42 40//40 
f 39//39 40//40 38//38 
f 37//37 38//38 36//36 
f 35//35 36//36 34//34 
f 33//33 34//34 32//32 
f 31//31 32//32 30//30 
f 29//29 30//30 28//28 
f 27//27 28//28 26//26 
f 25//25 26//26 24//24 
f 23//23 24//24 22//22 
f 21//21 22//22 20//20 
f 19//19 20//20 18//18 
f 17//17 18//18 16//16 
f 15//15 16//16 14//14 
f 13//13 14//14 12//12 
f 11//11 12//12 10//10 
f 9//9 10//10 8//8 
f 7//7 8//8 6//6 
f 5//5 6//6 4//4 
f 3//3 4//4 1//1 
o mesh24514
v -0.00198331 0.00252368 -0.002222 
v -0.00364752 0.00363291 -0.002222 
v -0.00364752 0.00363291 0.004278 
v -0.00198331 0.00252368 0.004278 
vn 0.554615 0.832107 1.83697e-16 
vn 0.554615 0.832107 1.83697e-16 
vn 0.554615 0.832107 1.83697e-16 
vn 0.554615 0.832107 1.83697e-16 
f 61//61 62//62 63//63 
f 63//63 64//64 61//61 
o mesh24515
v -0.00394235 0.00319057 0.00516151 
v -0.00417211 0.00284586 0.00527653 
v -0.00411241 0.00293543 0.00526483 
v -0.00405376 0.00302342 0.00524155 
v -0.00435051 0.0025782 0.00524155 
v -0.00429187 0.00266619 0.00526483 
v -0.00446193 0.00241104 0.00516151 
v -0.00440742 0.00249281 0.00520698 
v -0.00475675 0.0019687 -0.002222 
v -0.00465083 0.00212762 -0.00280979 
v -0.00468245 0.00208018 -0.002722 
v -0.00423217 0.00275576 0.00527653 
v -0.00472961 0.00200943 -0.00253102 
v -0.00474464 0.00198688 -0.00242991 
v -0.00470881 0.00204064 -0.00262874 
v -0.00452813 0.00231171 -0.00303102 
v -0.00457325 0.00224402 -0.00296514 
v -0.00437352 0.00254367 -0.00317306 
v -0.00442772 0.00246236 -0.00313555 
v -0.00472772 0.00201226 0.0045973 
v -0.00372691 0.0035138 0.00479355 
v -0.00369878 0.00355601 0.00469789 
v -0.00384309 0.0033395 0.00504016 
v -0.00379949 0.00340491 0.0049657 
v -0.00456119 0.00226211 0.00504016 
v -0.00451338 0.00233384 0.00510569 
v -0.00464366 0.00213837 0.00488317 
v -0.00460479 0.0021967 0.0049657 
v -0.0046143 0.00218243 -0.00289113 
v -0.00447945 0.00238475 -0.00308803 
v -0.00426011 0.00271383 -0.00321652 
v -0.00431745 0.0026278 -0.00320015 
v -0.00375345 0.003474 -0.00280979 
v -0.00378998 0.00341918 -0.00289113 
v -0.00369547 0.00356098 -0.00262874 
v -0.00372183 0.00352143 -0.002722 
v -0.00366049 0.00361346 0.00449297 
v -0.00365077 0.00362804 0.00438612 
v -0.00367656 0.00358936 0.0045973 
v -0.00376061 0.00346324 0.00488317 
v -0.0038909 0.00326778 0.00510569 
v -0.00467737 0.00208781 0.00479355 
v -0.00408683 0.00297381 -0.00320015 
v -0.00414417 0.00288779 -0.00321652 
v -0.00364752 0.00363291 -0.002222 
v -0.00365056 0.00362836 -0.00232653 
v -0.00470549 0.00204561 0.00469789 
v -0.00420214 0.00280081 -0.003222 
v -0.00387614 0.00328991 -0.00303102 
v -0.00392483 0.00321686 -0.00308803 
v -0.00367467 0.00359219 -0.00253102 
v -0.00365964 0.00361473 -0.00242991 
v -0.00364752 0.00363291 0.004278 
v -0.0047535 0.00197358 0.00438612 
v -0.00474379 0.00198816 0.00449297 
v -0.00397656 0.00313926 -0.00313555 
v -0.00403075 0.00305794 -0.00317306 
v -0.00383103 0.0033576 -0.00296514 
v -0.00399685 0.0031088 0.00520698 
v -0.00475675 0.0019687 0.004278 
v -0.00475372 0.00197326 -0.00232653 
vn -0.832107 0.554615 -3.49148e-15 
vn -0.832107 0.554615 -3.49148e-15 
vn -0.832107 0.554615 -3.49148e-15 
vn -0.832107 0.554615 -3.49148e-15 
vn -0.832107 0.554615 -3.49148e-15 
vn -0.832107 0.554615 -3.49148e-15 
vn -0.832107 0.554615 -3.49148e-15 
vn -0.832107 0.554615 -3.49148e-15 
vn -0.832107 0.554615 -3.49148e-15 
vn -0.832107 0.554615 -3.49148e-15 
vn -0.832107 0.554615 -3.49148e-15 
vn -0.832107 0.554615 -3.49148e-15 
vn -0.832107 0.554615 -3.49148e-15 
vn -0.832107 0.554615 -3.49148e-15 
vn -0.832107 0.554615 -3.49148e-15 
vn -0.832107 0.554615 -3.49148e-15 
vn -0.832107 0.554615 -3.49148e-15 
vn -0.832107 0.554615 -3.49148e-15 
vn -0.832107 0.554615 -3.49148e-15 
vn -0.832107 0.554615 -3.49148e-15 
vn -0.832107 0.554615 -3.49148e-15 
vn -0.832107 0.554615 -3.49148e-15 
vn -0.832107 0.554615 -3.49148e-15 
vn -0.832107 0.554615 -3.49148e-15 
vn -0.832107 0.554615 -3.49148e-15 
vn -0.832107 0.554615 -3.49148e-15 
vn -0.832107 0.554615 -3.49148e-15 
vn -0.832107 0.554615 -3.49148e-15 
vn -0.832107 0.554615 -3.49148e-15 
vn -0.832107 0.554615 -3.49148e-15 
vn -0.832107 0.554615 -3.49148e-15 
vn -0.832107 0.554615 -3.49148e-15 
vn -0.832107 0.554615 -3.49148e-15 
vn -0.832107 0.554615 -3.49148e-15 
vn -0.832107 0.554615 -3.49148e-15 
vn -0.832107 0.554615 -3.49148e-15 
vn -0.832107 0.554615 -3.49148e-15 
vn -0.832107 0.554615 -3.49148e-15 
vn -0.832107 0.554615 -3.49148e-15 
vn -0.832107 0.554615 -3.49148e-15 
vn -0.832107 0.554615 -3.49148e-15 
vn -0.832107 0.554615 -3.49148e-15 
vn -0.832107 0.554615 -3.49148e-15 
vn -0.832107 0.554615 -3.49148e-15 
vn -0.832107 0.554615 -3.49148e-15 
vn -0.832107 0.554615 -3.49148e-15 
vn -0.832107 0.554615 -3.49148e-15 
vn -0.832107 0.554615 -3.49148e-15 
vn -0.832107 0.554615 -3.49148e-15 
vn -0.832107 0.554615 -3.49148e-15 
vn -0.832107 0.554615 -3.49148e-15 
vn -0.832107 0.554615 -3.49148e-15 
vn -0.832107 0.554615 -3.49148e-15 
vn -0.832107 0.554615 -3.49148e-15 
vn -0.832107 0.554615 -3.49148e-15 
vn -0.832107 0.554615 -3.49148e-15 
vn -0.832107 0.554615 -3.49148e-15 
vn -0.832107 0.554615 -3.49148e-15 
vn -0.832107 0.554615 -3.49148e-15 
vn -0.832107 0.554615 -3.49148e-15 
vn -0.832107 0.554615 -3.49148e-15 
f 65//65 66//66 67//67 
f 67//67 68//68 65//65 
f 65//65 69//69 70//70 
f 65//65 71//71 72//72 
f 73//73 74//74 75//75 
f 65//65 76//76 66//66 
f 72//72 69//69 65//65 
f 73//73 77//77 78//78 
f 75//75 79//79 73//73 
f 73//73 80//80 81//81 
f 73//73 82//82 83//83 
f 84//84 85//85 86//86 
f 84//84 87//87 88//88 
f 70//70 76//76 65//65 
f 65//65 89//89 90//90 
f 65//65 91//91 92//92 
f 79//79 77//77 73//73 
f 81//81 93//93 73//73 
f 83//83 94//94 73//73 
f 73//73 95//95 96//96 
f 73//73 97//97 98//98 
f 73//73 99//99 100//100 
f 84//84 101//101 102//102 
f 86//86 103//103 84//84 
f 88//88 104//104 84//84 
f 84//84 65//65 105//105 
f 90//90 71//71 65//65 
f 65//65 106//106 91//91 
f 93//93 74//74 73//73 
f 96//96 82//82 73//73 
f 73//73 107//107 108//108 
f 100//100 97//97 73//73 
f 73//73 109//109 110//110 
f 103//103 101//101 84//84 
f 105//105 87//87 84//84 
f 92//92 89//89 65//65 
f 65//65 84//84 111//111 
f 94//94 80//80 73//73 
f 108//108 112//112 73//73 
f 73//73 113//113 114//114 
f 73//73 115//115 99//99 
f 110//110 116//116 73//73 
f 104//104 85//85 84//84 
f 111//111 106//106 65//65 
f 117//117 118//118 119//119 
f 112//112 95//95 73//73 
f 73//73 120//120 121//121 
f 73//73 122//122 113//113 
f 116//116 115//115 73//73 
f 68//68 123//123 65//65 
f 117//117 124//124 118//118 
f 121//121 107//107 73//73 
f 98//98 122//122 73//73 
f 73//73 124//124 117//117 
f 119//119 84//84 117//117 
f 114//114 120//120 73//73 
f 102//102 117//117 84//84 
f 117//117 109//109 73//73 
f 78//78 125//125 73//73 
o mesh24516
v -0.00279771 0.00130181 0.00516151 
v -0.00256795 0.00164653 0.00527653 
v -0.00262765 0.00155696 0.00526483 
v -0.00227814 0.00208134 0.00516151 
v -0.00304128 0.000936377 0.00469789 
v -0.00306351 0.000903029 0.0045973 
v -0.0026863 0.00146896 0.00524155 
v -0.00238955 0.00191419 0.00524155 
v -0.0024482 0.0018262 0.00526483 
v -0.00233264 0.00199957 0.00520698 
v -0.00309254 0.00085947 -0.002222 
v -0.00212577 0.00230995 -0.00289113 
v -0.00208923 0.00236477 -0.00280979 
v -0.00265324 0.00151857 -0.00320015 
v -0.0025959 0.0016046 -0.00321652 
v -0.00307957 0.000878925 0.00449297 
v -0.00308929 0.000864348 0.00438612 
v -0.00301315 0.00097858 0.00479355 
v -0.00284917 0.00122461 0.00510569 
v -0.00289698 0.00115288 0.00504016 
v -0.0025079 0.00173663 0.00527653 
v -0.00309254 0.00085947 0.004278 
v -0.00203457 0.00244678 0.00469789 
v -0.0020627 0.00240457 0.00479355 
v -0.00198656 0.00251881 0.00438612 
v -0.00199628 0.00250423 0.00449297 
v -0.00205761 0.0024122 -0.002722 
v -0.00231234 0.00203003 -0.00313555 
v -0.00226062 0.00210763 -0.00308803 
v -0.00270931 0.00143444 -0.00317306 
v -0.00298662 0.00101839 -0.00280979 
v -0.00295009 0.0010732 -0.00289113 
v -0.00301824 0.000970952 -0.002722 
v -0.00308042 0.000877654 -0.00242991 
v -0.0030654 0.000900197 -0.00253102 
v -0.00294057 0.00108747 0.0049657 
v -0.00297945 0.00102914 0.00488317 
v -0.00217888 0.00223027 0.00504016 
v -0.00222668 0.00215854 0.00510569 
v -0.0020964 0.00235401 0.00488317 
v -0.00213528 0.00229568 0.0049657 
v -0.00201234 0.00248013 0.0045973 
v -0.00198331 0.00252368 0.004278 
v -0.00199543 0.0025055 -0.00242991 
v -0.00198635 0.00251913 -0.00232653 
v -0.00203126 0.00245174 -0.00262874 
v -0.00201046 0.00248296 -0.00253102 
v -0.00216682 0.00224837 -0.00296514 
v -0.00221193 0.00218068 -0.00303102 
v -0.00253793 0.00169158 -0.003222 
v -0.00247995 0.00177856 -0.00321652 
v -0.00276351 0.00135313 -0.00313555 
v -0.00290904 0.00113479 -0.00296514 
v -0.0030895 0.000864029 -0.00232653 
v -0.00274321 0.00138358 0.00520698 
v -0.00286392 0.00120248 -0.00303102 
v -0.00281523 0.00127552 -0.00308803 
v -0.00242261 0.00186458 -0.00320015 
v -0.00236654 0.00194871 -0.00317306 
v -0.00304459 0.00093141 -0.00262874 
v -0.00198331 0.00252368 -0.002222 
vn 0.832107 -0.554615 3.49148e-15 
vn 0.832107 -0.554615 3.49148e-15 
vn 0.832107 -0.554615 3.49148e-15 
vn 0.832107 -0.554615 3.49148e-15 
vn 0.832107 -0.554615 3.49148e-15 
vn 0.832107 -0.554615 3.49148e-15 
vn 0.832107 -0.554615 3.49148e-15 
vn 0.832107 -0.554615 3.49148e-15 
vn 0.832107 -0.554615 3.49148e-15 
vn 0.832107 -0.554615 3.49148e-15 
vn 0.832107 -0.554615 3.49148e-15 
vn 0.832107 -0.554615 3.49148e-15 
vn 0.832107 -0.554615 3.49148e-15 
vn 0.832107 -0.554615 3.49148e-15 
vn 0.832107 -0.554615 3.49148e-15 
vn 0.832107 -0.554615 3.49148e-15 
vn 0.832107 -0.554615 3.49148e-15 
vn 0.832107 -0.554615 3.49148e-15 
vn 0.832107 -0.554615 3.49148e-15 
vn 0.832107 -0.554615 3.49148e-15 
vn 0.832107 -0.554615 3.49148e-15 
vn 0.832107 -0.554615 3.49148e-15 
vn 0.832107 -0.554615 3.49148e-15 
vn 0.832107 -0.554615 3.49148e-15 
vn 0.832107 -0.554615 3.49148e-15 
vn 0.832107 -0.554615 3.49148e-15 
vn 0.832107 -0.554615 3.49148e-15 
vn 0.832107 -0.554615 3.49148e-15 
vn 0.832107 -0.554615 3.49148e-15 
vn 0.832107 -0.554615 3.49148e-15 
vn 0.832107 -0.554615 3.49148e-15 
vn 0.832107 -0.554615 3.49148e-15 
vn 0.832107 -0.554615 3.49148e-15 
vn 0.832107 -0.554615 3.49148e-15 
vn 0.832107 -0.554615 3.49148e-15 
vn 0.832107 -0.554615 3.49148e-15 
vn 0.832107 -0.554615 3.49148e-15 
vn 0.832107 -0.554615 3.49148e-15 
vn 0.832107 -0.554615 3.49148e-15 
vn 0.832107 -0.554615 3.49148e-15 
vn 0.832107 -0.554615 3.49148e-15 
vn 0.832107 -0.554615 3.49148e-15 
vn 0.832107 -0.554615 3.49148e-15 
vn 0.832107 -0.554615 3.49148e-15 
vn 0.832107 -0.554615 3.49148e-15 
vn 0.832107 -0.554615 3.49148e-15 
vn 0.832107 -0.554615 3.49148e-15 
vn 0.832107 -0.554615 3.49148e-15 
vn 0.832107 -0.554615 3.49148e-15 
vn 0.832107 -0.554615 3.49148e-15 
vn 0.832107 -0.554615 3.49148e-15 
vn 0.832107 -0.554615 3.49148e-15 
vn 0.832107 -0.554615 3.49148e-15 
vn 0.832107 -0.554615 3.49148e-15 
vn 0.832107 -0.554615 3.49148e-15 
vn 0.832107 -0.554615 3.49148e-15 
vn 0.832107 -0.554615 3.49148e-15 
vn 0.832107 -0.554615 3.49148e-15 
vn 0.832107 -0.554615 3.49148e-15 
vn 0.832107 -0.554615 3.49148e-15 
vn 0.832107 -0.554615 3.49148e-15 
f 126//126 127//127 128//128 
f 129//129 130//130 131//131 
f 128//128 132//132 126//126 
f 126//126 133//133 134//134 
f 126//126 129//129 135//135 
f 136//136 137//137 138//138 
f 136//136 139//139 140//140 
f 129//129 141//141 142//142 
f 129//129 143//143 130//130 
f 129//129 144//144 145//145 
f 126//126 146//146 127//127 
f 135//135 133//133 126//126 
f 147//147 148//148 149//149 
f 147//147 150//150 151//151 
f 138//138 152//152 136//136 
f 136//136 153//153 154//154 
f 136//136 155//155 139//139 
f 136//136 156//156 157//157 
f 158//158 159//159 160//160 
f 131//131 141//141 129//129 
f 129//129 161//161 162//162 
f 129//129 126//126 144//144 
f 134//134 146//146 126//126 
f 147//147 163//163 164//164 
f 147//147 165//165 166//166 
f 147//147 167//167 148//148 
f 147//147 168//168 150//150 
f 136//136 169//169 170//170 
f 136//136 171//171 172//172 
f 136//136 173//173 137//137 
f 154//154 174//174 136//136 
f 136//136 175//175 176//176 
f 136//136 177//177 155//155 
f 157//157 178//178 136//136 
f 158//158 179//179 159//159 
f 162//162 143//143 129//129 
f 132//132 180//180 126//126 
f 166//166 163//163 147//147 
f 151//151 167//167 147//147 
f 172//172 169//169 136//136 
f 174//174 173//173 136//136 
f 140//140 175//175 136//136 
f 136//136 181//181 182//182 
f 136//136 158//158 156//156 
f 158//158 136//136 179//179 
f 145//145 161//161 129//129 
f 149//149 165//165 147//147 
f 152//152 171//171 136//136 
f 136//136 183//183 184//184 
f 182//182 177//177 136//136 
f 160//160 185//185 158//158 
f 147//147 136//136 186//186 
f 164//164 129//129 147//147 
f 184//184 153//153 136//136 
f 178//178 181//181 136//136 
f 142//142 147//147 129//129 
f 176//176 183//183 136//136 
f 170//170 186//186 136//136 
f 186//186 168//168 147//147 
o mesh24517
v -0.00420214 0.00280081 -0.003222 
v -0.00253793 0.00169158 -0.003222 
v -0.0025959 0.0016046 -0.00321652 
v -0.00426011 0.00271383 -0.00321652 
v -0.00265324 0.00151857 -0.00320015 
v -0.00431745 0.0026278 -0.00320015 
v -0.00270931 0.00143444 -0.00317306 
v -0.00437352 0.00254367 -0.00317306 
v -0.00276351 0.00135313 -0.00313555 
v -0.00442772 0.00246236 -0.00313555 
v -0.00281523 0.00127552 -0.00308803 
v -0.00447945 0.00238475 -0.00308803 
v -0.00286392 0.00120248 -0.00303102 
v -0.00452813 0.00231171 -0.00303102 
v -0.00290904 0.00113479 -0.00296514 
v -0.00457325 0.00224402 -0.00296514 
v -0.00295009 0.0010732 -0.00289113 
v -0.0046143 0.00218243 -0.00289113 
v -0.00298662 0.00101839 -0.00280979 
v -0.00465083 0.00212762 -0.00280979 
v -0.00301824 0.000970952 -0.002722 
v -0.00468245 0.00208018 -0.002722 
v -0.00304459 0.00093141 -0.00262874 
v -0.00470881 0.00204064 -0.00262874 
v -0.0030654 0.000900197 -0.00253102 
v -0.00472961 0.00200943 -0.00253102 
v -0.00308042 0.000877654 -0.00242991 
v -0.00474464 0.00198688 -0.00242991 
v -0.0030895 0.000864029 -0.00232653 
v -0.00475372 0.00197326 -0.00232653 
v -0.00309254 0.00085947 -0.002222 
v -0.00475675 0.0019687 -0.002222 
vn 2.82682e-15 -2.01443e-15 -1 
vn 2.82682e-15 -2.01443e-15 -1 
vn -0.0579731 -0.0869788 -0.994522 
vn -0.0579731 -0.0869788 -0.994522 
vn -0.115311 -0.173005 -0.978148 
vn -0.115311 -0.173005 -0.978148 
vn -0.171386 -0.257135 -0.951057 
vn -0.171386 -0.257135 -0.951057 
vn -0.225582 -0.338448 -0.913545 
vn -0.225582 -0.338448 -0.913545 
vn -0.277308 -0.416053 -0.866025 
vn -0.277308 -0.416053 -0.866025 
vn -0.325995 -0.4891 -0.809017 
vn -0.325995 -0.4891 -0.809017 
vn -0.37111 -0.556788 -0.743145 
vn -0.37111 -0.556788 -0.743145 
vn -0.41216 -0.618376 -0.669131 
vn -0.41216 -0.618376 -0.669131 
vn -0.448693 -0.673189 -0.587785 
vn -0.448693 -0.673189 -0.587785 
vn -0.480311 -0.720626 -0.5 
vn -0.480311 -0.720626 -0.5 
vn -0.506666 -0.760167 -0.406737 
vn -0.506666 -0.760167 -0.406737 
vn -0.527471 -0.791381 -0.309017 
vn -0.527471 -0.791381 -0.309017 
vn -0.542496 -0.813923 -0.207912 
vn -0.542496 -0.813923 -0.207912 
vn -0.551577 -0.827548 -0.104528 
vn -0.551577 -0.827548 -0.104528 
vn -0.554615 -0.832107 -6.12323e-17 
vn -0.554615 -0.832107 -6.12323e-17 
f 187//187 188//188 189//189 
f 190//190 189//189 191//191 
f 192//192 191//191 193//193 
f 194//194 193//193 195//195 
f 196//196 195//195 197//197 
f 198//198 197//197 199//199 
f 200//200 199//199 201//201 
f 202//202 201//201 203//203 
f 204//204 203//203 205//205 
f 206//206 205//205 207//207 
f 208//208 207//207 209//209 
f 210//210 209//209 211//211 
f 212//212 211//211 213//213 
f 214//214 213//213 215//215 
f 216//216 215//215 217//217 
f 217//217 218//218 216//216 
f 215//215 216//216 214//214 
f 213//213 214//214 212//212 
f 211//211 212//212 210//210 
f 209//209 210//210 208//208 
f 207//207 208//208 206//206 
f 205//205 206//206 204//204 
f 203//203 204//204 202//202 
f 201//201 202//202 200//200 
f 199//199 200//200 198//198 
f 197//197 198//198 196//196 
f 195//195 196//196 194//194 
f 193//193 194//194 192//192 
f 191//191 192//192 190//190 
f 189//189 190//190 187//187 
o mesh24518
v -0.00475675 0.0019687 0.004278 
v -0.00475675 0.0019687 -0.002222 
v -0.00309254 0.00085947 -0.002222 
v -0.00309254 0.00085947 0.004278 
vn -0.554615 -0.832107 -6.12323e-17 
vn -0.554615 -0.832107 -6.12323e-17 
vn -0.554615 -0.832107 -6.12323e-17 
vn -0.554615 -0.832107 -6.12323e-17 
f 219//219 220//220 221//221 
f 221//221 222//222 219//219 
o mesh24519
v -0.00364752 0.00363291 -0.002222 
v -0.00198331 0.00252368 -0.002222 
v -0.00198635 0.00251913 -0.00232653 
v -0.00365056 0.00362836 -0.00232653 
v -0.00199543 0.0025055 -0.00242991 
v -0.00365964 0.00361473 -0.00242991 
v -0.00201046 0.00248296 -0.00253102 
v -0.00367467 0.00359219 -0.00253102 
v -0.00203126 0.00245174 -0.00262874 
v -0.00369547 0.00356098 -0.00262874 
v -0.00205761 0.0024122 -0.002722 
v -0.00372183 0.00352143 -0.002722 
v -0.00208923 0.00236477 -0.00280979 
v -0.00375345 0.003474 -0.00280979 
v -0.00212577 0.00230995 -0.00289113 
v -0.00378998 0.00341918 -0.00289113 
v -0.00216682 0.00224837 -0.00296514 
v -0.00383103 0.0033576 -0.00296514 
v -0.00221193 0.00218068 -0.00303102 
v -0.00387614 0.00328991 -0.00303102 
v -0.00226062 0.00210763 -0.00308803 
v -0.00392483 0.00321686 -0.00308803 
v -0.00231234 0.00203003 -0.00313555 
v -0.00397656 0.00313926 -0.00313555 
v -0.00236654 0.00194871 -0.00317306 
v -0.00403075 0.00305794 -0.00317306 
v -0.00242261 0.00186458 -0.00320015 
v -0.00408683 0.00297381 -0.00320015 
v -0.00247995 0.00177856 -0.00321652 
v -0.00414417 0.00288779 -0.00321652 
v -0.00253793 0.00169158 -0.003222 
v -0.00420214 0.00280081 -0.003222 
vn 0.554615 0.832107 1.83697e-16 
vn 0.554615 0.832107 1.83697e-16 
vn 0.551577 0.827548 -0.104528 
vn 0.551577 0.827548 -0.104528 
vn 0.542496 0.813923 -0.207912 
vn 0.542496 0.813923 -0.207912 
vn 0.527471 0.791381 -0.309017 
vn 0.527471 0.791381 -0.309017 
vn 0.506666 0.760167 -0.406737 
vn 0.506666 0.760167 -0.406737 
vn 0.480311 0.720626 -0.5 
vn 0.480311 0.720626 -0.5 
vn 0.448693 0.673189 -0.587785 
vn 0.448693 0.673189 -0.587785 
vn 0.41216 0.618376 -0.669131 
vn 0.41216 0.618376 -0.669131 
vn 0.37111 0.556788 -0.743145 
vn 0.37111 0.556788 -0.743145 
vn 0.325995 0.4891 -0.809017 
vn 0.325995 0.4891 -0.809017 
vn 0.277308 0.416053 -0.866025 
vn 0.277308 0.416053 -0.866025 
vn 0.225582 0.338448 -0.913545 
vn 0.225582 0.338448 -0.913545 
vn 0.171386 0.257135 -0.951057 
vn 0.171386 0.257135 -0.951057 
vn 0.115311 0.173005 -0.978148 
vn 0.115311 0.173005 -0.978148 
vn 0.0579731 0.0869788 -0.994522 
vn 0.0579731 0.0869788 -0.994522 
vn 3.02279e-15 -1.7204e-15 -1 
vn 3.02279e-15 -1.7204e-15 -1 
f 223//223 224//224 225//225 
f 226//226 225//225 227//227 
f 228//228 227//227 229//229 
f 230//230 229//229 231//231 
f 232//232 231//231 233//233 
f 234//234 233//233 235//235 
f 236//236 235//235 237//237 
f 238//238 237//237 239//239 
f 240//240 239//239 241//241 
f 242//242 241//241 243//243 
f 244//244 243//243 245//245 
f 246//246 245//245 247//247 
f 248//248 247//247 249//249 
f 250//250 249//249 251//251 
f 252//252 251//251 253//253 
f 253//253 254//254 252//252 
f 251//251 252//252 250//250 
f 249//249 250//250 248//248 
f 247//247 248//248 246//246 
f 245//245 246//246 244//244 
f 243//243 244//244 242//242 
f 241//241 242//242 240//240 
f 239//239 240//240 238//238 
f 237//237 238//238 236//236 
f 235//235 236//236 234//234 
f 233//233 234//234 232//232 
f 231//231 232//232 230//230 
f 229//229 230//230 228//228 
f 227//227 228//228 226//226 
f 225//225 226//226 223//223 
