# OBJ generated by ONSHAPE BY PTC INC, 1.215 Units = meters
mtllib SNAP_RING_20MM_1_solid1.mtl
g SNAP-RING_20MM-1-solid1
usemtl 0.796078_0.823529_0.937255_0.000000_0.000000
o mesh23593
v 0.00325041 0.0113974 0.047925 
v 0.00325887 0.0112894 0.047925 
v 0.00325887 0.0112894 0.049125 
v 0.00323032 0.0115038 0.047925 
v 0.00325041 0.0113974 0.049125 
v 0.00319884 0.0116074 0.047925 
v 0.00323032 0.0115038 0.049125 
v 0.00315635 0.011707 0.047925 
v 0.00319884 0.0116074 0.049125 
v 0.00310334 0.0118014 0.047925 
v 0.00315635 0.011707 0.049125 
v 0.00304043 0.0118895 0.047925 
v 0.00310334 0.0118014 0.049125 
v 0.00296837 0.0119703 0.047925 
v 0.00304043 0.0118895 0.049125 
v 0.00288799 0.0120429 0.047925 
v 0.00296837 0.0119703 0.049125 
v 0.00280023 0.0121063 0.047925 
v 0.00288799 0.0120429 0.049125 
v 0.00270613 0.0121598 0.047925 
v 0.00280023 0.0121063 0.049125 
v 0.0026068 0.0122029 0.047925 
v 0.00270613 0.0121598 0.049125 
v 0.00250338 0.012235 0.047925 
v 0.0026068 0.0122029 0.049125 
v 0.00239711 0.0122557 0.047925 
v 0.00250338 0.012235 0.049125 
v 0.00228921 0.0122648 0.047925 
v 0.00239711 0.0122557 0.049125 
v 0.00218097 0.0122622 0.047925 
v 0.00228921 0.0122648 0.049125 
v 0.00207364 0.0122479 0.047925 
v 0.00218097 0.0122622 0.049125 
v 0.00196848 0.0122221 0.047925 
v 0.00207364 0.0122479 0.049125 
v 0.00186674 0.0121851 0.047925 
v 0.00196848 0.0122221 0.049125 
v 0.00176959 0.0121373 0.047925 
v 0.00186674 0.0121851 0.049125 
v 0.00167818 0.0120792 0.047925 
v 0.00176959 0.0121373 0.049125 
v 0.00159359 0.0120116 0.047925 
v 0.00167818 0.0120792 0.049125 
v 0.0015168 0.0119353 0.047925 
v 0.00159359 0.0120116 0.049125 
v 0.00144871 0.0118511 0.047925 
v 0.0015168 0.0119353 0.049125 
v 0.00139013 0.01176 0.047925 
v 0.00144871 0.0118511 0.049125 
v 0.00134173 0.0116632 0.047925 
v 0.00139013 0.01176 0.049125 
v 0.00130409 0.0115617 0.047925 
v 0.00134173 0.0116632 0.049125 
v 0.00127765 0.0114567 0.047925 
v 0.00130409 0.0115617 0.049125 
v 0.00126271 0.0113494 0.047925 
v 0.00127765 0.0114567 0.049125 
v 0.00125946 0.0112412 0.047925 
v 0.00126271 0.0113494 0.049125 
v 0.00125946 0.0112412 0.049125 
vn -0.991242 -0.132059 9.91242e-15 
vn -0.999709 -0.0241127 9.99709e-15 
vn -0.999709 -0.0241127 9.99709e-15 
vn -0.971153 -0.238457 9.71153e-15 
vn -0.991242 -0.132059 9.91242e-15 
vn -0.939678 -0.342059 9.39678e-15 
vn -0.971153 -0.238457 9.71153e-15 
vn -0.897187 -0.441651 8.97187e-15 
vn -0.939678 -0.342059 9.39678e-15 
vn -0.844177 -0.536065 8.44177e-15 
vn -0.897187 -0.441651 8.97187e-15 
vn -0.781269 -0.624194 7.81269e-15 
vn -0.844177 -0.536065 8.44177e-15 
vn -0.709202 -0.705005 7.09202e-15 
vn -0.781269 -0.624194 7.81269e-15 
vn -0.62882 -0.777551 6.2882e-15 
vn -0.709202 -0.705005 7.09202e-15 
vn -0.541066 -0.84098 5.41066e-15 
vn -0.62882 -0.777551 6.2882e-15 
vn -0.446968 -0.89455 4.46968e-15 
vn -0.541066 -0.84098 5.41066e-15 
vn -0.34763 -0.937632 3.4763e-15 
vn -0.446968 -0.89455 4.46968e-15 
vn -0.244217 -0.969721 2.44217e-15 
vn -0.34763 -0.937632 3.4763e-15 
vn -0.13794 -0.990441 1.3794e-15 
vn -0.244217 -0.969721 2.44217e-15 
vn -0.0300458 -0.999549 3.00458e-16 
vn -0.13794 -0.990441 1.3794e-15 
vn 0.0782005 -0.996938 -7.82005e-16 
vn -0.0300458 -0.999549 3.00458e-16 
vn 0.18553 -0.982639 -1.8553e-15 
vn 0.0782005 -0.996938 -7.82005e-16 
vn 0.290684 -0.956819 -2.90684e-15 
vn 0.18553 -0.982639 -1.8553e-15 
vn 0.392431 -0.919782 -3.92431e-15 
vn 0.290684 -0.956819 -2.90684e-15 
vn 0.489576 -0.871961 -4.89576e-15 
vn 0.392431 -0.919782 -3.92431e-15 
vn 0.580982 -0.813917 -5.80982e-15 
vn 0.489576 -0.871961 -4.89576e-15 
vn 0.665576 -0.74633 -6.65576e-15 
vn 0.580982 -0.813917 -5.80982e-15 
vn 0.742367 -0.669994 -7.42367e-15 
vn 0.665576 -0.74633 -6.65576e-15 
vn 0.810454 -0.585802 -8.10454e-15 
vn 0.742367 -0.669994 -7.42367e-15 
vn 0.869039 -0.494743 -8.69039e-15 
vn 0.810454 -0.585802 -8.10454e-15 
vn 0.917436 -0.397883 -9.17436e-15 
vn 0.869039 -0.494743 -8.69039e-15 
vn 0.955077 -0.296358 -9.55077e-15 
vn 0.917436 -0.397883 -9.17436e-15 
vn 0.98152 -0.191359 -9.8152e-15 
vn 0.955077 -0.296358 -9.55077e-15 
vn 0.996456 -0.0841162 -9.96456e-15 
vn 0.98152 -0.191359 -9.8152e-15 
vn 0.999709 0.0241127 -9.99709e-15 
vn 0.996456 -0.0841162 -9.96456e-15 
vn 0.999709 0.0241127 -9.99709e-15 
f 1//1 2//2 3//3 
f 4//4 1//1 5//5 
f 6//6 4//4 7//7 
f 8//8 6//6 9//9 
f 10//10 8//8 11//11 
f 12//12 10//10 13//13 
f 14//14 12//12 15//15 
f 16//16 14//14 17//17 
f 18//18 16//16 19//19 
f 20//20 18//18 21//21 
f 22//22 20//20 23//23 
f 24//24 22//22 25//25 
f 26//26 24//24 27//27 
f 28//28 26//26 29//29 
f 30//30 28//28 31//31 
f 32//32 30//30 33//33 
f 34//34 32//32 35//35 
f 36//36 34//34 37//37 
f 38//38 36//36 39//39 
f 40//40 38//38 41//41 
f 42//42 40//40 43//43 
f 44//44 42//42 45//45 
f 46//46 44//44 47//47 
f 48//48 46//46 49//49 
f 50//50 48//48 51//51 
f 52//52 50//50 53//53 
f 54//54 52//52 55//55 
f 56//56 54//54 57//57 
f 58//58 56//56 59//59 
f 59//59 60//60 58//58 
f 57//57 59//59 56//56 
f 55//55 57//57 54//54 
f 53//53 55//55 52//52 
f 51//51 53//53 50//50 
f 49//49 51//51 48//48 
f 47//47 49//49 46//46 
f 45//45 47//47 44//44 
f 43//43 45//45 42//42 
f 41//41 43//43 40//40 
f 39//39 41//41 38//38 
f 37//37 39//39 36//36 
f 35//35 37//37 34//34 
f 33//33 35//35 32//32 
f 31//31 33//33 30//30 
f 29//29 31//31 28//28 
f 27//27 29//29 26//26 
f 25//25 27//27 24//24 
f 23//23 25//25 22//22 
f 21//21 23//23 20//20 
f 19//19 21//21 18//18 
f 17//17 19//19 16//16 
f 15//15 17//17 14//14 
f 13//13 15//15 12//12 
f 11//11 13//13 10//10 
f 9//9 11//11 8//8 
f 7//7 9//9 6//6 
f 5//5 7//7 4//4 
f 3//3 5//5 1//1 
o mesh23594
v 0.00126792 0.0111332 0.047925 
v 0.00125946 0.0112412 0.047925 
v 0.00125946 0.0112412 0.049125 
v 0.00128801 0.0110268 0.047925 
v 0.00126792 0.0111332 0.049125 
v 0.00131949 0.0109232 0.047925 
v 0.00128801 0.0110268 0.049125 
v 0.00136198 0.0108236 0.047925 
v 0.00131949 0.0109232 0.049125 
v 0.00141499 0.0107292 0.047925 
v 0.00136198 0.0108236 0.049125 
v 0.0014779 0.0106411 0.047925 
v 0.00141499 0.0107292 0.049125 
v 0.00154996 0.0105603 0.047925 
v 0.0014779 0.0106411 0.049125 
v 0.00163035 0.0104877 0.047925 
v 0.00154996 0.0105603 0.049125 
v 0.0017181 0.0104243 0.047925 
v 0.00163035 0.0104877 0.049125 
v 0.0018122 0.0103708 0.047925 
v 0.0017181 0.0104243 0.049125 
v 0.00191154 0.0103277 0.047925 
v 0.0018122 0.0103708 0.049125 
v 0.00201495 0.0102956 0.047925 
v 0.00191154 0.0103277 0.049125 
v 0.00212123 0.0102749 0.047925 
v 0.00201495 0.0102956 0.049125 
v 0.00222912 0.0102658 0.047925 
v 0.00212123 0.0102749 0.049125 
v 0.00233737 0.0102684 0.047925 
v 0.00222912 0.0102658 0.049125 
v 0.0024447 0.0102827 0.047925 
v 0.00233737 0.0102684 0.049125 
v 0.00254985 0.0103085 0.047925 
v 0.0024447 0.0102827 0.049125 
v 0.0026516 0.0103455 0.047925 
v 0.00254985 0.0103085 0.049125 
v 0.00274874 0.0103933 0.047925 
v 0.0026516 0.0103455 0.049125 
v 0.00284015 0.0104514 0.047925 
v 0.00274874 0.0103933 0.049125 
v 0.00292474 0.010519 0.047925 
v 0.00284015 0.0104514 0.049125 
v 0.00300153 0.0105953 0.047925 
v 0.00292474 0.010519 0.049125 
v 0.00306962 0.0106795 0.047925 
v 0.00300153 0.0105953 0.049125 
v 0.00312821 0.0107706 0.047925 
v 0.00306962 0.0106795 0.049125 
v 0.0031766 0.0108674 0.047925 
v 0.00312821 0.0107706 0.049125 
v 0.00321424 0.0109689 0.047925 
v 0.0031766 0.0108674 0.049125 
v 0.00324069 0.0110739 0.047925 
v 0.00321424 0.0109689 0.049125 
v 0.00325562 0.0111812 0.047925 
v 0.00324069 0.0110739 0.049125 
v 0.00325887 0.0112894 0.047925 
v 0.00325562 0.0111812 0.049125 
v 0.00325887 0.0112894 0.049125 
vn 0.991242 0.132059 -9.91242e-15 
vn 0.999709 0.0241127 -9.99709e-15 
vn 0.999709 0.0241127 -9.99709e-15 
vn 0.971153 0.238457 -9.71153e-15 
vn 0.991242 0.132059 -9.91242e-15 
vn 0.939678 0.342059 -9.39678e-15 
vn 0.971153 0.238457 -9.71153e-15 
vn 0.897187 0.441651 -8.97187e-15 
vn 0.939678 0.342059 -9.39678e-15 
vn 0.844177 0.536065 -8.44177e-15 
vn 0.897187 0.441651 -8.97187e-15 
vn 0.781269 0.624194 -7.81269e-15 
vn 0.844177 0.536065 -8.44177e-15 
vn 0.709202 0.705005 -7.09202e-15 
vn 0.781269 0.624194 -7.81269e-15 
vn 0.62882 0.777551 -6.2882e-15 
vn 0.709202 0.705005 -7.09202e-15 
vn 0.541066 0.84098 -5.41066e-15 
vn 0.62882 0.777551 -6.2882e-15 
vn 0.446968 0.89455 -4.46968e-15 
vn 0.541066 0.84098 -5.41066e-15 
vn 0.34763 0.937632 -3.4763e-15 
vn 0.446968 0.89455 -4.46968e-15 
vn 0.244217 0.969721 -2.44217e-15 
vn 0.34763 0.937632 -3.4763e-15 
vn 0.13794 0.990441 -1.3794e-15 
vn 0.244217 0.969721 -2.44217e-15 
vn 0.0300458 0.999549 -3.00458e-16 
vn 0.13794 0.990441 -1.3794e-15 
vn -0.0782005 0.996938 7.82005e-16 
vn 0.0300458 0.999549 -3.00458e-16 
vn -0.18553 0.982639 1.8553e-15 
vn -0.0782005 0.996938 7.82005e-16 
vn -0.290684 0.956819 2.90684e-15 
vn -0.18553 0.982639 1.8553e-15 
vn -0.392431 0.919782 3.92431e-15 
vn -0.290684 0.956819 2.90684e-15 
vn -0.489576 0.871961 4.89576e-15 
vn -0.392431 0.919782 3.92431e-15 
vn -0.580982 0.813917 5.80982e-15 
vn -0.489576 0.871961 4.89576e-15 
vn -0.665576 0.74633 6.65576e-15 
vn -0.580982 0.813917 5.80982e-15 
vn -0.742367 0.669994 7.42367e-15 
vn -0.665576 0.74633 6.65576e-15 
vn -0.810454 0.585802 8.10454e-15 
vn -0.742367 0.669994 7.42367e-15 
vn -0.869039 0.494743 8.69039e-15 
vn -0.810454 0.585802 8.10454e-15 
vn -0.917436 0.397883 9.17436e-15 
vn -0.869039 0.494743 8.69039e-15 
vn -0.955077 0.296358 9.55077e-15 
vn -0.917436 0.397883 9.17436e-15 
vn -0.98152 0.191359 9.8152e-15 
vn -0.955077 0.296358 9.55077e-15 
vn -0.996456 0.0841162 9.96456e-15 
vn -0.98152 0.191359 9.8152e-15 
vn -0.999709 -0.0241127 9.99709e-15 
vn -0.996456 0.0841162 9.96456e-15 
vn -0.999709 -0.0241127 9.99709e-15 
f 61//61 62//62 63//63 
f 64//64 61//61 65//65 
f 66//66 64//64 67//67 
f 68//68 66//66 69//69 
f 70//70 68//68 71//71 
f 72//72 70//70 73//73 
f 74//74 72//72 75//75 
f 76//76 74//74 77//77 
f 78//78 76//76 79//79 
f 80//80 78//78 81//81 
f 82//82 80//80 83//83 
f 84//84 82//82 85//85 
f 86//86 84//84 87//87 
f 88//88 86//86 89//89 
f 90//90 88//88 91//91 
f 92//92 90//90 93//93 
f 94//94 92//92 95//95 
f 96//96 94//94 97//97 
f 98//98 96//96 99//99 
f 100//100 98//98 101//101 
f 102//102 100//100 103//103 
f 104//104 102//102 105//105 
f 106//106 104//104 107//107 
f 108//108 106//106 109//109 
f 110//110 108//108 111//111 
f 112//112 110//110 113//113 
f 114//114 112//112 115//115 
f 116//116 114//114 117//117 
f 118//118 116//116 119//119 
f 119//119 120//120 118//118 
f 117//117 119//119 116//116 
f 115//115 117//117 114//114 
f 113//113 115//115 112//112 
f 111//111 113//113 110//110 
f 109//109 111//111 108//108 
f 107//107 109//109 106//106 
f 105//105 107//107 104//104 
f 103//103 105//105 102//102 
f 101//101 103//103 100//100 
f 99//99 101//101 98//98 
f 97//97 99//99 96//96 
f 95//95 97//97 94//94 
f 93//93 95//95 92//92 
f 91//91 93//93 90//90 
f 89//89 91//91 88//88 
f 87//87 89//89 86//86 
f 85//85 87//87 84//84 
f 83//83 85//85 82//82 
f 81//81 83//83 80//80 
f 79//79 81//81 78//78 
f 77//77 79//79 76//76 
f 75//75 77//77 74//74 
f 73//73 75//75 72//72 
f 71//71 73//73 70//70 
f 69//69 71//71 68//68 
f 67//67 69//69 66//66 
f 65//65 67//67 64//64 
f 63//63 65//65 61//61 
o mesh23595
v -0.0109503 0.00259618 0.047925 
v -0.0105942 0.00366353 0.047925 
v -0.00887282 0.00261449 0.047925 
v 0.00300153 0.0105953 0.047925 
v 0.0104053 0.00417003 0.047925 
v 0.00677437 0.00629844 0.047925 
v 0.0108124 0.00312109 0.047925 
v 0.00900382 0.00211985 0.047925 
v 0.00873645 0.00303922 0.047925 
v -0.0113388 0.000382368 0.047925 
v -0.00922083 0.000734058 0.047925 
v -0.00924731 -0.000223043 0.047925 
v -0.0111993 0.00149888 0.047925 
v -0.00909555 0.00168329 0.047925 
v 0.00738916 0.00556443 0.047925 
v 0.011114 0.00203708 0.047925 
v 0.0113071 0.000928581 0.047925 
v 0.00917472 0.00117775 0.047925 
v 0.0113898 -0.000193564 0.047925 
v 0.00924731 0.000223043 0.047925 
v -0.00855502 0.00351768 0.047925 
v -0.00764883 0.00520172 0.047925 
v -0.00814557 0.00438318 0.047925 
v 0.00792477 0.00477079 0.047925 
v -0.00707015 0.00596452 0.047925 
v -0.00350886 0.0104383 0.047925 
v -0.00342847 0.0103657 0.047925 
v -0.00641571 0.00666342 0.047925 
v 0.00837548 0.00392604 0.047925 
v 0.0084608 -0.00809378 0.047925 
v 0.00758677 -0.00896263 0.047925 
v 0.00615658 -0.00690355 0.047925 
v 0.00662394 -0.00973189 0.047925 
v 0.00537408 -0.00752873 0.047925 
v 0.00306962 0.0106795 0.047925 
v 0.0092912 0.00612211 0.047925 
v 0.0113528 -0.00142541 0.047925 
v 0.00921722 -0.000778075 0.047925 
v 0.00923576 -0.00713553 0.047925 
v 0.00686689 -0.00619744 0.047925 
v 0.00558357 -0.0103925 0.047925 
v 0.00452858 -0.00806564 0.047925 
v 0.00447788 -0.0109368 0.047925 
v 0.00362998 -0.00850798 0.047925 
v -0.00714585 -0.00931798 0.047925 
v -0.00581659 -0.00719234 0.047925 
v -0.00500486 -0.00777907 0.047925 
v -0.00806075 -0.00849228 0.047925 
v -0.00656012 -0.0065213 0.047925 
v -0.0113673 -0.000742458 0.047925 
v -0.00916899 -0.00122155 0.047925 
v -0.00364383 0.0106072 0.047925 
v -0.00619601 0.0091518 0.047925 
v -0.00612475 0.00925764 0.047925 
v 0.00989655 0.00517364 0.047925 
v -0.00507604 -0.0106496 0.047925 
v -0.00413446 -0.00827459 0.047925 
v -0.00321558 -0.00867309 0.047925 
v -0.00614705 -0.0100399 0.047925 
v -0.008881 -0.0075725 0.047925 
v -0.00722674 -0.0057738 0.047925 
v -0.00959701 -0.00656943 0.047925 
v -0.00780863 -0.0049586 0.047925 
v -0.0102004 -0.00549482 0.047925 
v -0.00829898 -0.00408527 0.047925 
v -0.010684 -0.00436128 0.047925 
v -0.00869203 -0.00316405 0.047925 
v -0.0110422 -0.00318209 0.047925 
v -0.00898317 -0.00220573 0.047925 
v -0.00334072 0.0103023 0.047925 
v -0.00569254 0.00729092 0.047925 
v -0.00601783 0.00948895 0.047925 
v -0.00598338 0.0096118 0.047925 
v -0.00606513 0.00937045 0.047925 
v 0.00292474 0.010519 0.047925 
v 0.0111828 -0.00264603 0.047925 
v 0.00907906 -0.00177007 0.047925 
v 0.0026516 0.0103455 0.047925 
v 0.00274874 0.0103933 0.047925 
v 0.0108818 -0.00384112 0.047925 
v 0.00883446 -0.00274131 0.047925 
v 0.0104534 -0.00499666 0.047925 
v 0.00848628 -0.00368042 0.047925 
v 0.00990257 -0.0060991 0.047925 
v 0.00803861 -0.00457637 0.047925 
v 0.0074967 -0.00541867 0.047925 
v 0.00331981 -0.0113584 0.047925 
v 0.00268883 -0.00885058 0.047925 
v 0.00212296 -0.0116523 0.047925 
v 0.00171615 -0.00908941 0.047925 
v 0.000901355 -0.011815 0.047925 
v 0.000723355 -0.00922167 0.047925 
v -0.0112709 -0.00197109 0.047925 
v -0.00358092 0.0105191 0.047925 
v -0.00818303 0.00743134 0.047925 
v -0.00736303 0.00820182 0.047925 
v -0.00647096 0.00888758 0.047925 
v 0.00312821 0.0107706 0.047925 
v 0.0031766 0.0108674 0.047925 
v 0.00551302 0.00988909 0.047925 
v 0.00284015 0.0104514 0.047925 
v -0.000330689 -0.0118447 0.047925 
v -0.000277924 -0.00924582 0.047925 
v -0.00155872 -0.0117411 0.047925 
v -0.00127594 -0.00916158 0.047925 
v -0.00324662 0.0102487 0.047925 
v -0.00490837 0.00784031 0.047925 
v -0.00892295 0.00658365 0.047925 
v -0.0062781 0.00905412 0.047925 
v -0.0063701 0.00896571 0.047925 
v 0.00560632 0.00965196 0.047925 
v 0.0056713 0.00954216 0.047925 
v 0.00555336 0.00976804 0.047925 
v -0.00276835 -0.0115052 0.047925 
v -0.00225901 -0.00896992 0.047925 
v -0.00394539 -0.01114 0.047925 
v -0.0101345 0.0046905 0.047925 
v -0.00957556 0.00566705 0.047925 
v -0.00556457 0.0114826 0.047925 
v -0.0037909 0.0110112 0.047925 
v -0.000550622 0.0132386 0.047925 
v -0.000384396 0.00924201 0.047925 
v -0.00179995 0.0111674 0.047925 
v 0.00325041 0.0113974 0.047925 
v 0.00323032 0.0115038 0.047925 
v 0.00490873 0.0119794 0.047925 
v 0.00324069 0.0110739 0.047925 
v 0.00325562 0.0111812 0.047925 
v 0.00321424 0.0109689 0.047925 
v 0.00574758 0.00943987 0.047925 
v 0.00583429 0.00934627 0.047925 
v -0.00369684 0.0107016 0.047925 
v -0.00377081 0.0109048 0.047925 
v -0.00180841 0.0112753 0.047925 
v 0.00496319 0.0118611 0.047925 
v 0.00593044 0.0092624 0.047925 
v 0.00603496 0.00918921 0.047925 
v 0.00781524 0.00781721 0.047925 
v 0.00859517 0.00700618 0.047925 
v 0.00695905 0.00854726 0.047925 
v -0.00373933 0.0108012 0.047925 
v -0.00217083 0.0119208 0.047925 
v -0.00225859 0.0119843 0.047925 
v -0.0016451 0.0131475 0.047925 
v -0.0018285 0.0113817 0.047925 
v 0.0050045 0.0117376 0.047925 
v 0.00325887 0.0112894 0.047925 
v -0.00209045 0.0118483 0.047925 
v -0.00190247 0.0115849 0.047925 
v -0.00195548 0.0116793 0.047925 
v -0.0018032 0.0110592 0.047925 
v -0.00184458 0.0108469 0.047925 
v -0.00181813 0.0109519 0.047925 
v -0.00193061 0.0106485 0.047925 
v -0.00188222 0.0107454 0.047925 
v 0.00317623 0.0128637 0.047925 
v 0.00288799 0.0120429 0.047925 
v 0.00280023 0.0121063 0.047925 
v 0.00423064 0.0125564 0.047925 
v 0.00296837 0.0119703 0.047925 
v 0.00315635 0.011707 0.047925 
v 0.00435163 0.0125082 0.047925 
v 0.00446669 0.0124472 0.047925 
v 0.00310334 0.0118014 0.047925 
v 0.00319884 0.0116074 0.047925 
v 0.00457445 0.012374 0.047925 
v -0.00319123 0.00868208 0.047925 
v -0.00293759 0.0101528 0.047925 
v -0.0028297 0.0101437 0.047925 
v 0.006087 0.00696498 0.047925 
v 0.00233737 0.0102684 0.047925 
v 0.0024447 0.0102827 0.047925 
v 0.00184178 0.00906479 0.047925 
v 0.00212123 0.0102749 0.047925 
v 0.00222912 0.0102658 0.047925 
v -0.00201839 0.0117675 0.047925 
v -0.00185998 0.0114853 0.047925 
v -0.0019892 0.0105575 0.047925 
v -0.00205729 0.0104733 0.047925 
v -0.00133769 0.00915276 0.047925 
v 0.00467364 0.0122896 0.047925 
v 0.0047631 0.0121949 0.047925 
v -0.00227666 0.00896545 0.047925 
v -0.00314728 0.0102057 0.047925 
v -0.00304387 0.0101736 0.047925 
v -0.00407162 0.00830569 0.047925 
v -0.00379936 0.0111192 0.047925 
v 0.00366645 0.00849233 0.047925 
v 0.00276895 0.00882584 0.047925 
v 0.00533441 0.00755689 0.047925 
v 0.00452467 0.00806783 0.047925 
v -0.00245202 0.0120809 0.047925 
v -0.00255544 0.012113 0.047925 
v -0.00213408 0.010397 0.047925 
v -0.00272145 0.0101463 0.047925 
v -0.00261412 0.0101606 0.047925 
v 0.00304043 0.0118895 0.047925 
v 0.00484177 0.0120911 0.047925 
v 0.00254985 0.0103085 0.047925 
v -0.00371709 0.0115412 0.047925 
v -0.00494961 0.0122839 0.047925 
v -0.00483108 0.0123379 0.047925 
v -0.00235269 0.0120378 0.047925 
v -0.00231008 0.0102713 0.047925 
v -0.00221867 0.0103294 0.047925 
v 0.00209999 0.0130825 0.047925 
v 0.00250338 0.012235 0.047925 
v 0.000894872 0.00920661 0.047925 
v 0.0018122 0.0103708 0.047925 
v 0.00191154 0.0103277 0.047925 
v 0.00163035 0.0104877 0.047925 
v 0.0017181 0.0104243 0.047925 
v -0.00375473 0.0114396 0.047925 
v -0.0052607 0.01205 0.047925 
v -0.00516569 0.0121391 0.047925 
v -0.00506159 0.0122173 0.047925 
v -0.00272828 0.0129661 0.047925 
v -0.00240722 0.0102235 0.047925 
v -0.00250897 0.0101865 0.047925 
v 0.0026068 0.0122029 0.047925 
v 0.00201495 0.0102956 0.047925 
v 0.00154996 0.0105603 0.047925 
v 0.00131949 0.0109232 0.047925 
v 0.00136198 0.0108236 0.047925 
v 0.00125946 0.0112412 0.047925 
v 0.00126792 0.0111332 0.047925 
v 0.00159359 0.0120116 0.047925 
v -8.82675e-05 0.0132497 0.047925 
v 0.00100933 0.0132115 0.047925 
v -0.00379611 0.0112274 0.047925 
v -0.00552926 0.011608 0.047925 
v -0.00548057 0.0117288 0.047925 
v -0.00378117 0.0113346 0.047925 
v -0.00541907 0.0118436 0.047925 
v -0.0053455 0.0119511 0.047925 
v -0.00379271 0.0126956 0.047925 
v -0.00328923 0.0120152 0.047925 
v -0.00338064 0.0119572 0.047925 
v 0.00270613 0.0121598 0.047925 
v 0.0014779 0.0106411 0.047925 
v 0.00141499 0.0107292 0.047925 
v 0.00128801 0.0110268 0.047925 
v -6.16207e-05 0.00924979 0.047925 
v 0.00139013 0.01176 0.047925 
v 0.00134173 0.0116632 0.047925 
v 0.00176959 0.0121373 0.047925 
v 0.00167818 0.0120792 0.047925 
v -0.00366869 0.011638 0.047925 
v -0.00346523 0.0118896 0.047925 
v -0.00354202 0.0118133 0.047925 
v -0.00319208 0.0120631 0.047925 
v 0.00126271 0.0113494 0.047925 
v 0.00144871 0.0118511 0.047925 
v 0.00186674 0.0121851 0.047925 
v -0.00361011 0.0117291 0.047925 
v -0.00298518 0.0121259 0.047925 
v -0.00309034 0.0121001 0.047925 
v 0.00239711 0.0122557 0.047925 
v 0.00127765 0.0114567 0.047925 
v 0.0015168 0.0119353 0.047925 
v -0.00287785 0.0121402 0.047925 
v -0.00266171 0.0121337 0.047925 
v -0.00276961 0.0121428 0.047925 
v 0.00130409 0.0115617 0.047925 
v 0.00196848 0.0122221 0.047925 
v 0.00218097 0.0122622 0.047925 
v 0.00207364 0.0122479 0.047925 
v 0.00228921 0.0122648 0.047925 
vn -1e-14 0 -1 
vn -1e-14 0 -1 
vn -1e-14 0 -1 
vn -1e-14 0 -1 
vn -1e-14 0 -1 
vn -1e-14 0 -1 
vn -1e-14 0 -1 
vn -1e-14 0 -1 
vn -1e-14 0 -1 
vn -1e-14 0 -1 
vn -1e-14 0 -1 
vn -1e-14 0 -1 
vn -1e-14 0 -1 
vn -1e-14 0 -1 
vn -1e-14 0 -1 
vn -1e-14 0 -1 
vn -1e-14 0 -1 
vn -1e-14 0 -1 
vn -1e-14 0 -1 
vn -1e-14 0 -1 
vn -1e-14 0 -1 
vn -1e-14 0 -1 
vn -1e-14 0 -1 
vn -1e-14 0 -1 
vn -1e-14 0 -1 
vn -1e-14 0 -1 
vn -1e-14 0 -1 
vn -1e-14 0 -1 
vn -1e-14 0 -1 
vn -1e-14 0 -1 
vn -1e-14 0 -1 
vn -1e-14 0 -1 
vn -1e-14 0 -1 
vn -1e-14 0 -1 
vn -1e-14 0 -1 
vn -1e-14 0 -1 
vn -1e-14 0 -1 
vn -1e-14 0 -1 
vn -1e-14 0 -1 
vn -1e-14 0 -1 
vn -1e-14 0 -1 
vn -1e-14 0 -1 
vn -1e-14 0 -1 
vn -1e-14 0 -1 
vn -1e-14 0 -1 
vn -1e-14 0 -1 
vn -1e-14 0 -1 
vn -1e-14 0 -1 
vn -1e-14 0 -1 
vn -1e-14 0 -1 
vn -1e-14 0 -1 
vn -1e-14 0 -1 
vn -1e-14 0 -1 
vn -1e-14 0 -1 
vn -1e-14 0 -1 
vn -1e-14 0 -1 
vn -1e-14 0 -1 
vn -1e-14 0 -1 
vn -1e-14 0 -1 
vn -1e-14 0 -1 
vn -1e-14 0 -1 
vn -1e-14 0 -1 
vn -1e-14 0 -1 
vn -1e-14 0 -1 
vn -1e-14 0 -1 
vn -1e-14 0 -1 
vn -1e-14 0 -1 
vn -1e-14 0 -1 
vn -1e-14 0 -1 
vn -1e-14 0 -1 
vn -1e-14 0 -1 
vn -1e-14 0 -1 
vn -1e-14 0 -1 
vn -1e-14 0 -1 
vn -1e-14 0 -1 
vn -1e-14 0 -1 
vn -1e-14 0 -1 
vn -1e-14 0 -1 
vn -1e-14 0 -1 
vn -1e-14 0 -1 
vn -1e-14 0 -1 
vn -1e-14 0 -1 
vn -1e-14 0 -1 
vn -1e-14 0 -1 
vn -1e-14 0 -1 
vn -1e-14 0 -1 
vn -1e-14 0 -1 
vn -1e-14 0 -1 
vn -1e-14 0 -1 
vn -1e-14 0 -1 
vn -1e-14 0 -1 
vn -1e-14 0 -1 
vn -1e-14 0 -1 
vn -1e-14 0 -1 
vn -1e-14 0 -1 
vn -1e-14 0 -1 
vn -1e-14 0 -1 
vn -1e-14 0 -1 
vn -1e-14 0 -1 
vn -1e-14 0 -1 
vn -1e-14 0 -1 
vn -1e-14 0 -1 
vn -1e-14 0 -1 
vn -1e-14 0 -1 
vn -1e-14 0 -1 
vn -1e-14 0 -1 
vn -1e-14 0 -1 
vn -1e-14 0 -1 
vn -1e-14 0 -1 
vn -1e-14 0 -1 
vn -1e-14 0 -1 
vn -1e-14 0 -1 
vn -1e-14 0 -1 
vn -1e-14 0 -1 
vn -1e-14 0 -1 
vn -1e-14 0 -1 
vn -1e-14 0 -1 
vn -1e-14 0 -1 
vn -1e-14 0 -1 
vn -1e-14 0 -1 
vn -1e-14 0 -1 
vn -1e-14 0 -1 
vn -1e-14 0 -1 
vn -1e-14 0 -1 
vn -1e-14 0 -1 
vn -1e-14 0 -1 
vn -1e-14 0 -1 
vn -1e-14 0 -1 
vn -1e-14 0 -1 
vn -1e-14 0 -1 
vn -1e-14 0 -1 
vn -1e-14 0 -1 
vn -1e-14 0 -1 
vn -1e-14 0 -1 
vn -1e-14 0 -1 
vn -1e-14 0 -1 
vn -1e-14 0 -1 
vn -1e-14 0 -1 
vn -1e-14 0 -1 
vn -1e-14 0 -1 
vn -1e-14 0 -1 
vn -1e-14 0 -1 
vn -1e-14 0 -1 
vn -1e-14 0 -1 
vn -1e-14 0 -1 
vn -1e-14 0 -1 
vn -1e-14 0 -1 
vn -1e-14 0 -1 
vn -1e-14 0 -1 
vn -1e-14 0 -1 
vn -1e-14 0 -1 
vn -1e-14 0 -1 
vn -1e-14 0 -1 
vn -1e-14 0 -1 
vn -1e-14 0 -1 
vn -1e-14 0 -1 
vn -1e-14 0 -1 
vn -1e-14 0 -1 
vn -1e-14 0 -1 
vn -1e-14 0 -1 
vn -1e-14 0 -1 
vn -1e-14 0 -1 
vn -1e-14 0 -1 
vn -1e-14 0 -1 
vn -1e-14 0 -1 
vn -1e-14 0 -1 
vn -1e-14 0 -1 
vn -1e-14 0 -1 
vn -1e-14 0 -1 
vn -1e-14 0 -1 
vn -1e-14 0 -1 
vn -1e-14 0 -1 
vn -1e-14 0 -1 
vn -1e-14 0 -1 
vn -1e-14 0 -1 
vn -1e-14 0 -1 
vn -1e-14 0 -1 
vn -1e-14 0 -1 
vn -1e-14 0 -1 
vn -1e-14 0 -1 
vn -1e-14 0 -1 
vn -1e-14 0 -1 
vn -1e-14 0 -1 
vn -1e-14 0 -1 
vn -1e-14 0 -1 
vn -1e-14 0 -1 
vn -1e-14 0 -1 
vn -1e-14 0 -1 
vn -1e-14 0 -1 
vn -1e-14 0 -1 
vn -1e-14 0 -1 
vn -1e-14 0 -1 
vn -1e-14 0 -1 
vn -1e-14 0 -1 
vn -1e-14 0 -1 
vn -1e-14 0 -1 
vn -1e-14 0 -1 
vn -1e-14 0 -1 
vn -1e-14 0 -1 
vn -1e-14 0 -1 
vn -1e-14 0 -1 
vn -1e-14 0 -1 
vn -1e-14 0 -1 
vn -1e-14 0 -1 
vn -1e-14 0 -1 
vn -1e-14 0 -1 
vn -1e-14 0 -1 
vn -1e-14 0 -1 
vn -1e-14 0 -1 
vn -1e-14 0 -1 
vn -1e-14 0 -1 
vn -1e-14 0 -1 
vn -1e-14 0 -1 
vn -1e-14 0 -1 
vn -1e-14 0 -1 
vn -1e-14 0 -1 
vn -1e-14 0 -1 
vn -1e-14 0 -1 
vn -1e-14 0 -1 
vn -1e-14 0 -1 
vn -1e-14 0 -1 
vn -1e-14 0 -1 
vn -1e-14 0 -1 
vn -1e-14 0 -1 
vn -1e-14 0 -1 
vn -1e-14 0 -1 
vn -1e-14 0 -1 
vn -1e-14 0 -1 
vn -1e-14 0 -1 
vn -1e-14 0 -1 
vn -1e-14 0 -1 
vn -1e-14 0 -1 
vn -1e-14 0 -1 
vn -1e-14 0 -1 
vn -1e-14 0 -1 
vn -1e-14 0 -1 
vn -1e-14 0 -1 
vn -1e-14 0 -1 
vn -1e-14 0 -1 
vn -1e-14 0 -1 
vn -1e-14 0 -1 
vn -1e-14 0 -1 
vn -1e-14 0 -1 
vn -1e-14 0 -1 
vn -1e-14 0 -1 
vn -1e-14 0 -1 
vn -1e-14 0 -1 
vn -1e-14 0 -1 
vn -1e-14 0 -1 
vn -1e-14 0 -1 
vn -1e-14 0 -1 
vn -1e-14 0 -1 
vn -1e-14 0 -1 
vn -1e-14 0 -1 
vn -1e-14 0 -1 
vn -1e-14 0 -1 
vn -1e-14 0 -1 
vn -1e-14 0 -1 
vn -1e-14 0 -1 
vn -1e-14 0 -1 
vn -1e-14 0 -1 
vn -1e-14 0 -1 
vn -1e-14 0 -1 
vn -1e-14 0 -1 
vn -1e-14 0 -1 
vn -1e-14 0 -1 
vn -1e-14 0 -1 
vn -1e-14 0 -1 
f 121//121 122//122 123//123 
f 124//124 125//125 126//126 
f 127//127 128//128 129//129 
f 130//130 131//131 132//132 
f 133//133 134//134 131//131 
f 134//134 133//133 121//121 
f 125//125 135//135 126//126 
f 129//129 125//125 127//127 
f 136//136 137//137 138//138 
f 137//137 139//139 140//140 
f 131//131 130//130 133//133 
f 122//122 141//141 123//123 
f 122//122 142//142 143//143 
f 125//125 144//144 135//135 
f 127//127 136//136 128//128 
f 140//140 138//138 137//137 
f 123//123 134//134 121//121 
f 122//122 145//145 142//142 
f 146//146 147//147 148//148 
f 125//125 149//149 144//144 
f 138//138 128//128 136//136 
f 150//150 151//151 152//152 
f 151//151 153//153 154//154 
f 143//143 141//141 122//122 
f 148//148 122//122 146//146 
f 124//124 155//155 156//156 
f 129//129 149//149 125//125 
f 139//139 157//157 158//158 
f 159//159 150//150 160//160 
f 154//154 152//152 151//151 
f 153//153 161//161 162//162 
f 161//161 163//163 164//164 
f 165//165 166//166 167//167 
f 168//168 169//169 166//166 
f 170//170 132//132 171//171 
f 148//148 145//145 122//122 
f 172//172 173//173 174//174 
f 156//156 175//175 124//124 
f 158//158 140//140 139//139 
f 152//152 160//160 150//150 
f 164//164 162//162 161//161 
f 176//176 177//177 178//178 
f 179//179 167//167 177//177 
f 166//166 165//165 168//168 
f 180//180 181//181 169//169 
f 182//182 183//183 181//181 
f 184//184 185//185 183//183 
f 186//186 187//187 185//185 
f 188//188 189//189 187//187 
f 147//147 190//190 191//191 
f 132//132 170//170 130//130 
f 172//172 192//192 193//193 
f 174//174 194//194 172//172 
f 126//126 195//195 124//124 
f 157//157 196//196 197//197 
f 126//126 198//198 199//199 
f 196//196 200//200 201//201 
f 200//200 202//202 203//203 
f 202//202 204//204 205//205 
f 204//204 159//159 206//206 
f 162//162 154//154 153//153 
f 163//163 207//207 208//208 
f 207//207 209//209 210//210 
f 209//209 211//211 212//212 
f 177//177 176//176 179//179 
f 169//169 168//168 180//180 
f 183//183 182//182 184//184 
f 187//187 186//186 188//188 
f 213//213 171//171 189//189 
f 171//171 213//213 170//170 
f 214//214 215//215 216//216 
f 194//194 192//192 172//172 
f 172//172 216//216 217//217 
f 218//218 219//219 220//220 
f 197//197 158//158 157//157 
f 199//199 221//221 126//126 
f 203//203 201//201 200//200 
f 206//206 205//205 204//204 
f 208//208 164//164 163//163 
f 212//212 210//210 209//209 
f 222//222 223//223 212//212 
f 224//224 225//225 223//223 
f 167//167 179//179 165//165 
f 185//185 184//184 186//186 
f 190//190 226//226 227//227 
f 191//191 148//148 147//147 
f 214//214 228//228 215//215 
f 172//172 229//229 173//173 
f 217//217 230//230 172//172 
f 218//218 231//231 232//232 
f 220//220 233//233 218//218 
f 221//221 195//195 126//126 
f 205//205 203//203 202//202 
f 210//210 208//208 207//207 
f 223//223 222//222 224//224 
f 234//234 235//235 225//225 
f 236//236 178//178 235//235 
f 181//181 180//180 182//182 
f 189//189 188//188 213//213 
f 146//146 237//237 238//238 
f 214//214 238//238 228//228 
f 230//230 229//229 172//172 
f 193//193 239//239 240//240 
f 241//241 242//242 243//243 
f 244//244 245//245 246//246 
f 220//220 247//247 248//248 
f 220//220 219//219 249//249 
f 218//218 250//250 251//251 
f 233//233 231//231 218//218 
f 201//201 197//197 196//196 
f 212//212 211//211 222//222 
f 235//235 234//234 236//236 
f 227//227 191//191 190//190 
f 146//146 122//122 237//237 
f 193//193 252//252 172//172 
f 240//240 253//253 193//193 
f 243//243 254//254 241//241 
f 246//246 255//255 244//244 
f 249//249 247//247 220//220 
f 218//218 256//256 257//257 
f 232//232 250//250 218//218 
f 155//155 258//258 259//259 
f 155//155 218//218 260//260 
f 160//160 206//206 159//159 
f 178//178 236//236 176//176 
f 216//216 172//172 214//214 
f 253//253 261//261 193//193 
f 262//262 263//263 264//264 
f 254//254 265//265 241//241 
f 266//266 267//267 244//244 
f 248//248 266//266 220//220 
f 251//251 256//256 218//218 
f 260//260 258//258 155//155 
f 225//225 224//224 234//234 
f 261//261 252//252 193//193 
f 241//241 268//268 262//262 
f 241//241 269//269 270//270 
f 242//242 271//271 243//243 
f 242//242 272//272 273//273 
f 242//242 274//274 275//275 
f 276//276 277//277 278//278 
f 276//276 279//279 280//280 
f 281//281 282//282 283//283 
f 281//281 284//284 279//279 
f 285//285 281//281 286//286 
f 287//287 288//288 289//289 
f 248//248 267//267 266//266 
f 259//259 156//156 155//155 
f 238//238 214//214 146//146 
f 290//290 291//291 292//292 
f 293//293 294//294 295//295 
f 241//241 296//296 268//268 
f 241//241 297//297 269//269 
f 273//273 271//271 242//242 
f 242//242 298//298 274//274 
f 299//299 242//242 300//300 
f 280//280 277//277 276//276 
f 279//279 282//282 281//281 
f 286//286 301//301 285//285 
f 245//245 285//285 302//302 
f 289//289 300//300 303//303 
f 304//304 305//305 287//287 
f 226//226 304//304 306//306 
f 257//257 260//260 218//218 
f 239//239 307//307 240//240 
f 198//198 126//126 290//290 
f 290//290 295//295 291//291 
f 295//295 308//308 309//309 
f 295//295 310//310 311//311 
f 264//264 312//312 313//313 
f 270//270 296//296 241//241 
f 275//275 272//272 242//242 
f 300//300 314//314 299//299 
f 300//300 315//315 316//316 
f 279//279 317//317 280//280 
f 301//301 302//302 285//285 
f 302//302 318//318 245//245 
f 287//287 305//305 288//288 
f 306//306 227//227 226//226 
f 175//175 125//125 124//124 
f 292//292 319//319 290//290 
f 311//311 308//308 295//295 
f 320//320 321//321 322//322 
f 264//264 323//323 312//312 
f 264//264 241//241 262//262 
f 299//299 298//298 242//242 
f 300//300 324//324 325//325 
f 300//300 289//289 315//315 
f 326//326 276//276 327//327 
f 279//279 284//284 317//317 
f 318//318 246//246 245//245 
f 287//287 306//306 304//304 
f 290//290 319//319 198//198 
f 295//295 290//290 310//310 
f 328//328 329//329 330//330 
f 328//328 331//331 332//332 
f 333//333 334//334 335//335 
f 320//320 336//336 321//321 
f 313//313 337//337 264//264 
f 265//265 297//297 241//241 
f 300//300 338//338 324//324 
f 316//316 339//339 300//300 
f 276//276 340//340 327//327 
f 283//283 286//286 281//281 
f 255//255 266//266 244//244 
f 293//293 341//341 294//294 
f 330//330 293//293 328//328 
f 328//328 342//342 331//331 
f 328//328 343//343 344//344 
f 328//328 345//345 346//346 
f 347//347 348//348 349//349 
f 350//350 351//351 352//352 
f 353//353 354//354 355//355 
f 333//333 355//355 334//334 
f 320//320 335//335 336//336 
f 356//356 357//357 358//358 
f 263//263 323//323 264//264 
f 339//339 338//338 300//300 
f 276//276 359//359 340//340 
f 289//289 303//303 287//287 
f 330//330 341//341 293//293 
f 328//328 360//360 342//342 
f 344//344 361//361 328//328 
f 346//346 362//362 328//328 
f 363//363 348//348 345//345 
f 348//348 364//364 365//365 
f 349//349 366//366 367//367 
f 350//350 239//239 351//351 
f 353//353 352//352 354//354 
f 322//322 368//368 320//320 
f 356//356 369//369 370//370 
f 356//356 371//371 357//357 
f 325//325 314//314 300//300 
f 278//278 359//359 276//276 
f 332//332 329//329 328//328 
f 362//362 343//343 328//328 
f 348//348 372//372 345//345 
f 348//348 373//373 364//364 
f 349//349 374//374 366//366 
f 352//352 353//353 350//350 
f 335//335 320//320 333//333 
f 322//322 370//370 375//375 
f 358//358 369//369 356//356 
f 337//337 376//376 377//377 
f 327//327 378//378 326//326 
f 361//361 360//360 328//328 
f 348//348 379//379 372//372 
f 348//348 380//380 373//373 
f 349//349 367//367 347//347 
f 355//355 333//333 353//353 
f 370//370 322//322 356//356 
f 337//337 381//381 376//376 
f 337//337 382//382 383//383 
f 295//295 309//309 293//293 
f 348//348 384//384 379//379 
f 347//347 380//380 348//348 
f 349//349 326//326 385//385 
f 326//326 386//386 387//387 
f 375//375 368//368 322//322 
f 377//377 356//356 337//337 
f 326//326 378//378 388//388 
f 313//313 382//382 337//337 
f 365//365 384//384 348//348 
f 387//387 385//385 326//326 
f 377//377 371//371 356//356 
f 383//383 381//381 337//337 
f 385//385 374//374 349//349 
f 388//388 386//386 326//326 
f 350//350 307//307 239//239 
f 345//345 328//328 363//363 
o mesh23596
v -0.00892295 0.00658365 0.049125 
v -0.00764883 0.00520172 0.049125 
v -0.00707015 0.00596452 0.049125 
v -0.00736303 0.00820182 0.049125 
v -0.00818303 0.00743134 0.049125 
v -0.0109503 0.00259618 0.049125 
v -0.00909555 0.00168329 0.049125 
v -0.00887282 0.00261449 0.049125 
v -0.00647096 0.00888758 0.049125 
v -0.00957556 0.00566705 0.049125 
v -0.00814557 0.00438318 0.049125 
v -0.0101345 0.0046905 0.049125 
v -0.00855502 0.00351768 0.049125 
v -0.0105942 0.00366353 0.049125 
v -0.0111993 0.00149888 0.049125 
v -0.0113388 0.000382368 0.049125 
v -0.00922083 0.000734058 0.049125 
v -0.0113673 -0.000742458 0.049125 
v -0.00924731 -0.000223043 0.049125 
v -0.00314728 0.0102057 0.049125 
v -0.00606513 0.00937045 0.049125 
v -0.00612475 0.00925764 0.049125 
v -0.0063701 0.00896571 0.049125 
v -0.00619601 0.0091518 0.049125 
v -0.0062781 0.00905412 0.049125 
v -0.00601783 0.00948895 0.049125 
v -0.00324662 0.0102487 0.049125 
v -0.00556457 0.0114826 0.049125 
v -0.00598338 0.0096118 0.049125 
v 0.0108124 0.00312109 0.049125 
v 0.0104053 0.00417003 0.049125 
v 0.00873645 0.00303922 0.049125 
v 0.00558357 -0.0103925 0.049125 
v 0.00452858 -0.00806564 0.049125 
v 0.00362998 -0.00850798 0.049125 
v 0.00662394 -0.00973189 0.049125 
v 0.00537408 -0.00752873 0.049125 
v 0.0113071 0.000928581 0.049125 
v 0.00917472 0.00117775 0.049125 
v 0.00924731 0.000223043 0.049125 
v 0.011114 0.00203708 0.049125 
v 0.00900382 0.00211985 0.049125 
v 0.00677437 0.00629844 0.049125 
v 0.00738916 0.00556443 0.049125 
v 0.00300153 0.0105953 0.049125 
v 0.00292474 0.010519 0.049125 
v 0.006087 0.00696498 0.049125 
v -0.0112709 -0.00197109 0.049125 
v -0.00916899 -0.00122155 0.049125 
v 0.00447788 -0.0109368 0.049125 
v 0.00268883 -0.00885058 0.049125 
v 0.00758677 -0.00896263 0.049125 
v 0.00615658 -0.00690355 0.049125 
v 0.0084608 -0.00809378 0.049125 
v 0.00686689 -0.00619744 0.049125 
v 0.00276895 0.00882584 0.049125 
v 0.00274874 0.0103933 0.049125 
v 0.0026516 0.0103455 0.049125 
v 0.00837548 0.00392604 0.049125 
v 0.00792477 0.00477079 0.049125 
v -0.008881 -0.0075725 0.049125 
v -0.00806075 -0.00849228 0.049125 
v -0.00656012 -0.0065213 0.049125 
v -0.00714585 -0.00931798 0.049125 
v -0.00581659 -0.00719234 0.049125 
v 0.00184178 0.00906479 0.049125 
v -0.00379271 0.0126956 0.049125 
v -0.00346523 0.0118896 0.049125 
v -0.00338064 0.0119572 0.049125 
v -0.00371709 0.0115412 0.049125 
v -0.00494961 0.0122839 0.049125 
v -0.00506159 0.0122173 0.049125 
v -0.00366869 0.011638 0.049125 
v -0.00483108 0.0123379 0.049125 
v -0.00375473 0.0114396 0.049125 
v -0.00516569 0.0121391 0.049125 
v -0.00641571 0.00666342 0.049125 
v -0.0110422 -0.00318209 0.049125 
v -0.010684 -0.00436128 0.049125 
v -0.00869203 -0.00316405 0.049125 
v -0.0102004 -0.00549482 0.049125 
v -0.00829898 -0.00408527 0.049125 
v -0.00959701 -0.00656943 0.049125 
v -0.00780863 -0.0049586 0.049125 
v -0.00722674 -0.0057738 0.049125 
v -0.00614705 -0.0100399 0.049125 
v -0.00500486 -0.00777907 0.049125 
v -0.00507604 -0.0106496 0.049125 
v -0.00413446 -0.00827459 0.049125 
v -0.00394539 -0.01114 0.049125 
v -0.00321558 -0.00867309 0.049125 
v 0.00212296 -0.0116523 0.049125 
v 0.00171615 -0.00908941 0.049125 
v 0.000723355 -0.00922167 0.049125 
v 0.00331981 -0.0113584 0.049125 
v 0.00923576 -0.00713553 0.049125 
v 0.0074967 -0.00541867 0.049125 
v 0.000894872 0.00920661 0.049125 
v 0.0113898 -0.000193564 0.049125 
v 0.00921722 -0.000778075 0.049125 
v 0.00989655 0.00517364 0.049125 
v 0.0092912 0.00612211 0.049125 
v 0.00312821 0.0107706 0.049125 
v 0.00695905 0.00854726 0.049125 
v 0.00603496 0.00918921 0.049125 
v -0.00328923 0.0120152 0.049125 
v -0.00354202 0.0118133 0.049125 
v -0.0052607 0.01205 0.049125 
v -0.00378117 0.0113346 0.049125 
v -0.0053455 0.0119511 0.049125 
v -0.00379611 0.0112274 0.049125 
v -0.00548057 0.0117288 0.049125 
v -0.00304387 0.0101736 0.049125 
v -0.0028297 0.0101437 0.049125 
v -0.00293759 0.0101528 0.049125 
v -0.00155872 -0.0117411 0.049125 
v -0.000330689 -0.0118447 0.049125 
v -0.000277924 -0.00924582 0.049125 
v 0.000901355 -0.011815 0.049125 
v 0.00990257 -0.0060991 0.049125 
v 0.00803861 -0.00457637 0.049125 
v 0.0104534 -0.00499666 0.049125 
v 0.00848628 -0.00368042 0.049125 
v 0.0108818 -0.00384112 0.049125 
v 0.00883446 -0.00274131 0.049125 
v 0.0111828 -0.00264603 0.049125 
v 0.00907906 -0.00177007 0.049125 
v -6.16207e-05 0.00924979 0.049125 
v 0.00284015 0.0104514 0.049125 
v 0.00366645 0.00849233 0.049125 
v 0.00452467 0.00806783 0.049125 
v 0.00574758 0.00943987 0.049125 
v 0.0056713 0.00954216 0.049125 
v 0.00593044 0.0092624 0.049125 
v -8.82675e-05 0.0132497 0.049125 
v 0.00125946 0.0112412 0.049125 
v -0.00361011 0.0117291 0.049125 
v -0.00541907 0.0118436 0.049125 
v -0.00552926 0.011608 0.049125 
v -0.00898317 -0.00220573 0.049125 
v 0.00533441 0.00755689 0.049125 
v 0.0113528 -0.00142541 0.049125 
v 0.00306962 0.0106795 0.049125 
v 0.00560632 0.00965196 0.049125 
v 0.00583429 0.00934627 0.049125 
v -0.00319123 0.00868208 0.049125 
v -0.00227666 0.00896545 0.049125 
v -0.00272145 0.0101463 0.049125 
v 0.00126271 0.0113494 0.049125 
v -0.00379936 0.0111192 0.049125 
v -0.00373933 0.0108012 0.049125 
v -0.00377081 0.0109048 0.049125 
v -0.00358092 0.0105191 0.049125 
v -0.00364383 0.0106072 0.049125 
v -0.00276835 -0.0115052 0.049125 
v -0.00225901 -0.00896992 0.049125 
v -0.00127594 -0.00916158 0.049125 
v 0.00781524 0.00781721 0.049125 
v 0.00859517 0.00700618 0.049125 
v 0.00555336 0.00976804 0.049125 
v 0.00551302 0.00988909 0.049125 
v 0.00324069 0.0110739 0.049125 
v 0.00321424 0.0109689 0.049125 
v 0.0050045 0.0117376 0.049125 
v 0.00325562 0.0111812 0.049125 
v -0.00407162 0.00830569 0.049125 
v -0.00569254 0.00729092 0.049125 
v -0.00490837 0.00784031 0.049125 
v -0.000550622 0.0132386 0.049125 
v -0.00201839 0.0117675 0.049125 
v -0.00195548 0.0116793 0.049125 
v 0.00100933 0.0132115 0.049125 
v 0.00167818 0.0120792 0.049125 
v 0.00176959 0.0121373 0.049125 
v 0.00159359 0.0120116 0.049125 
v 0.00134173 0.0116632 0.049125 
v 0.00139013 0.01176 0.049125 
v 0.00127765 0.0114567 0.049125 
v 0.00128801 0.0110268 0.049125 
v 0.00126792 0.0111332 0.049125 
v -0.0037909 0.0110112 0.049125 
v -0.00369684 0.0107016 0.049125 
v -0.00350886 0.0104383 0.049125 
v 0.00319884 0.0116074 0.049125 
v 0.00467364 0.0122896 0.049125 
v 0.00457445 0.012374 0.049125 
v 0.00315635 0.011707 0.049125 
v 0.00435163 0.0125082 0.049125 
v 0.00423064 0.0125564 0.049125 
v 0.00446669 0.0124472 0.049125 
v 0.00317623 0.0128637 0.049125 
v 0.00288799 0.0120429 0.049125 
v 0.00296837 0.0119703 0.049125 
v -0.000384396 0.00924201 0.049125 
v -0.00179995 0.0111674 0.049125 
v -0.00190247 0.0115849 0.049125 
v -0.00217083 0.0119208 0.049125 
v -0.0016451 0.0131475 0.049125 
v 0.00130409 0.0115617 0.049125 
v 0.00141499 0.0107292 0.049125 
v 0.00136198 0.0108236 0.049125 
v -0.00272828 0.0129661 0.049125 
v -0.00309034 0.0121001 0.049125 
v -0.00334072 0.0103023 0.049125 
v 0.0031766 0.0108674 0.049125 
v 0.00325887 0.0112894 0.049125 
v -0.00250897 0.0101865 0.049125 
v -0.00261412 0.0101606 0.049125 
v -0.00133769 0.00915276 0.049125 
v -0.00188222 0.0107454 0.049125 
v -0.00193061 0.0106485 0.049125 
v 0.00323032 0.0115038 0.049125 
v 0.00484177 0.0120911 0.049125 
v 0.0047631 0.0121949 0.049125 
v 0.00270613 0.0121598 0.049125 
v 0.00280023 0.0121063 0.049125 
v -0.00180841 0.0112753 0.049125 
v -0.00209045 0.0118483 0.049125 
v -0.00225859 0.0119843 0.049125 
v 0.0015168 0.0119353 0.049125 
v 0.00144871 0.0118511 0.049125 
v 0.00131949 0.0109232 0.049125 
v 0.0014779 0.0106411 0.049125 
v -0.00298518 0.0121259 0.049125 
v -0.00342847 0.0103657 0.049125 
v 0.0024447 0.0102827 0.049125 
v 0.00233737 0.0102684 0.049125 
v 0.00254985 0.0103085 0.049125 
v -0.00231008 0.0102713 0.049125 
v -0.00240722 0.0102235 0.049125 
v -0.00213408 0.010397 0.049125 
v -0.00221867 0.0103294 0.049125 
v -0.0019892 0.0105575 0.049125 
v -0.00205729 0.0104733 0.049125 
v -0.00184458 0.0108469 0.049125 
v -0.0018032 0.0110592 0.049125 
v -0.00181813 0.0109519 0.049125 
v 0.00325041 0.0113974 0.049125 
v 0.00496319 0.0118611 0.049125 
v 0.00490873 0.0119794 0.049125 
v 0.00310334 0.0118014 0.049125 
v -0.0018285 0.0113817 0.049125 
v -0.00255544 0.012113 0.049125 
v 0.00209999 0.0130825 0.049125 
v 0.00196848 0.0122221 0.049125 
v 0.00207364 0.0122479 0.049125 
v 0.00186674 0.0121851 0.049125 
v 0.00163035 0.0104877 0.049125 
v 0.00154996 0.0105603 0.049125 
v 0.0018122 0.0103708 0.049125 
v 0.0017181 0.0104243 0.049125 
v 0.00201495 0.0102956 0.049125 
v 0.00191154 0.0103277 0.049125 
v 0.00222912 0.0102658 0.049125 
v 0.00212123 0.0102749 0.049125 
v -0.00319208 0.0120631 0.049125 
v 0.00304043 0.0118895 0.049125 
v 0.00239711 0.0122557 0.049125 
v 0.00250338 0.012235 0.049125 
v -0.00185998 0.0114853 0.049125 
v -0.00235269 0.0120378 0.049125 
v -0.00245202 0.0120809 0.049125 
v -0.00266171 0.0121337 0.049125 
v 0.0026068 0.0122029 0.049125 
v -0.00287785 0.0121402 0.049125 
v -0.00276961 0.0121428 0.049125 
v 0.00218097 0.0122622 0.049125 
v 0.00228921 0.0122648 0.049125 
vn 1e-14 0 1 
vn 1e-14 0 1 
vn 1e-14 0 1 
vn 1e-14 0 1 
vn 1e-14 0 1 
vn 1e-14 0 1 
vn 1e-14 0 1 
vn 1e-14 0 1 
vn 1e-14 0 1 
vn 1e-14 0 1 
vn 1e-14 0 1 
vn 1e-14 0 1 
vn 1e-14 0 1 
vn 1e-14 0 1 
vn 1e-14 0 1 
vn 1e-14 0 1 
vn 1e-14 0 1 
vn 1e-14 0 1 
vn 1e-14 0 1 
vn 1e-14 0 1 
vn 1e-14 0 1 
vn 1e-14 0 1 
vn 1e-14 0 1 
vn 1e-14 0 1 
vn 1e-14 0 1 
vn 1e-14 0 1 
vn 1e-14 0 1 
vn 1e-14 0 1 
vn 1e-14 0 1 
vn 1e-14 0 1 
vn 1e-14 0 1 
vn 1e-14 0 1 
vn 1e-14 0 1 
vn 1e-14 0 1 
vn 1e-14 0 1 
vn 1e-14 0 1 
vn 1e-14 0 1 
vn 1e-14 0 1 
vn 1e-14 0 1 
vn 1e-14 0 1 
vn 1e-14 0 1 
vn 1e-14 0 1 
vn 1e-14 0 1 
vn 1e-14 0 1 
vn 1e-14 0 1 
vn 1e-14 0 1 
vn 1e-14 0 1 
vn 1e-14 0 1 
vn 1e-14 0 1 
vn 1e-14 0 1 
vn 1e-14 0 1 
vn 1e-14 0 1 
vn 1e-14 0 1 
vn 1e-14 0 1 
vn 1e-14 0 1 
vn 1e-14 0 1 
vn 1e-14 0 1 
vn 1e-14 0 1 
vn 1e-14 0 1 
vn 1e-14 0 1 
vn 1e-14 0 1 
vn 1e-14 0 1 
vn 1e-14 0 1 
vn 1e-14 0 1 
vn 1e-14 0 1 
vn 1e-14 0 1 
vn 1e-14 0 1 
vn 1e-14 0 1 
vn 1e-14 0 1 
vn 1e-14 0 1 
vn 1e-14 0 1 
vn 1e-14 0 1 
vn 1e-14 0 1 
vn 1e-14 0 1 
vn 1e-14 0 1 
vn 1e-14 0 1 
vn 1e-14 0 1 
vn 1e-14 0 1 
vn 1e-14 0 1 
vn 1e-14 0 1 
vn 1e-14 0 1 
vn 1e-14 0 1 
vn 1e-14 0 1 
vn 1e-14 0 1 
vn 1e-14 0 1 
vn 1e-14 0 1 
vn 1e-14 0 1 
vn 1e-14 0 1 
vn 1e-14 0 1 
vn 1e-14 0 1 
vn 1e-14 0 1 
vn 1e-14 0 1 
vn 1e-14 0 1 
vn 1e-14 0 1 
vn 1e-14 0 1 
vn 1e-14 0 1 
vn 1e-14 0 1 
vn 1e-14 0 1 
vn 1e-14 0 1 
vn 1e-14 0 1 
vn 1e-14 0 1 
vn 1e-14 0 1 
vn 1e-14 0 1 
vn 1e-14 0 1 
vn 1e-14 0 1 
vn 1e-14 0 1 
vn 1e-14 0 1 
vn 1e-14 0 1 
vn 1e-14 0 1 
vn 1e-14 0 1 
vn 1e-14 0 1 
vn 1e-14 0 1 
vn 1e-14 0 1 
vn 1e-14 0 1 
vn 1e-14 0 1 
vn 1e-14 0 1 
vn 1e-14 0 1 
vn 1e-14 0 1 
vn 1e-14 0 1 
vn 1e-14 0 1 
vn 1e-14 0 1 
vn 1e-14 0 1 
vn 1e-14 0 1 
vn 1e-14 0 1 
vn 1e-14 0 1 
vn 1e-14 0 1 
vn 1e-14 0 1 
vn 1e-14 0 1 
vn 1e-14 0 1 
vn 1e-14 0 1 
vn 1e-14 0 1 
vn 1e-14 0 1 
vn 1e-14 0 1 
vn 1e-14 0 1 
vn 1e-14 0 1 
vn 1e-14 0 1 
vn 1e-14 0 1 
vn 1e-14 0 1 
vn 1e-14 0 1 
vn 1e-14 0 1 
vn 1e-14 0 1 
vn 1e-14 0 1 
vn 1e-14 0 1 
vn 1e-14 0 1 
vn 1e-14 0 1 
vn 1e-14 0 1 
vn 1e-14 0 1 
vn 1e-14 0 1 
vn 1e-14 0 1 
vn 1e-14 0 1 
vn 1e-14 0 1 
vn 1e-14 0 1 
vn 1e-14 0 1 
vn 1e-14 0 1 
vn 1e-14 0 1 
vn 1e-14 0 1 
vn 1e-14 0 1 
vn 1e-14 0 1 
vn 1e-14 0 1 
vn 1e-14 0 1 
vn 1e-14 0 1 
vn 1e-14 0 1 
vn 1e-14 0 1 
vn 1e-14 0 1 
vn 1e-14 0 1 
vn 1e-14 0 1 
vn 1e-14 0 1 
vn 1e-14 0 1 
vn 1e-14 0 1 
vn 1e-14 0 1 
vn 1e-14 0 1 
vn 1e-14 0 1 
vn 1e-14 0 1 
vn 1e-14 0 1 
vn 1e-14 0 1 
vn 1e-14 0 1 
vn 1e-14 0 1 
vn 1e-14 0 1 
vn 1e-14 0 1 
vn 1e-14 0 1 
vn 1e-14 0 1 
vn 1e-14 0 1 
vn 1e-14 0 1 
vn 1e-14 0 1 
vn 1e-14 0 1 
vn 1e-14 0 1 
vn 1e-14 0 1 
vn 1e-14 0 1 
vn 1e-14 0 1 
vn 1e-14 0 1 
vn 1e-14 0 1 
vn 1e-14 0 1 
vn 1e-14 0 1 
vn 1e-14 0 1 
vn 1e-14 0 1 
vn 1e-14 0 1 
vn 1e-14 0 1 
vn 1e-14 0 1 
vn 1e-14 0 1 
vn 1e-14 0 1 
vn 1e-14 0 1 
vn 1e-14 0 1 
vn 1e-14 0 1 
vn 1e-14 0 1 
vn 1e-14 0 1 
vn 1e-14 0 1 
vn 1e-14 0 1 
vn 1e-14 0 1 
vn 1e-14 0 1 
vn 1e-14 0 1 
vn 1e-14 0 1 
vn 1e-14 0 1 
vn 1e-14 0 1 
vn 1e-14 0 1 
vn 1e-14 0 1 
vn 1e-14 0 1 
vn 1e-14 0 1 
vn 1e-14 0 1 
vn 1e-14 0 1 
vn 1e-14 0 1 
vn 1e-14 0 1 
vn 1e-14 0 1 
vn 1e-14 0 1 
vn 1e-14 0 1 
vn 1e-14 0 1 
vn 1e-14 0 1 
vn 1e-14 0 1 
vn 1e-14 0 1 
vn 1e-14 0 1 
vn 1e-14 0 1 
vn 1e-14 0 1 
vn 1e-14 0 1 
vn 1e-14 0 1 
vn 1e-14 0 1 
vn 1e-14 0 1 
vn 1e-14 0 1 
vn 1e-14 0 1 
vn 1e-14 0 1 
vn 1e-14 0 1 
vn 1e-14 0 1 
vn 1e-14 0 1 
vn 1e-14 0 1 
vn 1e-14 0 1 
vn 1e-14 0 1 
vn 1e-14 0 1 
vn 1e-14 0 1 
vn 1e-14 0 1 
vn 1e-14 0 1 
vn 1e-14 0 1 
vn 1e-14 0 1 
vn 1e-14 0 1 
vn 1e-14 0 1 
vn 1e-14 0 1 
vn 1e-14 0 1 
vn 1e-14 0 1 
vn 1e-14 0 1 
vn 1e-14 0 1 
vn 1e-14 0 1 
vn 1e-14 0 1 
vn 1e-14 0 1 
vn 1e-14 0 1 
vn 1e-14 0 1 
vn 1e-14 0 1 
vn 1e-14 0 1 
vn 1e-14 0 1 
vn 1e-14 0 1 
vn 1e-14 0 1 
vn 1e-14 0 1 
f 389//389 390//390 391//391 
f 391//391 392//392 393//393 
f 394//394 395//395 396//396 
f 391//391 397//397 392//392 
f 398//398 399//399 390//390 
f 400//400 401//401 399//399 
f 402//402 396//396 401//401 
f 396//396 402//402 394//394 
f 403//403 404//404 405//405 
f 404//404 406//406 407//407 
f 408//408 409//409 410//410 
f 391//391 411//411 397//397 
f 399//399 398//398 400//400 
f 394//394 403//403 395//395 
f 407//407 405//405 404//404 
f 408//408 412//412 413//413 
f 408//408 414//414 409//409 
f 415//415 416//416 417//417 
f 418//418 419//419 420//420 
f 390//390 389//389 398//398 
f 405//405 395//395 403//403 
f 410//410 412//412 408//408 
f 414//414 408//408 415//415 
f 421//421 422//422 423//423 
f 424//424 425//425 422//422 
f 426//426 427//427 428//428 
f 429//429 430//430 427//427 
f 430//430 429//429 418//418 
f 419//419 431//431 432//432 
f 433//433 434//434 435//435 
f 401//401 400//400 402//402 
f 406//406 436//436 437//437 
f 417//417 414//414 415//415 
f 438//438 423//423 439//439 
f 422//422 421//421 424//424 
f 440//440 441//441 425//425 
f 442//442 443//443 441//441 
f 444//444 445//445 446//446 
f 427//427 426//426 429//429 
f 419//419 447//447 420//420 
f 432//432 448//448 419//419 
f 435//435 419//419 433//433 
f 437//437 407//407 406//406 
f 413//413 391//391 408//408 
f 449//449 450//450 451//451 
f 450//450 452//452 453//453 
f 423//423 438//438 421//421 
f 441//441 440//440 442//442 
f 446//446 454//454 444//444 
f 420//420 430//430 418//418 
f 435//435 431//431 419//419 
f 455//455 456//456 457//457 
f 458//458 459//459 460//460 
f 458//458 461//461 462//462 
f 463//463 458//458 464//464 
f 413//413 411//411 391//391 
f 408//408 391//391 465//465 
f 466//466 467//467 468//468 
f 467//467 469//469 470//470 
f 469//469 471//471 472//472 
f 471//471 449//449 473//473 
f 453//453 451//451 450//450 
f 452//452 474//474 475//475 
f 474//474 476//476 477//477 
f 476//476 478//478 479//479 
f 480//480 481//481 482//482 
f 483//483 439//439 481//481 
f 425//425 424//424 440//440 
f 484//484 485//485 443//443 
f 446//446 486//486 454//454 
f 487//487 428//428 488//488 
f 448//448 447//447 419//419 
f 433//433 489//489 490//490 
f 491//491 492//492 493//493 
f 457//457 494//494 455//455 
f 455//455 462//462 495//495 
f 462//462 459//459 458//458 
f 464//464 496//496 463//463 
f 497//497 463//463 498//498 
f 499//499 497//497 500//500 
f 465//465 501//501 408//408 
f 465//465 502//502 503//503 
f 470//470 468//468 467//467 
f 473//473 472//472 471//471 
f 475//475 453//453 452//452 
f 479//479 477//477 476//476 
f 504//504 505//505 506//506 
f 505//505 507//507 482//482 
f 481//481 480//480 483//483 
f 443//443 442//442 484//484 
f 508//508 509//509 485//485 
f 510//510 511//511 509//509 
f 512//512 513//513 511//511 
f 514//514 515//515 513//513 
f 446//446 516//516 486//486 
f 517//517 445//445 518//518 
f 434//434 517//517 519//519 
f 428//428 487//487 426//426 
f 433//433 419//419 489//489 
f 491//491 520//520 521//521 
f 493//493 522//522 491//491 
f 523//523 516//516 524//524 
f 495//495 456//456 455//455 
f 462//462 461//461 525//525 
f 496//496 498//498 463//463 
f 498//498 526//526 497//497 
f 500//500 527//527 499//499 
f 503//503 501//501 465//465 
f 436//436 466//466 528//528 
f 472//472 470//470 469//469 
f 477//477 475//475 474//474 
f 482//482 506//506 505//505 
f 439//439 483//483 438//438 
f 509//509 508//508 510//510 
f 513//513 512//512 514//514 
f 518//518 519//519 517//517 
f 519//519 529//529 434//434 
f 530//530 488//488 515//515 
f 490//490 531//531 433//433 
f 521//521 532//532 491//491 
f 522//522 533//533 491//491 
f 534//534 535//535 536//536 
f 524//524 537//537 523//523 
f 525//525 495//495 462//462 
f 526//526 500//500 497//497 
f 416//416 538//538 499//499 
f 416//416 539//539 540//540 
f 416//416 541//541 542//542 
f 528//528 437//437 436//436 
f 451//451 473//473 449//449 
f 478//478 543//543 544//544 
f 543//543 504//504 545//545 
f 482//482 507//507 480//480 
f 511//511 510//510 512//512 
f 529//529 435//435 434//434 
f 488//488 530//530 487//487 
f 531//531 546//546 492//492 
f 531//531 490//490 547//547 
f 491//491 548//548 549//549 
f 533//533 520//520 491//491 
f 549//549 550//550 551//551 
f 549//549 552//552 553//553 
f 502//502 554//554 534//534 
f 502//502 555//555 556//556 
f 557//557 558//558 559//559 
f 560//560 561//561 562//562 
f 563//563 561//561 560//560 
f 523//523 564//564 565//565 
f 537//537 566//566 523//523 
f 516//516 567//567 568//568 
f 460//460 464//464 458//458 
f 416//416 569//569 538//538 
f 416//416 570//570 539//539 
f 416//416 571//571 541//541 
f 468//468 528//528 466//466 
f 545//545 544//544 543//543 
f 485//485 484//484 508//508 
f 515//515 514//514 530//530 
f 547//547 546//546 531//531 
f 532//532 548//548 491//491 
f 553//553 550//550 549//549 
f 556//556 554//554 502//502 
f 572//572 573//573 574//574 
f 575//575 576//576 577//577 
f 575//575 574//574 578//578 
f 579//579 580//580 581//581 
f 582//582 557//557 583//583 
f 559//559 584//584 557//557 
f 585//585 557//557 586//586 
f 560//560 523//523 563//563 
f 523//523 587//587 564//564 
f 568//568 524//524 516//516 
f 516//516 588//588 589//589 
f 590//590 455//455 591//591 
f 527//527 416//416 499//499 
f 542//542 570//570 416//416 
f 416//416 415//415 592//592 
f 544//544 479//479 478//478 
f 444//444 518//518 445//445 
f 549//549 593//593 491//491 
f 552//552 594//594 553//553 
f 502//502 465//465 555//555 
f 535//535 595//595 596//596 
f 597//597 598//598 599//599 
f 600//600 601//601 602//602 
f 572//572 602//602 573//573 
f 578//578 576//576 575//575 
f 581//581 577//577 579//579 
f 579//579 603//603 604//604 
f 557//557 605//605 583//583 
f 557//557 606//606 558//558 
f 586//586 607//607 585//585 
f 523//523 608//608 563//563 
f 565//565 609//609 523//523 
f 516//516 610//610 567//567 
f 516//516 611//611 588//588 
f 591//591 612//612 590//590 
f 540//540 569//569 416//416 
f 592//592 613//613 416//416 
f 516//516 614//614 615//615 
f 516//516 446//446 616//616 
f 506//506 545//545 504//504 
f 551//551 593//593 549//549 
f 596//596 536//536 535//535 
f 597//597 617//617 618//618 
f 597//597 619//619 620//620 
f 597//597 621//621 622//622 
f 597//597 623//623 598//598 
f 597//597 624//624 625//625 
f 626//626 627//627 628//628 
f 600//600 628//628 601//601 
f 577//577 629//629 575//575 
f 604//604 580//580 579//579 
f 557//557 630//630 605//605 
f 585//585 606//606 557//557 
f 586//586 590//590 631//631 
f 632//632 633//633 634//634 
f 560//560 635//635 633//633 
f 609//609 608//608 523//523 
f 589//589 610//610 516//516 
f 516//516 636//636 637//637 
f 516//516 638//638 639//639 
f 516//516 640//640 641//641 
f 516//516 642//642 643//643 
f 455//455 644//644 591//591 
f 613//613 571//571 416//416 
f 616//616 614//614 516//516 
f 492//492 491//491 531//531 
f 535//535 618//618 595//595 
f 620//620 617//617 597//597 
f 599//599 621//621 597//597 
f 597//597 583//583 624//624 
f 626//626 552//552 627//627 
f 574//574 575//575 572//572 
f 581//581 645//645 577//577 
f 632//632 646//646 647//647 
f 557//557 648//648 630//630 
f 586//586 649//649 607//607 
f 631//631 650//650 586//586 
f 633//633 632//632 560//560 
f 566//566 587//587 523//523 
f 639//639 636//636 516//516 
f 643//643 640//640 516//516 
f 494//494 644//644 455//455 
f 391//391 393//393 389//389 
f 618//618 535//535 597//597 
f 625//625 623//623 597//597 
f 628//628 600//600 626//626 
f 645//645 629//629 577//577 
f 647//647 579//579 632//632 
f 584//584 648//648 557//557 
f 590//590 651//651 631//631 
f 562//562 635//635 560//560 
f 641//641 638//638 516//516 
f 615//615 642//642 516//516 
f 622//622 619//619 597//597 
f 602//602 572//572 600//600 
f 647//647 652//652 579//579 
f 650//650 649//649 586//586 
f 590//590 653//653 654//654 
f 637//637 611//611 516//516 
f 536//536 502//502 534//534 
f 652//652 603//603 579//579 
f 632//632 655//655 656//656 
f 654//654 651//651 590//590 
f 612//612 653//653 590//590 
f 656//656 646//646 632//632 
f 634//634 655//655 632//632 
f 583//583 597//597 582//582 
f 626//626 594//594 552//552 
o mesh23597
v 0.00555336 0.00976804 0.047925 
v 0.00551302 0.00988909 0.047925 
v 0.00551302 0.00988909 0.049125 
v 0.00560632 0.00965196 0.047925 
v 0.00555336 0.00976804 0.049125 
v 0.0056713 0.00954216 0.047925 
v 0.00560632 0.00965196 0.049125 
v 0.00574758 0.00943987 0.047925 
v 0.0056713 0.00954216 0.049125 
v 0.00583429 0.00934627 0.047925 
v 0.00574758 0.00943987 0.049125 
v 0.00593044 0.0092624 0.047925 
v 0.00583429 0.00934627 0.049125 
v 0.00603496 0.00918921 0.047925 
v 0.00593044 0.0092624 0.049125 
v 0.00603496 0.00918921 0.049125 
vn 0.930567 0.366122 -9.30567e-15 
vn 0.96418 0.265248 -9.6418e-15 
vn 0.96418 0.265248 -9.6418e-15 
vn 0.886433 0.462856 -8.86433e-15 
vn 0.930567 0.366122 -9.30567e-15 
vn 0.832278 0.554358 -8.32278e-15 
vn 0.886433 0.462856 -8.86433e-15 
vn 0.768714 0.639593 -7.68714e-15 
vn 0.832278 0.554358 -8.32278e-15 
vn 0.696459 0.717596 -6.96459e-15 
vn 0.768714 0.639593 -7.68714e-15 
vn 0.616331 0.787487 -6.16331e-15 
vn 0.696459 0.717596 -6.96459e-15 
vn 0.529234 0.848476 -5.29234e-15 
vn 0.616331 0.787487 -6.16331e-15 
vn 0.529234 0.848476 -5.29234e-15 
f 657//657 658//658 659//659 
f 660//660 657//657 661//661 
f 662//662 660//660 663//663 
f 664//664 662//662 665//665 
f 666//666 664//664 667//667 
f 668//668 666//666 669//669 
f 670//670 668//668 671//671 
f 671//671 672//672 670//670 
f 669//669 671//671 668//668 
f 667//667 669//669 666//666 
f 665//665 667//667 664//664 
f 663//663 665//665 662//662 
f 661//661 663//663 660//660 
f 659//659 661//661 657//657 
o mesh23598
v 0.00423064 0.0125564 0.047925 
v 0.00423064 0.0125564 0.049125 
v 0.00435163 0.0125082 0.049125 
v 0.00435163 0.0125082 0.047925 
v 0.00446669 0.0124472 0.049125 
v 0.00446669 0.0124472 0.047925 
v 0.00457445 0.012374 0.049125 
v 0.00457445 0.012374 0.047925 
v 0.00467364 0.0122896 0.049125 
v 0.00467364 0.0122896 0.047925 
v 0.0047631 0.0121949 0.049125 
v 0.0047631 0.0121949 0.047925 
v 0.00484177 0.0120911 0.049125 
v 0.00484177 0.0120911 0.047925 
v 0.00490873 0.0119794 0.049125 
v 0.00490873 0.0119794 0.047925 
v 0.00496319 0.0118611 0.049125 
v 0.00496319 0.0118611 0.047925 
v 0.0050045 0.0117376 0.049125 
v 0.0050045 0.0117376 0.047925 
vn 0.319294 0.947656 -3.19294e-15 
vn 0.319294 0.947656 -3.19294e-15 
vn 0.420121 0.907468 -4.20121e-15 
vn 0.420121 0.907468 -4.20121e-15 
vn 0.515999 0.856589 -5.15999e-15 
vn 0.515999 0.856589 -5.15999e-15 
vn 0.605797 0.795619 -6.05797e-15 
vn 0.605797 0.795619 -6.05797e-15 
vn 0.688459 0.725275 -6.88459e-15 
vn 0.688459 0.725275 -6.88459e-15 
vn 0.76301 0.646387 -7.6301e-15 
vn 0.76301 0.646387 -7.6301e-15 
vn 0.828572 0.559883 -8.28572e-15 
vn 0.828572 0.559883 -8.28572e-15 
vn 0.884372 0.466784 -8.84372e-15 
vn 0.884372 0.466784 -8.84372e-15 
vn 0.929753 0.368185 -9.29753e-15 
vn 0.929753 0.368185 -9.29753e-15 
vn 0.96418 0.265248 -9.6418e-15 
vn 0.96418 0.265248 -9.6418e-15 
f 673//673 674//674 675//675 
f 676//676 675//675 677//677 
f 678//678 677//677 679//679 
f 680//680 679//679 681//681 
f 682//682 681//681 683//683 
f 684//684 683//683 685//685 
f 686//686 685//685 687//687 
f 688//688 687//687 689//689 
f 690//690 689//689 691//691 
f 691//691 692//692 690//690 
f 689//689 690//690 688//688 
f 687//687 688//688 686//686 
f 685//685 686//686 684//684 
f 683//683 684//684 682//682 
f 681//681 682//682 680//680 
f 679//679 680//680 678//678 
f 677//677 678//678 676//676 
f 675//675 676//676 673//673 
o mesh23599
v -0.00556457 0.0114826 0.047925 
v -0.00556457 0.0114826 0.049125 
v -0.00552926 0.011608 0.049125 
v -0.00552926 0.011608 0.047925 
v -0.00548057 0.0117288 0.049125 
v -0.00548057 0.0117288 0.047925 
v -0.00541907 0.0118436 0.049125 
v -0.00541907 0.0118436 0.047925 
v -0.0053455 0.0119511 0.049125 
v -0.0053455 0.0119511 0.047925 
v -0.0052607 0.01205 0.049125 
v -0.0052607 0.01205 0.047925 
v -0.00516569 0.0121391 0.049125 
v -0.00516569 0.0121391 0.047925 
v -0.00506159 0.0122173 0.049125 
v -0.00506159 0.0122173 0.047925 
v -0.00494961 0.0122839 0.049125 
v -0.00494961 0.0122839 0.047925 
v -0.00483108 0.0123379 0.049125 
v -0.00483108 0.0123379 0.047925 
vn -0.975847 0.218455 9.75847e-15 
vn -0.975847 0.218455 9.75847e-15 
vn -0.946422 0.322932 9.46422e-15 
vn -0.946422 0.322932 9.46422e-15 
vn -0.905847 0.423604 9.05847e-15 
vn -0.905847 0.423604 9.05847e-15 
vn -0.854601 0.519286 8.54601e-15 
vn -0.854601 0.519286 8.54601e-15 
vn -0.793286 0.608849 7.93286e-15 
vn -0.793286 0.608849 7.93286e-15 
vn -0.722625 0.69124 7.22625e-15 
vn -0.722625 0.69124 7.22625e-15 
vn -0.643451 0.765487 6.43451e-15 
vn -0.643451 0.765487 6.43451e-15 
vn -0.556696 0.830716 5.56696e-15 
vn -0.556696 0.830716 5.56696e-15 
vn -0.463383 0.886158 4.63383e-15 
vn -0.463383 0.886158 4.63383e-15 
vn -0.36461 0.93116 3.6461e-15 
vn -0.36461 0.93116 3.6461e-15 
f 693//693 694//694 695//695 
f 696//696 695//695 697//697 
f 698//698 697//697 699//699 
f 700//700 699//699 701//701 
f 702//702 701//701 703//703 
f 704//704 703//703 705//705 
f 706//706 705//705 707//707 
f 708//708 707//707 709//709 
f 710//710 709//709 711//711 
f 711//711 712//712 710//710 
f 709//709 710//710 708//708 
f 707//707 708//708 706//706 
f 705//705 706//706 704//704 
f 703//703 704//704 702//702 
f 701//701 702//702 700//700 
f 699//699 700//700 698//698 
f 697//697 698//698 696//696 
f 695//695 696//696 693//693 
o mesh23600
v -0.0063701 0.00896571 0.047925 
v -0.00647096 0.00888758 0.047925 
v -0.00647096 0.00888758 0.049125 
v -0.0062781 0.00905412 0.047925 
v -0.0063701 0.00896571 0.049125 
v -0.00619601 0.0091518 0.047925 
v -0.0062781 0.00905412 0.049125 
v -0.00612475 0.00925764 0.047925 
v -0.00619601 0.0091518 0.049125 
v -0.00606513 0.00937045 0.047925 
v -0.00612475 0.00925764 0.049125 
v -0.00601783 0.00948895 0.047925 
v -0.00606513 0.00937045 0.049125 
v -0.00598338 0.0096118 0.047925 
v -0.00601783 0.00948895 0.049125 
v -0.00598338 0.0096118 0.049125 
vn -0.65358 0.756858 6.5358e-15 
vn -0.569525 0.821974 5.69525e-15 
vn -0.569525 0.821974 5.69525e-15 
vn -0.730246 0.683185 7.30246e-15 
vn -0.65358 0.756858 6.5358e-15 
vn -0.798656 0.601788 7.98656e-15 
vn -0.730246 0.683185 7.30246e-15 
vn -0.858037 0.513588 8.58037e-15 
vn -0.798656 0.601788 7.98656e-15 
vn -0.907718 0.419582 9.07718e-15 
vn -0.858037 0.513588 8.58037e-15 
vn -0.947136 0.320832 9.47136e-15 
vn -0.907718 0.419582 9.07718e-15 
vn -0.975847 0.218455 9.75847e-15 
vn -0.947136 0.320832 9.47136e-15 
vn -0.975847 0.218455 9.75847e-15 
f 713//713 714//714 715//715 
f 716//716 713//713 717//717 
f 718//718 716//716 719//719 
f 720//720 718//718 721//721 
f 722//722 720//720 723//723 
f 724//724 722//722 725//725 
f 726//726 724//724 727//727 
f 727//727 728//728 726//726 
f 725//725 727//727 724//724 
f 723//723 725//725 722//722 
f 721//721 723//723 720//720 
f 719//719 721//721 718//718 
f 717//717 719//719 716//716 
f 715//715 717//717 713//713 
o mesh23601
v -8.82675e-05 0.0132497 0.047925 
v -6.16207e-05 0.00924979 0.047925 
v -6.16207e-05 0.00924979 0.049125 
v -8.82675e-05 0.0132497 0.049125 
vn -0.999978 -0.0066617 9.99978e-15 
vn -0.999978 -0.0066617 9.99978e-15 
vn -0.999978 -0.0066617 9.99978e-15 
vn -0.999978 -0.0066617 9.99978e-15 
f 729//729 730//730 731//731 
f 731//731 732//732 729//729 
o mesh23602
v -8.82675e-05 0.0132497 0.047925 
v -8.82675e-05 0.0132497 0.049125 
v 0.00100933 0.0132115 0.049125 
v 0.00100933 0.0132115 0.047925 
v 0.00209999 0.0130825 0.049125 
v 0.00209999 0.0130825 0.047925 
v 0.00317623 0.0128637 0.049125 
v 0.00317623 0.0128637 0.047925 
v 0.00423064 0.0125564 0.049125 
v 0.00423064 0.0125564 0.047925 
vn -0.0066617 0.999978 6.6617e-17 
vn -0.0066617 0.999978 6.6617e-17 
vn 0.0761758 0.997094 -7.61758e-16 
vn 0.0761758 0.997094 -7.61758e-16 
vn 0.15849 0.987361 -1.5849e-15 
vn 0.15849 0.987361 -1.5849e-15 
vn 0.239715 0.970843 -2.39715e-15 
vn 0.239715 0.970843 -2.39715e-15 
vn 0.319294 0.947656 -3.19294e-15 
vn 0.319294 0.947656 -3.19294e-15 
f 733//733 734//734 735//735 
f 736//736 735//735 737//737 
f 738//738 737//737 739//739 
f 740//740 739//739 741//741 
f 741//741 742//742 740//740 
f 739//739 740//740 738//738 
f 737//737 738//738 736//736 
f 735//735 736//736 733//733 
o mesh23603
v 0.00551302 0.00988909 0.047925 
v 0.0050045 0.0117376 0.047925 
v 0.0050045 0.0117376 0.049125 
v 0.00551302 0.00988909 0.049125 
vn 0.96418 0.265248 -9.6418e-15 
vn 0.96418 0.265248 -9.6418e-15 
vn 0.96418 0.265248 -9.6418e-15 
vn 0.96418 0.265248 -9.6418e-15 
f 743//743 744//744 745//745 
f 745//745 746//746 743//743 
o mesh23604
v -0.0113673 -0.000742458 0.047925 
v -0.0113673 -0.000742458 0.049125 
v -0.0113388 0.000382368 0.049125 
v -0.0113388 0.000382368 0.047925 
v -0.0111993 0.00149888 0.049125 
v -0.0111993 0.00149888 0.047925 
v -0.0109503 0.00259618 0.049125 
v -0.0109503 0.00259618 0.047925 
v -0.0105942 0.00366353 0.049125 
v -0.0105942 0.00366353 0.047925 
v -0.0101345 0.0046905 0.049125 
v -0.0101345 0.0046905 0.047925 
v -0.00957556 0.00566705 0.049125 
v -0.00957556 0.00566705 0.047925 
v -0.00892295 0.00658365 0.049125 
v -0.00892295 0.00658365 0.047925 
v -0.00818303 0.00743134 0.049125 
v -0.00818303 0.00743134 0.047925 
v -0.00736303 0.00820182 0.049125 
v -0.00736303 0.00820182 0.047925 
v -0.00647096 0.00888758 0.049125 
v -0.00647096 0.00888758 0.047925 
vn -0.999709 -0.0241127 9.99709e-15 
vn -0.999709 -0.0241127 9.99709e-15 
vn -0.997205 0.0747136 9.97205e-15 
vn -0.997205 0.0747136 9.97205e-15 
vn -0.984955 0.17281 9.84955e-15 
vn -0.984955 0.17281 9.84955e-15 
vn -0.96308 0.269217 9.6308e-15 
vn -0.96308 0.269217 9.6308e-15 
vn -0.931792 0.362993 9.31792e-15 
vn -0.931792 0.362993 9.31792e-15 
vn -0.891398 0.453222 8.91398e-15 
vn -0.891398 0.453222 8.91398e-15 
vn -0.842292 0.539022 8.42292e-15 
vn -0.842292 0.539022 8.42292e-15 
vn -0.784955 0.619553 7.84955e-15 
vn -0.784955 0.619553 7.84955e-15 
vn -0.719946 0.69403 7.19946e-15 
vn -0.719946 0.69403 7.19946e-15 
vn -0.647902 0.761724 6.47902e-15 
vn -0.647902 0.761724 6.47902e-15 
vn -0.569525 0.821974 5.69525e-15 
vn -0.569525 0.821974 5.69525e-15 
f 747//747 748//748 749//749 
f 750//750 749//749 751//751 
f 752//752 751//751 753//753 
f 754//754 753//753 755//755 
f 756//756 755//755 757//757 
f 758//758 757//757 759//759 
f 760//760 759//759 761//761 
f 762//762 761//761 763//763 
f 764//764 763//763 765//765 
f 766//766 765//765 767//767 
f 767//767 768//768 766//766 
f 765//765 766//766 764//764 
f 763//763 764//764 762//762 
f 761//761 762//762 760//760 
f 759//759 760//760 758//758 
f 757//757 758//758 756//756 
f 755//755 756//756 754//754 
f 753//753 754//754 752//752 
f 751//751 752//752 750//750 
f 749//749 750//750 747//747 
o mesh23605
v -0.00556457 0.0114826 0.047925 
v -0.00598338 0.0096118 0.047925 
v -0.00598338 0.0096118 0.049125 
v -0.00556457 0.0114826 0.049125 
vn -0.975847 0.218455 9.75847e-15 
vn -0.975847 0.218455 9.75847e-15 
vn -0.975847 0.218455 9.75847e-15 
vn -0.975847 0.218455 9.75847e-15 
f 769//769 770//770 771//771 
f 771//771 772//772 769//769 
o mesh23606
v -0.00483108 0.0123379 0.047925 
v -0.00483108 0.0123379 0.049125 
v -0.00379271 0.0126956 0.049125 
v -0.00379271 0.0126956 0.047925 
v -0.00272828 0.0129661 0.049125 
v -0.00272828 0.0129661 0.047925 
v -0.0016451 0.0131475 0.049125 
v -0.0016451 0.0131475 0.047925 
v -0.000550622 0.0132386 0.049125 
v -0.000550622 0.0132386 0.047925 
vn -0.36461 0.93116 3.6461e-15 
vn -0.36461 0.93116 3.6461e-15 
vn -0.286242 0.958157 2.86242e-15 
vn -0.286242 0.958157 2.86242e-15 
vn -0.205908 0.978571 2.05908e-15 
vn -0.205908 0.978571 2.05908e-15 
vn -0.124159 0.992262 1.24159e-15 
vn -0.124159 0.992262 1.24159e-15 
vn -0.0415564 0.999136 4.15564e-16 
vn -0.0415564 0.999136 4.15564e-16 
f 773//773 774//774 775//775 
f 776//776 775//775 777//777 
f 778//778 777//777 779//779 
f 780//780 779//779 781//781 
f 781//781 782//782 780//780 
f 779//779 780//780 778//778 
f 777//777 778//778 776//776 
f 775//775 776//776 773//773 
o mesh23607
v -0.000384396 0.00924201 0.049125 
v -0.000384396 0.00924201 0.047925 
v -0.000550622 0.0132386 0.047925 
v -0.000550622 0.0132386 0.049125 
vn 0.999136 0.0415564 -9.99136e-15 
vn 0.999136 0.0415564 -9.99136e-15 
vn 0.999136 0.0415564 -9.99136e-15 
vn 0.999136 0.0415564 -9.99136e-15 
f 783//783 784//784 785//785 
f 785//785 786//786 783//783 
o mesh23608
v 0.00917472 0.00117775 0.047925 
v 0.00924731 0.000223043 0.047925 
v 0.00924731 0.000223043 0.049125 
v 0.00900382 0.00211985 0.047925 
v 0.00917472 0.00117775 0.049125 
v 0.00873645 0.00303922 0.047925 
v 0.00900382 0.00211985 0.049125 
v 0.00837548 0.00392604 0.047925 
v 0.00873645 0.00303922 0.049125 
v 0.00792477 0.00477079 0.047925 
v 0.00837548 0.00392604 0.049125 
v 0.00738916 0.00556443 0.047925 
v 0.00792477 0.00477079 0.049125 
v 0.00677437 0.00629844 0.047925 
v 0.00738916 0.00556443 0.049125 
v 0.006087 0.00696498 0.047925 
v 0.00677437 0.00629844 0.049125 
v 0.00533441 0.00755689 0.047925 
v 0.006087 0.00696498 0.049125 
v 0.00452467 0.00806783 0.047925 
v 0.00533441 0.00755689 0.049125 
v 0.00366645 0.00849233 0.047925 
v 0.00452467 0.00806783 0.049125 
v 0.00276895 0.00882584 0.047925 
v 0.00366645 0.00849233 0.049125 
v 0.00184178 0.00906479 0.047925 
v 0.00276895 0.00882584 0.049125 
v 0.000894872 0.00920661 0.047925 
v 0.00184178 0.00906479 0.049125 
v -6.16207e-05 0.00924979 0.047925 
v 0.000894872 0.00920661 0.049125 
v -6.16207e-05 0.00924979 0.049125 
vn -0.991861 -0.127325 9.91861e-15 
vn -0.999709 -0.0241127 9.99709e-15 
vn -0.999709 -0.0241127 9.99709e-15 
vn -0.973386 -0.229172 9.73386e-15 
vn -0.991861 -0.127325 9.91861e-15 
vn -0.944481 -0.328565 9.44481e-15 
vn -0.973386 -0.229172 9.73386e-15 
vn -0.905458 -0.424437 9.05458e-15 
vn -0.944481 -0.328565 9.44481e-15 
vn -0.856732 -0.515761 8.56732e-15 
vn -0.905458 -0.424437 9.05458e-15 
vn -0.798828 -0.60156 7.98828e-15 
vn -0.856732 -0.515761 8.56732e-15 
vn -0.732364 -0.680913 7.32364e-15 
vn -0.798828 -0.60156 7.98828e-15 
vn -0.658054 -0.752971 6.58054e-15 
vn -0.732364 -0.680913 7.32364e-15 
vn -0.576693 -0.816961 5.76693e-15 
vn -0.658054 -0.752971 6.58054e-15 
vn -0.489154 -0.872198 4.89154e-15 
vn -0.576693 -0.816961 5.76693e-15 
vn -0.396373 -0.918089 3.96373e-15 
vn -0.489154 -0.872198 4.89154e-15 
vn -0.299346 -0.954145 2.99346e-15 
vn -0.396373 -0.918089 3.96373e-15 
vn -0.199111 -0.979977 1.99111e-15 
vn -0.299346 -0.954145 2.99346e-15 
vn -0.0967429 -0.995309 9.67429e-16 
vn -0.199111 -0.979977 1.99111e-15 
vn 0.0066617 -0.999978 -6.6617e-17 
vn -0.0967429 -0.995309 9.67429e-16 
vn 0.0066617 -0.999978 -6.6617e-17 
f 787//787 788//788 789//789 
f 790//790 787//787 791//791 
f 792//792 790//790 793//793 
f 794//794 792//792 795//795 
f 796//796 794//794 797//797 
f 798//798 796//796 799//799 
f 800//800 798//798 801//801 
f 802//802 800//800 803//803 
f 804//804 802//802 805//805 
f 806//806 804//804 807//807 
f 808//808 806//806 809//809 
f 810//810 808//808 811//811 
f 812//812 810//810 813//813 
f 814//814 812//812 815//815 
f 816//816 814//814 817//817 
f 817//817 818//818 816//816 
f 815//815 817//817 814//814 
f 813//813 815//815 812//812 
f 811//811 813//813 810//810 
f 809//809 811//811 808//808 
f 807//807 809//809 806//806 
f 805//805 807//807 804//804 
f 803//803 805//805 802//802 
f 801//801 803//803 800//800 
f 799//799 801//801 798//798 
f 797//797 799//799 796//796 
f 795//795 797//797 794//794 
f 793//793 795//795 792//792 
f 791//791 793//793 790//790 
f 789//789 791//791 787//787 
o mesh23609
v -0.00133769 0.00915276 0.047925 
v -0.000384396 0.00924201 0.047925 
v -0.000384396 0.00924201 0.049125 
v -0.00227666 0.00896545 0.047925 
v -0.00133769 0.00915276 0.049125 
v -0.00319123 0.00868208 0.047925 
v -0.00227666 0.00896545 0.049125 
v -0.00407162 0.00830569 0.047925 
v -0.00319123 0.00868208 0.049125 
v -0.00490837 0.00784031 0.047925 
v -0.00407162 0.00830569 0.049125 
v -0.00569254 0.00729092 0.047925 
v -0.00490837 0.00784031 0.049125 
v -0.00641571 0.00666342 0.047925 
v -0.00569254 0.00729092 0.049125 
v -0.00707015 0.00596452 0.047925 
v -0.00641571 0.00666342 0.049125 
v -0.00764883 0.00520172 0.047925 
v -0.00707015 0.00596452 0.049125 
v -0.00814557 0.00438318 0.047925 
v -0.00764883 0.00520172 0.049125 
v -0.00855502 0.00351768 0.047925 
v -0.00814557 0.00438318 0.049125 
v -0.00887282 0.00261449 0.047925 
v -0.00855502 0.00351768 0.049125 
v -0.00909555 0.00168329 0.047925 
v -0.00887282 0.00261449 0.049125 
v -0.00922083 0.000734058 0.047925 
v -0.00909555 0.00168329 0.049125 
v -0.00924731 -0.000223043 0.047925 
v -0.00922083 0.000734058 0.049125 
v -0.00924731 -0.000223043 0.049125 
vn 0.144616 -0.989488 -1.44616e-15 
vn 0.0415564 -0.999136 -4.15564e-16 
vn 0.0415564 -0.999136 -4.15564e-16 
vn 0.246125 -0.969238 -2.46125e-15 
vn 0.144616 -0.989488 -1.44616e-15 
vn 0.344998 -0.938603 -3.44998e-15 
vn 0.246125 -0.969238 -2.46125e-15 
vn 0.440175 -0.897912 -4.40175e-15 
vn 0.344998 -0.938603 -3.44998e-15 
vn 0.530635 -0.847601 -5.30635e-15 
vn 0.440175 -0.897912 -4.40175e-15 
vn 0.61541 -0.788207 -6.1541e-15 
vn 0.530635 -0.847601 -5.30635e-15 
vn 0.693591 -0.720369 -6.93591e-15 
vn 0.61541 -0.788207 -6.1541e-15 
vn 0.764341 -0.644813 -7.64341e-15 
vn 0.693591 -0.720369 -6.93591e-15 
vn 0.826901 -0.562348 -8.26901e-15 
vn 0.764341 -0.644813 -7.64341e-15 
vn 0.880602 -0.473857 -8.80602e-15 
vn 0.826901 -0.562348 -8.26901e-15 
vn 0.924867 -0.38029 -9.24867e-15 
vn 0.880602 -0.473857 -8.80602e-15 
vn 0.959224 -0.282648 -9.59224e-15 
vn 0.924867 -0.38029 -9.24867e-15 
vn 0.983303 -0.181978 -9.83303e-15 
vn 0.959224 -0.282648 -9.59224e-15 
vn 0.996846 -0.0793576 -9.96846e-15 
vn 0.983303 -0.181978 -9.83303e-15 
vn 0.999709 0.0241127 -9.99709e-15 
vn 0.996846 -0.0793576 -9.96846e-15 
vn 0.999709 0.0241127 -9.99709e-15 
f 819//819 820//820 821//821 
f 822//822 819//819 823//823 
f 824//824 822//822 825//825 
f 826//826 824//824 827//827 
f 828//828 826//826 829//829 
f 830//830 828//828 831//831 
f 832//832 830//830 833//833 
f 834//834 832//832 835//835 
f 836//836 834//834 837//837 
f 838//838 836//836 839//839 
f 840//840 838//838 841//841 
f 842//842 840//840 843//843 
f 844//844 842//842 845//845 
f 846//846 844//844 847//847 
f 848//848 846//846 849//849 
f 849//849 850//850 848//848 
f 847//847 849//849 846//846 
f 845//845 847//847 844//844 
f 843//843 845//845 842//842 
f 841//841 843//843 840//840 
f 839//839 841//841 838//838 
f 837//837 839//839 836//836 
f 835//835 837//837 834//834 
f 833//833 835//835 832//832 
f 831//831 833//833 830//830 
f 829//829 831//831 828//828 
f 827//827 829//829 826//826 
f 825//825 827//827 824//824 
f 823//823 825//825 822//822 
f 821//821 823//823 819//819 
o mesh23610
v -0.00916899 -0.00122155 0.047925 
v -0.00924731 -0.000223043 0.047925 
v -0.00924731 -0.000223043 0.049125 
v -0.00898317 -0.00220573 0.047925 
v -0.00916899 -0.00122155 0.049125 
v -0.00869203 -0.00316405 0.047925 
v -0.00898317 -0.00220573 0.049125 
v -0.00829898 -0.00408527 0.047925 
v -0.00869203 -0.00316405 0.049125 
v -0.00780863 -0.0049586 0.047925 
v -0.00829898 -0.00408527 0.049125 
v -0.00722674 -0.0057738 0.047925 
v -0.00780863 -0.0049586 0.049125 
v -0.00656012 -0.0065213 0.047925 
v -0.00722674 -0.0057738 0.049125 
v -0.00581659 -0.00719234 0.047925 
v -0.00656012 -0.0065213 0.049125 
v -0.00500486 -0.00777907 0.047925 
v -0.00581659 -0.00719234 0.049125 
v -0.00413446 -0.00827459 0.047925 
v -0.00500486 -0.00777907 0.049125 
v -0.00321558 -0.00867309 0.047925 
v -0.00413446 -0.00827459 0.049125 
v -0.00225901 -0.00896992 0.047925 
v -0.00321558 -0.00867309 0.049125 
v -0.00127594 -0.00916158 0.047925 
v -0.00225901 -0.00896992 0.049125 
v -0.000277924 -0.00924582 0.047925 
v -0.00127594 -0.00916158 0.049125 
v 0.000723355 -0.00922167 0.047925 
v -0.000277924 -0.00924582 0.049125 
v 0.00171615 -0.00908941 0.047925 
v 0.000723355 -0.00922167 0.049125 
v 0.00268883 -0.00885058 0.047925 
v 0.00171615 -0.00908941 0.049125 
v 0.00362998 -0.00850798 0.047925 
v 0.00268883 -0.00885058 0.049125 
v 0.00452858 -0.00806564 0.047925 
v 0.00362998 -0.00850798 0.049125 
v 0.00537408 -0.00752873 0.047925 
v 0.00452858 -0.00806564 0.049125 
v 0.00615658 -0.00690355 0.047925 
v 0.00537408 -0.00752873 0.049125 
v 0.00686689 -0.00619744 0.047925 
v 0.00615658 -0.00690355 0.049125 
v 0.0074967 -0.00541867 0.047925 
v 0.00686689 -0.00619744 0.049125 
v 0.00803861 -0.00457637 0.047925 
v 0.0074967 -0.00541867 0.049125 
v 0.00848628 -0.00368042 0.047925 
v 0.00803861 -0.00457637 0.049125 
v 0.00883446 -0.00274131 0.047925 
v 0.00848628 -0.00368042 0.049125 
v 0.00907906 -0.00177007 0.047925 
v 0.00883446 -0.00274131 0.049125 
v 0.00921722 -0.000778075 0.047925 
v 0.00907906 -0.00177007 0.049125 
v 0.00924731 0.000223043 0.047925 
v 0.00921722 -0.000778075 0.049125 
v 0.00924731 0.000223043 0.049125 
vn 0.991242 0.132059 -9.91242e-15 
vn 0.999709 0.0241127 -9.99709e-15 
vn 0.999709 0.0241127 -9.99709e-15 
vn 0.971153 0.238457 -9.71153e-15 
vn 0.991242 0.132059 -9.91242e-15 
vn 0.939678 0.342059 -9.39678e-15 
vn 0.971153 0.238457 -9.71153e-15 
vn 0.897187 0.441651 -8.97187e-15 
vn 0.939678 0.342059 -9.39678e-15 
vn 0.844177 0.536065 -8.44177e-15 
vn 0.897187 0.441651 -8.97187e-15 
vn 0.781269 0.624194 -7.81269e-15 
vn 0.844177 0.536065 -8.44177e-15 
vn 0.709202 0.705005 -7.09202e-15 
vn 0.781269 0.624194 -7.81269e-15 
vn 0.62882 0.777551 -6.2882e-15 
vn 0.709202 0.705005 -7.09202e-15 
vn 0.541066 0.84098 -5.41066e-15 
vn 0.62882 0.777551 -6.2882e-15 
vn 0.446968 0.89455 -4.46968e-15 
vn 0.541066 0.84098 -5.41066e-15 
vn 0.34763 0.937632 -3.4763e-15 
vn 0.446968 0.89455 -4.46968e-15 
vn 0.244217 0.969721 -2.44217e-15 
vn 0.34763 0.937632 -3.4763e-15 
vn 0.13794 0.990441 -1.3794e-15 
vn 0.244217 0.969721 -2.44217e-15 
vn 0.0300458 0.999549 -3.00458e-16 
vn 0.13794 0.990441 -1.3794e-15 
vn -0.0782005 0.996938 7.82005e-16 
vn 0.0300458 0.999549 -3.00458e-16 
vn -0.18553 0.982639 1.8553e-15 
vn -0.0782005 0.996938 7.82005e-16 
vn -0.290684 0.956819 2.90684e-15 
vn -0.18553 0.982639 1.8553e-15 
vn -0.392431 0.919782 3.92431e-15 
vn -0.290684 0.956819 2.90684e-15 
vn -0.489576 0.871961 4.89576e-15 
vn -0.392431 0.919782 3.92431e-15 
vn -0.580982 0.813917 5.80982e-15 
vn -0.489576 0.871961 4.89576e-15 
vn -0.665576 0.74633 6.65576e-15 
vn -0.580982 0.813917 5.80982e-15 
vn -0.742367 0.669994 7.42367e-15 
vn -0.665576 0.74633 6.65576e-15 
vn -0.810454 0.585802 8.10454e-15 
vn -0.742367 0.669994 7.42367e-15 
vn -0.869039 0.494743 8.69039e-15 
vn -0.810454 0.585802 8.10454e-15 
vn -0.917436 0.397883 9.17436e-15 
vn -0.869039 0.494743 8.69039e-15 
vn -0.955077 0.296358 9.55077e-15 
vn -0.917436 0.397883 9.17436e-15 
vn -0.98152 0.191359 9.8152e-15 
vn -0.955077 0.296358 9.55077e-15 
vn -0.996456 0.0841162 9.96456e-15 
vn -0.98152 0.191359 9.8152e-15 
vn -0.999709 -0.0241127 9.99709e-15 
vn -0.996456 0.0841162 9.96456e-15 
vn -0.999709 -0.0241127 9.99709e-15 
f 851//851 852//852 853//853 
f 854//854 851//851 855//855 
f 856//856 854//854 857//857 
f 858//858 856//856 859//859 
f 860//860 858//858 861//861 
f 862//862 860//860 863//863 
f 864//864 862//862 865//865 
f 866//866 864//864 867//867 
f 868//868 866//866 869//869 
f 870//870 868//868 871//871 
f 872//872 870//870 873//873 
f 874//874 872//872 875//875 
f 876//876 874//874 877//877 
f 878//878 876//876 879//879 
f 880//880 878//878 881//881 
f 882//882 880//880 883//883 
f 884//884 882//882 885//885 
f 886//886 884//884 887//887 
f 888//888 886//886 889//889 
f 890//890 888//888 891//891 
f 892//892 890//890 893//893 
f 894//894 892//892 895//895 
f 896//896 894//894 897//897 
f 898//898 896//896 899//899 
f 900//900 898//898 901//901 
f 902//902 900//900 903//903 
f 904//904 902//902 905//905 
f 906//906 904//904 907//907 
f 908//908 906//906 909//909 
f 909//909 910//910 908//908 
f 907//907 909//909 906//906 
f 905//905 907//907 904//904 
f 903//903 905//905 902//902 
f 901//901 903//903 900//900 
f 899//899 901//901 898//898 
f 897//897 899//899 896//896 
f 895//895 897//897 894//894 
f 893//893 895//895 892//892 
f 891//891 893//893 890//890 
f 889//889 891//891 888//888 
f 887//887 889//889 886//886 
f 885//885 887//887 884//884 
f 883//883 885//885 882//882 
f 881//881 883//883 880//880 
f 879//879 881//881 878//878 
f 877//877 879//879 876//876 
f 875//875 877//877 874//874 
f 873//873 875//875 872//872 
f 871//871 873//873 870//870 
f 869//869 871//871 868//868 
f 867//867 869//869 866//866 
f 865//865 867//867 864//864 
f 863//863 865//865 862//862 
f 861//861 863//863 860//860 
f 859//859 861//861 858//858 
f 857//857 859//859 856//856 
f 855//855 857//857 854//854 
f 853//853 855//855 851//851 
o mesh23611
v 0.0113898 -0.000193564 0.047925 
v 0.0113898 -0.000193564 0.049125 
v 0.0113528 -0.00142541 0.049125 
v 0.0113528 -0.00142541 0.047925 
v 0.0111828 -0.00264603 0.049125 
v 0.0111828 -0.00264603 0.047925 
v 0.0108818 -0.00384112 0.049125 
v 0.0108818 -0.00384112 0.047925 
v 0.0104534 -0.00499666 0.049125 
v 0.0104534 -0.00499666 0.047925 
v 0.00990257 -0.0060991 0.049125 
v 0.00990257 -0.0060991 0.047925 
v 0.00923576 -0.00713553 0.049125 
v 0.00923576 -0.00713553 0.047925 
v 0.0084608 -0.00809378 0.049125 
v 0.0084608 -0.00809378 0.047925 
v 0.00758677 -0.00896263 0.049125 
v 0.00758677 -0.00896263 0.047925 
v 0.00662394 -0.00973189 0.049125 
v 0.00662394 -0.00973189 0.047925 
v 0.00558357 -0.0103925 0.049125 
v 0.00558357 -0.0103925 0.047925 
v 0.00447788 -0.0109368 0.049125 
v 0.00447788 -0.0109368 0.047925 
v 0.00331981 -0.0113584 0.049125 
v 0.00331981 -0.0113584 0.047925 
v 0.00212296 -0.0116523 0.049125 
v 0.00212296 -0.0116523 0.047925 
v 0.000901355 -0.011815 0.049125 
v 0.000901355 -0.011815 0.047925 
v -0.000330689 -0.0118447 0.049125 
v -0.000330689 -0.0118447 0.047925 
v -0.00155872 -0.0117411 0.049125 
v -0.00155872 -0.0117411 0.047925 
v -0.00276835 -0.0115052 0.049125 
v -0.00276835 -0.0115052 0.047925 
v -0.00394539 -0.01114 0.049125 
v -0.00394539 -0.01114 0.047925 
v -0.00507604 -0.0106496 0.049125 
v -0.00507604 -0.0106496 0.047925 
v -0.00614705 -0.0100399 0.049125 
v -0.00614705 -0.0100399 0.047925 
v -0.00714585 -0.00931798 0.049125 
v -0.00714585 -0.00931798 0.047925 
v -0.00806075 -0.00849228 0.049125 
v -0.00806075 -0.00849228 0.047925 
v -0.008881 -0.0075725 0.049125 
v -0.008881 -0.0075725 0.047925 
v -0.00959701 -0.00656943 0.049125 
v -0.00959701 -0.00656943 0.047925 
v -0.0102004 -0.00549482 0.049125 
v -0.0102004 -0.00549482 0.047925 
v -0.010684 -0.00436128 0.049125 
v -0.010684 -0.00436128 0.047925 
v -0.0110422 -0.00318209 0.049125 
v -0.0110422 -0.00318209 0.047925 
v -0.0112709 -0.00197109 0.049125 
v -0.0112709 -0.00197109 0.047925 
v -0.0113673 -0.000742458 0.049125 
v -0.0113673 -0.000742458 0.047925 
vn 0.999709 0.0241127 -9.99709e-15 
vn 0.999709 0.0241127 -9.99709e-15 
vn 0.996456 -0.0841162 -9.96456e-15 
vn 0.996456 -0.0841162 -9.96456e-15 
vn 0.98152 -0.191359 -9.8152e-15 
vn 0.98152 -0.191359 -9.8152e-15 
vn 0.955077 -0.296358 -9.55077e-15 
vn 0.955077 -0.296358 -9.55077e-15 
vn 0.917436 -0.397883 -9.17436e-15 
vn 0.917436 -0.397883 -9.17436e-15 
vn 0.869039 -0.494743 -8.69039e-15 
vn 0.869039 -0.494743 -8.69039e-15 
vn 0.810454 -0.585802 -8.10454e-15 
vn 0.810454 -0.585802 -8.10454e-15 
vn 0.742367 -0.669994 -7.42367e-15 
vn 0.742367 -0.669994 -7.42367e-15 
vn 0.665576 -0.74633 -6.65576e-15 
vn 0.665576 -0.74633 -6.65576e-15 
vn 0.580982 -0.813917 -5.80982e-15 
vn 0.580982 -0.813917 -5.80982e-15 
vn 0.489576 -0.871961 -4.89576e-15 
vn 0.489576 -0.871961 -4.89576e-15 
vn 0.392431 -0.919782 -3.92431e-15 
vn 0.392431 -0.919782 -3.92431e-15 
vn 0.290684 -0.956819 -2.90684e-15 
vn 0.290684 -0.956819 -2.90684e-15 
vn 0.18553 -0.982639 -1.8553e-15 
vn 0.18553 -0.982639 -1.8553e-15 
vn 0.0782005 -0.996938 -7.82005e-16 
vn 0.0782005 -0.996938 -7.82005e-16 
vn -0.0300458 -0.999549 3.00458e-16 
vn -0.0300458 -0.999549 3.00458e-16 
vn -0.13794 -0.990441 1.3794e-15 
vn -0.13794 -0.990441 1.3794e-15 
vn -0.244217 -0.969721 2.44217e-15 
vn -0.244217 -0.969721 2.44217e-15 
vn -0.34763 -0.937632 3.4763e-15 
vn -0.34763 -0.937632 3.4763e-15 
vn -0.446968 -0.89455 4.46968e-15 
vn -0.446968 -0.89455 4.46968e-15 
vn -0.541066 -0.84098 5.41066e-15 
vn -0.541066 -0.84098 5.41066e-15 
vn -0.62882 -0.777551 6.2882e-15 
vn -0.62882 -0.777551 6.2882e-15 
vn -0.709202 -0.705005 7.09202e-15 
vn -0.709202 -0.705005 7.09202e-15 
vn -0.781269 -0.624194 7.81269e-15 
vn -0.781269 -0.624194 7.81269e-15 
vn -0.844177 -0.536065 8.44177e-15 
vn -0.844177 -0.536065 8.44177e-15 
vn -0.897187 -0.441651 8.97187e-15 
vn -0.897187 -0.441651 8.97187e-15 
vn -0.939678 -0.342059 9.39678e-15 
vn -0.939678 -0.342059 9.39678e-15 
vn -0.971153 -0.238457 9.71153e-15 
vn -0.971153 -0.238457 9.71153e-15 
vn -0.991242 -0.132059 9.91242e-15 
vn -0.991242 -0.132059 9.91242e-15 
vn -0.999709 -0.0241127 9.99709e-15 
vn -0.999709 -0.0241127 9.99709e-15 
f 911//911 912//912 913//913 
f 914//914 913//913 915//915 
f 916//916 915//915 917//917 
f 918//918 917//917 919//919 
f 920//920 919//919 921//921 
f 922//922 921//921 923//923 
f 924//924 923//923 925//925 
f 926//926 925//925 927//927 
f 928//928 927//927 929//929 
f 930//930 929//929 931//931 
f 932//932 931//931 933//933 
f 934//934 933//933 935//935 
f 936//936 935//935 937//937 
f 938//938 937//937 939//939 
f 940//940 939//939 941//941 
f 942//942 941//941 943//943 
f 944//944 943//943 945//945 
f 946//946 945//945 947//947 
f 948//948 947//947 949//949 
f 950//950 949//949 951//951 
f 952//952 951//951 953//953 
f 954//954 953//953 955//955 
f 956//956 955//955 957//957 
f 958//958 957//957 959//959 
f 960//960 959//959 961//961 
f 962//962 961//961 963//963 
f 964//964 963//963 965//965 
f 966//966 965//965 967//967 
f 968//968 967//967 969//969 
f 969//969 970//970 968//968 
f 967//967 968//968 966//966 
f 965//965 966//966 964//964 
f 963//963 964//964 962//962 
f 961//961 962//962 960//960 
f 959//959 960//960 958//958 
f 957//957 958//958 956//956 
f 955//955 956//956 954//954 
f 953//953 954//954 952//952 
f 951//951 952//952 950//950 
f 949//949 950//950 948//948 
f 947//947 948//948 946//946 
f 945//945 946//946 944//944 
f 943//943 944//944 942//942 
f 941//941 942//942 940//940 
f 939//939 940//940 938//938 
f 937//937 938//938 936//936 
f 935//935 936//936 934//934 
f 933//933 934//934 932//932 
f 931//931 932//932 930//930 
f 929//929 930//930 928//928 
f 927//927 928//928 926//926 
f 925//925 926//926 924//924 
f 923//923 924//924 922//922 
f 921//921 922//922 920//920 
f 919//919 920//920 918//918 
f 917//917 918//918 916//916 
f 915//915 916//916 914//914 
f 913//913 914//914 911//911 
o mesh23612
v 0.00603496 0.00918921 0.047925 
v 0.00603496 0.00918921 0.049125 
v 0.00695905 0.00854726 0.049125 
v 0.00695905 0.00854726 0.047925 
v 0.00781524 0.00781721 0.049125 
v 0.00781524 0.00781721 0.047925 
v 0.00859517 0.00700618 0.049125 
v 0.00859517 0.00700618 0.047925 
v 0.0092912 0.00612211 0.049125 
v 0.0092912 0.00612211 0.047925 
v 0.00989655 0.00517364 0.049125 
v 0.00989655 0.00517364 0.047925 
v 0.0104053 0.00417003 0.049125 
v 0.0104053 0.00417003 0.047925 
v 0.0108124 0.00312109 0.049125 
v 0.0108124 0.00312109 0.047925 
v 0.011114 0.00203708 0.049125 
v 0.011114 0.00203708 0.047925 
v 0.0113071 0.000928581 0.049125 
v 0.0113071 0.000928581 0.047925 
v 0.0113898 -0.000193564 0.049125 
v 0.0113898 -0.000193564 0.047925 
vn 0.529234 0.848476 -5.29234e-15 
vn 0.529234 0.848476 -5.29234e-15 
vn 0.610424 0.792075 -6.10424e-15 
vn 0.610424 0.792075 -6.10424e-15 
vn 0.685649 0.727933 -6.85649e-15 
vn 0.685649 0.727933 -6.85649e-15 
vn 0.754172 0.656676 -7.54172e-15 
vn 0.754172 0.656676 -7.54172e-15 
vn 0.815326 0.579003 -8.15326e-15 
vn 0.815326 0.579003 -8.15326e-15 
vn 0.868511 0.495671 -8.68511e-15 
vn 0.868511 0.495671 -8.68511e-15 
vn 0.913208 0.407494 -9.13208e-15 
vn 0.913208 0.407494 -9.13208e-15 
vn 0.94898 0.315335 -9.4898e-15 
vn 0.94898 0.315335 -9.4898e-15 
vn 0.975478 0.220095 -9.75478e-15 
vn 0.975478 0.220095 -9.75478e-15 
vn 0.992443 0.122703 -9.92443e-15 
vn 0.992443 0.122703 -9.92443e-15 
vn 0.999709 0.0241127 -9.99709e-15 
vn 0.999709 0.0241127 -9.99709e-15 
f 971//971 972//972 973//973 
f 974//974 973//973 975//975 
f 976//976 975//975 977//977 
f 978//978 977//977 979//979 
f 980//980 979//979 981//981 
f 982//982 981//981 983//983 
f 984//984 983//983 985//985 
f 986//986 985//985 987//987 
f 988//988 987//987 989//989 
f 990//990 989//989 991//991 
f 991//991 992//992 990//990 
f 989//989 990//990 988//988 
f 987//987 988//988 986//986 
f 985//985 986//986 984//984 
f 983//983 984//984 982//982 
f 981//981 982//982 980//980 
f 979//979 980//980 978//978 
f 977//977 978//978 976//976 
f 975//975 976//976 974//974 
f 973//973 974//974 971//971 
o mesh23613
v -0.00180841 0.0112753 0.047925 
v -0.00179995 0.0111674 0.047925 
v -0.00179995 0.0111674 0.049125 
v -0.0018285 0.0113817 0.047925 
v -0.00180841 0.0112753 0.049125 
v -0.00185998 0.0114853 0.047925 
v -0.0018285 0.0113817 0.049125 
v -0.00190247 0.0115849 0.047925 
v -0.00185998 0.0114853 0.049125 
v -0.00195548 0.0116793 0.047925 
v -0.00190247 0.0115849 0.049125 
v -0.00201839 0.0117675 0.047925 
v -0.00195548 0.0116793 0.049125 
v -0.00209045 0.0118483 0.047925 
v -0.00201839 0.0117675 0.049125 
v -0.00217083 0.0119208 0.047925 
v -0.00209045 0.0118483 0.049125 
v -0.00225859 0.0119843 0.047925 
v -0.00217083 0.0119208 0.049125 
v -0.00235269 0.0120378 0.047925 
v -0.00225859 0.0119843 0.049125 
v -0.00245202 0.0120809 0.047925 
v -0.00235269 0.0120378 0.049125 
v -0.00255544 0.012113 0.047925 
v -0.00245202 0.0120809 0.049125 
v -0.00266171 0.0121337 0.047925 
v -0.00255544 0.012113 0.049125 
v -0.00276961 0.0121428 0.047925 
v -0.00266171 0.0121337 0.049125 
v -0.00287785 0.0121402 0.047925 
v -0.00276961 0.0121428 0.049125 
v -0.00298518 0.0121259 0.047925 
v -0.00287785 0.0121402 0.049125 
v -0.00309034 0.0121001 0.047925 
v -0.00298518 0.0121259 0.049125 
v -0.00319208 0.0120631 0.047925 
v -0.00309034 0.0121001 0.049125 
v -0.00328923 0.0120152 0.047925 
v -0.00319208 0.0120631 0.049125 
v -0.00338064 0.0119572 0.047925 
v -0.00328923 0.0120152 0.049125 
v -0.00346523 0.0118896 0.047925 
v -0.00338064 0.0119572 0.049125 
v -0.00354202 0.0118133 0.047925 
v -0.00346523 0.0118896 0.049125 
v -0.00361011 0.0117291 0.047925 
v -0.00354202 0.0118133 0.049125 
v -0.00366869 0.011638 0.047925 
v -0.00361011 0.0117291 0.049125 
v -0.00371709 0.0115412 0.047925 
v -0.00366869 0.011638 0.049125 
v -0.00375473 0.0114396 0.047925 
v -0.00371709 0.0115412 0.049125 
v -0.00378117 0.0113346 0.047925 
v -0.00375473 0.0114396 0.049125 
v -0.00379611 0.0112274 0.047925 
v -0.00378117 0.0113346 0.049125 
v -0.00379936 0.0111192 0.047925 
v -0.00379611 0.0112274 0.049125 
v -0.00379936 0.0111192 0.049125 
vn -0.991242 -0.132059 9.91242e-15 
vn -0.999709 -0.0241127 9.99709e-15 
vn -0.999709 -0.0241127 9.99709e-15 
vn -0.971153 -0.238457 9.71153e-15 
vn -0.991242 -0.132059 9.91242e-15 
vn -0.939678 -0.342059 9.39678e-15 
vn -0.971153 -0.238457 9.71153e-15 
vn -0.897187 -0.441651 8.97187e-15 
vn -0.939678 -0.342059 9.39678e-15 
vn -0.844177 -0.536065 8.44177e-15 
vn -0.897187 -0.441651 8.97187e-15 
vn -0.781269 -0.624194 7.81269e-15 
vn -0.844177 -0.536065 8.44177e-15 
vn -0.709202 -0.705005 7.09202e-15 
vn -0.781269 -0.624194 7.81269e-15 
vn -0.62882 -0.777551 6.2882e-15 
vn -0.709202 -0.705005 7.09202e-15 
vn -0.541066 -0.84098 5.41066e-15 
vn -0.62882 -0.777551 6.2882e-15 
vn -0.446968 -0.89455 4.46968e-15 
vn -0.541066 -0.84098 5.41066e-15 
vn -0.34763 -0.937632 3.4763e-15 
vn -0.446968 -0.89455 4.46968e-15 
vn -0.244217 -0.969721 2.44217e-15 
vn -0.34763 -0.937632 3.4763e-15 
vn -0.13794 -0.990441 1.3794e-15 
vn -0.244217 -0.969721 2.44217e-15 
vn -0.0300458 -0.999549 3.00458e-16 
vn -0.13794 -0.990441 1.3794e-15 
vn 0.0782005 -0.996938 -7.82005e-16 
vn -0.0300458 -0.999549 3.00458e-16 
vn 0.18553 -0.982639 -1.8553e-15 
vn 0.0782005 -0.996938 -7.82005e-16 
vn 0.290684 -0.956819 -2.90684e-15 
vn 0.18553 -0.982639 -1.8553e-15 
vn 0.392431 -0.919782 -3.92431e-15 
vn 0.290684 -0.956819 -2.90684e-15 
vn 0.489576 -0.871961 -4.89576e-15 
vn 0.392431 -0.919782 -3.92431e-15 
vn 0.580982 -0.813917 -5.80982e-15 
vn 0.489576 -0.871961 -4.89576e-15 
vn 0.665576 -0.74633 -6.65576e-15 
vn 0.580982 -0.813917 -5.80982e-15 
vn 0.742367 -0.669994 -7.42367e-15 
vn 0.665576 -0.74633 -6.65576e-15 
vn 0.810454 -0.585802 -8.10454e-15 
vn 0.742367 -0.669994 -7.42367e-15 
vn 0.869039 -0.494743 -8.69039e-15 
vn 0.810454 -0.585802 -8.10454e-15 
vn 0.917436 -0.397883 -9.17436e-15 
vn 0.869039 -0.494743 -8.69039e-15 
vn 0.955077 -0.296358 -9.55077e-15 
vn 0.917436 -0.397883 -9.17436e-15 
vn 0.98152 -0.191359 -9.8152e-15 
vn 0.955077 -0.296358 -9.55077e-15 
vn 0.996456 -0.0841162 -9.96456e-15 
vn 0.98152 -0.191359 -9.8152e-15 
vn 0.999709 0.0241127 -9.99709e-15 
vn 0.996456 -0.0841162 -9.96456e-15 
vn 0.999709 0.0241127 -9.99709e-15 
f 993//993 994//994 995//995 
f 996//996 993//993 997//997 
f 998//998 996//996 999//999 
f 1000//1000 998//998 1001//1001 
f 1002//1002 1000//1000 1003//1003 
f 1004//1004 1002//1002 1005//1005 
f 1006//1006 1004//1004 1007//1007 
f 1008//1008 1006//1006 1009//1009 
f 1010//1010 1008//1008 1011//1011 
f 1012//1012 1010//1010 1013//1013 
f 1014//1014 1012//1012 1015//1015 
f 1016//1016 1014//1014 1017//1017 
f 1018//1018 1016//1016 1019//1019 
f 1020//1020 1018//1018 1021//1021 
f 1022//1022 1020//1020 1023//1023 
f 1024//1024 1022//1022 1025//1025 
f 1026//1026 1024//1024 1027//1027 
f 1028//1028 1026//1026 1029//1029 
f 1030//1030 1028//1028 1031//1031 
f 1032//1032 1030//1030 1033//1033 
f 1034//1034 1032//1032 1035//1035 
f 1036//1036 1034//1034 1037//1037 
f 1038//1038 1036//1036 1039//1039 
f 1040//1040 1038//1038 1041//1041 
f 1042//1042 1040//1040 1043//1043 
f 1044//1044 1042//1042 1045//1045 
f 1046//1046 1044//1044 1047//1047 
f 1048//1048 1046//1046 1049//1049 
f 1050//1050 1048//1048 1051//1051 
f 1051//1051 1052//1052 1050//1050 
f 1049//1049 1051//1051 1048//1048 
f 1047//1047 1049//1049 1046//1046 
f 1045//1045 1047//1047 1044//1044 
f 1043//1043 1045//1045 1042//1042 
f 1041//1041 1043//1043 1040//1040 
f 1039//1039 1041//1041 1038//1038 
f 1037//1037 1039//1039 1036//1036 
f 1035//1035 1037//1037 1034//1034 
f 1033//1033 1035//1035 1032//1032 
f 1031//1031 1033//1033 1030//1030 
f 1029//1029 1031//1031 1028//1028 
f 1027//1027 1029//1029 1026//1026 
f 1025//1025 1027//1027 1024//1024 
f 1023//1023 1025//1025 1022//1022 
f 1021//1021 1023//1023 1020//1020 
f 1019//1019 1021//1021 1018//1018 
f 1017//1017 1019//1019 1016//1016 
f 1015//1015 1017//1017 1014//1014 
f 1013//1013 1015//1015 1012//1012 
f 1011//1011 1013//1013 1010//1010 
f 1009//1009 1011//1011 1008//1008 
f 1007//1007 1009//1009 1006//1006 
f 1005//1005 1007//1007 1004//1004 
f 1003//1003 1005//1005 1002//1002 
f 1001//1001 1003//1003 1000//1000 
f 999//999 1001//1001 998//998 
f 997//997 999//999 996//996 
f 995//995 997//997 993//993 
o mesh23614
v -0.0037909 0.0110112 0.047925 
v -0.00379936 0.0111192 0.047925 
v -0.00379936 0.0111192 0.049125 
v -0.00377081 0.0109048 0.047925 
v -0.0037909 0.0110112 0.049125 
v -0.00373933 0.0108012 0.047925 
v -0.00377081 0.0109048 0.049125 
v -0.00369684 0.0107016 0.047925 
v -0.00373933 0.0108012 0.049125 
v -0.00364383 0.0106072 0.047925 
v -0.00369684 0.0107016 0.049125 
v -0.00358092 0.0105191 0.047925 
v -0.00364383 0.0106072 0.049125 
v -0.00350886 0.0104383 0.047925 
v -0.00358092 0.0105191 0.049125 
v -0.00342847 0.0103657 0.047925 
v -0.00350886 0.0104383 0.049125 
v -0.00334072 0.0103023 0.047925 
v -0.00342847 0.0103657 0.049125 
v -0.00324662 0.0102487 0.047925 
v -0.00334072 0.0103023 0.049125 
v -0.00314728 0.0102057 0.047925 
v -0.00324662 0.0102487 0.049125 
v -0.00304387 0.0101736 0.047925 
v -0.00314728 0.0102057 0.049125 
v -0.00293759 0.0101528 0.047925 
v -0.00304387 0.0101736 0.049125 
v -0.0028297 0.0101437 0.047925 
v -0.00293759 0.0101528 0.049125 
v -0.00272145 0.0101463 0.047925 
v -0.0028297 0.0101437 0.049125 
v -0.00261412 0.0101606 0.047925 
v -0.00272145 0.0101463 0.049125 
v -0.00250897 0.0101865 0.047925 
v -0.00261412 0.0101606 0.049125 
v -0.00240722 0.0102235 0.047925 
v -0.00250897 0.0101865 0.049125 
v -0.00231008 0.0102713 0.047925 
v -0.00240722 0.0102235 0.049125 
v -0.00221867 0.0103294 0.047925 
v -0.00231008 0.0102713 0.049125 
v -0.00213408 0.010397 0.047925 
v -0.00221867 0.0103294 0.049125 
v -0.00205729 0.0104733 0.047925 
v -0.00213408 0.010397 0.049125 
v -0.0019892 0.0105575 0.047925 
v -0.00205729 0.0104733 0.049125 
v -0.00193061 0.0106485 0.047925 
v -0.0019892 0.0105575 0.049125 
v -0.00188222 0.0107454 0.047925 
v -0.00193061 0.0106485 0.049125 
v -0.00184458 0.0108469 0.047925 
v -0.00188222 0.0107454 0.049125 
v -0.00181813 0.0109519 0.047925 
v -0.00184458 0.0108469 0.049125 
v -0.0018032 0.0110592 0.047925 
v -0.00181813 0.0109519 0.049125 
v -0.00179995 0.0111674 0.047925 
v -0.0018032 0.0110592 0.049125 
v -0.00179995 0.0111674 0.049125 
vn 0.991242 0.132059 -9.91242e-15 
vn 0.999709 0.0241127 -9.99709e-15 
vn 0.999709 0.0241127 -9.99709e-15 
vn 0.971153 0.238457 -9.71153e-15 
vn 0.991242 0.132059 -9.91242e-15 
vn 0.939678 0.342059 -9.39678e-15 
vn 0.971153 0.238457 -9.71153e-15 
vn 0.897187 0.441651 -8.97187e-15 
vn 0.939678 0.342059 -9.39678e-15 
vn 0.844177 0.536065 -8.44177e-15 
vn 0.897187 0.441651 -8.97187e-15 
vn 0.781269 0.624194 -7.81269e-15 
vn 0.844177 0.536065 -8.44177e-15 
vn 0.709202 0.705005 -7.09202e-15 
vn 0.781269 0.624194 -7.81269e-15 
vn 0.62882 0.777551 -6.2882e-15 
vn 0.709202 0.705005 -7.09202e-15 
vn 0.541066 0.84098 -5.41066e-15 
vn 0.62882 0.777551 -6.2882e-15 
vn 0.446968 0.89455 -4.46968e-15 
vn 0.541066 0.84098 -5.41066e-15 
vn 0.34763 0.937632 -3.4763e-15 
vn 0.446968 0.89455 -4.46968e-15 
vn 0.244217 0.969721 -2.44217e-15 
vn 0.34763 0.937632 -3.4763e-15 
vn 0.13794 0.990441 -1.3794e-15 
vn 0.244217 0.969721 -2.44217e-15 
vn 0.0300458 0.999549 -3.00458e-16 
vn 0.13794 0.990441 -1.3794e-15 
vn -0.0782005 0.996938 7.82005e-16 
vn 0.0300458 0.999549 -3.00458e-16 
vn -0.18553 0.982639 1.8553e-15 
vn -0.0782005 0.996938 7.82005e-16 
vn -0.290684 0.956819 2.90684e-15 
vn -0.18553 0.982639 1.8553e-15 
vn -0.392431 0.919782 3.92431e-15 
vn -0.290684 0.956819 2.90684e-15 
vn -0.489576 0.871961 4.89576e-15 
vn -0.392431 0.919782 3.92431e-15 
vn -0.580982 0.813917 5.80982e-15 
vn -0.489576 0.871961 4.89576e-15 
vn -0.665576 0.74633 6.65576e-15 
vn -0.580982 0.813917 5.80982e-15 
vn -0.742367 0.669994 7.42367e-15 
vn -0.665576 0.74633 6.65576e-15 
vn -0.810454 0.585802 8.10454e-15 
vn -0.742367 0.669994 7.42367e-15 
vn -0.869039 0.494743 8.69039e-15 
vn -0.810454 0.585802 8.10454e-15 
vn -0.917436 0.397883 9.17436e-15 
vn -0.869039 0.494743 8.69039e-15 
vn -0.955077 0.296358 9.55077e-15 
vn -0.917436 0.397883 9.17436e-15 
vn -0.98152 0.191359 9.8152e-15 
vn -0.955077 0.296358 9.55077e-15 
vn -0.996456 0.0841162 9.96456e-15 
vn -0.98152 0.191359 9.8152e-15 
vn -0.999709 -0.0241127 9.99709e-15 
vn -0.996456 0.0841162 9.96456e-15 
vn -0.999709 -0.0241127 9.99709e-15 
f 1053//1053 1054//1054 1055//1055 
f 1056//1056 1053//1053 1057//1057 
f 1058//1058 1056//1056 1059//1059 
f 1060//1060 1058//1058 1061//1061 
f 1062//1062 1060//1060 1063//1063 
f 1064//1064 1062//1062 1065//1065 
f 1066//1066 1064//1064 1067//1067 
f 1068//1068 1066//1066 1069//1069 
f 1070//1070 1068//1068 1071//1071 
f 1072//1072 1070//1070 1073//1073 
f 1074//1074 1072//1072 1075//1075 
f 1076//1076 1074//1074 1077//1077 
f 1078//1078 1076//1076 1079//1079 
f 1080//1080 1078//1078 1081//1081 
f 1082//1082 1080//1080 1083//1083 
f 1084//1084 1082//1082 1085//1085 
f 1086//1086 1084//1084 1087//1087 
f 1088//1088 1086//1086 1089//1089 
f 1090//1090 1088//1088 1091//1091 
f 1092//1092 1090//1090 1093//1093 
f 1094//1094 1092//1092 1095//1095 
f 1096//1096 1094//1094 1097//1097 
f 1098//1098 1096//1096 1099//1099 
f 1100//1100 1098//1098 1101//1101 
f 1102//1102 1100//1100 1103//1103 
f 1104//1104 1102//1102 1105//1105 
f 1106//1106 1104//1104 1107//1107 
f 1108//1108 1106//1106 1109//1109 
f 1110//1110 1108//1108 1111//1111 
f 1111//1111 1112//1112 1110//1110 
f 1109//1109 1111//1111 1108//1108 
f 1107//1107 1109//1109 1106//1106 
f 1105//1105 1107//1107 1104//1104 
f 1103//1103 1105//1105 1102//1102 
f 1101//1101 1103//1103 1100//1100 
f 1099//1099 1101//1101 1098//1098 
f 1097//1097 1099//1099 1096//1096 
f 1095//1095 1097//1097 1094//1094 
f 1093//1093 1095//1095 1092//1092 
f 1091//1091 1093//1093 1090//1090 
f 1089//1089 1091//1091 1088//1088 
f 1087//1087 1089//1089 1086//1086 
f 1085//1085 1087//1087 1084//1084 
f 1083//1083 1085//1085 1082//1082 
f 1081//1081 1083//1083 1080//1080 
f 1079//1079 1081//1081 1078//1078 
f 1077//1077 1079//1079 1076//1076 
f 1075//1075 1077//1077 1074//1074 
f 1073//1073 1075//1075 1072//1072 
f 1071//1071 1073//1073 1070//1070 
f 1069//1069 1071//1071 1068//1068 
f 1067//1067 1069//1069 1066//1066 
f 1065//1065 1067//1067 1064//1064 
f 1063//1063 1065//1065 1062//1062 
f 1061//1061 1063//1063 1060//1060 
f 1059//1059 1061//1061 1058//1058 
f 1057//1057 1059//1059 1056//1056 
f 1055//1055 1057//1057 1053//1053 
