# OBJ generated by ONSHAPE BY PTC INC, 1.215 Units = meters
mtllib TensionerSpacer.mtl
g TensionerSpacer
usemtl 0.501961_0.501961_1.000000_0.000000_0.000000
o mesh28023
v 0.00496613 0.001 0.00336712 
v 0.00530107 0.001 0.00281045 
v 0.00309229 0.001 0.00163943 
v 0.00557386 0.001 0.00222083 
v 0.00325142 0.001 0.00129548 
v 0.0057813 0.001 -0.00160517 
v 0.00337242 0.001 -0.000936349 
v 0.00345389 0.001 -0.000566237 
v 0.00557386 0.001 -0.00222083 
v 0.00325142 0.001 -0.00129548 
v 0.00191581 0.001 0.00568592 
v 0.00111756 0.001 0.00331679 
v 0.000752397 0.001 0.00341817 
v 0.00251933 0.001 0.00544545 
v 0.00146961 0.001 0.00317651 
v 0.00309332 0.001 0.00514114 
v 0.00180444 0.001 0.002999 
v 0.00363105 0.001 0.00477656 
v 0.00211811 0.001 0.00278633 
v 0.0041262 0.001 0.00435597 
v 0.00240695 0.001 0.00254098 
v 0.00457297 0.001 0.00388432 
v 0.00266757 0.001 0.00226585 
v 0.00289691 0.001 0.00196415 
v 0.00530107 0.001 -0.00281045 
v 0.00309229 0.001 -0.00163943 
v 0.00457297 0.001 -0.00388432 
v 0.00266757 0.001 -0.00226585 
v 0.00289691 0.001 -0.00196415 
v 0.0041262 0.001 -0.00435597 
v 0.00240695 0.001 -0.00254098 
v 0.00496613 0.001 -0.00336712 
v 0.00363105 0.001 -0.00477656 
v 0.00211811 0.001 -0.00278633 
v 0.00251933 0.001 -0.00544545 
v 0.00146961 0.001 -0.00317651 
v 0.00180444 0.001 -0.002999 
v 0.00191581 0.001 -0.00568592 
v 0.00111756 0.001 -0.00331679 
v 0.0057813 0.001 0.00160517 
v 0.00337242 0.001 0.000936349 
v 0.00592096 0.001 0.000970692 
v 0.00345389 0.001 0.000566237 
v 0.0059912 0.001 0.000324833 
v 0.00349487 0.001 0.000189486 
v 0.0059912 0.001 -0.000324833 
v 0.00349487 0.001 -0.000189486 
v 0.00309332 0.001 -0.00514114 
v 0.00128982 0.001 -0.00585972 
v 0.000752397 0.001 -0.00341817 
v 0.000648714 0.001 -0.00596483 
v 0.000378417 0.001 -0.00347948 
v 0.00592096 0.001 -0.000970692 
v 0 0.001 -0.006 
v 0 0.001 -0.0035 
v -0.000648714 0.001 -0.00596483 
v -0.000378417 0.001 -0.00347948 
v -0.00128982 0.001 -0.00585972 
v -0.000752397 0.001 -0.00341817 
v -0.00191581 0.001 -0.00568592 
v -0.00111756 0.001 -0.00331679 
v -0.00251933 0.001 -0.00544545 
v -0.00146961 0.001 -0.00317651 
v -0.0041262 0.001 -0.00435597 
v -0.00240695 0.001 -0.00254098 
v -0.00211811 0.001 -0.00278633 
v -0.00457297 0.001 -0.00388432 
v -0.00266757 0.001 -0.00226585 
v -0.00309332 0.001 -0.00514114 
v -0.00180444 0.001 -0.002999 
v -0.00363105 0.001 -0.00477656 
v -0.00496613 0.001 -0.00336712 
v -0.00289691 0.001 -0.00196415 
v -0.00530107 0.001 -0.00281045 
v -0.00309229 0.001 -0.00163943 
v -0.00592096 0.001 -0.000970692 
v -0.00345389 0.001 -0.000566237 
v -0.00337242 0.001 -0.000936349 
v -0.0059912 0.001 -0.000324833 
v -0.00349487 0.001 -0.000189486 
v -0.0059912 0.001 0.000324833 
v -0.00349487 0.001 0.000189486 
v -0.00592096 0.001 0.000970692 
v -0.00345389 0.001 0.000566237 
v 0.000648714 0.001 0.00596483 
v 0.000378417 0.001 0.00347948 
v 4.28626e-19 0.001 0.0035 
v 0.00128982 0.001 0.00585972 
v -0.00557386 0.001 -0.00222083 
v -0.00325142 0.001 -0.00129548 
v -0.0057813 0.001 -0.00160517 
v -0.00530107 0.001 0.00281045 
v -0.00309229 0.001 0.00163943 
v -0.00325142 0.001 0.00129548 
v -0.00496613 0.001 0.00336712 
v -0.00289691 0.001 0.00196415 
v -0.00457297 0.001 0.00388432 
v -0.00266757 0.001 0.00226585 
v -0.0041262 0.001 0.00435597 
v -0.00240695 0.001 0.00254098 
v -0.00363105 0.001 0.00477656 
v -0.00211811 0.001 0.00278633 
v -0.00309332 0.001 0.00514114 
v -0.00180444 0.001 0.002999 
v -0.00128982 0.001 0.00585972 
v -0.000752397 0.001 0.00341817 
v -0.00111756 0.001 0.00331679 
v -0.000648714 0.001 0.00596483 
v -0.000378417 0.001 0.00347948 
v -0.00251933 0.001 0.00544545 
v -0.00146961 0.001 0.00317651 
v 2.20436e-18 0.001 0.006 
v -0.0057813 0.001 0.00160517 
v -0.00337242 0.001 0.000936349 
v -0.00557386 0.001 0.00222083 
v -0.00191581 0.001 0.00568592 
vn 0 1 0 
vn 0 1 0 
vn 0 1 0 
vn 0 1 0 
vn 0 1 0 
vn 0 1 0 
vn 0 1 0 
vn 0 1 0 
vn 0 1 0 
vn 0 1 0 
vn 0 1 0 
vn 0 1 0 
vn 0 1 0 
vn 0 1 0 
vn 0 1 0 
vn 0 1 0 
vn 0 1 0 
vn 0 1 0 
vn 0 1 0 
vn 0 1 0 
vn 0 1 0 
vn 0 1 0 
vn 0 1 0 
vn 0 1 0 
vn 0 1 0 
vn 0 1 0 
vn 0 1 0 
vn 0 1 0 
vn 0 1 0 
vn 0 1 0 
vn 0 1 0 
vn 0 1 0 
vn 0 1 0 
vn 0 1 0 
vn 0 1 0 
vn 0 1 0 
vn 0 1 0 
vn 0 1 0 
vn 0 1 0 
vn 0 1 0 
vn 0 1 0 
vn 0 1 0 
vn 0 1 0 
vn 0 1 0 
vn 0 1 0 
vn 0 1 0 
vn 0 1 0 
vn 0 1 0 
vn 0 1 0 
vn 0 1 0 
vn 0 1 0 
vn 0 1 0 
vn 0 1 0 
vn 0 1 0 
vn 0 1 0 
vn 0 1 0 
vn 0 1 0 
vn 0 1 0 
vn 0 1 0 
vn 0 1 0 
vn 0 1 0 
vn 0 1 0 
vn 0 1 0 
vn 0 1 0 
vn 0 1 0 
vn 0 1 0 
vn 0 1 0 
vn 0 1 0 
vn 0 1 0 
vn 0 1 0 
vn 0 1 0 
vn 0 1 0 
vn 0 1 0 
vn 0 1 0 
vn 0 1 0 
vn 0 1 0 
vn 0 1 0 
vn 0 1 0 
vn 0 1 0 
vn 0 1 0 
vn 0 1 0 
vn 0 1 0 
vn 0 1 0 
vn 0 1 0 
vn 0 1 0 
vn 0 1 0 
vn 0 1 0 
vn 0 1 0 
vn 0 1 0 
vn 0 1 0 
vn 0 1 0 
vn 0 1 0 
vn 0 1 0 
vn 0 1 0 
vn 0 1 0 
vn 0 1 0 
vn 0 1 0 
vn 0 1 0 
vn 0 1 0 
vn 0 1 0 
vn 0 1 0 
vn 0 1 0 
vn 0 1 0 
vn 0 1 0 
vn 0 1 0 
vn 0 1 0 
vn 0 1 0 
vn 0 1 0 
vn 0 1 0 
vn 0 1 0 
vn 0 1 0 
vn 0 1 0 
vn 0 1 0 
vn 0 1 0 
vn 0 1 0 
vn 0 1 0 
f 1//1 2//2 3//3 
f 2//2 4//4 5//5 
f 6//6 7//7 8//8 
f 6//6 9//9 10//10 
f 11//11 12//12 13//13 
f 11//11 14//14 15//15 
f 16//16 17//17 15//15 
f 16//16 18//18 19//19 
f 20//20 21//21 19//19 
f 20//20 22//22 23//23 
f 22//22 1//1 24//24 
f 5//5 3//3 2//2 
f 10//10 7//7 6//6 
f 9//9 25//25 26//26 
f 27//27 28//28 29//29 
f 27//27 30//30 31//31 
f 15//15 12//12 11//11 
f 19//19 17//17 16//16 
f 23//23 21//21 20//20 
f 3//3 24//24 1//1 
f 26//26 10//10 9//9 
f 25//25 32//32 29//29 
f 31//31 28//28 27//27 
f 30//30 33//33 34//34 
f 35//35 36//36 37//37 
f 35//35 38//38 39//39 
f 15//15 14//14 16//16 
f 24//24 23//23 22//22 
f 40//40 41//41 5//5 
f 40//40 42//42 43//43 
f 44//44 45//45 43//43 
f 44//44 46//46 47//47 
f 29//29 26//26 25//25 
f 34//34 31//31 30//30 
f 33//33 48//48 37//37 
f 39//39 36//36 35//35 
f 49//49 50//50 39//39 
f 51//51 52//52 50//50 
f 19//19 18//18 20//20 
f 43//43 41//41 40//40 
f 47//47 45//45 44//44 
f 46//46 53//53 8//8 
f 29//29 32//32 27//27 
f 37//37 48//48 35//35 
f 50//50 49//49 51//51 
f 51//51 54//54 55//55 
f 5//5 4//4 40//40 
f 8//8 47//47 46//46 
f 37//37 34//34 33//33 
f 55//55 52//52 51//51 
f 43//43 42//42 44//44 
f 39//39 38//38 49//49 
f 56//56 57//57 55//55 
f 56//56 58//58 59//59 
f 8//8 53//53 6//6 
f 59//59 57//57 56//56 
f 60//60 61//61 59//59 
f 60//60 62//62 63//63 
f 64//64 65//65 66//66 
f 67//67 68//68 65//65 
f 55//55 54//54 56//56 
f 63//63 61//61 60//60 
f 69//69 70//70 63//63 
f 69//69 71//71 66//66 
f 65//65 64//64 67//67 
f 67//67 72//72 73//73 
f 59//59 58//58 60//60 
f 66//66 70//70 69//69 
f 73//73 68//68 67//67 
f 72//72 74//74 75//75 
f 76//76 77//77 78//78 
f 79//79 80//80 77//77 
f 79//79 81//81 82//82 
f 81//81 83//83 84//84 
f 85//85 86//86 87//87 
f 85//85 88//88 13//13 
f 63//63 62//62 69//69 
f 75//75 73//73 72//72 
f 89//89 90//90 75//75 
f 89//89 91//91 78//78 
f 77//77 76//76 79//79 
f 84//84 82//82 81//81 
f 92//92 93//93 94//94 
f 92//92 95//95 96//96 
f 97//97 98//98 96//96 
f 97//97 99//99 100//100 
f 99//99 101//101 102//102 
f 101//101 103//103 104//104 
f 105//105 106//106 107//107 
f 105//105 108//108 109//109 
f 13//13 86//86 85//85 
f 66//66 71//71 64//64 
f 78//78 90//90 89//89 
f 82//82 80//80 79//79 
f 96//96 93//93 92//92 
f 100//100 98//98 97//97 
f 104//104 102//102 101//101 
f 103//103 110//110 111//111 
f 109//109 106//106 105//105 
f 108//108 112//112 87//87 
f 13//13 88//88 11//11 
f 78//78 91//91 76//76 
f 113//113 114//114 84//84 
f 113//113 115//115 94//94 
f 96//96 95//95 97//97 
f 111//111 104//104 103//103 
f 110//110 116//116 107//107 
f 87//87 109//109 108//108 
f 75//75 74//74 89//89 
f 94//94 114//114 113//113 
f 102//102 100//100 99//99 
f 107//107 116//116 105//105 
f 84//84 83//83 113//113 
f 107//107 111//111 110//110 
f 94//94 115//115 92//92 
f 87//87 112//112 85//85 
o mesh28024
v 0 0 -0.006 
v 0 0.001 -0.006 
v 0.000648714 0.001 -0.00596483 
v 0.000648714 0 -0.00596483 
v 0.00128982 0.001 -0.00585972 
v 0.00128982 0 -0.00585972 
v 0.00191581 0.001 -0.00568592 
v 0.00191581 0 -0.00568592 
v 0.00251933 0.001 -0.00544545 
v 0.00251933 0 -0.00544545 
v 0.00309332 0.001 -0.00514114 
v 0.00309332 0 -0.00514114 
v 0.00363105 0.001 -0.00477656 
v 0.00363105 0 -0.00477656 
v 0.0041262 0.001 -0.00435597 
v 0.0041262 0 -0.00435597 
v 0.00457297 0.001 -0.00388432 
v 0.00457297 0 -0.00388432 
v 0.00496613 0.001 -0.00336712 
v 0.00496613 0 -0.00336712 
v 0.00530107 0.001 -0.00281045 
v 0.00530107 0 -0.00281045 
v 0.00557386 0.001 -0.00222083 
v 0.00557386 0 -0.00222083 
v 0.0057813 0.001 -0.00160517 
v 0.0057813 0 -0.00160517 
v 0.00592096 0.001 -0.000970692 
v 0.00592096 0 -0.000970692 
v 0.0059912 0.001 -0.000324833 
v 0.0059912 0 -0.000324833 
v 0.0059912 0.001 0.000324833 
v 0.0059912 0 0.000324833 
v 0.00592096 0.001 0.000970692 
v 0.00592096 0 0.000970692 
v 0.0057813 0.001 0.00160517 
v 0.0057813 0 0.00160517 
v 0.00557386 0.001 0.00222083 
v 0.00557386 0 0.00222083 
v 0.00530107 0.001 0.00281045 
v 0.00530107 0 0.00281045 
v 0.00496613 0.001 0.00336712 
v 0.00496613 0 0.00336712 
v 0.00457297 0.001 0.00388432 
v 0.00457297 0 0.00388432 
v 0.0041262 0.001 0.00435597 
v 0.0041262 0 0.00435597 
v 0.00363105 0.001 0.00477656 
v 0.00363105 0 0.00477656 
v 0.00309332 0.001 0.00514114 
v 0.00309332 0 0.00514114 
v 0.00251933 0.001 0.00544545 
v 0.00251933 0 0.00544545 
v 0.00191581 0.001 0.00568592 
v 0.00191581 0 0.00568592 
v 0.00128982 0.001 0.00585972 
v 0.00128982 0 0.00585972 
v 0.000648714 0.001 0.00596483 
v 0.000648714 0 0.00596483 
v 2.20436e-18 0.001 0.006 
v 7.34788e-19 0 0.006 
v -0.000648714 0.001 0.00596483 
v -0.000648714 0 0.00596483 
v -0.00128982 0.001 0.00585972 
v -0.00128982 0 0.00585972 
v -0.00191581 0.001 0.00568592 
v -0.00191581 0 0.00568592 
v -0.00251933 0.001 0.00544545 
v -0.00251933 0 0.00544545 
v -0.00309332 0.001 0.00514114 
v -0.00309332 0 0.00514114 
v -0.00363105 0.001 0.00477656 
v -0.00363105 0 0.00477656 
v -0.0041262 0.001 0.00435597 
v -0.0041262 0 0.00435597 
v -0.00457297 0.001 0.00388432 
v -0.00457297 0 0.00388432 
v -0.00496613 0.001 0.00336712 
v -0.00496613 0 0.00336712 
v -0.00530107 0.001 0.00281045 
v -0.00530107 0 0.00281045 
v -0.00557386 0.001 0.00222083 
v -0.00557386 0 0.00222083 
v -0.0057813 0.001 0.00160517 
v -0.0057813 0 0.00160517 
v -0.00592096 0.001 0.000970692 
v -0.00592096 0 0.000970692 
v -0.0059912 0.001 0.000324833 
v -0.0059912 0 0.000324833 
v -0.0059912 0.001 -0.000324833 
v -0.0059912 0 -0.000324833 
v -0.00592096 0.001 -0.000970692 
v -0.00592096 0 -0.000970692 
v -0.0057813 0.001 -0.00160517 
v -0.0057813 0 -0.00160517 
v -0.00557386 0.001 -0.00222083 
v -0.00557386 0 -0.00222083 
v -0.00530107 0.001 -0.00281045 
v -0.00530107 0 -0.00281045 
v -0.00496613 0.001 -0.00336712 
v -0.00496613 0 -0.00336712 
v -0.00457297 0.001 -0.00388432 
v -0.00457297 0 -0.00388432 
v -0.0041262 0.001 -0.00435597 
v -0.0041262 0 -0.00435597 
v -0.00363105 0.001 -0.00477656 
v -0.00363105 0 -0.00477656 
v -0.00309332 0.001 -0.00514114 
v -0.00309332 0 -0.00514114 
v -0.00251933 0.001 -0.00544545 
v -0.00251933 0 -0.00544545 
v -0.00191581 0.001 -0.00568592 
v -0.00191581 0 -0.00568592 
v -0.00128982 0.001 -0.00585972 
v -0.00128982 0 -0.00585972 
v -0.000648714 0.001 -0.00596483 
v -0.000648714 0 -0.00596483 
vn 0 0 -1 
vn 0 0 -1 
vn 0.108119 0 -0.994138 
vn 0.108119 0 -0.994138 
vn 0.21497 0 -0.976621 
vn 0.21497 0 -0.976621 
vn 0.319302 0 -0.947653 
vn 0.319302 0 -0.947653 
vn 0.419889 0 -0.907575 
vn 0.419889 0 -0.907575 
vn 0.515554 0 -0.856857 
vn 0.515554 0 -0.856857 
vn 0.605174 0 -0.796093 
vn 0.605174 0 -0.796093 
vn 0.687699 0 -0.725995 
vn 0.687699 0 -0.725995 
vn 0.762162 0 -0.647386 
vn 0.762162 0 -0.647386 
vn 0.827689 0 -0.561187 
vn 0.827689 0 -0.561187 
vn 0.883512 0 -0.468408 
vn 0.883512 0 -0.468408 
vn 0.928977 0 -0.370138 
vn 0.928977 0 -0.370138 
vn 0.96355 0 -0.267528 
vn 0.96355 0 -0.267528 
vn 0.986827 0 -0.161782 
vn 0.986827 0 -0.161782 
vn 0.998533 0 -0.0541389 
vn 0.998533 0 -0.0541389 
vn 0.998533 0 0.0541389 
vn 0.998533 0 0.0541389 
vn 0.986827 0 0.161782 
vn 0.986827 0 0.161782 
vn 0.96355 0 0.267528 
vn 0.96355 0 0.267528 
vn 0.928977 0 0.370138 
vn 0.928977 0 0.370138 
vn 0.883512 0 0.468408 
vn 0.883512 0 0.468408 
vn 0.827689 0 0.561187 
vn 0.827689 0 0.561187 
vn 0.762162 0 0.647386 
vn 0.762162 0 0.647386 
vn 0.687699 0 0.725995 
vn 0.687699 0 0.725995 
vn 0.605174 0 0.796093 
vn 0.605174 0 0.796093 
vn 0.515554 0 0.856857 
vn 0.515554 0 0.856857 
vn 0.419889 0 0.907575 
vn 0.419889 0 0.907575 
vn 0.319302 0 0.947653 
vn 0.319302 0 0.947653 
vn 0.21497 0 0.976621 
vn 0.21497 0 0.976621 
vn 0.108119 0 0.994138 
vn 0.108119 0 0.994138 
vn 1.22465e-16 0 1 
vn 1.22465e-16 0 1 
vn -0.108119 0 0.994138 
vn -0.108119 0 0.994138 
vn -0.21497 0 0.976621 
vn -0.21497 0 0.976621 
vn -0.319302 0 0.947653 
vn -0.319302 0 0.947653 
vn -0.419889 0 0.907575 
vn -0.419889 0 0.907575 
vn -0.515554 0 0.856857 
vn -0.515554 0 0.856857 
vn -0.605174 0 0.796093 
vn -0.605174 0 0.796093 
vn -0.687699 0 0.725995 
vn -0.687699 0 0.725995 
vn -0.762162 0 0.647386 
vn -0.762162 0 0.647386 
vn -0.827689 0 0.561187 
vn -0.827689 0 0.561187 
vn -0.883512 0 0.468408 
vn -0.883512 0 0.468408 
vn -0.928977 0 0.370138 
vn -0.928977 0 0.370138 
vn -0.96355 0 0.267528 
vn -0.96355 0 0.267528 
vn -0.986827 0 0.161782 
vn -0.986827 0 0.161782 
vn -0.998533 0 0.0541389 
vn -0.998533 0 0.0541389 
vn -0.998533 0 -0.0541389 
vn -0.998533 0 -0.0541389 
vn -0.986827 0 -0.161782 
vn -0.986827 0 -0.161782 
vn -0.96355 0 -0.267528 
vn -0.96355 0 -0.267528 
vn -0.928977 0 -0.370138 
vn -0.928977 0 -0.370138 
vn -0.883512 0 -0.468408 
vn -0.883512 0 -0.468408 
vn -0.827689 0 -0.561187 
vn -0.827689 0 -0.561187 
vn -0.762162 0 -0.647386 
vn -0.762162 0 -0.647386 
vn -0.687699 0 -0.725995 
vn -0.687699 0 -0.725995 
vn -0.605174 0 -0.796093 
vn -0.605174 0 -0.796093 
vn -0.515554 0 -0.856857 
vn -0.515554 0 -0.856857 
vn -0.419889 0 -0.907575 
vn -0.419889 0 -0.907575 
vn -0.319302 0 -0.947653 
vn -0.319302 0 -0.947653 
vn -0.21497 0 -0.976621 
vn -0.21497 0 -0.976621 
vn -0.108119 0 -0.994138 
vn -0.108119 0 -0.994138 
f 117//117 118//118 119//119 
f 120//120 119//119 121//121 
f 122//122 121//121 123//123 
f 124//124 123//123 125//125 
f 126//126 125//125 127//127 
f 128//128 127//127 129//129 
f 130//130 129//129 131//131 
f 132//132 131//131 133//133 
f 134//134 133//133 135//135 
f 136//136 135//135 137//137 
f 138//138 137//137 139//139 
f 140//140 139//139 141//141 
f 142//142 141//141 143//143 
f 144//144 143//143 145//145 
f 146//146 145//145 147//147 
f 148//148 147//147 149//149 
f 150//150 149//149 151//151 
f 152//152 151//151 153//153 
f 154//154 153//153 155//155 
f 156//156 155//155 157//157 
f 158//158 157//157 159//159 
f 160//160 159//159 161//161 
f 162//162 161//161 163//163 
f 164//164 163//163 165//165 
f 166//166 165//165 167//167 
f 168//168 167//167 169//169 
f 170//170 169//169 171//171 
f 172//172 171//171 173//173 
f 174//174 173//173 175//175 
f 176//176 175//175 177//177 
f 178//178 177//177 179//179 
f 180//180 179//179 181//181 
f 182//182 181//181 183//183 
f 184//184 183//183 185//185 
f 186//186 185//185 187//187 
f 188//188 187//187 189//189 
f 190//190 189//189 191//191 
f 192//192 191//191 193//193 
f 194//194 193//193 195//195 
f 196//196 195//195 197//197 
f 198//198 197//197 199//199 
f 200//200 199//199 201//201 
f 202//202 201//201 203//203 
f 204//204 203//203 205//205 
f 206//206 205//205 207//207 
f 208//208 207//207 209//209 
f 210//210 209//209 211//211 
f 212//212 211//211 213//213 
f 214//214 213//213 215//215 
f 216//216 215//215 217//217 
f 218//218 217//217 219//219 
f 220//220 219//219 221//221 
f 222//222 221//221 223//223 
f 224//224 223//223 225//225 
f 226//226 225//225 227//227 
f 228//228 227//227 229//229 
f 230//230 229//229 231//231 
f 232//232 231//231 118//118 
f 118//118 117//117 232//232 
f 231//231 232//232 230//230 
f 229//229 230//230 228//228 
f 227//227 228//228 226//226 
f 225//225 226//226 224//224 
f 223//223 224//224 222//222 
f 221//221 222//222 220//220 
f 219//219 220//220 218//218 
f 217//217 218//218 216//216 
f 215//215 216//216 214//214 
f 213//213 214//214 212//212 
f 211//211 212//212 210//210 
f 209//209 210//210 208//208 
f 207//207 208//208 206//206 
f 205//205 206//206 204//204 
f 203//203 204//204 202//202 
f 201//201 202//202 200//200 
f 199//199 200//200 198//198 
f 197//197 198//198 196//196 
f 195//195 196//196 194//194 
f 193//193 194//194 192//192 
f 191//191 192//192 190//190 
f 189//189 190//190 188//188 
f 187//187 188//188 186//186 
f 185//185 186//186 184//184 
f 183//183 184//184 182//182 
f 181//181 182//182 180//180 
f 179//179 180//180 178//178 
f 177//177 178//178 176//176 
f 175//175 176//176 174//174 
f 173//173 174//174 172//172 
f 171//171 172//172 170//170 
f 169//169 170//170 168//168 
f 167//167 168//168 166//166 
f 165//165 166//166 164//164 
f 163//163 164//164 162//162 
f 161//161 162//162 160//160 
f 159//159 160//160 158//158 
f 157//157 158//158 156//156 
f 155//155 156//156 154//154 
f 153//153 154//154 152//152 
f 151//151 152//152 150//150 
f 149//149 150//150 148//148 
f 147//147 148//148 146//146 
f 145//145 146//146 144//144 
f 143//143 144//144 142//142 
f 141//141 142//142 140//140 
f 139//139 140//140 138//138 
f 137//137 138//138 136//136 
f 135//135 136//136 134//134 
f 133//133 134//134 132//132 
f 131//131 132//132 130//130 
f 129//129 130//130 128//128 
f 127//127 128//128 126//126 
f 125//125 126//126 124//124 
f 123//123 124//124 122//122 
f 121//121 122//122 120//120 
f 119//119 120//120 117//117 
o mesh28025
v 0.000648714 0 -0.00596483 
v 0.000378417 0 -0.00347948 
v 0 0 -0.0035 
v 0.00128982 0 -0.00585972 
v 0.000752397 0 -0.00341817 
v 0.00251933 0 -0.00544545 
v 0.00146961 0 -0.00317651 
v 0.00111756 0 -0.00331679 
v 0.00309332 0 -0.00514114 
v 0.00180444 0 -0.002999 
v 0.00191581 0 -0.00568592 
v 0.00363105 0 -0.00477656 
v 0.00211811 0 -0.00278633 
v 0.0041262 0 -0.00435597 
v 0.00457297 0 -0.00388432 
v 0.00266757 0 -0.00226585 
v 0.00496613 0 -0.00336712 
v 0.00289691 0 -0.00196415 
v 0.00240695 0 -0.00254098 
v 0.00530107 0 -0.00281045 
v 0.00309229 0 -0.00163943 
v 0.00557386 0 -0.00222083 
v 0.00325142 0 -0.00129548 
v 0.0057813 0 -0.00160517 
v 0.00337242 0 -0.000936349 
v 0.00592096 0 -0.000970692 
v 0.00345389 0 -0.000566237 
v 0.0059912 0 -0.000324833 
v 0.00349487 0 -0.000189486 
v 0.0059912 0 0.000324833 
v 0.00349487 0 0.000189486 
v -0.00496613 0 -0.00336712 
v -0.00289691 0 -0.00196415 
v -0.00309229 0 -0.00163943 
v -0.00457297 0 -0.00388432 
v -0.00266757 0 -0.00226585 
v 0.00592096 0 0.000970692 
v 0.00345389 0 0.000566237 
v 0.00530107 0 0.00281045 
v 0.00309229 0 0.00163943 
v 0.00325142 0 0.00129548 
v 0.00496613 0 0.00336712 
v 0.00289691 0 0.00196415 
v -0.000648714 0 0.00596483 
v -0.00128982 0 0.00585972 
v -0.000752397 0 0.00341817 
v -0.00191581 0 0.00568592 
v -0.00111756 0 0.00331679 
v -0.0041262 0 -0.00435597 
v -0.00240695 0 -0.00254098 
v 0.0057813 0 0.00160517 
v 0.00337242 0 0.000936349 
v 0.00557386 0 0.00222083 
v 0.00457297 0 0.00388432 
v 0.00266757 0 0.00226585 
v 0.0041262 0 0.00435597 
v 0.00240695 0 0.00254098 
v 0.00363105 0 0.00477656 
v 0.00211811 0 0.00278633 
v -0.000378417 0 0.00347948 
v 1.28588e-18 0 0.0035 
v -0.00309332 0 0.00514114 
v -0.00180444 0 0.002999 
v -0.00146961 0 0.00317651 
v -0.00363105 0 0.00477656 
v -0.00211811 0 0.00278633 
v -0.00457297 0 0.00388432 
v -0.00266757 0 0.00226585 
v -0.00240695 0 0.00254098 
v -0.00496613 0 0.00336712 
v -0.00289691 0 0.00196415 
v -0.00530107 0 0.00281045 
v -0.00309229 0 0.00163943 
v -0.00557386 0 0.00222083 
v -0.00325142 0 0.00129548 
v -0.0059912 0 0.000324833 
v -0.00349487 0 0.000189486 
v -0.00345389 0 0.000566237 
v -0.0059912 0 -0.000324833 
v -0.00349487 0 -0.000189486 
v -0.00592096 0 -0.000970692 
v -0.00345389 0 -0.000566237 
v -0.0057813 0 -0.00160517 
v -0.00337242 0 -0.000936349 
v -0.00363105 0 -0.00477656 
v -0.00211811 0 -0.00278633 
v -0.00309332 0 -0.00514114 
v -0.00180444 0 -0.002999 
v -0.00251933 0 -0.00544545 
v -0.00146961 0 -0.00317651 
v 0.00309332 0 0.00514114 
v 0.00180444 0 0.002999 
v 0.00251933 0 0.00544545 
v 0.00146961 0 0.00317651 
v 0.00191581 0 0.00568592 
v 0.00111756 0 0.00331679 
v 0.00128982 0 0.00585972 
v 0.000752397 0 0.00341817 
v 0.000648714 0 0.00596483 
v 0.000378417 0 0.00347948 
v 7.34788e-19 0 0.006 
v -0.00251933 0 0.00544545 
v -0.0041262 0 0.00435597 
v -0.00557386 0 -0.00222083 
v -0.00325142 0 -0.00129548 
v -0.00530107 0 -0.00281045 
v -0.00191581 0 -0.00568592 
v -0.00111756 0 -0.00331679 
v -0.00128982 0 -0.00585972 
v -0.000752397 0 -0.00341817 
v -0.0057813 0 0.00160517 
v -0.00337242 0 0.000936349 
v -0.00592096 0 0.000970692 
v -0.000648714 0 -0.00596483 
v -0.000378417 0 -0.00347948 
v 0 0 -0.006 
vn 0 -1 0 
vn 0 -1 0 
vn 0 -1 0 
vn 0 -1 0 
vn 0 -1 0 
vn 0 -1 0 
vn 0 -1 0 
vn 0 -1 0 
vn 0 -1 0 
vn 0 -1 0 
vn 0 -1 0 
vn 0 -1 0 
vn 0 -1 0 
vn 0 -1 0 
vn 0 -1 0 
vn 0 -1 0 
vn 0 -1 0 
vn 0 -1 0 
vn 0 -1 0 
vn 0 -1 0 
vn 0 -1 0 
vn 0 -1 0 
vn 0 -1 0 
vn 0 -1 0 
vn 0 -1 0 
vn 0 -1 0 
vn 0 -1 0 
vn 0 -1 0 
vn 0 -1 0 
vn 0 -1 0 
vn 0 -1 0 
vn 0 -1 0 
vn 0 -1 0 
vn 0 -1 0 
vn 0 -1 0 
vn 0 -1 0 
vn 0 -1 0 
vn 0 -1 0 
vn 0 -1 0 
vn 0 -1 0 
vn 0 -1 0 
vn 0 -1 0 
vn 0 -1 0 
vn 0 -1 0 
vn 0 -1 0 
vn 0 -1 0 
vn 0 -1 0 
vn 0 -1 0 
vn 0 -1 0 
vn 0 -1 0 
vn 0 -1 0 
vn 0 -1 0 
vn 0 -1 0 
vn 0 -1 0 
vn 0 -1 0 
vn 0 -1 0 
vn 0 -1 0 
vn 0 -1 0 
vn 0 -1 0 
vn 0 -1 0 
vn 0 -1 0 
vn 0 -1 0 
vn 0 -1 0 
vn 0 -1 0 
vn 0 -1 0 
vn 0 -1 0 
vn 0 -1 0 
vn 0 -1 0 
vn 0 -1 0 
vn 0 -1 0 
vn 0 -1 0 
vn 0 -1 0 
vn 0 -1 0 
vn 0 -1 0 
vn 0 -1 0 
vn 0 -1 0 
vn 0 -1 0 
vn 0 -1 0 
vn 0 -1 0 
vn 0 -1 0 
vn 0 -1 0 
vn 0 -1 0 
vn 0 -1 0 
vn 0 -1 0 
vn 0 -1 0 
vn 0 -1 0 
vn 0 -1 0 
vn 0 -1 0 
vn 0 -1 0 
vn 0 -1 0 
vn 0 -1 0 
vn 0 -1 0 
vn 0 -1 0 
vn 0 -1 0 
vn 0 -1 0 
vn 0 -1 0 
vn 0 -1 0 
vn 0 -1 0 
vn 0 -1 0 
vn 0 -1 0 
vn 0 -1 0 
vn 0 -1 0 
vn 0 -1 0 
vn 0 -1 0 
vn 0 -1 0 
vn 0 -1 0 
vn 0 -1 0 
vn 0 -1 0 
vn 0 -1 0 
vn 0 -1 0 
vn 0 -1 0 
vn 0 -1 0 
vn 0 -1 0 
vn 0 -1 0 
vn 0 -1 0 
vn 0 -1 0 
f 233//233 234//234 235//235 
f 233//233 236//236 237//237 
f 238//238 239//239 240//240 
f 238//238 241//241 242//242 
f 237//237 234//234 233//233 
f 236//236 243//243 240//240 
f 242//242 239//239 238//238 
f 241//241 244//244 245//245 
f 246//246 247//247 248//248 
f 247//247 249//249 250//250 
f 240//240 237//237 236//236 
f 245//245 242//242 241//241 
f 246//246 251//251 245//245 
f 250//250 248//248 247//247 
f 249//249 252//252 253//253 
f 254//254 255//255 253//253 
f 256//256 257//257 255//255 
f 256//256 258//258 259//259 
f 240//240 243//243 238//238 
f 248//248 251//251 246//246 
f 253//253 252//252 254//254 
f 259//259 257//257 256//256 
f 260//260 261//261 259//259 
f 260//260 262//262 263//263 
f 264//264 265//265 266//266 
f 267//267 268//268 265//265 
f 245//245 244//244 246//246 
f 255//255 254//254 256//256 
f 263//263 261//261 260//260 
f 262//262 269//269 270//270 
f 271//271 272//272 273//273 
f 274//274 275//275 272//272 
f 276//276 277//277 278//278 
f 277//277 279//279 280//280 
f 265//265 264//264 267//267 
f 267//267 281//281 282//282 
f 253//253 250//250 249//249 
f 270//270 263//263 262//262 
f 283//283 284//284 270//270 
f 283//283 285//285 273//273 
f 272//272 271//271 274//274 
f 274//274 286//286 287//287 
f 286//286 288//288 289//289 
f 288//288 290//290 291//291 
f 276//276 292//292 293//293 
f 280//280 278//278 277//277 
f 294//294 295//295 296//296 
f 297//297 298//298 295//295 
f 299//299 300//300 301//301 
f 299//299 302//302 303//303 
f 304//304 305//305 303//303 
f 304//304 306//306 307//307 
f 308//308 309//309 310//310 
f 311//311 312//312 309//309 
f 311//311 313//313 314//314 
f 313//313 315//315 316//316 
f 282//282 268//268 267//267 
f 281//281 317//317 318//318 
f 319//319 320//320 318//318 
f 319//319 321//321 322//322 
f 259//259 258//258 260//260 
f 273//273 284//284 283//283 
f 287//287 275//275 274//274 
f 291//291 289//289 288//288 
f 323//323 324//324 291//291 
f 323//323 325//325 326//326 
f 325//325 327//327 328//328 
f 327//327 329//329 330//330 
f 331//331 332//332 330//330 
f 331//331 333//333 293//293 
f 278//278 292//292 276//276 
f 279//279 334//334 296//296 
f 295//295 294//294 297//297 
f 297//297 335//335 301//301 
f 303//303 300//300 299//299 
f 307//307 305//305 304//304 
f 309//309 308//308 311//311 
f 316//316 314//314 313//313 
f 336//336 337//337 316//316 
f 336//336 338//338 266//266 
f 318//318 282//282 281//281 
f 322//322 320//320 319//319 
f 339//339 340//340 322//322 
f 339//339 341//341 342//342 
f 270//270 269//269 283//283 
f 289//289 287//287 286//286 
f 326//326 324//324 323//323 
f 330//330 328//328 327//327 
f 293//293 332//332 331//331 
f 296//296 280//280 279//279 
f 301//301 298//298 297//297 
f 303//303 302//302 304//304 
f 343//343 344//344 307//307 
f 343//343 345//345 310//310 
f 314//314 312//312 311//311 
f 266//266 337//337 336//336 
f 318//318 317//317 319//319 
f 342//342 340//340 339//339 
f 346//346 347//347 342//342 
f 346//346 348//348 235//235 
f 273//273 285//285 271//271 
f 328//328 326//326 325//325 
f 293//293 333//333 276//276 
f 301//301 335//335 299//299 
f 310//310 344//344 343//343 
f 316//316 315//315 336//336 
f 322//322 321//321 339//339 
f 235//235 347//347 346//346 
f 291//291 290//290 323//323 
f 296//296 334//334 294//294 
f 310//310 345//345 308//308 
f 342//342 341//341 346//346 
f 330//330 329//329 331//331 
f 266//266 338//338 264//264 
f 307//307 306//306 343//343 
f 235//235 348//348 233//233 
o mesh28026
v -0.000378417 0 -0.00347948 
v 0 0 -0.0035 
v 0 0.001 -0.0035 
v -0.000752397 0 -0.00341817 
v -0.000378417 0.001 -0.00347948 
v -0.00111756 0 -0.00331679 
v -0.000752397 0.001 -0.00341817 
v -0.00146961 0 -0.00317651 
v -0.00111756 0.001 -0.00331679 
v -0.00180444 0 -0.002999 
v -0.00146961 0.001 -0.00317651 
v -0.00211811 0 -0.00278633 
v -0.00180444 0.001 -0.002999 
v -0.00240695 0 -0.00254098 
v -0.00211811 0.001 -0.00278633 
v -0.00266757 0 -0.00226585 
v -0.00240695 0.001 -0.00254098 
v -0.00289691 0 -0.00196415 
v -0.00266757 0.001 -0.00226585 
v -0.00309229 0 -0.00163943 
v -0.00289691 0.001 -0.00196415 
v -0.00325142 0 -0.00129548 
v -0.00309229 0.001 -0.00163943 
v -0.00337242 0 -0.000936349 
v -0.00325142 0.001 -0.00129548 
v -0.00345389 0 -0.000566237 
v -0.00337242 0.001 -0.000936349 
v -0.00349487 0 -0.000189486 
v -0.00345389 0.001 -0.000566237 
v -0.00349487 0 0.000189486 
v -0.00349487 0.001 -0.000189486 
v -0.00345389 0 0.000566237 
v -0.00349487 0.001 0.000189486 
v -0.00337242 0 0.000936349 
v -0.00345389 0.001 0.000566237 
v -0.00325142 0 0.00129548 
v -0.00337242 0.001 0.000936349 
v -0.00309229 0 0.00163943 
v -0.00325142 0.001 0.00129548 
v -0.00289691 0 0.00196415 
v -0.00309229 0.001 0.00163943 
v -0.00266757 0 0.00226585 
v -0.00289691 0.001 0.00196415 
v -0.00240695 0 0.00254098 
v -0.00266757 0.001 0.00226585 
v -0.00211811 0 0.00278633 
v -0.00240695 0.001 0.00254098 
v -0.00180444 0 0.002999 
v -0.00211811 0.001 0.00278633 
v -0.00146961 0 0.00317651 
v -0.00180444 0.001 0.002999 
v -0.00111756 0 0.00331679 
v -0.00146961 0.001 0.00317651 
v -0.000752397 0 0.00341817 
v -0.00111756 0.001 0.00331679 
v -0.000378417 0 0.00347948 
v -0.000752397 0.001 0.00341817 
v 1.28588e-18 0 0.0035 
v -0.000378417 0.001 0.00347948 
v 0.000378417 0 0.00347948 
v 4.28626e-19 0.001 0.0035 
v 0.000752397 0 0.00341817 
v 0.000378417 0.001 0.00347948 
v 0.00111756 0 0.00331679 
v 0.000752397 0.001 0.00341817 
v 0.00146961 0 0.00317651 
v 0.00111756 0.001 0.00331679 
v 0.00180444 0 0.002999 
v 0.00146961 0.001 0.00317651 
v 0.00211811 0 0.00278633 
v 0.00180444 0.001 0.002999 
v 0.00240695 0 0.00254098 
v 0.00211811 0.001 0.00278633 
v 0.00266757 0 0.00226585 
v 0.00240695 0.001 0.00254098 
v 0.00289691 0 0.00196415 
v 0.00266757 0.001 0.00226585 
v 0.00309229 0 0.00163943 
v 0.00289691 0.001 0.00196415 
v 0.00325142 0 0.00129548 
v 0.00309229 0.001 0.00163943 
v 0.00337242 0 0.000936349 
v 0.00325142 0.001 0.00129548 
v 0.00345389 0 0.000566237 
v 0.00337242 0.001 0.000936349 
v 0.00349487 0 0.000189486 
v 0.00345389 0.001 0.000566237 
v 0.00349487 0 -0.000189486 
v 0.00349487 0.001 0.000189486 
v 0.00345389 0 -0.000566237 
v 0.00349487 0.001 -0.000189486 
v 0.00337242 0 -0.000936349 
v 0.00345389 0.001 -0.000566237 
v 0.00325142 0 -0.00129548 
v 0.00337242 0.001 -0.000936349 
v 0.00309229 0 -0.00163943 
v 0.00325142 0.001 -0.00129548 
v 0.00289691 0 -0.00196415 
v 0.00309229 0.001 -0.00163943 
v 0.00266757 0 -0.00226585 
v 0.00289691 0.001 -0.00196415 
v 0.00240695 0 -0.00254098 
v 0.00266757 0.001 -0.00226585 
v 0.00211811 0 -0.00278633 
v 0.00240695 0.001 -0.00254098 
v 0.00180444 0 -0.002999 
v 0.00211811 0.001 -0.00278633 
v 0.00146961 0 -0.00317651 
v 0.00180444 0.001 -0.002999 
v 0.00111756 0 -0.00331679 
v 0.00146961 0.001 -0.00317651 
v 0.000752397 0 -0.00341817 
v 0.00111756 0.001 -0.00331679 
v 0.000378417 0 -0.00347948 
v 0.000752397 0.001 -0.00341817 
v 0.000378417 0.001 -0.00347948 
vn 0.108119 0 0.994138 
vn 2.44929e-16 0 1 
vn 2.44929e-16 0 1 
vn 0.21497 0 0.976621 
vn 0.108119 0 0.994138 
vn 0.319302 0 0.947653 
vn 0.21497 0 0.976621 
vn 0.419889 0 0.907575 
vn 0.319302 0 0.947653 
vn 0.515554 0 0.856857 
vn 0.419889 0 0.907575 
vn 0.605174 0 0.796093 
vn 0.515554 0 0.856857 
vn 0.687699 0 0.725995 
vn 0.605174 0 0.796093 
vn 0.762162 0 0.647386 
vn 0.687699 0 0.725995 
vn 0.827689 0 0.561187 
vn 0.762162 0 0.647386 
vn 0.883512 0 0.468408 
vn 0.827689 0 0.561187 
vn 0.928977 0 0.370138 
vn 0.883512 0 0.468408 
vn 0.96355 0 0.267528 
vn 0.928977 0 0.370138 
vn 0.986827 0 0.161782 
vn 0.96355 0 0.267528 
vn 0.998533 0 0.0541389 
vn 0.986827 0 0.161782 
vn 0.998533 0 -0.0541389 
vn 0.998533 0 0.0541389 
vn 0.986827 0 -0.161782 
vn 0.998533 0 -0.0541389 
vn 0.96355 0 -0.267528 
vn 0.986827 0 -0.161782 
vn 0.928977 0 -0.370138 
vn 0.96355 0 -0.267528 
vn 0.883512 0 -0.468408 
vn 0.928977 0 -0.370138 
vn 0.827689 0 -0.561187 
vn 0.883512 0 -0.468408 
vn 0.762162 0 -0.647386 
vn 0.827689 0 -0.561187 
vn 0.687699 0 -0.725995 
vn 0.762162 0 -0.647386 
vn 0.605174 0 -0.796093 
vn 0.687699 0 -0.725995 
vn 0.515554 0 -0.856857 
vn 0.605174 0 -0.796093 
vn 0.419889 0 -0.907575 
vn 0.515554 0 -0.856857 
vn 0.319302 0 -0.947653 
vn 0.419889 0 -0.907575 
vn 0.21497 0 -0.976621 
vn 0.319302 0 -0.947653 
vn 0.108119 0 -0.994138 
vn 0.21497 0 -0.976621 
vn -1.22465e-16 0 -1 
vn 0.108119 0 -0.994138 
vn -0.108119 0 -0.994138 
vn -1.22465e-16 0 -1 
vn -0.21497 0 -0.976621 
vn -0.108119 0 -0.994138 
vn -0.319302 0 -0.947653 
vn -0.21497 0 -0.976621 
vn -0.419889 0 -0.907575 
vn -0.319302 0 -0.947653 
vn -0.515554 0 -0.856857 
vn -0.419889 0 -0.907575 
vn -0.605174 0 -0.796093 
vn -0.515554 0 -0.856857 
vn -0.687699 0 -0.725995 
vn -0.605174 0 -0.796093 
vn -0.762162 0 -0.647386 
vn -0.687699 0 -0.725995 
vn -0.827689 0 -0.561187 
vn -0.762162 0 -0.647386 
vn -0.883512 0 -0.468408 
vn -0.827689 0 -0.561187 
vn -0.928977 0 -0.370138 
vn -0.883512 0 -0.468408 
vn -0.96355 0 -0.267528 
vn -0.928977 0 -0.370138 
vn -0.986827 0 -0.161782 
vn -0.96355 0 -0.267528 
vn -0.998533 0 -0.0541389 
vn -0.986827 0 -0.161782 
vn -0.998533 0 0.0541389 
vn -0.998533 0 -0.0541389 
vn -0.986827 0 0.161782 
vn -0.998533 0 0.0541389 
vn -0.96355 0 0.267528 
vn -0.986827 0 0.161782 
vn -0.928977 0 0.370138 
vn -0.96355 0 0.267528 
vn -0.883512 0 0.468408 
vn -0.928977 0 0.370138 
vn -0.827689 0 0.561187 
vn -0.883512 0 0.468408 
vn -0.762162 0 0.647386 
vn -0.827689 0 0.561187 
vn -0.687699 0 0.725995 
vn -0.762162 0 0.647386 
vn -0.605174 0 0.796093 
vn -0.687699 0 0.725995 
vn -0.515554 0 0.856857 
vn -0.605174 0 0.796093 
vn -0.419889 0 0.907575 
vn -0.515554 0 0.856857 
vn -0.319302 0 0.947653 
vn -0.419889 0 0.907575 
vn -0.21497 0 0.976621 
vn -0.319302 0 0.947653 
vn -0.108119 0 0.994138 
vn -0.21497 0 0.976621 
vn -0.108119 0 0.994138 
f 349//349 350//350 351//351 
f 352//352 349//349 353//353 
f 354//354 352//352 355//355 
f 356//356 354//354 357//357 
f 358//358 356//356 359//359 
f 360//360 358//358 361//361 
f 362//362 360//360 363//363 
f 364//364 362//362 365//365 
f 366//366 364//364 367//367 
f 368//368 366//366 369//369 
f 370//370 368//368 371//371 
f 372//372 370//370 373//373 
f 374//374 372//372 375//375 
f 376//376 374//374 377//377 
f 378//378 376//376 379//379 
f 380//380 378//378 381//381 
f 382//382 380//380 383//383 
f 384//384 382//382 385//385 
f 386//386 384//384 387//387 
f 388//388 386//386 389//389 
f 390//390 388//388 391//391 
f 392//392 390//390 393//393 
f 394//394 392//392 395//395 
f 396//396 394//394 397//397 
f 398//398 396//396 399//399 
f 400//400 398//398 401//401 
f 402//402 400//400 403//403 
f 404//404 402//402 405//405 
f 406//406 404//404 407//407 
f 408//408 406//406 409//409 
f 410//410 408//408 411//411 
f 412//412 410//410 413//413 
f 414//414 412//412 415//415 
f 416//416 414//414 417//417 
f 418//418 416//416 419//419 
f 420//420 418//418 421//421 
f 422//422 420//420 423//423 
f 424//424 422//422 425//425 
f 426//426 424//424 427//427 
f 428//428 426//426 429//429 
f 430//430 428//428 431//431 
f 432//432 430//430 433//433 
f 434//434 432//432 435//435 
f 436//436 434//434 437//437 
f 438//438 436//436 439//439 
f 440//440 438//438 441//441 
f 442//442 440//440 443//443 
f 444//444 442//442 445//445 
f 446//446 444//444 447//447 
f 448//448 446//446 449//449 
f 450//450 448//448 451//451 
f 452//452 450//450 453//453 
f 454//454 452//452 455//455 
f 456//456 454//454 457//457 
f 458//458 456//456 459//459 
f 460//460 458//458 461//461 
f 462//462 460//460 463//463 
f 350//350 462//462 464//464 
f 464//464 351//351 350//350 
f 463//463 464//464 462//462 
f 461//461 463//463 460//460 
f 459//459 461//461 458//458 
f 457//457 459//459 456//456 
f 455//455 457//457 454//454 
f 453//453 455//455 452//452 
f 451//451 453//453 450//450 
f 449//449 451//451 448//448 
f 447//447 449//449 446//446 
f 445//445 447//447 444//444 
f 443//443 445//445 442//442 
f 441//441 443//443 440//440 
f 439//439 441//441 438//438 
f 437//437 439//439 436//436 
f 435//435 437//437 434//434 
f 433//433 435//435 432//432 
f 431//431 433//433 430//430 
f 429//429 431//431 428//428 
f 427//427 429//429 426//426 
f 425//425 427//427 424//424 
f 423//423 425//425 422//422 
f 421//421 423//423 420//420 
f 419//419 421//421 418//418 
f 417//417 419//419 416//416 
f 415//415 417//417 414//414 
f 413//413 415//415 412//412 
f 411//411 413//413 410//410 
f 409//409 411//411 408//408 
f 407//407 409//409 406//406 
f 405//405 407//407 404//404 
f 403//403 405//405 402//402 
f 401//401 403//403 400//400 
f 399//399 401//401 398//398 
f 397//397 399//399 396//396 
f 395//395 397//397 394//394 
f 393//393 395//395 392//392 
f 391//391 393//393 390//390 
f 389//389 391//391 388//388 
f 387//387 389//389 386//386 
f 385//385 387//387 384//384 
f 383//383 385//385 382//382 
f 381//381 383//383 380//380 
f 379//379 381//381 378//378 
f 377//377 379//379 376//376 
f 375//375 377//377 374//374 
f 373//373 375//375 372//372 
f 371//371 373//373 370//370 
f 369//369 371//371 368//368 
f 367//367 369//369 366//366 
f 365//365 367//367 364//364 
f 363//363 365//365 362//362 
f 361//361 363//363 360//360 
f 359//359 361//361 358//358 
f 357//357 359//359 356//356 
f 355//355 357//357 354//354 
f 353//353 355//355 352//352 
f 351//351 353//353 349//349 
