# OBJ generated by ONSHAPE BY PTC INC, 1.215 Units = meters
mtllib VibesSeal.mtl
g VibesSeal
usemtl 0.501961_0.501961_1.000000_0.000000_0.000000
o mesh1154
v 0.221359 0 -0.0273707 
v 0.2219 0 -0.0274 
v 0.2219 0.003 -0.0274 
v 0.220825 0 -0.0272831 
v 0.221359 0.003 -0.0273707 
v 0.220303 0 -0.0271383 
v 0.220825 0.003 -0.0272831 
v 0.219801 0 -0.0269379 
v 0.220303 0.003 -0.0271383 
v 0.219322 0 -0.0266843 
v 0.219801 0.003 -0.0269379 
v 0.218874 0 -0.0263805 
v 0.219322 0.003 -0.0266843 
v 0.218462 0 -0.02603 
v 0.218874 0.003 -0.0263805 
v 0.218089 0 -0.0256369 
v 0.218462 0.003 -0.02603 
v 0.217762 0 -0.0252059 
v 0.218089 0.003 -0.0256369 
v 0.217482 0 -0.024742 
v 0.217762 0.003 -0.0252059 
v 0.217255 0 -0.0242507 
v 0.217482 0.003 -0.024742 
v 0.217082 0 -0.0237376 
v 0.217255 0.003 -0.0242507 
v 0.216966 0 -0.0232089 
v 0.217082 0.003 -0.0237376 
v 0.216907 0 -0.0226707 
v 0.216966 0.003 -0.0232089 
v 0.216907 0 -0.0221293 
v 0.216907 0.003 -0.0226707 
v 0.216966 0 -0.0215911 
v 0.216907 0.003 -0.0221293 
v 0.217082 0 -0.0210624 
v 0.216966 0.003 -0.0215911 
v 0.217255 0 -0.0205493 
v 0.217082 0.003 -0.0210624 
v 0.217482 0 -0.020058 
v 0.217255 0.003 -0.0205493 
v 0.217762 0 -0.0195941 
v 0.217482 0.003 -0.020058 
v 0.218089 0 -0.0191631 
v 0.217762 0.003 -0.0195941 
v 0.218462 0 -0.01877 
v 0.218089 0.003 -0.0191631 
v 0.218874 0 -0.0184195 
v 0.218462 0.003 -0.01877 
v 0.219322 0 -0.0181157 
v 0.218874 0.003 -0.0184195 
v 0.219801 0 -0.0178621 
v 0.219322 0.003 -0.0181157 
v 0.220303 0 -0.0176617 
v 0.219801 0.003 -0.0178621 
v 0.220825 0 -0.0175169 
v 0.220303 0.003 -0.0176617 
v 0.221359 0 -0.0174293 
v 0.220825 0.003 -0.0175169 
v 0.2219 0 -0.0174 
v 0.221359 0.003 -0.0174293 
v 0.222441 0 -0.0174293 
v 0.2219 0.003 -0.0174 
v 0.222975 0 -0.0175169 
v 0.222441 0.003 -0.0174293 
v 0.223497 0 -0.0176617 
v 0.222975 0.003 -0.0175169 
v 0.223999 0 -0.0178621 
v 0.223497 0.003 -0.0176617 
v 0.224478 0 -0.0181157 
v 0.223999 0.003 -0.0178621 
v 0.224926 0 -0.0184195 
v 0.224478 0.003 -0.0181157 
v 0.225338 0 -0.01877 
v 0.224926 0.003 -0.0184195 
v 0.225711 0 -0.0191631 
v 0.225338 0.003 -0.01877 
v 0.226038 0 -0.0195941 
v 0.225711 0.003 -0.0191631 
v 0.226318 0 -0.020058 
v 0.226038 0.003 -0.0195941 
v 0.226545 0 -0.0205493 
v 0.226318 0.003 -0.020058 
v 0.226718 0 -0.0210624 
v 0.226545 0.003 -0.0205493 
v 0.226834 0 -0.0215911 
v 0.226718 0.003 -0.0210624 
v 0.226893 0 -0.0221293 
v 0.226834 0.003 -0.0215911 
v 0.226893 0 -0.0226707 
v 0.226893 0.003 -0.0221293 
v 0.226834 0 -0.0232089 
v 0.226893 0.003 -0.0226707 
v 0.226718 0 -0.0237376 
v 0.226834 0.003 -0.0232089 
v 0.226545 0 -0.0242507 
v 0.226718 0.003 -0.0237376 
v 0.226318 0 -0.024742 
v 0.226545 0.003 -0.0242507 
v 0.226038 0 -0.0252059 
v 0.226318 0.003 -0.024742 
v 0.225711 0 -0.0256369 
v 0.226038 0.003 -0.0252059 
v 0.225338 0 -0.02603 
v 0.225711 0.003 -0.0256369 
v 0.224926 0 -0.0263805 
v 0.225338 0.003 -0.02603 
v 0.224478 0 -0.0266843 
v 0.224926 0.003 -0.0263805 
v 0.223999 0 -0.0269379 
v 0.224478 0.003 -0.0266843 
v 0.223497 0 -0.0271383 
v 0.223999 0.003 -0.0269379 
v 0.222975 0 -0.0272831 
v 0.223497 0.003 -0.0271383 
v 0.222441 0 -0.0273707 
v 0.222975 0.003 -0.0272831 
v 0.222441 0.003 -0.0273707 
vn 0.108119 0 0.994138 
vn 2.44929e-16 0 1 
vn 2.44929e-16 0 1 
vn 0.21497 0 0.976621 
vn 0.108119 0 0.994138 
vn 0.319302 0 0.947653 
vn 0.21497 0 0.976621 
vn 0.419889 0 0.907575 
vn 0.319302 0 0.947653 
vn 0.515554 0 0.856857 
vn 0.419889 0 0.907575 
vn 0.605174 0 0.796093 
vn 0.515554 0 0.856857 
vn 0.687699 0 0.725995 
vn 0.605174 0 0.796093 
vn 0.762162 0 0.647386 
vn 0.687699 0 0.725995 
vn 0.827689 0 0.561187 
vn 0.762162 0 0.647386 
vn 0.883512 0 0.468408 
vn 0.827689 0 0.561187 
vn 0.928977 0 0.370138 
vn 0.883512 0 0.468408 
vn 0.96355 0 0.267528 
vn 0.928977 0 0.370138 
vn 0.986827 0 0.161782 
vn 0.96355 0 0.267528 
vn 0.998533 0 0.0541389 
vn 0.986827 0 0.161782 
vn 0.998533 0 -0.0541389 
vn 0.998533 0 0.0541389 
vn 0.986827 0 -0.161782 
vn 0.998533 0 -0.0541389 
vn 0.96355 0 -0.267528 
vn 0.986827 0 -0.161782 
vn 0.928977 0 -0.370138 
vn 0.96355 0 -0.267528 
vn 0.883512 0 -0.468408 
vn 0.928977 0 -0.370138 
vn 0.827689 0 -0.561187 
vn 0.883512 0 -0.468408 
vn 0.762162 0 -0.647386 
vn 0.827689 0 -0.561187 
vn 0.687699 0 -0.725995 
vn 0.762162 0 -0.647386 
vn 0.605174 0 -0.796093 
vn 0.687699 0 -0.725995 
vn 0.515554 0 -0.856857 
vn 0.605174 0 -0.796093 
vn 0.419889 0 -0.907575 
vn 0.515554 0 -0.856857 
vn 0.319302 0 -0.947653 
vn 0.419889 0 -0.907575 
vn 0.21497 0 -0.976621 
vn 0.319302 0 -0.947653 
vn 0.108119 0 -0.994138 
vn 0.21497 0 -0.976621 
vn -1.22465e-16 0 -1 
vn 0.108119 0 -0.994138 
vn -0.108119 0 -0.994138 
vn -1.22465e-16 0 -1 
vn -0.21497 0 -0.976621 
vn -0.108119 0 -0.994138 
vn -0.319302 0 -0.947653 
vn -0.21497 0 -0.976621 
vn -0.419889 0 -0.907575 
vn -0.319302 0 -0.947653 
vn -0.515554 0 -0.856857 
vn -0.419889 0 -0.907575 
vn -0.605174 0 -0.796093 
vn -0.515554 0 -0.856857 
vn -0.687699 0 -0.725995 
vn -0.605174 0 -0.796093 
vn -0.762162 0 -0.647386 
vn -0.687699 0 -0.725995 
vn -0.827689 0 -0.561187 
vn -0.762162 0 -0.647386 
vn -0.883512 0 -0.468408 
vn -0.827689 0 -0.561187 
vn -0.928977 0 -0.370138 
vn -0.883512 0 -0.468408 
vn -0.96355 0 -0.267528 
vn -0.928977 0 -0.370138 
vn -0.986827 0 -0.161782 
vn -0.96355 0 -0.267528 
vn -0.998533 0 -0.0541389 
vn -0.986827 0 -0.161782 
vn -0.998533 0 0.0541389 
vn -0.998533 0 -0.0541389 
vn -0.986827 0 0.161782 
vn -0.998533 0 0.0541389 
vn -0.96355 0 0.267528 
vn -0.986827 0 0.161782 
vn -0.928977 0 0.370138 
vn -0.96355 0 0.267528 
vn -0.883512 0 0.468408 
vn -0.928977 0 0.370138 
vn -0.827689 0 0.561187 
vn -0.883512 0 0.468408 
vn -0.762162 0 0.647386 
vn -0.827689 0 0.561187 
vn -0.687699 0 0.725995 
vn -0.762162 0 0.647386 
vn -0.605174 0 0.796093 
vn -0.687699 0 0.725995 
vn -0.515554 0 0.856857 
vn -0.605174 0 0.796093 
vn -0.419889 0 0.907575 
vn -0.515554 0 0.856857 
vn -0.319302 0 0.947653 
vn -0.419889 0 0.907575 
vn -0.21497 0 0.976621 
vn -0.319302 0 0.947653 
vn -0.108119 0 0.994138 
vn -0.21497 0 0.976621 
vn -0.108119 0 0.994138 
f 1//1 2//2 3//3 
f 4//4 1//1 5//5 
f 6//6 4//4 7//7 
f 8//8 6//6 9//9 
f 10//10 8//8 11//11 
f 12//12 10//10 13//13 
f 14//14 12//12 15//15 
f 16//16 14//14 17//17 
f 18//18 16//16 19//19 
f 20//20 18//18 21//21 
f 22//22 20//20 23//23 
f 24//24 22//22 25//25 
f 26//26 24//24 27//27 
f 28//28 26//26 29//29 
f 30//30 28//28 31//31 
f 32//32 30//30 33//33 
f 34//34 32//32 35//35 
f 36//36 34//34 37//37 
f 38//38 36//36 39//39 
f 40//40 38//38 41//41 
f 42//42 40//40 43//43 
f 44//44 42//42 45//45 
f 46//46 44//44 47//47 
f 48//48 46//46 49//49 
f 50//50 48//48 51//51 
f 52//52 50//50 53//53 
f 54//54 52//52 55//55 
f 56//56 54//54 57//57 
f 58//58 56//56 59//59 
f 60//60 58//58 61//61 
f 62//62 60//60 63//63 
f 64//64 62//62 65//65 
f 66//66 64//64 67//67 
f 68//68 66//66 69//69 
f 70//70 68//68 71//71 
f 72//72 70//70 73//73 
f 74//74 72//72 75//75 
f 76//76 74//74 77//77 
f 78//78 76//76 79//79 
f 80//80 78//78 81//81 
f 82//82 80//80 83//83 
f 84//84 82//82 85//85 
f 86//86 84//84 87//87 
f 88//88 86//86 89//89 
f 90//90 88//88 91//91 
f 92//92 90//90 93//93 
f 94//94 92//92 95//95 
f 96//96 94//94 97//97 
f 98//98 96//96 99//99 
f 100//100 98//98 101//101 
f 102//102 100//100 103//103 
f 104//104 102//102 105//105 
f 106//106 104//104 107//107 
f 108//108 106//106 109//109 
f 110//110 108//108 111//111 
f 112//112 110//110 113//113 
f 114//114 112//112 115//115 
f 2//2 114//114 116//116 
f 116//116 3//3 2//2 
f 115//115 116//116 114//114 
f 113//113 115//115 112//112 
f 111//111 113//113 110//110 
f 109//109 111//111 108//108 
f 107//107 109//109 106//106 
f 105//105 107//107 104//104 
f 103//103 105//105 102//102 
f 101//101 103//103 100//100 
f 99//99 101//101 98//98 
f 97//97 99//99 96//96 
f 95//95 97//97 94//94 
f 93//93 95//95 92//92 
f 91//91 93//93 90//90 
f 89//89 91//91 88//88 
f 87//87 89//89 86//86 
f 85//85 87//87 84//84 
f 83//83 85//85 82//82 
f 81//81 83//83 80//80 
f 79//79 81//81 78//78 
f 77//77 79//79 76//76 
f 75//75 77//77 74//74 
f 73//73 75//75 72//72 
f 71//71 73//73 70//70 
f 69//69 71//71 68//68 
f 67//67 69//69 66//66 
f 65//65 67//67 64//64 
f 63//63 65//65 62//62 
f 61//61 63//63 60//60 
f 59//59 61//61 58//58 
f 57//57 59//59 56//56 
f 55//55 57//57 54//54 
f 53//53 55//55 52//52 
f 51//51 53//53 50//50 
f 49//49 51//51 48//48 
f 47//47 49//49 46//46 
f 45//45 47//47 44//44 
f 43//43 45//45 42//42 
f 41//41 43//43 40//40 
f 39//39 41//41 38//38 
f 37//37 39//39 36//36 
f 35//35 37//37 34//34 
f 33//33 35//35 32//32 
f 31//31 33//33 30//30 
f 29//29 31//31 28//28 
f 27//27 29//29 26//26 
f 25//25 27//27 24//24 
f 23//23 25//25 22//22 
f 21//21 23//23 20//20 
f 19//19 21//21 18//18 
f 17//17 19//19 16//16 
f 15//15 17//17 14//14 
f 13//13 15//15 12//12 
f 11//11 13//13 10//10 
f 9//9 11//11 8//8 
f 7//7 9//9 6//6 
f 5//5 7//7 4//4 
f 3//3 5//5 1//1 
o mesh1155
v 0.1937 0.003 -0.0375431 
v 0.2219 0.003 -0.0274 
v 0.222441 0.003 -0.0273707 
v 0.2877 0.003 -0.0375431 
v 0.222975 0.003 -0.0272831 
v 0.221359 0.003 -0.0273707 
v 0.219801 0.003 -0.0269379 
v 0.220303 0.003 -0.0271383 
v 0.224478 0.003 -0.0266843 
v 0.224926 0.003 -0.0263805 
v 0.223497 0.003 -0.0271383 
v 0.223999 0.003 -0.0269379 
v 0.220825 0.003 -0.0272831 
v 0.226038 0.003 -0.0252059 
v 0.226318 0.003 -0.024742 
v 0.225338 0.003 -0.02603 
v 0.225711 0.003 -0.0256369 
v 0.1937 0.003 0.003 
v 0.217762 0.003 -0.0195941 
v 0.217482 0.003 -0.020058 
v 0.218874 0.003 -0.0263805 
v 0.219322 0.003 -0.0266843 
v 0.218089 0.003 -0.0191631 
v 0.219801 0.003 -0.0178621 
v 0.219322 0.003 -0.0181157 
v 0.218462 0.003 -0.02603 
v 0.217762 0.003 -0.0252059 
v 0.218089 0.003 -0.0256369 
v 0.217255 0.003 -0.0242507 
v 0.217482 0.003 -0.024742 
v 0.218462 0.003 -0.01877 
v 0.218874 0.003 -0.0184195 
v 0.2877 0.003 0.003 
v 0.223497 0.003 -0.0176617 
v 0.222975 0.003 -0.0175169 
v 0.224926 0.003 -0.0184195 
v 0.224478 0.003 -0.0181157 
v 0.221359 0.003 -0.0174293 
v 0.220825 0.003 -0.0175169 
v 0.225338 0.003 -0.01877 
v 0.226893 0.003 -0.0221293 
v 0.226545 0.003 -0.0242507 
v 0.226718 0.003 -0.0237376 
v 0.220303 0.003 -0.0176617 
v 0.2219 0.003 -0.0174 
v 0.222441 0.003 -0.0174293 
v 0.223999 0.003 -0.0178621 
v 0.226038 0.003 -0.0195941 
v 0.225711 0.003 -0.0191631 
v 0.226545 0.003 -0.0205493 
v 0.226318 0.003 -0.020058 
v 0.226893 0.003 -0.0226707 
v 0.216966 0.003 -0.0232089 
v 0.217082 0.003 -0.0237376 
v 0.216907 0.003 -0.0221293 
v 0.216907 0.003 -0.0226707 
v 0.216966 0.003 -0.0215911 
v 0.217255 0.003 -0.0205493 
v 0.217082 0.003 -0.0210624 
v 0.226834 0.003 -0.0232089 
v 0.226834 0.003 -0.0215911 
v 0.226718 0.003 -0.0210624 
vn 0 1 0 
vn 0 1 0 
vn 0 1 0 
vn 0 1 0 
vn 0 1 0 
vn 0 1 0 
vn 0 1 0 
vn 0 1 0 
vn 0 1 0 
vn 0 1 0 
vn 0 1 0 
vn 0 1 0 
vn 0 1 0 
vn 0 1 0 
vn 0 1 0 
vn 0 1 0 
vn 0 1 0 
vn 0 1 0 
vn 0 1 0 
vn 0 1 0 
vn 0 1 0 
vn 0 1 0 
vn 0 1 0 
vn 0 1 0 
vn 0 1 0 
vn 0 1 0 
vn 0 1 0 
vn 0 1 0 
vn 0 1 0 
vn 0 1 0 
vn 0 1 0 
vn 0 1 0 
vn 0 1 0 
vn 0 1 0 
vn 0 1 0 
vn 0 1 0 
vn 0 1 0 
vn 0 1 0 
vn 0 1 0 
vn 0 1 0 
vn 0 1 0 
vn 0 1 0 
vn 0 1 0 
vn 0 1 0 
vn 0 1 0 
vn 0 1 0 
vn 0 1 0 
vn 0 1 0 
vn 0 1 0 
vn 0 1 0 
vn 0 1 0 
vn 0 1 0 
vn 0 1 0 
vn 0 1 0 
vn 0 1 0 
vn 0 1 0 
vn 0 1 0 
vn 0 1 0 
vn 0 1 0 
vn 0 1 0 
vn 0 1 0 
vn 0 1 0 
f 117//117 118//118 119//119 
f 120//120 119//119 121//121 
f 117//117 122//122 118//118 
f 117//117 123//123 124//124 
f 120//120 125//125 126//126 
f 120//120 127//127 128//128 
f 119//119 120//120 117//117 
f 124//124 129//129 117//117 
f 120//120 130//130 131//131 
f 120//120 132//132 133//133 
f 128//128 125//125 120//120 
f 129//129 122//122 117//117 
f 134//134 135//135 136//136 
f 133//133 130//130 120//120 
f 121//121 127//127 120//120 
f 117//117 137//137 138//138 
f 134//134 139//139 135//135 
f 134//134 140//140 141//141 
f 126//126 132//132 120//120 
f 117//117 142//142 137//137 
f 117//117 143//143 144//144 
f 117//117 145//145 146//146 
f 134//134 147//147 139//139 
f 141//141 148//148 134//134 
f 149//149 150//150 151//151 
f 149//149 152//152 153//153 
f 138//138 123//123 117//117 
f 146//146 143//143 117//117 
f 148//148 147//147 134//134 
f 134//134 154//154 155//155 
f 151//151 134//134 149//149 
f 149//149 156//156 152//152 
f 149//149 120//120 157//157 
f 120//120 158//158 159//159 
f 144//144 142//142 117//117 
f 134//134 160//160 140//140 
f 134//134 161//161 154//154 
f 151//151 162//162 134//134 
f 153//153 163//163 149//149 
f 149//149 164//164 165//165 
f 149//149 166//166 167//167 
f 120//120 168//168 157//157 
f 131//131 158//158 120//120 
f 117//117 169//169 170//170 
f 117//117 171//171 172//172 
f 117//117 134//134 173//173 
f 134//134 174//174 175//175 
f 155//155 160//160 134//134 
f 163//163 150//150 149//149 
f 167//167 164//164 149//149 
f 120//120 176//176 168//168 
f 170//170 145//145 117//117 
f 173//173 171//171 117//117 
f 136//136 174//174 134//134 
f 165//165 156//156 149//149 
f 149//149 177//177 178//178 
f 159//159 176//176 120//120 
f 175//175 173//173 134//134 
f 178//178 166//166 149//149 
f 172//172 169//169 117//117 
f 157//157 177//177 149//149 
f 162//162 161//161 134//134 
o mesh1156
v 0.1937 0.003 0.003 
v 0.1937 0.003 -0.0375431 
v 0.1937 0.0467529 -0.0375431 
v 0.1937 0.116976 0.003 
vn 1 0 0 
vn 1 0 0 
vn 1 0 0 
vn 1 0 0 
f 179//179 180//180 181//181 
f 181//181 182//182 179//179 
o mesh1157
v 0.1937 0.0467529 -0.0375431 
v 0.1937 0.003 -0.0375431 
v 0.2877 0.003 -0.0375431 
v 0.289847 0.00496304 -0.0375431 
v 0.2907 0.006 -0.0375431 
v 0.288737 0.00385283 -0.0375431 
v 0.2907 0.0467529 -0.0375431 
vn -7.1535e-17 0 1 
vn -7.1535e-17 0 1 
vn -7.1535e-17 0 1 
vn -7.1535e-17 0 1 
vn -7.1535e-17 0 1 
vn -7.1535e-17 0 1 
vn -7.1535e-17 0 1 
f 183//183 184//184 185//185 
f 183//183 186//186 187//187 
f 185//185 188//188 183//183 
f 188//188 186//186 183//183 
f 187//187 189//189 183//183 
o mesh1158
v 0.1937 0.0467529 -0.0375431 
v 0.2907 0.0467529 -0.0375431 
v 0.2907 0.116976 0.003 
v 0.1937 0.116976 0.003 
vn 0 -0.5 0.866025 
vn 0 -0.5 0.866025 
vn 0 -0.5 0.866025 
vn 0 -0.5 0.866025 
f 190//190 191//191 192//192 
f 192//192 193//193 190//190 
o mesh1159
v 0.003 0.122976 0.003 
v 0.00889895 0.00129682 0.003 
v 0.0103647 0.000734152 0.003 
v 0.00496304 0.00385283 0.003 
v 0.00618322 0.00286475 0.003 
v 0.0118813 0.000327786 0.003 
v 0.0075 0.00200962 0.003 
v 0.284801 0.00129682 0.003 
v 0.280268 8.21716e-05 0.003 
v 0.281819 0.000327786 0.003 
v 0.0134321 8.21716e-05 0.003 
v 0.00385283 0.00496304 0.003 
v 0.2787 0 0.003 
v 0.2862 0.00200962 0.003 
v 0.283335 0.000734152 0.003 
v 0.1937 0.116976 0.003 
v 0.015 0 0.003 
v 0.003 0.006 0.003 
v 0.287517 0.00286475 0.003 
v 0.1937 0.003 0.003 
v 0.2907 0.122976 0.003 
v 0.2877 0.003 0.003 
v 0.2907 0.116976 0.003 
vn -7.1535e-17 0 1 
vn -7.1535e-17 0 1 
vn -7.1535e-17 0 1 
vn -7.1535e-17 0 1 
vn -7.1535e-17 0 1 
vn -7.1535e-17 0 1 
vn -7.1535e-17 0 1 
vn -7.1535e-17 0 1 
vn -7.1535e-17 0 1 
vn -7.1535e-17 0 1 
vn -7.1535e-17 0 1 
vn -7.1535e-17 0 1 
vn -7.1535e-17 0 1 
vn -7.1535e-17 0 1 
vn -7.1535e-17 0 1 
vn -7.1535e-17 0 1 
vn -7.1535e-17 0 1 
vn -7.1535e-17 0 1 
vn -7.1535e-17 0 1 
vn -7.1535e-17 0 1 
vn -7.1535e-17 0 1 
vn -7.1535e-17 0 1 
vn -7.1535e-17 0 1 
f 194//194 195//195 196//196 
f 194//194 197//197 198//198 
f 196//196 199//199 194//194 
f 198//198 200//200 194//194 
f 201//201 202//202 203//203 
f 199//199 204//204 194//194 
f 194//194 205//205 197//197 
f 206//206 201//201 207//207 
f 201//201 206//206 202//202 
f 200//200 195//195 194//194 
f 203//203 208//208 201//201 
f 209//209 194//194 210//210 
f 194//194 211//211 205//205 
f 212//212 213//213 206//206 
f 214//214 194//194 209//209 
f 204//204 210//210 194//194 
f 207//207 212//212 206//206 
f 210//210 213//213 209//209 
f 212//212 215//215 213//213 
f 213//213 210//210 206//206 
f 209//209 216//216 214//214 
o mesh1160
v 0.2907 0.13302 0.0213869 
v 0.2907 0.158256 0.026618 
v 0.2907 0.158419 0.0264863 
v 0.2907 0.158699 0.0238244 
v 0.2907 0.158567 0.0236617 
v 0.2907 0.158567 0.0263383 
v 0.2907 0.158813 0.024 
v 0.2907 0.158983 0.024382 
v 0.2907 0.158908 0.0241865 
v 0.2907 0.158813 0.026 
v 0.2907 0.158908 0.0258135 
v 0.2907 0.158699 0.0261756 
v 0.2907 0.132878 0.0220319 
v 0.2907 0.157081 0.027 
v 0.2907 0.159081 0.025 
v 0.2907 0.15907 0.0247909 
v 0.2907 0.159037 0.0254158 
v 0.2907 0.15907 0.0252091 
v 0.2907 0.157894 0.0268271 
v 0.2907 0.158081 0.0267321 
v 0.2907 0.157497 0.0269563 
v 0.2907 0.157699 0.0269021 
v 0.2907 0.15729 0.026989 
v 0.2907 0.158256 0.023382 
v 0.2907 0.158081 0.0232679 
v 0.2907 0.158419 0.0235137 
v 0.2907 0.159037 0.0245842 
v 0.2907 0.158983 0.025618 
v 0.2907 0.116976 0.003 
v 0.2907 0.122805 0.0159714 
v 0.2907 0.123308 0.0155438 
v 0.2907 0.122351 0.0164509 
v 0.2907 0.123855 0.0151732 
v 0.2907 0.133091 0.0207302 
v 0.2907 0.122976 0.003 
v 0.2907 0.128948 0.0146193 
v 0.2907 0.129561 0.0148638 
v 0.2907 0.12766 0.0143358 
v 0.2907 0.128311 0.0144426 
v 0.2907 0.12634 0.0143358 
v 0.2907 0.127 0.0143 
v 0.2907 0.124439 0.0148638 
v 0.2907 0.125052 0.0146193 
v 0.2907 0.121951 0.0169768 
v 0.2907 0.121333 0.0181422 
v 0.2907 0.121611 0.0175427 
v 0.2907 0.133091 0.0200698 
v 0.2907 0.132878 0.0187681 
v 0.2907 0.13302 0.0194131 
v 0.2907 0.130145 0.0151732 
v 0.2907 0.130692 0.0155438 
v 0.2907 0.125689 0.0144426 
v 0.2907 0.006 0.027 
v 0.2907 0.12098 0.0213869 
v 0.2907 0.131195 0.0248286 
v 0.2907 0.130692 0.0252562 
v 0.2907 0.132667 0.0226578 
v 0.2907 0.120909 0.0207302 
v 0.2907 0.0467529 -0.0375431 
v 0.2907 0.121951 0.0238232 
v 0.2907 0.121611 0.0232573 
v 0.2907 0.123308 0.0252562 
v 0.2907 0.122805 0.0248286 
v 0.2907 0.124439 0.0259362 
v 0.2907 0.123855 0.0256268 
v 0.2907 0.128948 0.0261807 
v 0.2907 0.128311 0.0263574 
v 0.2907 0.130145 0.0256268 
v 0.2907 0.129561 0.0259362 
v 0.2907 0.131649 0.0243491 
v 0.2907 0.132389 0.0232573 
v 0.2907 0.132049 0.0238232 
v 0.2907 0.132389 0.0175427 
v 0.2907 0.132667 0.0181422 
v 0.2907 0.131195 0.0159714 
v 0.2907 0.12098 0.0194131 
v 0.2907 0.121122 0.0187681 
v 0.2907 0.120909 0.0200698 
v 0.2907 0.121122 0.0220319 
v 0.2907 0.121333 0.0226578 
v 0.2907 0.122351 0.0243491 
v 0.2907 0.125052 0.0261807 
v 0.2907 0.127 0.0265 
v 0.2907 0.12634 0.0264642 
v 0.2907 0.12766 0.0264642 
v 0.2907 0.131649 0.0164509 
v 0.2907 0.132049 0.0169768 
v 0.2907 0.125689 0.0263574 
v 0.2907 0.006 -0.0375431 
vn -1 0 0 
vn -1 0 0 
vn -1 0 0 
vn -1 0 0 
vn -1 0 0 
vn -1 0 0 
vn -1 0 0 
vn -1 0 0 
vn -1 0 0 
vn -1 0 0 
vn -1 0 0 
vn -1 0 0 
vn -1 0 0 
vn -1 0 0 
vn -1 0 0 
vn -1 0 0 
vn -1 0 0 
vn -1 0 0 
vn -1 0 0 
vn -1 0 0 
vn -1 0 0 
vn -1 0 0 
vn -1 0 0 
vn -1 0 0 
vn -1 0 0 
vn -1 0 0 
vn -1 0 0 
vn -1 0 0 
vn -1 0 0 
vn -1 0 0 
vn -1 0 0 
vn -1 0 0 
vn -1 0 0 
vn -1 0 0 
vn -1 0 0 
vn -1 0 0 
vn -1 0 0 
vn -1 0 0 
vn -1 0 0 
vn -1 0 0 
vn -1 0 0 
vn -1 0 0 
vn -1 0 0 
vn -1 0 0 
vn -1 0 0 
vn -1 0 0 
vn -1 0 0 
vn -1 0 0 
vn -1 0 0 
vn -1 0 0 
vn -1 0 0 
vn -1 0 0 
vn -1 0 0 
vn -1 0 0 
vn -1 0 0 
vn -1 0 0 
vn -1 0 0 
vn -1 0 0 
vn -1 0 0 
vn -1 0 0 
vn -1 0 0 
vn -1 0 0 
vn -1 0 0 
vn -1 0 0 
vn -1 0 0 
vn -1 0 0 
vn -1 0 0 
vn -1 0 0 
vn -1 0 0 
vn -1 0 0 
vn -1 0 0 
vn -1 0 0 
vn -1 0 0 
vn -1 0 0 
vn -1 0 0 
vn -1 0 0 
vn -1 0 0 
vn -1 0 0 
vn -1 0 0 
vn -1 0 0 
vn -1 0 0 
vn -1 0 0 
vn -1 0 0 
vn -1 0 0 
vn -1 0 0 
vn -1 0 0 
vn -1 0 0 
vn -1 0 0 
vn -1 0 0 
f 217//217 218//218 219//219 
f 217//217 220//220 221//221 
f 219//219 222//222 217//217 
f 217//217 223//223 220//220 
f 217//217 224//224 225//225 
f 217//217 226//226 227//227 
f 222//222 228//228 217//217 
f 217//217 229//229 230//230 
f 225//225 223//223 217//217 
f 217//217 231//231 232//232 
f 217//217 233//233 234//234 
f 228//228 226//226 217//217 
f 217//217 235//235 236//236 
f 217//217 237//237 238//238 
f 230//230 239//239 217//217 
f 217//217 240//240 241//241 
f 221//221 242//242 217//217 
f 232//232 243//243 217//217 
f 217//217 244//244 233//233 
f 245//245 246//246 247//247 
f 236//236 218//218 217//217 
f 239//239 237//237 217//217 
f 242//242 240//240 217//217 
f 234//234 231//231 217//217 
f 245//245 248//248 246//246 
f 238//238 235//235 217//217 
f 243//243 224//224 217//217 
f 247//247 249//249 245//245 
f 241//241 250//250 217//217 
f 251//251 252//252 253//253 
f 251//251 254//254 255//255 
f 251//251 256//256 257//257 
f 245//245 258//258 259//259 
f 245//245 260//260 248//248 
f 245//245 261//261 262//262 
f 241//241 263//263 250//250 
f 241//241 264//264 265//265 
f 251//251 266//266 267//267 
f 255//255 252//252 251//251 
f 251//251 268//268 256//256 
f 259//259 251//251 245//245 
f 262//262 260//260 245//245 
f 269//269 270//270 245//245 
f 230//230 271//271 272//272 
f 230//230 229//229 273//273 
f 265//265 263//263 241//241 
f 267//267 241//241 251//251 
f 257//257 254//254 251//251 
f 249//249 258//258 245//245 
f 245//245 270//270 274//274 
f 245//245 275//275 269//269 
f 269//269 276//276 277//277 
f 269//269 278//278 279//279 
f 269//269 280//280 281//281 
f 230//230 282//282 283//283 
f 230//230 284//284 285//285 
f 230//230 286//286 271//271 
f 230//230 287//287 288//288 
f 227//227 244//244 217//217 
f 241//241 289//289 290//290 
f 267//267 291//291 241//241 
f 259//259 268//268 251//251 
f 245//245 292//292 293//293 
f 274//274 294//294 245//245 
f 269//269 295//295 270//270 
f 277//277 296//296 269//269 
f 279//279 297//297 269//269 
f 269//269 298//298 280//280 
f 269//269 230//230 299//299 
f 285//285 282//282 230//230 
f 288//288 286//286 230//230 
f 290//290 264//264 241//241 
f 253//253 266//266 251//251 
f 294//294 292//292 245//245 
f 296//296 295//295 269//269 
f 281//281 278//278 269//269 
f 299//299 300//300 269//269 
f 283//283 301//301 230//230 
f 273//273 287//287 230//230 
f 241//241 302//302 303//303 
f 293//293 261//261 245//245 
f 297//297 276//276 269//269 
f 300//300 304//304 269//269 
f 272//272 284//284 230//230 
f 291//291 302//302 241//241 
f 304//304 298//298 269//269 
f 303//303 289//289 241//241 
f 301//301 299//299 230//230 
f 275//275 305//305 269//269 
o mesh1161
v 0.290835 0.00618322 0.027 
v 0.292966 0.0103647 0.027 
v 0.293372 0.0118813 0.027 
v 0.29169 0.0075 0.027 
v 0.292403 0.00889895 0.027 
v 0.293618 0.0134321 0.027 
v 0.2907 0.157081 0.027 
v 0.2907 0.006 0.027 
v 0.2937 0.015 0.027 
v 0.2937 0.157081 0.027 
vn 0 0 1 
vn 0 0 1 
vn 0 0 1 
vn 0 0 1 
vn 0 0 1 
vn 0 0 1 
vn 0 0 1 
vn 0 0 1 
vn 0 0 1 
vn 0 0 1 
f 306//306 307//307 308//308 
f 307//307 306//306 309//309 
f 309//309 310//310 307//307 
f 308//308 311//311 306//306 
f 312//312 313//313 314//314 
f 314//314 313//313 306//306 
f 311//311 314//314 306//306 
f 314//314 315//315 312//312 
o mesh1162
v 0.2907 0.157081 0.027 
v 0.2937 0.157081 0.027 
v 0.2937 0.15729 0.026989 
v 0.2907 0.15729 0.026989 
v 0.2937 0.157497 0.0269563 
v 0.2907 0.157497 0.0269563 
v 0.2937 0.157699 0.0269021 
v 0.2907 0.157699 0.0269021 
v 0.2937 0.157894 0.0268271 
v 0.2907 0.157894 0.0268271 
v 0.2937 0.158081 0.0267321 
v 0.2907 0.158081 0.0267321 
v 0.2937 0.158256 0.026618 
v 0.2907 0.158256 0.026618 
v 0.2937 0.158419 0.0264863 
v 0.2907 0.158419 0.0264863 
v 0.2937 0.158567 0.0263383 
v 0.2907 0.158567 0.0263383 
v 0.2937 0.158699 0.0261756 
v 0.2907 0.158699 0.0261756 
v 0.2937 0.158813 0.026 
v 0.2907 0.158813 0.026 
v 0.2937 0.158908 0.0258135 
v 0.2907 0.158908 0.0258135 
v 0.2937 0.158983 0.025618 
v 0.2907 0.158983 0.025618 
v 0.2937 0.159037 0.0254158 
v 0.2907 0.159037 0.0254158 
v 0.2937 0.15907 0.0252091 
v 0.2907 0.15907 0.0252091 
v 0.2937 0.159081 0.025 
v 0.2907 0.159081 0.025 
v 0.2937 0.15907 0.0247909 
v 0.2907 0.15907 0.0247909 
v 0.2937 0.159037 0.0245842 
v 0.2907 0.159037 0.0245842 
v 0.2937 0.158983 0.024382 
v 0.2907 0.158983 0.024382 
v 0.2937 0.158908 0.0241865 
v 0.2907 0.158908 0.0241865 
v 0.2937 0.158813 0.024 
v 0.2907 0.158813 0.024 
v 0.2937 0.158699 0.0238244 
v 0.2907 0.158699 0.0238244 
v 0.2937 0.158567 0.0236617 
v 0.2907 0.158567 0.0236617 
v 0.2937 0.158419 0.0235137 
v 0.2907 0.158419 0.0235137 
v 0.2937 0.158256 0.023382 
v 0.2907 0.158256 0.023382 
v 0.2937 0.158081 0.0232679 
v 0.2907 0.158081 0.0232679 
vn 0 0 1 
vn 0 0 1 
vn 0 0.104528 0.994522 
vn 0 0.104528 0.994522 
vn 0 0.207912 0.978148 
vn 0 0.207912 0.978148 
vn 0 0.309017 0.951057 
vn 0 0.309017 0.951057 
vn 0 0.406737 0.913545 
vn 0 0.406737 0.913545 
vn 0 0.5 0.866025 
vn 0 0.5 0.866025 
vn 0 0.587785 0.809017 
vn 0 0.587785 0.809017 
vn 0 0.669131 0.743145 
vn 0 0.669131 0.743145 
vn 0 0.743145 0.669131 
vn 0 0.743145 0.669131 
vn 0 0.809017 0.587785 
vn 0 0.809017 0.587785 
vn 0 0.866025 0.5 
vn 0 0.866025 0.5 
vn 0 0.913545 0.406737 
vn 0 0.913545 0.406737 
vn 0 0.951057 0.309017 
vn 0 0.951057 0.309017 
vn 0 0.978148 0.207912 
vn 0 0.978148 0.207912 
vn 0 0.994522 0.104528 
vn 0 0.994522 0.104528 
vn 0 1 6.12323e-17 
vn 0 1 6.12323e-17 
vn 0 0.994522 -0.104528 
vn 0 0.994522 -0.104528 
vn 0 0.978148 -0.207912 
vn 0 0.978148 -0.207912 
vn 0 0.951057 -0.309017 
vn 0 0.951057 -0.309017 
vn 0 0.913545 -0.406737 
vn 0 0.913545 -0.406737 
vn 0 0.866025 -0.5 
vn 0 0.866025 -0.5 
vn 0 0.809017 -0.587785 
vn 0 0.809017 -0.587785 
vn 0 0.743145 -0.669131 
vn 0 0.743145 -0.669131 
vn 0 0.669131 -0.743145 
vn 0 0.669131 -0.743145 
vn 0 0.587785 -0.809017 
vn 0 0.587785 -0.809017 
vn 0 0.5 -0.866025 
vn 0 0.5 -0.866025 
f 316//316 317//317 318//318 
f 319//319 318//318 320//320 
f 321//321 320//320 322//322 
f 323//323 322//322 324//324 
f 325//325 324//324 326//326 
f 327//327 326//326 328//328 
f 329//329 328//328 330//330 
f 331//331 330//330 332//332 
f 333//333 332//332 334//334 
f 335//335 334//334 336//336 
f 337//337 336//336 338//338 
f 339//339 338//338 340//340 
f 341//341 340//340 342//342 
f 343//343 342//342 344//344 
f 345//345 344//344 346//346 
f 347//347 346//346 348//348 
f 349//349 348//348 350//350 
f 351//351 350//350 352//352 
f 353//353 352//352 354//354 
f 355//355 354//354 356//356 
f 357//357 356//356 358//358 
f 359//359 358//358 360//360 
f 361//361 360//360 362//362 
f 363//363 362//362 364//364 
f 365//365 364//364 366//366 
f 366//366 367//367 365//365 
f 364//364 365//365 363//363 
f 362//362 363//363 361//361 
f 360//360 361//361 359//359 
f 358//358 359//359 357//357 
f 356//356 357//357 355//355 
f 354//354 355//355 353//353 
f 352//352 353//353 351//351 
f 350//350 351//351 349//349 
f 348//348 349//349 347//347 
f 346//346 347//347 345//345 
f 344//344 345//345 343//343 
f 342//342 343//343 341//341 
f 340//340 341//341 339//339 
f 338//338 339//339 337//337 
f 336//336 337//337 335//335 
f 334//334 335//335 333//333 
f 332//332 333//333 331//331 
f 330//330 331//331 329//329 
f 328//328 329//329 327//327 
f 326//326 327//327 325//325 
f 324//324 325//325 323//323 
f 322//322 323//323 321//321 
f 320//320 321//321 319//319 
f 318//318 319//319 316//316 
o mesh1163
v 0.2907 0.127 0.0265 
v 0.2907 0.12766 0.0264642 
v 0.2937 0.127335 0.0234818 
v 0.2907 0.128311 0.0263574 
v 0.2937 0.127666 0.0234275 
v 0.2907 0.128948 0.0261807 
v 0.2937 0.12799 0.0233377 
v 0.2907 0.129561 0.0259362 
v 0.2937 0.128302 0.0232135 
v 0.2907 0.130145 0.0256268 
v 0.2937 0.128598 0.0230563 
v 0.2907 0.130692 0.0252562 
v 0.2937 0.128876 0.0228679 
v 0.2907 0.131195 0.0248286 
v 0.2937 0.129132 0.0226506 
v 0.2907 0.131649 0.0243491 
v 0.2937 0.129363 0.0224069 
v 0.2907 0.132049 0.0238232 
v 0.2937 0.129566 0.0221397 
v 0.2907 0.132389 0.0232573 
v 0.2937 0.129739 0.0218521 
v 0.2907 0.132667 0.0226578 
v 0.2937 0.12988 0.0215474 
v 0.2907 0.132878 0.0220319 
v 0.2937 0.129987 0.0212293 
v 0.2907 0.13302 0.0213869 
v 0.2937 0.130059 0.0209015 
v 0.2907 0.133091 0.0207302 
v 0.2937 0.130095 0.0205678 
v 0.2907 0.133091 0.0200698 
v 0.2937 0.130095 0.0202322 
v 0.2907 0.13302 0.0194131 
v 0.2937 0.130059 0.0198985 
v 0.2907 0.132878 0.0187681 
v 0.2937 0.129987 0.0195707 
v 0.2907 0.132667 0.0181422 
v 0.2937 0.12988 0.0192526 
v 0.2907 0.132389 0.0175427 
v 0.2937 0.129739 0.0189479 
v 0.2907 0.132049 0.0169768 
v 0.2937 0.129566 0.0186603 
v 0.2907 0.131649 0.0164509 
v 0.2937 0.129363 0.0183931 
v 0.2907 0.131195 0.0159714 
v 0.2937 0.129132 0.0181494 
v 0.2907 0.130692 0.0155438 
v 0.2937 0.128876 0.0179321 
v 0.2907 0.130145 0.0151732 
v 0.2937 0.128598 0.0177437 
v 0.2907 0.129561 0.0148638 
v 0.2937 0.128302 0.0175865 
v 0.2907 0.128948 0.0146193 
v 0.2937 0.12799 0.0174623 
v 0.2907 0.128311 0.0144426 
v 0.2937 0.127666 0.0173725 
v 0.2907 0.12766 0.0143358 
v 0.2937 0.127335 0.0173182 
v 0.2907 0.127 0.0143 
v 0.2937 0.127 0.0173 
v 0.2907 0.12634 0.0143358 
v 0.2937 0.126665 0.0173182 
v 0.2907 0.125689 0.0144426 
v 0.2937 0.126334 0.0173725 
v 0.2907 0.125052 0.0146193 
v 0.2937 0.12601 0.0174623 
v 0.2907 0.124439 0.0148638 
v 0.2937 0.125698 0.0175865 
v 0.2907 0.123855 0.0151732 
v 0.2937 0.125402 0.0177437 
v 0.2907 0.123308 0.0155438 
v 0.2937 0.125124 0.0179321 
v 0.2907 0.122805 0.0159714 
v 0.2937 0.124868 0.0181494 
v 0.2907 0.122351 0.0164509 
v 0.2937 0.124637 0.0183931 
v 0.2907 0.121951 0.0169768 
v 0.2937 0.124434 0.0186603 
v 0.2907 0.121611 0.0175427 
v 0.2937 0.124261 0.0189479 
v 0.2907 0.121333 0.0181422 
v 0.2937 0.12412 0.0192526 
v 0.2907 0.121122 0.0187681 
v 0.2937 0.124013 0.0195707 
v 0.2907 0.12098 0.0194131 
v 0.2937 0.123941 0.0198985 
v 0.2907 0.120909 0.0200698 
v 0.2937 0.123905 0.0202322 
v 0.2907 0.120909 0.0207302 
v 0.2937 0.123905 0.0205678 
v 0.2907 0.12098 0.0213869 
v 0.2937 0.123941 0.0209015 
v 0.2907 0.121122 0.0220319 
v 0.2937 0.124013 0.0212293 
v 0.2907 0.121333 0.0226578 
v 0.2937 0.12412 0.0215474 
v 0.2907 0.121611 0.0232573 
v 0.2937 0.124261 0.0218521 
v 0.2907 0.121951 0.0238232 
v 0.2937 0.124434 0.0221397 
v 0.2907 0.122351 0.0243491 
v 0.2937 0.124637 0.0224069 
v 0.2907 0.122805 0.0248286 
v 0.2937 0.124868 0.0226506 
v 0.2907 0.123308 0.0252562 
v 0.2937 0.125124 0.0228679 
v 0.2907 0.123855 0.0256268 
v 0.2937 0.125402 0.0230563 
v 0.2907 0.124439 0.0259362 
v 0.2937 0.125698 0.0232135 
v 0.2907 0.125052 0.0261807 
v 0.2937 0.12601 0.0233377 
v 0.2907 0.125689 0.0263574 
v 0.2937 0.126334 0.0234275 
v 0.2907 0.12634 0.0264642 
v 0.2937 0.126665 0.0234818 
v 0.2937 0.127 0.0235 
vn -0.707107 0 -0.707107 
vn -0.707107 -0.0764517 -0.702962 
vn -0.707107 -0.0764517 -0.702962 
vn -0.707107 -0.152007 -0.690575 
vn -0.707107 -0.152007 -0.690575 
vn -0.707107 -0.22578 -0.670092 
vn -0.707107 -0.22578 -0.670092 
vn -0.707107 -0.296906 -0.641753 
vn -0.707107 -0.296906 -0.641753 
vn -0.707107 -0.364552 -0.60589 
vn -0.707107 -0.364552 -0.60589 
vn -0.707107 -0.427923 -0.562923 
vn -0.707107 -0.427923 -0.562923 
vn -0.707107 -0.486277 -0.513356 
vn -0.707107 -0.486277 -0.513356 
vn -0.707107 -0.53893 -0.457771 
vn -0.707107 -0.53893 -0.457771 
vn -0.707107 -0.585265 -0.396819 
vn -0.707107 -0.585265 -0.396819 
vn -0.707107 -0.624737 -0.331215 
vn -0.707107 -0.624737 -0.331215 
vn -0.707107 -0.656886 -0.261727 
vn -0.707107 -0.656886 -0.261727 
vn -0.707107 -0.681333 -0.189171 
vn -0.707107 -0.681333 -0.189171 
vn -0.707107 -0.697792 -0.114397 
vn -0.707107 -0.697792 -0.114397 
vn -0.707107 -0.70607 -0.038282 
vn -0.707107 -0.70607 -0.038282 
vn -0.707107 -0.70607 0.038282 
vn -0.707107 -0.70607 0.038282 
vn -0.707107 -0.697792 0.114397 
vn -0.707107 -0.697792 0.114397 
vn -0.707107 -0.681333 0.189171 
vn -0.707107 -0.681333 0.189171 
vn -0.707107 -0.656886 0.261727 
vn -0.707107 -0.656886 0.261727 
vn -0.707107 -0.624737 0.331215 
vn -0.707107 -0.624737 0.331215 
vn -0.707107 -0.585265 0.396819 
vn -0.707107 -0.585265 0.396819 
vn -0.707107 -0.53893 0.457771 
vn -0.707107 -0.53893 0.457771 
vn -0.707107 -0.486277 0.513356 
vn -0.707107 -0.486277 0.513356 
vn -0.707107 -0.427923 0.562923 
vn -0.707107 -0.427923 0.562923 
vn -0.707107 -0.364552 0.60589 
vn -0.707107 -0.364552 0.60589 
vn -0.707107 -0.296906 0.641753 
vn -0.707107 -0.296906 0.641753 
vn -0.707107 -0.22578 0.670092 
vn -0.707107 -0.22578 0.670092 
vn -0.707107 -0.152007 0.690575 
vn -0.707107 -0.152007 0.690575 
vn -0.707107 -0.0764517 0.702962 
vn -0.707107 -0.0764517 0.702962 
vn -0.707107 1.47196e-16 0.707107 
vn -0.707107 1.47196e-16 0.707107 
vn -0.707107 0.0764517 0.702962 
vn -0.707107 0.0764517 0.702962 
vn -0.707107 0.152007 0.690575 
vn -0.707107 0.152007 0.690575 
vn -0.707107 0.22578 0.670092 
vn -0.707107 0.22578 0.670092 
vn -0.707107 0.296906 0.641753 
vn -0.707107 0.296906 0.641753 
vn -0.707107 0.364552 0.60589 
vn -0.707107 0.364552 0.60589 
vn -0.707107 0.427923 0.562923 
vn -0.707107 0.427923 0.562923 
vn -0.707107 0.486277 0.513356 
vn -0.707107 0.486277 0.513356 
vn -0.707107 0.53893 0.457771 
vn -0.707107 0.53893 0.457771 
vn -0.707107 0.585265 0.396819 
vn -0.707107 0.585265 0.396819 
vn -0.707107 0.624737 0.331215 
vn -0.707107 0.624737 0.331215 
vn -0.707107 0.656886 0.261727 
vn -0.707107 0.656886 0.261727 
vn -0.707107 0.681333 0.189171 
vn -0.707107 0.681333 0.189171 
vn -0.707107 0.697792 0.114397 
vn -0.707107 0.697792 0.114397 
vn -0.707107 0.70607 0.038282 
vn -0.707107 0.70607 0.038282 
vn -0.707107 0.70607 -0.038282 
vn -0.707107 0.70607 -0.038282 
vn -0.707107 0.697792 -0.114397 
vn -0.707107 0.697792 -0.114397 
vn -0.707107 0.681333 -0.189171 
vn -0.707107 0.681333 -0.189171 
vn -0.707107 0.656886 -0.261727 
vn -0.707107 0.656886 -0.261727 
vn -0.707107 0.624737 -0.331215 
vn -0.707107 0.624737 -0.331215 
vn -0.707107 0.585265 -0.396819 
vn -0.707107 0.585265 -0.396819 
vn -0.707107 0.53893 -0.457771 
vn -0.707107 0.53893 -0.457771 
vn -0.707107 0.486277 -0.513356 
vn -0.707107 0.486277 -0.513356 
vn -0.707107 0.427923 -0.562923 
vn -0.707107 0.427923 -0.562923 
vn -0.707107 0.364552 -0.60589 
vn -0.707107 0.364552 -0.60589 
vn -0.707107 0.296906 -0.641753 
vn -0.707107 0.296906 -0.641753 
vn -0.707107 0.22578 -0.670092 
vn -0.707107 0.22578 -0.670092 
vn -0.707107 0.152007 -0.690575 
vn -0.707107 0.152007 -0.690575 
vn -0.707107 0.0764517 -0.702962 
vn -0.707107 0.0764517 -0.702962 
vn -0.707107 0 -0.707107 
f 368//368 369//369 370//370 
f 369//369 371//371 372//372 
f 371//371 373//373 374//374 
f 373//373 375//375 376//376 
f 375//375 377//377 378//378 
f 377//377 379//379 380//380 
f 379//379 381//381 382//382 
f 381//381 383//383 384//384 
f 383//383 385//385 386//386 
f 385//385 387//387 388//388 
f 387//387 389//389 390//390 
f 389//389 391//391 392//392 
f 391//391 393//393 394//394 
f 393//393 395//395 396//396 
f 395//395 397//397 398//398 
f 397//397 399//399 400//400 
f 399//399 401//401 402//402 
f 401//401 403//403 404//404 
f 403//403 405//405 406//406 
f 405//405 407//407 408//408 
f 407//407 409//409 410//410 
f 409//409 411//411 412//412 
f 411//411 413//413 414//414 
f 413//413 415//415 416//416 
f 415//415 417//417 418//418 
f 417//417 419//419 420//420 
f 419//419 421//421 422//422 
f 421//421 423//423 424//424 
f 423//423 425//425 426//426 
f 425//425 427//427 428//428 
f 427//427 429//429 430//430 
f 429//429 431//431 432//432 
f 431//431 433//433 434//434 
f 433//433 435//435 436//436 
f 435//435 437//437 438//438 
f 437//437 439//439 440//440 
f 439//439 441//441 442//442 
f 441//441 443//443 444//444 
f 443//443 445//445 446//446 
f 445//445 447//447 448//448 
f 447//447 449//449 450//450 
f 449//449 451//451 452//452 
f 451//451 453//453 454//454 
f 453//453 455//455 456//456 
f 455//455 457//457 458//458 
f 457//457 459//459 460//460 
f 459//459 461//461 462//462 
f 461//461 463//463 464//464 
f 463//463 465//465 466//466 
f 465//465 467//467 468//468 
f 467//467 469//469 470//470 
f 469//469 471//471 472//472 
f 471//471 473//473 474//474 
f 473//473 475//475 476//476 
f 475//475 477//477 478//478 
f 477//477 479//479 480//480 
f 479//479 481//481 482//482 
f 481//481 368//368 483//483 
f 483//483 482//482 481//481 
f 482//482 480//480 479//479 
f 480//480 478//478 477//477 
f 478//478 476//476 475//475 
f 476//476 474//474 473//473 
f 474//474 472//472 471//471 
f 472//472 470//470 469//469 
f 470//470 468//468 467//467 
f 468//468 466//466 465//465 
f 466//466 464//464 463//463 
f 464//464 462//462 461//461 
f 462//462 460//460 459//459 
f 460//460 458//458 457//457 
f 458//458 456//456 455//455 
f 456//456 454//454 453//453 
f 454//454 452//452 451//451 
f 452//452 450//450 449//449 
f 450//450 448//448 447//447 
f 448//448 446//446 445//445 
f 446//446 444//444 443//443 
f 444//444 442//442 441//441 
f 442//442 440//440 439//439 
f 440//440 438//438 437//437 
f 438//438 436//436 435//435 
f 436//436 434//434 433//433 
f 434//434 432//432 431//431 
f 432//432 430//430 429//429 
f 430//430 428//428 427//427 
f 428//428 426//426 425//425 
f 426//426 424//424 423//423 
f 424//424 422//422 421//421 
f 422//422 420//420 419//419 
f 420//420 418//418 417//417 
f 418//418 416//416 415//415 
f 416//416 414//414 413//413 
f 414//414 412//412 411//411 
f 412//412 410//410 409//409 
f 410//410 408//408 407//407 
f 408//408 406//406 405//405 
f 406//406 404//404 403//403 
f 404//404 402//402 401//401 
f 402//402 400//400 399//399 
f 400//400 398//398 397//397 
f 398//398 396//396 395//395 
f 396//396 394//394 393//393 
f 394//394 392//392 391//391 
f 392//392 390//390 389//389 
f 390//390 388//388 387//387 
f 388//388 386//386 385//385 
f 386//386 384//384 383//383 
f 384//384 382//382 381//381 
f 382//382 380//380 379//379 
f 380//380 378//378 377//377 
f 378//378 376//376 375//375 
f 376//376 374//374 373//373 
f 374//374 372//372 371//371 
f 372//372 370//370 369//369 
f 370//370 483//483 368//368 
o mesh1164
v 0.2937 0.015 -0.0405431 
v 0.2937 0.015 0.027 
v 0.293618 0.0134321 0.027 
v 0.293618 0.0134321 -0.0405431 
v 0.293372 0.0118813 0.027 
v 0.293372 0.0118813 -0.0405431 
v 0.292966 0.0103647 0.027 
v 0.292966 0.0103647 -0.0405431 
v 0.292403 0.00889895 0.027 
v 0.292403 0.00889895 -0.0405431 
v 0.29169 0.0075 0.027 
v 0.29169 0.0075 -0.0405431 
v 0.290835 0.00618322 0.027 
v 0.287517 0.00286475 -0.0405431 
v 0.287517 0.00286475 0.003 
v 0.2862 0.00200962 0.003 
v 0.2862 0.00200962 -0.0405431 
v 0.284801 0.00129682 0.003 
v 0.284801 0.00129682 -0.0405431 
v 0.283335 0.000734152 0.003 
v 0.283335 0.000734152 -0.0405431 
v 0.281819 0.000327786 0.003 
v 0.281819 0.000327786 -0.0405431 
v 0.280268 8.21716e-05 0.003 
v 0.280268 8.21716e-05 -0.0405431 
v 0.2787 0 0.003 
v 0.289847 0.00496304 -0.0405431 
v 0.290835 0.00618322 -0.0405431 
v 0.2907 0.006 -0.0375431 
v 0.2907 0.006 0.027 
v 0.289847 0.00496304 -0.0375431 
v 0.288737 0.00385283 -0.0375431 
v 0.2877 0.003 -0.0375431 
v 0.288737 0.00385283 -0.0405431 
v 0.2877 0.003 0.003 
v 0.2787 0 -0.0405431 
vn 1 1.22465e-16 0 
vn 1 1.22465e-16 0 
vn 0.994522 -0.104528 0 
vn 0.994522 -0.104528 0 
vn 0.978148 -0.207912 0 
vn 0.978148 -0.207912 0 
vn 0.951057 -0.309017 0 
vn 0.951057 -0.309017 0 
vn 0.913545 -0.406737 0 
vn 0.913545 -0.406737 0 
vn 0.866025 -0.5 0 
vn 0.866025 -0.5 0 
vn 0.809017 -0.587785 0 
vn 0.587785 -0.809017 0 
vn 0.587785 -0.809017 0 
vn 0.5 -0.866025 0 
vn 0.5 -0.866025 0 
vn 0.406737 -0.913545 0 
vn 0.406737 -0.913545 0 
vn 0.309017 -0.951057 0 
vn 0.309017 -0.951057 0 
vn 0.207912 -0.978148 0 
vn 0.207912 -0.978148 0 
vn 0.104528 -0.994522 0 
vn 0.104528 -0.994522 0 
vn 1.83697e-16 -1 0 
vn 0.743145 -0.669131 0 
vn 0.809017 -0.587785 0 
vn 0.8 -0.6 0 
vn 0.8 -0.6 0 
vn 0.743145 -0.669131 0 
vn 0.669131 -0.743145 0 
vn 0.6 -0.8 0 
vn 0.669131 -0.743145 0 
vn 0.6 -0.8 0 
vn 1.83697e-16 -1 0 
f 484//484 485//485 486//486 
f 487//487 486//486 488//488 
f 489//489 488//488 490//490 
f 491//491 490//490 492//492 
f 493//493 492//492 494//494 
f 495//495 494//494 496//496 
f 497//497 498//498 499//499 
f 500//500 499//499 501//501 
f 502//502 501//501 503//503 
f 504//504 503//503 505//505 
f 506//506 505//505 507//507 
f 508//508 507//507 509//509 
f 510//510 511//511 512//512 
f 496//496 513//513 512//512 
f 512//512 511//511 496//496 
f 510//510 514//514 515//515 
f 498//498 497//497 516//516 
f 517//517 515//515 516//516 
f 516//516 497//497 517//517 
f 516//516 518//518 498//498 
f 515//515 517//517 510//510 
f 512//512 514//514 510//510 
f 509//509 519//519 508//508 
f 507//507 508//508 506//506 
f 505//505 506//506 504//504 
f 503//503 504//504 502//502 
f 501//501 502//502 500//500 
f 499//499 500//500 497//497 
f 496//496 511//511 495//495 
f 494//494 495//495 493//493 
f 492//492 493//493 491//491 
f 490//490 491//491 489//489 
f 488//488 489//489 487//487 
f 486//486 487//487 484//484 
o mesh1165
v 0.2937 0.130059 0.0209015 
v 0.2937 0.158567 0.0236617 
v 0.2937 0.158699 0.0238244 
v 0.2937 0.158419 0.0235137 
v 0.2937 0.15729 0.026989 
v 0.2937 0.157081 0.027 
v 0.2937 0.158813 0.026 
v 0.2937 0.158699 0.0261756 
v 0.2937 0.159081 0.025 
v 0.2937 0.15907 0.0252091 
v 0.2937 0.159037 0.0245842 
v 0.2937 0.15907 0.0247909 
v 0.2937 0.158813 0.024 
v 0.2937 0.158908 0.0241865 
v 0.2937 0.158256 0.023382 
v 0.2937 0.157497 0.0269563 
v 0.2937 0.158419 0.0264863 
v 0.2937 0.158256 0.026618 
v 0.2937 0.158567 0.0263383 
v 0.2937 0.015 0.027 
v 0.2937 0.123941 0.0209015 
v 0.2937 0.124013 0.0212293 
v 0.2937 0.123905 0.0202322 
v 0.2937 0.123905 0.0205678 
v 0.2937 0.015 -0.0405431 
v 0.2937 0.124013 0.0195707 
v 0.2937 0.159037 0.0254158 
v 0.2937 0.158983 0.024382 
v 0.2937 0.130095 0.0205678 
v 0.2937 0.158081 0.0232679 
v 0.2937 0.157699 0.0269021 
v 0.2937 0.158081 0.0267321 
v 0.2937 0.157894 0.0268271 
v 0.2937 0.158983 0.025618 
v 0.2937 0.158908 0.0258135 
v 0.2937 0.126665 0.0234818 
v 0.2937 0.127 0.0235 
v 0.2937 0.123941 0.0198985 
v 0.2937 0.0475567 -0.0405431 
v 0.2937 0.12601 0.0174623 
v 0.2937 0.125698 0.0175865 
v 0.2937 0.128302 0.0175865 
v 0.2937 0.127666 0.0234275 
v 0.2937 0.12799 0.0233377 
v 0.2937 0.127335 0.0234818 
v 0.2937 0.126334 0.0234275 
v 0.2937 0.124637 0.0224069 
v 0.2937 0.124868 0.0226506 
v 0.2937 0.124261 0.0189479 
v 0.2937 0.12412 0.0192526 
v 0.2937 0.124868 0.0181494 
v 0.2937 0.124637 0.0183931 
v 0.2937 0.125402 0.0177437 
v 0.2937 0.126665 0.0173182 
v 0.2937 0.126334 0.0173725 
v 0.2937 0.127666 0.0173725 
v 0.2937 0.127335 0.0173182 
v 0.2937 0.12799 0.0174623 
v 0.2937 0.129363 0.0183931 
v 0.2937 0.129132 0.0181494 
v 0.2937 0.130095 0.0202322 
v 0.2937 0.128876 0.0228679 
v 0.2937 0.129132 0.0226506 
v 0.2937 0.128302 0.0232135 
v 0.2937 0.128598 0.0230563 
v 0.2937 0.12601 0.0233377 
v 0.2937 0.125402 0.0230563 
v 0.2937 0.125698 0.0232135 
v 0.2937 0.124434 0.0221397 
v 0.2937 0.124434 0.0186603 
v 0.2937 0.125124 0.0179321 
v 0.2937 0.127 0.0173 
v 0.2937 0.128876 0.0179321 
v 0.2937 0.128598 0.0177437 
v 0.2937 0.129566 0.0186603 
v 0.2937 0.12988 0.0192526 
v 0.2937 0.129739 0.0189479 
v 0.2937 0.12988 0.0215474 
v 0.2937 0.129987 0.0212293 
v 0.2937 0.129566 0.0221397 
v 0.2937 0.129739 0.0218521 
v 0.2937 0.129363 0.0224069 
v 0.2937 0.125124 0.0228679 
v 0.2937 0.12412 0.0215474 
v 0.2937 0.124261 0.0218521 
v 0.2937 0.130059 0.0198985 
v 0.2937 0.129987 0.0195707 
vn 1 0 0 
vn 1 0 0 
vn 1 0 0 
vn 1 0 0 
vn 1 0 0 
vn 1 0 0 
vn 1 0 0 
vn 1 0 0 
vn 1 0 0 
vn 1 0 0 
vn 1 0 0 
vn 1 0 0 
vn 1 0 0 
vn 1 0 0 
vn 1 0 0 
vn 1 0 0 
vn 1 0 0 
vn 1 0 0 
vn 1 0 0 
vn 1 0 0 
vn 1 0 0 
vn 1 0 0 
vn 1 0 0 
vn 1 0 0 
vn 1 0 0 
vn 1 0 0 
vn 1 0 0 
vn 1 0 0 
vn 1 0 0 
vn 1 0 0 
vn 1 0 0 
vn 1 0 0 
vn 1 0 0 
vn 1 0 0 
vn 1 0 0 
vn 1 0 0 
vn 1 0 0 
vn 1 0 0 
vn 1 0 0 
vn 1 0 0 
vn 1 0 0 
vn 1 0 0 
vn 1 0 0 
vn 1 0 0 
vn 1 0 0 
vn 1 0 0 
vn 1 0 0 
vn 1 0 0 
vn 1 0 0 
vn 1 0 0 
vn 1 0 0 
vn 1 0 0 
vn 1 0 0 
vn 1 0 0 
vn 1 0 0 
vn 1 0 0 
vn 1 0 0 
vn 1 0 0 
vn 1 0 0 
vn 1 0 0 
vn 1 0 0 
vn 1 0 0 
vn 1 0 0 
vn 1 0 0 
vn 1 0 0 
vn 1 0 0 
vn 1 0 0 
vn 1 0 0 
vn 1 0 0 
vn 1 0 0 
vn 1 0 0 
vn 1 0 0 
vn 1 0 0 
vn 1 0 0 
vn 1 0 0 
vn 1 0 0 
vn 1 0 0 
vn 1 0 0 
vn 1 0 0 
vn 1 0 0 
vn 1 0 0 
vn 1 0 0 
vn 1 0 0 
vn 1 0 0 
vn 1 0 0 
vn 1 0 0 
vn 1 0 0 
f 520//520 521//521 522//522 
f 520//520 523//523 521//521 
f 520//520 524//524 525//525 
f 520//520 526//526 527//527 
f 520//520 528//528 529//529 
f 520//520 530//530 531//531 
f 520//520 532//532 533//533 
f 520//520 534//534 523//523 
f 520//520 535//535 524//524 
f 520//520 536//536 537//537 
f 527//527 538//538 520//520 
f 539//539 540//540 541//541 
f 539//539 542//542 543//543 
f 539//539 544//544 545//545 
f 529//529 546//546 520//520 
f 520//520 547//547 530//530 
f 522//522 532//532 520//520 
f 520//520 548//548 549//549 
f 520//520 550//550 535//535 
f 520//520 551//551 552//552 
f 538//538 536//536 520//520 
f 520//520 553//553 554//554 
f 525//525 555//555 556//556 
f 543//543 540//540 539//539 
f 545//545 557//557 539//539 
f 558//558 559//559 560//560 
f 558//558 549//549 561//561 
f 531//531 528//528 520//520 
f 549//549 534//534 520//520 
f 552//552 550//550 520//520 
f 554//554 526//526 520//520 
f 525//525 562//562 563//563 
f 556//556 564//564 525//525 
f 539//539 565//565 555//555 
f 539//539 566//566 567//567 
f 557//557 542//542 539//539 
f 544//544 568//568 569//569 
f 568//568 544//544 558//558 
f 558//558 570//570 571//571 
f 560//560 572//572 558//558 
f 558//558 573//573 574//574 
f 558//558 575//575 576//576 
f 561//561 577//577 558//558 
f 549//549 578//578 579//579 
f 549//549 548//548 580//580 
f 533//533 547//547 520//520 
f 537//537 551//551 520//520 
f 525//525 581//581 582//582 
f 525//525 583//583 584//584 
f 564//564 562//562 525//525 
f 539//539 585//585 565//565 
f 539//539 586//586 587//587 
f 539//539 588//588 566//566 
f 569//569 545//545 544//544 
f 571//571 589//589 558//558 
f 572//572 590//590 558//558 
f 558//558 591//591 573//573 
f 577//577 575//575 558//558 
f 549//549 592//592 593//593 
f 549//549 594//594 578//578 
f 549//549 595//595 596//596 
f 546//546 553//553 520//520 
f 525//525 597//597 598//598 
f 525//525 599//599 600//600 
f 582//582 601//601 525//525 
f 563//563 583//583 525//525 
f 587//587 585//585 539//539 
f 567//567 602//602 539//539 
f 539//539 603//603 604//604 
f 558//558 589//589 568//568 
f 574//574 559//559 558//558 
f 593//593 561//561 549//549 
f 596//596 594//594 549//549 
f 549//549 605//605 606//606 
f 525//525 598//598 520//520 
f 601//601 599//599 525//525 
f 555//555 525//525 539//539 
f 604//604 588//588 539//539 
f 590//590 570//570 558//558 
f 579//579 592//592 549//549 
f 580//580 605//605 549//549 
f 584//584 581//581 525//525 
f 541//541 603//603 539//539 
f 606//606 595//595 549//549 
f 602//602 586//586 539//539 
f 600//600 597//597 525//525 
f 576//576 591//591 558//558 
o mesh1166
v 0.284801 0.00129682 -0.0405431 
v 0.283335 0.000734152 -0.0405431 
v 0.281819 0.000327786 -0.0405431 
v 0.2787 0 -0.0405431 
v 0.287517 0.00286475 -0.0405431 
v 0.2862 0.00200962 -0.0405431 
v 0.289847 0.00496304 -0.0405431 
v 0.288737 0.00385283 -0.0405431 
v 0.280268 8.21716e-05 -0.0405431 
v 0.29169 0.0075 -0.0405431 
v 0.290835 0.00618322 -0.0405431 
v 0.292966 0.0103647 -0.0405431 
v 0.292403 0.00889895 -0.0405431 
v 0.293618 0.0134321 -0.0405431 
v 0.293372 0.0118813 -0.0405431 
v 0.2937 0.015 -0.0405431 
v 0.1907 0.0475567 -0.0405431 
v 0.2937 0.0475567 -0.0405431 
v 0.1907 0 -0.0405431 
vn -1.34736e-16 0 -1 
vn -1.34736e-16 0 -1 
vn -1.34736e-16 0 -1 
vn -1.34736e-16 0 -1 
vn -1.34736e-16 0 -1 
vn -1.34736e-16 0 -1 
vn -1.34736e-16 0 -1 
vn -1.34736e-16 0 -1 
vn -1.34736e-16 0 -1 
vn -1.34736e-16 0 -1 
vn -1.34736e-16 0 -1 
vn -1.34736e-16 0 -1 
vn -1.34736e-16 0 -1 
vn -1.34736e-16 0 -1 
vn -1.34736e-16 0 -1 
vn -1.34736e-16 0 -1 
vn -1.34736e-16 0 -1 
vn -1.34736e-16 0 -1 
vn -1.34736e-16 0 -1 
f 607//607 608//608 609//609 
f 610//610 611//611 612//612 
f 610//610 613//613 614//614 
f 609//609 615//615 607//607 
f 614//614 611//611 610//610 
f 610//610 616//616 617//617 
f 610//610 618//618 619//619 
f 612//612 607//607 610//610 
f 619//619 616//616 610//610 
f 617//617 613//613 610//610 
f 610//610 620//620 621//621 
f 621//621 618//618 610//610 
f 610//610 622//622 620//620 
f 623//623 624//624 610//610 
f 610//610 624//624 622//622 
f 615//615 610//610 607//607 
f 610//610 625//625 623//623 
o mesh1167
v 0.1907 0 8.77621e-20 
v 0.2219 0 -0.0174 
v 0.222441 0 -0.0174293 
v 0.2787 0 0.003 
v 0.223999 0 -0.0178621 
v 0.224478 0 -0.0181157 
v 0.222975 0 -0.0175169 
v 0.221359 0 -0.0174293 
v 0.218874 0 -0.0184195 
v 0.219322 0 -0.0181157 
v 0.217255 0 -0.0205493 
v 0.217482 0 -0.020058 
v 0.224926 0 -0.0184195 
v 0.220303 0 -0.0176617 
v 0.220825 0 -0.0175169 
v 0.218462 0 -0.01877 
v 0.217762 0 -0.0195941 
v 0.223497 0 -0.0176617 
v 0.219801 0 -0.0178621 
v 0.218089 0 -0.0191631 
v 0.2787 0 -0.0405431 
v 0.224926 0 -0.0263805 
v 0.224478 0 -0.0266843 
v 0.226038 0 -0.0195941 
v 0.226318 0 -0.020058 
v 0.225338 0 -0.01877 
v 0.225711 0 -0.0191631 
v 0.1907 0 -0.0405431 
v 0.220825 0 -0.0272831 
v 0.220303 0 -0.0271383 
v 0.222441 0 -0.0273707 
v 0.223497 0 -0.0271383 
v 0.222975 0 -0.0272831 
v 0.225338 0 -0.02603 
v 0.219801 0 -0.0269379 
v 0.219322 0 -0.0266843 
v 0.221359 0 -0.0273707 
v 0.223999 0 -0.0269379 
v 0.226038 0 -0.0252059 
v 0.225711 0 -0.0256369 
v 0.226545 0 -0.0242507 
v 0.226318 0 -0.024742 
v 0.216966 0 -0.0215911 
v 0.217082 0 -0.0210624 
v 0.216907 0 -0.0226707 
v 0.216907 0 -0.0221293 
v 0.217762 0 -0.0252059 
v 0.217482 0 -0.024742 
v 0.218462 0 -0.02603 
v 0.218089 0 -0.0256369 
v 0.218874 0 -0.0263805 
v 0.2219 0 -0.0274 
v 0.226834 0 -0.0215911 
v 0.226893 0 -0.0221293 
v 0.226545 0 -0.0205493 
v 0.226718 0 -0.0210624 
v 0.216966 0 -0.0232089 
v 0.226834 0 -0.0232089 
v 0.226718 0 -0.0237376 
v 0.217255 0 -0.0242507 
v 0.217082 0 -0.0237376 
v 0.226893 0 -0.0226707 
v 0.015 0 0.003 
v 0.015 0 6.90316e-21 
vn 0 -1 0 
vn 0 -1 0 
vn 0 -1 0 
vn 0 -1 0 
vn 0 -1 0 
vn 0 -1 0 
vn 0 -1 0 
vn 0 -1 0 
vn 0 -1 0 
vn 0 -1 0 
vn 0 -1 0 
vn 0 -1 0 
vn 0 -1 0 
vn 0 -1 0 
vn 0 -1 0 
vn 0 -1 0 
vn 0 -1 0 
vn 0 -1 0 
vn 0 -1 0 
vn 0 -1 0 
vn 0 -1 0 
vn 0 -1 0 
vn 0 -1 0 
vn 0 -1 0 
vn 0 -1 0 
vn 0 -1 0 
vn 0 -1 0 
vn 0 -1 0 
vn 0 -1 0 
vn 0 -1 0 
vn 0 -1 0 
vn 0 -1 0 
vn 0 -1 0 
vn 0 -1 0 
vn 0 -1 0 
vn 0 -1 0 
vn 0 -1 0 
vn 0 -1 0 
vn 0 -1 0 
vn 0 -1 0 
vn 0 -1 0 
vn 0 -1 0 
vn 0 -1 0 
vn 0 -1 0 
vn 0 -1 0 
vn 0 -1 0 
vn 0 -1 0 
vn 0 -1 0 
vn 0 -1 0 
vn 0 -1 0 
vn 0 -1 0 
vn 0 -1 0 
vn 0 -1 0 
vn 0 -1 0 
vn 0 -1 0 
vn 0 -1 0 
vn 0 -1 0 
vn 0 -1 0 
vn 0 -1 0 
vn 0 -1 0 
vn 0 -1 0 
vn 0 -1 0 
vn 0 -1 0 
vn 0 -1 0 
f 626//626 627//627 628//628 
f 629//629 630//630 631//631 
f 629//629 628//628 632//632 
f 626//626 633//633 627//627 
f 626//626 634//634 635//635 
f 626//626 636//636 637//637 
f 631//631 638//638 629//629 
f 628//628 629//629 626//626 
f 626//626 639//639 640//640 
f 626//626 641//641 634//634 
f 637//637 642//642 626//626 
f 629//629 643//643 630//630 
f 640//640 633//633 626//626 
f 635//635 644//644 626//626 
f 642//642 645//645 626//626 
f 646//646 647//647 648//648 
f 629//629 649//649 650//650 
f 629//629 651//651 652//652 
f 632//632 643//643 629//629 
f 645//645 641//641 626//626 
f 653//653 654//654 655//655 
f 653//653 646//646 656//656 
f 646//646 657//657 658//658 
f 646//646 659//659 647//647 
f 652//652 649//649 629//629 
f 644//644 639//639 626//626 
f 653//653 660//660 661//661 
f 653//653 662//662 654//654 
f 658//658 656//656 646//646 
f 648//648 663//663 646//646 
f 646//646 664//664 665//665 
f 646//646 666//666 667//667 
f 638//638 651//651 629//629 
f 626//626 668//668 669//669 
f 653//653 670//670 671//671 
f 653//653 672//672 673//673 
f 653//653 674//674 675//675 
f 661//661 676//676 653//653 
f 653//653 677//677 662//662 
f 663//663 657//657 646//646 
f 667//667 664//664 646//646 
f 629//629 678//678 679//679 
f 629//629 680//680 681//681 
f 669//669 636//636 626//626 
f 653//653 682//682 670//670 
f 675//675 672//672 653//653 
f 655//655 660//660 653//653 
f 665//665 659//659 646//646 
f 646//646 683//683 684//684 
f 679//679 646//646 629//629 
f 650//650 680//680 629//629 
f 671//671 626//626 653//653 
f 653//653 685//685 686//686 
f 676//676 674//674 653//653 
f 684//684 666//666 646//646 
f 679//679 687//687 646//646 
f 671//671 668//668 626//626 
f 673//673 685//685 653//653 
f 687//687 683//683 646//646 
f 686//686 682//682 653//653 
f 681//681 678//678 629//629 
f 688//688 689//689 626//626 
f 626//626 629//629 688//688 
f 656//656 677//677 653//653 
o mesh1168
v 0.1907 0 8.77621e-20 
v 0.1907 0.117779 8.77621e-20 
v 0.1907 0.0475567 -0.0405431 
v 0.1907 0 -0.0405431 
vn -1 0 0 
vn -1 0 0 
vn -1 0 0 
vn -1 0 0 
f 690//690 691//691 692//692 
f 692//692 693//693 690//690 
o mesh1169
v 0.00889895 0.00129682 6.90316e-21 
v 0.00200962 0.0075 6.90316e-21 
v 0.00129682 0.00889895 6.90316e-21 
v 0.000734152 0.0103647 6.90316e-21 
v 0.00385283 0.00496304 6.90316e-21 
v 0.00286475 0.00618322 6.90316e-21 
v 0.000327786 0.0118813 6.90316e-21 
v 0.00496304 0.00385283 6.90316e-21 
v 0.0075 0.00200962 6.90316e-21 
v 0.00618322 0.00286475 6.90316e-21 
v 0 0.015 0 
v 0.0118813 0.000327786 6.90316e-21 
v 0.0103647 0.000734152 6.90316e-21 
v 8.21716e-05 0.0134321 6.90316e-21 
v 0.0134321 8.21716e-05 6.90316e-21 
v 0.015 0 6.90316e-21 
v 0.1907 0.117779 8.77621e-20 
v 0.1907 0 8.77621e-20 
v 0 0.117779 -1.38778e-17 
vn 4.6021e-19 0 -1 
vn 4.6021e-19 0 -1 
vn 4.6021e-19 0 -1 
vn 4.6021e-19 0 -1 
vn 4.6021e-19 0 -1 
vn 4.6021e-19 0 -1 
vn 4.6021e-19 0 -1 
vn 4.6021e-19 0 -1 
vn 4.6021e-19 0 -1 
vn 4.6021e-19 0 -1 
vn 4.6021e-19 0 -1 
vn 4.6021e-19 0 -1 
vn 4.6021e-19 0 -1 
vn 4.6021e-19 0 -1 
vn 4.6021e-19 0 -1 
vn 4.6021e-19 0 -1 
vn 4.6021e-19 0 -1 
vn 4.6021e-19 0 -1 
vn 4.6021e-19 0 -1 
f 694//694 695//695 696//696 
f 696//696 697//697 694//694 
f 694//694 698//698 699//699 
f 697//697 700//700 694//694 
f 694//694 701//701 698//698 
f 694//694 702//702 703//703 
f 704//704 705//705 706//706 
f 700//700 707//707 694//694 
f 703//703 701//701 694//694 
f 704//704 708//708 705//705 
f 699//699 695//695 694//694 
f 704//704 709//709 708//708 
f 706//706 694//694 704//704 
f 707//707 704//704 694//694 
f 710//710 711//711 709//709 
f 709//709 712//712 710//710 
f 704//704 712//712 709//709 
o mesh1170
v 0.003 0.122976 0.003 
v 0.2907 0.122976 0.003 
v 0.1907 0.117779 8.77621e-20 
v 0 0.158081 0.0232679 
v 0.003 0.158081 0.0232679 
v 0 0.117779 -1.38778e-17 
v 0.2937 0.0475567 -0.0405431 
v 0.1907 0.0475567 -0.0405431 
v 0.2937 0.158081 0.0232679 
v 0.2907 0.158081 0.0232679 
vn 0 0.5 -0.866025 
vn 0 0.5 -0.866025 
vn 0 0.5 -0.866025 
vn 0 0.5 -0.866025 
vn 0 0.5 -0.866025 
vn 0 0.5 -0.866025 
vn 0 0.5 -0.866025 
vn 0 0.5 -0.866025 
vn 0 0.5 -0.866025 
vn 0 0.5 -0.866025 
f 713//713 714//714 715//715 
f 716//716 717//717 713//713 
f 713//713 718//718 716//716 
f 719//719 720//720 715//715 
f 721//721 719//719 714//714 
f 715//715 714//714 719//719 
f 715//715 718//718 713//713 
f 714//714 722//722 721//721 
o mesh1171
v 0 0.015 0.027 
v 0 0.015 0 
v 8.21716e-05 0.0134321 6.90316e-21 
v 8.21716e-05 0.0134321 0.027 
v 0.000327786 0.0118813 6.90316e-21 
v 0.000327786 0.0118813 0.027 
v 0.000734152 0.0103647 6.90316e-21 
v 0.000734152 0.0103647 0.027 
v 0.00129682 0.00889895 6.90316e-21 
v 0.00129682 0.00889895 0.027 
v 0.00200962 0.0075 6.90316e-21 
v 0.00200962 0.0075 0.027 
v 0.00286475 0.00618322 6.90316e-21 
v 0.0134321 8.21716e-05 0.003 
v 0.0134321 8.21716e-05 6.90316e-21 
v 0.015 0 6.90316e-21 
v 0.0118813 0.000327786 0.003 
v 0.0118813 0.000327786 6.90316e-21 
v 0.0103647 0.000734152 0.003 
v 0.0103647 0.000734152 6.90316e-21 
v 0.00889895 0.00129682 0.003 
v 0.00889895 0.00129682 6.90316e-21 
v 0.0075 0.00200962 0.003 
v 0.0075 0.00200962 6.90316e-21 
v 0.00618322 0.00286475 0.003 
v 0.00618322 0.00286475 6.90316e-21 
v 0.00496304 0.00385283 0.003 
v 0.00496304 0.00385283 6.90316e-21 
v 0.00385283 0.00496304 0.003 
v 0.00385283 0.00496304 6.90316e-21 
v 0.00286475 0.00618322 0.027 
v 0.003 0.006 0.003 
v 0.003 0.006 0.027 
v 0.015 0 0.003 
vn -1 1.22465e-16 0 
vn -1 1.22465e-16 0 
vn -0.994522 -0.104528 0 
vn -0.994522 -0.104528 0 
vn -0.978148 -0.207912 0 
vn -0.978148 -0.207912 0 
vn -0.951057 -0.309017 0 
vn -0.951057 -0.309017 0 
vn -0.913545 -0.406737 0 
vn -0.913545 -0.406737 0 
vn -0.866025 -0.5 0 
vn -0.866025 -0.5 0 
vn -0.809017 -0.587785 0 
vn -0.104528 -0.994522 0 
vn -0.104528 -0.994522 0 
vn -1.83697e-16 -1 0 
vn -0.207912 -0.978148 0 
vn -0.207912 -0.978148 0 
vn -0.309017 -0.951057 0 
vn -0.309017 -0.951057 0 
vn -0.406737 -0.913545 0 
vn -0.406737 -0.913545 0 
vn -0.5 -0.866025 0 
vn -0.5 -0.866025 0 
vn -0.587785 -0.809017 0 
vn -0.587785 -0.809017 0 
vn -0.669131 -0.743145 0 
vn -0.669131 -0.743145 0 
vn -0.743145 -0.669131 0 
vn -0.743145 -0.669131 0 
vn -0.809017 -0.587785 0 
vn -0.8 -0.6 0 
vn -0.8 -0.6 0 
vn -1.83697e-16 -1 0 
f 723//723 724//724 725//725 
f 726//726 725//725 727//727 
f 728//728 727//727 729//729 
f 730//730 729//729 731//731 
f 732//732 731//731 733//733 
f 734//734 733//733 735//735 
f 736//736 737//737 738//738 
f 739//739 740//740 737//737 
f 741//741 742//742 740//740 
f 743//743 744//744 742//742 
f 745//745 746//746 744//744 
f 747//747 748//748 746//746 
f 749//749 750//750 748//748 
f 751//751 752//752 750//750 
f 753//753 735//735 754//754 
f 752//752 751//751 754//754 
f 754//754 735//735 752//752 
f 754//754 755//755 753//753 
f 750//750 749//749 751//751 
f 748//748 747//747 749//749 
f 746//746 745//745 747//747 
f 744//744 743//743 745//745 
f 742//742 741//741 743//743 
f 740//740 739//739 741//741 
f 737//737 736//736 739//739 
f 738//738 756//756 736//736 
f 735//735 753//753 734//734 
f 733//733 734//734 732//732 
f 731//731 732//732 730//730 
f 729//729 730//730 728//728 
f 727//727 728//728 726//726 
f 725//725 726//726 723//723 
o mesh1172
v 0.00286475 0.00618322 0.027 
v 0 0.015 0.027 
v 8.21716e-05 0.0134321 0.027 
v 0.000734152 0.0103647 0.027 
v 0.00129682 0.00889895 0.027 
v 0.00200962 0.0075 0.027 
v 0.000327786 0.0118813 0.027 
v 0.003 0.157081 0.027 
v 0 0.157081 0.027 
v 0.003 0.006 0.027 
vn 0 0 1 
vn 0 0 1 
vn 0 0 1 
vn 0 0 1 
vn 0 0 1 
vn 0 0 1 
vn 0 0 1 
vn 0 0 1 
vn 0 0 1 
vn 0 0 1 
f 757//757 758//758 759//759 
f 760//760 761//761 762//762 
f 759//759 763//763 757//757 
f 763//763 760//760 757//757 
f 762//762 757//757 760//760 
f 764//764 765//765 758//758 
f 758//758 766//766 764//764 
f 757//757 766//766 758//758 
o mesh1173
v 0 0.157081 0.027 
v 0.003 0.157081 0.027 
v 0.003 0.15729 0.026989 
v 0 0.15729 0.026989 
v 0.003 0.157497 0.0269563 
v 0 0.157497 0.0269563 
v 0.003 0.157699 0.0269021 
v 0 0.157699 0.0269021 
v 0.003 0.157894 0.0268271 
v 0 0.157894 0.0268271 
v 0.003 0.158081 0.0267321 
v 0 0.158081 0.0267321 
v 0.003 0.158256 0.026618 
v 0 0.158256 0.026618 
v 0.003 0.158419 0.0264863 
v 0 0.158419 0.0264863 
v 0.003 0.158567 0.0263383 
v 0 0.158567 0.0263383 
v 0.003 0.158699 0.0261756 
v 0 0.158699 0.0261756 
v 0.003 0.158813 0.026 
v 0 0.158813 0.026 
v 0.003 0.158908 0.0258135 
v 0 0.158908 0.0258135 
v 0.003 0.158983 0.025618 
v 0 0.158983 0.025618 
v 0.003 0.159037 0.0254158 
v 0 0.159037 0.0254158 
v 0.003 0.15907 0.0252091 
v 0 0.15907 0.0252091 
v 0.003 0.159081 0.025 
v 0 0.159081 0.025 
v 0.003 0.15907 0.0247909 
v 0 0.15907 0.0247909 
v 0.003 0.159037 0.0245842 
v 0 0.159037 0.0245842 
v 0.003 0.158983 0.024382 
v 0 0.158983 0.024382 
v 0.003 0.158908 0.0241865 
v 0 0.158908 0.0241865 
v 0.003 0.158813 0.024 
v 0 0.158813 0.024 
v 0.003 0.158699 0.0238244 
v 0 0.158699 0.0238244 
v 0.003 0.158567 0.0236617 
v 0 0.158567 0.0236617 
v 0.003 0.158419 0.0235137 
v 0 0.158419 0.0235137 
v 0.003 0.158256 0.023382 
v 0 0.158256 0.023382 
v 0.003 0.158081 0.0232679 
v 0 0.158081 0.0232679 
vn 0 0 1 
vn 0 0 1 
vn 0 0.104528 0.994522 
vn 0 0.104528 0.994522 
vn 0 0.207912 0.978148 
vn 0 0.207912 0.978148 
vn 0 0.309017 0.951057 
vn 0 0.309017 0.951057 
vn 0 0.406737 0.913545 
vn 0 0.406737 0.913545 
vn 0 0.5 0.866025 
vn 0 0.5 0.866025 
vn 0 0.587785 0.809017 
vn 0 0.587785 0.809017 
vn 0 0.669131 0.743145 
vn 0 0.669131 0.743145 
vn 0 0.743145 0.669131 
vn 0 0.743145 0.669131 
vn 0 0.809017 0.587785 
vn 0 0.809017 0.587785 
vn 0 0.866025 0.5 
vn 0 0.866025 0.5 
vn 0 0.913545 0.406737 
vn 0 0.913545 0.406737 
vn 0 0.951057 0.309017 
vn 0 0.951057 0.309017 
vn 0 0.978148 0.207912 
vn 0 0.978148 0.207912 
vn 0 0.994522 0.104528 
vn 0 0.994522 0.104528 
vn 0 1 6.12323e-17 
vn 0 1 6.12323e-17 
vn 0 0.994522 -0.104528 
vn 0 0.994522 -0.104528 
vn 0 0.978148 -0.207912 
vn 0 0.978148 -0.207912 
vn 0 0.951057 -0.309017 
vn 0 0.951057 -0.309017 
vn 0 0.913545 -0.406737 
vn 0 0.913545 -0.406737 
vn 0 0.866025 -0.5 
vn 0 0.866025 -0.5 
vn 0 0.809017 -0.587785 
vn 0 0.809017 -0.587785 
vn 0 0.743145 -0.669131 
vn 0 0.743145 -0.669131 
vn 0 0.669131 -0.743145 
vn 0 0.669131 -0.743145 
vn 0 0.587785 -0.809017 
vn 0 0.587785 -0.809017 
vn 0 0.5 -0.866025 
vn 0 0.5 -0.866025 
f 767//767 768//768 769//769 
f 770//770 769//769 771//771 
f 772//772 771//771 773//773 
f 774//774 773//773 775//775 
f 776//776 775//775 777//777 
f 778//778 777//777 779//779 
f 780//780 779//779 781//781 
f 782//782 781//781 783//783 
f 784//784 783//783 785//785 
f 786//786 785//785 787//787 
f 788//788 787//787 789//789 
f 790//790 789//789 791//791 
f 792//792 791//791 793//793 
f 794//794 793//793 795//795 
f 796//796 795//795 797//797 
f 798//798 797//797 799//799 
f 800//800 799//799 801//801 
f 802//802 801//801 803//803 
f 804//804 803//803 805//805 
f 806//806 805//805 807//807 
f 808//808 807//807 809//809 
f 810//810 809//809 811//811 
f 812//812 811//811 813//813 
f 814//814 813//813 815//815 
f 816//816 815//815 817//817 
f 817//817 818//818 816//816 
f 815//815 816//816 814//814 
f 813//813 814//814 812//812 
f 811//811 812//812 810//810 
f 809//809 810//810 808//808 
f 807//807 808//808 806//806 
f 805//805 806//806 804//804 
f 803//803 804//804 802//802 
f 801//801 802//802 800//800 
f 799//799 800//800 798//798 
f 797//797 798//798 796//796 
f 795//795 796//796 794//794 
f 793//793 794//794 792//792 
f 791//791 792//792 790//790 
f 789//789 790//790 788//788 
f 787//787 788//788 786//786 
f 785//785 786//786 784//784 
f 783//783 784//784 782//782 
f 781//781 782//782 780//780 
f 779//779 780//780 778//778 
f 777//777 778//778 776//776 
f 775//775 776//776 774//774 
f 773//773 774//774 772//772 
f 771//771 772//772 770//770 
f 769//769 770//770 767//767 
o mesh1174
v -5.53236e-18 0.130059 0.0209015 
v 0 0.158813 0.024 
v 0 0.158699 0.0238244 
v 0 0.158567 0.0236617 
v 0 0.158567 0.0263383 
v 0 0.158699 0.0261756 
v 0 0.158419 0.0235137 
v 0 0.158983 0.024382 
v 0 0.158908 0.0241865 
v 0 0.159081 0.025 
v 0 0.15907 0.0247909 
v 0 0.159037 0.0254158 
v 0 0.15907 0.0252091 
v 0 0.117779 -1.38778e-17 
v -5.53236e-18 0.127 0.0173 
v -5.53236e-18 0.127335 0.0173182 
v 0 0.158419 0.0264863 
v 0 0.158081 0.0267321 
v 0 0.158256 0.026618 
v 0 0.15729 0.026989 
v 0 0.157497 0.0269563 
v -5.53236e-18 0.129987 0.0212293 
v 0 0.157081 0.027 
v 0 0.158256 0.023382 
v 0 0.158081 0.0232679 
v 0 0.159037 0.0245842 
v 0 0.158983 0.025618 
v -5.53236e-18 0.129739 0.0189479 
v -5.53236e-18 0.12988 0.0192526 
v -5.53236e-18 0.127666 0.0173725 
v 0 0.158813 0.026 
v 0 0.158908 0.0258135 
v 0 0.157699 0.0269021 
v 0 0.157894 0.0268271 
v -5.53236e-18 0.130095 0.0202322 
v -5.53236e-18 0.1301 0.0204 
v -5.53236e-18 0.129566 0.0186603 
v -5.53236e-18 0.129132 0.0181494 
v -5.53236e-18 0.129363 0.0183931 
v -5.53236e-18 0.128598 0.0177437 
v -5.53236e-18 0.128876 0.0179321 
v -5.53236e-18 0.12799 0.0174623 
v -5.53236e-18 0.127666 0.0234275 
v -5.53236e-18 0.127335 0.0234818 
v -5.53236e-18 0.128302 0.0232135 
v -5.53236e-18 0.12799 0.0233377 
v -5.53236e-18 0.129132 0.0226506 
v -5.53236e-18 0.128876 0.0228679 
v -5.53236e-18 0.12988 0.0215474 
v -5.53236e-18 0.130059 0.0198985 
v -5.53236e-18 0.128302 0.0175865 
v -5.53236e-18 0.126334 0.0173725 
v -5.53236e-18 0.126665 0.0173182 
v -5.53236e-18 0.125698 0.0175865 
v -5.53236e-18 0.12601 0.0174623 
v -5.53236e-18 0.125124 0.0179321 
v -5.53236e-18 0.125402 0.0177437 
v 0 0.015 0.027 
v -5.53236e-18 0.127 0.0235 
v -5.53236e-18 0.128598 0.0230563 
v -5.53236e-18 0.129566 0.0221397 
v -5.53236e-18 0.129363 0.0224069 
v -5.53236e-18 0.129739 0.0218521 
v -5.53236e-18 0.130095 0.0205678 
v -5.53236e-18 0.124434 0.0186603 
v -5.53236e-18 0.124637 0.0183931 
v 0 0.015 0 
v -5.53236e-18 0.124261 0.0189479 
v -5.53236e-18 0.123941 0.0198985 
v -5.53236e-18 0.124013 0.0195707 
v -5.53236e-18 0.125124 0.0228679 
v -5.53236e-18 0.124868 0.0226506 
v -5.53236e-18 0.126334 0.0234275 
v -5.53236e-18 0.12601 0.0233377 
v -5.53236e-18 0.126665 0.0234818 
v -5.53236e-18 0.124868 0.0181494 
v -5.53236e-18 0.12412 0.0192526 
v -5.53236e-18 0.123905 0.0205678 
v -5.53236e-18 0.123905 0.0202322 
v -5.53236e-18 0.12412 0.0215474 
v -5.53236e-18 0.124013 0.0212293 
v -5.53236e-18 0.124434 0.0221397 
v -5.53236e-18 0.124261 0.0218521 
v -5.53236e-18 0.124637 0.0224069 
v -5.53236e-18 0.125698 0.0232135 
v -5.53236e-18 0.125402 0.0230563 
v -5.53236e-18 0.129987 0.0195707 
v -5.53236e-18 0.123941 0.0209015 
vn -1 0 0 
vn -1 0 0 
vn -1 0 0 
vn -1 0 0 
vn -1 0 0 
vn -1 0 0 
vn -1 0 0 
vn -1 0 0 
vn -1 0 0 
vn -1 0 0 
vn -1 0 0 
vn -1 0 0 
vn -1 0 0 
vn -1 0 0 
vn -1 0 0 
vn -1 0 0 
vn -1 0 0 
vn -1 0 0 
vn -1 0 0 
vn -1 0 0 
vn -1 0 0 
vn -1 0 0 
vn -1 0 0 
vn -1 0 0 
vn -1 0 0 
vn -1 0 0 
vn -1 0 0 
vn -1 0 0 
vn -1 0 0 
vn -1 0 0 
vn -1 0 0 
vn -1 0 0 
vn -1 0 0 
vn -1 0 0 
vn -1 0 0 
vn -1 0 0 
vn -1 0 0 
vn -1 0 0 
vn -1 0 0 
vn -1 0 0 
vn -1 0 0 
vn -1 0 0 
vn -1 0 0 
vn -1 0 0 
vn -1 0 0 
vn -1 0 0 
vn -1 0 0 
vn -1 0 0 
vn -1 0 0 
vn -1 0 0 
vn -1 0 0 
vn -1 0 0 
vn -1 0 0 
vn -1 0 0 
vn -1 0 0 
vn -1 0 0 
vn -1 0 0 
vn -1 0 0 
vn -1 0 0 
vn -1 0 0 
vn -1 0 0 
vn -1 0 0 
vn -1 0 0 
vn -1 0 0 
vn -1 0 0 
vn -1 0 0 
vn -1 0 0 
vn -1 0 0 
vn -1 0 0 
vn -1 0 0 
vn -1 0 0 
vn -1 0 0 
vn -1 0 0 
vn -1 0 0 
vn -1 0 0 
vn -1 0 0 
vn -1 0 0 
vn -1 0 0 
vn -1 0 0 
vn -1 0 0 
vn -1 0 0 
vn -1 0 0 
vn -1 0 0 
vn -1 0 0 
vn -1 0 0 
vn -1 0 0 
vn -1 0 0 
vn -1 0 0 
f 819//819 820//820 821//821 
f 821//821 822//822 819//819 
f 819//819 823//823 824//824 
f 822//822 825//825 819//819 
f 819//819 826//826 827//827 
f 819//819 828//828 829//829 
f 819//819 830//830 831//831 
f 832//832 833//833 834//834 
f 819//819 835//835 823//823 
f 819//819 836//836 837//837 
f 819//819 838//838 839//839 
f 819//819 840//840 841//841 
f 819//819 842//842 843//843 
f 827//827 820//820 819//819 
f 829//829 844//844 819//819 
f 819//819 845//845 830//830 
f 843//843 846//846 847//847 
f 834//834 848//848 832//832 
f 819//819 849//849 850//850 
f 837//837 835//835 819//819 
f 819//819 851//851 852//852 
f 841//841 838//838 819//819 
f 825//825 842//842 819//819 
f 831//831 828//828 819//819 
f 843//843 853//853 854//854 
f 843//843 855//855 846//846 
f 843//843 856//856 857//857 
f 832//832 858//858 859//859 
f 848//848 860//860 832//832 
f 841//841 861//861 862//862 
f 841//841 863//863 864//864 
f 841//841 865//865 866//866 
f 841//841 840//840 867//867 
f 824//824 849//849 819//819 
f 839//839 851//851 819//819 
f 844//844 826//826 819//819 
f 843//843 868//868 853//853 
f 857//857 855//855 843//843 
f 859//859 843//843 832//832 
f 860//860 869//869 832//832 
f 832//832 870//870 871//871 
f 832//832 872//872 873//873 
f 832//832 874//874 875//875 
f 876//876 841//841 877//877 
f 864//864 861//861 841//841 
f 866//866 878//878 841//841 
f 841//841 879//879 880//880 
f 867//867 881//881 841//841 
f 852//852 836//836 819//819 
f 854//854 882//882 843//843 
f 859//859 856//856 843//843 
f 871//871 833//833 832//832 
f 875//875 872//872 832//832 
f 832//832 883//883 884//884 
f 885//885 886//886 883//883 
f 885//885 887//887 888//888 
f 876//876 889//889 890//890 
f 876//876 891//891 892//892 
f 877//877 893//893 876//876 
f 878//878 863//863 841//841 
f 881//881 879//879 841//841 
f 843//843 882//882 819//819 
f 869//869 858//858 832//832 
f 832//832 894//894 874//874 
f 883//883 832//832 885//885 
f 888//888 895//895 885//885 
f 876//876 896//896 897//897 
f 876//876 898//898 899//899 
f 876//876 900//900 901//901 
f 890//890 902//902 876//876 
f 876//876 903//903 904//904 
f 893//893 891//891 876//876 
f 880//880 865//865 841//841 
f 843//843 905//905 868//868 
f 873//873 870//870 832//832 
f 895//895 886//886 885//885 
f 897//897 885//885 876//876 
f 899//899 906//906 876//876 
f 902//902 900//900 876//876 
f 892//892 903//903 876//876 
f 850//850 845//845 819//819 
f 884//884 894//894 832//832 
f 906//906 896//896 876//876 
f 904//904 889//889 876//876 
f 847//847 905//905 843//843 
f 901//901 898//898 876//876 
f 897//897 887//887 885//885 
f 862//862 877//877 841//841 
o mesh1175
v 0.003 0.158256 0.023382 
v 0.003 0.159081 0.025 
v 0.003 0.15907 0.0252091 
v 0.003 0.159037 0.0245842 
v 0.003 0.15907 0.0247909 
v 0.003 0.158567 0.0236617 
v 0.003 0.158813 0.024 
v 0.003 0.158908 0.0241865 
v 0.003 0.13302 0.0213869 
v 0.003 0.158081 0.0267321 
v 0.003 0.157894 0.0268271 
v 0.003 0.158419 0.0264863 
v 0.003 0.158256 0.026618 
v 0.003 0.159037 0.0254158 
v 0.003 0.158983 0.024382 
v 0.003 0.158699 0.0238244 
v 0.003 0.158419 0.0235137 
v 0.003 0.15729 0.026989 
v 0.003 0.157081 0.027 
v 0.003 0.158813 0.026 
v 0.003 0.158699 0.0261756 
v 0.003 0.158983 0.025618 
v 0.003 0.158908 0.0258135 
v 0.003 0.133091 0.0207302 
v 0.003 0.158081 0.0232679 
v 0.003 0.157497 0.0269563 
v 0.003 0.158567 0.0263383 
v 0.003 0.006 0.027 
v 0.003 0.006 0.003 
v 0.003 0.120909 0.0200698 
v 0.003 0.157699 0.0269021 
v 0.003 0.1209 0.0204 
v 0.003 0.12098 0.0194131 
v 0.003 0.132878 0.0220319 
v 0.003 0.120909 0.0207302 
v 0.003 0.122976 0.003 
v 0.003 0.127 0.0143 
v 0.003 0.12634 0.0143358 
v 0.003 0.132667 0.0226578 
v 0.003 0.132049 0.0238232 
v 0.003 0.132389 0.0232573 
v 0.003 0.128948 0.0261807 
v 0.003 0.129561 0.0259362 
v 0.003 0.12634 0.0264642 
v 0.003 0.127 0.0265 
v 0.003 0.124439 0.0259362 
v 0.003 0.125052 0.0261807 
v 0.003 0.12098 0.0213869 
v 0.003 0.121122 0.0220319 
v 0.003 0.121122 0.0187681 
v 0.003 0.123308 0.0155438 
v 0.003 0.122805 0.0159714 
v 0.003 0.125689 0.0144426 
v 0.003 0.130145 0.0256268 
v 0.003 0.130692 0.0252562 
v 0.003 0.128311 0.0263574 
v 0.003 0.12766 0.0264642 
v 0.003 0.125689 0.0263574 
v 0.003 0.123855 0.0256268 
v 0.003 0.121611 0.0175427 
v 0.003 0.121333 0.0181422 
v 0.003 0.122351 0.0164509 
v 0.003 0.121951 0.0169768 
v 0.003 0.124439 0.0148638 
v 0.003 0.123855 0.0151732 
v 0.003 0.125052 0.0146193 
v 0.003 0.133091 0.0200698 
v 0.003 0.13302 0.0194131 
v 0.003 0.131649 0.0243491 
v 0.003 0.131195 0.0248286 
v 0.003 0.121333 0.0226578 
v 0.003 0.121611 0.0232573 
v 0.003 0.128311 0.0144426 
v 0.003 0.12766 0.0143358 
v 0.003 0.122805 0.0248286 
v 0.003 0.123308 0.0252562 
v 0.003 0.121951 0.0238232 
v 0.003 0.122351 0.0243491 
v 0.003 0.128948 0.0146193 
v 0.003 0.130145 0.0151732 
v 0.003 0.129561 0.0148638 
v 0.003 0.130692 0.0155438 
v 0.003 0.132667 0.0181422 
v 0.003 0.132389 0.0175427 
v 0.003 0.132878 0.0187681 
v 0.003 0.131195 0.0159714 
v 0.003 0.131649 0.0164509 
v 0.003 0.132049 0.0169768 
vn 1 1.28932e-16 0 
vn 1 1.28932e-16 0 
vn 1 1.28932e-16 0 
vn 1 1.28932e-16 0 
vn 1 1.28932e-16 0 
vn 1 1.28932e-16 0 
vn 1 1.28932e-16 0 
vn 1 1.28932e-16 0 
vn 1 1.28932e-16 0 
vn 1 1.28932e-16 0 
vn 1 1.28932e-16 0 
vn 1 1.28932e-16 0 
vn 1 1.28932e-16 0 
vn 1 1.28932e-16 0 
vn 1 1.28932e-16 0 
vn 1 1.28932e-16 0 
vn 1 1.28932e-16 0 
vn 1 1.28932e-16 0 
vn 1 1.28932e-16 0 
vn 1 1.28932e-16 0 
vn 1 1.28932e-16 0 
vn 1 1.28932e-16 0 
vn 1 1.28932e-16 0 
vn 1 1.28932e-16 0 
vn 1 1.28932e-16 0 
vn 1 1.28932e-16 0 
vn 1 1.28932e-16 0 
vn 1 1.28932e-16 0 
vn 1 1.28932e-16 0 
vn 1 1.28932e-16 0 
vn 1 1.28932e-16 0 
vn 1 1.28932e-16 0 
vn 1 1.28932e-16 0 
vn 1 1.28932e-16 0 
vn 1 1.28932e-16 0 
vn 1 1.28932e-16 0 
vn 1 1.28932e-16 0 
vn 1 1.28932e-16 0 
vn 1 1.28932e-16 0 
vn 1 1.28932e-16 0 
vn 1 1.28932e-16 0 
vn 1 1.28932e-16 0 
vn 1 1.28932e-16 0 
vn 1 1.28932e-16 0 
vn 1 1.28932e-16 0 
vn 1 1.28932e-16 0 
vn 1 1.28932e-16 0 
vn 1 1.28932e-16 0 
vn 1 1.28932e-16 0 
vn 1 1.28932e-16 0 
vn 1 1.28932e-16 0 
vn 1 1.28932e-16 0 
vn 1 1.28932e-16 0 
vn 1 1.28932e-16 0 
vn 1 1.28932e-16 0 
vn 1 1.28932e-16 0 
vn 1 1.28932e-16 0 
vn 1 1.28932e-16 0 
vn 1 1.28932e-16 0 
vn 1 1.28932e-16 0 
vn 1 1.28932e-16 0 
vn 1 1.28932e-16 0 
vn 1 1.28932e-16 0 
vn 1 1.28932e-16 0 
vn 1 1.28932e-16 0 
vn 1 1.28932e-16 0 
vn 1 1.28932e-16 0 
vn 1 1.28932e-16 0 
vn 1 1.28932e-16 0 
vn 1 1.28932e-16 0 
vn 1 1.28932e-16 0 
vn 1 1.28932e-16 0 
vn 1 1.28932e-16 0 
vn 1 1.28932e-16 0 
vn 1 1.28932e-16 0 
vn 1 1.28932e-16 0 
vn 1 1.28932e-16 0 
vn 1 1.28932e-16 0 
vn 1 1.28932e-16 0 
vn 1 1.28932e-16 0 
vn 1 1.28932e-16 0 
vn 1 1.28932e-16 0 
vn 1 1.28932e-16 0 
vn 1 1.28932e-16 0 
vn 1 1.28932e-16 0 
vn 1 1.28932e-16 0 
vn 1 1.28932e-16 0 
vn 1 1.28932e-16 0 
f 907//907 908//908 909//909 
f 907//907 910//910 911//911 
f 912//912 913//913 914//914 
f 915//915 916//916 917//917 
f 915//915 918//918 919//919 
f 909//909 920//920 907//907 
f 907//907 921//921 910//910 
f 912//912 922//922 913//913 
f 921//921 907//907 923//923 
f 915//915 924//924 925//925 
f 919//919 916//916 915//915 
f 915//915 926//926 927//927 
f 915//915 928//928 929//929 
f 911//911 908//908 907//907 
f 923//923 912//912 921//921 
f 915//915 930//930 931//931 
f 915//915 932//932 924//924 
f 915//915 933//933 918//918 
f 929//929 926//926 915//915 
f 934//934 935//935 936//936 
f 914//914 921//921 912//912 
f 931//931 928//928 915//915 
f 915//915 937//937 932//932 
f 927//927 933//933 915//915 
f 936//936 938//938 934//934 
f 931//931 907//907 928//928 
f 917//917 937//937 915//915 
f 935//935 939//939 936//936 
f 925//925 940//940 915//915 
f 938//938 941//941 934//934 
f 942//942 943//943 944//944 
f 925//925 945//945 940//940 
f 925//925 946//946 947//947 
f 925//925 948//948 949//949 
f 934//934 950//950 951//951 
f 934//934 952//952 953//953 
f 934//934 954//954 955//955 
f 935//935 956//956 939//939 
f 942//942 957//957 958//958 
f 944//944 959//959 942//942 
f 947//947 945//945 925//925 
f 925//925 960//960 961//961 
f 925//925 962//962 948//948 
f 925//925 951//951 963//963 
f 934//934 964//964 950//950 
f 934//934 965//965 952//952 
f 941//941 954//954 934//934 
f 935//935 966//966 967//967 
f 935//935 968//968 969//969 
f 958//958 935//935 942//942 
f 942//942 970//970 971//971 
f 959//959 972//972 942//942 
f 931//931 973//973 974//974 
f 925//925 975//975 946//946 
f 961//961 976//976 925//925 
f 963//963 962//962 925//925 
f 953//953 964//964 934//934 
f 934//934 977//977 978//978 
f 967//967 956//956 935//935 
f 958//958 968//968 935//935 
f 972//972 970//970 942//942 
f 942//942 979//979 980//980 
f 931//931 930//930 973//973 
f 976//976 975//975 925//925 
f 951//951 925//925 934//934 
f 934//934 981//981 982//982 
f 934//934 983//983 984//984 
f 955//955 977//977 934//934 
f 971//971 957//957 942//942 
f 942//942 985//985 979//979 
f 942//942 986//986 987//987 
f 942//942 931//931 988//988 
f 931//931 989//989 990//990 
f 974//974 991//991 931//931 
f 949//949 960//960 925//925 
f 984//984 981//981 934//934 
f 969//969 966//966 935//935 
f 987//987 985//985 942//942 
f 931//931 992//992 988//988 
f 991//991 989//989 931//931 
f 982//982 965//965 934//934 
f 980//980 943//943 942//942 
f 931//931 993//993 992//992 
f 990//990 994//994 931//931 
f 978//978 983//983 934//934 
f 994//994 993//993 931//931 
f 988//988 986//986 942//942 
f 920//920 928//928 907//907 
o mesh1176
v 0.003 0.127 0.0143 
v 0.003 0.12766 0.0143358 
v -5.53236e-18 0.127335 0.0173182 
v 0.003 0.128311 0.0144426 
v -5.53236e-18 0.127666 0.0173725 
v 0.003 0.128948 0.0146193 
v -5.53236e-18 0.12799 0.0174623 
v 0.003 0.129561 0.0148638 
v -5.53236e-18 0.128302 0.0175865 
v 0.003 0.130145 0.0151732 
v -5.53236e-18 0.128598 0.0177437 
v 0.003 0.130692 0.0155438 
v -5.53236e-18 0.128876 0.0179321 
v 0.003 0.131195 0.0159714 
v -5.53236e-18 0.129132 0.0181494 
v 0.003 0.131649 0.0164509 
v -5.53236e-18 0.129363 0.0183931 
v 0.003 0.132049 0.0169768 
v -5.53236e-18 0.129566 0.0186603 
v 0.003 0.132389 0.0175427 
v -5.53236e-18 0.129739 0.0189479 
v 0.003 0.132667 0.0181422 
v -5.53236e-18 0.12988 0.0192526 
v 0.003 0.132878 0.0187681 
v -5.53236e-18 0.129987 0.0195707 
v 0.003 0.13302 0.0194131 
v -5.53236e-18 0.130059 0.0198985 
v 0.003 0.133091 0.0200698 
v -5.53236e-18 0.130095 0.0202322 
v 0.003 0.133091 0.0207302 
v -5.53236e-18 0.1301 0.0204 
v -5.53236e-18 0.130095 0.0205678 
v 0.003 0.13302 0.0213869 
v -5.53236e-18 0.130059 0.0209015 
v 0.003 0.132878 0.0220319 
v -5.53236e-18 0.129987 0.0212293 
v 0.003 0.132667 0.0226578 
v -5.53236e-18 0.12988 0.0215474 
v 0.003 0.132389 0.0232573 
v -5.53236e-18 0.129739 0.0218521 
v 0.003 0.132049 0.0238232 
v -5.53236e-18 0.129566 0.0221397 
v 0.003 0.131649 0.0243491 
v -5.53236e-18 0.129363 0.0224069 
v 0.003 0.131195 0.0248286 
v -5.53236e-18 0.129132 0.0226506 
v 0.003 0.130692 0.0252562 
v -5.53236e-18 0.128876 0.0228679 
v 0.003 0.130145 0.0256268 
v -5.53236e-18 0.128598 0.0230563 
v 0.003 0.129561 0.0259362 
v -5.53236e-18 0.128302 0.0232135 
v 0.003 0.128948 0.0261807 
v -5.53236e-18 0.12799 0.0233377 
v 0.003 0.128311 0.0263574 
v -5.53236e-18 0.127666 0.0234275 
v 0.003 0.12766 0.0264642 
v -5.53236e-18 0.127335 0.0234818 
v 0.003 0.127 0.0265 
v -5.53236e-18 0.127 0.0235 
v 0.003 0.12634 0.0264642 
v -5.53236e-18 0.126665 0.0234818 
v 0.003 0.125689 0.0263574 
v -5.53236e-18 0.126334 0.0234275 
v 0.003 0.125052 0.0261807 
v -5.53236e-18 0.12601 0.0233377 
v 0.003 0.124439 0.0259362 
v -5.53236e-18 0.125698 0.0232135 
v 0.003 0.123855 0.0256268 
v -5.53236e-18 0.125402 0.0230563 
v 0.003 0.123308 0.0252562 
v -5.53236e-18 0.125124 0.0228679 
v 0.003 0.122805 0.0248286 
v -5.53236e-18 0.124868 0.0226506 
v 0.003 0.122351 0.0243491 
v -5.53236e-18 0.124637 0.0224069 
v 0.003 0.121951 0.0238232 
v -5.53236e-18 0.124434 0.0221397 
v 0.003 0.121611 0.0232573 
v -5.53236e-18 0.124261 0.0218521 
v 0.003 0.121333 0.0226578 
v -5.53236e-18 0.12412 0.0215474 
v 0.003 0.121122 0.0220319 
v -5.53236e-18 0.124013 0.0212293 
v 0.003 0.12098 0.0213869 
v -5.53236e-18 0.123941 0.0209015 
v 0.003 0.120909 0.0207302 
v -5.53236e-18 0.123905 0.0205678 
v 0.003 0.1209 0.0204 
v 0.003 0.120909 0.0200698 
v -5.53236e-18 0.123905 0.0202322 
v 0.003 0.12098 0.0194131 
v -5.53236e-18 0.123941 0.0198985 
v 0.003 0.121122 0.0187681 
v -5.53236e-18 0.124013 0.0195707 
v 0.003 0.121333 0.0181422 
v -5.53236e-18 0.12412 0.0192526 
v 0.003 0.121611 0.0175427 
v -5.53236e-18 0.124261 0.0189479 
v 0.003 0.121951 0.0169768 
v -5.53236e-18 0.124434 0.0186603 
v 0.003 0.122351 0.0164509 
v -5.53236e-18 0.124637 0.0183931 
v 0.003 0.122805 0.0159714 
v -5.53236e-18 0.124868 0.0181494 
v 0.003 0.123308 0.0155438 
v -5.53236e-18 0.125124 0.0179321 
v 0.003 0.123855 0.0151732 
v -5.53236e-18 0.125402 0.0177437 
v 0.003 0.124439 0.0148638 
v -5.53236e-18 0.125698 0.0175865 
v 0.003 0.125052 0.0146193 
v -5.53236e-18 0.12601 0.0174623 
v 0.003 0.125689 0.0144426 
v -5.53236e-18 0.126334 0.0173725 
v 0.003 0.12634 0.0143358 
v -5.53236e-18 0.126665 0.0173182 
v -5.53236e-18 0.127 0.0173 
vn 0.707107 0 0.707107 
vn 0.707107 -0.0764517 0.702962 
vn 0.707107 -0.0764517 0.702962 
vn 0.707107 -0.152007 0.690575 
vn 0.707107 -0.152007 0.690575 
vn 0.707107 -0.22578 0.670092 
vn 0.707107 -0.22578 0.670092 
vn 0.707107 -0.296906 0.641753 
vn 0.707107 -0.296906 0.641753 
vn 0.707107 -0.364552 0.60589 
vn 0.707107 -0.364552 0.60589 
vn 0.707107 -0.427923 0.562923 
vn 0.707107 -0.427923 0.562923 
vn 0.707107 -0.486277 0.513356 
vn 0.707107 -0.486277 0.513356 
vn 0.707107 -0.53893 0.457771 
vn 0.707107 -0.53893 0.457771 
vn 0.707107 -0.585265 0.396819 
vn 0.707107 -0.585265 0.396819 
vn 0.707107 -0.624737 0.331215 
vn 0.707107 -0.624737 0.331215 
vn 0.707107 -0.656886 0.261727 
vn 0.707107 -0.656886 0.261727 
vn 0.707107 -0.681333 0.189171 
vn 0.707107 -0.681333 0.189171 
vn 0.707107 -0.697792 0.114397 
vn 0.707107 -0.697792 0.114397 
vn 0.707107 -0.70607 0.038282 
vn 0.707107 -0.70607 0.038282 
vn 0.707107 -0.70607 -0.038282 
vn 0.707107 -0.707107 4.32978e-17 
vn 0.707107 -0.70607 -0.038282 
vn 0.707107 -0.697792 -0.114397 
vn 0.707107 -0.697792 -0.114397 
vn 0.707107 -0.681333 -0.189171 
vn 0.707107 -0.681333 -0.189171 
vn 0.707107 -0.656886 -0.261727 
vn 0.707107 -0.656886 -0.261727 
vn 0.707107 -0.624737 -0.331215 
vn 0.707107 -0.624737 -0.331215 
vn 0.707107 -0.585265 -0.396819 
vn 0.707107 -0.585265 -0.396819 
vn 0.707107 -0.53893 -0.457771 
vn 0.707107 -0.53893 -0.457771 
vn 0.707107 -0.486277 -0.513356 
vn 0.707107 -0.486277 -0.513356 
vn 0.707107 -0.427923 -0.562923 
vn 0.707107 -0.427923 -0.562923 
vn 0.707107 -0.364552 -0.60589 
vn 0.707107 -0.364552 -0.60589 
vn 0.707107 -0.296906 -0.641753 
vn 0.707107 -0.296906 -0.641753 
vn 0.707107 -0.22578 -0.670092 
vn 0.707107 -0.22578 -0.670092 
vn 0.707107 -0.152007 -0.690575 
vn 0.707107 -0.152007 -0.690575 
vn 0.707107 -0.0764517 -0.702962 
vn 0.707107 -0.0764517 -0.702962 
vn 0.707107 1.47196e-16 -0.707107 
vn 0.707107 1.47196e-16 -0.707107 
vn 0.707107 0.0764517 -0.702962 
vn 0.707107 0.0764517 -0.702962 
vn 0.707107 0.152007 -0.690575 
vn 0.707107 0.152007 -0.690575 
vn 0.707107 0.22578 -0.670092 
vn 0.707107 0.22578 -0.670092 
vn 0.707107 0.296906 -0.641753 
vn 0.707107 0.296906 -0.641753 
vn 0.707107 0.364552 -0.60589 
vn 0.707107 0.364552 -0.60589 
vn 0.707107 0.427923 -0.562923 
vn 0.707107 0.427923 -0.562923 
vn 0.707107 0.486277 -0.513356 
vn 0.707107 0.486277 -0.513356 
vn 0.707107 0.53893 -0.457771 
vn 0.707107 0.53893 -0.457771 
vn 0.707107 0.585265 -0.396819 
vn 0.707107 0.585265 -0.396819 
vn 0.707107 0.624737 -0.331215 
vn 0.707107 0.624737 -0.331215 
vn 0.707107 0.656886 -0.261727 
vn 0.707107 0.656886 -0.261727 
vn 0.707107 0.681333 -0.189171 
vn 0.707107 0.681333 -0.189171 
vn 0.707107 0.697792 -0.114397 
vn 0.707107 0.697792 -0.114397 
vn 0.707107 0.70607 -0.038282 
vn 0.707107 0.70607 -0.038282 
vn 0.707107 0.707107 -3.03085e-16 
vn 0.707107 0.70607 0.038282 
vn 0.707107 0.70607 0.038282 
vn 0.707107 0.697792 0.114397 
vn 0.707107 0.697792 0.114397 
vn 0.707107 0.681333 0.189171 
vn 0.707107 0.681333 0.189171 
vn 0.707107 0.656886 0.261727 
vn 0.707107 0.656886 0.261727 
vn 0.707107 0.624737 0.331215 
vn 0.707107 0.624737 0.331215 
vn 0.707107 0.585265 0.396819 
vn 0.707107 0.585265 0.396819 
vn 0.707107 0.53893 0.457771 
vn 0.707107 0.53893 0.457771 
vn 0.707107 0.486277 0.513356 
vn 0.707107 0.486277 0.513356 
vn 0.707107 0.427923 0.562923 
vn 0.707107 0.427923 0.562923 
vn 0.707107 0.364552 0.60589 
vn 0.707107 0.364552 0.60589 
vn 0.707107 0.296906 0.641753 
vn 0.707107 0.296906 0.641753 
vn 0.707107 0.22578 0.670092 
vn 0.707107 0.22578 0.670092 
vn 0.707107 0.152007 0.690575 
vn 0.707107 0.152007 0.690575 
vn 0.707107 0.0764517 0.702962 
vn 0.707107 0.0764517 0.702962 
vn 0.707107 0 0.707107 
f 995//995 996//996 997//997 
f 996//996 998//998 999//999 
f 998//998 1000//1000 1001//1001 
f 1000//1000 1002//1002 1003//1003 
f 1002//1002 1004//1004 1005//1005 
f 1004//1004 1006//1006 1007//1007 
f 1006//1006 1008//1008 1009//1009 
f 1008//1008 1010//1010 1011//1011 
f 1010//1010 1012//1012 1013//1013 
f 1012//1012 1014//1014 1015//1015 
f 1014//1014 1016//1016 1017//1017 
f 1016//1016 1018//1018 1019//1019 
f 1018//1018 1020//1020 1021//1021 
f 1020//1020 1022//1022 1023//1023 
f 1022//1022 1024//1024 1025//1025 
f 1024//1024 1026//1026 1025//1025 
f 1024//1024 1027//1027 1028//1028 
f 1027//1027 1029//1029 1030//1030 
f 1029//1029 1031//1031 1032//1032 
f 1031//1031 1033//1033 1034//1034 
f 1033//1033 1035//1035 1036//1036 
f 1035//1035 1037//1037 1038//1038 
f 1037//1037 1039//1039 1040//1040 
f 1039//1039 1041//1041 1042//1042 
f 1041//1041 1043//1043 1044//1044 
f 1043//1043 1045//1045 1046//1046 
f 1045//1045 1047//1047 1048//1048 
f 1047//1047 1049//1049 1050//1050 
f 1049//1049 1051//1051 1052//1052 
f 1051//1051 1053//1053 1054//1054 
f 1053//1053 1055//1055 1056//1056 
f 1055//1055 1057//1057 1058//1058 
f 1057//1057 1059//1059 1060//1060 
f 1059//1059 1061//1061 1062//1062 
f 1061//1061 1063//1063 1064//1064 
f 1063//1063 1065//1065 1066//1066 
f 1065//1065 1067//1067 1068//1068 
f 1067//1067 1069//1069 1070//1070 
f 1069//1069 1071//1071 1072//1072 
f 1071//1071 1073//1073 1074//1074 
f 1073//1073 1075//1075 1076//1076 
f 1075//1075 1077//1077 1078//1078 
f 1077//1077 1079//1079 1080//1080 
f 1079//1079 1081//1081 1082//1082 
f 1083//1083 1084//1084 1085//1085 
f 1082//1082 1081//1081 1083//1083 
f 1084//1084 1086//1086 1087//1087 
f 1086//1086 1088//1088 1089//1089 
f 1088//1088 1090//1090 1091//1091 
f 1090//1090 1092//1092 1093//1093 
f 1092//1092 1094//1094 1095//1095 
f 1094//1094 1096//1096 1097//1097 
f 1096//1096 1098//1098 1099//1099 
f 1098//1098 1100//1100 1101//1101 
f 1100//1100 1102//1102 1103//1103 
f 1102//1102 1104//1104 1105//1105 
f 1104//1104 1106//1106 1107//1107 
f 1106//1106 1108//1108 1109//1109 
f 1108//1108 1110//1110 1111//1111 
f 1110//1110 995//995 1112//1112 
f 1112//1112 1111//1111 1110//1110 
f 1111//1111 1109//1109 1108//1108 
f 1109//1109 1107//1107 1106//1106 
f 1107//1107 1105//1105 1104//1104 
f 1105//1105 1103//1103 1102//1102 
f 1103//1103 1101//1101 1100//1100 
f 1101//1101 1099//1099 1098//1098 
f 1099//1099 1097//1097 1096//1096 
f 1097//1097 1095//1095 1094//1094 
f 1095//1095 1093//1093 1092//1092 
f 1093//1093 1091//1091 1090//1090 
f 1091//1091 1089//1089 1088//1088 
f 1089//1089 1087//1087 1086//1086 
f 1087//1087 1085//1085 1084//1084 
f 1085//1085 1082//1082 1083//1083 
f 1082//1082 1080//1080 1079//1079 
f 1080//1080 1078//1078 1077//1077 
f 1078//1078 1076//1076 1075//1075 
f 1076//1076 1074//1074 1073//1073 
f 1074//1074 1072//1072 1071//1071 
f 1072//1072 1070//1070 1069//1069 
f 1070//1070 1068//1068 1067//1067 
f 1068//1068 1066//1066 1065//1065 
f 1066//1066 1064//1064 1063//1063 
f 1064//1064 1062//1062 1061//1061 
f 1062//1062 1060//1060 1059//1059 
f 1060//1060 1058//1058 1057//1057 
f 1058//1058 1056//1056 1055//1055 
f 1056//1056 1054//1054 1053//1053 
f 1054//1054 1052//1052 1051//1051 
f 1052//1052 1050//1050 1049//1049 
f 1050//1050 1048//1048 1047//1047 
f 1048//1048 1046//1046 1045//1045 
f 1046//1046 1044//1044 1043//1043 
f 1044//1044 1042//1042 1041//1041 
f 1042//1042 1040//1040 1039//1039 
f 1040//1040 1038//1038 1037//1037 
f 1038//1038 1036//1036 1035//1035 
f 1036//1036 1034//1034 1033//1033 
f 1034//1034 1032//1032 1031//1031 
f 1032//1032 1030//1030 1029//1029 
f 1030//1030 1028//1028 1027//1027 
f 1028//1028 1026//1026 1024//1024 
f 1025//1025 1023//1023 1022//1022 
f 1023//1023 1021//1021 1020//1020 
f 1021//1021 1019//1019 1018//1018 
f 1019//1019 1017//1017 1016//1016 
f 1017//1017 1015//1015 1014//1014 
f 1015//1015 1013//1013 1012//1012 
f 1013//1013 1011//1011 1010//1010 
f 1011//1011 1009//1009 1008//1008 
f 1009//1009 1007//1007 1006//1006 
f 1007//1007 1005//1005 1004//1004 
f 1005//1005 1003//1003 1002//1002 
f 1003//1003 1001//1001 1000//1000 
f 1001//1001 999//999 998//998 
f 999//999 997//997 996//996 
f 997//997 1112//1112 995//995 
